<?xml version="1.0" encoding="utf-8"?>
<!-- Generator: Adobe Illustrator 26.0.2, SVG Export Plug-In . SVG Version: 6.00 Build 0)  -->
<svg version="1.1" id="Layer_1" xmlns="http://www.w3.org/2000/svg" xmlns:xlink="http://www.w3.org/1999/xlink" x="0px" y="0px"
	 viewBox="0 0 300 56" style="enable-background:new 0 0 300 56;" xml:space="preserve">
<style type="text/css">
	.st0{fill:none;stroke:#486AFB;stroke-miterlimit:10;}
	.st1{opacity:0.1;}
	.st2{fill:#486AFB;}
	.st3{opacity:0.1;fill:none;stroke:#486AFB;stroke-miterlimit:10;}
	.st4{opacity:0.1;fill:#486AFB;}
</style>
<g>
	<circle class="st0" cx="149.02" cy="44.09" r="11"/>
	<circle class="st0" cx="105.96" cy="11.91" r="11"/>
	<circle class="st0" cx="64.39" cy="11.74" r="11"/>
	<g class="st1">
		<g>
			<line class="st0" x1="76.99" y1="44.23" x2="89.82" y2="44.23"/>
			<g>
				<path class="st2" d="M92.83,44.23c-1.42,0.53-3.18,1.43-4.27,2.38l0.86-2.38l-0.86-2.38C89.65,42.81,91.41,43.71,92.83,44.23z"
					/>
			</g>
		</g>
	</g>
	<circle class="st3" cx="64.39" cy="44.23" r="11"/>
	<g>
		<g>
			<line class="st0" x1="75.34" y1="20.08" x2="91.8" y2="35.39"/>
			<g>
				<path class="st2" d="M94.01,37.44c-1.4-0.58-3.3-1.12-4.75-1.17l2.25-1.16l0.99-2.33C92.65,34.23,93.33,36.09,94.01,37.44z"/>
			</g>
		</g>
	</g>
	<path class="st2" d="M63.84,11.41c-0.11,0.46-0.32,1.3-0.7,2.02c-0.35,0.68-0.73,1.16-1.15,1.16c-0.33,0-0.54-0.29-0.54-1.21
		c0-0.42,0.06-0.99,0.32-1.97H63.84 M61.85,11.09c0.17-0.64,0.37-1.43,0.76-2.14c0.27-0.49,0.64-1.04,1.08-1.04
		c0.49,0,0.55,0.64,0.55,1.2c0,0.49-0.08,0.99-0.32,1.98H61.85z M64.9,9.73c0-0.65-0.18-2.04-1.19-2.04c-1.38,0-2.91,2.8-2.91,5.08
		c0,0.93,0.29,2.04,1.19,2.04C63.39,14.81,64.9,11.95,64.9,9.73z"/>
	<path class="st2" d="M105.2,11.37c-0.11,0.46-0.32,1.3-0.7,2.02c-0.35,0.68-0.72,1.16-1.15,1.16c-0.33,0-0.54-0.29-0.54-1.21
		c0-0.42,0.06-0.99,0.32-1.97H105.2 M103.21,11.06c0.17-0.64,0.37-1.43,0.76-2.14c0.27-0.49,0.64-1.04,1.08-1.04
		c0.49,0,0.55,0.64,0.55,1.2c0,0.49-0.08,0.99-0.32,1.98H103.21z M106.26,9.69c0-0.65-0.18-2.04-1.19-2.04
		c-1.38,0-2.91,2.8-2.91,5.08c0,0.93,0.29,2.04,1.19,2.04C104.75,14.77,106.26,11.92,106.26,9.69z"/>
	<circle class="st0" cx="105.96" cy="44.42" r="11"/>
	<path class="st2" d="M104.18,45.54c-0.05,0.18-0.05,0.2-0.2,0.37c-0.44,0.55-0.84,0.7-1.12,0.7c-0.5,0-0.64-0.55-0.64-0.93
		c0-0.5,0.32-1.72,0.55-2.17c0.31-0.59,0.76-0.95,1.15-0.95c0.65,0,0.78,0.81,0.78,0.87c0,0.06-0.02,0.12-0.03,0.17L104.18,45.54
		 M104.83,42.97c-0.18-0.37-0.47-0.64-0.91-0.64c-1.16,0-2.39,1.46-2.39,2.91c0,0.93,0.55,1.59,1.32,1.59c0.2,0,0.7-0.04,1.29-0.75
		c0.08,0.42,0.43,0.75,0.9,0.75c0.35,0,0.58-0.23,0.73-0.55c0.17-0.36,0.3-0.96,0.3-0.98c0-0.1-0.09-0.1-0.12-0.1
		c-0.1,0-0.11,0.04-0.14,0.18c-0.17,0.65-0.35,1.23-0.75,1.23c-0.27,0-0.3-0.26-0.3-0.46c0-0.22,0.02-0.3,0.13-0.74
		c0.11-0.42,0.13-0.52,0.22-0.89l0.36-1.39c0.07-0.28,0.07-0.3,0.07-0.34c0-0.17-0.12-0.27-0.29-0.27
		C105.01,42.53,104.86,42.75,104.83,42.97z"/>
	<path class="st2" d="M108.78,43.75c0-0.19-0.01-0.2-0.21-0.2C108.11,44,107.48,44,107.19,44v0.25c0.17,0,0.63,0,1.02-0.2v3.59
		c0,0.23,0,0.32-0.7,0.32h-0.27v0.25c0.13-0.01,0.99-0.03,1.25-0.03c0.22,0,1.1,0.02,1.26,0.03v-0.25h-0.27
		c-0.7,0-0.7-0.09-0.7-0.32V43.75"/>
	<path class="st4" d="M64.95,43.36c0.06-0.26,0.29-1.17,0.98-1.17c0.05,0,0.29,0,0.5,0.13c-0.28,0.05-0.48,0.3-0.48,0.54
		c0,0.16,0.11,0.35,0.38,0.35c0.22,0,0.54-0.18,0.54-0.57c0-0.52-0.59-0.66-0.92-0.66c-0.58,0-0.92,0.53-1.04,0.75
		c-0.25-0.65-0.79-0.75-1.07-0.75c-1.03,0-1.6,1.28-1.6,1.53c0,0.1,0.1,0.1,0.12,0.1c0.08,0,0.11-0.02,0.13-0.11
		c0.34-1.05,0.99-1.3,1.33-1.3c0.19,0,0.54,0.09,0.54,0.67c0,0.31-0.17,0.97-0.54,2.36c-0.16,0.62-0.51,1.03-0.94,1.03
		c-0.06,0-0.29,0-0.5-0.13c0.25-0.05,0.47-0.26,0.47-0.54c0-0.27-0.22-0.35-0.37-0.35c-0.3,0-0.55,0.26-0.55,0.58
		c0,0.46,0.5,0.66,0.93,0.66c0.66,0,1.01-0.7,1.04-0.75c0.12,0.37,0.48,0.75,1.07,0.75c1.02,0,1.59-1.28,1.59-1.53
		c0-0.1-0.09-0.1-0.12-0.1c-0.09,0-0.11,0.04-0.13,0.11c-0.33,1.06-1,1.3-1.32,1.3c-0.39,0-0.55-0.32-0.55-0.66
		c0-0.22,0.06-0.44,0.17-0.87L64.95,43.36"/>
	<path class="st2" d="M67.39,11.8c0-0.19-0.01-0.2-0.21-0.2c-0.45,0.44-1.09,0.45-1.38,0.45v0.25c0.17,0,0.63,0,1.02-0.2v3.59
		c0,0.23,0,0.32-0.7,0.32h-0.27v0.25c0.13-0.01,0.99-0.03,1.25-0.03c0.22,0,1.1,0.02,1.26,0.03v-0.25h-0.27
		c-0.7,0-0.7-0.09-0.7-0.32V11.8"/>
	<path class="st2" d="M109.99,14.88h-0.24c-0.02,0.15-0.09,0.57-0.18,0.64c-0.06,0.04-0.6,0.04-0.7,0.04h-1.29
		c0.74-0.65,0.98-0.85,1.41-1.18c0.52-0.42,1-0.85,1-1.52c0-0.85-0.75-1.37-1.65-1.37c-0.87,0-1.46,0.61-1.46,1.26
		c0,0.36,0.3,0.39,0.37,0.39c0.17,0,0.37-0.12,0.37-0.37c0-0.13-0.05-0.37-0.41-0.37c0.22-0.5,0.7-0.65,1.03-0.65
		c0.7,0,1.07,0.55,1.07,1.12c0,0.61-0.44,1.1-0.66,1.35l-1.7,1.67c-0.07,0.06-0.07,0.08-0.07,0.27h2.9L109.99,14.88"/>
	<circle class="st0" cx="192.25" cy="43.84" r="11"/>
	<circle class="st3" cx="235.61" cy="11.98" r="11"/>
	<g class="st1">
		<g>
			<line class="st0" x1="235.75" y1="24.91" x2="235.75" y2="28.54"/>
			<g>
				<path class="st2" d="M235.75,31.55c-0.53-1.42-1.43-3.18-2.38-4.27l2.38,0.86l2.38-0.86C237.18,28.37,236.28,30.13,235.75,31.55
					z"/>
			</g>
		</g>
	</g>
	<path class="st4" d="M237.86,9.38c0.04-0.14,0.04-0.16,0.04-0.23c0-0.18-0.14-0.27-0.29-0.27c-0.1,0-0.26,0.06-0.35,0.21
		c-0.02,0.05-0.1,0.36-0.14,0.54c-0.07,0.26-0.14,0.53-0.2,0.79l-0.45,1.79c-0.04,0.15-0.47,0.84-1.12,0.84
		c-0.51,0-0.62-0.44-0.62-0.8c0-0.46,0.17-1.07,0.51-1.95c0.16-0.41,0.2-0.52,0.2-0.72c0-0.45-0.32-0.81-0.81-0.81
		c-0.94,0-1.31,1.44-1.31,1.53c0,0.1,0.1,0.1,0.12,0.1c0.1,0,0.11-0.02,0.16-0.18c0.27-0.93,0.67-1.23,1-1.23
		c0.08,0,0.25,0,0.25,0.32c0,0.25-0.1,0.51-0.17,0.7c-0.4,1.05-0.57,1.62-0.57,2.09c0,0.88,0.62,1.18,1.21,1.18
		c0.39,0,0.72-0.17,1-0.45c-0.13,0.52-0.25,1-0.65,1.53c-0.26,0.34-0.64,0.62-1.09,0.62c-0.14,0-0.59-0.03-0.75-0.42
		c0.16,0,0.29,0,0.43-0.12c0.1-0.09,0.2-0.22,0.2-0.41c0-0.31-0.27-0.35-0.37-0.35c-0.23,0-0.56,0.16-0.56,0.65
		c0,0.5,0.44,0.86,1.05,0.86c1.02,0,2.05-0.9,2.32-2.03L237.86,9.38"/>
	<circle class="st0" cx="235.61" cy="44.5" r="11"/>
	<path class="st2" d="M235.15,45.89c0.02-0.11,0.45-2.32,1.01-3.48c0.27-0.54,0.48-0.93,0.8-0.93c0.34,0,0.34,0.36,0.34,0.52
		C237.29,43.66,235.63,45.4,235.15,45.89 M233.74,47.28c-0.02,0.03-0.05,0.06-0.05,0.1c0,0.05,0.06,0.13,0.12,0.13
		c0.05,0,0.08-0.03,0.36-0.31c0.08-0.07,0.28-0.26,0.36-0.34c0.1,0.78,0.39,1.52,1.11,1.52c0.4,0,0.75-0.23,0.95-0.38
		c0.14-0.1,0.61-0.49,0.61-0.59c0-0.03-0.03-0.12-0.12-0.12c-0.03,0-0.04,0.01-0.13,0.09c-0.64,0.63-1,0.77-1.29,0.77
		c-0.45,0-0.61-0.52-0.61-1.29c0-0.06,0.02-0.52,0.05-0.57c0.02-0.03,0.02-0.05,0.22-0.25c0.8-0.8,2.21-2.48,2.21-4.02
		c0-0.17,0-0.77-0.59-0.77c-0.82,0-1.56,1.64-1.66,1.87c-0.48,1.08-0.79,2.25-0.79,3.43L233.74,47.28z"/>
	<path class="st2" d="M192.17,45.96c-0.43,0-0.86-0.31-0.86-1.08c0-0.49,0.26-1.56,0.58-2.07c0.5-0.77,1.06-0.91,1.34-0.91
		c0.58,0,0.88,0.48,0.88,1.07c0,0.39-0.2,1.43-0.58,2.08C193.17,45.62,192.62,45.96,192.17,45.96 M194.82,43.35
		c0-1.03-0.7-1.68-1.59-1.68c-1.33,0-2.66,1.41-2.66,2.82c0,0.98,0.67,1.68,1.59,1.68C193.48,46.17,194.82,44.8,194.82,43.35z"/>
	<circle class="st0" cx="149.02" cy="11.5" r="11"/>
	<path class="st2" d="M148.26,10.96c-0.11,0.46-0.32,1.3-0.7,2.02c-0.35,0.68-0.72,1.16-1.15,1.16c-0.33,0-0.54-0.29-0.54-1.21
		c0-0.42,0.06-0.99,0.32-1.97H148.26 M146.27,10.65c0.17-0.64,0.37-1.43,0.76-2.14c0.27-0.49,0.64-1.04,1.08-1.04
		c0.49,0,0.55,0.64,0.55,1.2c0,0.49-0.08,0.99-0.32,1.98H146.27z M149.32,9.28c0-0.65-0.18-2.04-1.19-2.04
		c-1.38,0-2.91,2.8-2.91,5.08c0,0.93,0.29,2.04,1.19,2.04C147.81,14.36,149.32,11.51,149.32,9.28z"/>
	<path class="st2" d="M147.24,45.13c-0.05,0.18-0.05,0.2-0.2,0.37c-0.44,0.55-0.84,0.7-1.12,0.7c-0.5,0-0.64-0.55-0.64-0.93
		c0-0.5,0.32-1.72,0.55-2.17c0.31-0.59,0.76-0.95,1.15-0.95c0.65,0,0.78,0.81,0.78,0.87c0,0.06-0.02,0.12-0.03,0.17L147.24,45.13
		 M147.89,42.56c-0.18-0.37-0.47-0.64-0.91-0.64c-1.16,0-2.39,1.46-2.39,2.91c0,0.93,0.55,1.59,1.32,1.59c0.2,0,0.7-0.04,1.29-0.75
		c0.08,0.42,0.43,0.75,0.9,0.75c0.35,0,0.58-0.23,0.73-0.55c0.17-0.36,0.3-0.96,0.3-0.98c0-0.1-0.09-0.1-0.12-0.1
		c-0.1,0-0.11,0.04-0.14,0.18c-0.17,0.65-0.35,1.23-0.75,1.23c-0.27,0-0.3-0.26-0.3-0.46c0-0.22,0.02-0.3,0.13-0.74
		c0.11-0.42,0.13-0.52,0.22-0.89l0.36-1.39c0.07-0.28,0.07-0.3,0.07-0.34c0-0.17-0.12-0.27-0.29-0.27
		C148.07,42.12,147.92,42.34,147.89,42.56z"/>
	<path class="st2" d="M151.42,13.4c0.55,0,0.94,0.38,0.94,1.13c0,0.87-0.51,1.13-0.91,1.13c-0.28,0-0.9-0.08-1.2-0.49
		c0.33-0.01,0.41-0.25,0.41-0.39c0-0.23-0.17-0.39-0.39-0.39c-0.2,0-0.39,0.12-0.39,0.41c0,0.66,0.73,1.09,1.58,1.09
		c0.98,0,1.65-0.65,1.65-1.36c0-0.55-0.45-1.1-1.22-1.26c0.74-0.27,1-0.79,1-1.22c0-0.55-0.64-0.97-1.42-0.97
		c-0.78,0-1.38,0.38-1.38,0.94c0,0.24,0.15,0.37,0.37,0.37c0.22,0,0.36-0.16,0.36-0.36c0-0.2-0.14-0.35-0.36-0.37
		c0.25-0.31,0.73-0.39,0.99-0.39c0.32,0,0.76,0.15,0.76,0.77c0,0.3-0.1,0.62-0.28,0.84c-0.23,0.27-0.43,0.28-0.78,0.3
		c-0.18,0.01-0.19,0.01-0.23,0.02c-0.01,0-0.07,0.01-0.07,0.09c0,0.1,0.06,0.1,0.18,0.1H151.42"/>
	<g>
		<g>
			<line class="st0" x1="119.93" y1="44.32" x2="132.76" y2="44.32"/>
			<g>
				<path class="st2" d="M135.78,44.32c-1.42,0.53-3.18,1.43-4.27,2.38l0.86-2.38l-0.86-2.38
					C132.59,42.89,134.36,43.79,135.78,44.32z"/>
			</g>
		</g>
	</g>
	<g>
		<g>
			<line class="st0" x1="118.28" y1="20.17" x2="134.74" y2="35.48"/>
			<g>
				<path class="st2" d="M136.95,37.53c-1.4-0.58-3.3-1.12-4.75-1.17l2.25-1.16l0.99-2.33C135.59,34.32,136.27,36.18,136.95,37.53z"
					/>
			</g>
		</g>
	</g>
	<g>
		<g>
			<line class="st0" x1="162.95" y1="43.91" x2="175.78" y2="43.91"/>
			<g>
				<path class="st2" d="M178.8,43.91c-1.42,0.53-3.18,1.43-4.27,2.38l0.86-2.38l-0.86-2.38C175.62,42.48,177.38,43.38,178.8,43.91z
					"/>
			</g>
		</g>
	</g>
	<g>
		<g>
			<line class="st0" x1="161.3" y1="19.76" x2="177.76" y2="35.07"/>
			<g>
				<path class="st2" d="M179.97,37.12c-1.4-0.58-3.3-1.12-4.75-1.17l2.25-1.16l0.99-2.33C178.61,33.91,179.29,35.77,179.97,37.12z"
					/>
			</g>
		</g>
	</g>
	<g>
		<g>
			<line class="st0" x1="206.14" y1="43.74" x2="218.97" y2="43.74"/>
			<g>
				<path class="st2" d="M221.99,43.74c-1.42,0.53-3.18,1.43-4.27,2.38l0.86-2.38l-0.86-2.38C218.8,42.31,220.57,43.21,221.99,43.74
					z"/>
			</g>
		</g>
	</g>
	<path class="st2" d="M153.03,46.53h-0.24c-0.02,0.15-0.09,0.57-0.18,0.64c-0.06,0.04-0.6,0.04-0.7,0.04h-1.29
		c0.74-0.65,0.98-0.85,1.41-1.18c0.52-0.42,1-0.85,1-1.52c0-0.85-0.75-1.37-1.65-1.37c-0.87,0-1.46,0.61-1.46,1.26
		c0,0.36,0.3,0.39,0.37,0.39c0.17,0,0.37-0.12,0.37-0.37c0-0.13-0.05-0.37-0.41-0.37c0.22-0.5,0.7-0.65,1.03-0.65
		c0.7,0,1.07,0.55,1.07,1.12c0,0.61-0.44,1.1-0.66,1.35l-1.7,1.67c-0.07,0.06-0.07,0.08-0.07,0.27h2.9L153.03,46.53"/>
</g>
</svg>
