<svg id="Layer_1" data-name="Layer 1" xmlns="http://www.w3.org/2000/svg" viewBox="0 0 383.62 158.51"><defs><style>.cls-1{fill:#486afb;}.cls-2{fill:#fd46fc;}</style></defs><path class="cls-1" d="M162.56,88.29a28,28,0,0,1,.21,7c-.08,2.41-.08,4.83,0,7.24s.35,4.85.44,7.29,0,5,.19,7.55c.09,1.35.27,2.68.45,4a21.48,21.48,0,0,0,.61,4,.68.68,0,0,0,1.3,0,7.11,7.11,0,0,0,.08-3.55c-.15-1.19-.35-2.38-.46-3.58-.23-2.51-.19-5-.27-7.56s-.39-5-.51-7.55-.18-4.85-.16-7.27a35.46,35.46,0,0,0-.44-7.91c-.2-.93-1.62-.56-1.43.37Z" transform="translate(-0.02 -5.08)"/><path class="cls-1" d="M164.49,126c1.87,0,3.74-.11,5.6-.2a50.42,50.42,0,0,1,5.36.12c3.71.22,7.43.31,11.14.4,7.42.17,14.84.27,22.26.36,2,0,4.06.09,6.08.29s4.09.63,6.14,1a.85.85,0,0,0,1.06-.81V127c0-.91-1.46-1.17-1.62-.21l0,.17,1-.59a35.46,35.46,0,0,0-10.94-1.52c-3.73-.1-7.46,0-11.19-.09-7.49-.11-15-.23-22.47-.54-2-.08-4-.27-6.08-.18s-4.22.28-6.33.29a.85.85,0,0,0,0,1.7Z" transform="translate(-0.02 -5.08)"/><path class="cls-1" d="M221.94,124.92a122,122,0,0,1-.75-14.18c-.12-4.76-.51-9.52-.9-14.26-.22-2.7-.46-5.38-.75-8.07a1,1,0,0,0-1-1,1,1,0,0,0-1,1c.51,4.8.88,9.61,1.24,14.43s.38,9.64.55,14.47a78.69,78.69,0,0,0,.67,8.11,1,1,0,0,0,1.19.7,1,1,0,0,0,.69-1.19Z" transform="translate(-0.02 -5.08)"/><path class="cls-1" d="M164.91,86.47l-.58.23a.76.76,0,0,0-.18,1.38,5.66,5.66,0,0,0,2.72.49c1,.06,2.08.09,3.13.1,2.16,0,4.32-.07,6.47-.14,4.44-.15,8.86-.36,13.29-.56s8.75-.35,13.13-.45,8.46-.26,12.68,0c2.1.12,4.14.42,6.22.73a16.79,16.79,0,0,1,2,.36,4.22,4.22,0,0,1,1.57.65.75.75,0,0,0,1.24-.72c-.26-1.37-2-1.72-3.11-1.94-1.52-.27-3.06-.51-4.59-.68a89.79,89.79,0,0,0-12.81-.29c-8.87.24-17.74.69-26.61,1.07-2.46.11-4.94.21-7.41.29-1.24,0-2.49,0-3.73,0-.6,0-1.21-.08-1.81-.06a3.27,3.27,0,0,1-1.61-.16v1.31l.57-.24c.77-.33.23-1.68-.56-1.37Z" transform="translate(-0.02 -5.08)"/><path class="cls-1" d="M170.57,94.49h0s0,0,0,0Z" transform="translate(-0.02 -5.08)"/><path class="cls-1" d="M170.06,94.66a20.76,20.76,0,0,0,3.52.52,10.29,10.29,0,0,0,3.5-.19.53.53,0,0,0,0-1,23.79,23.79,0,0,0-3.37-.37,27,27,0,0,1-3.24-.52c-1-.23-1.44,1.33-.42,1.57Z" transform="translate(-0.02 -5.08)"/><path class="cls-1" d="M170.26,99.63c1,0,2.06.14,3.1.17.51,0,1,0,1.55,0a3.48,3.48,0,0,0,1.64-.22.66.66,0,0,0,0-1.14,4.48,4.48,0,0,0-1.63-.24c-.52,0-1-.1-1.55-.15-1-.12-2.06-.2-3.1-.24a.91.91,0,0,0-.9.89.89.89,0,0,0,.89.9Z" transform="translate(-0.02 -5.08)"/><path class="cls-1" d="M170.87,103.57c1.16,0,2.32-.12,3.47-.24l1.67-.15a6,6,0,0,0,1.83-.31.56.56,0,0,0,0-1,4,4,0,0,0-1.81-.28c-.56,0-1.11,0-1.67.07-1.15.06-2.31.13-3.47.11a.89.89,0,0,0,0,1.77Z" transform="translate(-0.02 -5.08)"/><path class="cls-1" d="M202.86,70.48q-.36,4.09-.52,8.19a54.86,54.86,0,0,0,.11,8.21.63.63,0,0,0,1.26,0c.3-2.73.29-5.46.37-8.21s.22-5.46.43-8.19c.09-1.07-1.56-1.07-1.65,0Z" transform="translate(-0.02 -5.08)"/><path class="cls-1" d="M208,72.3a61.73,61.73,0,0,0-.18,7.45c.05,1.23.12,2.45.19,3.68a11.49,11.49,0,0,0,.59,3.59c.2.52,1.14.54,1.07-.13a70.12,70.12,0,0,1-.17-7.25c0-2.45,0-4.89.14-7.33.08-1.07-1.56-1.06-1.64,0Z" transform="translate(-0.02 -5.08)"/><path class="cls-1" d="M204.29,71.42a13.49,13.49,0,0,0,3.59.12,23.06,23.06,0,0,0,3.53-.88.51.51,0,0,0,.12-.92,3.23,3.23,0,0,0-1.87-.17c-.59.07-1.17.16-1.77.18a19.62,19.62,0,0,1-3.59-.21.94.94,0,1,0,0,1.88Z" transform="translate(-0.02 -5.08)"/><path class="cls-1" d="M210.15,93.71a3.59,3.59,0,0,0,1.25,2,2.28,2.28,0,0,0,2.42-.31,1.94,1.94,0,0,0,.76-1,2.68,2.68,0,0,0,0-1.35,2.17,2.17,0,0,0-1.75-1.53,6.88,6.88,0,0,0-1.19-.2,1.21,1.21,0,0,0-1.29.8.66.66,0,0,0,.62.82.63.63,0,0,0,.57-.33c0-.06.09-.1,0,0,.08-.09-.15.1-.05,0s0,0-.09,0l.09,0s-.18,0-.06,0h.3l.18,0c.14,0-.16,0,0,0h.1l.36.06.43.09.23.07.07,0-.05,0,.07,0,.15.09c.11.07-.12-.1,0,0l.05,0,.07.07c.07.07,0,0,0,0a2.12,2.12,0,0,0,.12.2c0,.06-.05-.16,0,0l0,.11a1.6,1.6,0,0,1,.05.21c0,.15,0-.12,0,0s0,.06,0,.09V94c0,.06,0,0,0,0s0,.08,0,.1l0,.09c0,.12.07-.11,0,0a1,1,0,0,0-.1.15s.09-.1,0,0l-.08.09s-.1.12,0,0a.15.15,0,0,1-.06,0l-.24.14a1.67,1.67,0,0,1-.23.12c.09,0,0,0,0,0l-.18.06-.21,0c.14,0,0,0-.09,0s-.11,0-.11,0,.13,0,0,0h-.06l-.07,0,0,0c-.05,0-.13-.06-.17-.11s.06,0,0,0a.94.94,0,0,0-.1-.1l-.06-.07c-.1-.1.05.08,0,0a2.14,2.14,0,0,1-.13-.19,4.78,4.78,0,0,1-.23-.45s-.06-.15,0,0l0-.12-.11-.3a.54.54,0,0,0-.65-.39.56.56,0,0,0-.39.66Z" transform="translate(-0.02 -5.08)"/><path class="cls-1" d="M210.88,101.09a3.3,3.3,0,0,0,1.31,1.48,2.3,2.3,0,0,0,1,.24,4.07,4.07,0,0,0,.6-.06,4.15,4.15,0,0,0,.48-.11,1.21,1.21,0,0,0,.8-.76A1.55,1.55,0,0,0,215,101a5.58,5.58,0,0,0-.43-1,2.63,2.63,0,0,0-.64-.8,1.42,1.42,0,0,0-.85-.36,1.28,1.28,0,0,0-.55.09,1.7,1.7,0,0,0-.7.44,1.76,1.76,0,0,0-.45.75c-.12.34.27.78.63.64l.54-.24s.19-.1,0,0a.78.78,0,0,1,.21-.09c-.2,0-.11,0-.06,0l.12,0,.07,0c-.19.06-.16,0-.07,0h.06c.12,0-.2,0-.09,0l.14,0H213c.13,0-.06,0-.09,0a.91.91,0,0,0,.14.07c.16.1-.15-.13,0,0a1.54,1.54,0,0,1,.28.29l.05.06c-.16-.18-.06-.08,0,0l.12.18c.08.12.16.23.23.36a2.2,2.2,0,0,1,.15.26.59.59,0,0,1,0,.08s-.06-.18,0-.09a.57.57,0,0,0,0,.14c0-.15,0-.14,0-.08s0,0,0-.08a.06.06,0,0,0,0,0c0,.09.08-.14,0-.06a.08.08,0,0,1,0,0c0,.08.11-.1,0,0s0,0,0,0,.13-.08,0,0l-.13.07-.1,0c.11,0,0,0,0,0l-.22.07-.13,0c-.11,0,.09,0,0,0a1.61,1.61,0,0,1-.38,0c.13,0-.05,0-.08,0l-.07,0-.07,0h0l-.09,0-.17-.11c-.09-.06.05,0,0,0l-.09-.08a.93.93,0,0,1-.14-.14l-.13-.15c.07.09,0,0,0,0l-.07-.09c-.09-.14-.17-.28-.25-.42a.46.46,0,0,0-.8.46Z" transform="translate(-0.02 -5.08)"/><path class="cls-1" d="M210.58,106.14a5.91,5.91,0,0,0-.2,2.36,2,2,0,0,0,.63,1.17,2.33,2.33,0,0,0,1.48.6,2.5,2.5,0,0,0,2.47-1.5,2.71,2.71,0,0,0-.42-2.38,2.44,2.44,0,0,0-1.26-1,1.63,1.63,0,0,0-.85,0,1.33,1.33,0,0,0-.79.6.64.64,0,0,0,.55.94h.43c.18,0-.16,0-.05,0l.08,0c.17,0-.13-.06-.07,0l.27.11c.13,0-.2-.09-.08,0l.11.06.08.05c.11.07-.2-.16-.05,0a2.05,2.05,0,0,1,.32.34l-.13-.18.19.29.08.16,0,.06c.06.13-.08-.2,0-.07a3,3,0,0,1,.09.32s0,0,0,.07,0-.22,0-.08a.81.81,0,0,1,0,.16s0,.1,0,.15c0-.27,0-.1,0,0s0,.14,0,0,0,0,0,0a.43.43,0,0,0,0,.07s-.11.16,0,0,0,0-.06.06-.22.14,0,0l-.16.11-.07,0,0,0-.08,0-.19,0c-.21,0,.18,0,0,0a.81.81,0,0,1-.22,0h0a.65.65,0,0,1-.19,0l-.09,0c-.09,0,.21.1.07,0l-.2-.1-.07-.05c-.11-.07.08.05.07.06s-.11-.1-.13-.12l0-.07c-.07-.07.13.19.06.08a.86.86,0,0,1-.1-.16l0-.07c.11.21.06.15,0,.1a1.09,1.09,0,0,0-.05-.17l0-.16c0-.13,0,.17,0,.08s0-.09,0-.13a4.21,4.21,0,0,1,0-.79s0-.14,0,0,0,0,0,0l0-.18.06-.39a.8.8,0,0,0-.07-.55.72.72,0,0,0-.44-.34.74.74,0,0,0-.89.51Z" transform="translate(-0.02 -5.08)"/><path class="cls-1" d="M206.45,70.54a5,5,0,0,0,3.43-2.5,6.91,6.91,0,0,0,1.15-4.8c-.71-3.1-4.68-4.29-7.44-3.48-1.24.37-2.3,1.41-1.79,2.8a3.8,3.8,0,0,0,3.32,2.13,5.09,5.09,0,0,0,2.44-.94c.64-.4,1.31-.75,1.95-1.16a5.82,5.82,0,0,0,2.87-3.49c.35-1.76-.91-3.68-1.93-5s-2.4-2.79-4-3.12a5.82,5.82,0,0,0-2.49.13,2.16,2.16,0,0,0-1.57,1c-.7,1.45,1.51,2.22,2.49,2.56a7.6,7.6,0,0,0,2.62.49,6.59,6.59,0,0,0,2.71-.76,6.8,6.8,0,0,0,3.37-3.78c1.37-3.5-1.12-6.73-4.57-7.49-1.22-.26-3.28-.45-4.16.64a1.35,1.35,0,0,0,.11,1.83,2.22,2.22,0,0,0,1.75.45,9.68,9.68,0,0,0,3.75-1.32,7.52,7.52,0,0,0,3.6-4,11.17,11.17,0,0,0,.47-2.63c.06-.62-1-.91-1.2-.32a18.14,18.14,0,0,1-1.56,3.58,7.73,7.73,0,0,1-3,2.33l-.46.22c-.06,0-.44.19-.19.09-.13,0-.27.11-.41.15a5.8,5.8,0,0,1-1.22.33c-.16,0-.32,0-.47,0s0,0,0,0a2.81,2.81,0,0,1,1.5-.42c2.34-.1,5.28,1.73,5.21,4.32a5.94,5.94,0,0,1-1.57,3.34,6.23,6.23,0,0,1-3.33,1.95,6.58,6.58,0,0,1-3.62-.57c-.35-.15-1.18-.47-.59-.82a4.32,4.32,0,0,1,1.81-.38c1.42-.05,2.43,1,3.33,2a9.9,9.9,0,0,1,2.11,3.49c.91,2.61-1.88,3.79-3.66,5-1.06.7-2,1.5-3.34.88-.91-.43-1.79-1.54-.61-2.27a5.2,5.2,0,0,1,4.23-.12,3.8,3.8,0,0,1,2.42,2.41,5.41,5.41,0,0,1-.89,4,4.29,4.29,0,0,1-1.14,1.52,4.68,4.68,0,0,1-1.69.71.57.57,0,0,0,.29,1.11Z" transform="translate(-0.02 -5.08)"/><path class="cls-2" d="M82.49,122.38c.88-1.56,1.68-3.16,2.65-4.67a25.19,25.19,0,0,1,1.52-2.15,6.88,6.88,0,0,0,1.42-2.28c.1-.37-.33-.75-.66-.45a18,18,0,0,0-1.75,2A19.31,19.31,0,0,0,84.13,117c-.92,1.54-1.72,3.14-2.59,4.7-.37.66.58,1.31.95.66Z" transform="translate(-0.02 -5.08)"/><path class="cls-2" d="M86.61,114.29c.48,1.41,1,2.82,1.51,4.2a15,15,0,0,0,2.08,4c.47.6,1.31,0,1.07-.68-.49-1.38-1.14-2.69-1.69-4s-1-2.73-1.52-4.11a.79.79,0,0,0-1-.39.83.83,0,0,0-.4,1.06Z" transform="translate(-0.02 -5.08)"/><path class="cls-2" d="M86.47,106.55a44.13,44.13,0,0,1,.46,4.45c0,.73,0,1.46,0,2.19s-.11,1.43-.06,2.14a.6.6,0,0,0,1.08.23,4.7,4.7,0,0,0,.47-2.25c0-.77,0-1.54,0-2.31a39,39,0,0,0-.63-4.68.65.65,0,0,0-1.27.23Z" transform="translate(-0.02 -5.08)"/><path class="cls-2" d="M87,110.93a5.09,5.09,0,0,1-.47-.34c-.1-.08-.07,0,0,0a.52.52,0,0,1-.11-.1l-.19-.2c-.29-.31-.57-.64-.86-1a10.64,10.64,0,0,0-.84-.94c-.32-.29-.67-.57-1-.86a.49.49,0,0,0-.76.48,4.22,4.22,0,0,0,.64,1.27l.18.26s.1.17.05.08,0,.09,0,.09c.15.23.29.46.45.69A6.71,6.71,0,0,0,86,112.35a.88.88,0,0,0,1.2-.23.87.87,0,0,0-.21-1.19Z" transform="translate(-0.02 -5.08)"/><path class="cls-2" d="M88.11,112.18c.59-.52,1.16-1,1.75-1.55a11.26,11.26,0,0,0,1.67-1.78.59.59,0,0,0-.74-.87,8.07,8.07,0,0,0-2,1.35L87,110.87a.88.88,0,0,0-.11,1.21.86.86,0,0,0,1.2.1Z" transform="translate(-0.02 -5.08)"/><path class="cls-2" d="M84.39,102.81a5.11,5.11,0,0,0,.06,2.27,2,2,0,0,0,2.39,1.07,3.58,3.58,0,0,0,2.57-1.94,2,2,0,0,0,.23-1.53,1.91,1.91,0,0,0-1.19-1.18,4.65,4.65,0,0,0-2-.22c-.31,0-.62.06-.93.11s-.6.12-.91.2a.57.57,0,0,0,0,1.13,7.11,7.11,0,0,0,1.53,0l.34,0c-.13,0,0,0,.05,0h.16a4.36,4.36,0,0,1,.72,0h.07l.12,0,.33.11s.16.09,0,0l.12.07.1.08c-.08-.08-.1-.09,0,0l0,.06c.08.07,0,.08,0,0a.37.37,0,0,0,0,.11s0-.18,0-.06,0,.09,0,.12,0-.15,0-.07,0,.09,0,.13,0-.12,0,0,0,.11,0,.16a1,1,0,0,1-.11.24c.12-.14,0,0,0,0l-.06.1-.16.23-.11.14c0,.07-.09.12,0,0a2.37,2.37,0,0,1-.48.41s-.08.09,0,0l-.15.08-.31.14c-.12,0,0,0,0,0l-.17,0a1.37,1.37,0,0,1-.28,0l-.18,0h0l-.31,0c.17,0,0,0-.09,0s0,0,0,0l-.08,0-.07-.06s.11.12,0,0l-.06-.07,0,0c0,.08.06.09,0,0s-.07-.13-.1-.2,0-.12,0,0c0,0,0-.09,0-.14s0-.16,0-.24a.31.31,0,0,0,0-.1s0-.18,0-.1,0-.06,0-.06v-.16c0-.08,0-.17,0-.26s0-.35,0-.53a.51.51,0,0,0-.46-.55.53.53,0,0,0-.57.47Z" transform="translate(-0.02 -5.08)"/><path class="cls-2" d="M34.44,122.34c.88-1.56,1.68-3.16,2.65-4.67.47-.74,1-1.46,1.52-2.15A6.84,6.84,0,0,0,40,113.25c.1-.38-.33-.76-.66-.46a18,18,0,0,0-1.75,1.95A20.2,20.2,0,0,0,36.08,117c-.92,1.54-1.72,3.14-2.59,4.71-.37.65.58,1.31.95.65Z" transform="translate(-0.02 -5.08)"/><path class="cls-2" d="M38.56,114.25c.48,1.41,1,2.82,1.51,4.21a15.2,15.2,0,0,0,2.08,4c.47.59,1.31,0,1.08-.68-.5-1.38-1.15-2.69-1.7-4s-1-2.74-1.52-4.12a.79.79,0,0,0-1-.38.81.81,0,0,0-.4,1Z" transform="translate(-0.02 -5.08)"/><path class="cls-2" d="M38.42,106.51a44.43,44.43,0,0,1,.46,4.45c0,.73,0,1.46,0,2.19s-.11,1.43-.06,2.14a.6.6,0,0,0,1.08.23,4.67,4.67,0,0,0,.47-2.25c0-.77,0-1.54,0-2.3a38.69,38.69,0,0,0-.63-4.68.64.64,0,0,0-1.27.22Z" transform="translate(-0.02 -5.08)"/><path class="cls-2" d="M39,110.9a5.2,5.2,0,0,1-.47-.35c-.1-.08-.07,0,0,0a1.14,1.14,0,0,1-.11-.11c-.07-.06-.13-.13-.19-.19l-.86-1a10.52,10.52,0,0,0-.84-.93c-.32-.3-.67-.57-1-.87s-.87.11-.76.49a4.46,4.46,0,0,0,.64,1.27,2.4,2.4,0,0,1,.18.26s.1.17.06.08,0,.08,0,.08c.15.24.29.47.45.7A6.67,6.67,0,0,0,38,112.31a.88.88,0,0,0,1.2-.22A.86.86,0,0,0,39,110.9Z" transform="translate(-0.02 -5.08)"/><path class="cls-2" d="M40.07,112.14c.58-.52,1.15-1,1.74-1.55a10.84,10.84,0,0,0,1.67-1.78.6.6,0,0,0-.74-.87,7.84,7.84,0,0,0-2,1.35c-.59.51-1.17,1-1.75,1.55a.85.85,0,1,0,1.1,1.3Z" transform="translate(-0.02 -5.08)"/><path class="cls-2" d="M36.35,102.77a5,5,0,0,0,0,2.28,2.06,2.06,0,0,0,2.39,1.07,3.59,3.59,0,0,0,2.57-2,2,2,0,0,0,.23-1.53,1.87,1.87,0,0,0-1.19-1.17,4.65,4.65,0,0,0-2-.23c-.31,0-.62.06-.93.11s-.6.13-.91.21a.57.57,0,0,0,0,1.13,6.52,6.52,0,0,0,1.53,0l.34,0c-.13,0,0,0,.05,0h.16a4.35,4.35,0,0,1,.72,0s.23.05.07,0l.12,0a2.19,2.19,0,0,1,.33.12s.16.09,0,0L40,103a.87.87,0,0,1,.1.08l0,0,0,.05c.08.08,0,.08,0,0a.54.54,0,0,0,0,.11s0-.18,0-.07,0,.1,0,.12,0-.14,0-.06,0,.08,0,.13,0-.12,0,0,0,.1,0,.16a1,1,0,0,1-.11.23c.12-.14,0,0,0,0l-.06.1-.16.24-.11.13c0,.07-.09.13,0,0a2,2,0,0,1-.48.4s-.08.09,0,0a1.19,1.19,0,0,1-.15.09l-.31.13c-.12,0,0,0,0,0l-.17,0-.28,0h-.18l-.31,0c.17,0,0,0-.09,0s0,0,0,0-.07,0-.08,0l-.07,0s.11.12,0,0l-.06-.07,0-.06c0,.08.06.1,0,.06l-.1-.2s0-.13,0,0l0-.13a1.9,1.9,0,0,1,0-.25s0-.06,0-.1,0-.17,0-.1,0-.06,0-.06v-.15a2.35,2.35,0,0,0,0-.26c0-.18,0-.36,0-.54a.51.51,0,1,0-1-.08Z" transform="translate(-0.02 -5.08)"/><path class="cls-2" d="M112.91,112.45c-1,1.53-2,3.08-2.92,4.63-.46.74-.91,1.49-1.39,2.21s-1.29,1.9-.33,2.41a.68.68,0,0,0,.78,0c.31-.25.34-.64.54-1s.44-.67.66-1c.43-.68.82-1.39,1.23-2.09.86-1.46,1.72-2.91,2.6-4.36.48-.78-.66-1.57-1.17-.79Z" transform="translate(-0.02 -5.08)"/><path class="cls-2" d="M112.62,113.66c.66,1.76,1.41,3.48,2.2,5.18.39.85.79,1.7,1.19,2.55a8.28,8.28,0,0,0,1.17,1.94.49.49,0,0,0,.76,0,2.62,2.62,0,0,0-.24-2.32c-.38-.88-.81-1.73-1.22-2.59-.83-1.79-1.63-3.58-2.33-5.43-.38-1-1.91-.29-1.53.71Z" transform="translate(-0.02 -5.08)"/><path class="cls-2" d="M112,100.84c.12,2.3.24,4.61.32,6.92s0,4.44.68,6.52a.66.66,0,0,0,1.24-.23c0-2.19-.2-4.39-.29-6.58s-.25-4.61-.38-6.91c-.06-1-1.62-.72-1.57.28Z" transform="translate(-0.02 -5.08)"/><path class="cls-2" d="M108.15,103.52a21.32,21.32,0,0,0,2.25,3.08c.38.42.79.82,1.19,1.22.19.18.37.37.54.56a4,4,0,0,0,.58.65.58.58,0,0,0,.89-.42,2.32,2.32,0,0,0-.72-1.66c-.4-.42-.83-.8-1.23-1.21a23.08,23.08,0,0,1-2.38-2.93.66.66,0,0,0-.86-.12.65.65,0,0,0-.26.83Z" transform="translate(-0.02 -5.08)"/><path class="cls-2" d="M114.28,107.83c.84-.75,1.69-1.49,2.59-2.18a24.44,24.44,0,0,0,2.65-2.21.57.57,0,0,0,.12-.73.54.54,0,0,0-.7-.2,24.85,24.85,0,0,0-3.11,1.83c-.92.68-1.79,1.42-2.65,2.19a.85.85,0,1,0,1.1,1.3Z" transform="translate(-0.02 -5.08)"/><path class="cls-2" d="M110.28,97.18a4.13,4.13,0,0,0,.17,2.26,2.28,2.28,0,0,0,2.48,1.13,3.54,3.54,0,0,0,2.41-1.63,2.17,2.17,0,0,0,.34-1.86A1.78,1.78,0,0,0,114.52,96a4.29,4.29,0,0,0-2-.21,7.26,7.26,0,0,0-.9.2,9.62,9.62,0,0,0-1,.35.61.61,0,0,0,0,1.13,2.46,2.46,0,0,0,.85.08c.23,0,.44-.06.66-.1l.65-.09s.2,0,.06,0h.16l.38,0,.15,0c-.12,0,0,0,0,0l.24.07.21.08c.1,0-.15-.11,0,0l0,0c.06,0,.06,0,0,0l0,0,.07.08c.09.09,0,0,0,0s0,.11,0,.1,0,0,0,0,0-.08,0,0,0-.09,0,0-.09.22-.13.32.06-.09,0,0a.75.75,0,0,1-.07.12l-.13.2a1.24,1.24,0,0,1-.14.18c.14-.11,0,0,0,0a1.14,1.14,0,0,1-.11.11,1.2,1.2,0,0,1-.21.17l-.09.07s-.12.12,0,0a1.58,1.58,0,0,1-.49.23c.15-.07,0,0-.1,0l-.27,0c-.1,0,.17,0,0,0h-.24s-.2,0-.06,0l-.21-.07-.09,0c.15.07,0,0,0,0l-.08-.06s-.06-.09,0,0,0,0,0,0l-.07-.09c-.07-.07.07.14,0,0a.47.47,0,0,0-.05-.1c0-.07,0-.14-.08-.22s0,.15,0,0l0-.12a2,2,0,0,1,0-.24,1.94,1.94,0,0,1,0-.24c0-.05,0-.09,0-.13s0,0,0,0,0-.34,0-.51a.57.57,0,0,0-.51-.6.58.58,0,0,0-.61.51Z" transform="translate(-0.02 -5.08)"/><path class="cls-2" d="M11.09,114.61c-1,1.53-2,3.08-2.92,4.63-.46.74-.91,1.49-1.4,2.21s-1.29,1.9-.32,2.41a.66.66,0,0,0,.77,0c.31-.25.35-.64.55-1s.44-.67.65-1c.43-.68.83-1.39,1.24-2.09.85-1.46,1.71-2.91,2.6-4.36.47-.78-.67-1.57-1.17-.79Z" transform="translate(-0.02 -5.08)"/><path class="cls-2" d="M10.79,115.82c.66,1.76,1.42,3.47,2.2,5.18.4.85.79,1.7,1.2,2.55a7.92,7.92,0,0,0,1.16,1.94.48.48,0,0,0,.76,0,2.62,2.62,0,0,0-.23-2.32c-.39-.88-.82-1.73-1.22-2.59-.84-1.79-1.64-3.59-2.34-5.43-.38-1-1.91-.29-1.53.71Z" transform="translate(-0.02 -5.08)"/><path class="cls-2" d="M10.2,103c.11,2.3.23,4.61.32,6.92s-.06,4.44.67,6.52a.66.66,0,0,0,1.25-.23c0-2.19-.2-4.39-.3-6.58s-.24-4.61-.38-6.91c-.06-1-1.62-.72-1.56.28Z" transform="translate(-0.02 -5.08)"/><path class="cls-2" d="M6.32,105.68a21.32,21.32,0,0,0,2.25,3.08c.39.42.8.82,1.2,1.22.18.18.37.37.53.56a5.17,5.17,0,0,0,.58.65.59.59,0,0,0,.9-.42,2.33,2.33,0,0,0-.73-1.66c-.39-.42-.83-.8-1.23-1.21A23.08,23.08,0,0,1,7.44,105a.66.66,0,0,0-.86-.12.67.67,0,0,0-.26.83Z" transform="translate(-0.02 -5.08)"/><path class="cls-2" d="M12.45,110c.85-.75,1.7-1.49,2.59-2.18a25.55,25.55,0,0,0,2.66-2.21.57.57,0,0,0,.11-.73.55.55,0,0,0-.7-.21A26.08,26.08,0,0,0,14,106.5c-.92.68-1.8,1.42-2.65,2.18A.85.85,0,1,0,12.45,110Z" transform="translate(-0.02 -5.08)"/><path class="cls-2" d="M8.45,99.34a4,4,0,0,0,.18,2.26,2.27,2.27,0,0,0,2.48,1.13,3.56,3.56,0,0,0,2.41-1.63,2.21,2.21,0,0,0,.34-1.86,1.82,1.82,0,0,0-1.16-1.09,4.35,4.35,0,0,0-2-.21,6.74,6.74,0,0,0-.89.2,8.81,8.81,0,0,0-1,.35.61.61,0,0,0,0,1.13,2.41,2.41,0,0,0,.85.08c.22,0,.44-.06.66-.1s.43-.08.65-.1h.21a2.34,2.34,0,0,1,.38,0l.15,0c-.11,0,0,0,0,0l.25.07.2.08c.1,0-.15-.11,0,0l.05,0c.05,0,.05,0,0,0l0,0a.27.27,0,0,1,.07.08c.09.09,0,0,0,0a.42.42,0,0,1,0,.1c0-.14,0,0,0,0s0-.09,0,0,0-.09,0,0l-.12.32c-.05.11,0-.09,0,0l-.07.12-.13.2a.84.84,0,0,1-.15.18c.14-.11,0,0,0,0l-.11.11-.21.17-.1.07c-.05,0-.11.12,0,0a1.69,1.69,0,0,1-.49.23c.15-.07-.05,0-.11,0l-.26,0c-.11,0,.16,0,0,0h-.12l-.12,0s-.2,0-.06,0l-.21-.07-.1,0c.15.07,0,0,0,0l-.08-.06s-.05-.09,0,0,0,0,0,0a.31.31,0,0,0-.07-.09c-.06-.07.08.14,0,0a.47.47,0,0,1-.05-.1,1.45,1.45,0,0,1-.09-.22c0-.08,0,.15,0,0a.5.5,0,0,1,0-.12,2,2,0,0,1,0-.24l0-.24v-.15c0-.17,0-.34,0-.51a.56.56,0,0,0-.5-.6.59.59,0,0,0-.62.51Z" transform="translate(-0.02 -5.08)"/><path class="cls-2" d="M62.09,112.29c-1,1.53-2,3.08-2.92,4.63-.46.74-.91,1.49-1.4,2.21s-1.29,1.9-.32,2.41a.66.66,0,0,0,.77,0c.32-.25.35-.64.55-1s.44-.67.65-1c.44-.68.83-1.39,1.24-2.09.86-1.46,1.71-2.91,2.6-4.36.48-.78-.66-1.57-1.17-.79Z" transform="translate(-0.02 -5.08)"/><path class="cls-2" d="M61.79,113.5c.66,1.76,1.42,3.48,2.21,5.18.39.85.78,1.7,1.19,2.55a8.28,8.28,0,0,0,1.17,1.94.49.49,0,0,0,.76,0,2.62,2.62,0,0,0-.24-2.32c-.38-.88-.82-1.73-1.22-2.59-.83-1.79-1.63-3.58-2.33-5.43-.39-1-1.91-.28-1.54.71Z" transform="translate(-0.02 -5.08)"/><path class="cls-2" d="M61.2,100.68c.12,2.3.24,4.61.32,6.92s-.05,4.44.68,6.52a.66.66,0,0,0,1.24-.23c0-2.19-.2-4.39-.3-6.58s-.24-4.61-.38-6.91c-.06-1-1.61-.72-1.56.28Z" transform="translate(-0.02 -5.08)"/><path class="cls-2" d="M57.33,103.36a20.59,20.59,0,0,0,2.25,3.08c.38.42.79.82,1.19,1.22.18.19.37.37.54.57a3.9,3.9,0,0,0,.58.64.57.57,0,0,0,.89-.42,2.29,2.29,0,0,0-.73-1.66c-.39-.42-.83-.8-1.23-1.21a23,23,0,0,1-2.37-2.93.66.66,0,0,0-.86-.12.65.65,0,0,0-.26.83Z" transform="translate(-0.02 -5.08)"/><path class="cls-2" d="M63.45,107.67c.85-.75,1.7-1.49,2.6-2.18a25.44,25.44,0,0,0,2.65-2.21.57.57,0,0,0,.12-.73.56.56,0,0,0-.71-.2,25.47,25.47,0,0,0-3.1,1.83c-.92.68-1.79,1.42-2.65,2.19a.85.85,0,1,0,1.09,1.3Z" transform="translate(-0.02 -5.08)"/><path class="cls-2" d="M59.46,97a4,4,0,0,0,.17,2.26,2.27,2.27,0,0,0,2.48,1.13,3.54,3.54,0,0,0,2.41-1.63,2.17,2.17,0,0,0,.34-1.86,1.82,1.82,0,0,0-1.16-1.09,4.31,4.31,0,0,0-2-.21,6.54,6.54,0,0,0-.9.2,8.81,8.81,0,0,0-1,.35.61.61,0,0,0,0,1.13,2.44,2.44,0,0,0,.85.08c.22,0,.44-.06.66-.1s.43-.07.65-.09c0,0,.2,0,.06,0h.15a2.34,2.34,0,0,1,.38,0l.16,0c-.12,0,0,0,0,0l.25.07.21.08c.09,0-.15-.11,0,0l0,0c.06,0,.06,0,0,0l0,0,.07.08c.08.09,0,0,0,0s0,.11,0,.1,0,0,0,0,0-.08,0,0,0-.09,0,0-.09.22-.13.32,0-.09,0,0a.75.75,0,0,1-.07.12l-.13.2a.84.84,0,0,1-.15.18c.15-.11,0-.05,0,0a1.14,1.14,0,0,1-.11.11l-.21.17-.1.07s-.11.12,0,0A1.47,1.47,0,0,1,62,99c.15-.07,0,0-.1,0l-.27,0c-.11,0,.16,0,0,0h-.24s-.2,0-.06,0l-.21-.07-.09,0c.14.07,0,0,0,0l-.08-.06s-.06-.09,0,0,0,0,0,0l-.07-.09c-.07-.07.07.14,0,0s0-.07,0-.1l-.09-.22c0-.08,0,.15,0,0a.5.5,0,0,0,0-.12,2,2,0,0,1,0-.24,1.94,1.94,0,0,1,0-.24.57.57,0,0,1,0-.13v-.53a.56.56,0,0,0-.5-.6.58.58,0,0,0-.61.51Z" transform="translate(-0.02 -5.08)"/><path class="cls-1" d="M123,127.34q-14.76-.72-29.54-1c-9.89-.18-19.79-.19-29.68-.25S44,126,34.18,126.07l-14.77.07c-2.46,0-4.93,0-7.39,0a25.93,25.93,0,0,0-6.22.5,7.85,7.85,0,0,0-4.54,2.82,5.84,5.84,0,0,0-1.15,4.58c.89,4.5,6.53,3.49,9.81,3.46,9.85-.08,19.69,0,29.54,0s19.68-.08,29.53,0,19.69.09,29.53.1,19.78.07,29.67,0c1.78,0,3.91.15,5.45-.94a4.05,4.05,0,0,0,1.26-4.87c-.74-1.86-2.59-3-4.32-3.82a20.37,20.37,0,0,0-6-1.76,19.72,19.72,0,0,0-6.18.25c-.81.16-.48,1.38.32,1.23a17.8,17.8,0,0,1,12,1.92c1.54.88,3.34,2.34,3.07,4.33s-2.63,2-4.09,2c-9.36.06-18.73,0-28.1.05s-18.9.09-28.34.14-18.81,0-28.22,0-18.9.18-28.35.11l-7-.05c-1.14,0-2.27-.05-3.4-.12a9.3,9.3,0,0,1-2.67-.41,2.92,2.92,0,0,1-2-3.43,4.81,4.81,0,0,1,2.7-3.58,13.22,13.22,0,0,1,5.78-1c2.3,0,4.61,0,6.92,0q7,0,14.11,0,14.11,0,28.23.15c9.45.07,18.91.29,28.36.37s18.9.21,28.36.16l6.86,0a.5.5,0,0,0,0-1Z" transform="translate(-0.02 -5.08)"/><path class="cls-1" d="M8.71,128.43c1.49,1,3.18,2.75,2.58,4.73a3.74,3.74,0,0,1-1.55,1.91c-.77.53-1.7.75-2.48,1.25a.38.38,0,0,0,.19.7,6.15,6.15,0,0,0,3.14-1.19,4.74,4.74,0,0,0,2-2.45c.78-2.53-1.34-4.7-3.3-5.92-.62-.39-1.15.57-.56,1Z" transform="translate(-0.02 -5.08)"/><path class="cls-1" d="M126.38,127.71a5.7,5.7,0,0,0-3,4.09,7,7,0,0,0-.16,2.81c.23,1.38,1.8,1.89,3,2.07a.53.53,0,0,0,.51-.89,6.94,6.94,0,0,0-1.19-1,3,3,0,0,1-.5-.35A1.36,1.36,0,0,1,125,134a7.26,7.26,0,0,1-.1-2.09,3.74,3.74,0,0,1,2.08-3.19.56.56,0,0,0,.21-.77.57.57,0,0,0-.77-.21Z" transform="translate(-0.02 -5.08)"/><path class="cls-1" d="M62.12,127.63a5.44,5.44,0,0,0-4,4.51A5.23,5.23,0,0,0,61,137.3,5,5,0,0,0,67,136a5.18,5.18,0,0,0,.31-6.14,5.29,5.29,0,0,0-3.14-2.29,4.41,4.41,0,0,0-3.89.49c-.38.32-.05.92.39.93a17.37,17.37,0,0,1,2.7-.06,4.23,4.23,0,0,1,2.31,1.19,3.51,3.51,0,0,1,.53,4.5,3.8,3.8,0,0,1-4.05,1.55,4,4,0,0,1-2.81-3.43,4.22,4.22,0,0,1,3-4.22.48.48,0,0,0-.24-.93Z" transform="translate(-0.02 -5.08)"/><path class="cls-1" d="M33.17,127.67a4.34,4.34,0,0,0-4.45,3.76,5,5,0,0,0,3.45,5.18,5.5,5.5,0,0,0,5.94-1.68,4.38,4.38,0,0,0,1-3,5.62,5.62,0,0,0-1.52-3.26,4.89,4.89,0,0,0-3.3-1.7c-1.18-.06-2.71.45-3.1,1.67a.54.54,0,0,0,.78.6,4,4,0,0,1,2-.79,3.47,3.47,0,0,1,2.15.88,4.56,4.56,0,0,1,1.53,2.21,2.81,2.81,0,0,1-.42,2.18c-1.89,3-7,2.14-7.42-1.49a3.16,3.16,0,0,1,3.28-3.59c.61,0,.61-.9,0-1Z" transform="translate(-0.02 -5.08)"/><path class="cls-1" d="M94,127.12a6.52,6.52,0,0,0-6,2.44,5.38,5.38,0,0,0-.33,6.49,4.94,4.94,0,0,0,3.53,1.62,8.26,8.26,0,0,0,4.48-.52,4.7,4.7,0,0,0,2.6-6.22,5.58,5.58,0,0,0-3.16-2.74,6.69,6.69,0,0,0-4.5-.13.39.39,0,0,0,.1.76,13.88,13.88,0,0,1,3.28.25,4.31,4.31,0,0,1,2.43,1.7,3.42,3.42,0,0,1,.59,2.55,3.27,3.27,0,0,1-1.64,2.07,6.17,6.17,0,0,1-3.13.7,5.4,5.4,0,0,1-3.14-.62c-1.49-1.08-1.19-3.42-.35-4.8A5.41,5.41,0,0,1,93.84,128c.5.06.62-.81.11-.88Z" transform="translate(-0.02 -5.08)"/><path class="cls-1" d="M371.36,128q-14.76-.72-29.54-1c-9.9-.18-19.79-.2-29.68-.25s-19.7-.13-29.55-.05q-7.39,0-14.78.06l-7.38,0a26,26,0,0,0-6.23.5,7.89,7.89,0,0,0-4.53,2.81,5.87,5.87,0,0,0-1.15,4.59c.88,4.5,6.53,3.49,9.81,3.46,9.84-.08,19.69,0,29.53,0s19.69-.08,29.53-.05,19.69.1,29.54.11,19.77.07,29.66,0c1.79,0,3.91.15,5.45-.94a4.05,4.05,0,0,0,1.27-4.88c-.74-1.85-2.6-3-4.33-3.81a20.31,20.31,0,0,0-6-1.76,19.78,19.78,0,0,0-6.19.25c-.8.16-.48,1.38.32,1.23a17.83,17.83,0,0,1,12,1.92c1.54.88,3.34,2.34,3.06,4.33s-2.63,2-4.08,2c-9.37.06-18.74,0-28.1,0s-18.9.09-28.35.14-18.81,0-28.21,0-18.9.18-28.35.12l-7-.05c-1.13,0-2.26,0-3.4-.12a9.3,9.3,0,0,1-2.67-.41,2.92,2.92,0,0,1-2-3.43,4.81,4.81,0,0,1,2.7-3.58,13.27,13.27,0,0,1,5.78-1c2.31,0,4.62,0,6.92,0q7.06,0,14.12,0,14.11,0,28.22.15c9.46.07,18.91.28,28.36.37s18.91.21,28.36.16c2.29,0,4.58,0,6.86,0a.5.5,0,0,0,0-1Z" transform="translate(-0.02 -5.08)"/><path class="cls-1" d="M257.11,129.1c1.5,1,3.18,2.75,2.58,4.73a3.68,3.68,0,0,1-1.55,1.91c-.77.53-1.69.75-2.47,1.25a.38.38,0,0,0,.19.7A6.12,6.12,0,0,0,259,136.5a4.73,4.73,0,0,0,2-2.45c.79-2.53-1.34-4.7-3.3-5.93-.62-.38-1.15.58-.56,1Z" transform="translate(-0.02 -5.08)"/><path class="cls-1" d="M374.78,128.38a5.71,5.71,0,0,0-3,4.09,7.2,7.2,0,0,0-.17,2.81c.23,1.38,1.81,1.89,3,2.07a.54.54,0,0,0,.52-.89,6.94,6.94,0,0,0-1.19-1,3.7,3.7,0,0,1-.5-.35,1,1,0,0,1-.13-.43,7.27,7.27,0,0,1-.11-2.09,3.75,3.75,0,0,1,2.09-3.19.58.58,0,0,0,.21-.78.59.59,0,0,0-.78-.2Z" transform="translate(-0.02 -5.08)"/><path class="cls-1" d="M310.53,128.3a5.44,5.44,0,0,0-4,4.51,5.24,5.24,0,0,0,2.9,5.16,5.05,5.05,0,0,0,6-1.26,5.21,5.21,0,0,0,.31-6.14,5.34,5.34,0,0,0-3.15-2.29,4.41,4.41,0,0,0-3.89.49.55.55,0,0,0,.39.93,17.5,17.5,0,0,1,2.71-.06,4.19,4.19,0,0,1,2.31,1.19,3.51,3.51,0,0,1,.52,4.5,3.78,3.78,0,0,1-4,1.55,4,4,0,0,1-2.81-3.43,4.2,4.2,0,0,1,3-4.22.48.48,0,0,0-.24-.93Z" transform="translate(-0.02 -5.08)"/><path class="cls-1" d="M281.58,128.34a4.33,4.33,0,0,0-4.45,3.76,5,5,0,0,0,3.44,5.18,5.5,5.5,0,0,0,5.94-1.68,4.38,4.38,0,0,0,1-3,5.58,5.58,0,0,0-1.51-3.26,4.9,4.9,0,0,0-3.31-1.7c-1.18-.06-2.7.45-3.1,1.67a.54.54,0,0,0,.79.6,3.93,3.93,0,0,1,2-.79,3.46,3.46,0,0,1,2.15.88,4.62,4.62,0,0,1,1.53,2.21,2.82,2.82,0,0,1-.42,2.18c-1.9,3-7,2.14-7.43-1.49a3.17,3.17,0,0,1,3.28-3.59c.61,0,.61-.9,0-.95Z" transform="translate(-0.02 -5.08)"/><path class="cls-1" d="M342.36,127.79a6.51,6.51,0,0,0-6,2.44,5.4,5.4,0,0,0-.34,6.49,5,5,0,0,0,3.54,1.62,8.26,8.26,0,0,0,4.48-.52,4.7,4.7,0,0,0,2.59-6.22,5.55,5.55,0,0,0-3.16-2.74,6.75,6.75,0,0,0-4.5-.14.39.39,0,0,0,.1.77,14,14,0,0,1,3.29.25,4.34,4.34,0,0,1,2.43,1.7,3.47,3.47,0,0,1,.59,2.55,3.3,3.3,0,0,1-1.64,2.07,6.28,6.28,0,0,1-3.13.7,5.38,5.38,0,0,1-3.14-.62c-1.49-1.08-1.19-3.43-.36-4.81a5.42,5.42,0,0,1,5.14-2.66c.5.06.62-.81.12-.88Z" transform="translate(-0.02 -5.08)"/><path class="cls-1" d="M163.27,92.19c-2.16-2-4.21-4-6.31-6.1-1-1-2.05-2-3.07-3-.49-.5-1-1-1.49-1.49s-1-1.18-1.63-1.35a.5.5,0,0,0-.6.6c.13.64.79,1.15,1.23,1.61s1,1,1.45,1.52c1,1,2.09,2.1,3.15,3.13,2.1,2,4.3,4,6.49,5.91.53.47,1.3-.31.78-.79Z" transform="translate(-0.02 -5.08)"/><path class="cls-1" d="M163.64,121.9c-1.94,1.95-4,3.74-6,5.65-1,.94-1.91,1.91-2.89,2.85a11.39,11.39,0,0,0-2.69,3.11.59.59,0,0,0,.8.8,11.12,11.12,0,0,0,3.1-2.55c1-1,2-1.92,3-2.9,2-1.93,3.81-4,5.8-5.87.72-.68-.4-1.8-1.11-1.09Z" transform="translate(-0.02 -5.08)"/><path class="cls-1" d="M220.74,94.72a78.7,78.7,0,0,0,8.15-6.64c1.28-1.19,2.52-2.42,3.74-3.66l1.81-1.82a7.7,7.7,0,0,0,1.75-2,.5.5,0,0,0-.67-.67,7,7,0,0,0-1.88,1.59c-.61.6-1.22,1.2-1.84,1.78-1.26,1.21-2.54,2.39-3.83,3.58-2.54,2.34-5.12,4.66-7.87,6.76-.64.49,0,1.59.64,1.11Z" transform="translate(-0.02 -5.08)"/><path class="cls-1" d="M221.74,123.17a98.56,98.56,0,0,0,6,8.08c1.05,1.28,2.19,2.51,3.32,3.72.57.61,1.16,1.2,1.75,1.79a5.53,5.53,0,0,0,1.82,1.52.42.42,0,0,0,.51-.51,5.75,5.75,0,0,0-1.43-1.76c-.57-.61-1.13-1.23-1.69-1.85-1.1-1.2-2.13-2.46-3.18-3.7a95.56,95.56,0,0,1-6-7.9c-.44-.66-1.51,0-1.07.61Z" transform="translate(-0.02 -5.08)"/><path class="cls-1" d="M74.5,163.58Z" transform="translate(-0.02 -5.08)"/><path class="cls-1" d="M33.32,81.13l26.66-1,26.54-1,7.47-.3c2.52-.1,5.09,0,7.6-.35a.77.77,0,0,0,0-1.53c-2.24-.06-4.49.18-6.73.29l-6.6.33-13.33.67L48.4,79.49l-15.08.76c-.56,0-.56.9,0,.88Z" transform="translate(-0.02 -5.08)"/><path class="cls-1" d="M100.67,75.34a22,22,0,0,0-2.76-2.22,9.68,9.68,0,0,0-3.14-1.5.76.76,0,0,0-.89.45.77.77,0,0,0,.32.94c.16.12.41.34.64.48s.45.28.68.43c.46.3.93.57,1.38.88l.66.46.15.12c-.09-.07,0,0,0,0l.33.27a15.83,15.83,0,0,1,1.23,1.08,1,1,0,0,0,1.38-1.4Z" transform="translate(-0.02 -5.08)"/><path class="cls-1" d="M99.3,77.16l-2.49,2.65-1.23,1.3a3.74,3.74,0,0,0-1.14,1.69.75.75,0,0,0,.9.91,2.59,2.59,0,0,0,1-.57,7.15,7.15,0,0,0,.61-.62l1.26-1.34,2.5-2.65a1,1,0,0,0-1.4-1.37Z" transform="translate(-0.02 -5.08)"/><path class="cls-1" d="M51.64,65.94a13.34,13.34,0,0,0,.22,1.89,5.83,5.83,0,0,0,.68,1.72.74.74,0,0,0,1.39-.37c0-.2,0-.4,0-.59l-.06-.45,0-.15c0-.18,0,.14,0,0-.05-.46-.13-.92-.19-1.38l0,.25c0-.31-.06-.62-.08-.93a1,1,0,0,0-.3-.7,1,1,0,0,0-.68-.28,1,1,0,0,0-1,1Z" transform="translate(-0.02 -5.08)"/><path class="cls-1" d="M51.88,62.73l.21-.28.06-.07,0,0,.09-.11a.39.39,0,0,0,.06-.2.17.17,0,0,0,0-.07.85.85,0,0,0,0-.23c0-.05,0-.11-.07-.17a1.58,1.58,0,0,0-.12-.15.79.79,0,0,0-.17-.14l-.15-.07a.3.3,0,0,0-.15-.05l-.16,0h-.2a.83.83,0,0,0-.32.18l-.08.11a.48.48,0,0,0-.06.18.28.28,0,0,0,0,.13.35.35,0,0,0,.06.19l.08.1.11.08a.48.48,0,0,0,.18.06.41.41,0,0,0,.19,0h0l-.13,0h0l.17,0-.14,0,.09,0-.12-.05.08.05-.11-.08a.17.17,0,0,1,.06.06l-.09-.12a.25.25,0,0,1,0,.07L51.26,62s0,0,0,.06l0-.14s0,0,0,0l.15-.38-.3.39a.34.34,0,0,0-.11.17.34.34,0,0,0,0,.2.39.39,0,0,0,0,.21.36.36,0,0,0,.12.18.51.51,0,0,0,.37.15h.14a.58.58,0,0,0,.25-.15Z" transform="translate(-0.02 -5.08)"/><path class="cls-1" d="M56.35,69.07a2.45,2.45,0,0,1-.35-1,1.53,1.53,0,0,1,.15-.79.86.86,0,0,1,.21-.27l.1-.09c-.05,0,0,0,0,0l.15-.09h0l.11,0,.12,0c-.06,0-.05,0,0,0s.17,0,.09,0,.25.07.17,0a1.83,1.83,0,0,1,.24.13l.08.06a3.69,3.69,0,0,1,.41.38l.14.16.09.11c0-.07,0-.06,0,0a3.62,3.62,0,0,1,.27.41,4.67,4.67,0,0,1,.27.49c0,.07.06.13.08.19s.13.31.06.13a5.89,5.89,0,0,0,.24.58,3.71,3.71,0,0,0,.36.52.61.61,0,0,0,1-.27,2.78,2.78,0,0,0-.54-2.18,5.33,5.33,0,0,0-1.5-1.6,2.19,2.19,0,0,0-2.14-.24A2.42,2.42,0,0,0,55,67.16a3.59,3.59,0,0,0,.29,2.53.62.62,0,1,0,1.07-.62Z" transform="translate(-0.02 -5.08)"/><path class="cls-1" d="M61.37,67.84c0,1.48.1,3,.26,4.44.08.75.17,1.5.31,2.24s.21,1.77.87,2.07a.65.65,0,0,0,.76-.1c.54-.51.28-1.54.22-2.2s-.14-1.39-.21-2.08c-.13-1.45-.22-2.9-.25-4.36a1,1,0,0,0-2,0Z" transform="translate(-0.02 -5.08)"/><path class="cls-1" d="M62.1,67.48a1.91,1.91,0,0,1,1.1-.76,2.14,2.14,0,0,1,1.37.06c.07,0,0,0,0,0l.09,0,.16.09L65,67c-.11-.07,0,0,.07.07l.1.1s.07.08,0,0,0,0,0,.06l.06.09s0,.12,0,0l0,.1c0,.09,0-.1,0,0s0-.09,0,0,.06-.09,0,0a.22.22,0,0,1,0,.08c.06-.1,0,0,0,0l-.06.07c-.12.13-.25.24-.38.36l-.38.32c-.13.1,0,0,0,0l-.11.08-.23.17a9.65,9.65,0,0,1-1,.59,7.21,7.21,0,0,0-1.07.73.63.63,0,0,0,.44,1.07,3.23,3.23,0,0,0,1.42-.37,7.62,7.62,0,0,0,1-.65A10.07,10.07,0,0,0,66,69a2.21,2.21,0,0,0,.75-1.31,2.11,2.11,0,0,0-1.6-2,3.19,3.19,0,0,0-2,0,3,3,0,0,0-1.74,1.39.38.38,0,0,0,.66.37Z" transform="translate(-0.02 -5.08)"/><path class="cls-1" d="M66.77,67.77a3.74,3.74,0,0,0,3.82,1.11,3.69,3.69,0,0,0,2.58-3.23,1.4,1.4,0,0,0-.78-1.38.87.87,0,0,0-1.27.73.66.66,0,0,0,.33.57q-.37-.42-.09-.06l-.08-.11c-.13-.22,0-.09,0,0s0-.16,0,0v0c0,.08-.07.32-.1.4a1.52,1.52,0,0,1-.06.2c-.07.21.1-.19,0,0a4,4,0,0,1-.2.35c-.12.2.14-.15,0,0l-.14.15-.15.15c-.08.07-.19.1,0,0-.12.06-.23.16-.35.22l-.06,0c-.1,0-.08,0,.06,0,0,0-.15.06-.2.07l-.2.05H69.8c-.11,0-.09,0,0,0a.94.94,0,0,1-.41,0c-.07,0-.27,0,0,0a1.42,1.42,0,0,1-.2,0,1,1,0,0,1-.39-.12c.07.06.14.06,0,0l-.18-.09-.18-.11.07.05-.08-.07a2.27,2.27,0,0,1-.31-.31,1,1,0,1,0-1.38,1.39Z" transform="translate(-0.02 -5.08)"/><path class="cls-1" d="M75.76,63.28v3.3a10.71,10.71,0,0,0,.3,3.34.69.69,0,0,0,1.33,0,11.39,11.39,0,0,0,.33-3.34v-3.3a1,1,0,0,0-2,0Z" transform="translate(-0.02 -5.08)"/><path class="cls-1" d="M74.91,67.1a18.37,18.37,0,0,1,3.16-.68q.81-.11,1.62-.18a7.58,7.58,0,0,0,1.77-.33.58.58,0,0,0,.14-1,6.43,6.43,0,0,0-3.58-.4,19.36,19.36,0,0,0-3.6.75,1,1,0,0,0,.49,1.89Z" transform="translate(-0.02 -5.08)"/><path class="cls-1" d="M284,82.31l26.66-1,26.53-1,7.48-.3c2.52-.1,5.09-.06,7.6-.35a.77.77,0,0,0,0-1.53c-2.24-.06-4.5.17-6.73.29l-6.6.33-13.33.67L299,80.67,284,81.43c-.56,0-.57.9,0,.88Z" transform="translate(-0.02 -5.08)"/><path class="cls-1" d="M351.3,76.52a22.73,22.73,0,0,0-2.76-2.22,9.48,9.48,0,0,0-3.14-1.5.76.76,0,0,0-.89.45.78.78,0,0,0,.32.94c.16.12.41.34.64.48s.45.28.68.43c.45.3.93.57,1.38.88l.66.46.15.11c-.09-.06,0,0,0,0l.33.26c.43.35.84.71,1.23,1.09a1,1,0,1,0,1.38-1.4Z" transform="translate(-0.02 -5.08)"/><path class="cls-1" d="M349.93,78.33,347.44,81l-1.23,1.31A3.77,3.77,0,0,0,345.07,84a.75.75,0,0,0,.9.92,2.73,2.73,0,0,0,1-.57,7.28,7.28,0,0,0,.61-.63l1.26-1.34,2.49-2.64a1,1,0,1,0-1.39-1.38Z" transform="translate(-0.02 -5.08)"/><path class="cls-1" d="M296.61,66.25a2.86,2.86,0,0,0-.77,3.16,2.5,2.5,0,0,0,3,1.67,2.76,2.76,0,0,0,2.26-2.68,2.92,2.92,0,0,0-2.23-2.77,2.8,2.8,0,0,0-2.1.47,2.3,2.3,0,0,0-1.09,2,.42.42,0,0,0,.3.4.43.43,0,0,0,.47-.19,2.81,2.81,0,0,1,.75-1.17,1.58,1.58,0,0,1,.22-.16,2.08,2.08,0,0,1,.36-.2l.09,0,.16,0,.3-.06a1.76,1.76,0,0,1,1.77,1.54,1.56,1.56,0,0,1-.25,1.16,1.86,1.86,0,0,1-.93.66,1.79,1.79,0,0,1-1.23,0l-.07,0-.14-.08a.57.57,0,0,1-.13-.08c.08,0,0,0-.06-.06a1.45,1.45,0,0,1-.21-.22s0,0,0,0l0-.06a1.74,1.74,0,0,1-.11-.18l-.08-.15s0-.09,0,0l0,0a2.25,2.25,0,0,1-.09-.35s0-.18,0-.1a1.27,1.27,0,0,1,0-.2,2.17,2.17,0,0,1,0-.36c0,.07,0-.07,0-.1a1.09,1.09,0,0,1,.05-.17,1.91,1.91,0,0,1,.09-.26,1.44,1.44,0,0,1,.43-.53.49.49,0,0,0,0-.69.5.5,0,0,0-.69,0Z" transform="translate(-0.02 -5.08)"/><path class="cls-1" d="M302.05,67.1a6.44,6.44,0,0,0,.28,2.18,3,3,0,0,0,1.36,1.66,2.32,2.32,0,0,0,2.16,0,3.15,3.15,0,0,0,1.33-1.51,6.14,6.14,0,0,0,.39-1.19,6.61,6.61,0,0,0,.2-1.18.42.42,0,0,0-.62-.36,5,5,0,0,0-1.24,1.87,4.23,4.23,0,0,1-.25.42c.1-.14-.07.08-.09.11l-.15.14s-.26.19-.08.08l-.17.11-.11.06h0c-.05,0-.15,0-.21.07h-.08c-.16,0,.12,0-.08,0,0,0-.26-.1-.07,0l-.2-.11c-.18-.11.06.07-.06,0a1.29,1.29,0,0,1-.17-.16s-.21-.18,0,0A1,1,0,0,1,304,69a1.24,1.24,0,0,1-.1-.2l-.05-.12a5.29,5.29,0,0,1-.13-.54.5.5,0,0,0,0-.12q0,.12,0,0a2.46,2.46,0,0,1,0-.28c0-.2,0-.4,0-.6a.84.84,0,0,0-.81-.82.83.83,0,0,0-.82.82Z" transform="translate(-0.02 -5.08)"/><path class="cls-1" d="M309.33,64.23c0,1.13,0,2.26.07,3.39a13.7,13.7,0,0,0,.53,3.38.48.48,0,0,0,.94-.12,30.5,30.5,0,0,0-.1-3.31c-.06-1.11-.09-2.23-.08-3.34a.68.68,0,0,0-1.36,0Z" transform="translate(-0.02 -5.08)"/><path class="cls-1" d="M309.05,66.72c.75-.06,1.49-.1,2.23-.19a12.72,12.72,0,0,0,2.3-.4.59.59,0,0,0,0-1.14,21.25,21.25,0,0,0-4.51-.21,1,1,0,1,0,0,1.94Z" transform="translate(-0.02 -5.08)"/><path class="cls-1" d="M314.15,68.21c0,1.55-.1,3.1-.11,4.65,0,.75,0,1.5,0,2.25,0,.57,0,1.78.82,1.79s.83-1.21.89-1.78c.07-.75.11-1.5.14-2.25.07-1.54.08-3.1.12-4.65a1,1,0,0,0-1.89,0Z" transform="translate(-0.02 -5.08)"/><path class="cls-1" d="M315.4,67a1.69,1.69,0,0,1,2.61-.07,1.73,1.73,0,0,1,.3,1.4,1.87,1.87,0,0,1-1,1.14,13.22,13.22,0,0,0-1.91,1,.34.34,0,0,0,.24.58,4.78,4.78,0,0,0,2.23-.66,2.61,2.61,0,0,0,.9-3.83,2.37,2.37,0,0,0-1.84-1,2.53,2.53,0,0,0-2.09.92.38.38,0,0,0,0,.52.37.37,0,0,0,.52,0Z" transform="translate(-0.02 -5.08)"/><path class="cls-1" d="M320.15,68.25A3.24,3.24,0,0,0,322.81,70a2.92,2.92,0,0,0,2.93-1.53,2,2,0,0,0,.18-1.35,1.31,1.31,0,0,0-.35-.6.93.93,0,0,0-.63-.25.49.49,0,0,0-.45.26c-.05.13-.12.25-.16.39a1.61,1.61,0,0,0-.06.33c0,.09,0,.07,0,0a.36.36,0,0,1,0,.1c0,.06,0,.11-.05.16a.36.36,0,0,1,0,.11c0,.09,0,.08,0,0a2,2,0,0,1-.21.35c.09-.1.1-.12,0,0l-.06.06-.14.13c-.12.11.2-.13,0,0l-.12.08-.17.08c.19-.12.13-.05,0,0s-.24,0-.36.09h-.35a3.38,3.38,0,0,0-.34-.08l-.14,0c-.14,0,.19.09,0,0l-.3-.17c-.19-.13.1.09,0,0l-.11-.09a1.85,1.85,0,0,1-.14-.14c-.1-.12,0,0,0,0-.05-.11-.15-.22-.2-.34a.84.84,0,0,0-1.15-.3.85.85,0,0,0-.31,1.15Z" transform="translate(-0.02 -5.08)"/><path class="cls-1" d="M327.93,64.79c0,1,.08,2,.19,3.08a9.88,9.88,0,0,0,.7,3.13.61.61,0,0,0,1.1-.15,14,14,0,0,0,0-3c-.07-1-.13-2-.16-3a.92.92,0,0,0-.9-.91.93.93,0,0,0-.92.9Z" transform="translate(-0.02 -5.08)"/><path class="cls-1" d="M328.06,66.33c.87,0,1.75,0,2.62,0a11.67,11.67,0,0,0,1.44-.13,5.32,5.32,0,0,0,1.25-.31.74.74,0,0,0,.54-.69.71.71,0,0,0-.53-.69,7,7,0,0,0-.78-.11H332c-.44,0-.88,0-1.31,0-.88,0-1.75,0-2.62,0a1,1,0,0,0,0,1.92Z" transform="translate(-0.02 -5.08)"/><path class="cls-2" d="M186.91,14a5.72,5.72,0,0,1-.09-2.14,4.7,4.7,0,0,1,.31-1.05,1.72,1.72,0,0,1,.5-.76c.2-.13.26,0,.35.23a9.44,9.44,0,0,1,.35,1,10.53,10.53,0,0,1,.38,2.3.82.82,0,0,0,.78.79.8.8,0,0,0,.79-.78,8,8,0,0,1,.3-3.23c.19-.53.72-1.29,1.24-.94.67.47.55,1.75.57,2.51l.07,1.81c0,.28,0,.56,0,.83a1.62,1.62,0,0,0,.4,1.11.78.78,0,0,0,1.2-.17,1.74,1.74,0,0,0,.2-1.21c0-.37,0-.74-.07-1.11,0-.73-.08-1.47-.13-2.2-.1-1.31-.54-2.89-2-3.18a2.66,2.66,0,0,0-2.76,1.81,7.33,7.33,0,0,0-.55,4.16l1.51-.39a11.62,11.62,0,0,0-.9-3c-.36-.8-1-1.86-2-1.39a3.37,3.37,0,0,0-1.46,2.28,6.58,6.58,0,0,0-.19,3c.15.8,1.39.48,1.22-.31Z" transform="translate(-0.02 -5.08)"/><path class="cls-2" d="M199.37,9.76A3.41,3.41,0,0,0,197,8.84a1.85,1.85,0,0,0-1.65,1.84,4.12,4.12,0,0,0,.9,2.56,2.42,2.42,0,0,0,1.18.94,1.41,1.41,0,0,0,1.51-.48,6,6,0,0,0,.76-1.35c.24-.53.45-1.07.65-1.61H198.7a15.44,15.44,0,0,0,.55,1.62,6.06,6.06,0,0,0,.56,1.28,3,3,0,0,0,1,1,1.78,1.78,0,0,0,.78.24,1.31,1.31,0,0,0,.91-.39c.49-.4.15-1.13-.35-1.3.17.06,0,0,0,0a1.61,1.61,0,0,0-.35-.12c-.19,0,.12.1,0,0s-.18-.16-.05,0c0-.06-.11-.1-.16-.16s-.16-.22-.05,0c-.09-.13-.18-.27-.26-.41l-.11-.22,0-.07c-.09-.21-.17-.43-.25-.64a13.81,13.81,0,0,0-.57-1.38.84.84,0,0,0-1.53.2,8.89,8.89,0,0,1-1,2.22l-.07.11c0-.06,0-.06,0,0s0,0,0,0l.09,0s.16.1,0-.05c.07.06-.15-.14-.13-.11a2.76,2.76,0,0,1-.6-.83,2.23,2.23,0,0,1-.25-.89c0-.27,0-.47.24-.58.62-.34,1.37.2,1.89.54a.51.51,0,1,0,.51-.89Z" transform="translate(-0.02 -5.08)"/><path class="cls-2" d="M205.23,10.68s0,0,0,0Z" transform="translate(-0.02 -5.08)"/><path class="cls-2" d="M206.31,8.91A2.2,2.2,0,0,0,204,9a3.3,3.3,0,0,0-1.47,2,3,3,0,0,0,.43,2.55,3.2,3.2,0,0,0,2.45,1.23,4.14,4.14,0,0,0,1.56-.23,7,7,0,0,0,.86-.34,3.13,3.13,0,0,0,.68-.46.71.71,0,0,0,.3-.88.72.72,0,0,0-.83-.42l-.55.11c-.18.05-.35.13-.53.19a8.82,8.82,0,0,1-1.12.3c-.11,0,0,0,0,0h-.66c-.12,0,.12,0,0,0l-.4-.11c-.12,0,.12.06,0,0l-.09,0-.21-.12c-.08,0,0,0,0,0l-.08-.07-.17-.17c-.1-.11,0,.08,0,0l-.12-.22c-.06-.1,0,.13,0,0a.38.38,0,0,0,0-.1c0-.07,0-.14,0-.21s0,.07,0-.07,0-.2,0-.29,0-.14,0-.22c0,.12,0-.05,0-.09a2.85,2.85,0,0,1,.13-.48c0,.12,0,0,0-.06a1,1,0,0,1,.1-.17l.07-.11h0l.15-.18.2-.18,0,0,.06,0A1,1,0,0,1,205,10l.09,0c.06,0-.07,0,0,0l.21-.05.09,0h0a1.13,1.13,0,0,1,.32.06.55.55,0,0,0,.54-1Z" transform="translate(-0.02 -5.08)"/><path class="cls-2" d="M207,6.3l1,6.89c.12.88,1.42.93,1.8.24a13.86,13.86,0,0,1,1.4-2.09,6.22,6.22,0,0,1,.9-.95,1.2,1.2,0,0,1,.34-.21.26.26,0,0,1,.2,0c-.07,0,.09.09,0,0l.12.13c-.06-.08,0,0,0,.06l.12.23c0,.07,0,0,.05.12A1.72,1.72,0,0,1,213,11c.07.21.12.42.17.63.11.43.19.87.28,1.31a8.45,8.45,0,0,0,.44,1.46.78.78,0,0,0,1.42-.19,4.13,4.13,0,0,0,.09-.93c0-.32-.07-.65-.13-1a15.57,15.57,0,0,0-.38-1.64,3.09,3.09,0,0,0-1.82-2.27c-1.2-.37-2.18.48-3,1.29a14.28,14.28,0,0,0-2.09,2.8l1.8.24-1-6.89a1,1,0,0,0-1.2-.71,1,1,0,0,0-.7,1.2Z" transform="translate(-0.02 -5.08)"/><path class="cls-2" d="M216,11.33a17,17,0,0,0,.18,1.75,6.87,6.87,0,0,0,.19.75,2.78,2.78,0,0,0,.22.54l.2.32a.78.78,0,0,0,.87.36.8.8,0,0,0,.58-.74,4.42,4.42,0,0,0,0-.73c0-.19-.06-.38-.08-.57l0,.25c0-.38-.11-.77-.16-1.15l0,.25c0-.34-.06-.68-.08-1a1,1,0,1,0-2,0Z" transform="translate(-0.02 -5.08)"/><path class="cls-2" d="M216.14,9l.23.27.11.13.19.14.21.09.12,0a.45.45,0,0,0,.23,0l.18,0a1.69,1.69,0,0,0,.31-.13l.12-.07a1.71,1.71,0,0,0,.26-.21,1.78,1.78,0,0,0,.21-.27l.06-.11a1.24,1.24,0,0,0,.12-.32,1.38,1.38,0,0,0,0-.67.35.35,0,0,0,0-.11,1.79,1.79,0,0,0-.13-.32,2,2,0,0,0-.21-.28,1.31,1.31,0,0,0-.27-.21l-.11-.08a1.27,1.27,0,0,0-.54-.14l-.27,0,0,0a.76.76,0,0,0-.16.06l-.11,0a1.07,1.07,0,0,0-.3.3.81.81,0,0,0,0,.78,1.24,1.24,0,0,0,.14.18.75.75,0,0,0,.18.13l.06,0-.18-.13a2.78,2.78,0,0,0,.27.21l.11.07-.18-.14.15.15-.15-.19a.64.64,0,0,1,.08.14l-.1-.23a.43.43,0,0,1,0,.14l0-.23a.38.38,0,0,1,0,.15l0-.23a.74.74,0,0,1,0,.14l.09-.21a.6.6,0,0,1-.09.15l.14-.18-.11.11.19-.15a.42.42,0,0,1-.14.09l.22-.09-.12,0,.86.23-.34-.39a.73.73,0,0,0-.3-.19.62.62,0,0,0-.33-.07.71.71,0,0,0-.35.07.8.8,0,0,0-.3.19,1,1,0,0,0-.26.63l0,.24a.86.86,0,0,0,.24.41Z" transform="translate(-0.02 -5.08)"/><path class="cls-2" d="M219.74,14.31l.42.54c.47.6,1.27-.08,1.17-.68a3,3,0,0,1,.69-2.95c.48-.38,1.48-.59,1.87,0,.59.93-.14,2.22.76,3.07s2.38.23,3.42,0a6.6,6.6,0,0,0,3.27-1.15,2.37,2.37,0,0,0,.71-2.56,1.11,1.11,0,0,0-1-.85,2.75,2.75,0,0,0-1.39.47,6,6,0,0,0-1.83,2.3c-.62,1.17-.67,2.51.71,3.12a7.3,7.3,0,0,0,4.21.34c.86-.17.62-1.41-.18-1.45s-1.56-.1-2.32-.22a4.34,4.34,0,0,1-1-.22c-.33-.13-.24-.29-.12-.62.4-1,1-2.25,2.17-2.45l-.62-.17c.58.62-.54,1.27-1,1.42a18.1,18.1,0,0,1-2.74.5,5.39,5.39,0,0,1-1.2.14c.14.13.19.12.13,0a2.83,2.83,0,0,1,0-.29c0-.23,0-.47,0-.7a2.9,2.9,0,0,0-1-2.1,3,3,0,0,0-3.77.25c-1.17,1.07-1.32,3-1.11,4.45l1.29-.52-.41-.55a.71.71,0,1,0-1.11.86Z" transform="translate(-0.02 -5.08)"/><path class="cls-2" d="M188.47,21.48c11.56.36,23.11.8,34.67,1.05,3.24.07,6.48.16,9.73.15a.3.3,0,0,0,0-.6c-5.77-.35-11.56-.45-17.33-.61S204,21.19,198.2,21l-9.72-.23a.34.34,0,0,0,0,.67Z" transform="translate(-0.02 -5.08)"/><path class="cls-2" d="M138.15,109.38q3.48-.18,7-.32c2.16-.07,4.42,0,6.48-.68a.65.65,0,0,0-.2-1.23c-2.2,0-4.42.2-6.62.3s-4.58.25-6.87.38c-1,.06-.75,1.6.25,1.55Z" transform="translate(-0.02 -5.08)"/><path class="cls-2" d="M140.84,113.25a20.51,20.51,0,0,0,3.07-2.25c.43-.38.83-.79,1.23-1.19.18-.19.37-.37.56-.54a4,4,0,0,0,.65-.58.56.56,0,0,0-.4-.88,2.32,2.32,0,0,0-1.66.74c-.42.39-.8.83-1.22,1.23a22.91,22.91,0,0,1-2.92,2.37c-.61.42,0,1.5.69,1.1Z" transform="translate(-0.02 -5.08)"/><path class="cls-2" d="M145.16,107.13c-.75-.84-1.49-1.7-2.18-2.59a25.55,25.55,0,0,0-2.21-2.66.57.57,0,0,0-.72-.1.56.56,0,0,0-.22.7,24,24,0,0,0,1.83,3.1c.68.93,1.42,1.8,2.18,2.66a.87.87,0,0,0,1.21.09.86.86,0,0,0,.11-1.2Z" transform="translate(-0.02 -5.08)"/><path class="cls-2" d="M134.5,111.13a4,4,0,0,0,2.26-.18,2.3,2.3,0,0,0,1.14-2.48,3.52,3.52,0,0,0-1.63-2.4,2.13,2.13,0,0,0-1.72-.37,1.83,1.83,0,0,0-1.23,1.2,4.32,4.32,0,0,0-.21,1.95,5.34,5.34,0,0,0,.2.9c0,.13.13.41.15.48s.13.33.19.49a.62.62,0,0,0,1.13-.06,2.44,2.44,0,0,0,.09-.85,5,5,0,0,0-.11-.66c0-.22-.07-.43-.09-.65,0,0,0-.2,0-.07v-.15l0-.38,0-.15c0-.15,0-.06,0,0s.05-.16.07-.24a1.8,1.8,0,0,0,.08-.21c0-.1-.11.15,0,0l0,0c0-.06,0-.06,0,0l0,0,.08-.07,0,0h0c.05,0,0,0,0,0l.14,0c-.2,0,0,0,0,0h0l.32.13c.11,0-.09,0,0,0l.12.07.19.13a.9.9,0,0,1,.19.15c-.12-.14,0,0,0,0l.11.11.17.21s.18.28.08.11a3.12,3.12,0,0,1,.23.49c0,.12,0,0,0,0l0,.11a2.51,2.51,0,0,1,0,.27s0,.16,0,0v.12s0,.08,0,.12,0,.21,0,.06a1.72,1.72,0,0,1-.07.21.36.36,0,0,1,0,.09c.07-.14,0,0,0,0l-.06.08s-.08.06,0,0,0,0,0,0l-.09.07c-.06.07.15-.07,0,0l-.11,0-.1,0s-.14.06,0,0-.06,0-.06,0l-.12,0-.24,0-.25,0c-.1,0,.14,0,0,0h-.13c-.16,0-.33,0-.5,0a.58.58,0,0,0-.61.51.56.56,0,0,0,.5.6Z" transform="translate(-0.02 -5.08)"/><path class="cls-1" d="M149.66,81.37a113.34,113.34,0,0,1,1.58,20.73c0,7-.48,13.9-.55,20.85,0,1.94-.05,3.88,0,5.82a34.57,34.57,0,0,0,.4,5.93c.11.55.9.39.94-.12.12-1.77,0-3.55-.07-5.32s-.06-3.47,0-5.21c0-3.52.17-7,.28-10.55.22-6.93.43-13.88,0-20.8a78.17,78.17,0,0,0-1.5-11.6c-.14-.67-1.14-.39-1,.27Z" transform="translate(-0.02 -5.08)"/><path class="cls-2" d="M157.29,8.47a2.92,2.92,0,0,0-3.06-.3,4,4,0,0,0-2,2.84,3,3,0,0,0,1.09,3.31,2.88,2.88,0,0,0,3.29-.46c1.13-.95,1.28-2.5,1.51-3.85a.77.77,0,0,0-.44-.89.75.75,0,0,0-.94.32,2.67,2.67,0,0,0,.36,3,2.59,2.59,0,0,0,1.27.78A2,2,0,0,0,160,13c.57-.36.41-1.43-.36-1.37h-.31l-.36,0s-.15,0-.08,0a1,1,0,0,1-.61-.28,1.11,1.11,0,0,1-.18-1.26l-1.48-.2a5.49,5.49,0,0,1-.76,2.51,1.86,1.86,0,0,1-.73.64,1.62,1.62,0,0,1-.84.18c-.68-.09-.9-.91-.9-1.56a3.29,3.29,0,0,1,.88-2.31A2,2,0,0,1,156.92,9c.28.2.63-.27.37-.48Z" transform="translate(-0.02 -5.08)"/><path class="cls-2" d="M165.45,9a4.2,4.2,0,0,0-3.24.4,2.7,2.7,0,0,0-1.32,2.55,1.7,1.7,0,0,0,2.22,1.33c.93-.23,1.45-1.19,2.36-1.38l-.66-.28a6.18,6.18,0,0,1,.57,6.06,1.81,1.81,0,0,1-2.14,1,3.83,3.83,0,0,1-2.12-1.7.54.54,0,0,0-1,.4,3.67,3.67,0,0,0,2.61,2.84,3.25,3.25,0,0,0,3.55-1.34,6.24,6.24,0,0,0,.83-3.79A9.8,9.8,0,0,0,165.84,11a.59.59,0,0,0-.51-.3,3.73,3.73,0,0,0-1.71.7c-.21.13-.89.62-1.15.36-.07-.06,0-.4.06-.51a1.55,1.55,0,0,1,.54-.65,2.78,2.78,0,0,1,2-.3c.86.15,1.23-1.13.36-1.32Z" transform="translate(-0.02 -5.08)"/><path class="cls-2" d="M168.33,12.9a5.24,5.24,0,0,0,4.65,0,2.14,2.14,0,0,0,1.07-1.94,1.66,1.66,0,0,0-1.15-1.46,3.12,3.12,0,0,0-3.37,1.26,2.77,2.77,0,0,0,.56,3.95,5.25,5.25,0,0,0,2.52.65,9.88,9.88,0,0,0,1.33,0,5.26,5.26,0,0,0,1.52-.3.74.74,0,0,0-.19-1.45l-.87,0c-.32,0-.64.05-1,.05a10.06,10.06,0,0,1-1.67-.1,1.66,1.66,0,0,1-1.08-.47,1.36,1.36,0,0,1-.22-.91,1.88,1.88,0,0,1,1.53-1.5,1,1,0,0,1,.45,0,.31.31,0,0,1,.18.15.61.61,0,0,1-.31.69,3.27,3.27,0,0,1-1.6.39,5.07,5.07,0,0,1-1.89-.27c-.71-.24-1.22.95-.51,1.24Z" transform="translate(-0.02 -5.08)"/><path class="cls-2" d="M264.56,114.75a12.4,12.4,0,0,1,3.13-1.1c.42-.08,1-.19,1.3.19a1.45,1.45,0,0,1,.14,1.22,4.51,4.51,0,0,1-1.57,2.14,32.93,32.93,0,0,1-2.7,2.14.77.77,0,0,0,.19,1.39c1.32.34,2.65.62,4,.87a11.31,11.31,0,0,0,4.12.38.73.73,0,0,0,.18-1.32,14.45,14.45,0,0,0-3.93-.73c-1.33-.2-2.64-.43-4-.67l.35,1.27c1-1,2.15-1.82,3.12-2.85a4.47,4.47,0,0,0,1.41-3.16,2,2,0,0,0-2.36-2,11.57,11.57,0,0,0-3.87,1.38c-.55.3-.07,1.1.47.83Z" transform="translate(-0.02 -5.08)"/><path class="cls-2" d="M275.08,114.22a7.25,7.25,0,0,1,2.41.25l-.37-.87a5,5,0,0,1-2.28,2.29.75.75,0,0,0-.26,1c.38.91,1.39,1.11,2.26,1.23a1.5,1.5,0,0,1,1.4,1,1.26,1.26,0,0,1,0,.79,1,1,0,0,1-.17.33c.05-.06-.13.12-.13.12s0,0-.08.07l-.21.13s-.25.11-.14.07a.76.76,0,0,1-.2.06s-.25.06-.16,0a7.49,7.49,0,0,1-1.06,0,.7.7,0,0,0-.48,1.18,2.37,2.37,0,0,0,2.93.17,2.82,2.82,0,0,0,1.43-2.55A3.16,3.16,0,0,0,278.5,117a3.74,3.74,0,0,0-1.65-.42c-.37,0-.84-.06-1-.43l-.26,1a6.74,6.74,0,0,0,2.6-2.94.6.6,0,0,0-.36-.87,8.23,8.23,0,0,0-2.71-.18c-.68.07-.71,1.12,0,1.08Z" transform="translate(-0.02 -5.08)"/><path class="cls-2" d="M296,115.7l-.66,3.24a14.24,14.24,0,0,0-.45,3.37c0,.72,1.09,1.13,1.44.39a10.16,10.16,0,0,0,.57-1.6c.15-.54.24-1.1.36-1.65l.66-3.24a1,1,0,0,0-1.92-.51Z" transform="translate(-0.02 -5.08)"/><path class="cls-2" d="M295.64,118.44c-1.07,0-2.15.14-3.22.27l.55.56a2.17,2.17,0,0,1,.07-.35,1.93,1.93,0,0,0,0-.34c0-.2,0-.4,0-.6,0-.44,0-.88-.1-1.32s-.11-.92-.18-1.38a3.63,3.63,0,0,0-.41-1.37.71.71,0,0,0-.69-.33.7.7,0,0,0-.59.5,2.54,2.54,0,0,0,0,.87c0,.19.06.39.1.59l.24,1.31.21,1.26c0,.21.07.42.1.63a1.35,1.35,0,0,0,.05.29,3.16,3.16,0,0,1,.12.37.57.57,0,0,0,.68.4,17.72,17.72,0,0,1,3.08-.44c.59,0,.6-.94,0-.92Z" transform="translate(-0.02 -5.08)"/><path class="cls-2" d="M300.68,115.2a3.46,3.46,0,0,0,.93,3c.31.37.66.68,1,1a3,3,0,0,1,.62.93s.06.29.05.17,0,.27,0,.17-.11.29,0,.15c0,0-.16.23-.06.11,0,0-.23.23-.17.18s-.15.09-.18.11a2.1,2.1,0,0,1-.26.13s-.33.14-.16.08c-.18.07-.37.13-.55.18l-.28.06s-.29,0-.14,0a2.42,2.42,0,0,1-.94-.16.64.64,0,0,0-.81.61c.08,1.39,1.67,1.54,2.74,1.29a3.48,3.48,0,0,0,2.64-2c.46-1.25-.29-2.49-1.11-3.39-.19-.21-.4-.4-.6-.6l-.45-.5c-.08-.13-.17-.25-.24-.39s-.12-.27-.08-.16a.66.66,0,0,1,0-.55,1,1,0,0,0-1.87-.5Z" transform="translate(-0.02 -5.08)"/><path class="cls-2" d="M302.65,116l3.05-.28,1.5-.16a3.78,3.78,0,0,0,1.69-.43c.42-.28.55-1,0-1.28a2.31,2.31,0,0,0-.93-.22c-.24,0-.46,0-.69,0l-1.56.11c-1,.07-2,.16-3,.25a1,1,0,1,0,0,2Z" transform="translate(-0.02 -5.08)"/><path class="cls-2" d="M324.51,113.4a2.93,2.93,0,0,0-2.41,1.22.36.36,0,0,0,0,.36,20.27,20.27,0,0,0,2.5,3.2c.72.89,1.54,2.43.79,3.54-.36.53-.93.36-1.44.16s-1-.44-1-1c0-1.32,1.59-2.24,2.46-3l4.19-3.51a.82.82,0,0,0-.37-1.36,10.13,10.13,0,0,0-3.28-.46,6.58,6.58,0,0,0-3.24.75.69.69,0,0,0,.52,1.26,26,26,0,0,1,2.79-.38,8.77,8.77,0,0,1,2.79.4l-.37-1.36c-1.53,1.29-3.06,2.57-4.59,3.87-1.27,1.08-2.76,2.41-2.4,4.27a2.51,2.51,0,0,0,1.57,1.82,3.14,3.14,0,0,0,2.62.23c1.63-.81,1.44-3,.75-4.38-.9-1.74-2.66-2.75-3.67-4.4V115a2,2,0,0,1,1.78-.93.33.33,0,0,0,0-.65Z" transform="translate(-0.02 -5.08)"/><path class="cls-2" d="M342.07,115a31.32,31.32,0,0,1,3.2.36,5.39,5.39,0,0,1,.8.16s.2,0,.12,0a.46.46,0,0,1-.25-.43l0,.1c-.09.17-.13.39-.21.57a5.46,5.46,0,0,1-.32.64,12.32,12.32,0,0,1-1.58,2.14c-.7.79-1.47,1.7-1.15,2.83a.8.8,0,0,0,1.53,0,9.45,9.45,0,0,1,1.68-2.33,11,11,0,0,0,1.69-2.92,1.89,1.89,0,0,0,0-1.73c-.36-.57-1-.61-1.63-.72a35.67,35.67,0,0,0-3.85-.42.85.85,0,0,0-.86.85.86.86,0,0,0,.85.86Z" transform="translate(-0.02 -5.08)"/><path class="cls-2" d="M350.52,115.53c.54-.08,1.35-.25,1.76.24s-.27,1-.52,1.29c-.76,1-2.17,2.38-1,3.63a2.82,2.82,0,0,0,1.46.78,18.7,18.7,0,0,0,2.24.38,13.7,13.7,0,0,0,2.22.09,5.57,5.57,0,0,0,2.28-.5.6.6,0,0,0-.14-1.08,9.26,9.26,0,0,0-2.29-.21c-.77,0-1.54-.05-2.3-.13a9.63,9.63,0,0,1-1.92-.32c-.11,0-.42-.13-.41-.23,0,.15.23-.26.22-.26.39-.62.81-1.21,1.2-1.82a1.9,1.9,0,0,0,.32-1.73c-.53-1.4-2.14-1.34-3.34-1.09-.63.13-.37,1.06.25,1Z" transform="translate(-0.02 -5.08)"/><path class="cls-2" d="M153.53,21.65c4.17.26,8.33.42,12.51.48s8.36.11,12.51-.22a.3.3,0,0,0,0-.6c-4.17-.07-8.34.07-12.51.06s-8.34-.1-12.51-.24c-.33,0-.33.5,0,.52Z" transform="translate(-0.02 -5.08)"/><path class="cls-1" d="M186.07,115.68c1-2.23,2-4.47,3-6.7.5-1.09,1-2.18,1.51-3.27.25-.54.67-2,1.42-2l-.87-.67c.64,2.85,1.46,5.66,2.07,8.53s.94,5.8,1.8,8.58a.75.75,0,0,0,1.47-.18,42.77,42.77,0,0,0-1.4-8.76,82,82,0,0,0-2.19-8.63A.92.92,0,0,0,192,102a3,3,0,0,0-2.33,1.69c-.65,1.14-1.12,2.41-1.66,3.61-1.14,2.52-2.32,5-3.5,7.54-.49,1,1.1,1.94,1.56.89Z" transform="translate(-0.02 -5.08)"/><path class="cls-1" d="M188.11,112.26l3.07.37,1.47.17c.6.07,1.38.26,1.82-.29a.82.82,0,0,0,.12-1c-.32-.68-1.18-.66-1.81-.74l-1.54-.18-3.12-.37a1,1,0,0,0-1,1,1,1,0,0,0,1,1Z" transform="translate(-0.02 -5.08)"/><path class="cls-2" d="M234.12,112.85l2.74.57c.45.09.9.18,1.35.24l.69.1a4.83,4.83,0,0,0,.85,0,.79.79,0,0,0,.74-.57.75.75,0,0,0-.36-.86,8.39,8.39,0,0,0-1.37-.52c-.46-.12-.92-.22-1.39-.31l-2.74-.57a1,1,0,0,0-1.21.7,1,1,0,0,0,.7,1.21Z" transform="translate(-0.02 -5.08)"/><path class="cls-2" d="M235.88,113c.05,1.07.14,2.15.28,3.22l.55-.55a1.29,1.29,0,0,1-.24,0,1.36,1.36,0,0,0-.4,0l-.65,0-1.27.08a.8.8,0,0,0-.78.88.78.78,0,0,0,1,.66l1.23-.22.59-.09a1.45,1.45,0,0,0,.3,0,.85.85,0,0,0,.22-.09l.09,0s0,0-.07,0a.56.56,0,0,0,.53-.69,17.71,17.71,0,0,1-.43-3.08.46.46,0,0,0-.45-.46.47.47,0,0,0-.47.46Z" transform="translate(-0.02 -5.08)"/><path class="cls-2" d="M235.28,107.31a11.65,11.65,0,0,0,1.06-.92c.13-.14.27-.27.41-.4l.2-.17c.09-.07.08-.07,0,0l.14-.09a2.64,2.64,0,0,1,.46-.27l.11,0c-.12,0-.13,0,0,0l.22,0c.11,0,.1,0,0,0a.38.38,0,0,1,.15,0c.18,0-.13-.06.06,0l.15,0c-.11,0-.14,0-.07,0s.16.06.2.12-.12-.09,0,0l.05,0,.09.1c.07.08.06.07,0-.05a1.88,1.88,0,0,0,.12.18l.12.22c0,.07.07.15.11.23s-.06-.17,0,0,.11.31.15.46.07.32.1.48,0-.17,0,.07v.23c0,.2.05-.15,0,0a1.83,1.83,0,0,0-.06.25s-.05.22,0,0a.63.63,0,0,0-.08.23c0,.22,0,.25,0,.11a.66.66,0,0,0,.61.81,1.24,1.24,0,0,0,1.12-.65,2.53,2.53,0,0,0,.28-1.14,4.46,4.46,0,0,0-.53-2.11,2.67,2.67,0,0,0-4.16-1c-.75.51-1.31,1.22-2,1.77a.94.94,0,0,0-.07,1.24.93.93,0,0,0,1.22.25Z" transform="translate(-0.02 -5.08)"/><path class="cls-1" d="M235.65,82.5a342.89,342.89,0,0,0-2.24,44.05c0,2.06.07,4.13.11,6.19a31.72,31.72,0,0,0,.41,6.08c.13.59.92.4,1-.13a34.53,34.53,0,0,0,0-5.57c-.07-1.82-.09-3.63-.13-5.45-.08-3.68-.09-7.35,0-11,.16-7.28.66-14.52,1.06-21.79.22-4.12.67-8.23,1.06-12.34.08-.79-1.11-.76-1.21,0Z" transform="translate(-0.02 -5.08)"/></svg>