<svg id="Layer_1" data-name="Layer 1" xmlns="http://www.w3.org/2000/svg" viewBox="0 0 327.89 192.68"><defs><style>.cls-1{fill:#486afb;}.cls-2{fill:#fd46fc;}</style></defs><path class="cls-1" d="M11.38,20.85c0,1.12,0,2.25,0,3.37s.06,2.25,0,3.36-.49,2.25-.63,3.39a28.16,28.16,0,0,0-.1,3.31A53.23,53.23,0,0,1,10.05,41a51.46,51.46,0,0,0-.45,6.68c0,4.52-.4,9-.15,13.53S10,70.38,10.24,75s.52,9.26.53,13.91-.07,9.34-.09,14c0,9.3,0,18.62-.23,27.92,0,2.34-.12,4.69-.22,7s.18,4.52.24,6.79c.11,4.44-.36,9,.18,13.36a18.3,18.3,0,0,0,.7,3.12c.23.74,1.35.31,1.26-.4a97.78,97.78,0,0,1-.41-13.26c0-2.24-.11-4.46-.25-6.7s.06-4.61.11-6.91c.2-9.26,0-18.52-.07-27.77s.24-18.51-.32-27.74c-.28-4.58-.35-9.17-.64-13.75-.15-2.31-.3-4.61-.29-6.92s.24-4.48.34-6.71,0-4.48.18-6.71.54-4.44.73-6.67-.1-4.44.13-6.65c.12-1.09.34-2.17.42-3.27s0-2.25,0-3.36,0-2.25,0-3.38c0-.74-1.15-.83-1.15-.09Z"/><path class="cls-1" d="M12.84,163a40.3,40.3,0,0,0,5.27,0c1.75,0,3.49.13,5.23,0s3.61-.33,5.42-.4,3.53-.2,5.29-.38c3.56-.37,7.14,0,10.71-.19s7.07-.23,10.61-.27,7.19-.12,10.78-.37,7.28-.42,10.94-.48c7.16-.1,14.34-.08,21.5,0,2,0,4,.13,6,.24s4,.13,6,.23c4,.2,8.09.83,12.1.45a.76.76,0,0,0,0-1.51c-7.19-.43-14.4-.81-21.61-1-3.49-.1-7,0-10.48,0s-7.26,0-10.88.07c-7.18.09-14.32.78-21.49.93-3.62.07-7.24.07-10.86.2-1.79.07-3.57.15-5.36.15s-3.55,0-5.33,0-3.83.34-5.75.45-4.07.15-6.09.36-3.89.14-5.86.15a57.2,57.2,0,0,1-6,0,.61.61,0,0,0-.12,1.21Z"/><path class="cls-1" d="M120,19.89a39.09,39.09,0,0,0-.3,6.75,9,9,0,0,0,.2,1.37,4.48,4.48,0,0,1,0,1.71c-.21,1.12-.29,2.25-.39,3.38A138,138,0,0,0,119,47.19c0,2.32,0,4.64,0,7s.14,4.54.25,6.81,0,4.63.21,6.93.32,4.69.39,7c.14,4.64.08,9.29.08,13.93,0,2.34,0,4.67.06,7a50.79,50.79,0,0,1-.16,6.76c-.13,1.11-.32,2.2-.43,3.31a31.29,31.29,0,0,0-.09,3.49c0,2.3-.12,4.6-.24,6.89-.24,4.64-.14,9.28-.14,13.92,0,9.4.25,18.8.68,28.19,0,1.17.11,2.33.19,3.5,0,.71,1.18.62,1.24-.06a123.21,123.21,0,0,0-.13-14c-.18-4.71-.25-9.42-.26-14.13s0-9.34,0-14c0-2.28.15-4.56.24-6.84s-.09-4.66.12-7,.58-4.42.61-6.67-.09-4.52-.09-6.78c0-4.69,0-9.39,0-14.08,0-2.29-.1-4.58-.23-6.86s-.37-4.69-.43-7-.2-4.54-.33-6.82,0-4.66,0-7c0-4.67-.08-9.36.17-14a55.52,55.52,0,0,1,.58-6.83,5.48,5.48,0,0,0,.12-1.46c0-.5-.18-1-.24-1.48a23.65,23.65,0,0,1,0-3.47,32.46,32.46,0,0,1,.3-3.41c.13-.93-1.31-1-1.44-.12Z"/><path class="cls-1" d="M12.85,21.41c14.49,0,29,.09,43.48.1s28.81.1,43.21.19c4.09,0,8.17,0,12.25,0s8.14.08,12.16-.26c.66-.06.6-1.08,0-1.13-3.64-.31-7.33-.25-11-.26s-7.17,0-10.75,0c-7.21,0-14.42.08-21.63.11q-21.63.11-43.25.13c-8.12,0-16.25.07-24.37.06-.66,0-.77,1-.1,1Z"/><path class="cls-1" d="M187,115.09c16.44-.11,32.89-.41,49.34-.45s32.73-.09,49.09.1c9.23.11,18.46.37,27.69.31a.55.55,0,0,0,0-1.1c-8.22-.29-16.45-.25-24.68-.28s-16.44-.1-24.67-.09q-24.56,0-49.09.24c-9.24.09-18.47.2-27.7.44a.42.42,0,0,0,0,.83Z"/><path class="cls-1" d="M312.84,113.22a11.45,11.45,0,0,0-1.27-2,5.42,5.42,0,0,0-1.7-1.53.61.61,0,0,0-.7.11.58.58,0,0,0-.1.68c.23.32.46.62.71.92.12.13.25.26.36.4l.17.19.09.11s.11.15.05.06,0,0,0,0l.09.11.15.21.31.45c.2.3.38.61.55.93a.73.73,0,0,0,1.27-.73Z"/><path class="cls-1" d="M311.71,114.81c-.8.39-1.6.77-2.37,1.23s-1.54.9-2.27,1.4c-.28.19-.13.69.23.57.85-.31,1.68-.69,2.52-1s1.63-.78,2.44-1.21a.55.55,0,1,0-.55-1Z"/><path class="cls-1" d="M317.83,117.68a41.81,41.81,0,0,0,.05,5.25.51.51,0,0,0,.45.51.53.53,0,0,0,.59-.39,44,44,0,0,0,.42-5.39c0-1-1.48-.92-1.51,0Z"/><path class="cls-1" d="M320.07,119.25a11.45,11.45,0,0,0,.21,3.83.61.61,0,0,0,1.18-.16c0-1.23,0-2.46.2-3.68a.77.77,0,0,0-.78-.78.83.83,0,0,0-.81.79Z"/><path class="cls-1" d="M319.15,118.05a3.45,3.45,0,0,1,4.76.45c.21.27.57.8.37,1.16s-.58.34-.84.43c-.78.24-1.72.5-1.89,1.44a.58.58,0,0,0,.15.56,21.31,21.31,0,0,0,2.59,1.84,10.76,10.76,0,0,0,2.88,1.33.59.59,0,0,0,.46-1.06c-.83-.56-1.75-1-2.63-1.48s-1.73-1-2.58-1.56l.27.65c.07-.29.51-.35.83-.43a4,4,0,0,0,1.35-.52c1.24-.89.8-2.55-.12-3.5a4.6,4.6,0,0,0-6.33,0c-.49.48.23,1.15.73.71Z"/><path class="cls-1" d="M8.61,2.05A4.77,4.77,0,0,0,4.49,0,4,4,0,0,0,.64,3C.32,5,2.31,6.26,3.8,7.16A26.8,26.8,0,0,1,6.39,8.79c.57.43,2,1.35.9,2a4.16,4.16,0,0,1-1.71.4,8.83,8.83,0,0,1-2,.08A3.43,3.43,0,0,1,1,9.78a.54.54,0,0,0-1,.41c.57,2,2.87,2.64,4.73,2.51A7,7,0,0,0,8,11.9,2.05,2.05,0,0,0,9,9.61,5.29,5.29,0,0,0,6.77,7.42c-.83-.59-1.72-1.08-2.59-1.61A5.1,5.1,0,0,1,2.05,4a1.83,1.83,0,0,1,.82-2.28,3.48,3.48,0,0,1,4.69.94c.42.64,1.48,0,1-.6Z"/><path class="cls-1" d="M20.05,30.22c0,1.06.06,2.12.07,3.18V35a6.88,6.88,0,0,0,.11,1.57.41.41,0,0,0,.79,0A6.38,6.38,0,0,0,21.17,35c0-.53,0-1.07,0-1.6,0-1.06,0-2.12-.07-3.18,0-.67-1.07-.65-1,0Z"/><path class="cls-1" d="M22.32,34.53a7.38,7.38,0,0,0,0,1c0,.15,0,.3.07.45a2.47,2.47,0,0,0,.18.52.4.4,0,0,0,.38.18.39.39,0,0,0,.33-.28,3.17,3.17,0,0,0,.05-.53c0-.15,0-.31,0-.47,0-.31,0-.62,0-.93a.51.51,0,0,0-.51-.51.55.55,0,0,0-.53.52Z"/><path class="cls-1" d="M22.93,32.44a.39.39,0,0,0-.34-.19l-.11,0h0a.3.3,0,0,0-.08,0l-.09.06-.06.08a.29.29,0,0,0,0,.16.43.43,0,0,0,.06.29.58.58,0,0,0,.21.23.52.52,0,0,0,.3.08.36.36,0,0,0,.2,0A.5.5,0,0,0,23.1,33a.61.61,0,0,0,.07-.14s0,0,0-.06a.88.88,0,0,0,0-.16.83.83,0,0,0,0-.22.58.58,0,0,0-.1-.21.35.35,0,0,0-.16-.16l0,0-.09,0h-.21l-.1,0-.08.06a.26.26,0,0,0-.07.11.24.24,0,0,0,0,.08.28.28,0,0,0,0,.13v0h0l0,.09.06.08-.06-.07.09.12,0,0-.06-.08a.35.35,0,0,1,0,.08l0-.09,0,.1v-.09s0,.06,0,.08l0-.08s0,0,0,0l.23-.17h0l.09,0h0l-.06,0,.08,0-.06,0,.07.05-.05-.05.05.07a.21.21,0,0,1,0-.06l0,.08a.14.14,0,0,1,0-.06v.06l0,.16v0l-.05.07,0,0-.07.05h0l-.08,0h-.08l-.07,0h0l-.06-.05h0l.1.07.11,0h.08a.24.24,0,0,0,.11-.06.26.26,0,0,0,.11-.16.27.27,0,0,0,0-.23Z"/><path class="cls-1" d="M26.74,34a1.4,1.4,0,0,0-2.26.21,1.06,1.06,0,0,0-.13.78,1.1,1.1,0,0,0,.37.55c.14.12.28.23.41.36s0,0,0,0a.83.83,0,0,0,.07.13c0,.05,0,0,0,0s0,0,0,.06,0,.09,0,0,0,0,0,0v0c0,.07,0,0,0,0l0,.06s.07-.08,0,0,.09-.06,0,0-.09,0,0,0l.09,0h-.05s.11,0,0,0h-.06c-.08,0,0,0,0,0l0,0s.07.08,0,0h0a.53.53,0,0,0-.14-.12.43.43,0,0,0-.49.08.54.54,0,0,0-.12.47.72.72,0,0,0,.19.34.82.82,0,0,0,.77.22A1,1,0,0,0,26.21,36a1.59,1.59,0,0,0-.79-1.17s0,0,0,0l-.07,0-.08-.07c-.06-.06,0,0,0,0l0,0s0,0,0,0,0,0,0,0h0a.32.32,0,0,1,0-.09c0-.09,0,0,0,0l0-.06h0s0,0,0,0l.07-.06s0,0,0,0l.06,0,.07,0h0l.15,0h.08s.07,0,0,0h.06l.06,0c.06,0,0,0,0,0a.41.41,0,0,1,.22.17.41.41,0,0,0,.58-.58Z"/><path class="cls-1" d="M28,32.48l.15,2.13.07,1a2.27,2.27,0,0,0,.24,1.12.4.4,0,0,0,.68,0,2.15,2.15,0,0,0,.12-1.07l-.07-1.09L29,32.47a.51.51,0,0,0-.52-.5.53.53,0,0,0-.53.51Z"/><path class="cls-1" d="M27.64,35.15,28.82,35l.65-.09a1.13,1.13,0,0,0,.67-.29.37.37,0,0,0-.08-.59,1,1,0,0,0-.66-.12l-.59.06-1.15.14a.56.56,0,0,0-.37.15.57.57,0,0,0-.16.36c0,.26.23.55.51.51Z"/><path class="cls-1" d="M31,34.75l.05,1c0,.2,0,.41.05.61a1.69,1.69,0,0,0,.13.49.41.41,0,0,0,.39.3.43.43,0,0,0,.41-.31,2.8,2.8,0,0,0,.09-.58,4.52,4.52,0,0,0,0-.52l-.06-1a.51.51,0,0,0-.51-.51.55.55,0,0,0-.53.52Z"/><path class="cls-1" d="M31.44,32.94a.52.52,0,0,0,.19-.2.69.69,0,0,0,.05-.13s0-.09,0-.14a.23.23,0,0,0,0-.11.18.18,0,0,0-.06-.09l-.06-.05a.32.32,0,0,0-.14,0,.49.49,0,0,0-.24.05.69.69,0,0,0-.17.17.6.6,0,0,0-.08.16s0,.08,0,.12v.05A.55.55,0,0,0,31,33a.44.44,0,0,0,.16.17.56.56,0,0,0,.48,0,.38.38,0,0,0,.12-.1.39.39,0,0,0,.08-.1s0,0,0,0a.55.55,0,0,0,.07-.25.3.3,0,0,0,0-.16,1.12,1.12,0,0,0-.05-.13l-.09-.11a.45.45,0,0,0-.22-.13h0a.54.54,0,0,0-.22,0,.42.42,0,0,0-.18.11.37.37,0,0,0-.1.17.38.38,0,0,0,.09.37l.1.07-.08-.06,0,0-.06-.09.09.12-.06-.08a.05.05,0,0,1,0,0l0-.1s0,0,0,.06l0-.1a0,0,0,0,1,0,0l0-.1s0,0,0,0l0-.1,0,.05.07-.09,0,0,.09-.07,0,0,.09,0h.16l.09,0,0,0,.08.05s0,0,0,0l0,.07,0,0,0,.09a.13.13,0,0,1,0-.06v.09a.13.13,0,0,1,0-.06l0,.08s0,0,0,0l0,.08s0,0,0-.05l-.05.07,0,0-.06,0,0,0-.07,0h0l-.35-.21v-.07s0,0,0,0l0-.07,0,0,.05-.06,0,0,.06,0h0a.28.28,0,0,0-.14.18.34.34,0,0,0,0,.1.36.36,0,0,0,0,.11.27.27,0,0,0,.17.13.28.28,0,0,0,.22,0Z"/><path class="cls-1" d="M33.75,36.59a.25.25,0,0,1,0-.07h0c0-.05,0-.1,0-.16a.75.75,0,0,1,0-.16s0-.05,0-.08h0c0-.12,0-.23,0-.34s0-.11,0-.16a.28.28,0,0,0,0-.09s0,0,0,0a2.81,2.81,0,0,1,.08-.31c0-.1,0,.08,0,0a.75.75,0,0,1,.07-.12l0-.06s0,.06,0,0,.09-.1.1-.09l0,0L34,35c-.07,0-.08,0,0,0h0c.05,0,.05,0,0,0L34,35h0L34,35l0,0,0,0s.07.11.08.14l0,0a1.11,1.11,0,0,1,.09.31c.06.24.1.48.15.71a2.14,2.14,0,0,0,.25.75.42.42,0,0,0,.75-.1,1,1,0,0,0,.05-.38l-.06-.44c0-.22-.09-.43-.14-.65a1.91,1.91,0,0,0-.69-1.21,1,1,0,0,0-1.33.12,2,2,0,0,0-.51,1.11A3.76,3.76,0,0,0,32.8,37a.51.51,0,0,0,.68.33.52.52,0,0,0,.27-.72Z"/><path class="cls-1" d="M38.11,34.48a1.46,1.46,0,0,0-1.39-.09,1.19,1.19,0,0,0-.64,1.12.92.92,0,0,0,1,.91c.53,0,.93-.63,1.2-1l-.74-.08a11.55,11.55,0,0,1,.63,3.4,1.26,1.26,0,0,1-.05.64c-.08.16-.28.19-.43.21a14.67,14.67,0,0,1-1.75.1.41.41,0,0,0-.12.8,4.31,4.31,0,0,0,2.14,0,1.43,1.43,0,0,0,1.15-1.33,7.79,7.79,0,0,0-.2-2,16.9,16.9,0,0,0-.58-2.08.41.41,0,0,0-.68-.17,2.63,2.63,0,0,1-.51.49,1.48,1.48,0,0,0-.13.08s.13,0,.12,0,0-.07,0-.08c0-.32.41-.23.58-.14a.46.46,0,0,0,.47-.79Z"/><path class="cls-1" d="M49.91,112.53c0,1.06.07,2.12.08,3.19v1.59a6.88,6.88,0,0,0,.11,1.57.41.41,0,0,0,.79,0A5.89,5.89,0,0,0,51,117.3q0-.8,0-1.59c0-1.07,0-2.13-.07-3.19a.53.53,0,0,0-1.05,0Z"/><path class="cls-1" d="M52.19,116.84a7.38,7.38,0,0,0,0,1,3.5,3.5,0,0,0,.07.45,2.47,2.47,0,0,0,.18.52.36.36,0,0,0,.38.18.39.39,0,0,0,.33-.28,4.75,4.75,0,0,0,.05-.53c0-.15,0-.31,0-.46,0-.31,0-.62,0-.94a.49.49,0,0,0-.51-.5.53.53,0,0,0-.53.51Z"/><path class="cls-1" d="M52.8,114.76a.39.39,0,0,0-.35-.2l-.1,0h0l-.08,0-.09.06-.06.08a.43.43,0,0,0-.05.16.58.58,0,0,0,.28.52.58.58,0,0,0,.29.09.46.46,0,0,0,.2,0,.43.43,0,0,0,.15-.15.61.61,0,0,0,.07-.14.14.14,0,0,1,0-.06.77.77,0,0,0,0-.15.78.78,0,0,0,0-.22.74.74,0,0,0-.1-.22.49.49,0,0,0-.16-.16h0l-.09,0h-.21l-.11,0-.07.05a.26.26,0,0,0-.07.11.16.16,0,0,0,0,.09.2.2,0,0,0,0,.13v0h0l0,.09.07.09-.06-.08a.94.94,0,0,0,.09.12l0,0-.06-.08a.3.3,0,0,1,0,.08l0-.09a.36.36,0,0,1,0,.1V115a.14.14,0,0,1,0,.09l0-.09,0,.09,0-.09s0,0,0,0l.22-.17h.11l-.05,0,.08,0-.06,0,.06.05-.05-.05.06.07a.21.21,0,0,1,0-.06l0,.08s0,0,0-.06v.06l-.05.16v0l0,.07,0,0-.07.06,0,0-.08,0h-.08l-.07,0h0l-.07,0,0,0a.18.18,0,0,0,.09.06l.12,0h.08a.3.3,0,0,0,.11-.06.31.31,0,0,0,.11-.16.28.28,0,0,0,0-.22Z"/><path class="cls-1" d="M56.6,116.26a1.4,1.4,0,0,0-2.25.21,1.07,1.07,0,0,0-.13.78,1.18,1.18,0,0,0,.37.56c.13.12.28.22.41.35s0,0,0,0a.75.75,0,0,1,.07.12v0a.14.14,0,0,1,0,.06s0,.09,0,0,0,0,0,0,0,0,0,0l0,.07c0,.07,0,0,0,0l0,.06s.06-.08,0,0,.08,0,0,0-.09,0,0,0l.08,0h0s.11,0,0,0l-.07,0h0l0,0s.06.07,0,0h0a.36.36,0,0,0-.14-.11.42.42,0,0,0-.49.07.51.51,0,0,0-.12.47.8.8,0,0,0,.19.35.87.87,0,0,0,.77.22,1,1,0,0,0,.77-1.07,1.65,1.65,0,0,0-.79-1.18s0,0,0,0l-.06-.05-.08-.08c-.07-.06,0,0,0,0l0,0s0,0,0,0,0,0,0,0h0a.29.29,0,0,1,0-.09c0-.09,0,0,0,0l0-.07s.05-.06,0,0h0a.46.46,0,0,1,.07-.07s0,0,0,0l.06,0,.07,0s0,0,0,0l.15,0c-.07,0,.06,0,.09,0s.07,0,0,0,.06,0,.06,0l.06,0c.06,0,0,0,0,0a.51.51,0,0,1,.22.17.42.42,0,0,0,.57,0,.41.41,0,0,0,0-.57Z"/><path class="cls-1" d="M57.84,114.8l.14,2.12.08,1a2.33,2.33,0,0,0,.23,1.11.41.41,0,0,0,.69,0A2.15,2.15,0,0,0,59.1,118L59,116.91l-.14-2.12a.51.51,0,0,0-.51-.51.53.53,0,0,0-.53.52Z"/><path class="cls-1" d="M57.51,117.47l1.17-.14c.22,0,.44,0,.66-.09A1.12,1.12,0,0,0,60,117a.38.38,0,0,0-.08-.6,1,1,0,0,0-.66-.11l-.59,0-1.15.14a.62.62,0,0,0-.38.16A.56.56,0,0,0,57,117a.51.51,0,0,0,.51.51Z"/><path class="cls-1" d="M60.82,117.06l0,1c0,.2,0,.41,0,.61a3.07,3.07,0,0,0,.13.5.44.44,0,0,0,.4.3.45.45,0,0,0,.41-.31,3,3,0,0,0,.09-.59c0-.17,0-.35,0-.52l-.06-1a.51.51,0,0,0-.51-.51.53.53,0,0,0-.53.51Z"/><path class="cls-1" d="M61.31,115.25a.46.46,0,0,0,.19-.2.5.5,0,0,0,0-.13.57.57,0,0,0,0-.13.14.14,0,0,0,0-.11.21.21,0,0,0-.06-.1l-.06,0a.37.37,0,0,0-.15,0,.4.4,0,0,0-.23.06.58.58,0,0,0-.18.17.69.69,0,0,0-.07.15.5.5,0,0,0,0,.12v0a.63.63,0,0,0,.07.26.49.49,0,0,0,.16.16.47.47,0,0,0,.33,0l.15-.06a.58.58,0,0,0,.12-.1l.08-.1,0,0a.72.72,0,0,0,.07-.25.44.44,0,0,0,0-.16,1.12,1.12,0,0,0,0-.13l-.09-.11a.48.48,0,0,0-.23-.13h0a.41.41,0,0,0-.22,0,.32.32,0,0,0-.18.1.45.45,0,0,0-.11.17.39.39,0,0,0,.1.37l.1.07-.08-.06,0,0-.06-.09.09.12-.07-.08,0,0,0-.1a.13.13,0,0,1,0,.06V115l0-.1s0,0,0,0l0-.09a.08.08,0,0,1,0,0l.06-.08,0,0,.08-.06,0,0,.09,0h.16l.09,0,0,0,.07.06,0,0,.06.07,0,0,0,.08s0,0,0,0V115s0,0,0-.06l0,.08,0,0-.05.06,0,0-.07,0,0,0-.08,0h0l-.36-.2v-.08s0,0,0,0l0-.06,0,0,0-.06,0,0,.06,0h0a.28.28,0,0,0-.14.18.2.2,0,0,0,0,.11.19.19,0,0,0,0,.1.24.24,0,0,0,.18.13.25.25,0,0,0,.22,0Z"/><path class="cls-1" d="M63.61,118.9l0-.07c0,.06,0,.06,0,0a.75.75,0,0,0,0-.16l0-.17a.19.19,0,0,1,0-.08h0a1.82,1.82,0,0,1,0-.33.91.91,0,0,1,0-.17s0-.06,0-.08,0,0,0,0l.09-.3c0-.11-.05.07,0,0l.06-.12,0-.06s0,.06,0,0,.08-.1.09-.09-.06,0,0,0l.06,0c-.07,0-.08,0,0,0s0,0,0,0h.07c-.07,0-.07,0,0,0h0l.06,0s0,0,0,0,0,0,0,0a.12.12,0,0,1,0,0s0,0,0,0a.39.39,0,0,1,.08.14s.08.12,0,0a1.5,1.5,0,0,1,.09.32l.15.7a2.27,2.27,0,0,0,.25.76.42.42,0,0,0,.75-.11,1.24,1.24,0,0,0,0-.38l-.06-.44c0-.21-.09-.43-.14-.64a1.91,1.91,0,0,0-.69-1.22,1.06,1.06,0,0,0-1.33.12,2,2,0,0,0-.51,1.11,3.49,3.49,0,0,0,.08,1.54.5.5,0,0,0,.68.32.51.51,0,0,0,.26-.72Z"/><path class="cls-1" d="M68,116.79a1.49,1.49,0,0,0-1.39-.09,1.2,1.2,0,0,0-.65,1.13.94.94,0,0,0,1,.9c.52,0,.93-.62,1.2-1l-.74-.08A11.55,11.55,0,0,1,68,121a1.38,1.38,0,0,1,0,.64c-.08.16-.28.19-.44.22a16.75,16.75,0,0,1-1.74.09.41.41,0,0,0-.12.8,4.27,4.27,0,0,0,2.13,0,1.41,1.41,0,0,0,1.15-1.33,7.78,7.78,0,0,0-.19-2,18.11,18.11,0,0,0-.58-2.07.41.41,0,0,0-.68-.17,2.9,2.9,0,0,1-.51.48l-.13.08s.13,0,.12,0,0-.07,0-.08c0-.32.41-.23.58-.13a.46.46,0,0,0,.47-.8Z"/><path class="cls-1" d="M51.7,47.68c0,1.06.06,2.12.07,3.18v1.6A6.88,6.88,0,0,0,51.88,54a.41.41,0,0,0,.79,0,6.38,6.38,0,0,0,.15-1.57c0-.53,0-1.07,0-1.6,0-1.06,0-2.12-.07-3.18,0-.67-1.07-.65-1,0Z"/><path class="cls-1" d="M54,52a7.38,7.38,0,0,0,0,1c0,.15,0,.3.07.45a2.47,2.47,0,0,0,.18.52.38.38,0,0,0,.38.18.39.39,0,0,0,.33-.28,3.17,3.17,0,0,0,.05-.53c0-.15,0-.31,0-.46,0-.32,0-.63,0-.94a.51.51,0,0,0-.51-.51A.55.55,0,0,0,54,52Z"/><path class="cls-1" d="M54.58,49.9a.39.39,0,0,0-.35-.19l-.1,0h0a.3.3,0,0,0-.08,0l-.09.06-.06.08a.43.43,0,0,0-.05.16.5.5,0,0,0,.07.29.52.52,0,0,0,.21.23.62.62,0,0,0,.3.09.49.49,0,0,0,.2,0,.5.5,0,0,0,.14-.15.61.61,0,0,0,.07-.14s0,0,0-.06a.78.78,0,0,0,0-.16.83.83,0,0,0,0-.22.58.58,0,0,0-.1-.21.41.41,0,0,0-.16-.16l0,0-.09,0h-.21l-.1,0-.08.06a.26.26,0,0,0-.07.11.12.12,0,0,0,0,.08.28.28,0,0,0,0,.13v0h0L54,50l.07.08L54,50a.94.94,0,0,0,.09.12s0,0,0,0l-.06-.08,0,.08,0-.09,0,.1v-.09a.28.28,0,0,1,0,.09l0-.09s0,.06,0,.08l0-.08s0,0,0,0l.23-.16h.1l-.05,0,.08,0-.06,0,.07.05L54.43,50l.06.07a.21.21,0,0,1,0-.06l0,.08s0,0,0-.06v.06l0,.16v0l0,.07,0,0-.07,0h0l-.08,0H54.2l-.07,0h0l-.06-.05v0l.1.06.11,0h.08a.24.24,0,0,0,.11-.06.31.31,0,0,0,.11-.16.27.27,0,0,0,0-.23Z"/><path class="cls-1" d="M58.39,51.41a1.4,1.4,0,0,0-2.26.21,1.06,1.06,0,0,0-.13.78,1.1,1.1,0,0,0,.37.55c.14.12.28.23.41.36s0,0,0,0a.83.83,0,0,0,.07.13c0,.05,0,0,0,0s0,0,0,.06,0,.09,0,0,0,0,0,0v0c0,.07,0,0,0,0l0,.06s.06-.08,0,0,.08-.06,0,0-.09,0,0,0l.09,0h0s.11,0,0,0h0l0,0s.06.08,0,0h0a.53.53,0,0,0-.14-.12.42.42,0,0,0-.49.08.54.54,0,0,0-.12.47.8.8,0,0,0,.19.35.84.84,0,0,0,.77.21,1,1,0,0,0,.77-1.07,1.62,1.62,0,0,0-.79-1.17s0,0,0,0l-.06,0-.08-.07c-.06-.06,0,0,0,0l0-.05s0,0,0,0,0,0,0,0h0s0-.06,0-.09,0,0,0,0L57,52s0-.06,0,0,0,0,0,0l.07-.06s0,0,0,0l.06,0,.07,0h0l.14,0h.09s.07,0,0,0h.06l.06,0c.06,0,0,0,0,0a.46.46,0,0,1,.22.17.41.41,0,0,0,.58-.58Z"/><path class="cls-1" d="M59.62,49.94l.15,2.13.07,1a2.37,2.37,0,0,0,.23,1.12.41.41,0,0,0,.69,0,2.15,2.15,0,0,0,.12-1.07l-.07-1.09-.14-2.13a.51.51,0,0,0-.52-.5.53.53,0,0,0-.53.51Z"/><path class="cls-1" d="M59.29,52.61l1.17-.13.66-.09a1.13,1.13,0,0,0,.67-.29.37.37,0,0,0-.08-.59,1.07,1.07,0,0,0-.66-.12l-.59.06-1.15.14a.56.56,0,0,0-.37.15.57.57,0,0,0-.16.36c0,.26.23.55.51.51Z"/><path class="cls-1" d="M62.6,52.21l0,1a4.18,4.18,0,0,0,.05.61,1.69,1.69,0,0,0,.13.49.41.41,0,0,0,.39.3.44.44,0,0,0,.41-.31,2.8,2.8,0,0,0,.09-.58,4.52,4.52,0,0,0,0-.52l-.06-1a.51.51,0,0,0-.51-.51.55.55,0,0,0-.53.52Z"/><path class="cls-1" d="M63.09,50.4a.52.52,0,0,0,.19-.2.69.69,0,0,0,0-.13s0-.09,0-.14a.23.23,0,0,0,0-.11.18.18,0,0,0-.06-.09l-.06,0a.32.32,0,0,0-.14,0,.41.41,0,0,0-.24.06.44.44,0,0,0-.17.16.6.6,0,0,0-.08.16s0,.08,0,.12v.05a.55.55,0,0,0,.07.25.44.44,0,0,0,.16.17.53.53,0,0,0,.33,0l.15-.07a.38.38,0,0,0,.12-.1.39.39,0,0,0,.08-.1l0,0a.55.55,0,0,0,.07-.25.3.3,0,0,0,0-.16,1.12,1.12,0,0,0-.05-.13l-.09-.11a.5.5,0,0,0-.22-.13h0a.54.54,0,0,0-.22,0,.42.42,0,0,0-.18.11.3.3,0,0,0-.1.17.36.36,0,0,0,.09.37l.1.07-.08-.06,0,0-.06-.09.09.12-.07-.08s0,0,0,0l0-.1s0,0,0,.06l0-.1s0,0,0,0l0-.11s0,0,0,.05l0-.1,0,0L62.8,50l0,0,.08-.07,0,0,.09-.05,0,0h.19l.09,0,0,0,.07.05a0,0,0,0,1,0,0l0,.07s0,0,0,0l0,.09s0,0,0-.06v.09a.13.13,0,0,1,0-.06l0,.08s0,0,0,0l0,.08,0-.05-.05.07,0,0-.07.05,0,0-.08,0h0L62.76,50v-.07s0,0,0,0l0-.07,0,.05.05-.06,0,0,.06,0h0a.28.28,0,0,0-.14.18.34.34,0,0,0,0,.1.21.21,0,0,0,0,.11.27.27,0,0,0,.17.13.28.28,0,0,0,.22,0Z"/><path class="cls-1" d="M65.4,54.05a.25.25,0,0,1,0-.07h0s0-.1,0-.16a.75.75,0,0,1,0-.16s0,0,0-.08h0c0-.12,0-.23,0-.34s0-.11,0-.16a.28.28,0,0,0,0-.09s0,0,0,0a2.81,2.81,0,0,1,.08-.31c0-.1,0,.08,0,0l.06-.12,0-.06s0,.06,0,0,.09-.1.1-.09l0,0,.06,0c-.07,0-.08,0,0,0h0l.07,0h0l.06.05,0,0s0,0,0,0,.07.11.08.14l0,0a1.11,1.11,0,0,1,.09.31c.06.24.1.48.15.71a2.14,2.14,0,0,0,.25.75.42.42,0,0,0,.75-.1,1.24,1.24,0,0,0,0-.38L67,53.54c0-.22-.09-.43-.14-.65a1.91,1.91,0,0,0-.69-1.21,1,1,0,0,0-1.33.12,2,2,0,0,0-.51,1.11,3.76,3.76,0,0,0,.08,1.53.51.51,0,0,0,.68.33.52.52,0,0,0,.27-.72Z"/><path class="cls-1" d="M69.76,51.94a1.46,1.46,0,0,0-1.39-.09A1.2,1.2,0,0,0,67.73,53a.92.92,0,0,0,1,.91c.53,0,.93-.63,1.2-1l-.74-.08a11.55,11.55,0,0,1,.63,3.4,1.26,1.26,0,0,1,0,.64c-.08.16-.28.19-.43.22a17.09,17.09,0,0,1-1.75.09.41.41,0,0,0-.12.8,4.31,4.31,0,0,0,2.14,0,1.43,1.43,0,0,0,1.15-1.33,8.27,8.27,0,0,0-.2-2,16.9,16.9,0,0,0-.58-2.08.41.41,0,0,0-.68-.17,2.63,2.63,0,0,1-.51.49,1.48,1.48,0,0,0-.13.08s.13,0,.12,0,0-.07,0-.08c0-.32.41-.23.58-.14a.46.46,0,0,0,.47-.79Z"/><path class="cls-1" d="M21.83,70.39c0,1.06.06,2.12.07,3.19,0,.53,0,1.06,0,1.59A6.36,6.36,0,0,0,22,76.74a.41.41,0,0,0,.78,0A5.9,5.9,0,0,0,23,75.16V73.57c0-1.07,0-2.13-.08-3.19,0-.67-1.07-.65-1,0Z"/><path class="cls-1" d="M24.1,74.7a7.38,7.38,0,0,0,0,1c0,.15,0,.3.07.45a4.56,4.56,0,0,0,.18.52.38.38,0,0,0,.38.18.39.39,0,0,0,.33-.28,3.17,3.17,0,0,0,0-.53c0-.15,0-.31,0-.46,0-.31,0-.62,0-.94a.51.51,0,0,0-.52-.5.54.54,0,0,0-.53.51Z"/><path class="cls-1" d="M24.72,72.61a.42.42,0,0,0-.35-.19l-.11,0h0l-.09,0-.09.06s-.06.08-.05.08a.3.3,0,0,0-.05.16.54.54,0,0,0,.06.3.73.73,0,0,0,.21.22.65.65,0,0,0,.3.09.46.46,0,0,0,.2,0,.5.5,0,0,0,.14-.15.61.61,0,0,0,.07-.14A.14.14,0,0,0,25,73a.77.77,0,0,0,0-.15.78.78,0,0,0,0-.22.55.55,0,0,0-.1-.22.49.49,0,0,0-.16-.16h0l-.09,0h-.2l-.11,0-.08.05a.41.41,0,0,0-.07.11.29.29,0,0,0,0,.09.28.28,0,0,0,0,.13v0h0l0,.09.06.09-.06-.08.09.12.05,0-.07-.08a.35.35,0,0,1,.05.08l0-.09a.38.38,0,0,1,0,.1v-.09a.29.29,0,0,1,0,.09l0-.09s0,0,0,0l.22-.17h.11l-.06,0,.08,0-.06,0,.07,0a.12.12,0,0,1-.05,0l.05.07,0-.06,0,.08s0,0,0-.06v.06l0,.16v0l-.06.07,0,0-.07.06,0,0-.08,0h-.08l-.07,0h0l-.06,0v0a.21.21,0,0,0,.1.06l.11,0h.08a.24.24,0,0,0,.11-.06.26.26,0,0,0,.11-.16.31.31,0,0,0,0-.23Z"/><path class="cls-1" d="M28.52,74.12a1.41,1.41,0,0,0-2.26.21,1.12,1.12,0,0,0-.13.78,1.18,1.18,0,0,0,.37.56,4.71,4.71,0,0,1,.41.35c.06.07,0,0,0,0l.07.12s0,0,0,0a.14.14,0,0,0,0,.06v0c0-.06,0,0,0,0s0,0,0,0l0,.07c0,.07,0,0,0,0s0,.06,0,.06.07-.08,0,0,.08,0,0,0-.09,0,0,0l.08,0h-.05s.11,0,0,0l-.06,0c-.08,0,0,0,0,0l0,0s.07.07,0,0h0a.3.3,0,0,0-.14-.11.41.41,0,0,0-.48.07.51.51,0,0,0-.12.47.64.64,0,0,0,.19.35.84.84,0,0,0,.76.22A1,1,0,0,0,28,76.2,1.6,1.6,0,0,0,27.2,75s0,0,0,0L27.16,75l-.09-.08c-.06-.06,0,0,0,0l0,0s0,0,0,0,0,0,0,0,0,0,0,0l0-.09c0-.09,0,0,0,0a.25.25,0,0,1,0-.07s0-.06,0,0,0,0,0,0a.46.46,0,0,1,.07-.07s0,0,0,0l.07,0,.06,0h0l.15,0c-.08,0,.05,0,.08,0s.07,0,0,0h.06l.06,0c.06,0,0,0,0,0a.43.43,0,0,1,.21.17.41.41,0,0,0,.58-.58Z"/><path class="cls-1" d="M29.75,72.66l.15,2.12.07,1a2.34,2.34,0,0,0,.24,1.11.4.4,0,0,0,.68,0A2.15,2.15,0,0,0,31,75.86l-.07-1.09-.14-2.12a.52.52,0,0,0-.51-.51.54.54,0,0,0-.54.52Z"/><path class="cls-1" d="M29.42,75.32l1.18-.13.65-.09a1.07,1.07,0,0,0,.67-.28.39.39,0,0,0-.07-.6,1,1,0,0,0-.67-.11l-.58,0-1.15.14a.55.55,0,0,0-.38.16.52.52,0,0,0-.16.36c0,.25.23.54.51.5Z"/><path class="cls-1" d="M32.73,74.92l.06,1c0,.2,0,.41,0,.61a2.3,2.3,0,0,0,.13.5.41.41,0,0,0,.39.29.42.42,0,0,0,.41-.3,3,3,0,0,0,.09-.59,4.52,4.52,0,0,0,0-.52l-.06-1a.5.5,0,0,0-.51-.51.53.53,0,0,0-.53.51Z"/><path class="cls-1" d="M33.22,73.11a.46.46,0,0,0,.19-.2.5.5,0,0,0,.05-.13.59.59,0,0,0,0-.13.27.27,0,0,0-.09-.21l-.06,0a.32.32,0,0,0-.14,0,.38.38,0,0,0-.23.06.49.49,0,0,0-.18.17.44.44,0,0,0-.08.15s0,.08,0,.12v0a.63.63,0,0,0,.07.26.49.49,0,0,0,.16.16.53.53,0,0,0,.33,0l.15-.06.13-.1.08-.1s0,0,0,0a.55.55,0,0,0,.07-.25.3.3,0,0,0,0-.16,1.12,1.12,0,0,0,0-.13.76.76,0,0,0-.08-.11.53.53,0,0,0-.23-.13h0a.59.59,0,0,0-.23,0,.42.42,0,0,0-.18.11.42.42,0,0,0-.1.17.36.36,0,0,0,.1.37A.31.31,0,0,0,33,73l-.08-.06,0,0-.07-.09a1.25,1.25,0,0,0,.09.12l-.06-.08a.08.08,0,0,1,0,0l0-.1a.14.14,0,0,1,0,.06v-.17a.43.43,0,0,1,0,0l0-.09,0,0,.07-.08,0,0,.09-.06,0,0,.1,0h.16l.09,0,0,0,.08.06,0,0,.06.07s0,0,0,0l0,.08a.09.09,0,0,1,0,0v.08a.06.06,0,0,1,0-.06v.08a.11.11,0,0,1,0,0l0,.08a.05.05,0,0,1,0,0l0,.06,0,0-.06,0,0,0-.07,0h0l-.35-.2v-.08s0,0,0,0l0-.06,0,0,0,0s0,0,0,0l.06,0h0a.32.32,0,0,0-.14.18.2.2,0,0,0,0,.11.19.19,0,0,0,0,.1.28.28,0,0,0,.39.1Z"/><path class="cls-1" d="M35.53,76.76a.43.43,0,0,1,0-.07c0,.06,0,.06,0,0a1.42,1.42,0,0,1,0-.16,1,1,0,0,1,0-.17s0-.05,0-.08h0c0-.11,0-.22,0-.34s0-.11,0-.16a.19.19,0,0,1,0-.08s0,0,0,0,0-.2.08-.31,0,.08,0,0a.75.75,0,0,1,.07-.12.21.21,0,0,1,0-.06s0,.06,0,0,.09-.1.1-.09l0,0,.06,0c-.07,0-.08,0,0,0s0,0,0,0h.07c-.06,0-.07,0,0,0s.05,0,0,0l.06,0s0,0,0,0l.05,0s0,0,0,0,0,0,0,0,.07.11.08.14l0,0a1.08,1.08,0,0,1,.09.32c.06.23.1.47.16.7a2,2,0,0,0,.24.76.42.42,0,0,0,.75-.11,1,1,0,0,0,0-.38,3.56,3.56,0,0,0-.06-.44,4.89,4.89,0,0,0-.14-.64,1.9,1.9,0,0,0-.68-1.22,1.07,1.07,0,0,0-1.34.12,2.07,2.07,0,0,0-.51,1.11,3.82,3.82,0,0,0,.08,1.54.51.51,0,0,0,.69.32.52.52,0,0,0,.26-.72Z"/><path class="cls-1" d="M39.89,74.65a1.49,1.49,0,0,0-1.39-.09,1.21,1.21,0,0,0-.64,1.13.92.92,0,0,0,1,.9c.53,0,.94-.62,1.21-1l-.75-.08a11.55,11.55,0,0,1,.63,3.4,1.26,1.26,0,0,1,0,.64c-.08.16-.27.19-.43.22a17,17,0,0,1-1.75.09.41.41,0,0,0-.12.8,4.31,4.31,0,0,0,2.14,0,1.42,1.42,0,0,0,1.15-1.33,7.79,7.79,0,0,0-.2-2,14.78,14.78,0,0,0-.58-2.07.4.4,0,0,0-.68-.17,2.59,2.59,0,0,1-.51.48l-.13.08s.14,0,.12,0,0-.07,0-.08c0-.32.41-.23.58-.13a.46.46,0,0,0,.47-.8Z"/><path class="cls-1" d="M66.13,71.69c0,1.06.07,2.12.08,3.18v1.6A6.88,6.88,0,0,0,66.32,78a.41.41,0,0,0,.79,0,6.34,6.34,0,0,0,.15-1.57c0-.53,0-1.06,0-1.59,0-1.07,0-2.13-.07-3.19a.53.53,0,0,0-1.05,0Z"/><path class="cls-1" d="M68.41,76a7.38,7.38,0,0,0,0,1,3.5,3.5,0,0,0,.07.45,2.47,2.47,0,0,0,.18.52.36.36,0,0,0,.38.18.39.39,0,0,0,.33-.28,4.75,4.75,0,0,0,0-.53c0-.15,0-.31,0-.46,0-.31,0-.63,0-.94a.51.51,0,0,0-.51-.51.55.55,0,0,0-.53.52Z"/><path class="cls-1" d="M69,73.91a.39.39,0,0,0-.35-.19l-.1,0h0l-.08,0-.09.06-.06.08a.43.43,0,0,0,0,.16.58.58,0,0,0,.28.52.62.62,0,0,0,.29.09.46.46,0,0,0,.2,0,.43.43,0,0,0,.15-.15.61.61,0,0,0,.07-.14s0,0,0-.06a.78.78,0,0,0,0-.16.83.83,0,0,0,0-.22.81.81,0,0,0-.1-.21.49.49,0,0,0-.16-.16h0l-.09,0h-.21l-.11.05-.07,0a.26.26,0,0,0-.07.11.32.32,0,0,0,0,.09.3.3,0,0,0,0,.13v0h0l0,.09.07.09-.06-.08a.94.94,0,0,0,.09.12l0,0-.06-.08,0,.08,0-.09,0,.1,0-.09a.14.14,0,0,1,0,.09l0-.09,0,.09,0-.09s0,0,0,0l.22-.17h.11l0,0,.08,0-.06,0,.07,0-.06,0,.06.07a.21.21,0,0,1,0-.06l0,.08s0,0,0-.06v.06l0,.16v0l0,.07,0,0-.07.06,0,0-.08,0h-.08l-.07,0h0l-.07,0,0,0a.18.18,0,0,0,.09.06l.12,0h.08a.24.24,0,0,0,.11-.06.31.31,0,0,0,.11-.16.31.31,0,0,0,0-.23Z"/><path class="cls-1" d="M72.82,75.42a1.39,1.39,0,0,0-2.25.21,1.07,1.07,0,0,0-.13.78,1.18,1.18,0,0,0,.37.56c.14.12.28.22.41.35s0,0,0,0l.07.13s0,0,0,0a.14.14,0,0,1,0,.06s0,.09,0,0,0,0,0,0,0,0,0,0l0,.07c0,.07,0,0,0,0s0,.06,0,.06.06-.08,0,0,.08-.05,0,0-.09,0,0,0l.08,0h0s.1,0,0,0h0l0,0s.06.07,0,0h0a.53.53,0,0,0-.14-.12.44.44,0,0,0-.49.08.51.51,0,0,0-.12.47.8.8,0,0,0,.19.35.87.87,0,0,0,.77.22,1,1,0,0,0,.77-1.07,1.65,1.65,0,0,0-.79-1.18c-.05,0,0,0,0,0l-.06,0-.08-.08c-.06-.06,0,0,0,0l0,0s0,0,0,0,0,0,0,0h0a.29.29,0,0,1,0-.09c0-.09,0,0,0,0l0-.07s0-.06,0,0h0l.07-.07s0,0,0,0l.06,0,.07,0s0,0,0,0l.15,0c-.07,0,.06,0,.09,0H72l.06,0c.06,0,0,0,0,0a.51.51,0,0,1,.22.17.42.42,0,0,0,.57,0,.41.41,0,0,0,0-.57Z"/><path class="cls-1" d="M74.06,74l.15,2.12.07,1a2.33,2.33,0,0,0,.23,1.11.41.41,0,0,0,.69,0,2.15,2.15,0,0,0,.12-1.07l-.08-1.09L75.1,74a.51.51,0,0,0-.51-.51.53.53,0,0,0-.53.52Z"/><path class="cls-1" d="M73.73,76.62l1.17-.13.66-.09a1.12,1.12,0,0,0,.67-.28.38.38,0,0,0-.08-.6,1.07,1.07,0,0,0-.66-.12l-.59.06-1.15.14a.53.53,0,0,0-.53.52.5.5,0,0,0,.51.5Z"/><path class="cls-1" d="M77,76.22l0,1c0,.2,0,.41,0,.61a2.11,2.11,0,0,0,.14.49.4.4,0,0,0,.39.3.43.43,0,0,0,.41-.3,3,3,0,0,0,.09-.59,4.52,4.52,0,0,0,0-.52l-.06-1.05a.5.5,0,0,0-.51-.5.53.53,0,0,0-.53.51Z"/><path class="cls-1" d="M77.53,74.41a.52.52,0,0,0,.19-.2.5.5,0,0,0,0-.13s0-.09,0-.14a.26.26,0,0,0,0-.11.18.18,0,0,0-.06-.09l-.06,0a.35.35,0,0,0-.14,0,.41.41,0,0,0-.24.06.58.58,0,0,0-.18.17A.69.69,0,0,0,77,74s0,.08,0,.12v0a.63.63,0,0,0,.07.26.49.49,0,0,0,.16.16.53.53,0,0,0,.33,0l.15-.06a.58.58,0,0,0,.12-.1.76.76,0,0,0,.08-.11l0,0a.72.72,0,0,0,.07-.25A.44.44,0,0,0,78,74a1.12,1.12,0,0,0,0-.13l-.09-.11a.48.48,0,0,0-.23-.13h0a.54.54,0,0,0-.22,0,.42.42,0,0,0-.18.11.45.45,0,0,0-.11.17.39.39,0,0,0,.1.37l.1.07-.08-.06,0,0-.06-.09.09.12-.07-.08,0,0,0-.1a.13.13,0,0,1,0,.06v-.06l0-.11a.08.08,0,0,1,0,0l0-.09,0,0,.06-.08,0,0,.08-.07,0,0,.09,0h.16l.09,0,0,0,.07.06,0,0,.06.07s0,0,0,0l0,.09s0,0,0,0v.1a.17.17,0,0,1,0-.05l0,.08,0,0-.05.06,0,0-.07,0,0,0-.08,0h0L77.2,74V74s0,0,0,0l0-.06,0,0,0,0,0,0,.06,0h0a.28.28,0,0,0-.14.18.37.37,0,0,0,0,.11.14.14,0,0,0,0,.1.24.24,0,0,0,.17.13.28.28,0,0,0,.22,0Z"/><path class="cls-1" d="M79.83,78.06l0-.07h0a.88.88,0,0,0,0-.15l0-.17a.19.19,0,0,1,0-.08h0a1.9,1.9,0,0,1,0-.34s0-.11,0-.16,0-.06,0-.08,0,0,0,0l.09-.31c0-.1,0,.08,0,0l.06-.12a.21.21,0,0,0,0-.06s0,.06,0,0,.08-.1.09-.09-.06,0,0,0l.06,0c-.07,0-.08,0,0,0h0l.06,0c.05,0,0,0,0,0l0,0a.12.12,0,0,1,0,0s0,0,0,0,.07.11.08.14.08.12,0,0a1.58,1.58,0,0,1,.09.31c.06.24.1.48.15.71a2.27,2.27,0,0,0,.25.76.42.42,0,0,0,.75-.11,1.24,1.24,0,0,0,.05-.38l-.06-.44c0-.22-.09-.43-.14-.64a1.91,1.91,0,0,0-.69-1.22,1.06,1.06,0,0,0-1.33.12,2,2,0,0,0-.51,1.11,3.65,3.65,0,0,0,.08,1.54.5.5,0,0,0,.68.32.51.51,0,0,0,.26-.72Z"/><path class="cls-1" d="M84.2,76a1.49,1.49,0,0,0-1.39-.09A1.21,1.21,0,0,0,82.16,77a.94.94,0,0,0,1,.9c.52,0,.93-.63,1.2-1l-.74-.08a11.55,11.55,0,0,1,.63,3.4,1.38,1.38,0,0,1,0,.64c-.08.16-.28.19-.44.22a16.75,16.75,0,0,1-1.74.09.41.41,0,0,0-.12.8A4.27,4.27,0,0,0,84,82a1.43,1.43,0,0,0,1.16-1.33,8.27,8.27,0,0,0-.2-2,16.27,16.27,0,0,0-.58-2.07.4.4,0,0,0-.68-.17,2.9,2.9,0,0,1-.51.48l-.13.08s.13,0,.12,0,0-.07,0-.08c0-.32.41-.23.58-.13a.46.46,0,0,0,.47-.8Z"/><path class="cls-1" d="M86.56,30.82c0,1.07.06,2.13.07,3.19V35.6a6.93,6.93,0,0,0,.11,1.58.41.41,0,0,0,.79,0,6.38,6.38,0,0,0,.15-1.57c0-.54,0-1.07,0-1.6,0-1.06,0-2.12-.07-3.18,0-.67-1.07-.65-1,0Z"/><path class="cls-1" d="M88.83,35.14a7.18,7.18,0,0,0,0,1,3.4,3.4,0,0,0,.07.46,2.47,2.47,0,0,0,.18.52.4.4,0,0,0,.71-.11,3,3,0,0,0,0-.52c0-.16,0-.31,0-.47,0-.31,0-.62,0-.93a.51.51,0,0,0-.51-.51.55.55,0,0,0-.53.52Z"/><path class="cls-1" d="M89.44,33.05a.39.39,0,0,0-.35-.19H89l-.08,0L88.8,33l-.06.08a.38.38,0,0,0,0,.16.5.5,0,0,0,.07.29.52.52,0,0,0,.21.23.61.61,0,0,0,.3.08.26.26,0,0,0,.19,0,.41.41,0,0,0,.15-.14l.07-.14s0,0,0-.06a.88.88,0,0,0,0-.16.83.83,0,0,0,0-.22.72.72,0,0,0-.1-.22.39.39,0,0,0-.16-.15l0,0-.09,0h-.1a.22.22,0,0,0-.11,0l-.11,0-.07.06a.26.26,0,0,0-.07.11.11.11,0,0,0,0,.08.29.29,0,0,0,0,.13v0h0l0,.09.07.08-.06-.08a1,1,0,0,0,.09.13l0,0L89,33.27a.56.56,0,0,1,0,.08l0-.1,0,.11v-.09a.28.28,0,0,1,0,.09l0-.09s0,.06,0,.08l0-.08,0,0,.23-.17h0l.09,0a0,0,0,0,1,0,0h0l.08,0-.06,0,.07.05-.06-.05.06.07a.21.21,0,0,1,0-.06l0,.08s0,0,0-.06v.06l0,.16v0l0,.07,0,0-.07.05h0l-.08,0h-.08l-.07,0h0l-.07-.05h0a.21.21,0,0,0,.1.06.2.2,0,0,0,.11,0h.08a.24.24,0,0,0,.11-.06.36.36,0,0,0,.11-.16.31.31,0,0,0,0-.23Z"/><path class="cls-1" d="M93.25,34.56a1.4,1.4,0,0,0-2.26.21,1,1,0,0,0-.13.77,1.13,1.13,0,0,0,.37.56,4.59,4.59,0,0,1,.41.36c.06.06,0-.05,0,0l.08.13v0s0,0,0,.06,0,.09,0,0,0,0,0,0,0,0,0,0v.07c0,.07,0,0,0,0s0,.06,0,.06.06-.07,0,0,.08-.06,0,0-.09,0,0,0,.12,0,.08,0h0s.1,0,0,0h0l0,0s.06.08,0,0h0a.53.53,0,0,0-.14-.12.42.42,0,0,0-.49.07.53.53,0,0,0-.12.48.72.72,0,0,0,.19.34.84.84,0,0,0,.77.22,1,1,0,0,0,.77-1.07,1.62,1.62,0,0,0-.79-1.17c-.05,0,0,0,0,0l-.06,0-.08-.08c-.06-.05,0,0,0,0l0,0s0,0,0,0,0,0,0,0h0a.29.29,0,0,1,0-.09c0-.09,0,0,0,0a.21.21,0,0,0,0-.06s0-.06,0,0h0L92,35l0,0L92,35l.07,0s0,0,0,0l.14,0h.12s.06,0,.06,0l.06,0c.06,0,0,0,0,0a.55.55,0,0,1,.22.18.41.41,0,0,0,.58-.58Z"/><path class="cls-1" d="M94.48,33.09l.15,2.13.07,1a2.37,2.37,0,0,0,.23,1.12.41.41,0,0,0,.69,0,2.21,2.21,0,0,0,.12-1.08l-.07-1.08-.15-2.13a.51.51,0,0,0-.51-.51.55.55,0,0,0-.53.52Z"/><path class="cls-1" d="M94.15,35.76l1.17-.14c.22,0,.44,0,.66-.08a1.13,1.13,0,0,0,.67-.29.37.37,0,0,0-.08-.59,1,1,0,0,0-.66-.12c-.2,0-.39,0-.59.06l-1.15.13a.62.62,0,0,0-.37.16.54.54,0,0,0-.16.36.51.51,0,0,0,.51.51Z"/><path class="cls-1" d="M97.46,35.36l.05,1a4.21,4.21,0,0,0,0,.62,1.69,1.69,0,0,0,.13.49.41.41,0,0,0,.39.3.44.44,0,0,0,.41-.31,2.8,2.8,0,0,0,.09-.58,4.7,4.7,0,0,0,0-.53l-.06-1a.51.51,0,0,0-.51-.51.55.55,0,0,0-.53.52Z"/><path class="cls-1" d="M98,33.55a.48.48,0,0,0,.19-.21.43.43,0,0,0,0-.12s0-.09,0-.14a.23.23,0,0,0,0-.11.21.21,0,0,0-.06-.1l-.06,0a.33.33,0,0,0-.14,0,.65.65,0,0,0-.24.06.55.55,0,0,0-.17.17.48.48,0,0,0-.08.16s0,.08,0,.12v.05a.55.55,0,0,0,.07.25.35.35,0,0,0,.16.16.42.42,0,0,0,.33,0l.15-.06a.58.58,0,0,0,.12-.1.39.39,0,0,0,.08-.1l0,0a.59.59,0,0,0,.07-.25.29.29,0,0,0,0-.16.69.69,0,0,0,0-.13l-.09-.11a.41.41,0,0,0-.23-.13h0a.41.41,0,0,0-.22,0,.34.34,0,0,0-.18.11.34.34,0,0,0-.11.17.39.39,0,0,0,.1.37l.1.07-.08-.06,0,0-.06-.09.09.12-.07-.09a.13.13,0,0,1,0,0l0-.1s0,0,0,.06l0-.11v0l0-.1s0,0,0,0l0-.1,0,0,.06-.08,0,0,.08-.07,0,0,.09,0h.16l.09,0h0l.07,0,0,0,.06.08s0,0,0,0l0,.09s0,0,0-.06v.11s0,0,0,0l0,.07,0,0,0,.07s0,0,0,0l-.07,0,0,0-.08,0h0l-.36-.2v-.07s0,0,0,0l0-.07,0,0,0-.06,0,0,.06-.05,0,0a.29.29,0,0,0-.14.17.45.45,0,0,0,0,.11.21.21,0,0,0,0,.11.31.31,0,0,0,.17.13.28.28,0,0,0,.22,0Z"/><path class="cls-1" d="M100.25,37.2l0-.07h0a1.42,1.42,0,0,0,0-.16l0-.16s0-.06,0-.08h0a1.82,1.82,0,0,1,0-.33s0-.11,0-.16,0-.06,0-.09,0,0,0,0a2.81,2.81,0,0,1,.08-.31c0-.1,0,.08,0,0l.06-.12a.1.1,0,0,0,0,0s0,.06,0,0l.09-.09s-.06,0,0,0l.06,0c-.07,0-.08,0,0,0s0,0,0,0h0s0,0,0,0l.07,0h0l.06,0,0,0s0,0,0,0,.07.11.08.14l0,0a1.11,1.11,0,0,1,.09.31c.06.24.1.47.15.71a2.21,2.21,0,0,0,.25.75.42.42,0,0,0,.75-.11,1.14,1.14,0,0,0,0-.37l-.06-.44c0-.22-.09-.43-.14-.65a1.91,1.91,0,0,0-.69-1.21,1,1,0,0,0-1.33.12,2,2,0,0,0-.51,1.11,3.76,3.76,0,0,0,.08,1.53.5.5,0,0,0,.68.33.51.51,0,0,0,.26-.72Z"/><path class="cls-1" d="M104.62,35.09a1.44,1.44,0,0,0-1.39-.09,1.18,1.18,0,0,0-.64,1.12.92.92,0,0,0,1,.91c.53-.05.93-.63,1.2-1l-.74-.09a11.61,11.61,0,0,1,.63,3.4,1.43,1.43,0,0,1,0,.65c-.08.15-.28.18-.43.21a14.67,14.67,0,0,1-1.75.1.4.4,0,0,0-.12.79,4.05,4.05,0,0,0,2.13,0,1.41,1.41,0,0,0,1.16-1.32,8.22,8.22,0,0,0-.2-2,16.9,16.9,0,0,0-.58-2.08.41.41,0,0,0-.68-.17,3,3,0,0,1-.51.49l-.13.08s.13,0,.12,0,0-.08,0-.08c0-.32.41-.23.58-.14a.46.46,0,0,0,.47-.79Z"/><path class="cls-1" d="M28.14,96.92c0,1.06.06,2.12.07,3.19v1.59a6.88,6.88,0,0,0,.11,1.57.41.41,0,0,0,.79,0,6.34,6.34,0,0,0,.15-1.57c0-.53,0-1.06,0-1.59,0-1.07,0-2.13-.07-3.19,0-.67-1.07-.64-1,0Z"/><path class="cls-1" d="M30.41,101.23a7.38,7.38,0,0,0,0,1c0,.15,0,.31.07.45a2.47,2.47,0,0,0,.18.52.36.36,0,0,0,.38.18.39.39,0,0,0,.33-.28,3.17,3.17,0,0,0,.05-.53c0-.15,0-.31,0-.46,0-.31,0-.62,0-.94a.49.49,0,0,0-.51-.5.53.53,0,0,0-.53.51Z"/><path class="cls-1" d="M31,99.15a.38.38,0,0,0-.35-.2l-.1,0h0l-.08,0-.09.07a.32.32,0,0,0-.06.07.43.43,0,0,0-.05.16.58.58,0,0,0,.28.52.62.62,0,0,0,.3.09.49.49,0,0,0,.2,0,.5.5,0,0,0,.14-.15.61.61,0,0,0,.07-.14s0,0,0-.06a.77.77,0,0,0,0-.15.78.78,0,0,0,0-.22.55.55,0,0,0-.1-.22.49.49,0,0,0-.16-.16h0l-.09,0h-.21l-.1,0-.08,0a.26.26,0,0,0-.07.11.15.15,0,0,0,0,.09.28.28,0,0,0,0,.13v0h0l0,.09.07.09-.06-.08a.94.94,0,0,0,.09.12s0,0,0,0l-.06-.08,0,.08,0-.09,0,.1v-.09a.28.28,0,0,1,0,.09l0-.09a.32.32,0,0,1,0,.09l0-.09a.08.08,0,0,1,0,0l.23-.17h.1l-.05,0,.08,0-.06,0,.07.05-.06-.05.06.07a.21.21,0,0,1,0-.06l0,.08s0,0,0-.06v.06l-.05.16h0l-.05.06,0,0-.07.06h0l-.08,0h-.08l-.07,0h0l-.06,0h0a.21.21,0,0,0,.1.06.2.2,0,0,0,.11,0h.08a.24.24,0,0,0,.11-.06.31.31,0,0,0,.11-.16.25.25,0,0,0,0-.22Z"/><path class="cls-1" d="M34.83,100.66a1.4,1.4,0,0,0-2.26.2,1.07,1.07,0,0,0-.13.78,1.18,1.18,0,0,0,.37.56c.14.12.28.22.41.35s0,0,0,0a.75.75,0,0,0,.07.12c0,.05,0,0,0,0s0,0,0,.06,0,.09,0,0,0,0,0,0v0c0,.07,0,0,0,0l0,.06s.06-.08,0,0,.08,0,0,0-.09,0,0,0l.09,0h0s.11,0,0,0l-.07,0h0l0,0s.06.07,0,0h0a.36.36,0,0,0-.14-.11.42.42,0,0,0-.49.07.54.54,0,0,0-.12.47.75.75,0,0,0,.19.35.87.87,0,0,0,.77.22,1,1,0,0,0,.77-1.07,1.63,1.63,0,0,0-.79-1.18s0,0,0,0l-.06,0-.08-.08c-.06-.06,0,0,0,0l0,0s0,0,0,0,0,0,0,0h0s0-.06,0-.09,0,0,0,0a.25.25,0,0,0,0-.07h0l.07-.07s0,0,0,0l.06,0,.07,0h0l.14,0c-.07,0,.06,0,.09,0s.07,0,0,0l.06,0H34c.06,0,0,0,0,0a.46.46,0,0,1,.22.17.42.42,0,0,0,.57,0,.4.4,0,0,0,0-.56Z"/><path class="cls-1" d="M36.06,99.19l.15,2.12.07,1a2.33,2.33,0,0,0,.23,1.11.4.4,0,0,0,.69,0,2.15,2.15,0,0,0,.12-1.07l-.07-1.09-.14-2.12a.52.52,0,0,0-.52-.51.54.54,0,0,0-.53.52Z"/><path class="cls-1" d="M35.73,101.86l1.17-.14c.22,0,.44,0,.66-.09a1.12,1.12,0,0,0,.67-.28.38.38,0,0,0-.08-.6,1,1,0,0,0-.66-.11l-.59,0-1.15.14a.57.57,0,0,0-.37.16.5.5,0,0,0,.35.87Z"/><path class="cls-1" d="M39,101.46l.05,1a4.18,4.18,0,0,0,0,.61,1.76,1.76,0,0,0,.13.5.42.42,0,0,0,.39.3.45.45,0,0,0,.41-.31,3,3,0,0,0,.09-.59,4.52,4.52,0,0,0,0-.52l-.06-1a.51.51,0,0,0-.51-.51.54.54,0,0,0-.53.52Z"/><path class="cls-1" d="M39.53,99.64a.46.46,0,0,0,.19-.2.5.5,0,0,0,.05-.13s0-.09,0-.13a.2.2,0,0,0,0-.11.21.21,0,0,0-.06-.1l-.06,0a.32.32,0,0,0-.14,0,.41.41,0,0,0-.24.06.55.55,0,0,0-.17.17.44.44,0,0,0-.08.15s0,.09,0,.13v0a.63.63,0,0,0,.07.26.49.49,0,0,0,.16.16.47.47,0,0,0,.33,0l.15-.06a.58.58,0,0,0,.12-.1l.08-.1,0,0a.55.55,0,0,0,.07-.25.3.3,0,0,0,0-.16,1.12,1.12,0,0,0,0-.13L39.83,99a.5.5,0,0,0-.22-.13h0a.41.41,0,0,0-.22,0,.32.32,0,0,0-.18.1.33.33,0,0,0-.1.17.36.36,0,0,0,.09.37l.1.07-.08-.06,0,0-.06-.08.09.11-.07-.08s0,0,0,0l0-.1s0,0,0,.06l0-.1s0,0,0,0l0-.1s0,0,0,0l0-.09,0,0,.07-.08,0,0,.08-.06,0,0,.09,0h.16l.09,0,0,0,.07.06s0,0,0,0l.05.07,0,0,0,.08,0,0v.08a.13.13,0,0,1,0-.06l0,.09s0,0,0-.06l0,.08,0,0,0,.06,0,0-.06,0,0,0-.08,0h0l-.36-.2v-.07a0,0,0,0,1,0,0l0-.06,0,0,0-.06a.08.08,0,0,0,0,0l.06,0h0a.28.28,0,0,0-.14.18.37.37,0,0,0,0,.11.18.18,0,0,0,0,.1.28.28,0,0,0,.39.1Z"/><path class="cls-1" d="M41.84,103.29a.16.16,0,0,1,0-.07c0,.06,0,.06,0,0s0-.11,0-.16a1,1,0,0,1,0-.17s0-.05,0-.08h0c0-.11,0-.22,0-.33s0-.12,0-.17a.25.25,0,0,0,0-.08s0,0,0,0,.05-.2.08-.3,0,.07,0,0l.06-.12,0-.06s0,.06,0,0,.09-.1.1-.09l0,0,.06,0c-.07,0-.08,0,0,0s0,0,0,0h.07c-.06,0-.07,0,0,0h0l.07,0s0,0,0,0l.06,0,0,0s0,0,0,0a.39.39,0,0,1,.08.14s.08.12,0,0a1.08,1.08,0,0,1,.09.32c.06.23.1.47.15.7a2.27,2.27,0,0,0,.25.76.42.42,0,0,0,.75-.11,1.24,1.24,0,0,0,0-.38l-.06-.44c0-.21-.09-.43-.14-.64a1.91,1.91,0,0,0-.69-1.22,1.06,1.06,0,0,0-1.33.12,2,2,0,0,0-.51,1.11,3.82,3.82,0,0,0,.08,1.54.5.5,0,0,0,.68.32.52.52,0,0,0,.27-.72Z"/><path class="cls-1" d="M46.2,101.18a1.49,1.49,0,0,0-1.39-.09,1.21,1.21,0,0,0-.64,1.13.92.92,0,0,0,1,.9c.53,0,.93-.62,1.2-1l-.74-.09a11.55,11.55,0,0,1,.63,3.4,1.26,1.26,0,0,1,0,.64c-.08.16-.28.19-.43.22a17.09,17.09,0,0,1-1.75.09.41.41,0,0,0-.12.8,4.31,4.31,0,0,0,2.14,0,1.42,1.42,0,0,0,1.15-1.33,8.32,8.32,0,0,0-.2-2,16.27,16.27,0,0,0-.58-2.07.41.41,0,0,0-.68-.17,2.9,2.9,0,0,1-.51.48l-.13.08s.13,0,.12,0,0-.07,0-.08c0-.32.41-.23.58-.13a.46.46,0,0,0,.47-.8Z"/><path class="cls-1" d="M85.74,94.23c0,1.06.06,2.13.07,3.19,0,.53,0,1.06,0,1.59a7.45,7.45,0,0,0,.11,1.57.41.41,0,0,0,.79,0A6.42,6.42,0,0,0,86.86,99c0-.53,0-1.06,0-1.59,0-1.06,0-2.13-.07-3.19,0-.67-1.07-.64-1,0Z"/><path class="cls-1" d="M88,98.55a7.24,7.24,0,0,0,0,1c0,.15,0,.31.07.46a3.09,3.09,0,0,0,.18.51.37.37,0,0,0,.38.18.39.39,0,0,0,.33-.28,3.15,3.15,0,0,0,0-.52c0-.16,0-.31,0-.47,0-.31,0-.62,0-.93a.5.5,0,0,0-.51-.51.55.55,0,0,0-.53.52Z"/><path class="cls-1" d="M88.62,96.46a.37.37,0,0,0-.34-.19h-.12l-.09,0-.09.07-.06.07a.32.32,0,0,0,0,.16.51.51,0,0,0,.06.3.6.6,0,0,0,.51.31.46.46,0,0,0,.2,0,.41.41,0,0,0,.14-.15.61.61,0,0,0,.07-.14s0,0,0-.06a.77.77,0,0,0,0-.15.83.83,0,0,0,0-.22.62.62,0,0,0-.1-.22.39.39,0,0,0-.16-.15l0,0-.09,0h-.1l-.11,0-.1,0-.08.06a.3.3,0,0,0-.07.11.19.19,0,0,0,0,.08.29.29,0,0,0,0,.13v0l0,.09.06.08-.06-.08a1.25,1.25,0,0,0,.09.12l0,.05-.06-.08.05.07,0-.09,0,.11v-.09a.31.31,0,0,1,0,.08l0-.08v0l.22-.17h0l.08,0-.06,0,.07.06,0,0,0,.07a.43.43,0,0,1,0-.07l0,.08s0,0,0,0v.06l0,.15h0l0,.06h0l-.07,0h0l-.08,0h-.08l-.07,0h0l-.06,0h0a.21.21,0,0,0,.1.06.14.14,0,0,0,.11,0h.08l.11-.05a.29.29,0,0,0,.11-.16.27.27,0,0,0,0-.23Z"/><path class="cls-1" d="M92.43,98a1.4,1.4,0,0,0-2.26.21A1,1,0,0,0,90,99a1.18,1.18,0,0,0,.37.56,3.52,3.52,0,0,1,.41.36c.06.06,0-.05,0,0a.75.75,0,0,0,.07.12s0,0,0,0,0,0,0,.06,0,.09,0,0,0,0,0,0v0c0,.07,0,0,0,0s0,.06,0,.06.07-.07,0,0,.09-.06,0,0-.09,0,0,0l.08,0H91s.11,0,0,0l-.06,0c-.08,0,0,0,0,0l0,0h0a.32.32,0,0,0-.14-.12.42.42,0,0,0-.49.07.55.55,0,0,0-.12.48.72.72,0,0,0,.19.34.84.84,0,0,0,.77.22A1,1,0,0,0,91.9,100a1.56,1.56,0,0,0-.79-1.17s0,0,0,0l-.07,0L91,98.75c-.06,0,0,0,0,0l0,0s0,0,0,0,0,0,0,0h0l0-.09c0-.09,0,0,0,0a.16.16,0,0,0,0-.07h0s0,0,0,0l.06-.07,0,0,.07,0,.06,0c.05,0,0,0,0,0l.15,0c-.08,0,0,0,.08,0s.07,0,0,0l.06,0,.06,0c.06,0,0,0,0,0a.43.43,0,0,1,.21.17.41.41,0,0,0,.58-.57Z"/><path class="cls-1" d="M93.66,96.5l.15,2.13.07,1a2.27,2.27,0,0,0,.24,1.12.4.4,0,0,0,.68,0,2.21,2.21,0,0,0,.12-1.08l-.07-1.08-.14-2.13A.52.52,0,0,0,94.2,96a.55.55,0,0,0-.54.52Z"/><path class="cls-1" d="M93.33,99.17,94.51,99l.65-.08a1.17,1.17,0,0,0,.67-.29.37.37,0,0,0-.08-.59.94.94,0,0,0-.66-.12,5.7,5.7,0,0,0-.58.06l-1.16.13a.57.57,0,0,0-.37.16.54.54,0,0,0-.16.36.51.51,0,0,0,.51.51Z"/><path class="cls-1" d="M96.64,98.77l.06,1c0,.2,0,.41,0,.61a1.68,1.68,0,0,0,.13.5.42.42,0,0,0,.39.3.44.44,0,0,0,.41-.31,2.9,2.9,0,0,0,.09-.59,4.52,4.52,0,0,0,0-.52l-.06-1a.51.51,0,0,0-.51-.51.54.54,0,0,0-.53.52Z"/><path class="cls-1" d="M97.13,97a.55.55,0,0,0,.19-.21.61.61,0,0,0,.05-.12s0-.09,0-.14a.27.27,0,0,0-.09-.21l-.06,0a.23.23,0,0,0-.14,0,.44.44,0,0,0-.23.06.49.49,0,0,0-.18.17.48.48,0,0,0-.08.16s0,.08,0,.12v0a.56.56,0,0,0,.07.26.41.41,0,0,0,.16.16.42.42,0,0,0,.33,0,.39.39,0,0,0,.15-.06l.13-.1.08-.1s0,0,0,0a.52.52,0,0,0,.07-.25.3.3,0,0,0,0-.16.61.61,0,0,0,0-.12,1,1,0,0,0-.08-.11.55.55,0,0,0-.23-.14h0a.41.41,0,0,0-.22,0,.4.4,0,0,0-.18.1.42.42,0,0,0-.1.17.4.4,0,0,0,.09.38l.1.07-.08-.06,0,0-.07-.08.09.12-.06-.09s0,0,0,0l0-.1a.14.14,0,0,1,0,.06v-.17s0,0,0,0l0-.09,0,0,.07-.08,0,0,.09-.06,0,0,.1,0h.15l.09,0,0,0,.08.06,0,0,.06.08,0,0,0,.08a.07.07,0,0,1,0,0v.09a.06.06,0,0,1,0-.06l0,.08s0,0,0,0l0,.07a.08.08,0,0,1,0,0l0,.06,0,0-.06.05,0,0-.07,0h0l-.35-.2V96.5a.08.08,0,0,1,0,0l0-.07,0,0,0-.06,0,0,.06,0,0,0a.3.3,0,0,0-.14.17.21.21,0,0,0,0,.11.23.23,0,0,0,0,.11.31.31,0,0,0,.17.13.32.32,0,0,0,.22,0Z"/><path class="cls-1" d="M99.44,100.61a.3.3,0,0,1,0-.08c0,.06,0,.06,0,0a1,1,0,0,1,0-.16.94.94,0,0,1,0-.16s0-.06,0-.09h0c0-.11,0-.22,0-.33s0-.11,0-.17a.19.19,0,0,0,0-.08s0,0,0,0,0-.2.08-.3,0,.08,0,0a.75.75,0,0,1,.07-.12l0,0h0l.1-.09c-.06,0-.07,0,0,0a.09.09,0,0,1,.06,0h0s0,0,0,0h.07c-.06,0-.07,0,0,0s.05,0,0,0l.06,0s0,0,0,0l.06.05,0,0,0,0a.39.39,0,0,1,.08.14l0,0a1.17,1.17,0,0,1,.09.32c.06.23.1.47.16.71a2,2,0,0,0,.24.75.42.42,0,0,0,.75-.11.92.92,0,0,0,0-.37,3.11,3.11,0,0,0-.06-.44c0-.22-.08-.44-.14-.65a2,2,0,0,0-.68-1.22,1.06,1.06,0,0,0-1.34.13,2,2,0,0,0-.51,1.1,3.8,3.8,0,0,0,.08,1.54.5.5,0,0,0,.69.32.51.51,0,0,0,.26-.71Z"/><path class="cls-1" d="M103.8,98.5a1.44,1.44,0,0,0-1.39-.09,1.18,1.18,0,0,0-.64,1.12.92.92,0,0,0,1,.9c.53,0,.94-.62,1.21-1l-.75-.09a11.61,11.61,0,0,1,.63,3.4,1.3,1.3,0,0,1,0,.65c-.08.15-.27.18-.43.21a17.09,17.09,0,0,1-1.75.09.41.41,0,0,0-.12.8,4.09,4.09,0,0,0,2.14,0,1.4,1.4,0,0,0,1.15-1.32,7.75,7.75,0,0,0-.2-2,14.91,14.91,0,0,0-.58-2.08.41.41,0,0,0-.68-.17,2.33,2.33,0,0,1-.51.48,1.46,1.46,0,0,0-.13.09s.14,0,.12,0,0-.08,0-.09c0-.32.41-.22.58-.13.51.28,1-.49.47-.79Z"/><path class="cls-1" d="M26.35,139.38c0,1.06.07,2.12.08,3.18v1.6a6.88,6.88,0,0,0,.11,1.57.41.41,0,0,0,.79,0,5.93,5.93,0,0,0,.14-1.57c0-.53,0-1.07,0-1.6,0-1.06,0-2.12-.07-3.18a.53.53,0,0,0-1,0Z"/><path class="cls-1" d="M28.63,143.69a7.38,7.38,0,0,0,0,1.05,3.5,3.5,0,0,0,.07.45,2.47,2.47,0,0,0,.18.52.4.4,0,0,0,.38.18.39.39,0,0,0,.33-.28,4.75,4.75,0,0,0,.05-.53c0-.15,0-.31,0-.46,0-.32,0-.63,0-.94a.51.51,0,0,0-.51-.51.55.55,0,0,0-.53.52Z"/><path class="cls-1" d="M29.24,141.6a.41.41,0,0,0-.35-.19l-.1,0h0a.3.3,0,0,0-.08,0,.47.47,0,0,0-.09.06l-.06.08a.43.43,0,0,0-.05.16.5.5,0,0,0,.07.29.52.52,0,0,0,.21.23.49.49,0,0,0,.29.08.34.34,0,0,0,.2,0,.43.43,0,0,0,.15-.15.61.61,0,0,0,.07-.14.14.14,0,0,1,0-.06.78.78,0,0,0,0-.16.83.83,0,0,0,0-.22.81.81,0,0,0-.1-.21.35.35,0,0,0-.16-.16l0,0-.09,0H28.9l-.11,0-.07.06a.26.26,0,0,0-.07.11.13.13,0,0,0,0,.08.19.19,0,0,0,0,.13v0h0l0,.09.07.08-.06-.07a.94.94,0,0,0,.09.12l0,0-.06-.08a.3.3,0,0,1,0,.08l0-.09a.3.3,0,0,1,0,.1v-.09a.14.14,0,0,1,0,.09l0-.09,0,.08,0-.08,0,0,.22-.16h.11l-.05,0,.08,0-.06,0,.06.05-.05-.05.06.07,0-.06,0,.08s0,0,0-.06v.06l-.05.16v0l-.05.07,0,0L29,142h0l-.08,0h-.08l-.07,0h0l-.07,0h0a.31.31,0,0,0,.09.07l.12,0h.08a.3.3,0,0,0,.11-.06.3.3,0,0,0,.08-.39Z"/><path class="cls-1" d="M33,143.11a1.39,1.39,0,0,0-2.25.21,1.06,1.06,0,0,0-.13.78,1.1,1.1,0,0,0,.37.55c.13.12.28.23.41.36s0,0,0,0a.83.83,0,0,1,.07.13c0,.05,0,0,0,0a.14.14,0,0,1,0,.06s0,.09,0,0,0,0,0,0,0,0,0,0l0,.07c0,.07,0,0,0,0l0,.06s.06-.08,0,0,.08-.06,0,0-.09,0,0,0l.08,0h-.05s.11,0,0,0h0l0,0s.06.08,0,0h0a.53.53,0,0,0-.14-.12.42.42,0,0,0-.49.08.51.51,0,0,0-.12.47A.8.8,0,0,0,31,146a.84.84,0,0,0,.77.21,1,1,0,0,0,.77-1.07,1.62,1.62,0,0,0-.79-1.17c-.05,0,0,0,0,0l-.06-.05-.08-.07c-.07-.06,0,0,0,0l0,0s0,0,0,0,0,0,0,0h0a.29.29,0,0,1,0-.09c0-.09,0,0,0,0l0-.06s.05-.06,0,0,0,0,0,0l.07-.06s0,0,0,0l.06,0,.07,0s0,0,0,0l.15,0h.09s.07,0,0,0h.06l.06,0c.06,0-.05,0,0,0a.51.51,0,0,1,.22.17.42.42,0,0,0,.57,0,.41.41,0,0,0,0-.57Z"/><path class="cls-1" d="M34.28,141.64l.14,2.13.08,1a2.37,2.37,0,0,0,.23,1.12.41.41,0,0,0,.69,0,2.15,2.15,0,0,0,.12-1.07l-.08-1.09-.14-2.13a.5.5,0,0,0-.51-.5.53.53,0,0,0-.53.51Z"/><path class="cls-1" d="M34,144.31l1.17-.13.66-.09a1.13,1.13,0,0,0,.67-.29.37.37,0,0,0-.08-.59,1,1,0,0,0-.66-.12l-.59.06-1.15.14a.51.51,0,0,0-.53.51c0,.26.22.55.51.51Z"/><path class="cls-1" d="M37.26,143.91l.05,1.05c0,.2,0,.41,0,.61a2.72,2.72,0,0,0,.13.49.42.42,0,0,0,.4.3.44.44,0,0,0,.41-.31,2.8,2.8,0,0,0,.09-.58c0-.17,0-.35,0-.52l-.06-1a.52.52,0,0,0-.51-.51.55.55,0,0,0-.53.52Z"/><path class="cls-1" d="M37.75,142.1a.52.52,0,0,0,.19-.2.69.69,0,0,0,.05-.13.61.61,0,0,0,0-.14.15.15,0,0,0,0-.11.18.18,0,0,0-.06-.09l-.06-.05a.35.35,0,0,0-.14,0,.49.49,0,0,0-.24.05.73.73,0,0,0-.18.17,1.11,1.11,0,0,0-.07.16.5.5,0,0,0,0,.12v.05a.55.55,0,0,0,.07.25.44.44,0,0,0,.16.17.56.56,0,0,0,.48,0,.38.38,0,0,0,.12-.1.39.39,0,0,0,.08-.1s0,0,0,0a.72.72,0,0,0,.07-.25.44.44,0,0,0,0-.16,1.12,1.12,0,0,0,0-.13l-.09-.11a.48.48,0,0,0-.23-.13h0a.54.54,0,0,0-.22,0,.42.42,0,0,0-.18.11.36.36,0,0,0,0,.54l.1.07-.08-.06,0,0-.06-.09.09.12-.07-.08,0,0,0-.1a.13.13,0,0,1,0,.06v-.07l0-.1,0,.05,0-.1s0,0,0,.05l.06-.09,0,0,.08-.07,0,0,.09,0h.16l.09,0,0,0,.07.05,0,0,.06.07,0,0,0,.09a.14.14,0,0,1,0-.06v.11l0-.05,0,.08,0-.05,0,.07,0,0-.07,0a.05.05,0,0,1,0,0l-.08,0h0l-.36-.21v-.07s0,0,0,0l0-.07,0,0,0-.06,0,0,.06,0h0a.28.28,0,0,0-.14.18.17.17,0,0,0,0,.1.2.2,0,0,0,0,.11.27.27,0,0,0,.18.13.28.28,0,0,0,.22,0Z"/><path class="cls-1" d="M40.05,145.75l0-.07h0a1.42,1.42,0,0,0-.05-.16l0-.16a.22.22,0,0,1,0-.08h0a2,2,0,0,1,0-.34.86.86,0,0,1,0-.16s0-.06,0-.09h0l.09-.31c0-.1-.05.08,0,0l.06-.12,0-.06c0,.05,0,.06,0,0s.08-.1.09-.09-.06,0,0,0l.06,0c-.07,0-.08,0,0,0h0l.06,0c.05,0,0,0,0,0a995164323832,995164323832,0,0,0,.1.1s0,0,0,0,.07.11.08.14l0,0a1.58,1.58,0,0,1,.09.31l.15.71a2.14,2.14,0,0,0,.25.75.42.42,0,0,0,.75-.1,1.24,1.24,0,0,0,0-.38l-.06-.44c0-.22-.09-.43-.14-.65a1.91,1.91,0,0,0-.69-1.21,1,1,0,0,0-1.33.12,2,2,0,0,0-.51,1.11,3.44,3.44,0,0,0,.08,1.53.5.5,0,0,0,.68.33.51.51,0,0,0,.26-.72Z"/><path class="cls-1" d="M44.42,143.64a1.46,1.46,0,0,0-1.39-.09,1.19,1.19,0,0,0-.65,1.12.94.94,0,0,0,1,.91c.52,0,.93-.63,1.2-1l-.74-.08a11.55,11.55,0,0,1,.63,3.4,1.39,1.39,0,0,1,0,.64c-.08.16-.28.19-.44.22a16.75,16.75,0,0,1-1.74.09.41.41,0,0,0-.12.8,4.27,4.27,0,0,0,2.13,0,1.41,1.41,0,0,0,1.15-1.33,7.78,7.78,0,0,0-.19-2,18.87,18.87,0,0,0-.58-2.08.41.41,0,0,0-.68-.17,2.63,2.63,0,0,1-.51.49,1.48,1.48,0,0,0-.13.08s.13,0,.12,0,0-.07,0-.08c0-.32.41-.23.58-.14a.46.46,0,0,0,.47-.79Z"/><path class="cls-1" d="M72.76,138.1c0,1.06.07,2.13.08,3.19v1.59a6.32,6.32,0,0,0,.11,1.57.41.41,0,0,0,.79,0,6,6,0,0,0,.14-1.58c0-.53,0-1.06,0-1.59,0-1.06,0-2.13-.07-3.19a.53.53,0,0,0-1,0Z"/><path class="cls-1" d="M75,142.42a7.24,7.24,0,0,0,0,1,3.65,3.65,0,0,0,.07.46,2.38,2.38,0,0,0,.18.51.36.36,0,0,0,.38.18.41.41,0,0,0,.33-.28c0-.18,0-.35,0-.52v-.47c0-.31,0-.62,0-.93a.49.49,0,0,0-.51-.51.54.54,0,0,0-.53.52Z"/><path class="cls-1" d="M75.65,140.33a.39.39,0,0,0-.35-.19h-.12l-.08,0a.22.22,0,0,0-.09.07l-.06.07a.33.33,0,0,0,0,.16.51.51,0,0,0,.07.3.61.61,0,0,0,.5.31.46.46,0,0,0,.2,0,.36.36,0,0,0,.15-.15.61.61,0,0,0,.07-.14s0,0,0-.06l0-.15a.83.83,0,0,0,0-.22.88.88,0,0,0-.1-.22.46.46,0,0,0-.16-.15.05.05,0,0,0,0,0l-.08,0h-.1l-.11,0a.25.25,0,0,0-.11,0l-.07.06a.21.21,0,0,0-.07.11.11.11,0,0,0,0,.08.2.2,0,0,0,0,.13v0h0l0,.1.07.08-.06-.08a.54.54,0,0,0,.09.12l0,0-.06-.08a.16.16,0,0,1,0,.07l0-.09a.36.36,0,0,1,0,.11v-.1a.17.17,0,0,1,0,.1l0-.1,0,.09,0-.09,0,0,.22-.17h.06l.08,0-.07,0,.07.06,0,0,.06.06s0,0,0-.06l0,.08a.09.09,0,0,1,0,0v.06l0,.15h0l-.05.06h0l-.06,0h0l-.08,0h-.08l-.07,0h0l-.07,0h0a.27.27,0,0,0,.1.06.17.17,0,0,0,.12,0h.08l.11-.05a.36.36,0,0,0,.11-.16.31.31,0,0,0,0-.23Z"/><path class="cls-1" d="M79.45,141.84a1.39,1.39,0,0,0-2.25.2,1.08,1.08,0,0,0-.13.78,1.11,1.11,0,0,0,.37.56c.13.12.28.22.41.35s0,0,0,0a.75.75,0,0,1,.07.12v0a.14.14,0,0,1,0,.06s0,.09,0,0,0,0,0,0,0,0,0,0l0,.07c0,.07,0,0,0,0l0,.06s.06-.07,0,0l0,0s-.09,0,0,0l.08,0h0s.11,0,0,0L78,144c-.08,0,0,0,0,0l0,0s.06.08,0,0h0a.35.35,0,0,0-.15-.12.41.41,0,0,0-.48.07.53.53,0,0,0-.12.48.72.72,0,0,0,.19.34.84.84,0,0,0,.77.22,1,1,0,0,0,.77-1.07,1.6,1.6,0,0,0-.8-1.17s0,0,0,0l-.06-.05-.09-.08h0l0,0s0,0,0,0,0,0,0,0,0,0,0,0l0-.08c0-.09,0,0,0,0a.43.43,0,0,0,0-.07s0,0,0,0h0a.46.46,0,0,0,.07-.07s0,0,0,0l.06,0,.07,0s0,0,0,0a.42.42,0,0,1,.15,0c-.07,0,.06,0,.09,0s.07,0,0,0l.07,0h.06c.06,0-.05,0,0,0a.51.51,0,0,1,.22.17.41.41,0,0,0,.57,0,.4.4,0,0,0,0-.56Z"/><path class="cls-1" d="M80.69,140.37l.14,2.13.08,1a2.37,2.37,0,0,0,.23,1.12.41.41,0,0,0,.69,0,2.28,2.28,0,0,0,.12-1.07l-.08-1.08-.14-2.13a.51.51,0,0,0-.51-.51.54.54,0,0,0-.53.52Z"/><path class="cls-1" d="M80.36,143l1.17-.14.66-.08a1.2,1.2,0,0,0,.67-.29.39.39,0,0,0-.08-.6,1,1,0,0,0-.66-.11,5.9,5.9,0,0,0-.59.06l-1.15.13a.62.62,0,0,0-.38.16.53.53,0,0,0-.15.36.5.5,0,0,0,.51.51Z"/><path class="cls-1" d="M83.66,142.64l.06,1c0,.2,0,.41,0,.61a2.83,2.83,0,0,0,.13.5.43.43,0,0,0,.4.3.45.45,0,0,0,.41-.31,2.9,2.9,0,0,0,.09-.59,4.53,4.53,0,0,0,0-.52l-.05-1a.51.51,0,0,0-.51-.51.55.55,0,0,0-.54.52Z"/><path class="cls-1" d="M84.16,140.83a.55.55,0,0,0,.19-.21s0-.08.05-.12a.71.71,0,0,0,0-.14.14.14,0,0,0,0-.11.21.21,0,0,0-.06-.1l-.06,0a.26.26,0,0,0-.15,0,.46.46,0,0,0-.23.06.58.58,0,0,0-.18.17.59.59,0,0,0-.07.16.43.43,0,0,0,0,.12v0a.46.46,0,0,0,.07.26.49.49,0,0,0,.16.16.42.42,0,0,0,.33,0,.47.47,0,0,0,.15-.06.58.58,0,0,0,.12-.1l.08-.1,0,0a.66.66,0,0,0,.07-.25.44.44,0,0,0,0-.16.49.49,0,0,0-.06-.13l-.08-.1a.49.49,0,0,0-.23-.14h0a.41.41,0,0,0-.22,0,.5.5,0,0,0-.19.1.59.59,0,0,0-.1.17.4.4,0,0,0,.1.38l.1.07-.09-.06,0,0-.07-.08.1.12-.07-.09,0,.05,0-.1s0,0,0,.06v-.07l0-.1,0,0,0-.09,0,0,.06-.08,0,0,.08-.06,0,0,.1,0h.16l.09,0,0,0,.07.06,0,0,.06.07,0,0,0,.08a.08.08,0,0,1,0,0v.11a.43.43,0,0,1,0,0l0,.07,0,0,0,.06,0,0-.07,0,0,0-.08,0h0l-.36-.2v-.07s0,0,0,0l0-.07,0,0,0-.06,0,0,.07-.05h0a.31.31,0,0,0-.14.18.21.21,0,0,0,0,.11.23.23,0,0,0,0,.11.3.3,0,0,0,.18.13.33.33,0,0,0,.22,0Z"/><path class="cls-1" d="M86.46,144.48l0-.08c0,.06,0,.06,0,0a.75.75,0,0,0-.05-.16l0-.16a.28.28,0,0,1,0-.09c0,.06,0,.05,0,0s0-.22,0-.33a1,1,0,0,1,0-.17s0-.05,0-.08,0,0,0,0l.09-.3c0-.11,0,.08,0,0l.06-.12,0-.05h0l.09-.09c-.06,0-.06,0,0,0l.06,0h0c-.07,0-.07,0,0,0s0,0,0,0l.06,0s0,0,0,0,0,0,0,0l.05.05s0,0,0,0,.06.11.08.14.08.12,0,0a1.09,1.09,0,0,1,.1.32l.15.71a2.44,2.44,0,0,0,.24.75.42.42,0,0,0,.76-.11.92.92,0,0,0,0-.37c0-.15,0-.3,0-.44s-.09-.44-.14-.65a1.94,1.94,0,0,0-.69-1.22,1,1,0,0,0-1.33.13,1.91,1.91,0,0,0-.51,1.1,3.48,3.48,0,0,0,.08,1.54.49.49,0,0,0,.68.32.5.5,0,0,0,.26-.71Z"/><path class="cls-1" d="M90.82,142.36a1.44,1.44,0,0,0-1.38-.08,1.17,1.17,0,0,0-.65,1.12.93.93,0,0,0,1,.9c.53,0,.94-.62,1.21-1l-.74-.09a11.61,11.61,0,0,1,.63,3.4,1.43,1.43,0,0,1,0,.65.6.6,0,0,1-.44.21,16.75,16.75,0,0,1-1.74.09.41.41,0,0,0-.12.8,4.16,4.16,0,0,0,2.13,0A1.39,1.39,0,0,0,91.78,147a7.29,7.29,0,0,0-.2-2A14.91,14.91,0,0,0,91,143a.4.4,0,0,0-.67-.17,2.88,2.88,0,0,1-.51.48l-.13.08s.13,0,.12,0,0-.08,0-.09c0-.32.41-.23.58-.13a.46.46,0,0,0,.46-.8Z"/><path class="cls-2" d="M86.34,168.67c2.84,11.65,14.14,18.63,24.92,21.91,6.76,2.06,14,3.07,20.91.85,5.76-1.86,10.66-5.53,15.24-9.39,4.88-4.11,9.52-8.51,15-11.89a59.57,59.57,0,0,1,19.17-7.68c14.88-3.11,30,.76,45-.86a35.12,35.12,0,0,0,10-2.26,14.23,14.23,0,0,0,7.09-6.51,47.47,47.47,0,0,0,3.62-10,70.59,70.59,0,0,0,2-11.08,52,52,0,0,0,.27-5.44c0-1-1.5-1-1.55,0a75.69,75.69,0,0,1-4.07,21.44c-1.11,3.1-2.46,6.3-5.16,8.35-2.55,2-5.79,2.76-8.9,3.3-14.66,2.54-29.55-1.28-44.25.69A61.36,61.36,0,0,0,166.55,166,75.21,75.21,0,0,0,151,176.82c-4.5,3.89-8.93,8-14.15,10.85a27.75,27.75,0,0,1-8.14,3.06,29.91,29.91,0,0,1-11-.12,50.64,50.64,0,0,1-17.28-6.35c-4.78-2.89-9.1-6.81-11.55-11.92a21.33,21.33,0,0,1-1.42-4,.59.59,0,0,0-1.14.3Z"/><path class="cls-2" d="M246.62,126.92l-1.17,1.33a9.73,9.73,0,0,0-.65.79,3,3,0,0,0-.25.37c-.05.1-.1.2-.14.3a1.33,1.33,0,0,0,0,.34.61.61,0,0,0,.77.59,2.33,2.33,0,0,0,.94-.6,7.22,7.22,0,0,0,.6-.64l1.16-1.31a.92.92,0,0,0,.26-.59.84.84,0,0,0-.25-.6.89.89,0,0,0-1.22,0Z"/><path class="cls-2" d="M249.21,128.29l1.53,1.64c.26.27.5.55.76.81a2.46,2.46,0,0,0,1.12.77.73.73,0,0,0,.66-.19.7.7,0,0,0,.18-.63,2.42,2.42,0,0,0-.72-1.15c-.24-.29-.51-.56-.77-.83l-1.53-1.64a.88.88,0,0,0-1.22,0,.85.85,0,0,0,0,1.19Z"/><path class="cls-2" d="M168.37,150.53q1.73-2,3.3-4.14c.51-.69,1-1.39,1.49-2.1.24-.35.45-.7.67-1.06a1.63,1.63,0,0,0,.36-1.31.52.52,0,0,0-.63-.36,1.59,1.59,0,0,0-1,.81c-.24.35-.49.69-.72,1-.47.71-1,1.42-1.47,2.12q-1.47,2-3.1,4a.76.76,0,0,0,0,1.06.78.78,0,0,0,1.08,0Z"/><path class="cls-2" d="M168.28,142.24a57.83,57.83,0,0,0,2.23,5.83c.41.93.85,1.86,1.31,2.77a9.37,9.37,0,0,0,1.69,2.64.68.68,0,0,0,1.12-.65,12.36,12.36,0,0,0-1.26-2.77c-.45-.88-.87-1.77-1.28-2.67a59.21,59.21,0,0,1-2.14-5.6c-.34-1-2-.58-1.67.45Z"/><path class="cls-2" d="M179.2,147.14c.57,0,1.15,0,1.73,0s1.2-.08,1.81-.16a.6.6,0,0,0,.43-.55.54.54,0,0,0-.41-.53,29.87,29.87,0,0,0-3.53-.22.79.79,0,0,0-.78.76.75.75,0,0,0,.75.75Z"/><path class="cls-2" d="M179.22,149.84a20.16,20.16,0,0,0,2.69.2c.41,0,.82,0,1.23,0a3.19,3.19,0,0,0,1.46-.37c.34-.21.47-.85,0-1a7.39,7.39,0,0,0-2.57-.22l-1.24-.06c-.36,0-.84-.07-1.11-.11a.92.92,0,0,0-1.06.62.82.82,0,0,0,.59,1Z"/><path class="cls-2" d="M188.76,148.57c.13,1.58.21,3.16.25,4.74,0,.76,0,1.52.05,2.28a3.61,3.61,0,0,0,.42,2.3.54.54,0,0,0,.75,0,3.51,3.51,0,0,0,.5-2.3c0-.76,0-1.53,0-2.29,0-1.58-.12-3.16-.25-4.73a.85.85,0,0,0-.85-.84.88.88,0,0,0-.87.85Z"/><path class="cls-2" d="M190.48,147.24a7.18,7.18,0,0,1,2.41-1.09,3,3,0,0,1,.44,0,1.2,1.2,0,0,1,.44.06,1.63,1.63,0,0,1,.77.36l.18.17,0,0,.08.12.06.1s.07.15,0,.07,0,0,0,.05a1,1,0,0,0,0,.17c0,.12,0-.1,0,0a.41.41,0,0,1,0,.11s0,.09,0,.14,0,.13,0,.05,0,.06,0,.08l0,.1c0,.05-.1.28,0,.17a2.51,2.51,0,0,1-.26.45c-.09.13,0,.05,0,0l-.1.12-.22.21-.09.08c-.1.08.1-.07,0,0l-.22.14a1.8,1.8,0,0,1-.48.21,8.68,8.68,0,0,1-3,.19.79.79,0,0,0-.77.75.74.74,0,0,0,.74.74,8.41,8.41,0,0,0,3.39-.14,3.83,3.83,0,0,0,2.38-2,2.7,2.7,0,0,0-.29-3,3.23,3.23,0,0,0-2.59-1,6.93,6.93,0,0,0-3.48,1.42.67.67,0,1,0,.67,1.16Z"/><path class="cls-2" d="M198.67,150.4l0,0-.1-.17-.09-.18c-.07-.14,0,.08,0,0a3.37,3.37,0,0,1-.1-.34,1.42,1.42,0,0,1,0-.2c0-.21,0,.16,0-.06a2.54,2.54,0,0,1,0-.39s0-.21,0-.1,0-.1,0-.12.07-.23.11-.35c-.06.17,0,0,0-.05a1.4,1.4,0,0,1,.1-.16.62.62,0,0,1,.1-.16c-.07.06-.06.07,0,0a2,2,0,0,1,.25-.25l.09-.08-.07.06.15-.11.34-.19.14-.06s.22-.1.1-.05,0,0,.08,0l.18-.06.18-.05s.22-.05.06,0l.48-.1a.62.62,0,0,0,.17-1.12,2.53,2.53,0,0,0-2.21.07,3.49,3.49,0,0,0-1.1,5.47.81.81,0,0,0,1.15-1.15Z"/><path class="cls-2" d="M202.79,148.57c.05.55.07,1.1.15,1.64,0,.24.07.49.11.73a6.09,6.09,0,0,0,.17.71.67.67,0,0,0,.75.48.71.71,0,0,0,.61-.67,6,6,0,0,0,.06-.74c0-.24,0-.47,0-.71,0-.48-.08-1-.12-1.45a.88.88,0,0,0-.25-.61.86.86,0,0,0-.59-.23c-.42,0-.92.38-.88.85Z"/><path class="cls-2" d="M202.63,144.28a1.24,1.24,0,0,0,.41.38,1.29,1.29,0,0,0,.54.15,1,1,0,0,0,.48-.09.6.6,0,0,0,.27-.2.59.59,0,0,0,.12-.22.2.2,0,0,0,0-.07,2.74,2.74,0,0,0,0-.28,1.58,1.58,0,0,0-.17-.8,1.62,1.62,0,0,0-.57-.62,1,1,0,0,0-.58-.18,1.54,1.54,0,0,0-.3,0,.87.87,0,0,0-.17.07,1,1,0,0,0-.16.12l0,0a.57.57,0,0,0,0,.8,1.73,1.73,0,0,0,.21.17.57.57,0,0,1,.13.08l-.14-.11.17.13.19.07-.17-.06a1,1,0,0,1,.21.11l-.14-.1a1.58,1.58,0,0,1,.23.22l-.11-.14a1,1,0,0,1,.13.23l-.06-.16a.86.86,0,0,1,.06.23l0-.16a.43.43,0,0,1,0,.16l0-.16a.22.22,0,0,1,0,.08l.46-.46-.14,0,.17,0h-.15l.17,0-.14,0,.15.06-.13-.07.13.1a.47.47,0,0,1-.1-.1l.1.13v0a.46.46,0,0,0-.17-.17.53.53,0,0,0-.21-.11.69.69,0,0,0-.47.07.66.66,0,0,0-.3.38.6.6,0,0,0,0,.47Z"/><path class="cls-2" d="M210.71,146.31a4.61,4.61,0,0,0-3.36,2,2.48,2.48,0,0,0,0,2.31,3.15,3.15,0,0,0,1.87,1.5,4.19,4.19,0,0,0,1.49.19c.24,0,.47,0,.71-.06a4.92,4.92,0,0,0,.84-.21.71.71,0,0,0,.52-.75.67.67,0,0,0-.67-.58c-.37,0-.72,0-1.09,0a4.35,4.35,0,0,1-.51,0h-.12s-.15,0,0,0l-.26,0-.27-.07-.1,0c-.11,0,.13.06,0,0a2.87,2.87,0,0,1-.39-.2l-.08,0c-.11-.07,0,0,0,0a1.74,1.74,0,0,0-.14-.12L209,150s0-.06-.06-.06.1.14,0,0a1.3,1.3,0,0,1-.1-.15l-.05-.11c-.05-.08,0,.07,0,.07s-.05-.13-.05-.17a.21.21,0,0,1,0-.12s0,.16,0,0v-.19c0-.18,0,.12,0,0a1,1,0,0,0,0-.14l0-.07c0-.1-.1.17,0,0a.83.83,0,0,1,.07-.13s.14-.19,0-.07l.06-.07.15-.15a.38.38,0,0,0,.12-.1s-.16.11-.08.06l.09-.06.33-.2.2-.1.13-.06.1,0,.22-.08a6.87,6.87,0,0,1,.87-.21.87.87,0,0,0,.63-1,.85.85,0,0,0-1-.59Z"/><path class="cls-2" d="M215.1,150.12c1.62.27,3.66.38,4.53-1.35a2,2,0,0,0-2-2.94,3.45,3.45,0,0,0-3,3.45,3.26,3.26,0,0,0,2.76,3,7,7,0,0,0,2.59.07,12.54,12.54,0,0,1,3.11-.26c.8.1,1.2-1,.36-1.26a10.67,10.67,0,0,0-4.1,0,3.69,3.69,0,0,1-2.66-.57,1.82,1.82,0,0,1,0-2.6,1.5,1.5,0,0,1,1.22-.61.79.79,0,0,1,.76.78,1.32,1.32,0,0,1-.88,1,4.38,4.38,0,0,1-2.3,0c-.79-.14-1.16,1.07-.35,1.21Z"/></svg>