<svg id="Layer_1" data-name="Layer 1" xmlns="http://www.w3.org/2000/svg" viewBox="0 0 272.5 210.41"><defs><style>.cls-1{opacity:0.25;}.cls-2{fill:#fd46fc;}.cls-3,.cls-4{fill:none;stroke-miterlimit:10;}.cls-3{stroke:#fd46fc;}.cls-4{stroke:#ef8354;}.cls-5{fill:#ef8354;}.cls-6{fill:#486afb;}</style></defs><g class="cls-1"><path class="cls-2" d="M119,132.41l.8,1.12c-4.56,2-8.66,5.32-13.46,6.77-5.66,1.71-11.91.64-17.19-2-5.76-2.9-10.92-8.61-10.22-15,.67-6.08,6.35-10.89,6.44-17,.06-3.72-2-7.07-3.58-10.5,8.23-1.86,17.58,1.19,22.71,8,3.38,4.46,4.91,10,7,15.18A67.13,67.13,0,0,0,119,132.41Z" transform="translate(-12.18 -23.63)"/><path class="cls-3" d="M32.86,102.88c0-.17,0-.34,0-.51A15,15,0,0,1,55.47,91c2.79,1.65,5,4.14,7.54,6.14s5.83,3.54,9,2.76a20,20,0,0,0,4.56-2.21,19.94,19.94,0,0,1,5.19-1.93c8.23-1.86,17.58,1.19,22.71,8,3.38,4.46,4.91,10,7,15.18a67.13,67.13,0,0,0,7.47,13.5l.8,1.12c1.17,1.71,2.24,3.55,2,5.57-.28,2.9-3,4.9-5.61,6.15a33.4,33.4,0,0,1-12.12,3.23c-15.47,1.13-30.29-8.41-45.74-7-4.53.41-9,1.77-13.56,1.39a17,17,0,0,1-12.19-6.77,15,15,0,0,1-2-13.68c1-2.82,3-5.32,3.5-8.28.64-3.89-1.36-7.82-.87-11.73" transform="translate(-12.18 -23.63)"/><path class="cls-4" d="M91,79.21a2.07,2.07,0,0,0-.35,0C85.26,78.71,79.9,83.55,79.9,89a16.07,16.07,0,0,0,1.84,6.74c1.6,3.43,3.64,6.78,3.58,10.5-.09,6.11-5.77,10.92-6.44,17-.7,6.41,4.46,12.12,10.22,15,5.28,2.66,11.53,3.73,17.19,2,4.8-1.45,8.9-4.77,13.46-6.77a20,20,0,0,1,4.16-1.33c4.72-.9,10.26.2,13.84-3,2.08-1.86,2.9-4.74,3.33-7.5a26.63,26.63,0,0,0-.27-10.67c-1.76-6.9-7.1-12.35-13-16.4s-12.41-7-18.26-11.09a35.8,35.8,0,0,0-5.41-3.44,18.3,18.3,0,0,0-6.81-1.48,26.87,26.87,0,0,0-6.69.56c-.82.17-1.64.38-2.44.63" transform="translate(-12.18 -23.63)"/></g><g class="cls-1"><path class="cls-2" d="M261.71,133.48c-4.39,2-8.39,5.18-13,6.59-5.66,1.71-11.91.63-17.19-2-5.76-2.9-10.91-8.6-10.21-15,.66-6.08,6.34-10.89,6.43-17,.06-3.72-2-7.07-3.57-10.5h0c8.22-1.85,17.58,1.2,22.71,8,3.37,4.46,4.9,10,7,15.18a66.53,66.53,0,0,0,7.46,13.49" transform="translate(-12.18 -23.63)"/><path class="cls-5" d="M261.35,132.85c-5.08,2.32-9.56,6-15.18,7a23.8,23.8,0,0,1-16-3.33c-4-2.42-7.78-6.47-8.24-11.32s2.88-9,4.9-13.16a13.78,13.78,0,0,0,1.51-8c-.47-3.21-2.15-6.09-3.48-9l-.32,1.16c-.09,0,.35,0,.42,0l.54-.09c.4-.07.81-.12,1.22-.16a21.73,21.73,0,0,1,2.55-.09,22.75,22.75,0,0,1,13.6,4.89c6,5,7.73,12.9,10.72,19.75a64.62,64.62,0,0,0,6.93,12.12,1,1,0,0,0,1.26.33.93.93,0,0,0,.34-1.26,70.08,70.08,0,0,1-6.42-11.23c-1.72-3.77-2.95-7.74-4.64-11.53a25.4,25.4,0,0,0-6.57-9.31,23.61,23.61,0,0,0-9.28-4.77,24.19,24.19,0,0,0-5.75-.76,21.81,21.81,0,0,0-2.91.14,9.85,9.85,0,0,0-2.86.54.86.86,0,0,0-.31,1.16c1.27,2.67,2.83,5.29,3.37,8.23a12,12,0,0,1-1.29,7.31c-2.05,4.33-5.32,8.49-4.92,13.54s3.84,9.2,7.84,12a25.85,25.85,0,0,0,16,4.6,22.75,22.75,0,0,0,9.16-2.74c2.9-1.52,5.61-3.36,8.58-4.75.85-.39.12-1.64-.72-1.26Z" transform="translate(-12.18 -23.63)"/></g><path class="cls-6" d="M14.06,67.73c.76,16.25,1.28,32.49,1.39,48.77.06,8.16-.09,16.31-.25,24.47Q15.1,147,15,153.13a49,49,0,0,0-.09,5.42c.12,1.46.73,2.95,2.29,3.35a8.47,8.47,0,0,0,2.36.08c1.1,0,2.19-.1,3.28-.12,2,0,4.06,0,6.09,0H41.05q12.17,0,24.34,0c16.28-.05,32.56,0,48.84.06,8.11,0,16.23,0,24.34-.07s16.33,0,24.5-.13c2,0,4-.06,5.93,0a.81.81,0,0,0,.69-1.2,11.39,11.39,0,0,1-.83-5.23c0-2,.19-4,.27-6.07.18-4.14.35-8.29.48-12.45.25-8.35.4-16.7.52-25.06s.16-16.61.12-24.92q0-6.23-.1-12.46c0-2.07-.05-4.15-.11-6.23,0-1.29-.25-2.86-1.53-3.53a3.78,3.78,0,0,0-2.21-.2c-1.07.11-2.15.22-3.23.31-2.1.19-4.2.37-6.31.45-4.11.18-8.22.24-12.33.26-8.29,0-16.57,0-24.85-.07-16.76-.05-33.52,0-50.27.07s-33.31,0-50,.26l-6.24.07a1,1,0,0,0,0,1.9L62.74,67c16.55-.18,33.1-.19,49.65-.23s32.88.19,49.29-.67c1,0,2-.12,3.08-.19l1.53-.11a3.5,3.5,0,0,1,1.33,0c.66.22.77,1,.82,1.63.07.92,0,1.86,0,2.79q0,6.23,0,12.45,0,12.31-.16,24.61c-.11,8.3-.32,16.61-.56,24.91q-.18,6.23-.38,12.45l-.21,6.07c-.07,1.9-.19,3.81-.08,5.71a12.11,12.11,0,0,0,1.19,4.84l.7-1.2c-8,.12-16-.06-24-.07s-16,0-24,0c-16,0-32,.15-48.06.21s-32,0-48.06.07c-2,0-3.95,0-5.93-.12-.65,0-1.46.08-1.83-.56a3.91,3.91,0,0,1-.29-2c.06-4,.2-8,.25-11.94.08-8,0-16,0-24-.08-16-.31-32-1-48q-.12-3-.25-5.92c-.05-1.11-1.79-1.13-1.74,0Z" transform="translate(-12.18 -23.63)"/><path class="cls-6" d="M33.36,102.65a15,15,0,0,1,5-9.94,14.61,14.61,0,0,1,17-1.38,33.27,33.27,0,0,1,4.94,4.08c3,2.72,6.66,5.64,11,5.14,2.14-.25,3.89-1.43,5.74-2.43a19.35,19.35,0,0,1,4.82-1.81A22.18,22.18,0,0,1,92,96.39a21.56,21.56,0,0,1,9.08,4.62,25.33,25.33,0,0,1,6.41,9.74c1.69,4.11,3,8.33,5,12.34a65.39,65.39,0,0,0,3.29,6c1.19,1.91,2.57,3.68,3.78,5.58,1,1.62,1.87,3.53,1.08,5.43a8.4,8.4,0,0,1-3.75,3.68,30.9,30.9,0,0,1-13,3.78c-8.63.6-17-2.08-25.2-4.24a86.64,86.64,0,0,0-12.55-2.53,40.17,40.17,0,0,0-6.3-.2,63.42,63.42,0,0,0-6.87.82c-4.43.7-8.9,1.13-13.13-.65a15.33,15.33,0,0,1-8.25-8,14.33,14.33,0,0,1,.29-11.8,39,39,0,0,0,2.64-5.77,14.25,14.25,0,0,0,0-6.43c-.19-1.07-.41-2.13-.56-3.21a13.71,13.71,0,0,1-.22-3.38c.07-.64-.93-.64-1,0a14.06,14.06,0,0,0,0,3.49c.15,1.15.38,2.29.57,3.44a12.31,12.31,0,0,1-.44,6.83c-.8,2-2,3.85-2.8,5.88a14.76,14.76,0,0,0-.9,6.14,16.16,16.16,0,0,0,5.16,10.8,17.74,17.74,0,0,0,11,4.58c5,.26,9.75-1.41,14.67-1.61a50.16,50.16,0,0,1,13.13,1.47c8.67,2,17.12,5.24,26.06,5.81a35.84,35.84,0,0,0,13.68-1.72c3.64-1.22,8.36-3.12,9.66-7.13a7.42,7.42,0,0,0-1-6c-1.16-2-2.62-3.8-3.85-5.76a71.55,71.55,0,0,1-6.21-12.56c-1.61-4.2-3.12-8.55-5.8-12.23a22.18,22.18,0,0,0-8.26-6.9,23.57,23.57,0,0,0-20.83-.1c-1.89,1-3.67,2.41-5.87,2.53a10.45,10.45,0,0,1-6.16-2c-3.66-2.4-6.37-6-10.5-7.73a15.93,15.93,0,0,0-12,0,15.58,15.58,0,0,0-8.13,7.91,15.79,15.79,0,0,0-1.39,5.35c0,.63.94.63,1,0Z" transform="translate(-12.18 -23.63)"/><path class="cls-2" d="M25.45,89.42h-.06a.76.76,0,0,0-.67.39.91.91,0,0,0,1.55.94,3.1,3.1,0,0,0,.3-1.42c.06-.56.1-1.12.14-1.68.14-2.1.09-4.49,1.3-6.31l-1.21-.16a16.88,16.88,0,0,0,1.13,3.07c.4.94.82,1.88,1.27,2.8.88,1.84,1.76,4,3.25,5.4a.6.6,0,0,0,1-.58c-.55-2-1.83-3.76-2.75-5.57-.47-.91-.91-1.83-1.34-2.76A26.52,26.52,0,0,0,28,80.7c-.24-.38-.93-.49-1.14,0a15.88,15.88,0,0,0-1.24,4.53c-.11.8-.18,1.61-.26,2.42,0,.38-.08.76-.13,1.13,0,.19-.06.37-.1.55s0,.25-.07.37-.06.23,0,.08l.58-.08-.08,0,.46.35,0,0-.07.57,0-.07-.66.39h.07a.79.79,0,0,0,.76-.76.77.77,0,0,0-.76-.77Z" transform="translate(-12.18 -23.63)"/><path class="cls-2" d="M27.18,89.23l1.76-.3c.29-.06.58-.11.87-.19l.39-.1a5.45,5.45,0,0,0,.55-.25.69.69,0,0,0,.33-.68.68.68,0,0,0-.49-.57c-.19,0-.4-.08-.58-.09H29.6c-.31,0-.62,0-.92.07-.67.06-1.33.15-2,.23a1,1,0,0,0-.59.46,1,1,0,0,0-.1.72,1,1,0,0,0,1.18.69Z" transform="translate(-12.18 -23.63)"/><path class="cls-2" d="M91.19,78.4c-6.22-.88-12.34,4.48-12,10.84.17,3.27,1.74,6.23,3.12,9.13s2.68,5.94,2.15,9.16-2.32,5.87-3.8,8.62-2.75,5.82-2.47,9.06c.57,6.69,6.35,11.83,12.15,14.37a25.25,25.25,0,0,0,11.09,2.25,23.49,23.49,0,0,0,10.28-3c3-1.64,6-3.64,9.17-4.95a17.82,17.82,0,0,1,4.81-1.23c1.7-.19,3.4-.23,5.1-.38,3.25-.3,6.5-1.11,8.57-3.85s2.7-6.79,2.87-10.28a23.38,23.38,0,0,0-2-11.13,28.57,28.57,0,0,0-5.94-8.15c-5.45-5.38-12.37-8.81-18.91-12.64-1.72-1-3.42-2-5.07-3.15a51.42,51.42,0,0,0-4.82-3.18A20.93,20.93,0,0,0,93.94,78a24.47,24.47,0,0,0-5.81,1.18c-.54.19-.34,1,.23.88a26.35,26.35,0,0,1,11.8-.82,15.63,15.63,0,0,1,5.28,2c1.59,1,3.07,2.09,4.61,3.14,6.23,4.25,13.27,7.27,19.27,11.87,5.14,4,9.68,9.15,11,15.67a27,27,0,0,1-.38,11.29,10.75,10.75,0,0,1-1.95,4.39,7.45,7.45,0,0,1-3.76,2.37c-3.06.87-6.3.58-9.43,1a25.53,25.53,0,0,0-9.21,3.41,57.14,57.14,0,0,1-8.6,4.49,20.39,20.39,0,0,1-10.48.76c-6.3-1.15-12.9-4.63-15.83-10.6a11,11,0,0,1-.42-8.75c1-2.84,2.77-5.33,4.08-8a13.53,13.53,0,0,0,1.49-8.72c-.61-3-2.27-5.76-3.57-8.55s-2.16-5.75-1.17-8.69a10.35,10.35,0,0,1,5.84-6.06,8.59,8.59,0,0,1,4.1-.59c.68.06.85-1.1.16-1.19Z" transform="translate(-12.18 -23.63)"/><path class="cls-2" d="M129.43,80.34a28.17,28.17,0,0,0,0,4.5c.06.72.15,1.45.27,2.17s.13,1.66.69,2a.41.41,0,0,0,.54-.14,1.29,1.29,0,0,0,.05-.95c-.06-.36-.14-.73-.2-1.09q-.18-1.05-.27-2.13a27.22,27.22,0,0,1,0-4.33c.05-.69-1-.69-1.07,0Z" transform="translate(-12.18 -23.63)"/><path class="cls-2" d="M130.64,80.87a17.77,17.77,0,0,1,2.73,0,6.69,6.69,0,0,1,1.25.16c.22,0,.51.12.32.38a3.36,3.36,0,0,1-.86.68c-.35.23-.7.45-1.07.66a21.61,21.61,0,0,1-2.32,1.13c-.45.19-.23.8.12.93.9.34,1.78.69,2.66,1.06a11.5,11.5,0,0,1,1.14.49c.33.17.59.36.3.7a3.76,3.76,0,0,1-1.83,1,17.07,17.07,0,0,1-2.24.19c-.44.06-.44.68-.12.87a3.55,3.55,0,0,0,2.89,0A4.28,4.28,0,0,0,136,87.33c.49-1-.45-1.71-1.28-2-1.16-.47-2.32-.92-3.47-1.42l-.12.93A14.43,14.43,0,0,0,134,83.4a15.1,15.1,0,0,0,1.33-.93,1.69,1.69,0,0,0,.74-1.18c0-1-1-1.27-1.8-1.37a16.76,16.76,0,0,0-3.61,0c-.64.06-.65,1.06,0,1Z" transform="translate(-12.18 -23.63)"/><path class="cls-2" d="M270.36,81.07a28,28,0,0,0,0,4.49c.07.73.16,1.46.27,2.18s.14,1.65.7,2a.4.4,0,0,0,.54-.15,1.29,1.29,0,0,0,.05-.95c-.06-.36-.14-.72-.2-1.08q-.18-1.07-.27-2.13a27.33,27.33,0,0,1,0-4.34c.05-.69-1-.68-1.07,0Z" transform="translate(-12.18 -23.63)"/><path class="cls-2" d="M271.57,81.6a16.59,16.59,0,0,1,2.73,0,7.38,7.38,0,0,1,1.24.16c.23.06.52.12.33.38a3.15,3.15,0,0,1-.86.68c-.35.24-.71.46-1.07.66a19.88,19.88,0,0,1-2.32,1.13c-.46.19-.23.8.12.94.9.33,1.78.69,2.66,1,.38.16.78.3,1.14.49s.59.36.3.7A3.77,3.77,0,0,1,274,88.83a19,19,0,0,1-2.25.18c-.43.06-.43.68-.11.88a3.59,3.59,0,0,0,2.89,0,4.2,4.2,0,0,0,2.34-1.81c.49-1-.46-1.7-1.28-2-1.16-.46-2.33-.92-3.47-1.42l-.13.94a14.3,14.3,0,0,0,2.92-1.41,13.52,13.52,0,0,0,1.32-.92A1.69,1.69,0,0,0,277,82c0-1-1-1.27-1.8-1.37a16.85,16.85,0,0,0-3.62-.05c-.63.06-.64,1.05,0,1Z" transform="translate(-12.18 -23.63)"/><path class="cls-6" d="M21.72,51a6.6,6.6,0,0,0-3.61,1.52,1.93,1.93,0,0,0-.79,1.73c.13.7.73,1,1.31,1.27,1.09.53,2.38,1.28,2.77,2.51a1.65,1.65,0,0,1-1.22,2.32c-1.26.16-2.36-.63-3.54-.88a.56.56,0,0,0-.54.93,5.37,5.37,0,0,0,3.36,1.34,3,3,0,0,0,2.88-1.43A3.47,3.47,0,0,0,22,56.79a9.46,9.46,0,0,0-3.16-2.44c-.34-.2-.35-.35-.09-.66A3.44,3.44,0,0,1,19.6,53a5.19,5.19,0,0,1,2.12-.75.62.62,0,0,0,.6-.61.6.6,0,0,0-.6-.61Z" transform="translate(-12.18 -23.63)"/><path class="cls-6" d="M224.38,96.29a22.16,22.16,0,0,1,18.74,4.42c6,5,7.63,13,10.61,19.9a57,57,0,0,0,7,12.23c.64.82,2-.26,1.45-1.13-1.18-1.81-2.4-3.58-3.48-5.46s-2-3.72-2.93-5.64c-1.73-3.74-3-7.67-4.65-11.42a26.1,26.1,0,0,0-6.48-9.25,23.68,23.68,0,0,0-9.06-4.81,24.1,24.1,0,0,0-11.6-.37c-1,.22-.59,1.75.4,1.53Z" transform="translate(-12.18 -23.63)"/><path class="cls-2" d="M233.62,78.4c-6.23-.88-12.34,4.48-12,10.84.17,3.27,1.74,6.23,3.12,9.13s2.68,5.94,2.15,9.16-2.32,5.87-3.8,8.62-2.75,5.82-2.48,9.06c.57,6.69,6.35,11.83,12.16,14.37a25.25,25.25,0,0,0,11.09,2.25,23.41,23.41,0,0,0,10.27-3c3.06-1.64,6-3.64,9.18-4.95a17.82,17.82,0,0,1,4.81-1.23c1.7-.19,3.4-.23,5.1-.38,3.25-.3,6.5-1.11,8.57-3.85s2.7-6.79,2.87-10.28a23.27,23.27,0,0,0-2-11.13,28.34,28.34,0,0,0-5.93-8.15c-5.45-5.38-12.37-8.81-18.91-12.64-1.72-1-3.43-2-5.07-3.15a52.76,52.76,0,0,0-4.82-3.18A20.93,20.93,0,0,0,236.37,78a24.47,24.47,0,0,0-5.81,1.18.46.46,0,0,0,.23.88,26.34,26.34,0,0,1,11.8-.82,15.63,15.63,0,0,1,5.28,2c1.59,1,3.07,2.09,4.6,3.14,6.24,4.25,13.28,7.27,19.28,11.87,5.14,4,9.68,9.15,11,15.67a26.88,26.88,0,0,1-.37,11.29,10.75,10.75,0,0,1-1.95,4.39,7.45,7.45,0,0,1-3.76,2.37c-3.06.87-6.3.58-9.43,1a25.46,25.46,0,0,0-9.21,3.41,57.62,57.62,0,0,1-8.6,4.49,20.39,20.39,0,0,1-10.48.76c-6.3-1.15-12.91-4.63-15.83-10.6a11,11,0,0,1-.43-8.75c1-2.84,2.77-5.33,4.09-8a13.59,13.59,0,0,0,1.49-8.72c-.61-3-2.28-5.76-3.57-8.55s-2.16-5.75-1.18-8.69a10.4,10.4,0,0,1,5.85-6.06,8.57,8.57,0,0,1,4.1-.59c.68.06.85-1.1.16-1.19Z" transform="translate(-12.18 -23.63)"/><path class="cls-6" d="M131,142.72a189.68,189.68,0,0,0,1.33,19.06,74.84,74.84,0,0,0,4.43,18.32c2,5,5,11.14,10.38,13.23,3,1.14,6.13.36,9-.83a75,75,0,0,0,7.77-4c4.77-2.67,10.06-5.5,15.71-4.35A26.12,26.12,0,0,1,188,188a86.69,86.69,0,0,0,8,4.54A40.29,40.29,0,0,0,213.28,197a24.83,24.83,0,0,0,15.93-5.61c9.81-8.08,12.18-21.5,12.95-33.47.11-1.64.19-3.28.26-4.92.05-1.15-1.69-1.14-1.78,0-.92,11.95-1.66,25.06-10.08,34.44A22.76,22.76,0,0,1,216.45,195c-5.71.74-11.58-.54-16.88-2.64a53.76,53.76,0,0,1-8-3.94,82.53,82.53,0,0,0-7.75-4.58,16.19,16.19,0,0,0-8.46-1.64,23.33,23.33,0,0,0-7.64,2.32c-2.52,1.18-4.91,2.62-7.34,4a30.34,30.34,0,0,1-8.13,3.55c-6.12,1.33-9.91-4.31-12.33-9a59.58,59.58,0,0,1-5.54-17.15,162,162,0,0,1-1.7-18.52c-.08-1.53-.15-3.05-.22-4.58,0-.95-1.51-1-1.48,0Z" transform="translate(-12.18 -23.63)"/><path class="cls-6" d="M240.8,152.05c-.7.7-1.41,1.38-2.11,2.07l-1,1-.55.52a2,2,0,0,0-.24.26,1.08,1.08,0,0,0-.25.6c-.05.36.33.62.64.64.52.05,1-.48,1.41-.78s.86-.66,1.28-1a27.33,27.33,0,0,0,2.16-2,.92.92,0,1,0-1.31-1.3Z" transform="translate(-12.18 -23.63)"/><path class="cls-6" d="M241,153.7a21.74,21.74,0,0,0,1.39,2.38c.29.42.59.83.91,1.23a5.17,5.17,0,0,0,.42.51,2.37,2.37,0,0,0,.38.33,1.3,1.3,0,0,0,.46.18.75.75,0,0,0,.74-.2.79.79,0,0,0,.2-.73,2.87,2.87,0,0,0-.83-1.37l-.21-.28-.1-.12c-.09-.11.1.13,0,0l-.41-.57a21.4,21.4,0,0,1-1.41-2.27.89.89,0,0,0-1.55.89Z" transform="translate(-12.18 -23.63)"/><path class="cls-2" d="M117.1,203.46c-.14,1.6-.3,3.2-.47,4.8q-.12,1.2-.27,2.4a8,8,0,0,0-.13,2.43.87.87,0,0,0,1.59.21,7.73,7.73,0,0,0,.42-2.45c.07-.83.15-1.66.22-2.49q.2-2.45.36-4.89a.86.86,0,0,0-1.72,0Z" transform="translate(-12.18 -23.63)"/><path class="cls-2" d="M118.3,204.89a1.7,1.7,0,0,1,1.62-.21c.42.14,1.09.46,1.12,1a2.09,2.09,0,0,1-1,1.5,14.47,14.47,0,0,1-2.14,1.2.93.93,0,0,0,0,1.61c.77.48,1.58.25,2.42.33a2.62,2.62,0,0,1,1.12.35c.3.18.5.29.29.63a4,4,0,0,1-1.82,1.35,3.43,3.43,0,0,1-1.08.27c-.32,0-.39-.24-.61-.45a.78.78,0,0,0-1.2.17,1.35,1.35,0,0,0,.57,1.86,2.57,2.57,0,0,0,2,.17,6,6,0,0,0,3.19-2,2.39,2.39,0,0,0,.64-1.86,2.13,2.13,0,0,0-1.14-1.46,5,5,0,0,0-1.74-.63,6.22,6.22,0,0,0-1-.08l-.38,0a.45.45,0,0,1-.16,0c.09.06.08,0,0-.07l-.42,1.56a8.41,8.41,0,0,0,3.06-1.78,3.41,3.41,0,0,0,1.08-3.33c-.71-2.22-4.08-2.76-5.65-1.18-.75.75.38,1.83,1.16,1.14Z" transform="translate(-12.18 -23.63)"/><path class="cls-2" d="M132.06,204.57l.09,4.1,0,2c0,.32,0,.64,0,1,0,.16,0,.33,0,.49s0,.26,0,.4.05.2,0-.1a.84.84,0,0,0,1,1c.92-.2.8-1.26.77-2s-.07-1.55-.11-2.33l-.22-4.59c-.05-1.09-1.74-1.11-1.71,0Z" transform="translate(-12.18 -23.63)"/><path class="cls-2" d="M133.55,209.58a1.09,1.09,0,0,1,.27-.31l0,0,.1-.07.28-.15c-.09.05,0,0,0,0l.11,0a1.14,1.14,0,0,1,.25-.06l.12,0c-.12,0,0,0,0,0h.44s-.14,0,0,0l.25.06.12,0s-.14-.07,0,0l.25.13.13.09s-.12-.1,0,0l.19.17.08.1c.06.07.07,0,0,0,.06,0,.12.18.15.24a2.53,2.53,0,0,1,.12.23c.06.11,0-.16,0,0s0,.08,0,.12a1.05,1.05,0,0,1,.06.24s0,.17,0,0,0,0,0,.07a.86.86,0,0,1,0,.16s0,.17,0,0,0,.14,0,.17,0,.08,0,.12.08-.15,0,0l-.14.25-.07.11s.12-.14,0,0l-.18.18-.09.08s.17-.12.05,0l-.27.16c-.07,0-.11,0,.07,0l-.11,0-.12,0c-.15,0,0,0,.06,0s-.24,0-.24,0h.05l-.22,0-.15-.05-.1,0-.14-.06-.25-.1a3.79,3.79,0,0,0-.81-.18c-.56-.05-1.46.26-1.41,1a.53.53,0,0,0,.27.47,1.14,1.14,0,0,0,.44.11h.12s.23,0,.07,0l.26.08s.23.1.06,0l.19.11a3.78,3.78,0,0,0,1.61.62,2.8,2.8,0,0,0,2.58-1.62,3,3,0,0,0-.2-3,3.12,3.12,0,0,0-2.63-1.4,3.25,3.25,0,0,0-2.6,1.58.56.56,0,0,0,.21.75.56.56,0,0,0,.76-.2Z" transform="translate(-12.18 -23.63)"/><path class="cls-2" d="M139.07,211.47a4.24,4.24,0,0,0,1.94.47,2.11,2.11,0,0,0,1.69-.9,1.93,1.93,0,0,0-2.58-2.72,2.25,2.25,0,0,0-1.07,1.43,3.92,3.92,0,0,0,2.13,4.66,3.68,3.68,0,0,0,1.08.29,2.13,2.13,0,0,0,1-.13.69.69,0,0,0,0-1.34c-.17,0-.33-.09-.5-.13s-.4-.07-.6-.14l-.25-.1c-.13,0,.11.06,0,0l-.11-.05a1.82,1.82,0,0,1-.27-.15s-.27-.18-.14-.08a3.51,3.51,0,0,1-.4-.37l-.1-.12s.08.13,0,0-.12-.18-.17-.27a2,2,0,0,1-.13-.25c0-.12,0,.11,0,0a.49.49,0,0,1,0-.11,1.58,1.58,0,0,1-.09-.31.43.43,0,0,1,0-.11s0-.18,0-.08a2.51,2.51,0,0,1,.1-1.07,1,1,0,0,1,.17-.29.48.48,0,0,1,.28-.16.59.59,0,0,1,.58.12s.08.09,0,0a.41.41,0,0,1,0,.09l.05.07s0,0,0,0,0,.18,0,.07,0,.06,0,.09-.06.14,0,.06l-.06.11c0-.06,0,0,0,0h0a.78.78,0,0,1-.15.1l-.1.05s-.19.08-.1,0l-.08,0-.18,0s.11,0,0,0h-.22a.8.8,0,0,1-.24,0,3.5,3.5,0,0,1-.67-.23.81.81,0,0,0-1.08.29.8.8,0,0,0,.3,1.08Z" transform="translate(-12.18 -23.63)"/><path class="cls-2" d="M148,208.11a3.11,3.11,0,0,0-3.11,3,3.38,3.38,0,0,0,.87,2.26,3.13,3.13,0,0,0,2.22,1,2.36,2.36,0,0,0,2.36-1.46.65.65,0,0,0-.78-.79l-.72.23c-.12,0-.25.06-.38.09l-.18,0c-.1,0,.08,0,.08,0h-.52s-.07,0-.09,0h.08l-.21,0-.17-.06c-.15,0,.15.08,0,0l-.16-.09-.08-.05c-.11-.07,0,0,0,0a.73.73,0,0,0-.16-.14l-.12-.13a.22.22,0,0,0-.06-.07s.1.15,0,.06l-.12-.18a1.74,1.74,0,0,0-.1-.19l0,.07a.26.26,0,0,0,0-.08c0-.13-.07-.26-.1-.39s0,.15,0-.05a1.28,1.28,0,0,1,0-.19s0-.22,0-.11,0,0,0,0l0-.15.06-.18,0,.06s0-.08,0-.09.14-.25.22-.37,0,0,0,0l.08-.1.15-.15s.18-.15,0,0a1.53,1.53,0,0,1,.21-.14l.18-.1.09,0c-.06,0-.09,0,0,0l.23-.06.09,0c.11,0-.15,0,0,0a.71.71,0,0,0,.7-.69.7.7,0,0,0-.7-.7Z" transform="translate(-12.18 -23.63)"/><path class="cls-2" d="M151.6,208.63a4.38,4.38,0,0,0-.44,3.53,3.2,3.2,0,0,0,2.67,2.18,2.09,2.09,0,0,0,1.74-.69,2.24,2.24,0,0,0,.42-1.89,4.29,4.29,0,0,0-.66-1.48,14,14,0,0,0-1.11-1.51,1.52,1.52,0,0,0-2.31-.12,1.88,1.88,0,0,0-.11,2.3.62.62,0,0,0,1.11-.15,4.82,4.82,0,0,0,.13-.57s0-.1,0-.15c.06-.2,0,0,0,0l0,0-.07.09.06-.07-.07.06.1-.06s-.23.07-.07,0c0,0-.23,0-.08,0a.67.67,0,0,1-.24-.07c.12.07,0-.05,0-.05l.1.09.21.24a2.43,2.43,0,0,0,.2.25c.09.12-.1-.13,0,0l.09.13c.15.19.28.39.42.59s.19.3.28.46a2.56,2.56,0,0,1,.11.24c.06.11-.06-.18,0-.06a.88.88,0,0,0,0,.15l.06.24c0,.16,0,0,0-.06a.48.48,0,0,0,0,.12s0,.11,0,.11,0-.18,0-.06,0-.06,0-.06a.25.25,0,0,1,0,.07l.06-.08s-.09.1-.09.09.2-.14.05,0,0-.05.08,0l-.12,0-.12,0s.22,0,.06,0H154c-.17,0,.14,0,0,0l-.24-.06c-.22-.06.16.09-.05,0l-.21-.12s-.12-.11,0,0l0,0a1.37,1.37,0,0,1-.17-.17s-.07-.09-.08-.09.12.17,0,.06-.1-.15-.14-.23l-.06-.11c-.07-.14,0,0,0,0,0-.1-.07-.19-.1-.29l0-.13s0-.23,0-.09,0,0,0-.06v-.18c0-.08,0-.3,0-.36s0,.21,0,0l0-.18c0-.11,0-.21.09-.32a1.21,1.21,0,0,1,0-.14v-.05a1.37,1.37,0,0,1,.16-.32.95.95,0,1,0-1.64-.94Z" transform="translate(-12.18 -23.63)"/><path class="cls-2" d="M156.62,212.8a6.15,6.15,0,0,1,.13,1l1.4-.37a3.78,3.78,0,0,1-.42-1.62,3.41,3.41,0,0,1,.06-.85c0-.09.05-.18.08-.28s0-.11,0,0a1.51,1.51,0,0,1,.11-.22l0-.06c0,.05,0,.05,0,0s0,0,0,0l0,0c-.12,0,0,0,0,0s-.15-.1,0,0c-.1-.09.06.05,0,0l.09.09c.12.1,0,0,0,0s.07.13.1.19a.51.51,0,1,0,0,.05,4,4,0,0,1,.09.48c0,.06,0,.06,0,0v.1c0,.13,0,.25.05.38a4,4,0,0,0,.31,1.13.94.94,0,0,0,1.05.44,1,1,0,0,0,.7-.9,14.44,14.44,0,0,1-.08-2c0,.07,0-.13,0-.13a.94.94,0,0,1,0-.16q0,.1,0,0c0-.06,0-.05,0,0a.57.57,0,0,1-.13.08s-.2,0-.11,0,.06,0,0,0l.08,0c.13.08,0,0,.06,0l.17.16.11.13c-.09-.11,0,0,.05.07s.18.26.26.4a6.89,6.89,0,0,1,.43.8s.1.24.07.15,0,.13.05.15a4,4,0,0,1,.15.45c.09.31.17.62.25.93a.92.92,0,0,0,1,.67.91.91,0,0,0,.8-.9,6.4,6.4,0,0,0-.77-2.56,5,5,0,0,0-1.69-2.05,1.64,1.64,0,0,0-1.55-.1,1.53,1.53,0,0,0-.82,1.09,10.87,10.87,0,0,0-.06,1.28c0,.48-.13,1-.17,1.44l1.74-.46c-.05-.11-.06-.12,0,0a.74.74,0,0,1,0-.14,2,2,0,0,1-.08-.33c0-.2-.07-.39-.1-.59a2.9,2.9,0,0,0-.5-1.2,1.75,1.75,0,0,0-2.63-.45,3.48,3.48,0,0,0-.81,2.41,5.07,5.07,0,0,0,.66,2.63.76.76,0,0,0,1.38-.57,7.27,7.27,0,0,1-.26-1.23.7.7,0,0,0-.85-.5.72.72,0,0,0-.5.86Z" transform="translate(-12.18 -23.63)"/><path class="cls-2" d="M164.78,212.77a7.66,7.66,0,0,0,2.35.15,3.08,3.08,0,0,0,1.71-.79,2.36,2.36,0,0,0,.1-3.39,2.13,2.13,0,0,0-2.12-.42,3.27,3.27,0,0,0-1.69,1.42,3,3,0,0,0-.52,2.27,4.74,4.74,0,0,0,1,1.94,2.28,2.28,0,0,0,2.38.73,8.24,8.24,0,0,0,1.95-1.07.72.72,0,0,0-.35-1.33,3.64,3.64,0,0,0-1.52.32,3.69,3.69,0,0,1-.65.18c-.21,0,0,0,0,0h-.14c-.22,0,.12.05,0,0s-.25-.09-.13,0,0,0,0,0,.13.16,0,0-.11-.1-.1-.11l0,0c-.14-.21-.29-.42-.41-.63s-.17-.24-.17-.32.07.22,0,0,0-.1-.05-.15,0,0,0,0a.74.74,0,0,1,0-.21c0-.12-.06.18,0,0s.05-.14.06-.2-.1.18,0,0l.08-.15.15-.27.11-.16s.11-.15,0-.05l.07-.08.16-.16.11-.1s-.2.13,0,0l.13-.07c.18-.12-.12,0,0,0l.15,0c.1-.05-.19,0,0,0h.15c-.16,0,0,0,.06,0s-.17-.09,0,0,0,0,0,0l.08.07c.14.11-.06-.13,0,0l.07.12c.08.12-.06,0,0-.06s.11.25.07.29,0-.23,0-.05v.12c0,.18,0-.13,0,0a.61.61,0,0,0,0,.11c0,.06,0,.2,0,0a.67.67,0,0,1-.06.12.75.75,0,0,0-.07.12c-.11.18.11-.11,0,0a.47.47,0,0,1-.1.1s-.17.19,0,0a2.08,2.08,0,0,1-.29.19l-.12.06c-.07,0-.19.07-.05,0a1.8,1.8,0,0,1-.33.1l-.21,0H166a7.53,7.53,0,0,1-.83-.08.75.75,0,0,0-.38,1.45Z" transform="translate(-12.18 -23.63)"/><path class="cls-2" d="M175.23,207.66a3.43,3.43,0,0,0-2.77,1.29,1,1,0,0,0-.26.8,1,1,0,0,0,.47.74l1.91,1.27.47.32c.15.1-.08-.07,0,0l.15.12s.16.12.16.16c0-.29-.09.06,0,0s-.1-.22,0,0,0,0,0-.07c0,.09,0,.1,0,0s0-.07,0,0l0-.1a1.86,1.86,0,0,1-.11.19s.13-.15,0,0-.21.19-.1.1l-.09.06-.2.11s-.26.12-.07.05l-.22.07-.22.05c.19,0-.07,0-.11,0,.15,0,0,0-.06,0l.1,0-.09-.05-.15-.1c.1.07.12.09.07,0s0,0,.05.07c-.05-.08-.05-.08,0,0s0,.07-.08-.17a.89.89,0,0,0-.37-.35.85.85,0,0,0-1,.14c-.55.48-.25,1.38.19,1.83a2,2,0,0,0,1.54.57,3.33,3.33,0,0,0,2.65-1.56,2,2,0,0,0,.06-1.76,2.91,2.91,0,0,0-1-1.09c-.81-.59-1.67-1.12-2.5-1.68l.36,1.34c-.14.19.05,0,.08-.07s.21-.2.1-.1.13-.09.16-.11l.21-.11c.22-.12-.19.05.05,0l.23-.07c.08,0,.23,0,.06,0h.32a1,1,0,0,0,1-1,1,1,0,0,0-1-1Z" transform="translate(-12.18 -23.63)"/><path class="cls-2" d="M184.13,209.39c0,.82.13,1.63.24,2.44a6.33,6.33,0,0,0,.23,1.15c.16.46.49,1.05,1.05,1.06s.81-.74.82-1.21a8.6,8.6,0,0,0-.16-1.34l0-.23c0-.12,0-.11,0,0,0-.06,0-.11,0-.16l-.06-.55c0-.39-.06-.78-.08-1.17a1,1,0,0,0-1-1,1,1,0,0,0-1,1Z" transform="translate(-12.18 -23.63)"/><path class="cls-2" d="M185.37,206.71a2,2,0,0,0,.15-.41.13.13,0,0,0,0-.06.91.91,0,0,0,0-.23,1.51,1.51,0,0,0,0-.3,1.62,1.62,0,0,0-.11-.28.82.82,0,0,0-.16-.22l0,0a1.09,1.09,0,0,0-.17-.13,1.28,1.28,0,0,0-.24-.11l.17.07-.22-.09-.05,0h-.11a.31.31,0,0,0-.19,0,.25.25,0,0,0-.12,0h0a1.21,1.21,0,0,0-.2.09h0a.79.79,0,0,0-.15.12.88.88,0,0,0-.12.15,1.22,1.22,0,0,0-.07.17l0,.18,0,.19h0s.06.16.07.17h0l.06.07a.34.34,0,0,0,.12.12.29.29,0,0,0,.14.08l.08,0h0l-.16-.07.1,0a.34.34,0,0,0,.17,0h.1l.18,0,.19-.08-.18.07h0l-.19,0h.05a.93.93,0,0,0,.23,0l-.19,0h.08l-.18,0h0l-.17-.07.08.05-.15-.12.06.05-.12-.15a.3.3,0,0,1,0,.08l-.07-.18,0,.11,0-.18a1,1,0,0,1,0,.17l0-.18a1.47,1.47,0,0,1-.08.28.57.57,0,0,0,0,.26.61.61,0,0,0,.08.26l.12.15a.52.52,0,0,0,.22.14.48.48,0,0,0,.17.05.62.62,0,0,0,.27,0l.17-.07a.6.6,0,0,0,.25-.25Z" transform="translate(-12.18 -23.63)"/><path class="cls-2" d="M188.39,205.38l.72,4.14.35,2a6.06,6.06,0,0,0,.52,2.16.93.93,0,0,0,1.67-.22,5.92,5.92,0,0,0-.23-2.28l-.37-2.11-.73-4.22a1,1,0,1,0-1.93.5Z" transform="translate(-12.18 -23.63)"/><path class="cls-2" d="M187.78,210.71a11.94,11.94,0,0,0,2.31.19,6.43,6.43,0,0,0,1.24-.12,2.36,2.36,0,0,0,1.22-.53.77.77,0,0,0,.2-.75.8.8,0,0,0-.55-.56,3.13,3.13,0,0,0-1.1-.07c-.34,0-.67,0-1,0s-.66,0-1,0l-.46,0c-.23,0,.15,0-.05,0l-.3-.05a1.05,1.05,0,0,0-.76.1,1,1,0,0,0,.24,1.82Z" transform="translate(-12.18 -23.63)"/><path class="cls-2" d="M196.11,206.86c-.12.12.2-.12-.05,0l-.24.13a3.56,3.56,0,0,0-.61.4,1.5,1.5,0,0,0-.49,1.56,2.3,2.3,0,0,0,1.08,1.18l.28.18c-.14-.1.12.11.14.13s.16.17.24.25.07.09,0,0l.09.15a1.43,1.43,0,0,1,.16.3c-.08-.2,0,.13,0,.17l0,.17c0-.11,0-.11,0,0s0,.36,0,.16c0,.1-.05.2-.08.31.05-.16,0,0,0,.06l-.09.14h0s-.29.25-.08.1l-.14.09c-.1.05-.09.05,0,0,0,0-.22.06-.28.07.27,0,0,0-.1,0h-.14c.13,0,.14,0,0,0l-.27-.07c-.09,0-.08,0,0,0l-.12-.06c-.08-.05-.07-.05,0,0l-.1-.09a2.7,2.7,0,0,0-.31-.2.66.66,0,0,0-.95.39c-.25.93.7,1.77,1.53,1.92a2.42,2.42,0,0,0,2.5-1.18,3,3,0,0,0,.13-2.77,4.1,4.1,0,0,0-1.83-1.85l0,0c.11.08-.11-.09,0,0s0,0,0,0a.43.43,0,0,1,0,.25.58.58,0,0,1-.06.17c.08-.15-.12.12,0,0s-.09.06-.09.06.08-.06.1-.07a5.77,5.77,0,0,0,1.08-.68,1,1,0,0,0-1.42-1.4Z" transform="translate(-12.18 -23.63)"/><path class="cls-2" d="M207.1,208.26a3.62,3.62,0,0,0-.14,3.55,3.7,3.7,0,0,0,2.92,1.9,2.72,2.72,0,0,0,2-.59,2.64,2.64,0,0,0,.87-1.43,3.2,3.2,0,0,0-.94-3.11,3,3,0,0,0-2.94-.75,1.61,1.61,0,0,0-1.2,1.43.8.8,0,0,0,.78.82,1,1,0,0,0,.64-.28s.18-.16,0,0a1.84,1.84,0,0,0,.3-.24s-.2.13-.08.06l.13-.07a.54.54,0,0,0,.13-.07c-.11.1-.17.07-.08,0a1,1,0,0,0,.3-.08c-.1.07-.17,0,0,0h.19a.86.86,0,0,0,.16,0c-.06,0-.19,0,0,0a1.91,1.91,0,0,1,.28.07l-.1,0,.12.06.11.06.16.09.11.07c-.09-.06-.1-.07,0,0l.23.22c.15.14-.09-.15,0,0l.07.11a.86.86,0,0,1,.1.16s.13.21,0,0a1.61,1.61,0,0,1,.1.36c0,.19,0-.15,0,0a.76.76,0,0,1,0,.15c0,.06,0,.18,0,0a.58.58,0,0,1,0,.18.58.58,0,0,1-.06.17s.09-.16,0,0l-.09.16-.07.1,0,0-.08.09-.09.08c-.08.07-.06,0,.06,0a3.07,3.07,0,0,0-.34.19l-.06,0c-.1.05-.09,0,0,0,0,0-.19.06-.24.07s-.22.05,0,0a1.31,1.31,0,0,1-.28,0,.79.79,0,0,1-.22,0l.11,0-.13,0a3.45,3.45,0,0,1-.4-.11c-.12,0,.2.1,0,0l-.23-.12-.13-.08c-.2-.13.09.09,0,0a3.45,3.45,0,0,1-.28-.26s-.19-.18,0,0a1.28,1.28,0,0,1-.14-.21.75.75,0,0,1-.07-.12s-.17-.29,0-.09a1.33,1.33,0,0,1-.12-.4s0-.26,0,0a2.72,2.72,0,0,1,0-.28v-.14s0-.32,0-.13a3,3,0,0,1,.09-.41s.1-.23,0-.06a1.92,1.92,0,0,1,.12-.25.81.81,0,0,0-.3-1.1.82.82,0,0,0-1.1.3Z" transform="translate(-12.18 -23.63)"/><path class="cls-2" d="M213.37,209.36a5.67,5.67,0,0,0,1.41,3.39,1.55,1.55,0,0,0,2.18.05,2.35,2.35,0,0,0,.56-.93,3.49,3.49,0,0,1,.27-.71h-1.38a8.29,8.29,0,0,0,1.74,2.38,3.35,3.35,0,0,0,1.3.84,1.49,1.49,0,0,0,1.71-.7,4.74,4.74,0,0,0,.3-3,7,7,0,0,0-.43-1.39c-.2-.48-.43-1.23-.95-1.44a.74.74,0,0,0-1.1.63c0,.49.34.79.52,1.21a4.41,4.41,0,0,1,.24.9,5,5,0,0,1-.11,2l-.06.21c0-.11,0,0,0,0a.16.16,0,0,1,.09-.07l.21,0c.06,0,.05,0,0,0s-.06,0,0,0a3.09,3.09,0,0,1-.76-.55,4.67,4.67,0,0,1-1.24-1.51.84.84,0,0,0-.56-.57.76.76,0,0,0-.77.21,3.28,3.28,0,0,0-.41.66,4.16,4.16,0,0,1-.25.52l0,0,0,0,.18,0s.15.13,0,0a2.73,2.73,0,0,1-.23-.25h0a1.63,1.63,0,0,1-.11-.17,2,2,0,0,1-.14-.25,2.32,2.32,0,0,1-.19-.47,9.8,9.8,0,0,1-.33-1.32.83.83,0,1,0-1.6.42Z" transform="translate(-12.18 -23.63)"/><path class="cls-2" d="M224.25,212.09a17.52,17.52,0,0,1-.63-2.57c0,.23,0-.1,0-.13s0,.11,0,0c-.05.09-.05.11,0,0l-.05.06c.08-.06.05-.05-.07.05l.09-.05c-.15.06-.17.07-.07,0s0,0,0,0h0l.11,0-.06,0,.12.07c.08.06.07,0,0,0,.07,0,.16.14.2.18l.09.11,0,0c.08.14.17.27.25.42s.19.37.28.56.08.19.13.28,0,.1,0,0c0,.05,0,.1.05.15a11.22,11.22,0,0,1,.36,1.12,4.32,4.32,0,0,0,.25.77,1.41,1.41,0,0,0,.53.63.77.77,0,0,0,1-.28,1.78,1.78,0,0,0,.11-1.5,8,8,0,0,0-.34-1.08,8.9,8.9,0,0,0-1.05-2.09,2.31,2.31,0,0,0-2.33-1.06,1.75,1.75,0,0,0-1.09.75,1.87,1.87,0,0,0-.2,1.37c.08.45.21.89.29,1.34s.14.94.2,1.41a1,1,0,0,0,.46.6,1,1,0,0,0,.73.1,1,1,0,0,0,.69-1.18Z" transform="translate(-12.18 -23.63)"/><path class="cls-2" d="M233.91,208.51s0,0,0,0,0,0,0,0Z" transform="translate(-12.18 -23.63)"/><path class="cls-2" d="M233.54,207.43c-.92.16-2.26.62-2.48,1.66a2.37,2.37,0,0,0,1.39,2.37l.42.28.19.13s.12.08,0,0,.06.06.08.08a1.21,1.21,0,0,1,.16.16c.12.12-.05-.1,0,0s.08.12,0,0,0,0,0,.06,0,.26,0,.08v.25c0-.12,0,0,0,.06l-.06.21a.43.43,0,1,0,0-.05.54.54,0,0,0-.07.13s-.07.12,0,0,0,0,0,0-.19.16-.09.09l-.11.06s-.1,0-.1.05.2-.07,0,0c0,0-.25,0-.13,0s-.1,0-.13,0h-.11s.19,0,0,0l-.25-.06-.2-.07-.1,0c.1,0,.22,0-.13-.05a.91.91,0,0,0-.92.29c-.44.56,0,1.25.54,1.55a2.24,2.24,0,0,0,1.24.3,2.48,2.48,0,0,0,2.15-1.26,2.67,2.67,0,0,0,0-2.5,2.93,2.93,0,0,0-.84-1c-.18-.15-.38-.29-.57-.43l-.09-.07c-.21-.14.09.08,0,0l-.21-.17-.19-.19s-.11-.16,0-.05,0,0,0-.06,0,0,0,.06l0-.08v.1s-.12.38-.18.32a1.71,1.71,0,0,0,.29-.16l.14-.06c.06,0,.12,0,0,0a6.57,6.57,0,0,1,.76-.21,1,1,0,0,0,.71-1.21,1,1,0,0,0-1.21-.71Z" transform="translate(-12.18 -23.63)"/><path class="cls-2" d="M241,208.85c-.47-.1-.92-.3-1.38-.43a3.51,3.51,0,0,0-1.51-.09,2.38,2.38,0,0,0-1.86,2.09,4.7,4.7,0,0,0,.43,3,2.06,2.06,0,0,0,1.22,1.15,1.88,1.88,0,0,0,1.76-.62,6.62,6.62,0,0,0,1-1.27,5.28,5.28,0,0,0,.33-.62c.07-.13.12-.27.18-.41s0-.11,0-.06.18-.44.1-.26a1,1,0,0,0-.34-1.26,1,1,0,0,0-1.26.35,2.82,2.82,0,0,0-.41,1.73,3.19,3.19,0,0,0,.65,1.8,3.28,3.28,0,0,0,1.48,1.09,3,3,0,0,0,.84.19,1.41,1.41,0,0,0,1-.26.83.83,0,0,0-.2-1.49c.24.09-.39-.16-.29-.13a2.71,2.71,0,0,0-.41,0h0l-.12,0-.27-.08c.19.07,0,0-.07,0a2.68,2.68,0,0,1-.28-.18c.14.1,0,0-.06-.06s-.22-.24-.14-.14-.09-.15-.1-.18-.12-.27,0-.07l-.09-.32c-.06-.19,0,.11,0-.1s0-.17,0-.25,0-.12,0-.17c0,.1,0,.09,0,0s.13-.38.19-.57l-1.78-.47a.49.49,0,0,1-.06.17l0,0-.12.26a6.32,6.32,0,0,1-.33.56l-.16.23c-.07.09-.07.1,0,0l-.09.11-.4.45-.14.13,0,0,0,0a.26.26,0,0,1,.15,0,.34.34,0,0,1,.26.1c.05,0,0,0,0,0,.13.18-.05-.08-.07-.12l-.15-.28c-.12-.26.05.17,0-.1a4.44,4.44,0,0,1-.15-.63c0,.18,0-.08,0-.12s0-.24,0-.36a2.4,2.4,0,0,1,0-.28c0,.17,0-.08,0-.12a2.14,2.14,0,0,1,.09-.34c-.05.15,0,0,.05-.09s.07-.09,0,0l.06-.06c-.09.07-.1.08,0,0s.09-.06,0,0a1.16,1.16,0,0,1,.8,0c.47.11.92.29,1.4.38a.9.9,0,0,0,1.09-.63.91.91,0,0,0-.63-1.1Z" transform="translate(-12.18 -23.63)"/><path class="cls-2" d="M243.09,213.65a.92.92,0,0,0,1,.45,1,1,0,0,0,.72-.88,5.16,5.16,0,0,0-.13-1.1,8.94,8.94,0,0,1-.06-1,3.85,3.85,0,0,1,0-.48s.06-.18,0-.21c.06.18-.25.07-.3.07s-.07,0,0,.06a3.15,3.15,0,0,1,.22.29,8.05,8.05,0,0,1,.84,1.54.88.88,0,0,0,.95.64.89.89,0,0,0,.76-.85c.07-.63.09-1.27.21-1.89,0-.05,0-.11,0-.17s-.05,0,0,0,0,0-.06.05a.25.25,0,0,1-.28.1c-.29,0-.18,0-.06.08l.16.1c.13.08-.07-.07,0,0s.21.2.31.3a2.58,2.58,0,0,1,.37.51c.15.24.29.49.42.74s.13.26.19.4a2.84,2.84,0,0,1,.14.32,2.3,2.3,0,0,0,.53,1.07.92.92,0,0,0,1.51-.41,2.39,2.39,0,0,0-.36-1.53,8.3,8.3,0,0,0-.55-1.07,5.45,5.45,0,0,0-1.56-1.81,2.06,2.06,0,0,0-1.21-.42,1.25,1.25,0,0,0-1.14.94,10.8,10.8,0,0,0-.17,1.14c-.08.43-.17.86-.24,1.3l1.59-.21a10.23,10.23,0,0,0-1.2-1.65c-.43-.49-1-1.14-1.77-.77s-.68,1-.75,1.61a10.94,10.94,0,0,0-.09,1.14c0,.18,0,.36,0,.54s0,.16,0,.24a.86.86,0,0,1,0,.16c0,.18.09.08.25-.3l.39-.1.22.07.29.28,0,0a.78.78,0,0,0-1.34.78Z" transform="translate(-12.18 -23.63)"/><path class="cls-2" d="M250.28,211.44a31.73,31.73,0,0,1,.87,4.23,14,14,0,0,0,.49,2,5.13,5.13,0,0,0,1.13,2.12.94.94,0,1,0,1.12-1.49c.1.08.09,0,0-.07l-.13-.24-.21-.36c-.17-.29-.33-.57-.52-.84a.24.24,0,0,0-.45.18c0,.3.09.59.11.89v.41c0,.07-.07.35.08.18l1.58.43c-.23-.65-.6-1.2-.81-1.83a15.51,15.51,0,0,1-.48-2,28.66,28.66,0,0,0-.84-4.1,1,1,0,0,0-1.22-.71,1,1,0,0,0-.71,1.21Z" transform="translate(-12.18 -23.63)"/><path class="cls-2" d="M252.75,210.88s0-.08,0,0,0,0,0-.05,0,0,0,0a.14.14,0,0,1,0-.06s0-.11,0,0,0,0,0,0,0-.08,0,0,0,0,.05,0,.11-.1,0,0l.15-.09s0,0,0,0l.09,0,.08,0c.07,0-.08,0,0,0h.17c-.12,0,0,0,.07,0l.07,0s-.09-.05,0,0l.18.1.07,0s-.11-.09,0,0l.12.11.12.13c.06.06,0,0,0,0a.76.76,0,0,1,.08.11c.07.1.12.2.18.3a.39.39,0,0,0,.06.15c-.06,0,0-.12,0,0l0,.09c0,.06,0,.12,0,.18a1.13,1.13,0,0,0,0,.18s0-.14,0-.06,0,0,0,.07,0,.19,0,.21,0-.15,0-.07,0,.05,0,.07-.07.21,0,.1l0,.08,0,.06c0,.07.13-.14,0,0l-.05.05c-.06.06.06-.05.06-.05s-.14.08-.17.1l-.08,0s.16-.05.07,0l-.23.07a4.87,4.87,0,0,1-.52.12h-.11c-.1,0,0,0,0,0a2.48,2.48,0,0,1-.27,0h-.55a1.32,1.32,0,0,0-.55.14,1.06,1.06,0,0,0-.38.38.74.74,0,0,0,0,.76,1.06,1.06,0,0,0,1,.52,4.25,4.25,0,0,0,.8-.07,5.31,5.31,0,0,0,1.11-.28,2.15,2.15,0,0,0,1.18-.87,1.92,1.92,0,0,0,.29-1.07A3.21,3.21,0,0,0,255,210a2,2,0,0,0-2-.74,1.63,1.63,0,0,0-1.23,1.85.52.52,0,0,0,1-.26Z" transform="translate(-12.18 -23.63)"/><path class="cls-2" d="M255.42,206.19c.36,1.34.67,2.69.94,4.05s.42,2.74.68,4.1a1,1,0,0,0,.7.71,1,1,0,0,0,.75-.1,1,1,0,0,0,.49-.85,36.28,36.28,0,0,0-.67-4.28c-.28-1.39-.6-2.77-1-4.13a1,1,0,0,0-1.93.5Z" transform="translate(-12.18 -23.63)"/><path class="cls-2" d="M261.07,211.32c.75.08,1.45.39,2.2.48a2.41,2.41,0,0,0,2-.54,1.83,1.83,0,0,0,.56-1.72,1.78,1.78,0,0,0-1.36-1.23,3,3,0,0,0-3.2,1.44,3.09,3.09,0,0,0,.73,3.72,4.55,4.55,0,0,0,2.05,1.12,8.15,8.15,0,0,0,1.3.19,5.24,5.24,0,0,0,1.31-.06.66.66,0,0,0,.49-.63.68.68,0,0,0-.49-.64c-.54-.19-1.1-.26-1.65-.4a5,5,0,0,1-1.37-.5l-.27-.16-.16-.12h0a2.39,2.39,0,0,1-.23-.22,1.14,1.14,0,0,1-.11-.11s-.15-.21-.06-.07l-.16-.26-.09-.17c-.05-.12,0,.11,0,0s-.06-.23-.08-.34,0-.15,0,0a1.09,1.09,0,0,1,0-.18,1.69,1.69,0,0,1,.35-.91,1.47,1.47,0,0,1,1-.64,1,1,0,0,1,1,.28.61.61,0,0,1-.19.82,2,2,0,0,1-1.47.3c-.65-.05-1.28-.24-1.93-.28a.44.44,0,0,0-.44.44.45.45,0,0,0,.43.44Z" transform="translate(-12.18 -23.63)"/><path class="cls-2" d="M120.24,221.77a3.87,3.87,0,0,0-2.78,1.26.91.91,0,0,0,.19,1.4l1.7,1.25.81.59s.23.18,0,0l.18.15.1.11c-.08-.1-.08-.11,0,0a.75.75,0,0,1,.07.12l0-.1c0,.1,0,.09,0,0,0,.15,0,0,0,0l0-.09c0,.09,0,.08,0,0s0,0,0,0,.2-.06,0,0l-.16.06q-.28.09-.57.15l-.17,0h-.1a4.19,4.19,0,0,1-.5,0c-.33,0-.64,0-1-.05a1.75,1.75,0,0,0-1,.09.67.67,0,0,0-.34.59.9.9,0,0,0,.46.71,3.73,3.73,0,0,0,2.12.45,5.94,5.94,0,0,0,2.16-.47,1.62,1.62,0,0,0,.89-2c-.29-.85-1.09-1.28-1.8-1.76s-1.3-.9-2-1.34l.2,1.4a3.09,3.09,0,0,1,.4-.41c.08-.07.07-.06,0,0l.12-.09.22-.13.23-.11c-.2.09.09,0,.13,0l.28-.07.14,0c-.09,0-.09,0,0,0a.85.85,0,0,0,.83-.82.83.83,0,0,0-.82-.83Z" transform="translate(-12.18 -23.63)"/><path class="cls-2" d="M123.5,224.25l.27,4.22c.1,1.43.12,2.89.33,4.31a1,1,0,1,0,1.78-.72.41.41,0,0,0-.07-.11.68.68,0,0,0-.58-.33h0l.37.1,0,0,.49.85c0-1.38-.16-2.78-.25-4.15l-.27-4.14a1,1,0,0,0-1-1,1,1,0,0,0-1,1Z" transform="translate(-12.18 -23.63)"/><path class="cls-2" d="M124.86,225.23a.36.36,0,0,0,.07-.1s.08-.07,0,0L125,225a1.37,1.37,0,0,1,.17-.17l.07-.06c.08-.07-.16.11,0,0l.36-.21c.16-.08,0,0,0,0l.11,0,.23-.06s.25,0,.12,0h.35s.13,0,0,0,0,0,.06,0l.2,0c.22.07-.11-.07,0,0a1.24,1.24,0,0,1,.2.1l.07,0c.15.1,0,0,0,0s.11.1.15.13l.14.15c.06.06.16.24,0,0,0,.06.09.12.13.19a1,1,0,0,1,.1.17c.09.2,0-.13,0,0l.06.22a.19.19,0,0,0,0,.08c0,.19,0,0,0,0s0,.17,0,.2,0,.07,0,.11,0-.07,0-.07a.71.71,0,0,0,0,.22.21.21,0,0,0,0,.07c0,.09.08-.14,0,0l-.09.17c-.1.16.07-.08,0,0l-.15.16-.06.05c-.14.13,0,0,0,0a2.2,2.2,0,0,1-.19.12l-.09.05s-.17,0,0,0,0,0,0,0l-.13,0-.1,0c-.07,0-.12.07,0,0a1,1,0,0,1-.42,0h-.11c.18,0,0,0-.13,0a1.28,1.28,0,0,0-.33.06.6.6,0,0,0-.37.88c.48.89,1.78.67,2.52.29a2.69,2.69,0,0,0,1.43-1.94,3,3,0,0,0-.82-2.55,3,3,0,0,0-2.59-.83,3.39,3.39,0,0,0-2.43,1.63.88.88,0,0,0,.32,1.19.89.89,0,0,0,1.18-.33Z" transform="translate(-12.18 -23.63)"/><path class="cls-2" d="M134.15,223.62a3.24,3.24,0,0,0-2.76-.68,2.71,2.71,0,0,0-1.67,2.14,2.57,2.57,0,0,0,.93,2.77,2.49,2.49,0,0,0,2.59,0,3.28,3.28,0,0,0,1.08-1.11,5.93,5.93,0,0,0,.34-.72l.06-.16s.05-.15,0-.11a3.48,3.48,0,0,0,.18-.41h-1.64a5,5,0,0,0,.82,2.1A3.2,3.2,0,0,0,136,229a.64.64,0,0,0,.72-.93,4.1,4.1,0,0,0-.6-.87c.11.13-.06-.08-.07-.09l-.12-.17c-.09-.13-.19-.26-.27-.39a5.21,5.21,0,0,1-.47-.83l-.06-.13-.05-.13c-.06-.16-.12-.32-.17-.49a.87.87,0,0,0-.82-.63.86.86,0,0,0-.82.63c0,.15,0,.31,0,.46,0,0,0-.13,0,0a2.4,2.4,0,0,1-.11.23s-.17.27-.1.18a1.93,1.93,0,0,1-.35.35c.13-.11-.1.05-.13.07l-.11.06h0l-.2.05c.2-.06,0,0-.09,0h-.25c.19,0,0,0,0,0s-.28-.11-.15-.05-.11-.07-.13-.08c.17.09,0,0,0,0l0,0-.07-.11c0-.07,0-.06,0,0l0-.16c0-.17,0,.07,0-.12a2.44,2.44,0,0,0,0-.27q0-.16,0,0l0-.16.06-.23c0-.05.09-.23,0-.09l.15-.28c.08-.16-.08.06,0-.07s.1-.11.16-.16c-.19.15.18-.05,0,0a.92.92,0,0,1,.29,0,3.15,3.15,0,0,1,1.13.45.75.75,0,1,0,.74-1.3Z" transform="translate(-12.18 -23.63)"/><path class="cls-2" d="M139,223.41a3.41,3.41,0,0,0-1.67,1.53,2.77,2.77,0,0,0-.05,2.49,3.19,3.19,0,0,0,1.81,1.55,4.51,4.51,0,0,0,1.31.28,3.85,3.85,0,0,0,.59,0,2,2,0,0,0,.86-.28.82.82,0,0,0,0-1.41,2.25,2.25,0,0,0-.77-.25l-.48,0a1.15,1.15,0,0,1-.26,0l.11,0-.15,0-.5-.12c-.07,0-.25-.14,0,0l-.16-.08-.18-.1-.08,0,.07,0c-.05-.09-.19-.17-.27-.24l-.07-.09c.1.13.12.16.06.07l-.1-.15a.3.3,0,0,0,0-.08l0,.12c0-.07,0-.14-.06-.2a.29.29,0,0,1,0-.09c0-.1,0-.07,0,.09,0,0,0-.12,0-.17a.49.49,0,0,1,0-.12l0,.14s0-.16,0-.22.12-.2,0,0c0,0,0-.1.08-.15a1.74,1.74,0,0,1,.11-.18c.13-.2-.13.15,0,0a3.07,3.07,0,0,1,.25-.26l.09-.07-.07,0,.15-.1.37-.19a1,1,0,0,0,.47-.6,1,1,0,0,0-.71-1.22,1.15,1.15,0,0,0-.75.1Z" transform="translate(-12.18 -23.63)"/><path class="cls-2" d="M142.6,226.29a5.23,5.23,0,0,0,2.26.1,2.41,2.41,0,0,0,1.4-1,1.93,1.93,0,0,0-1.66-2.82,2.9,2.9,0,0,0-2.84,2.66A3.51,3.51,0,0,0,143.3,229a4.65,4.65,0,0,0,2.17.51,9.32,9.32,0,0,0,1.29-.09c.25,0,.5,0,.75-.08l.63-.15a.78.78,0,0,0,0-1.5,3.62,3.62,0,0,0-.92-.16c-.31,0-.62,0-.93.05l-.82,0H145c-.18,0,.07,0,0,0l-.61-.16c-.13,0,.12.07,0,0l-.14-.07-.14-.08c-.08-.05-.12-.09,0,0a2.19,2.19,0,0,1-.23-.21c-.11-.12,0,0,0,0l-.1-.14-.07-.15c.07.13,0,0,0,0a3.2,3.2,0,0,1-.1-.42l0-.17s0,.15,0,0,0-.23,0-.34,0-.24,0-.36,0-.16,0,0a1.55,1.55,0,0,1,0-.21,1.52,1.52,0,0,1,.57-.95c-.12.09.13-.08.16-.09l.15-.07s-.12,0,0,0a.7.7,0,0,1,.43,0,.55.55,0,0,1,.41.54.92.92,0,0,1-.65.75,3.37,3.37,0,0,1-1.81,0,.49.49,0,0,0-.59.34.49.49,0,0,0,.34.6Z" transform="translate(-12.18 -23.63)"/><path class="cls-2" d="M155.84,226.87c.29.91.74,1.91,1.78,2.12s1.75-.69,2.08-1.55h-1.19a4,4,0,0,0,1.25,2,1.94,1.94,0,0,0,2.31,0,2.36,2.36,0,0,0,1-2.33,2.09,2.09,0,0,0-1.75-1.79.54.54,0,0,0-.46.8c.13.22.27.43.41.64s.13.23.19.34l0,.08s0,0,0,0a1,1,0,0,1,.05.16.82.82,0,0,1-.26.93.67.67,0,0,1-.89,0,1.58,1.58,0,0,1-.35-.41,5.32,5.32,0,0,1-.3-.69.62.62,0,0,0-1.19,0c-.14.34-.35.66-.71.55s-.65-.7-.81-1.1a.61.61,0,0,0-.73-.42.6.6,0,0,0-.42.72Z" transform="translate(-12.18 -23.63)"/><path class="cls-2" d="M165.7,222.72Q164.25,225.3,163,228c-.42.86-.81,1.73-1.2,2.6s-1,2-.76,3a.69.69,0,0,0,1,.42,4.84,4.84,0,0,0,1.48-2.39c.4-.9.81-1.8,1.24-2.69q1.26-2.62,2.69-5.16a1,1,0,0,0-1.73-1Z" transform="translate(-12.18 -23.63)"/><path class="cls-2" d="M169.18,227.74c1.2.46,2.72.83,3.72-.26a2,2,0,0,0-.53-3,2.23,2.23,0,0,0-2.91.94,4.26,4.26,0,0,0-.56,1.5,3.9,3.9,0,0,0,0,1.86,2.38,2.38,0,0,0,2,1.46,3.76,3.76,0,0,0,2.58-.26.57.57,0,0,0-.13-1c-.54-.1-1.12-.09-1.6-.18-.26-.05-.52-.09-.78-.16l-.4-.12c-.14,0-.07,0,0,0l-.2-.11c.1.07,0,0-.05,0s.07.13,0,0c0,0-.06-.13,0,0a.78.78,0,0,1,0-.14c0-.06,0-.12,0-.18s0,.16,0-.08,0-.23,0-.34a4,4,0,0,1,.1-1.12c.15-.64.53-1.35,1.32-1.33a1.09,1.09,0,0,1,1,.57,1,1,0,0,1-.16,1c-.72.78-2.07.21-2.88-.1a.62.62,0,0,0-.74.43.63.63,0,0,0,.43.74Z" transform="translate(-12.18 -23.63)"/><path class="cls-2" d="M173.76,226.17c.49.7.93,1.43,1.44,2.11.26.34.52.66.79,1a1.82,1.82,0,0,0,1.27.72.87.87,0,0,0,.83-.63,6.14,6.14,0,0,0,.14-2.26,4.82,4.82,0,0,1,.09-1.09,5.44,5.44,0,0,0,.22-1.32.57.57,0,0,0-.56-.57.58.58,0,0,0-.57.57.57.57,0,0,0,.19.52.44.44,0,0,0,.5.06l.16-.09-.78-.77a4.3,4.3,0,0,0-.45,1.21,7.23,7.23,0,0,0-.23,1.3c0,.35-.05.7-.08,1.05,0,.18,0-.07,0,.09a2.8,2.8,0,0,1-.06.28c0,.09-.05.18-.07.27s0,.09,0,0l-.06.12.74-.43c.12,0,.14,0,0,0,.11.05.12.05,0,0s-.07,0,0,0l-.1-.08c-.11-.1-.21-.21-.31-.31-.25-.26-.5-.51-.72-.79l-.17-.21c-.06-.08-.07-.09,0,0l-.1-.12-.33-.45c-.25-.34-.5-.68-.76-1a.69.69,0,0,0-.92-.05.7.7,0,0,0-.19.91Z" transform="translate(-12.18 -23.63)"/><path class="cls-2" d="M179.74,228a2.56,2.56,0,0,0,3-.74,1.69,1.69,0,0,0-.84-2.51c-1.14-.37-1.91.7-2.27,1.62a3,3,0,0,0,.39,3.31,3.52,3.52,0,0,0,1.66.85,5.15,5.15,0,0,0,1.1.12h.54c.19,0,.39-.05.54-.07a.68.68,0,0,0,.17-1.33,2.62,2.62,0,0,0-.69-.2L183,229h-.14l-.14,0a3.12,3.12,0,0,0-.44,0h-.18c-.2,0-.38-.1-.57-.15s.11.05,0,0l-.09,0a1.88,1.88,0,0,1-.24-.14s-.12-.08,0,0l-.11-.09s-.19-.21-.09-.08a1.28,1.28,0,0,1-.15-.25c.05.11,0-.11,0-.14a.56.56,0,0,1,0-.1c0,.07,0-.08,0-.1s0-.23,0-.35a4.63,4.63,0,0,1,.26-1,1.62,1.62,0,0,1,.45-.67c-.1.08.14-.07,0,0l.13,0a.38.38,0,0,1,.28.13.58.58,0,0,1,.1.65c-.34.79-1.33.74-2,.5a.51.51,0,0,0-.62.35.52.52,0,0,0,.36.62Z" transform="translate(-12.18 -23.63)"/><path class="cls-2" d="M186.39,228.75a4.63,4.63,0,0,1-.35-.94,1.28,1.28,0,0,1,.1-.75,2.25,2.25,0,0,1,.12-.21c0,.08.05,0,.07-.08l.15-.14h0l.09-.06.21-.11c-.13.07,0,0,.06,0a.73.73,0,0,1,.2,0s-.15,0,0,0h.23c.15,0,0,0,0,0s.14,0,.2.05-.12-.06,0,0l.08,0,.1.06c.13.08-.07-.07,0,0a4.11,4.11,0,0,1,.29.3c.08.09-.1-.14,0,0a.35.35,0,0,0,.05.08,1.76,1.76,0,0,1,.14.23c0,.07.07.13.1.2s0,0,0,0l0,.1a3.18,3.18,0,0,1,.14.53c0,.17.07.33.1.5a1.85,1.85,0,0,0,0,.23c0,.09,0,0,0,0s0,.11,0,.17a3.25,3.25,0,0,0,.15,1.08.47.47,0,0,0,.57.29,1,1,0,0,0,.46-.36,2.89,2.89,0,0,0,.38-2.49,3.72,3.72,0,0,0-1.18-1.89,2.27,2.27,0,0,0-2.19-.42,2.48,2.48,0,0,0-1.55,1.79,3.72,3.72,0,0,0-.07,1.15,2.87,2.87,0,0,0,.36,1.26.58.58,0,0,0,.7.24.56.56,0,0,0,.34-.66Z" transform="translate(-12.18 -23.63)"/><path class="cls-2" d="M191.71,223.58l.59,2.94c.1.49.21,1,.32,1.46a3.23,3.23,0,0,0,.61,1.59.83.83,0,0,0,1.37-.38,3.4,3.4,0,0,0-.1-1.7c-.09-.49-.17-1-.27-1.48l-.59-2.94a1,1,0,0,0-1.21-.71,1,1,0,0,0-.72,1.22Z" transform="translate(-12.18 -23.63)"/><path class="cls-2" d="M191.34,226.46c.84.18,1.68.32,2.53.42.4,0,.8.09,1.2.09a2,2,0,0,0,1.44-.45.72.72,0,0,0,0-1,2.23,2.23,0,0,0-1.42-.52l-1.11-.1-.55-.07c-.07,0-.06,0,0,0l-.17,0-.25,0-1.19-.22a1,1,0,0,0-.5,1.87Z" transform="translate(-12.18 -23.63)"/><path class="cls-2" d="M207.13,228.39l.82-3.87a11.44,11.44,0,0,1,.37-1.64c.22-.6.66-.45,1.16-.26l-.53-.54a5.37,5.37,0,0,0,.48,1.2l.5,1.14c.31.71.61,1.42.91,2.14s.59,1.44.88,2.15a6.64,6.64,0,0,0,1.18,2.19.69.69,0,0,0,1.16-.48,6,6,0,0,0-.67-2.39c-.32-.79-.67-1.57-1-2.35s-.69-1.51-1.06-2.25l-.54-1.12c-.19-.36-.35-.85-.73-1.07a2.18,2.18,0,0,0-2.07.41,2.77,2.77,0,0,0-.75,1.54c-.38,1.64-.73,3.29-1.09,4.93-.14.65.86.92,1,.27Z" transform="translate(-12.18 -23.63)"/><path class="cls-2" d="M207.25,227.09c.74,0,1.48,0,2.22.07q.54,0,1.08.12h0l.33,0,.25,0a1.48,1.48,0,0,0,.42,0l.15,0a.66.66,0,0,0,.28-.13.88.88,0,0,0,.32-1.18,2,2,0,0,0-1.57-.7c-.38-.05-.75-.09-1.13-.12a22,22,0,0,0-2.3-.08,1,1,0,0,0-1,1,1,1,0,0,0,1,1Z" transform="translate(-12.18 -23.63)"/><path class="cls-2" d="M217.89,229a2.71,2.71,0,0,1-.65-2,2.17,2.17,0,0,1,.34-.85,1.45,1.45,0,0,1,.57-.53h0l.09,0s.22,0,.13,0a1.08,1.08,0,0,1,.44,0,1.84,1.84,0,0,1,.46.2l.19.13c.13.09,0,0,0,0l.11.09a4,4,0,0,1,.36.35l.14.16c-.11-.13,0,.08.08.12a3.83,3.83,0,0,1,.25.44l.1.2c.07.15,0,0,0,0l.06.14a4.74,4.74,0,0,1,.16.57l.06.29c0,.05,0,.33,0,.14,0,.48,0,1.17.41,1.5a.79.79,0,0,0,.91.12c.6-.44.54-1.12.44-1.77a5.17,5.17,0,0,0-.33-1.21,4.84,4.84,0,0,0-1.68-2.26,2.82,2.82,0,0,0-2.83-.39,3.11,3.11,0,0,0-1.53,2,4.61,4.61,0,0,0,.42,3.28.72.72,0,0,0,1.25-.72Z" transform="translate(-12.18 -23.63)"/><path class="cls-2" d="M226,223.4l.37,3c.07.54.13,1.07.22,1.6a3,3,0,0,0,.54,1.62.81.81,0,0,0,1.26-.17,2.82,2.82,0,0,0,.13-1.63c0-.49-.1-1-.16-1.46l-.37-2.93a1,1,0,0,0-1-1c-.48,0-1.07.44-1,1Z" transform="translate(-12.18 -23.63)"/><path class="cls-2" d="M227.46,224a7.16,7.16,0,0,1,2.27-.53,3.12,3.12,0,0,1,1.85.31s.08.06.08.09,0-.05,0,0a1.9,1.9,0,0,1-.59.67c-.3.26-.6.52-.91.76a7.34,7.34,0,0,0-1.07.84.92.92,0,0,0,.64,1.55,5.7,5.7,0,0,1,2.1.56c.31.15.83.47.68.88s-.95.8-1.39,1a6.08,6.08,0,0,1-1.19.29,2.77,2.77,0,0,0-1.18.24.59.59,0,0,0-.12.93c.83.65,2.27.3,3.18,0a3,3,0,0,0,2.19-2,2.1,2.1,0,0,0-1.16-2.24c-.86-.5-1.83-.76-2.66-1.33l-.22,1.67a6.34,6.34,0,0,0,1.59-1,10.66,10.66,0,0,0,1.24-1.08,2.15,2.15,0,0,0,.21-3,3.74,3.74,0,0,0-2.8-.84,8.45,8.45,0,0,0-3.35.8c-.84.39-.24,1.87.62,1.52Z" transform="translate(-12.18 -23.63)"/><path class="cls-2" d="M101.34,25a9.22,9.22,0,0,0-4.52-1.34,3.75,3.75,0,0,0-3.41,2.16,6,6,0,0,0,.33,4.46,7.1,7.1,0,0,0,2.74,3.65,6.22,6.22,0,0,0,5.5.29.68.68,0,0,0-.17-1.23c-1.64-.29-3.41.35-4.87-.75a7.14,7.14,0,0,1-2.22-3.7c-.41-1.45-.28-3.06,1.27-3.73s3.48.12,5,.8c.4.19.76-.4.35-.61Z" transform="translate(-12.18 -23.63)"/><path class="cls-2" d="M103.28,31.27a2.88,2.88,0,0,0,1.36,2.86,3.66,3.66,0,0,0,3.08.32,2.49,2.49,0,0,0,1.31-1,1.9,1.9,0,0,0,.22-1.54,3.61,3.61,0,0,0-2.34-2.18,5.45,5.45,0,0,0-1.64-.34,2.59,2.59,0,0,0-1.75.39.51.51,0,0,0,.25.95,3.08,3.08,0,0,0,.53,0c.18,0,.39-.05.61-.05a3.81,3.81,0,0,1,1.06.14,3.07,3.07,0,0,1,1,.42,2.17,2.17,0,0,1,.34.24l.19.19.08.08c.15.18,0-.05,0,.06a1.59,1.59,0,0,1,.13.22c.07.13,0,.05,0,0s0,.09,0,.14,0,.12,0,0,0,0,0,.07v.11c0-.14,0,0,0,0s.06-.07,0,0a.35.35,0,0,0-.05.08c0,.06-.09.06,0,0l-.06.07,0,0c.07-.07,0,0,0,0a2,2,0,0,1-.25.14l-.09,0h0l-.23.06-.22,0c.2,0-.08,0-.14,0h-.56l-.15,0-.3-.08-.14,0c.11,0,0,0,0,0s-.17-.1-.26-.15l0,0-.14-.13-.1-.1s-.1-.16,0,0c0-.08-.11-.16-.15-.24a.75.75,0,0,1-.06-.13c0,.07,0,.06,0,0s0-.09,0-.14,0-.2,0-.11,0,0,0,0v-.21a.75.75,0,0,0-1.48-.2Z" transform="translate(-12.18 -23.63)"/><path class="cls-2" d="M110.48,34.11a11.59,11.59,0,0,1-.22-2.49c0-.25,0-.67.22-.79,0,0,.08,0,.1,0h.16s0,0,0,0l.12,0s.11.05.14.07a3.45,3.45,0,0,1,.69.65c.32.35.43.53.7.87l.19.23c-.09-.1.06.08.06.08l.42.58c-.08-.1,0,.07.06.09l.18.24a5.49,5.49,0,0,0,.44.52c.37.44,1,0,.93-.53a6.44,6.44,0,0,0-2.45-3.4,2,2,0,0,0-2.07-.4c-.7.35-.72,1.1-.72,1.77,0,.88,0,1.75,0,2.62a.5.5,0,1,0,1-.12Z" transform="translate(-12.18 -23.63)"/><path class="cls-2" d="M115.83,31.86a2.6,2.6,0,0,0,1.53,3.46,2.21,2.21,0,0,0,2.86-2.16,4.75,4.75,0,0,0-.81-2.2l-1.26-2.15c-.43-.71-.85-1.43-1.29-2.14a6.5,6.5,0,0,0-1.68-2.07.64.64,0,0,0-1,.55,9.08,9.08,0,0,0,1.53,3.4l2,3.29a3.25,3.25,0,0,1,.61,1.35c0,.05,0,.25,0,.2s0,.06-.13.11c.1,0-.08,0-.12,0a.48.48,0,0,1-.46-.19,1.09,1.09,0,0,1,0-1,.91.91,0,0,0-.64-1.11.93.93,0,0,0-1.1.64Z" transform="translate(-12.18 -23.63)"/><path class="cls-2" d="M121.39,32.63a7.77,7.77,0,0,0,.56,1.62l.16.34a3,3,0,0,0,.33.46,3.22,3.22,0,0,0,.24.28,3,3,0,0,0,.4.3.71.71,0,0,0,.79-.06.75.75,0,0,0,.26-.74l0-.18,0,.2c0-.13,0-.26,0-.38a2.25,2.25,0,0,0-.08-.24,5.16,5.16,0,0,0-.23-.66l.1.25a10.41,10.41,0,0,1-.55-1.69,1,1,0,0,0-1.22-.71,1,1,0,0,0-.71,1.21Z" transform="translate(-12.18 -23.63)"/><path class="cls-2" d="M122.23,29.31l.11-.15a.53.53,0,0,0,.06-.14.08.08,0,0,0,0,0,.69.69,0,0,0,0-.2.88.88,0,0,1,0-.16.06.06,0,0,1,0,0v0a.21.21,0,0,0,0-.07c0-.1,0,0,0-.07l-.08-.11h0v0l0,0a.71.71,0,0,0-.14-.1l0,0h0l-.12-.05h0l-.15,0h0a.5.5,0,0,0-.27.07l-.1.07a.44.44,0,0,0-.1.15s0,0,0,.06h0a.25.25,0,0,0,0,.12h0v.1a.3.3,0,0,0,0,.1h0l0-.1h0a.44.44,0,0,0,.34.34l-.11-.05,0,0-.1-.07,0,0,0,.06-.08-.11,0,.05.11.15-.09-.11.05.07-.05-.12a.64.64,0,0,1,0,.07l0-.13v.06l0-.12a.14.14,0,0,1,0,.06l.05-.11h0a.48.48,0,0,0,0,.17.33.33,0,0,0,0,.17l.05.12a.37.37,0,0,0,.12.13.21.21,0,0,0,.1.06.32.32,0,0,0,.17,0H122a.45.45,0,0,0,.21-.12Z" transform="translate(-12.18 -23.63)"/><path class="cls-2" d="M126,26.58c.44,1.64.84,3.29,1.17,5,.15.78.29,1.56.44,2.34.12.61.35,2.13,1.3,1.87s.6-1.67.5-2.34-.28-1.56-.45-2.33q-.54-2.5-1.23-4.95a.89.89,0,0,0-1.73.45Z" transform="translate(-12.18 -23.63)"/><path class="cls-2" d="M125.9,31.05l3.38-.23,1.65-.12a4.19,4.19,0,0,0,1.85-.43.77.77,0,0,0,.37-.75.8.8,0,0,0-.55-.65,4,4,0,0,0-1.72-.15l-1.66.11-3.31.23a1,1,0,0,0-1,1,1,1,0,0,0,1,1Z" transform="translate(-12.18 -23.63)"/><path class="cls-2" d="M133.47,31.85c.24.7.48,1.39.74,2.08a11.68,11.68,0,0,0,.49,1.15,3.29,3.29,0,0,0,.36.6c.11.13.22.25.34.37a.61.61,0,0,0,1-.28q0-.3.06-.6a4,4,0,0,0-.09-.69c-.08-.35-.17-.69-.28-1-.22-.7-.46-1.4-.7-2.09a1,1,0,0,0-1.22-.71,1,1,0,0,0-.71,1.21Z" transform="translate(-12.18 -23.63)"/><path class="cls-2" d="M133.48,27.13s0,0,0,0Z" transform="translate(-12.18 -23.63)"/><path class="cls-2" d="M133.78,28.1h0l-.15.05h.06l-.15,0h.1a.41.41,0,0,0,.19,0h-.2a.54.54,0,0,0,.22,0,.29.29,0,0,0,.14-.08l0,0h0a.44.44,0,0,0,.08-.11.54.54,0,0,0,.05-.11l0-.13a.59.59,0,0,0,0-.13v0a.51.51,0,0,0-.07-.17L134,27.2a.39.39,0,0,0-.15-.11,1.07,1.07,0,0,0-.19-.07l-.17,0h0a.6.6,0,0,0-.52.3l-.06.14a.51.51,0,0,0,0,.3A.43.43,0,0,0,133,28a.44.44,0,0,0,.17.16.59.59,0,0,0,.29.07.52.52,0,0,0,.3-.08Z" transform="translate(-12.18 -23.63)"/><path class="cls-2" d="M138,30.32a3.9,3.9,0,0,0,1.67,4.57,2,2,0,0,0,1.88.17,2.1,2.1,0,0,0,1.05-1.28,3.18,3.18,0,0,0-.51-2.7,5.38,5.38,0,0,0-1-1,2.91,2.91,0,0,0-1.2-.64,1.21,1.21,0,0,0-1.49.68.76.76,0,0,0,.18.71.67.67,0,0,0,.14.11c.06,0,.32.13,0,0a.79.79,0,0,0,.72,0c.13-.08-.14,0-.05,0s.15,0,.15,0-.19,0-.06,0h.05c.08,0,.07,0,0,0s.19.05.22.06-.15-.09,0,0l.11.06.27.18c-.13-.09,0,0,0,0a.52.52,0,0,0,.11.1l.23.22.08.09s.17.16,0,0a2.61,2.61,0,0,1,.19.27l.13.24,0,0c0,.09,0,.08,0,0l0,.11a2.29,2.29,0,0,1,.07.28v0q0,.14,0,0a.49.49,0,0,1,0,.17v.11c0,.07,0,.22,0,0a.89.89,0,0,1-.07.28.56.56,0,0,0,0,.12c0-.14.05-.11,0,0s-.05.08-.07.13.11-.11,0,0l0,0q-.1.1.06,0l-.15.09s.2-.08.07,0-.07,0,.06,0h-.14s.17.05,0,0l-.14,0,.09,0c-.06,0-.23-.12-.29-.15l-.11-.08c-.18-.12.13.12,0,0l-.22-.2a1.37,1.37,0,0,0-.19-.22l.08.1-.07-.08a1,1,0,0,1-.08-.14,2.2,2.2,0,0,1-.15-.26l-.06-.12c-.07-.16.07.18,0,0a2.8,2.8,0,0,1-.09-.31c0-.05,0-.29-.07-.31a.55.55,0,1,0,0,.06c0-.06,0-.11,0-.16s0-.22,0-.32.05-.16,0,0h0s0-.07,0-.11a1.81,1.81,0,0,1,.09-.31.83.83,0,0,0-.59-1,.84.84,0,0,0-1,.58Z" transform="translate(-12.18 -23.63)"/><path class="cls-2" d="M144.16,34.55c0-.52,0-1,0-1.55a3.29,3.29,0,0,1,.15-1.29,1.6,1.6,0,0,1,.67-.8.75.75,0,0,1,.38-.13c-.11,0,.2,0,.09,0l.18,0a.89.89,0,0,1,.25.14c-.08-.06.11.11.12.13l.1.11s0-.05,0,0l.15.22a13,13,0,0,1,.64,1.23c.22.42.42.86.62,1.3a6.14,6.14,0,0,0,.85,1.35.62.62,0,0,0,.76.1.66.66,0,0,0,.29-.71,7.52,7.52,0,0,0-1-2.57,7.92,7.92,0,0,0-1.39-2,2,2,0,0,0-2.3-.38,2.85,2.85,0,0,0-1.32,1.78,16.37,16.37,0,0,0-.15,3.05c0,.62.93.62,1,0Z" transform="translate(-12.18 -23.63)"/><path class="cls-2" d="M153.23,30.86a2.74,2.74,0,0,0-2.09-.85,1.6,1.6,0,0,0-1.13.7,2.58,2.58,0,0,0-.32,1.25,5.39,5.39,0,0,0,.08,1.27,2.74,2.74,0,0,0,.4,1.06,1.51,1.51,0,0,0,1.26.73,1.64,1.64,0,0,0,1.24-.66A10.4,10.4,0,0,0,154.06,32l-1.35-.55a4.93,4.93,0,0,0,.18,2.47,4.26,4.26,0,0,0,.56,1.13,2.44,2.44,0,0,0,.59.61,1.76,1.76,0,0,0,.59.27c.42.13.94-.31.77-.76a4.42,4.42,0,0,0-.49-1,5.71,5.71,0,0,1-.49-.87c.08.17,0,0,0-.06l-.09-.27c0-.16-.08-.33-.11-.49l0-.21c0,.16,0-.13,0-.16a4.17,4.17,0,0,1,0-.5.74.74,0,0,0-1.38-.37c-.18.31-.38.62-.58.91l-.12.16-.16.2-.31.38-.21.23-.05,0c-.08.07-.07.06,0,0s-.27.1,0,0c.06,0,.28,0,.15,0,.12.05.14.06.06,0,.1.08.12.09,0,0l0,0c.08.1.09.11,0,0s-.07-.15-.09-.17.05.13,0,0a.56.56,0,0,0,0-.12,5,5,0,0,1-.12-.53c0-.26,0,.14,0-.12,0-.1,0-.19,0-.29s0-.2,0-.3,0-.25,0-.08a1.6,1.6,0,0,1,0-.21h0c0-.07.05-.08,0,0s0,0,0,0-.09.07,0,0l-.07,0,.12,0c.14-.05-.07,0,.07,0h.12c-.06,0-.07,0,0,0a2.56,2.56,0,0,1,.79.45.65.65,0,0,0,.78-1Z" transform="translate(-12.18 -23.63)"/><path class="cls-2" d="M155.05,24.87q.64,2.53,1.19,5.1c.17.83.33,1.65.48,2.48a6.35,6.35,0,0,0,.71,2.62.75.75,0,0,0,1.35-.18,5.73,5.73,0,0,0-.21-2.72c-.16-.86-.34-1.71-.53-2.57-.38-1.73-.81-3.46-1.29-5.17a.88.88,0,0,0-1.7.44Z" transform="translate(-12.18 -23.63)"/><path class="cls-2" d="M170.18,32.07l.15,4.49a15.37,15.37,0,0,0,.5,4.49.68.68,0,0,0,1.3,0,15.35,15.35,0,0,0,.2-4.49l-.16-4.49c0-1.29-2-1.3-2,0Z" transform="translate(-12.18 -23.63)"/><path class="cls-2" d="M170.86,30.92a6.23,6.23,0,0,1,2.43-1.3,2.07,2.07,0,0,1,.5-.05,1.08,1.08,0,0,1,.43.07l.25.07c.15.06,0,0,0,0l.14.07.22.13c.08,0,0,0,0,0L175,30l.18.18c-.13-.12,0,0,0,.08a1.51,1.51,0,0,1,.11.22c-.08-.2,0,.1,0,.16s0,0,0,0v.17s0,.16,0,0l0,.13s-.09.26,0,.15a3.24,3.24,0,0,1-.17.32l-.1.14,0,0-.2.24c-.16.16-.32.32-.49.47l-.15.12,0,0-.23.15-.33.18s-.14.06-.06,0l-.14,0-.3.08c-.14,0,.12,0,0,0h-.13a1.37,1.37,0,0,0-1,.27.77.77,0,0,0-.12.92,1.35,1.35,0,0,0,.85.56,3.52,3.52,0,0,0,2.94-1.15A4.12,4.12,0,0,0,177,31a2.56,2.56,0,0,0-1.21-2.38,3.45,3.45,0,0,0-2.8-.42,8.54,8.54,0,0,0-2.93,1.73c-.57.45.2,1.46.78,1Z" transform="translate(-12.18 -23.63)"/><path class="cls-2" d="M179,33.94a14.75,14.75,0,0,1-.23-2,5.11,5.11,0,0,1,.08-1,3.45,3.45,0,0,1,.1-.36l.08-.15s0,0,0,0l.06-.06.1-.1c.11-.12-.11.05,0,0l.15-.08c.16-.08-.15,0,0,0l.34-.08c-.11,0-.08,0,0,0h.19c.49,0,1,0,1.47,0a.65.65,0,0,0,.61-.47.64.64,0,0,0-.3-.7,3.68,3.68,0,0,0-1.87-.4,2.5,2.5,0,0,0-1.8.9,3.31,3.31,0,0,0-.46,2.26,17.36,17.36,0,0,0,.4,2.5.54.54,0,1,0,1-.27Z" transform="translate(-12.18 -23.63)"/><path class="cls-2" d="M182.79,31.37a4.13,4.13,0,0,0,.33,2.81,2.75,2.75,0,0,0,2.3,1.45,2.42,2.42,0,0,0,2.24-1.19,2.25,2.25,0,0,0,.19-1.59,3.56,3.56,0,0,0-.81-1.44,5.8,5.8,0,0,0-1.07-1,2.18,2.18,0,0,0-1.59-.45c-.5.1-1.13.5-1.14,1.07a.63.63,0,0,0,.79.61,1,1,0,0,0,.31-.14l-.08,0,.08,0c.17-.05,0,0,0,0h.29c.16,0-.13,0,0,0l.12,0c.18,0-.13-.08,0,0l.12.07.13.07c.07.06.06.05,0,0l.09.08a3.89,3.89,0,0,1,.47.44,2.09,2.09,0,0,1,.2.22s.1.09.12.14l-.07-.08.07.09c.07.1.13.2.19.3l0,.1c.09.18-.06-.19,0,0a2.68,2.68,0,0,1,.07.27c.05.18,0-.2,0,0v.11c0,.09,0,.07,0-.07a1.1,1.1,0,0,0-.06.26c0-.19.07-.16,0-.06a.16.16,0,0,0,0,.07c-.08.14.16-.19.05-.07l-.08.09-.08.07c-.05,0,.23-.16.06-.05l-.22.11c.27-.14.17-.07.08,0l-.15,0-.09,0c-.09,0-.26,0,0,0h-.38c.28,0,.15,0,.06,0l-.26-.08c.25.07.17.08.11,0l-.15-.08c-.07,0-.15-.14.05,0a1,1,0,0,0-.11-.1,1.14,1.14,0,0,1-.11-.11l-.07-.07c-.06-.08,0,0,.07.08,0-.09-.11-.17-.16-.25l-.06-.12c-.09-.2.07.2,0,0l-.09-.3,0-.15c0-.07,0-.3,0,0,0-.11,0-.21,0-.32s0-.2,0-.31,0-.22,0,0c0-.06,0-.13,0-.2a.93.93,0,0,0-1.79-.48Z" transform="translate(-12.18 -23.63)"/><path class="cls-2" d="M187.82,27.89l.43,3.95c.07.64.14,1.28.22,1.92s.21,1.76,1.1,1.77.92-1.14.87-1.76-.13-1.28-.2-1.91l-.43-4a1,1,0,0,0-1-1,1,1,0,0,0-1,1Z" transform="translate(-12.18 -23.63)"/><path class="cls-2" d="M189.25,32.2a2.33,2.33,0,0,1,.74-.66,1.82,1.82,0,0,1,.36-.16l.26-.07a.88.88,0,0,1,.2,0,1,1,0,0,1,.24,0h.14s-.08,0,0,0l.23.05.1,0c-.1,0,0,0,.06,0a1.18,1.18,0,0,1,.19.11.47.47,0,0,1,.09.06c-.09-.07,0,0,0,0l.18.17.07.09c-.06-.07,0,0,0,0a1.07,1.07,0,0,1,.13.21s.09.21,0,.09l.06.2,0,.13c0,.07,0-.09,0,0v.24c0,.09,0-.09,0,0l0,.11a.56.56,0,0,1,0,.12s.06-.11,0,0a.59.59,0,0,0,0,.08s-.11.13,0,0a.86.86,0,0,1-.13.14l-.07.06c.1-.1.06,0,0,0a1.08,1.08,0,0,1-.18.11l-.08,0s.13,0,0,0l-.18,0a.22.22,0,0,1-.11,0s.16,0,0,0a1.08,1.08,0,0,1-.18,0h-.1s-.15,0-.18,0l-.08,0c-.14,0,.08.06,0,0a.75.75,0,0,0-.81-.07.55.55,0,0,0-.21.19c0,.05,0,0-.06.14,0-.08.06-.26,0,0a.78.78,0,0,0,.41.85,2,2,0,0,0,2,0A2.18,2.18,0,0,0,193.65,33a2.52,2.52,0,0,0-.71-2.13,2.56,2.56,0,0,0-2.35-.71,3.29,3.29,0,0,0-2.07,1.46.46.46,0,0,0,.73.54Z" transform="translate(-12.18 -23.63)"/><path class="cls-2" d="M198.87,30.32a2.59,2.59,0,0,0-2.73-.68A2.46,2.46,0,0,0,195,31.58a3.14,3.14,0,0,0,.67,2.75,2,2,0,0,0,2.48.31,2.85,2.85,0,0,0,.9-1,5,5,0,0,0,.29-.62l.05-.16c0-.14.11-.27.16-.41l-1.07.62c.16,0,.13,0,0,0s-.05,0,0,0c-.08-.11-.08-.12,0,0s.14.25.2.38a4.86,4.86,0,0,0,.62,1,3.09,3.09,0,0,0,1,.8,3.26,3.26,0,0,0,.61.25,1.84,1.84,0,0,0,.84,0,.77.77,0,0,0,.57-.65.79.79,0,0,0-.38-.77c-.09-.06-.09-.06,0,0l-.15-.12a1.45,1.45,0,0,0-.32-.18c-.15-.08-.29-.17-.43-.26s.07.08-.07-.06l-.22-.2-.08-.1h0a1.59,1.59,0,0,1-.13-.22,6.38,6.38,0,0,0-.58-1,1.6,1.6,0,0,0-1.17-.56.88.88,0,0,0-.85.65l-.06.21c0-.16,0,.05,0,.08a3.17,3.17,0,0,1-.21.41,1.27,1.27,0,0,1-.13.19l0,.05-.12.13-.08.06.05,0s-.24.09-.09,0l-.11,0h0c.1,0,.09,0,0,0l-.07,0c.17.06,0,0-.07-.06.15.1,0,0,0-.07s0,.12-.05-.07c0,0-.09-.2-.06-.11a2.35,2.35,0,0,1-.06-1c0-.06,0-.05,0,0a.52.52,0,0,0,0-.11c0-.07,0-.13,0-.19s0-.15.07-.22c-.05.15,0-.05.05-.08s-.07,0,0-.06.11-.17,0-.05c0,0,.12,0,.15,0a2.58,2.58,0,0,1,.93.48.75.75,0,0,0,.9-1.19Z" transform="translate(-12.18 -23.63)"/><path class="cls-2" d="M201.44,25.36c.35,1.52.73,3,1.14,4.52a14,14,0,0,0,1.6,4.43.74.74,0,0,0,1.37-.37,17.73,17.73,0,0,0-1-4.56c-.42-1.5-.79-3-1.14-4.52a1,1,0,0,0-1.93.5Z" transform="translate(-12.18 -23.63)"/><path class="cls-2" d="M204.43,30.77q.28-.11.57-.18l.22,0c.09,0,.1,0,0,0l.15,0h.53s.3,0,.17,0l.3.06.5.14c.09,0,.09,0,0,0l.12.06.19.09.23.15c-.16-.11.07.06.09.09a.49.49,0,0,1,.14.15c-.06-.09-.07-.09,0,0a.41.41,0,0,1,.07.11c0,.09,0,.08,0,0a.5.5,0,0,1,0,.13l0,.06q0,.15,0,0c0,.05,0,.09,0,.13s0,.09,0,0l0,.12c0,.09,0,.08,0,0l0,.05c-.06.09-.05.08,0,0a1.14,1.14,0,0,1-.19.19l-.08.07s-.1.07-.15.11a3.87,3.87,0,0,1-.43.27l-.17.09.05,0-.12,0-.38.08c.12,0,.14,0,0,0s-.06,0,0,0a1.09,1.09,0,0,0-.44,0,.67.67,0,0,0-.49.63c0,.5.48.86.91,1a2,2,0,0,0,1.32-.2,4.61,4.61,0,0,0,.95-.63,2.53,2.53,0,0,0,.73-1,2.23,2.23,0,0,0-.58-2.41,4,4,0,0,0-2.26-1,5.3,5.3,0,0,0-2.64.4.72.72,0,0,0-.3.9.71.71,0,0,0,.84.43Z" transform="translate(-12.18 -23.63)"/><path class="cls-2" d="M210.26,31.7c.19.53.34,1.08.52,1.62l.24.81c0,.14.07.28.12.41s.16.34.24.51a.7.7,0,0,0,1.27-.17,3.38,3.38,0,0,0,.09-.54,2,2,0,0,0,0-.42,9.38,9.38,0,0,0-.12-1.05,8,8,0,0,0-.47-1.66,1.06,1.06,0,0,0-.46-.6,1,1,0,0,0-1.42,1.09Z" transform="translate(-12.18 -23.63)"/><path class="cls-2" d="M210,28.1a.05.05,0,1,0,0-.1.05.05,0,0,0,0,.1Z" transform="translate(-12.18 -23.63)"/><path class="cls-2" d="M209.81,27.44l-.29.3a.43.43,0,0,0-.11.2.45.45,0,0,0,0,.23.58.58,0,0,0,.08.18.93.93,0,0,0,.13.15.91.91,0,0,0,.16.11.62.62,0,0,0,.19.07l.2,0a.64.64,0,0,0,.2,0,.68.68,0,0,0,.2-.07l.07,0a.78.78,0,0,0,.27-.3.94.94,0,0,0,.06-.15.86.86,0,0,0,0-.17v0a1,1,0,0,0,0-.17s0,0,0,0a1.11,1.11,0,0,0-.07-.16,1,1,0,0,0-.13-.18l-.07-.06a.7.7,0,0,0-.17-.13l-.09-.05a.81.81,0,0,0-.22-.07.57.57,0,0,0-.18,0H210l-.17,0h0l-.15.07-.14.1v0a.61.61,0,0,0-.16.6.64.64,0,0,0,.44.45l.15,0a.55.55,0,0,0,.22,0h.08l.15,0a.43.43,0,0,0,.21-.11.29.29,0,0,0,.11-.11.42.42,0,0,0,.1-.2l0-.15,0-.15a.43.43,0,0,0-.11-.21.41.41,0,0,0-.17-.15,1.26,1.26,0,0,0-.26-.13l-.15,0,.28,1.05.07-.08a.57.57,0,0,0,.11-.22l-.06.14,0,0-.1.12h0l-.12.1.06,0-.14.06.08,0-.14,0h.07l-.13,0,.06,0-.12-.05.09.05-.1-.08.06.06L210,28l.05.07L210,28s0,.05,0,.07l0-.13V28l0-.12s0,0,0,.06l.05-.12a.16.16,0,0,1,0,.07l.08-.11-.06.06.11-.08-.09.05.12-.05-.11,0h.14l-.11,0,.11,0-.06,0,.09.07,0,0,.08.1,0,0v.45l.23-.34a.44.44,0,0,0,.05-.15.29.29,0,0,0,0-.16l0-.11a.43.43,0,0,0-.11-.12.45.45,0,0,0-.25-.09.48.48,0,0,0-.3.13Z" transform="translate(-12.18 -23.63)"/><path class="cls-2" d="M213.67,27.38c.29,1.56.62,3.12,1,4.67a11.61,11.61,0,0,0,1.68,4.52c.41.52,1.18,0,1.21-.5a7.2,7.2,0,0,0-.39-2.38q-.31-1.11-.6-2.22c-.38-1.52-.71-3-1-4.6a1,1,0,0,0-1.21-.71,1,1,0,0,0-.71,1.22Z" transform="translate(-12.18 -23.63)"/><path class="cls-2" d="M218.28,31.14a18.51,18.51,0,0,0,.37,2.33,8.48,8.48,0,0,0,.27,1c.05.17.11.33.17.5a1.57,1.57,0,0,0,.32.58,1.81,1.81,0,0,0,.21.18.89.89,0,0,0,.78.2.8.8,0,0,0,.58-.57,1.85,1.85,0,0,0,0-.81c0-.17-.09-.34-.14-.51-.11-.33-.2-.67-.28-1s-.15-.68-.2-1c0-.17-.06-.35-.08-.52v.11c0-.05,0-.1,0-.15l0-.3a1.14,1.14,0,0,0-.3-.72,1,1,0,0,0-.69-.28,1,1,0,0,0-1,1Z" transform="translate(-12.18 -23.63)"/><path class="cls-2" d="M218.05,26.92a1.92,1.92,0,0,0-.17.13l-.13.18a.77.77,0,0,0-.12.26,1.37,1.37,0,0,0,0,.28,1,1,0,0,0,0,.3.94.94,0,0,0,.1.28,1.1,1.1,0,0,0,.17.25s0,0,.05,0a1.24,1.24,0,0,0,.18.14.81.81,0,0,0,.29.12,1.05,1.05,0,0,0,.31,0,1.67,1.67,0,0,0,.31-.05,1.26,1.26,0,0,0,.55-.35,2.43,2.43,0,0,0,.14-.2,2.14,2.14,0,0,0,.1-.22s0-.05,0-.08l0-.2v0a.55.55,0,0,0-.06-.28l0-.08-.12-.15h0l-.17-.13,0,0-.2-.07a.78.78,0,0,0-.31,0,1,1,0,0,0-.48.14l-.07,0a1.09,1.09,0,0,0-.17.13.83.83,0,0,0-.11.15.25.25,0,0,0,0,.07.71.71,0,0,0-.09.28.6.6,0,0,0,0,.23v0a.48.48,0,0,0,.07.18.47.47,0,0,0,.66.18l.05,0-.14,0,.12,0,.13-.06-.15.06.1,0,.11,0-.17,0h.12l-.17,0,.24,0-.18,0,.11,0-.17-.06.09,0-.35-.61v.06l0-.17a.38.38,0,0,1,0,.1l.07-.16a.41.41,0,0,1-.07.11l.11-.14a.57.57,0,0,1-.11.11l.15-.11-.13.08.16-.07-.13,0,.17,0h-.12l.17,0-.11,0,.16.06a.19.19,0,0,1-.09-.05l.13.1-.09-.09.11.14a.33.33,0,0,1-.07-.13l.06.16a.83.83,0,0,1,0-.15l0,.16v-.14l0,.16,0-.13-.05.14a.31.31,0,0,1,.05-.1l-.09.12,0,0a.62.62,0,0,0,.12-.19.54.54,0,0,0,.05-.22l0-.14a.53.53,0,0,0-.11-.21.29.29,0,0,0-.11-.11.42.42,0,0,0-.2-.1l-.14,0a.61.61,0,0,0-.3.08Z" transform="translate(-12.18 -23.63)"/><path class="cls-2" d="M224.06,27c.18,1.5.37,3,.59,4.49.11.71.22,1.42.35,2.13a3.63,3.63,0,0,0,.77,2.14.56.56,0,0,0,.85-.12,3.73,3.73,0,0,0,.06-2.29c-.1-.71-.2-1.42-.32-2.13-.23-1.47-.47-2.95-.7-4.42-.14-.9-1.71-.71-1.6.2Z" transform="translate(-12.18 -23.63)"/><path class="cls-2" d="M223.6,31.38c1,.07,1.93.13,2.9.13A8.24,8.24,0,0,0,228,31.4a4.59,4.59,0,0,0,1.38-.41.39.39,0,0,0,0-.68,5.38,5.38,0,0,0-1.32-.3,11.27,11.27,0,0,0-1.54-.09c-1,0-1.93,0-2.9-.06a.76.76,0,0,0,0,1.52Z" transform="translate(-12.18 -23.63)"/><path class="cls-2" d="M229.93,32.87c.15.16.29.32.43.49l.19.23c.14.18-.07-.1,0,0l.09.12.11.14.09.12.19.26c.13.18.25.37.37.55.23.36.44.73.65,1.09s.47.87.92,1a.41.41,0,0,0,.46-.19,1.85,1.85,0,0,0,0-1.44,9.19,9.19,0,0,0-.57-1.37,10.9,10.9,0,0,0-1.66-2.32.89.89,0,0,0-1.25,0,.9.9,0,0,0,0,1.25Z" transform="translate(-12.18 -23.63)"/><path class="cls-2" d="M233.47,31.82a23.68,23.68,0,0,0-1.3,5.5,14.51,14.51,0,0,0,.26,5.61.78.78,0,0,0,1.53-.19c.06-1.77,0-3.54.18-5.31a22.5,22.5,0,0,1,1.25-5.1,1,1,0,0,0-.7-1.22,1,1,0,0,0-1.22.71Z" transform="translate(-12.18 -23.63)"/><path class="cls-2" d="M104,41.22c12.48.92,25,1.48,37.5,1.55q5.35,0,10.69-.09a.43.43,0,0,0,0-.85c-12.52-.08-25-.29-37.52-1q-5.34-.29-10.67-.68c-.68-.05-.68,1,0,1Z" transform="translate(-12.18 -23.63)"/><path class="cls-2" d="M182.75,40.13q15,.66,29.92,1.24c2.82.11,5.65.18,8.47.26a.47.47,0,0,0,0-.93c-10-.57-19.94-1-29.92-1.39L182.76,39c-.76,0-.76,1.14,0,1.17Z" transform="translate(-12.18 -23.63)"/></svg>