<svg id="Layer_1" data-name="Layer 1" xmlns="http://www.w3.org/2000/svg" viewBox="0 0 224.24 87.46"><defs><style>.cls-1{fill:#486afb;}.cls-2{fill:#fd46fc;}</style></defs><path class="cls-1" d="M.55,60.7q35.37.09,70.75-.23c23.46-.18,46.93-.3,70.38-.72,6.62-.11,13.24-.14,19.85-.25s13.25-.11,19.86-.4a.68.68,0,0,0,0-1.36c-5.89-.06-11.79.15-17.68.24s-11.79.23-17.69.32c-11.79.19-23.58.3-35.37.48-23.46.33-46.92.4-70.39.51-13.24.07-26.47.21-39.71.27a.57.57,0,0,0,0,1.14Z"/><path class="cls-1" d="M.58,61.27c.38.43.78.86,1.19,1.28.2.2.41.4.63.58a3.54,3.54,0,0,0,.44.32,2.6,2.6,0,0,0,.47.24.5.5,0,0,0,.51-.19A.47.47,0,0,0,3.87,63a3.49,3.49,0,0,0-.55-.77c-.19-.23-.39-.44-.59-.65-.4-.42-.79-.85-1.16-1.29a.73.73,0,0,0-.48-.19.79.79,0,0,0-.51.22.7.7,0,0,0,0,1Z"/><path class="cls-1" d="M1.9,60.28a8.93,8.93,0,0,0,.85-.78,6.29,6.29,0,0,0,.82-1c.16-.27.35-.7.16-1A.61.61,0,0,0,3,57.23a1.25,1.25,0,0,0-.41.28,3.16,3.16,0,0,0-.38.43l-.39.43a8.91,8.91,0,0,1-.94.9.75.75,0,0,0-.22.51.77.77,0,0,0,.22.53.74.74,0,0,0,.51.2.83.83,0,0,0,.54-.23Z"/><path class="cls-1" d="M181.77,57.62c-.6-.56-1.17-1.15-1.79-1.68a9.09,9.09,0,0,0-2.06-1.47.53.53,0,0,0-.6.09.5.5,0,0,0-.08.59A8.94,8.94,0,0,0,178.9,57c.6.55,1.25,1.06,1.88,1.58a.7.7,0,0,0,1,0,.68.68,0,0,0,0-1Z"/><path class="cls-1" d="M180.46,58.13c-.63.58-1.24,1.18-1.82,1.81-.29.31-.58.62-.84,1a2.33,2.33,0,0,0-.73,1.43.61.61,0,0,0,.76.58A2.5,2.5,0,0,0,179,62l.83-1c.57-.63,1.16-1.23,1.78-1.81a.78.78,0,0,0,0-1.11.82.82,0,0,0-1.13,0Z"/><path class="cls-1" d="M196.69,37.84a10.32,10.32,0,0,0-2.87.47c-.72.23-1.51.53-1.73,1.33-.43,1.59,1.39,3.2,2.42,4.15a27.37,27.37,0,0,1,3.7,3.6c.17.24.6.67.45.93a2.13,2.13,0,0,1-.92.61,3.83,3.83,0,0,1-2.32.11c-1.89-.48-3.14-2.07-4.13-3.63a.37.37,0,0,0-.67.27,6.73,6.73,0,0,0,3,4.32,5.25,5.25,0,0,0,5,.07c.68-.38,1.54-1.08,1.47-1.94s-1-1.66-1.5-2.22c-1.3-1.31-2.86-2.33-4.17-3.64-.54-.54-1.9-1.81-1.38-2.67.29-.47,1.12-.62,1.62-.75a9.62,9.62,0,0,1,2-.27c.48,0,.51-.75,0-.74Z"/><path class="cls-1" d="M204,44.77a12.62,12.62,0,0,0,2.3,0l.4,0a1,1,0,0,0,.4-.2.67.67,0,0,0,.09-1,.63.63,0,0,0-1,.28.53.53,0,0,0,1,.29h0l-.38.37h0l-.4,0a.56.56,0,0,1-.24-.31l.07-.44h0l.23-.22h0l.33-.09h-.06q.18,0,.09,0s-.25,0-.31,0h-.32l-.73,0c-.47,0-.94,0-1.41,0a.77.77,0,0,0-.76.73.73.73,0,0,0,.73.72Z"/><path class="cls-1" d="M204,47.2l.14,0-.23-.13a1.3,1.3,0,0,0,.75.23l.54,0c.35,0,.71,0,1.06,0a10.94,10.94,0,0,0,1.15-.05c.44,0,1.12-.12,1.13-.71a.67.67,0,0,0-.49-.59,2.56,2.56,0,0,0-.62,0l-1.14,0-1.07,0-.53,0-.31,0a2.63,2.63,0,0,0-.36.1.51.51,0,0,0-.38.48.48.48,0,0,0,.36.47Z"/><path class="cls-1" d="M212.76,39.07c.11,2,.23,3.93.32,5.89,0,1,.1,1.93.14,2.89a7.72,7.72,0,0,0,.37,2.84c.21.45.9.27,1-.15a7.83,7.83,0,0,0-.08-2.81l-.3-2.89c-.2-1.92-.38-3.85-.56-5.78-.05-.57-1-.57-.92,0Z"/><path class="cls-1" d="M214.48,40.62c.33,1.58.61,3.16.83,4.75.11.8.2,1.59.29,2.39a9.78,9.78,0,0,0,.38,2.36c.18.46,1,.57,1.07,0a8.53,8.53,0,0,0-.08-2.52c-.1-.8-.22-1.59-.36-2.38-.27-1.64-.6-3.28-1-4.9-.17-.74-1.32-.41-1.16.31Z"/><path class="cls-1" d="M213.61,40.39c1.67-.78,4.49-1.39,5.69.53a1.89,1.89,0,0,1-.14,2.3,3.25,3.25,0,0,1-1.26.66,11.36,11.36,0,0,1-1.7.49.61.61,0,0,0-.29,1,23.38,23.38,0,0,0,3.61,2.53A20.29,20.29,0,0,0,223.39,50c.59.22,1.17-.69.65-1.09a33.64,33.64,0,0,0-3.68-2.27c-1.23-.74-2.42-1.63-3.71-2.25v1c1.15-.59,2.71-.71,3.51-1.85a3,3,0,0,0,0-3.13,3.79,3.79,0,0,0-2.93-1.72,7.92,7.92,0,0,0-4,1c-.44.21-.07.84.37.64Z"/><path class="cls-2" d="M50.66,75.28c.08,1.8.12,3.6.14,5.4,0,.89,0,1.77,0,2.66,0,.44,0,.88,0,1.32a2.36,2.36,0,0,0,.26,1.23.43.43,0,0,0,.73,0,4.8,4.8,0,0,0,.36-2.45c0-.91,0-1.83,0-2.75,0-1.8-.1-3.6-.2-5.4-.06-.89-1.45-.87-1.41,0Z"/><path class="cls-2" d="M51.3,76.24A4.41,4.41,0,0,1,53.17,76a3,3,0,0,1,.79.16c.06,0,0,0,0,0l.09.05.14.07.09.06h0l.15.13.05.06c-.06-.08,0,0,0,0s.06.13,0,0a.55.55,0,0,1,0,.31,1.76,1.76,0,0,1-.32.73s-.12.15-.06.09l-.14.15-.14.14-.07.06c-.08.07.11-.07,0,0a3.37,3.37,0,0,1-.32.19l-.08,0c.09,0,0,0,0,0l-.22.06s-.09,0,0,0-.08,0-.09,0h-.27l-.1,0-.2,0a1.21,1.21,0,0,1-.33-.15s-.11-.09-.13-.09,0,0,0,0,0,.18,0,.13l-.11.18,0,0-.18.11h-.15A.37.37,0,0,0,52,78a.42.42,0,0,0-.52-.29.58.58,0,0,0-.38.55c0,.42.47.78.81.94a2.43,2.43,0,0,0,2.4-.19,2.91,2.91,0,0,0,1.33-2.29,1.85,1.85,0,0,0-1.56-1.65,5.1,5.1,0,0,0-3,.24.49.49,0,0,0-.34.57.45.45,0,0,0,.56.32Z"/><path class="cls-2" d="M57.16,79.45l-.09,0h-.25l-.23-.13a.38.38,0,0,1,0-.55l.25-.15c.31.14.41.15.29,0,0,0,0,0,0,0l-.08-.16a2.58,2.58,0,0,1-.13-.31,4.68,4.68,0,0,1-.21-.73,4.77,4.77,0,0,1-.05-.76,1.35,1.35,0,0,1,0-.29s.06-.17,0-.1l.06-.11s0,.06,0,0l.1-.09,0,0,.07,0c.1-.06-.1,0,0,0l.13,0c-.12,0,0,0,0,0h.15c.12,0-.08,0,0,0l.16,0,.07,0s0,0,0,0l.17.08.14.09s.13.09.07,0a4.85,4.85,0,0,1,.52.49c.36.37.93-.11.71-.54a2.45,2.45,0,0,0-1.37-1.33,1.7,1.7,0,0,0-1.73.42,2.53,2.53,0,0,0-.33,2.07,5.11,5.11,0,0,0,.2,1,2.72,2.72,0,0,0,.46,1,.67.67,0,0,0,1.17-.36.7.7,0,0,0-.2-.51.59.59,0,0,0-.8,0c-.46.38.14,1.15.62.8Z"/><path class="cls-2" d="M59.56,77.81a1.9,1.9,0,0,0,.58,1.54,1.78,1.78,0,0,0,1.66.42,1.81,1.81,0,0,0,1.28-1.14,1.47,1.47,0,0,0-.42-1.56,3.14,3.14,0,0,0-1.36-.63,5.79,5.79,0,0,1-.71-.21l-.08,0h0a3,3,0,0,0-.32-.1.55.55,0,0,0-.63.52c0,.44.45.67.8.79a5.59,5.59,0,0,0,.71.15l.34.07.14,0,.07,0,0,0,0,0,.12.07.07,0,0,0,.12.1s0,0,0,0-.07-.11,0,0L62,78a.08.08,0,0,1,0,0s0,0,0-.06v.07c0,.1,0-.12,0,0v0s0,0,0,.07a.69.69,0,0,1,0,.08l0-.06,0,.07a.25.25,0,0,0,0,.07l0-.06,0,0a.68.68,0,0,1-.12.12s.14-.1.05,0l-.09,0-.06,0,0,0,.07,0-.15,0s-.06,0-.09,0,.17,0,.06,0a.54.54,0,0,1-.18,0c-.07,0-.06,0,.06,0h-.09l-.08,0c-.11,0,.12.06,0,0l-.15-.08c-.07,0-.05-.07,0,0l-.07-.05L61,78.23l.11.15a1.92,1.92,0,0,1-.18-.31l.07.17a2.45,2.45,0,0,1-.08-.29c0-.07,0,.15,0,.07s0,0,0-.07a.77.77,0,0,1,0-.15.68.68,0,0,0-.2-.49.69.69,0,0,0-.49-.19.73.73,0,0,0-.5.21.84.84,0,0,0-.21.48Z"/><path class="cls-2" d="M63.39,73.12c.28,1.57.56,3.14.92,4.69q.12.56.27,1.11a4.13,4.13,0,0,0,.15.5.71.71,0,0,0,.22.32s.29.15.17.1A.62.62,0,0,0,66,79.5a.54.54,0,0,0-.38-.67.43.43,0,0,0-.43.12l0,0a.42.42,0,0,0,.29.72h0l-.38-.21v0l0-.34.08-.12.36-.16h0l.35.15,0,0,.14.24,0,0v.28a1.89,1.89,0,0,0,0-.82l-.12-.89c-.08-.55-.17-1.09-.26-1.64-.19-1.13-.44-2.25-.66-3.38a.74.74,0,0,0-.9-.51.76.76,0,0,0-.55.9Z"/><path class="cls-2" d="M65.71,77.2l0-.06a.69.69,0,0,1,.11-.13l.13-.12c.09-.08,0,0,0,0a.41.41,0,0,1,.11-.07l.16-.09.08,0h0l.37-.1c.08,0-.1,0,0,0h.09a1,1,0,0,1,.17,0H67s-.12,0,0,0l.2,0,.08,0s.11,0,0,0,0,0,0,0l.08,0,.15.09c.07,0-.07-.07,0,0l.09.07.12.13s.12.16,0,0a2.43,2.43,0,0,1,.2.35s0,.09,0,0l0,.08,0,.17,0,.18s0,.09,0,0a.37.37,0,0,1,0,.11v.17s0,.06,0,.09,0-.07,0,0a1,1,0,0,1,0,.17s-.07.18,0,.12l-.09.15s-.09.15,0,.1a2.47,2.47,0,0,1-.28.28s0,0,0,0l-.12.07a1,1,0,0,1-.17.1,1.44,1.44,0,0,1-.35.11,1.63,1.63,0,0,1-.76,0c-.27-.06-.46.32-.2.46a2.24,2.24,0,0,0,3.1-1.52,2.48,2.48,0,0,0-.43-1.94,2.24,2.24,0,0,0-1.9-.9,2.57,2.57,0,0,0-2.06,1.2.57.57,0,0,0,.2.79.61.61,0,0,0,.8-.23Z"/><path class="cls-2" d="M73,75.57c-1-.7-3.89-1.63-3.91.43a4,4,0,0,0,.53,2.2,2.19,2.19,0,0,0,1.89,1.07,1.8,1.8,0,0,0,1.68-1.76l-1.45.19a2.54,2.54,0,0,0,.72,1.07,2.3,2.3,0,0,0,.52.36,1.54,1.54,0,0,0,.34.12,1.25,1.25,0,0,0,.51,0,.65.65,0,0,0,.47-.45.63.63,0,0,0-.16-.6c0-.07,0-.06,0,0A.49.49,0,0,0,74,78a1.56,1.56,0,0,0-.25-.17c-.13-.08.09.08-.06,0l-.16-.13a1.33,1.33,0,0,1-.29-.29c.06.11,0,0,0,0a1.37,1.37,0,0,1-.13-.2.74.74,0,0,0-1.35.56c0,.08,0,.07,0,0,0,.08,0,.07,0,0l0,.1c0-.08,0-.09,0,0,.08-.14,0,0,0,0s0,0,0,0l-.1.06-.09,0c.09,0,.1,0,0,0s.14,0,0,0-.26,0-.1,0l-.17,0c.17,0,0,0-.08-.05l-.1-.06c.07,0,.07.06,0,0a1.42,1.42,0,0,1-.13-.12.6.6,0,0,1-.08-.08c.06.07.06.07,0,0l-.12-.21s-.1-.21,0-.07a2.11,2.11,0,0,1-.14-.49,1.57,1.57,0,0,1,0-.23.68.68,0,0,1,0-.14c0,.07,0,.06,0,0s0-.29,0-.43c0,.08,0,.09,0,0a.33.33,0,0,1-.07.13s-.23.12-.09.06h.34l.23,0,.17,0a3.74,3.74,0,0,1,.45.12,1.43,1.43,0,0,1,.34.14,3.1,3.1,0,0,1,.47.26.65.65,0,0,0,.87-.24.63.63,0,0,0-.22-.86Z"/><path class="cls-2" d="M74.51,72.28c.2,1.17.4,2.34.61,3.52a17.83,17.83,0,0,0,.75,3.48.57.57,0,0,0,.63.41.61.61,0,0,0,.52-.57,7.58,7.58,0,0,1-.29-2.35c.12-.58.63-1,1.19-.6a1.07,1.07,0,0,1,.23,1.36,1.25,1.25,0,0,1-1.49.36c-.28-.11-.59.21-.35.45a1.82,1.82,0,0,0,2.51-.09,1.94,1.94,0,0,0,0-2.66,1.69,1.69,0,0,0-2.69.23c-.64,1-.17,2.2-.25,3.31H77a18.79,18.79,0,0,0-.46-3.64c-.2-1.2-.4-2.39-.61-3.59a.73.73,0,0,0-.9-.51.77.77,0,0,0-.54.9Z"/><path class="cls-2" d="M80.06,77.34l.28.93a9.47,9.47,0,0,0,.43,1,.65.65,0,0,0,.41.31.7.7,0,0,0,.43,0,.65.65,0,0,0,.34-.29l.07-.16a.65.65,0,0,0,0-.34c0-.32-.07-.64-.14-1l-.23-.93a.81.81,0,0,0-1-.57.9.9,0,0,0-.51.39.81.81,0,0,0-.09.61Z"/><path class="cls-2" d="M79.54,74.4a1.86,1.86,0,0,0,.1.25c0,.08.11.15.16.22a1.4,1.4,0,0,0,.33.26.88.88,0,0,0,.35.1.64.64,0,0,0,.35-.12,1,1,0,0,0,.33-.35,1,1,0,0,0,.14-.46.82.82,0,0,0,0-.35.93.93,0,0,0-.27-.4,1,1,0,0,0-.42-.22.9.9,0,0,0-.49,0,1,1,0,0,0-.23.11.51.51,0,0,0-.24.3.77.77,0,0,0,0,.15.35.35,0,0,0,.11.27.46.46,0,0,0,.28.11h0a.46.46,0,0,0,.2,0l.09,0-.12,0h0l.18,0-.11,0,.12.06-.1-.07.09.09-.08-.1a.31.31,0,0,1,0,.1l0-.12,0,.12,0-.13a.66.66,0,0,1,0,.14l0-.12a1,1,0,0,1,0,.14l0-.12-.07.12.08-.1-.09.08.1-.08-.1.06.13,0h.22l.12,0a.51.51,0,0,1-.16-.09l.1.08a.54.54,0,0,1-.15-.15l.08.11a.81.81,0,0,1-.1-.18l0,.12,0,0a.52.52,0,0,0-.23-.31.5.5,0,0,0-.38,0,.55.55,0,0,0-.32.24.53.53,0,0,0,0,.37Z"/><path class="cls-2" d="M82.68,72.44a34.13,34.13,0,0,0,.59,3.89c.14.62.3,1.23.49,1.83a2.9,2.9,0,0,0,.93,1.69.46.46,0,0,0,.62-.17,3.27,3.27,0,0,0,0-1.86c-.11-.6-.24-1.2-.35-1.8-.21-1.19-.41-2.39-.54-3.6a.83.83,0,0,0-.84-.83c-.41,0-.92.39-.87.85Z"/><path class="cls-2" d="M86.23,77.3c.09.6.18,1.2.3,1.79,0,.29.12.59.19.88a3.14,3.14,0,0,0,.31.89.45.45,0,0,0,.81-.11,3,3,0,0,0,0-.94c0-.31,0-.63-.07-.93-.06-.65-.14-1.3-.23-1.94a.68.68,0,0,0-.85-.48.73.73,0,0,0-.51.84Z"/><path class="cls-2" d="M87,74.21l0,0a.63.63,0,0,0-.11-.13.45.45,0,0,0-.13-.1.05.05,0,0,0,0,0,.68.68,0,0,0-.2-.07.5.5,0,0,0-.21,0,.92.92,0,0,0-.43.11.8.8,0,0,0-.19.13l0,0-.1.14,0,.09,0,.1a1,1,0,0,0,0,.17v0a.44.44,0,0,0,0,.16,1.15,1.15,0,0,0,.06.17,1.77,1.77,0,0,0,.12.17,1.09,1.09,0,0,0,.17.13l.19.08.09,0,.21,0a.92.92,0,0,0,.42-.12l.13-.1,0,0h0a.65.65,0,0,0,.1-.15.71.71,0,0,0,0-.2.77.77,0,0,0,0-.15.4.4,0,0,0-.59-.23h0l.11,0-.14,0-.13.1.1-.07-.06,0,.11-.05-.08,0,.12,0h0l-.11,0,.12,0-.1,0,.1.07-.07-.06.08.1,0-.06,0,.12s0-.05,0-.07v.06l0,.12s0,0,0-.06l0,.12a.21.21,0,0,1,0-.06l-.08.1.06-.06-.12.09.12-.07-.13,0,.12,0-.13,0a.14.14,0,0,1,.09,0l-.12,0,.08,0-.12,0,.06,0-.1-.08s0,0,0,.05l-.08-.1v0a.48.48,0,0,0,.3.22.41.41,0,0,0,.19,0,.33.33,0,0,0,.19-.06.5.5,0,0,0,.23-.3.53.53,0,0,0,0-.37Z"/><path class="cls-2" d="M89.93,74a16.58,16.58,0,0,0,.37,2.22A14.77,14.77,0,0,0,91,78.36a.45.45,0,0,0,.57.18.46.46,0,0,0,.28-.53c-.24-1.41-.48-2.83-.61-4.25a.65.65,0,0,0-.75-.64.69.69,0,0,0-.58.83Z"/><path class="cls-2" d="M90.62,76.76l1.08-.28a9.44,9.44,0,0,0,1.06-.36.79.79,0,0,0,.44-.34.64.64,0,0,0,.09-.43.67.67,0,0,0-.68-.6c-.43,0-.86.08-1.28.16l-1.12.23a.86.86,0,0,0-.53.4.88.88,0,0,0-.1.63.85.85,0,0,0,1,.59Z"/><path class="cls-2" d="M94.2,77.36c.28.43.56.86.85,1.28a8.43,8.43,0,0,0,1,1.25.35.35,0,0,0,.57-.33,8.46,8.46,0,0,0-.71-1.41c-.26-.44-.53-.87-.8-1.3a.52.52,0,0,0-.7-.18.51.51,0,0,0-.19.69Z"/><path class="cls-2" d="M97.15,77.24h0a.8.8,0,0,0,.58-.74.83.83,0,0,0-.43-.75.81.81,0,0,0-.93.14A1.63,1.63,0,0,0,96,77c-.06.49-.1,1-.15,1.46q-.13,1.41-.24,2.82c-.12,1.9-.18,3.82-.14,5.73a.45.45,0,0,0,.89.1c.34-1.72.57-3.47.78-5.22.11-.87.19-1.74.26-2.61L97.52,78c0-.21,0-.42,0-.63l0-.41c.05-.26,0-.28-.11-.07l-.93.14,0,0-.38-.66v.07l.59-.74h0c-.93.31-.59,1.77.37,1.46Z"/><path class="cls-2" d="M74.57,5.24c.24,1.47.41,3,.52,4.45,0,.73.09,1.47.11,2.21a18.17,18.17,0,0,0,.1,2.33c.1.67.92.65,1.33.33a1.3,1.3,0,0,0,.43-.75.53.53,0,0,0-.78-.59c-.08,0-.1,0-.2,0l.75,1a12,12,0,0,0,.07-2.32c0-.8-.07-1.6-.13-2.39-.13-1.58-.32-3.14-.58-4.7a.82.82,0,0,0-1-.58.87.87,0,0,0-.61,1Z"/><path class="cls-2" d="M76.65,4.44a2.84,2.84,0,0,1,.73-.56l.14-.07.23-.08.21,0c-.09,0,0,0,0,0h.16a1,1,0,0,1,.63.19.6.6,0,0,1,.18.21l0,.1s0-.08,0,0l.06.24c0-.09,0,.07,0,.1s0,.13,0,.2,0,0,0,0l0,.11a2,2,0,0,1-.07.23c0-.1,0,.07,0,.09a1.62,1.62,0,0,1-.1.18l-.07.09h0l-.17.18-.2.17c.09-.07-.07,0-.1.06a4.17,4.17,0,0,1-.46.26l-.21.1s-.12,0,0,0l-.1,0-.5.18-.52.16-.23.07-.12,0s-.18,0-.09,0,0,0-.06,0h-.18c.09,0,0,0-.07,0a2.15,2.15,0,0,0-.55-.11.55.55,0,0,0-.54.53c0,.63.64.91,1.16.94A3,3,0,0,0,77,7.82a6.63,6.63,0,0,0,2.38-1.25,2.83,2.83,0,0,0,.9-2.22,2,2,0,0,0-1.67-1.84,3.32,3.32,0,0,0-2.82,1.08.62.62,0,0,0,0,.87.65.65,0,0,0,.88,0Z"/><path class="cls-2" d="M82.48,6.93A4,4,0,0,1,82,5.54a2.6,2.6,0,0,1,.08-1.3s.1-.14,0-.09l.11-.1a.3.3,0,1,0,0,0l.06,0h0a1.34,1.34,0,0,1,.27-.07c-.07,0,.07,0,.08,0h.16l.09,0,.19,0a2.08,2.08,0,0,1,.32.12c.25.12.49.24.76.34a.43.43,0,0,0,.42-.7,2.94,2.94,0,0,0-1.81-.8,1.73,1.73,0,0,0-1.51.74,2.88,2.88,0,0,0-.28,1.83,5.4,5.4,0,0,0,.54,1.93.51.51,0,0,0,.88-.51Z"/><path class="cls-2" d="M85.12,5.83a2,2,0,0,0,.94,2.11,2.55,2.55,0,0,0,2.4,0,2.75,2.75,0,0,0,1.61-1.56A1.67,1.67,0,0,0,89,4.53a8.5,8.5,0,0,0-2.08-.7,3.1,3.1,0,0,0-1.25-.08.65.65,0,0,0-.53.69.7.7,0,0,0,.64.58l.12,0,.15,0h.08l.13,0,.51.11.47.14.25.09c-.11,0,0,0,0,0l.15.06.44.22.2.11.09.06s-.12-.1,0,0l.13.13c.1.09,0,0,0,0l0,.09c.08.12,0-.05,0-.06l0,.1s0-.18,0,0V6c0,.07,0,.07,0,0s0,0,0,0,0,.06,0,0h0l-.16.15c-.1.1,0,0,0,0l-.12.08-.24.15-.25.12c-.11.06.16,0,0,0l-.14,0-.27.07s-.16,0,0,0-.06,0-.07,0h-.12c-.16,0,.1,0,0,0l-.08,0-.07,0c-.06,0,0,0,.08,0S87,6.51,87,6.49s0,0,0,0l-.12-.1-.06-.06c-.1-.11,0,0,0,0s-.14-.26-.08-.12,0-.12,0-.13,0,.17,0,.07,0,.18,0,0a.82.82,0,0,0-.59-1,.89.89,0,0,0-1.06.61Z"/><path class="cls-2" d="M89.84.86l.31,3.34.15,1.67a9.75,9.75,0,0,0,.22,1.72.71.71,0,0,0,1.39-.19,5.68,5.68,0,0,0-.1-1.16,2.55,2.55,0,0,1-.06-1c.17-.72,1.11-.5,1.56-.24a2.53,2.53,0,0,1,.8.69c.15.23.15.31-.12.39a14.09,14.09,0,0,1-2.6.16c-.64.06-.88,1-.18,1.16a5.54,5.54,0,0,0,2,0A3.36,3.36,0,0,0,94.86,7a1.27,1.27,0,0,0,.39-1.64,3,3,0,0,0-1.13-1.12,2.34,2.34,0,0,0-3,0,2,2,0,0,0-.55,1.41,5,5,0,0,1-.08,1.55l1.38.16a9.4,9.4,0,0,0-.13-1.67L91.6,4.12,91.23.85a.69.69,0,0,0-.68-.68.72.72,0,0,0-.71.69Z"/><path class="cls-2" d="M99.3,4.45a1.52,1.52,0,0,0-1.86-.87,2.07,2.07,0,0,0-1.35,2,1.85,1.85,0,0,0,1.53,2A1.57,1.57,0,0,0,98.84,7a1.5,1.5,0,0,0,.32-.61,1.38,1.38,0,0,0,0-.67.61.61,0,0,0-.75-.42A.64.64,0,0,0,98,6a2.78,2.78,0,0,0,1.61,1.88,2.69,2.69,0,0,0,2.51-.07.48.48,0,0,0-.36-.88,2.47,2.47,0,0,1-.39,0H101a2.33,2.33,0,0,1-.77-.23,2,2,0,0,1-.65-.48A.86.86,0,0,1,99.32,6c-.08-.13-.15-.27-.22-.41L98,6.19a.39.39,0,0,1,.06.11L98,6s0,.14,0,.11,0,0,0,0l0,0,0,0c-.06,0-.05,0-.09,0s0,0,0,0h-.07l-.08,0a.77.77,0,0,1-.34-.35,1.19,1.19,0,0,1-.11-.57,1,1,0,0,1,.51-.9.66.66,0,0,1,.86.34c.18.39.87.1.72-.3Z"/><path class="cls-2" d="M101.1.85l.69,3.56c.11.58.23,1.16.34,1.74A6.61,6.61,0,0,0,102.61,8l1.2-.69A1.25,1.25,0,0,1,104,5.67a.84.84,0,0,1,1.35.23c.24.53-.23.9-.71,1a5.05,5.05,0,0,1-2.07-.51.37.37,0,0,0-.36.6,2.9,2.9,0,0,0,3.19.78,1.68,1.68,0,0,0,.77-2.47,1.91,1.91,0,0,0-2.65-.5,2.74,2.74,0,0,0-1,3c.18.79,1.3.53,1.36-.19a6.44,6.44,0,0,0-.29-1.79L103.22,4,102.44.49c-.19-.87-1.51-.48-1.34.36Z"/><path class="cls-2" d="M107.1,6.22c.06.26.11.51.18.76s.09.25.13.37a2,2,0,0,0,.13.31l.1.17a.6.6,0,0,0,.67.27,1,1,0,0,0,.29-.16.73.73,0,0,0,.18-.42,2.42,2.42,0,0,0,0-.38c0-.18,0-.37-.06-.55s-.09-.51-.13-.77a.78.78,0,0,0-.36-.47.84.84,0,0,0-.58-.07.88.88,0,0,0-.49.37.81.81,0,0,0-.08.57Z"/><path class="cls-2" d="M107.12,3.46a.54.54,0,0,0,.15.25.51.51,0,0,0,.24.13.37.37,0,0,0,.18,0,.57.57,0,0,0,.18,0,.61.61,0,0,0,.26-.15.53.53,0,0,0,.12-.14.65.65,0,0,0,.08-.27.59.59,0,0,0,0-.14.45.45,0,0,0-.14-.24.3.3,0,0,0-.08-.08l-.19-.13a1.22,1.22,0,0,0-.33-.14,1.42,1.42,0,0,0-.36,0h0l-.14,0a.35.35,0,0,0-.2.1.53.53,0,0,0-.16.17.35.35,0,0,0-.07.15.85.85,0,0,0,0,.23.71.71,0,0,0,0,.25s0,0,0,.06c-.06-.16,0,.1,0,.14l.11.13,0,0a.5.5,0,0,0,.22.13h.14l.14,0a.45.45,0,0,0,.27-.2l0-.12,0,.11s0-.08,0-.13a.15.15,0,0,0,0-.07.24.24,0,0,0,0-.12.22.22,0,0,0,0-.08l0,.13v0a1.1,1.1,0,0,0,0-.18l0,.13a.14.14,0,0,1,0-.09l0,.13a.29.29,0,0,1,0-.09l0,.13,0-.09-.35.27a.4.4,0,0,1,.15,0l-.14,0,.17,0-.14,0a.74.74,0,0,1,.21,0l-.13,0,.19,0-.11,0,.13.06-.22-.28v0l0-.12s0,0,0,0l0-.11v0l0-.11s0,0,0,0l.08-.09,0,0,.09-.07,0,0,.12,0h-.05l.11,0h0l.11,0h0l.09.07,0,0,.07.09,0,0a.25.25,0,0,0-.12-.13.35.35,0,0,0-.15-.07l-.11,0a.58.58,0,0,0-.18,0,.33.33,0,0,0-.1.06.49.49,0,0,0-.12.13l0,.11a.45.45,0,0,0,0,.23Z"/><path class="cls-2" d="M108.64,1.53a18.73,18.73,0,0,0,.3,3.5,16.31,16.31,0,0,0,.42,1.67c.17.52.41,1.31,1,1.46a.52.52,0,0,0,.54-.23c.3-.44,0-1.16-.08-1.62s-.27-1.08-.38-1.62a17.84,17.84,0,0,1-.3-3.18.75.75,0,0,0-1.5,0Z"/><path class="cls-2" d="M112.12,6.22l.21.84.12.41a3.32,3.32,0,0,0,.23.51.56.56,0,0,0,.63.25.61.61,0,0,0,.44-.55,3,3,0,0,0,0-.42c0-.19,0-.38-.05-.58l-.11-.86a.72.72,0,0,0-.36-.46.75.75,0,0,0-.57-.06.78.78,0,0,0-.55.92Z"/><path class="cls-2" d="M111.54,3.23a3,3,0,0,0-.09.43c0,.11,0,.22,0,.34a.54.54,0,0,0,.29.49,1.2,1.2,0,0,0,.46.11,1,1,0,0,0,1-.52.5.5,0,0,0-.31-.74h0l.12,0a2.35,2.35,0,0,0-1.17-.19c-.29,0-.66.08-.79.38a.4.4,0,0,0,0,.37.44.44,0,0,0,.27.21,1,1,0,0,0,.43,0l-.12,0a2.46,2.46,0,0,1,.47,0h-.13a2,2,0,0,1,.48.12l-.12,0a.48.48,0,0,1,.16.08l0-.89a.7.7,0,0,1-.17.09l.14-.06a1,1,0,0,1-.25.06l.15,0h0a.4.4,0,0,1-.15,0l.14,0h0l.29.5a3.94,3.94,0,0,0,0-.77l0-.13a.29.29,0,0,0-.13-.14.47.47,0,0,0-.3-.1.52.52,0,0,0-.5.38Z"/><path class="cls-2" d="M114.85,1c.07,1.14.17,2.27.3,3.4.07.55.14,1.09.22,1.63a6.18,6.18,0,0,0,.4,1.71c.22.47.89.19.92-.25a7,7,0,0,0-.21-1.63c-.09-.54-.17-1.08-.25-1.62-.15-1.08-.26-2.16-.34-3.25,0-.66-1.08-.64-1,0Z"/><path class="cls-2" d="M115.86,4.58c1.17,0,2.33,0,3.5-.1a.5.5,0,0,0,.48-.47.47.47,0,0,0-.47-.46c-1.16-.1-2.32-.09-3.49-.09a.58.58,0,0,0-.58.56.55.55,0,0,0,.56.56Z"/><path class="cls-2" d="M120,6a4.92,4.92,0,0,0,.76,1.43,3.91,3.91,0,0,0,.57.65,2.2,2.2,0,0,0,.4.3l.16.07a1.22,1.22,0,0,0,.42.09.54.54,0,0,0,.52-.67.92.92,0,0,0-.09-.25l-.09-.12a3.52,3.52,0,0,0-.31-.35c-.15-.17-.3-.33-.44-.51l.11.15a4.62,4.62,0,0,1-.63-1.1l.07.17-.09-.23a.74.74,0,0,0-.32-.42A.72.72,0,0,0,120,6Z"/><path class="cls-2" d="M122.84,6A25,25,0,0,0,122,9.83a10.18,10.18,0,0,0,0,3.85.65.65,0,0,0,1.24,0c.25-1.22.25-2.48.42-3.72a21.52,21.52,0,0,1,.78-3.54c.31-1-1.28-1.38-1.59-.39Z"/><path class="cls-2" d="M138.71,7.64a5.19,5.19,0,0,1-.46-1.48,4.48,4.48,0,0,1-.05-.73,1,1,0,0,1,.09-.46s0,0,0,0h0l0,0s-.06,0-.06,0a.93.93,0,0,0,.1.1,2.59,2.59,0,0,1,.32.59A3.26,3.26,0,0,1,138.87,7H140c0-.51-.18-1.18.13-1.6l.09-.11.11-.08c.07,0,0,0,.08,0s.17,0,.09,0a.18.18,0,0,1,.16.06c-.06-.07.07.06.07.06s0,0,.06.07l.09.17c.09.17,0-.1,0,.08s.09.27.13.4c.08.32.15.64.2,1s.05.56.07.88a2.19,2.19,0,0,0,.21,1.19.59.59,0,0,0,.93.1,1.26,1.26,0,0,0,.31-.81,3.64,3.64,0,0,0,0-.66,11.38,11.38,0,0,0-.22-1.3,3.19,3.19,0,0,0-1.16-2.11,1.64,1.64,0,0,0-2,.48,3.12,3.12,0,0,0-.47,2.42.55.55,0,0,0,.62.41A.59.59,0,0,0,140,7a4.44,4.44,0,0,0-.6-2.07c-.34-.56-1-1.24-1.65-.78A2,2,0,0,0,137.18,6a6.16,6.16,0,0,0,.51,2.28.59.59,0,0,0,.8.2.6.6,0,0,0,.22-.79Z"/><path class="cls-2" d="M143.57,6.92a2.9,2.9,0,0,0,3-.41,1.75,1.75,0,0,0,.67-1.29,1.07,1.07,0,0,0-1.15-1,2.19,2.19,0,0,0-2,1.74,2.49,2.49,0,0,0,1.36,2.56A3.16,3.16,0,0,0,149,7.88a.57.57,0,0,0,.05-.76.58.58,0,0,0-.75-.13,4.35,4.35,0,0,1-.94.34l-.27,0-.11,0h-.06a2.42,2.42,0,0,1-.48,0l-.24-.05-.09,0c-.11,0,.08,0,0,0a.76.76,0,0,1-.18-.09l-.12-.07c-.09,0,.07.06,0,0a2.58,2.58,0,0,1-.34-.32c-.05-.06,0,0,0,0a1,1,0,0,1-.08-.11s-.11-.21-.08-.14a1,1,0,0,1,.35-1.25.9.9,0,0,1,.27-.11.74.74,0,0,1,.21,0s.08,0,0,0-.18.36-.27.43a1.94,1.94,0,0,1-1.87.24c-.59-.23-1.06.8-.45,1Z"/><path class="cls-2" d="M152.12,5.32A1.68,1.68,0,0,0,150,5a2.17,2.17,0,0,0-1,2.2,1.62,1.62,0,0,0,.71,1.2,1.53,1.53,0,0,0,1.44,0,2.73,2.73,0,0,0,1-.92l.16-.24a.83.83,0,0,0,.08-.12l0,0a1.9,1.9,0,0,1,.19-.21q.09-.08,0,0c.07,0,.08,0,0,0L152,6.39a4.78,4.78,0,0,0,1,1.65,3.89,3.89,0,0,0,.67.61,2.51,2.51,0,0,0,.92.43c.57.15,1.13-.63.63-1.06-.22-.19-.44-.37-.67-.54l-.06-.05-.15-.13L154,7.05a4.3,4.3,0,0,1-.85-1.14.64.64,0,0,0-.85-.21A4.12,4.12,0,0,0,151,6.89l-.15.15s0,0,0,0l-.09.06-.15.08c.12-.06-.06,0-.08,0s0,0-.08,0c.13,0,0,0-.07,0s0,0,0,0-.06-.13-.06-.13a1.22,1.22,0,0,1-.08-.62.88.88,0,0,1,.23-.52.68.68,0,0,1,1,0,.44.44,0,0,0,.63,0,.45.45,0,0,0,0-.63Z"/><path class="cls-2" d="M157.52,3.94a1.18,1.18,0,0,0-1.14,1.2,1.88,1.88,0,0,0,.78,1.51c.11.09.22.18.32.28l.15.15c0,.06,0,0,0,0l.06.09a.41.41,0,0,1,0,.09h0a.37.37,0,0,1,.19-.37c-.07,0,0,0,.05,0l-.08,0-.09,0h0a2.51,2.51,0,0,1-.48,0l-.55,0a11.69,11.69,0,0,0-1.19.08.56.56,0,0,0-.41.46.52.52,0,0,0,.26.53A2.6,2.6,0,0,0,157,8.5a.45.45,0,0,0,.43-.37.4.4,0,0,0-.3-.46,1.72,1.72,0,0,1-1-.51l-.54.91a11.74,11.74,0,0,0,1.18.1,8.87,8.87,0,0,0,1,0,1.27,1.27,0,0,0,1-.52,1,1,0,0,0-.06-1.17,3.09,3.09,0,0,0-.67-.68l-.32-.27-.15-.15h0a.16.16,0,0,1,0-.07c-.09-.14,0,.07,0,0s0-.12,0-.16,0,.1,0,0V5.13s0,0,0-.08,0,.1,0,0-.05,0,0,0-.06.05,0,0l-.05,0c.05,0,0,0-.06,0,.08,0-.14,0,0,0a.62.62,0,0,0,.6-.59.59.59,0,0,0-.58-.57Z"/><path class="cls-2" d="M159.09,6.24a2.61,2.61,0,0,0,2.39,2.19,2.25,2.25,0,0,0,2.38-2.14,1.9,1.9,0,0,0-.81-1.52.91.91,0,0,0-1-.12.51.51,0,0,0-.26.56,1.19,1.19,0,0,0,.08.2s.11.2.18.22-.09-.12,0,0l0,0,.07.11,0,.07c.05.1,0-.05,0-.06a.49.49,0,0,0,.05.16l0,.13s0,0,0,.08,0,.07,0-.08c0,.1,0,.21,0,.32s.05-.19,0,0l0,.13c0,.12,0-.08,0-.08a.15.15,0,0,1,0,.07l-.08.15-.05.07s.14-.17.05-.07l-.11.1c-.14.13.14-.09,0,0l-.16.09-.08,0c-.08,0,.21-.07.06,0l-.16,0-.08,0c-.13,0,.15,0,0,0h-.25c-.14,0,0,0,.05,0a.65.65,0,0,0-.19,0l-.06,0c-.15-.05.16.08,0,0l-.16-.09-.07,0c-.11-.07.1.08,0,0l-.13-.11-.14-.15s-.05-.1,0,.06a.35.35,0,0,0-.05-.08l-.1-.17a.59.59,0,0,1,0-.08c0-.06,0-.12,0,0,0-.13-.08-.26-.11-.39a.74.74,0,0,0-.91-.52.8.8,0,0,0-.55.91Z"/><path class="cls-2" d="M165.66,7.59a5.12,5.12,0,0,1-.14-.68c0,.09,0-.11,0-.11s0-.11,0-.17,0-.23,0-.35,0-.22,0-.32,0,.09,0,0,0-.16,0-.07v0l0,.06c-.14.1.08,0-.08,0l.11,0c-.13,0,0,0,.06,0A10.4,10.4,0,0,1,167,6l1.42.2a.49.49,0,0,0,.56-.33.44.44,0,0,0-.31-.55A16,16,0,0,0,167,4.88l-.86-.16a2.59,2.59,0,0,0-.92,0,1.37,1.37,0,0,0-1,1.44,5.6,5.6,0,0,0,.21,1.82.65.65,0,0,0,.79.45.69.69,0,0,0,.48-.8Z"/><path class="cls-2" d="M170.14,7.62a2.37,2.37,0,0,0,3.2-.56,1.82,1.82,0,0,0-.71-2.67,2,2,0,0,0-2.54,1.31A2,2,0,0,0,170,7.57a2.45,2.45,0,0,0,1.22,1,5.49,5.49,0,0,0,4.35.13.51.51,0,0,0-.25-1,11.92,11.92,0,0,1-2.67-.09,4.65,4.65,0,0,1-1.11-.34,1.48,1.48,0,0,1-.37-.24.69.69,0,0,1-.21-.32,1.41,1.41,0,0,1,.24-1,1.25,1.25,0,0,1,.66-.64.73.73,0,0,1,.78.33.81.81,0,0,1,.06.86,1.48,1.48,0,0,1-2.08.49c-.56-.3-1.08.55-.51.86Z"/><path class="cls-2" d="M83.71,12c4.8,0,9.61-.19,14.4-.48q3.57-.21,7.13-.52c2.36-.2,4.75-.37,7.07-.8a.32.32,0,0,0-.07-.64c-2.37.11-4.74.43-7.11.65s-4.75.4-7.12.56q-7.14.45-14.29.54a.35.35,0,0,0,0,.69Z"/><path class="cls-2" d="M137.57,11.66c8.78.26,17.56.33,26.34.14,2.49-.06,5-.12,7.46-.36.41,0,.45-.65,0-.66-4.38-.09-8.78.17-13.17.25s-8.78.13-13.17.12c-2.49,0-5,0-7.46-.08a.3.3,0,0,0,0,.59Z"/><path class="cls-2" d="M105.3,76.9a2.66,2.66,0,0,0,2.69-.34,1.09,1.09,0,0,0,.4-1.19,1.36,1.36,0,0,0-.9-.82,1.88,1.88,0,0,0-2,.76,2.23,2.23,0,0,0,.13,2.46,2.71,2.71,0,0,0,2.89,1,.58.58,0,0,0,.42-.53.55.55,0,0,0-.4-.53,5.3,5.3,0,0,0-.55-.1c.14,0,0,0,0,0l-.13,0-.25-.06-.24-.06s-.21-.09-.09,0a3.68,3.68,0,0,1-.44-.23l-.08-.06c.1.07,0,0,0,0l-.16-.15-.06-.07c-.1-.11,0,.07,0,0l-.13-.23,0-.08c-.06-.13,0,.06,0,0s0-.14-.07-.21,0-.06,0-.09,0,.06,0,0a2.09,2.09,0,0,1,0-.25s0-.1,0,0,0-.07,0-.1a1.87,1.87,0,0,1,.07-.22c0,.09,0,0,0-.07l0-.06s0,0,.06-.06a.8.8,0,0,1,.13-.13c-.06,0,0,0,0,0l.08-.06.08,0c-.06,0,0,0,0,0l.22-.06a.83.83,0,0,1,.52.1.52.52,0,0,1,.19.28.28.28,0,0,1-.08.24,1.76,1.76,0,0,1-1.83.23.5.5,0,0,0-.65.19.46.46,0,0,0,.17.63Z"/><path class="cls-2" d="M108.78,76.54a4.49,4.49,0,0,0,2.28,2.22.77.77,0,0,0,1-.29,9.92,9.92,0,0,0,.66-2.13,10.78,10.78,0,0,0,.16-1.14,2.15,2.15,0,0,0-.14-1.15.49.49,0,0,0-.83,0,3.06,3.06,0,0,0-.28,1c-.06.33-.13.65-.21,1s-.19.63-.31.94l-.08.2s0,.09,0,.13,0-.06-.06.13c0,0-.09.21,0,.09l-.12.25,1-.29a3.34,3.34,0,0,1-.62-.33s-.18-.13,0,0l-.11-.09-.26-.23-.23-.24-.11-.13c.09.15,0,0,0,0a3.56,3.56,0,0,1-.34-.6.76.76,0,0,0-1.31.75Z"/><path class="cls-2" d="M113.88,77a2.28,2.28,0,0,0,2.55-.28,1.23,1.23,0,0,0,.29-1.18,1.76,1.76,0,0,0-.82-1,1.27,1.27,0,0,0-1.26-.08,1.64,1.64,0,0,0-.67,1.09,2.59,2.59,0,0,0,.67,2.34,2.32,2.32,0,0,0,2.72.45.51.51,0,0,0,.24-.56.5.5,0,0,0-.48-.37h-.4a.67.67,0,0,1-.2,0h-.12a1,1,0,0,1-.38-.1l.07,0-.12,0c-.24-.09.1,0,0,0l-.21-.11s-.16-.11-.06,0l-.13-.09c.06,0,.08,0,0,0l-.07-.06a.93.93,0,0,1-.14-.14l-.06-.07c.08.13,0,0,0,0a1,1,0,0,1-.11-.17s-.08-.23,0-.09a3.25,3.25,0,0,1-.11-.42c0-.08,0,.08,0,0a.37.37,0,0,1,0-.11,1.09,1.09,0,0,1,0-.18s0-.06,0-.09,0-.15,0-.07,0-.08,0-.07l0-.14a1.77,1.77,0,0,1,.06-.17c0,.09.06-.11,0-.07s.08-.07,0,0,.08,0,0,0h.1a1,1,0,0,1,.58.36.37.37,0,0,1,.1.28.29.29,0,0,1,0,.09s0,0,0,0l0,.06s0,0,0,0l-.07.08,0,0a2,2,0,0,1-.19.12s-.09,0,0,0l-.12,0s-.08,0,0,0h-.17a3.37,3.37,0,0,1-1.1-.28.52.52,0,0,0-.62.36.48.48,0,0,0,.35.6Z"/><path class="cls-2" d="M119.38,77.46l-.11-.18a1,1,0,0,1,0-.1s0-.08,0,0a1.56,1.56,0,0,1-.11-.41c0-.13,0,.08,0-.05v-.08a.81.81,0,0,1,0-.22s0-.08,0-.13,0,0,0,0a1.74,1.74,0,0,1,0-.22l0-.11s0-.12,0,0,0-.06,0-.06l0-.09c.07-.13.15-.24.23-.36s-.1.11,0,0l.07-.08a2.43,2.43,0,0,0,.2-.25c0-.07,0-.06,0,0s.07-.09.1-.12l.15-.22a.47.47,0,0,0,0-.52.48.48,0,0,0-.5-.17,1.69,1.69,0,0,0-1,.78,2.69,2.69,0,0,0-.35,1,3.19,3.19,0,0,0,.33,2.14.5.5,0,0,0,.68.17.51.51,0,0,0,.19-.68Z"/><path class="cls-2" d="M120.92,76.37a6.43,6.43,0,0,0,1,1.27,5,5,0,0,0,.68.53,1.69,1.69,0,0,0,.85.28.47.47,0,0,0,.46-.58,1.83,1.83,0,0,0-.23-.49c-.12-.18-.25-.34-.38-.5l.12.15-.45-.56.13.16a13.15,13.15,0,0,1-.76-1.08.81.81,0,0,0-1.11-.28.83.83,0,0,0-.39.49.77.77,0,0,0,.08.61Z"/><path class="cls-2" d="M123.74,75.17a18.38,18.38,0,0,0-1.25,4.49,11.73,11.73,0,0,0,.06,4.61.64.64,0,0,0,1.24-.17c.08-1.46,0-2.92.23-4.38a18.46,18.46,0,0,1,1.15-4.19.73.73,0,0,0-.51-.89.79.79,0,0,0-.92.53Z"/><path class="cls-2" d="M126.48,76.09a4.81,4.81,0,0,0,.42,1.15,2,2,0,0,0,.71.86c.74.4,1.53-.14,2-.66l-.7,0a2.61,2.61,0,0,0,1.13.9,1.62,1.62,0,0,0,1.47-.29,2.73,2.73,0,0,0,.77-2.93c-.1-.37-.72-.39-.78,0-.11.65,0,1.52-.56,2a.63.63,0,0,1-.62.21,1.7,1.7,0,0,1-.71-.62.5.5,0,0,0-.69,0c-.19.19-.65.69-.93.43a2.34,2.34,0,0,1-.36-.61,3.76,3.76,0,0,1-.25-.76c-.14-.6-1.08-.33-.94.26Z"/><path class="cls-2" d="M132.33,73.33a26.15,26.15,0,0,1,.67,4,.58.58,0,0,0,.36.54.62.62,0,0,0,.66-.14c.24-.27.52-.51.78-.76a3.24,3.24,0,0,1,.38-.36l.08,0c.06,0,.08,0,.06,0s0,0-.08,0,0,.06,0,0a1.62,1.62,0,0,0,.1.18c.06.13.11.26.16.39.11.31.2.63.29,1a.53.53,0,0,0,1-.14,2.92,2.92,0,0,0-.26-1.43,1.66,1.66,0,0,0-.89-1,1.4,1.4,0,0,0-1.36.43c-.35.3-.67.64-1,.92l.9.5a17.44,17.44,0,0,0-.54-4.37c-.21-.84-1.54-.47-1.33.36Z"/><path class="cls-2" d="M138.2,77.42a4,4,0,0,0,2.86-.26,1.37,1.37,0,0,0,.73-1.06,1.34,1.34,0,0,0-.43-1.07,1.7,1.7,0,0,0-2.37.26,2.32,2.32,0,0,0-.31,2.69c.7,1,2,1,3.07,1a.53.53,0,0,0,.28-1,3.78,3.78,0,0,0-1.19-.34,4.37,4.37,0,0,1-.5-.09l-.25-.07-.09,0,0,0-.18-.1-.1-.06c-.08,0,.06.06,0,0s-.11-.1-.15-.16,0,0,0,0a1.09,1.09,0,0,1-.08-.15c0,.07,0,0,0,0l0-.14a1.69,1.69,0,0,1,.05-.63,1,1,0,0,1,1.2-.74.59.59,0,0,1,.35.49.85.85,0,0,1,0,.23.53.53,0,0,1-.26.23,2.08,2.08,0,0,1-.48.16,3.63,3.63,0,0,1-.56.09,4,4,0,0,1-1.25-.06c-.53-.12-.78.69-.23.83Z"/><path class="cls-2" d="M144.19,77.79a2.5,2.5,0,0,1-.21-.35s0-.11-.08-.16,0,0,0,0l0-.08c0-.13-.06-.27-.08-.4s0-.11,0,0,0,0,0-.07a1.34,1.34,0,0,1,0-.2c0-.06,0-.12,0-.18a.45.45,0,0,1,0-.12s0,.1,0,0a1.29,1.29,0,0,1,0-.19l0-.08c0-.07-.06.1,0,0l0-.08s-.08.1,0,0,.09-.07,0,0,0,0,0,0,0,0-.06,0l.15-.06s-.12,0,0,0c-.15,0,0,0,.09,0s.11,0,0,0a.53.53,0,0,0,.43-.25.46.46,0,0,0,0-.48.84.84,0,0,0-.7-.37,1.16,1.16,0,0,0-.74.3,1.63,1.63,0,0,0-.46,1.21,3.6,3.6,0,0,0,.8,2.18.51.51,0,0,0,.8-.61Z"/><path class="cls-2" d="M145.93,77.7a2.29,2.29,0,0,0,2.14-.85,1.57,1.57,0,0,0-.18-2,1.47,1.47,0,0,0-2.08.32,2,2,0,0,0,.19,2.54,3.63,3.63,0,0,0,3,1,.53.53,0,0,0,.52-.45.49.49,0,0,0-.37-.55c-.36-.11-.73-.2-1.1-.29l-.27-.08-.11,0-.09,0-.08,0-.1,0-.27-.14-.09,0,0,0L147,77l-.08-.07-.17-.17-.06-.07c.09.1,0,0,0-.06a1.62,1.62,0,0,1-.1-.18c-.07-.13,0,.09,0-.05l0-.09s0-.06,0-.09,0,.09,0,0v-.1s0-.12,0,0a1.46,1.46,0,0,1,.05-.2c0,.08,0,0,0,0a1.05,1.05,0,0,1,.07-.11.43.43,0,0,1,0-.07c-.05.07,0,0,0,0l.08-.08c.07-.08-.06,0,0,0l.18-.1c-.07,0,.08,0,.11,0s-.09,0,0,0h.08c.11,0-.06,0,.06,0s.11,0,.05,0l.07,0,.05,0s0,.05,0,0l.05.06s.05.07.06.1a.43.43,0,0,1,0,.07c0-.06,0,0,0,.07a.89.89,0,0,1,0,.64c-.25.56-1,.7-1.61.65a.32.32,0,0,0-.32.3.31.31,0,0,0,.31.31Z"/><path class="cls-2" d="M150.94,73.36c.07,1.65.13,3.29.36,4.93a.47.47,0,0,0,.53.34.52.52,0,0,0,.44-.48c.15-1.59.13-3.2.13-4.8a.71.71,0,0,0-.71-.71.76.76,0,0,0-.75.72Z"/><path class="cls-2" d="M151.88,82.33a.38.38,0,0,0,.15,0l.07,0,.07,0,.11-.08v0s0,0,.05,0a.43.43,0,0,0,0-.07.31.31,0,0,0,.06-.13v0s0-.09,0-.13a.6.6,0,0,0-.08-.29.3.3,0,0,0-.12-.13.3.3,0,0,0-.16-.08.48.48,0,0,0-.35,0,.69.69,0,0,0-.24.24.05.05,0,0,0,0,0,1,1,0,0,0-.07.15.88.88,0,0,0,0,.16s0,0,0,0a.41.41,0,0,1,0,.11s0,.07,0,.1a1.43,1.43,0,0,0,.08.22.35.35,0,0,0,.05.08,1.22,1.22,0,0,0,.15.17.57.57,0,0,0,.18.12l.16.07.18,0h.05a.58.58,0,0,0,.19,0l.13,0a.36.36,0,0,0,.16-.14.35.35,0,0,0,.07-.12.41.41,0,0,0,0-.19.14.14,0,0,0,0-.09,1.49,1.49,0,0,0,0-.21,1.8,1.8,0,0,0-.08-.21.25.25,0,0,0,0-.07.86.86,0,0,0-.14-.18l-.06-.06-.18-.13a1.45,1.45,0,0,0-.22-.09H152a.34.34,0,0,0-.22,0,.29.29,0,0,0-.14.08.44.44,0,0,0-.16.17,1.3,1.3,0,0,0-.15.34.67.67,0,0,0,0,.24.89.89,0,0,0,0,.22.42.42,0,0,0,.13.22.31.31,0,0,0,.15.1.4.4,0,0,0,.19,0,.45.45,0,0,0,.25-.07.49.49,0,0,0,.2-.13l.07-.08,0,0a1.77,1.77,0,0,0,.12-.17,2.44,2.44,0,0,0,.1-.24l-.58.44h-.1l.09,0-.14-.06a.33.33,0,0,1,.1.06l-.12-.09a.47.47,0,0,1,.1.1l-.09-.12.07.11-.06-.13a.32.32,0,0,1,0,.09l0-.14v.07l.4-.5h-.05l.14,0h-.07l.13,0-.08,0,.13,0-.08,0,.1.08-.1-.1.08.1-.06-.1,0,.12,0-.11,0,.13a.14.14,0,0,1,0-.09l0,.13a.14.14,0,0,1,0-.07l-.05.11.06-.14,0,.11,0,0-.74.11h0l-.08-.1,0,0,0-.11h0l0-.11s0,0,0,0l0-.12a0,0,0,0,1,0,0l0-.1,0,0,.07-.1,0,0,.1-.08h0l.11,0h.08a.51.51,0,0,0-.33.13.46.46,0,0,0-.09.15.32.32,0,0,0,0,.16.42.42,0,0,0,.13.32l.09.07a.42.42,0,0,0,.22,0Z"/><path class="cls-2" d="M21.81,3.52A3,3,0,0,0,21,6.18a2.06,2.06,0,0,0,.76,1.15,2,2,0,0,0,1.61.3,2.66,2.66,0,0,0,1.48-.9.5.5,0,0,0,.09-.61.52.52,0,0,0-.58-.24A3.12,3.12,0,0,0,23.9,6l-.1,0h0l-.15.06-.34.11a.89.89,0,0,1-.35.08c.1,0,.11,0,0,0H23s-.16,0-.2,0h0s-.18,0-.19,0l.07,0-.08,0-.12-.08c-.05,0,0,0,0,0l-.07-.06-.1-.1c-.11-.12.06.1,0,0l-.07-.11s-.08-.12-.07-.15l0,0s0,0,0-.06a.75.75,0,0,1-.06-.29c0,.16,0,0,0,0a1.09,1.09,0,0,1,0-.18s0-.14,0,0,0-.13,0-.19,0-.1.05-.14l0-.1c0,.06,0,.06,0,0a3.07,3.07,0,0,1,.17-.31.57.57,0,0,0,.08-.13s.14-.17.07-.09a.53.53,0,0,0,0-.75.55.55,0,0,0-.76,0Z"/><path class="cls-2" d="M26,4.66a3.15,3.15,0,0,0-.26,2.15,1.73,1.73,0,0,0,.84,1A2.06,2.06,0,0,0,27.82,8,2.48,2.48,0,0,0,29,7.4a2.58,2.58,0,0,0,.69-.89,2.21,2.21,0,0,0,.23-1.21,1.3,1.3,0,0,0-.71-1,3.65,3.65,0,0,0-1.47-.26,5.47,5.47,0,0,0-.7,0,1.64,1.64,0,0,0-.87.25.56.56,0,0,0-.27.52.53.53,0,0,0,.38.44,1.88,1.88,0,0,0,.33.05,2.34,2.34,0,0,0,.26,0c.11,0,0,0,0,0l.26,0c-.12,0,0,0,0,0a1.53,1.53,0,0,1,.3,0h.51l.25,0s.19,0,.05,0l.14,0,.2,0h0l.07,0c.12.06-.07-.08,0,0l.05,0-.05-.07,0,.06c.06.09,0-.14,0,0l0,.1c0,.07,0,0,0,0a.47.47,0,0,0,0,.17c0,.13,0-.14,0,0s0,0,0,.08a.42.42,0,0,1,0,.1v0c0,.06,0,0,0,0s-.05.12-.08.17l-.1.15c-.07.11.08-.09,0,0l-.07.08-.17.18-.15.14s-.12.1,0,0,0,0,0,0l-.18.1s-.14.05,0,0l-.07,0a1.8,1.8,0,0,0-.19.05c.09-.05.14,0,.07,0h-.12a1.21,1.21,0,0,0-.19,0c.13,0,.11,0,.05,0l-.14,0c-.06,0,0-.05.05,0l-.1,0-.07,0c-.06,0-.09-.09,0,0A.53.53,0,0,0,27,6.47c.05,0,.07.11,0,0l-.08-.13,0-.06c.09.16,0,.06,0,0a.59.59,0,0,0,0-.2V6.2a.25.25,0,0,0,0-.08V6a1.94,1.94,0,0,1,0-.24v0q0-.09,0,0a.27.27,0,0,1,0-.12,2,2,0,0,1,.05-.24c0-.15.09-.31.14-.46a.57.57,0,0,0-.41-.7.61.61,0,0,0-.72.42Z"/><path class="cls-2" d="M31,7.17a1.89,1.89,0,0,0,.08-.75c0-.12,0-.24,0-.36s0-.17,0-.08l0-.13s.07-.15,0-.07l.07-.11s0,0,0,0l.05,0s0,0,0,0l.05,0c-.06,0-.07,0,0,0h0c.05,0,0,0,0,0l.06,0h0s.13.08.06,0,0,0,.05,0a.52.52,0,0,1,.1.11c-.05-.06-.05-.07,0,0l0,.06.08.13c.11.2.2.42.29.63,0,.06,0,.06,0,0l0,.08.06.17c0,.12.08.23.11.35a3.57,3.57,0,0,1,.1.35.9.9,0,0,0,.31.49.6.6,0,0,0,.54.14.59.59,0,0,0,.42-.4c0-.07,0-.13,0-.2a.79.79,0,0,0-.08-.45c0-.1-.09-.2-.13-.31s-.19-.38-.29-.57a4.78,4.78,0,0,0-.69-1.09,1.17,1.17,0,0,0-1.21-.44,1.29,1.29,0,0,0-.8.91,3.16,3.16,0,0,0-.08.68c0,.12,0,.24,0,.35a.2.2,0,0,0,0,.07c0-.06,0,0,0,0s0,.13-.05.19a.41.41,0,0,0,.3.52A.46.46,0,0,0,31,7.17Z"/><path class="cls-2" d="M34.37,1.74c0,1,.08,2,.14,3A8.87,8.87,0,0,0,35,7.82c.2.47,1,.3,1.08-.16a10.63,10.63,0,0,0,0-3c-.08-1-.14-2-.19-2.95A.74.74,0,0,0,35.14,1a.77.77,0,0,0-.77.75Z"/><path class="cls-2" d="M33.06,4.75a17.42,17.42,0,0,0,2.5-.09A7,7,0,0,0,38.06,4a.43.43,0,0,0-.2-.8,21,21,0,0,0-2.37.19,17.5,17.5,0,0,1-2.4.07.71.71,0,0,0-.69.67.66.66,0,0,0,.66.65Z"/><path class="cls-2" d="M38.4,5.48a5,5,0,0,0,.19,1.33,5.38,5.38,0,0,0,.28.7c0,.08.08.16.13.24a1.22,1.22,0,0,0,.31.33A.63.63,0,0,0,40,8.2a.64.64,0,0,0,.41-.57c0-.11,0-.21,0-.31A1.83,1.83,0,0,0,40.31,7c0-.16-.09-.31-.13-.47-.07-.33-.14-.66-.18-1l0,.2a2.45,2.45,0,0,1,0-.27.81.81,0,0,0-.23-.56.78.78,0,0,0-.56-.22.82.82,0,0,0-.81.79Z"/><path class="cls-2" d="M39.61,2.75l0,0s0,0,0,0a.43.43,0,0,0-.11-.44l-.1-.07a.43.43,0,0,0-.23,0,.25.25,0,0,0-.17,0,.34.34,0,0,0-.16.1.37.37,0,0,0-.12.2.45.45,0,0,0,0,.23s0,0,0,0v0l0,.1a.25.25,0,0,0,.11.12A.21.21,0,0,0,39,3a.41.41,0,0,0,.16,0h.11L39.41,3a.49.49,0,0,0,.13-.12.37.37,0,0,0,.07-.14Z"/><path class="cls-2" d="M41.8,6.85a2.14,2.14,0,0,1-.06-.77,2.25,2.25,0,0,1,.18-.71,1.77,1.77,0,0,1,.39-.56s.06,0,0,0l.08-.06.09,0h0l.1,0c-.06,0-.06,0,0,0s-.06,0,0,0h0s.13.11.05,0l.06.06s0,0,0,0,.13.24.17.32.11.22,0,.06a1.72,1.72,0,0,1,.07.21l.17.45.35.92.18.48a1.54,1.54,0,0,0,.17.34l.16.2a.62.62,0,0,0,.77.24.63.63,0,0,0,.38-.72A2.1,2.1,0,0,0,45,6.69l-.21-.43-.39-.84A4.51,4.51,0,0,0,43.59,4a1.3,1.3,0,0,0-1.65-.14,2.79,2.79,0,0,0-1,1.38,3.92,3.92,0,0,0-.21,1.89.54.54,0,0,0,.66.37.56.56,0,0,0,.39-.66Z"/><path class="cls-2" d="M45.2,5.13A6.1,6.1,0,0,0,46,6.82a2.63,2.63,0,0,0,1.69,1.1,2,2,0,0,0,2-.84,2.46,2.46,0,0,0,.34-.9,4.13,4.13,0,0,0,.11-.85,1.74,1.74,0,0,0-.23-1A.85.85,0,0,0,48.85,4a.4.4,0,0,0-.21.36.47.47,0,0,0,0,.17.5.5,0,0,0,.05.13c0,.08-.07-.19,0,0a.3.3,0,0,0,0,.1h0s0-.07,0,0a.24.24,0,0,0,0,.08.43.43,0,0,0,0,.11c0,.1,0-.11,0,0s0,.18,0,.28,0-.12,0,0l0,.16a2.76,2.76,0,0,1-.08.27c0,.11-.08.21-.11.32l0-.06a.21.21,0,0,0,0,.07l-.09.16c-.07.11.11-.12,0,0s-.15.13,0,0,0,0,0,0l-.06,0s.19-.06.08,0a.66.66,0,0,0-.15,0c-.07,0,.1,0,.1,0h-.2c-.18,0,.14,0,0,0l-.29-.07c-.09,0,.09,0,.09,0l-.07,0-.16-.09,0,0c.12.09,0,0,0,0A.57.57,0,0,1,47.52,6s-.18-.2-.09-.09,0,0,0-.08l-.1-.16-.18-.36s-.09-.22,0-.09,0-.06,0-.1-.1-.27-.14-.4a.91.91,0,0,0-.4-.52.86.86,0,0,0-.65-.07.88.88,0,0,0-.63,1Z"/><path class="cls-2" d="M51.09,5.37A2.79,2.79,0,0,0,51.46,7,1.78,1.78,0,0,0,53,7.84a1.48,1.48,0,0,0,1-.44,1.73,1.73,0,0,0,.45-1A2,2,0,0,0,54,4.92a3.46,3.46,0,0,0-.75-.73,2,2,0,0,0-.35-.2,2.15,2.15,0,0,0-.27-.1,2.85,2.85,0,0,0-.29,0,.49.49,0,0,0-.46.31.46.46,0,0,0,.1.52c.18.2.41.36.61.55l.14.14a.73.73,0,0,0,.14.16s-.09-.12,0,0a.56.56,0,0,0,.05.08,1.18,1.18,0,0,1,.11.19.3.3,0,0,0,0,.08s0-.14,0,0A.84.84,0,0,1,53.1,6a.34.34,0,0,1,0,.1c0-.14,0-.1,0,0s0,.12,0,.19,0-.15,0,0l0,.1c0,.13.06-.1,0,0a.41.41,0,0,0-.05.09s0,0,0,0,0-.05,0,0L53,6.43c0,.05.16-.1.06,0l-.09,0,.18-.07-.15,0s-.11,0,0,0,0,0,0,0h-.09c-.1,0,.08,0,.09,0l-.16,0c-.07,0,.15.07.08,0l-.07,0s-.09-.07-.13-.08.14.12.07.05l-.06-.05-.12-.14.12.15a1.75,1.75,0,0,1-.2-.35l.07.17a3,3,0,0,1-.12-.43s0-.07,0-.1,0,0,0,0,0-.16,0-.24a.66.66,0,0,0-.67-.67.7.7,0,0,0-.7.68Z"/><path class="cls-2" d="M54.88,5.08A4.54,4.54,0,0,0,56.79,8a2.23,2.23,0,0,0,.91.42A1.38,1.38,0,0,0,58.9,8a2,2,0,0,0,.56-1.59c0-.18,0-.36-.07-.54a2.23,2.23,0,0,0,0-.23s0-.12,0,0a.41.41,0,0,0,0-.11V5.25s0-.13,0,0c0-.13.07-.27.12-.4a.51.51,0,0,0-.19-.55.55.55,0,0,0-.58,0A1.64,1.64,0,0,0,58,5.83c0,.22,0,.44,0,.66,0,0,0,.21,0,.09s0,.06,0,.08l0,.13,0,.06c0,.09.08-.15,0,0l-.06.11c0,.1,0,0,0-.06s0,0,0,0,0,0,0,0-.06,0,.08-.05c0,0-.18.09,0,0s0,0,0,0,.08,0,.08,0-.1,0,0,0,0,0,0,0,0,0,0,0l-.08,0-.18-.1a2.61,2.61,0,0,1-.28-.17c-.12-.08.09.07,0,0l-.16-.13L57,6.21l-.12-.13s-.08-.13-.13-.16.08.11,0,0a.47.47,0,0,1-.06-.09l-.12-.17a2.59,2.59,0,0,1-.19-.33l-.08-.18s0-.1,0,0,0-.06,0-.07a3.64,3.64,0,0,1-.11-.39.67.67,0,0,0-.81-.46.69.69,0,0,0-.49.81Z"/><path class="cls-2" d="M64,4.3a2.19,2.19,0,0,0-1.59-.12,1.35,1.35,0,0,0-.76.51.87.87,0,0,0,0,.94,4.68,4.68,0,0,0,.55.54l.14.14.07.09.06.09.11.19c0,.05,0,0,0,0l0,.07s0,.2,0,.08a.75.75,0,0,1,0,.15v0l0,.1c0,.07,0,0,0,0a.2.2,0,0,0,0,.08.21.21,0,0,0,0,.06c0,.06,0,0,0,0l-.1.1-.08.06s.11-.07,0,0l-.15.08s-.06,0-.06,0,.13-.06,0,0-.26.07-.39.11h0c.07,0,.06,0,0,0l-.17,0h0l-.12,0L61,7.58A.51.51,0,0,0,60.6,8,.49.49,0,0,0,61,8.5a2.64,2.64,0,0,0,1.69,0,1.92,1.92,0,0,0,1.18-1.15,1.71,1.71,0,0,0-.29-1.54A2.62,2.62,0,0,0,63,5.26l-.2-.15c-.06,0,0,0,0,0l-.08-.06L62.6,5s0,.07,0,0,0,0,0,0,0,.24-.09.21a.87.87,0,0,0,.18-.11s.08,0,0,0l.06,0L63,5h.3a1.89,1.89,0,0,1,.36.09.46.46,0,0,0,.54-.27A.44.44,0,0,0,64,4.3Z"/><path class="cls-2" d="M22.18,10.69c9,.56,18.06,1.05,27.09,1.37,2.57.09,5.14.15,7.71.2a.45.45,0,0,0,0-.9c-9-.44-18.07-.74-27.1-1.15l-7.7-.37a.43.43,0,0,0,0,.85Z"/><path class="cls-2" d="M8,41.2c0,3.26-.1,6.52-.19,9.78,0,1.61,0,3.22,0,4.83a34.94,34.94,0,0,0,0,4.8c.06.49.72.28.78-.1a35.39,35.39,0,0,0,.16-4.83c0-1.61.1-3.22.1-4.83,0-3.22,0-6.44.1-9.65,0-.61-.94-.59-.94,0Z"/><path class="cls-2" d="M169.26,41.65c.1,2.76.25,5.53.36,8.29,0,1.37.13,2.73.15,4.09a28.76,28.76,0,0,0,.16,4c.07.4.64.25.67-.09a27.92,27.92,0,0,0,0-4.09c-.06-1.36,0-2.73-.05-4.09,0-2.72,0-5.45-.06-8.17a.6.6,0,0,0-1.19,0Z"/><path class="cls-2" d="M9.64,41.06c4.25-3.15,9.49-4.44,14.67-5a66.51,66.51,0,0,1,15.7.38c10.43,1.4,20.49,4.52,30.67,7s20.61,4.4,31.16,3.43c10.85-1,21.29-4.33,31.87-6.71a92.59,92.59,0,0,1,16.38-2.39c5.23-.22,10.67.16,15.52,2.26a23.38,23.38,0,0,1,3.31,1.77c.35.22.68-.34.33-.57-4.25-2.88-9.4-4-14.46-4.27a70.86,70.86,0,0,0-16,1.33c-10.91,2-21.47,5.51-32.43,7.17a71,71,0,0,1-16.47.62A110,110,0,0,1,74,43.51c-10.42-2.4-20.64-5.71-31.2-7.46A76.38,76.38,0,0,0,27.34,35c-5.07.2-10.26,1-14.84,3.29a22.41,22.41,0,0,0-3.31,2c-.47.36,0,1.14.45.78Z"/><path class="cls-2" d="M9.57,47.91c2.25-2.9,4.62-5.7,6.92-8.56.19-.24-.13-.56-.34-.33-2.47,2.74-4.75,5.66-7,8.58-.19.24.23.55.41.31Z"/><path class="cls-2" d="M10.57,51.43c3.82-4.53,7.73-9,11.43-13.63.19-.24-.13-.57-.34-.33C17.74,41.91,14,46.55,10.22,51.1c-.2.24.15.57.35.33Z"/><path class="cls-2" d="M13.12,55.92c4.4-5.86,9.07-11.49,13.81-17.06.25-.29-.16-.69-.41-.4C21.62,44,17.08,49.77,12.73,55.7c-.18.24.22.45.39.22Z"/><path class="cls-2" d="M19.82,58.09c5.74-7.41,11.48-14.81,17-22.38.18-.24-.23-.54-.41-.31C30.61,42.79,25,50.34,19.46,57.89c-.16.22.21.4.36.2Z"/><path class="cls-2" d="M28.24,58.18c5.57-7,11.25-13.86,16.71-20.92.19-.24-.24-.56-.44-.32-5.68,6.85-11.13,13.88-16.7,20.82-.25.31.19.73.43.42Z"/><path class="cls-2" d="M37,57.93c4.91-6.52,10-12.87,15.16-19.24.22-.27-.16-.65-.39-.37C46.4,44.52,41.4,51.05,36.58,57.7c-.19.26.24.48.43.23Z"/><path class="cls-2" d="M44.87,58.48C49.92,52.76,55,47,59.85,41.17c.21-.25-.14-.6-.36-.35-5.1,5.68-10,11.53-14.92,17.37-.18.21.12.5.3.29Z"/><path class="cls-2" d="M55.45,59C60,53.85,63.7,48,68.72,43.31c.27-.26-.12-.61-.39-.39C63,47.39,59.68,53.52,55.06,58.6c-.24.26.15.64.39.37Z"/><path class="cls-2" d="M65.19,58.28c2.41-3.53,4.85-7,7.17-10.63.15-.24-.22-.43-.37-.2-2.41,3.52-4.71,7.12-7,10.7-.1.15.14.27.23.13Z"/><path class="cls-2" d="M72.28,57.74q1.92-2.6,3.87-5.17c1.29-1.72,2.63-3.42,3.86-5.19.18-.26-.25-.58-.44-.33-2.68,3.4-5.11,7-7.68,10.48-.17.24.22.44.39.21Z"/><path class="cls-2" d="M80.92,57.74c2.76-3.69,5.6-7.39,8-11.3.2-.32-.28-.55-.49-.27-2.73,3.72-5.24,7.61-7.92,11.36-.17.23.21.42.37.21Z"/><path class="cls-2" d="M90.06,58.37c1.26-1.73,2.53-3.45,3.8-5.18l1.88-2.54a7.58,7.58,0,0,1,1.91-2.15c.21-.13.08-.52-.17-.42a4.24,4.24,0,0,0-1.73,1.68l-2,2.82c-1.34,1.87-2.66,3.76-4,5.62-.14.19.18.36.31.17Z"/><path class="cls-2" d="M100.5,57.86c2.59-3.64,5.44-7.06,8.35-10.44.22-.26-.14-.61-.37-.36a88.71,88.71,0,0,0-8.32,10.61c-.14.21.2.39.34.19Z"/><path class="cls-2" d="M112.17,56.82q2.2-3.21,4.7-6.2c.79-.95,1.6-1.89,2.42-2.81.44-.49.87-1,1.32-1.47A8.93,8.93,0,0,0,121.77,45a.22.22,0,0,0-.31-.3,7.68,7.68,0,0,0-1.32,1.23c-.45.48-.9,1-1.33,1.45-.87,1-1.72,2-2.53,3-1.61,2-3.12,4.1-4.56,6.23-.2.28.26.52.45.25Z"/><path class="cls-2" d="M124.37,56.48c3-4.77,6.06-9.53,8.91-14.42.21-.36-.33-.63-.55-.3-3.14,4.7-6.09,9.53-9.06,14.34-.28.45.42.82.7.38Z"/><path class="cls-2" d="M134.54,56.6c4-5.05,8.16-10,11.88-15.32.24-.33-.31-.73-.56-.42-4,5-7.78,10.25-11.78,15.3-.25.33.2.77.46.44Z"/><path class="cls-2" d="M144.55,56.62c3.44-4.68,6.83-9.4,10-14.27.23-.35-.33-.63-.56-.31-3.33,4.76-6.62,9.54-10.06,14.22-.28.39.37.73.64.36Z"/><path class="cls-2" d="M155.31,56.72c3.31-4.28,6.62-8.62,9.57-13.17.26-.39-.36-.7-.62-.34-3.13,4.36-6.2,8.74-9.52,13-.32.41.25.95.57.55Z"/></svg>