<?xml version="1.0" encoding="utf-8"?>
<!-- Generator: Adobe Illustrator 26.0.2, SVG Export Plug-In . SVG Version: 6.00 Build 0)  -->
<svg version="1.1" id="Layer_1" xmlns="http://www.w3.org/2000/svg" xmlns:xlink="http://www.w3.org/1999/xlink" x="0px" y="0px"
	 viewBox="0 0 271.46 258" style="enable-background:new 0 0 271.46 258;" xml:space="preserve">
<style type="text/css">
	.st0{fill:#808080;}
	.st1{fill:none;stroke:#808080;stroke-width:16;stroke-miterlimit:10;}
</style>
<g>
	<path class="st0" d="M177.6,72.72c4.24,0,7.68,3.45,7.68,7.68v153.91c0,4.24-3.45,7.68-7.68,7.68H23.68
		c-4.24,0-7.68-3.45-7.68-7.68V80.4c0-4.24,3.45-7.68,7.68-7.68H177.6 M177.6,56.72H23.68C10.6,56.72,0,67.32,0,80.4v153.91
		C0,247.4,10.6,258,23.68,258H177.6c13.08,0,23.68-10.6,23.68-23.68V80.4C201.28,67.32,190.68,56.72,177.6,56.72L177.6,56.72z"/>
</g>
<path class="st1" d="M62.18,65.26V31.68C62.18,18.6,72.78,8,85.86,8h153.91c13.08,0,23.68,10.6,23.68,23.68V185.6
	c0,13.08-10.6,23.68-23.68,23.68H194.2"/>
</svg>
