<?xml version="1.0" encoding="utf-8"?>
<!-- Generator: Adobe Illustrator 26.0.2, SVG Export Plug-In . SVG Version: 6.00 Build 0)  -->
<svg version="1.1" id="Layer_1" xmlns="http://www.w3.org/2000/svg" xmlns:xlink="http://www.w3.org/1999/xlink" x="0px" y="0px"
	 viewBox="0 0 300 92.96" style="enable-background:new 0 0 300 92.96;" xml:space="preserve">
<style type="text/css">
	.st0{fill:#486AFB;}
	.st1{fill:#FFFFFF;}
	.st2{fill:#FD46FC;}
</style>
<g>
	<g>
		<path class="st0" d="M172.78,6.83c-9.39,1.86-17.52,8.74-20.26,18c-1.41,4.75-1.42,9.97,0.17,14.68c1.45,4.29,4.2,8.09,7.77,10.85
			c3.95,3.06,8.61,4.49,13.58,4.72c2.73,0.13,5.57,0.11,8.28-0.31c2.49-0.38,4.75-1.39,6.52-3.2c1.66-1.69,2.8-3.81,3.69-5.99
			c1.03-2.53,1.75-5.19,2.17-7.88c0.82-5.29,0.52-10.77-1.02-15.91c-1.35-4.52-3.74-8.91-7.49-11.88
			c-3.61-2.86-8.57-4.22-13.09-2.98c-1.08,0.3-2.1,0.75-3.05,1.33c-0.55,0.34-0.05,1.2,0.5,0.86c3.88-2.38,8.87-2.02,12.78,0.09
			c4.04,2.17,6.84,6.14,8.51,10.33c1.83,4.6,2.53,9.65,2.24,14.58c-0.29,4.86-1.49,10.03-4.04,14.22c-1.22,2-2.88,3.78-5.08,4.68
			c-2.34,0.97-4.97,1.02-7.46,1.07c-5.02,0.11-9.95-0.46-14.32-3.09c-3.63-2.18-6.6-5.43-8.48-9.23c-2.08-4.21-2.68-9.08-1.92-13.7
			c1.52-9.17,8.32-16.6,17.09-19.48c1.04-0.34,2.09-0.61,3.16-0.82C173.68,7.66,173.41,6.7,172.78,6.83L172.78,6.83z"/>
	</g>
</g>
<g>
	<g>
		<path class="st0" d="M186.72,33.85c-4.29,0.39-8.03,2.89-10.62,6.25c-2.99,3.88-4.28,8.75-4.9,13.53
			c-0.64,4.94-1.1,10.36,1.01,15.02c1.66,3.67,4.75,6.53,8.24,8.46c3.75,2.08,8.02,3.23,12.3,3.46c2.48,0.13,5.03-0.11,7.34-1.05
			c1.87-0.76,3.55-1.91,4.97-3.34c2.94-2.96,4.73-6.97,5.18-11.1c0.55-5.01-0.76-10.05-2.93-14.55
			c-3.69-7.66-10.62-15.11-19.49-16.11c-1.05-0.12-2.11-0.13-3.16-0.04c-0.64,0.05-0.64,1.05,0,1c8.45-0.68,15.71,5.47,19.92,12.25
			c4.66,7.52,6.99,17.52,1.79,25.38c-2.25,3.41-5.7,5.82-9.77,6.43c-4.25,0.63-8.86-0.25-12.83-1.84c-3.55-1.42-6.93-3.68-9.18-6.82
			c-1.16-1.61-1.98-3.43-2.43-5.36c-0.56-2.47-0.53-5.04-0.36-7.55c0.31-4.77,0.98-9.69,3.14-14.02c1.83-3.67,4.89-6.95,8.83-8.34
			c0.95-0.34,1.94-0.56,2.95-0.65C187.36,34.8,187.36,33.79,186.72,33.85L186.72,33.85z"/>
	</g>
</g>
<g>
	<g>
		<path class="st0" d="M208.93,6.89c-4.72,0.7-9.55,1.49-13.85,3.66c-2.12,1.07-4.08,2.52-5.61,4.35c-1.68,2.01-2.86,4.38-3.81,6.81
			c-2.04,5.2-3.08,10.84-2.8,16.43c0.25,5.07,1.45,10.74,4.84,14.7c3.32,3.88,8.51,4.8,13.37,4.89c4.7,0.09,9.62-0.27,14.01-2.06
			c2.1-0.86,4.05-2.05,5.65-3.67c1.75-1.77,2.98-3.96,3.8-6.29c1.63-4.62,1.9-9.84,1.4-14.68c-0.49-4.74-1.84-9.41-4.22-13.55
			c-2.39-4.16-5.95-8.13-10.45-10.01c-1.14-0.47-2.31-0.77-3.54-0.91c-0.64-0.07-0.63,0.93,0,1c4.83,0.53,8.86,4.24,11.58,8.02
			c2.64,3.68,4.33,7.98,5.18,12.42c0.87,4.54,0.91,9.32,0.04,13.86c-0.91,4.75-3.11,9.12-7.36,11.67c-3.85,2.31-8.48,3.01-12.9,3.18
			c-4.55,0.17-9.68,0.1-13.6-2.53c-4.15-2.79-5.79-8.12-6.49-12.81c-0.79-5.29-0.26-10.75,1.25-15.86
			c1.41-4.79,3.55-9.68,7.76-12.64c3.71-2.62,8.27-3.7,12.68-4.47c1.11-0.19,2.23-0.36,3.34-0.53
			C209.83,7.76,209.56,6.79,208.93,6.89L208.93,6.89z"/>
	</g>
</g>
<g>
	<g>
		<path class="st0" d="M84.41,18.54c-8.2,3.02-10.71,12.64-11.72,20.41c-0.56,4.31-0.44,8.78,1.29,12.83
			c1.56,3.64,4.33,6.51,8.05,7.93c3.65,1.39,8.06,1.59,11.78,0.35c1.85-0.61,3.54-1.63,4.85-3.08c1.33-1.48,2.25-3.27,2.97-5.12
			c3.03-7.67,2.96-17.02-1-24.35c-1.68-3.11-4.11-5.95-7.24-7.66c-2.95-1.61-6.82-2.29-9.92-0.72c-0.78,0.39-1.47,0.95-2.01,1.64
			c-0.39,0.5,0.31,1.21,0.71,0.71c2.15-2.73,6.22-2.59,9.18-1.47c3.08,1.16,5.59,3.57,7.39,6.28c4.24,6.39,4.94,14.85,2.98,22.15
			c-0.97,3.61-2.55,7.58-5.89,9.62c-3.16,1.93-7.27,2.16-10.83,1.47c-3.77-0.73-7.01-2.76-9.04-6.05
			c-2.08-3.37-2.72-7.37-2.56-11.28c0.09-2.23,0.42-4.44,0.85-6.63c0.39-1.97,0.86-3.93,1.53-5.83c1.25-3.53,3.31-6.93,6.51-9.01
			c0.75-0.49,1.54-0.89,2.37-1.2C85.27,19.29,85.01,18.32,84.41,18.54L84.41,18.54z"/>
	</g>
</g>
<g>
	<g>
		<path class="st1" d="M92.46,30.62c5.09-1.57,10.39-2.27,15.72-2.06c5.37,0.22,10.53,1.58,15.73,2.86
			c5.03,1.23,10.11,2.2,15.31,2.19c4.82-0.01,9.67-0.73,14.29-2.11c5.22-1.56,10.21-3.96,14.65-7.12c0.66-0.47,0.97-1.31,0.54-2.05
			c-0.38-0.65-1.39-1.01-2.05-0.54c-7.65,5.46-16.88,8.56-26.28,8.81c-5.06,0.14-9.95-0.69-14.85-1.87
			c-5.27-1.27-10.5-2.7-15.93-3.08c-6.03-0.42-12.15,0.3-17.91,2.09C89.82,28.3,90.6,31.19,92.46,30.62L92.46,30.62z"/>
	</g>
</g>
<g>
	<g>
		<path class="st1" d="M92.99,42.14c14.77-5.93,30.77-0.79,45.84,0.85c3.98,0.43,8.07,0.75,12.06,0.23
			c3.68-0.48,7.12-1.79,10.42-3.45c3.17-1.59,6.2-3.45,9.37-5.05c3.18-1.61,6.53-2.83,9.99-3.66c7.8-1.87,16.05-1.65,23.74,0.63
			c1.85,0.55,2.65-2.34,0.8-2.89c-7.13-2.11-14.69-2.51-22.02-1.3c-3.62,0.6-7.16,1.62-10.54,3.03c-3.38,1.42-6.54,3.25-9.75,5.01
			c-3.02,1.66-6.11,3.26-9.47,4.15c-3.81,1.01-7.8,0.88-11.71,0.58c-8.09-0.63-16.03-2.41-24.09-3.33
			c-7.57-0.86-15.45-0.93-22.79,1.37c-0.9,0.28-1.78,0.6-2.65,0.95c-0.75,0.3-1.28,1-1.05,1.85C91.34,41.81,92.23,42.45,92.99,42.14
			L92.99,42.14z"/>
	</g>
</g>
<g>
	<g>
		<path class="st1" d="M92.72,53.5c6.13-1.44,12.57-1.54,18.74-0.23c6,1.28,11.66,3.72,17.23,6.25
			c11.36,5.15,22.96,10.45,35.59,11.26c6.83,0.44,13.73-0.53,20.01-3.34c0.74-0.33,0.92-1.41,0.54-2.05
			c-0.45-0.76-1.31-0.87-2.05-0.54c-11.01,4.93-23.64,3.21-34.72-0.51c-5.89-1.98-11.55-4.55-17.21-7.12
			c-5.66-2.57-11.39-5.14-17.45-6.58c-7.05-1.68-14.41-1.68-21.46-0.02C90.04,51.05,90.84,53.94,92.72,53.5L92.72,53.5z"/>
	</g>
</g>
<g>
	<g>
		<path class="st0" d="M83.96,75.39c0.91-1.89,2.01-3.69,3.31-5.33c-0.28-0.12-0.57-0.24-0.85-0.35c0.02,2.24,0.69,4.45,1.94,6.32
			c0.36,0.53,1.22,0.03,0.86-0.5c-1.15-1.72-1.79-3.74-1.8-5.81c0-0.39-0.57-0.71-0.85-0.35c-1.35,1.72-2.52,3.57-3.47,5.54
			C82.82,75.46,83.68,75.97,83.96,75.39L83.96,75.39z"/>
	</g>
</g>
<g>
	<g>
		<path class="st2" d="M81.12,32.49c0.48-0.52,0.96-1.05,1.44-1.57c0.18-0.19,0.2-0.52,0-0.71c-0.19-0.18-0.52-0.21-0.71,0
			c-0.48,0.52-0.96,1.05-1.44,1.57c-0.18,0.19-0.2,0.52,0,0.71C80.6,32.67,80.93,32.7,81.12,32.49L81.12,32.49z"/>
	</g>
</g>
<g>
	<g>
		<path class="st2" d="M83.96,31.75c-0.83-1.88-1.66-3.76-2.49-5.64c-0.11-0.25-0.47-0.3-0.68-0.18c-0.25,0.15-0.29,0.44-0.18,0.68
			c0.83,1.88,1.66,3.76,2.49,5.64c0.11,0.25,0.47,0.3,0.68,0.18C84.04,32.29,84.07,32,83.96,31.75L83.96,31.75z"/>
	</g>
</g>
<g>
	<g>
		<path class="st2" d="M80.77,40.41c-0.91,1.84-1.82,3.68-2.73,5.52c-0.28,0.57,0.58,1.08,0.86,0.5c0.91-1.84,1.82-3.68,2.73-5.52
			C81.92,40.34,81.05,39.84,80.77,40.41L80.77,40.41z"/>
	</g>
</g>
<g>
	<g>
		<path class="st2" d="M81,40.8c-0.13,0.42-0.24,0.89-0.11,1.33c0.15,0.51,0.59,0.84,1.11,0.88c0.46,0.03,0.92-0.17,1.23-0.5
			c0.34-0.36,0.52-0.82,0.69-1.27c0.09-0.25-0.11-0.55-0.35-0.62c-0.28-0.08-0.52,0.1-0.62,0.35c-0.27,0.67,0.02,1.48,0.61,1.88
			c0.61,0.41,1.45,0.28,1.97-0.2c0.2-0.19,0.19-0.52,0-0.71c-0.2-0.2-0.51-0.19-0.71,0c-0.07,0.07,0.02,0-0.06,0.05
			c-0.04,0.03-0.09,0.05-0.13,0.07c0.08-0.03-0.07,0.02-0.07,0.02c-0.01,0-0.15,0.02-0.07,0.01c-0.05,0-0.1,0-0.15,0
			c-0.12,0,0.05,0.02-0.07-0.01c0,0-0.15-0.05-0.07-0.02c-0.05-0.02-0.09-0.05-0.13-0.08c0.06,0.04-0.05-0.05-0.05-0.05
			c-0.06-0.06,0,0.02-0.05-0.06c-0.03-0.04-0.05-0.09-0.07-0.13c0.03,0.07-0.02-0.06-0.02-0.07c-0.01-0.02-0.03-0.16-0.02-0.07
			c0-0.04,0-0.08,0-0.13c0-0.03,0-0.05,0-0.08c-0.01,0.04,0,0.04,0,0.01c0.01-0.06,0.03-0.11,0.05-0.17
			c-0.32-0.09-0.64-0.18-0.96-0.27c-0.1,0.27-0.19,0.54-0.38,0.78c-0.06,0.08-0.14,0.15-0.22,0.19c-0.03,0.02-0.06,0.03-0.09,0.05
			c0.05-0.02,0,0-0.02,0c-0.03,0.01-0.07,0.02-0.1,0.02c0.07-0.01-0.01,0-0.04,0c-0.01,0-0.11,0-0.06,0c0.05,0-0.04-0.01-0.05-0.01
			c-0.01,0-0.09-0.03-0.05-0.02c0.06,0.02-0.06-0.04-0.01-0.01c0.05,0.04-0.05-0.05-0.02-0.01c0.02,0.02-0.03-0.05-0.03-0.05
			c-0.04-0.07,0.01,0.05-0.01-0.02c-0.01-0.03-0.02-0.06-0.03-0.1c-0.02-0.08,0,0.06,0-0.02c0-0.04,0-0.07,0-0.11
			c0-0.04,0-0.07,0.01-0.11c0.01-0.09-0.01,0.06,0.01-0.03c0.03-0.15,0.07-0.3,0.12-0.45c0.08-0.26-0.1-0.55-0.35-0.62
			C81.34,40.38,81.08,40.54,81,40.8L81,40.8z"/>
	</g>
</g>
<g>
	<g>
		<path class="st2" d="M80.17,52.24c0.6-0.09,1.2-0.19,1.8-0.28c-0.19-0.24-0.38-0.49-0.56-0.73c-0.19,0.31-0.38,0.63-0.55,0.95
			c-0.17,0.3-0.41,0.65-0.42,1.01c-0.02,0.76,0.92,1.01,1.53,1.01c1.39,0,2.37-1.04,3.19-2.04c0.17-0.21,0.2-0.5,0-0.71
			c-0.18-0.18-0.53-0.21-0.71,0c-0.58,0.71-1.22,1.52-2.17,1.71c-0.18,0.04-0.37,0.04-0.55,0.01c-0.09-0.02-0.2-0.09-0.29-0.09
			c-0.02,0-0.05-0.04-0.06-0.03c-0.03,0.04,0.07,0.16,0.05,0.17c0.05-0.01,0.18-0.34,0.2-0.39c0.07-0.12,0.13-0.24,0.2-0.36
			c0.14-0.25,0.29-0.5,0.44-0.75c0.25-0.41-0.16-0.8-0.56-0.73c-0.6,0.09-1.2,0.19-1.8,0.28c-0.27,0.04-0.41,0.38-0.35,0.62
			C79.63,52.17,79.9,52.28,80.17,52.24L80.17,52.24z"/>
	</g>
</g>
<g>
	<g>
		<path class="st0" d="M150.44,1.92c0.87,2.14,2,4.15,3.4,5.99c0.27,0.35,0.75,0.3,0.91-0.12c0.91-2.4,1.83-4.79,2.74-7.19
			c0.23-0.6-0.74-0.86-0.96-0.27c-0.91,2.4-1.83,4.79-2.74,7.19c0.3-0.04,0.61-0.08,0.91-0.12c-1.34-1.77-2.46-3.7-3.29-5.75
			c-0.1-0.25-0.33-0.42-0.62-0.35C150.55,1.37,150.34,1.67,150.44,1.92L150.44,1.92z"/>
	</g>
</g>
<g>
	<g>
		<path class="st0" d="M156.08,11.3c0.13-0.12,0.27-0.24,0.41-0.35c0.02-0.01,0.03-0.03,0.05-0.04c0.05-0.04-0.01,0.01-0.03,0.02
			c0.04-0.03,0.08-0.06,0.11-0.09c0.07-0.05,0.14-0.1,0.22-0.16c0.29-0.2,0.6-0.38,0.92-0.54c0.23-0.12,0.32-0.47,0.18-0.68
			c-0.15-0.24-0.43-0.31-0.68-0.18c-0.69,0.34-1.32,0.79-1.89,1.31c-0.19,0.18-0.19,0.53,0,0.71
			C155.58,11.49,155.87,11.49,156.08,11.3L156.08,11.3z"/>
	</g>
</g>
<g>
	<g>
		<path class="st0" d="M158.95,10.58c-0.61-1.01-1.04-2.07-1.31-3.23c-0.06-0.26-0.36-0.42-0.62-0.35
			c-0.27,0.07-0.41,0.35-0.35,0.62c0.28,1.22,0.76,2.39,1.41,3.46c0.14,0.23,0.45,0.32,0.68,0.18
			C159,11.13,159.08,10.81,158.95,10.58L158.95,10.58z"/>
	</g>
</g>
<g>
	<g>
		<path class="st0" d="M218.12,2.99c0.97,1.97,2.01,3.9,3.11,5.8c0.18,0.31,0.69,0.34,0.86,0c1.11-2.2,2.32-4.35,3.63-6.45
			c0.34-0.55-0.52-1.05-0.86-0.5c-1.31,2.09-2.52,4.25-3.63,6.45c0.29,0,0.58,0,0.86,0c-1.1-1.9-2.14-3.83-3.11-5.8
			C218.69,1.91,217.83,2.42,218.12,2.99L218.12,2.99z"/>
	</g>
</g>
<g>
	<g>
		<path class="st0" d="M223.95,8.98c-0.72,1.24-1.48,2.46-2.29,3.65c-0.15,0.22-0.04,0.55,0.18,0.68c0.25,0.14,0.53,0.05,0.68-0.18
			c0.8-1.19,1.56-2.41,2.29-3.65c0.14-0.23,0.05-0.55-0.18-0.68C224.4,8.66,224.08,8.74,223.95,8.98L223.95,8.98z"/>
	</g>
</g>
<g>
	<g>
		<path class="st0" d="M224.12,9.47c-0.43,0.62,0.15,1.42,0.81,1.51c0.7,0.09,1.25-0.54,1.42-1.16c-0.33-0.04-0.65-0.09-0.98-0.13
			c0.02,0.46,0.29,0.87,0.7,1.07c0.4,0.19,0.91,0.23,1.29-0.05c0.21-0.16,0.34-0.44,0.18-0.68c-0.13-0.21-0.46-0.35-0.68-0.18
			c-0.02,0.02-0.05,0.03-0.07,0.05c-0.09,0.05-0.01-0.01,0.01,0c-0.01,0-0.07,0.02-0.08,0.02c-0.09,0.03,0.11,0,0.02,0
			c-0.03,0-0.06,0-0.09,0c-0.1,0,0.11,0.03,0.02,0c-0.03-0.01-0.06-0.01-0.09-0.02c-0.02-0.01-0.04-0.01-0.06-0.02
			c0.07,0.03,0.09,0.04,0.05,0.02c-0.02-0.02-0.05-0.03-0.08-0.04c-0.02-0.01-0.1-0.07-0.03-0.02c0.07,0.06-0.01-0.02-0.03-0.03
			c-0.02-0.02-0.07-0.09-0.03-0.02c0.06,0.1-0.09-0.17-0.04-0.06c0.04,0.08,0-0.01-0.01-0.04c-0.04-0.12,0.01,0.1,0,0
			c-0.01-0.25-0.18-0.46-0.43-0.49c-0.24-0.03-0.48,0.12-0.55,0.36c-0.01,0.05-0.03,0.09-0.04,0.14c-0.03,0.1,0.04-0.07-0.01,0.02
			c-0.02,0.04-0.05,0.08-0.07,0.13c-0.05,0.09,0.06-0.06-0.01,0.02c-0.02,0.02-0.07,0.1-0.1,0.1c0.06-0.04,0.06-0.05,0.02-0.01
			c-0.01,0.01-0.02,0.01-0.03,0.02c-0.02,0.01-0.04,0.02-0.06,0.03c0.07-0.03,0.07-0.03,0.02-0.01c-0.02,0.01-0.04,0.01-0.07,0.02
			c0.07-0.01,0.08-0.01,0.05-0.01c-0.12,0,0.08,0.04-0.01,0.01c-0.02,0-0.04-0.01-0.06-0.02c0.06,0.03,0.08,0.03,0.05,0.02
			c-0.01-0.01-0.03-0.02-0.04-0.02c-0.04-0.03-0.04-0.02,0.02,0.02c-0.02,0.02-0.09-0.13-0.05-0.04c0.04,0.08-0.02-0.05-0.03-0.06
			c0.03,0.07,0.03,0.08,0.02,0.03c-0.01-0.04-0.01-0.04,0,0.01c0,0.05,0.01,0.05,0,0.01c0-0.05,0-0.04-0.01,0.05
			c0.02-0.05,0.01-0.04-0.02,0.04c0.01-0.02,0.02-0.04,0.03-0.05c0.15-0.22,0.05-0.56-0.18-0.68
			C224.55,9.16,224.28,9.24,224.12,9.47L224.12,9.47z"/>
	</g>
</g>
<g>
	<g>
		<path class="st0" d="M187.07,84.75c0.63,1.24,1.26,2.47,1.89,3.71c0.15,0.29,0.29,0.58,0.44,0.86c0.15,0.29,0.27,0.66,0.49,0.91
			c0.17,0.19,0.42,0.26,0.66,0.18c0.3-0.11,0.39-0.38,0.51-0.64c1.07-2.34,2.38-4.57,3.9-6.65c0.38-0.52-0.49-1.02-0.86-0.5
			c-1.35,1.85-2.54,3.82-3.54,5.88c-0.12,0.25-0.24,0.51-0.36,0.76c-0.03,0.06-0.05,0.12-0.08,0.18c-0.16,0.25,0.02,0.29,0.52,0.13
			c-0.01-0.09-0.15-0.29-0.19-0.37c-0.27-0.54-0.54-1.07-0.82-1.61c-0.57-1.11-1.13-2.22-1.7-3.34
			C187.64,83.67,186.78,84.18,187.07,84.75L187.07,84.75z"/>
	</g>
</g>
<g>
	<g>
		<path class="st0" d="M192.88,91.1c0.44-0.14,0.88-0.28,1.32-0.41c-0.21-0.16-0.42-0.32-0.63-0.48c0,0.06,0,0.06,0.01,0
			c-0.01,0.03-0.01,0.06-0.02,0.08c-0.02,0.05-0.02,0.05,0,0c-0.01,0.03-0.03,0.05-0.04,0.08c-0.01,0.02-0.11,0.16-0.05,0.09
			c-0.04,0.05-0.08,0.1-0.12,0.14c-0.2,0.23-0.39,0.46-0.5,0.75c-0.26,0.7,0.24,1.41,0.93,1.58c0.77,0.18,1.46-0.28,2-0.77
			c0.53-0.48,0.96-1.06,1.28-1.69c0.12-0.24,0.06-0.54-0.18-0.68c-0.22-0.13-0.56-0.06-0.68,0.18c-0.25,0.51-0.58,0.96-0.98,1.36
			c-0.19,0.19-0.39,0.36-0.62,0.5c-0.11,0.06-0.19,0.1-0.31,0.13c-0.11,0.03-0.19,0.03-0.24,0.02c0,0-0.15-0.05-0.08-0.02
			c-0.02-0.01-0.16-0.11-0.11-0.07c-0.01-0.01-0.1-0.11-0.05-0.05c-0.03-0.05-0.03-0.06-0.01-0.01c0-0.02-0.01-0.03-0.01-0.05
			c0.01,0.11,0.04-0.15,0-0.02c0.01-0.02,0.05-0.14,0.01-0.05c0.02-0.04,0.04-0.08,0.06-0.12c0.01-0.02,0.12-0.16,0.06-0.09
			c0.32-0.39,0.67-0.74,0.67-1.28c0-0.32-0.32-0.58-0.63-0.48c-0.44,0.14-0.88,0.28-1.32,0.41c-0.26,0.08-0.42,0.35-0.35,0.62
			C192.33,91.01,192.62,91.18,192.88,91.1L192.88,91.1z"/>
	</g>
</g>
<g>
	<g>
		<path class="st2" d="M87.42,29.47c-0.11,0.11-0.18,0.24-0.23,0.38c-0.02,0.07-0.03,0.15-0.04,0.22c0,0.04,0,0.07,0,0.11
			c0.01,0.07,0.01,0.15,0.04,0.22c0.03,0.07,0.05,0.15,0.1,0.21c0.08,0.12,0.19,0.23,0.32,0.3c0.14,0.07,0.27,0.11,0.43,0.11
			c0.16,0.01,0.3-0.04,0.43-0.1c0.18-0.08,0.28-0.25,0.33-0.43c0.02-0.07,0.03-0.15,0.03-0.22c0-0.08-0.01-0.16-0.02-0.23
			c-0.02-0.11-0.06-0.23-0.12-0.33c-0.08-0.13-0.19-0.24-0.33-0.33c-0.04-0.02-0.08-0.03-0.12-0.05c-0.07-0.02-0.13-0.02-0.2-0.01
			c-0.05,0-0.09,0.01-0.13,0.03c-0.06,0.02-0.12,0.05-0.16,0.1c-0.08,0.09-0.16,0.19-0.21,0.29c-0.06,0.1-0.11,0.22-0.13,0.34
			c-0.01,0.07-0.03,0.15-0.02,0.23c0.01,0.11,0.02,0.18,0.06,0.27c0.04,0.09,0.08,0.16,0.15,0.23c0.09,0.09,0.18,0.13,0.3,0.17
			c0.07,0.02,0.13,0.02,0.2,0.01c0.07,0,0.13-0.02,0.19-0.06c0.06-0.03,0.11-0.07,0.14-0.13c0.04-0.05,0.07-0.1,0.09-0.17
			c0.03-0.13,0.02-0.27-0.05-0.39c-0.07-0.11-0.17-0.19-0.3-0.23c-0.01,0-0.01,0-0.02-0.01c0.04,0.02,0.08,0.03,0.12,0.05
			c-0.02-0.01-0.03-0.02-0.05-0.03c0.03,0.03,0.07,0.05,0.1,0.08c-0.01-0.01-0.02-0.02-0.03-0.03c0.03,0.03,0.05,0.07,0.08,0.1
			c-0.01-0.01-0.02-0.02-0.02-0.04c0.02,0.04,0.03,0.08,0.05,0.12c-0.01-0.02-0.01-0.04-0.02-0.06c0.01,0.04,0.01,0.09,0.02,0.13
			c0-0.03,0-0.06,0-0.1c-0.01,0.04-0.01,0.09-0.02,0.13c0.01-0.06,0.03-0.11,0.05-0.17c-0.02,0.04-0.03,0.08-0.05,0.12
			c0.03-0.07,0.07-0.14,0.12-0.2c-0.03,0.03-0.05,0.07-0.08,0.1c0.02-0.02,0.03-0.04,0.05-0.06c-0.2,0.03-0.4,0.05-0.61,0.08
			c0.02,0.01,0.03,0.02,0.05,0.03c-0.03-0.03-0.07-0.05-0.1-0.08c0.03,0.02,0.05,0.05,0.08,0.08c-0.03-0.03-0.05-0.07-0.08-0.1
			c0.03,0.03,0.05,0.07,0.06,0.11c-0.02-0.04-0.03-0.08-0.05-0.12c0.02,0.04,0.03,0.09,0.04,0.13c-0.01-0.04-0.01-0.09-0.02-0.13
			c0.01,0.04,0.01,0.09,0,0.13c0.01-0.04,0.01-0.09,0.02-0.13c-0.01,0.04-0.02,0.08-0.03,0.11c0.02-0.04,0.03-0.08,0.05-0.12
			c-0.01,0.01-0.01,0.03-0.02,0.04c0.06-0.06,0.12-0.12,0.18-0.18c-0.02,0.01-0.04,0.03-0.07,0.04c0.04-0.02,0.08-0.03,0.12-0.05
			c-0.03,0.01-0.06,0.02-0.1,0.03c0.04-0.01,0.09-0.01,0.13-0.02c-0.04,0.01-0.08,0-0.12,0c0.04,0.01,0.09,0.01,0.13,0.02
			c-0.04-0.01-0.07-0.02-0.11-0.03c0.04,0.02,0.08,0.03,0.12,0.05c-0.03-0.01-0.06-0.03-0.09-0.05c0.03,0.03,0.07,0.05,0.1,0.08
			c-0.03-0.02-0.05-0.05-0.07-0.07c0.03,0.03,0.05,0.07,0.08,0.1c-0.02-0.03-0.03-0.05-0.05-0.08c0.02,0.04,0.03,0.08,0.05,0.12
			c-0.01-0.03-0.02-0.07-0.03-0.1c0.01,0.04,0.01,0.09,0.02,0.13c-0.01-0.04-0.01-0.08,0-0.12c-0.01,0.04-0.01,0.09-0.02,0.13
			c0.01-0.04,0.02-0.07,0.03-0.11c-0.02,0.04-0.03,0.08-0.05,0.12c0.01-0.03,0.03-0.06,0.05-0.09c-0.03,0.03-0.05,0.07-0.08,0.1
			c0.01-0.01,0.02-0.03,0.04-0.04c0.09-0.09,0.15-0.23,0.15-0.35c0-0.07-0.01-0.13-0.04-0.19c-0.02-0.06-0.05-0.12-0.1-0.16
			c-0.1-0.09-0.22-0.15-0.35-0.15C87.64,29.33,87.52,29.38,87.42,29.47L87.42,29.47z"/>
	</g>
</g>
<g>
	<g>
		<path class="st2" d="M87.48,41.37c0.06,0.11,0.11,0.23,0.17,0.35c0.14,0.27,0.46,0.3,0.72,0.25c0.24-0.05,0.47-0.25,0.58-0.47
			c0.08-0.15,0.11-0.27,0.12-0.43c0.01-0.11,0-0.22-0.04-0.33c-0.02-0.07-0.05-0.14-0.09-0.2c-0.03-0.04-0.06-0.09-0.1-0.13
			c-0.04-0.04-0.1-0.08-0.14-0.11c-0.13-0.09-0.28-0.12-0.43-0.14c-0.11-0.01-0.23,0.01-0.33,0.04c-0.16,0.05-0.27,0.12-0.39,0.22
			c-0.2,0.16-0.33,0.44-0.32,0.69c0,0.15,0.04,0.31,0.12,0.44c0.08,0.13,0.18,0.22,0.3,0.31c0.09,0.06,0.2,0.11,0.3,0.13
			c0.1,0.03,0.22,0.04,0.32,0.03c0.16-0.01,0.32-0.05,0.46-0.13c0.06-0.04,0.13-0.09,0.18-0.14c0.07-0.07,0.14-0.16,0.16-0.26
			c0.02-0.1,0.02-0.21-0.01-0.31c-0.05-0.17-0.15-0.34-0.28-0.45c-0.07-0.06-0.14-0.12-0.22-0.16c-0.06-0.03-0.12-0.05-0.18-0.07
			c-0.07-0.02-0.14-0.02-0.2-0.03c-0.07,0-0.13,0.01-0.19,0.04c-0.06,0.02-0.12,0.05-0.16,0.1c-0.09,0.09-0.15,0.23-0.15,0.35
			c0.01,0.13,0.05,0.26,0.15,0.35c0.03,0.03,0.07,0.05,0.1,0.08c0.08,0.05,0.16,0.07,0.25,0.07c0,0,0.01,0,0.01,0
			c-0.04-0.01-0.09-0.01-0.13-0.02c0.04,0.01,0.07,0.02,0.11,0.03c-0.04-0.02-0.08-0.03-0.12-0.05c0.04,0.02,0.07,0.04,0.11,0.06
			c-0.03-0.03-0.07-0.05-0.1-0.08c0.04,0.03,0.07,0.06,0.09,0.09c-0.03-0.03-0.05-0.07-0.08-0.1c0.02,0.03,0.04,0.07,0.06,0.1
			c-0.02-0.04-0.03-0.08-0.05-0.12c0.01,0.03,0.02,0.07,0.03,0.1c0.04-0.16,0.09-0.32,0.13-0.49c-0.02,0.03-0.04,0.05-0.07,0.07
			c0.03-0.03,0.07-0.05,0.1-0.08c-0.03,0.02-0.06,0.04-0.09,0.05c0.04-0.02,0.08-0.03,0.12-0.05c-0.04,0.02-0.08,0.03-0.12,0.03
			c0.04-0.01,0.09-0.01,0.13-0.02c-0.05,0.01-0.1,0.01-0.16,0c0.04,0.01,0.09,0.01,0.13,0.02c-0.05-0.01-0.1-0.02-0.14-0.04
			c0.04,0.02,0.08,0.03,0.12,0.05c-0.04-0.02-0.08-0.04-0.12-0.07c0.03,0.03,0.07,0.05,0.1,0.08c-0.03-0.02-0.06-0.05-0.08-0.08
			c0.03,0.03,0.05,0.07,0.08,0.1c-0.02-0.03-0.04-0.05-0.05-0.08c0.02,0.04,0.03,0.08,0.05,0.12c-0.01-0.03-0.02-0.06-0.03-0.1
			c0.01,0.04,0.01,0.09,0.02,0.13c0-0.03,0-0.06,0-0.1c-0.01,0.04-0.01,0.09-0.02,0.13c0-0.03,0.01-0.07,0.03-0.1
			c-0.02,0.04-0.03,0.08-0.05,0.12c0.02-0.03,0.03-0.07,0.06-0.1c-0.03,0.03-0.05,0.07-0.08,0.1c0.03-0.04,0.06-0.07,0.09-0.09
			c-0.03,0.03-0.07,0.05-0.1,0.08c0.04-0.03,0.08-0.05,0.12-0.07c-0.04,0.02-0.08,0.03-0.12,0.05c0.04-0.02,0.09-0.03,0.14-0.04
			c-0.04,0.01-0.09,0.01-0.13,0.02c0.04,0,0.07,0,0.11,0c-0.04-0.01-0.09-0.01-0.13-0.02c0.03,0,0.06,0.01,0.09,0.02
			c-0.04-0.02-0.08-0.03-0.12-0.05c0.03,0.01,0.06,0.03,0.08,0.05c-0.03-0.03-0.07-0.05-0.1-0.08c0.02,0.02,0.04,0.04,0.06,0.06
			c-0.03-0.03-0.05-0.07-0.08-0.1c0.02,0.02,0.03,0.04,0.04,0.07c-0.02-0.04-0.03-0.08-0.05-0.12c0.01,0.03,0.02,0.06,0.03,0.09
			c-0.01-0.04-0.01-0.09-0.02-0.13c0,0.04,0,0.07,0,0.11c0.01-0.04,0.01-0.09,0.02-0.13c-0.01,0.05-0.02,0.09-0.04,0.13
			c0.02-0.04,0.03-0.08,0.05-0.12c-0.02,0.04-0.04,0.08-0.07,0.12c0.03-0.03,0.05-0.07,0.08-0.1c-0.03,0.03-0.06,0.06-0.09,0.09
			c0.03-0.03,0.07-0.05,0.1-0.08c-0.03,0.02-0.05,0.04-0.08,0.05c0.04-0.02,0.08-0.03,0.12-0.05C88.14,40.99,88.11,41,88.08,41
			c0.04-0.01,0.09-0.01,0.13-0.02c-0.03,0-0.05,0-0.08,0c0.04,0.01,0.09,0.01,0.13,0.02c-0.02,0-0.03-0.01-0.05-0.01
			c0.1,0.08,0.2,0.15,0.3,0.23c-0.06-0.12-0.12-0.24-0.18-0.36c-0.05-0.11-0.19-0.2-0.3-0.23c-0.12-0.03-0.28-0.02-0.39,0.05
			c-0.11,0.07-0.2,0.17-0.23,0.3c-0.01,0.04-0.01,0.09-0.02,0.13C87.41,41.21,87.44,41.29,87.48,41.37L87.48,41.37z"/>
	</g>
</g>
<g>
	<g>
		<path class="st2" d="M87.92,51.55c-0.11,0.04-0.19,0.08-0.28,0.16c-0.05,0.05-0.09,0.1-0.13,0.16c-0.09,0.17-0.1,0.34-0.07,0.53
			c0.01,0.07,0.04,0.13,0.07,0.19c0.04,0.08,0.1,0.14,0.17,0.2c0.03,0.02,0.05,0.04,0.08,0.06c0.13,0.07,0.26,0.08,0.4,0.05
			c0.04-0.01,0.07-0.02,0.1-0.03c0.15-0.06,0.25-0.12,0.38-0.22c0.08-0.07,0.15-0.16,0.21-0.24c0.13-0.18,0.19-0.4,0.21-0.62
			c0.01-0.12,0-0.23-0.03-0.35c-0.02-0.11-0.07-0.23-0.14-0.33c-0.06-0.09-0.14-0.16-0.24-0.2c-0.1-0.04-0.22-0.06-0.33-0.03
			c-0.16,0.06-0.32,0.12-0.46,0.21c-0.18,0.11-0.31,0.24-0.43,0.41c-0.23,0.32-0.26,0.77-0.08,1.12c0.08,0.15,0.22,0.29,0.37,0.35
			c0.13,0.06,0.22,0.08,0.36,0.1c0.09,0.01,0.18,0,0.27-0.02c0.41-0.08,0.71-0.54,0.58-0.95c-0.07-0.2-0.2-0.39-0.39-0.49
			c-0.22-0.12-0.52-0.15-0.73,0.01c-0.06,0.03-0.11,0.07-0.14,0.13c-0.04,0.05-0.07,0.1-0.09,0.17c-0.03,0.12-0.02,0.28,0.05,0.39
			c0.07,0.11,0.17,0.2,0.3,0.23c0.12,0.03,0.28,0.03,0.39-0.05c0.02-0.01,0.03-0.02,0.05-0.03c-0.04,0.02-0.08,0.03-0.12,0.05
			c0.01,0,0.03-0.01,0.04-0.01c-0.04,0.01-0.09,0.01-0.13,0.02c0.02,0,0.04,0,0.05,0c-0.04-0.01-0.09-0.01-0.13-0.02
			c0.02,0,0.04,0.01,0.06,0.02c-0.04-0.02-0.08-0.03-0.12-0.05c0.02,0.01,0.05,0.02,0.07,0.04c-0.03-0.03-0.07-0.05-0.1-0.08
			c0.02,0.02,0.05,0.04,0.07,0.07c-0.03-0.03-0.05-0.07-0.08-0.1c0.02,0.02,0.03,0.05,0.04,0.07c-0.02-0.04-0.03-0.08-0.05-0.12
			c0.01,0.02,0.01,0.04,0.02,0.07c-0.01-0.04-0.01-0.09-0.02-0.13c0,0.02,0,0.04,0,0.07c0.01-0.04,0.01-0.09,0.02-0.13
			c0,0.02-0.01,0.04-0.02,0.06c0.02-0.04,0.03-0.08,0.05-0.12c-0.01,0.02-0.02,0.04-0.03,0.05c0.03-0.03,0.05-0.07,0.08-0.1
			c-0.02,0.02-0.03,0.04-0.05,0.05c0.03-0.03,0.07-0.05,0.1-0.08c-0.02,0.02-0.05,0.03-0.07,0.04c0.04-0.02,0.08-0.03,0.12-0.05
			c-0.03,0.01-0.06,0.02-0.09,0.02c0.04-0.01,0.09-0.01,0.13-0.02c-0.04,0-0.07,0-0.11,0c0.04,0.01,0.09,0.01,0.13,0.02
			c-0.04-0.01-0.07-0.01-0.11-0.03c0.04,0.02,0.08,0.03,0.12,0.05c-0.03-0.01-0.06-0.03-0.09-0.05c0.03,0.03,0.07,0.05,0.1,0.08
			c-0.02-0.02-0.04-0.04-0.06-0.06c0.03,0.03,0.05,0.07,0.08,0.1c-0.02-0.03-0.04-0.06-0.06-0.09c0.02,0.04,0.03,0.08,0.05,0.12
			c-0.02-0.04-0.03-0.09-0.04-0.13c0.01,0.04,0.01,0.09,0.02,0.13c-0.01-0.05,0-0.09,0-0.14c-0.01,0.04-0.01,0.09-0.02,0.13
			c0.01-0.06,0.02-0.11,0.04-0.17c-0.02,0.04-0.03,0.08-0.05,0.12c0.02-0.05,0.05-0.1,0.09-0.15c-0.03,0.03-0.05,0.07-0.08,0.1
			c0.05-0.06,0.1-0.11,0.15-0.15c-0.03,0.03-0.07,0.05-0.1,0.08c0.1-0.08,0.21-0.13,0.32-0.18c-0.04,0.02-0.08,0.03-0.12,0.05
			c0.04-0.02,0.07-0.03,0.11-0.04c-0.19-0.08-0.38-0.15-0.56-0.23c0.02,0.03,0.04,0.07,0.05,0.1c-0.02-0.04-0.03-0.08-0.05-0.12
			c0.02,0.05,0.03,0.1,0.04,0.16c-0.01-0.04-0.01-0.09-0.02-0.13c0.01,0.06,0.01,0.12,0,0.18c0.01-0.04,0.01-0.09,0.02-0.13
			c-0.01,0.07-0.03,0.14-0.06,0.21c0.02-0.04,0.03-0.08,0.05-0.12c-0.03,0.06-0.06,0.11-0.1,0.17c0.03-0.03,0.05-0.07,0.08-0.1
			c-0.04,0.05-0.08,0.09-0.13,0.13c0.03-0.03,0.07-0.05,0.1-0.08c-0.04,0.03-0.08,0.06-0.13,0.08c0.04-0.02,0.08-0.03,0.12-0.05
			c-0.04,0.02-0.08,0.03-0.12,0.04c0.13,0.02,0.26,0.03,0.39,0.05c-0.01-0.01-0.03-0.01-0.04-0.02c0.03,0.03,0.07,0.05,0.1,0.08
			c-0.01-0.01-0.02-0.02-0.03-0.03c0.03,0.03,0.05,0.07,0.08,0.1c-0.01-0.01-0.02-0.02-0.02-0.04c0.02,0.04,0.03,0.08,0.05,0.12
			c-0.01-0.02-0.01-0.04-0.02-0.06c0.01,0.04,0.01,0.09,0.02,0.13c0-0.03,0-0.05,0-0.08c-0.01,0.04-0.01,0.09-0.02,0.13
			c0-0.02,0.01-0.04,0.02-0.06c-0.02,0.04-0.03,0.08-0.05,0.12c0.01-0.02,0.02-0.03,0.03-0.05c-0.03,0.03-0.05,0.07-0.08,0.1
			c0.01-0.01,0.02-0.02,0.03-0.03c-0.03,0.03-0.07,0.05-0.1,0.08c0.01-0.01,0.02-0.02,0.04-0.02c-0.04,0.02-0.08,0.03-0.12,0.05
			c0,0,0.01,0,0.01,0c0.12-0.05,0.23-0.11,0.3-0.23c0.06-0.11,0.09-0.27,0.05-0.39c-0.04-0.12-0.11-0.24-0.23-0.3
			C88.19,51.54,88.05,51.51,87.92,51.55L87.92,51.55z"/>
	</g>
</g>
<g>
	<g>
		<path class="st2" d="M168.58,20.76c0.2-0.15,0.25-0.47,0.17-0.7c-0.09-0.24-0.28-0.45-0.54-0.5c-0.27-0.05-0.55,0.04-0.74,0.24
			c-0.18,0.19-0.26,0.41-0.29,0.66c-0.04,0.36,0.12,0.7,0.35,0.96c0.24,0.27,0.58,0.42,0.93,0.46c0.33,0.03,0.69-0.11,0.91-0.35
			c0.23-0.24,0.34-0.55,0.36-0.88c0.02-0.28-0.06-0.59-0.22-0.82c-0.1-0.15-0.22-0.28-0.38-0.37c-0.2-0.12-0.42-0.13-0.64-0.08
			c-0.37,0.08-0.66,0.39-0.8,0.73c-0.07,0.16-0.11,0.34-0.1,0.52c0.01,0.1,0.02,0.2,0.05,0.29c0.05,0.15,0.11,0.23,0.21,0.36
			c0.1,0.12,0.34,0.19,0.49,0.13c0.24-0.1,0.46-0.23,0.64-0.42c0.18-0.19,0.31-0.41,0.4-0.66c0.01-0.04,0.01-0.09,0.02-0.13
			c0-0.07-0.01-0.13-0.04-0.19c-0.04-0.1-0.11-0.19-0.2-0.24c-0.2-0.11-0.44-0.08-0.61,0.08c-0.23,0.21-0.35,0.52-0.36,0.83
			c-0.01,0.31,0.11,0.62,0.32,0.85c0.14,0.16,0.43,0.19,0.61,0.08c0.18-0.12,0.3-0.35,0.23-0.56c-0.06-0.18-0.16-0.36-0.31-0.48
			c-0.11-0.09-0.2-0.14-0.34-0.2c-0.09-0.04-0.19-0.05-0.29-0.06c-0.12-0.01-0.27,0.06-0.35,0.15c-0.09,0.09-0.15,0.23-0.15,0.35
			c0.01,0.13,0.05,0.26,0.15,0.35c0.1,0.09,0.21,0.13,0.35,0.15c0.01,0,0.03,0,0.04,0c-0.04-0.01-0.09-0.01-0.13-0.02
			c0.04,0.01,0.08,0.02,0.12,0.03c-0.04-0.02-0.08-0.03-0.12-0.05c0.04,0.02,0.07,0.04,0.11,0.06c-0.03-0.03-0.07-0.05-0.1-0.08
			c0.04,0.03,0.07,0.06,0.1,0.1c-0.03-0.03-0.05-0.07-0.08-0.1c0.02,0.03,0.05,0.07,0.06,0.11c-0.02-0.04-0.03-0.08-0.05-0.12
			c0.01,0.02,0.01,0.04,0.02,0.06c0.28-0.16,0.56-0.32,0.84-0.49c-0.01-0.01-0.03-0.03-0.04-0.04c0.03,0.03,0.05,0.07,0.08,0.1
			c-0.03-0.04-0.06-0.09-0.08-0.13c0.02,0.04,0.03,0.08,0.05,0.12c-0.02-0.06-0.04-0.12-0.05-0.19c0.01,0.04,0.01,0.09,0.02,0.13
			c-0.01-0.07-0.01-0.13,0-0.19c-0.01,0.04-0.01,0.09-0.02,0.13c0.01-0.06,0.03-0.13,0.05-0.19c-0.02,0.04-0.03,0.08-0.05,0.12
			c0.02-0.05,0.05-0.09,0.08-0.13c-0.03,0.03-0.05,0.07-0.08,0.1c0.02-0.03,0.05-0.06,0.08-0.09c-0.28-0.16-0.56-0.32-0.84-0.49
			c-0.01,0.02-0.02,0.04-0.02,0.06c0.02-0.04,0.03-0.08,0.05-0.12c-0.04,0.09-0.09,0.18-0.15,0.27c0.03-0.03,0.05-0.07,0.08-0.1
			c-0.07,0.09-0.14,0.17-0.23,0.23c0.03-0.03,0.07-0.05,0.1-0.08c-0.08,0.06-0.17,0.11-0.26,0.16c0.04-0.02,0.08-0.03,0.12-0.05
			c-0.01,0-0.01,0.01-0.02,0.01c0.16,0.04,0.32,0.09,0.49,0.13c0,0-0.01-0.01-0.01-0.01c0.03,0.03,0.05,0.07,0.08,0.1
			c-0.03-0.04-0.05-0.07-0.06-0.11c0.02,0.04,0.03,0.08,0.05,0.12c-0.02-0.05-0.03-0.09-0.04-0.14c0.01,0.04,0.01,0.09,0.02,0.13
			c-0.01-0.05-0.01-0.11,0-0.16c-0.01,0.04-0.01,0.09-0.02,0.13c0.01-0.07,0.03-0.13,0.05-0.19c-0.02,0.04-0.03,0.08-0.05,0.12
			c0.03-0.07,0.06-0.13,0.11-0.19c-0.03,0.03-0.05,0.07-0.08,0.1c0.04-0.05,0.09-0.1,0.14-0.14c-0.03,0.03-0.07,0.05-0.1,0.08
			c0.04-0.03,0.09-0.06,0.14-0.08c-0.04,0.02-0.08,0.03-0.12,0.05c0.05-0.02,0.09-0.03,0.14-0.04c-0.04,0.01-0.09,0.01-0.13,0.02
			c0.04,0,0.09,0,0.13,0c-0.08-0.02-0.17-0.05-0.25-0.07c0.04,0.02,0.08,0.05,0.12,0.07c-0.03-0.03-0.07-0.05-0.1-0.08
			c0.05,0.04,0.09,0.08,0.12,0.12c-0.03-0.03-0.05-0.07-0.08-0.1c0.04,0.05,0.08,0.11,0.1,0.17c-0.02-0.04-0.03-0.08-0.05-0.12
			c0.03,0.08,0.05,0.16,0.07,0.25c-0.01-0.04-0.01-0.09-0.02-0.13c0.01,0.09,0.01,0.17,0,0.26c0.01-0.04,0.01-0.09,0.02-0.13
			c-0.01,0.08-0.03,0.16-0.06,0.23c0.02-0.04,0.03-0.08,0.05-0.12c-0.03,0.06-0.06,0.12-0.1,0.17c0.03-0.03,0.05-0.07,0.08-0.1
			c-0.04,0.05-0.08,0.09-0.12,0.12c0.03-0.03,0.07-0.05,0.1-0.08c-0.04,0.03-0.09,0.06-0.14,0.08c0.04-0.02,0.08-0.03,0.12-0.05
			c-0.05,0.02-0.1,0.04-0.16,0.04c0.04-0.01,0.09-0.01,0.13-0.02c-0.07,0.01-0.13,0.01-0.2,0c0.04,0.01,0.09,0.01,0.13,0.02
			c-0.07-0.01-0.14-0.03-0.21-0.06c0.04,0.02,0.08,0.03,0.12,0.05c-0.08-0.03-0.15-0.08-0.22-0.13c0.03,0.03,0.07,0.05,0.1,0.08
			c-0.06-0.05-0.12-0.11-0.17-0.17c0.03,0.03,0.05,0.07,0.08,0.1c-0.04-0.06-0.08-0.12-0.11-0.19c0.02,0.04,0.03,0.08,0.05,0.12
			c-0.03-0.06-0.04-0.12-0.05-0.19c0.01,0.04,0.01,0.09,0.02,0.13c-0.01-0.06-0.01-0.12,0-0.18c-0.01,0.04-0.01,0.09-0.02,0.13
			c0.01-0.05,0.02-0.1,0.04-0.15c-0.02,0.04-0.03,0.08-0.05,0.12c0.02-0.04,0.04-0.09,0.07-0.12c-0.03,0.03-0.05,0.07-0.08,0.1
			c0.02-0.03,0.04-0.05,0.07-0.07c-0.03,0.03-0.07,0.05-0.1,0.08c0.03-0.02,0.05-0.04,0.08-0.05c-0.04,0.02-0.08,0.03-0.12,0.05
			c0.03-0.01,0.05-0.02,0.08-0.02c-0.04,0.01-0.09,0.01-0.13,0.02c0.02,0,0.03,0,0.05,0c-0.04-0.01-0.09-0.01-0.13-0.02
			c0.02,0,0.03,0.01,0.05,0.01c-0.04-0.02-0.08-0.03-0.12-0.05c0.02,0.01,0.04,0.02,0.05,0.03c-0.03-0.03-0.07-0.05-0.1-0.08
			c0.02,0.02,0.04,0.04,0.06,0.06c-0.03-0.03-0.05-0.07-0.08-0.1c0.01,0.02,0.02,0.04,0.03,0.05c-0.02-0.04-0.03-0.08-0.05-0.12
			c0.01,0.02,0.01,0.04,0.02,0.06c-0.01-0.04-0.01-0.09-0.02-0.13c0,0.02,0,0.04,0,0.06c0.01-0.04,0.01-0.09,0.02-0.13
			c0,0.01-0.01,0.03-0.01,0.04c0.02-0.04,0.03-0.08,0.05-0.12c0,0.01-0.01,0.02-0.01,0.02c0.03-0.03,0.05-0.07,0.08-0.1
			c-0.01,0.01-0.02,0.02-0.03,0.03c-0.09,0.07-0.15,0.24-0.15,0.35c0,0.12,0.05,0.27,0.15,0.35c0.1,0.09,0.22,0.15,0.35,0.15
			C168.37,20.9,168.47,20.85,168.58,20.76L168.58,20.76z"/>
	</g>
</g>
<g>
	<g>
		<path class="st2" d="M185.78,64.24c-0.17,0.13-0.31,0.26-0.41,0.45c-0.08,0.14-0.14,0.3-0.16,0.46c-0.06,0.37-0.02,0.75,0.19,1.07
			c0.19,0.3,0.51,0.54,0.87,0.6c0.36,0.06,0.72,0.01,1.05-0.16c0.31-0.17,0.57-0.48,0.66-0.83c0.09-0.36,0.03-0.74-0.15-1.06
			c-0.2-0.36-0.56-0.59-0.97-0.62c-0.37-0.03-0.76,0.16-0.99,0.45c-0.12,0.16-0.23,0.33-0.26,0.53c-0.05,0.25-0.02,0.48,0.1,0.71
			c0.16,0.32,0.52,0.49,0.86,0.51c0.31,0.02,0.64-0.09,0.86-0.31c0.12-0.12,0.22-0.28,0.25-0.45c0.03-0.17,0.03-0.33-0.07-0.48
			c-0.09-0.12-0.17-0.2-0.29-0.29c-0.29-0.21-0.72-0.27-1.06-0.15c-0.23,0.08-0.41,0.22-0.56,0.42c-0.12,0.17-0.17,0.37-0.19,0.57
			c-0.04,0.39,0.15,0.84,0.48,1.05c0.26,0.16,0.58,0.03,0.84-0.08c0.18-0.08,0.33-0.19,0.48-0.31c0.15-0.12,0.27-0.27,0.38-0.43
			c0.02-0.03,0.04-0.06,0.05-0.09c0.06-0.1,0.07-0.21,0.07-0.33c0-0.11-0.01-0.22-0.03-0.33c-0.07-0.43-0.37-0.81-0.79-0.95
			c-0.42-0.14-0.9,0.02-1.16,0.39c-0.29,0.41-0.09,0.98,0.3,1.24c0.19,0.12,0.45,0.17,0.66,0.09c-0.04,0.01-0.09,0.01-0.13,0.02
			c0.39,0.04,0.78-0.24,0.94-0.59c0.18-0.4,0.15-0.87-0.18-1.18c-0.29-0.28-0.74-0.37-1.12-0.25c-0.39,0.12-0.71,0.44-0.78,0.85
			c-0.08,0.45,0.06,0.96,0.42,1.26c0.09,0.07,0.17,0.12,0.29,0.14c0.1,0.01,0.24,0,0.32-0.06c0.15-0.12,0.3-0.23,0.45-0.35
			c0.11-0.08,0.19-0.16,0.23-0.3c0.03-0.12,0.02-0.28-0.05-0.39c-0.07-0.11-0.17-0.2-0.3-0.23c-0.12-0.03-0.28-0.03-0.39,0.05
			c-0.15,0.12-0.3,0.23-0.45,0.35c0.2,0.03,0.4,0.05,0.61,0.08c-0.04-0.03-0.07-0.07-0.11-0.1c-0.03-0.02,0.08,0.11,0.02,0.02
			c-0.01-0.02-0.02-0.04-0.03-0.06c-0.01-0.02-0.02-0.04-0.03-0.06c0.07,0.14,0.03,0.08,0.02,0.04c-0.02-0.05-0.03-0.1-0.04-0.15
			c0.01,0.04,0.01,0.09,0.02,0.13c-0.01-0.07-0.01-0.13,0-0.2c-0.01,0.04-0.01,0.09-0.02,0.13c0-0.03,0.01-0.07,0.02-0.1
			c0-0.02,0.01-0.04,0.02-0.05c0.02-0.07-0.02,0.06-0.03,0.06c0,0,0.05-0.1,0.06-0.1c0.01,0-0.09,0.1-0.04,0.05
			c0.01-0.01,0.02-0.02,0.03-0.04c0.01-0.01,0.06-0.05-0.01,0.01c-0.08,0.06-0.02,0.01,0,0c0.03-0.02,0.05-0.03,0.08-0.04
			c0.04-0.02-0.11,0.04-0.06,0.03c0.02,0,0.03-0.01,0.05-0.02c0.03-0.01,0.07-0.02,0.1-0.02c-0.04,0.01-0.09,0.01-0.13,0.02
			c0.06-0.01,0.12-0.01,0.18,0c-0.04-0.01-0.09-0.01-0.13-0.02c0.05,0.01,0.1,0.02,0.15,0.04c-0.15-0.04-0.08-0.04-0.03-0.01
			c0.09,0.05-0.06-0.05-0.03-0.03c0.02,0.02,0.03,0.03,0.05,0.05c0.05,0.05-0.08-0.12-0.02-0.02c0.06,0.1-0.03-0.1-0.01-0.03
			c0.01,0.03,0.01,0.05,0.02,0.07c-0.01-0.04-0.01-0.09-0.02-0.13c0.01,0.05,0.01,0.1,0,0.15c0.01-0.04,0.01-0.09,0.02-0.13
			c0,0.03-0.01,0.05-0.02,0.08c0,0.01-0.01,0.02-0.01,0.04c-0.02,0.06,0.02-0.06,0.03-0.06c-0.01,0.01-0.03,0.05-0.04,0.07
			c0,0.01-0.02,0.03-0.02,0.03c0-0.01,0.09-0.11,0.04-0.05c-0.02,0.02-0.04,0.04-0.05,0.05c-0.03,0.03,0.1-0.06,0.06-0.04
			c-0.01,0.01-0.02,0.01-0.03,0.02c-0.01,0.01-0.02,0.01-0.03,0.02c-0.04,0.02,0.11-0.04,0.07-0.03c-0.03,0-0.05,0.01-0.08,0.02
			c0.04-0.01,0.09-0.01,0.13-0.02c-0.03,0-0.06,0-0.09,0c-0.07,0-0.13,0.02-0.2,0.03c0.04-0.01,0.09-0.01,0.13-0.02
			c-0.03,0-0.05,0-0.08,0c0.04,0.01,0.09,0.01,0.13,0.02c0,0-0.05-0.01-0.06-0.01c0.01,0,0.13,0.06,0.06,0.02
			c-0.07-0.04,0.05,0.03,0.05,0.04c0,0-0.04-0.04-0.04-0.04c0.01,0,0.08,0.12,0.04,0.04c-0.01-0.01-0.02-0.03-0.03-0.04
			c0.06,0.09,0.04,0.1,0.02,0.04c-0.01-0.02-0.01-0.04-0.01-0.06c0.01,0.04,0.01,0.09,0.02,0.13c0-0.03,0-0.07,0-0.1
			c-0.01,0.04-0.01,0.09-0.02,0.13c0-0.02,0.01-0.04,0.01-0.06c-0.01,0.08-0.05,0.11-0.01,0.05c0.04-0.06-0.08,0.08-0.03,0.05
			c0.02-0.01,0.08-0.07,0-0.01c-0.07,0.06-0.02,0.02,0,0.01c0.05-0.03,0.07-0.01-0.05,0.02c0.04-0.01,0.08-0.02,0.12-0.03
			c-0.04,0.01-0.09,0.01-0.13,0.02c0.06-0.01,0.11-0.01,0.17,0c-0.04-0.01-0.09-0.01-0.13-0.02c0.03,0.01,0.06,0.01,0.09,0.02
			c0.02,0,0.07,0.03-0.01-0.01c-0.08-0.04-0.03-0.01-0.01,0c0.01,0.01,0.03,0.02,0.04,0.03c0.05,0.03-0.05-0.03-0.05-0.04
			c0,0,0.07,0.07,0.08,0.08c0.04,0.04-0.06-0.09-0.03-0.04c0.01,0.01,0.02,0.03,0.03,0.04c0.01,0.02,0.02,0.04,0.03,0.05
			c0.03,0.06-0.02-0.05-0.02-0.05c-0.01,0.01,0.03,0.08,0.03,0.09c0.01,0.04,0.02,0.08,0.02,0.12c-0.01-0.04-0.01-0.09-0.02-0.13
			c0.01,0.08,0.01,0.17,0,0.25c0.02-0.08,0.05-0.17,0.07-0.25c-0.03,0.04-0.05,0.09-0.08,0.13c-0.05,0.08,0.07-0.09,0.02-0.02
			c-0.02,0.02-0.03,0.04-0.05,0.06c-0.03,0.04-0.07,0.07-0.11,0.11c-0.02,0.02-0.04,0.03-0.06,0.05c0.1-0.1,0.05-0.04,0.01-0.01
			c-0.04,0.03-0.08,0.06-0.13,0.08c-0.02,0.01-0.04,0.02-0.07,0.04c-0.02,0.01-0.11,0.05-0.02,0.01c0.09-0.04,0,0-0.02,0.01
			c-0.02,0.01-0.05,0.02-0.07,0.02c-0.05,0.02-0.11,0.03-0.16,0.04c0.13,0.02,0.26,0.03,0.39,0.05c0.14,0.1,0.04,0.02,0-0.01
			c-0.04-0.04,0.07,0.11,0.03,0.04c-0.01-0.02-0.02-0.03-0.03-0.05c-0.01-0.02-0.04-0.08,0,0c0.04,0.09,0.01,0.02,0,0
			c-0.01-0.04-0.02-0.08-0.03-0.12c0.01,0.04,0.01,0.09,0.02,0.13c-0.01-0.06-0.01-0.13,0-0.19c-0.01,0.04-0.01,0.09-0.02,0.13
			c0-0.03,0.01-0.06,0.02-0.09c0.01-0.02,0.04-0.12,0-0.03c-0.04,0.09,0.01-0.01,0.02-0.03c0,0,0.02-0.03,0.02-0.03
			c0.01,0.01-0.1,0.1-0.03,0.05c0.01-0.01,0.02-0.02,0.03-0.03c0.03-0.03-0.09,0.06-0.05,0.04c0.03-0.01,0.05-0.03,0.08-0.05
			c0.06-0.03-0.06,0.03-0.06,0.03c0,0,0.04-0.01,0.04-0.01c0.03-0.01,0.07-0.02,0.1-0.02c-0.04,0.01-0.09,0.01-0.13,0.02
			c0.06-0.01,0.13-0.01,0.19,0c-0.04-0.01-0.09-0.01-0.13-0.02c0.04,0.01,0.08,0.01,0.12,0.03c0.02,0.01,0.04,0.01,0.06,0.02
			c-0.15-0.04-0.08-0.03-0.03-0.01c0.02,0.01,0.03,0.02,0.05,0.03c0.04,0.02-0.1-0.1-0.04-0.03c0.01,0.01,0.03,0.03,0.04,0.04
			c0.03,0.02-0.08-0.12-0.02-0.03c-0.02-0.08-0.05-0.17-0.07-0.25c0,0.01,0,0.02,0,0.03c0.01-0.04,0.01-0.09,0.02-0.13
			c0,0.03-0.01,0.05-0.02,0.08c-0.01,0.05,0.03-0.07,0.03-0.08c-0.01,0.01-0.01,0.03-0.02,0.03c-0.01,0.01-0.02,0.02-0.02,0.03
			c0,0,0.09-0.1,0.05-0.07c-0.01,0.01-0.02,0.02-0.03,0.03c-0.03,0.03-0.07,0.03,0.06-0.04c-0.02,0.01-0.04,0.03-0.06,0.04
			c-0.01,0.01-0.02,0.01-0.04,0.02c-0.05,0.03,0.07-0.03,0.07-0.03c-0.02,0-0.06,0.02-0.08,0.02c-0.03,0.01-0.05,0.01-0.08,0.02
			c0.04-0.01,0.09-0.01,0.13-0.02c-0.06,0.01-0.12,0.01-0.18,0c0.04,0.01,0.09,0.01,0.13,0.02c-0.05-0.01-0.09-0.02-0.14-0.03
			c-0.05-0.01,0.13,0.06,0.07,0.03c-0.01-0.01-0.02-0.01-0.03-0.01c-0.02-0.01-0.1-0.07-0.02-0.01c0.08,0.06,0.02,0.01,0-0.01
			c-0.03-0.03-0.02-0.07,0.04,0.06c0-0.01-0.01-0.02-0.02-0.03c-0.01-0.01-0.01-0.02-0.02-0.03c-0.03-0.05,0.03,0.06,0.03,0.06
			c0,0-0.02-0.09-0.03-0.1c0.01,0.04,0.01,0.09,0.02,0.13c-0.01-0.05-0.01-0.1,0-0.14c-0.01,0.04-0.01,0.09-0.02,0.13
			c0-0.03,0.01-0.07,0.02-0.1c0.01-0.02,0.03-0.08,0,0c-0.04,0.09-0.01,0.02,0,0c0-0.01,0.05-0.09,0.06-0.09c0,0-0.1,0.11-0.03,0.04
			c0.01-0.01,0.02-0.03,0.04-0.04c0.01-0.01,0.02-0.02,0.03-0.03c0.04-0.03,0.08-0.04-0.03,0.02c0.03-0.02,0.05-0.04,0.08-0.05
			c0.02-0.01,0.03-0.02,0.05-0.02c-0.12,0.07-0.09,0.04-0.05,0.02c0.04-0.01,0.07-0.02,0.11-0.03c-0.04,0.01-0.09,0.01-0.13,0.02
			c0.06-0.01,0.11-0.01,0.17,0c-0.04-0.01-0.09-0.01-0.13-0.02c0.04,0.01,0.08,0.02,0.12,0.03c0.07,0.02-0.1-0.05-0.05-0.02
			c0.01,0.01,0.03,0.02,0.04,0.02c0.02,0.01,0.03,0.02,0.05,0.03c-0.11-0.06-0.08-0.06-0.04-0.03c0.03,0.03,0.05,0.05,0.08,0.08
			c0.04,0.04-0.08-0.11-0.03-0.04c0.01,0.02,0.02,0.03,0.03,0.05c0.01,0.02,0.07,0.14,0.03,0.05c-0.04-0.09,0.01,0.03,0.02,0.06
			c0.01,0.04,0.02,0.08,0.03,0.12c-0.01-0.04-0.01-0.09-0.02-0.13c0.01,0.08,0.01,0.17,0,0.25c0.01-0.04,0.01-0.09,0.02-0.13
			c-0.01,0.05-0.02,0.1-0.03,0.14c-0.02,0.05-0.05,0.08,0.02-0.04c-0.01,0.02-0.02,0.04-0.03,0.06c-0.01,0.02-0.03,0.05-0.04,0.07
			c-0.04,0.07,0.08-0.1,0.03-0.04c-0.03,0.03-0.06,0.06-0.09,0.09c-0.07,0.07,0.1-0.07,0.03-0.02c-0.02,0.01-0.03,0.02-0.05,0.03
			c-0.02,0.01-0.04,0.02-0.05,0.03c-0.02,0.01-0.11,0.05-0.01,0.01c0.09-0.04,0,0-0.02,0c-0.02,0.01-0.04,0.01-0.06,0.02
			c-0.05,0.01-0.09,0.02-0.14,0.03c0.04-0.01,0.09-0.01,0.13-0.02c-0.09,0.01-0.18,0.01-0.27,0c0.04,0.01,0.09,0.01,0.13,0.02
			c-0.05-0.01-0.09-0.02-0.14-0.03c-0.02-0.01-0.04-0.01-0.06-0.02c-0.08-0.02,0.12,0.06,0.04,0.02c-0.04-0.02-0.08-0.04-0.12-0.07
			c-0.09-0.05,0.09,0.08,0.03,0.02c-0.02-0.01-0.03-0.03-0.05-0.04c-0.01-0.02-0.03-0.03-0.04-0.05c-0.06-0.06,0.07,0.1,0.03,0.03
			c-0.01-0.01-0.06-0.13-0.07-0.13c0.01,0,0.05,0.14,0.02,0.04c-0.01-0.02-0.01-0.04-0.02-0.06c-0.01-0.05-0.02-0.1-0.03-0.14
			c0.01,0.04,0.01,0.09,0.02,0.13c-0.01-0.09-0.01-0.18,0-0.27c-0.01,0.04-0.01,0.09-0.02,0.13c0.01-0.06,0.02-0.11,0.03-0.16
			c0.01-0.03,0.02-0.05,0.03-0.08c-0.05,0.15-0.03,0.07-0.01,0.02c0.01-0.02,0.03-0.05,0.04-0.07c0.06-0.1-0.07,0.08-0.02,0.02
			c0.03-0.04,0.18-0.17,0.04-0.05c0.11-0.08,0.19-0.16,0.23-0.3c0.03-0.12,0.02-0.28-0.05-0.39c-0.07-0.11-0.17-0.2-0.3-0.23
			C186.05,64.16,185.89,64.16,185.78,64.24L185.78,64.24z"/>
	</g>
</g>
<g>
	<g>
		<path class="st2" d="M208.12,30.54c0.02,0.16,0.05,0.3,0.17,0.42c0.11,0.11,0.27,0.17,0.42,0.17c0.23-0.01,0.47-0.13,0.59-0.34
			c0.15-0.25,0.11-0.56-0.09-0.77c-0.16-0.16-0.38-0.24-0.6-0.23c-0.68,0.05-1.12,0.7-1.08,1.35c0.02,0.32,0.13,0.61,0.34,0.86
			c0.2,0.24,0.51,0.38,0.82,0.39c0.6,0.02,1.17-0.52,1.26-1.1c0.03-0.18,0.03-0.36-0.02-0.53c-0.05-0.17-0.15-0.33-0.27-0.45
			c-0.26-0.25-0.6-0.32-0.95-0.25c-0.26,0.05-0.53,0.21-0.7,0.41c-0.22,0.25-0.34,0.55-0.3,0.88c0.05,0.4,0.34,0.68,0.7,0.82
			c0.3,0.12,0.7,0.08,0.97-0.1c0.19-0.13,0.32-0.29,0.4-0.5c0.07-0.18,0.07-0.37,0.04-0.55c-0.06-0.34-0.3-0.65-0.62-0.78
			c-0.36-0.15-0.78-0.07-1.04,0.22c-0.24,0.26-0.37,0.64-0.27,0.99c0.1,0.38,0.47,0.66,0.87,0.65c0.35-0.02,0.71-0.2,0.88-0.52
			c0.11-0.2,0.13-0.41,0.08-0.62c-0.02-0.1-0.1-0.2-0.18-0.26c-0.09-0.07-0.19-0.1-0.3-0.11c-0.31-0.03-0.6,0.18-0.75,0.44
			c-0.12,0.22-0.17,0.47-0.19,0.73c-0.01,0.26,0.24,0.51,0.5,0.5c0.28-0.01,0.49-0.22,0.5-0.5c0-0.04,0.01-0.09,0.01-0.13
			c-0.01,0.04-0.01,0.09-0.02,0.13c0.01-0.1,0.04-0.19,0.07-0.28c-0.02,0.04-0.03,0.08-0.05,0.12c0.02-0.05,0.05-0.1,0.08-0.14
			c-0.03,0.03-0.05,0.07-0.08,0.1c0.02-0.03,0.04-0.05,0.07-0.07c-0.03,0.03-0.07,0.05-0.1,0.08c0.02-0.01,0.03-0.02,0.05-0.03
			c-0.04,0.02-0.08,0.03-0.12,0.05c0.02-0.01,0.05-0.02,0.08-0.02c-0.04,0.01-0.09,0.01-0.13,0.02c0.02,0,0.05,0,0.07,0
			c-0.16-0.12-0.32-0.24-0.48-0.37c0,0.01,0,0.02,0.01,0.03c-0.01-0.04-0.01-0.09-0.02-0.13c0,0.03,0,0.05,0,0.08
			c0.01-0.04,0.01-0.09,0.02-0.13c0,0.04-0.01,0.07-0.03,0.1c0.02-0.04,0.03-0.08,0.05-0.12c-0.01,0.03-0.03,0.06-0.05,0.08
			c0.03-0.03,0.05-0.07,0.08-0.1c-0.03,0.03-0.06,0.06-0.09,0.09c0.03-0.03,0.07-0.05,0.1-0.08c-0.04,0.03-0.08,0.06-0.13,0.08
			c0.04-0.02,0.08-0.03,0.12-0.05c-0.05,0.02-0.09,0.03-0.14,0.04c0.04-0.01,0.09-0.01,0.13-0.02c-0.04,0.01-0.09,0.01-0.13,0
			c0.04,0.01,0.09,0.01,0.13,0.02c-0.04-0.01-0.07-0.02-0.11-0.03c0.04,0.02,0.08,0.03,0.12,0.05c-0.02-0.01-0.05-0.02-0.07-0.04
			c0.03,0.03,0.07,0.05,0.1,0.08c-0.03-0.02-0.05-0.04-0.07-0.07c0.03,0.03,0.05,0.07,0.08,0.1c-0.02-0.03-0.04-0.05-0.05-0.08
			c0.02,0.04,0.03,0.08,0.05,0.12c-0.01-0.03-0.02-0.07-0.03-0.11c0.01,0.04,0.01,0.09,0.02,0.13c-0.01-0.04,0-0.09,0-0.13
			c-0.01,0.04-0.01,0.09-0.02,0.13c0.01-0.06,0.02-0.11,0.04-0.16c-0.02,0.04-0.03,0.08-0.05,0.12c0.02-0.05,0.05-0.09,0.08-0.13
			c-0.03,0.03-0.05,0.07-0.08,0.1c0.03-0.03,0.06-0.07,0.09-0.09c-0.03,0.03-0.07,0.05-0.1,0.08c0.03-0.03,0.07-0.05,0.11-0.07
			c-0.04,0.02-0.08,0.03-0.12,0.05c0.03-0.01,0.06-0.02,0.09-0.03c-0.04,0.01-0.09,0.01-0.13,0.02c0.04-0.01,0.08-0.01,0.12,0
			c-0.04-0.01-0.09-0.01-0.13-0.02c0.04,0.01,0.08,0.02,0.11,0.03c-0.04-0.02-0.08-0.03-0.12-0.05c0.04,0.02,0.07,0.04,0.1,0.06
			c-0.03-0.03-0.07-0.05-0.1-0.08c0.04,0.03,0.07,0.06,0.1,0.1c-0.03-0.03-0.05-0.07-0.08-0.1c0.04,0.05,0.06,0.1,0.09,0.15
			c-0.02-0.04-0.03-0.08-0.05-0.12c0.02,0.05,0.03,0.1,0.04,0.15c-0.01-0.04-0.01-0.09-0.02-0.13c0.01,0.05,0.01,0.1,0,0.15
			c0.01-0.04,0.01-0.09,0.02-0.13c-0.01,0.05-0.02,0.09-0.04,0.13c0.02-0.04,0.03-0.08,0.05-0.12c-0.01,0.03-0.03,0.06-0.05,0.09
			c0.03-0.03,0.05-0.07,0.08-0.1c-0.03,0.03-0.05,0.06-0.09,0.09c0.03-0.03,0.07-0.05,0.1-0.08c-0.04,0.03-0.08,0.05-0.12,0.07
			c0.04-0.02,0.08-0.03,0.12-0.05c-0.05,0.02-0.11,0.04-0.17,0.05c0.04-0.01,0.09-0.01,0.13-0.02c-0.06,0.01-0.12,0.01-0.18,0
			c0.04,0.01,0.09,0.01,0.13,0.02c-0.06-0.01-0.12-0.02-0.17-0.05c0.04,0.02,0.08,0.03,0.12,0.05c-0.05-0.02-0.09-0.05-0.14-0.08
			c0.03,0.03,0.07,0.05,0.1,0.08c-0.03-0.03-0.06-0.05-0.09-0.09c0.03,0.03,0.05,0.07,0.08,0.1c-0.03-0.04-0.05-0.07-0.07-0.11
			c0.02,0.04,0.03,0.08,0.05,0.12c-0.02-0.04-0.03-0.07-0.03-0.11c0.01,0.04,0.01,0.09,0.02,0.13c-0.01-0.04-0.01-0.09,0-0.13
			c-0.01,0.04-0.01,0.09-0.02,0.13c0.01-0.05,0.02-0.09,0.04-0.14c-0.02,0.04-0.03,0.08-0.05,0.12c0.02-0.06,0.06-0.11,0.09-0.16
			c-0.03,0.03-0.05,0.07-0.08,0.1c0.05-0.06,0.1-0.11,0.16-0.15c-0.03,0.03-0.07,0.05-0.1,0.08c0.06-0.04,0.12-0.08,0.19-0.11
			c-0.04,0.02-0.08,0.03-0.12,0.05c0.06-0.03,0.13-0.04,0.19-0.05c-0.04,0.01-0.09,0.01-0.13,0.02c0.05-0.01,0.11-0.01,0.16,0
			c-0.04-0.01-0.09-0.01-0.13-0.02c0.04,0.01,0.09,0.02,0.13,0.04c-0.04-0.02-0.08-0.03-0.12-0.05c0.04,0.02,0.07,0.04,0.1,0.06
			c-0.03-0.03-0.07-0.05-0.1-0.08c0.03,0.03,0.07,0.06,0.09,0.09c-0.03-0.03-0.05-0.07-0.08-0.1c0.03,0.04,0.05,0.08,0.07,0.13
			c-0.02-0.04-0.03-0.08-0.05-0.12c0.02,0.04,0.03,0.09,0.04,0.14c-0.01-0.04-0.01-0.09-0.02-0.13c0.01,0.06,0.01,0.12,0,0.18
			c0.01-0.04,0.01-0.09,0.02-0.13c-0.01,0.08-0.03,0.15-0.06,0.22c0.02-0.04,0.03-0.08,0.05-0.12c-0.03,0.07-0.07,0.14-0.12,0.2
			c0.03-0.03,0.05-0.07,0.08-0.1c-0.05,0.06-0.1,0.12-0.17,0.17c0.03-0.03,0.07-0.05,0.1-0.08c-0.05,0.04-0.1,0.07-0.16,0.09
			c0.04-0.02,0.08-0.03,0.12-0.05c-0.06,0.02-0.11,0.04-0.17,0.05c0.04-0.01,0.09-0.01,0.13-0.02c-0.05,0.01-0.1,0.01-0.15,0
			c0.04,0.01,0.09,0.01,0.13,0.02c-0.06-0.01-0.11-0.02-0.16-0.04c0.04,0.02,0.08,0.03,0.12,0.05c-0.05-0.02-0.1-0.05-0.15-0.09
			c0.03,0.03,0.07,0.05,0.1,0.08c-0.04-0.04-0.08-0.08-0.12-0.12c0.03,0.03,0.05,0.07,0.08,0.1c-0.04-0.06-0.08-0.12-0.11-0.19
			c0.02,0.04,0.03,0.08,0.05,0.12c-0.03-0.08-0.05-0.16-0.07-0.25c0.01,0.04,0.01,0.09,0.02,0.13c-0.01-0.09-0.01-0.18,0-0.27
			c-0.01,0.04-0.01,0.09-0.02,0.13c0.01-0.08,0.03-0.16,0.06-0.23c-0.02,0.04-0.03,0.08-0.05,0.12c0.03-0.06,0.06-0.12,0.1-0.18
			c-0.03,0.03-0.05,0.07-0.08,0.1c0.04-0.05,0.08-0.09,0.12-0.12c-0.03,0.03-0.07,0.05-0.1,0.08c0.04-0.03,0.09-0.06,0.13-0.08
			c-0.04,0.02-0.08,0.03-0.12,0.05c0.04-0.02,0.09-0.03,0.13-0.04c-0.04,0.01-0.09,0.01-0.13,0.02c0.04,0,0.07,0,0.11,0
			c-0.04-0.01-0.09-0.01-0.13-0.02c0.02,0,0.05,0.01,0.07,0.02c-0.04-0.02-0.08-0.03-0.12-0.05c0.02,0.01,0.04,0.02,0.06,0.03
			c-0.03-0.03-0.07-0.05-0.1-0.08c0.01,0.01,0.02,0.02,0.04,0.04c-0.03-0.03-0.05-0.07-0.08-0.1c0.01,0.01,0.02,0.03,0.03,0.04
			c-0.02-0.04-0.03-0.08-0.05-0.12c0,0.01,0.01,0.02,0.01,0.02c-0.01-0.04-0.01-0.09-0.02-0.13c0,0.01,0,0.02,0,0.04
			c0.01-0.04,0.01-0.09,0.02-0.13c0,0.01,0,0.02-0.01,0.02c0.02-0.04,0.03-0.08,0.05-0.12c-0.01,0.02-0.01,0.03-0.03,0.04
			c0.03-0.03,0.05-0.07,0.08-0.1c-0.01,0.01-0.02,0.03-0.04,0.04c0.03-0.03,0.07-0.05,0.1-0.08c-0.02,0.01-0.04,0.02-0.06,0.03
			c0.04-0.02,0.08-0.03,0.12-0.05c-0.02,0.01-0.03,0.01-0.05,0.01c0.04-0.01,0.09-0.01,0.13-0.02c-0.01,0-0.02,0-0.03,0
			c0.04,0.01,0.09,0.01,0.13,0.02c-0.01,0-0.02,0-0.03-0.01c0.04,0.02,0.08,0.03,0.12,0.05c-0.01,0-0.01-0.01-0.02-0.01
			c0.03,0.03,0.07,0.05,0.1,0.08c0,0,0,0-0.01-0.01c0.03,0.03,0.05,0.07,0.08,0.1c0-0.01-0.01-0.01-0.01-0.02
			c0.02,0.04,0.03,0.08,0.05,0.12c0-0.01-0.01-0.02-0.01-0.02c0.01,0.04,0.01,0.09,0.02,0.13c0,0,0-0.01,0-0.01
			c-0.02-0.14-0.04-0.25-0.15-0.35c-0.09-0.09-0.23-0.15-0.35-0.15c-0.13,0.01-0.26,0.05-0.35,0.15
			C208.18,30.27,208.1,30.41,208.12,30.54L208.12,30.54z"/>
	</g>
</g>
<g>
	<g>
		<path class="st2" d="M170.03,13.65c0.37,0.93,0.88,1.77,1.55,2.51c0.12,0.13,0.32,0.17,0.49,0.13c0.18-0.05,0.28-0.18,0.35-0.35
			c-0.03,0.08,0.03-0.07,0.04-0.09c0.02-0.05,0.05-0.11,0.07-0.16c0.04-0.09,0.09-0.18,0.13-0.27c0.1-0.19,0.2-0.38,0.31-0.56
			c0.11-0.18,0.23-0.37,0.35-0.54c0.06-0.08,0.11-0.16,0.17-0.24c0.03-0.04,0.06-0.08,0.09-0.12c-0.05,0.06,0.06-0.08,0.07-0.09
			c0.16-0.2,0.21-0.51,0-0.71c-0.18-0.17-0.53-0.22-0.71,0c-0.62,0.77-1.11,1.6-1.49,2.51c0.28-0.07,0.56-0.15,0.84-0.22
			c-0.08-0.08-0.15-0.17-0.22-0.26c-0.03-0.04-0.06-0.08-0.09-0.11c-0.04-0.05-0.04-0.05-0.01-0.01c-0.02-0.03-0.04-0.05-0.06-0.08
			c-0.13-0.17-0.24-0.34-0.35-0.52c-0.11-0.18-0.21-0.36-0.31-0.55c-0.05-0.1-0.1-0.2-0.15-0.31c-0.02-0.04-0.04-0.09-0.06-0.13
			c0.04,0.08-0.04-0.09-0.04-0.1c-0.1-0.24-0.34-0.44-0.62-0.35C170.14,13.11,169.92,13.39,170.03,13.65L170.03,13.65z"/>
	</g>
</g>
<g>
	<g>
		<path class="st2" d="M173.66,18.54c0.51-0.45,1.02-0.91,1.53-1.36c0.2-0.17,0.19-0.53,0-0.71c-0.21-0.19-0.5-0.19-0.71,0
			c-0.51,0.45-1.02,0.91-1.53,1.36c-0.2,0.17-0.19,0.53,0,0.71C173.16,18.73,173.45,18.73,173.66,18.54L173.66,18.54z"/>
	</g>
</g>
<g>
	<g>
		<path class="st2" d="M176.33,18.14c-0.27-1.28-0.5-2.56-0.67-3.85c-0.04-0.27-0.2-0.5-0.5-0.5c-0.24,0-0.54,0.23-0.5,0.5
			c0.18,1.38,0.42,2.76,0.71,4.12c0.06,0.26,0.37,0.42,0.62,0.35C176.26,18.68,176.39,18.4,176.33,18.14L176.33,18.14z"/>
	</g>
</g>
<g>
	<g>
		<path class="st2" d="M211.27,24.87c0.35,0.85,0.82,1.62,1.4,2.33c0.21,0.25,0.64,0.16,0.79-0.1c0.44-0.8,0.98-1.61,1.52-2.27
			c0.16-0.2,0.21-0.51,0-0.71c-0.18-0.17-0.53-0.22-0.71,0c-0.63,0.78-1.19,1.6-1.67,2.47c0.26-0.03,0.52-0.07,0.79-0.1
			c-0.03-0.04-0.06-0.08-0.1-0.12c0,0-0.1-0.12-0.05-0.06c-0.06-0.08-0.12-0.16-0.18-0.24c-0.11-0.16-0.22-0.32-0.32-0.48
			c-0.1-0.17-0.19-0.33-0.28-0.51c-0.05-0.09-0.09-0.18-0.13-0.27c-0.02-0.04-0.04-0.08-0.05-0.11c-0.01-0.02-0.07-0.16-0.04-0.09
			c-0.1-0.24-0.34-0.44-0.62-0.35C211.38,24.33,211.16,24.62,211.27,24.87L211.27,24.87z"/>
	</g>
</g>
<g>
	<g>
		<path class="st2" d="M214.47,27.21c-0.52,0.84-0.99,1.71-1.42,2.6c-0.11,0.24-0.07,0.55,0.18,0.68c0.22,0.12,0.56,0.07,0.68-0.18
			c0.42-0.89,0.9-1.76,1.42-2.6c0.14-0.22,0.06-0.56-0.18-0.68C214.91,26.9,214.61,26.97,214.47,27.21L214.47,27.21z"/>
	</g>
</g>
<g>
	<g>
		<path class="st2" d="M214.59,27.67c-0.04,0.29-0.07,0.58,0.02,0.87c0.1,0.35,0.38,0.64,0.75,0.69c0.37,0.05,0.74-0.12,0.98-0.41
			c0.11-0.13,0.2-0.27,0.28-0.42c0.03-0.06,0.07-0.12,0.1-0.18c0.02-0.03,0.04-0.06,0.06-0.09c-0.05,0.07,0,0,0.03-0.03
			c-0.26-0.2-0.52-0.4-0.79-0.61c-0.3,0.43-0.14,1.06,0.24,1.39c0.48,0.41,1.14,0.34,1.67,0.08c0.24-0.11,0.32-0.47,0.18-0.68
			c-0.16-0.24-0.43-0.3-0.68-0.18c-0.13,0.06,0.09-0.03-0.04,0.02c-0.04,0.01-0.07,0.02-0.11,0.03c-0.04,0.01-0.07,0.01-0.11,0.03
			c0.1-0.03-0.01,0-0.04,0c-0.04,0-0.07,0-0.11,0c-0.05,0,0.07,0.02-0.02-0.01c-0.03-0.01-0.12-0.06-0.04-0.01
			c-0.02-0.01-0.1-0.04-0.03-0.02c0.03,0.02,0.03,0.03,0.01,0.01c-0.01-0.01-0.03-0.02-0.04-0.03c-0.07-0.05,0.02,0.05,0,0.01
			c0-0.01-0.05-0.07-0.04-0.07c0.02,0.06,0.03,0.08,0.02,0.04c-0.01-0.02-0.01-0.03-0.02-0.05c0-0.01-0.01-0.02-0.01-0.03
			c-0.01-0.04-0.01-0.04,0,0c0.01,0.04,0.01,0.05,0,0c0-0.01,0-0.02,0-0.03c-0.01,0.07-0.01,0.09-0.01,0.05
			c0-0.02,0.01-0.03,0.01-0.05c0.01,0-0.06,0.11,0.01,0c0.14-0.2,0.05-0.5-0.13-0.65c-0.19-0.15-0.49-0.15-0.66,0.04
			c-0.16,0.18-0.27,0.38-0.39,0.59c-0.03,0.05-0.06,0.09-0.09,0.14c-0.03,0.05-0.03,0.05,0,0c-0.02,0.02-0.04,0.04-0.06,0.06
			c-0.04,0.04-0.04,0.04,0.01,0c-0.02,0.02-0.04,0.03-0.07,0.04c-0.08,0.06,0.07-0.03-0.04,0.01c-0.04,0.01-0.02,0.01,0.04-0.01
			c-0.06,0-0.05,0,0.02,0c0.06,0.03,0.07,0.03,0.03,0.01c-0.04-0.03-0.03-0.02,0.03,0.02c-0.06-0.05,0.06,0.1-0.01-0.02
			c-0.02-0.05-0.02-0.04,0.01,0.03c-0.01-0.01-0.01-0.03-0.01-0.05c0-0.02-0.01-0.03-0.01-0.05c-0.01-0.05-0.01-0.04,0,0.03
			c0,0-0.01-0.13-0.01-0.14c0-0.05,0-0.09,0-0.14c0-0.03,0.02-0.19,0-0.03c0.02-0.14,0.02-0.26-0.05-0.39
			c-0.06-0.1-0.18-0.2-0.3-0.23C214.97,27.26,214.63,27.39,214.59,27.67L214.59,27.67z"/>
	</g>
</g>
<g>
	<g>
		<path class="st2" d="M189.12,68.72c0.52,0.87,1.04,1.73,1.56,2.6c0.2,0.34,0.65,0.31,0.86,0c0.52-0.76,1.04-1.51,1.57-2.27
			c0.15-0.22,0.05-0.56-0.18-0.68c-0.25-0.13-0.52-0.05-0.68,0.18c-0.52,0.76-1.04,1.51-1.57,2.27c0.29,0,0.58,0,0.86,0
			c-0.52-0.87-1.04-1.73-1.56-2.6c-0.13-0.22-0.46-0.33-0.68-0.18C189.08,68.18,188.98,68.48,189.12,68.72L189.12,68.72z"/>
	</g>
</g>
<g>
	<g>
		<path class="st2" d="M192.4,72.78c0.42-0.11,0.85-0.23,1.27-0.34c-0.21-0.21-0.41-0.41-0.62-0.62c-0.06,0.22-0.12,0.45-0.15,0.68
			c-0.04,0.24-0.1,0.5-0.07,0.74c0.08,0.59,0.66,0.78,1.17,0.6c0.82-0.28,1.44-0.89,1.77-1.69c0.1-0.24-0.11-0.56-0.35-0.62
			c-0.29-0.07-0.51,0.09-0.62,0.35c0.04-0.09-0.04,0.08-0.05,0.1c-0.03,0.06-0.07,0.12-0.1,0.17c-0.02,0.03-0.04,0.06-0.06,0.09
			c-0.04,0.07,0.07-0.08-0.02,0.02c-0.04,0.05-0.09,0.1-0.14,0.15c-0.05,0.05-0.1,0.09-0.15,0.14c-0.01,0.01-0.1,0.08-0.05,0.05
			c0.04-0.03-0.03,0.02-0.04,0.03c-0.12,0.08-0.24,0.15-0.37,0.21c0.04-0.02,0.04-0.01,0,0c-0.04,0.01-0.07,0.03-0.11,0.04
			c-0.03,0.01-0.05,0.01-0.08,0.02c-0.08,0.02-0.05-0.01,0,0c-0.06-0.02-0.01,0,0.02,0.01c-0.08-0.03,0.06,0.05,0.07,0.07
			c-0.01-0.01,0.13,0.13,0.08,0.14c0,0,0-0.08,0-0.09c0.01-0.17,0.03-0.25,0.06-0.45c0.03-0.17,0.08-0.34,0.12-0.51
			c0.11-0.37-0.25-0.71-0.62-0.62c-0.42,0.11-0.85,0.23-1.27,0.34c-0.25,0.07-0.43,0.36-0.35,0.62
			C191.87,72.69,192.13,72.85,192.4,72.78L192.4,72.78z"/>
	</g>
</g>
<g>
	<g>
		<path class="st2" d="M92.19,29.66c5.17-1.6,10.58-2.31,15.98-2.09c5.46,0.22,10.71,1.6,15.99,2.89c4.95,1.21,9.92,2.17,15.04,2.15
			c4.74-0.01,9.49-0.72,14.03-2.08c5.15-1.54,10.04-3.9,14.41-7.02c0.52-0.37,0.02-1.24-0.5-0.86c-7.79,5.55-17.22,8.69-26.78,8.94
			c-5.14,0.14-10.13-0.7-15.12-1.9c-5.18-1.25-10.33-2.67-15.67-3.05c-5.95-0.42-11.96,0.29-17.65,2.05
			C91.31,28.88,91.57,29.85,92.19,29.66L92.19,29.66z"/>
	</g>
</g>
<g>
	<g>
		<path class="st2" d="M92.72,41.18c14.87-5.97,30.94-0.83,46.11,0.81c3.98,0.43,8.08,0.75,12.06,0.23c3.5-0.46,6.78-1.74,9.92-3.31
			c3.17-1.59,6.2-3.45,9.37-5.05c3.26-1.64,6.68-2.91,10.23-3.76c7.97-1.91,16.41-1.7,24.27,0.63c0.62,0.18,0.88-0.78,0.27-0.96
			c-6.95-2.06-14.34-2.48-21.49-1.3c-3.62,0.6-7.16,1.61-10.54,3.03c-3.3,1.38-6.38,3.19-9.51,4.91c-3.1,1.7-6.27,3.34-9.71,4.25
			c-3.9,1.04-7.98,0.92-11.97,0.61c-8.09-0.63-16.03-2.41-24.09-3.33c-7.49-0.85-15.26-0.94-22.53,1.33
			c-0.9,0.28-1.78,0.6-2.65,0.95C91.86,40.45,92.12,41.42,92.72,41.18L92.72,41.18z"/>
	</g>
</g>
<g>
	<g>
		<path class="st2" d="M92.45,52.54c6.31-1.49,12.92-1.58,19.27-0.23c6.09,1.3,11.83,3.78,17.47,6.35
			c11.18,5.08,22.64,10.33,35.08,11.12c6.65,0.42,13.39-0.47,19.5-3.2c0.59-0.26,0.08-1.12-0.5-0.86
			c-11.27,5.04-24.13,3.41-35.49-0.41c-5.98-2.01-11.71-4.61-17.45-7.22c-5.58-2.54-11.23-5.06-17.21-6.48
			c-6.87-1.64-14.05-1.64-20.93-0.02C91.56,51.72,91.82,52.68,92.45,52.54L92.45,52.54z"/>
	</g>
</g>
<g>
	<g>
		<path class="st2" d="M166.82,22.56c-0.69-0.07-1.37-0.13-2.06-0.2c-0.26-0.03-0.51,0.25-0.5,0.5c0.01,0.29,0.22,0.47,0.5,0.5
			c0.69,0.07,1.37,0.13,2.06,0.2c0.26,0.03,0.51-0.25,0.5-0.5C167.3,22.77,167.1,22.59,166.82,22.56L166.82,22.56z"/>
	</g>
</g>
<g>
	<g>
		<path class="st2" d="M166.64,23.77c-0.09,0.66-0.17,1.33-0.26,1.99c-0.02,0.12,0.07,0.27,0.15,0.35c0.09,0.09,0.23,0.15,0.35,0.15
			c0.13-0.01,0.26-0.05,0.35-0.15c0.1-0.1,0.13-0.21,0.15-0.35c0.09-0.66,0.17-1.33,0.26-1.99c0.02-0.12-0.07-0.27-0.15-0.35
			c-0.09-0.09-0.23-0.15-0.35-0.15c-0.13,0.01-0.26,0.05-0.35,0.15C166.69,23.53,166.66,23.63,166.64,23.77L166.64,23.77z"/>
	</g>
</g>
<g>
	<g>
		<path class="st2" d="M205.07,29.69c-0.56-0.78-1.2-1.49-1.94-2.09c-0.11-0.09-0.21-0.15-0.35-0.15c-0.12,0-0.27,0.05-0.35,0.15
			c-0.17,0.18-0.22,0.53,0,0.71c0.35,0.28,0.68,0.59,0.99,0.92c0.15,0.16,0.3,0.33,0.44,0.5c0.03,0.04,0.07,0.08,0.1,0.12
			c0.02,0.02,0.04,0.05,0.05,0.07c0.04,0.05-0.06-0.08,0,0c0.07,0.09,0.14,0.19,0.21,0.28c0.08,0.11,0.17,0.19,0.3,0.23
			c0.12,0.03,0.28,0.02,0.39-0.05C205.1,30.24,205.23,29.92,205.07,29.69L205.07,29.69z"/>
	</g>
</g>
<g>
	<g>
		<path class="st2" d="M203.94,30.02c-0.67,0.45-1.31,0.95-1.9,1.49c-0.19,0.18-0.19,0.53,0,0.71c0.21,0.19,0.5,0.19,0.71,0
			c0.28-0.25,0.56-0.5,0.86-0.73c0.02-0.01,0.03-0.03,0.05-0.04c0.05-0.04,0,0-0.02,0.02c0.04-0.03,0.07-0.05,0.11-0.08
			c0.08-0.06,0.15-0.11,0.23-0.17c0.16-0.11,0.32-0.22,0.48-0.33c0.22-0.14,0.33-0.45,0.18-0.68
			C204.48,29.99,204.17,29.87,203.94,30.02L203.94,30.02z"/>
	</g>
</g>
<g>
	<g>
		<path class="st2" d="M183.51,65.39c-0.92-0.53-1.84-1.07-2.77-1.6c-0.23-0.13-0.56-0.06-0.68,0.18c-0.13,0.24-0.06,0.54,0.18,0.68
			c0.92,0.53,1.84,1.07,2.77,1.6c0.23,0.13,0.56,0.06,0.68-0.18C183.82,65.84,183.75,65.53,183.51,65.39L183.51,65.39z"/>
	</g>
</g>
<g>
	<g>
		<path class="st2" d="M182.85,66.72c-0.24,1.01-0.47,2.01-0.71,3.02c-0.06,0.25,0.08,0.55,0.35,0.62c0.26,0.06,0.55-0.08,0.62-0.35
			c0.24-1.01,0.47-2.01,0.71-3.02c0.06-0.25-0.08-0.55-0.35-0.62C183.21,66.31,182.92,66.45,182.85,66.72L182.85,66.72z"/>
	</g>
</g>
<g>
	<g>
		<path class="st2" d="M122.19,23.79c0.33,0.69,0.73,1.35,1.2,1.96c0.11,0.15,0.24,0.25,0.43,0.25c0.16,0,0.36-0.09,0.43-0.25
			c0.42-0.92,0.94-1.8,1.55-2.61c0.16-0.21,0.04-0.57-0.18-0.68c-0.26-0.14-0.52-0.04-0.68,0.18c-0.61,0.81-1.13,1.69-1.55,2.61
			c0.29,0,0.58,0,0.86,0c-0.47-0.61-0.87-1.27-1.2-1.96c-0.11-0.24-0.47-0.32-0.68-0.18C122.13,23.26,122.07,23.53,122.19,23.79
			L122.19,23.79z"/>
	</g>
</g>
<g>
	<g>
		<path class="st2" d="M123.46,51.95c0.38,0.6,0.89,1.11,1.51,1.47c0.18,0.1,0.46,0.09,0.61-0.08c0.58-0.68,1.16-1.36,1.73-2.03
			c0.17-0.2,0.21-0.51,0-0.71c-0.19-0.17-0.53-0.21-0.71,0c-0.58,0.68-1.16,1.36-1.73,2.03c0.2-0.03,0.4-0.05,0.61-0.08
			c-0.13-0.07-0.25-0.15-0.37-0.24c0.04,0.03,0.01,0-0.02-0.01c-0.03-0.03-0.06-0.05-0.09-0.08c-0.06-0.05-0.11-0.1-0.16-0.15
			c-0.1-0.1-0.19-0.2-0.28-0.31c-0.02-0.02-0.07-0.09-0.03-0.03c-0.02-0.03-0.04-0.05-0.06-0.08c-0.05-0.07-0.09-0.14-0.14-0.21
			c-0.14-0.22-0.45-0.33-0.68-0.18C123.41,51.41,123.31,51.71,123.46,51.95L123.46,51.95z"/>
	</g>
</g>
<g>
	<g>
		<path class="st2" d="M122.51,35.58c0.22,0.68,0.68,1.26,1.31,1.6c0.18,0.1,0.47,0.1,0.61-0.08c0.41-0.51,0.82-1.02,1.22-1.54
			c0.09-0.11,0.15-0.21,0.15-0.35c0-0.12-0.05-0.27-0.15-0.35c-0.18-0.17-0.53-0.22-0.71,0c-0.41,0.51-0.82,1.02-1.22,1.54
			c0.2-0.03,0.4-0.05,0.61-0.08c-0.06-0.03-0.12-0.07-0.18-0.11c-0.03-0.02-0.07-0.04-0.09-0.06c0.03,0.04,0.06,0.05,0,0
			c-0.1-0.09-0.2-0.18-0.29-0.29c-0.01-0.01-0.02-0.02-0.02-0.03c-0.03-0.04-0.03-0.04,0.01,0.02c-0.02-0.02-0.04-0.05-0.05-0.07
			c-0.04-0.05-0.07-0.11-0.1-0.17c-0.03-0.05-0.05-0.15-0.09-0.19c0.01,0.02,0.02,0.04,0.02,0.05c-0.01-0.02-0.02-0.04-0.03-0.07
			c-0.01-0.03-0.02-0.07-0.03-0.1c-0.08-0.25-0.35-0.43-0.62-0.35C122.61,35.05,122.42,35.31,122.51,35.58L122.51,35.58z"/>
	</g>
</g>
</svg>
