<svg id="Layer_1" data-name="Layer 1" xmlns="http://www.w3.org/2000/svg" viewBox="0 0 354.51 230.25"><defs><style>.cls-1{fill:#fd46fc;}.cls-2{fill:#486afb;}</style></defs><path class="cls-1" d="M142.55,69a27.47,27.47,0,0,1,16.27.76,26.6,26.6,0,0,1,12.53,9.82c6.48,9.2,8,20.71,9.32,31.59A113.72,113.72,0,0,0,184,129.55a42.74,42.74,0,0,0,7.42,14.56c6.19,7.75,15.88,13.47,26.06,12.68,9.32-.72,18.55-6.6,21.81-15.58a18.45,18.45,0,0,0,.87-3.26c.16-.88-1.18-1.2-1.33-.34-1.68,9.43-10.32,16.14-19.45,17.64-10,1.65-19.84-3.59-26.24-11a40.44,40.44,0,0,1-7.73-14.12A100.6,100.6,0,0,1,181.88,112c-1.38-10.85-2.64-22.23-8.62-31.69a27.34,27.34,0,0,0-27.14-13.05,29.24,29.24,0,0,0-3.82.73.52.52,0,1,0,.25,1Z"/><path class="cls-1" d="M106.82,160.35a25.35,25.35,0,0,0,9.85,12.79,34.85,34.85,0,0,0,17.22,5.63c13.7,1.06,26.88-3.68,40.27-5.6a90.93,90.93,0,0,1,21.56-.22c7.13.68,14.23,1.77,21.37,2.34,12.12,1,25.31.47,35.93-6.14,8.85-5.49,15.67-16,14.54-26.66a20.71,20.71,0,0,0-.76-3.76c-.27-.88-1.65-.5-1.4.37,2.92,10.35-2.57,21-10.78,27.22-9.6,7.3-22.59,8.47-34.23,7.88-13.66-.69-27.19-3.8-40.91-2.72-13.31,1.05-26,5.93-39.42,6.35-6.29.2-12.84-.55-18.58-3.28a27.56,27.56,0,0,1-12-10.85,22,22,0,0,1-1.66-3.63c-.22-.63-1.24-.35-1,.28Z"/><path class="cls-1" d="M32.77,142.67c-9.92,5.53-10.85,19.19-9.09,29.19a30.79,30.79,0,0,0,6.78,14.88,40.72,40.72,0,0,0,12.59,9.36c21.31,10.77,46.85,11.85,70,8,12.68-2.13,24.89-6.21,37.32-9.39a172,172,0,0,1,39.7-5.2c13-.24,26,.65,39,1.44,11.66.71,23.48,1.14,35-1,10.53-1.93,22.58-6.21,29.07-15.26,6.08-8.49,6.08-19.58,5-29.53-.28-2.52-.64-5-1-7.55-.16-1-1.72-.56-1.57.43,1.48,9.88,3,20.65-.59,30.27-4,10.62-15,16.08-25.34,18.9-10.91,3-22.37,3.14-33.61,2.7-12.2-.48-24.37-1.52-36.58-1.67a195.6,195.6,0,0,0-37.6,2.71c-12.22,2.24-24,6.17-36,9.19-22.94,5.76-47.42,7.09-70.19-.18-10.12-3.23-21.28-8.07-27.06-17.51A33.05,33.05,0,0,1,24,166c-.15-5.65.51-11.72,3.51-16.64a15.67,15.67,0,0,1,5.85-5.61.62.62,0,0,0-.62-1.07Z"/><path class="cls-1" d="M32.44,45.38c-8,2.14-13.73,8.32-17.39,15.51C11.17,68.5,8.8,77,6.62,85.2A190.75,190.75,0,0,0,.09,140.08,160.23,160.23,0,0,0,3.21,167a99.61,99.61,0,0,0,8,24.4c6.93,14,19,24.41,33.07,30.76,33.26,14.95,70.2,6.32,103.76-2.79,18.66-5.06,37.41-10.39,56.73-12.1,19.48-1.73,39,1.39,58.43.15,14.61-.92,29.74-4.79,41.29-14.18A43.38,43.38,0,0,0,317.36,176c3.22-7.87,4.13-16.5,4.3-24.93.08-4.17,0-8.33-.14-12.5a.86.86,0,0,0-1.71,0c.53,16.19.82,33.93-9.92,47.23-9,11.18-23.44,16.94-37.29,19.2-18.17,3-36.71.2-55,.32-18.57.13-36.75,4-54.65,8.65-34,8.86-70.22,21.3-105.44,11.67-14.42-4-28.17-11.5-37.78-23.15C8.86,189.33,4.43,171.77,2.3,155.13A176.88,176.88,0,0,1,4.15,101,215.86,215.86,0,0,1,10.72,74.7c2.5-7.9,5.42-16.21,11.47-22.15a23.73,23.73,0,0,1,10.53-6,.6.6,0,0,0-.28-1.16Z"/><path class="cls-2" d="M33.54,20.87c0,1.13,0,2.25,0,3.37s.07,2.25,0,3.36S33,29.85,32.86,31a26.16,26.16,0,0,0-.11,3.31A51.27,51.27,0,0,1,32.21,41a49.85,49.85,0,0,0-.44,6.68c0,4.52-.41,9-.15,13.54s.57,9.22.78,13.84.52,9.25.53,13.9-.06,9.34-.09,14c0,9.31-.05,18.62-.22,27.92,0,2.34-.12,4.69-.23,7s.18,4.52.24,6.79c.11,4.44-.35,8.95.18,13.37a17.82,17.82,0,0,0,.71,3.12c.23.76,1.37.31,1.28-.41a99.43,99.43,0,0,1-.41-13.26c0-2.24-.11-4.46-.25-6.7s.06-4.61.11-6.91c.2-9.25,0-18.51-.07-27.77s.24-18.51-.32-27.74c-.28-4.58-.35-9.17-.64-13.75-.14-2.31-.3-4.61-.29-6.92s.24-4.47.34-6.71,0-4.47.18-6.7.55-4.44.73-6.67-.1-4.45.13-6.66c.12-1.09.34-2.17.42-3.27s0-2.24,0-3.36,0-2.25,0-3.37c0-.76-1.17-.86-1.18-.1Z"/><path class="cls-2" d="M35,163.06a42.12,42.12,0,0,0,5.27,0c1.74,0,3.49.14,5.23,0s3.6-.32,5.42-.4,3.52-.19,5.29-.38c3.56-.37,7.14-.05,10.71-.19s7.07-.22,10.61-.27,7.19-.11,10.78-.36,7.28-.42,10.93-.48c7.17-.11,14.35-.08,21.51,0,2,0,4,.13,6,.25s4,.12,6,.22c4,.2,8.09.84,12.1.45a.76.76,0,0,0-.05-1.5c-7.2-.42-14.4-.8-21.61-1-3.49-.1-7,0-10.48,0s-7.26,0-10.89.07c-7.17.09-14.31.78-21.48.93-3.62.07-7.24.07-10.86.2-1.79.06-3.57.15-5.36.15s-3.56,0-5.33,0c-1.93.06-3.83.33-5.75.45s-4.07.15-6.09.35a57.45,57.45,0,0,1-5.87.16,57,57,0,0,1-6,0,.6.6,0,0,0-.12,1.2Z"/><path class="cls-2" d="M142.18,19.92a37,37,0,0,0-.3,6.74,10.5,10.5,0,0,0,.19,1.37,4.34,4.34,0,0,1,0,1.72c-.21,1.11-.29,2.24-.4,3.37-.44,4.7-.45,9.38-.42,14.09,0,2.33,0,4.64-.06,7s.14,4.53.25,6.8.05,4.63.21,6.93.33,4.69.4,7c.14,4.64.07,9.28.08,13.92,0,2.34,0,4.67.06,7a50.88,50.88,0,0,1-.17,6.76c-.13,1.1-.32,2.2-.42,3.3a31.4,31.4,0,0,0-.1,3.5c0,2.29-.11,4.59-.23,6.88-.24,4.64-.14,9.29-.15,13.93,0,9.4.25,18.8.68,28.19.06,1.16.11,2.32.19,3.49,0,.71,1.18.62,1.23-.06a123.21,123.21,0,0,0-.13-14c-.18-4.71-.25-9.42-.26-14.13s-.05-9.34,0-14c0-2.28.15-4.56.24-6.84s-.09-4.65.13-7,.57-4.42.6-6.67-.09-4.53-.09-6.79c0-4.69,0-9.38,0-14.08,0-2.29-.11-4.57-.24-6.86s-.36-4.68-.42-7-.21-4.55-.33-6.83,0-4.66,0-7c0-4.67-.08-9.37.18-14a53.62,53.62,0,0,1,.57-6.82,5.55,5.55,0,0,0,.12-1.46c0-.5-.18-1-.24-1.49a23.65,23.65,0,0,1,0-3.47,32.46,32.46,0,0,1,.3-3.41c.13-.92-1.3-1-1.42-.11Z"/><path class="cls-2" d="M35,21.43c14.49,0,29,.09,43.48.1s28.81.09,43.21.19c4.08,0,8.17,0,12.25,0s8.13.08,12.16-.26c.65-.06.59-1.07,0-1.12-3.63-.31-7.32-.25-11-.26s-7.16,0-10.74,0c-7.21,0-14.42.09-21.63.12q-21.63.09-43.25.13c-8.13,0-16.25.07-24.37.06-.65,0-.76,1-.1,1Z"/><path class="cls-1" d="M39.92,132.79c.21-.2.41-.41.62-.63s.21-.22.31-.34l.15-.17.06-.08,0-.07s0,0,0-.05,0,0,0,0a.19.19,0,0,0-.14-.24.18.18,0,0,0-.22.16v0a.17.17,0,0,0,.21.18h0l-.1-.35-.06,0-.06,0-.08.08-.17.18-.07.08h0v0l0,0-.15.17-.61.62a.24.24,0,0,0,0,.33.25.25,0,0,0,.33,0Z"/><path class="cls-1" d="M40.86,131.9a2.58,2.58,0,0,0,.46.76,1.57,1.57,0,0,0,.38.3c.17.1.41.22.6.1a.23.23,0,0,0,.13-.18.21.21,0,0,0-.09-.19h0l0,0-.09,0-.09,0,0,0s-.07,0,0,0l-.08-.05-.17-.12,0,0h0l-.07-.07-.11-.15,0,0c0-.05,0,0,0,0a.35.35,0,0,1,0-.08c-.07-.12-.12-.24-.18-.35a.26.26,0,0,0-.35-.13.26.26,0,0,0-.13.35Z"/><path class="cls-1" d="M41.22,131.38a3.64,3.64,0,0,0,0-.66c0-.22,0-.43,0-.65s0-.39-.06-.59a.73.73,0,0,0-.22-.52c-.08-.07-.2,0-.23.08a.42.42,0,0,0,0,.25,1.1,1.1,0,0,1,0,.26c0,.19,0,.38,0,.57s0,.4,0,.6a4.28,4.28,0,0,1,0,.62.26.26,0,0,0,.23.28.28.28,0,0,0,.29-.24Z"/><path class="cls-1" d="M39.62,130.14c.16.11.31.25.46.37a1.77,1.77,0,0,0,.24.17l.18.1a.57.57,0,0,0,.18,0,.21.21,0,0,0,.21-.12.2.2,0,0,0,0-.22.44.44,0,0,0-.14-.13l-.11-.09-.24-.18c-.15-.12-.3-.26-.46-.37a.27.27,0,0,0-.3.44Z"/><path class="cls-1" d="M41.52,130.62l.5-.33.23-.16a.86.86,0,0,0,.13-.14l0,0a.29.29,0,0,0,0-.2.2.2,0,0,0-.2-.18.29.29,0,0,0-.2.05l-.06,0,.06,0c-.16.1-.3.21-.45.31l-.43.28a.26.26,0,0,0-.09.18.23.23,0,0,0,.06.19.29.29,0,0,0,.18.1.28.28,0,0,0,.19-.07Z"/><path class="cls-1" d="M40.43,127.76a1,1,0,0,0-.26.39,1,1,0,0,0,0,.5.8.8,0,0,0,.66.66,1,1,0,0,0,.85-.34.73.73,0,0,0,.16-.93.88.88,0,0,0-.5-.29,1.34,1.34,0,0,0-.66,0,.17.17,0,0,0-.12.14c0,.06,0,.14.1.15l.25,0,.2,0,.16.05.1,0,0,0,0,0,0,0s0,0,0,0,0,0,0,0h0l0,0c0,.05,0,0,0,0v0s0,0,0,0v0s0,0,0,0l0,.08,0,0-.06.09,0,0h0l-.06,0-.06.06,0,0h0l-.15.07h0c-.06,0,0,0,0,0l-.09,0h-.16l-.09,0s0,0,0,0l0,0h0a.49.49,0,0,1-.1-.15.79.79,0,0,1,0-.38.69.69,0,0,1,0-.13l.12-.16a.15.15,0,1,0-.19-.22Z"/><path class="cls-1" d="M40.94,110.49v.06a.17.17,0,0,0,.24.13,3.41,3.41,0,0,0,.58-.5c.22-.19.43-.4.65-.6s.4-.36.6-.56.42-.39.43-.66a.16.16,0,0,0-.26-.13c-.18.14-.34.32-.52.48l-.58.55c-.19.19-.39.38-.58.58l-.28.3c-.07.08-.14.17-.22.25l.27.06,0,0a.16.16,0,0,0-.31.09Z"/><path class="cls-1" d="M42.94,109.1c.11.32.22.63.34.94a2.29,2.29,0,0,0,.51.88.2.2,0,0,0,.33-.22c-.09-.31-.25-.6-.36-.9s-.22-.61-.33-.92a.27.27,0,0,0-.35-.13.28.28,0,0,0-.14.35Z"/><path class="cls-1" d="M42.72,106.19c0,.42,0,.83.07,1.25a4.34,4.34,0,0,0,.18,1.19.16.16,0,0,0,.3-.06c0-.82-.06-1.63-.12-2.46a.22.22,0,0,0-.43.08Z"/><path class="cls-1" d="M42.56,107.07H42.5l-.12,0-.2-.07-.09,0-.05,0,0,0h0l0,0-.1-.06c-.26-.17-.48-.4-.76-.55a.21.21,0,0,0-.24,0,.22.22,0,0,0,0,.24,1.5,1.5,0,0,0,.33.42,2.81,2.81,0,0,0,.44.33,2.61,2.61,0,0,0,1,.36.26.26,0,0,0,.29-.24.27.27,0,0,0-.24-.29Z"/><path class="cls-1" d="M43.18,107.6c.34-.19.68-.37,1-.58a2.56,2.56,0,0,0,.85-.75.14.14,0,0,0-.18-.21c-.32.16-.61.37-.93.55l-1,.54a.25.25,0,0,0-.12.33.24.24,0,0,0,.33.12Z"/><path class="cls-1" d="M42.25,104.8a1.36,1.36,0,0,0-.18.78.54.54,0,0,0,.32.37.75.75,0,0,0,.47,0,1.49,1.49,0,0,0,.45-.19,1.17,1.17,0,0,0,.37-.33.67.67,0,0,0,.12-.51.64.64,0,0,0-.34-.43,1.17,1.17,0,0,0-.69-.13,1.2,1.2,0,0,0-.62.3.16.16,0,0,0,.16.26l.23-.1a.8.8,0,0,1,.2-.07H43s.07,0,0,0a.53.53,0,0,1,.12,0l0,0h0l.08.06s.05,0,0,0l0,0v0h0s0,0,0,0,0,0,0,0v0s0,0,0,0v0s0,0,0,0a0,0,0,0,0,0,0l0,0s0,0,0,0l0,0-.05.07,0,0h0s0,0,0,0l-.13.12-.14.1h0l-.05,0-.1,0-.08,0H42.7l-.08,0h-.16l0,0-.06,0h0l0,0s0,0,0,0,0,0,0-.05,0,0,0,0,0,0,0,0a1,1,0,0,1,0-.17,2.26,2.26,0,0,1,.11-.37.08.08,0,1,0-.15,0Z"/><path class="cls-1" d="M61.68,147.68c.28-.48.52-1,.82-1.45.15-.23.31-.45.48-.67a2.13,2.13,0,0,0,.44-.7.13.13,0,0,0-.21-.14,6.09,6.09,0,0,0-.54.6,6.67,6.67,0,0,0-.48.7c-.28.48-.53,1-.8,1.46-.12.2.18.41.29.2Z"/><path class="cls-1" d="M63,145.17c.15.44.3.88.47,1.31a4.83,4.83,0,0,0,.65,1.23c.14.18.4,0,.33-.21-.15-.43-.36-.84-.53-1.26s-.32-.85-.47-1.28a.25.25,0,0,0-.32-.12.26.26,0,0,0-.13.33Z"/><path class="cls-1" d="M62.92,142.77c.06.45.12.91.14,1.38,0,.22,0,.45,0,.68s0,.44,0,.66a.18.18,0,0,0,.33.07,1.27,1.27,0,0,0,.15-.69c0-.24,0-.48,0-.72a11.76,11.76,0,0,0-.2-1.45c0-.26-.42-.18-.39.07Z"/><path class="cls-1" d="M63.09,144.13l-.15-.11h0s0,0,0,0l-.06-.06a3.73,3.73,0,0,1-.26-.3,3.71,3.71,0,0,0-.27-.29l-.3-.27a.16.16,0,0,0-.24.15,1.25,1.25,0,0,0,.2.4l.06.08s0,.05,0,0l0,0,.14.22a2,2,0,0,0,.57.6.28.28,0,0,0,.37-.07.27.27,0,0,0-.06-.37Z"/><path class="cls-1" d="M63.43,144.51,64,144a3,3,0,0,0,.52-.55.18.18,0,0,0-.23-.27,2.39,2.39,0,0,0-.63.42l-.54.48a.28.28,0,0,0,0,.37.27.27,0,0,0,.38,0Z"/><path class="cls-1" d="M62.28,141.6a1.55,1.55,0,0,0,0,.71.64.64,0,0,0,.74.33,1.12,1.12,0,0,0,.8-.6.62.62,0,0,0,.07-.48.58.58,0,0,0-.37-.36,1.48,1.48,0,0,0-.63-.07l-.29,0-.28.07a.18.18,0,0,0,0,.35,2.57,2.57,0,0,0,.48,0h.45l.11,0h0l0,0,0,0h0v0s0,0,0,0v0s0-.06,0,0a.06.06,0,0,1,0,0s0,0,0,0v.05s0,0,0,0,0,0,0,0l0,.07s0,0,0,0v0l-.06.07,0,0s0,0,0,0a.93.93,0,0,1-.15.13s0,0,0,0l0,0-.1,0s0,0,0,0l-.05,0h-.15s0,0,0,0h-.09c.05,0,0,0,0,0s0,0,0,0l0,0h0s0,0,0,0l0,0v0s0,0,0,0l0-.06h0v0s0-.05,0-.07v0s0-.05,0,0,0,0,0,0v0a.28.28,0,0,1,0-.09v-.16a.16.16,0,0,0-.14-.17.15.15,0,0,0-.17.14Z"/><path class="cls-1" d="M69.52,102.81q-.47.72-.9,1.44l-.44.69c-.12.18-.4.59-.1.75a.21.21,0,0,0,.24,0c.1-.07.11-.19.17-.29s.14-.21.2-.32.26-.43.39-.65c.26-.45.53-.9.8-1.35.15-.24-.2-.49-.36-.25Z"/><path class="cls-1" d="M69.43,103.19c.21.55.44,1.08.69,1.61.12.26.24.53.37.79a2.81,2.81,0,0,0,.36.6.14.14,0,0,0,.23,0,.8.8,0,0,0-.07-.72c-.12-.27-.25-.54-.38-.8-.26-.56-.51-1.12-.72-1.69-.12-.31-.6-.09-.48.22Z"/><path class="cls-1" d="M69.25,99.21c0,.7.07,1.41.09,2.12a7.05,7.05,0,0,0,.22,2c.06.19.38.13.38-.07,0-.69-.06-1.38-.09-2.07l-.12-2.12c0-.32-.5-.22-.48.09Z"/><path class="cls-1" d="M68,100a6.65,6.65,0,0,0,.7.95c.12.14.25.26.37.39a1.37,1.37,0,0,1,.17.17,1.71,1.71,0,0,0,.18.2c.1.09.26,0,.27-.13a.7.7,0,0,0-.22-.51l-.38-.38a7.17,7.17,0,0,1-.74-.91.21.21,0,0,0-.27,0A.22.22,0,0,0,68,100Z"/><path class="cls-1" d="M70,101.38a10.27,10.27,0,0,1,.8-.68,8.93,8.93,0,0,0,.83-.69.17.17,0,0,0,0-.22.16.16,0,0,0-.22-.06,7.74,7.74,0,0,0-1,.56c-.29.22-.56.45-.82.68a.27.27,0,0,0,0,.38.28.28,0,0,0,.38,0Z"/><path class="cls-1" d="M68.7,98.07a1.28,1.28,0,0,0,.06.7.71.71,0,0,0,.77.35,1.12,1.12,0,0,0,.75-.5.7.7,0,0,0,.1-.58A.55.55,0,0,0,70,97.7a1.22,1.22,0,0,0-.6-.06,1.27,1.27,0,0,0-.28.06,1.82,1.82,0,0,0-.3.11.19.19,0,0,0,0,.35.76.76,0,0,0,.26,0,1.52,1.52,0,0,0,.21,0l.2,0h.23s0,0,0,0l.08,0,.06,0s-.05,0,0,0h0a0,0,0,0,0,0,0h0l0,0s0,0,0,0,0,0,0,0,0,0,0,0l0,.09s0,0,0,0l0,0,0,.06a.15.15,0,0,1,0,.06s0,0,0,0l0,0-.07,0,0,0h0a.69.69,0,0,1-.15.07h-.12s0,0,0,0h-.08s-.06,0,0,0l-.06,0h0s0,0,0,0l0,0s0,0,0,0,0,0,0,0l0,0s0,0,0,0l0,0s0,0,0-.07,0,.05,0,0v0a.17.17,0,0,1,0-.07.22.22,0,0,1,0-.08v0h0V98.1a.18.18,0,0,0-.16-.19.19.19,0,0,0-.19.16Z"/><path class="cls-1" d="M125.64,99.88l.62-.63.31-.34.15-.17.07-.09a.21.21,0,0,0,0-.12s0,0,0,0a.19.19,0,0,0-.14-.25.19.19,0,0,0-.22.17h0a.17.17,0,0,0,.2.19h0l-.1-.36,0,0a.18.18,0,0,0-.07,0l-.08.07a1.54,1.54,0,0,1-.17.19l-.07.08h0l0,0-.16.16c-.2.21-.4.42-.61.62a.25.25,0,0,0,0,.33.24.24,0,0,0,.33,0Z"/><path class="cls-1" d="M126.58,99a2.91,2.91,0,0,0,.46.76,1.91,1.91,0,0,0,.38.31c.17.1.42.22.61.1a.23.23,0,0,0,.12-.18.22.22,0,0,0-.09-.2h0l0,0a.25.25,0,0,0-.09,0l-.09,0,0,0h0l-.09,0-.17-.11s0,0,0,0h0l-.06-.07a.81.81,0,0,1-.12-.14l0,0s0,.06,0,0a.56.56,0,0,1-.05-.08l-.18-.35a.27.27,0,0,0-.35-.13.28.28,0,0,0-.13.35Z"/><path class="cls-1" d="M126.94,98.46a2.91,2.91,0,0,0,0-.66c0-.21,0-.43,0-.64s0-.4-.05-.59a.78.78,0,0,0-.23-.52c-.08-.08-.2,0-.23.08a.33.33,0,0,0,0,.24,2.35,2.35,0,0,1,0,.26c0,.19,0,.38,0,.57s0,.4,0,.6a2.57,2.57,0,0,1,0,.62.25.25,0,0,0,.23.28.28.28,0,0,0,.29-.24Z"/><path class="cls-1" d="M125.34,97.22c.16.12.31.25.46.38l.24.17.18.09a.41.41,0,0,0,.19,0,.24.24,0,0,0,.2-.12.21.21,0,0,0,0-.23.8.8,0,0,0-.13-.13l-.12-.08-.24-.19c-.15-.12-.29-.25-.45-.37a.29.29,0,0,0-.38.07.28.28,0,0,0,.07.37Z"/><path class="cls-1" d="M127.24,97.71l.5-.33.23-.17a.8.8,0,0,0,.13-.13l0,0a.28.28,0,0,0,0-.2.21.21,0,0,0-.2-.18.31.31,0,0,0-.2.06l-.06,0,.06,0-.45.31-.43.28a.26.26,0,0,0-.09.19.23.23,0,0,0,.06.19.26.26,0,0,0,.18.09.33.33,0,0,0,.19-.06Z"/><path class="cls-1" d="M126.15,94.84a1.11,1.11,0,0,0-.26.39,1.1,1.1,0,0,0,0,.51.79.79,0,0,0,.66.65,1,1,0,0,0,.85-.33.71.71,0,0,0,.16-.93.78.78,0,0,0-.5-.29,1.3,1.3,0,0,0-.65,0,.16.16,0,0,0-.13.13c0,.06,0,.14.1.15l.25,0,.2,0,.17,0,.09,0h0l0,0,0,0s0,0,0,0l0,0s0,0,0,0,0,0,0,0,0,0,0,0v0s0,0,0,0,0,0,0,.05,0-.05,0,0l0,.08s0,0,0,0l-.06.08,0,0s0,0,0,0l0,.06-.07,0,0,0,0,0h0l-.15.07h0s0,0,0,0l-.09,0h-.16l-.09,0,0,0,0,0s0,0,0,0a.45.45,0,0,1-.1-.14.81.81,0,0,1,0-.38.59.59,0,0,1,.06-.14.83.83,0,0,1,.11-.15.15.15,0,1,0-.19-.23Z"/><path class="cls-1" d="M41.73,153.91V154a.17.17,0,0,0,.25.12,3,3,0,0,0,.58-.49l.64-.6c.2-.19.41-.36.6-.56s.43-.39.44-.67a.16.16,0,0,0-.26-.13c-.18.15-.35.33-.52.49l-.58.55-.58.58a2,2,0,0,0-.28.3c-.08.08-.14.17-.22.24l.27.06,0-.05a.16.16,0,0,0-.31.1Z"/><path class="cls-1" d="M43.73,152.52c.11.31.22.63.34.94a2.48,2.48,0,0,0,.5.88.21.21,0,0,0,.34-.22c-.09-.31-.25-.6-.36-.9s-.22-.62-.33-.92a.26.26,0,0,0-.35-.13.27.27,0,0,0-.14.35Z"/><path class="cls-1" d="M43.51,149.61c0,.41,0,.83.07,1.25a4,4,0,0,0,.18,1.19.16.16,0,0,0,.3-.06c0-.82-.06-1.64-.12-2.46a.22.22,0,0,0-.25-.18.23.23,0,0,0-.18.26Z"/><path class="cls-1" d="M43.35,150.49s0,0,0,0h-.05l-.12,0-.2-.07-.1,0,0,0s-.06,0,0,0,0,0,0,0l-.05,0-.1-.06a8.15,8.15,0,0,0-.76-.55.21.21,0,0,0-.24,0,.2.2,0,0,0,0,.24,1.65,1.65,0,0,0,.33.42,2.78,2.78,0,0,0,1.4.69.27.27,0,1,0,.05-.53Z"/><path class="cls-1" d="M44,151c.33-.19.68-.38,1-.58a2.66,2.66,0,0,0,.85-.75c.07-.12,0-.29-.18-.22-.32.17-.62.38-.93.55l-1,.54a.26.26,0,0,0-.13.34A.25.25,0,0,0,44,151Z"/><path class="cls-1" d="M43,148.21a1.38,1.38,0,0,0-.18.79.52.52,0,0,0,.32.36.69.69,0,0,0,.47,0,1.49,1.49,0,0,0,.45-.19,1.09,1.09,0,0,0,.37-.34.61.61,0,0,0-.22-.93,1.17,1.17,0,0,0-.69-.13,1.13,1.13,0,0,0-.62.3.15.15,0,0,0,.16.25l.23-.09a.53.53,0,0,1,.2-.07.4.4,0,0,1,.19,0h.09l.12,0,0,0c.06,0,0,0,0,0l.08.05h0l0,0h0s0,0,0,0,0,0,0,.05,0-.05,0,0v0s0-.05,0,0v0c0,.05,0,0,0,0l0,0s0,0,0,0,0,0,0,0v0l-.05.07,0,0v0h0l-.13.11a.71.71,0,0,1-.14.1s0,0,0,0l0,0a.31.31,0,0,1-.1.05l-.08,0s-.06,0,0,0l0,0h-.23s0,0,0,0l0,0-.06,0s0,0,0,0l0,0s0,0,0,0a.08.08,0,0,0,0,0s0,0,0,0v0a.55.55,0,0,1,0-.18,1.65,1.65,0,0,1,.11-.36.08.08,0,0,0-.15-.06Z"/><path class="cls-1" d="M98.45,90.55c.28-.48.52-1,.82-1.45.15-.23.31-.45.48-.67a2.24,2.24,0,0,0,.44-.7c0-.12-.11-.24-.21-.14a5.13,5.13,0,0,0-.54.6,6.67,6.67,0,0,0-.48.7c-.28.48-.53,1-.8,1.46-.12.2.18.4.29.2Z"/><path class="cls-1" d="M99.73,88c.15.44.3.87.47,1.31a4.83,4.83,0,0,0,.65,1.23c.14.18.4,0,.33-.21-.15-.43-.36-.84-.53-1.26s-.32-.85-.47-1.28a.25.25,0,0,0-.32-.12.26.26,0,0,0-.13.33Z"/><path class="cls-1" d="M99.69,85.63c.06.46.12.92.14,1.39,0,.22,0,.45,0,.68s0,.44,0,.66a.18.18,0,0,0,.33.07,1.38,1.38,0,0,0,.15-.7c0-.23,0-.47,0-.71a12.19,12.19,0,0,0-.2-1.46c0-.25-.42-.18-.39.07Z"/><path class="cls-1" d="M99.86,87l-.15-.11s0,0,0,0,0,0,0,0l-.06-.06-.26-.3a3.71,3.71,0,0,0-.27-.29l-.3-.27a.16.16,0,0,0-.24.15,1.25,1.25,0,0,0,.2.4l.06.08s0,.05,0,0,0,0,0,0,.09.14.14.21a2.21,2.21,0,0,0,.57.61.28.28,0,0,0,.37-.07.27.27,0,0,0-.06-.37Z"/><path class="cls-1" d="M100.2,87.38l.54-.48a3.39,3.39,0,0,0,.52-.55.18.18,0,0,0-.23-.27,2.39,2.39,0,0,0-.63.42l-.54.48a.28.28,0,0,0,0,.37.27.27,0,0,0,.38,0Z"/><path class="cls-1" d="M99,84.47a1.7,1.7,0,0,0,0,.71.64.64,0,0,0,.74.33,1.12,1.12,0,0,0,.8-.6.62.62,0,0,0,.07-.48.58.58,0,0,0-.37-.36,1.5,1.5,0,0,0-.63-.07l-.29,0-.28.07a.18.18,0,0,0,0,.35,2.57,2.57,0,0,0,.48,0H100a.45.45,0,0,1,.11,0h0l0,0,0,0h0v0s0,0,0,0v0s0-.06,0,0a0,0,0,0,1,0,0s0,0,0,0v0s0,0,0,0,0,0,0,.05l0,.08s0,0,0,0v0l-.06.08,0,0s0,0,0,0a.57.57,0,0,1-.15.12s0,0,0,0l-.05,0-.1,0s0,0,0,0h-.05l-.09,0H99.5s0,0,0,0,0,0,0,0l0,0,0,0s0,0,0,0l0,0v0s0,0,0,0l0-.06h0v0s0,0,0-.08v0s0,0,0,0,0,0,0,0v-.05a.25.25,0,0,1,0-.08V84.5a.15.15,0,0,0-.14-.17.17.17,0,0,0-.18.14Z"/><path class="cls-1" d="M76.52,41.47c-.31.48-.61,1-.91,1.44-.14.23-.28.46-.43.69s-.4.59-.11.75a.21.21,0,0,0,.24,0c.1-.07.11-.19.17-.29l.21-.32c.13-.21.25-.43.38-.65.27-.45.53-.9.81-1.35.15-.24-.21-.49-.36-.25Z"/><path class="cls-1" d="M76.42,41.85c.21.55.44,1.08.69,1.61.12.26.24.53.37.79a2.88,2.88,0,0,0,.36.61.16.16,0,0,0,.24,0,.84.84,0,0,0-.08-.72c-.12-.27-.25-.54-.38-.8-.26-.56-.5-1.12-.72-1.69-.12-.31-.59-.09-.48.22Z"/><path class="cls-1" d="M76.24,37.87c0,.7.07,1.41.1,2.12a6.72,6.72,0,0,0,.21,2,.2.2,0,0,0,.38-.07c0-.69-.06-1.38-.09-2.07s-.07-1.41-.12-2.12c0-.32-.5-.22-.48.09Z"/><path class="cls-1" d="M75,38.7a5.41,5.41,0,0,0,.7.95,4.51,4.51,0,0,0,.37.39l.16.17a1.71,1.71,0,0,0,.18.2.18.18,0,0,0,.28-.13.68.68,0,0,0-.23-.51l-.38-.38a7.17,7.17,0,0,1-.74-.91.2.2,0,0,0-.26,0,.2.2,0,0,0-.08.26Z"/><path class="cls-1" d="M76.94,40c.26-.23.53-.47.8-.68a6.9,6.9,0,0,0,.83-.69.17.17,0,0,0,0-.22.15.15,0,0,0-.21-.06,7.18,7.18,0,0,0-1,.56c-.28.22-.55.45-.82.68a.29.29,0,0,0,0,.38.28.28,0,0,0,.38,0Z"/><path class="cls-1" d="M75.7,36.73a1.28,1.28,0,0,0,0,.7.71.71,0,0,0,.77.35,1.09,1.09,0,0,0,.75-.5.71.71,0,0,0,.11-.58.58.58,0,0,0-.36-.34,1.41,1.41,0,0,0-.61-.06,1.27,1.27,0,0,0-.28.06,2.22,2.22,0,0,0-.3.11.19.19,0,0,0,0,.35.76.76,0,0,0,.26,0l.21,0,.2,0h.24l.08,0,.06,0h0l0,0s0,0,0,0l0,0s0,0,0,0,0,0,0,0,0,0,0,0l0,.1s0,0,0,0l0,0,0,.06,0,.06h0l0,0-.06,0,0,0s0,0,0,0a.52.52,0,0,1-.15.07h-.19s-.07,0,0,0l-.07,0h0l0,0s0,0,0,0,0,0,0,0a0,0,0,0,0,0,0h0v0l0-.07s0,.05,0,0v0s0,0,0-.07A.22.22,0,0,0,76,37v0h0v-.16a.18.18,0,0,0-.15-.19.19.19,0,0,0-.19.16Z"/><path class="cls-1" d="M132.7,47.77l.62-.63c.1-.11.21-.22.31-.34l.15-.17.06-.08,0-.07,0,0s0,0,0,0a.19.19,0,0,0-.14-.24.18.18,0,0,0-.22.16v0a.16.16,0,0,0,.2.18h0l-.1-.35-.05,0-.07,0-.08.08-.17.18-.07.08h0v0l0,0-.15.17c-.2.21-.4.41-.61.61a.25.25,0,0,0,0,.33.24.24,0,0,0,.33,0Z"/><path class="cls-1" d="M133.64,46.88a3,3,0,0,0,.46.76,1.57,1.57,0,0,0,.38.3c.17.1.41.22.6.1a.22.22,0,0,0,0-.38s0,0,0,0,0,0,0,0a.25.25,0,0,0-.09,0l-.09,0-.05,0s-.07,0,0,0-.05,0-.08,0l-.17-.12,0,0c-.05,0,0,0,0,0l-.06-.07a1.58,1.58,0,0,1-.12-.15l0,0c0-.05,0,0,0,0a.56.56,0,0,0,0-.08l-.18-.36a.27.27,0,0,0-.48.23Z"/><path class="cls-1" d="M134,46.36a3.64,3.64,0,0,0,0-.66c0-.22,0-.43,0-.65s0-.39-.06-.59a.73.73,0,0,0-.22-.52c-.08-.07-.2,0-.23.08a.42.42,0,0,0,0,.25,1.1,1.1,0,0,1,0,.26c0,.19,0,.38,0,.57s0,.4,0,.6a3.11,3.11,0,0,1,0,.61.26.26,0,0,0,.23.29.28.28,0,0,0,.29-.24Z"/><path class="cls-1" d="M132.4,45.12c.16.11.31.25.46.37l.24.17.18.1a.58.58,0,0,0,.19,0,.2.2,0,0,0,.2-.12.21.21,0,0,0,0-.23.55.55,0,0,0-.14-.12l-.11-.09c-.08,0-.16-.12-.24-.18a5.32,5.32,0,0,0-.46-.37.27.27,0,0,0-.37.07.28.28,0,0,0,.07.37Z"/><path class="cls-1" d="M134.3,45.6l.5-.33.23-.16a.86.86,0,0,0,.13-.14s0,0,0,0a.29.29,0,0,0,0-.2.22.22,0,0,0-.2-.19.36.36,0,0,0-.2.06l-.06,0,.06,0-.45.31-.43.28a.26.26,0,0,0-.09.18.23.23,0,0,0,.06.19.29.29,0,0,0,.18.1.34.34,0,0,0,.19-.07Z"/><path class="cls-1" d="M133.21,42.74a1,1,0,0,0-.26.39,1,1,0,0,0,0,.5.8.8,0,0,0,.66.66,1,1,0,0,0,.85-.34.72.72,0,0,0,.16-.93.88.88,0,0,0-.5-.29,1.3,1.3,0,0,0-.65,0,.17.17,0,0,0-.13.14c0,.06,0,.14.1.15l.25,0,.2,0,.17.05.09,0,0,0s0,0,0,0l0,0s0,0,0,0l0,0h0l0,0s0,0,0,0v0s0,0,0,0v0s0,0,0,0l0,.08s0,0,0,0l-.06.09,0,0h0l0,0-.07.06h0l0,0s0,0,0,0l-.15.07h0s0,0,0,0l-.09,0h-.16l-.09,0s0,0,0,0l0,0h0a.49.49,0,0,1-.1-.15.79.79,0,0,1,0-.38l.05-.13.12-.16a.15.15,0,0,0,0-.21.15.15,0,0,0-.21,0Z"/><path class="cls-1" d="M40.94,35.61v0a.17.17,0,0,0,.24.13,3.35,3.35,0,0,0,.58-.49l.65-.6c.19-.19.4-.37.6-.56s.42-.4.43-.67a.16.16,0,0,0-.26-.13c-.18.15-.34.33-.52.48l-.58.55-.58.58-.28.3a1.79,1.79,0,0,1-.22.25l.27.06,0-.05a.16.16,0,0,0-.31.1Z"/><path class="cls-1" d="M42.94,34.22c.11.31.22.63.34.93a2.29,2.29,0,0,0,.51.88.2.2,0,0,0,.33-.21c-.09-.31-.25-.6-.36-.9s-.22-.62-.33-.93a.26.26,0,0,0-.35-.12.27.27,0,0,0-.14.35Z"/><path class="cls-1" d="M42.72,31.31c0,.41,0,.83.07,1.24A4.28,4.28,0,0,0,43,33.74a.16.16,0,0,0,.3-.05c0-.83-.06-1.64-.12-2.46a.22.22,0,0,0-.25-.18.23.23,0,0,0-.18.26Z"/><path class="cls-1" d="M42.56,32.19H42.5l-.12,0-.2-.07-.09,0L42,32l0,0h0l0,0-.1-.06a8.15,8.15,0,0,0-.76-.55.19.19,0,0,0-.29.24,1.37,1.37,0,0,0,.33.42,2.87,2.87,0,0,0,.44.34,3,3,0,0,0,1,.36.27.27,0,0,0,.05-.53Z"/><path class="cls-1" d="M43.18,32.72c.34-.2.68-.38,1-.59a2.53,2.53,0,0,0,.85-.74.15.15,0,0,0-.18-.22c-.32.16-.61.37-.93.55l-1,.54a.26.26,0,0,0-.12.34.25.25,0,0,0,.33.12Z"/><path class="cls-1" d="M42.25,29.91a1.38,1.38,0,0,0-.18.79.55.55,0,0,0,.32.36.75.75,0,0,0,.47,0,1.79,1.79,0,0,0,.45-.19,1.2,1.2,0,0,0,.37-.34.65.65,0,0,0,.12-.5.64.64,0,0,0-.34-.43,1.17,1.17,0,0,0-.69-.13,1.13,1.13,0,0,0-.62.3.15.15,0,0,0,.16.25l.23-.1a.76.76,0,0,1,.2-.06.4.4,0,0,1,.19,0H43s.07,0,0,0l.12,0,0,0c.06,0,0,0,0,0l.08.05h0l0,0h0s0,0,0,0a.11.11,0,0,1,0,.05s0-.05,0,0v0c0,.05,0,0,0,0v0s0,0,0,0a.06.06,0,0,0,0,0,.05.05,0,0,0,0,0h0l0,0-.05.06,0,0v0s0,0,0,0l-.13.11a.71.71,0,0,1-.14.1s0,0,0,0l-.05,0-.1.05-.08,0H42.7l-.08,0h-.15s0,0,0,0h0l-.06,0s0,0,0,0l0,0s0,0,0,0a.17.17,0,0,0,0-.05s0,0,0,0,0,0,0,0a1.09,1.09,0,0,1,0-.18A3,3,0,0,1,42.4,30c0-.09-.11-.14-.15-.05Z"/><path class="cls-1" d="M120.52,81.35c.27-.48.52-1,.82-1.45.15-.23.31-.45.48-.67a2.35,2.35,0,0,0,.44-.71c0-.11-.11-.23-.21-.14a5.23,5.23,0,0,0-.54.61,4.82,4.82,0,0,0-.48.7c-.29.47-.53,1-.81,1.46-.11.2.19.4.3.2Z"/><path class="cls-1" d="M121.8,78.84c.15.43.3.87.47,1.3a4.45,4.45,0,0,0,.65,1.24c.14.18.4,0,.33-.21-.16-.43-.36-.84-.53-1.26s-.32-.85-.47-1.28a.25.25,0,0,0-.33-.12.26.26,0,0,0-.12.33Z"/><path class="cls-1" d="M121.76,76.43c.06.46.12.92.14,1.38,0,.23,0,.46,0,.69a4.85,4.85,0,0,0,0,.66.18.18,0,0,0,.33.07,1.49,1.49,0,0,0,.15-.7c0-.24,0-.48,0-.71a10.23,10.23,0,0,0-.19-1.46.2.2,0,0,0-.39.07Z"/><path class="cls-1" d="M121.93,77.79l-.15-.1s0,0,0,0l0,0-.06-.06-.27-.3a2.35,2.35,0,0,0-.26-.29l-.31-.27c-.09-.08-.26,0-.23.15a1.11,1.11,0,0,0,.2.39l.06.09v0s0,0,0,0l.14.21a2,2,0,0,0,.57.6.26.26,0,0,0,.37-.07.27.27,0,0,0-.06-.37Z"/><path class="cls-1" d="M122.27,78.18l.54-.48a3.85,3.85,0,0,0,.52-.55.19.19,0,0,0-.23-.27,2.39,2.39,0,0,0-.63.42l-.54.48a.26.26,0,0,0,0,.37.28.28,0,0,0,.38,0Z"/><path class="cls-1" d="M121.11,75.27a1.7,1.7,0,0,0,0,.71.64.64,0,0,0,.74.33,1.15,1.15,0,0,0,.8-.6.63.63,0,0,0,.07-.48.58.58,0,0,0-.37-.36,1.35,1.35,0,0,0-.63-.07,1.43,1.43,0,0,0-.29,0l-.28.06a.18.18,0,0,0,0,.35,1.93,1.93,0,0,0,.48,0h.39s.07,0,0,0h0l.1,0s.05,0,0,0l0,0,0,0h0s0,0,0,0l0,0s0-.05,0,0a.06.06,0,0,0,0,0s0,0,0,0v0s0,0,0,0a.43.43,0,0,1,0,0l0,.08s0,0,0,0l0,0a.35.35,0,0,1,0,.08l0,0s0,0,0,0a.41.41,0,0,1-.14.12h0l0,0-.1,0s0,0,0,0h-.06l-.09,0h-.15s0,0,0,0,0,0,0,0l0,0,0,0s0,0,0,0l0,0v0s0,0,0,0l0-.07s0,0,0,0v0a.22.22,0,0,1,0-.08v-.21s0-.11,0-.16a.16.16,0,0,0-.32,0Z"/><path class="cls-1" d="M41.24,53.3c-.31.47-.61,1-.91,1.44-.14.23-.28.46-.43.68s-.4.59-.1.75a.21.21,0,0,0,.24,0c.1-.08.11-.2.17-.3s.14-.21.2-.31.26-.43.39-.65l.8-1.36a.22.22,0,0,0-.36-.24Z"/><path class="cls-1" d="M41.15,53.67c.21.55.44,1.08.68,1.61.13.27.25.53.38.79a2.34,2.34,0,0,0,.36.61.15.15,0,0,0,.23,0,.82.82,0,0,0-.07-.73c-.12-.27-.25-.53-.38-.8-.26-.55-.51-1.11-.73-1.68-.11-.32-.59-.09-.47.21Z"/><path class="cls-1" d="M41,49.69c0,.71.07,1.41.09,2.12a7.16,7.16,0,0,0,.22,2.06c.06.18.38.12.38-.07,0-.69-.06-1.39-.09-2.08l-.12-2.12c0-.31-.5-.22-.48.09Z"/><path class="cls-1" d="M39.76,50.53a7.27,7.27,0,0,0,.7.95l.37.38c.06.06.12.11.17.17a1.24,1.24,0,0,0,.18.21.18.18,0,0,0,.27-.13.73.73,0,0,0-.22-.52c-.12-.13-.26-.25-.38-.38a7.08,7.08,0,0,1-.74-.9.2.2,0,0,0-.27,0,.22.22,0,0,0-.08.26Z"/><path class="cls-1" d="M41.66,51.86c.27-.23.53-.46.81-.68a7.58,7.58,0,0,0,.82-.68.17.17,0,0,0,0-.23.18.18,0,0,0-.22-.06,7.82,7.82,0,0,0-1,.57,9,9,0,0,0-.82.68.26.26,0,1,0,.33.4Z"/><path class="cls-1" d="M40.42,48.56a1.29,1.29,0,0,0,.06.7.71.71,0,0,0,.77.35A1.13,1.13,0,0,0,42,49.1a.7.7,0,0,0,.1-.58.58.58,0,0,0-.36-.34,1.39,1.39,0,0,0-.61-.06l-.27.06-.31.11a.19.19,0,0,0,0,.35,1.15,1.15,0,0,0,.26,0l.21,0,.2,0h.24l.08,0,.06,0s0,0,0,0h0v0s0,0,0,0,0,0,0,0v0h0s0,0,0,0,0,0,0,0l0,.1s0,0,0,0l0,0,0,.06,0,0s0,0,0,0l0,0-.07.06,0,0h0s-.11.05-.15.07h-.12s0,0,0,0H41s-.06,0,0,0l-.06,0,0,0s0,0,0,0l0,0s0,0,0,0h0l0,0s0,0,0,0l0,0s0,0,0-.06,0,0,0,0v0a.22.22,0,0,1,0-.08.17.17,0,0,1,0-.07v0h0v-.16a.18.18,0,0,0-.16-.18.18.18,0,0,0-.19.16Z"/><path class="cls-1" d="M114.93,155.4c.21-.21.42-.41.62-.63l.31-.34.15-.17.07-.09,0-.07v0s0,0,0,0a.19.19,0,0,0-.14-.24.18.18,0,0,0-.22.16h0a.17.17,0,0,0,.2.19h0l-.1-.35,0,0-.07,0a.6.6,0,0,0-.08.08l-.17.18-.07.08h0v0l0,0-.16.17c-.2.2-.4.41-.61.61a.25.25,0,0,0,0,.33.24.24,0,0,0,.33,0Z"/><path class="cls-1" d="M115.87,154.51a3.28,3.28,0,0,0,.46.76,1.86,1.86,0,0,0,.38.3c.17.1.42.22.61.1a.22.22,0,0,0,.12-.18.22.22,0,0,0-.09-.2h0l0,0a.25.25,0,0,0-.09,0l-.09,0,0,0s-.07,0,0,0l-.09,0-.17-.12,0,0h0l-.06-.07a1.58,1.58,0,0,1-.12-.15l0,0c0-.05,0,.06,0,0a.56.56,0,0,0,0-.08l-.18-.36a.28.28,0,0,0-.35-.13.29.29,0,0,0-.13.36Z"/><path class="cls-1" d="M116.23,154a2.91,2.91,0,0,0,0-.66c0-.21,0-.42,0-.64s0-.39,0-.59a.78.78,0,0,0-.23-.52c-.08-.07-.2,0-.23.08a.33.33,0,0,0,0,.24,2.35,2.35,0,0,1,0,.26c0,.2,0,.39,0,.58s0,.4,0,.6a2.49,2.49,0,0,1,0,.61.25.25,0,0,0,.23.28.27.27,0,0,0,.29-.24Z"/><path class="cls-1" d="M114.63,152.75c.16.11.31.25.46.37l.24.17a.76.76,0,0,0,.18.09.41.41,0,0,0,.19,0,.2.2,0,0,0,.2-.12.21.21,0,0,0,0-.23.49.49,0,0,0-.13-.12l-.12-.09-.24-.18a4.14,4.14,0,0,0-.46-.37.27.27,0,0,0-.37.07.28.28,0,0,0,.07.37Z"/><path class="cls-1" d="M116.53,153.23l.5-.33.23-.16.13-.14a.1.1,0,0,0,0,0,.26.26,0,0,0,0-.19.22.22,0,0,0-.2-.19.39.39,0,0,0-.2.06l-.06.05.06,0-.45.3-.43.29a.24.24,0,0,0-.09.18.23.23,0,0,0,.06.19.26.26,0,0,0,.18.09.27.27,0,0,0,.19-.06Z"/><path class="cls-1" d="M115.44,150.36a1.15,1.15,0,0,0-.26.4,1.06,1.06,0,0,0,0,.5.77.77,0,0,0,.66.65,1,1,0,0,0,.85-.33.7.7,0,0,0,.16-.93.88.88,0,0,0-.5-.29,1.3,1.3,0,0,0-.65,0,.17.17,0,0,0-.13.14.16.16,0,0,0,.1.15l.25,0,.2.05.17,0,.09,0h0s0,0,0,0l0,0s0,0,0,0l0,.05h0s0,0,0,0,0,0,0,0v0s0,0,0,0v0s0,0,0,0l0,.08s0,0,0,0l-.06.09,0,0h0l0,.05-.07.05,0,0,0,0h0l-.15.08h0s0,0,0,0l-.09,0h-.16l-.09,0s0,0,0,0l0,0h0a.36.36,0,0,1-.1-.14.79.79,0,0,1,0-.38.84.84,0,0,1,.06-.14l.11-.15a.15.15,0,0,0,0-.21.17.17,0,0,0-.21,0Z"/><path class="cls-1" d="M41,81.79v0a.18.18,0,0,0,.25.13,3.35,3.35,0,0,0,.58-.49l.64-.6c.2-.19.41-.37.6-.56s.43-.4.44-.67a.16.16,0,0,0-.26-.13c-.18.15-.35.33-.52.48l-.58.55-.58.58-.29.3a1.31,1.31,0,0,1-.22.25l.28.06,0,0a.16.16,0,0,0-.31.1Z"/><path class="cls-1" d="M43,80.4c.11.31.21.63.33.93a2.57,2.57,0,0,0,.51.88.2.2,0,0,0,.34-.21c-.09-.31-.25-.6-.37-.91s-.22-.61-.32-.92a.27.27,0,0,0-.36-.12.26.26,0,0,0-.13.35Z"/><path class="cls-1" d="M42.74,77.49c0,.41,0,.83.08,1.24A3.94,3.94,0,0,0,43,79.92a.16.16,0,0,0,.3,0c0-.83-.06-1.64-.12-2.46a.22.22,0,0,0-.25-.18.24.24,0,0,0-.19.26Z"/><path class="cls-1" d="M42.59,78.37s0,0,0,0h0l-.12,0-.2-.07-.1,0,0,0,0,0h0l0,0-.1-.06c-.26-.17-.49-.41-.76-.55a.19.19,0,0,0-.24,0,.2.2,0,0,0-.06.23,1.57,1.57,0,0,0,.34.42,2.87,2.87,0,0,0,.44.34,3,3,0,0,0,1,.36.28.28,0,0,0,.29-.25.26.26,0,0,0-.24-.28Z"/><path class="cls-1" d="M43.21,78.9c.33-.2.67-.38,1-.59a2.63,2.63,0,0,0,.85-.74c.07-.12-.05-.29-.18-.22-.32.16-.62.37-.93.55s-.64.35-1,.54a.25.25,0,1,0,.21.46Z"/><path class="cls-1" d="M42.28,76.09a1.3,1.3,0,0,0-.18.79.56.56,0,0,0,.31.36.79.79,0,0,0,.48,0,1.79,1.79,0,0,0,.45-.19,1.2,1.2,0,0,0,.37-.34.67.67,0,0,0,.12-.51.62.62,0,0,0-.34-.42,1.28,1.28,0,0,0-.69-.14,1.22,1.22,0,0,0-.62.31.15.15,0,0,0,.16.25l.23-.1a.76.76,0,0,1,.2-.06.4.4,0,0,1,.19,0h.09l.11,0,.06,0h0l.09.05s0,0,0,0l0,0h0s0,0,0,0,0,0,0,0,0,0,0,0v0h0v0s0,0,0,0a.08.08,0,0,1,0,0s0,0,0,0,0,0,0,0v0l0,.06,0,0h0l-.12.11a.71.71,0,0,1-.14.1s0,0,0,0l0,0-.1,0-.08,0s-.06,0,0,0h-.05l-.07,0H42.5s0,0,0,0h0l-.06,0h0l0,0v0s0,0,0,0,0,0,0,0a.08.08,0,0,1,0,0,.55.55,0,0,1,0-.18,1.58,1.58,0,0,1,.11-.37c0-.09-.12-.14-.15,0Z"/><path class="cls-1" d="M117.9,37c.28-.49.52-1,.82-1.46a8,8,0,0,1,.48-.66,2.28,2.28,0,0,0,.44-.71.13.13,0,0,0-.21-.14,5.23,5.23,0,0,0-.54.61,6.54,6.54,0,0,0-.48.69c-.28.48-.53,1-.8,1.46-.12.21.18.41.29.21Z"/><path class="cls-1" d="M119.18,34.44c.15.44.3.88.47,1.31A4.67,4.67,0,0,0,120.3,37c.14.19.4,0,.33-.21-.15-.43-.36-.83-.53-1.26s-.32-.85-.47-1.27a.23.23,0,0,0-.32-.12.25.25,0,0,0-.13.32Z"/><path class="cls-1" d="M119.14,32c.06.46.12.92.14,1.38,0,.23,0,.46,0,.68s0,.45,0,.67a.19.19,0,0,0,.33.07,1.33,1.33,0,0,0,.15-.7c0-.24,0-.48,0-.72a11.76,11.76,0,0,0-.2-1.45c0-.25-.42-.18-.39.07Z"/><path class="cls-1" d="M119.31,33.4l-.15-.1s0,0,0,0l0,0-.06-.06-.26-.3a3.71,3.71,0,0,0-.27-.29l-.3-.27c-.1-.09-.27,0-.24.15a1.2,1.2,0,0,0,.2.39l.06.08s0,.05,0,0,0,0,0,0a1.64,1.64,0,0,0,.14.22,2,2,0,0,0,.57.6.27.27,0,0,0,.31-.44Z"/><path class="cls-1" d="M119.65,33.79l.54-.48a3.45,3.45,0,0,0,.52-.56.18.18,0,0,0-.23-.27,2.66,2.66,0,0,0-.63.42l-.54.48a.29.29,0,0,0,0,.38.28.28,0,0,0,.38,0Z"/><path class="cls-1" d="M118.5,30.88a1.5,1.5,0,0,0,0,.7.62.62,0,0,0,.74.33,1.1,1.1,0,0,0,.8-.6.56.56,0,0,0-.3-.84,1.48,1.48,0,0,0-.63-.07l-.29,0-.28.06a.18.18,0,0,0,0,.35,2.57,2.57,0,0,0,.48,0h.1s0,0,0,0h0l.22,0s.07,0,0,0h0l.11,0h0l0,0,0,0h0v0s0,0,0,0v0s0-.06,0,0a.06.06,0,0,1,0,0s0-.05,0,0v0s0,0,0,0,0,0,0,0l0,.07h0v0l-.06.07,0,.05s0,0,0,0a.93.93,0,0,1-.15.13s0,0,0,0l0,0-.1,0s0,0,0,0l0,0h-.27s0,0,0,0h0l0,0h0l0,0h0s0,0,0,0l0-.06s0,0,0,0v0s0-.05,0-.07v0s0-.06,0,0,0,0,0,0v-.05a.19.19,0,0,1,0-.08V30.9a.16.16,0,0,0-.14-.17.15.15,0,0,0-.17.15Z"/><path class="cls-1" d="M41.24,95.6c-.31.48-.61,1-.91,1.44-.14.23-.28.47-.43.69s-.4.59-.1.75a.23.23,0,0,0,.24,0c.1-.08.11-.2.17-.3s.14-.21.2-.32.26-.43.39-.64c.26-.46.53-.91.8-1.36.15-.24-.2-.49-.36-.25Z"/><path class="cls-1" d="M41.15,96c.21.55.44,1.08.68,1.61.13.26.25.53.38.79a2.51,2.51,0,0,0,.36.61.15.15,0,0,0,.23,0,.8.8,0,0,0-.07-.72c-.12-.27-.25-.53-.38-.8-.26-.56-.51-1.12-.73-1.69-.11-.31-.59-.09-.47.22Z"/><path class="cls-1" d="M41,92c0,.7.07,1.41.09,2.12a7.05,7.05,0,0,0,.22,2c.06.19.38.13.38-.07,0-.69-.06-1.38-.09-2.07l-.12-2.12c0-.32-.5-.22-.48.09Z"/><path class="cls-1" d="M39.76,92.83a7.37,7.37,0,0,0,.7,1l.37.38a1.37,1.37,0,0,1,.17.17,1.71,1.71,0,0,0,.18.2c.1.09.26,0,.27-.13a.72.72,0,0,0-.22-.51c-.12-.13-.26-.25-.38-.38a6.53,6.53,0,0,1-.74-.91.21.21,0,0,0-.27,0,.22.22,0,0,0-.08.26Z"/><path class="cls-1" d="M41.66,94.17c.27-.23.53-.46.81-.68a9,9,0,0,0,.82-.68.17.17,0,0,0,0-.23.17.17,0,0,0-.22-.06,7.82,7.82,0,0,0-1,.57,9,9,0,0,0-.82.68.26.26,0,0,0,0,.37.27.27,0,0,0,.37,0Z"/><path class="cls-1" d="M40.42,90.86a1.28,1.28,0,0,0,.06.7.7.7,0,0,0,.77.35,1.09,1.09,0,0,0,.75-.5.7.7,0,0,0,.1-.58.55.55,0,0,0-.36-.34,1.39,1.39,0,0,0-.61-.06,1.31,1.31,0,0,0-.27.06,2.33,2.33,0,0,0-.31.11.19.19,0,0,0,0,.35.76.76,0,0,0,.26,0,1.52,1.52,0,0,0,.21,0l.2,0h.23s0,0,0,0l.08,0,.06,0s0,0,0,0h0s0,0,0,0,0,0,0,0v0h0s0,0,0,0,0,0,0,0a1,1,0,0,0,0,.1s0,0,0,0l0,0,0,.06s0,0,0,.06,0,0,0,0l0,0-.07.06,0,0h0s-.11,0-.15.07H41s-.06,0,0,0l-.06,0h0s0,0,0,0l0,0s0,0,0,0,0,0,0,0,0,0,0,0,0,0,0,0l0,0s0,0,0-.07,0,0,0,0v0a.17.17,0,0,1,0-.07.22.22,0,0,1,0-.08v0h0v-.16a.18.18,0,0,0-.16-.19.2.2,0,0,0-.19.16Z"/><path class="cls-1" d="M77.24,118.9c.2-.2.41-.41.61-.63l.32-.34a1.15,1.15,0,0,0,.14-.17l.07-.08a.43.43,0,0,1,0-.07.09.09,0,0,0,0,0s0,0,0,0a.17.17,0,0,0-.13-.24.19.19,0,0,0-.23.16v0a.18.18,0,0,0,.21.19h0l-.11-.35-.05,0-.07,0-.07.08-.17.18-.08.08s0,0,0,0l0,0,0,0-.16.17c-.19.21-.4.41-.6.62a.24.24,0,0,0,0,.33.26.26,0,0,0,.34,0Z"/><path class="cls-1" d="M78.17,118a3.08,3.08,0,0,0,.46.76,1.85,1.85,0,0,0,.39.3c.17.1.41.22.6.1a.23.23,0,0,0,.13-.18.22.22,0,0,0-.1-.19h0s0,0,0,0l-.09,0-.09,0,0,0s-.07,0,0,0l-.08,0-.17-.12,0,0s0,0,0,0a.46.46,0,0,1-.07-.07l-.12-.15,0,0h0a.35.35,0,0,0,0-.08l-.17-.35a.26.26,0,0,0-.35-.13.27.27,0,0,0-.14.35Z"/><path class="cls-1" d="M78.53,117.49a2.91,2.91,0,0,0,0-.66l0-.65-.06-.59a.82.82,0,0,0-.22-.52c-.08-.07-.2,0-.24.08a.42.42,0,0,0,0,.25c0,.08,0,.17,0,.26s0,.38,0,.57,0,.4,0,.6a3.22,3.22,0,0,1,0,.62c0,.13.11.27.24.28a.27.27,0,0,0,.28-.24Z"/><path class="cls-1" d="M76.93,116.25c.17.11.31.25.47.37a1.24,1.24,0,0,0,.23.17l.18.1a.4.4,0,0,0,.19,0,.23.23,0,0,0,.21-.11.21.21,0,0,0,0-.23.53.53,0,0,0-.13-.13l-.12-.08-.23-.19c-.16-.12-.3-.26-.46-.37a.27.27,0,0,0-.31.44Z"/><path class="cls-1" d="M78.84,116.73l.49-.33a1.88,1.88,0,0,0,.23-.16.93.93,0,0,0,.14-.14l0,0a.28.28,0,0,0,0-.2.2.2,0,0,0-.19-.18.28.28,0,0,0-.2,0l-.07,0,.06,0-.45.31-.42.28a.27.27,0,0,0-.1.18.29.29,0,0,0,.06.19.32.32,0,0,0,.18.1.31.31,0,0,0,.2-.07Z"/><path class="cls-1" d="M77.75,113.87a.9.9,0,0,0-.3.89.77.77,0,0,0,.66.66,1,1,0,0,0,.84-.33.73.73,0,0,0,.17-.94.91.91,0,0,0-.51-.29,1.2,1.2,0,0,0-.65,0,.14.14,0,0,0-.12.13.13.13,0,0,0,.09.15l.26,0,.19,0,.17.05.09,0s.06,0,0,0l0,0,0,0s0,0,0,0l0,0s0,0,0,0,0,0,0,0,0,0,0,0v0s0,0,0,0v0s0,0,0,0a.2.2,0,0,1,0,.08s0,0,0,0l-.07.09,0,0s0,0,0,0l-.06,0-.07.06,0,0,0,0h0l-.15.07h0s.05,0,0,0l-.08,0h-.17s0,0,0,0l-.1,0s0,0,0,0l0,0s0,0,0,0a.46.46,0,0,1-.09-.15.6.6,0,0,1,0-.38.35.35,0,0,1,0-.13.61.61,0,0,1,.12-.16.17.17,0,0,0,0-.21.15.15,0,0,0-.21,0Z"/><path class="cls-1" d="M99.3,38.92V39a.16.16,0,0,0,.24.12,3.35,3.35,0,0,0,.58-.49l.65-.6c.19-.19.4-.36.6-.56s.42-.39.43-.67a.16.16,0,0,0-.26-.13c-.18.15-.34.33-.52.49l-.58.55c-.19.19-.39.38-.58.58a2.68,2.68,0,0,0-.28.3,2.5,2.5,0,0,1-.22.24l.27.06,0,0a.16.16,0,0,0-.31.1Z"/><path class="cls-1" d="M101.3,37.53c.11.31.22.63.34.94a2.36,2.36,0,0,0,.51.88.2.2,0,0,0,.33-.22c-.09-.31-.25-.6-.36-.9s-.22-.62-.33-.92a.26.26,0,0,0-.35-.13.27.27,0,0,0-.14.35Z"/><path class="cls-1" d="M101.08,34.62c0,.41,0,.83.07,1.25a4.27,4.27,0,0,0,.18,1.18.16.16,0,0,0,.3,0c0-.82-.06-1.64-.12-2.46a.22.22,0,0,0-.25-.18.23.23,0,0,0-.18.26Z"/><path class="cls-1" d="M100.92,35.5h-.06l-.12,0-.2-.07-.09,0,0,0s-.06,0,0,0,0,0,0,0l0,0-.1-.06a8.15,8.15,0,0,0-.76-.55.21.21,0,0,0-.24,0,.22.22,0,0,0,0,.24,1.65,1.65,0,0,0,.33.42,3.61,3.61,0,0,0,.44.33,2.8,2.8,0,0,0,1,.36.26.26,0,0,0,.29-.24.27.27,0,0,0-.24-.29Z"/><path class="cls-1" d="M101.54,36c.34-.19.68-.38,1-.58a2.56,2.56,0,0,0,.85-.75.15.15,0,0,0-.18-.22c-.32.17-.61.38-.93.55l-1,.54a.26.26,0,0,0-.12.34.24.24,0,0,0,.33.12Z"/><path class="cls-1" d="M100.61,33.22a1.38,1.38,0,0,0-.18.79.52.52,0,0,0,.32.36.69.69,0,0,0,.47,0,1.49,1.49,0,0,0,.45-.19,1.09,1.09,0,0,0,.37-.34.61.61,0,0,0-.22-.93,1.17,1.17,0,0,0-.69-.13,1.13,1.13,0,0,0-.62.3.15.15,0,0,0,.16.25l.23-.09a.53.53,0,0,1,.2-.07.4.4,0,0,1,.19,0h.06s.07,0,0,0l.12,0,0,0c.06,0,0,0,0,0l.08.05h0l0,0h0s0,0,0,0a.11.11,0,0,1,0,0s0,0,0,0v0s0-.05,0,0v0s0,0,0,0a.2.2,0,0,1,0,.08s0,0,0,0l0,0,0,.07,0,0v0h0l-.13.11a.71.71,0,0,1-.14.1c.05,0,0,0,0,0l0,0-.1,0a.2.2,0,0,1-.08,0s-.06,0,0,0l0,0h-.23s0,0,0,0l0,0-.06,0s0,0,0,0l0,0s0,0,0,0l0,0s0,0,0,0v0a1.09,1.09,0,0,1,0-.18,2.47,2.47,0,0,1,.11-.36.08.08,0,0,0-.15-.06Z"/><path class="cls-1" d="M129.13,156.23c.28-.48.53-1,.82-1.45.15-.23.31-.45.48-.67a2.17,2.17,0,0,0,.44-.71.13.13,0,0,0-.21-.14,6.35,6.35,0,0,0-.54.61,5.77,5.77,0,0,0-.48.7c-.28.47-.53,1-.8,1.46-.11.2.18.4.29.2Z"/><path class="cls-1" d="M130.41,153.72c.15.43.3.87.47,1.3a4.73,4.73,0,0,0,.65,1.24c.14.18.4,0,.33-.22-.15-.42-.36-.83-.53-1.25s-.32-.85-.47-1.28a.24.24,0,0,0-.32-.12.26.26,0,0,0-.13.33Z"/><path class="cls-1" d="M130.37,151.31a12.9,12.9,0,0,1,.14,1.38c0,.23,0,.46,0,.68s0,.45,0,.67a.19.19,0,0,0,.34.07,1.38,1.38,0,0,0,.14-.7c0-.24,0-.48,0-.71a11.92,11.92,0,0,0-.2-1.46c0-.25-.42-.18-.39.07Z"/><path class="cls-1" d="M130.54,152.67l-.15-.1s0,0,0,0l0,0-.06-.06-.26-.3a3.71,3.71,0,0,0-.27-.29l-.3-.27a.16.16,0,0,0-.24.15,1.31,1.31,0,0,0,.2.39l.06.09s0,.05,0,0,0,0,0,0l.14.21a2.18,2.18,0,0,0,.57.6.26.26,0,0,0,.37-.07.27.27,0,0,0-.06-.37Z"/><path class="cls-1" d="M130.88,153.06l.54-.48a3.85,3.85,0,0,0,.52-.55.18.18,0,0,0-.23-.27,2.39,2.39,0,0,0-.63.42l-.54.48a.26.26,0,1,0,.34.4Z"/><path class="cls-1" d="M129.73,150.15a1.55,1.55,0,0,0,0,.71.64.64,0,0,0,.74.33,1.15,1.15,0,0,0,.8-.6.63.63,0,0,0,.07-.48.58.58,0,0,0-.37-.36,1.34,1.34,0,0,0-.63-.07l-.29,0-.28.06a.18.18,0,0,0,0,.35,1.84,1.84,0,0,0,.47,0h.45l.11,0h0l0,0,0,0s0,0,0,0h0s0,0,0,0v0s0-.05,0,0v0s0,0,0,0v0c0,.05,0,0,0,0s0,0,0,.05l0,.08s0,0,0,0v0a.35.35,0,0,0-.05.08.08.08,0,0,0,0,0s0,0,0,0a.57.57,0,0,1-.15.12s0,0,0,0l-.05,0-.09,0s0,0,0,0h-.05l-.09,0h-.18s0,0,0,0l0,0,0,0s0,0,0,0l0,0v0l0-.07s0,0,0,0v0s0,0,0-.08v0s0-.05,0,0,0,0,0,0v-.05a.25.25,0,0,1,0-.08v-.16a.17.17,0,0,0-.14-.18.16.16,0,0,0-.17.15Z"/><path class="cls-1" d="M96.79,68.26c-.31.48-.61,1-.91,1.44-.15.23-.28.46-.44.69s-.4.58-.1.74a.19.19,0,0,0,.24,0c.1-.08.11-.2.17-.3l.21-.31c.13-.21.25-.43.38-.65.27-.45.53-.91.81-1.35.14-.25-.21-.49-.36-.25Z"/><path class="cls-1" d="M96.69,68.64c.21.54.44,1.08.69,1.6.12.27.24.53.37.8a2.81,2.81,0,0,0,.36.6.15.15,0,0,0,.24,0,.83.83,0,0,0-.08-.72c-.12-.27-.25-.54-.38-.81-.26-.55-.51-1.11-.72-1.68-.12-.32-.59-.09-.48.22Z"/><path class="cls-1" d="M96.51,64.65c0,.71.07,1.42.1,2.12a6.78,6.78,0,0,0,.21,2.06c.06.18.38.12.38-.07,0-.69-.06-1.39-.09-2.08S97,65.27,97,64.57c0-.32-.5-.23-.48.08Z"/><path class="cls-1" d="M95.31,65.49a6.39,6.39,0,0,0,.69,1c.12.13.25.26.38.38l.16.18a1.71,1.71,0,0,0,.18.2.19.19,0,0,0,.28-.13.71.71,0,0,0-.23-.52c-.12-.13-.26-.25-.38-.38a7.08,7.08,0,0,1-.74-.9.19.19,0,0,0-.26,0,.2.2,0,0,0-.08.26Z"/><path class="cls-1" d="M97.21,66.82c.26-.23.53-.46.8-.67a8,8,0,0,0,.83-.69.17.17,0,0,0,0-.22.16.16,0,0,0-.21-.07,8.5,8.5,0,0,0-1,.57c-.28.21-.55.44-.82.68a.26.26,0,1,0,.34.4Z"/><path class="cls-1" d="M96,63.52a1.28,1.28,0,0,0,0,.7.71.71,0,0,0,.77.35,1.13,1.13,0,0,0,.75-.51.65.65,0,0,0,.1-.57.51.51,0,0,0-.36-.34,1.36,1.36,0,0,0-.6-.07,2.3,2.3,0,0,0-.28.06l-.3.11a.19.19,0,0,0,0,.35.77.77,0,0,0,.26,0l.21,0,.2,0s.06,0,0,0H97l.08,0,.06,0s0,0,0,0h0l0,0h0l0,0s0,0,0,0,0,0,0,0,0,0,0,0a.42.42,0,0,1,0,.1s0,0,0,0l0,0,0,.06,0,.06s0,0,0,0l0,0-.07,0,0,0h0a.36.36,0,0,1-.15.08s0,0,0,0l-.08,0h-.1l-.07,0h0s0,0,0,0h0s0,0,0,0h0s0,0,0,0,0,0,0,0v0l0-.06s0,0,0,0v0s0,0,0-.08,0,0,0-.07v0h0v-.15a.18.18,0,0,0-.15-.19.17.17,0,0,0-.19.16Z"/><path class="cls-1" d="M54.71,106.79l.61-.63.32-.34.15-.17.06-.09a.16.16,0,0,0,0-.07s0,0,0,0,0,0,0,0a.2.2,0,0,0-.14-.25.2.2,0,0,0-.23.17h0a.18.18,0,0,0,.21.19h0l-.11-.35s0,0,0,0l-.07.05-.07.08-.17.18-.07.08h0l0,0-.15.16-.61.62a.23.23,0,1,0,.3.36Z"/><path class="cls-1" d="M55.65,105.9a2.71,2.71,0,0,0,.46.76,1.86,1.86,0,0,0,.38.3c.17.1.41.22.6.1a.24.24,0,0,0,.13-.18.22.22,0,0,0-.09-.2h0s0,0,0,0l-.09,0-.09,0,0,0s-.07,0,0,0l-.08,0-.17-.12s0,0,0,0,0,.05,0,0l-.07-.06-.11-.15,0,0s0,.06,0,0l0-.09a3.84,3.84,0,0,1-.18-.35.28.28,0,0,0-.35-.13.27.27,0,0,0-.13.36Z"/><path class="cls-1" d="M56,105.37a3.64,3.64,0,0,0,0-.66c0-.21,0-.43,0-.64s0-.39-.06-.59a.73.73,0,0,0-.22-.52c-.08-.07-.2,0-.24.08a.49.49,0,0,0,0,.24,1.18,1.18,0,0,1,0,.26c0,.19,0,.39,0,.58s0,.4,0,.6a3.11,3.11,0,0,1,0,.61.27.27,0,0,0,.24.28.27.27,0,0,0,.29-.24Z"/><path class="cls-1" d="M54.41,104.13c.16.12.31.25.46.38a2.07,2.07,0,0,0,.24.17.76.76,0,0,0,.18.09.39.39,0,0,0,.18,0,.24.24,0,0,0,.21-.12.21.21,0,0,0,0-.23.58.58,0,0,0-.14-.13l-.12-.08-.23-.18a5.32,5.32,0,0,0-.46-.37.27.27,0,0,0-.37.07.25.25,0,0,0,.07.36Z"/><path class="cls-1" d="M56.31,104.62l.5-.33.22-.17a.86.86,0,0,0,.14-.13l0,0a.27.27,0,0,0,0-.2.22.22,0,0,0-.2-.18.3.3,0,0,0-.2.06l-.06,0,.06,0c-.16.09-.3.2-.45.3l-.43.29a.24.24,0,0,0-.09.18.23.23,0,0,0,.06.19.23.23,0,0,0,.18.09.27.27,0,0,0,.19-.06Z"/><path class="cls-1" d="M55.22,101.75a1.23,1.23,0,0,0-.27.4,1,1,0,0,0,0,.5.77.77,0,0,0,.66.65,1,1,0,0,0,.85-.33.73.73,0,0,0,.16-.93.85.85,0,0,0-.51-.29,1.3,1.3,0,0,0-.65,0,.16.16,0,0,0-.12.14.15.15,0,0,0,.1.15l.25,0,.2,0,.16.05.1,0h0s0,0,0,0l0,0s0,0,0,0l0,.05h0l0,0s0,0,0,0v0h0s0,0,0,0,0,0,0,0l0,.08s0,0,0,0l-.06.08,0,0s0,0,0,0l-.06,0-.06,0,0,0,0,0h0l-.15.07,0,0c-.06,0,0,0,0,0l-.08,0h0s0,0,0,0h-.11l-.1,0,0,0,0,0s0,0,0,0a.33.33,0,0,1-.1-.14.7.7,0,0,1,0-.38.78.78,0,0,1,0-.14,1.58,1.58,0,0,1,.12-.15.16.16,0,0,0,0-.21.15.15,0,0,0-.21,0Z"/><path class="cls-1" d="M71.7,134.83v0A.18.18,0,0,0,72,135a3,3,0,0,0,.57-.49c.22-.2.44-.4.65-.61s.41-.36.6-.55.42-.4.43-.67a.15.15,0,0,0-.25-.13c-.18.15-.35.32-.52.48s-.4.36-.58.55l-.59.58-.28.3a1.31,1.31,0,0,1-.22.25l.27.06,0-.05a.17.17,0,0,0-.32.1Z"/><path class="cls-1" d="M73.71,133.44c.11.31.21.62.33.93a2.57,2.57,0,0,0,.51.88.2.2,0,0,0,.34-.21c-.1-.31-.25-.6-.37-.91s-.22-.61-.33-.92a.26.26,0,0,0-.35-.12.26.26,0,0,0-.13.35Z"/><path class="cls-1" d="M73.48,130.53c0,.41,0,.83.08,1.24a4.28,4.28,0,0,0,.17,1.19.16.16,0,0,0,.31-.05c0-.83-.06-1.64-.12-2.46a.23.23,0,0,0-.26-.18.24.24,0,0,0-.18.26Z"/><path class="cls-1" d="M73.33,131.41h0l-.06,0-.11,0-.2-.07-.1,0,0,0,0,0h0l0,0-.1-.06c-.27-.17-.49-.41-.76-.55a.19.19,0,0,0-.24,0,.2.2,0,0,0-.06.23,1.26,1.26,0,0,0,.34.42,2.46,2.46,0,0,0,.44.34,2.93,2.93,0,0,0,1,.36.28.28,0,0,0,.29-.25.26.26,0,0,0-.24-.28Z"/><path class="cls-1" d="M74,131.94c.33-.2.67-.38,1-.59a2.63,2.63,0,0,0,.85-.74c.07-.12,0-.29-.18-.22-.32.16-.62.37-.93.55s-.64.35-1,.54a.26.26,0,0,0-.13.34.26.26,0,0,0,.34.12Z"/><path class="cls-1" d="M73,129.13a1.37,1.37,0,0,0-.17.79.56.56,0,0,0,.31.36.79.79,0,0,0,.48,0,1.79,1.79,0,0,0,.45-.19,1.2,1.2,0,0,0,.37-.34.67.67,0,0,0,.12-.51.64.64,0,0,0-.35-.42,1.06,1.06,0,0,0-1.3.17.15.15,0,0,0,.16.25l.22-.1.21-.07h.28l.11,0,.06,0h0l.08.05s0,.05,0,0l0,0h0s0,0,0,0,0,0,0,0,0,0,0,0v0c0,.05,0,0,0,0v.05s0,0,0,0a.08.08,0,0,1,0,0s0,0,0,0,0,0,0,0v0l0,.06,0,0h0l-.12.11a.71.71,0,0,1-.14.1s0,0,0,0l0,0-.1,0-.09,0h-.06l-.07,0h0s0,0,0,0h-.1s0,0,0,0h0l-.06,0s0,0,0,0l0,0v0l0-.05s0,0,0,0a.08.08,0,0,1,0,0,.55.55,0,0,1,0-.18,2.24,2.24,0,0,1,.1-.37c0-.09-.11-.14-.15-.05Z"/><path class="cls-1" d="M63.72,67.66c.27-.49.52-1,.82-1.45a6.2,6.2,0,0,1,.47-.67,2.11,2.11,0,0,0,.44-.71c0-.11-.1-.23-.2-.14a5.32,5.32,0,0,0-.55.61,6.45,6.45,0,0,0-.47.69c-.29.48-.54,1-.81,1.47-.11.2.18.4.3.2Z"/><path class="cls-1" d="M65,65.15c.15.43.3.87.47,1.3a4.86,4.86,0,0,0,.64,1.24c.15.18.41,0,.33-.22-.15-.42-.35-.83-.52-1.25s-.32-.85-.47-1.28a.25.25,0,0,0-.33-.12.25.25,0,0,0-.12.33Z"/><path class="cls-1" d="M65,62.74a12.93,12.93,0,0,1,.15,1.38c0,.23,0,.46,0,.68s0,.45,0,.67a.18.18,0,0,0,.33.07,1.4,1.4,0,0,0,.14-.7c0-.24,0-.48,0-.71a14.21,14.21,0,0,0-.19-1.46.2.2,0,0,0-.4.07Z"/><path class="cls-1" d="M65.12,64.1A.71.71,0,0,1,65,64s0,0,0,0l0,0-.06-.06-.27-.3a3.58,3.58,0,0,0-.26-.29l-.31-.27c-.09-.08-.27,0-.23.15a1.11,1.11,0,0,0,.2.39.41.41,0,0,0,0,.09s0,0,0,0,0,0,0,0l.14.21a2.07,2.07,0,0,0,.58.6.26.26,0,0,0,.37-.07.27.27,0,0,0-.07-.37Z"/><path class="cls-1" d="M65.46,64.49,66,64a3.36,3.36,0,0,0,.52-.55.18.18,0,0,0-.22-.27,2.24,2.24,0,0,0-.63.42c-.19.15-.36.32-.55.48a.26.26,0,1,0,.34.4Z"/><path class="cls-1" d="M64.31,61.58a1.55,1.55,0,0,0,0,.71.64.64,0,0,0,.74.33,1.13,1.13,0,0,0,.8-.61.64.64,0,0,0,.07-.47.58.58,0,0,0-.37-.36,1.36,1.36,0,0,0-.63-.08l-.29,0a2.3,2.3,0,0,0-.28.06.18.18,0,0,0,0,.35,1.48,1.48,0,0,0,.47,0h.46l.1,0s0,0,0,0l0,0,0,0s0,0,0,0h0s0,0,0,0l0,0s0,0,0,0v0s0,0,0,0v0c0,.05,0,0,0,0s0,0,0,0,0,.06,0,.07,0,0,0,0l0,0,0,.08,0,0s0,0,0,0a.57.57,0,0,1-.15.12s0,0,0,0l0,0-.09,0s0,0,0,0h0l-.09,0h-.18s0,0,0,0h0l0,0h0v0l0,0s0,0,0,0,0,0,0-.07,0,0,0,0v0s0-.05,0-.08v-.21a1,1,0,0,1,0-.17.16.16,0,0,0-.32,0Z"/><path class="cls-1" d="M95.57,131.35c-.31.48-.61,1-.91,1.44-.14.23-.28.46-.43.69s-.4.59-.1.75a.21.21,0,0,0,.24,0c.09-.07.11-.19.17-.29s.13-.21.2-.32.26-.43.38-.65l.81-1.35c.15-.24-.2-.49-.36-.25Z"/><path class="cls-1" d="M95.48,131.73c.2.55.44,1.08.68,1.61.13.26.25.53.37.79a3.29,3.29,0,0,0,.36.6.15.15,0,0,0,.24,0,.8.8,0,0,0-.07-.72c-.12-.27-.26-.54-.38-.8-.26-.56-.51-1.12-.73-1.69-.12-.31-.59-.09-.47.22Z"/><path class="cls-1" d="M95.29,127.75c0,.7.08,1.41.1,2.12a7,7,0,0,0,.21,2,.21.21,0,0,0,.39-.07c0-.69-.06-1.38-.1-2.07s-.07-1.41-.11-2.12c0-.32-.5-.22-.49.09Z"/><path class="cls-1" d="M94.09,128.58a6.65,6.65,0,0,0,.7.95c.12.14.25.26.37.39l.17.17a1.12,1.12,0,0,0,.18.2c.1.09.26,0,.27-.13a.7.7,0,0,0-.22-.51c-.13-.13-.26-.25-.38-.38a7.17,7.17,0,0,1-.74-.91.21.21,0,0,0-.27,0,.21.21,0,0,0-.08.26Z"/><path class="cls-1" d="M96,129.92a10.41,10.41,0,0,1,.81-.68,7.68,7.68,0,0,0,.82-.69.17.17,0,0,0,0-.22.16.16,0,0,0-.22-.06,7.07,7.07,0,0,0-1,.56c-.29.22-.56.45-.83.68a.28.28,0,0,0,0,.38.27.27,0,0,0,.37,0Z"/><path class="cls-1" d="M94.75,126.61a1.19,1.19,0,0,0,.06.7.7.7,0,0,0,.77.35,1.08,1.08,0,0,0,.74-.5.67.67,0,0,0,.11-.58.58.58,0,0,0-.36-.34,1.25,1.25,0,0,0-.61-.06l-.28.06a2.22,2.22,0,0,0-.3.11.19.19,0,0,0,0,.35.76.76,0,0,0,.26,0,1.2,1.2,0,0,0,.2,0l.21,0h.23s0,0,0,0l.07,0,.07,0s0,0,0,0h0l0,0s0,0,0,0v0s0,0,0,0,0,0,0,0,0,0,0,0a.36.36,0,0,0,0,.09h0l0,0,0,.06s0,0-.05.06,0,0,0,0l0,0-.07,0,0,0h0a1,1,0,0,1-.15.07h-.2s-.06,0,0,0l-.06,0h0s0,0,0,0l0,0h0v0l0,0s0,0,0,0l0,0a.19.19,0,0,1,0-.07s0,0,0,0v0a.17.17,0,0,1,0-.07.22.22,0,0,1,0-.08v0h0v-.16a.18.18,0,1,0-.35,0Z"/><path class="cls-1" d="M100.31,122.42l.62-.62.31-.35.15-.17.06-.08a.25.25,0,0,0,0-.07s0,0,0,0,0,0,0,0a.19.19,0,0,0-.14-.24.18.18,0,0,0-.22.17h0a.17.17,0,0,0,.2.19h0l-.1-.35-.05,0-.07,0-.08.08-.17.19-.07.08s0,0,0,0v0l0,0-.15.17-.61.62a.25.25,0,0,0,0,.33.24.24,0,0,0,.33,0Z"/><path class="cls-1" d="M101.25,121.53a2.81,2.81,0,0,0,.46.76,1.57,1.57,0,0,0,.38.3.58.58,0,0,0,.6.1.23.23,0,0,0,.13-.18.21.21,0,0,0-.09-.19h0l0,0-.09,0-.09,0-.05,0s-.07,0,0,0l-.08,0-.17-.12,0,0s0,0,0,0l-.06-.07a.88.88,0,0,1-.12-.15l0,0s0,.05,0,0l0-.08-.18-.35a.26.26,0,0,0-.35-.13.27.27,0,0,0-.13.35Z"/><path class="cls-1" d="M101.61,121a3.64,3.64,0,0,0,0-.66c0-.22,0-.43,0-.64a5.61,5.61,0,0,0-.06-.59.75.75,0,0,0-.22-.53c-.08-.07-.2,0-.23.08a.42.42,0,0,0,0,.25,1.1,1.1,0,0,1,0,.26c0,.19,0,.38,0,.57s0,.4,0,.6a3.21,3.21,0,0,1,0,.62.25.25,0,0,0,.23.28.28.28,0,0,0,.29-.24Z"/><path class="cls-1" d="M100,119.77c.16.12.31.25.46.38l.24.17.18.09a.4.4,0,0,0,.19,0,.21.21,0,0,0,.18-.34.44.44,0,0,0-.14-.13l-.11-.08-.24-.19c-.15-.12-.3-.26-.46-.37a.27.27,0,0,0-.37.07.28.28,0,0,0,.07.37Z"/><path class="cls-1" d="M101.91,120.26l.5-.34.23-.16a.8.8,0,0,0,.13-.13l0,0a.28.28,0,0,0,0-.2.21.21,0,0,0-.2-.18.25.25,0,0,0-.2.06l-.06,0,.06,0-.45.31-.43.28a.26.26,0,0,0-.09.18.26.26,0,0,0,.24.29.33.33,0,0,0,.19-.06Z"/><path class="cls-1" d="M100.82,117.39a1.11,1.11,0,0,0-.26.39,1,1,0,0,0,0,.5.8.8,0,0,0,.66.66,1,1,0,0,0,.85-.33.73.73,0,0,0,.16-.94.81.81,0,0,0-.5-.28,1.2,1.2,0,0,0-.65,0,.16.16,0,0,0-.13.13c0,.06,0,.14.1.15l.25,0,.2,0,.17,0,.09,0h0l0,0,0,0h0l0,0s0,0,0,0,0,0,0,0,0,0,0,0v0s0,0,0,0v0s0,0,0,0l0,.07,0,0-.06.09,0,0s0,0,0,0l0,0-.07.06,0,0,0,0h0l-.15.07h0c-.05,0,0,0,0,0h-.25s0,0,0,0l-.09,0,0,0,0,0s0,0,0,0a.49.49,0,0,1-.1-.15.76.76,0,0,1,0-.37s0-.11,0-.14a1,1,0,0,1,.12-.15.15.15,0,0,0-.19-.23Z"/><path class="cls-1" d="M88.85,153.91V154a.18.18,0,0,0,.25.13,3.41,3.41,0,0,0,.58-.5l.64-.6c.2-.19.41-.36.6-.56s.42-.39.44-.66a.16.16,0,0,0-.26-.13c-.18.14-.35.32-.52.48l-.58.55-.59.58c-.09.1-.19.19-.28.3a1.65,1.65,0,0,1-.22.24l.28.06,0-.05a.16.16,0,0,0-.31.1Z"/><path class="cls-1" d="M90.85,152.52c.11.31.21.63.33.94a2.67,2.67,0,0,0,.51.88.21.21,0,0,0,.34-.22c-.1-.31-.25-.6-.37-.9s-.22-.61-.32-.92a.27.27,0,0,0-.49.22Z"/><path class="cls-1" d="M90.62,149.61c0,.42,0,.83.08,1.25a4,4,0,0,0,.18,1.19.16.16,0,0,0,.3-.06c0-.82-.06-1.64-.12-2.46a.21.21,0,0,0-.25-.17.23.23,0,0,0-.19.25Z"/><path class="cls-1" d="M90.47,150.49h-.06l-.12,0-.2-.07-.1,0,0,0,0,0,0,0,0,0-.1-.06c-.26-.17-.49-.4-.76-.55a.21.21,0,0,0-.24,0,.22.22,0,0,0-.06.24,1.7,1.7,0,0,0,.34.42,2.78,2.78,0,0,0,1.4.69.27.27,0,0,0,0-.53Z"/><path class="cls-1" d="M91.09,151l1-.58a2.66,2.66,0,0,0,.85-.75c.07-.12,0-.29-.18-.22-.32.17-.62.38-.93.55l-1,.54a.27.27,0,0,0-.13.34.25.25,0,0,0,.34.12Z"/><path class="cls-1" d="M90.15,148.22A1.34,1.34,0,0,0,90,149a.53.53,0,0,0,.31.36.72.72,0,0,0,.48,0,1.49,1.49,0,0,0,.45-.19,1.09,1.09,0,0,0,.37-.34.61.61,0,0,0-.22-.93,1.19,1.19,0,0,0-.69-.13,1.2,1.2,0,0,0-.62.3.15.15,0,0,0,.16.25l.23-.09a.53.53,0,0,1,.2-.07.4.4,0,0,1,.19,0h.09l.11,0,.06,0h0l.09.06s0,0,0,0l0,0h0s0,0,0,0,0,0,0,0,0-.05,0,0v0h0v0c0,.05,0,0,0,0a0,0,0,0,1,0,0s0,0,0,0,0,0,0,0v0l0,.07,0,0h0s0,0,0,0l-.12.11-.14.11s0,0,0,0l0,0-.1,0-.08,0s-.06,0,0,0l-.05,0h-.22s0,0,0,0l0,0-.06,0h0l0,0s0,0,0,0,0,0,0-.05,0,0,0,0,0,0,0,0a.47.47,0,0,1,0-.17,1.58,1.58,0,0,1,.11-.37.08.08,0,0,0-.16-.05Z"/><path class="cls-1" d="M113.26,126c.28-.48.53-1,.82-1.45.15-.23.31-.45.48-.67a2,2,0,0,0,.44-.7.13.13,0,0,0-.21-.14,7.7,7.7,0,0,0-.54.6,6.67,6.67,0,0,0-.48.7c-.28.48-.53,1-.8,1.46-.11.2.18.41.29.2Z"/><path class="cls-1" d="M114.54,123.45c.15.44.3.88.47,1.31a4.83,4.83,0,0,0,.65,1.23c.14.18.4,0,.33-.21-.15-.43-.35-.84-.52-1.26s-.33-.85-.48-1.28a.25.25,0,0,0-.32-.12.26.26,0,0,0-.13.33Z"/><path class="cls-1" d="M114.5,121.05a12.65,12.65,0,0,1,.14,1.38c0,.23,0,.45,0,.68s0,.44,0,.66a.19.19,0,0,0,.34.08,1.42,1.42,0,0,0,.14-.7c0-.24,0-.48,0-.72a11.76,11.76,0,0,0-.2-1.45c0-.26-.42-.18-.39.07Z"/><path class="cls-1" d="M114.67,122.41l-.15-.11s0,0,0,0l0,0-.06-.06c-.09-.09-.17-.2-.26-.3s-.17-.2-.26-.29-.21-.17-.31-.27-.27,0-.24.15a1.87,1.87,0,0,0,.2.4l.06.08s0,0,0,0,0,0,0,0l.14.22a2.07,2.07,0,0,0,.58.6.28.28,0,0,0,.37-.07.27.27,0,0,0-.07-.37Z"/><path class="cls-1" d="M115,122.79l.54-.48a3,3,0,0,0,.52-.55.18.18,0,0,0-.23-.27,2.66,2.66,0,0,0-.63.42l-.54.48a.27.27,0,0,0,0,.37.26.26,0,0,0,.37,0Z"/><path class="cls-1" d="M113.86,119.88a1.54,1.54,0,0,0,0,.71.64.64,0,0,0,.75.33,1.12,1.12,0,0,0,.79-.6.6.6,0,0,0,.07-.47.56.56,0,0,0-.36-.37,1.5,1.5,0,0,0-.63-.07l-.29,0-.29.07a.18.18,0,0,0,0,.35,2.46,2.46,0,0,0,.47,0h.4s.07,0,0,0h0l.1,0s.05,0,0,0a.05.05,0,0,1,0,0l0,0h0v0s0,0,0,0v0s0-.06,0,0v0s0-.05,0,0v0s0,0,0,0,0,0,0,0,0,.05,0,.07,0,0,0,0l0,0,0,.07,0,0s0,0,0,0a.93.93,0,0,1-.15.13s0,0,0,0l0,0-.09,0s0,0,0,0l0,0h-.24s0,0,0,0,0,0,0,0l0,0h0s0,0,0,0l0,0v0l0-.06s0,0,0,0v0s0,0,0-.07v0s0,0,0,0v0a0,0,0,0,1,0,0v-.25a.15.15,0,0,0-.14-.17.16.16,0,0,0-.17.14Z"/><path class="cls-1" d="M54.51,89.8c-.31.47-.61,1-.91,1.44-.14.23-.28.46-.44.68s-.39.59-.1.75a.19.19,0,0,0,.24,0c.1-.08.11-.2.17-.3l.21-.31c.13-.21.25-.43.38-.65.27-.45.53-.91.81-1.36.15-.24-.21-.48-.36-.24Z"/><path class="cls-1" d="M54.41,90.18c.21.54.44,1.07.69,1.6.12.27.24.53.37.79a2.65,2.65,0,0,0,.36.61.16.16,0,0,0,.24,0,.83.83,0,0,0-.08-.72c-.12-.28-.25-.54-.38-.81q-.39-.83-.72-1.68c-.12-.32-.59-.09-.48.22Z"/><path class="cls-1" d="M54.23,86.19c0,.71.07,1.41.1,2.12a6.81,6.81,0,0,0,.21,2.06c.06.18.39.12.38-.07,0-.69-.06-1.39-.09-2.08s-.07-1.41-.12-2.11c0-.32-.5-.23-.48.08Z"/><path class="cls-1" d="M53,87a5.81,5.81,0,0,0,.7,1,4.4,4.4,0,0,0,.37.38c0,.06.11.11.16.18a1.71,1.71,0,0,0,.18.2.18.18,0,0,0,.28-.13.7.7,0,0,0-.23-.52c-.12-.13-.25-.25-.38-.38a7.08,7.08,0,0,1-.74-.9.19.19,0,0,0-.26,0A.2.2,0,0,0,53,87Z"/><path class="cls-1" d="M54.93,88.36c.26-.23.53-.46.8-.67a8,8,0,0,0,.83-.69.18.18,0,0,0,0-.23.17.17,0,0,0-.21-.06,7.25,7.25,0,0,0-1,.57c-.28.21-.55.44-.82.68a.26.26,0,1,0,.34.4Z"/><path class="cls-1" d="M53.69,85.06a1.28,1.28,0,0,0,.05.7.71.71,0,0,0,.77.35,1.13,1.13,0,0,0,.75-.51.71.71,0,0,0,.11-.58.56.56,0,0,0-.36-.33,1.28,1.28,0,0,0-.61-.07,2.3,2.3,0,0,0-.28.06l-.3.11a.19.19,0,0,0,0,.35,1.15,1.15,0,0,0,.26,0l.21,0,.2,0s.06,0,0,0h.21s0,0,0,0l.08,0,.06,0s0,0,0,0h0a0,0,0,0,1,0,0h0l0,0s0,0,0,0,0,0,0,0,0,0,0,0a.42.42,0,0,1,0,.1s0,0,0,0l0,0a.21.21,0,0,1,0,.06l0,0s0,0,0,0l0,0-.06,0,0,0s0,0,0,0a.26.26,0,0,1-.15.07h-.11s0,0,0,0h-.07s-.07,0,0,0l-.07,0,0,0h0s0,0,0,0l0,0s0,.05,0,0v0l0-.06s0,0,0,0v0s0,0,0-.08a.17.17,0,0,0,0-.07v0h0v-.16a.17.17,0,0,0-.15-.18.17.17,0,0,0-.19.16Z"/><path class="cls-1" d="M133.22,144.18l.61-.63.32-.35.15-.17.06-.08a.25.25,0,0,0,0-.07.09.09,0,0,0,0,0s0,0,0,0a.18.18,0,0,0-.13-.24.2.2,0,0,0-.23.17h0a.18.18,0,0,0,.21.19h0l-.11-.36,0,0-.07.05-.07.07a1.54,1.54,0,0,0-.17.19l-.07.08s0,0,0,0l0,0,0,0-.15.16-.61.62a.23.23,0,1,0,.3.36Z"/><path class="cls-1" d="M134.15,143.28a2.91,2.91,0,0,0,.46.76,2.31,2.31,0,0,0,.39.31.63.63,0,0,0,.6.1.26.26,0,0,0,.13-.18.21.21,0,0,0-.09-.2h0s0,0,0,0l-.09,0-.09,0,0,0s-.07,0,0,0l-.08-.05-.17-.11,0,0h0l-.07-.07a.76.76,0,0,1-.11-.14l0,0h0l0-.08a3.84,3.84,0,0,1-.18-.35.26.26,0,0,0-.35-.13.27.27,0,0,0-.14.35Z"/><path class="cls-1" d="M134.51,142.76a2.91,2.91,0,0,0,0-.66c0-.21,0-.43,0-.64l-.06-.59a.8.8,0,0,0-.22-.52c-.08-.08-.2,0-.24.07a.43.43,0,0,0,0,.25c0,.09,0,.17,0,.26s0,.38,0,.57,0,.4,0,.6a3.2,3.2,0,0,1,0,.62.26.26,0,1,0,.52,0Z"/><path class="cls-1" d="M132.91,141.52c.17.12.31.25.47.38l.23.17.18.09a.32.32,0,0,0,.19,0,.23.23,0,0,0,.21-.11.21.21,0,0,0,0-.23.8.8,0,0,0-.13-.13l-.12-.08a2.11,2.11,0,0,1-.23-.19l-.46-.37a.27.27,0,0,0-.31.44Z"/><path class="cls-1" d="M134.82,142c.16-.12.33-.22.5-.34l.22-.16a.86.86,0,0,0,.14-.13l0,0a.34.34,0,0,0,0-.2.23.23,0,0,0-.2-.18.28.28,0,0,0-.2.06l-.06,0,0,0-.44.31-.43.28a.32.32,0,0,0-.1.18.34.34,0,0,0,.06.2.26.26,0,0,0,.18.09.34.34,0,0,0,.2-.06Z"/><path class="cls-1" d="M133.73,139.14a1.3,1.3,0,0,0-.27.39,1.06,1.06,0,0,0,0,.5.78.78,0,0,0,.66.66,1,1,0,0,0,.84-.33.73.73,0,0,0,.17-.94.84.84,0,0,0-.51-.28,1.3,1.3,0,0,0-.65,0c-.06,0-.12.06-.12.13a.13.13,0,0,0,.09.15l.26.05.19.05.17,0,.09,0h0l0,0,0,0s0,0,0,0l0,0s0,0,0,0a.08.08,0,0,0,0,0s0,0,0,0v0s0,0,0,0v0s0,0,0,0l0,.08s0,0,0,0l-.07.09,0,0h0l-.06.06-.06,0,0,0,0,0s0,0,0,0l-.14.07h0c-.05,0,0,0,0,0l-.08,0h-.16s0,0,0,0a.17.17,0,0,1-.1,0s0,0,0,0l0,0h0a.46.46,0,0,1-.09-.15.58.58,0,0,1,0-.37.34.34,0,0,1,.05-.14.44.44,0,0,1,.12-.15.17.17,0,0,0,0-.21.15.15,0,0,0-.21,0Z"/><path class="cls-1" d="M78.54,107.18v.06a.17.17,0,0,0,.24.13,2.79,2.79,0,0,0,.58-.5c.22-.19.44-.4.65-.6s.41-.36.6-.56a1.09,1.09,0,0,0,.43-.66.15.15,0,0,0-.25-.13c-.19.14-.35.32-.53.48l-.58.55c-.19.19-.39.38-.58.58l-.28.3c-.07.08-.14.17-.22.25l.27.06,0,0a.16.16,0,0,0-.31.09Z"/><path class="cls-1" d="M80.55,105.79c.11.32.21.63.33.94a2.29,2.29,0,0,0,.51.88.21.21,0,0,0,.34-.22c-.1-.31-.25-.6-.37-.9s-.22-.61-.33-.92a.27.27,0,0,0-.35-.13.27.27,0,0,0-.13.35Z"/><path class="cls-1" d="M80.32,102.88c0,.42,0,.83.08,1.25a4.33,4.33,0,0,0,.17,1.19.17.17,0,0,0,.31-.06c0-.82-.06-1.63-.13-2.46,0-.11-.14-.19-.25-.17a.22.22,0,0,0-.18.25Z"/><path class="cls-1" d="M80.17,103.76H80.1l-.11,0-.21-.07-.09,0,0,0,0,0h0l0,0-.1-.06c-.27-.17-.49-.4-.77-.55a.21.21,0,0,0-.24,0,.22.22,0,0,0-.05.24,1.37,1.37,0,0,0,.34.42,2.73,2.73,0,0,0,.43.33,2.59,2.59,0,0,0,1,.36.27.27,0,0,0,.29-.24.28.28,0,0,0-.24-.29Z"/><path class="cls-1" d="M80.79,104.29c.33-.19.67-.37,1-.58a2.66,2.66,0,0,0,.85-.75c.07-.12,0-.29-.19-.21-.31.16-.61.37-.92.55s-.64.35-1,.54a.26.26,0,0,0-.13.33.25.25,0,0,0,.34.12Z"/><path class="cls-1" d="M79.85,101.49a1.28,1.28,0,0,0-.17.78.53.53,0,0,0,.31.37.79.79,0,0,0,.48,0,1.49,1.49,0,0,0,.45-.19,1.17,1.17,0,0,0,.37-.33.71.71,0,0,0,.12-.51.69.69,0,0,0-.35-.43,1.17,1.17,0,0,0-.69-.13,1.21,1.21,0,0,0-.61.3.15.15,0,0,0,.16.26l.22-.1a1,1,0,0,1,.2-.07h.29l.11,0,.06,0h0l.08.06s0,0,0,0l0,0v0h0s0,0,0,0,0,0,0,0v0c0,.05,0,0,0,0v0s0,0,0,0,0,0,0,0l0,0s0,0,0,0l0,0,0,.07,0,0h0s0,0,0,0l-.12.12-.14.1s0,0,0,0l0,0-.09,0-.09,0s-.06,0,0,0h-.29l0,0,0,0h0l0,0s0,0,0,0l0,0v-.07a1,1,0,0,1,0-.17,2.26,2.26,0,0,1,.11-.37c0-.1-.11-.15-.15-.05Z"/><path class="cls-1" d="M125.46,130.84c.27-.49.52-1,.82-1.45a8.12,8.12,0,0,1,.48-.67,2.48,2.48,0,0,0,.44-.71c0-.11-.11-.23-.21-.14a5.23,5.23,0,0,0-.54.61,5.33,5.33,0,0,0-.48.69c-.29.48-.53,1-.81,1.47-.11.2.19.4.3.2Z"/><path class="cls-1" d="M126.74,128.33c.15.43.3.87.47,1.3a4.6,4.6,0,0,0,.65,1.24c.14.18.4,0,.33-.22-.16-.42-.36-.83-.53-1.25s-.32-.85-.47-1.28a.25.25,0,0,0-.33-.12.26.26,0,0,0-.12.33Z"/><path class="cls-1" d="M126.7,125.92c.06.46.12.92.14,1.38,0,.23,0,.46,0,.68a5,5,0,0,0,0,.67.18.18,0,0,0,.33.07,1.52,1.52,0,0,0,.15-.7c0-.24,0-.48,0-.71a10.23,10.23,0,0,0-.19-1.46.2.2,0,0,0-.39.07Z"/><path class="cls-1" d="M126.87,127.28l-.15-.1s0,0,0,0l0,0-.06-.06-.27-.3a2.35,2.35,0,0,0-.26-.29l-.31-.27c-.09-.08-.27,0-.23.15a1.11,1.11,0,0,0,.2.39l.06.09v0s0,0,0,0l.14.21a2,2,0,0,0,.57.6.26.26,0,0,0,.37-.07.27.27,0,0,0-.06-.37Z"/><path class="cls-1" d="M127.21,127.67l.54-.48a3.85,3.85,0,0,0,.52-.55.19.19,0,0,0-.23-.27,2.39,2.39,0,0,0-.63.42c-.18.15-.36.32-.54.48a.26.26,0,0,0,0,.37.28.28,0,0,0,.38,0Z"/><path class="cls-1" d="M126.05,124.76a1.7,1.7,0,0,0,0,.71.65.65,0,0,0,.74.33,1.13,1.13,0,0,0,.8-.61.6.6,0,0,0,.07-.47.56.56,0,0,0-.37-.36,1.36,1.36,0,0,0-.63-.08l-.29,0-.28.06a.18.18,0,0,0,0,.35,1.55,1.55,0,0,0,.48,0H127s.07,0,0,0h0l.1,0s0,0,0,0l0,0,0,0h0s0,0,0,0l0,0s0,0,0,0a.06.06,0,0,0,0,0s0,0,0,0v0s0,0,0,0a.43.43,0,0,1,0,0,.49.49,0,0,1,0,.07s0,0,0,0l0,0a.35.35,0,0,1,0,.08l0,0h0a.41.41,0,0,1-.14.12h0l0,0-.1.05h-.05l-.09,0h-.15s0,0,0,0,0,0,0,0,0,0,0,0l0,0h0l0,0v0l0-.07s0,0,0,0v0a.22.22,0,0,1,0-.08V125c0-.06,0-.11,0-.17a.17.17,0,0,0-.14-.17.17.17,0,0,0-.18.15Z"/><path class="cls-1" d="M63.25,32.11c-.31.48-.61,1-.91,1.44-.15.23-.29.47-.44.69s-.4.59-.1.75A.23.23,0,0,0,62,35c.1-.08.11-.2.17-.3l.21-.32.38-.64c.26-.46.53-.91.81-1.36.14-.24-.21-.48-.36-.25Z"/><path class="cls-1" d="M63.15,32.49c.21.55.44,1.08.69,1.61.12.26.24.53.37.79a2.88,2.88,0,0,0,.36.61.16.16,0,0,0,.24,0,.84.84,0,0,0-.08-.72c-.12-.27-.25-.53-.38-.8-.26-.56-.51-1.12-.72-1.69-.12-.31-.59-.09-.48.22Z"/><path class="cls-1" d="M63,28.51c0,.7.07,1.41.1,2.12a6.72,6.72,0,0,0,.21,2.05c.06.19.38.13.38-.07,0-.69-.06-1.38-.09-2.07s-.08-1.41-.12-2.12c0-.32-.5-.22-.48.09Z"/><path class="cls-1" d="M61.77,29.34a6.48,6.48,0,0,0,.69,1c.12.13.25.25.38.38l.16.17a1.71,1.71,0,0,0,.18.2.18.18,0,0,0,.28-.13.69.69,0,0,0-.23-.51c-.12-.13-.26-.25-.38-.38a6.53,6.53,0,0,1-.74-.91.2.2,0,0,0-.26,0,.2.2,0,0,0-.08.26Z"/><path class="cls-1" d="M63.67,30.68c.26-.23.52-.46.8-.68a7.91,7.91,0,0,0,.83-.68.18.18,0,0,0,0-.23.16.16,0,0,0-.21-.06,7.25,7.25,0,0,0-1,.57c-.28.21-.55.44-.82.68a.27.27,0,0,0,0,.37.28.28,0,0,0,.38,0Z"/><path class="cls-1" d="M62.43,27.37a1.28,1.28,0,0,0,0,.7.71.71,0,0,0,.77.35,1.09,1.09,0,0,0,.75-.5.67.67,0,0,0,.1-.58.53.53,0,0,0-.36-.34,1.36,1.36,0,0,0-.6-.06,1.27,1.27,0,0,0-.28.06,2.22,2.22,0,0,0-.3.11.19.19,0,0,0,0,.35.76.76,0,0,0,.26,0,1.52,1.52,0,0,0,.21,0l.2,0h.23s0,0,0,0l.08,0,.06,0s0,0,0,0h0l0,0s0,0,0,0l0,0c0-.05,0,0,0,0s0,0,0,0,0,0,0,0l0,.1s0,0,0,0l0,0s0,0,0,.06a.15.15,0,0,1,0,.06h0l0,0-.07.06,0,0h0s-.1.05-.15.07H63.1s0,0,0,0H63s-.06,0,0,0l-.07,0h0c.05,0,0,0,0,0l0,0s0,0,0,0,0,0,0,0l0,0s0,0,0,0v0l0-.07s0,.05,0,0v0s0-.05,0-.07,0-.05,0-.08v0h0V27.4a.17.17,0,1,0-.34,0Z"/><path class="cls-2" d="M32.38,63.12c8.09.67,15.85,3.65,22.89,7.58s13.54,9,19.81,14.2,12.21,10.38,18.74,15a73.67,73.67,0,0,0,21.35,10.93,57.68,57.68,0,0,0,24.17,2.19c1-.13,2-.29,3-.48s.58-1.55-.34-1.38A55.74,55.74,0,0,1,117.82,110,72.5,72.5,0,0,1,96,99.81,232,232,0,0,1,77.1,85,153.29,153.29,0,0,0,57.71,70.69c-6.88-4.08-14.42-7.34-22.39-8.46-1-.13-1.94-.24-2.91-.31-.78-.06-.81,1.13,0,1.2Z"/><path class="cls-2" d="M94.85,20.67a64.34,64.34,0,0,0-8.53,26.24c-1.11,9.75-.48,19.55.48,29.28,1,9.91,2.36,19.79,2.64,29.76a92.69,92.69,0,0,1-3.16,28.18,87.17,87.17,0,0,1-11,23.92c-.6.92-1.22,1.82-1.86,2.71-.53.73.7,1.39,1.2.66A90.51,90.51,0,0,0,86.4,138a88.54,88.54,0,0,0,4.15-27.27c0-10-1.15-20-2.17-29.88-1-9.72-1.86-19.52-1.32-29.31.52-9.52,2.48-19,7-27.43.53-1,1.1-2,1.7-3,.35-.58-.55-1.06-.89-.5Z"/><path class="cls-2" d="M108.13,55.54a4.39,4.39,0,0,1,2.33.25c.46.26.87.73.65,1.28a2.26,2.26,0,0,1-1.37,1.12c-.76.31-1.56.53-2.3.89a.73.73,0,0,0-.36.81,2.64,2.64,0,0,0,1.39,1.54c.52.29,1.22.45,1.58,1s-.25.68-.62.73a5,5,0,0,1-1.22-.1,3.47,3.47,0,0,0-1.36.06.64.64,0,0,0,.14,1.25,8.64,8.64,0,0,0,3,.15,2.08,2.08,0,0,0,1.66-1.78,2.41,2.41,0,0,0-1.38-2.12c-.62-.37-1.46-.55-1.79-1.25l-.28,1c.88-.58,2-.64,2.91-1.15a3,3,0,0,0,1.64-2.28,2.58,2.58,0,0,0-1.36-2.34,5.41,5.41,0,0,0-3.18-.48c-.94,0-1,1.52,0,1.47Z"/><path class="cls-2" d="M116.37,54.65a2.07,2.07,0,0,0-1.07,2.09,7.46,7.46,0,0,0,1.11,2.67,2.58,2.58,0,0,1-.23,2.7,2.47,2.47,0,0,1-.94.73c-.44.2-.93.23-1.38.41s-.71.85-.17,1.13a2.93,2.93,0,0,0,3-.73,3.87,3.87,0,0,0,1.32-2.92,5.91,5.91,0,0,0-1.13-3c-.33-.56-.76-1.66,0-2.05s.11-1.36-.6-1Z"/><path class="cls-2" d="M118,56h1.93a6.67,6.67,0,0,0,2-.19.69.69,0,0,0,.51-.64.67.67,0,0,0-.49-.64,6.56,6.56,0,0,0-2-.22H118a.89.89,0,0,0-.87.85A.85.85,0,0,0,118,56Z"/><path class="cls-2" d="M235.47,123.69a4.4,4.4,0,0,1,2.33.25,1.07,1.07,0,0,1,.64,1.29,2.34,2.34,0,0,1-1.36,1.12c-.77.3-1.56.52-2.31.88a.75.75,0,0,0-.36.81,2.65,2.65,0,0,0,1.4,1.54c.52.29,1.22.45,1.57,1s-.24.68-.61.73a5,5,0,0,1-1.22-.1,3.45,3.45,0,0,0-1.36.06.63.63,0,0,0,.14,1.25,8.62,8.62,0,0,0,2.95.15,2.08,2.08,0,0,0,1.66-1.78,2.43,2.43,0,0,0-1.39-2.12c-.61-.37-1.46-.55-1.78-1.25l-.28,1c.88-.58,2-.64,2.9-1.15A3,3,0,0,0,240,125a2.63,2.63,0,0,0-1.36-2.34,5.51,5.51,0,0,0-3.18-.48c-.95,0-1,1.52,0,1.47Z"/><path class="cls-2" d="M243.71,122.8a2.07,2.07,0,0,0-1.08,2.09,7.61,7.61,0,0,0,1.12,2.68,2.56,2.56,0,0,1-.24,2.69,2.37,2.37,0,0,1-.93.73c-.44.2-.94.23-1.39.41s-.7.86-.16,1.13a2.91,2.91,0,0,0,3-.73,3.81,3.81,0,0,0,1.32-2.91,5.84,5.84,0,0,0-1.13-3c-.33-.57-.75-1.67.05-2.06s.12-1.36-.59-1Z"/><path class="cls-2" d="M245.3,124.17h1.93a7,7,0,0,0,2-.18.72.72,0,0,0,.51-.65.66.66,0,0,0-.49-.64,6.53,6.53,0,0,0-2-.21l-1.93,0a.9.9,0,0,0-.88.85.84.84,0,0,0,.84.84Z"/><path class="cls-2" d="M108.92,134c-.21,1.77-.39,3.53-.54,5.31-.08.87-.14,1.74-.2,2.61a5.11,5.11,0,0,0,.09,2.61.62.62,0,0,0,1.07,0,5.4,5.4,0,0,0,.33-2.51c0-.9.08-1.8.14-2.71.11-1.77.24-3.54.41-5.3.08-.84-1.21-.79-1.3,0Z"/><path class="cls-2" d="M108.63,138.54a7.22,7.22,0,0,0-3.7.55l.9.36a7.27,7.27,0,0,1,0-1.4c0-.48,0-1,0-1.44s0-1,0-1.44a3,3,0,0,0-.22-1.48.56.56,0,0,0-.95,0,3.14,3.14,0,0,0-.2,1.49c0,.49,0,1,.07,1.49s0,1,0,1.44a8.24,8.24,0,0,1,0,1.49.6.6,0,0,0,.77.58,7.28,7.28,0,0,1,3.23-.52.59.59,0,0,0,.58-.57.56.56,0,0,0-.56-.56Z"/><path class="cls-2" d="M114.57,136.06c-.54,1.63-.79,3.66.23,5.17a3.51,3.51,0,0,0,4.06,1.52,4.7,4.7,0,0,0,2.66-4.41,4.13,4.13,0,0,0-2.84-3.66,4.07,4.07,0,0,0-2.58.12c-.87.34-1.94,1-2,2.06a.66.66,0,0,0,1,.57,4.46,4.46,0,0,0,.72-.58l.17-.14c.13-.11-.16.1.08-.06a1.9,1.9,0,0,1,.39-.23,2.72,2.72,0,0,1,1.32-.26,2.51,2.51,0,0,1,2.11,2,3.25,3.25,0,0,1-1.29,3,1.44,1.44,0,0,1-1.23.17,2.42,2.42,0,0,1-1.23-.81c-.93-1.1-.68-2.85-.29-4.16.25-.83-1-1.11-1.28-.32Z"/><path class="cls-2" d="M264,122.17c-.2,1.77-.38,3.54-.53,5.31-.08.87-.14,1.74-.2,2.61a5.11,5.11,0,0,0,.09,2.61.63.63,0,0,0,1.07,0,5.3,5.3,0,0,0,.32-2.51c0-.91.09-1.81.15-2.71.1-1.77.24-3.54.41-5.31.07-.84-1.21-.78-1.31,0Z"/><path class="cls-2" d="M263.74,126.74a7.2,7.2,0,0,0-3.7.55l.9.36a8.07,8.07,0,0,1,0-1.39c0-.48,0-1,0-1.44s0-1,0-1.44a3,3,0,0,0-.22-1.49.55.55,0,0,0-.95,0,3,3,0,0,0-.2,1.48c0,.5.05,1,.06,1.49l.06,1.44a8.36,8.36,0,0,1,0,1.5.6.6,0,0,0,.76.58,7.48,7.48,0,0,1,3.23-.53.59.59,0,0,0,.59-.57.56.56,0,0,0-.56-.56Z"/><path class="cls-2" d="M269.68,124.27c-.55,1.63-.79,3.66.23,5.16A3.53,3.53,0,0,0,274,131a4.72,4.72,0,0,0,2.66-4.41,4.11,4.11,0,0,0-2.84-3.66,4,4,0,0,0-2.58.11c-.87.35-1.95,1-2,2.07a.66.66,0,0,0,1,.56,3.94,3.94,0,0,0,.71-.57l.18-.15c.13-.11-.16.1.07-.06s.26-.16.4-.23a2.58,2.58,0,0,1,1.32-.25,2.5,2.5,0,0,1,2.11,2,3.26,3.26,0,0,1-1.29,3,1.39,1.39,0,0,1-1.24.17,2.4,2.4,0,0,1-1.22-.81c-.93-1.09-.69-2.85-.29-4.15.25-.83-1-1.11-1.28-.32Z"/><path class="cls-2" d="M57.08,119.48c-.07,1.32-.19,2.63-.36,4-.08.63-.18,1.26-.27,1.89s-.35,1.49,0,2a.56.56,0,0,0,.75.18c.58-.4.66-1.21.78-1.86s.21-1.39.3-2.09c.16-1.36.27-2.73.34-4.1,0-1-1.5-1-1.56,0Z"/><path class="cls-2" d="M57.31,122.54a13.11,13.11,0,0,1-3.7-.1l.34.82a8.75,8.75,0,0,0,.73-2.84,6.4,6.4,0,0,0,0-1.45,2.19,2.19,0,0,0-.65-1.36.45.45,0,0,0-.61.17,2.93,2.93,0,0,0-.08,1.29c0,.44.07.87.06,1.31a7.71,7.71,0,0,1-.46,2.47c-.14.38.21.66.54.7a16,16,0,0,0,3.85,0,.56.56,0,0,0,.54-.53.52.52,0,0,0-.52-.52Z"/><path class="cls-2" d="M62.47,118.53a2.61,2.61,0,0,0-1.31,2.85c.25,1.2,1.4,1.68,2.06,2.59a3,3,0,0,1,.57,1.6c0,.38.06,1-.41,1.09a9.17,9.17,0,0,1-2,0,5.27,5.27,0,0,0-2.24.23.55.55,0,0,0,0,.95,2.47,2.47,0,0,0,1.14.29,11.11,11.11,0,0,0,1.16.08,9.22,9.22,0,0,0,2.23-.1c1.46-.34,1.74-1.81,1.47-3.1a4.79,4.79,0,0,0-.78-1.72A10.4,10.4,0,0,0,63,122a1.44,1.44,0,0,1-.58-1.26,1.36,1.36,0,0,1,.71-1c.83-.44.12-1.67-.7-1.23Z"/><path class="cls-2" d="M63.53,120.12l1.42.06c.48,0,1,0,1.43,0a.71.71,0,0,0,.69-.6.66.66,0,0,0-.49-.75c-.52-.08-1-.18-1.57-.23l-1.44-.13a.85.85,0,0,0-.62.26.87.87,0,0,0-.26.59.83.83,0,0,0,.84.83Z"/><path class="cls-2" d="M292.88,123.11c-.08,1.32-.2,2.64-.36,4-.08.63-.18,1.26-.27,1.89s-.35,1.5,0,2a.55.55,0,0,0,.75.19,2.72,2.72,0,0,0,.77-1.87c.12-.69.22-1.39.3-2.09.17-1.36.28-2.72.35-4.09.05-1-1.51-1-1.56,0Z"/><path class="cls-2" d="M293.11,126.18a13.11,13.11,0,0,1-3.7-.11l.34.83a8.49,8.49,0,0,0,.72-2.85,6.3,6.3,0,0,0,0-1.44,2.15,2.15,0,0,0-.66-1.36.44.44,0,0,0-.6.17,2.76,2.76,0,0,0-.08,1.28c0,.44.07.88.06,1.32a7.94,7.94,0,0,1-.46,2.46c-.14.39.2.67.54.71a16.52,16.52,0,0,0,3.85,0,.55.55,0,0,0,.54-.52.52.52,0,0,0-.52-.52Z"/><path class="cls-2" d="M298.26,122.17A2.62,2.62,0,0,0,297,125c.25,1.19,1.41,1.68,2.07,2.59a3.12,3.12,0,0,1,.57,1.59c0,.39.05,1-.41,1.1a10.58,10.58,0,0,1-2,0,5.25,5.25,0,0,0-2.24.22.55.55,0,0,0,0,1,2.55,2.55,0,0,0,1.13.28c.39,0,.78.07,1.17.09a9.17,9.17,0,0,0,2.22-.11c1.47-.33,1.75-1.81,1.47-3.09a4.6,4.6,0,0,0-.77-1.72,9.25,9.25,0,0,0-1.29-1.29,1.47,1.47,0,0,1-.57-1.27,1.4,1.4,0,0,1,.71-1c.83-.44.12-1.66-.71-1.22Z"/><path class="cls-2" d="M299.33,123.76l1.42,0c.48,0,.95,0,1.42,0a.72.72,0,0,0,.7-.6.66.66,0,0,0-.49-.75c-.52-.09-1-.18-1.57-.23l-1.45-.14a.91.91,0,0,0-.62.26.88.88,0,0,0-.25.59.85.85,0,0,0,.84.84Z"/><path class="cls-2" d="M53.07,40.94a1.94,1.94,0,0,0-1.33,2.25,6.54,6.54,0,0,0,1.58,2.6l1,1.32c.17.24.34.47.5.71s.29.36.26.52c0-.1-.09,0-.18,0a4.68,4.68,0,0,1-.72.24c-.32.08-.67,0-.74-.33a.56.56,0,0,0-1-.12,1.28,1.28,0,0,0,.32,1.62,2,2,0,0,0,1.82.37,3.6,3.6,0,0,0,1.63-.79,1.57,1.57,0,0,0,.23-1.83A8.17,8.17,0,0,0,55.22,46c-.4-.5-.8-1-1.19-1.5a3.74,3.74,0,0,1-.81-1.37.68.68,0,0,1,.05-.45.72.72,0,0,0,.09-.14l0,0c-.06,0,0,0,.06,0a.81.81,0,0,0-.4-1.58Z"/><path class="cls-2" d="M54.41,42.1a3,3,0,0,1,.41-.09c.21,0-.15,0,0,0l.22,0a5.08,5.08,0,0,1,.78,0h0l.19,0,.38.08.37.1a1.44,1.44,0,0,0,.36.07h.1c-.1,0-.1,0,0,0a.74.74,0,0,0,.78-.34.68.68,0,0,0-.1-.82,1.51,1.51,0,0,0-.44-.36,3.32,3.32,0,0,0-.55-.22,4,4,0,0,0-.86-.2,5.23,5.23,0,0,0-2.08.13.88.88,0,0,0-.63,1,.86.86,0,0,0,1,.59Z"/><path class="cls-2" d="M61.29,42.3a6.78,6.78,0,0,0-2.08,4.37c-.1,1.34.35,3,1.7,3.55,1.79.75,3.46-.76,4.41-2.13s1.89-3.37.93-4.77A5.59,5.59,0,0,0,64,41.62a4.27,4.27,0,0,0-2.94-.47.53.53,0,0,0-.15,1,16.11,16.11,0,0,0,1.91.69,7,7,0,0,1,1.69.89A1.09,1.09,0,0,1,65.08,45a6.29,6.29,0,0,1-.7,1.67,6.45,6.45,0,0,1-1.15,1.45,2,2,0,0,1-1.45.72c-.88-.09-1.13-1.27-1.13-2a5.32,5.32,0,0,1,1.54-3.67.63.63,0,0,0-.9-.88Z"/><path class="cls-2" d="M313.46,123.19a1.94,1.94,0,0,0-1.33,2.25,6.68,6.68,0,0,0,1.58,2.6l1,1.32c.17.23.34.46.5.7s.29.37.26.52c0-.09-.09,0-.18,0a3.21,3.21,0,0,1-.72.24c-.33.08-.67.06-.74-.32a.56.56,0,0,0-1-.12,1.29,1.29,0,0,0,.32,1.62,2,2,0,0,0,1.82.37,3.52,3.52,0,0,0,1.63-.8,1.57,1.57,0,0,0,.23-1.82,9.08,9.08,0,0,0-1.15-1.54c-.4-.49-.8-1-1.19-1.49a3.57,3.57,0,0,1-.81-1.38.66.66,0,0,1,.05-.44l.09-.14c-.06,0,0,0,.05,0q-.09,0,.06,0a.81.81,0,0,0-.4-1.58Z"/><path class="cls-2" d="M314.8,124.34l.41-.09c.21,0-.15,0,0,0l.22,0a5,5,0,0,1,.77,0h0l.19,0,.38.09.37.1a1.43,1.43,0,0,0,.36.06h.08a.73.73,0,0,0,.78-.33.68.68,0,0,0-.1-.82,1.51,1.51,0,0,0-.44-.36,4.53,4.53,0,0,0-.55-.23,4,4,0,0,0-.86-.2,5.42,5.42,0,0,0-2.08.13.89.89,0,0,0-.63,1,.85.85,0,0,0,1,.59Z"/><path class="cls-2" d="M321.68,124.55a6.74,6.74,0,0,0-2.08,4.37c-.1,1.34.35,3,1.7,3.55,1.79.75,3.45-.76,4.41-2.13.85-1.22,1.89-3.37.93-4.77a5.51,5.51,0,0,0-2.23-1.7,4.33,4.33,0,0,0-2.94-.48.53.53,0,0,0-.15,1,14.56,14.56,0,0,0,1.91.7,6.63,6.63,0,0,1,1.69.88,1.12,1.12,0,0,1,.55,1.33,6.71,6.71,0,0,1-1.85,3.12,2,2,0,0,1-1.45.71c-.88-.09-1.13-1.26-1.13-2a5.34,5.34,0,0,1,1.54-3.68c.58-.59-.31-1.44-.9-.87Z"/><path class="cls-2" d="M213.54,116.65c16.45-.12,32.89-.44,49.34-.45s32.73-.08,49.09.12c9.23.1,18.47.37,27.7.3a.57.57,0,0,0,0-1.14c-8.22-.29-16.45-.25-24.67-.28s-16.45-.1-24.68-.09q-24.54,0-49.09.27c-9.24.09-18.46.19-27.69.43-.54,0-.57.84,0,.84Z"/><path class="cls-2" d="M339.46,114.76a11.59,11.59,0,0,0-1.28-2,5.37,5.37,0,0,0-1.7-1.52.64.64,0,0,0-.73.1.61.61,0,0,0-.1.71,10.4,10.4,0,0,0,.71.93l.36.4.17.19.09.11s.11.15,0,.06l0,0,.08.11.16.21c.1.14.21.29.3.44.2.3.38.62.55.94a.76.76,0,0,0,1.32-.76Z"/><path class="cls-2" d="M338.29,116.34c-.8.39-1.6.77-2.37,1.24s-1.52.91-2.26,1.41c-.27.19-.13.7.23.57.84-.3,1.66-.66,2.48-1s1.67-.79,2.49-1.22a.58.58,0,1,0-.57-1Z"/><path class="cls-2" d="M344.4,119.23a41.79,41.79,0,0,0,.05,5.25.53.53,0,0,0,.47.54.57.57,0,0,0,.62-.41,42.23,42.23,0,0,0,.41-5.39.75.75,0,0,0-.76-.76.82.82,0,0,0-.79.77Z"/><path class="cls-2" d="M346.64,120.81a11.47,11.47,0,0,0,.21,3.83.63.63,0,0,0,1.23-.17,34.76,34.76,0,0,1,.2-3.68.8.8,0,0,0-.81-.8.86.86,0,0,0-.83.82Z"/><path class="cls-2" d="M345.76,119.62a3.41,3.41,0,0,1,4.72.45c.21.26.57.78.37,1.13s-.55.33-.82.42c-.79.24-1.74.51-1.9,1.46a.57.57,0,0,0,.15.58,20.56,20.56,0,0,0,2.59,1.84,11.17,11.17,0,0,0,2.89,1.34.61.61,0,0,0,.47-1.1c-.83-.57-1.75-1-2.62-1.49s-1.74-1-2.59-1.55l.28.67c.07-.28.49-.33.82-.41a4.05,4.05,0,0,0,1.35-.53c1.26-.9.82-2.57-.11-3.54a4.64,4.64,0,0,0-6.37,0c-.5.5.25,1.2.77.74Z"/><path class="cls-2" d="M294.68,113.4a17.77,17.77,0,0,0-.05,3.18,9.56,9.56,0,0,0,.61,3.19c.22.49,1.05.23,1-.28,0-1-.32-2-.39-3a18.52,18.52,0,0,1,.05-3.07.61.61,0,0,0-.61-.61.66.66,0,0,0-.64.63Z"/><path class="cls-2" d="M266.29,113.82a13.6,13.6,0,0,0,.51,4.26.54.54,0,0,0,.59.38.56.56,0,0,0,.49-.53,28.34,28.34,0,0,1-.17-4.12.68.68,0,0,0-.69-.69.75.75,0,0,0-.73.7Z"/><path class="cls-2" d="M318.26,114a42.88,42.88,0,0,0,.72,4.92.6.6,0,0,0,1.17-.16,40.21,40.21,0,0,0-.29-4.78.79.79,0,0,0-.78-.78c-.39,0-.87.36-.82.8Z"/><path class="cls-2" d="M240.38,114a21.32,21.32,0,0,0,1.39,5.7.58.58,0,0,0,.75.24.6.6,0,0,0,.37-.7c-.27-1.89-.73-3.75-1-5.65A.77.77,0,0,0,241,113a.83.83,0,0,0-.58.95Z"/><path class="cls-1" d="M238.53,137.3c-.64.33-1.28.66-1.91,1l-.93.52c-.33.2-.78.38-1,.74a.5.5,0,0,0,.43.75,2.56,2.56,0,0,0,1.17-.4l1-.46c.65-.32,1.28-.66,1.92-1a.69.69,0,0,0,.27-.93.7.7,0,0,0-.94-.23Z"/><path class="cls-1" d="M239.28,138.73c.53.68,1.08,1.35,1.68,2,.27.29.55.57.83.85s.3.28.47.41a2.78,2.78,0,0,0,.34.26,2.85,2.85,0,0,0,.44.16.73.73,0,0,0,.75-.27.7.7,0,0,0,.06-.77,2.21,2.21,0,0,0-.41-.6l-.4-.39-.84-.84c-.26-.29-.52-.57-.77-.86l-.36-.43-.2-.25s-.24-.3-.09-.12a1,1,0,0,0-.52-.38.92.92,0,0,0-.65.09.88.88,0,0,0-.41.52.76.76,0,0,0,.08.64Z"/><path class="cls-1" d="M264.83,139a13.87,13.87,0,0,0-1.27,1.15c-.2.2-.38.42-.56.64a5.22,5.22,0,0,0-.34.48,1.41,1.41,0,0,0-.22.52.62.62,0,0,0,.23.67.67.67,0,0,0,.72,0,2.44,2.44,0,0,0,.47-.32l.3-.29.61-.6c.4-.39.83-.77,1.27-1.12a.88.88,0,0,0,.25-.6.85.85,0,0,0-.24-.6.9.9,0,0,0-.6-.23,1,1,0,0,0-.62.26Z"/><path class="cls-1" d="M266.47,139.67a10.93,10.93,0,0,0,1.38,1.58,8.51,8.51,0,0,0,.87.69,2.3,2.3,0,0,0,.4.26l.6.23a.75.75,0,0,0,.81-.34.71.71,0,0,0-.1-.85l-.3-.31a3.88,3.88,0,0,0-.31-.26c-.23-.18-.45-.37-.66-.56a9.93,9.93,0,0,1-1.17-1.26l.14.18-.17-.22a.83.83,0,0,0-1.16-.29.85.85,0,0,0-.41.52.77.77,0,0,0,.08.63Z"/><path class="cls-1" d="M294.8,138.09q-.46.65-.9,1.29c-.15.22-.28.44-.41.67a3.33,3.33,0,0,0-.21.48,1.8,1.8,0,0,0-.1.46.55.55,0,0,0,.29.5.63.63,0,0,0,.58,0,4.14,4.14,0,0,0,1.3-1.3c.32-.42.62-.84.93-1.27a.87.87,0,0,0,.09-.63.83.83,0,0,0-1-.59,1,1,0,0,0-.53.4Z"/><path class="cls-1" d="M296.21,138.94a11.86,11.86,0,0,0,1.33,1.73c.23.24.46.48.71.7l.52.39a2.55,2.55,0,0,0,.61.26.71.71,0,0,0,.74-.27.7.7,0,0,0,.07-.77,4.25,4.25,0,0,0-.31-.43c-.07-.08-.16-.15-.24-.23l-.52-.51a8.93,8.93,0,0,1-1-1.08l.13.18c-.2-.27-.4-.55-.58-.83a.87.87,0,0,0-1.5.86Z"/><path class="cls-1" d="M319,138.27a8.47,8.47,0,0,0-1.61,1.25,5.59,5.59,0,0,0-.7.83,2.45,2.45,0,0,0-.24.38,1.65,1.65,0,0,0-.16.36,2.23,2.23,0,0,0-.05.36.66.66,0,0,0,1,.56,1.69,1.69,0,0,0,.38-.28l.23-.25c.15-.18.31-.34.46-.5a7.9,7.9,0,0,1,1-.92l-.18.14a6.93,6.93,0,0,1,.72-.48.87.87,0,0,0,.33-1.16.86.86,0,0,0-1.17-.29Z"/><path class="cls-1" d="M320.47,140.06l1.5,1.14c.3.22.59.43.9.63a7.32,7.32,0,0,0,.82.45.71.71,0,0,0,.9-.19.7.7,0,0,0,0-.9,8.22,8.22,0,0,0-.66-.66c-.23-.2-.46-.39-.71-.57l-1.48-1.12a.91.91,0,0,0-.59-.23.88.88,0,0,0-.62.26.89.89,0,0,0-.26.59.79.79,0,0,0,.25.6Z"/><path class="cls-2" d="M30.81,2.06A4.8,4.8,0,0,0,26.67,0,4,4,0,0,0,22.8,3C22.47,5.05,24.47,6.3,26,7.2a26.65,26.65,0,0,1,2.58,1.63c.56.42,1.93,1.32.9,2a4.23,4.23,0,0,1-1.69.39,8.85,8.85,0,0,1-2,.08A3.41,3.41,0,0,1,23.2,9.79a.56.56,0,0,0-1,.43c.57,2,2.87,2.66,4.75,2.52a6.9,6.9,0,0,0,3.29-.8,2.07,2.07,0,0,0,.93-2.31A5.36,5.36,0,0,0,29,7.42c-.83-.58-1.72-1.08-2.59-1.6A5.24,5.24,0,0,1,24.24,4a1.83,1.83,0,0,1,.82-2.25,3.44,3.44,0,0,1,4.66.94c.43.65,1.53,0,1.09-.63Z"/><path class="cls-1" d="M194.07,212.58c-1,2.11-2,4.24-3,6.38a44.84,44.84,0,0,0-2.5,6.53.56.56,0,0,0,1,.4c1.1-2,1.94-4.18,2.87-6.29s1.9-4.22,2.91-6.3c.43-.89-.89-1.6-1.32-.72Z"/><path class="cls-1" d="M186.44,215.22l2.09,2.79c.34.45.67.9,1,1.35s.81,1.22,1.46,1.34a.65.65,0,0,0,.78-.59c.06-.59-.43-1.16-.76-1.61l-1-1.4-2.06-2.75a.88.88,0,0,0-1.17-.29.87.87,0,0,0-.33,1.16Z"/></svg>