<svg id="Layer_1" data-name="Layer 1" xmlns="http://www.w3.org/2000/svg" viewBox="0 0 224.24 118.83"><defs><style>.cls-1{fill:#486afb;}.cls-2{fill:#fd46fc;}</style></defs><path class="cls-1" d="M.55,62.08q35.37.08,70.75-.24c23.46-.18,46.93-.29,70.38-.71,6.62-.12,13.24-.14,19.85-.26s13.25-.1,19.86-.4a.68.68,0,0,0,0-1.36c-5.89,0-11.79.16-17.68.24s-11.79.23-17.69.33c-11.79.19-23.58.3-35.37.47-23.46.34-46.92.4-70.39.52-13.24.06-26.47.21-39.71.27a.57.57,0,0,0,0,1.14Z"/><path class="cls-1" d="M.58,62.64c.38.44.78.87,1.19,1.28.2.2.41.4.63.58a3.61,3.61,0,0,0,.44.33,2,2,0,0,0,.47.23.48.48,0,0,0,.51-.18.47.47,0,0,0,.05-.52,3.49,3.49,0,0,0-.55-.77c-.19-.23-.39-.44-.59-.65-.4-.42-.79-.85-1.16-1.29a.73.73,0,0,0-.48-.19.74.74,0,0,0-.51.21.7.7,0,0,0,0,1Z"/><path class="cls-1" d="M1.9,61.66a9,9,0,0,0,.85-.79,6.21,6.21,0,0,0,.82-1c.16-.27.35-.7.16-1A.62.62,0,0,0,3,58.6a1.65,1.65,0,0,0-.41.28,5.08,5.08,0,0,0-.38.43l-.39.44a7.92,7.92,0,0,1-.94.89.79.79,0,0,0-.22.52.73.73,0,0,0,.22.52.71.71,0,0,0,.51.21.83.83,0,0,0,.54-.23Z"/><path class="cls-1" d="M181.77,59c-.6-.55-1.17-1.14-1.79-1.67a8.51,8.51,0,0,0-2.06-1.47.5.5,0,0,0-.6.09.48.48,0,0,0-.08.58,8.7,8.7,0,0,0,1.66,1.87c.6.56,1.25,1.06,1.88,1.59a.72.72,0,0,0,1,0,.69.69,0,0,0,0-1Z"/><path class="cls-1" d="M180.46,59.51c-.63.57-1.24,1.18-1.82,1.81-.29.31-.58.62-.84,1a2.31,2.31,0,0,0-.73,1.42.6.6,0,0,0,.76.58,2.41,2.41,0,0,0,1.15-.9c.27-.32.55-.65.83-1,.57-.63,1.16-1.23,1.78-1.81a.79.79,0,0,0,0-1.12.82.82,0,0,0-1.13,0Z"/><path class="cls-1" d="M196.69,39.22a10,10,0,0,0-2.87.47c-.72.22-1.51.53-1.73,1.33-.43,1.59,1.39,3.2,2.42,4.15a27.37,27.37,0,0,1,3.7,3.6c.17.23.6.67.45.93a2.11,2.11,0,0,1-.92.6,3.83,3.83,0,0,1-2.32.12c-1.89-.49-3.14-2.08-4.13-3.64a.37.37,0,0,0-.67.28,6.75,6.75,0,0,0,3,4.32,5.25,5.25,0,0,0,5,.06c.68-.38,1.54-1.07,1.47-1.94s-1-1.65-1.5-2.21c-1.3-1.31-2.86-2.34-4.17-3.64-.54-.54-1.9-1.81-1.38-2.67.29-.47,1.12-.62,1.62-.75a9,9,0,0,1,2-.27c.48,0,.51-.75,0-.74Z"/><path class="cls-1" d="M204,46.15a13.59,13.59,0,0,0,2.3,0c.13,0,.27,0,.4-.06a1,1,0,0,0,.4-.19.67.67,0,0,0,.09-1,.63.63,0,0,0-1,.27.53.53,0,0,0,.51.68.54.54,0,0,0,.5-.38h0l-.38.37h0l-.4,0a.51.51,0,0,1-.24-.3l.07-.44h0l.23-.23,0,0,.33-.09h-.06q.18,0,.09,0s-.25,0-.31,0h-.32c-.24,0-.48,0-.73,0q-.7,0-1.41,0a.77.77,0,0,0-.76.73.73.73,0,0,0,.73.72Z"/><path class="cls-1" d="M204,48.58l.14.05-.23-.14a1.24,1.24,0,0,0,.75.24l.54,0c.35,0,.71,0,1.06,0a10.94,10.94,0,0,0,1.15,0c.44,0,1.12-.12,1.13-.71a.66.66,0,0,0-.49-.59,2.14,2.14,0,0,0-.62,0l-1.14,0-1.07,0-.53,0-.31,0a2.7,2.7,0,0,0-.36.09.52.52,0,0,0-.38.48.48.48,0,0,0,.36.48Z"/><path class="cls-1" d="M212.76,40.45c.11,2,.23,3.93.32,5.89,0,1,.1,1.93.14,2.89a7.69,7.69,0,0,0,.37,2.83c.21.46.9.28,1-.14a7.82,7.82,0,0,0-.08-2.81l-.3-2.89c-.2-1.93-.38-3.85-.56-5.78-.05-.58-1-.57-.92,0Z"/><path class="cls-1" d="M214.48,42c.33,1.57.61,3.15.83,4.75.11.79.2,1.59.29,2.39A9.94,9.94,0,0,0,216,51.5c.18.45,1,.57,1.07,0A8.58,8.58,0,0,0,217,49c-.1-.79-.22-1.59-.36-2.37-.27-1.65-.6-3.28-1-4.9-.17-.74-1.32-.42-1.16.31Z"/><path class="cls-1" d="M213.61,41.76c1.67-.77,4.49-1.39,5.69.54a1.89,1.89,0,0,1-.14,2.3,3.39,3.39,0,0,1-1.26.66,12.68,12.68,0,0,1-1.7.49.61.61,0,0,0-.29,1,23.38,23.38,0,0,0,3.61,2.53,20.85,20.85,0,0,0,3.87,2.13c.59.21,1.17-.7.65-1.1a35.26,35.26,0,0,0-3.68-2.27c-1.23-.73-2.42-1.63-3.71-2.25v1c1.15-.6,2.71-.71,3.51-1.85a3,3,0,0,0,0-3.13,3.8,3.8,0,0,0-2.93-1.73,8,8,0,0,0-4,1c-.44.21-.07.84.37.63Z"/><path class="cls-2" d="M28.38,62.37a1.66,1.66,0,0,0,.53-1.47,1.05,1.05,0,0,0-.36-.75,1.58,1.58,0,0,0-.83-.12,1.85,1.85,0,0,0-1.88,2.18,1.66,1.66,0,0,0,1,1.16,1.54,1.54,0,0,0,1.64-.52,2.14,2.14,0,0,0-.13-2.7A1.88,1.88,0,0,0,25.65,60a2.22,2.22,0,0,0-.49,2.84,2.44,2.44,0,0,0,2.75.86,2.33,2.33,0,0,0,1.51-2.6A2.46,2.46,0,0,0,27.14,59a2,2,0,0,0-1.8,2.48,2.3,2.3,0,0,0,2.15,1.82,2.17,2.17,0,0,0,2-1.83A2,2,0,0,0,28.21,59a2.42,2.42,0,0,0-2.55,1,2,2,0,0,0,.13,2.61,2.43,2.43,0,0,0,2.48.42A2.25,2.25,0,0,0,29.85,61a2.45,2.45,0,0,0-1.74-2.12,2.39,2.39,0,0,0-2.62.62,2.56,2.56,0,0,0-.19,2.81,2.52,2.52,0,0,0,2.38,1.46,2.9,2.9,0,0,0,2.36-2,2.82,2.82,0,0,0,.11-1.55,1.6,1.6,0,0,0-.38-.81,1.76,1.76,0,0,0-.9-.4,2.4,2.4,0,0,0-2.85,2,2.31,2.31,0,0,0,2.14,2.64A1.9,1.9,0,0,0,29.91,61a1.67,1.67,0,0,0-3,.26,1,1,0,0,0,.18,1.1,2.29,2.29,0,0,0,.92.58,2,2,0,0,0,1.09.1,1.29,1.29,0,0,0,.77-.87,1.7,1.7,0,0,0-2-2.2,1.83,1.83,0,0,0-1.21,1.32A1.56,1.56,0,0,0,27.38,63a1.94,1.94,0,0,0,1.71.13,2.21,2.21,0,0,0,1.34-1.48,3.28,3.28,0,0,0-.08-2,2.54,2.54,0,0,0-1.21-1.53c-1.34-.61-2.66.51-3.15,1.71a3.57,3.57,0,0,0,.22,3A2.84,2.84,0,0,0,27.43,64a1.73,1.73,0,0,0,2.09-.56,2.86,2.86,0,0,0,.2-3.38,2.58,2.58,0,0,0-3.06-.91,2.35,2.35,0,0,0,1.08,4.54,2.38,2.38,0,0,0,1.81-2.66,1.68,1.68,0,0,0-1.23-1.34,1.21,1.21,0,0,0-1.41,1.41c.16.75,1.33.43,1.17-.31,0,.1,0,.11,0,.17l0,0c.07,0,.08-.05,0,0s0,0,0,0-.18-.09,0,0,0-.06.07.06,0,0,0,0l.1.18c-.06-.13,0,.09,0,.12s0,.12,0,0c0,.06,0,.12,0,.18s0-.09,0,.07l0,.11s-.08.19,0,.07l-.09.16a.36.36,0,0,1-.07.1c.07-.1-.07.08-.09.1l-.13.13s.1-.06,0,0l-.16.09c-.14.09.11,0-.06,0l-.11,0c-.15.06.09,0-.07,0h-.18c.1,0,0,0-.08,0a1,1,0,0,1-.36-.2c-.05,0-.08-.09-.13-.13h0a1.86,1.86,0,0,1-.19-.33c-.05-.1,0,.14,0,0a1.54,1.54,0,0,0-.05-.17l0-.14c0-.11,0,.14,0,0v-.18s0-.18,0-.09l0-.09s.1-.23,0-.12.17-.26.08-.16l.21-.2c.13-.12-.12,0,0,0l.15-.09.08,0,.14,0s.31-.06.17,0h.36l.17,0,.17,0c-.13,0,0,0,.06,0l.15.09c.16.08-.08-.09.05,0a2.39,2.39,0,0,1,.23.22c-.1-.11,0,.05,0,.06l.07.11.08.17c-.06-.14,0,.1,0,.13l0,.12s0,.22,0,.08c0,.1,0,.21,0,.32s0,.12,0,.19,0-.12,0,.07a2.29,2.29,0,0,1-.12.37c.05-.12,0,0,0,0l-.08.13c-.1.15.09-.07-.06.07l-.14.13c-.08.07.1,0-.07,0l-.07,0c.06,0,0,0,0,0s.12,0,0,0a.56.56,0,0,1-.17-.07l-.19-.12c.12.08,0,0,0,0a2.39,2.39,0,0,1-.23-.22l0-.06-.05-.07c-.06-.1-.11-.2-.16-.3s-.08-.2,0-.05a1,1,0,0,1-.05-.16,2.86,2.86,0,0,1-.07-.28l0-.17c0,.12,0,0,0,0a2.84,2.84,0,0,1,0-.41,1.93,1.93,0,0,1,.32-1l0,0,.07-.09a1.88,1.88,0,0,1,.25-.24s-.13.08,0,0l.21-.12a1,1,0,0,1,.27-.08c.13,0,0,0,.13,0s0,0,.06,0,.15.09.05,0a.67.67,0,0,1,.15.14s.13.16.08.09.06.11.05.1a1.14,1.14,0,0,1,.1.19v0a1,1,0,0,1,0,.1c0,.12.07.25.1.38l0,.19c0,.13,0-.16,0,.07s0,.27,0,.41,0,.18,0,.07c0,.09,0,.19-.08.28,0-.1,0,0,0,0s-.18.26-.08.15l-.12.12c.08-.08,0,0,0,0s-.21.09,0,0l-.17.05s-.21,0-.05,0c0,0-.28,0-.11,0l-.11,0c-.08,0-.08,0,0,0l-.1-.05c.14.07,0,0,0,0s0,0,0,0c.09.12,0,0,0,0s0,.12,0,0-.05.12,0,0l0-.1c0,.08,0,.09,0,0l.06-.1c0-.07,0-.06,0,0l.07-.08c.1-.12-.08,0,0,0l.06,0c.08,0,.07,0,0,0,.17,0-.16,0,0,0s-.15,0,0,0-.13-.07,0,0-.12-.08.05.05.07.11,0,0l.1.18c-.08-.14,0-.07,0,0s0,.24,0,.05a.75.75,0,0,1,0,.15c0,.16,0-.13,0,0s.08-.13,0,0,0,.06,0,0l-.07.07.53-.22h-.14c-.2,0,0,0-.07,0a.35.35,0,0,1-.14,0s-.17,0-.07,0a1.23,1.23,0,0,1-.25-.14l-.05,0-.13-.13.21.52a.41.41,0,0,0,0-.11s0,.14,0,.06,0,.09,0,0,.06-.06,0,0l0,0-.06,0,.11-.06c.15-.09-.08,0,0,0s.12,0,0,0,.22,0,.12,0,0,0,0,0-.12,0,0,0l0,0h0s0,.12,0,0a.43.43,0,0,0,0,.07l0-.05,0,.11s0,.1,0,0,0,.06,0,.08a.28.28,0,0,1,0,.09c0,.1,0-.11,0,0s-.07.22,0,.08a1.09,1.09,0,0,1-.08.15c-.06.11,0,0,0,0l-.08.09c-.08.09,0,0,0,0l-.07,0c-.09,0,.1,0,0,0l-.1,0s-.13,0,0,0h-.19c-.19,0,.05,0-.06,0l-.22-.06c.1,0-.09-.06-.11-.07l-.09,0c.08,0,0,0,0,0s-.18-.19-.12-.11a.82.82,0,0,1-.12-.2l-.05-.09s0,.08,0,0a.92.92,0,0,1-.05-.37,1.07,1.07,0,0,1,.23-.68l0,0,.12-.11h0l.14-.09.09,0c-.09,0,0,0,.05,0l.27-.06h.26c.2,0,0,0,.07,0l.22.05c-.05,0,.05,0,.05,0a.91.91,0,0,1,.17.09l-.23-.23s0,.11.08.16h0a1.38,1.38,0,0,1,.08.27s0,.07,0,.11c0-.13,0,0,0,.07a2.72,2.72,0,0,1,0,.28c0,.17,0-.11,0,.07l0,.11a2.76,2.76,0,0,1-.08.27c0,.11,0,0,0,0l-.08.15-.15.25c-.09.15.08-.08,0,0l-.08.09a1.8,1.8,0,0,1-.2.19c-.09.09,0,0,0,0l-.14.09a1.19,1.19,0,0,1-.25.13c.13-.05-.12,0-.16,0l-.09,0h-.09a.48.48,0,0,0-.12,0h-.05c.1,0,.06,0-.11,0,0,0,.1,0,0,0l-.15,0s-.17-.07-.06,0l-.09,0s-.22-.14-.16-.09a1.07,1.07,0,0,1-.19-.18s-.17-.2-.12-.13a1.85,1.85,0,0,1-.38-.9c0-.17,0,.1,0-.07V61a2.44,2.44,0,0,1,0-.27c0,.08,0-.13,0-.16l0-.1c0-.12,0,0,0-.06a1.71,1.71,0,0,1,.13-.23c-.05.08,0,0,0,0l.09-.09c.07-.08,0,0,0,0l.13-.09.09-.05c.11-.06-.06,0,0,0l.25-.06c.15,0-.07,0,0,0h.13a1.15,1.15,0,0,1,.26,0l.17,0A1.34,1.34,0,0,1,28,60a1.64,1.64,0,0,1,.22.14s.09.06,0,0l.12.1a1,1,0,0,1,.17.18c.11.12,0,0,0,0l.07.11.05.09s.07.16,0,.05a2.1,2.1,0,0,1,.06.24c0,.16,0-.1,0,.06v.11s0,.16,0,.08,0,.08,0,.08-.09.24,0,.13c0,.07-.08.14-.11.21s.07-.07,0,0l-.06.07-.18.16c.1-.08-.09,0-.12.07l-.22.11c.12-.05-.1,0-.14,0l-.23.06c-.11,0,0,0,0,0l-.14,0h-.25s-.16,0-.05,0h-.09l-.23-.06c.1,0-.09-.05-.12-.07L26.62,62c-.1-.06,0,0,0,0s-.17-.18-.11-.1a2.39,2.39,0,0,1-.13-.21,1.21,1.21,0,0,1-.06-.34.76.76,0,0,1,0-.15s0,.08,0,0a1.82,1.82,0,0,1,.07-.25c0,.08,0,0,0,0a.61.61,0,0,1,.07-.14l.06-.09s.1-.13,0-.06l.18-.19.1-.09,0,0a1.64,1.64,0,0,1,.22-.14l.1,0c.11-.05-.05,0,.06,0a.83.83,0,0,1,.4-.07,1,1,0,0,1,.32.09s.14.1.07,0l.08.07.09.09c.06.07-.07-.1,0,0l.12.21s0-.09,0,0,0,.1,0,.15a1.06,1.06,0,0,1,0,.41s0,.07,0,.11,0,.06,0,.06a1.82,1.82,0,0,1-.07.25c-.06.15,0-.09,0,.06l-.05.09-.07.11s-.08.11,0,0A.77.77,0,0,1,28,62l-.07.07c.1-.08,0,0,0,0l-.14.07h0l-.12,0s-.13,0,0,0h-.11s-.18,0-.08,0a1.11,1.11,0,0,1-.26-.07c.09,0-.07,0-.07,0L27,62c-.14-.09,0,0,0,0l-.11-.09a1.07,1.07,0,0,1-.28-.36,1.12,1.12,0,0,1-.17-.44.62.62,0,0,1,0-.19v-.11s0-.16,0-.07a.67.67,0,0,1,.18-.42A1,1,0,0,1,27,60a1.08,1.08,0,0,1,1,.4,1.72,1.72,0,0,1,.4.93,1.47,1.47,0,0,1-.18.89.51.51,0,0,1-.13.16l-.1.1c-.08.06.11-.07,0,0a1.08,1.08,0,0,1-.42.2,1.52,1.52,0,0,1-.94,0,1.11,1.11,0,0,1-.64-.57,1.21,1.21,0,0,1,0-.93,1.33,1.33,0,0,1,.66-.68,1,1,0,0,1,1.27.7,1.21,1.21,0,0,1,.08.44s0,.07,0,.11,0-.07,0,.08a.29.29,0,0,1,0,.09s-.05.15,0,.08c-.1.24-.42.54-.72.46a.79.79,0,0,1-.49-.67.81.81,0,0,1,.44-.78,1.55,1.55,0,0,1,1.13-.18L28,60.67a.89.89,0,0,1-.14,1.22c-.35.3.15.77.5.48Z"/><path class="cls-2" d="M66.08,61.54a1.28,1.28,0,0,0-.33-1.37,1,1,0,0,0-.68-.31,1.13,1.13,0,0,0-.61.22,1.64,1.64,0,0,0-.36,2.18,1.44,1.44,0,0,0,1.25.57,2.08,2.08,0,0,0,.36-.06,1.82,1.82,0,0,0,1-.71,1.63,1.63,0,0,0-.43-2.36,2.17,2.17,0,0,0-2.3,0,1.9,1.9,0,0,0-.5,2.53,2.12,2.12,0,0,0,2.4,1.08,2.46,2.46,0,0,0,1.67-2.17,2.28,2.28,0,0,0-1.41-2.25,2.77,2.77,0,0,0-2.85.39,2,2,0,0,0-.74,1.52,2.49,2.49,0,0,0,.85,1.61,3.06,3.06,0,0,0,2.9,1,2,2,0,0,0,1.14-2.78,2.15,2.15,0,0,0-2.84-.84,2.26,2.26,0,0,0-1.14,2.12,2.14,2.14,0,0,0,1.47,2,2.36,2.36,0,0,0,2.47-1.07,2.15,2.15,0,0,0,0-2.61,2.54,2.54,0,0,0-4.17.93c-.6,2,1.93,3.71,3.66,2.76a2.69,2.69,0,0,0,0-4.51,2,2,0,0,0-2.92.82,2.17,2.17,0,0,0,.6,2.28A1.79,1.79,0,0,0,67,62.37a2.31,2.31,0,0,0,.36-2.52,2.06,2.06,0,0,0-2.46-.9,2.33,2.33,0,0,0-1.7,2.19,2.66,2.66,0,0,0,1.89,2.39A2.08,2.08,0,0,0,67.82,62a2.53,2.53,0,0,0-2.09-2.53,2,2,0,0,0-2.34,1.48,2.16,2.16,0,0,0,.89,2.35,2.1,2.1,0,0,0,2.77-.8,1.67,1.67,0,0,0,0-1.66,2,2,0,0,0-1.26-.91,1.63,1.63,0,0,0-1.67.63A1.89,1.89,0,0,0,63.86,62a1.72,1.72,0,0,0,.91,1.2,2,2,0,0,0,2.76-1.4A2.17,2.17,0,0,0,67,60a1.77,1.77,0,0,0-1.69-.66,1.37,1.37,0,0,0-.82.67,1.44,1.44,0,0,0-.12,1,.7.7,0,0,0,.87.49.75.75,0,0,0,.53-.87s0,.2,0,.14-.1.13,0,0c-.11.14-.06.06,0,0s-.13.08,0,0-.2,0,0,0,0,0-.2,0c.17,0-.1-.06,0,0l.14.08s.16.06,0,0l.09.07a1.19,1.19,0,0,1,.19.2s-.1-.15,0,0l.06.1,0,0c0,.08,0,.06,0,0s0,.13.05.15a.36.36,0,0,0,0,.11c0-.05,0-.13,0,0s0,.12,0,.16,0-.16,0,0l0,.1c0,.14.06-.08,0,0s0,.11-.07.11l0-.06,0,.06-.08.07c-.11.12.11,0,0,0s-.18.13-.2.11.18,0,0,0-.11,0-.12,0h-.11c.12.06.06,0,0,0s.13.09,0,0l-.07,0s.12.12,0,0-.07-.08-.08-.08.1.15,0,0l-.06-.1,0-.06,0,.07a1.94,1.94,0,0,1,0-.2s0,.17,0,0v-.11c0-.05,0-.11,0,0,0-.11,0,0,0,0l.07-.17,0,.05,0,0c0-.07,0-.05,0,0l.06-.07c.08-.09,0,0-.06,0l0,0-.06,0,.08,0,.09,0c-.06.06-.17,0,0,0s0,0,0,0l.13,0,.09,0c-.06,0-.14-.08,0,0l.1.06c.12.06,0,0,0,0s.17.16.17.16-.11-.16,0,0l.07.12c.09.15-.1-.25,0,0s0-.13,0,0,0,0,0,0v.12c0,.07,0-.15,0,0a.36.36,0,0,1,0,.1c0,.13,0,0,0,0s-.08.12-.09.14.12-.11,0,0l-.06.07-.08.06.08-.05-.09.05-.08,0,.08,0-.17.07c.08-.08.09,0,0,0l-.17,0c.14,0,0,0-.07,0s.08,0,0,0l-.12,0c-.11,0,0,0,0,0l-.1,0-.09,0s.13.1,0,0-.16-.16-.09-.08,0-.07-.06-.1,0-.13,0,0,0,0,0,0a1.6,1.6,0,0,1,0-.21v0s0,0,0,0v0a.19.19,0,0,1,0-.08,1.15,1.15,0,0,1,0-.19c0-.14,0,0,0,0s0-.09,0-.09a1.42,1.42,0,0,0,.07-.22c0-.08-.08.15,0,0l0-.07a.25.25,0,0,1,0-.07c.06-.1.06,0,0,0a1.31,1.31,0,0,0,.11-.12s.11-.11,0,0,0,0,.07,0l.08,0s-.14,0,0,0l.13,0c.1,0-.15,0,0,0h.2l.08,0,.16,0h0l.13.06L66,61c.14.1,0,0,0,0a1,1,0,0,0,.11.1.6.6,0,0,1,.08.08s.13.16,0,0a2,2,0,0,1,.17.27l.06.12c0-.09,0,0,0,0a1.8,1.8,0,0,1,0,.19v0a.57.57,0,0,1,0,.13c0-.1,0,.06,0,.08.05-.13,0,0,0,0s-.08.07,0,0l-.08.08c-.1.12.07,0,0,0l-.22.13c.12-.06,0,0,0,0l-.17,0c-.09,0,.14,0,0,0h-.25c-.1,0,.13,0,0,0a1.14,1.14,0,0,1-.25-.06s-.13-.06,0,0l-.15-.07-.09-.06s-.15-.09-.08,0-.07-.06-.06-.06L64.9,62l-.19-.21s.07.1,0,0a1.1,1.1,0,0,1-.09-.14.75.75,0,0,1-.07-.12s0-.15,0,0a1.66,1.66,0,0,1-.06-.21s0-.2,0,0v-.11a.4.4,0,0,1,0-.11s0-.17,0-.06a2,2,0,0,1,.06-.23c0,.12,0,.07,0,0l.06-.1a.33.33,0,0,1,.06-.1c.06-.1,0,0,0,0l.17-.18s.07-.11,0,0l.08,0,.2-.12.08,0c-.09,0-.09,0,0,0l.25-.07h.09c-.16,0,0,0,0,0a1.33,1.33,0,0,1,.2,0c.12,0,0,0,0,0l.13,0,.09,0c.14,0-.11-.06,0,0l.2.11c-.11-.08,0,0,0,.05s.1.12,0,0,0,0,0,0l0,.07c.07.14,0,0,0,0a.76.76,0,0,0,.06.2s0,.08,0,.08,0-.15,0,0a1.2,1.2,0,0,1,0,.19V61h0s0,0,0,.06,0,.13,0,.19l0,0h0l0,0a.25.25,0,0,1,0,.07l-.09.17c-.06.09,0,0,0,0s-.07.07-.09.09-.17.16-.08.08-.06,0-.1,0,0,0,.06,0-.09,0-.12,0l-.08,0s.15,0,0,0H65.6s.14,0,0,0l-.07,0c-.11,0,.06,0,0,0l-.16-.09s.12.11,0,0l-.09-.08-.06-.07c-.09-.09,0,0,0,0s-.08-.13-.09-.15a.4.4,0,0,1-.08-.16c0,.12,0,.11,0,0s0-.07,0-.11a.57.57,0,0,1,0-.18c0,.1,0,.13,0,0s0-.07,0-.1,0-.12,0-.15l0,.1,0-.08,0-.1c0-.1-.07.13,0,0s0,0,0,0,0-.06,0-.06l0-.05c.08-.09-.12.06,0,0l.09,0c-.1.07,0,0,.07,0s.06,0,0,0h.17s.17,0,.06,0l.13,0,.16,0c.11,0-.11-.06,0,0l.19.1,0,0h0l0,0,.06.06a.86.86,0,0,1,.14.13s0,.07.07.08-.09-.13,0,0l.12.2,0,.1c0,.08,0,0,0-.05s.06.17.07.21a1,1,0,0,1,0,.17.79.79,0,0,1,0,.13s0-.16,0,0a2.67,2.67,0,0,1,0,.4c0,.13,0,0,0,0l0,.1a1.55,1.55,0,0,1-.07.23l0,.08s.07-.14,0,0l-.1.17s-.09.11,0,0,0,0,0,0-.16.12-.16.15.14-.09,0,0l-.1.06-.08.05c-.13.07.11,0,0,0l-.2.05c-.13,0,0,0,0,0a.42.42,0,0,1-.16,0h-.21c.18,0,0,0-.1,0l-.18,0c-.15-.05.08,0,0,0l-.15-.07-.17-.1,0,0c.09.06,0,0,0,0a1.07,1.07,0,0,1-.16-.14l-.08-.09s-.1-.15,0,0a1.74,1.74,0,0,1-.11-.18l-.06-.1c0-.07,0,0,0,0a.71.71,0,0,1-.06-.22s0-.06,0-.09c0,.16,0,0,0,0s0-.29,0-.12a1.06,1.06,0,0,1,0-.19.63.63,0,0,0,0-.09s-.08.14,0,0l.12-.19c0-.08-.12.12,0,0l0-.05.15-.14c.06-.06,0,0,0,0l.06,0L65,61l.07,0c0,.06-.12,0,0,0l.2-.06.19-.05c.12,0,0,0,0,0l.13,0h.24l.2,0,.08,0c.13,0,0,0,0,0l.18.1a.16.16,0,0,1,.07,0c0-.05-.09-.08,0,0l.15.14.05.06q-.09-.12,0,0l0,0,.06.12s0,.1,0,0l.06.2s0,.14,0,0v.2s0,.17,0,.08,0,0,0,.05l0,.09a.35.35,0,0,0,0,.11c0,.08.06-.13,0,0l-.1.18-.06.1s-.12.14,0,0a4.11,4.11,0,0,1-.29.3c.13-.12-.06,0-.1,0l-.2.11c.17-.08,0,0-.09,0h-.09c.12,0,.07,0,0,0h-.22c.12,0,.05,0,0,0l-.13,0c-.14,0,.09,0,0,0l-.08,0-.07,0c-.11-.06.06.07,0,0l-.13-.12,0,0c.06.07,0,0,0-.06l-.09-.16s0-.14,0,0,0,0,0,0,0-.13,0-.19a.36.36,0,0,0,0-.1c0-.12,0,.11,0,0a2.42,2.42,0,0,1,0-.38c0,.16,0,0,0-.1s0-.13.07-.2c-.05.16,0,0,0-.08A1,1,0,0,1,64.9,61c-.1.14,0,0,.06-.06l.06-.06c.1-.09-.1.06,0,0l.18-.1c-.14.07.08,0,.13,0s.14,0,0,0h.24s0,0,0,0l.08,0a2.1,2.1,0,0,1,.24.06c-.11,0,0,0,0,0l.12.07h0l.09.07.11.12c-.07-.08,0,0,0,0a.41.41,0,0,0,0,.09c.07.14,0-.06,0,0a2,2,0,0,1,.06.23c0-.11,0,0,0,0v.16s0,.1,0,0a.83.83,0,0,1,0,.15l0,.1c0-.12,0,0,0,0l-.06.09c.06-.1,0,0,0,0l-.1.09c-.07.07.12-.06,0,0l-.1.06c-.12.07.09,0,0,0a.53.53,0,0,0-.12,0c-.07,0,.12,0,0,0H65.6c-.09,0,.14,0,0,0l-.11,0-.13,0-.08,0s0,0,0,0a3.29,3.29,0,0,1-.49-.26s-.2-.13-.12-.07c-.09-.08-.19-.15-.27-.23a3.3,3.3,0,0,1-.37-.38,1.42,1.42,0,0,1-.25-.39.45.45,0,0,1,0-.36c0-.17,0,0,0,0a1,1,0,0,1,.08-.14s.06-.09,0,0l.13-.13.11-.11c.08-.07-.1.06,0,0l.19-.11s.14-.06,0,0l.09,0,.27-.06s.14,0,0,0h.44l.29.07.09,0c-.1,0,0,0,0,0l.22.11.08.05c.13.08,0-.05,0,0l.19.18.07.08h0l.11.19c.07.12,0-.07,0,0s0,.08,0,.11,0,.07,0,.1,0,.14,0,0a1.93,1.93,0,0,1,0,.24s0,.07,0,.1,0-.08,0,0a1.6,1.6,0,0,1,0,.21l0,.1,0,.09c0-.06,0-.07,0,0s-.06.12-.1.19-.16.23-.07.11-.18.19-.06.07l-.06.07-.09.08c-.11.11.06,0,0,0l-.16.1s-.14.06-.05,0-.06,0-.06,0l-.09,0c-.14,0,.07,0,0,0h-.17l-.21,0h0l-.09,0s-.21-.14-.12-.07l-.19-.16-.09-.11a.91.91,0,0,1-.11-.16s-.11-.23-.07-.12a1.36,1.36,0,0,1-.07-.25.5.5,0,0,1,0-.12s0,.09,0,0,0-.25,0-.14a1,1,0,0,1,0-.18c0-.14,0,.05,0,0a1,1,0,0,1,.08-.14l0,0,.06-.06a.46.46,0,0,0,.07-.07s-.11.06,0,0l.15-.09c.07,0-.12,0,0,0l.12,0,.07,0c.13,0-.07,0,0,0h.18s.24,0,.11,0l.2,0s.23.08.11,0l.14.07s.19.14.09.05l.15.14c.08.07,0-.09,0,0a.43.43,0,0,1,0,.07l0,.06c.07.11,0-.07,0,0s0,.12,0,.18,0,0,0,0v.07s0,0,0,0-.07.22,0,.14a1.48,1.48,0,0,1-.13.21s.06-.06,0,0l-.09.09,0,0-.13.09-.08,0s-.14.06-.07,0-.08,0-.08,0l-.09,0h-.09a.49.49,0,0,1-.16,0l-.07,0c.1.07,0,0,0,0s-.06-.07,0,0l0-.06a.47.47,0,0,1,0-.1s0,.09,0,0a1.05,1.05,0,0,1,0-.19c0,.09,0-.09,0-.12s0-.05,0-.08,0,0,0,0a1.21,1.21,0,0,1,0-.18c0-.11,0,0,0,0a.31.31,0,0,1,0-.1s.07-.09,0,0l0,0,0,0,0,0s.08,0,0,0l.1,0c.06,0-.1,0-.1,0l.09.05a.75.75,0,0,1,.15.2.41.41,0,0,1,0,.36.4.4,0,0,0,.29.51.45.45,0,0,0,.54-.3Z"/><path class="cls-2" d="M102.66,62a1.12,1.12,0,0,0,1.53-.07,1.32,1.32,0,0,0,.28-1.61c-.55-1.15-2.42-1.83-3.43-.93a1.91,1.91,0,0,0,.26,2.91,2.4,2.4,0,0,0,3.27-.91,3.1,3.1,0,0,0,.35-2,1.81,1.81,0,0,0-1.13-1.71,2.06,2.06,0,0,0-1.88.77,3.87,3.87,0,0,0-1,1.9,2.83,2.83,0,0,0,1.81,3.29,2.74,2.74,0,0,0,3.12-3.38,2.77,2.77,0,0,0-1.1-1.44,3.38,3.38,0,0,0-3.33-.2,2.64,2.64,0,0,0-1.29,3.56,3.2,3.2,0,0,0,3.53,1.32l.18-.06.15-.06c.19-.08.07,0,0,0a3.16,3.16,0,0,0,.52-.26,2.47,2.47,0,0,0,.75-.76,2.73,2.73,0,0,0,.32-1.79,2.14,2.14,0,0,0-2.75-1.81,2.45,2.45,0,0,0-1.48,1.39,1.85,1.85,0,0,0,.37,1.89,2.55,2.55,0,0,0,1.57.79,3.6,3.6,0,0,0,2.08-.23,1.56,1.56,0,0,0,.72-2,2.23,2.23,0,0,0-1.77-1.36,4.79,4.79,0,0,0-2-.06,1.74,1.74,0,0,0-1.38,1.6,2.42,2.42,0,0,0,1,1.84,3,3,0,0,0,2.06.8,1.74,1.74,0,0,0,1.58-1.59,2.15,2.15,0,0,0-.72-1.8,4.29,4.29,0,0,0-1.92-.89.81.81,0,0,0-.9.38,3.06,3.06,0,0,0,1.78,4.26.79.79,0,0,0,.75-.21,2.56,2.56,0,0,0,0-3.41,2.41,2.41,0,0,0-1.66-1,1.27,1.27,0,0,0-1.11.4,1.73,1.73,0,0,0-.45.93,2.16,2.16,0,0,0,2.18,2.5,2.58,2.58,0,0,0,2.11-3.1A2.66,2.66,0,0,0,102,58.26a2.4,2.4,0,0,0-.73,3.7,2.26,2.26,0,0,0,3.53-.49,2.09,2.09,0,0,0-.16-2,1.88,1.88,0,0,0-1.25-.86,1,1,0,0,0-.9.28,2.54,2.54,0,0,0-.2,3.63,2.17,2.17,0,0,0,3.37-1,1.6,1.6,0,0,0,0-1,.76.76,0,0,0-.72-.55,3.58,3.58,0,0,0-2.47.92.71.71,0,0,0,0,1,.76.76,0,0,0,1,0c-.09.08.08,0,.1,0l.21-.12.09,0,.22-.08.23-.06s.23,0,.1,0c.15,0,.31,0,.47,0l-.73-.55c0,.05,0,.1,0,.15s0-.12,0,0,0,.11,0,0l0,.09c0-.09,0-.1,0-.06a.46.46,0,0,0-.08.13l0,0-.05.06-.11.11,0,0-.07.05-.14.08c-.16.09.09,0,0,0l-.16.05c-.14,0,.13,0,0,0h-.16c.11,0,.06,0,0,0s.1.07,0,0l-.14-.08c.14.09,0,0,0,0s-.1-.16,0,0l-.09-.14s-.05-.18,0,0a1.87,1.87,0,0,1-.08-.32c0,.17,0,0,0,0a.91.91,0,0,1,0-.17c0-.08,0-.16,0,0a.85.85,0,0,1,0-.17,1.09,1.09,0,0,0,0-.17c0,.17,0,0,0,0a1.63,1.63,0,0,1,.11-.17.18.18,0,0,1,0-.07l0,0s.08-.08.12-.12-.1.06,0,0l-.59.08.16,0c.13,0-.13-.06,0,0l.07,0s-.12-.11-.06,0l.13.12c.1.1-.07-.12,0,0s.07.11.1.16l0,.07s0-.16,0-.07,0,.12,0,.18,0,.06,0,.08,0-.07,0-.07a1.21,1.21,0,0,1,0,.19v.08s0,.08,0,0,0,.07,0,.11.07-.13,0-.06l0,.07s-.08.09,0,0l-.06.06-.06.06.06,0a1.51,1.51,0,0,0-.17.1c.1-.07.08,0,0,0l-.11,0s-.11,0,0,0h-.19c.06,0,.11,0,0,0l-.16,0-.11,0s.11,0,0,0l-.15-.08-.07,0s.08.07,0,0l-.11-.12,0,0,0-.08a.25.25,0,0,0,0-.07s0,.13,0,0,0-.13,0-.19,0,.1,0,0a1.48,1.48,0,0,0,0-.21c0-.08,0,0,0,0s0-.06,0-.08l.06-.2c0-.14,0,.08,0,0a1.08,1.08,0,0,0,.11-.18c0-.07,0,0,0,.05l.06-.07s.12-.15.15-.14-.15.08-.06,0l.08-.05s.22-.11.11-.07.07,0,.1,0l.1,0c-.06,0-.13,0,0,0h.22c.09,0,0,0,0,0h.09l.19.05c.07,0,.21.09.07,0a1.24,1.24,0,0,1,.2.1s.19.12.11.06.06.06.08.08l.16.16s-.08-.12,0,0a.61.61,0,0,0,.07.1c0,.06.05.12.08.17s0-.07,0-.07,0,.07,0,.08a1.8,1.8,0,0,1,0,.19c0,.14,0-.14,0,0v.17s0,.2,0,.1,0,.09,0,.12-.07.22,0,.12,0,.06,0,.09l-.09.15,0,.06s.08-.1,0,0l-.14.14-.06,0s.14-.08,0,0a.5.5,0,0,0-.14.08c-.07.05.08,0,.07,0s-.08,0-.1,0-.14,0,0,0h-.19c-.07,0,.12,0,.05,0h-.07c-.12,0,0,0,0,0l-.17-.09c-.1-.05.11.1,0,0l-.12-.12c-.09-.09.08.13,0,0l-.1-.17c-.08-.16,0,.1,0,0l0-.16s0-.05,0-.08,0,.13,0,0v-.17c0-.12,0,.16,0,0s-.07.09,0,0l0-.08c0-.11,0,.05,0,.05a.12.12,0,0,0,0-.05l0,0-.41.12s.25,0,.25,0-.18,0-.06,0l.13,0,.11,0s-.16-.07,0,0l.19.11c.14.08,0,0,0,0l.09.08c.06,0,.11.11.16.16s-.07-.11,0,0l.06.08a2.53,2.53,0,0,1,.13.22.73.73,0,0,0,0,.09c0,.09-.06-.16,0,0a1.41,1.41,0,0,1,.06.22,1,1,0,0,1,.05.22s0-.17,0,0v.12s0,.07,0,.1,0-.1,0,0a1.66,1.66,0,0,0-.06.21c0,.14.06-.08,0,0a.36.36,0,0,0-.07.1l0,.09s.11-.14,0,0l.74-.2-.11,0h0l-.21-.11s-.16-.13,0,0l-.17-.16a1.22,1.22,0,0,1-.15-.17c.08.1,0,0,0,0l-.12-.21s-.1-.23-.06-.12,0-.11,0-.13l-.06-.23s0-.22,0,0c0-.08,0-.16,0-.24a1.79,1.79,0,0,1,0-.23c0,.13,0,0,0,0s.09-.29,0-.1a2.12,2.12,0,0,1,.11-.21l-.9.39.66.23c.13.05-.16-.08.05,0l.13.06a2.5,2.5,0,0,1,.35.21c.1.07-.12-.13,0,0l.11.1c.15.14,0-.09,0,0l.08.13s.05.14,0,0a.36.36,0,0,1,0,.11,1.36,1.36,0,0,1,0,.17c0-.12,0-.05,0,0a.45.45,0,0,1,0,.11c0-.16,0-.08,0,0s-.1.16,0,0,0,.09-.05.09.11-.11,0,0c.17-.13,0,0,0,0l0,0c.09,0,.09,0,0,0h-.08c.11,0,0,0,0,0l-.22-.06s-.13,0,0,0l-.13-.07a3.3,3.3,0,0,1-.32-.18c-.12-.08,0,0,0,0l-.17-.14a3,3,0,0,1-.24-.26c.09.11-.07-.11-.1-.15s-.07-.17,0,0l0-.12c-.06-.18,0,.09,0,0v-.09c0,.08,0,.1,0,0s.09-.06,0,0v0l0,0s.15-.1.05-.05l.07,0s-.16.05,0,0l.12,0c.19-.06-.15,0,0,0h.2a5.85,5.85,0,0,1,.59,0c.15,0,0,0,0,0l.18,0a2.7,2.7,0,0,1,.41.08l.14,0c.22.07-.06,0,0,0l.17.08c.13.08,0,0,0,0s.16.13.07.05,0,.06,0,.08l.06.11c-.08-.16,0,0,0,0s0-.09,0,0,.06-.16,0,0,0,.13,0,0c0,.13,0,0,0,0s-.06,0-.09.05.12,0,0,0l-.18,0h-.08c-.2,0-.4,0-.6,0h0l-.12,0-.36-.09s-.12-.06,0,0l-.11,0-.15-.08c-.05,0-.08-.09,0,0s-.06-.05-.08-.08-.14-.14-.06-.05,0,0,0-.06-.07-.19,0,0l0-.11c-.06-.14,0,.08,0,0a.29.29,0,0,0,0-.13c0,.13,0,.08,0,0a.33.33,0,0,0,0-.13c0-.1-.09.13,0,0l.06-.09c.08-.15-.1.08,0,0l.11-.1,0,0c.07-.06.06-.06,0,0s.17-.09.22-.14-.17.05,0,0l.11,0,.11,0c-.19,0,0,0,.06,0s.16,0,0,0l.11,0c.12,0,0,0,0,0l.15.08s.09.09,0,0a.27.27,0,0,1,.08.07l.1.09,0,0,.06.09.11.19c-.09-.16,0-.06,0,0s0,.09,0,.14,0,.27,0,.18,0,.06,0,.07v.17s0,.08,0,.11c0-.17,0,0,0,0s0,.16-.08.24c.07-.18,0,.08-.07.12s-.07.14,0,0c0,.07-.25.28-.11.15l-.12.11s-.14.11,0,0a1.94,1.94,0,0,0-.24.15c-.09.06.15,0,0,0l-.12,0-.13,0-.12,0c.07,0,.07,0,0,0l-.29,0h-.13c-.2,0,.12,0-.08,0l-.25-.05-.16,0s0,0,0,0l-.12,0a1.9,1.9,0,0,1-.43-.27l-.1-.1-.08-.09-.07-.09a1.14,1.14,0,0,1-.1-.19c0,.11,0,0,0,0a.85.85,0,0,1,0-.17c0-.11,0,.15,0-.05v-.14c0-.21,0,.06,0-.06a1,1,0,0,1,.05-.16.5.5,0,0,1,0-.13c0,.11,0-.08,0-.09l.09-.15,0-.05a2.39,2.39,0,0,1,.22-.23s.15-.11,0,0l.12-.07.28-.16c.09-.06-.16.05,0,0l.11,0,.28-.07h.58l.28.06.11,0s.18.06.08,0,.08,0,.08,0l.15.08a1.43,1.43,0,0,1,.59.58.75.75,0,0,0,.07.12c0,.1,0-.15,0,0l.06.23c0,.18,0-.11,0,.07v.24c0,.14,0-.07,0,.06s0,.19-.08.29,0,0,0,0a.83.83,0,0,0-.07.13l-.15.23c-.1.16.06-.05,0,0l-.12.13s-.22.2-.1.11a1.65,1.65,0,0,1-.25.15l-.11,0h0l-.14,0c-.12,0,.09,0,0,0h-.21l-.09,0-.13,0c.09,0,0,0-.06,0l-.14-.08s-.11-.06,0,0a.64.64,0,0,1-.15-.13.92.92,0,0,1-.3-.4.51.51,0,0,1-.09-.18v0c0-.11-.06-.21-.09-.32s0,.08,0-.11a.75.75,0,0,1,0-.15,1.42,1.42,0,0,1,0-.3,2.4,2.4,0,0,1,.18-.61,3.6,3.6,0,0,1,.39-.62l.17-.2.13-.13.09-.07a2.38,2.38,0,0,1,.23-.14l.15,0c-.07,0,0,0,0,0s0,0,0,0a.85.85,0,0,1,.1.19,2,2,0,0,1-.41,2.19,1.39,1.39,0,0,1-1,.28,1.43,1.43,0,0,1-.38-.13.75.75,0,0,1-.28-.28,1.07,1.07,0,0,1-.08-.77.82.82,0,0,1,.17-.29s.1-.08,0,0l.09,0a.74.74,0,0,1,.29-.08,1.83,1.83,0,0,1,1.24.45c.22.18.51.53.37.82a.52.52,0,0,1-.22.22c-.12.05-.16.05-.23,0-.39-.38-1,.24-.62.62Z"/><path class="cls-2" d="M141.69,61.56a1.22,1.22,0,0,0,.11-1.43,1.34,1.34,0,0,0-1.28-.68,1.77,1.77,0,0,0-1.33.93,2.37,2.37,0,0,0-.15,1.81,3,3,0,0,0,1,1.59,1.48,1.48,0,0,0,1.7-.09,5.58,5.58,0,0,0,1.21-1.35,3.44,3.44,0,0,0,.67-1.67,1.93,1.93,0,0,0-1.91-2.18,2.62,2.62,0,0,0-2.13,2.36,3,3,0,0,0,1.33,2.77,2,2,0,0,0,3-.87,3.16,3.16,0,0,0-2.23-4.41A3.05,3.05,0,0,0,138.4,62a2.54,2.54,0,0,0,1.8,1.95,3.14,3.14,0,0,0,2.61-.46A2.72,2.72,0,0,0,144,60.76a3.11,3.11,0,0,0-2.05-2.28,2.48,2.48,0,0,0-3,1.05c-.66,1.34.52,2.63,1.78,3a2.45,2.45,0,0,0,2.93-1.44,2,2,0,0,0-.91-2.61,2.54,2.54,0,0,0-2.66.43,2,2,0,0,0-.31,2.68,2.68,2.68,0,0,0,2.65,1.13,2.29,2.29,0,0,0,1.76-1.84,2.75,2.75,0,0,0-.66-2.47,2.16,2.16,0,0,0-2.71-.24,2.68,2.68,0,0,0-1.22,2.57,1.88,1.88,0,0,0,.66,1.19,1.69,1.69,0,0,0,.31.21l.25.11.11,0a2,2,0,0,0,.67.11,2,2,0,0,0,2.07-1.43,2.12,2.12,0,0,0-1.81-2.46,2.52,2.52,0,0,0-2.7,1.17,2.7,2.7,0,0,0,.39,3,2.52,2.52,0,0,0,2.78.67,2.77,2.77,0,0,0,1.86-2.45,3,3,0,0,0-1.59-2.67,2.83,2.83,0,0,0-3.22.49,2.48,2.48,0,0,0-.36,3A3.21,3.21,0,0,0,142,62.86a2.75,2.75,0,0,0,2.53-1.61,2.21,2.21,0,0,0-1.62-2.69,4.15,4.15,0,0,0-3.47.88.79.79,0,0,0,.18,1.45,4.11,4.11,0,0,0,1.91,0,5.27,5.27,0,0,0,1.64-.68.55.55,0,0,0-.55-1,2.64,2.64,0,0,1-.62.2,3,3,0,0,1-.62.08h-.33l-.25,0c-.25,0-.5-.12-.74-.19l.17,1.46c.19-.13.38-.26.57-.37l.3-.17.15-.08.13-.06a4.84,4.84,0,0,1,.54-.15c-.1,0,0,0,.05,0h.31c-.1,0,0,0,0,0l.13,0,.07,0,.07,0,.09,0s.23.17.12.07a1.75,1.75,0,0,1,.24.23c-.09-.1,0,0,0,.09s.06.14,0,.05,0,0,0,.06,0,.16,0,.07,0,0,0,.06a.38.38,0,0,0,0,.1c0-.16,0,0,0,0s-.06.11,0,0l0,.09-.06.09s.1-.1,0,0l-.14.13c-.07.07.11-.06,0,0l-.12.08-.22.1c.16-.06-.06,0-.1,0a1.05,1.05,0,0,1-.24.06c-.05,0-.26,0-.13,0a4.14,4.14,0,0,1-1,0l-.32-.07-.17,0s-.27-.15-.19-.09a1.34,1.34,0,0,1-.21-.2c-.07-.08.05.09,0,0l-.06-.11s-.07-.14,0-.06,0,0,0-.06l-.06-.25c0-.08,0,0,0,0a1.15,1.15,0,0,1,0-.19c0-.05,0-.26,0-.13a.79.79,0,0,1,.06-.22s.06-.14,0-.06l0-.06.07-.11c.05-.07-.06.06,0,0l.2-.19c-.12.11.08,0,.11-.06s.27-.1.12-.06l.26-.08.13,0c-.13,0,0,0,0,0h.28l.14,0,.13,0,.1,0c-.06,0,.11.06.14.08s.24.15.13.06l.19.17.09.1s.13.15.07.07,0,0,0,.06l.07.11.12.23c0,.11,0-.1,0,0l0,.09c0,.1,0,.21.07.31,0-.13,0,.11,0,.14V61s0,.15,0,.07,0,0,0,.07,0,.08,0,.12,0,.15,0,.07,0,.07,0,.08l-.13.21c.08-.12-.07.07-.09.09l-.17.15c-.08.07.1-.06,0,0l-.13.09-.22.11c.13-.06-.08,0-.12,0l-.24,0c.13,0-.13,0-.17,0h-.1L141,62c.11,0-.08,0-.11-.06l-.11-.07c.08.06,0,0,0,0a1.37,1.37,0,0,1-.17-.17s-.09-.12,0,0,0,0,0-.06l-.11-.18c-.06-.11,0,0,0,0a.84.84,0,0,1-.05-.17,1.94,1.94,0,0,1,0-.2s0-.15,0-.06,0,0,0-.06a1.93,1.93,0,0,1,0-.24c0-.11,0,.1,0,0a.74.74,0,0,1,0-.14.56.56,0,0,1,0-.12s-.07.13,0,0a1.37,1.37,0,0,1,.13-.2c-.09.12,0,0,0,0l.08-.08c.06-.06-.12.08,0,0l.2-.12.11,0h0l.22-.06s.14,0,0,0h.35c.13,0,0,0,0,0l.11,0,.23.07h0l.13.07.09.06c.09,0-.07-.09,0,0s.1.09.14.14h0l.09.14c.07.12,0,.07,0,0a.94.94,0,0,1,.07.22s0,.09,0,.11,0-.1,0,0a.29.29,0,0,0,0,.09c0,.09,0-.12,0,0s-.07.11,0,0,0,0,0,0l-.08.08c.1-.1,0,0-.05,0s-.22.07,0,0l-.17,0-.1,0c-.07,0,.13,0,0,0h-.31s.14,0,0,0l-.2,0c.14,0,0,0-.06,0l-.09-.06c.13.08.06,0,0,0s-.14-.18-.06,0l-.11-.19s0,.14,0,0,0-.09,0-.13,0-.14,0-.05,0,0,0,0a1.21,1.21,0,0,1,0-.19c0-.13,0,0,0,0l0-.11,0-.1s.09-.19,0,0l.09-.18.09-.13.1-.12.18-.18s.11-.06,0,0l.1-.06.17-.09c.07-.07-.14,0,0,0l.1,0,.11,0c.07,0-.14,0,0,0s.27,0,.09,0l.22,0s.12.06,0,0l.09,0,.16.1c-.16-.1,0,0,0,0s.13.16,0,0c.08.12.14.24.21.36s0-.13,0,0l0,.09a1.21,1.21,0,0,1,0,.18c0,.06,0,.22,0,.07,0,.07,0,.15,0,.22s0,.14,0,.21,0-.1,0,.07a1.54,1.54,0,0,1,0,.17l0,.09c0-.16,0,0,0,0l-.1.17c-.07.1.09-.09,0,0s-.18.16-.09.09,0,0,0,0l-.11.06s-.12,0,0,0l-.11,0c-.06,0-.25,0-.1,0h-.34l-.22-.07-.11,0-.2-.12s-.1-.09,0,0l-.11-.09-.14-.15c-.09-.09,0,0,0,0a.53.53,0,0,1-.06-.1c0-.05-.1-.23-.05-.08l-.06-.24c0-.09,0,.11,0,0a.4.4,0,0,0,0-.11s0-.08,0-.12-.05.1,0,0l0-.08c0-.12,0,0,0,0s.07-.17.13-.21-.13.14,0,.05l0-.05s.19-.17.08-.08.08-.05.1-.06l.09,0c.14-.07,0,0,0,0s.38-.1.38-.1-.19,0,0,0h.07s.21,0,.22,0-.15,0-.05,0l.09,0,.09,0s-.17-.09-.05,0a.61.61,0,0,1,.16.09s-.14-.13-.05,0l.09.09c.06,0-.06-.05-.05-.07l.05.08.06.1c-.07-.11,0-.06,0,0s0,.26,0,.1a.53.53,0,0,1,0,.13s0,.19,0,.08,0,0,0,.06a.56.56,0,0,0,0,.12s-.05.15,0,.06,0,0,0,0a2.53,2.53,0,0,1-.13.22c.08-.12,0,0,0,0l-.14.13s-.1.06,0,0l-.08,0-.11.06c-.1,0,.11,0,0,0l-.13,0h-.32c.14,0-.12,0-.15,0L141,61h0a1.55,1.55,0,0,1-.22-.12c-.1-.06.08.07,0,0l-.13-.11s-.2-.23-.1-.1a1.92,1.92,0,0,1-.17-.26s-.08-.13,0,0,0-.15,0,0a.65.65,0,0,1,0-.14c0,.06,0,.08,0,0,0,.13,0,.06,0,0s0,0,0,0a1.8,1.8,0,0,1,.2-.19c-.15.13.07,0,.11-.06s.15-.06,0,0l.15-.05a.61.61,0,0,0,.13,0c.1,0-.13,0,0,0h.33l.3.08c-.14,0,0,0,.08,0l.22.12s.13.09.05,0,0,0,0,0l.21.2.17.19c-.1-.12,0,0,0,.07l.12.22,0,.05c0-.1,0,.07,0,.09a2,2,0,0,1,.05.24c0-.15,0,.07,0,.12s0,.26,0,.13l-.07.21c0,.13,0,0,0,0a.41.41,0,0,1-.05.09c0,.07-.08.12-.11.19.09-.16,0,0-.06,0l-.17.17c-.08.07.12-.08,0,0l-.09.06-.17.1-.19.1c.19-.09,0,0-.1,0l-.22.05c-.18,0,.11,0-.07,0h-.47c.17,0,0,0-.07,0l-.18-.05c-.1,0,.11.06,0,0l-.09,0a1.43,1.43,0,0,1-.21-.12c.14.09,0,0-.06-.06s-.1-.1-.15-.15c.11.12,0,0,0-.06s-.06-.13-.09-.18c.09.16,0,0,0-.06s0-.14,0-.2,0-.07,0-.11,0,.16,0,0,0-.16,0-.24a1.1,1.1,0,0,0,0-.18c0,.18,0,0,0-.08a1.6,1.6,0,0,1,.05-.21l0-.1s.06-.16,0-.06.05-.11.07-.13a1.74,1.74,0,0,1,.11-.18c0-.07.11-.16,0-.05l.17-.19a1.66,1.66,0,0,0,.14-.13c.06-.07-.12.08,0,0l.09-.06.18-.1s.12-.07,0,0,0,0,.06,0a1.17,1.17,0,0,1,.2-.06s.12,0,0,0h.11a1.33,1.33,0,0,0,.2,0c.1,0-.11,0,0,0a.58.58,0,0,0,.14,0c.05,0,.23.09.09,0l.2.1.19.12c-.14-.09,0,0,.09.08l.14.14s.16.2.06.06a3,3,0,0,1,.26.42.47.47,0,0,0,.05.1c.05.09,0-.12,0,0l.06.19.06.22s0,.07,0,.11,0-.14,0,0v.19s0,.25,0,.16a1.14,1.14,0,0,1,0,.15c0,.05-.11.28,0,.11l-.11.21-.07.11s.06-.07,0,0l-.08.09c-.09.08.08-.05,0,0l-.11.06c-.08.06.12,0,0,0s0,0,0,0H142s-.14,0,0,0l-.11,0-.11,0s.12.07,0,0l-.21-.12c-.12-.07,0,0,0,0l-.1-.09-.18-.18c-.1-.1,0,0,0,0l-.07-.11a1.74,1.74,0,0,1-.15-.26s-.07-.15,0-.07,0,0,0-.06,0-.15-.06-.22,0-.28,0-.14a1.82,1.82,0,0,1,0-.33c0,.11,0-.08,0-.12a2.58,2.58,0,0,0,.08-.26c0-.11,0,.08,0,0l.06-.12a2.26,2.26,0,0,1,.16-.26c-.07.1.08-.09.1-.11l.09-.09,0,0,.05,0,.11-.06c.09,0-.11,0,0,0l.14,0c-.16,0,.16,0,0,0l.12,0s-.09,0,0,0l.1.06,0,0s.06.06.08.09,0,0,0,0,.11.23.08.14a1,1,0,0,1,.06.25c0-.08,0,0,0,0v.13a.57.57,0,0,1,0,.13.35.35,0,0,1,0,.07,3.42,3.42,0,0,1-.52,1.09,3.59,3.59,0,0,1-.72.87l-.13.07-.05,0c-.06,0-.06,0-.11,0a.5.5,0,0,1-.25-.21c-.39-.53-.8-1.55-.19-2.06a.51.51,0,0,1,.24-.13h.13c-.06,0,0,0,0,0s.11.07.07,0a.44.44,0,0,1,.16.24c0,.06,0,0,0,.11s0,.07,0,0a.5.5,0,0,0,0,.69.5.5,0,0,0,.71,0Z"/><path class="cls-2" d="M26.94,70.09c.1,2.16.15,4.32.17,6.49A42.7,42.7,0,0,0,27.3,83c.09.59,1.05.54,1.15,0a29.75,29.75,0,0,0,.19-6.4c-.06-2.17-.17-4.33-.31-6.5-.06-.88-1.42-.86-1.39,0Z"/><path class="cls-2" d="M26.38,70.23l-.77.83-.37.41a2,2,0,0,0-.19.22l-.09.09a.76.76,0,0,0-.22.51.6.6,0,0,0,.19.46.63.63,0,0,0,.45.18,1.25,1.25,0,0,0,.19,0,.84.84,0,0,0,.33-.19l.09-.09.2-.21.39-.41.77-.83a.72.72,0,0,0,.2-.48.67.67,0,0,0-.2-.48.7.7,0,0,0-1,0Z"/><path class="cls-2" d="M27.6,71.09A8.69,8.69,0,0,0,29,72.81a6.85,6.85,0,0,0,.9.71A1.84,1.84,0,0,0,31,74a.61.61,0,0,0,.53-.89,1.24,1.24,0,0,0-.29-.39c-.09-.08-.18-.14-.27-.21l0,0L31,72.45a7.22,7.22,0,0,1-.6-.5,8.78,8.78,0,0,1-1.07-1.13l.12.16a7.75,7.75,0,0,1-.46-.66.78.78,0,0,0-1.05-.26.77.77,0,0,0-.3,1Z"/><path class="cls-2" d="M64,70.71c.1,2.17.15,4.33.17,6.5a42.7,42.7,0,0,0,.19,6.4c.09.58,1,.54,1.15,0a30.52,30.52,0,0,0,.19-6.41c-.06-2.16-.17-4.33-.31-6.49-.06-.88-1.43-.86-1.39,0Z"/><path class="cls-2" d="M63.44,70.86l-.77.83-.37.4c-.07.07-.13.15-.19.22l-.09.1a.76.76,0,0,0-.22.51.62.62,0,0,0,.64.63l.19,0a.8.8,0,0,0,.32-.19l.09-.1.21-.2.38-.42.77-.83a.75.75,0,0,0,.21-.47.66.66,0,0,0-.2-.48.7.7,0,0,0-1,0Z"/><path class="cls-2" d="M64.66,71.72A8.62,8.62,0,0,0,66,73.43a5.69,5.69,0,0,0,.9.72,1.88,1.88,0,0,0,1.17.44.61.61,0,0,0,.53-.89,1.2,1.2,0,0,0-.29-.38l-.27-.22s.12.1,0,0L68,73.08c-.21-.16-.41-.33-.6-.5a9.62,9.62,0,0,1-1.08-1.13l.13.16a8,8,0,0,1-.47-.67.77.77,0,0,0-1-.26.78.78,0,0,0-.3,1Z"/><path class="cls-2" d="M102.11,70.09c.1,2.16.15,4.32.17,6.49a42.7,42.7,0,0,0,.19,6.4c.09.59,1,.54,1.15,0a30.41,30.41,0,0,0,.19-6.4c-.06-2.17-.17-4.33-.31-6.5-.06-.88-1.43-.86-1.39,0Z"/><path class="cls-2" d="M101.55,70.23l-.77.83-.37.41a2,2,0,0,0-.19.22l-.09.09a.76.76,0,0,0-.22.51.6.6,0,0,0,.19.46.63.63,0,0,0,.45.18,1.25,1.25,0,0,0,.19,0,.74.74,0,0,0,.32-.19l.1-.09.2-.21.39-.41.77-.83a.77.77,0,0,0,.2-.48.67.67,0,0,0-.2-.48.7.7,0,0,0-1,0Z"/><path class="cls-2" d="M102.77,71.09a8.69,8.69,0,0,0,1.35,1.72,6.25,6.25,0,0,0,.9.71,1.84,1.84,0,0,0,1.17.45.62.62,0,0,0,.53-.89,1.24,1.24,0,0,0-.29-.39c-.09-.08-.18-.14-.27-.21l0,0-.07-.06a7.22,7.22,0,0,1-.6-.5,8.78,8.78,0,0,1-1.07-1.13l.12.16a6,6,0,0,1-.46-.66.78.78,0,0,0-1.05-.26.77.77,0,0,0-.3,1Z"/><path class="cls-2" d="M140.26,70.71c.09,2.17.14,4.33.16,6.5a44.08,44.08,0,0,0,.19,6.4c.1.58,1,.54,1.16,0a30.52,30.52,0,0,0,.18-6.41c-.06-2.16-.17-4.33-.31-6.49,0-.88-1.42-.86-1.38,0Z"/><path class="cls-2" d="M139.7,70.86l-.77.83-.38.4-.19.22-.09.1a.82.82,0,0,0-.22.51.71.71,0,0,0,.19.46.62.62,0,0,0,.45.17l.19,0a.78.78,0,0,0,.33-.19l.09-.1.2-.2.39-.42.77-.83a.69.69,0,0,0,.2-.47.65.65,0,0,0-.19-.48.7.7,0,0,0-1,0Z"/><path class="cls-2" d="M140.92,71.72a8.27,8.27,0,0,0,1.35,1.71,6.1,6.1,0,0,0,.89.72,1.91,1.91,0,0,0,1.17.44.61.61,0,0,0,.54-.89,1.23,1.23,0,0,0-.3-.38,2.88,2.88,0,0,0-.27-.22s.12.1,0,0l-.07-.06c-.2-.16-.41-.33-.6-.5a8.78,8.78,0,0,1-1.07-1.13l.12.16a7.92,7.92,0,0,1-.46-.67.78.78,0,0,0-1-.26.77.77,0,0,0-.29,1Z"/><path class="cls-2" d="M28.26,83.69c7.4,0,14.81.2,22.21.16l22.22-.11c14.81-.08,29.62-.1,44.43-.3,8.32-.11,16.65-.07,25-.28a.6.6,0,0,0,0-1.19c-7.41,0-14.81.11-22.22.16s-14.81.1-22.21.17c-14.81.13-29.62.17-44.43,0-8.32-.08-16.64,0-25-.11a.74.74,0,0,0,0,1.47Z"/><path class="cls-2" d="M83.38,85.09A60.88,60.88,0,0,0,84.47,96a.71.71,0,0,0,1.39-.19c-.21-3.57-.64-7.12-.76-10.69a.86.86,0,0,0-1.72,0Z"/><path class="cls-2" d="M51.05,106.66c.07,1.8.11,3.6.14,5.4,0,.89,0,1.77,0,2.65,0,.44,0,.89,0,1.33a2.42,2.42,0,0,0,.26,1.22.43.43,0,0,0,.73,0,4.72,4.72,0,0,0,.37-2.45c0-.92,0-1.83,0-2.75q0-2.7-.21-5.4c-.05-.9-1.44-.87-1.4,0Z"/><path class="cls-2" d="M51.69,107.61a4.54,4.54,0,0,1,1.87-.26,2.37,2.37,0,0,1,.79.16c.06,0,0,0,0,0l.1,0a.61.61,0,0,1,.14.07l.09.06s0,0,0,0a1.85,1.85,0,0,1,.14.14l0,.06c-.06-.08,0,0,0,0s.07.13,0,0a.6.6,0,0,1,0,.32,1.86,1.86,0,0,1-.32.72l-.07.09c0,.06-.09.11-.13.16l-.15.14-.06.06,0,0a3.37,3.37,0,0,1-.32.19l-.08,0c.09,0,0,0,0,0a.9.9,0,0,1-.22.06h-.14a1.62,1.62,0,0,1-.22,0H53l-.19,0a1.15,1.15,0,0,1-.34-.16s-.1-.08-.13-.09,0,0,0,0,0,.17,0,.13l-.1.17h0l-.18.1H52c.24.06.54-.18.45-.44a.43.43,0,0,0-.52-.3.57.57,0,0,0-.38.55c0,.43.46.78.81,1a2.45,2.45,0,0,0,2.4-.19,2.92,2.92,0,0,0,1.33-2.29,1.86,1.86,0,0,0-1.57-1.65,5.07,5.07,0,0,0-3,.24.49.49,0,0,0-.35.56.46.46,0,0,0,.57.32Z"/><path class="cls-2" d="M57.55,110.83l-.09,0h-.25l-.24-.13a.4.4,0,0,1,0-.56l.24-.14c.32.14.42.15.3,0s0,0,0,0a1.3,1.3,0,0,1-.08-.17,2.63,2.63,0,0,1-.14-.3,6.21,6.21,0,0,1-.2-.74,3.12,3.12,0,0,1-.05-.75,1.45,1.45,0,0,1,0-.3s.07-.16,0-.1a.61.61,0,0,1,.07-.1s-.05.06,0,0l.1-.1,0,0,.08,0c.1-.07-.1,0,0,0l.14,0c-.12,0,0,0,0,0h.14c.13,0-.08,0,0,0l.16,0,.07,0s0,0,0,0l.17.09.14.09.06,0a5,5,0,0,1,.53.49c.36.37.92-.12.71-.55a2.43,2.43,0,0,0-1.37-1.32,1.69,1.69,0,0,0-1.73.41,2.53,2.53,0,0,0-.33,2.08,5.11,5.11,0,0,0,.2,1,2.46,2.46,0,0,0,.46,1,.66.66,0,0,0,1.16-.35.65.65,0,0,0-.2-.51.59.59,0,0,0-.8,0c-.45.38.15,1.15.63.8Z"/><path class="cls-2" d="M60,109.19a1.85,1.85,0,0,0,.58,1.53,1.81,1.81,0,0,0,2.93-.71,1.46,1.46,0,0,0-.42-1.56,3,3,0,0,0-1.36-.63c-.24-.06-.47-.13-.7-.21l-.08,0c-.1,0,0,0,0,0a2,2,0,0,0-.32-.1A.56.56,0,0,0,60,108c0,.44.45.67.81.78a5.62,5.62,0,0,0,.71.16l.34.07.14,0,.06,0c-.07,0-.09,0-.05,0l.05,0,.13.06.07,0c.06,0-.08-.07,0,0l.12.1,0,0c.08.08-.06-.11,0,0l0,0,0,.05s0,0,0-.06v.07c0,.09,0-.13,0,0v0a.24.24,0,0,0,0,.08.26.26,0,0,0,0,.08l0-.07s0,0,0,.08a.21.21,0,0,0,0,.06l0-.06,0,.06s-.08.09-.13.11.15-.09.06,0l-.09,0-.06,0,0,0,.07,0-.15,0-.08,0s.17,0,0,0h-.17c-.08,0-.07,0,.06,0l-.09,0-.08,0c-.11,0,.12.06.05,0l-.16-.08c-.06,0,0-.08,0,0l-.06-.06a.86.86,0,0,1-.13-.14l.11.14a1.49,1.49,0,0,1-.18-.3l.07.17a1.57,1.57,0,0,1-.08-.29c0-.08,0,.15,0,.07v-.07s0-.1,0-.16a.66.66,0,0,0-.2-.49.76.76,0,0,0-.48-.19.72.72,0,0,0-.5.22.78.78,0,0,0-.21.48Z"/><path class="cls-2" d="M63.77,104.5c.29,1.57.57,3.14.92,4.69.09.37.18.74.28,1.11a4,4,0,0,0,.15.49.6.6,0,0,0,.22.32s.29.15.17.1a.62.62,0,0,0,.86-.33.55.55,0,0,0-.38-.68.48.48,0,0,0-.44.13l0,0a.43.43,0,0,0,.3.72h0l-.38-.21v0l0-.34.07-.13.37-.15h0l.36.14,0,0,.14.24,0-.06v.28a1.85,1.85,0,0,0,0-.81c0-.3-.07-.6-.11-.89l-.27-1.64c-.18-1.13-.43-2.26-.65-3.38a.75.75,0,0,0-.91-.52.79.79,0,0,0-.55.91Z"/><path class="cls-2" d="M66.1,108.58s.12-.17,0-.07l.12-.13.13-.12c.09-.08,0,0,0,0a.41.41,0,0,1,.11-.07.83.83,0,0,1,.16-.09s.06,0,.08,0h0c.12,0,.24-.06.37-.09s-.11,0,0,0h.38s-.12,0,0,0l.19,0,.09,0h.06l.08,0c.06,0,.1.07.15.1s-.06-.07,0,0l.09.07.12.13s.12.15,0,0a3.79,3.79,0,0,1,.2.34s0,.1,0,0l0,.09s0,.11,0,.17l0,.17s0,.1,0,0a.45.45,0,0,1,0,.11v.18s0,.06,0,.09,0-.07,0,0,0,.11,0,.17-.07.18,0,.12a1.09,1.09,0,0,1-.08.15s-.1.14-.06.09a1.24,1.24,0,0,1-.28.28s0,0,0,0l-.11.07-.17.1-.35.11a2,2,0,0,1-.77,0,.25.25,0,0,0-.19.46,2.23,2.23,0,0,0,3.09-1.53,2.42,2.42,0,0,0-.42-1.93,2.24,2.24,0,0,0-1.9-.9,2.57,2.57,0,0,0-2.07,1.2.57.57,0,0,0,.21.78.62.62,0,0,0,.8-.22Z"/><path class="cls-2" d="M73.36,107c-1-.71-3.89-1.63-3.92.43a4.09,4.09,0,0,0,.53,2.19,2.2,2.2,0,0,0,1.9,1.08,1.8,1.8,0,0,0,1.67-1.77l-1.44.2a2.61,2.61,0,0,0,.71,1.07,2.56,2.56,0,0,0,.53.35,2,2,0,0,0,.34.13,1.45,1.45,0,0,0,.51,0,.62.62,0,0,0,.46-.45.63.63,0,0,0-.16-.61c0-.06,0,0,0,0a.6.6,0,0,0-.16-.19,1.84,1.84,0,0,0-.25-.17c-.13-.08.09.07-.06,0l-.16-.13a1.38,1.38,0,0,1-.29-.3c.06.11,0,0,0,0l-.12-.2a.74.74,0,0,0-1.35.56q0,.12,0,0c0,.08,0,.07,0,0l0,.1c0-.08,0-.09,0,0,.08-.14,0,0,0,0s-.06.05,0,0l-.09.06a.31.31,0,0,1-.1,0c.1,0,.11,0,0,0s.13,0,0,0-.27,0-.1,0l-.17,0c.16,0,0,0-.09,0l-.09-.06c.07,0,.07,0,0,0l-.13-.12-.08-.09c.06.08.06.08,0,0l-.13-.2,0-.07a3.06,3.06,0,0,1-.15-.49c0-.08,0-.16,0-.23a.68.68,0,0,0,0-.14c0,.07,0,.06,0,0s0-.29,0-.43c0,.08,0,.08,0,0a.25.25,0,0,1-.08.12s-.22.12-.09.07.08,0,0,0h.36l.23,0,.16,0,.46.11a2.44,2.44,0,0,1,.34.14,4.39,4.39,0,0,1,.47.27.65.65,0,0,0,.87-.25.62.62,0,0,0-.22-.85Z"/><path class="cls-2" d="M74.9,103.65c.19,1.18.39,2.35.61,3.52a17.77,17.77,0,0,0,.75,3.49.57.57,0,0,0,.63.41.59.59,0,0,0,.51-.57,8.25,8.25,0,0,1-.29-2.36c.12-.58.64-1,1.2-.6a1.07,1.07,0,0,1,.22,1.37,1.25,1.25,0,0,1-1.48.36c-.28-.11-.6.2-.35.45a1.82,1.82,0,0,0,2.51-.09,2,2,0,0,0,0-2.67,1.69,1.69,0,0,0-2.69.24c-.64,1-.17,2.2-.25,3.31H77.4a18,18,0,0,0-.46-3.64q-.28-1.8-.6-3.6a.73.73,0,0,0-.9-.5.75.75,0,0,0-.54.89Z"/><path class="cls-2" d="M80.45,108.72l.28.93a7.85,7.85,0,0,0,.43,1,.69.69,0,0,0,.4.31.82.82,0,0,0,.44,0,.74.74,0,0,0,.34-.29l.07-.16a.65.65,0,0,0,0-.34,6.35,6.35,0,0,0-.14-1l-.22-.93a.82.82,0,0,0-1-.56.83.83,0,0,0-.51.39.81.81,0,0,0-.09.61Z"/><path class="cls-2" d="M79.93,105.78a2.6,2.6,0,0,0,.1.25,1.92,1.92,0,0,0,.16.21,1,1,0,0,0,.33.26.69.69,0,0,0,.35.11.61.61,0,0,0,.34-.12,1,1,0,0,0,.34-.35,1.29,1.29,0,0,0,.14-.46.83.83,0,0,0,0-.35.55.55,0,0,0-.1-.22,1,1,0,0,0-.16-.19,1,1,0,0,0-.42-.21.94.94,0,0,0-.5,0,.76.76,0,0,0-.22.11.51.51,0,0,0-.24.3.59.59,0,0,0,0,.14.36.36,0,0,0,.11.28.46.46,0,0,0,.27.11h0a.44.44,0,0,0,.2,0l.1,0-.13,0a.49.49,0,0,1,.17,0h-.12a.58.58,0,0,1,.18,0l-.11,0a.41.41,0,0,1,.11.07l-.1-.07a.24.24,0,0,1,.09.08l-.08-.1a.27.27,0,0,1,.06.1l0-.12a.28.28,0,0,1,0,.13v-.12a.33.33,0,0,1,0,.14l0-.11a.41.41,0,0,1-.07.11l.08-.1a.26.26,0,0,1-.09.09l.11-.08-.1.06.13-.06H81l.12.05a.7.7,0,0,1-.17-.09l.11.08-.16-.15.08.1a1,1,0,0,1-.1-.17l.05.12a.14.14,0,0,0,0-.06.47.47,0,0,0-.23-.3.56.56,0,0,0-.38,0,.55.55,0,0,0-.32.24.46.46,0,0,0,0,.38Z"/><path class="cls-2" d="M83.07,103.81a31.91,31.91,0,0,0,.59,3.9c.14.61.29,1.22.48,1.83a3,3,0,0,0,.94,1.69.46.46,0,0,0,.62-.18,3.16,3.16,0,0,0,0-1.85c-.11-.6-.23-1.2-.34-1.8-.21-1.2-.42-2.39-.54-3.6a.86.86,0,0,0-.84-.84c-.41,0-.92.39-.87.85Z"/><path class="cls-2" d="M86.62,108.68c.09.6.18,1.19.29,1.79.06.29.13.58.2.87a2.83,2.83,0,0,0,.31.9.45.45,0,0,0,.81-.12,3,3,0,0,0,0-.94q0-.47-.06-.93c-.06-.65-.14-1.29-.23-1.94a.69.69,0,0,0-.85-.48.74.74,0,0,0-.51.85Z"/><path class="cls-2" d="M87.35,105.59l0,0a.47.47,0,0,0-.11-.13l-.13-.1,0,0a.68.68,0,0,0-.2-.07l-.22,0a1.11,1.11,0,0,0-.43.12,1,1,0,0,0-.18.13l0,0a1.34,1.34,0,0,0-.11.14l0,.1,0,.1,0,.16v0c0,.06,0,.11,0,.17a1.11,1.11,0,0,0,.07.16.52.52,0,0,0,.12.17.65.65,0,0,0,.16.13,1.63,1.63,0,0,0,.19.09l.1,0,.21,0a.85.85,0,0,0,.41-.12l.14-.11,0,0h0a.39.39,0,0,0,.1-.16.34.34,0,0,0,0-.2.71.71,0,0,0,0-.14.41.41,0,0,0-.6-.24l0,0,.11,0a.53.53,0,0,0-.14.06l-.13.1.1-.08-.07,0,.12,0-.08,0h.14a.2.2,0,0,1-.11,0l.11,0-.09,0,.1.07a.23.23,0,0,1-.07-.07l.08.11a.16.16,0,0,1,0-.07l0,.12s0,0,0-.06l0,.12V106l0,.13a.14.14,0,0,1,0-.06l0,.12a.16.16,0,0,1,0-.07l-.09.11.06-.06-.11.09a.37.37,0,0,1,.12-.07l-.13,0a.27.27,0,0,1,.12,0h-.17l.08,0-.11,0,.06,0-.11-.08a.12.12,0,0,1,.05,0l-.08-.1,0,0a.48.48,0,0,0,.3.22.4.4,0,0,0,.19,0,.55.55,0,0,0,.18-.06.51.51,0,0,0,.24-.3.53.53,0,0,0,0-.37Z"/><path class="cls-2" d="M90.31,105.32a18.54,18.54,0,0,0,.38,2.23,14.38,14.38,0,0,0,.72,2.19.46.46,0,0,0,.57.18.49.49,0,0,0,.28-.53c-.24-1.41-.49-2.84-.61-4.25a.66.66,0,0,0-.75-.65.7.7,0,0,0-.59.83Z"/><path class="cls-2" d="M91,108.14l1.08-.28c.36-.1.71-.24,1.06-.37a.7.7,0,0,0,.53-.76.68.68,0,0,0-.68-.6,10.92,10.92,0,0,0-1.28.16l-1.12.22a.87.87,0,0,0-.53.41.82.82,0,0,0-.1.63.85.85,0,0,0,1,.59Z"/><path class="cls-2" d="M94.58,108.74l.85,1.28a9.13,9.13,0,0,0,1,1.24.33.33,0,0,0,.4,0,.34.34,0,0,0,.17-.37,8.09,8.09,0,0,0-.71-1.41c-.26-.44-.53-.87-.81-1.31a.51.51,0,0,0-.69-.17.52.52,0,0,0-.2.69Z"/><path class="cls-2" d="M97.53,108.62l0,0a.8.8,0,0,0,.59-.73.85.85,0,0,0-.43-.75.8.8,0,0,0-.93.14,1.57,1.57,0,0,0-.38,1.13c-.06.48-.1,1-.15,1.46-.09.93-.18,1.87-.24,2.81-.12,1.91-.18,3.83-.14,5.74,0,.49.79.61.89.1.33-1.73.57-3.48.78-5.23.11-.86.19-1.73.25-2.6,0-.42.07-.84.1-1.26,0-.2,0-.41,0-.62s0-.28,0-.42,0-.27-.1-.06l-.93.13,0,0-.38-.65v.06l.59-.73h0c-.94.3-.59,1.77.36,1.46Z"/><path class="cls-2" d="M107.48,104.48c.1,1.07.2,2.14.31,3.22a32.08,32.08,0,0,0,.35,3.24.61.61,0,0,0,.53.46.68.68,0,0,0,.65-.32,3.6,3.6,0,0,0,.52-1.34c.06-.21.21-.84.53-.79.14,0,.33.29.42.4a4.14,4.14,0,0,1,.38.55,13.31,13.31,0,0,1,.64,1.38.52.52,0,0,0,.94-.14,3,3,0,0,0-.42-2,2.56,2.56,0,0,0-1.68-1.36,1.7,1.7,0,0,0-1.66.93c-.3.5-.3,1.21-.68,1.65l1.1.44c0-1-.11-2.11-.18-3.15s-.14-2.1-.22-3.15a.76.76,0,0,0-.75-.75c-.37,0-.82.35-.78.76Z"/><path class="cls-2" d="M114.5,110.66a4.23,4.23,0,0,0,2,.49,2.14,2.14,0,0,0,1.59-.82,1.84,1.84,0,0,0-.7-2.58,2.06,2.06,0,0,0-2.8,1,2.62,2.62,0,0,0,.77,3.14,3.78,3.78,0,0,0,4.32.21.56.56,0,0,0-.42-1,5.67,5.67,0,0,1-1.37.25h-.37l-.26,0a2,2,0,0,1-.35-.08l-.14,0c-.19-.06.09,0-.09,0a2.19,2.19,0,0,1-.84-.64,1.49,1.49,0,0,1-.33-.88,1.22,1.22,0,0,1,1.14-1.25,1,1,0,0,1,.82,1.2,1,1,0,0,1-.88.51,3.06,3.06,0,0,1-1.52-.45.58.58,0,0,0-.77.22.54.54,0,0,0,.2.75Z"/><path class="cls-2" d="M121.15,110.47a.13.13,0,0,0,0-.25.13.13,0,0,0,0,.25Z"/><path class="cls-2" d="M121.77,110.39a5.39,5.39,0,0,1-.43-.63c-.06-.12-.11-.25-.18-.36a.19.19,0,1,0,0,0l0-.09a1.05,1.05,0,0,1-.05-.19s0-.05,0-.07,0,0,0,0,0-.13,0-.18v-.07c0-.13,0,.11,0,0a1.27,1.27,0,0,1,.06-.18s.07-.1,0,0a.08.08,0,0,0,0-.05l0,0c0-.1,0,0-.06.06s.12-.13.19-.18l-.15.12a.81.81,0,0,1,.18-.12l.09-.05-.07,0c.06,0,.13,0,.2-.07l.1,0c.11,0-.17,0,0,0h.2c-.17,0-.07,0,0,0h.09l.08,0c-.08,0-.09,0,0,0l0,0,.09.05c.11.06,0-.05,0,0a.45.45,0,0,0,.56,0,.42.42,0,0,0,.12-.55,1.59,1.59,0,0,0-1.94-.73,1.63,1.63,0,0,0-1,1,1.89,1.89,0,0,0,.19,1.5,4.59,4.59,0,0,0,1,1.17.48.48,0,0,0,.62,0,.47.47,0,0,0,.14-.61Z"/><path class="cls-2" d="M124.61,110.06a3.42,3.42,0,0,0,1.78.55,3.27,3.27,0,0,0,.94-.11,1.49,1.49,0,0,0,.85-.5,1.23,1.23,0,0,0,0-1,5,5,0,0,0-.32-.92,2.37,2.37,0,0,0-1.31-1.29,1.62,1.62,0,0,0-1.65.35,2.37,2.37,0,0,0-.68,1.47,3.31,3.31,0,0,0,1.25,2.83,3.64,3.64,0,0,0,1.67.82,3.07,3.07,0,0,0,1.93-.28.54.54,0,0,0-.4-1H128c-.18,0,.08,0,0,0l-.19,0-.54-.13-.11,0c-.18,0,.12.06,0,0s-.17-.07-.25-.12l-.25-.13-.15-.1s-.1-.07,0,0A4.58,4.58,0,0,1,126,110a.27.27,0,0,0-.07-.08c-.12-.14.07.1,0,0l-.16-.23c0-.08-.09-.17-.13-.25l0-.1c0,.11,0-.07,0-.09a1.63,1.63,0,0,1,0-1,.92.92,0,0,1,.19-.4c0,.06,0,0,0,0l.1-.11c-.07.06.16-.08.14-.07a.64.64,0,0,1,.41,0,1.12,1.12,0,0,1,.51.34,3.18,3.18,0,0,1,.51,1.25c0,.06,0,.12,0,.18s0,.12,0,.07,0,0,0,0l-.12,0a2.85,2.85,0,0,1-.72.11,2.43,2.43,0,0,1-1.41-.42.48.48,0,0,0-.49.82Z"/><path class="cls-2" d="M28.92,5c-1,.46-2.28,1.35-2.07,2.65s1.79,2,3,1.89a3.66,3.66,0,0,0,3.21-2.28,4,4,0,0,0-.73-4,11.33,11.33,0,0,0-1.77-1.76A8.67,8.67,0,0,0,28.28,0c-.43-.16-1,.36-.57.73,1.81,1.52,5.8,3.64,4,6.56a2.66,2.66,0,0,1-3.36.92,1.11,1.11,0,0,1-.63-1.51,3.08,3.08,0,0,1,1.5-1.25c.35-.17.05-.66-.3-.5Z"/><path class="cls-2" d="M33.87,6.4c.05.52.09,1,.15,1.57,0,.24,0,.48.09.71l.06.33a2.29,2.29,0,0,0,.12.37.57.57,0,0,0,.53.4.59.59,0,0,0,.55-.41c0-.16.06-.32.07-.48s0-.22,0-.33,0-.48,0-.72c0-.49-.1-1-.15-1.45a.69.69,0,0,0-.19-.48.66.66,0,0,0-.48-.19c-.33,0-.73.3-.7.68Z"/><path class="cls-2" d="M33.73,4.14a.61.61,0,0,0,0,.3v0s.05.11.06.13h0a.56.56,0,0,0,.37.26.78.78,0,0,0,.34,0l0,0a.61.61,0,0,0,.17-.07A.67.67,0,0,0,35,4.52.54.54,0,0,0,35,4.2.55.55,0,0,0,35,4s-.05-.12-.09-.18a.75.75,0,0,0-.12-.14.83.83,0,0,0-.15-.11.64.64,0,0,0-.19-.08l-.07,0-.2,0a.51.51,0,0,0-.2,0l-.11,0-.1.08-.07.09a.49.49,0,0,0-.06.17.21.21,0,0,0,0,.11.27.27,0,0,0,0,.12.21.21,0,0,0,.06.1.37.37,0,0,0,.13.12l0,0a.39.39,0,0,0,.16.07l-.12,0,.19.08-.12,0a.34.34,0,0,1,.12.06l-.11-.08.06.06L34,4.35l0,.06L34,4.28a.09.09,0,0,1,0,0v-.1l0-.13s0,0,0,0l0-.12V4l.08-.11,0,0,.11-.09s0,0,0,0l.13,0-.06,0,.13,0h.06l.12,0h0l.11.08h0l.08.11h0l.06.12v0l0,.14v0l0,.13h0a.44.44,0,0,0,0-.2A.35.35,0,0,0,34.7,4a.4.4,0,0,0-.14-.15.51.51,0,0,0-.18-.09h-.13a.54.54,0,0,0-.27.07l-.11.09a.59.59,0,0,0-.14.23Z"/><path class="cls-2" d="M38.13,4.63A1.39,1.39,0,0,0,37.85,6a3.38,3.38,0,0,0,.29.64c0,.09.09.18.14.26s0-.05,0,0a1.17,1.17,0,0,1,.05.2c0-.12,0,.2,0,.06a.83.83,0,0,1,0,.15c0,.1,0,0,0,0a.57.57,0,0,1-.08.13s-.11.15,0,0L38,7.8c.09-.09,0,0,0,0l-.13.08-.14.07s.13,0,0,0a1.71,1.71,0,0,1-.3.09s-.2,0-.09,0l-.23,0c-.45,0-1.44-.11-1.46.58s1,.65,1.47.62a2.46,2.46,0,0,0,2.32-1.54,2,2,0,0,0-.22-1.53l-.16-.31c-.08-.16,0,.09,0-.06s0-.1,0-.15,0-.18,0-.06a.76.76,0,0,1,0-.15c0,.13,0,0,0,0s0,.08,0,0,0,.06,0,0a.6.6,0,0,0,0-.85.64.64,0,0,0-.88,0Z"/><path class="cls-2" d="M43.64,5.52a1.7,1.7,0,0,0-2.57.39,2.34,2.34,0,0,0,1,3.09,3,3,0,0,0,1,.34,2,2,0,0,0,.59,0,2.09,2.09,0,0,0,.36,0,1.68,1.68,0,0,0,.33-.16.55.55,0,0,0,.28-.56.53.53,0,0,0-.4-.46,1.5,1.5,0,0,0-.42-.09h-.58L42.91,8l-.15,0c-.11,0,0,0,0,0l-.08,0a1.87,1.87,0,0,1-.31-.17l-.06,0c.1.07,0,0,0,0l-.11-.09-.11-.11-.05-.07s.07.1,0,0a2.54,2.54,0,0,1-.16-.28l0-.05s0,.1,0,0a1.42,1.42,0,0,1,0-.16l0-.15s0-.1,0,0,0,0,0,0V6.6s0-.2,0-.11l0-.14s0-.14,0-.07l.06-.11,0,0c.05-.09,0,0,0,0l.17-.18,0,0s0,0,0,0l.14-.09,0,0h0l.14,0a.72.72,0,0,1,.26,0,.82.82,0,0,1,.42.2c.26.25.66-.14.41-.4Z"/><path class="cls-2" d="M47.16,8l-.27-.31-.15-.18c.06.07-.05-.07-.05-.07a4,4,0,0,1-.22-.34,2,2,0,0,1-.1-.21c0-.1,0,0,0-.08a2.25,2.25,0,0,1-.09-.35c0,.11,0-.09,0-.12V6.15c0-.07,0-.07,0,0a.19.19,0,0,1,0-.07.84.84,0,0,1,0-.17c0,.13,0,0,0-.06l.09-.15c-.08.13,0,0,0,0l.07-.06c.06-.05.05,0,0,0l.11-.07.08,0c.07,0,0,0-.05,0A1.49,1.49,0,0,0,47,5.44l.14,0c-.1,0-.11,0,0,0h.1c.45,0,.91,0,1.37,0s.77-.75.28-1A3,3,0,0,0,46,4.41a2.21,2.21,0,0,0-.66,2.87,6.43,6.43,0,0,0,1,1.49.57.57,0,0,0,.79,0,.56.56,0,0,0,0-.79Z"/><path class="cls-2" d="M50,8.4a11,11,0,0,1,1.9,0,2.22,2.22,0,0,0,1.52-.65,1.29,1.29,0,0,0,.29-1.46,1.88,1.88,0,0,0-1.3-.94,2.73,2.73,0,0,0-2.65.67,1.83,1.83,0,0,0-.45,1.55,2.25,2.25,0,0,0,1,1.4,2.79,2.79,0,0,0,2,.48,3.56,3.56,0,0,0,2.21-1,.45.45,0,0,0-.32-.77,7.24,7.24,0,0,0-1.58.31,3.1,3.1,0,0,1-.67.1h-.35c-.13,0,.13,0,0,0l-.18,0-.12,0c.12,0-.07,0-.07,0L50.9,7.9l0,0-.1-.08-.13-.13s-.11-.15-.05-.06a1.76,1.76,0,0,1-.14-.23c0-.09,0,.12,0,0l0-.11c0-.16,0,.07,0-.09V7c0-.16,0,0,0,0s0-.12.05-.17.06-.1.08-.12-.07.08,0,0l.07-.07.09-.08c.07-.06-.09,0,.05,0A1.28,1.28,0,0,1,51,6.29a1.92,1.92,0,0,1,.91-.15,1.36,1.36,0,0,1,.94.41.42.42,0,0,1,.08.33.49.49,0,0,1-.23.3l0,0-.18.09,0,0-.16,0a2,2,0,0,1-.66,0,6.44,6.44,0,0,0-1.86,0,.54.54,0,0,0-.38.64A.51.51,0,0,0,50,8.4Z"/><path class="cls-2" d="M55.19,3.88a15.54,15.54,0,0,0,.65,3c.16.5.35,1,.55,1.49s.45,1.19,1.07,1.23a.5.5,0,0,0,.44-.26c.29-.48-.14-1.09-.34-1.54s-.38-.88-.54-1.34a16.8,16.8,0,0,1-.7-2.9.58.58,0,0,0-.7-.4.6.6,0,0,0-.43.71Z"/><path class="cls-2" d="M55.23,5.91l1-.19.48-.07.25,0,.11,0,.56-.07.14,0h.11l.15,0a6,6,0,0,0,1-.2.56.56,0,0,0,0-1.07,5.76,5.76,0,0,0-2.07,0,18.57,18.57,0,0,0-2.08.39.73.73,0,0,0-.53.87.71.71,0,0,0,.87.49Z"/><path class="cls-2" d="M59.31,8c1.32.52,3.07,1.1,4.19-.13a2.21,2.21,0,0,0,.63-1.78,1.72,1.72,0,0,0-1.08-1.32,2.72,2.72,0,0,0-3.3,1.34,3.06,3.06,0,0,0-.57,2,2.17,2.17,0,0,0,1.43,1.5,5,5,0,0,0,4.75-.18.6.6,0,0,0-.45-1.1,6.61,6.61,0,0,1-2.82.18A4,4,0,0,1,60.79,8c-.15-.09-.22-.15-.23-.28a1.4,1.4,0,0,1,.12-.58c.25-.7.8-1.46,1.52-1.46a.8.8,0,0,1,.71.38.65.65,0,0,1-.14.74,1.5,1.5,0,0,1-.53.38l-.05,0-.19,0a1.49,1.49,0,0,1-.36,0A5.33,5.33,0,0,1,59.75,7a.57.57,0,0,0-.66.34.52.52,0,0,0,.22.68Z"/><path class="cls-2" d="M74.57,6.61c.24,1.48.41,3,.52,4.46,0,.73.09,1.47.11,2.21a17.93,17.93,0,0,0,.1,2.32c.1.68.92.66,1.33.34a1.3,1.3,0,0,0,.43-.75.53.53,0,0,0-.78-.59c-.08,0-.1,0-.2,0l.75,1a12.08,12.08,0,0,0,.07-2.33c0-.79-.07-1.59-.13-2.39-.13-1.57-.32-3.14-.58-4.69a.82.82,0,0,0-1-.58.86.86,0,0,0-.61,1Z"/><path class="cls-2" d="M76.65,5.81a3,3,0,0,1,.73-.55s.23-.11.14-.08l.23-.07L78,5.06c-.09,0,0,0,0,0h.16a1.11,1.11,0,0,1,.63.19.73.73,0,0,1,.18.22.31.31,0,0,1,0,.1s0-.09,0,0l.06.24c0-.1,0,.07,0,.1s0,.13,0,.2,0,0,0,0l0,.11a1.42,1.42,0,0,1-.07.22c0-.09,0,.07,0,.1a1,1,0,0,1-.1.17.86.86,0,0,1-.07.1s.07-.08,0,0-.11.12-.17.17l-.2.17-.1.07c-.15.09-.3.18-.46.26l-.21.09s-.12,0,0,0l-.1,0L77,7.8,76.45,8a2,2,0,0,1-.23.06l-.12,0s-.18,0-.09,0H75.8s-.11,0,0,0,0,0-.07,0A1.79,1.79,0,0,0,75.15,8a.55.55,0,0,0-.54.53c0,.63.64.91,1.16.94A3,3,0,0,0,77,9.2,6.63,6.63,0,0,0,79.36,8a2.83,2.83,0,0,0,.9-2.22,2,2,0,0,0-1.67-1.84A3.31,3.31,0,0,0,75.77,5a.62.62,0,0,0,0,.87.64.64,0,0,0,.88,0Z"/><path class="cls-2" d="M82.48,8.31A4,4,0,0,1,82,6.92a2.59,2.59,0,0,1,.08-1.3s.1-.15,0-.09l.11-.11c-.06,0,0,0,0,0l.06,0h0a1.34,1.34,0,0,1,.27-.07H83l.19.05a2.08,2.08,0,0,1,.32.12c.25.12.49.24.76.34s.72-.44.42-.71a2.93,2.93,0,0,0-1.81-.79,1.75,1.75,0,0,0-1.51.73,2.92,2.92,0,0,0-.28,1.84,5.4,5.4,0,0,0,.54,1.93.51.51,0,0,0,.69.17.51.51,0,0,0,.19-.68Z"/><path class="cls-2" d="M85.12,7.21a2,2,0,0,0,.94,2.11,2.55,2.55,0,0,0,2.4,0,2.78,2.78,0,0,0,1.61-1.56A1.67,1.67,0,0,0,89,5.91a7.73,7.73,0,0,0-2.08-.7,3.11,3.11,0,0,0-1.25-.09.67.67,0,0,0-.53.69.71.71,0,0,0,.64.59l.12,0,.15,0h.08l.13,0a4.64,4.64,0,0,1,.51.11l.47.14.25.09c-.11,0,0,0,0,0l.15.07a3.55,3.55,0,0,1,.44.21l.2.12.09.06s-.12-.1,0,0a.8.8,0,0,1,.13.13c.1.09,0,0,0,0l0,.08c.08.12,0,0,0-.05l0,.1s0-.18,0,0V7.35c0,.07,0,.07,0,0s0,0,0,0h0c0,.06-.11.11-.16.16s0,0,0,0l-.12.08-.24.14-.25.13c-.11.06.16,0,0,0l-.14.06L87.46,8s-.16,0,0,0-.06,0-.07,0h-.12c-.16,0,.1,0,0,0h-.08l-.07,0,.08,0S87,7.89,87,7.87s0,0,0,0l-.12-.1-.06-.06c-.1-.11,0,0,0,0s-.14-.27-.08-.12,0-.12,0-.13,0,.17,0,.06,0,.19,0,0a.84.84,0,0,0-.59-1,.9.9,0,0,0-1.06.62Z"/><path class="cls-2" d="M89.84,2.24l.31,3.34.15,1.67A10,10,0,0,0,90.52,9a.71.71,0,0,0,1.39-.19,5.68,5.68,0,0,0-.1-1.16,2.59,2.59,0,0,1-.06-1c.17-.71,1.11-.49,1.56-.23a2.41,2.41,0,0,1,.8.69c.15.23.15.31-.12.38a14.09,14.09,0,0,1-2.6.17c-.64.06-.88,1-.18,1.16a5.77,5.77,0,0,0,2,0,3.25,3.25,0,0,0,1.62-.44,1.26,1.26,0,0,0,.39-1.63,3,3,0,0,0-1.13-1.12,2.32,2.32,0,0,0-3,0,2,2,0,0,0-.55,1.41,5,5,0,0,1-.08,1.55l1.38.16a9.33,9.33,0,0,0-.13-1.67L91.6,5.5l-.37-3.28a.68.68,0,0,0-.68-.67.72.72,0,0,0-.71.69Z"/><path class="cls-2" d="M99.3,5.83A1.53,1.53,0,0,0,97.44,5a2.07,2.07,0,0,0-1.35,2,1.86,1.86,0,0,0,1.53,2,1.54,1.54,0,0,0,1.22-.52,1.4,1.4,0,0,0,.32-.6,1.42,1.42,0,0,0,0-.68.62.62,0,0,0-.75-.42.65.65,0,0,0-.45.75,2.75,2.75,0,0,0,1.61,1.87,2.66,2.66,0,0,0,2.51-.06.48.48,0,0,0-.36-.88,2.47,2.47,0,0,1-.39,0H101a2.33,2.33,0,0,1-.77-.24,1.94,1.94,0,0,1-.65-.47.86.86,0,0,1-.22-.29L99.1,7,98,7.56a.67.67,0,0,1,.06.12L98,7.38a.8.8,0,0,0,0,.11c0-.06,0,0,0,0s0,0,0,0,.12-.08,0,0-.05,0-.09,0,0,0,0,0h-.07l-.08,0a.68.68,0,0,1-.34-.35,1.12,1.12,0,0,1-.11-.56,1,1,0,0,1,.51-.9.65.65,0,0,1,.86.34c.18.39.87.1.72-.3Z"/><path class="cls-2" d="M101.1,2.23l.69,3.56c.11.58.23,1.16.34,1.74a6.61,6.61,0,0,0,.48,1.82l1.2-.69A1.25,1.25,0,0,1,104,7.05a.84.84,0,0,1,1.35.22c.24.53-.23.9-.71,1-.72.13-1.4-.33-2.07-.5a.37.37,0,0,0-.36.6,2.9,2.9,0,0,0,3.19.78,1.68,1.68,0,0,0,.77-2.47,1.91,1.91,0,0,0-2.65-.5,2.73,2.73,0,0,0-1,3c.18.79,1.3.54,1.36-.18a6.51,6.51,0,0,0-.29-1.8l-.39-1.8-.78-3.53c-.19-.87-1.51-.49-1.34.36Z"/><path class="cls-2" d="M107.1,7.6c.06.25.11.51.18.76l.13.36a1.79,1.79,0,0,0,.13.32l.1.17a.61.61,0,0,0,.67.26.61.61,0,0,0,.47-.58,2.23,2.23,0,0,0,0-.37c0-.18,0-.37-.06-.55s-.09-.52-.13-.78a.76.76,0,0,0-.94-.53.8.8,0,0,0-.49.37.81.81,0,0,0-.08.57Z"/><path class="cls-2" d="M107.12,4.83a.5.5,0,0,0,.15.25.45.45,0,0,0,.24.14l.18,0a.57.57,0,0,0,.18,0,.61.61,0,0,0,.26-.15.53.53,0,0,0,.12-.14.69.69,0,0,0,.08-.28.78.78,0,0,0,0-.14.46.46,0,0,0-.14-.23.3.3,0,0,0-.08-.08,1.33,1.33,0,0,0-.19-.14,1.2,1.2,0,0,0-.33-.13,1.08,1.08,0,0,0-.36,0h0l-.14,0a.36.36,0,0,0-.2.11c-.09.06-.07.05-.16.17s0,.06-.07.14a1,1,0,0,0,0,.24.71.71,0,0,0,0,.25s0,0,0,0c-.06-.15,0,.11,0,.14l.11.13,0,0a.5.5,0,0,0,.22.13h.14l.14,0a.47.47,0,0,0,.27-.21l0-.11,0,.1s0-.08,0-.12a.17.17,0,0,0,0-.07.24.24,0,0,0,0-.12.19.19,0,0,0,0-.08l0,.12v0a1,1,0,0,0,0-.17l0,.13a.17.17,0,0,1,0-.1l0,.14a.29.29,0,0,1,0-.09l0,.13,0-.09L107.3,5l.15,0-.14,0,.17,0-.14,0h.21l-.13,0a.67.67,0,0,1,.19,0l-.11,0,.13.07-.22-.28v0l0-.12s0,0,0,0l0-.11v0l0-.11s0,0,0,0l.08-.09,0,0,.09-.08,0,0,.12,0-.05,0,.11,0h0l.12,0h0l.11,0,0,0,.09.07a0,0,0,0,1,0,0l.07.1,0,0a.22.22,0,0,0-.12-.13.36.36,0,0,0-.15-.08h-.11a.39.39,0,0,0-.18,0,.21.21,0,0,0-.1.06.37.37,0,0,0-.12.13l0,.11a.41.41,0,0,0,0,.22Z"/><path class="cls-2" d="M108.64,2.9a18.77,18.77,0,0,0,.3,3.51,16.31,16.31,0,0,0,.42,1.67c.17.51.41,1.31,1,1.45a.49.49,0,0,0,.54-.23c.3-.43,0-1.15-.08-1.62s-.27-1.07-.38-1.62a17.73,17.73,0,0,1-.3-3.17.75.75,0,0,0-1.5,0Z"/><path class="cls-2" d="M112.12,7.6l.21.83.12.42a2.84,2.84,0,0,0,.23.5.57.57,0,0,0,.63.26.62.62,0,0,0,.44-.55,3.05,3.05,0,0,0,0-.43c0-.19,0-.38-.05-.57l-.11-.86a.72.72,0,0,0-.36-.46.8.8,0,0,0-.57-.07.79.79,0,0,0-.55.93Z"/><path class="cls-2" d="M111.54,4.6a3.43,3.43,0,0,0-.09.44c0,.11,0,.22,0,.33a.52.52,0,0,0,.29.49,1.21,1.21,0,0,0,.46.12,1.42,1.42,0,0,0,.35,0,1.05,1.05,0,0,0,.64-.49.51.51,0,0,0-.31-.75h0l.12,0a2.35,2.35,0,0,0-1.17-.18c-.29,0-.66.07-.79.38a.4.4,0,0,0,0,.37.43.43,0,0,0,.27.2,1,1,0,0,0,.43,0h-.12a1.85,1.85,0,0,1,.47,0l-.13,0a2,2,0,0,1,.48.12l-.12,0a.48.48,0,0,1,.16.08l0-.89-.17.09.14-.06a1,1,0,0,1-.25.06l.15,0h-.15l.14,0-.15,0,.14.06h0l.29.49a4,4,0,0,0,0-.77l0-.12a.29.29,0,0,0-.13-.14.42.42,0,0,0-.3-.1.53.53,0,0,0-.5.37Z"/><path class="cls-2" d="M114.85,2.4c.07,1.14.17,2.27.3,3.4.07.54.14,1.09.22,1.63a6.18,6.18,0,0,0,.4,1.71c.22.46.89.18.92-.25a6.87,6.87,0,0,0-.21-1.63c-.09-.54-.17-1.08-.25-1.62-.15-1.08-.26-2.16-.34-3.25,0-.66-1.08-.65-1,0Z"/><path class="cls-2" d="M115.86,6c1.17,0,2.33,0,3.5-.1a.5.5,0,0,0,.48-.47.47.47,0,0,0-.47-.46c-1.16-.1-2.32-.1-3.49-.1a.59.59,0,0,0-.58.57.55.55,0,0,0,.56.56Z"/><path class="cls-2" d="M120,7.41a5.05,5.05,0,0,0,.76,1.43,3.91,3.91,0,0,0,.57.65,3.79,3.79,0,0,0,.4.3l.16.07a1,1,0,0,0,.42.08.54.54,0,0,0,.52-.66.92.92,0,0,0-.09-.25l-.09-.12c-.1-.13-.2-.24-.31-.36s-.3-.33-.44-.5l.11.14a4.55,4.55,0,0,1-.63-1.09l.07.17L121.39,7a.68.68,0,0,0-.32-.42.72.72,0,0,0-1,.79Z"/><path class="cls-2" d="M122.84,7.4a24.69,24.69,0,0,0-.85,3.81,10.18,10.18,0,0,0,0,3.85.65.65,0,0,0,1.24,0c.25-1.23.25-2.48.42-3.72a21.52,21.52,0,0,1,.78-3.54c.31-1-1.28-1.38-1.59-.39Z"/><path class="cls-2" d="M138.71,9a5,5,0,0,1-.46-1.47,4.53,4.53,0,0,1-.05-.74,1.11,1.11,0,0,1,.09-.46s0,0,0,0,0,0,0,0,0,0,0,0-.06,0-.06,0l.1.11a2.52,2.52,0,0,1,.32.58,3.31,3.31,0,0,1,.23,1.39H140c0-.51-.18-1.18.13-1.6l.09-.11c.07-.06,0,0,.11-.08s0,0,.08,0,.17,0,.09,0a.21.21,0,0,1,.16.05l.07.07c.09.07,0,0,.06.07l.09.16c.09.17,0-.09,0,.09s.09.26.13.4c.08.32.15.64.2,1s.05.56.07.89a2.2,2.2,0,0,0,.21,1.19.6.6,0,0,0,.93.1,1.28,1.28,0,0,0,.31-.82,3.54,3.54,0,0,0,0-.65,11.55,11.55,0,0,0-.22-1.31,3.22,3.22,0,0,0-1.16-2.11,1.65,1.65,0,0,0-2,.49,3.12,3.12,0,0,0-.47,2.42.56.56,0,0,0,.62.41.59.59,0,0,0,.51-.56,4.4,4.4,0,0,0-.6-2.07c-.34-.56-1-1.24-1.65-.78a1.94,1.94,0,0,0-.59,1.77,6.2,6.2,0,0,0,.51,2.28.59.59,0,0,0,.8.2.61.61,0,0,0,.22-.8Z"/><path class="cls-2" d="M143.57,8.29a2.88,2.88,0,0,0,3-.4,1.79,1.79,0,0,0,.67-1.29,1.07,1.07,0,0,0-1.15-1,2.19,2.19,0,0,0-2,1.74,2.48,2.48,0,0,0,1.36,2.55A3.16,3.16,0,0,0,149,9.25a.55.55,0,0,0,.05-.75.59.59,0,0,0-.75-.14,4.36,4.36,0,0,1-.94.35l-.27,0s-.18,0-.11,0h-.06a2.54,2.54,0,0,1-.48,0,2.1,2.1,0,0,1-.24-.06l-.09,0c-.11,0,.08,0,0,0l-.18-.09-.12-.07c-.09-.06.07.05,0,0a2.65,2.65,0,0,1-.34-.33h0l-.08-.11s-.11-.22-.08-.14a1,1,0,0,1,.35-1.25.7.7,0,0,1,.27-.11h.21s.08,0,0,0-.18.36-.27.43a2,2,0,0,1-1.87.24c-.59-.23-1.06.79-.45,1Z"/><path class="cls-2" d="M152.12,6.7A1.68,1.68,0,0,0,150,6.41a2.16,2.16,0,0,0-1,2.2,1.58,1.58,0,0,0,.71,1.19,1.5,1.5,0,0,0,1.44,0,2.85,2.85,0,0,0,1-.93l.16-.23a.83.83,0,0,0,.08-.12l0,0a1.8,1.8,0,0,1,.19-.2q.09-.08,0,0c.07,0,.08,0,0,0L152,7.77a4.87,4.87,0,0,0,1,1.65,3.83,3.83,0,0,0,.67.6,2.38,2.38,0,0,0,.92.44c.57.15,1.13-.63.63-1.06-.22-.19-.44-.37-.67-.54.07.05,0,0-.06-.06l-.15-.12L154,8.43a4.65,4.65,0,0,1-.85-1.14.64.64,0,0,0-.85-.21A4.12,4.12,0,0,0,151,8.27l-.15.14s0,0,0,0l-.09.06-.15.09c.12-.06-.06,0-.08,0s0,0-.08,0c.13,0,0,0-.07,0s0,0,0,0a1.2,1.2,0,0,0-.06-.12,1.22,1.22,0,0,1-.08-.62.93.93,0,0,1,.23-.53.69.69,0,0,1,1,.06.45.45,0,0,0,.64-.64Z"/><path class="cls-2" d="M157.52,5.32a1.17,1.17,0,0,0-1.14,1.19A1.89,1.89,0,0,0,157.16,8c.11.09.22.18.32.28s.1.1.15.15h0l.06.08a.41.41,0,0,1,0,.09c0-.07,0-.07,0,0a.37.37,0,0,1,.19-.37c-.07,0,0,0,.05,0l-.08,0-.09,0h0a1.9,1.9,0,0,1-.48,0l-.55,0a11.69,11.69,0,0,0-1.19.09.56.56,0,0,0-.41.45.54.54,0,0,0,.26.54,2.67,2.67,0,0,0,1.54.48.45.45,0,0,0,.43-.37.4.4,0,0,0-.3-.46,1.72,1.72,0,0,1-1-.51l-.54.91a11.71,11.71,0,0,0,1.18.09,8.88,8.88,0,0,0,1,.05,1.3,1.3,0,0,0,1-.52,1,1,0,0,0-.06-1.18,3,3,0,0,0-.67-.67c-.11-.09-.22-.18-.32-.28l-.15-.15c-.05-.06-.05,0,0,0l0-.07c-.09-.14,0,.06,0,0s0-.12,0-.16,0,.1,0,0V6.5s0,0,0-.07,0,.09,0,0-.05.06,0,0-.06.06,0,0,0,0-.05,0,0,0-.06,0c.08,0-.14,0,0,0a.61.61,0,0,0,.6-.58.58.58,0,0,0-.58-.57Z"/><path class="cls-2" d="M159.09,7.62a2.59,2.59,0,0,0,2.39,2.18,2.24,2.24,0,0,0,2.38-2.13,1.9,1.9,0,0,0-.81-1.52.92.92,0,0,0-1-.13.53.53,0,0,0-.26.57,1.67,1.67,0,0,0,.08.2s.11.2.18.22-.09-.13,0,0l0,0,.07.11,0,.07c.05.1,0,0,0-.07a.55.55,0,0,0,.05.17l0,.13s0,.05,0,.08,0,.07,0-.08c0,.1,0,.21,0,.31s.05-.19,0,0l0,.13c0,.12,0-.08,0-.08a.21.21,0,0,1,0,.07s0,.1-.08.14,0,.06-.05.07.14-.16.05-.07l-.11.11c-.14.12.14-.09,0,0l-.16.1a.2.2,0,0,0-.08,0c-.08,0,.21-.08.06,0l-.16.05-.08,0c-.13,0,.15,0,0,0h-.25c-.14,0,0,0,.05,0a1.33,1.33,0,0,0-.19,0h-.06c-.15,0,.16.07,0,0l-.16-.08-.07,0c-.11-.07.1.09,0,0L160.94,8a1.85,1.85,0,0,1-.14-.14s-.05-.1,0,0l-.05-.07-.1-.17s0-.05,0-.08,0-.13,0,0c0-.13-.08-.25-.11-.38a.74.74,0,0,0-.91-.52.79.79,0,0,0-.55.91Z"/><path class="cls-2" d="M165.66,9a5.12,5.12,0,0,1-.14-.68c0,.08,0-.12,0-.11s0-.12,0-.18,0-.23,0-.34,0-.22,0-.33,0,.1,0,0,0-.16,0-.07v0l0,0c-.14.1.08,0-.08,0l.11,0c-.13,0,0,0,.06,0a12.44,12.44,0,0,1,1.37.11c.47.05.95.12,1.42.19a.48.48,0,0,0,.56-.32.44.44,0,0,0-.31-.55A16,16,0,0,0,167,6.26c-.28-.06-.57-.12-.86-.16a2.2,2.2,0,0,0-.92,0,1.35,1.35,0,0,0-1,1.43,5.57,5.57,0,0,0,.21,1.82.64.64,0,0,0,.79.45.67.67,0,0,0,.48-.79Z"/><path class="cls-2" d="M170.14,9a2.39,2.39,0,0,0,3.2-.57,1.82,1.82,0,0,0-.71-2.67,2,2,0,0,0-2.54,1.32A2,2,0,0,0,170,9a2.45,2.45,0,0,0,1.22,1,5.53,5.53,0,0,0,4.35.13.52.52,0,0,0-.25-1A10.84,10.84,0,0,1,172.68,9a4.23,4.23,0,0,1-1.11-.33,1.83,1.83,0,0,1-.37-.25.62.62,0,0,1-.21-.31,1.45,1.45,0,0,1,.24-1,1.23,1.23,0,0,1,.66-.63.73.73,0,0,1,.78.32.83.83,0,0,1,.06.87,1.49,1.49,0,0,1-2.08.49c-.56-.3-1.08.54-.51.86Z"/><path class="cls-2" d="M30.11,12.88c9.42,0,18.84.16,28.25-.07a.26.26,0,1,0,0-.51c-9.41-.22-18.83-.09-28.25,0a.31.31,0,0,0,0,.61Z"/><path class="cls-2" d="M83.71,13.4c4.8,0,9.61-.19,14.4-.48,2.38-.14,4.76-.32,7.13-.52s4.75-.37,7.07-.8a.32.32,0,0,0-.07-.64c-2.37.1-4.74.43-7.11.65s-4.75.4-7.12.55q-7.14.46-14.29.54a.35.35,0,0,0,0,.7Z"/><path class="cls-2" d="M137.57,13q13.17.41,26.34.14c2.49-.05,5-.12,7.46-.36a.33.33,0,0,0,0-.65c-4.38-.09-8.78.17-13.17.25s-8.78.13-13.17.11c-2.49,0-5,0-7.46-.07a.29.29,0,0,0,0,.58Z"/><path class="cls-2" d="M21,41.59A100,100,0,0,1,21.28,52c0,3.37-.16,6.88.65,10.18.09.33.63.26.61-.08-.25-3.42-.51-6.8-.53-10.23s0-6.86-.3-10.27c0-.43-.71-.41-.67,0Z"/><path class="cls-2" d="M34.8,42.69c.06,3.16.1,6.31.09,9.47,0,1.54,0,3.07,0,4.61a46,46,0,0,0,.12,4.7c0,.39.62.24.66-.09a44.48,44.48,0,0,0,0-4.62c0-1.57,0-3.15-.06-4.73-.06-3.12-.08-6.23-.07-9.35,0-.51-.8-.49-.79,0Z"/><path class="cls-2" d="M21.39,42.57a57.65,57.65,0,0,0,13.13-.18c.31,0,.25-.55-.06-.53a98,98,0,0,1-13,0c-.49,0-.51.71,0,.75Z"/><path class="cls-2" d="M23.31,47.35c1.34-1,2.69-1.92,4-2.9.22-.16,0-.51-.21-.36-1.38.9-2.74,1.82-4.1,2.74-.33.22,0,.74.29.52Z"/><path class="cls-2" d="M24.23,51.83c2.7-2,5.51-3.8,8.28-5.68.36-.24.05-.8-.33-.57a82.83,82.83,0,0,0-8.33,5.58c-.41.3,0,1,.38.67Z"/><path class="cls-2" d="M24.81,56.32c2.91-1.91,5.92-3.66,8.94-5.39a.36.36,0,1,0-.36-.62,91.2,91.2,0,0,0-9,5.19c-.53.34-.05,1.17.47.82Z"/><path class="cls-2" d="M30.26,57c1.52-.89,3.07-1.75,4.56-2.7a.37.37,0,0,0-.37-.64c-1.57.81-3.09,1.72-4.62,2.6a.43.43,0,0,0,.43.74Z"/><path class="cls-2" d="M58.69,35.1c-.15,4.41-.32,8.82-.37,13.24,0,2.16,0,4.32,0,6.49s0,4.49.23,6.73a.39.39,0,0,0,.78,0c.17-2.25.08-4.5.07-6.74s0-4.33,0-6.49c0-4.41-.13-8.82-.13-13.23a.29.29,0,0,0-.58,0Z"/><path class="cls-2" d="M71.73,37.4c0,4-.18,8-.17,12,0,2,0,4,0,6a38.81,38.81,0,0,0,.28,5.91c.06.4.6.23.64-.09a42.17,42.17,0,0,0,.19-6l0-6c0-4-.13-7.93-.11-11.9a.41.41,0,0,0-.82,0Z"/><path class="cls-2" d="M61.08,35.9l4.5.09c1.5,0,3,.1,4.5,0a.34.34,0,0,0,0-.68c-1.48-.16-3-.16-4.49-.19L61.1,35a.44.44,0,0,0,0,.87Z"/><path class="cls-2" d="M68.41,37.72c.84,1.28,1.68,2.57,2.53,3.85.16.24.57,0,.41-.24-.79-1.31-1.6-2.61-2.41-3.91-.2-.33-.73,0-.53.3Z"/><path class="cls-2" d="M64.88,37.37c1.59,2.58,3,5.25,4.43,7.93.16.32.63,0,.49-.29a62.82,62.82,0,0,0-4.37-8c-.21-.34-.77,0-.55.32Z"/><path class="cls-2" d="M60.61,39.33a150.16,150.16,0,0,0,9.23,13.9c.22.3.75,0,.53-.3C67.16,48.37,64,43.81,61.19,39a.34.34,0,0,0-.58.34Z"/><path class="cls-2" d="M60.09,48.15a111.87,111.87,0,0,0,7.45,11.26c.22.3.74,0,.52-.3-2.6-3.69-5.13-7.39-7.38-11.3-.22-.37-.81,0-.59.34Z"/><path class="cls-2" d="M95.79,48.73c-.11,1.94-.17,3.89-.23,5.84a43.76,43.76,0,0,0,.07,5.84.37.37,0,0,0,.74,0c.11-1.94,0-3.91,0-5.85s.07-3.9.16-5.84c0-.5-.74-.47-.76,0Z"/><path class="cls-2" d="M109.18,49.1c0,1.95,0,3.9,0,5.85s-.12,3.9,0,5.84a.35.35,0,0,0,.7,0c.16-1.93.08-3.9.09-5.84s.06-3.9.11-5.84a.47.47,0,0,0-.93,0Z"/><path class="cls-2" d="M96.55,48.84l6.6.23,3.24.11a21,21,0,0,0,3.36,0c.35,0,.54-.6.1-.69a20.41,20.41,0,0,0-3.32-.17l-3.24-.09-6.72-.17a.37.37,0,0,0,0,.73Z"/><path class="cls-2" d="M97.38,54.06c.65-.59,1.28-1.2,1.88-1.84a17.34,17.34,0,0,0,1.7-2c.19-.29-.24-.59-.47-.35-.6.63-1.15,1.3-1.75,1.93S97.52,53,96.87,53.57c-.35.32.17.8.51.49Z"/><path class="cls-2" d="M99.16,57.92c2-2,4.2-3.84,6.25-5.82.24-.23-.11-.53-.35-.34a60.36,60.36,0,0,0-6.21,5.86.22.22,0,0,0,.31.3Z"/><path class="cls-2" d="M105.49,57.09a12.52,12.52,0,0,1,1.09-.83c.4-.26.81-.49,1.23-.72.25-.13.09-.56-.19-.46A9.42,9.42,0,0,0,105,56.57a.37.37,0,0,0,0,.53.39.39,0,0,0,.53,0Z"/><path class="cls-2" d="M132.39,23.67a233,233,0,0,0-1.17,27.95,77,77,0,0,0,.4,7.74c0,.32.54.22.55-.08.09-2.3,0-4.62,0-6.93s0-4.62,0-6.93c0-4.62.21-9.25.46-13.86.14-2.63.32-5.27.56-7.9,0-.48-.72-.46-.76,0Z"/><path class="cls-2" d="M148.72,24.6c-.1,4.44-.12,8.88-.29,13.32s-.28,8.8-.4,13.2a62.16,62.16,0,0,0,0,7.6.35.35,0,0,0,.7,0,60.51,60.51,0,0,0,.31-6.6c.07-2.24.07-4.48.1-6.72,0-4.4.12-8.8.15-13.2,0-2.54.15-5.07.19-7.6,0-.5-.76-.48-.77,0Z"/><path class="cls-2" d="M133.31,24c2.58.16,5.17.3,7.76.45l3.82.19a15.11,15.11,0,0,0,3.8,0,.4.4,0,0,0,0-.77,15.56,15.56,0,0,0-3.8-.37l-3.82-.22-7.76-.4a.55.55,0,0,0,0,1.09Z"/><path class="cls-2" d="M144.18,25.42c1.69,1.82,3.36,3.67,5.15,5.41.25.25.63-.13.4-.4-1.61-1.91-3.34-3.7-5-5.52-.31-.33-.82.17-.51.51Z"/><path class="cls-2" d="M139.3,26.15a71.25,71.25,0,0,0,6.44,7.33c.27.26.66-.14.42-.42-2.11-2.49-4.33-4.86-6.38-7.39-.26-.33-.74.15-.48.48Z"/><path class="cls-2" d="M133.89,26.66c4.05,4.78,7.72,9.86,11.7,14.7.18.22.57-.08.41-.32a169.69,169.69,0,0,0-11.79-14.7c-.19-.22-.51.1-.32.32Z"/><path class="cls-2" d="M133.9,35.13c4,4.56,7.88,9.21,12,13.65.29.31.72-.14.47-.46-3.8-4.72-7.82-9.28-11.75-13.89-.4-.47-1.11.23-.7.7Z"/><path class="cls-2" d="M133,42.82c3.91,4.32,7.65,8.81,11.73,13,.36.36.89-.19.57-.57-3.7-4.51-7.77-8.7-11.64-13.06-.39-.43-1.06.23-.66.66Z"/><path class="cls-2" d="M133.4,51.28c1.44,1.82,2.89,3.64,4.4,5.4.21.25.69-.1.48-.37-1.39-1.9-2.86-3.75-4.32-5.59a.4.4,0,0,0-.56.56Z"/></svg>