<svg id="Layer_1" data-name="Layer 1" xmlns="http://www.w3.org/2000/svg" viewBox="0 0 110.91 85.34"><defs><style>.cls-1{fill:#486afb;}.cls-2{fill:#fd46fc;}</style></defs><path class="cls-1" d="M34.54,33.72a37.93,37.93,0,0,0-14,5.41,19.88,19.88,0,0,0-7.85,10.45A14.77,14.77,0,0,0,14.53,61.9c2.82,4,7.82,5.8,12.52,6.46a61.21,61.21,0,0,0,15.71-.23c5-.6,10.38-1.66,14.72-4.38a14.17,14.17,0,0,0,6.42-10.5,16.17,16.17,0,0,0-3.31-11.86c-6-7.79-16.69-9.69-25.86-7.64a36.9,36.9,0,0,0-3.82,1.1.59.59,0,0,0,.3,1.15c4.8-1,9.85-1.69,14.73-.87a21.82,21.82,0,0,1,11,5.11,15.43,15.43,0,0,1,5.27,9.93,12.68,12.68,0,0,1-3.41,10.34C55.45,63.76,50.47,65,46,65.77A71.22,71.22,0,0,1,31.38,66.9C26.8,66.79,21.71,66,18,63.15a11.6,11.6,0,0,1-4.22-10.49c.82-9,9.76-14.51,17.67-16.7,1.15-.32,2.31-.59,3.48-.84.91-.2.54-1.59-.36-1.4Z"/><path class="cls-2" d="M67.85,33.72a37.89,37.89,0,0,0-14,5.41A19.88,19.88,0,0,0,46,49.58,14.77,14.77,0,0,0,47.84,61.9c2.83,4,7.82,5.8,12.52,6.46a61.28,61.28,0,0,0,15.72-.23c5-.6,10.38-1.66,14.71-4.38a14.18,14.18,0,0,0,6.43-10.5,16.21,16.21,0,0,0-3.31-11.86c-6-7.79-16.69-9.69-25.86-7.64a36.2,36.2,0,0,0-3.82,1.1.59.59,0,0,0,.3,1.15c4.79-1,9.84-1.69,14.72-.87a21.85,21.85,0,0,1,11,5.11,15.48,15.48,0,0,1,5.27,9.93,12.65,12.65,0,0,1-3.42,10.34c-3.32,3.25-8.3,4.46-12.74,5.26A71.22,71.22,0,0,1,64.7,66.9C60.12,66.79,55,66,51.29,63.15a11.61,11.61,0,0,1-4.23-10.49c.83-9,9.77-14.51,17.68-16.7,1.15-.32,2.31-.59,3.48-.84.91-.2.54-1.59-.37-1.4Z"/><path class="cls-1" d="M1.32,19.21q.41,8.52.73,17c.2,5.68.24,11.36.28,17s-.1,11.36-.22,17q-.09,4.23-.2,8.46a35.51,35.51,0,0,0-.06,3.86,2.7,2.7,0,0,0,1.68,2.56,4.58,4.58,0,0,0,1.69.09l2.25-.12c1.4-.07,2.83,0,4.24,0l8.48,0c5.7,0,11.4,0,17.1,0,11.35,0,22.7,0,34.05.08,5.74,0,11.48,0,17.22-.06s11.31,0,17-.12c1.41,0,2.82-.06,4.24,0a.79.79,0,0,0,.68-1.18,8,8,0,0,1-.51-3.76c.06-1.36.14-2.71.2-4.07.13-2.9.25-5.81.34-8.72.17-5.82.26-11.63.34-17.45s.11-11.64.08-17.45q0-4.44-.09-8.86c0-1.42,0-2.85-.09-4.27a2.76,2.76,0,0,0-1.17-2.49,2.87,2.87,0,0,0-1.69-.17l-2.23.23c-1.43.14-2.88.28-4.32.34-2.89.12-5.79.16-8.68.17-5.81,0-11.61-.05-17.42-.08-11.66-.05-23.31,0-35,0s-23.39,0-35.09.14L.91,17.5a.94.94,0,0,0,0,1.87l17.35-.16C24,19.15,29.83,19,35.61,19c11.49-.15,23-.16,34.47-.18s23,0,34.56-.49l2-.11,1-.06a3.52,3.52,0,0,1,1.12,0c.38.13.41.62.44,1,0,.67,0,1.35,0,2,0,2.87,0,5.74,0,8.6q0,8.61-.14,17.21c-.07,5.78-.23,11.55-.4,17.33-.08,2.86-.17,5.73-.25,8.59s-.37,5.62-.19,8.39a8.62,8.62,0,0,0,.89,3.48l.68-1.18c-2.83.06-5.66,0-8.48-.06l-8.36,0q-8.37,0-16.72,0c-11.19,0-22.37.13-33.56.19s-22.37,0-33.56,0c-1.38,0-2.74-.06-4.12-.12-.36,0-.89.06-1.09-.31a2.76,2.76,0,0,1-.14-1.25c0-2.82.15-5.64.17-8.46,0-5.56,0-11.11-.07-16.67S3.7,45.67,3.61,40.11s-.18-11.19-.4-16.79L3,19.22c0-1.1-1.76-1.11-1.71,0Z"/><path class="cls-1" d="M53.22,65.91a19.89,19.89,0,0,0,6.58-3.62,13.41,13.41,0,0,0,3.61-5.43,16.23,16.23,0,0,0-.73-12.74,18.69,18.69,0,0,0-5.27-6.28,1,1,0,0,0-1.37,0,1,1,0,0,0,0,1.38A16,16,0,0,1,62.5,49.66a12.81,12.81,0,0,1-3.24,10.72,16.51,16.51,0,0,1-6.49,3.77c-1.1.38-.65,2.15.45,1.76Z"/><path class="cls-2" d="M52.57,65.78c6.11,3.4,13.57,3.22,20.34,2.69A61,61,0,0,0,83.4,66.85,24.64,24.64,0,0,0,92.27,63c4.56-3.45,6.23-9.62,5.06-15.08S91.82,37.8,86.75,35.39c-6.94-3.31-15-3-22.16-.54a.59.59,0,0,0,.3,1.15c6.23-1.38,12.94-2,19,.26C88.71,38,93.22,41.65,95,46.53c1.74,4.69,1.09,10.37-2.57,14a18.27,18.27,0,0,1-7.81,4.1,54.75,54.75,0,0,1-9.84,1.86,70.74,70.74,0,0,1-10.89.39,25.11,25.11,0,0,1-10.49-2.57.86.86,0,0,0-.85,1.49Z"/><path class="cls-2" d="M68.21,33.72a41,41,0,0,0-11.9,4.09.83.83,0,0,0,.83,1.44,39.1,39.1,0,0,1,11.44-4.13c.91-.2.54-1.59-.37-1.4Z"/><path class="cls-1" d="M11.05.51A5.25,5.25,0,0,0,6.35.6a2.75,2.75,0,0,0-1,4,6.3,6.3,0,0,0,1.77,1.6A11.58,11.58,0,0,1,8.83,7.7,3.87,3.87,0,0,1,10,9.32c.11.51-.34.85-.75,1.06C8,11,6.52,10.54,5.35,10c-.56-.27-1.24.31-.89.89,1.5,2.51,6.2,2.4,7.36-.41.67-1.64-.56-3.14-1.65-4.24A15,15,0,0,0,8.28,4.65c-.51-.36-1.18-.72-1.44-1.33s.35-1,.84-1.15a3.24,3.24,0,0,1,2.39.06,1,1,0,0,0,1.36-.37A1,1,0,0,0,11.05.51Z"/><path class="cls-1" d="M13.26,37.77a48.63,48.63,0,0,1,.7-5.23c.09-.46.19-.93.3-1.4,0-.17.09-.34.13-.52s.06-.23.1-.34c-.26-.07-.32-.05-.17.07a3.15,3.15,0,0,0,.2.47l.13.4c.12.33.22.67.31,1,.37,1.32.65,2.67,1.09,4a11.45,11.45,0,0,0,.82,1.91c.32.57.81,1.4,1.5,1.53a.61.61,0,0,0,.76-.58,4.23,4.23,0,0,0-.79-1.64,10,10,0,0,1-.72-1.56c-.42-1.16-.7-2.36-1.1-3.52a17.66,17.66,0,0,0-.69-1.75c-.24-.51-.57-1.16-1.16-1.3s-1,.46-1.07,1c-.15.76-.31,1.52-.45,2.28a47.39,47.39,0,0,0-.64,5.17c0,.48.72.48.75,0Z"/><path class="cls-1" d="M14.26,36.34c.38,0,.78.12,1.17.14a3.62,3.62,0,0,0,.57,0,3.26,3.26,0,0,0,.45-.05,2,2,0,0,0,.4-.16.67.67,0,0,0,.13-1,1.7,1.7,0,0,0-.34-.26l-.23-.1a4.84,4.84,0,0,0-.73-.25c-.38-.11-.78-.16-1.16-.24a1.08,1.08,0,0,0-.75.1.94.94,0,0,0-.48.73,1,1,0,0,0,.19.73.8.8,0,0,0,.29.26.92.92,0,0,0,.49.13Z"/><path class="cls-2" d="M93.63,30.16c.13,1.41.2,2.82.23,4.23,0,.68,0,1.36,0,2s0,1.64.74,1.65.8-1.1.84-1.64.05-1.36.05-2c0-1.41-.07-2.82-.19-4.23a.88.88,0,0,0-.84-.85.86.86,0,0,0-.85.84Z"/><path class="cls-2" d="M95.05,30.47a3.59,3.59,0,0,1,2,.09,1.31,1.31,0,0,1,.86,1.17c-.06,1.22-1.59,1.74-2.59,1.8-.54,0-.55.86,0,.83a4.13,4.13,0,0,1,2.13.43c.51.26.91.69.47,1.22-.89,1.06-2.35,1.11-3.6,1.29-.49.07-.39.75,0,.88A3.88,3.88,0,0,0,97,37.85,3.55,3.55,0,0,0,99,36.05a1.76,1.76,0,0,0-1-2,4.2,4.2,0,0,0-2.8-.47l.21.81a6,6,0,0,0,2.39-.78,2.38,2.38,0,0,0,1-2,2.12,2.12,0,0,0-1.25-1.72,4.24,4.24,0,0,0-2.68-.15c-.51.1-.3.84.2.77Z"/></svg>