<svg id="Layer_1" data-name="Layer 1" xmlns="http://www.w3.org/2000/svg" viewBox="0 0 276.39 28.82"><defs><style>.cls-1{fill:#fd46fc;}.cls-2{fill:#486afb;}</style></defs><path class="cls-1" d="M34.15,17.77c-1,1.54-2,3.08-2.93,4.64-.46.74-.91,1.48-1.39,2.21S28.55,26.49,29.5,27a.63.63,0,0,0,.75,0c.31-.24.35-.63.55-.95s.43-.67.65-1c.43-.68.83-1.39,1.23-2.09.86-1.46,1.72-2.92,2.6-4.36.47-.76-.64-1.53-1.13-.78Z"/><path class="cls-1" d="M33.85,19c.66,1.76,1.42,3.48,2.2,5.18a36.28,36.28,0,0,0,2.35,4.5c.2.32.7.15.81-.15a3.09,3.09,0,0,0-.36-2.33c-.39-.86-.81-1.7-1.21-2.55-.82-1.76-1.6-3.53-2.29-5.34-.38-1-1.87-.28-1.5.69Z"/><path class="cls-1" d="M33.26,6.15c.12,2.31.23,4.61.32,6.92s-.06,4.45.67,6.52a.64.64,0,0,0,1.21-.22c0-2.19-.2-4.39-.3-6.58s-.24-4.61-.37-6.91c-.06-1-1.58-.7-1.53.27Z"/><path class="cls-1" d="M29.38,8.83a21.23,21.23,0,0,0,2.25,3.07c.38.43.79.82,1.2,1.23a7,7,0,0,1,.53.56,5.09,5.09,0,0,0,.58.65.56.56,0,0,0,.86-.41,2.3,2.3,0,0,0-.72-1.65c-.4-.42-.83-.8-1.23-1.21a23.08,23.08,0,0,1-2.38-2.93.65.65,0,0,0-1.09.69Z"/><path class="cls-1" d="M35.48,13.13c.85-.75,1.7-1.49,2.6-2.18a25.44,25.44,0,0,0,2.65-2.21.54.54,0,0,0-.57-.9,25.47,25.47,0,0,0-3.1,1.83c-.92.68-1.79,1.43-2.65,2.19A.86.86,0,0,0,34.3,13a.85.85,0,0,0,1.18.09Z"/><path class="cls-1" d="M31.51,2.5a4.1,4.1,0,0,0,.18,2.25,2.26,2.26,0,0,0,2.46,1.12,3.54,3.54,0,0,0,2.39-1.62,2.14,2.14,0,0,0,.34-1.84,1.78,1.78,0,0,0-1.15-1.09,4.4,4.4,0,0,0-1.94-.2,7.47,7.47,0,0,0-1.86.54.6.6,0,0,0,0,1.1,2.38,2.38,0,0,0,.84.08c.22,0,.44-.06.66-.1s.43-.08.65-.1h.22l.38,0,.15,0c-.11,0,0,0,0,0l.25.07.2.08c.1,0-.14-.11,0,0l0,0c.06,0,.06,0,0,0l0,0,.07.08c.09.09,0,0,0,0a.26.26,0,0,1,0,.1c0-.14,0,0,0,0v.06c0-.07,0-.09,0,0l-.12.32c0,.1.05-.09,0,0a.75.75,0,0,0-.07.12c0,.07-.09.13-.13.19a1.39,1.39,0,0,1-.15.19c.14-.11,0,0,0,0l-.11.1a1.2,1.2,0,0,1-.21.17s-.27.18-.1.08a4.37,4.37,0,0,1-.49.23c.14-.06-.06,0-.11,0l-.26,0c-.11,0,.15,0,0,0h-.24s-.2,0-.07,0a1.17,1.17,0,0,1-.2-.06l-.1,0c.14.06,0,0,0,0L33,4.31s-.08-.08,0,0,0,0,0,0a.31.31,0,0,0-.07-.09c-.06-.06.07.14,0,0a.31.31,0,0,0,0-.1c0-.08-.05-.15-.08-.22s0,.14,0,0l0-.12a2,2,0,0,1,0-.24,1.94,1.94,0,0,1,0-.24.53.53,0,0,1,0-.13v0c0-.17,0-.34,0-.51A.55.55,0,0,0,32.11,2a.56.56,0,0,0-.6.49Z"/><path class="cls-2" d="M.59,8.14a50.59,50.59,0,0,0,6,.39q1.45,0,2.91-.06c.52,0,1-.08,1.56-.14a1.76,1.76,0,0,0,1.25-.48.5.5,0,0,0,0-.71C11.61,6.57,10.4,6.9,9.53,7s-1.93.13-2.9.15a52.68,52.68,0,0,1-6-.21C-.21,6.82-.19,8,.59,8.14Z"/><path class="cls-2" d="M4.63,8.93c-.23,2-.43,4-.51,6,0,1,0,2,0,3a12.59,12.59,0,0,0,.22,2.94.58.58,0,0,0,1.12,0A16.07,16.07,0,0,0,5.67,18c0-1,.09-2,.14-3,.09-2,.17-4,.31-6,.07-1-1.39-.94-1.49,0Z"/><path class="cls-2" d="M.59,21.34l6.05,0a40.44,40.44,0,0,0,5.93-.13c.53-.08.33-.8-.11-.86a40.47,40.47,0,0,0-5.93-.07L.6,20.4a.47.47,0,0,0,0,.94Z"/><path class="cls-2" d="M19.69,3.93c-3.43,5.69-5.57,13.39-1.36,19.29a9.65,9.65,0,0,0,4,3.29.62.62,0,0,0,.62-1.08,12.35,12.35,0,0,1-5.32-8.79c-.52-4.26,1-8.48,3.13-12.11.4-.67-.65-1.26-1-.6Z"/><path class="cls-2" d="M46.71,27.24a26,26,0,0,0,3.56-10,27.25,27.25,0,0,0-.38-10.53A16.5,16.5,0,0,0,47.42,1.2c-.27-.36-1-.18-.8.33.54,1.59,1.15,3.15,1.55,4.78a40.18,40.18,0,0,1,1,5,23.23,23.23,0,0,1-1.18,10,26.56,26.56,0,0,1-2.46,5.23c-.46.76.74,1.45,1.21.69Z"/><path class="cls-2" d="M62.55,14.52a32.38,32.38,0,0,0,4.82.36q1.18,0,2.37-.09.62,0,1.23-.12a2.77,2.77,0,0,0,1.17-.29A.6.6,0,0,0,72,13.3a3,3,0,0,0-1.2,0q-.52.08-1,.12c-.76.07-1.52.11-2.29.13a30.54,30.54,0,0,1-4.58-.29.66.66,0,0,0-.78.45.64.64,0,0,0,.45.78Z"/><path class="cls-2" d="M63.91,18.54l5.14-.17,2.48-.07c.8,0,1.78.13,2.43-.43a.47.47,0,0,0-.1-.72c-.63-.46-1.59-.23-2.32-.19L69,17.08l-5,.22c-.8,0-.81,1.27,0,1.24Z"/><path class="cls-1" d="M88.63,7.75A10.22,10.22,0,0,0,84.19,9.6a1.64,1.64,0,0,0-.68,1.57,2.51,2.51,0,0,0,1.2,1.48,18.81,18.81,0,0,1,4.12,3.18,2.09,2.09,0,0,1-1.24,3.4c-1.9.48-3.59-.9-5.17-1.71-.45-.23-1.15.3-.78.78a6.48,6.48,0,0,0,4.43,2.6,4.11,4.11,0,0,0,4.21-2.08c1.68-3.46-3.07-5.64-5.28-7.2-.42-.29-.79-.69-.4-1.16a3.81,3.81,0,0,1,1.17-.76,11.31,11.31,0,0,1,3.09-1.06c.58-.12.35-1-.23-.89Z"/><path class="cls-1" d="M84.22,7.9c.32,2.26.53,4.53.7,6.81s.1,4.48.48,6.66a.51.51,0,0,0,1,0,29,29,0,0,0,0-6.9c-.17-2.32-.45-4.63-.79-6.93-.14-.92-1.52-.54-1.39.36Z"/><path class="cls-1" d="M87.26,8c.31,4.46.27,8.91.39,13.37a.43.43,0,0,0,.86,0A63.59,63.59,0,0,0,88.19,8c-.06-.59-1-.61-.93,0Z"/><path class="cls-1" d="M95.19,9.26a17.29,17.29,0,0,1,4.59.69c.79.28.7,1.06.59,1.75a12.84,12.84,0,0,1-.64,2.3c-1,2.78-2.71,5.78-1.29,8.71a.45.45,0,0,0,.83-.22,17.93,17.93,0,0,1,.94-5.17,31.21,31.21,0,0,0,1.42-4.93c.2-1.38.19-3-1.37-3.51A11.45,11.45,0,0,0,98,8.53c-.94-.1-1.87-.15-2.81-.18a.46.46,0,0,0,0,.91Z"/><path class="cls-1" d="M104.55,10.68a12.4,12.4,0,0,0-1.88,5.56c-.14,1.82.33,4,2.22,4.71s3.6-.57,4.25-2.22c.73-1.85,0-4-.82-5.65s-2.11-3.45-4.06-3.39c-.56,0-.87.85-.3,1.13a5.35,5.35,0,0,1,2.49,2.35,8,8,0,0,1,1.17,4c-.05,1-.81,2.39-2,2.21-1.39-.2-1.58-2.09-1.56-3.17a10.36,10.36,0,0,1,1.45-5,.56.56,0,0,0-1-.55Z"/><path class="cls-1" d="M110.74,11.87a40,40,0,0,1,0,4.24c0,.7-.09,1.41-.14,2.11a9,9,0,0,0,0,2.08.52.52,0,0,0,.94.13,6.44,6.44,0,0,0,.46-2c.08-.74.12-1.47.13-2.2,0-1.45-.07-2.89-.21-4.33-.08-.71-1.18-.75-1.15,0Z"/><path class="cls-1" d="M112.46,17.73c.88-.4,1.74-.84,2.57-1.32.41-.23.8-.48,1.19-.74a7,7,0,0,0,.69-.53,3.17,3.17,0,0,0,.53-.63.67.67,0,0,0-.74-1A11.06,11.06,0,0,0,114.17,15c-.79.52-1.61,1-2.44,1.44a.74.74,0,0,0-.27,1,.75.75,0,0,0,1,.27Z"/><path class="cls-1" d="M112,18.28a13.06,13.06,0,0,0,2.36,1.6,5.76,5.76,0,0,0,2.83.81.77.77,0,0,0,.38-1.42,4.22,4.22,0,0,0-.66-.36c-.09,0-.07,0,0,0l-.18-.08-.27-.12-.44-.19c-.13-.05.15.06,0,0l-.14-.06-.59-.28a11.27,11.27,0,0,1-1.06-.62c-.18-.11-.35-.24-.53-.37s.13.1,0,0l-.12-.1-.27-.22a1,1,0,0,0-1.37,0,1,1,0,0,0,0,1.37Z"/><path class="cls-1" d="M207.54,16.76c-1,1.53-2,3.08-2.92,4.63-.46.75-.91,1.49-1.4,2.22s-1.28,1.87-.33,2.38a.63.63,0,0,0,.75,0c.31-.25.35-.63.55-.95s.44-.68.65-1c.43-.69.83-1.39,1.24-2.09.85-1.46,1.71-2.92,2.6-4.36.46-.76-.65-1.53-1.14-.78Z"/><path class="cls-1" d="M207.24,18c.66,1.76,1.42,3.47,2.21,5.18a34.91,34.91,0,0,0,2.34,4.5c.21.32.7.15.81-.15a3.08,3.08,0,0,0-.36-2.34c-.39-.85-.81-1.69-1.2-2.54-.82-1.76-1.61-3.53-2.3-5.34-.37-1-1.87-.28-1.5.69Z"/><path class="cls-1" d="M206.65,5.14c.12,2.31.24,4.61.32,6.92s-.06,4.44.67,6.52a.64.64,0,0,0,1.21-.22c0-2.19-.2-4.39-.29-6.58s-.25-4.61-.38-6.91c-.06-1-1.58-.7-1.53.27Z"/><path class="cls-1" d="M202.78,7.82A20.44,20.44,0,0,0,205,10.89c.39.43.79.82,1.2,1.23a7,7,0,0,1,.53.56,5.07,5.07,0,0,0,.58.64.55.55,0,0,0,.86-.4,2.28,2.28,0,0,0-.72-1.65c-.39-.42-.83-.8-1.23-1.22a23,23,0,0,1-2.38-2.92.65.65,0,0,0-1.08.69Z"/><path class="cls-1" d="M208.87,12.12c.85-.75,1.7-1.49,2.6-2.18a25.44,25.44,0,0,0,2.65-2.21.54.54,0,0,0-.57-.9,24.61,24.61,0,0,0-3.09,1.83c-.93.68-1.8,1.42-2.66,2.19a.86.86,0,0,0-.11,1.18.85.85,0,0,0,1.18.09Z"/><path class="cls-1" d="M204.91,1.49a4.1,4.1,0,0,0,.17,2.25,2.27,2.27,0,0,0,2.46,1.12,3.56,3.56,0,0,0,2.4-1.63,2.19,2.19,0,0,0,.34-1.84A1.82,1.82,0,0,0,209.13.31a4.45,4.45,0,0,0-1.95-.2,7.18,7.18,0,0,0-1.86.54.6.6,0,0,0,0,1.1,2.64,2.64,0,0,0,.84.08,5,5,0,0,0,.66-.11c.21,0,.43-.07.65-.09h.22l.38,0,.15,0c-.11,0,0,0,0,0l.25.07.2.08c.1,0-.14-.11,0,0l0,0c.06,0,.06,0,0,0l0,0,.07.08c.09.09,0,0,0,0a.3.3,0,0,1,0,.11c0-.15,0,0,0,0v.07c0-.08,0-.09,0,0s-.09.21-.13.31.05-.08,0,0l-.07.12c0,.07-.09.13-.13.19a.9.9,0,0,1-.15.18c.14-.1,0,0,0,0a.94.94,0,0,0-.1.1l-.21.17s-.28.17-.11.08a4.37,4.37,0,0,1-.49.23c.14-.06-.06,0-.11,0l-.26,0h-.33l-.21-.06-.1,0c.14.06,0,0,0,0l-.08-.06s-.08-.09,0,0,0,0,0,0a.31.31,0,0,0-.07-.09c-.06-.07.07.13,0,0l-.06-.11-.08-.21c0-.09,0,.14,0,0l0-.12a2,2,0,0,1,0-.24,1.94,1.94,0,0,1,0-.24c0-.05,0-.09,0-.13s0,0,0,0,0-.33,0-.5a.54.54,0,0,0-1.08-.09Z"/><path class="cls-2" d="M193.08,2.92c-3.43,5.69-5.57,13.39-1.35,19.29a9.63,9.63,0,0,0,4,3.29.62.62,0,0,0,.62-1.08A12.35,12.35,0,0,1,191,15.63c-.52-4.27,1-8.48,3.14-12.11a.61.61,0,0,0-1.06-.6Z"/><path class="cls-2" d="M220.1,26.23a25.85,25.85,0,0,0,3.56-10,27.3,27.3,0,0,0-.38-10.54A16.45,16.45,0,0,0,220.81.19c-.27-.36-1-.18-.8.33.54,1.59,1.15,3.14,1.55,4.78a38.42,38.42,0,0,1,1,5,23,23,0,0,1-1.18,10,26.52,26.52,0,0,1-2.45,5.23c-.47.76.73,1.45,1.2.69Z"/><path class="cls-2" d="M235.94,13.51a33.78,33.78,0,0,0,4.82.36c.79,0,1.58,0,2.38-.09l1.22-.12a2.73,2.73,0,0,0,1.17-.29.6.6,0,0,0-.14-1.08,3,3,0,0,0-1.2,0q-.52.07-1.05.12c-.76.07-1.52.11-2.29.12a29.27,29.27,0,0,1-4.58-.28.66.66,0,0,0-.78.45.64.64,0,0,0,.45.78Z"/><path class="cls-2" d="M237.3,17.53c1.72-.06,3.43-.13,5.15-.17l2.47-.07c.81,0,1.79.12,2.43-.43a.47.47,0,0,0-.1-.72c-.63-.46-1.59-.23-2.32-.2l-2.57.13-5.05.22c-.8,0-.81,1.27,0,1.24Z"/><path class="cls-2" d="M175.52,19.67c1.57-4.5,3-9,4.49-13.57l-1.15.15c.62,1.32,1.07,2.72,1.58,4.09s1,2.67,1.52,4l1.47,3.91a21.45,21.45,0,0,0,1.75,4,.67.67,0,0,0,1.22-.5A19.84,19.84,0,0,0,185,17.72c-.53-1.32-1.08-2.64-1.62-4s-1.07-2.57-1.62-3.85S180.51,7.19,180,5.78a.63.63,0,0,0-1.21,0c-1.53,4.51-3.09,9-4.53,13.55-.25.8,1,1.11,1.25.34Z"/><path class="cls-2" d="M175.82,14.44l-.15.29a.76.76,0,0,0,.12.89c.83.72,2.06.65,3.1.74l1.62.14a3.82,3.82,0,0,0,1.9-.13.79.79,0,0,0,0-1.36,3.44,3.44,0,0,0-1.65-.29l-1.56-.05-1.5,0a2.44,2.44,0,0,1-1-.18l.35.83.07-.32a.7.7,0,0,0-.41-.82.69.69,0,0,0-.86.29Z"/><path class="cls-1" d="M256.94,9.48a19.89,19.89,0,0,1,3.45-.26,7.53,7.53,0,0,1,1.49.21c.35.09,1,.22,1.18.63s-.45,1-.72,1.34-.68.71-1,1a22.85,22.85,0,0,1-2.68,2.14.6.6,0,0,0,.14,1.08,28.67,28.67,0,0,1,3,1,1.5,1.5,0,0,1,.94.9c.1.45-.28.81-.58,1.1-1.21,1.21-2.74,1.33-4.36,1.37-.64,0-1,.95-.34,1.26,2.16,1.05,5-.23,6.21-2.13A2.19,2.19,0,0,0,263,16.1a6.29,6.29,0,0,0-1.73-.78l-2.23-.79.14,1.08a23.06,23.06,0,0,0,3.45-2.7c.88-.82,2.21-2,1.63-3.37-.49-1.14-2.09-1.37-3.18-1.47a17.07,17.07,0,0,0-4.45.37c-.69.12-.4,1.13.27,1Z"/><path class="cls-1" d="M266.58,9.73a9,9,0,0,1,2.68-.4,6.08,6.08,0,0,1,2.47.39c.84.4.2,1.21-.14,1.77a15.61,15.61,0,0,1-1.49,2.06c-1.07,1.24-2.53,2.35-3.1,3.93a1.78,1.78,0,0,0,.69,2.2,6.44,6.44,0,0,0,2.47.7,10.94,10.94,0,0,0,5.88-.77c.67-.32.28-1.25-.35-1.3a14.92,14.92,0,0,0-2.58.17,16,16,0,0,1-2.59.09,6.68,6.68,0,0,1-1.16-.19,5.72,5.72,0,0,1-.59-.17l-.13,0c-.13-.1-.16-.1-.09,0s0,.07,0,0a3.86,3.86,0,0,1,1.09-1.89,29.83,29.83,0,0,0,3-4.06,3.52,3.52,0,0,0,.72-2.23,1.84,1.84,0,0,0-1.38-1.4,8.45,8.45,0,0,0-2.7-.28,11.44,11.44,0,0,0-3,.51c-.57.18-.34,1.07.24.9Z"/></svg>