<svg id="Layer_1" data-name="Layer 1" xmlns="http://www.w3.org/2000/svg" viewBox="0 0 383.64 163.58"><defs><style>.cls-1{fill:#486afb;}.cls-2{fill:#fd46fc;}</style></defs><path class="cls-1" d="M162.56,88.29a29,29,0,0,1,.21,7c-.09,2.41-.09,4.83,0,7.24s.35,4.85.44,7.29,0,5,.19,7.55c.09,1.35.27,2.68.46,4a19.94,19.94,0,0,0,.61,4,.68.68,0,0,0,1.3,0,7,7,0,0,0,.09-3.55c-.15-1.19-.35-2.38-.46-3.58-.23-2.51-.19-5-.27-7.56s-.39-5-.51-7.55-.18-4.85-.17-7.27a35.58,35.58,0,0,0-.43-7.92c-.2-.94-1.64-.56-1.44.38Z" transform="translate(-0.01 0)"/><path class="cls-1" d="M164.49,126c1.87,0,3.74-.11,5.6-.2a47.9,47.9,0,0,1,5.36.12c3.71.22,7.43.31,11.14.39,7.42.18,14.84.28,22.26.37,2,0,4.06.09,6.08.28s4.09.63,6.14,1a.86.86,0,0,0,1.07-.81V127c0-.91-1.48-1.18-1.64-.22l0,.18,1-.6a35.46,35.46,0,0,0-10.94-1.52c-3.73-.09-7.46,0-11.19-.09-7.49-.11-15-.23-22.47-.53-2-.09-4-.28-6.08-.19s-4.22.28-6.33.29a.86.86,0,0,0,0,1.72Z" transform="translate(-0.01 0)"/><path class="cls-1" d="M222,124.92a122,122,0,0,1-.76-14.18c-.11-4.76-.5-9.52-.89-14.26-.22-2.7-.46-5.38-.75-8.07a1,1,0,0,0-1-1,1,1,0,0,0-1,1c.51,4.8.88,9.61,1.24,14.43s.39,9.64.56,14.47a75.77,75.77,0,0,0,.66,8.11,1,1,0,1,0,1.9-.49Z" transform="translate(-0.01 0)"/><path class="cls-1" d="M164.91,86.46l-.58.23a.77.77,0,0,0-.18,1.4,5.64,5.64,0,0,0,2.72.49c1,.06,2.08.09,3.13.1,2.16,0,4.32-.07,6.47-.15,4.44-.14,8.86-.36,13.29-.55s8.75-.35,13.13-.45,8.46-.26,12.68,0c2.1.12,4.14.41,6.22.72.66.1,1.32.2,2,.36a4.66,4.66,0,0,1,.89.3,2.92,2.92,0,0,1,.67.36.76.76,0,0,0,1.26-.73c-.26-1.38-2-1.73-3.12-1.94-1.52-.28-3.06-.51-4.59-.69a91.28,91.28,0,0,0-12.81-.29c-8.87.24-17.74.69-26.61,1.08-2.46.1-4.94.2-7.41.28-1.24,0-2.49.05-3.73,0-.6,0-1.21-.09-1.81-.06a3.28,3.28,0,0,1-1.61-.17v1.33l.58-.25c.77-.32.22-1.69-.57-1.38Z" transform="translate(-0.01 0)"/><path class="cls-1" d="M170.57,94.49h0s0,0,0,0Z" transform="translate(-0.01 0)"/><path class="cls-1" d="M170.05,94.66a21,21,0,0,0,3.53.53,10.82,10.82,0,0,0,3.5-.19.54.54,0,0,0,0-1,25.35,25.35,0,0,0-3.37-.37,27,27,0,0,1-3.24-.51c-1-.24-1.45,1.33-.43,1.57Z" transform="translate(-0.01 0)"/><path class="cls-1" d="M170.26,99.64c1,0,2.06.14,3.1.17.51,0,1,0,1.55,0a3.54,3.54,0,0,0,1.65-.22.67.67,0,0,0,0-1.15,4.25,4.25,0,0,0-1.63-.25c-.52,0-1-.09-1.55-.15-1-.12-2.06-.2-3.1-.24a.91.91,0,0,0-.91.9.92.92,0,0,0,.9.91Z" transform="translate(-0.01 0)"/><path class="cls-1" d="M170.87,103.58c1.16,0,2.32-.12,3.47-.24l1.67-.15a5.63,5.63,0,0,0,1.83-.32.57.57,0,0,0,0-1,4.17,4.17,0,0,0-1.82-.28c-.56,0-1.11,0-1.67.07-1.15.06-2.31.13-3.47.11a.9.9,0,0,0,0,1.79Z" transform="translate(-0.01 0)"/><path class="cls-1" d="M202.85,70.48q-.36,4.09-.52,8.19a56.22,56.22,0,0,0,.11,8.21.64.64,0,0,0,1.27,0c.3-2.73.3-5.46.38-8.21s.22-5.46.43-8.19c.08-1.08-1.58-1.08-1.67,0Z" transform="translate(-0.01 0)"/><path class="cls-1" d="M208,72.3a59.74,59.74,0,0,0-.17,7.45c0,1.23.12,2.45.18,3.68a11.6,11.6,0,0,0,.59,3.6c.2.52,1.16.54,1.08-.14a70.12,70.12,0,0,1-.16-7.25c0-2.45,0-4.89.14-7.33.08-1.08-1.57-1.07-1.66,0Z" transform="translate(-0.01 0)"/><path class="cls-1" d="M204.29,71.43a14.38,14.38,0,0,0,3.59.12,22.77,22.77,0,0,0,3.53-.88.51.51,0,0,0,.12-.93,3.14,3.14,0,0,0-1.87-.18c-.59.07-1.17.16-1.77.18a20.54,20.54,0,0,1-3.59-.2.94.94,0,0,0-1,.94,1,1,0,0,0,.94,1Z" transform="translate(-0.01 0)"/><path class="cls-1" d="M210.15,93.71a3.51,3.51,0,0,0,1.24,2,2.28,2.28,0,0,0,2.43-.3,1.93,1.93,0,0,0,.77-1,2.68,2.68,0,0,0,0-1.35,2.16,2.16,0,0,0-1.76-1.53,8,8,0,0,0-1.19-.21,1.22,1.22,0,0,0-1.3.81.68.68,0,0,0,.31.74.73.73,0,0,0,.32.09.67.67,0,0,0,.58-.34c0-.06.08-.09,0,0,.08-.08-.16.1-.06,0s0,0-.09,0l.09,0s-.18,0-.06,0h.3l.18,0c.14,0-.17,0,0,0l.1,0,.36.06c.14,0,.29,0,.43.09l.23.07.07,0-.05,0,.06,0,.16.09c.11.06-.12-.11,0,0l.05,0,.07.08c.08.07,0-.05,0-.06l.12.2c.05.07,0-.16,0,0s0,.07,0,.11a1.43,1.43,0,0,1,0,.22c0,.15,0-.14,0,0a.28.28,0,0,1,0,.09,1.22,1.22,0,0,1,0,.27v0c0,.07,0,0,0,0s0,.08,0,.09a.29.29,0,0,0,0,.09c0,.12.06-.1,0,0s-.1.13-.09.16.07-.1,0,0l-.08.08s-.09.12,0,0l-.07,0-.23.14-.24.11c.1,0,0,0,0,0a1.27,1.27,0,0,1-.18.06l-.21,0c.15,0,0,0-.09,0h-.11s.13,0,0,0l-.06,0-.07,0c.08,0,.1,0,0,0s-.13,0-.17-.1.07,0,0,0a.47.47,0,0,1-.1-.1l-.06-.06c-.1-.11,0,.08,0,0l-.12-.2a3.68,3.68,0,0,1-.23-.44s-.07-.16,0,0l-.05-.12a2.83,2.83,0,0,1-.11-.31.55.55,0,0,0-.66-.38.54.54,0,0,0-.39.66Z" transform="translate(-0.01 0)"/><path class="cls-1" d="M210.88,101.09a3.34,3.34,0,0,0,1.3,1.48,2.24,2.24,0,0,0,1,.24,3.05,3.05,0,0,0,1.08-.17,1.17,1.17,0,0,0,.8-.76,1.55,1.55,0,0,0,0-.88,5.33,5.33,0,0,0-.44-1,2.72,2.72,0,0,0-.63-.8,1.54,1.54,0,0,0-.86-.36,1.28,1.28,0,0,0-.55.09,1.93,1.93,0,0,0-.71.44,2,2,0,0,0-.45.76.53.53,0,0,0,.64.65l.54-.25c.05,0,.19-.09,0,0a.78.78,0,0,1,.21-.09c-.2,0-.11,0,0,0a.45.45,0,0,1,.11,0l.07,0c-.19.06-.16,0-.07,0h.06c.13,0-.21-.06-.09,0l.14,0h0c.14,0,0,0-.08,0a.54.54,0,0,0,.13.07c.16.1-.15-.13,0,0a2.44,2.44,0,0,1,.27.29l0,.06c-.16-.18-.06-.07,0,0l.12.18c.08.12.16.24.23.36a1.74,1.74,0,0,1,.15.26.3.3,0,0,1,0,.08s-.06-.18,0-.09a.83.83,0,0,0,0,.15c-.05-.16,0-.15,0-.09s0,0,0-.08a.06.06,0,0,0,0,0c0,.09.08-.14,0-.06a.08.08,0,0,0,0,0c0,.08.11-.11,0,0l0,0c-.06.07.14-.09,0,0l-.13.08-.11,0c.12,0,.05,0,0,0l-.22.06-.13,0c-.11,0,.09,0,0,0a2.41,2.41,0,0,1-.38,0c.13,0-.05,0-.08,0l-.18-.06c-.07,0,.1.06,0,0l-.09,0-.17-.11c-.09-.06.05,0,0,0l-.09-.08a.93.93,0,0,1-.14-.14l-.13-.15c.07.09,0,0,0,0l-.07-.09c-.09-.14-.17-.28-.25-.42a.46.46,0,0,0-.8.46Z" transform="translate(-0.01 0)"/><path class="cls-1" d="M210.57,106.14a6.09,6.09,0,0,0-.2,2.36,2.2,2.2,0,0,0,.63,1.18,2.41,2.41,0,0,0,1.49.6,2.52,2.52,0,0,0,2.48-1.51,2.71,2.71,0,0,0-.42-2.38,2.44,2.44,0,0,0-1.27-1,1.63,1.63,0,0,0-.85,0,1.34,1.34,0,0,0-.79.61.64.64,0,0,0,.55,1,3.09,3.09,0,0,1,.43,0c.18,0-.17,0-.05,0l.08,0c.17,0-.13-.07-.07,0l.27.11-.09,0,.11.06.08.05c.12.08-.19-.16,0,0a2.65,2.65,0,0,1,.33.34l-.14-.18a1.81,1.81,0,0,1,.19.29,1.09,1.09,0,0,1,.08.15l0,.07c.06.13-.08-.21,0-.08a1.68,1.68,0,0,1,.09.32.17.17,0,0,1,0,.07c0,.14,0-.22,0-.08a.81.81,0,0,1,0,.16s0,.1,0,.15c0-.27,0-.11,0,0s-.05.13,0,0,0,0,0,0a.21.21,0,0,1,0,.06s-.11.17,0,0,0,0-.06,0-.23.15,0,0l-.16.1-.07,0s-.19.09,0,0,0,0-.09,0l-.19,0c-.2,0,.19,0,0,0h-.22c-.05,0-.14,0-.19,0l-.09,0c-.09,0,.21.1.07,0l-.19-.1-.08,0c-.11-.07.09.06.08.06s-.11-.1-.13-.12l-.06-.06c-.06-.07.14.19.06.07l-.09-.15,0-.08c.11.22.06.16,0,.1s0-.1-.05-.16l0-.16c0-.14,0,.17,0,.08a.62.62,0,0,1,0-.13,4.21,4.21,0,0,1,0-.79s0-.14,0,0,0,0,0,0a1.1,1.1,0,0,0,0-.18c0-.13.05-.26.07-.39a.83.83,0,0,0-.07-.56.77.77,0,0,0-.45-.34.75.75,0,0,0-.9.52Z" transform="translate(-0.01 0)"/><path class="cls-1" d="M206.46,70.55A5,5,0,0,0,209.89,68a6.9,6.9,0,0,0,1.14-4.8c-.7-3.1-4.68-4.29-7.44-3.48-1.24.37-2.3,1.41-1.79,2.8a3.79,3.79,0,0,0,3.32,2.14,5.05,5.05,0,0,0,2.44-.94c.65-.4,1.32-.75,1.95-1.16a5.85,5.85,0,0,0,2.88-3.5c.35-1.76-.91-3.68-1.94-5s-2.4-2.79-4-3.12a5.82,5.82,0,0,0-2.49.13,2.19,2.19,0,0,0-1.58,1c-.71,1.45,1.51,2.23,2.5,2.57a7.56,7.56,0,0,0,2.62.49,6.46,6.46,0,0,0,2.71-.77,6.72,6.72,0,0,0,3.38-3.78c1.37-3.5-1.13-6.74-4.58-7.49-1.22-.27-3.28-.46-4.16.64a1.34,1.34,0,0,0,.11,1.84,2.18,2.18,0,0,0,1.75.44,9.56,9.56,0,0,0,3.76-1.32,7.5,7.5,0,0,0,3.6-4,11.25,11.25,0,0,0,.47-2.64c.06-.62-1-.92-1.22-.32a17.73,17.73,0,0,1-1.56,3.57,7.73,7.73,0,0,1-3,2.34l-.46.21c-.06,0-.45.2-.19.09l-.41.16a5.77,5.77,0,0,1-1.22.32c-.16,0-.32,0-.47,0s0,0,0,0a3.17,3.17,0,0,1,1.49-.41c2.34-.1,5.27,1.72,5.2,4.31a5.9,5.9,0,0,1-1.56,3.33,6.22,6.22,0,0,1-3.33,2,6.68,6.68,0,0,1-3.62-.58c-.34-.14-1.17-.46-.59-.8a4.15,4.15,0,0,1,1.81-.39c1.42-.05,2.43,1,3.33,2a10,10,0,0,1,2.1,3.49c.91,2.61-1.88,3.79-3.65,4.95-1.06.7-2,1.5-3.34.88-.9-.43-1.79-1.53-.61-2.26a5.2,5.2,0,0,1,4.23-.12,3.8,3.8,0,0,1,2.42,2.41,5.42,5.42,0,0,1-.9,4,4.3,4.3,0,0,1-1.14,1.53,4.62,4.62,0,0,1-1.68.7.59.59,0,0,0,.3,1.13Z" transform="translate(-0.01 0)"/><path class="cls-2" d="M82.49,122.38c.88-1.56,1.68-3.16,2.65-4.67a25.19,25.19,0,0,1,1.52-2.15,6.88,6.88,0,0,0,1.42-2.28c.1-.37-.33-.75-.66-.45a18,18,0,0,0-1.75,2A19.31,19.31,0,0,0,84.13,117c-.92,1.54-1.72,3.14-2.59,4.7-.37.66.58,1.31.95.66Z" transform="translate(-0.01 0)"/><path class="cls-2" d="M86.61,114.29c.48,1.41,1,2.82,1.51,4.2a15,15,0,0,0,2.08,4c.47.6,1.31,0,1.07-.68-.49-1.38-1.14-2.69-1.69-4s-1-2.73-1.52-4.11a.79.79,0,0,0-1-.39.83.83,0,0,0-.4,1.06Z" transform="translate(-0.01 0)"/><path class="cls-2" d="M86.47,106.55a44.13,44.13,0,0,1,.46,4.45c0,.73,0,1.46,0,2.19s-.11,1.43-.06,2.14a.6.6,0,0,0,1.08.23,4.7,4.7,0,0,0,.47-2.25c0-.77,0-1.54,0-2.31a39,39,0,0,0-.63-4.68.65.65,0,0,0-1.27.23Z" transform="translate(-0.01 0)"/><path class="cls-2" d="M87,110.93a5.09,5.09,0,0,1-.47-.34c-.1-.08-.07,0,0,0a.52.52,0,0,1-.11-.1l-.19-.2c-.29-.31-.57-.64-.86-1a10.64,10.64,0,0,0-.84-.94c-.32-.29-.67-.57-1-.86a.49.49,0,0,0-.76.48,4.22,4.22,0,0,0,.64,1.27l.18.26s.1.17.05.08,0,.09,0,.09c.15.23.29.46.45.69A6.71,6.71,0,0,0,86,112.35a.88.88,0,0,0,1.2-.23.87.87,0,0,0-.21-1.19Z" transform="translate(-0.01 0)"/><path class="cls-2" d="M88.11,112.18c.59-.52,1.16-1,1.75-1.55a11.26,11.26,0,0,0,1.67-1.78.59.59,0,0,0-.74-.87,8.07,8.07,0,0,0-2,1.35L87,110.87a.88.88,0,0,0-.11,1.21.86.86,0,0,0,1.2.1Z" transform="translate(-0.01 0)"/><path class="cls-2" d="M84.39,102.81a5.11,5.11,0,0,0,.06,2.27,2,2,0,0,0,2.39,1.07,3.58,3.58,0,0,0,2.57-1.94,2,2,0,0,0,.23-1.53,1.91,1.91,0,0,0-1.19-1.18,4.65,4.65,0,0,0-2-.22c-.31,0-.62.06-.93.11s-.6.12-.91.2a.57.57,0,0,0,0,1.13,7.11,7.11,0,0,0,1.53,0l.34,0c-.13,0,0,0,.05,0h.16a4.36,4.36,0,0,1,.72,0h.07l.12,0,.33.11s.16.09,0,0l.12.07.1.08c-.08-.08-.1-.09,0,0l0,.06c.08.07,0,.08,0,0a.37.37,0,0,0,0,.11s0-.18,0-.06,0,.09,0,.12,0-.15,0-.07,0,.09,0,.13,0-.12,0,0,0,.11,0,.16a1,1,0,0,1-.11.24c.12-.14,0,0,0,0l-.06.1-.16.23-.11.14c0,.07-.09.12,0,0a2.37,2.37,0,0,1-.48.41s-.08.09,0,0l-.15.08-.31.14c-.12,0,0,0,0,0l-.17,0a1.37,1.37,0,0,1-.28,0l-.18,0h0l-.31,0c.17,0,0,0-.09,0s0,0,0,0l-.08,0-.07-.06s.11.12,0,0l-.06-.07,0,0c0,.08.06.09,0,0s-.07-.13-.1-.2,0-.12,0,0c0,0,0-.09,0-.14s0-.16,0-.24a.31.31,0,0,0,0-.1s0-.18,0-.1,0-.06,0-.06v-.16c0-.08,0-.17,0-.26s0-.35,0-.53a.51.51,0,0,0-.46-.55.53.53,0,0,0-.57.47Z" transform="translate(-0.01 0)"/><path class="cls-2" d="M34.44,122.34c.88-1.56,1.68-3.16,2.65-4.67.47-.74,1-1.46,1.52-2.15A6.84,6.84,0,0,0,40,113.25c.1-.38-.33-.76-.66-.46a18,18,0,0,0-1.75,1.95A20.2,20.2,0,0,0,36.08,117c-.92,1.54-1.72,3.14-2.59,4.71-.37.65.58,1.31.95.65Z" transform="translate(-0.01 0)"/><path class="cls-2" d="M38.56,114.25c.48,1.41,1,2.82,1.51,4.21a15.2,15.2,0,0,0,2.08,4c.47.59,1.31,0,1.08-.68-.5-1.38-1.15-2.69-1.7-4s-1-2.74-1.52-4.12a.79.79,0,0,0-1-.38.81.81,0,0,0-.4,1Z" transform="translate(-0.01 0)"/><path class="cls-2" d="M38.42,106.51a44.43,44.43,0,0,1,.46,4.45c0,.73,0,1.46,0,2.19s-.11,1.43-.06,2.14a.6.6,0,0,0,1.08.23,4.67,4.67,0,0,0,.47-2.25c0-.77,0-1.54,0-2.3a38.69,38.69,0,0,0-.63-4.68.64.64,0,0,0-1.27.22Z" transform="translate(-0.01 0)"/><path class="cls-2" d="M39,110.9a5.2,5.2,0,0,1-.47-.35c-.1-.08-.07,0,0,0a1.14,1.14,0,0,1-.11-.11c-.07-.06-.13-.13-.19-.19l-.86-1a10.52,10.52,0,0,0-.84-.93c-.32-.3-.67-.57-1-.87s-.87.11-.76.49a4.46,4.46,0,0,0,.64,1.27,2.4,2.4,0,0,1,.18.26s.1.17.06.08,0,.08,0,.08c.15.24.29.47.45.7A6.67,6.67,0,0,0,38,112.31a.88.88,0,0,0,1.2-.22A.86.86,0,0,0,39,110.9Z" transform="translate(-0.01 0)"/><path class="cls-2" d="M40.07,112.14c.58-.52,1.15-1,1.74-1.55a10.84,10.84,0,0,0,1.67-1.78.6.6,0,0,0-.74-.87,7.84,7.84,0,0,0-2,1.35c-.59.51-1.17,1-1.75,1.55a.85.85,0,1,0,1.1,1.3Z" transform="translate(-0.01 0)"/><path class="cls-2" d="M36.35,102.77a5,5,0,0,0,0,2.28,2.06,2.06,0,0,0,2.39,1.07,3.59,3.59,0,0,0,2.57-2,2,2,0,0,0,.23-1.53,1.87,1.87,0,0,0-1.19-1.17,4.65,4.65,0,0,0-2-.23c-.31,0-.62.06-.93.11s-.6.13-.91.21a.57.57,0,0,0,0,1.13,6.52,6.52,0,0,0,1.53,0l.34,0c-.13,0,0,0,.05,0h.16a4.35,4.35,0,0,1,.72,0s.23.05.07,0l.12,0a2.19,2.19,0,0,1,.33.12s.16.09,0,0L40,103a.87.87,0,0,1,.1.08l0,0,0,.05c.08.08,0,.08,0,0a.54.54,0,0,0,0,.11s0-.18,0-.07,0,.1,0,.12,0-.14,0-.06,0,.08,0,.13,0-.12,0,0,0,.1,0,.16a1,1,0,0,1-.11.23c.12-.14,0,0,0,0l-.06.1-.16.24-.11.13c0,.07-.09.13,0,0a2,2,0,0,1-.48.4s-.08.09,0,0a1.19,1.19,0,0,1-.15.09l-.31.13c-.12,0,0,0,0,0l-.17,0-.28,0h-.18l-.31,0c.17,0,0,0-.09,0s0,0,0,0-.07,0-.08,0l-.07,0s.11.12,0,0l-.06-.07,0-.06c0,.08.06.1,0,.06l-.1-.2s0-.13,0,0l0-.13a1.9,1.9,0,0,1,0-.25s0-.06,0-.1,0-.17,0-.1,0-.06,0-.06v-.15a2.35,2.35,0,0,0,0-.26c0-.18,0-.36,0-.54a.51.51,0,1,0-1-.08Z" transform="translate(-0.01 0)"/><path class="cls-2" d="M112.91,112.45c-1,1.53-2,3.08-2.92,4.63-.46.74-.91,1.49-1.39,2.21s-1.29,1.9-.33,2.41a.68.68,0,0,0,.78,0c.31-.25.34-.64.54-1s.44-.67.66-1c.43-.68.82-1.39,1.23-2.09.86-1.46,1.72-2.91,2.6-4.36.48-.78-.66-1.57-1.17-.79Z" transform="translate(-0.01 0)"/><path class="cls-2" d="M112.62,113.66c.66,1.76,1.41,3.48,2.2,5.18.39.85.79,1.7,1.19,2.55a8.28,8.28,0,0,0,1.17,1.94.49.49,0,0,0,.76,0,2.62,2.62,0,0,0-.24-2.32c-.38-.88-.81-1.73-1.22-2.59-.83-1.79-1.63-3.58-2.33-5.43-.38-1-1.91-.29-1.53.71Z" transform="translate(-0.01 0)"/><path class="cls-2" d="M112,100.84c.12,2.3.24,4.61.32,6.92s0,4.44.68,6.52a.66.66,0,0,0,1.24-.23c0-2.19-.2-4.39-.29-6.58s-.25-4.61-.38-6.91c-.06-1-1.62-.72-1.57.28Z" transform="translate(-0.01 0)"/><path class="cls-2" d="M108.15,103.52a21.32,21.32,0,0,0,2.25,3.08c.38.42.79.82,1.19,1.22.19.18.37.37.54.56a4,4,0,0,0,.58.65.58.58,0,0,0,.89-.42,2.32,2.32,0,0,0-.72-1.66c-.4-.42-.83-.8-1.23-1.21a23.08,23.08,0,0,1-2.38-2.93.66.66,0,0,0-.86-.12.65.65,0,0,0-.26.83Z" transform="translate(-0.01 0)"/><path class="cls-2" d="M114.28,107.83c.84-.75,1.69-1.49,2.59-2.18a24.44,24.44,0,0,0,2.65-2.21.57.57,0,0,0,.12-.73.54.54,0,0,0-.7-.2,24.85,24.85,0,0,0-3.11,1.83c-.92.68-1.79,1.42-2.65,2.19a.85.85,0,1,0,1.1,1.3Z" transform="translate(-0.01 0)"/><path class="cls-2" d="M110.28,97.18a4.13,4.13,0,0,0,.17,2.26,2.28,2.28,0,0,0,2.48,1.13,3.54,3.54,0,0,0,2.41-1.63,2.17,2.17,0,0,0,.34-1.86A1.78,1.78,0,0,0,114.52,96a4.29,4.29,0,0,0-2-.21,7.26,7.26,0,0,0-.9.2,9.62,9.62,0,0,0-1,.35.61.61,0,0,0,0,1.13,2.46,2.46,0,0,0,.85.08c.23,0,.44-.06.66-.1l.65-.09s.2,0,.06,0h.16l.38,0,.15,0c-.12,0,0,0,0,0l.24.07.21.08c.1,0-.15-.11,0,0l0,0c.06,0,.06,0,0,0l0,0,.07.08c.09.09,0,0,0,0s0,.11,0,.1,0,0,0,0,0-.08,0,0,0-.09,0,0-.09.22-.13.32.06-.09,0,0a.75.75,0,0,1-.07.12l-.13.2a1.24,1.24,0,0,1-.14.18c.14-.11,0,0,0,0a1.14,1.14,0,0,1-.11.11,1.2,1.2,0,0,1-.21.17l-.09.07s-.12.12,0,0a1.58,1.58,0,0,1-.49.23c.15-.07,0,0-.1,0l-.27,0c-.1,0,.17,0,0,0h-.24s-.2,0-.06,0l-.21-.07-.09,0c.15.07,0,0,0,0l-.08-.06s-.06-.09,0,0,0,0,0,0l-.07-.09c-.07-.07.07.14,0,0a.47.47,0,0,0-.05-.1c0-.07,0-.14-.08-.22s0,.15,0,0l0-.12a2,2,0,0,1,0-.24,1.94,1.94,0,0,1,0-.24c0-.05,0-.09,0-.13s0,0,0,0,0-.34,0-.51a.57.57,0,0,0-.51-.6.58.58,0,0,0-.61.51Z" transform="translate(-0.01 0)"/><path class="cls-2" d="M11.09,114.61c-1,1.53-2,3.08-2.92,4.63-.46.74-.91,1.49-1.4,2.21s-1.29,1.9-.32,2.41a.66.66,0,0,0,.77,0c.31-.25.35-.64.55-1s.44-.67.65-1c.43-.68.83-1.39,1.24-2.09.85-1.46,1.71-2.91,2.6-4.36.47-.78-.67-1.57-1.17-.79Z" transform="translate(-0.01 0)"/><path class="cls-2" d="M10.79,115.82c.66,1.76,1.42,3.47,2.2,5.18.4.85.79,1.7,1.2,2.55a7.92,7.92,0,0,0,1.16,1.94.48.48,0,0,0,.76,0,2.62,2.62,0,0,0-.23-2.32c-.39-.88-.82-1.73-1.22-2.59-.84-1.79-1.64-3.59-2.34-5.43-.38-1-1.91-.29-1.53.71Z" transform="translate(-0.01 0)"/><path class="cls-2" d="M10.2,103c.11,2.3.23,4.61.32,6.92s-.06,4.44.67,6.52a.66.66,0,0,0,1.25-.23c0-2.19-.2-4.39-.3-6.58s-.24-4.61-.38-6.91c-.06-1-1.62-.72-1.56.28Z" transform="translate(-0.01 0)"/><path class="cls-2" d="M6.32,105.68a21.32,21.32,0,0,0,2.25,3.08c.39.42.8.82,1.2,1.22.18.18.37.37.53.56a5.17,5.17,0,0,0,.58.65.59.59,0,0,0,.9-.42,2.33,2.33,0,0,0-.73-1.66c-.39-.42-.83-.8-1.23-1.21A23.08,23.08,0,0,1,7.44,105a.66.66,0,0,0-.86-.12.67.67,0,0,0-.26.83Z" transform="translate(-0.01 0)"/><path class="cls-2" d="M12.45,110c.85-.75,1.7-1.49,2.59-2.18a25.55,25.55,0,0,0,2.66-2.21.57.57,0,0,0,.11-.73.55.55,0,0,0-.7-.21A26.08,26.08,0,0,0,14,106.5c-.92.68-1.8,1.42-2.65,2.18A.85.85,0,1,0,12.45,110Z" transform="translate(-0.01 0)"/><path class="cls-2" d="M8.45,99.34a4,4,0,0,0,.18,2.26,2.27,2.27,0,0,0,2.48,1.13,3.56,3.56,0,0,0,2.41-1.63,2.21,2.21,0,0,0,.34-1.86,1.82,1.82,0,0,0-1.16-1.09,4.35,4.35,0,0,0-2-.21,6.74,6.74,0,0,0-.89.2,8.81,8.81,0,0,0-1,.35.61.61,0,0,0,0,1.13,2.41,2.41,0,0,0,.85.08c.22,0,.44-.06.66-.1s.43-.08.65-.1h.21a2.34,2.34,0,0,1,.38,0l.15,0c-.11,0,0,0,0,0l.25.07.2.08c.1,0-.15-.11,0,0l.05,0c.05,0,.05,0,0,0l0,0a.27.27,0,0,1,.07.08c.09.09,0,0,0,0a.42.42,0,0,1,0,.1c0-.14,0,0,0,0s0-.09,0,0,0-.09,0,0l-.12.32c-.05.11,0-.09,0,0l-.07.12-.13.2a.84.84,0,0,1-.15.18c.14-.11,0,0,0,0l-.11.11-.21.17-.1.07c-.05,0-.11.12,0,0a1.69,1.69,0,0,1-.49.23c.15-.07-.05,0-.11,0l-.26,0c-.11,0,.16,0,0,0h-.12l-.12,0s-.2,0-.06,0l-.21-.07-.1,0c.15.07,0,0,0,0l-.08-.06s-.05-.09,0,0,0,0,0,0a.31.31,0,0,0-.07-.09c-.06-.07.08.14,0,0a.47.47,0,0,1-.05-.1,1.45,1.45,0,0,1-.09-.22c0-.08,0,.15,0,0a.5.5,0,0,1,0-.12,2,2,0,0,1,0-.24l0-.24v-.15c0-.17,0-.34,0-.51a.56.56,0,0,0-.5-.6.59.59,0,0,0-.62.51Z" transform="translate(-0.01 0)"/><path class="cls-2" d="M62.09,112.29c-1,1.53-2,3.08-2.92,4.63-.46.74-.91,1.49-1.4,2.21s-1.29,1.9-.32,2.41a.66.66,0,0,0,.77,0c.32-.25.35-.64.55-1s.44-.67.65-1c.44-.68.83-1.39,1.24-2.09.86-1.46,1.71-2.91,2.6-4.36.48-.78-.66-1.57-1.17-.79Z" transform="translate(-0.01 0)"/><path class="cls-2" d="M61.79,113.5c.66,1.76,1.42,3.48,2.21,5.18.39.85.78,1.7,1.19,2.55a8.28,8.28,0,0,0,1.17,1.94.49.49,0,0,0,.76,0,2.62,2.62,0,0,0-.24-2.32c-.38-.88-.82-1.73-1.22-2.59-.83-1.79-1.63-3.58-2.33-5.43-.39-1-1.91-.28-1.54.71Z" transform="translate(-0.01 0)"/><path class="cls-2" d="M61.2,100.68c.12,2.3.24,4.61.32,6.92s-.05,4.44.68,6.52a.66.66,0,0,0,1.24-.23c0-2.19-.2-4.39-.3-6.58s-.24-4.61-.38-6.91c-.06-1-1.61-.72-1.56.28Z" transform="translate(-0.01 0)"/><path class="cls-2" d="M57.33,103.36a20.59,20.59,0,0,0,2.25,3.08c.38.42.79.82,1.19,1.22.18.19.37.37.54.57a3.9,3.9,0,0,0,.58.64.57.57,0,0,0,.89-.42,2.29,2.29,0,0,0-.73-1.66c-.39-.42-.83-.8-1.23-1.21a23,23,0,0,1-2.37-2.93.66.66,0,0,0-.86-.12.65.65,0,0,0-.26.83Z" transform="translate(-0.01 0)"/><path class="cls-2" d="M63.45,107.67c.85-.75,1.7-1.49,2.6-2.18a25.44,25.44,0,0,0,2.65-2.21.57.57,0,0,0,.12-.73.56.56,0,0,0-.71-.2,25.47,25.47,0,0,0-3.1,1.83c-.92.68-1.79,1.42-2.65,2.19a.85.85,0,1,0,1.09,1.3Z" transform="translate(-0.01 0)"/><path class="cls-2" d="M59.46,97a4,4,0,0,0,.17,2.26,2.27,2.27,0,0,0,2.48,1.13,3.54,3.54,0,0,0,2.41-1.63,2.17,2.17,0,0,0,.34-1.86,1.82,1.82,0,0,0-1.16-1.09,4.31,4.31,0,0,0-2-.21,6.54,6.54,0,0,0-.9.2,8.81,8.81,0,0,0-1,.35.61.61,0,0,0,0,1.13,2.44,2.44,0,0,0,.85.08c.22,0,.44-.06.66-.1s.43-.07.65-.09c0,0,.2,0,.06,0h.15a2.34,2.34,0,0,1,.38,0l.16,0c-.12,0,0,0,0,0l.25.07.21.08c.09,0-.15-.11,0,0l0,0c.06,0,.06,0,0,0l0,0,.07.08c.08.09,0,0,0,0s0,.11,0,.1,0,0,0,0,0-.08,0,0,0-.09,0,0-.09.22-.13.32,0-.09,0,0a.75.75,0,0,1-.07.12l-.13.2a.84.84,0,0,1-.15.18c.15-.11,0-.05,0,0a1.14,1.14,0,0,1-.11.11l-.21.17-.1.07s-.11.12,0,0A1.47,1.47,0,0,1,62,99c.15-.07,0,0-.1,0l-.27,0c-.11,0,.16,0,0,0h-.24s-.2,0-.06,0l-.21-.07-.09,0c.14.07,0,0,0,0l-.08-.06s-.06-.09,0,0,0,0,0,0l-.07-.09c-.07-.07.07.14,0,0s0-.07,0-.1l-.09-.22c0-.08,0,.15,0,0a.5.5,0,0,0,0-.12,2,2,0,0,1,0-.24,1.94,1.94,0,0,1,0-.24.57.57,0,0,1,0-.13v-.53a.56.56,0,0,0-.5-.6.58.58,0,0,0-.61.51Z" transform="translate(-0.01 0)"/><path class="cls-1" d="M123,127.33q-14.76-.72-29.54-1c-9.89-.18-19.79-.19-29.68-.25s-19.7-.12-29.55,0l-14.77.07-7.39,0a26,26,0,0,0-6.23.5,7.91,7.91,0,0,0-4.54,2.82,5.93,5.93,0,0,0-1.15,4.6c.89,4.5,6.54,3.49,9.82,3.46,9.85-.08,19.69,0,29.54,0s19.68-.08,29.53-.05,19.69.1,29.53.11,19.78.07,29.67,0c1.78,0,3.91.14,5.45-.94a4.06,4.06,0,0,0,1.27-4.89c-.74-1.85-2.6-3-4.33-3.81a19.79,19.79,0,0,0-6-1.76,19.21,19.21,0,0,0-6.19.25c-.81.15-.48,1.39.33,1.24a17.81,17.81,0,0,1,12,1.92c1.53.87,3.34,2.33,3.06,4.32s-2.63,2-4.08,2c-9.36.06-18.73,0-28.1.05s-18.9.09-28.34.14-18.81,0-28.22,0-18.9.18-28.35.11l-7,0c-1.14,0-2.27-.06-3.4-.13a9.3,9.3,0,0,1-2.67-.41,2.91,2.91,0,0,1-2-3.42,4.82,4.82,0,0,1,2.7-3.57,13.08,13.08,0,0,1,5.78-1c2.3,0,4.61,0,6.92,0q7,0,14.11,0,14.11,0,28.23.14c9.45.08,18.91.29,28.36.38s18.9.21,28.36.16l6.86,0a.51.51,0,0,0,0-1Z" transform="translate(-0.01 0)"/><path class="cls-1" d="M8.7,128.44c1.49,1,3.18,2.74,2.58,4.71a3.71,3.71,0,0,1-1.55,1.92c-.77.52-1.69.75-2.47,1.25a.38.38,0,0,0,.19.7,6,6,0,0,0,3.14-1.18,4.71,4.71,0,0,0,2-2.46c.79-2.53-1.33-4.71-3.3-5.93-.63-.39-1.17.58-.57,1Z" transform="translate(-0.01 0)"/><path class="cls-1" d="M126.37,127.7a5.77,5.77,0,0,0-3,4.09,7.07,7.07,0,0,0-.16,2.82c.23,1.39,1.81,1.89,3,2.08a.55.55,0,0,0,.52-.91,6.88,6.88,0,0,0-1.19-1,3,3,0,0,1-.5-.36A1,1,0,0,1,125,134a7.62,7.62,0,0,1-.11-2.09A3.72,3.72,0,0,1,127,128.7a.59.59,0,0,0,.21-.79.6.6,0,0,0-.79-.21Z" transform="translate(-0.01 0)"/><path class="cls-1" d="M62.12,127.63a5.44,5.44,0,0,0-4,4.51,5.26,5.26,0,0,0,2.9,5.17,5.07,5.07,0,0,0,6-1.26,5.19,5.19,0,0,0,.31-6.15,5.4,5.4,0,0,0-3.15-2.3,4.46,4.46,0,0,0-3.9.49.56.56,0,0,0,.4.95,17.37,17.37,0,0,1,2.7-.07,4.21,4.21,0,0,1,2.31,1.2,3.51,3.51,0,0,1,.52,4.49,3.82,3.82,0,0,1-4,1.55,4,4,0,0,1-2.8-3.43,4.21,4.21,0,0,1,3-4.22.48.48,0,0,0-.24-.93Z" transform="translate(-0.01 0)"/><path class="cls-1" d="M33.17,127.67a4.35,4.35,0,0,0-4.46,3.76,5,5,0,0,0,3.46,5.19,5.5,5.5,0,0,0,5.94-1.68,4.43,4.43,0,0,0,1-3,5.65,5.65,0,0,0-1.52-3.27,4.94,4.94,0,0,0-3.31-1.7c-1.19-.06-2.71.45-3.11,1.68a.55.55,0,0,0,.79.61,3.91,3.91,0,0,1,2-.79,3.51,3.51,0,0,1,2.15.87,4.65,4.65,0,0,1,1.52,2.21,2.78,2.78,0,0,1-.41,2.17c-1.89,3-7,2.14-7.42-1.49a3.17,3.17,0,0,1,3.28-3.58c.61,0,.61-.9,0-1Z" transform="translate(-0.01 0)"/><path class="cls-1" d="M94,127.12a6.51,6.51,0,0,0-6,2.44,5.38,5.38,0,0,0-.34,6.49,5,5,0,0,0,3.54,1.63,8.3,8.3,0,0,0,4.49-.53,4.68,4.68,0,0,0,2.59-6.22,5.6,5.6,0,0,0-3.16-2.75,6.69,6.69,0,0,0-4.5-.12.39.39,0,0,0,.1.76,13.89,13.89,0,0,1,3.28.26,4.27,4.27,0,0,1,2.42,1.69,3.47,3.47,0,0,1,.6,2.55,3.31,3.31,0,0,1-1.64,2.06,6.29,6.29,0,0,1-3.13.71,5.51,5.51,0,0,1-3.13-.62c-1.49-1.08-1.19-3.42-.36-4.8A5.43,5.43,0,0,1,93.84,128c.5.06.62-.81.11-.88Z" transform="translate(-0.01 0)"/><path class="cls-1" d="M371.36,128q-14.76-.72-29.54-1c-9.9-.18-19.79-.19-29.68-.25s-19.7-.12-29.55,0l-14.78.07-7.38,0a26,26,0,0,0-6.23.5,7.85,7.85,0,0,0-4.54,2.82,5.87,5.87,0,0,0-1.15,4.59c.88,4.51,6.53,3.5,9.82,3.47,9.84-.08,19.69,0,29.53,0s19.69-.08,29.53,0,19.69.1,29.54.11,19.77.07,29.66,0c1.79,0,3.91.14,5.46-.94a4.07,4.07,0,0,0,1.27-4.89c-.75-1.86-2.6-3-4.33-3.81a19.79,19.79,0,0,0-6-1.76,19.2,19.2,0,0,0-6.19.25c-.81.15-.48,1.39.32,1.24a17.8,17.8,0,0,1,12,1.92c1.54.87,3.34,2.33,3.06,4.32s-2.62,2-4.07,2c-9.37.06-18.74,0-28.1.05s-18.9.09-28.35.14-18.81,0-28.21,0-18.9.18-28.35.11l-7,0c-1.13,0-2.26-.06-3.4-.13a9.18,9.18,0,0,1-2.66-.41,2.91,2.91,0,0,1-2-3.42,4.8,4.8,0,0,1,2.7-3.57,13.06,13.06,0,0,1,5.77-1c2.31,0,4.62,0,6.92,0q7.06,0,14.12,0,14.11.06,28.22.15c9.46.08,18.91.29,28.36.38s18.91.21,28.36.16l6.86,0a.51.51,0,0,0,0-1Z" transform="translate(-0.01 0)"/><path class="cls-1" d="M257.11,129.11c1.49,1,3.17,2.74,2.58,4.71a3.81,3.81,0,0,1-1.55,1.92c-.77.52-1.69.75-2.47,1.25a.38.38,0,0,0,.19.7A6.1,6.1,0,0,0,259,136.5a4.69,4.69,0,0,0,2-2.45c.79-2.53-1.34-4.71-3.31-5.93-.62-.39-1.16.58-.56,1Z" transform="translate(-0.01 0)"/><path class="cls-1" d="M374.78,128.37a5.72,5.72,0,0,0-3,4.09,7.26,7.26,0,0,0-.17,2.82c.24,1.39,1.81,1.89,3,2.08a.55.55,0,0,0,.52-.91,6.48,6.48,0,0,0-1.19-1,3,3,0,0,1-.5-.36,1.38,1.38,0,0,1-.13-.42,7.63,7.63,0,0,1-.1-2.09,3.74,3.74,0,0,1,2.08-3.19.57.57,0,0,0,.21-.78.58.58,0,0,0-.78-.21Z" transform="translate(-0.01 0)"/><path class="cls-1" d="M310.53,128.3a5.45,5.45,0,0,0-4,4.51,5.27,5.27,0,0,0,2.91,5.17,5.05,5.05,0,0,0,6-1.26,5.19,5.19,0,0,0,.31-6.15,5.31,5.31,0,0,0-3.14-2.3,4.46,4.46,0,0,0-3.9.49.56.56,0,0,0,.39,1,17.5,17.5,0,0,1,2.71-.07,4.15,4.15,0,0,1,2.3,1.2,3.48,3.48,0,0,1,.52,4.49,3.8,3.8,0,0,1-4,1.55,4,4,0,0,1-2.8-3.43,4.2,4.2,0,0,1,3-4.22.48.48,0,0,0-.24-.93Z" transform="translate(-0.01 0)"/><path class="cls-1" d="M281.58,128.34a4.34,4.34,0,0,0-4.46,3.76,5,5,0,0,0,3.45,5.19,5.51,5.51,0,0,0,5.95-1.68,4.42,4.42,0,0,0,1-3,5.56,5.56,0,0,0-1.52-3.27,4.92,4.92,0,0,0-3.31-1.7c-1.18-.06-2.71.45-3.11,1.68a.56.56,0,0,0,.8.61,3.88,3.88,0,0,1,2-.79,3.46,3.46,0,0,1,2.14.87,4.6,4.6,0,0,1,1.53,2.21,2.78,2.78,0,0,1-.42,2.17c-1.89,3-6.95,2.14-7.41-1.49a3.16,3.16,0,0,1,3.27-3.58c.61,0,.61-.9,0-.95Z" transform="translate(-0.01 0)"/><path class="cls-1" d="M342.36,127.79a6.53,6.53,0,0,0-6,2.44,5.38,5.38,0,0,0-.33,6.49,5,5,0,0,0,3.54,1.63,8.26,8.26,0,0,0,4.48-.53,4.69,4.69,0,0,0,2.6-6.22,5.56,5.56,0,0,0-3.16-2.75,6.72,6.72,0,0,0-4.51-.13.39.39,0,0,0,.1.77,13.85,13.85,0,0,1,3.28.26,4.29,4.29,0,0,1,2.43,1.69,3.41,3.41,0,0,1,.59,2.54,3.29,3.29,0,0,1-1.63,2.07,6.17,6.17,0,0,1-3.13.7,5.47,5.47,0,0,1-3.14-.61c-1.49-1.09-1.18-3.42-.35-4.8a5.41,5.41,0,0,1,5.13-2.67c.5.06.62-.81.12-.88Z" transform="translate(-0.01 0)"/><path class="cls-1" d="M163.27,92.18c-2.15-2-4.21-4.05-6.3-6.09q-1.54-1.52-3.07-3c-.5-.49-1-1-1.49-1.48s-1-1.21-1.64-1.35a.5.5,0,0,0-.6.6c.1.64.79,1.16,1.22,1.61s1,1,1.46,1.52c1,1.06,2.09,2.1,3.15,3.13,2.09,2,4.3,4,6.48,5.91.54.48,1.33-.3.79-.8Z" transform="translate(-0.01 0)"/><path class="cls-1" d="M163.63,121.9c-1.94,1.94-4,3.73-6,5.64-1,.94-1.92,1.92-2.9,2.86a11.42,11.42,0,0,0-2.69,3.11.6.6,0,0,0,.82.8,11.26,11.26,0,0,0,3.1-2.54c1-1,2-1.93,3-2.9,2-1.93,3.8-4,5.79-5.87.73-.7-.4-1.82-1.12-1.1Z" transform="translate(-0.01 0)"/><path class="cls-1" d="M220.75,94.72A76.82,76.82,0,0,0,229,88c1.31-1.21,2.56-2.47,3.82-3.74l1.8-1.81a6.42,6.42,0,0,0,1.64-2,.5.5,0,0,0-.6-.6,6.26,6.26,0,0,0-1.93,1.55c-.61.6-1.21,1.2-1.83,1.79Q230,85,228.05,86.76c-2.56,2.37-5.18,4.72-8,6.84-.65.5,0,1.61.65,1.12Z" transform="translate(-0.01 0)"/><path class="cls-1" d="M221.73,123.18c1.87,2.79,3.84,5.48,6,8.08,1.06,1.28,2.19,2.5,3.33,3.72.57.6,1.15,1.2,1.74,1.78s1.1,1.31,1.83,1.52a.42.42,0,0,0,.51-.51,5.28,5.28,0,0,0-1.43-1.77c-.57-.61-1.13-1.22-1.69-1.84-1.09-1.21-2.12-2.47-3.18-3.71a93.79,93.79,0,0,1-6-7.9c-.45-.66-1.53,0-1.09.63Z" transform="translate(-0.01 0)"/><path class="cls-2" d="M315.65,113.07c1.21.08,2.45.08,3.66.24.29,0,.33,0,.31.35a5.05,5.05,0,0,1-.49,1.43c-.48,1.15-.94,2.3-1.41,3.46-.24.59-.49,1.18-.71,1.78a2.25,2.25,0,0,0-.17,1.89.64.64,0,0,0,.7.29c.76-.24,1-1.07,1.31-1.73s.59-1.46.88-2.19a41.31,41.31,0,0,0,1.55-4c.33-1.2.06-2.61-1.31-3a11.26,11.26,0,0,0-2.09-.16l-2.23-.1c-1.09-.06-1.09,1.62,0,1.69Z" transform="translate(-0.01 0)"/><path class="cls-2" d="M325.25,111.91a2.38,2.38,0,0,0-1.69,2.87c.3,1.4,1.49,2.13,2.51,3,.35.28.85.69.79,1.2,0,.36-.54.41-.89.49-.77.18-1.53.37-2.3.58s-1.72.36-2.1,1a.6.6,0,0,0,.22.82c.61.4,1.68.07,2.34-.06s1.55-.32,2.32-.5a3.21,3.21,0,0,0,1.75-.9,2.3,2.3,0,0,0,.45-2c-.34-1.44-1.64-2-2.66-2.85a1.87,1.87,0,0,1-.79-1.23.64.64,0,0,1,.48-.71.85.85,0,0,0,.6-1,.87.87,0,0,0-1-.6Z" transform="translate(-0.01 0)"/><path class="cls-2" d="M326,113.18h2.24a4.67,4.67,0,0,0,2.43-.37.72.72,0,0,0,0-1.23,4.58,4.58,0,0,0-2.41-.37H326a1,1,0,1,0,0,2Z" transform="translate(-0.01 0)"/><path class="cls-2" d="M331.89,115.13l-.3,3.39a7.63,7.63,0,0,0,.07,3.43.66.66,0,0,0,1.19.16,7.91,7.91,0,0,0,.71-3.51l.31-3.46a1,1,0,0,0-1-1,1,1,0,0,0-1,1Z" transform="translate(-0.01 0)"/><path class="cls-2" d="M334.16,118.92l2.44-1.68c.45-.32.91-.62,1.35-.95s1.09-.77,1.05-1.36a.77.77,0,0,0-.38-.66,1,1,0,0,0-.66-.1,3.05,3.05,0,0,0-.46.2,5,5,0,0,0-.65.34c-.42.26-.82.55-1.23.83l-2.45,1.67a1,1,0,0,0,1,1.71Z" transform="translate(-0.01 0)"/><path class="cls-2" d="M333.77,120.52l2.09,1.65a7.29,7.29,0,0,0,2.47,1.58.77.77,0,0,0,.86-1.12,6.7,6.7,0,0,0-2-1.89l-2.06-1.62a1.07,1.07,0,0,0-.69-.29,1,1,0,0,0-.71.3,1,1,0,0,0,0,1.39Z" transform="translate(-0.01 0)"/><path class="cls-2" d="M310.86,112.69a6.35,6.35,0,0,0-5.54-1c-1.64.56-3,2.37-2.1,4.11.62,1.23,2.08,1.6,3.27,2a3.08,3.08,0,0,1,1.52,1,1.63,1.63,0,0,1-.44,2.1,3.61,3.61,0,0,1-3.13.57c-.65-.1-2.33-.25-2.53-1.07a.47.47,0,0,0-.92.11,1.94,1.94,0,0,0,1.47,1.82,8,8,0,0,0,3.05.5c1.81-.06,3.75-1.23,3.76-3.23,0-1.62-1.46-2.39-2.76-2.9s-3.13-1.13-2.35-2.85a3.12,3.12,0,0,1,2.83-1.49,5.71,5.71,0,0,1,3.48,1c.42.29.8-.4.39-.7Z" transform="translate(-0.01 0)"/><path class="cls-2" d="M304.31,110.71q-.44,3.81-.64,7.63a47.65,47.65,0,0,0,.05,7.65.27.27,0,0,0,.54,0c.32-2.53.39-5.1.58-7.65s.46-5.09.77-7.62c.1-.83-1.2-.83-1.3,0Z" transform="translate(-0.01 0)"/><path class="cls-2" d="M307.2,110c-.34,2.47-.65,5-.83,7.44a49.24,49.24,0,0,0-.21,7.58.38.38,0,0,0,.75,0c.3-2.48.35-5,.57-7.46s.44-5,.75-7.43c.08-.58-.94-.72-1-.14Z" transform="translate(-0.01 0)"/><path class="cls-2" d="M264.34,111.73a6.41,6.41,0,0,0-5.55-1c-1.64.57-3,2.38-2.1,4.11.63,1.24,2.09,1.6,3.28,2a3.08,3.08,0,0,1,1.52,1,1.65,1.65,0,0,1-.45,2.1,3.66,3.66,0,0,1-3.12.57c-.66-.1-2.34-.25-2.54-1.07a.47.47,0,0,0-.92.11,1.94,1.94,0,0,0,1.47,1.82,8,8,0,0,0,3.05.5c1.81-.07,3.75-1.23,3.77-3.23,0-1.62-1.47-2.39-2.77-2.9s-3.12-1.13-2.34-2.85a3.1,3.1,0,0,1,2.82-1.49,5.69,5.69,0,0,1,3.48,1c.43.29.81-.4.4-.7Z" transform="translate(-0.01 0)"/><path class="cls-2" d="M257.79,109.75q-.45,3.81-.64,7.63a46.52,46.52,0,0,0,.05,7.65.27.27,0,0,0,.53,0c.32-2.53.39-5.1.58-7.65s.46-5.09.77-7.62c.11-.83-1.2-.83-1.29,0Z" transform="translate(-0.01 0)"/><path class="cls-2" d="M260.68,109c-.35,2.47-.65,5-.84,7.44a50.53,50.53,0,0,0-.21,7.58.38.38,0,0,0,.75,0c.31-2.47.36-5,.57-7.45s.44-5,.76-7.43c.07-.58-.95-.72-1-.14Z" transform="translate(-0.01 0)"/><path class="cls-2" d="M355.65,113.39a6.32,6.32,0,0,0-5.54-1c-1.64.57-3,2.37-2.1,4.11.62,1.23,2.08,1.6,3.27,2a3,3,0,0,1,1.52,1,1.63,1.63,0,0,1-.44,2.1,3.64,3.64,0,0,1-3.13.58c-.65-.11-2.33-.26-2.53-1.08a.47.47,0,0,0-.92.11,1.94,1.94,0,0,0,1.47,1.82,8.15,8.15,0,0,0,3.05.51c1.81-.07,3.75-1.23,3.76-3.24,0-1.62-1.46-2.39-2.76-2.89s-3.13-1.13-2.35-2.86a3.09,3.09,0,0,1,2.83-1.48,5.63,5.63,0,0,1,3.48,1c.42.29.8-.4.39-.69Z" transform="translate(-0.01 0)"/><path class="cls-2" d="M349.1,111.41q-.44,3.8-.64,7.62a47.65,47.65,0,0,0,.05,7.65.27.27,0,0,0,.54,0c.32-2.54.39-5.11.58-7.65s.46-5.09.77-7.63c.1-.82-1.2-.83-1.3,0Z" transform="translate(-0.01 0)"/><path class="cls-2" d="M352,110.69c-.34,2.47-.65,5-.83,7.43a49.24,49.24,0,0,0-.21,7.58.38.38,0,0,0,.75,0c.3-2.47.35-5,.57-7.46s.44-5,.75-7.42c.08-.59-.94-.73-1-.14Z" transform="translate(-0.01 0)"/><path class="cls-2" d="M358.27,111.92a15.09,15.09,0,0,0-.46,5.86,6,6,0,0,0,2.64,4.3,2.66,2.66,0,0,0,3.88-1.81,3,3,0,0,0-2.67-3.34,3.12,3.12,0,0,0-2.42.87c-.6.56-1.32,1.7-.81,2.5a.69.69,0,0,0,1.07.13,2.24,2.24,0,0,0,.46-.94,1.91,1.91,0,0,1,.56-.78,1.37,1.37,0,0,1,1.52-.18,1.17,1.17,0,0,1,.73,1.26,1.29,1.29,0,0,1-1,1c-.65,0-1.24-.63-1.59-1.11a5.65,5.65,0,0,1-.88-2,12.71,12.71,0,0,1,.3-5.38c.18-.84-1.09-1.18-1.28-.35Z" transform="translate(-0.01 0)"/><path class="cls-2" d="M367.64,112.5a9.1,9.1,0,0,0-1.89,5.34,3.67,3.67,0,0,0,1.06,2.65,2.72,2.72,0,0,0,2.47.72c1.76-.41,2.53-2.42,2.91-4a8.3,8.3,0,0,0,.32-3.09,1.86,1.86,0,0,0-1.77-1.52,6.35,6.35,0,0,0-2.79.47,10.06,10.06,0,0,0-1.48.71c-.5.31-1.05.61-1.21,1.21a.69.69,0,0,0,.83.83c.41,0,.63-.32,1-.56a7.53,7.53,0,0,1,.9-.56,7,7,0,0,1,1.92-.68c.33-.07,1-.21,1.21.17a2,2,0,0,1,0,.93,9,9,0,0,1-.22,1.15,8.57,8.57,0,0,1-.67,2,2.77,2.77,0,0,1-1,1.15c-.25.14.05,0-.1,0l-.19,0c-.15,0,.09,0-.06,0h-.21a1.2,1.2,0,0,1-.52-.25,2,2,0,0,1-.63-1.47,7.85,7.85,0,0,1,1.53-4.52.78.78,0,0,0-1.35-.77Z" transform="translate(-0.01 0)"/><path class="cls-2" d="M374.69,114.63c.08,1.43.14,2.86.16,4.29,0,.72,0,1.43,0,2.15a6.79,6.79,0,0,0,.27,2.15.64.64,0,0,0,1.23,0,10.84,10.84,0,0,0,.28-4.29c0-1.43-.12-2.86-.23-4.29a.89.89,0,0,0-.85-.86.86.86,0,0,0-.86.85Z" transform="translate(-0.01 0)"/><path class="cls-2" d="M377.89,119.32a15.32,15.32,0,0,0,1.94-1.84,14,14,0,0,0,.88-1.12l.38-.54c.06-.1.12-.19.17-.29s.13-.29.16-.33l-1-.56a11.93,11.93,0,0,0-.58,1.26c-.13.39.4.64.66.38a9.46,9.46,0,0,0,.81-1,.57.57,0,0,0,0-.79.57.57,0,0,0-.8,0c-.12.14.08,0-.09.09l-.15.14c-.08.08-.15.17-.22.25s-.29.34-.44.5c-.29.33-.6.64-.9.94a22.17,22.17,0,0,1-2,1.75.81.81,0,0,0-.23.56.81.81,0,0,0,1.39.57Z" transform="translate(-0.01 0)"/><path class="cls-2" d="M376.62,121l1.83,1.65c.3.27.6.54.92.79a6.9,6.9,0,0,0,.6.47c.09,0,.17.11.26.15a1.68,1.68,0,0,0,.58.13.74.74,0,0,0,.71-.92,2.55,2.55,0,0,0-.83-1.22c-.28-.29-.58-.56-.88-.83L378,119.6a1,1,0,1,0-1.39,1.41Z" transform="translate(-0.01 0)"/><path class="cls-2" d="M271.43,112.34c-.24,1.57-.45,3.15-.63,4.73a15.31,15.31,0,0,0-.08,4.68c.13.67,1,.55,1.22,0a18.94,18.94,0,0,0,.71-4.49c.16-1.49.33-3,.54-4.45a.94.94,0,0,0-.65-1.11.91.91,0,0,0-1.11.64Z" transform="translate(-0.01 0)"/><path class="cls-2" d="M271.14,116.43a28.47,28.47,0,0,1-4.13-.14l.36,1.35a3,3,0,0,0,1.58-1.9,4.15,4.15,0,0,0-.3-2.55,5.66,5.66,0,0,1-.15-.59s0-.11,0,0,0-.07,0-.09a1.63,1.63,0,0,0,0-.38.57.57,0,0,0-.62-.42.89.89,0,0,0-.64.58,2.13,2.13,0,0,0,0,1.45,10.11,10.11,0,0,1,.35,1.19c0-.13,0,0,0,0v.17s0,.09,0,.14,0-.08,0,0,0,.2-.08.3,0-.1,0,0-.05.1-.08.16-.09.15-.14.23c.07-.1,0,0,0,0l-.11.12-.1.1,0,0-.29.18a.72.72,0,0,0,.36,1.34c1.37,0,2.74,0,4.12,0a.66.66,0,0,0,.64-.64.64.64,0,0,0-.63-.64Z" transform="translate(-0.01 0)"/><path class="cls-2" d="M277.77,112.88a2,2,0,0,0-1.87,2.46c.29,1.2,1.38,1.77,2.33,2.38a3.56,3.56,0,0,1,.53.41,1.21,1.21,0,0,1,.28.43.52.52,0,0,1,0,.37c0-.07,0-.06,0,0l0,0c.11-.09-.24.14-.12.09a5.81,5.81,0,0,1-1.65.37c-.36,0-.73.06-1.09.12a3.81,3.81,0,0,0-.47.07.82.82,0,0,0-.35.2c-.12.16-.16.21-.09.13a.56.56,0,0,0-.08.65c.33.67,1.29.67,1.95.65a7.08,7.08,0,0,0,1.93-.36,2.34,2.34,0,0,0,1.53-1.17,2.17,2.17,0,0,0,0-1.68,3.13,3.13,0,0,0-1-1.34c-.42-.33-1-.62-1.35-.94a2.44,2.44,0,0,1-.29-.27s-.17-.2-.12-.12-.18-.3-.14-.21-.11-.39-.06-.22c0-.1,0-.11,0,0s0-.1,0-.16,0-.1,0,0a.64.64,0,0,1,.08-.14c-.05.08,0,.08,0,0s-.08.07,0,0c-.11,0-.11,0,0,0-.1,0-.09,0,0,0a.89.89,0,1,0,0-1.77Z" transform="translate(-0.01 0)"/><path class="cls-2" d="M279,114a19.52,19.52,0,0,0,2.94-.45,7.46,7.46,0,0,0,2.7-1.11.73.73,0,0,0,.33-.78.71.71,0,0,0-.67-.52,10.27,10.27,0,0,0-1.46.21c-.43.1-.86.22-1.29.31s-.88.16-1.32.22A11.83,11.83,0,0,1,279,112a1,1,0,0,0,0,2Z" transform="translate(-0.01 0)"/><path class="cls-2" d="M286.17,114.92c0,1.17,0,2.34,0,3.5a22.71,22.71,0,0,0,.11,3.5c.08.58.91.47,1.06,0a13.26,13.26,0,0,0,.5-3.49c.05-1.17,0-2.33,0-3.5s-1.67-1.07-1.65,0Z" transform="translate(-0.01 0)"/><path class="cls-2" d="M288.84,118.54l1.8-1.39.89-.66a4.66,4.66,0,0,0,1-.85l-1-.56a2,2,0,0,0-.25.53.4.4,0,0,0,.47.48,2.24,2.24,0,0,0,.55-.24.58.58,0,0,0,.24-.71.55.55,0,0,0-.66-.33,4.39,4.39,0,0,0-1.07.75l-.88.71-1.8,1.4a.55.55,0,0,0,.67.87Z" transform="translate(-0.01 0)"/><path class="cls-2" d="M288.51,120.41l1.49,1c.24.16.5.3.75.44a5.82,5.82,0,0,0,1,.42.71.71,0,0,0,.79-.33.73.73,0,0,0-.12-.84l-.31-.33a3.44,3.44,0,0,0-.35-.3c-.27-.21-.54-.43-.83-.62l-1.49-1a.91.91,0,0,0-1.22.33.92.92,0,0,0,.33,1.23Z" transform="translate(-0.01 0)"/><path class="cls-1" d="M74.5,163.58Z" transform="translate(-0.01 0)"/><path class="cls-1" d="M33.32,81.13l26.66-1q13.27-.51,26.54-1L94,78.75c2.52-.1,5.09-.06,7.6-.36a.77.77,0,0,0,0-1.53c-2.24-.07-4.49.17-6.73.28l-6.6.33-13.33.67q-13.27.66-26.54,1.35l-15.08.76c-.56,0-.56.9,0,.88Z" transform="translate(-0.01 0)"/><path class="cls-1" d="M100.68,75.34a22.54,22.54,0,0,0-2.76-2.22,9.33,9.33,0,0,0-3.15-1.5A.76.76,0,0,0,94.19,73c.16.12.42.34.65.49l.67.42c.46.3.94.58,1.39.89.22.15.44.3.65.46l.15.11c-.08-.06,0,0,0,0l.33.26c.43.35.84.71,1.24,1.09a1,1,0,0,0,1.39-1.41Z" transform="translate(-0.01 0)"/><path class="cls-1" d="M99.29,77.15,96.81,79.8l-1.23,1.31a3.87,3.87,0,0,0-1.15,1.68.75.75,0,0,0,.91.92,2.61,2.61,0,0,0,1-.56,7.11,7.11,0,0,0,.6-.63l1.27-1.34,2.49-2.64a1,1,0,1,0-1.41-1.39Z" transform="translate(-0.01 0)"/><path class="cls-1" d="M51.63,65.94a15,15,0,0,0,.22,1.89,6,6,0,0,0,.68,1.73.78.78,0,0,0,.85.35.77.77,0,0,0,.56-.73c0-.2,0-.4,0-.59s0-.3-.06-.45a.88.88,0,0,0,0-.16c0-.17,0,.15,0,0-.05-.46-.13-.92-.19-1.38l0,.25q-.06-.47-.09-.93a1,1,0,0,0-.29-.71,1,1,0,0,0-.69-.28,1,1,0,0,0-1,1Z" transform="translate(-0.01 0)"/><path class="cls-1" d="M51.89,62.74l.21-.28,0-.07,0,0,.09-.12a.47.47,0,0,0,.06-.2.17.17,0,0,0,0-.07.59.59,0,0,0,0-.23.87.87,0,0,0-.07-.17l-.11-.15a1.3,1.3,0,0,0-.18-.15l-.14-.07-.16-.05-.14,0-.15,0h0l0,0-.17.07L51,61.3l-.07.05-.08.11a.48.48,0,0,0-.06.18.28.28,0,0,0,0,.13.35.35,0,0,0,.06.19l.08.1.11.08a.48.48,0,0,0,.18.06.41.41,0,0,0,.19,0h0l-.13,0h.07l-.14,0h0l.18,0-.14,0,.09,0-.13,0,.08,0-.11-.09.06.06-.09-.11a.21.21,0,0,1,0,.06l0-.13a.13.13,0,0,1,0,.06V62l.16-.38-.3.38a.44.44,0,0,0-.12.18.45.45,0,0,0,0,.2.49.49,0,0,0,0,.21.57.57,0,0,0,.12.18.51.51,0,0,0,.38.16l.14,0a.55.55,0,0,0,.26-.14Z" transform="translate(-0.01 0)"/><path class="cls-1" d="M56.36,69.07a2.51,2.51,0,0,1-.35-1,1.53,1.53,0,0,1,.14-.79.87.87,0,0,1,.22-.27l.09-.08c-.05,0,0,0,0,0l.16-.09c.07,0,.07,0,0,0l.11,0,.12,0h0s.18,0,.09,0l.17,0a1.41,1.41,0,0,1,.24.13s.17.13.08.05a3.68,3.68,0,0,1,.4.39,1.07,1.07,0,0,1,.14.16l.09.11h0l.28.41c.09.16.18.33.26.5l.09.19s.12.31,0,.12a5.06,5.06,0,0,0,.25.58,2.75,2.75,0,0,0,.36.53c.29.38.92.13,1-.28a2.82,2.82,0,0,0-.54-2.18,5.49,5.49,0,0,0-1.51-1.6,2.19,2.19,0,0,0-2.14-.25A2.39,2.39,0,0,0,55,67.16a3.57,3.57,0,0,0,.3,2.54.63.63,0,0,0,1.08-.63Z" transform="translate(-0.01 0)"/><path class="cls-1" d="M61.36,67.84c0,1.48.1,3,.26,4.44.09.75.18,1.5.31,2.25s.21,1.76.88,2.07a.67.67,0,0,0,.77-.11c.54-.51.28-1.54.22-2.2l-.21-2.08c-.13-1.45-.22-2.9-.25-4.36a1,1,0,0,0-2,0Z" transform="translate(-0.01 0)"/><path class="cls-1" d="M62.1,67.48a1.91,1.91,0,0,1,1.1-.76,2.14,2.14,0,0,1,1.37.06h0l.1,0a1.29,1.29,0,0,1,.16.09L65,67c-.11-.07,0,0,.07.06l.09.1s.08.09,0,0l0,.07.05.09s0,.12,0,0a.36.36,0,0,0,0,.1c0,.1,0-.1,0,0s0-.09,0,0,.07-.09,0,0a.22.22,0,0,0,0,.08c0-.11,0,0,0,0l-.07.07L64.8,68c-.12.12-.25.22-.38.33s0,0,0,0l-.12.09-.23.16a9.6,9.6,0,0,1-1,.6,6,6,0,0,0-1.08.73A.64.64,0,0,0,62.49,71a3.23,3.23,0,0,0,1.42-.37,7.13,7.13,0,0,0,1-.66A9.06,9.06,0,0,0,66,69a2.23,2.23,0,0,0,.76-1.32,2.1,2.1,0,0,0-1.61-2,3.12,3.12,0,0,0-2,0,3,3,0,0,0-1.74,1.39.38.38,0,0,0,.66.37Z" transform="translate(-0.01 0)"/><path class="cls-1" d="M66.76,67.78a3.75,3.75,0,0,0,3.83,1.11,3.69,3.69,0,0,0,2.59-3.24,1.42,1.42,0,0,0-.78-1.39.89.89,0,0,0-1.29.74.67.67,0,0,0,.34.58q-.39-.42-.09-.06l-.09-.11c-.13-.23,0-.1,0,0s0-.17,0,0v0c0,.07-.07.32-.09.4a1.07,1.07,0,0,1-.07.19c-.07.22.1-.18,0,0s-.13.24-.2.36.14-.16,0,0-.09.11-.13.16l-.15.14c-.08.07-.2.11,0,0-.12.06-.23.16-.35.22l-.06,0c-.1,0-.08,0,.06,0,0,0-.16.06-.2.07l-.2,0-.06,0c-.11,0-.09,0,0,0a.94.94,0,0,1-.41,0c-.07,0-.27,0,0,0a.71.71,0,0,1-.21,0,1,1,0,0,1-.39-.12c.06.07.15.07,0,0l-.18-.09-.17-.11.06,0-.07-.06a2.42,2.42,0,0,1-.32-.32,1,1,0,0,0-1.4,0,1,1,0,0,0,0,1.4Z" transform="translate(-0.01 0)"/><path class="cls-1" d="M75.75,63.28v3.3a11,11,0,0,0,.3,3.34.7.7,0,0,0,1.35,0,11.36,11.36,0,0,0,.33-3.34v-3.3a1,1,0,0,0-2,0Z" transform="translate(-0.01 0)"/><path class="cls-1" d="M74.91,67.11a17.69,17.69,0,0,1,3.16-.69l1.62-.18a7.08,7.08,0,0,0,1.77-.32.59.59,0,0,0,.14-1.07,6.43,6.43,0,0,0-3.58-.4,20,20,0,0,0-3.6.75,1,1,0,0,0-.71,1.2,1,1,0,0,0,1.2.71Z" transform="translate(-0.01 0)"/><path class="cls-1" d="M284,82.31l26.66-1,26.53-1,7.48-.29c2.52-.1,5.09-.06,7.6-.36a.77.77,0,0,0,0-1.54c-2.24-.06-4.5.18-6.73.29l-6.6.33-13.33.67Q312.3,80,299,80.67L284,81.43c-.56,0-.57.9,0,.88Z" transform="translate(-0.01 0)"/><path class="cls-1" d="M351.31,76.52a21.64,21.64,0,0,0-2.76-2.22,9.33,9.33,0,0,0-3.15-1.5.77.77,0,0,0-.9.44.78.78,0,0,0,.32,1c.16.12.42.34.65.49l.67.42c.46.3.93.58,1.39.89.22.15.44.3.65.46l.15.11c-.08-.06,0,0,0,0l.33.26c.43.35.84.71,1.24,1.09a1,1,0,0,0,1.39-1.41Z" transform="translate(-0.01 0)"/><path class="cls-1" d="M349.92,78.33,347.43,81l-1.22,1.3A3.88,3.88,0,0,0,345.06,84a.75.75,0,0,0,.91.92,2.75,2.75,0,0,0,1-.56c.22-.19.4-.42.6-.63l1.27-1.34,2.49-2.64a1,1,0,0,0-1.41-1.39Z" transform="translate(-0.01 0)"/><path class="cls-1" d="M296.61,66.25a2.84,2.84,0,0,0-.77,3.16A2.62,2.62,0,0,0,297,70.82a2.68,2.68,0,0,0,1.88.27,2.77,2.77,0,0,0,2.26-2.69,2.91,2.91,0,0,0-2.23-2.77,2.82,2.82,0,0,0-2.11.46,2.33,2.33,0,0,0-1.08,2,.42.42,0,0,0,.3.4.43.43,0,0,0,.47-.19,3,3,0,0,1,.75-1.17l.07,0h0l.15-.1a1.58,1.58,0,0,1,.36-.2c.06,0,0,0,0,0l.09,0,.16,0a1.42,1.42,0,0,1,.3-.05,1.74,1.74,0,0,1,1.77,1.53,1.56,1.56,0,0,1-.25,1.16,1.84,1.84,0,0,1-.93.65,1.79,1.79,0,0,1-1.23,0c.08,0-.05,0-.07,0l-.14-.08-.13-.08c.09.06,0,0-.06,0l-.21-.22s0,0,0,0l-.05-.07-.1-.17a.8.8,0,0,1-.08-.16s0-.08,0,0,0,0,0-.06a3.37,3.37,0,0,1-.1-.34s0-.18,0-.1,0-.13,0-.2a2.17,2.17,0,0,1,0-.36c0,.07,0-.07,0-.1s0-.11.05-.17a1.91,1.91,0,0,1,.09-.26,1.44,1.44,0,0,1,.43-.53.49.49,0,0,0,0-.69.5.5,0,0,0-.69,0Z" transform="translate(-0.01 0)"/><path class="cls-1" d="M302,67.09a6.73,6.73,0,0,0,.28,2.19A3,3,0,0,0,303.69,71a2.34,2.34,0,0,0,2.17,0,3.11,3.11,0,0,0,1.33-1.51,6.11,6.11,0,0,0,.38-1.19,5.82,5.82,0,0,0,.2-1.18.42.42,0,0,0-.62-.36,4.79,4.79,0,0,0-1.24,1.87c-.08.14-.17.28-.26.42.1-.15-.07.07-.09.1l-.14.15s-.27.19-.09.07l-.16.11-.12.06q-.12.06,0,0a.71.71,0,0,1-.22.06h-.07c-.16,0,.12,0-.08,0,0,0-.26-.1-.07,0l-.2-.11c-.18-.11.06.08-.06,0s-.11-.1-.16-.16a.23.23,0,0,1-.07-.07c-.06-.08-.06-.07,0,0A.64.64,0,0,1,304,69l-.11-.2c.08.16,0-.09,0-.13a3.16,3.16,0,0,1-.13-.53s0-.08,0-.12,0,.07,0,0a2.46,2.46,0,0,1,0-.28q0-.3,0-.6a.84.84,0,0,0-.82-.82.82.82,0,0,0-.83.81Z" transform="translate(-0.01 0)"/><path class="cls-1" d="M309.32,64.23c0,1.13,0,2.26.07,3.39a12.83,12.83,0,0,0,.54,3.38.48.48,0,0,0,.94-.12,24.41,24.41,0,0,0-.1-3.31c0-1.11-.08-2.23-.07-3.34a.69.69,0,0,0-1.38,0Z" transform="translate(-0.01 0)"/><path class="cls-1" d="M309.05,66.73c.75-.06,1.49-.1,2.23-.19a13.66,13.66,0,0,0,2.3-.4.6.6,0,0,0,0-1.16,22.06,22.06,0,0,0-4.52-.21,1,1,0,0,0,0,2Z" transform="translate(-0.01 0)"/><path class="cls-1" d="M314.14,68.21c0,1.55-.1,3.1-.11,4.65,0,.75,0,1.5,0,2.25,0,.58,0,1.79.83,1.8s.84-1.21.9-1.79c.07-.75.1-1.5.14-2.25.07-1.54.08-3.1.12-4.65a1,1,0,0,0-1.91,0Z" transform="translate(-0.01 0)"/><path class="cls-1" d="M315.4,67a1.62,1.62,0,0,1,2.9,1.33,1.88,1.88,0,0,1-.95,1.14,12.73,12.73,0,0,0-1.91,1,.34.34,0,0,0,.24.58,3.88,3.88,0,0,0,1.12-.2,4.91,4.91,0,0,0,1.11-.46,2.63,2.63,0,0,0,1.35-1.79,2.73,2.73,0,0,0-.45-2,2.37,2.37,0,0,0-1.84-1,2.53,2.53,0,0,0-2.09.92.38.38,0,0,0,0,.52.37.37,0,0,0,.52,0Z" transform="translate(-0.01 0)"/><path class="cls-1" d="M320.14,68.25A3.21,3.21,0,0,0,322.81,70a2.92,2.92,0,0,0,2.93-1.52,2.07,2.07,0,0,0,.19-1.36,1.34,1.34,0,0,0-.35-.61,1.06,1.06,0,0,0-.64-.25.53.53,0,0,0-.46.27c-.05.13-.12.25-.16.39a1.61,1.61,0,0,0-.06.33c0,.09,0,.07,0,0l0,.1a.75.75,0,0,1-.05.16l0,.11c0,.09,0,.07,0,0l-.2.35c.08-.11.09-.13,0-.05l-.06.06a1.85,1.85,0,0,1-.14.14c-.11.11.21-.14,0,0l-.12.08a1.51,1.51,0,0,0-.18.09c.2-.13.14-.06.05,0l-.36.09h-.35c-.1,0-.23,0-.33-.07l-.14,0c-.15,0,.19.09,0,0a2.11,2.11,0,0,1-.3-.16c-.2-.13.09.09,0,0l-.11-.1a.86.86,0,0,1-.13-.14c-.11-.11,0,0,0,0,0-.12-.14-.22-.19-.34a.86.86,0,0,0-1.17-.31.88.88,0,0,0-.31,1.16Z" transform="translate(-0.01 0)"/><path class="cls-1" d="M327.92,64.79c0,1,.09,2,.19,3.08a9.88,9.88,0,0,0,.7,3.13.62.62,0,0,0,1.12-.14,14.71,14.71,0,0,0,0-3c-.07-1-.13-2-.16-3a.92.92,0,0,0-1.84,0Z" transform="translate(-0.01 0)"/><path class="cls-1" d="M328.06,66.34c.87,0,1.75,0,2.62,0,.48,0,1-.06,1.44-.13a6.11,6.11,0,0,0,1.26-.31.75.75,0,0,0,.54-.7.74.74,0,0,0-.54-.7c-.26,0-.52-.09-.78-.11s-.4,0-.6,0c-.44,0-.88,0-1.31,0-.88,0-1.75,0-2.62,0a1,1,0,0,0-1,1,1,1,0,0,0,1,1Z" transform="translate(-0.01 0)"/><path class="cls-2" d="M123.82,5.56a2.54,2.54,0,0,0-2.36-2.41,3.4,3.4,0,0,0-3.23,2.13,4.84,4.84,0,0,0,.27,4.38,3.58,3.58,0,0,0,1.74,1.65,2.1,2.1,0,0,0,2.25-.72A7.22,7.22,0,0,0,123.73,8a14.8,14.8,0,0,0,.54-3,.8.8,0,0,0-.71-.8.83.83,0,0,0-.89.59,5,5,0,0,0,0,3.28,5.43,5.43,0,0,0,.75,1.48,3.11,3.11,0,0,0,1.52,1.12.71.71,0,0,0,.79-.34.73.73,0,0,0-.11-.85c-.3-.37-.51-.65-.79-1,.07.09-.11-.18-.13-.21L124.54,8a2.1,2.1,0,0,1-.13-.26c0-.1-.06-.12,0,0s0-.1,0-.14a3.72,3.72,0,0,1-.09-2.33L122.64,5a9.19,9.19,0,0,1-.94,3.74,4,4,0,0,1-.33.58,2.61,2.61,0,0,1-.27.3.52.52,0,0,1-.2.14.4.4,0,0,1-.37,0,2.56,2.56,0,0,1-.58-.51,3.65,3.65,0,0,1-.86-2.92A2.8,2.8,0,0,1,120.82,4a1.88,1.88,0,0,1,2.46,1.51.27.27,0,0,0,.54,0Z" transform="translate(-0.01 0)"/><path class="cls-2" d="M126.53,10.5c0,.42.1.83.13,1.26h1.25c-.2-1.68-1-3.88.38-5.31a1.35,1.35,0,0,1,.79-.47.58.58,0,0,1,.37.08,1.14,1.14,0,0,1,.27.23,2.45,2.45,0,0,1,.37.82,9.45,9.45,0,0,1,.24,1.31q.1.83.15,1.65c0,.65.12,1.28.21,1.93a.71.71,0,0,0,1.36,0,9.62,9.62,0,0,0,.11-1.93q-.07-1-.24-2a5.14,5.14,0,0,0-1.12-2.85,2.18,2.18,0,0,0-2.87-.2A4.26,4.26,0,0,0,126.4,8a9.46,9.46,0,0,0,.28,4,.63.63,0,0,0,1.21-.32c-.1-.41-.18-.82-.26-1.24-.11-.61-1.17-.49-1.1.14Z" transform="translate(-0.01 0)"/><path class="cls-2" d="M134.36,10.17a10.86,10.86,0,0,1,0-3.22,1.62,1.62,0,0,1,.49-1,.38.38,0,0,1,.59,0,4.65,4.65,0,0,1,1,2.24,5.07,5.07,0,0,1,.11.64c0,.22,0,.44,0,.67s0,.45,0,.67a4,4,0,0,0,.07.85.7.7,0,0,0,1.27.16,1.91,1.91,0,0,0,.29-.69,7,7,0,0,0,.08-.79,6,6,0,0,0-.13-1.46,7.2,7.2,0,0,0-1.05-2.6,2.15,2.15,0,0,0-2.46-1.18,2.64,2.64,0,0,0-1.51,2.27,16.16,16.16,0,0,0-.15,3.61.67.67,0,1,0,1.32-.17Z" transform="translate(-0.01 0)"/><path class="cls-2" d="M138.51,7a11.3,11.3,0,0,0,1,2.2A5.8,5.8,0,0,0,141.21,11a2.05,2.05,0,0,0,2.61-.32,4.3,4.3,0,0,0,.93-2.19,4.89,4.89,0,0,0-.32-2.95.63.63,0,0,0-1.15.15c0,.24-.09.48-.11.72s0,.11,0,0a1,1,0,0,1,0,.16c0,.09,0,.19,0,.29s0,.11,0,0a11.93,11.93,0,0,1-.24,1.19c-.06.21-.12.42-.19.62a1.51,1.51,0,0,1-.1.28q.09-.21,0-.06l-.06.12-.1.17a.61.61,0,0,1-.07.1c.1-.11.11-.13,0-.05l-.09.09c-.08.07-.06.05.07-.05l-.1.06.07,0c-.09,0-.08,0,.06,0h-.14c.14,0,.16,0,.05,0s-.08,0,0,0c-.07,0-.16-.09-.22-.12s0,0,.06,0l-.11-.09a3.24,3.24,0,0,1-.4-.43c-.07-.09-.07-.08,0,0l-.09-.12-.18-.26a8.78,8.78,0,0,1-.6-1q-.15-.29-.27-.57c-.05-.11,0-.1,0,0l-.06-.14-.11-.3a1,1,0,0,0-1.2-.71A1,1,0,0,0,138.51,7Z" transform="translate(-0.01 0)"/><path class="cls-2" d="M149.79,6.36a3.82,3.82,0,0,0-3.07-.81A2.72,2.72,0,0,0,145,7.6a4.13,4.13,0,0,0,.19,2.71,1.91,1.91,0,0,0,2.71.87,4.34,4.34,0,0,0,1.31-1.32,12.26,12.26,0,0,0,1-1.6L148.47,8c.46,1.4,1.59,3,3.13,3.25a.81.81,0,0,0,.86-.36.79.79,0,0,0-.13-.92c-.21-.2-.41-.4-.63-.59S151.25,9,151,8.8l-.12-.14-.1-.12-.09-.13-.1-.15a4.36,4.36,0,0,1-.24-.41,1.3,1.3,0,0,0-.08-.17c-.13-.28.07.17-.05-.12a.93.93,0,0,0-.77-.67.9.9,0,0,0-.93.45,9.64,9.64,0,0,1-.77,1.41,3.81,3.81,0,0,1-.81.93s-.25.1-.12.06c0,0-.21,0-.08,0h0c.06,0,0,0,0,0h0l-.1-.11c.11.13,0,0,0-.08s0-.1-.07-.14,0,.07,0,0a2.17,2.17,0,0,1-.07-.24s-.06-.31,0-.19a2.26,2.26,0,0,1,.45-1.87.89.89,0,0,1,.33-.2,1.22,1.22,0,0,1,.57,0,4.61,4.61,0,0,1,1.41.64.65.65,0,0,0,.64-1.12Z" transform="translate(-0.01 0)"/><path class="cls-2" d="M151.88.44c.2,2.17.45,4.33.71,6.49.12,1,.22,2,.37,3.05.12.81.31,2,1.16,2.4.39.16,1,0,.94-.54a4.43,4.43,0,0,0-.4-1.16,6.55,6.55,0,0,1-.32-1.25c-.18-1-.33-2-.49-3-.34-2-.68-4.08-1.07-6.11-.1-.5-.95-.41-.9.11Z" transform="translate(-0.01 0)"/><path class="cls-2" d="M164.52,7.53a19,19,0,0,0,.22,2.5,7,7,0,0,0,.21,1.13c.06.19.13.38.2.56a2.93,2.93,0,0,0,.35.65.76.76,0,0,0,1.4-.38,4.33,4.33,0,0,0,0-.72c0-.28,0,.18,0-.1l0-.25c0-.44-.14-.86-.2-1.3,0-.1,0-.2,0-.29,0,.17,0,0,0-.09s0-.37,0-.55c0-.38-.05-.76-.06-1.15a1,1,0,1,0-2,0Z" transform="translate(-0.01 0)"/><path class="cls-2" d="M163.94,4.27a1.67,1.67,0,0,0,.08.2v0l.14.18,0,0,.17.12,0,0,0,0,.2.08h0a.86.86,0,0,0,.28,0h0l.24,0h0l.22-.09.08,0a1.25,1.25,0,0,0,.19-.15h0a1.09,1.09,0,0,0,.13-.17l0,0a1.67,1.67,0,0,0,.08-.2v0A.84.84,0,0,0,166,4l0-.21v0a1.19,1.19,0,0,0-.08-.2s0,0,0,0l-.13-.17h0s-.1-.08-.08-.07l-.08-.06h0l-.19-.07A1.19,1.19,0,0,0,165.1,3H165a1.52,1.52,0,0,0-.21,0h-.05a.72.72,0,0,0-.24.1,1.09,1.09,0,0,0-.17.13l-.11.15h0a.58.58,0,0,0-.08.22,1,1,0,0,0,0,.18,1,1,0,0,1,0,.16v0a.52.52,0,0,0,.38.38.54.54,0,0,0,.28,0,.58.58,0,0,0,.25-.15l0,0-.12.1,0,0-.14.06h.05l-.16,0h.15l-.17,0,.1,0-.16-.07.08,0-.15-.11.06.06-.12-.16.05.08-.08-.18s0,0,0,.06l0-.2V4l0-.2s0,0,0,.06l.08-.18,0,.05.12-.16-.06.06.16-.12-.08,0,.19-.08a.38.38,0,0,1-.1,0l.19,0a.17.17,0,0,1-.1,0l.2,0-.08,0,.18.07-.06,0,.16.12,0,0,.13.17a.09.09,0,0,1,0-.06l.07.19h0a.5.5,0,0,0-.14-.27.58.58,0,0,0-.23-.21.53.53,0,0,0-.27-.08.51.51,0,0,0-.3,0l-.19.08a.78.78,0,0,0-.29.28l-.07.18a.9.9,0,0,0,0,.4Z" transform="translate(-0.01 0)"/><path class="cls-2" d="M168.14,11l.13.43a.54.54,0,0,0,1-.13c0-.52,0-1,0-1.57a7.15,7.15,0,0,1,.31-1.5c.19-.61.59-1.39,1.31-1.27s1.2,1.1,1.44,1.74c.17.48.3,1,.43,1.47a4.45,4.45,0,0,0,.49,1.52.64.64,0,0,0,1.16-.15,2.78,2.78,0,0,0-.05-1.59A7.65,7.65,0,0,0,174,8.58a5.37,5.37,0,0,0-1.5-2.35A2.23,2.23,0,0,0,169.88,6a3.72,3.72,0,0,0-1.25,2.06,7.35,7.35,0,0,0-.36,3.32l1-.26-.17-.42a.53.53,0,0,0-.63-.37.51.51,0,0,0-.36.62Z" transform="translate(-0.01 0)"/><path class="cls-2" d="M178.37,6a4.85,4.85,0,0,0-2.05,1.72,2.33,2.33,0,0,0,.18,2.71,4,4,0,0,0,2.39,1.13,6,6,0,0,0,1.53.08,2.85,2.85,0,0,0,1.53-.45.61.61,0,0,0,.28-.58.58.58,0,0,0-.43-.49c-.79-.18-1.62-.06-2.43-.17l-.14,0L179,9.86c-.19,0-.39-.08-.58-.14l-.21-.07s-.2-.08-.07,0a2.3,2.3,0,0,1-.43-.25c.13.11,0,0-.05-.05l-.09-.11,0,0a.93.93,0,0,1-.05-.1c0,.08,0,.08,0,0a1.17,1.17,0,0,1,0-.2c0,.14,0-.07,0-.1s0-.09,0,0l0-.14.06-.21c0,.1,0-.1,0-.1a1.5,1.5,0,0,1,.24-.36c.1-.11.22-.22.34-.33a8.82,8.82,0,0,1,.82-.58.66.66,0,0,0,.24-.87.65.65,0,0,0-.87-.23Z" transform="translate(-0.01 0)"/><path class="cls-2" d="M183,7a2.16,2.16,0,0,0-.63,2.83,2.87,2.87,0,0,0,2.86,1.33c1.12-.12,2.49-.7,2.73-1.94a1.92,1.92,0,0,0-.05-1,3,3,0,0,0-.51-.89,6.8,6.8,0,0,0-1.12-1.27,3,3,0,0,0-1.77-.77,2.35,2.35,0,0,0-1,.21,1.16,1.16,0,0,0-.7.78.62.62,0,0,0,.75.75h0c.08,0,.06,0,0,0a.47.47,0,0,0,.23,0c.1,0,.15-.07.23-.09-.21.06,0,0,0,0l.1,0c.16,0-.13,0,0,0s.26,0,.29,0-.15,0,0,0l.16,0,.21.06c.17,0-.15-.08,0,0l.09,0,.12.07.09.06.06.05.09.08.2.22s.07.07.08.1l-.06-.08a.86.86,0,0,1,.07.1,2.2,2.2,0,0,1,.17.25c.12.17.22.35.33.52l.13.23,0,.06c.05.1,0,.08,0,0s0,.15.06.19,0,0,0-.06,0,.24,0,0,0,0,0,0,0-.05,0-.08a1.67,1.67,0,0,0-.12.23c.07-.17.1-.12,0-.07L186,9.1s-.08.05-.1.09c.09-.13.13-.1.05,0a1.88,1.88,0,0,1-.24.14l-.1.05c-.17.09.21-.06,0,0l-.27.09-.28.06-.12,0,.11,0h-.53a2.21,2.21,0,0,0-.25-.05l-.13,0c-.16-.05,0,0,0,0s-.2-.11-.25-.14,0,0,0,0-.11-.09-.13-.11a.34.34,0,0,0-.08-.09l.06.08,0-.06,0-.08s-.1-.21,0-.07,0,0,0,0a.74.74,0,0,1,0-.14.37.37,0,0,0,0-.09c0,.12,0,.14,0,.06V8.52c0-.06,0,0,0,.08s0-.07,0-.09.08-.19,0-.08,0,0,0,0a.34.34,0,0,0,.07-.11c0,.1-.09.11,0,.05s.2-.16,0,0A.74.74,0,1,0,183,7Z" transform="translate(-0.01 0)"/><path class="cls-2" d="M188.37,11c.11.44.21.88.36,1.32a.72.72,0,0,0,1.39,0,2.91,2.91,0,0,0-.21-1.94c-.14-.47-.17-.91.34-1.13,1.18-.52,2.12.88,2.75,1.65.43.52,1.22.05,1.26-.53s.08-1.48.62-1.88.78,0,1.05.28a3.87,3.87,0,0,1,.64,1.74c.17.74.34,1.82,1.22,2a.77.77,0,0,0,.91-.52c.19-.52-.11-1-.26-1.51s-.25-.95-.41-1.42A3.54,3.54,0,0,0,196.23,7a2.22,2.22,0,0,0-2.53.56,4.5,4.5,0,0,0-.92,2.87l1.38-.37c-1-1.29-2.45-2.7-4.2-2a2.06,2.06,0,0,0-1.37,1.5,3.08,3.08,0,0,0,.13,1.28c.08.31.25.72.08,1l1.33.17c-.1-.44-.23-.88-.36-1.32a.72.72,0,0,0-1.4.37Z" transform="translate(-0.01 0)"/><path class="cls-2" d="M201,10.44c1.37.45,3,.48,3.9-.87a1.77,1.77,0,0,0-1.13-2.76A2.29,2.29,0,0,0,201,8.58a3.55,3.55,0,0,0,1.6,3.76,4.47,4.47,0,0,0,2.56.3c.5,0,1-.11,1.51-.19A8,8,0,0,0,208,12a.72.72,0,0,0-.36-1.39c-.61.08-1.21.14-1.82.24s-1.06.14-1.6.17a1.6,1.6,0,0,1-1.17-.29,2.3,2.3,0,0,1-.63-1.07,1.74,1.74,0,0,1,0-1.15A.84.84,0,0,1,203,8c.55-.17,1.12.13.88.76-.41,1.07-1.83.74-2.65.47s-1.09,1-.32,1.22Z" transform="translate(-0.01 0)"/><path class="cls-2" d="M218.08,12A5.66,5.66,0,0,1,218,9.84,3,3,0,0,1,218.8,8c.19-.13.25,0,.33.22a7.35,7.35,0,0,1,.35,1,9.89,9.89,0,0,1,.39,2.29.8.8,0,0,0,.79.79.8.8,0,0,0,.79-.78,7.94,7.94,0,0,1,.3-3.22,2.12,2.12,0,0,1,.55-.85.51.51,0,0,1,.68-.09,1.38,1.38,0,0,1,.47.89,9.61,9.61,0,0,1,.1,1.61l.06,1.81,0,.83a1.68,1.68,0,0,0,.41,1.11.78.78,0,0,0,1.21-.16,1.78,1.78,0,0,0,.2-1.22c0-.37,0-.74-.07-1.11,0-.73-.08-1.47-.13-2.2-.1-1.31-.55-2.89-2-3.18a2.65,2.65,0,0,0-2.76,1.8,7.47,7.47,0,0,0-.56,4.17l1.53-.4a11.66,11.66,0,0,0-.9-3c-.37-.8-1-1.87-2-1.4A3.43,3.43,0,0,0,217,9.27a6.61,6.61,0,0,0-.18,3c.15.8,1.4.48,1.23-.33Z" transform="translate(-0.01 0)"/><path class="cls-2" d="M230.54,7.75a3.45,3.45,0,0,0-2.42-.92,1.87,1.87,0,0,0-1.66,1.85,4.12,4.12,0,0,0,.9,2.57,2.45,2.45,0,0,0,1.19.94,1.45,1.45,0,0,0,1.52-.48,5.85,5.85,0,0,0,.76-1.36c.24-.53.44-1.07.65-1.61h-1.63a16.44,16.44,0,0,0,.55,1.63,7.2,7.2,0,0,0,.56,1.27,2.88,2.88,0,0,0,1,1,1.78,1.78,0,0,0,.78.24,1.32,1.32,0,0,0,.92-.4c.49-.4.15-1.13-.35-1.31.17.06,0,0,0,0a1.12,1.12,0,0,0-.35-.12c-.18,0,.13.09,0,0s-.18-.15,0,0l-.16-.15s-.17-.22,0,0c-.09-.14-.18-.27-.26-.42s-.07-.14-.11-.22-.11-.26,0-.06c-.09-.21-.17-.43-.25-.64a13.81,13.81,0,0,0-.57-1.38.86.86,0,0,0-1.55.2,8.85,8.85,0,0,1-1,2.22.61.61,0,0,1-.07.1s0-.06,0,0l0,0,.1,0c0-.05.16.09,0-.05l-.13-.12a2.71,2.71,0,0,1-.6-.82,2.28,2.28,0,0,1-.25-.89c0-.28,0-.46.24-.57.61-.34,1.36.2,1.88.54a.51.51,0,0,0,.71-.2.52.52,0,0,0-.19-.71Z" transform="translate(-0.01 0)"/><path class="cls-2" d="M236.4,8.68h0s0,0,0,0Z" transform="translate(-0.01 0)"/><path class="cls-2" d="M237.48,6.91a2.21,2.21,0,0,0-2.3,0,3.41,3.41,0,0,0-1.48,2,3.1,3.1,0,0,0,.43,2.55,3.23,3.23,0,0,0,2.46,1.24,4.35,4.35,0,0,0,1.56-.23c.3-.1.58-.22.87-.34a3.39,3.39,0,0,0,.68-.46.72.72,0,0,0,.3-.89.73.73,0,0,0-.84-.43c-.18,0-.37.07-.55.12a5.52,5.52,0,0,0-.53.18A7.11,7.11,0,0,1,237,11c-.11,0,0,0,0,0h-.66c-.12,0,.13,0,0,0l-.4-.11c-.12,0,.11.06,0,0l-.09-.05a2.12,2.12,0,0,1-.2-.12c-.08,0,0,0,0,0l-.08-.06-.17-.17c-.11-.12,0,.08,0,0l-.12-.22c-.06-.1,0,.12,0,0a.29.29,0,0,0,0-.1c0-.07,0-.14-.05-.21s0,.07,0-.07,0-.2,0-.29,0-.14,0-.22c0,.13,0-.05,0-.08a2.72,2.72,0,0,1,.13-.49c0,.12,0,0,0-.06l.1-.17.07-.11s-.06.08,0,0l.15-.18.2-.18s.09-.07,0,0,.05,0,.06,0l.19-.12.08,0c.07,0-.07,0,0,0l.21-.06h.11a.87.87,0,0,1,.32.06.56.56,0,0,0,.55-1Z" transform="translate(-0.01 0)"/><path class="cls-2" d="M238.14,4.3l1,6.89a1,1,0,0,0,.82.73,1,1,0,0,0,1-.49,15.07,15.07,0,0,1,1.39-2.08,6.3,6.3,0,0,1,.91-.95,1,1,0,0,1,.34-.21.23.23,0,0,1,.19,0c-.07,0,.08.09,0,0l.12.14c-.07-.09,0,0,0,.05s.09.16.13.24l0,.11c0,.07.05.14.07.21s.12.42.17.63c.1.44.18.87.27,1.31a8.22,8.22,0,0,0,.45,1.46.79.79,0,0,0,1.43-.18,4.22,4.22,0,0,0,.09-.94c0-.32-.07-.65-.13-1a15.57,15.57,0,0,0-.38-1.64,3.1,3.1,0,0,0-1.82-2.28c-1.2-.37-2.2.49-3,1.29a14.18,14.18,0,0,0-2.09,2.8l1.81.24-1-6.89a1,1,0,0,0-1.21-.7,1,1,0,0,0-.7,1.2Z" transform="translate(-0.01 0)"/><path class="cls-2" d="M247.11,9.33a14.63,14.63,0,0,0,.19,1.75,4.85,4.85,0,0,0,.19.75,2.24,2.24,0,0,0,.21.54l.21.33a.79.79,0,0,0,.87.36.8.8,0,0,0,.59-.75,4.42,4.42,0,0,0,0-.73c0-.19-.06-.38-.08-.57l0,.25c-.05-.39-.11-.77-.16-1.15l0,.25c0-.34-.06-.68-.08-1a1,1,0,0,0-2,0Z" transform="translate(-0.01 0)"/><path class="cls-2" d="M247.3,7l.23.27.11.13.19.14.21.09h.12a.45.45,0,0,0,.23,0l.18,0a1.79,1.79,0,0,0,.32-.13.41.41,0,0,0,.11-.07,1.86,1.86,0,0,0,.27-.22,1.78,1.78,0,0,0,.21-.27l.06-.11a1.17,1.17,0,0,0,.12-.31,1.43,1.43,0,0,0,0-.68.35.35,0,0,0,0-.11,1.89,1.89,0,0,0-.13-.33,2.92,2.92,0,0,0-.21-.28,1.78,1.78,0,0,0-.27-.21l-.12-.07a1.12,1.12,0,0,0-.54-.15,1.36,1.36,0,0,0-.27,0h-.05a.76.76,0,0,0-.16.06l-.11.05a.86.86,0,0,0-.3.3.77.77,0,0,0-.11.39.83.83,0,0,0,.11.4,2,2,0,0,0,.13.18l.19.13.06,0-.18-.13a2.12,2.12,0,0,0,.27.21.41.41,0,0,1,.11.07l-.18-.14a.67.67,0,0,1,.14.15l-.15-.2a1,1,0,0,1,.08.14l-.09-.22a.57.57,0,0,1,0,.14l0-.24v.15l0-.23a.74.74,0,0,1,0,.14l.09-.22-.09.16.14-.19a.68.68,0,0,1-.12.12l.2-.15-.14.08.22-.09-.12,0,.87.24-.35-.4a.7.7,0,0,0-.29-.19.67.67,0,0,0-.34-.07.71.71,0,0,0-.35.07.75.75,0,0,0-.3.2.89.89,0,0,0-.26.63l0,.24a1,1,0,0,0,.25.42Z" transform="translate(-0.01 0)"/><path class="cls-2" d="M250.9,12.32l.42.53c.47.61,1.28-.08,1.18-.68a3,3,0,0,1,.69-2.95c.48-.38,1.46-.58,1.86,0a3.26,3.26,0,0,1,.22,1.55,2.11,2.11,0,0,0,.54,1.51c.9.86,2.38.24,3.43,0a6.67,6.67,0,0,0,3.27-1.15,2.39,2.39,0,0,0,.71-2.57,1.11,1.11,0,0,0-1-.86,2.67,2.67,0,0,0-1.39.48A6,6,0,0,0,259,10.53c-.62,1.18-.67,2.52.72,3.13A7.25,7.25,0,0,0,264,14c.86-.17.62-1.43-.19-1.47s-1.56-.1-2.32-.22a4.81,4.81,0,0,1-1-.21c-.33-.14-.24-.3-.12-.61.4-1,1-2.25,2.16-2.46l-.62-.16c.57.61-.55,1.25-1,1.4a18.1,18.1,0,0,1-2.74.5,8,8,0,0,1-1.2.14c.15.14.2.14.14,0s0-.19,0-.29,0-.47-.05-.7a2.9,2.9,0,0,0-1-2.1,3,3,0,0,0-3.79.25c-1.17,1.07-1.32,3-1.1,4.46l1.3-.54-.41-.54a.71.71,0,1,0-1.12.87Z" transform="translate(-0.01 0)"/><path class="cls-2" d="M126.07,17.36c7,.11,14,.25,21,.25a.21.21,0,0,0,0-.42c-7-.23-14-.33-21-.45a.31.31,0,0,0,0,.62Z" transform="translate(-0.01 0)"/><path class="cls-2" d="M165.52,16.57q13.72.25,27.45-.13c2.58-.07,5.17-.1,7.74-.37a.35.35,0,0,0,0-.7c-2.29,0-4.58.08-6.86.15s-4.57.12-6.86.16q-6.87.12-13.73.05c-2.58,0-5.15-.07-7.73-.13a.49.49,0,0,0,0,1Z" transform="translate(-0.01 0)"/><path class="cls-2" d="M219.78,16.78c11.55.37,23.11.8,34.66,1.06,3.24.07,6.49.16,9.73.14a.3.3,0,0,0,0-.59c-5.77-.35-11.55-.45-17.33-.62s-11.56-.28-17.33-.42l-9.73-.24a.34.34,0,0,0,0,.67Z" transform="translate(-0.01 0)"/><path class="cls-2" d="M138.15,109.38q3.48-.18,7-.32c2.16-.07,4.42,0,6.48-.68a.65.65,0,0,0-.2-1.23c-2.2,0-4.42.2-6.62.3s-4.58.25-6.87.38c-1,.06-.75,1.6.25,1.55Z" transform="translate(-0.01 0)"/><path class="cls-2" d="M140.84,113.25a20.51,20.51,0,0,0,3.07-2.25c.43-.38.83-.79,1.23-1.19.18-.19.37-.37.56-.54a4,4,0,0,0,.65-.58.56.56,0,0,0-.4-.88,2.32,2.32,0,0,0-1.66.74c-.42.39-.8.83-1.22,1.23a22.91,22.91,0,0,1-2.92,2.37c-.61.42,0,1.5.69,1.1Z" transform="translate(-0.01 0)"/><path class="cls-2" d="M145.16,107.13c-.75-.84-1.49-1.7-2.18-2.59a25.55,25.55,0,0,0-2.21-2.66.57.57,0,0,0-.72-.1.56.56,0,0,0-.22.7,24,24,0,0,0,1.83,3.1c.68.93,1.42,1.8,2.18,2.66a.87.87,0,0,0,1.21.09.86.86,0,0,0,.11-1.2Z" transform="translate(-0.01 0)"/><path class="cls-2" d="M134.5,111.13a4,4,0,0,0,2.26-.18,2.3,2.3,0,0,0,1.14-2.48,3.52,3.52,0,0,0-1.63-2.4,2.13,2.13,0,0,0-1.72-.37,1.83,1.83,0,0,0-1.23,1.2,4.32,4.32,0,0,0-.21,1.95,5.34,5.34,0,0,0,.2.9c0,.13.13.41.15.48s.13.33.19.49a.62.62,0,0,0,1.13-.06,2.44,2.44,0,0,0,.09-.85,5,5,0,0,0-.11-.66c0-.22-.07-.43-.09-.65,0,0,0-.2,0-.07v-.15l0-.38,0-.15c0-.15,0-.06,0,0s.05-.16.07-.24a1.8,1.8,0,0,0,.08-.21c0-.1-.11.15,0,0l0,0c0-.06,0-.06,0,0l0,0,.08-.07,0,0h0c.05,0,0,0,0,0l.14,0c-.2,0,0,0,0,0h0l.32.13c.11,0-.09,0,0,0l.12.07.19.13a.9.9,0,0,1,.19.15c-.12-.14,0,0,0,0l.11.11.17.21s.18.28.08.11a3.12,3.12,0,0,1,.23.49c0,.12,0,0,0,0l0,.11a2.51,2.51,0,0,1,0,.27s0,.16,0,0v.12s0,.08,0,.12,0,.21,0,.06a1.72,1.72,0,0,1-.07.21.36.36,0,0,1,0,.09c.07-.14,0,0,0,0l-.06.08s-.08.06,0,0,0,0,0,0l-.09.07c-.06.07.15-.07,0,0l-.11,0-.1,0s-.14.06,0,0-.06,0-.06,0l-.12,0-.24,0-.25,0c-.1,0,.14,0,0,0h-.13c-.16,0-.33,0-.5,0a.58.58,0,0,0-.61.51.56.56,0,0,0,.5.6Z" transform="translate(-0.01 0)"/><path class="cls-1" d="M149.65,81.37a113.4,113.4,0,0,1,1.58,20.73c0,7-.48,13.9-.55,20.85,0,1.94,0,3.88,0,5.82a31.74,31.74,0,0,0,.41,5.93c.12.55.9.39.94-.12.14-1.76,0-3.55-.06-5.32s-.06-3.47-.05-5.21c0-3.52.17-7,.28-10.55.22-6.93.43-13.88,0-20.8a78.17,78.17,0,0,0-1.5-11.6c-.15-.68-1.16-.4-1,.27Z" transform="translate(-0.01 0)"/><path class="cls-2" d="M234.5,125.75c1.69-.77,1.72-2.83,2.56-4.24a1.46,1.46,0,0,1,2-.62,2.85,2.85,0,0,1,1.27,2.9,10.06,10.06,0,0,1-.39,2.11c-.12.4-.31,1-.77,1.12a.47.47,0,0,0,.11.92c1.52.12,2-1.71,2.17-2.85a5,5,0,0,0-.79-4.32,2.86,2.86,0,0,0-3.41-.84,4.16,4.16,0,0,0-1.72,2.36c-.36.9-.64,2.07-1.58,2.54-.62.31-.08,1.2.53.92Z" transform="translate(-0.01 0)"/><path class="cls-2" d="M234,125.06c1.79.13,3.58.23,5.38.28a38.64,38.64,0,0,0,5.38-.13.27.27,0,0,0,0-.54c-1.78-.24-3.6-.3-5.39-.42s-3.59-.26-5.37-.43c-.8-.08-.81,1.18,0,1.24Z" transform="translate(-0.01 0)"/><path class="cls-2" d="M234,122.36a58.18,58.18,0,0,0,9.78.41.38.38,0,0,0,0-.75c-1.63-.19-3.26-.26-4.9-.37s-3.26-.25-4.89-.39c-.71-.07-.7,1,0,1.1Z" transform="translate(-0.01 0)"/><path class="cls-2" d="M234.45,107.8a5.48,5.48,0,0,0,2.7,0,3.28,3.28,0,0,0,1.93-1.53,2.64,2.64,0,0,0,0-2.46,3.91,3.91,0,0,0-1.59-1.48,8.93,8.93,0,0,0-2.57-.85.76.76,0,0,0-.91.52.75.75,0,0,0,.52.91,12.64,12.64,0,0,1,1.36.43l.12,0h0l.25.12c.15.07.29.15.43.23l.23.16c.07,0,.07,0,0,0l.11.09a4.31,4.31,0,0,1,.37.37c.13.14-.07-.13,0,0s.09.14.13.22a.54.54,0,0,1,.05.11c0-.12-.05-.13,0,0l.06.25c0,.09,0,.08,0,0v.26c0-.1,0-.11,0,0s0,.15-.07.23,0,0,0,0a.75.75,0,0,1-.07.12,1.76,1.76,0,0,1-.14.23c.13-.18-.06.06-.09.09l-.21.19c.18-.15-.07,0-.11,0l-.25.13c.18-.08-.05,0-.08,0l-.33.08-.16,0h0a5.15,5.15,0,0,1-.68,0l-.34,0h0l-.17,0a.83.83,0,1,0-.43,1.61Z" transform="translate(-0.01 0)"/><path class="cls-2" d="M234.94,98.92c1.06,0,2.11-.06,3.17-.06a9.16,9.16,0,0,0,3.22-.26.66.66,0,0,0,.46-.54.62.62,0,0,0-.31-.63,7.66,7.66,0,0,0-3.3-.37c-1.08,0-2.15.06-3.23.11a.9.9,0,0,0-.88.87.89.89,0,0,0,.87.88Z" transform="translate(-0.01 0)"/><path class="cls-2" d="M237.43,95.83a13.75,13.75,0,0,0-1.82-1.92.76.76,0,0,0-.52-.21.75.75,0,0,0-.53,1.29,23.6,23.6,0,0,1,1.74,2,.78.78,0,0,0,.56.24.84.84,0,0,0,.58-.24.83.83,0,0,0,.23-.57l0-.21a.83.83,0,0,0-.22-.37Z" transform="translate(-0.01 0)"/><path class="cls-2" d="M239.12,97.1l1.65-1.83c.27-.3.54-.6.79-.92s.33-.39.47-.6.11-.17.15-.26a1.68,1.68,0,0,0,.13-.58.75.75,0,0,0-.92-.72,2.64,2.64,0,0,0-1.22.84c-.29.28-.56.58-.83.88l-1.63,1.8a1,1,0,0,0,1.41,1.39Z" transform="translate(-0.01 0)"/><path class="cls-2" d="M234.12,116.05a8.19,8.19,0,0,0,4.23-1c1.26-.74,2.51-2.09,2.12-3.67a2.69,2.69,0,0,0-3.36-1.91,3.05,3.05,0,0,0-2.05,3.3,3.2,3.2,0,0,0,1,1.9c.59.53,1.77,1.22,2.46.51a.68.68,0,0,0,.11-.81,1,1,0,0,0-.44-.41,3,3,0,0,0-.4-.12s-.3-.1-.18,0a3.84,3.84,0,0,1-.35-.18l-.17-.11c-.11-.08.12.12-.05,0a2.39,2.39,0,0,1-.23-.22l-.1-.11c.07.09,0,0,0,0l-.1-.17-.06-.1s0,0,0,0a2.14,2.14,0,0,1-.09-.34c0,.08,0-.15,0-.2a.75.75,0,0,1,0-.23c0-.05,0-.1,0-.15s0-.07,0-.11h0c0-.1.11-.2.17-.3s.08-.12,0,0l.1-.11a.57.57,0,0,1,.11-.11s.17-.15.09-.09l.11-.07.11-.06.12,0,.14,0c.16,0,.06,0,0,0h.16c.22,0-.06,0,.07,0l.15,0s.19.07.06,0l.21.11s.25.18.15.09c.08.08.17.16.25.25l.05.06c-.08-.1.07.1.06.1l.08.13c.08.15,0-.1,0,.08s0,.31,0,.16v.16c0,.23,0,0,0,.09a1.56,1.56,0,0,1-.33.67,3.93,3.93,0,0,1-1,.9,6.48,6.48,0,0,1-3.38.87.71.71,0,0,0,0,1.41Z" transform="translate(-0.01 0)"/><path class="cls-1" d="M235.64,82.5a342.88,342.88,0,0,0-2.23,44.05c0,2.06.06,4.13.1,6.19a30.88,30.88,0,0,0,.41,6.08c.14.6.93.4,1-.13a35.72,35.72,0,0,0,0-5.57c-.07-1.82-.1-3.63-.13-5.45-.08-3.68-.1-7.35,0-11,.15-7.28.66-14.52,1.05-21.79.23-4.12.68-8.23,1.07-12.34.08-.8-1.13-.77-1.23,0Z" transform="translate(-0.01 0)"/><path class="cls-1" d="M187.25,105.43l7.15.21,3.45.1a13,13,0,0,1,1.39.09,2.47,2.47,0,0,0,1.52,0,.71.71,0,0,0,.32-.77c-.17-1.1-1.7-1.22-2.57-1.26-1.24-.06-2.49-.07-3.73-.11l-7.52-.2a1,1,0,0,0,0,2Z" transform="translate(-0.01 0)"/><path class="cls-1" d="M192.58,107l.42,3c.07.49.13,1,.21,1.46A2.15,2.15,0,0,0,194,113a.68.68,0,0,0,.83-.11,2.29,2.29,0,0,0,.32-1.86l-.21-1.52-.43-3.08a1,1,0,0,0-1.22-.72,1,1,0,0,0-.71,1.22Z" transform="translate(-0.01 0)"/><path class="cls-1" d="M188.18,113.84l5.06,0,2.53,0a16,16,0,0,0,2.59-.07l-.93-1.62c-.31.36-.66.8-.38,1.28s.84.4,1.31.34a1,1,0,0,0,0-1.87,15.86,15.86,0,0,0-2.58,0h-2.53l-5.06,0a1,1,0,0,0,0,2Z" transform="translate(-0.01 0)"/></svg>