<svg id="Layer_1" data-name="Layer 1" xmlns="http://www.w3.org/2000/svg" viewBox="0 0 251.89 141.94"><defs><style>.cls-1{fill:#fd46fc;}.cls-2{fill:#486afb;}</style></defs><path class="cls-1" d="M49.25,171.85c-1.25,0-2.41.18-3.18,1.28a6.23,6.23,0,0,0-1,4c.24,2.65,2.73,4.21,5.26,4.14a3.89,3.89,0,0,0,4.1-4.11,12.86,12.86,0,0,0-1.73-6.05A18.35,18.35,0,0,0,49.62,167c-.78-.81-2.28-2.67-3.49-1.48a.59.59,0,0,0,0,.84c.3.29.66.49,1,.78s.64.72,1,1.07a22.49,22.49,0,0,1,2.24,2.64,13.76,13.76,0,0,1,2.09,4.81c.26,1.21.38,2.86-.89,3.49A3.88,3.88,0,0,1,47,178a4.12,4.12,0,0,1-.22-3.37,2,2,0,0,1,.87-1.33,3.76,3.76,0,0,1,1.56-.25c.79,0,.81-1.26,0-1.23Z" transform="translate(-45.09 -68.85)"/><path class="cls-1" d="M61.32,172.93c-1.2-.75-2.76-1.63-4.22-1.16-1.75.57-2.45,2.71-2.51,4.37-.05,1.48.52,3.71,2.19,4.09A3.59,3.59,0,0,0,60,178.75c.94-1.11,1.68-2.58,1.06-4a1,1,0,0,0-1.53-.19c-1.38,1.28-.4,3.66.68,4.81a3.29,3.29,0,0,0,5.14-.57c.28-.54-.33-1.32-.92-.91a2.84,2.84,0,0,1-1.61.57,2.27,2.27,0,0,1-.77-.17c-.09,0-.24-.14-.35-.2s.11.1,0,0l-.13-.13a.69.69,0,0,1-.11-.13c.06.08,0,.07,0,0l-.21-.33a2.35,2.35,0,0,1-.3-.66,3.17,3.17,0,0,1-.12-.44c0-.06,0-.15,0,0a1.21,1.21,0,0,1,0-.19c0-.07,0-.12,0,0s.07-.25,0-.13,0-.06,0-.07l0,0-1.53-.19c-.12-.27,0,0,0,.06,0-.16,0-.07,0,.06s0,.26,0,.08a2.05,2.05,0,0,1-.07.34,2,2,0,0,1-.1.26c.07-.17,0,.11-.08.16a4.54,4.54,0,0,1-.36.6s-.12.14,0,0l-.12.14-.21.23-.22.21-.14.11c.11-.09,0,0,0,0a4.27,4.27,0,0,1-.51.3c.17-.09,0,0-.07,0s-.34,0-.12,0c-.1,0-.31-.05-.08,0,0,0-.26-.09-.13,0s-.15-.14,0,0l-.1-.1c-.15-.09.07.12,0,0a3.44,3.44,0,0,1-.57-1.67,4.72,4.72,0,0,1,.28-1.9,2.14,2.14,0,0,1,.83-1.17,1.07,1.07,0,0,1,.52-.08,2.6,2.6,0,0,1,.72.14,8.62,8.62,0,0,1,1.66.84c.92.56,1.74-.88.83-1.45Z" transform="translate(-45.09 -68.85)"/><path class="cls-1" d="M65.59,169.77c.19,1.75.34,3.51.66,5.24.14.8.35,1.58.54,2.36s.56,1.68,1.5,1.8c.45.06.8-.41.82-.81a3.1,3.1,0,0,0-.24-.94c-.1-.3-.16-.6-.23-.9-.19-.72-.36-1.44-.49-2.17-.27-1.51-.4-3-.57-4.57a1,1,0,0,0-1-1,1,1,0,0,0-1,1Z" transform="translate(-45.09 -68.85)"/><path class="cls-1" d="M65.94,174c.85-.18,1.71-.37,2.57-.5l.44-.07a.83.83,0,0,0,.22,0h0c.3,0,.61-.06.91-.07a6.94,6.94,0,0,1,.79,0c.2,0-.07,0,0,0l.15,0,.35,0c.18,0-.23,0-.06,0a1,1,0,0,0,.23.06s-.24-.11-.11,0a.32.32,0,0,1-.12-.11c-.14-.17.07.12.1.14a.91.91,0,0,0,.35.21c-.29-.14-.06,0,0,0a.69.69,0,0,0,.35,0c.89-.25.62-1.36.11-1.82a2.63,2.63,0,0,0-1.81-.5,14.41,14.41,0,0,0-2,.17c-1,.14-2,.35-3,.57a1,1,0,0,0-.72,1.21,1,1,0,0,0,1.22.71Z" transform="translate(-45.09 -68.85)"/><path class="cls-1" d="M79.08,173.06c-1.27-.45-2.53-1.17-3.92-.92s-2.27,1.78-2.48,3.13A3.88,3.88,0,0,0,74,179.12a3.41,3.41,0,0,0,4.54-.66c1.08-1.15,2-3.14,1.31-4.68a1,1,0,0,0-1-.45c-1.15.21-.92,1.7-.74,2.49a8.78,8.78,0,0,0,.82,2.44,3.76,3.76,0,0,0,3.16,1.51,5.21,5.21,0,0,0,3.61-1.07c.66-.57-.07-1.43-.76-1.33s-1.59.4-2.41.44a3.62,3.62,0,0,1-1.27-.13,2.06,2.06,0,0,1-.42-.21c-.1-.07-.31-.3-.21-.15a2,2,0,0,1-.1-.21c-.08-.16,0,.13,0,0a1.8,1.8,0,0,0-.08-.21c-.11-.32-.22-.64-.31-1a8.56,8.56,0,0,1-.24-1c0-.17,0,0,0-.07s0-.13,0-.2v-.13a.46.46,0,0,1,0,.2.69.69,0,0,1-.5.43l-1-.44c.19.39-.2,1.11-.4,1.48a3.24,3.24,0,0,1-1.09,1.26,1.33,1.33,0,0,1-1.54.1,1.51,1.51,0,0,1-.65-1.08c-.12-.7.1-2.16.83-2.45a2.29,2.29,0,0,1,1.43.17c.6.19,1.17.45,1.77.66,1.14.39,1.61-1.41.48-1.8Z" transform="translate(-45.09 -68.85)"/><path class="cls-2" d="M117.29,156.2a28.41,28.41,0,0,1,.21,7c-.08,2.4-.09,4.83,0,7.23s.35,4.86.43,7.29,0,5,.2,7.56c.08,1.34.27,2.67.45,4a21.48,21.48,0,0,0,.61,4,.7.7,0,0,0,1.34,0,7.15,7.15,0,0,0,.09-3.56c-.16-1.19-.36-2.38-.47-3.57-.23-2.52-.18-5-.27-7.56s-.39-5-.5-7.56-.19-4.85-.17-7.27a35.61,35.61,0,0,0-.43-7.92c-.21-1-1.68-.57-1.48.39Z" transform="translate(-45.09 -68.85)"/><path class="cls-2" d="M119.24,194c1.87,0,3.74-.11,5.6-.21a50.42,50.42,0,0,1,5.36.13c3.71.22,7.43.31,11.14.39,7.42.18,14.84.28,22.26.37,2,0,4.06.08,6.08.28s4.09.63,6.14,1a.87.87,0,0,0,1.09-.83v-.18c0-.94-1.51-1.21-1.68-.23l0,.18,1.07-.61c-3.45-1.23-7.32-1.43-11-1.52s-7.46,0-11.19-.09c-7.48-.11-15-.23-22.46-.54-2-.08-4.06-.27-6.09-.18s-4.21.28-6.33.29a.88.88,0,0,0,0,1.75Z" transform="translate(-45.09 -68.85)"/><path class="cls-2" d="M176.72,192.82a119.79,119.79,0,0,1-.76-14.17c-.11-4.77-.5-9.52-.89-14.27q-.33-4-.75-8.06a1,1,0,0,0-1-1,1,1,0,0,0-1,1c.51,4.8.88,9.61,1.23,14.42s.39,9.64.56,14.47a78.65,78.65,0,0,0,.67,8.12A1,1,0,0,0,176,194a1,1,0,0,0,.72-1.22Z" transform="translate(-45.09 -68.85)"/><path class="cls-2" d="M119.66,154.35l-.58.23a.79.79,0,0,0-.19,1.43,5.67,5.67,0,0,0,2.73.49c1,.06,2.08.09,3.13.1,2.16,0,4.32-.07,6.48-.15,4.43-.14,8.86-.36,13.29-.55s8.75-.35,13.12-.45,8.46-.26,12.68,0c2.1.11,4.14.41,6.21.72.67.1,1.33.2,2,.36a5,5,0,0,1,.9.3,3,3,0,0,1,.66.35.78.78,0,0,0,1.29-.74c-.27-1.38-2-1.74-3.13-1.95-1.52-.28-3.07-.51-4.6-.69a89.79,89.79,0,0,0-12.81-.29c-8.87.24-17.73.69-26.6,1.07q-3.71.16-7.41.29c-1.25,0-2.49.05-3.74,0-.6,0-1.21-.08-1.81-.06a3.35,3.35,0,0,1-1.6-.15V156l.58-.24c.79-.33.23-1.73-.58-1.41Z" transform="translate(-45.09 -68.85)"/><path class="cls-2" d="M125.32,162.39s0,0,0,0Z" transform="translate(-45.09 -68.85)"/><path class="cls-2" d="M124.8,162.58a21,21,0,0,0,3.53.53,10.86,10.86,0,0,0,3.51-.19.55.55,0,0,0,0-1.06,25.17,25.17,0,0,0-3.37-.37,27.29,27.29,0,0,1-3.24-.51.83.83,0,1,0-.43,1.6Z" transform="translate(-45.09 -68.85)"/><path class="cls-2" d="M125,167.56c1,0,2.07.14,3.1.17.52,0,1,0,1.55,0a3.51,3.51,0,0,0,1.65-.22.68.68,0,0,0,0-1.18,4.3,4.3,0,0,0-1.64-.25c-.52,0-1-.1-1.55-.15-1-.12-2.06-.2-3.1-.24a.92.92,0,0,0,0,1.84Z" transform="translate(-45.09 -68.85)"/><path class="cls-2" d="M125.62,171.5c1.16,0,2.32-.12,3.48-.24l1.66-.15a5.74,5.74,0,0,0,1.84-.32.59.59,0,0,0,0-1,4.21,4.21,0,0,0-1.83-.28c-.55,0-1.11,0-1.67.07-1.15.06-2.31.13-3.47.11a.91.91,0,0,0,0,1.82Z" transform="translate(-45.09 -68.85)"/><path class="cls-2" d="M157.58,138.38q-.35,4.1-.51,8.2a54.89,54.89,0,0,0,.11,8.21.65.65,0,0,0,1.3,0c.3-2.73.3-5.47.38-8.21s.22-5.47.43-8.2c.08-1.1-1.61-1.09-1.71,0Z" transform="translate(-45.09 -68.85)"/><path class="cls-2" d="M162.75,140.2a61.77,61.77,0,0,0-.17,7.45c0,1.23.12,2.45.18,3.68a11.23,11.23,0,0,0,.6,3.6c.2.54,1.19.56,1.11-.14a70.06,70.06,0,0,1-.16-7.25c0-2.44,0-4.88.14-7.33.08-1.09-1.61-1.08-1.7,0Z" transform="translate(-45.09 -68.85)"/><path class="cls-2" d="M159,139.35a14.38,14.38,0,0,0,3.59.12,22.49,22.49,0,0,0,3.53-.88.53.53,0,0,0,.13-1,3.18,3.18,0,0,0-1.88-.18c-.59.07-1.17.16-1.76.18a19.73,19.73,0,0,1-3.6-.21,1,1,0,0,0-1,1,1,1,0,0,0,1,1Z" transform="translate(-45.09 -68.85)"/><path class="cls-2" d="M164.88,161.62a3.55,3.55,0,0,0,1.26,2,2.29,2.29,0,0,0,2.44-.3,2,2,0,0,0,.77-1,2.73,2.73,0,0,0,0-1.36,2.17,2.17,0,0,0-1.77-1.54,6.16,6.16,0,0,0-1.2-.21,1.22,1.22,0,0,0-1.31.82.69.69,0,0,0,.32.76.62.62,0,0,0,.33.08.63.63,0,0,0,.58-.33c0-.07.09-.1,0,0,.08-.09-.16.1-.06,0s0,0-.09,0l.09,0s-.18,0-.07,0h.3l.18,0c.14,0-.17,0,0,0l.1,0,.36.06.43.09.23.06.07,0-.06,0,.07,0,.15.09c.11.06-.12-.11,0,0s0,0,0,.05a.46.46,0,0,1,.07.07c.08.07,0-.05,0-.06a1,1,0,0,0,.12.2c.05.07,0-.16,0,0l0,.11a1.6,1.6,0,0,1,0,.21c0,.16,0-.13,0,0s0,.07,0,.1v.26c0,.15,0,0,0,0l0,.09a.94.94,0,0,1,0,.09c0,.13.07-.11,0,0a.65.65,0,0,0-.1.15c0-.08.07-.08,0,0a.3.3,0,0,1-.08.08l0,0,0,0-.06,0-.24.14-.23.11h0a1.27,1.27,0,0,1-.18.06.54.54,0,0,1-.21.05H167s-.1,0-.11,0,.13,0,0,0l-.07,0c-.14,0,.06,0,0,0s-.13,0-.17-.1.08.06,0,0l-.1-.09-.06-.07c-.1-.11.06.09,0,0a1.27,1.27,0,0,1-.13-.19,3.13,3.13,0,0,1-.22-.45s-.07-.16,0,0a.61.61,0,0,1,0-.12l-.12-.31a.57.57,0,0,0-.68-.4.58.58,0,0,0-.4.69Z" transform="translate(-45.09 -68.85)"/><path class="cls-2" d="M165.63,169a3.34,3.34,0,0,0,1.3,1.48,2.4,2.4,0,0,0,1,.25,3,3,0,0,0,1.07-.17,1.18,1.18,0,0,0,.82-.77,1.59,1.59,0,0,0-.05-.89,6.05,6.05,0,0,0-.44-1,2.76,2.76,0,0,0-.64-.8,1.48,1.48,0,0,0-.87-.37,1.35,1.35,0,0,0-.56.09,1.91,1.91,0,0,0-.71.45,2,2,0,0,0-.46.76c-.12.36.29.82.67.66q.27-.1.54-.24c.05,0,.2-.09,0,0l.22-.09c-.2.05-.12.05-.06,0l.12,0h.07c-.2.06-.17,0-.08,0h.06c.13,0-.21-.06-.09,0l.14,0,0,0c.14,0-.06,0-.09,0s.1,0,.14.07-.16-.14,0,0a1.94,1.94,0,0,1,.28.29l0,.06c-.16-.19-.06-.08,0,0l.12.18c.08.11.16.23.23.35a1.43,1.43,0,0,1,.15.27l0,.07s-.06-.18,0-.09l0,.14c0-.16,0-.15,0-.08s0,0,0-.09a.06.06,0,0,0,0,0c0,.09.08-.14,0-.07l0,0c0,.09.12-.11,0-.05l0,0c-.06.07.14-.09,0,0l-.13.08-.1.05c.11,0,.05,0,0,0l-.22.06-.12,0c-.11,0,.09,0,0,0a1.21,1.21,0,0,1-.38,0c.07,0,.07,0,0,0l-.1,0a1.27,1.27,0,0,0-.18-.06c-.07,0,.11,0,0,0l-.09,0-.18-.11c-.09-.06.06.05,0,0l-.09-.08-.14-.13-.13-.16c.08.1,0,0,0,0l-.06-.1a3,3,0,0,1-.26-.42.47.47,0,0,0-.63-.17.48.48,0,0,0-.17.64Z" transform="translate(-45.09 -68.85)"/><path class="cls-2" d="M165.31,174a6.13,6.13,0,0,0-.21,2.37,2.15,2.15,0,0,0,.64,1.18,2.39,2.39,0,0,0,1.5.61,2.51,2.51,0,0,0,2.49-1.52,2.71,2.71,0,0,0-.41-2.4,2.54,2.54,0,0,0-1.29-1,1.67,1.67,0,0,0-.86,0,1.34,1.34,0,0,0-.79.61.66.66,0,0,0,.56,1,3.09,3.09,0,0,1,.43,0c.18,0-.17,0-.06,0l.09,0c.17.05-.14-.06-.08,0l.28.11-.09,0,.11.06.08,0c.11.08-.21-.16-.06,0a2.65,2.65,0,0,1,.33.34l-.14-.18a3.25,3.25,0,0,1,.33.57l-.09-.21c0,.1.07.19.1.29l0,.15s0,.12,0,0,0,0,0,0a2.25,2.25,0,0,1,0,.26c0-.28,0-.11,0,0a.42.42,0,0,1,0,.06s.11-.23,0-.08a.57.57,0,0,1-.08.13c-.07.12.12-.14,0-.07l0,.06-.12.11c-.1.09.08-.07.08-.06s-.09.06-.09.06l-.15.08s-.07,0-.09,0,.22-.08.09,0l-.36.1c-.09,0,.2,0,.1,0h-.34c.15,0,0,0,0,0l-.11,0c-.08,0-.21-.1,0,0l-.16-.08-.15-.09c-.06,0-.07-.09.08.06l-.08-.07-.09-.1c-.1-.1.11.17.06.08l-.05-.07-.06-.11c-.08-.17.07.19,0,0a1.38,1.38,0,0,1-.08-.29c0-.12,0,.1,0,.1a.25.25,0,0,1,0-.09,1.09,1.09,0,0,1,0-.18,4.48,4.48,0,0,1,0-.73c0,.26,0,.05,0,0l0-.17.06-.36a.81.81,0,0,0-.08-.57.75.75,0,0,0-.45-.35.76.76,0,0,0-.92.53Z" transform="translate(-45.09 -68.85)"/><path class="cls-2" d="M161.21,138.47a5.07,5.07,0,0,0,3.44-2.51,6.92,6.92,0,0,0,1.15-4.82c-.72-3.09-4.7-4.29-7.45-3.48-1.25.37-2.3,1.42-1.81,2.8a3.8,3.8,0,0,0,3.33,2.16,5,5,0,0,0,2.45-1c.64-.39,1.32-.75,2-1.15a5.83,5.83,0,0,0,2.88-3.51c.36-1.76-.9-3.69-1.93-5s-2.4-2.78-4-3.11a6,6,0,0,0-2.49.13,2.21,2.21,0,0,0-1.59,1c-.72,1.46,1.51,2.25,2.5,2.6a7.67,7.67,0,0,0,2.64.49,6.5,6.5,0,0,0,2.71-.77,6.83,6.83,0,0,0,3.39-3.79c1.36-3.51-1.13-6.76-4.6-7.51-1.22-.27-3.29-.46-4.17.64a1.35,1.35,0,0,0,.11,1.86,2.18,2.18,0,0,0,1.76.45,9.61,9.61,0,0,0,3.77-1.32,7.56,7.56,0,0,0,3.61-4,11.17,11.17,0,0,0,.47-2.63c0-.64-1-.95-1.25-.34a18.14,18.14,0,0,1-1.56,3.58,7.8,7.8,0,0,1-3,2.33,6.64,6.64,0,0,1-2.28.78,3.53,3.53,0,0,0-.46,0l-.11,0c.31.07,0,.14.09.09a4.15,4.15,0,0,1,.6-.29,4.34,4.34,0,0,1,.88-.12c2.33-.1,5.26,1.72,5.18,4.3a5.83,5.83,0,0,1-1.55,3.31,6.16,6.16,0,0,1-3.32,2,6.63,6.63,0,0,1-3.61-.58c-.33-.14-1.15-.44-.59-.78a4,4,0,0,1,1.8-.39c1.41-.06,2.42,1,3.32,2a9.84,9.84,0,0,1,2.1,3.48c.91,2.6-1.88,3.77-3.65,4.93a9.8,9.8,0,0,1-1.64,1,1.91,1.91,0,0,1-1.68-.11c-.9-.42-1.81-1.52-.62-2.24a5.18,5.18,0,0,1,4.24-.13,3.8,3.8,0,0,1,2.4,2.42,5.45,5.45,0,0,1-.9,4,4.18,4.18,0,0,1-1.14,1.52,4.57,4.57,0,0,1-1.67.7.6.6,0,0,0,.3,1.16Z" transform="translate(-45.09 -68.85)"/><path class="cls-2" d="M118.15,167c-.84-.82-1.73-1.61-2.63-2.37-.2-.17-.4-.34-.59-.52s-.35-.36-.54-.52a2.75,2.75,0,0,0-.87-.48,1,1,0,0,0-1,.14.5.5,0,0,0-.08.61,1,1,0,0,0,.33.33s0,0,0,0l.13.12.13.14.07.09c.2.26-.07-.11.06.09l.07.11a5.79,5.79,0,0,0,1.15,1.22c.86.72,1.68,1.47,2.49,2.25a.87.87,0,0,0,1.21-1.24Z" transform="translate(-45.09 -68.85)"/><path class="cls-2" d="M117.37,182.69c-.82.55-1.64,1.08-2.42,1.69a9.76,9.76,0,0,0-1,.9,3.8,3.8,0,0,0-.93,1.45.73.73,0,0,0,.88.89,1.93,1.93,0,0,0,.72-.35q.34-.27.66-.57c.35-.3.67-.62,1-.91l.11-.09h0l.27-.2.54-.38,1.14-.76a1,1,0,0,0-1-1.67Z" transform="translate(-45.09 -68.85)"/><path class="cls-2" d="M112.19,164.23c0,2-.15,3.93-.15,5.89a24.11,24.11,0,0,0,.19,2.81,19.38,19.38,0,0,1-.06,2.95,48.31,48.31,0,0,0,0,5.77c0,.92.12,1.83.2,2.75a7,7,0,0,0,.54,2.65.58.58,0,0,0,1.07-.28c0-1.79,0-3.56-.07-5.35a42.61,42.61,0,0,1,.12-5.76,11.65,11.65,0,0,0,0-2.83,17.83,17.83,0,0,1-.27-2.82c0-1.92-.06-3.85-.09-5.77a.73.73,0,0,0-1.46,0Z" transform="translate(-45.09 -68.85)"/><path class="cls-2" d="M103.44,174.84c-2.11.06-4.21-.08-6.31-.13a19,19,0,0,0-6.2.52.53.53,0,0,0,.13,1c2.06,0,4.12-.08,6.18-.07s4.13.05,6.19-.09c.8,0,.82-1.28,0-1.26Z" transform="translate(-45.09 -68.85)"/><path class="cls-2" d="M103.15,173.88c-.53-.44-1.07-.88-1.63-1.28a3.52,3.52,0,0,0-1.81-.79.58.58,0,0,0-.47.24.62.62,0,0,0-.11.51,1.45,1.45,0,0,0,.58.87l.71.59c.48.38,1,.78,1.43,1.18a1,1,0,0,0,.65.26,1,1,0,0,0,.66-.27.94.94,0,0,0,0-1.31Z" transform="translate(-45.09 -68.85)"/><path class="cls-2" d="M102.27,175.4c-.6.39-1.18.8-1.75,1.24l-1,.76c-.14.11-.28.21-.41.33s-.24.27-.36.4a.77.77,0,0,0-.12.91.78.78,0,0,0,.84.35l.47-.16a4.54,4.54,0,0,0,.62-.32l.91-.58c.59-.4,1.17-.81,1.76-1.2a1,1,0,0,0-1-1.73Z" transform="translate(-45.09 -68.85)"/><path class="cls-2" d="M189.4,169.92c-2.4,0-4.8-.08-7.21-.08a28,28,0,0,0-7.07.7.5.5,0,0,0,.12,1c2.36-.06,4.71-.16,7.07-.16s4.72.08,7.08.08a.76.76,0,0,0,0-1.52Z" transform="translate(-45.09 -68.85)"/><path class="cls-2" d="M187.86,176.84a99.16,99.16,0,0,0-13.46.54c-.77.1-.53,1.23.16,1.28,4.41.33,8.87.17,13.29.18a1,1,0,0,0,0-2Z" transform="translate(-45.09 -68.85)"/><path class="cls-2" d="M188.59,171.19c-.12,1.41-.18,2.82-.34,4.22a13.8,13.8,0,0,1-.35,1.92,3.5,3.5,0,0,0-.23,2,.56.56,0,0,0,1,.14,7.11,7.11,0,0,0,.64-1.92,15.86,15.86,0,0,0,.29-2.07c.14-1.43.16-2.86.24-4.29.05-.82-1.19-.81-1.26,0Z" transform="translate(-45.09 -68.85)"/><path class="cls-2" d="M196.08,175.41a12.85,12.85,0,0,0,3.56.25c1.36,0,2.73.1,4.1.15s2.57.09,3.86.05a13.72,13.72,0,0,0,3.89-.45c.55-.18.65-1,0-1.19a17.6,17.6,0,0,0-3.77-.18c-1.29,0-2.57,0-3.86,0s-2.65-.06-4-.07-2.41.11-3.61,0c-.87-.09-1,1.21-.2,1.45Z" transform="translate(-45.09 -68.85)"/><path class="cls-2" d="M211.2,173.1c-.39-.43-.74-.9-1.13-1.33a4.64,4.64,0,0,0-.72-.68,4.15,4.15,0,0,0-.43-.3,1.51,1.51,0,0,0-.75-.21.82.82,0,0,0-.71,1.21,2.08,2.08,0,0,0,.37.46l.32.29c.2.21.41.41.6.62.38.42.73.88,1.11,1.3a1,1,0,0,0,.67.27,1,1,0,0,0,.68-.28,1,1,0,0,0,0-1.35Z" transform="translate(-45.09 -68.85)"/><path class="cls-2" d="M210.68,173.94a4.1,4.1,0,0,0-1.34.62,5.68,5.68,0,0,0-1.18,1.22,5.74,5.74,0,0,0-.74,1.23,4.11,4.11,0,0,0-.42,1.48.66.66,0,0,0,.82.64c.58-.11.86-.62,1.07-1.11l.12-.29h0c0-.08.08-.17.13-.25s.24-.44.37-.65l.19-.29.12-.16c.09-.14-.06.06,0,0a4.47,4.47,0,0,1,.42-.45.69.69,0,0,0,.13-.11c-.05.07-.11.09,0,0l.27-.16.26-.13c.17-.09-.17.05,0,0l.17-.06a.79.79,0,1,0-.4-1.52Z" transform="translate(-45.09 -68.85)"/><path class="cls-1" d="M218.17,162.76a7.76,7.76,0,0,0,3.85.66,5.18,5.18,0,0,0,2.94-1.94,2.05,2.05,0,0,0,.52-1.66,2.32,2.32,0,0,0-1-1.28,6.48,6.48,0,0,0-2.78-1.21,3.32,3.32,0,0,0-3.27,1.19,6.48,6.48,0,0,0-1.36,3.39,4,4,0,0,0,.56,2.71,3.5,3.5,0,0,0,2,1.35,11,11,0,0,0,5.23-.22.79.79,0,0,0,.57-.73.77.77,0,0,0-.57-.74,8.1,8.1,0,0,0-1-.11c-.31,0-.63,0-.94,0-.65,0-1.29.08-1.94.05-.15,0-.31,0-.47,0s.17,0,0,0l-.25-.05a2.48,2.48,0,0,1-.39-.1s-.26-.1-.12,0-.09-.05-.13-.07l-.17-.1c-.12-.07-.09-.09,0,0l-.31-.31c-.07-.07.06.08.07.08l-.06-.07-.1-.19s0-.06-.05-.08.06.17,0,.05-.05-.16-.07-.23,0-.17-.05-.25a.5.5,0,0,1,0-.12c0,.18,0,0,0,0,0-.22,0-.42,0-.63a2.69,2.69,0,0,1,.07-.57q.08-.35.18-.69a4.23,4.23,0,0,1,.6-1.15l.11-.14a2.77,2.77,0,0,1,.24-.25.46.46,0,0,1,.16-.13l.12-.08s.19-.1.09-.06a2,2,0,0,1,1.06-.1c.22,0,.44.1.66.16l.27.1.11,0,.07,0a6,6,0,0,1,1.06.56l.15.13s.15.17.09.08,0,.09.07.13,0-.07,0-.08,0,0,0,.05,0,0,0,0a3.14,3.14,0,0,1-.78.92,3.38,3.38,0,0,1-1.31.66c-1.08.28-2.26-.34-3.27-.66a.85.85,0,1,0-.44,1.65Z" transform="translate(-45.09 -68.85)"/><path class="cls-1" d="M229.35,157.48a14.35,14.35,0,0,0-1.61,1.05,4.52,4.52,0,0,0-1.52,1.46c-.78,1.59,1.15,2.71,2.24,3.46a6.35,6.35,0,0,1,1.32,1.05s.22.29.09.1c.07.1.12.19.18.29-.05-.13-.05-.14,0,0s0,.09,0-.05c0,.17.07-.15.1-.2s.05-.06,0,0c.1-.08.11-.08,0,0,.16,0-.25.08-.29.08a1,1,0,0,1-.53,0,2.3,2.3,0,0,1-.63-.25,6.92,6.92,0,0,0-.88-.39c-.56-.22-1.07.53-.77,1a3.29,3.29,0,0,0,2.65,1.66c1.08,0,2.35-.59,2.35-1.81a3.43,3.43,0,0,0-1.5-2.4c-.45-.36-.95-.65-1.42-1l-.56-.42-.32-.26-.15-.13-.09-.09,0,0a2,2,0,0,0,0,.25s0,.06,0,0,.21-.21.23-.22c.2-.18.4-.33.59-.48a18.25,18.25,0,0,1,1.57-1,1,1,0,0,0-1-1.72Z" transform="translate(-45.09 -68.85)"/><path class="cls-1" d="M233.5,156.37c.3,1.45.51,2.91.73,4.37.12.72.23,1.44.36,2.15a5.35,5.35,0,0,0,.68,2.19.83.83,0,0,0,.8.39.78.78,0,0,0,.67-.58,6.64,6.64,0,0,0-.22-2.42c-.13-.71-.24-1.43-.35-2.15-.23-1.48-.44-3-.74-4.45a1,1,0,0,0-1.21-.72,1,1,0,0,0-.72,1.22Z" transform="translate(-45.09 -68.85)"/><path class="cls-1" d="M232.67,161.53c1.07-.14,2.15-.29,3.22-.45l.42-.06c.28,0-.21,0,.11,0l.51,0a1.79,1.79,0,0,0,1.45-.88.77.77,0,0,0-.85-1.11c.2,0,0,0-.09,0l-.13,0h-.15l-.52,0c-.47,0-.94.11-1.41.18-1,.15-2,.29-3.07.42a1,1,0,0,0-.71,1.22,1,1,0,0,0,1.22.71Z" transform="translate(-45.09 -68.85)"/><path class="cls-1" d="M239.83,161q.25,1.33.54,2.67a14.2,14.2,0,0,0,.84,2.56.69.69,0,0,0,.7.34.72.72,0,0,0,.6-.51,3,3,0,0,0,0-1.52c-.08-.44-.14-.88-.23-1.32-.2-.91-.37-1.81-.55-2.72a1,1,0,0,0-1.21-.72,1,1,0,0,0-.72,1.22Z" transform="translate(-45.09 -68.85)"/><path class="cls-1" d="M239,157a1.77,1.77,0,0,0,.22.16,1.17,1.17,0,0,0,.26.1l-.58-1a1.38,1.38,0,0,0,0,.67,1.4,1.4,0,0,0,.38.6,1.56,1.56,0,0,0,.4.27,1.76,1.76,0,0,0,.67.18,1.27,1.27,0,0,0,.47-.06,1.23,1.23,0,0,0,.31-.14,1,1,0,0,0,.27-.22,1,1,0,0,0,.19-1.23,2.13,2.13,0,0,0-.42-.48,3.45,3.45,0,0,0-.59-.41,3.65,3.65,0,0,0-.64-.28.87.87,0,0,0-1.06,1.06.91.91,0,0,0,.65.65.94.94,0,0,0,.44,0,.67.67,0,0,0,.23-.1.77.77,0,0,0,.29-1.05l0,0,.08.19h0l0,.21v0l0,.21a.9.9,0,0,0,0-.28l-1.29.75.43.22a2.34,2.34,0,0,1,.43.26l-.18-.13a1.2,1.2,0,0,1,.28.27l-.14-.18,0,0-.09-.65a.14.14,0,0,1,0,.06l.09-.21-.06.11.13-.18-.07.07.18-.14a.33.33,0,0,1-.1.06l.21-.09-.14,0,.22,0h-.17l.22,0-.2-.05.2.08a1.18,1.18,0,0,1-.19-.11l.18.13a.57.57,0,0,1-.14-.13l.14.18a1,1,0,0,1-.1-.17l.09.21a.27.27,0,0,1,0-.12l0,.21v0a.86.86,0,0,0-.25-.59l-.17-.13a.84.84,0,0,0-.41-.11,1,1,0,0,0-.34,0,.82.82,0,0,0-.57.57.9.9,0,0,0,0,.4.91.91,0,0,0,.21.37Z" transform="translate(-45.09 -68.85)"/><path class="cls-1" d="M244,164c0,.41.1.82.11,1.22a.82.82,0,0,0,1.22.71c.8-.47.28-1.73.08-2.4a8.89,8.89,0,0,1-.27-1.16,2.11,2.11,0,0,1,0-.83,1.4,1.4,0,0,1,.13-.36l.08-.13q-.09.14,0,.06c.2-.1-.14.08,0,0a.5.5,0,0,1-.27.08c.09,0,0,0-.1,0,.14,0-.21-.11,0,0-.22-.12,0-.06,0,0l.15.16c.19.19,0-.07.07.07s.21.32.3.48c.33.55.58,1.15.94,1.69a1,1,0,0,0,1,.43c1.41-.43.83-2.33,1.12-3.42a3.79,3.79,0,0,1,.21-.65c0-.1.08-.19.12-.2s.43.31.52.41a2.25,2.25,0,0,1,.41.57,9.41,9.41,0,0,1,.89,3l0,.21c0-.08,0-.08,0,0s0,.25,0,.37c0,.3,0,.61.09.92a2.07,2.07,0,0,0,1.11,1.57.82.82,0,0,0,1.18-.9,1.94,1.94,0,0,0-.23-.53c-.07-.14-.09-.15,0,0l-.07-.18a2.58,2.58,0,0,1-.12-.72,14.12,14.12,0,0,0-.26-1.71,8,8,0,0,0-1.46-3.47A3.09,3.09,0,0,0,249.4,158a1.75,1.75,0,0,0-2,1,6.27,6.27,0,0,0-.47,1.87c0,.38-.1.76-.17,1.14,0,.12,0,.25-.07.38l0,.16a.55.55,0,0,1,.33-.34l1,.43c-.25-.48-.45-1-.73-1.45a4.2,4.2,0,0,0-1.39-1.62,1.47,1.47,0,0,0-2.08.65,5,5,0,0,0-.12,3.36c.06.29.14.57.22.85s.09.35.14.52,0,.17.06.24,0-.13,0-.22l.2-.36h0l1.28.16a3.62,3.62,0,0,1-.27-1c-.14-.75-1.43-.61-1.36.17Z" transform="translate(-45.09 -68.85)"/><path class="cls-1" d="M257.75,160.54c-.81-.79-1.87-1.71-3.09-1.25a2.57,2.57,0,0,0-1.6,2.55,4.24,4.24,0,0,0,1,2.63,2.2,2.2,0,0,0,3,.67,2.91,2.91,0,0,0,1.06-1.63c.06-.24.11-.48.15-.73s0-.24.05-.36,0-.22.05-.33,0-.29,0,0l-1.82.24a11.34,11.34,0,0,1,.53,1.22,3.57,3.57,0,0,0,.88,1.23,4.64,4.64,0,0,0,2.84,1.13.7.7,0,0,0,.67-.52.71.71,0,0,0-.33-.78,18,18,0,0,1-1.87-1.32,1.75,1.75,0,0,1-.23-.24c.08.11,0-.05,0-.09a1.19,1.19,0,0,1-.12-.22s-.12-.29-.06-.12a9.8,9.8,0,0,0-.55-1.29,1,1,0,0,0-1.82.24l-.06.47c0,.1,0,.1,0,0l0,.16a5.28,5.28,0,0,1-.13.67c0,.12-.06.22-.09.34s.07-.12,0,.07a2.54,2.54,0,0,1-.16.28c.16-.23-.21.13,0,0l-.15.09c.12-.05.13-.05,0,0,.14,0,.15,0,0,0q.19,0,0,0c-.18,0,.12.1,0,0l-.13-.08c.1.07.1.07,0,0l-.24-.24c-.07-.09-.07-.08,0,0l-.1-.13c-.11-.16-.19-.33-.28-.49s0,.17,0,0a2,2,0,0,1-.08-.26,2.74,2.74,0,0,1,0-.28c0,.26,0-.06,0-.12s0-.2,0-.3c0,.16,0,.07,0,0s.13-.35,0-.11c0-.08.09-.16.14-.24-.13.22,0,0,.08-.06-.12.09-.13.11,0,0s.09,0,0,0c.12,0,.12,0,0,0h.1c.11,0,.11,0,0,0a1.72,1.72,0,0,1,.32.18c.09.07.1.07,0,0l.14.12c.18.16.34.33.51.49a1,1,0,1,0,1.4-1.42Z" transform="translate(-45.09 -68.85)"/><path class="cls-1" d="M261.84,153.77a.05.05,0,0,0,0-.1.05.05,0,1,0,0,.1Z" transform="translate(-45.09 -68.85)"/><path class="cls-1" d="M262.07,155.69c.36,1.55.64,3.13.9,4.7.12.76.25,1.52.37,2.28.07.38.14.76.23,1.14a7.19,7.19,0,0,0,.14.93.8.8,0,0,0,1.16.49c.85-.52.65-1.54.52-2.36l-.42-2.54c-.28-1.72-.58-3.45-1-5.15-.29-1.25-2.22-.74-1.93.51Z" transform="translate(-45.09 -68.85)"/><path class="cls-1" d="M260.38,160.5c1.48-.21,2.95-.48,4.42-.78l1.76-.37a1.87,1.87,0,0,0,1.56-1.07c.26-.66-.5-1.21-1.08-1.09-.08,0-.56.18-.28.1a3.37,3.37,0,0,1-.34.09c-.2.05-.41.08-.61.11-.6.09-1.19.24-1.79.36-1.37.28-2.76.52-4.15.73a1,1,0,0,0-.71,1.21,1,1,0,0,0,1.22.71Z" transform="translate(-45.09 -68.85)"/><path class="cls-1" d="M268.64,163.41c1.45.28,3.14.67,4.36-.44a2.33,2.33,0,0,0,.68-2.48,3.31,3.31,0,0,0-1.77-1.9,2.76,2.76,0,0,0-2.38.06,3.79,3.79,0,0,0-1.52,1.53,4.54,4.54,0,0,0-.26,4.4A4.13,4.13,0,0,0,270,166.4a6.1,6.1,0,0,0,1.58.28,5.2,5.2,0,0,0,1.57-.19.83.83,0,0,0,.61-.79.82.82,0,0,0-.6-.79,8.84,8.84,0,0,0-1.15-.16l-.52,0-.38,0c-.17,0-.34-.07-.51-.12a1.19,1.19,0,0,1-.35-.15l-.38-.23s.13.11,0,0l-.19-.17-.16-.18s.11.16,0,0-.14-.23-.2-.35,0,.11,0,0-.05-.13-.06-.2a.83.83,0,0,1,0-.15l0-.17c0,.09,0,.1,0,0s0-.27,0-.4,0-.16,0-.25,0-.16,0,0a6.49,6.49,0,0,1,.19-.76s.08-.2,0,0l.07-.14c.05-.12.11-.23.17-.35l.21-.32c-.1.16,0,.05,0,0l.18-.2a1.7,1.7,0,0,1,.24-.22c-.19.16.08,0,.15-.09l.07,0c-.13.07,0,0,.08,0l.13,0c.16-.05-.15,0,.07,0,.07,0,.35,0,.17,0l.22,0s.16.06,0,0a3.72,3.72,0,0,1,.38.22c.14.08.07,0,0,0l.24.22.15.17c-.08-.1,0,0,0,0a1.34,1.34,0,0,1,.13.23s0-.12,0,0a.43.43,0,0,1-.14.45,1.36,1.36,0,0,1-.12.12s-.2.15-.07.07l-.21.12c-.14.09.1,0-.07,0l-.15.05-.2,0h-.37a9.91,9.91,0,0,1-1.74-.23.83.83,0,0,0-1,.58.82.82,0,0,0,.58,1Z" transform="translate(-45.09 -68.85)"/><path class="cls-1" d="M282.67,160.84a6.89,6.89,0,0,0-.1,2.35,3.68,3.68,0,0,0,1.09,1.86,3,3,0,0,0,2,.88,2.6,2.6,0,0,0,1.79-.73c2-1.85,1.07-5.4-1.3-6.44a2.69,2.69,0,0,0-2.5,0,2,2,0,0,0-.85,2.48.7.7,0,0,0,1.27-.16c0,.08,0,0,0,0l.08-.14c.12-.22-.06.06,0,0l.11-.12c.07-.08.15-.15.23-.23s-.14.07,0,0l.19-.11c.11-.08-.17,0,0,0s.18-.06.05,0,0,0,0,0H285c-.21,0,.07,0,.14.05l.15,0c.17.06-.09,0,0,0a2.69,2.69,0,0,1,.29.16.57.57,0,0,1,.13.08s-.16-.14,0,0,.51.42.48.48-.15-.21,0,0a.57.57,0,0,1,.08.13,1.35,1.35,0,0,1,.15.26.61.61,0,0,1,.07.14c.09.19,0,0,0,0a3.07,3.07,0,0,1,.11.36l.06.3c-.05-.23,0,.05,0,.12s0,.21,0,.32,0,.18,0,.05l0,.07c0,.1-.05.2-.08.3s0,.09,0,.13.08-.15,0,0-.09.19-.14.27l-.08.12c-.09.15.1-.09,0,0l-.18.19c-.14.15,0,0,0,0l-.1.07-.11.06c-.13.08,0-.06.06,0l-.12,0h-.06q-.15,0,.06,0s-.23,0-.27,0,.19.05,0,0l-.15,0c-.17,0,0,0,0,0l-.14-.07-.13-.08c-.22-.13.12.12-.07-.05a2.91,2.91,0,0,1-.31-.3l-.11-.12c.09.1,0,0,0,0s-.13-.22-.19-.33,0,.15,0,0,0-.15-.06-.22a1.29,1.29,0,0,1,0-.19c0,.17,0-.09,0-.12s0-.31,0-.46c0-.31.07-.61.11-.92a.93.93,0,0,0-.81-.91.9.9,0,0,0-1,.67Z" transform="translate(-45.09 -68.85)"/><path class="cls-1" d="M294.94,156.54c-.77-.67-1.74-1.53-2.82-.94a2.79,2.79,0,0,0-1,1.42,7.51,7.51,0,0,0-.34,1.76,20.55,20.55,0,0,0,.1,3.76,13.23,13.23,0,0,0,.27,2,4,4,0,0,0,.88,1.63.66.66,0,0,0,1-.14,2,2,0,0,0,.12-1.42c-.11-.44-.21-.87-.28-1.33-.14-1-.17-2-.23-2.94a6.64,6.64,0,0,1,.21-2.7c.05-.15.15-.27.21-.41s.06-.14-.07,0-.14-.07,0,0,.5.34.74.53a.9.9,0,0,0,1.22,0,.86.86,0,0,0,0-1.21Z" transform="translate(-45.09 -68.85)"/><path class="cls-1" d="M290.23,162.08a25.12,25.12,0,0,0,3.13.11,9.66,9.66,0,0,0,1.69-.22l.31-.08c.06,0,.26,0,0,0,.21,0,.43,0,.64-.11.44-.11.94-.43.94-1a.66.66,0,0,0-.38-.61.71.71,0,0,0-.21,0c.25,0,0,0-.07,0h-.18c-.31,0-.61-.05-.92-.05-.48,0-1,.06-1.45.08a27.75,27.75,0,0,1-3.53-.1,1,1,0,0,0-1,1,1,1,0,0,0,1,1Z" transform="translate(-45.09 -68.85)"/><path class="cls-1" d="M227.3,174.82c.29,1.93.47,3.87.64,5.8.09.91.19,1.81.25,2.72a5.45,5.45,0,0,0,.53,2.39.86.86,0,0,0,1.57-.64,18.25,18.25,0,0,1-.16-2.21c-.07-.93-.17-1.85-.25-2.77-.18-1.93-.37-3.87-.65-5.79a1,1,0,0,0-1.21-.72,1,1,0,0,0-.72,1.22Z" transform="translate(-45.09 -68.85)"/><path class="cls-1" d="M228.89,176c.05-.16.1-.33.16-.49s0-.18,0-.05,0,0,0,0l.11-.22.12-.18c.06-.1-.15.17,0,0l.06-.07.16-.15c.07-.07.11,0-.06,0,.05,0,.09-.06.13-.08l.18-.1s.19-.08,0,0l0,0,.23-.07.15,0,.09,0h.32c-.15,0,0,0,0,0l.1,0,.09,0c.17.06-.17-.09,0,0l.22.13c.07,0,0,.08-.07-.06,0,0,0,0,.07.07s.12.15.18.18-.14-.2-.06-.07l.09.13a1.92,1.92,0,0,0,.12.25s-.08-.23,0-.08l0,.11c0,.1.05.19.07.28s0,.12,0-.09c0,0,0,.11,0,.16a2.57,2.57,0,0,1,0,.48c0,.16,0-.07,0-.08a.32.32,0,0,0,0,.14c0,.1-.05.19-.08.29a1,1,0,0,1,0,.1c-.05.15,0-.05,0-.06a1.34,1.34,0,0,0-.12.24.94.94,0,0,0-.12.18c.06-.16.1-.12,0,0L231,177s-.09.06-.1.09.18-.12,0,0a1.71,1.71,0,0,1-.23.13s-.08,0-.12,0c.21,0,0,0,0,0s.11,0,0,0h-.15c-.14,0,0,0,0,0l-.14,0a2.08,2.08,0,0,0-.36-.06,1.35,1.35,0,0,0-.63,0,.51.51,0,0,0-.13.93c.15.09-.08-.06,0,0-.07-.05.29.23.11.08l.29.23a1.86,1.86,0,0,0,2.31.06,3.33,3.33,0,0,0,1.38-2.68,3.16,3.16,0,0,0-1.35-2.7,3.07,3.07,0,0,0-3,0,3.43,3.43,0,0,0-1.68,2.44.82.82,0,0,0,1.59.43Z" transform="translate(-45.09 -68.85)"/><path class="cls-1" d="M234.33,175.17a2.49,2.49,0,0,0,0,1.82,3.94,3.94,0,0,0,.23.5c.09-.07-.1-.19,0-.08a2.13,2.13,0,0,1,.14.35,2,2,0,0,0,.46.6,2.18,2.18,0,0,0,.8.45,1.43,1.43,0,0,0,.28.07,2.11,2.11,0,0,0,.35.05h0c-.16,0-.1,0,.17,0a2.91,2.91,0,0,0,1.17-.15,2.74,2.74,0,0,0,2-1.87,3.05,3.05,0,0,0-1.25-2.86,10.3,10.3,0,0,0-1.43-.93,3.93,3.93,0,0,0-1-.41,2.4,2.4,0,0,0-.6-.07,2.12,2.12,0,0,0-.69.21.78.78,0,0,0,0,1.35l.23.14a1.39,1.39,0,0,0,.28.12c.17.06,0,0,0,0a1.08,1.08,0,0,1,.29.13l.29.15c.34.18.68.38,1,.59l.22.15c.14.09,0,0-.05,0l.1.08a5,5,0,0,1,.41.39l.08.1c-.16-.17-.09-.12,0-.06a1.59,1.59,0,0,1,.13.22s.05.11.06.11-.08-.21,0-.07a2.81,2.81,0,0,0,.08.31s0-.25,0-.1v.1c0,.15.06-.24,0,0s.09-.14,0,0a.59.59,0,0,1,0,.08c-.07.11-.11.08,0,0a1.66,1.66,0,0,0-.13.14c-.09.09-.23.12,0,0-.14.07-.26.16-.4.23s.25-.09,0,0l-.19.06-.19,0c-.24.05.19,0,0,0h-.2l-.16,0h-.13s.21,0,.06,0l-.11,0s-.2-.06,0,0,0,0,0,0,0,0,.06.05a.39.39,0,0,0-.1-.08c-.12-.11,0,0,0,.07l-.06-.09c-.07-.13,0-.12,0,0a1.08,1.08,0,0,0-.2-.45.75.75,0,0,0-.07-.12c-.07-.1.06.19,0,0a.65.65,0,0,0,0-.13c-.06-.19,0,.17,0,0v-.14c0-.21,0,.18,0,0a2.29,2.29,0,0,1,.12-.37,1,1,0,0,0-.1-.75,1,1,0,0,0-.6-.45.92.92,0,0,0-.74.1,1.18,1.18,0,0,0-.46.59Z" transform="translate(-45.09 -68.85)"/><path class="cls-1" d="M240.78,175.42c.18,1.79.43,3.58.62,5.37.09.84.18,1.68.28,2.51,0,.41.09.82.1,1.24a6.1,6.1,0,0,0,.06,1.21l.76-1h0l.39.3,0,0a.54.54,0,0,0-1-.13,1,1,0,0,0-.16.84.78.78,0,0,0,1.31.35,3.47,3.47,0,0,0,.46-2.43c-.06-.89-.12-1.79-.21-2.67-.19-1.86-.45-3.71-.62-5.57a1,1,0,0,0-1-1,1,1,0,0,0-1,1Z" transform="translate(-45.09 -68.85)"/><path class="cls-1" d="M242,175.4c.09-.16.18-.31.28-.46l.13-.19.07-.09c-.14.23-.07.09,0,0a3.26,3.26,0,0,1,.31-.33s.08-.05.1-.09-.21.15-.08.07l.23-.14.09,0-.09,0a1.09,1.09,0,0,0,.24-.07l.11,0h0c-.18,0,0,0,.06,0h.15c.16,0,0,0-.05,0l.12,0,.11,0-.08,0a1.59,1.59,0,0,0,.22.13c.11.06-.16-.14-.07-.05a1.31,1.31,0,0,1,.12.11s.1.14,0,0,0,0,0,0,.07.15.11.19-.07-.19,0-.08l0,.1s0,.21,0,0,0,0,0,0,0,.1,0,.14.05-.18,0-.08a1.52,1.52,0,0,0-.06.2s.11-.23,0-.11l0,.07a.43.43,0,0,1,0,.07c-.08.15.17-.18.05-.06a3.07,3.07,0,0,1-.26.25l-.08.07s.22-.17.1-.08l-.19.13-.72.41a7,7,0,0,0-.91.63,1.51,1.51,0,0,0-.55,1.05.53.53,0,0,0,.27.47.58.58,0,0,0,.53,0c-.22.08.24-.1.19-.08.14-.05-.12,0,0,0l.09,0a2.68,2.68,0,0,0,.34-.16l.09,0,.08,0-.09,0,.89-.3a3.44,3.44,0,0,0,2-1.37,2.5,2.5,0,0,0-.4-2.91,2.67,2.67,0,0,0-2.87-.61,4.37,4.37,0,0,0-2.23,2.13,1,1,0,1,0,1.71,1Z" transform="translate(-45.09 -68.85)"/><path class="cls-1" d="M246.46,175.71a16.2,16.2,0,0,0,1,1.73,3.64,3.64,0,0,0,1.91,1.46,2.87,2.87,0,0,0,2.24-.26,2.46,2.46,0,0,0,1.07-1.76c.14-.89.07-2.34-1.18-2.33a.91.91,0,0,0-.79.46,1,1,0,0,0,0,.93c-.25-.52.08.23.12.23s-.1-.3,0-.08,0,.21,0-.06c0,.11,0,.23,0,.34s0,.11,0,.17,0-.23,0,0,0,.2-.07.31l0,.12c-.06.18,0-.09,0-.11s-.1.14-.11.19.14-.14.07-.09l-.09.09c-.1.11.21-.12,0,0a.83.83,0,0,0-.16.09s.21-.07.12-.05l-.1,0-.2.05c-.22,0,.16,0,0,0h-.19a1,1,0,0,0-.17,0s.23.05.09,0l-.1,0-.19-.05c-.17,0,.15.08,0,0l-.2-.1-.07-.05c-.14-.08,0,0,0,0a2.43,2.43,0,0,0-.29-.26l-.13-.15-.06-.07c-.12-.15.1.14,0,0-.37-.54-.66-1.12-1-1.68a.92.92,0,1,0-1.59.91Z" transform="translate(-45.09 -68.85)"/><path class="cls-1" d="M252.71,171.72c.14,1.06.32,2.11.56,3.16a6.73,6.73,0,0,0,1.32,3,.52.52,0,0,0,.81-.11,2.73,2.73,0,0,0,0-1.72c-.09-.52-.21-1-.34-1.55-.26-1.06-.47-2.12-.63-3.2a.91.91,0,0,0-1.11-.65.93.93,0,0,0-.64,1.11Z" transform="translate(-45.09 -68.85)"/><path class="cls-1" d="M261.4,173.94a5.25,5.25,0,0,0-1.94-.69,1.86,1.86,0,0,0-1.87,1.39,3.67,3.67,0,0,0-.17,1.51,5.7,5.7,0,0,0,.1.83,1.29,1.29,0,0,0,0,.19s.08.18,0,0c0,.16,0,.33.08.49a1.91,1.91,0,0,0,.31.7c.07.06,0,0,0-.08a1,1,0,0,0,.12.29,1.42,1.42,0,0,0,.26.38,1.52,1.52,0,0,0,1.58.38,2,2,0,0,0,.78-.78A4.48,4.48,0,0,0,261,178c.21-.46.37-.95.54-1.43l-.69.69c.09,0,0,0-.15,0a.63.63,0,0,1-.33-.09l.12.07q-.21-.16-.09-.06l.08.07a1.36,1.36,0,0,1,.12.12c.17.17.31.36.46.53a6.72,6.72,0,0,0,.94.75c.17.13.35.25.53.37a2,2,0,0,0,.73.24.81.81,0,0,0,.85-.29.79.79,0,0,0,.06-.89,2.36,2.36,0,0,0-.4-.54,2.88,2.88,0,0,0-.35-.26l-.09-.07L263,177l-.09-.07a3.57,3.57,0,0,1-.38-.3,9.77,9.77,0,0,0-1-1,1.41,1.41,0,0,0-.85-.29,1.08,1.08,0,0,0-.92.51,4.13,4.13,0,0,0-.22.62c-.05.15-.1.29-.16.44s-.08.22,0,.09-.05.1-.06.13a3.72,3.72,0,0,1-.21.39s-.15.23-.08.13-.12.13-.14.15l.69-.28c-.08,0-.24,0,0,0-.08,0-.08,0,0,0a.42.42,0,0,1,.18.11c-.13-.12.11.21,0,0l.05.13a.48.48,0,0,0-.07-.18,2.64,2.64,0,0,0-.15-.29c-.06-.09-.09-.13,0,0a.88.88,0,0,1-.07-.23c0-.09,0-.1,0,0s0,.06,0-.2-.09-.38-.12-.58c0,.13,0,0,0-.09a2.64,2.64,0,0,1,0-.29,1.93,1.93,0,0,1,0-.24s0-.29,0-.14a2.61,2.61,0,0,1,.06-.27s.06-.18.06-.2-.08.19,0,0-.12.1-.05.05.17-.16,0,0,0,0,0,0c-.29.14-.15,0-.07,0s-.23,0-.06,0h.14c.16,0-.21,0,0,0l.29.07.13,0c.16.06.06.06,0,0a1.05,1.05,0,0,0,.32.15l.31.14a.92.92,0,1,0,.92-1.6Z" transform="translate(-45.09 -68.85)"/><path class="cls-1" d="M264.25,171.57q.38,1.86.87,3.69a14.21,14.21,0,0,0,.55,1.79,4.28,4.28,0,0,0,1,1.73.63.63,0,0,0,1.06-.44,16.14,16.14,0,0,0-.69-3.64c-.32-1.2-.6-2.41-.85-3.63a1,1,0,1,0-1.93.5Z" transform="translate(-45.09 -68.85)"/><path class="cls-1" d="M265,175.39c.8,0,1.6.06,2.4,0a6.83,6.83,0,0,0,2.52-.63.6.6,0,0,0-.29-1.11,14.7,14.7,0,0,1-2.3-.09c-.77-.08-1.55-.12-2.32-.14a1,1,0,0,0,0,2Z" transform="translate(-45.09 -68.85)"/><path class="cls-1" d="M271.43,176a12.32,12.32,0,0,0,.45,1.46c.08.24.16.49.23.74s.06.24.1.36a4,4,0,0,0,.22.47.76.76,0,0,0,1.31,0,3,3,0,0,0,.19-.46,1.76,1.76,0,0,0,0-.56,6.83,6.83,0,0,0-.17-1c-.12-.51-.31-1-.42-1.52a1,1,0,0,0-1.21-.72,1,1,0,0,0-.72,1.22Z" transform="translate(-45.09 -68.85)"/><path class="cls-1" d="M272.47,171.92l.12-.29.09-.21a.65.65,0,0,0,0-.34.43.43,0,0,0-.06-.22.6.6,0,0,0-.19-.3,1.28,1.28,0,0,0-.22-.17h0l-.11,0-.11,0a1.06,1.06,0,0,0-.53,0,1.1,1.1,0,0,0-.44.26,1.31,1.31,0,0,0-.17.22l0,0a2.33,2.33,0,0,0-.11.28l0,.11a.73.73,0,0,0,0,.36,1.78,1.78,0,0,0,.09.23l0,0a1.3,1.3,0,0,0,.18.23l0,0,.23.17,0,0a1.17,1.17,0,0,0,.26.1h0l.25,0h.06a1,1,0,0,0,.28,0l.24-.1h0l0,0a1,1,0,0,0,.23-.18,1.35,1.35,0,0,0,.18-.25.89.89,0,0,0,.12-.45.64.64,0,0,0-.08-.36.69.69,0,0,0-.2-.31.88.88,0,0,0-.41-.23l-.12,0-.13,0,.24,0h-.07l.21.08h0a.71.71,0,0,0-.32-.1h-.11l.22,0h-.05l.2.08h0a.75.75,0,0,0-.29-.09.65.65,0,0,0-.31,0l-.21.09a.86.86,0,0,0-.3.3h0a1.89,1.89,0,0,0-.09.21h0v0a.62.62,0,0,0,0,.33s0,.08,0,.12h0v0l.1.23h0a.94.94,0,0,0,.18.25l-.16-1.13a.08.08,0,0,1,0,0l.15-.2s0,0,0,0l.2-.15,0,0,.23-.1,0,0,.24,0h-.06l.24,0-.09,0,.22.09-.09,0,.2.15a.23.23,0,0,1-.07-.07l.15.2-.16-.21.27.66v0l0,.23a.26.26,0,0,1,0-.08l-.09.21v0l-.14.19,0,0-.19.15h0l-.23.09h0l-.24,0h0l-.23,0h.05l-.21-.08h0l-.42-1c0,.1,0,.21-.08.31a.62.62,0,0,0,0,.33.75.75,0,0,0,.1.32l.15.19a.75.75,0,0,0,.28.18.46.46,0,0,0,.21.05.62.62,0,0,0,.33,0l.22-.09a.89.89,0,0,0,.32-.32Z" transform="translate(-45.09 -68.85)"/><path class="cls-1" d="M276,175.59a4.5,4.5,0,0,0,.58,2.6,2.84,2.84,0,0,0,3,1.21,2.38,2.38,0,0,0,1.77-2.47,2.85,2.85,0,0,0-.75-1.65,4.47,4.47,0,0,0-1.15-.87,3.31,3.31,0,0,0-1.6-.53,1.43,1.43,0,0,0-1.12.54,1.21,1.21,0,0,0-.22,1.18.8.8,0,0,0,.42.48.68.68,0,0,0,.62,0l.14-.08a1.73,1.73,0,0,0,.21-.17h0c-.13.1-.05,0,0,0s-.22.07-.13.05a1.51,1.51,0,0,0,.35-.14l-.24.1a.58.58,0,0,0,.14,0s-.28,0-.11,0-.07,0-.09,0l.16,0,.24.08c.16.06-.23-.1,0,0l.15.06a5.54,5.54,0,0,1,.53.3l.14.09c.06,0,.2.18,0,0l.23.2.2.22c-.2-.21-.09-.12-.05-.05a1.3,1.3,0,0,1,.1.15l.06.13c-.14-.24-.06-.15,0-.06s0,.12,0,.18,0-.23,0-.06,0,.1,0,.15c0,.23,0-.16,0,0l0,.13c0,.15.1-.2,0-.07l-.07.13c-.1.17.14-.16,0,0a1.8,1.8,0,0,1-.2.19l.2-.15a1.58,1.58,0,0,1-.36.2l.24-.1a1.29,1.29,0,0,1-.26.08c-.18.05.18,0,.08,0h-.27c-.16,0,.23.05.07,0l-.26-.08c.25.06.15.07.06,0l-.13-.06-.24-.15c-.15-.1.18.15.06,0l-.09-.09a1.29,1.29,0,0,1-.19-.21l.17.21a1.6,1.6,0,0,1-.23-.4l.1.24a2.29,2.29,0,0,1-.12-.37c0-.07,0-.13,0-.2s0-.07,0-.1,0,.28,0,.11,0-.61,0-.91a1,1,0,1,0-2,0Z" transform="translate(-45.09 -68.85)"/><path class="cls-1" d="M283.2,177.48c0-.28,0-.56.05-.84,0,0,0-.15,0-.06s0,0,0,0,0-.14,0-.21.08-.29.12-.44c-.05.18,0,0,.05-.08l.09-.15c.07-.13,0,0,0,0a.31.31,0,0,1,.07-.09,1.54,1.54,0,0,1,.19-.17l0,0,.11-.08a1.2,1.2,0,0,1,.21-.12s-.15.05-.06,0l.12,0,.09,0s-.19,0,0,0h.09s-.16,0,0,0l.1,0c.11,0-.11-.07,0,0a1.76,1.76,0,0,1,.23.14s-.13-.12-.07,0a.52.52,0,0,0,.11.1l.13.14c.15.16-.07-.13,0,0a2.6,2.6,0,0,1,.21.36.89.89,0,0,1,.08.17s.11.24,0,.09l0,.1c0,.07,0,.14.07.22.09.27.15.56.23.83s.18.6.29.88a4.17,4.17,0,0,0,.24.58,3,3,0,0,0,.35.45.62.62,0,0,0,1-.43c0-.18,0-.36-.05-.54s0-.15,0-.22-.07-.34,0-.14c-.08-.35-.09-.74-.14-1.1a4.87,4.87,0,0,0-.67-2,2.36,2.36,0,0,0-4.33.11,5.33,5.33,0,0,0-.35,2.47.71.71,0,0,0,1.42,0Z" transform="translate(-45.09 -68.85)"/><path class="cls-1" d="M228.22,190.37c.13,1.89.28,3.77.41,5.66.05.84.08,1.68.17,2.51a6.2,6.2,0,0,1,0,2c-.16.83.9,1.64,1.56.89a3.05,3.05,0,0,0,.49-2.39c-.09-.85-.15-1.7-.2-2.56-.13-2-.29-4-.44-6.07a1,1,0,0,0-2,0Z" transform="translate(-45.09 -68.85)"/><path class="cls-1" d="M229.9,191.21l.19-.17s.16-.11.19-.16c-.06.1-.15.11-.06.05l.1-.07.24-.14c.14-.08-.06,0-.08,0s.07,0,.1,0,.17,0,.21-.05-.19,0-.07,0a.41.41,0,0,1,.11,0h0l.09,0,.27.07c.19.06-.17-.08,0,0a3.37,3.37,0,0,1,.32.19l.1.07c.07,0,.06.09-.06-.06a.7.7,0,0,0,.16.14q.18.16.33.33c.16.17-.11-.17,0,0s.07.11.11.17,0-.2,0,0a.19.19,0,0,1,0,.08c.05.16,0,0,0-.08s0,.2,0,0,0,0,0,0c0,.2.08-.2,0,0s-.08.13,0,0,0,0,0,0l-.15.14c-.18.16.14-.09,0,0l-.17.1a3.17,3.17,0,0,1-.41.21c-.23.11-.47.19-.7.3s-.58.25-.86.4a2.78,2.78,0,0,0-.54.38,1,1,0,0,0-.28.44s0,.05,0,.08l0,.17c0-.1,0-.12,0,0a.63.63,0,0,0,.6.79,1,1,0,0,1,.25,0,.48.48,0,0,0,.53-.69,1.86,1.86,0,0,0-.33-.41v.89c-.29.24-.25.11-.14.1a1.06,1.06,0,0,0,.25-.1l.17-.1,0,0c.08,0,.06,0,0,0l.1,0c.09,0,.18-.06.27-.09l.86-.26a4.13,4.13,0,0,0,2-1,1.78,1.78,0,0,0,.42-1.5,2.53,2.53,0,0,0-.61-1.18,3.82,3.82,0,0,0-1.92-1.31,2.59,2.59,0,0,0-1.56.06,4.33,4.33,0,0,0-1.41.95,1,1,0,0,0,0,1.34,1,1,0,0,0,1.35,0Z" transform="translate(-45.09 -68.85)"/><path class="cls-1" d="M239.63,189.85a3.56,3.56,0,0,0-2.11-.86,2.42,2.42,0,0,0-2,2.18,4.27,4.27,0,0,0,.32,2.77,2.27,2.27,0,0,0,.87,1,1.61,1.61,0,0,0,1.64,0,3.08,3.08,0,0,0,1-1.15c.1-.16.18-.33.28-.5l.16-.26c.06-.09.07,0-.05.06,0,0,.08-.09.11-.12l-1.2.16c.21.1-.14-.14,0,0-.22-.22-.1-.09,0,0-.06-.17-.08-.2,0-.1a.31.31,0,0,1,0,.08l.06.19a4.11,4.11,0,0,0,.33,1,3.69,3.69,0,0,0,.81,1,5.66,5.66,0,0,0,.56.4,2.57,2.57,0,0,0,.66.28c.66.23,1.16-.57.86-1.12a5.36,5.36,0,0,0-.75-1,2.09,2.09,0,0,0-.2-.22c-.07-.09-.06-.07,0,0l-.09-.12a2.26,2.26,0,0,1-.16-.26s-.05-.09-.07-.14l.06.15c-.14-.66-.34-1.56-1-1.85a1,1,0,0,0-1.2.16,9.41,9.41,0,0,0-1,1.56c-.09.15.13-.14,0,0a1.85,1.85,0,0,0-.14.14c-.05.07.09-.07.1-.08s0,0-.07.05.12,0,.11,0,.19,0,.07,0l.13,0s-.11,0,0,0,.06,0,0,0,0-.06.08.06a.29.29,0,0,0-.11-.11s.12.18.08.1-.06-.08-.08-.12-.09-.21-.15-.3.09.25,0,.1l0-.07-.06-.22c0-.08,0-.17-.05-.25s0,.08,0,.08,0-.1,0-.11a2.9,2.9,0,0,1,0-.51.49.49,0,0,1,0-.12s0,.24,0,0,0-.15.05-.22l.06-.21a.39.39,0,0,1,0-.14s-.08.15,0,0l.1-.19s.15-.26.07-.13.15-.13,0,0,.11,0-.08.05,0,0,0,0-.15,0-.13,0a.4.4,0,0,0,.11,0c.11,0,0,.06-.09,0s.08,0,.11,0,.25.09.1,0,.08,0,.13.07c.26.15.51.32.76.49a1,1,0,0,0,1.35-.37,1,1,0,0,0-.37-1.36Z" transform="translate(-45.09 -68.85)"/><path class="cls-1" d="M243.66,194.45a5.78,5.78,0,0,1-.12-.57l-.06-.31,0-.17a.17.17,0,0,0,0-.07c0-.11,0,.16,0,.06s0-.43,0-.64v-.32c0-.05,0-.1,0-.15s0-.06,0-.09,0,.18,0,.07a2.46,2.46,0,0,1,.07-.29.74.74,0,0,1,0-.14c.05-.17-.07.14,0,0l.14-.25,0-.06s-.13.15-.07.09.08-.09.13-.13l.1-.1-.09.08.08-.06.13-.07.08,0c-.15.06.09,0,.14,0l.23-.06s.14,0,0,0,0,0,0,0h.3a10.09,10.09,0,0,1,1.09.06l.57.05a2.5,2.5,0,0,0,.71-.11.7.7,0,0,0,.5-.57.68.68,0,0,0-.34-.68,5.89,5.89,0,0,0-.58-.24l-.59-.15a5.83,5.83,0,0,0-1.24-.2,3,3,0,0,0-3.13,3.85,10.18,10.18,0,0,0,.35,1.64.8.8,0,0,0,.95.56.81.81,0,0,0,.56-1Z" transform="translate(-45.09 -68.85)"/><path class="cls-1" d="M251.78,190.88a3.7,3.7,0,0,0-1.26-.54,1.75,1.75,0,0,0-1.55.56,3.6,3.6,0,0,0-.8,2.26,2.47,2.47,0,0,0,1,2.34,2.19,2.19,0,0,0,2.77-.38c.78-.85,1.25-2.27.38-3.22a1,1,0,0,0-1.66.46,3,3,0,0,0,1.77,2.95,6.49,6.49,0,0,0,4,.42.77.77,0,0,0,0-1.47,15.06,15.06,0,0,1-2.82-.6c-.1,0-.32-.17-.49-.25s.13.13,0,0-.12-.11-.18-.18a1.71,1.71,0,0,1-.18-.2c.13.17,0-.05,0-.09s-.08-.24,0-.07c0-.22,0-.14,0,0l-1.66.45a.44.44,0,0,1-.11-.27c0,.16,0-.05,0,0a1.72,1.72,0,0,1-.07.21c0-.13,0,0,0,.06a1.74,1.74,0,0,0-.1.19s-.14.21,0,.09a1.37,1.37,0,0,1-.17.17c-.06.05-.05,0,0,0l-.08,0s.17-.06,0,0-.05,0,.06,0h-.13c.07,0,.06,0,0,0l.08,0-.12-.07c-.06,0-.05,0,0,0l-.07-.07c.06.08.1.19,0,0s.05.22,0,0a1.74,1.74,0,0,0-.05-.22c0,.13,0,.1,0,0a1.48,1.48,0,0,1,0-.21,3,3,0,0,1,0-.42c0,.22,0-.05,0-.08a1.33,1.33,0,0,1,.05-.19,1.33,1.33,0,0,1,.05-.19s.08-.23,0-.08,0,0,0-.06,0-.06,0,0l.08-.08c-.08,0-.09.05,0,0s-.14,0-.17,0,.1,0,0,0-.07,0,0,0-.14-.07,0,0l.51.28a1,1,0,0,0,1-1.73Z" transform="translate(-45.09 -68.85)"/><path class="cls-1" d="M256.7,194.8a8,8,0,0,1,.19,1.19.75.75,0,0,0,1.49,0,3.25,3.25,0,0,0-.17-1c-.09-.34-.19-.67-.27-1s-.08-.36-.11-.53a.78.78,0,0,0,0-.16q0,.1,0,0c0-.09,0-.19,0-.29a1.48,1.48,0,0,0,0-.21c0-.09,0-.1,0,0s0-.09,0-.13a1.21,1.21,0,0,0,.05-.18c0-.09,0-.08,0,0l.06-.1c.05-.08,0-.07,0,0l.06-.07.06-.06,0,0c.06,0,.08,0,0,0s0,0,.05,0-.19-.08,0,0l0,0a.86.86,0,0,1,.14.13.81.81,0,0,1,.12.14c0-.06,0-.06,0,0a1.34,1.34,0,0,1,.13.23.83.83,0,0,1,.07.13c-.05-.1-.05-.11,0,0a3.92,3.92,0,0,0,1.36,2.38.94.94,0,0,0,1.26-.35,3.8,3.8,0,0,0,.27-2.49,7.7,7.7,0,0,1,0-1c0-.18,0,.11,0-.09s-.07.08,0,0a.47.47,0,0,1-.25.19.33.33,0,0,1-.24,0c.07,0,.07,0,0,0s-.07,0,0,0l.08,0c.06,0,0,0-.05,0a.48.48,0,0,1,.11.09,2.94,2.94,0,0,1,.3.31c.14.15-.1-.15,0,0s.07.11.1.16l.07.11s.12.27.09.18c.31.87.18,1.79.46,2.73a1,1,0,0,0,.93.72,1.26,1.26,0,0,0,1.28-1.21.76.76,0,0,0-.75-.75,1.42,1.42,0,0,0-.35,0l-.08,0c-.15,0-.1.05.16,0l.68.69a8.17,8.17,0,0,1-.27-1.58,5.22,5.22,0,0,0-.48-1.68,3.21,3.21,0,0,0-1.8-1.6,1.4,1.4,0,0,0-1.53.65,2.38,2.38,0,0,0-.25,1.39c0,.39.05.79.07,1.18v.32s0,.36,0,.22a1.23,1.23,0,0,1-.08.33c.07-.17-.07.11-.1.14l1.46-.2-.17-.14a.27.27,0,0,0-.07-.08c-.09-.08.06.14,0,0a1.32,1.32,0,0,0-.12-.2c0-.06-.11-.28-.05-.11-.15-.38-.27-.78-.43-1.16a2.5,2.5,0,0,0-2.11-1.62,1.9,1.9,0,0,0-1.77,1.58,5.61,5.61,0,0,0,.13,2.16,15.06,15.06,0,0,0,.47,1.9l1.36-.55a5.19,5.19,0,0,1-.44-1.13.59.59,0,0,0-1.14.3Z" transform="translate(-45.09 -68.85)"/><path class="cls-1" d="M265.77,194.13a7.13,7.13,0,0,0,3.34.12,2.23,2.23,0,0,0,1.5-1.54,2,2,0,0,0-.76-2c-1.05-.82-2.84-1.22-3.82-.06a3.09,3.09,0,0,0,.24,3.84,5.27,5.27,0,0,0,4.17,2,.77.77,0,0,0,.38-1.43,8.34,8.34,0,0,0-.8-.38l-.19-.07-.07,0,0,0c0-.06-.32-.14-.38-.17-.22-.11-.45-.2-.67-.32l-.29-.18-.17-.11c-.16-.11.15.13,0,0a3.2,3.2,0,0,1-.27-.25c-.06-.06-.21-.17-.23-.25l.08.09-.09-.11a1.74,1.74,0,0,0-.11-.18c0-.08-.11-.31-.18-.36l.05.13a.56.56,0,0,0,0-.12c0-.05,0-.09,0-.14l0-.14c0-.13,0-.17,0,0,0-.08,0-.19,0-.27s0-.11,0-.16c0,.26,0,.1,0,0a.47.47,0,0,0,0-.09c0,.19-.08.15,0,0l.07-.12c0,.07-.17.18-.05.07l.08-.08c.12-.13-.21.12,0,0a.83.83,0,0,0,.13-.07c-.06.06-.23.08-.05,0a.75.75,0,0,0,.16,0l-.13,0h.12a1.71,1.71,0,0,1,.32,0c-.22-.06,0,0,0,0l.13,0,.14,0-.05,0,.11,0a1.35,1.35,0,0,1,.26.15c.19.12,0,0,0,0l.13.12s.07.08.08.08-.12-.18,0,0l0,.05c0,.09,0,.06,0-.08l0,.11v-.07c0,.09,0,.07,0-.07v.06c0,.09,0,.08,0,0,0,0-.06.12-.08.15s.16-.17,0,0a.41.41,0,0,0-.12.11c.07-.13.16-.11,0,0l-.09.05-.09,0,.08,0a1.28,1.28,0,0,0-.32.09.41.41,0,0,0-.16,0c.14,0,.16,0,.06,0h-.11a4.19,4.19,0,0,1-.71,0l-.38,0h-.14c-.16,0,.19,0-.05,0l-.81-.11a.88.88,0,0,0-.23,1.72Z" transform="translate(-45.09 -68.85)"/><path class="cls-1" d="M271.7,187.37c.24,1.33.48,2.66.74,4a18.41,18.41,0,0,0,1,3.8c.23.53,1.06.35,1.19-.16a10,10,0,0,0-.29-4.06c-.23-1.36-.49-2.71-.74-4.06a1,1,0,0,0-1.93.5Z" transform="translate(-45.09 -68.85)"/><path class="cls-1" d="M271,190.17c1,0,2.07.12,3.11.15s2.3.13,3-.67a.68.68,0,0,0-.48-1.15c-.39-.05-.82,0-1.23-.08s-1-.07-1.47-.1c-1,0-2-.11-2.94-.14a1,1,0,0,0,0,2Z" transform="translate(-45.09 -68.85)"/><path class="cls-1" d="M278.43,193.59c1.25.23,2.61.44,3.66-.45a2.2,2.2,0,0,0,.79-1.78,1.78,1.78,0,0,0-1.35-1.58,2.81,2.81,0,0,0-3.19,1.71,4,4,0,0,0,.31,3.55,3.86,3.86,0,0,0,1.53,1.44,4.73,4.73,0,0,0,2.06.42.72.72,0,0,0,.69-.53.71.71,0,0,0-.33-.8,9,9,0,0,1-1.16-.58l-.48-.3-.12-.08c-.15-.1,0,0,0,0a1.13,1.13,0,0,1-.26-.23c-.08-.07-.14-.16-.22-.23s.1.15,0,0a.5.5,0,0,0-.08-.12c-.06-.1-.11-.2-.16-.3l-.07-.14c.08.16,0,0,0,0s-.16-.4-.12-.53c0,.1,0,.16,0,0a.57.57,0,0,1,0-.13,1.82,1.82,0,0,1,0-.33.62.62,0,0,1,0-.13c-.08.18,0,.11,0,0l.06-.25s0-.14.06-.15-.11.22,0,.06l.15-.27c.07-.13,0,.06,0,0l.08-.09s.18-.14.18-.17-.17.12-.05.05l.13-.08s.13-.1,0,0,0,0,.07,0l.17,0s.18,0,.05,0h.26s-.18-.05,0,0,0,0,0,0,.1.06.1.05-.13-.1-.08-.05a.17.17,0,0,1,.06.06s-.13-.2-.06-.06c0,0-.06-.22,0-.07s0-.06,0-.06a.47.47,0,0,0,0,.12c0-.17,0-.11,0,0s-.09.2,0,.08l0,.06c0,.07-.1.13,0,0l-.12.13c-.08.08-.11.07,0,0l-.12.07c-.09.05-.18.06,0,0l-.34.09c-.16,0,0,0,0,0h-.22a4.47,4.47,0,0,1-.73,0h-.14c.12,0,.05,0,0,0l-.37-.05a.87.87,0,0,0-1,.6.86.86,0,0,0,.6,1Z" transform="translate(-45.09 -68.85)"/><path class="cls-1" d="M286.93,195a1.56,1.56,0,0,0-.16-.57c0-.1-.11-.19-.16-.27s-.24-.35-.37-.52-.26-.36-.38-.55a2.26,2.26,0,0,1-.16-.26l-.06-.11,0-.07s.08.22.05.1a.5.5,0,0,1,0-.13s0-.05,0-.07,0,.15,0,.14,0-.1,0-.13,0,.17,0,.14,0-.07,0-.09-.09.16,0,0,.12-.17,0,0,0,0,0,0,0,0,.05-.05,0,0-.05,0c.14-.07.26-.17.4-.25l.17-.09.12-.05s-.18.07,0,0a2.77,2.77,0,0,1,.41-.12.27.27,0,0,0,.12,0s-.2,0-.1,0l.24,0a3.73,3.73,0,0,1,.47,0h.09s.2,0,.06,0,0,0,0,0l.15,0,.49.11.24.07.22,0h.07a.64.64,0,0,0,.66-.23.62.62,0,0,0,0-.69,2.44,2.44,0,0,0-.51-.55,3.52,3.52,0,0,0-.45-.3,3.36,3.36,0,0,0-1.24-.37,3.83,3.83,0,0,0-2.24.59,2.11,2.11,0,0,0-1.17,1.79,2.85,2.85,0,0,0,.78,1.68c.17.22.36.42.54.63l.14.17.06.07s-.12-.16,0,0a2.75,2.75,0,0,0,.32.44.78.78,0,0,0,.81.15.74.74,0,0,0,.47-.68Z" transform="translate(-45.09 -68.85)"/><path class="cls-1" d="M117.26,205.76a7.39,7.39,0,0,0,2.54,1,2.58,2.58,0,0,0,2.31-1.17,2.21,2.21,0,0,0,.34-2,2.08,2.08,0,0,0-1.79-1.24A3.45,3.45,0,0,0,117,205a3.37,3.37,0,0,0,2.16,3.68,12.49,12.49,0,0,0,4.66.71.55.55,0,0,0,.14-1.08c-1.06-.26-2.15-.38-3.22-.63a4.92,4.92,0,0,1-1.48-.54,1.78,1.78,0,0,1-.51-.39l-.1-.1s-.13-.18,0-.07a2.22,2.22,0,0,1-.23-.39,2.18,2.18,0,0,1,1.25-2.74c.82-.37,2.35-.1,1.89,1.09a1.66,1.66,0,0,1-1.54,1.09,5.43,5.43,0,0,1-2.16-.88c-.64-.33-1.21.66-.56,1Z" transform="translate(-45.09 -68.85)"/><path class="cls-1" d="M126.76,202.79a2.36,2.36,0,0,0-.5,1.31,1.41,1.41,0,0,0,.55,1,7.87,7.87,0,0,1,1,1,2.47,2.47,0,0,1,.51,1,2.27,2.27,0,0,1-.1,1.17c0,.09,0,.1,0,0a.83.83,0,0,1-.07.13l-.07.12c.06-.08.06-.09,0,0s-.07.06,0,0a.41.41,0,0,1-.11.07c.15-.11,0,0-.08,0h-.12l-.23-.06c.1,0-.16-.08-.18-.1s-.1-.06,0,0l-.13-.11a4.91,4.91,0,0,1-.77-1,.57.57,0,0,0-1,.42,3.27,3.27,0,0,0,1.34,2.23,2,2,0,0,0,2.64-.41,3.43,3.43,0,0,0,.52-2.64,4.73,4.73,0,0,0-1.36-2.37c-.27-.28-.57-.52-.84-.79,0,0,.1.14.06.07s.05.18,0,0c0,.05,0,.13,0,.16s0,0,0-.05c-.06.14,0-.07.07-.11s.16-.26.24-.39a.77.77,0,1,0-1.34-.77Z" transform="translate(-45.09 -68.85)"/><path class="cls-1" d="M131,203.13c.24,1.17.4,2.36.61,3.54.11.58.22,1.16.36,1.74a4.72,4.72,0,0,0,.74,1.81c.39.49,1.07.12,1.24-.34a1,1,0,0,0,.07-.41.59.59,0,0,0-.56-.57,1,1,0,0,0-.42.07l.94.72a4,4,0,0,0-.07-.84c0-.33-.1-.65-.15-1-.09-.59-.18-1.18-.26-1.77-.17-1.16-.34-2.33-.57-3.48a1,1,0,1,0-1.93.5Z" transform="translate(-45.09 -68.85)"/><path class="cls-1" d="M130.12,205.37c1.83,0,4.3.28,5.39-1.56a.68.68,0,0,0-.93-.92l-.14.07s-.17.07,0,0a1.4,1.4,0,0,0-.4.16c-.07.06.17-.06,0,0l-.12,0-.3.07-.61.13c-.13,0,.24,0,0,0h-.13l-.34,0c-.81.06-1.63,0-2.44,0a1,1,0,0,0,0,2Z" transform="translate(-45.09 -68.85)"/><path class="cls-1" d="M136.65,206.72c.1.62.16,1.26.29,1.87.06.3.11.6.19.89s.11.31.17.46a1.15,1.15,0,0,0,.25.46l.16.18a.72.72,0,0,0,1.2-.33,1.69,1.69,0,0,0,.09-.59c0-.22,0-.44,0-.65,0-.06-.05-.28,0,0a1.49,1.49,0,0,1,0-.21l-.06-.48c-.07-.69-.19-1.38-.29-2.06a1,1,0,0,0-.47-.61,1,1,0,0,0-.75-.1,1,1,0,0,0-.61.47,1.11,1.11,0,0,0-.1.74Z" transform="translate(-45.09 -68.85)"/><path class="cls-1" d="M136.44,200.78h0l0-.15c0,.11,0,.21-.05.31a1.86,1.86,0,0,0,0,.33,1.23,1.23,0,0,0,0,.33.93.93,0,0,0,.43.61,1,1,0,0,0,.8.07l.16-.07A.69.69,0,0,0,138,202a.72.72,0,0,0,.09-.2.44.44,0,0,1,0-.1.77.77,0,0,0,0-.37.57.57,0,0,0-.28-.36.65.65,0,0,0-.74.1,1.63,1.63,0,0,0-.23.29l.4-.31a.37.37,0,0,1-.15,0l.17,0a.14.14,0,0,1-.09,0l.16,0-.06,0,.16.06-.05,0,.13.1,0-.05.11.14a.3.3,0,0,1,0-.08l.06.16a1.14,1.14,0,0,1-.06-.25l0,.16c0-.16,0-.33,0-.49a.58.58,0,0,0-.17-.41.6.6,0,0,0-.4-.17.66.66,0,0,0-.42.17l-.09.12a.57.57,0,0,0-.07.29Z" transform="translate(-45.09 -68.85)"/><path class="cls-1" d="M140.66,209a1,1,0,0,1-.07.72l1-.14c.09.11,0,0,0,0l-.09-.17c-.08-.13-.14-.26-.21-.39a6.87,6.87,0,0,1-.32-.89,4.44,4.44,0,0,1-.17-1c0-.08,0-.16,0-.24s0-.07,0-.1,0,.11,0,0,0-.12,0-.18,0,0,0,0,0-.07.05-.1,0,.1,0,0,0,0,0,0l.1,0c-.13,0,0,0,.06,0s0,0,0,0,.08,0,.11,0-.1,0,0,0l-.07,0s.08,0,.08,0,.11.07,0,0,0,0,0,0a1.74,1.74,0,0,0,.13.15c-.1-.12,0,0,0,0l.09.16.07.16c0,.06.11.25,0,.08.11.26.19.53.3.79a2.49,2.49,0,0,0,1.27,1.62.77.77,0,0,0,.94-.54,8.6,8.6,0,0,0,.23-1.69c0-.05,0-.24,0-.08l0-.22c0-.15,0-.29.09-.44l.06-.19c0-.1.07-.16,0,0l.09-.17c.09-.17-.06.07,0,0s-.06,0-.05,0-.18.05-.05,0-.21,0-.12,0,.12,0,0,0,0,0,0,0-.12-.07,0,0l.19.1.12.08s-.1-.08,0,0a2.18,2.18,0,0,1,.21.22c-.1-.13.07.13.09.17s.15.33.09.18l.09.25c.08.22.15.45.23.67a3.86,3.86,0,0,0,.77,1.35,1.4,1.4,0,0,0,1.66.41,1.12,1.12,0,0,0,.25-1.77.66.66,0,0,0-.94,0,1.9,1.9,0,0,0-.26.37c-.11.23,0,0,0,0a5.86,5.86,0,0,1,.67-.21l.08,0s.23.17,0,0l-.14-.11c.19.13.05.05,0,0s-.19-.22-.09-.08c-.06-.08-.11-.17-.16-.25s-.09-.18-.13-.27-.07-.17,0,0l-.06-.17a4,4,0,0,0-1.62-2.37,1.52,1.52,0,0,0-2.09.38,4,4,0,0,0-.48,1.78c0,.33-.05.66-.08,1l0,.26s0,.05,0,.08,0-.11,0,0,0,.23-.07.34l.94-.54c.19.08.13.06.08,0s.06,0,.07,0,0,.1,0,0l-.18-.35c.1.21,0,0,0-.06s-.05-.14-.08-.22-.1-.3-.16-.45a3.25,3.25,0,0,0-1.22-1.8,1.75,1.75,0,0,0-2.25.55,3.21,3.21,0,0,0-.15,2.4,5.31,5.31,0,0,0,1.09,2.37.66.66,0,0,0,1.12-.46,8.47,8.47,0,0,0-.07-1.33.56.56,0,0,0-.68-.41.59.59,0,0,0-.41.69Z" transform="translate(-45.09 -68.85)"/><path class="cls-1" d="M153.64,204.5c-.79-.56-1.73-1.2-2.75-.84a2.64,2.64,0,0,0-1.64,2.27,4,4,0,0,0,.37,2.68,2.67,2.67,0,0,0,2.8,1.1,1.87,1.87,0,0,0,1.32-1.25,4.29,4.29,0,0,0,.13-.6l0-.12c0-.16.06-.07,0,0s.11-.11,0,0-.21.15,0,.06l-1.17-.15s.25.31.14.16l.18.24.44.6a6,6,0,0,0,1.12,1.19,3.5,3.5,0,0,0,3.28.28.63.63,0,0,0,0-1.2c-.45-.1-.9-.1-1.35-.19a1.51,1.51,0,0,1-.88-.51c-.62-.64-1-1.24-1.57-1.95a1,1,0,0,0-1.17-.15,1.74,1.74,0,0,0-.86,1.21c0,.18-.08.38-.11.56l0,.08c.05-.1.05-.1,0,0,.07-.07.08-.09,0,0s0,0,0,0c-.1.05-.11.05,0,0l-.09,0c.18.07-.18,0-.09,0a1.65,1.65,0,0,0-.26-.07c.14,0-.11-.06-.12-.07s-.1-.07,0,0l-.07-.06q-.12-.14,0,0l-.05-.09a.31.31,0,0,1,0-.1c0,.13,0,.13,0,0s-.05-.16-.07-.24,0-.17-.05-.25c0,.18,0-.08,0-.12a4.71,4.71,0,0,1,0-.65c0-.27-.05.14,0-.12l.06-.25s.1-.3.06-.19.06-.12.08-.15a.53.53,0,0,1,.24-.19c-.16,0,.14,0,0,0,.11,0,.12,0,0,0l.18.05a2.28,2.28,0,0,1,.41.21c.21.13.4.26.6.4a.89.89,0,0,0,.89-1.55Z" transform="translate(-45.09 -68.85)"/><path class="cls-1" d="M156.72,201.93c.44,1.46.78,2.95,1.16,4.43a7.33,7.33,0,0,0,1.79,3.82.59.59,0,0,0,.92-.12c.41-.58,0-1.27-.16-1.85-.22-.75-.4-1.52-.6-2.28-.39-1.5-.73-3-1.18-4.5a1,1,0,0,0-1.21-.72,1,1,0,0,0-.72,1.22Z" transform="translate(-45.09 -68.85)"/><path class="cls-1" d="M158,206c1.9-.08,4.06.05,5.71-1.06a.63.63,0,0,0-.47-1.14A41.13,41.13,0,0,1,158,204a1,1,0,0,0-1,1,1,1,0,0,0,1,1Z" transform="translate(-45.09 -68.85)"/><path class="cls-1" d="M165,206.68c.59,1.48,1.26,3.48,3.13,3.64a2.31,2.31,0,0,0,2.33-1.81,3.48,3.48,0,0,0-.46-2.81,2.77,2.77,0,0,0-3.12-1c-.55.18-1.68.76-1.27,1.51.23.41.72.41,1.13.36l.3-.06a1.6,1.6,0,0,1,.33-.14c-.13,0-.14.06-.05,0l.11-.05.18-.05h.06c.1,0,.08,0,0,0a.45.45,0,0,1,.2,0h.07c.09,0,.08,0,0,0,.06,0,.25.06.32.08h.05l-.05,0a.76.76,0,0,0,.18.09s.09.08.12.08-.16-.14-.06,0l.21.2c.12.12-.12-.18,0,0l.08.12s0,.08.07.13l0,.09c0,.08,0,.06,0-.07,0,.09.07.19.09.29s0,.27.06.3,0-.17,0,0v.12c0,.11,0,.24,0,.34,0-.17,0-.1,0,0a.83.83,0,0,1,0,.15s0,.11,0,.14l0-.11,0,.09a1.65,1.65,0,0,0-.15.25l.08-.09-.07.07-.14.13c.09-.12.15-.1.07,0l-.17.09c.11-.1.17-.05,0,0s-.28,0,0,0h-.31c-.16,0,.21.05.06,0l-.16,0c-.15,0,.2.1.06,0l-.15-.08-.1-.07c-.13-.08.17.14.05,0l-.22-.21-.09-.1c-.05-.06-.15-.24,0,0a9.62,9.62,0,0,1-.61-1.08l-.13-.28c0-.08-.16-.41,0-.09-.08-.22-.17-.43-.26-.64a.84.84,0,0,0-1.55.63Z" transform="translate(-45.09 -68.85)"/><path class="cls-1" d="M173.78,207.8s.08.22,0,.07l0-.07c0-.06,0-.12-.05-.18s0-.11,0-.17,0,.21,0,0,0-.2,0-.3,0,.15,0,.14,0-.05,0-.08a.83.83,0,0,1,0-.15l0-.07s-.1.19-.06.14a1.33,1.33,0,0,0,.06-.12,1,1,0,0,1,.08-.11c0-.08-.1.12-.1.12a.5.5,0,0,0,.07-.08c.06-.07.13-.12.19-.19s-.21.15-.05.05l.13-.09.27-.14,0,0,.07,0a4.77,4.77,0,0,1,.65-.17l.34-.05h.16l.7-.05c.24,0,.48,0,.73,0h.51c.16,0-.17,0,0,0a.74.74,0,0,0,.56-1.35,4.92,4.92,0,0,0-3.43-.45,3.47,3.47,0,0,0-2.78,2,3,3,0,0,0,.24,2.23.94.94,0,0,0,1.28.34,1,1,0,0,0,.34-1.28Z" transform="translate(-45.09 -68.85)"/><path class="cls-1" d="M73.36,72.36c1.64,0,3.29-.07,4.93-.22s3.24-.49,4.88-.51l-.85-1.48a4.63,4.63,0,0,1-.67.51.65.65,0,0,0,.14,1,1.84,1.84,0,0,0,2.09-.35,1,1,0,0,0-.7-1.68c-1.64,0-3.26.36-4.88.5s-3.29.19-4.93.22a1,1,0,0,0,0,2Z" transform="translate(-45.09 -68.85)"/><path class="cls-1" d="M76.61,74.11c.19,1.63.45,3.25.61,4.89.06.65.1,1.3.12,2s.17,1.45.84,1.73a.75.75,0,0,0,1.08-.83c0,.2,0-.43,0-.19,0-.12,0-.23,0-.34s0-.5,0-.75a11.67,11.67,0,0,0-.13-2c-.16-1.5-.39-3-.56-4.5a1,1,0,0,0-1-1,1,1,0,0,0-1,1Z" transform="translate(-45.09 -68.85)"/><path class="cls-1" d="M75.11,84.1c1.59-.16,3.18-.28,4.77-.52a12,12,0,0,0,2-.39c.24-.08.49-.16.74-.22l.21,0c-.08,0-.06,0,0,0s.23,0,0,0l-.45-.59,0,.14a.93.93,0,0,0,1.79,0c.25-1.23-.9-1.61-1.9-1.45-.64.1-1.25.35-1.9.47-1.76.34-3.55.46-5.33.64a1,1,0,0,0-1,1,1,1,0,0,0,1,1Z" transform="translate(-45.09 -68.85)"/><path class="cls-1" d="M85.69,83.53l.16.5,1.34-.34c-.4-1.13-1.08-2.39-.66-3.6a2.67,2.67,0,0,1,.8-1.16,1.07,1.07,0,0,1,.24-.17,1.21,1.21,0,0,1,.25-.13l.19,0s.18,0,.08,0h.33s.27.08.17,0,.1.06.14.08.15.14,0,0a.46.46,0,0,1,.07.07A2.39,2.39,0,0,1,89,79c-.17-.18,0,0,0,.09s.09.17.13.25a.54.54,0,0,1,0,.11c.09.17,0-.13,0,0s.07.21.11.32a8.35,8.35,0,0,1,.27,1.32l0,.16c0,.22,0-.13,0,0l0,.3c0,.23,0,.47.07.7a6.81,6.81,0,0,0,.18,1.28,1,1,0,0,0,.71.78.77.77,0,0,0,.71-.18c-.27.21-.16.13-.12.09a.92.92,0,0,0,.39-.52,3.84,3.84,0,0,0-.08-1.43c-.06-.42-.11-.84-.18-1.27a7.37,7.37,0,0,0-.81-2.64,2.5,2.5,0,0,0-2.48-1.28,3.62,3.62,0,0,0-2.78,2.71,6.77,6.77,0,0,0,.62,4.43.68.68,0,0,0,.86.29.69.69,0,0,0,.41-.8L87,83.18a.71.71,0,0,0-.84-.49.7.7,0,0,0-.49.84Z" transform="translate(-45.09 -68.85)"/><path class="cls-1" d="M98.53,72.6c-.61-.33-1.27-.88-2-.71a2.09,2.09,0,0,0-1.28.89,3.84,3.84,0,0,0-.38,1.53,9,9,0,0,0,0,2.2,29.68,29.68,0,0,0,.76,4.19c.14.57.32,1.13.46,1.7a2.77,2.77,0,0,1,0,.95.55.55,0,0,0,.29.51c1,.56,1.65-.7,1.61-1.52a20.92,20.92,0,0,0-.72-3.11,18.91,18.91,0,0,1-.56-3.5,13.81,13.81,0,0,1,.14-1.82c0-.27,0-.24.34-.31l-.66-.09,1.2.62c1,.51,1.87-1,.87-1.53Z" transform="translate(-45.09 -68.85)"/><path class="cls-1" d="M94.84,80.1c2.35-.06,5,.09,7.08-1.18.5-.31.35-1.28-.32-1.21-2.25.24-4.49.35-6.75.4a1,1,0,0,0-1,1,1,1,0,0,0,1,1Z" transform="translate(-45.09 -68.85)"/><path class="cls-1" d="M104.11,82.49c1.46.32,3.13.44,4.14-.89a2.65,2.65,0,0,0,.57-2.36,2.46,2.46,0,0,0-1.68-1.52,3,3,0,0,0-2.29.23,3.79,3.79,0,0,0-1.64,1.74,4.09,4.09,0,0,0-.35,2.51,3,3,0,0,0,1.3,1.88,4.42,4.42,0,0,0,2.93.74A18.28,18.28,0,0,0,110,84c.58-.16.68-1.14,0-1.25a6.92,6.92,0,0,0-2.27.07l-.25,0c-.18,0,.21,0-.1,0l-.48,0c-.17,0-.33,0-.5,0s.08,0-.1,0a2,2,0,0,1-.35-.08,2.74,2.74,0,0,1-.71-.32l-.13-.08c.2.13,0,0,0,0a.94.94,0,0,0-.1-.1l-.09-.11,0,.07a1.69,1.69,0,0,0-.17-.29c-.07-.11.06.23,0,0s0-.12,0-.17,0-.23,0,0c0,0,0-.1,0-.15a2.57,2.57,0,0,1,0-.48c0,.22,0-.07,0-.09l0-.17c0-.08.05-.16.07-.24s.08-.17,0,0a3.9,3.9,0,0,1,.19-.35,1.37,1.37,0,0,1,.13-.2c-.1.13,0,0,.05,0s.19-.19.28-.28c-.13.13-.06,0,0,0l.21-.13.14-.08c.07,0,.28-.08.07,0l.13,0c.1,0,.09,0,0,0h.14a1.93,1.93,0,0,1,.34,0c-.23,0,.09,0,.17,0l.12,0c-.2-.08-.06,0,0,0l.14.08c.17.1-.11-.12,0,0s0,0,0,0l.06.11c.12.15,0-.2,0,0a.6.6,0,0,0,0,.12c0-.24,0-.05,0,0,0-.15,0-.11,0,0a1.87,1.87,0,0,1-.07.22c.06-.13,0,.11,0,.12l-.11.18a.61.61,0,0,1-.07.1c.07-.09.07-.09,0,0a.52.52,0,0,0-.1.11l-.11.09q.17-.12,0,0l-.11.07-.12.06c.11,0,.14,0,.07,0s-.24.07-.36.09.19,0,0,0h-.22l-.44,0-.15,0h0l-.15,0-.47-.09a.94.94,0,0,0-1.12.64.93.93,0,0,0,.65,1.12Z" transform="translate(-45.09 -68.85)"/><path class="cls-1" d="M112.89,83.89l-.27-.59c-.08-.2-.09-.21-.17-.44s-.13-.37-.18-.56a2.86,2.86,0,0,1-.07-.28s0-.29,0-.12a2.34,2.34,0,0,1,.59-1.81,3.33,3.33,0,0,1,.36-.39l.19-.16c-.13.11,0,0,0,0s.26-.15.4-.23-.17.06,0,0l.21-.07a3.74,3.74,0,0,1,.45-.12l.19,0c.07,0,0,0,0,0h.12c.22,0,.44,0,.66-.08l.25,0,.19,0a.79.79,0,0,0,.21-1.54,5,5,0,0,0-2.59,0,4.29,4.29,0,0,0-2.14,1.51,4.22,4.22,0,0,0-1,3,9,9,0,0,0,1,3,.93.93,0,0,0,1.27.34,1,1,0,0,0,.34-1.27Z" transform="translate(-45.09 -68.85)"/><path class="cls-1" d="M117.87,82.65c1.27.18,2.72.42,3.89-.26,1.42-.81,1.76-3,.1-3.81A2.92,2.92,0,0,0,118,80.39a3.43,3.43,0,0,0,1.76,4,8.37,8.37,0,0,0,5.54.4.77.77,0,0,0,0-1.47,7.5,7.5,0,0,0-1-.14c-.32,0-.65,0-1,0a10.6,10.6,0,0,1-1.76-.15l-.43-.1-.22-.07s-.23-.08-.08,0l-.37-.19-.19-.12c.13.09-.06,0-.09-.08l-.24-.25c.13.15-.09-.16-.12-.22l-.08-.15c.09.19,0,0,0,0a1.8,1.8,0,0,1-.05-.19s0-.28,0-.08a2,2,0,0,1,0-.35c0-.15,0,.2,0,0a.83.83,0,0,1,0-.15.64.64,0,0,1,.06-.18c0-.14-.11.17,0,0l.08-.14s.17-.21,0-.06c0,0,.32-.31.16-.19a1.75,1.75,0,0,1,.29-.18s.27-.12.12-.06.08,0,.09,0l.14,0c-.2,0,0,0,.06,0H121c.13,0-.18-.06,0,0l.13,0c.21,0-.09-.05,0,0a1.19,1.19,0,0,1,.15.09s-.16-.11,0,0,0,0,0,0,0,.07,0,0a.36.36,0,0,1,0,.1c0,.12.07-.18,0,0,0,0,0,.15,0,0,0,.06,0,.12,0,.17-.06.24,0-.06,0,.06l-.1.16c.08-.13,0,0,0,0l-.12.13,0,0-.09.06-.15.08c-.18.11.15,0,0,0l-.36.1-.19,0c-.06,0-.05,0,0,0l-.16,0h-.39a13.66,13.66,0,0,1-1.57-.13c-.92-.11-1.15,1.5-.22,1.62Z" transform="translate(-45.09 -68.85)"/><path class="cls-1" d="M125.7,84l.22.43a.75.75,0,0,0,.82.35.77.77,0,0,0,.55-.71,8,8,0,0,0-.4-2.36c-.1-.42-.19-.85-.25-1.29,0,.18,0-.11,0-.15s0-.22,0-.34v-.26a.57.57,0,0,0,0-.13c0-.19,0,.11,0,0a1.06,1.06,0,0,1,.05-.23s0-.08,0-.13c0,.2,0,.08,0,0a1.74,1.74,0,0,0,.11-.18c-.17.29.05-.09.08,0s-.19.11,0,0l.12-.06s-.19,0-.07,0l.15,0,.16,0s-.18,0,0,0,.28,0,.43,0h.06a1.55,1.55,0,0,1,.23.06s.23.08.12,0,.11.06.1,0,.34.23.2.12a2.58,2.58,0,0,1,.38.36l.1.12c-.14-.16,0,0,0,.06a3,3,0,0,1,.21.33,8.46,8.46,0,0,1,.43.85l.08.18c0,.07,0,0,0,0l.06.14c.06.15.11.3.16.44.13.37.23.73.35,1.09a3.57,3.57,0,0,0,1.38,2c.56.35,1.13-.34.86-.87a3.5,3.5,0,0,1-.3-.83c-.09-.35-.2-.69-.29-1a10.85,10.85,0,0,0-.75-2,4.27,4.27,0,0,0-2.9-2.72,2.46,2.46,0,0,0-2.86,1.38,5.23,5.23,0,0,0,.08,2.8c.1.52.23,1,.34,1.55,0,.22.08.44.11.66,0-.23,0,.09,0,.16V84l1.37-.36-.23-.43c-.45-.82-1.68-.1-1.26.73Z" transform="translate(-45.09 -68.85)"/><path class="cls-1" d="M136.82,77.75a5.2,5.2,0,0,0-2,1.51,3.54,3.54,0,0,0-.49,2.8,4.18,4.18,0,0,0,1.39,2.29,4.67,4.67,0,0,0,2.55,1,7.54,7.54,0,0,0,2.76-.24.77.77,0,0,0,0-1.47,5.87,5.87,0,0,0-1.45-.17l-.59,0-.34,0-.16,0a5,5,0,0,1-.56-.11,1.58,1.58,0,0,1-.31-.09l-.16-.05c.11,0,.12,0,0,0a2.64,2.64,0,0,1-.29-.15s-.24-.18-.07,0a2.73,2.73,0,0,1-.48-.48c.15.19-.06-.1-.08-.14l-.17-.3c-.1-.19,0,.15,0-.08l-.09-.33,0-.17h0a2,2,0,0,1,0-.35c0-.06,0-.26,0-.09l.09-.34c0-.11,0-.12,0,0,0-.06,0-.11.07-.16s.24-.3.08-.12l.21-.23c.05,0,.24-.16,0,0,.36-.23.73-.43,1.12-.63a1,1,0,1,0-1-1.72Z" transform="translate(-45.09 -68.85)"/><path class="cls-1" d="M142.72,82.44c1.36-.21,2.81-.42,3.56-1.74a3.1,3.1,0,0,0-.43-3.57,1.81,1.81,0,0,0-2-.39,3.24,3.24,0,0,0-.91,1,4.93,4.93,0,0,0-.54,1.19,4.87,4.87,0,0,0-.28,2.5,2.91,2.91,0,0,0,1.65,2,12.49,12.49,0,0,0,3.05.92c.57.1,1.13.21,1.7.28a6.25,6.25,0,0,0,1.78-.1.79.79,0,0,0,.58-.86.81.81,0,0,0-.78-.69c-1-.14-2-.31-3-.48a10,10,0,0,1-1.44-.34,5.26,5.26,0,0,1-1.29-.48,1.33,1.33,0,0,1-.45-1.59,6,6,0,0,1,.28-1.09,3.25,3.25,0,0,1,.67-1l-.39.22s.23,0,.13,0,.09,0,.11,0,0,0,0,0,.07,0,.08,0,.08.08.12.13,0-.09,0,0l.09.16.09.18c0-.08,0,0,0,0a2.36,2.36,0,0,1,.1.38.73.73,0,0,1,0,.25,1,1,0,0,1,0,.17c0,.11,0-.14,0,0-.34,1.25-1.67,1.36-2.76,1.58-.76.15-.44,1.27.31,1.16Z" transform="translate(-45.09 -68.85)"/><path class="cls-1" d="M171.19,69.71a2.76,2.76,0,0,0-2.29-.83,4.17,4.17,0,0,0-1.91.87,2.91,2.91,0,0,0-.84,1.82,26.58,26.58,0,0,0-.37,2.66,25.19,25.19,0,0,0,.39,5.41,16.53,16.53,0,0,0,.66,2.67,11.21,11.21,0,0,0,.47,1.26c.08.17.4.6.29.77-.31.48.29.93.72.72,1.29-.61.52-2.32.28-3.33a32.51,32.51,0,0,1-.81-4.8,17.26,17.26,0,0,1,.17-4.65c.08-.39,0-1,.4-1.22a1.19,1.19,0,0,1,1.55,0c.89.76,2.19-.53,1.29-1.31Z" transform="translate(-45.09 -68.85)"/><path class="cls-1" d="M163.8,80.35a25.3,25.3,0,0,0,3.59.14c.63,0,1.24-.08,1.85-.15l.86-.09a2.6,2.6,0,0,0,.56,0c.08,0-.06,0-.09,0s-.26-.08,0,0a2.09,2.09,0,0,1,.36.08s-.21-.05-.12,0a.76.76,0,0,0,.78-.2,1,1,0,0,0-.34-1.67,2.53,2.53,0,0,0-1.49-.1c-.6.06-1.19.14-1.79.18a26.26,26.26,0,0,1-4.16-.12,1,1,0,1,0,0,2Z" transform="translate(-45.09 -68.85)"/><path class="cls-1" d="M173.44,84.08l.14.58,1.67-.68a1.3,1.3,0,0,1-.08-.17c0-.08-.08-.28,0,0a3.52,3.52,0,0,0-.15-.42,8.3,8.3,0,0,1-.22-1,.69.69,0,0,1,0-.13c0-.1,0-.08,0,0,0,0,0-.18,0-.25s0-.29,0-.43a1.93,1.93,0,0,1,0-.24s0-.07,0-.11,0-.08,0,.07a.78.78,0,0,0,0-.22c0-.06,0-.13.07-.2s-.11.22,0,0l0-.08-.06.08a1.62,1.62,0,0,0,.17-.19.39.39,0,0,1,.1-.08c-.13.09-.15.11-.06,0l.1-.06c.1-.05.07,0-.08,0a.94.94,0,0,0,.16,0l.11,0h.17a2.28,2.28,0,0,1,.27,0l.14,0,.64.14.62.17a3.4,3.4,0,0,0,.46.08c.1,0,.1,0,0,0l.17,0a.81.81,0,0,0,.88-.37.8.8,0,0,0-.13-.94,5.93,5.93,0,0,0-.56-.43,4.88,4.88,0,0,0-.66-.29,5.16,5.16,0,0,0-1.14-.29,2.85,2.85,0,0,0-2.23.36,2.61,2.61,0,0,0-1.08,1.74A5.88,5.88,0,0,0,173,83a6.12,6.12,0,0,0,.67,1.91.92.92,0,0,0,1.13.38.91.91,0,0,0,.54-1.07l-.2-.57a.9.9,0,0,0-1.07-.63.91.91,0,0,0-.63,1.08Z" transform="translate(-45.09 -68.85)"/><path class="cls-1" d="M180.93,81.61a8,8,0,0,0,1.91,2.3,2.36,2.36,0,0,0,1.8.46,2.63,2.63,0,0,0,1.72-1.26,3,3,0,0,0,.33-2.18,2.65,2.65,0,0,0-1.17-1.64,4,4,0,0,0-1.73-.62,3.69,3.69,0,0,0-1.62.1,3.53,3.53,0,0,0-1.56.86,1.36,1.36,0,0,0-.33,1.3,1.34,1.34,0,0,0,1.06.91.75.75,0,0,0,.8-.28.74.74,0,0,0,.06-.83l-.08-.13c-.1-.15.06.2,0,.06l0-.1c-.06-.13,0,.25,0,.11l0,.19c0-.09,0,0-.06.14.07-.13-.18.21-.08.1l.17-.17c.12-.12-.23.16-.08.06l.1-.06a1.27,1.27,0,0,1,.23-.12l.12-.06-.1,0,.25-.09.17,0c.1,0,.4,0,.05,0a4.42,4.42,0,0,1,.63,0c.09,0,.22.06-.05,0l.16,0,.3.07.3.1c-.27-.07-.13,0-.05,0l.18.09.25.16c-.29-.18,0,0,0,.06l.09.1c-.2-.2-.11-.15-.05-.06l.06.12c.07.12-.1-.29,0,0,0,.06,0,.11,0,.17s0,.19,0,0c0,.11,0,.23,0,.34v0c0,.11,0,.08,0-.09a.9.9,0,0,0,0,.16,1.42,1.42,0,0,0-.05.16c0,.1,0,.07,0-.08a.93.93,0,0,1,0,.1l-.08.14c-.1.17.16-.18,0,0a2.72,2.72,0,0,0-.24.24l.12-.09-.1.06-.14.08c-.16.1.25-.07.08,0l-.16,0c.28-.08.19,0,.09,0h-.12c.2,0,.22,0,.09,0l-.12,0c-.16,0,.24.11.08,0l-.11-.06-.12-.07c-.07,0-.21-.2,0,0-.16-.15-.33-.29-.48-.46l-.22-.26c-.12-.15.16.21,0,.06l-.11-.16c-.2-.28-.38-.58-.57-.87a1,1,0,1,0-1.72,1Z" transform="translate(-45.09 -68.85)"/><path class="cls-1" d="M187.39,84.23a.93.93,0,0,1,.08.57l1.53-.19a3.58,3.58,0,0,1-.14-2.37.64.64,0,0,1,.08-.2s.17-.26.1-.16l.08-.08a.6.6,0,0,1,.15-.09c-.07,0-.07,0,0,0a.35.35,0,0,1,.14,0c-.08,0-.07,0,0,0-.21,0,0,0,.05,0-.24-.2.09.16,0,0s.09.1.11.12c-.15-.16,0,0,0,.05l.16.29a1.63,1.63,0,0,1,.11.23c.1.2,0-.1,0,.09.16.42.3.84.48,1.26.33.78.93,1.45,1.86,1.24a1,1,0,0,0,.72-.92,8.88,8.88,0,0,1,.32-1.79,1.9,1.9,0,0,1,.3-.59s.17-.13.07-.08c.17-.09.16-.07.37,0,.77.09,1.08.9,1.39,1.52a6.09,6.09,0,0,0,.78,1.23,2.59,2.59,0,0,0,1.37.82.84.84,0,0,0,.8-1.4,6.8,6.8,0,0,1-.94-1.09c-.29-.46-.48-1-.79-1.43a3.2,3.2,0,0,0-3.06-1.59c-2.13.27-2.36,2.74-2.53,4.42l.72-.92c-.1,0-.06,0,.11,0a.64.64,0,0,1,.3.08c-.14-.07.23.13,0,0,.19.13.06.08,0,0l-.09-.19c-.12-.24,0,0-.06-.12l-.12-.32c-.09-.24-.19-.48-.29-.71-.38-.9-1-1.86-2.07-1.92-2.57-.12-3,3.62-2,5.3a.78.78,0,0,0,1.45-.38,2.59,2.59,0,0,0-.34-1.33c-.47-.84-1.72-.1-1.29.75Z" transform="translate(-45.09 -68.85)"/><path class="cls-1" d="M212.66,79.5c-.23,1.07-.58,2.27,0,3.31a2.61,2.61,0,0,0,3.65.84c1.45-1,1.22-2.77.61-4.17A15.08,15.08,0,0,0,214.53,76l-.4-.46-.27-.32-.17-.21a7.92,7.92,0,0,1-.46-.67l-.06-.1c-.07-.12.07.19,0,0s0,.06,0,.08.05-.18,0,.07l-.64.64a1.08,1.08,0,0,0,.59-.3.67.67,0,0,0,.18-.67,1.37,1.37,0,0,0-.55-.7.9.9,0,0,0-.91,0c-1.06.64-.42,1.92.14,2.66.29.38.59.74.91,1.1l.26.31c.06.06,0-.07,0-.07l.21.27.31.4a7.52,7.52,0,0,1,1.71,3,2,2,0,0,1,0,.57.27.27,0,0,1-.07.17.2.2,0,0,1-.08.08.74.74,0,0,1-.83,0l0,0h0c0,.07,0,.06,0,0s-.09-.14,0,0,0-.06,0-.08l0-.13c0,.18,0,0,0,0v-.33c0-.06,0-.13,0-.19,0,.1,0,0,0,0s0-.26.07-.38l.15-.7a1,1,0,1,0-1.92-.51Z" transform="translate(-45.09 -68.85)"/><path class="cls-1" d="M223.85,79a5.64,5.64,0,0,0-3.4-.06c-1.26.56-1.81,2.24-1.75,3.53s.77,2.89,2.32,2.85a3.08,3.08,0,0,0,1.94-.94,16.06,16.06,0,0,1,1.14-1.25l-1.46-.61c.86,2.37,3.34,3,5.63,2.67.79-.12.68-1.29,0-1.48s-1.62-.34-2.4-.58l-.29-.1c.15.06-.1-.06-.12-.07a2,2,0,0,1-.25-.14c-.18-.11.06.07-.11-.08a1.34,1.34,0,0,1-.21-.2s-.18-.21-.11-.12a2.56,2.56,0,0,1-.21-.4,1,1,0,0,0-1.47-.61A6.19,6.19,0,0,0,222,82.51a2.58,2.58,0,0,1-.9.82l-.12,0c.09,0,.08,0,0,0l.07,0c-.1,0-.11,0,0,0s.06,0,0,0l.06,0c-.08-.09-.08-.09,0,0a1.7,1.7,0,0,1-.28-1,2.58,2.58,0,0,1,.24-1.13,1.28,1.28,0,0,1,.28-.43s0,0,0,0l.12-.07c.1,0-.11,0,.07,0,0,0,.3,0,.13,0h.31l.25,0s.24,0,.12,0c.38.06.76.15,1.14.23a1,1,0,0,0,1.22-.71,1,1,0,0,0-.7-1.22Z" transform="translate(-45.09 -68.85)"/><path class="cls-1" d="M229.1,76.52c.27,1.43.56,2.85.87,4.28.15.68.32,1.36.5,2a5.08,5.08,0,0,0,.9,2.09.63.63,0,0,0,1-.28,5.22,5.22,0,0,0-.11-2.29c-.13-.69-.27-1.38-.42-2.06-.3-1.42-.59-2.85-.85-4.28a1,1,0,0,0-1.21-.72,1,1,0,0,0-.72,1.22Z" transform="translate(-45.09 -68.85)"/><path class="cls-1" d="M228.07,80.75c1.43-.16,2.87-.31,4.3-.52.55-.07,1.11-.15,1.65-.25a2.58,2.58,0,0,0,1.62-.77A.91.91,0,0,0,235.7,78a.9.9,0,0,0-1.17-.24c-.1,0-.1,0,0,0a1.79,1.79,0,0,0-.32.13c.19-.07-.07,0-.11,0a5.32,5.32,0,0,1-.67.14l-1.62.24c-1.24.17-2.49.29-3.73.43a1,1,0,0,0-1,1,1,1,0,0,0,1,1Z" transform="translate(-45.09 -68.85)"/><path class="cls-1" d="M241.78,78.79c-1.41-.35-3.22-.92-4.37.36a4.22,4.22,0,0,0-.64,4,2.44,2.44,0,0,0,3.4,1.56A16.59,16.59,0,0,0,243,82.29l-1.64-.44a4.57,4.57,0,0,0,2.91,2.81,7.39,7.39,0,0,0,3.92.36.81.81,0,0,0,0-1.56c-1.64-.54-4.22-.16-4.94-2.1a1,1,0,0,0-1.64-.44c-.63.51-1.24,1.23-1.83,1.67a3.55,3.55,0,0,1-.53.32c.15-.07-.11,0-.13,0-.18,0,.05-.07-.12,0,.1,0,0,0,0,0s-.12-.09,0,0a1.59,1.59,0,0,1-.37-.51c.06.14,0,0,0-.1s-.05-.21-.06-.27a3.46,3.46,0,0,1,0-.64,2.9,2.9,0,0,1,.12-.57c0-.09.06-.15.08-.21s.13-.21.06-.11c.17-.23.6-.24,1-.19a15,15,0,0,1,1.47.36,1,1,0,0,0,.51-1.93Z" transform="translate(-45.09 -68.85)"/><path class="cls-1" d="M76.07,91.49c11.06.92,22.19.93,33.28,1.5s22.18.87,33.26,1.21,22.13.71,33.2.66,22.13-.58,33.2-.63c12.43-.06,24.87.08,37.29-.41a.64.64,0,0,0,0-1.28q-16.78-.14-33.57,0c-11.07.11-22.13.59-33.2.74s-22.13-.12-33.2-.5-22.18-.63-33.26-1.12c-6.19-.27-12.37-.56-18.57-.71s-12.3-.3-18.43-.82c-.84-.07-.84,1.25,0,1.32Z" transform="translate(-45.09 -68.85)"/></svg>