<svg id="Layer_1" data-name="Layer 1" xmlns="http://www.w3.org/2000/svg" viewBox="0 0 254.39 109.75"><defs><style>.cls-1,.cls-10{font-size:8.97px;fill:#486afb;font-family:DejaVuSansMono, DejaVu Sans Mono;}.cls-10,.cls-2{letter-spacing:-0.01em;}.cls-3{letter-spacing:0.89em;}.cls-4{letter-spacing:0.9em;}.cls-5{letter-spacing:-0.01em;}.cls-6{letter-spacing:0.9em;}.cls-7{letter-spacing:1.41em;}.cls-8{letter-spacing:0.89em;}.cls-9{letter-spacing:1.41em;}.cls-11{letter-spacing:0em;}</style></defs><text class="cls-1" transform="translate(4.68 7.75)"><tspan class="cls-2">85</tspan><tspan class="cls-3" x="10.71" y="0">0</tspan><tspan class="cls-2" x="24.09" y="0">74</tspan><tspan class="cls-4" x="34.8" y="0">0</tspan><tspan class="cls-5" x="48.31" y="0">90</tspan><tspan class="cls-3" x="59.01" y="0">0</tspan><tspan class="cls-2" x="72.4" y="0">107</tspan><tspan class="cls-6" x="88.46" y="0">0</tspan><tspan class="cls-2" x="101.96" y="0">93</tspan><tspan class="cls-6" x="112.67" y="0">0</tspan><tspan class="cls-2" x="126.17" y="0">85</tspan><tspan class="cls-7" x="136.88" y="0">0</tspan><tspan class="cls-2" x="154.95" y="0">95</tspan><tspan class="cls-7" x="165.65" y="0">0</tspan><tspan class="cls-2" x="183.72" y="0">98</tspan><tspan class="cls-6" x="194.43" y="0">0</tspan><tspan class="cls-2" x="207.93" y="0">98</tspan><tspan class="cls-8" x="218.64" y="0">0</tspan><tspan class="cls-2" x="232.03" y="0">88</tspan><tspan x="242.73" y="0">0</tspan></text><text class="cls-1" transform="translate(0 18.67)"><tspan class="cls-2">100</tspan><tspan class="cls-6" x="16.06" y="0">0</tspan><tspan class="cls-2" x="29.56" y="0">98</tspan><tspan class="cls-6" x="40.27" y="0">0</tspan><tspan class="cls-2" x="53.77" y="0">93</tspan><tspan class="cls-9" x="64.48" y="0">0</tspan><tspan class="cls-2" x="82.55" y="0">65</tspan><tspan class="cls-8" x="93.26" y="0">0</tspan><tspan class="cls-2" x="106.64" y="0">76</tspan><tspan class="cls-6" x="117.35" y="0">0</tspan><tspan class="cls-2" x="130.85" y="0">81</tspan><tspan class="cls-6" x="141.56" y="0">0</tspan><tspan class="cls-5" x="155.06" y="0">100</tspan><tspan class="cls-6" x="171.12" y="0">0</tspan><tspan class="cls-2" x="184.63" y="0">100</tspan><tspan class="cls-6" x="200.69" y="0">0</tspan><tspan class="cls-2" x="214.19" y="0">96</tspan><tspan class="cls-3" x="224.9" y="0">0</tspan><tspan class="cls-2" x="238.29" y="0">96</tspan><tspan x="248.99" y="0">0</tspan></text><text class="cls-10" transform="translate(4.68 29.59)">96<tspan class="cls-3" x="10.71" y="0">0</tspan><tspan x="24.09" y="0">94</tspan><tspan class="cls-4" x="34.8" y="0">0</tspan><tspan class="cls-5" x="48.31" y="0">96</tspan><tspan class="cls-9" x="59.01" y="0">0</tspan><tspan x="77.08" y="0">94</tspan><tspan class="cls-3" x="87.79" y="0">0</tspan><tspan x="101.17" y="0">88</tspan><tspan class="cls-6" x="111.88" y="0">0</tspan><tspan x="125.38" y="0">80</tspan><tspan class="cls-9" x="136.09" y="0">0</tspan><tspan x="154.16" y="0">85</tspan><tspan class="cls-7" x="164.87" y="0">0</tspan><tspan x="182.93" y="0">88</tspan><tspan class="cls-6" x="193.64" y="0">0</tspan><tspan class="cls-5" x="207.14" y="0">90</tspan><tspan class="cls-3" x="217.85" y="0">0</tspan><tspan x="231.24" y="0">84</tspan><tspan class="cls-11" x="241.94" y="0">0</tspan></text><text class="cls-10" transform="translate(4.68 40.63)">83<tspan class="cls-3" x="10.71" y="0">0</tspan><tspan x="24.09" y="0">79</tspan><tspan class="cls-4" x="34.8" y="0">0</tspan><tspan class="cls-5" x="48.31" y="0">81</tspan><tspan class="cls-9" x="59.01" y="0">0</tspan><tspan x="77.08" y="0">88</tspan><tspan class="cls-3" x="87.79" y="0">0</tspan><tspan x="101.17" y="0">88</tspan><tspan class="cls-6" x="111.88" y="0">0</tspan><tspan x="125.38" y="0">83</tspan><tspan class="cls-9" x="136.09" y="0">0</tspan><tspan x="154.16" y="0">80</tspan><tspan class="cls-7" x="164.87" y="0">0</tspan><tspan x="182.93" y="0">79</tspan><tspan class="cls-6" x="193.64" y="0">0</tspan><tspan class="cls-5" x="207.14" y="0">76</tspan><tspan class="cls-3" x="217.85" y="0">0</tspan><tspan x="231.24" y="0">80</tspan><tspan class="cls-11" x="241.94" y="0">0</tspan></text><text class="cls-10" transform="translate(4.68 51.55)">88<tspan class="cls-3" x="10.71" y="0">0</tspan><tspan x="24.09" y="0">88</tspan><tspan class="cls-4" x="34.8" y="0">0</tspan><tspan class="cls-5" x="48.31" y="0">88</tspan><tspan class="cls-9" x="59.01" y="0">0</tspan><tspan x="77.08" y="0">86</tspan><tspan class="cls-3" x="87.79" y="0">0</tspan><tspan x="101.17" y="0">72</tspan><tspan class="cls-6" x="111.88" y="0">0</tspan><tspan x="125.38" y="0">72</tspan><tspan class="cls-9" x="136.09" y="0">0</tspan><tspan x="154.16" y="0">62</tspan><tspan class="cls-7" x="164.87" y="0">0</tspan><tspan x="182.93" y="0">86</tspan><tspan class="cls-6" x="193.64" y="0">0</tspan><tspan class="cls-5" x="207.14" y="0">97</tspan><tspan class="cls-3" x="217.85" y="0">0</tspan><tspan x="231.24" y="0">95</tspan><tspan class="cls-11" x="241.94" y="0">0</tspan></text><text class="cls-10" transform="translate(4.68 62.47)">88<tspan class="cls-3" x="10.71" y="0">0</tspan><tspan x="24.09" y="0">91</tspan><tspan class="cls-4" x="34.8" y="0">0</tspan><tspan class="cls-5" x="48.31" y="0">85</tspan><tspan class="cls-9" x="59.01" y="0">0</tspan><tspan x="77.08" y="0">87</tspan><tspan class="cls-3" x="87.79" y="0">0</tspan><tspan x="101.17" y="0">84</tspan><tspan class="cls-6" x="111.88" y="0">0</tspan><tspan x="125.38" y="0">84</tspan><tspan class="cls-9" x="136.09" y="0">0</tspan><tspan x="154.16" y="0">85</tspan><tspan class="cls-7" x="164.87" y="0">0</tspan><tspan x="182.93" y="0">84</tspan><tspan class="cls-6" x="193.64" y="0">0</tspan><tspan class="cls-5" x="207.14" y="0">84</tspan><tspan class="cls-3" x="217.85" y="0">0</tspan><tspan x="231.24" y="0">84</tspan><tspan class="cls-11" x="241.94" y="0">0</tspan></text><text class="cls-10" transform="translate(4.68 73.51)">89<tspan class="cls-3" x="10.71" y="0">0</tspan><tspan x="24.09" y="0">81</tspan><tspan class="cls-4" x="34.8" y="0">0</tspan><tspan class="cls-5" x="48.31" y="0">81</tspan><tspan class="cls-9" x="59.01" y="0">0</tspan><tspan x="77.08" y="0">82</tspan><tspan class="cls-3" x="87.79" y="0">0</tspan><tspan x="101.17" y="0">80</tspan><tspan class="cls-6" x="111.88" y="0">0</tspan><tspan x="125.38" y="0">77</tspan><tspan class="cls-9" x="136.09" y="0">0</tspan><tspan x="154.16" y="0">76</tspan><tspan class="cls-7" x="164.87" y="0">0</tspan><tspan x="182.93" y="0">74</tspan><tspan class="cls-6" x="193.64" y="0">0</tspan><tspan class="cls-5" x="207.14" y="0">75</tspan><tspan class="cls-3" x="217.85" y="0">0</tspan><tspan x="231.24" y="0">76</tspan><tspan class="cls-11" x="241.94" y="0">0</tspan></text><text class="cls-10" transform="translate(4.68 84.43)">91<tspan class="cls-3" x="10.71" y="0">0</tspan><tspan x="24.09" y="0">92</tspan><tspan class="cls-4" x="34.8" y="0">0</tspan><tspan class="cls-5" x="48.31" y="0">89</tspan><tspan class="cls-9" x="59.01" y="0">0</tspan><tspan x="77.08" y="0">86</tspan><tspan class="cls-3" x="87.79" y="0">0</tspan><tspan x="101.17" y="0">88</tspan><tspan class="cls-6" x="111.88" y="0">0</tspan><tspan x="125.38" y="0">72</tspan><tspan class="cls-9" x="136.09" y="0">0</tspan><tspan x="154.16" y="0">84</tspan><tspan class="cls-7" x="164.87" y="0">0</tspan><tspan x="182.93" y="0">85</tspan><tspan class="cls-6" x="193.64" y="0">0</tspan><tspan class="cls-5" x="207.14" y="0">85</tspan><tspan class="cls-3" x="217.85" y="0">0</tspan><tspan x="231.24" y="0">78</tspan><tspan class="cls-11" x="241.94" y="0">0</tspan></text><text class="cls-10" transform="translate(4.68 95.35)">89<tspan class="cls-3" x="10.71" y="0">0</tspan><tspan x="24.09" y="0">84</tspan><tspan class="cls-4" x="34.8" y="0">0</tspan><tspan class="cls-5" x="48.31" y="0">78</tspan><tspan class="cls-9" x="59.01" y="0">0</tspan><tspan x="77.08" y="0">81</tspan><tspan class="cls-3" x="87.79" y="0">0</tspan><tspan x="101.17" y="0">76</tspan><tspan class="cls-6" x="111.88" y="0">0</tspan><tspan x="125.38" y="0">81</tspan><tspan class="cls-9" x="136.09" y="0">0</tspan><tspan x="154.16" y="0">79</tspan><tspan class="cls-7" x="164.87" y="0">0</tspan><tspan x="182.93" y="0">81</tspan><tspan class="cls-6" x="193.64" y="0">0</tspan><tspan class="cls-5" x="207.14" y="0">82</tspan><tspan class="cls-3" x="217.85" y="0">0</tspan><tspan x="231.24" y="0">85</tspan><tspan class="cls-11" x="241.94" y="0">0</tspan></text><text class="cls-10" transform="translate(4.68 106.39)">87<tspan class="cls-3" x="10.71" y="0">0</tspan><tspan x="24.09" y="0">87</tspan><tspan class="cls-4" x="34.8" y="0">0</tspan><tspan class="cls-5" x="48.31" y="0">81</tspan><tspan class="cls-9" x="59.01" y="0">0</tspan><tspan x="77.08" y="0">74</tspan><tspan class="cls-3" x="87.79" y="0">0</tspan><tspan x="101.17" y="0">81</tspan><tspan class="cls-6" x="111.88" y="0">0</tspan><tspan x="125.38" y="0">94</tspan><tspan class="cls-9" x="136.09" y="0">0</tspan><tspan x="154.16" y="0">95</tspan><tspan class="cls-7" x="164.87" y="0">0</tspan><tspan x="182.93" y="0">80</tspan><tspan class="cls-6" x="193.64" y="0">0</tspan><tspan class="cls-5" x="207.14" y="0">81</tspan><tspan class="cls-3" x="217.85" y="0">0</tspan><tspan x="231.24" y="0">87</tspan><tspan class="cls-11" x="241.94" y="0">0</tspan></text></svg>