<svg id="Layer_1" data-name="Layer 1" xmlns="http://www.w3.org/2000/svg" viewBox="0 0 127.17 82.95"><defs><style>.cls-1{fill:#fd46fc;}.cls-2{fill:#486afb;}</style></defs><path class="cls-1" d="M125.4,83.15a1.14,1.14,0,0,0-.84-.66,6,6,0,0,0-1-.16c-.42,0-.83-.11-1.24-.17h-.06l-.16,0-.38-.07a3.28,3.28,0,0,0-.7,0,.68.68,0,0,0-.55.66.55.55,0,0,0,.54.57h.25l.13,0s.09,0,0,0l.5.09c.41.08.81.14,1.22.2l.54.06.17,0,.08,0c.09,0-.1,0,0,0l.18,0,.09,0s.11,0,0,0,0,0,0,0h0c-.08-.09,0,.06,0,0s0,0,0,0A.64.64,0,0,0,125,84a.71.71,0,0,0,.36-.88Z" transform="translate(-69.93 -56.16)"/><path class="cls-1" d="M127.68,88.61a.8.8,0,0,0-.17-.7,1.84,1.84,0,0,0-.22-.17s-.12-.06-.05,0,0,0,0,0a3.71,3.71,0,0,0-.47-.5,2.1,2.1,0,0,0-.59-.32,3.67,3.67,0,0,0-1.27-.24,1.58,1.58,0,0,0-1.25.27.59.59,0,0,0-.11.82.6.6,0,0,0,.82,0c.08-.08-.09,0,0,0h0c-.05,0-.05,0,0,0s0,0,0,0a.41.41,0,0,1,.11,0l.38,0h.37c.05,0,.11,0,0,0a2.75,2.75,0,0,1,.49.14l.09,0s.1.05,0,0a1.32,1.32,0,0,1,.2.12s.1.07,0,0l.07.07c.06.06.1.13.15.19a1.94,1.94,0,0,0,.37.33l.06,0s.06.07,0,0a.28.28,0,0,1-.06-.16c0-.14,0,0,0,0a.52.52,0,0,0,.49.59.65.65,0,0,0,.64-.54Z" transform="translate(-69.93 -56.16)"/><path class="cls-1" d="M128,92.1a1.28,1.28,0,0,0-.75-1.07,4,4,0,0,0-1.31-.36,4.17,4.17,0,0,0-.5,0,.72.72,0,0,0-.44.16.61.61,0,0,0-.23.41.55.55,0,0,0,.51.62,2,2,0,0,1,.42.05l-.16,0,.38.07-.16,0a2.81,2.81,0,0,1,.7.2l-.15-.07a1.56,1.56,0,0,1,.4.27l-.12-.12a1.19,1.19,0,0,1,.15.18l-.09-.14a1.11,1.11,0,0,1,.07.16l0-.16s0,.1,0,.15a.58.58,0,0,0,.25.41.62.62,0,0,0,.48.08.73.73,0,0,0,.44-.29.74.74,0,0,0,.13-.48Z" transform="translate(-69.93 -56.16)"/><path class="cls-1" d="M124,110a5.08,5.08,0,0,0,1.36-.46,4,4,0,0,0,.91-.72,1.36,1.36,0,0,0,.3-.41.86.86,0,0,0,0-.59,1.51,1.51,0,0,0-.4-.65,3.05,3.05,0,0,0-1.42-.72l-.49-.09h-.08s-.15,0,0,0,0,0,0,0l-.11,0a2.15,2.15,0,0,0-1,0,.69.69,0,0,0-.54.65.56.56,0,0,0,.53.57h.12c-.1,0-.1,0,0,0l.06,0,.29.08c.18,0,.36.08.54.12a5.29,5.29,0,0,1,.57.15l.13,0,.06,0s.07.06,0,0c.08.06.17.1.26.16s.1.05.1.07-.13-.12,0,0a1.46,1.46,0,0,1,.16.19s0,.06,0-.07l0,0s0,0,0,0,0-.16,0-.1,0-.13,0-.11.06-.28.11-.29l0,.07.08-.09,0,0-.08.07-.15.14-.11.1-.09.08s-.18.13-.06,0,0,0-.06,0l-.15.07a2.52,2.52,0,0,1-.29.12c-.07,0,.08,0,.08,0l-.09,0-.15,0-.31.09a.75.75,0,0,0-.59.8.62.62,0,0,0,.76.51Z" transform="translate(-69.93 -56.16)"/><path class="cls-1" d="M127.25,105.15a3.06,3.06,0,0,0,1.39-.73,1,1,0,0,0,.22-1,1.2,1.2,0,0,0-.47-.53,4.48,4.48,0,0,0-1.12-.43,9.83,9.83,0,0,0-1.22-.28,1.46,1.46,0,0,0-1.44.45.63.63,0,0,0,.12.9.73.73,0,0,0,.93-.21.49.49,0,0,1-.19.16l0,0s-.18,0,0,0-.15,0,0,0h.12l.23,0h.07l-.07,0,.1,0a10.32,10.32,0,0,1,1.2.36l.23.08.08,0c.15.06,0,0,0,0l.21.13c.1.07-.11-.12,0,0s-.07-.15,0,0c0-.12,0-.15,0-.08l0-.26a.46.46,0,0,1,.13-.18l0,0c-.14.11.13-.08,0,0l-.11.06a3.07,3.07,0,0,1-.64.29.74.74,0,0,0-.4.83.62.62,0,0,0,.74.43Z" transform="translate(-69.93 -56.16)"/><path class="cls-1" d="M129.84,99.91c.53-.39,1-1.15.48-1.75a2.85,2.85,0,0,0-1.14-.69l-.12,0h0l-.27-.15a4.94,4.94,0,0,0-.84-.3,5.64,5.64,0,0,0-.82-.15l-.35,0h-.05l-.09,0c.06,0,.06,0,0,0a.57.57,0,0,0-.72.12c-.16.16-.26.52,0,.7a2.32,2.32,0,0,0,1.35.49c-.13,0,0,0,0,0l.17,0,.35.1c.11,0,.22.07.33.12-.09,0,.06,0,.08,0l.11.07.53.25.07,0,.08,0,.23.12.1.07,0,0-.05,0s.09.12,0,0,0-.06,0,0,0-.09,0,0v-.07s0,0,0,0l-.05.07s0,0,0,0l-.06.06-.16.13a.59.59,0,1,0,.75.9Z" transform="translate(-69.93 -56.16)"/><path class="cls-1" d="M78.61,79.1a6.78,6.78,0,0,0-2.25.21,2.39,2.39,0,0,0-1,.65A1.6,1.6,0,0,0,74.87,81a.41.41,0,0,0,.5.33.48.48,0,0,0,.38-.51s0-.1,0,0,0-.11,0-.06,0-.06,0-.07l0-.12s.05-.1,0-.06,0,0,0-.06l.11-.15h0l0,0,.1-.09.09-.06,0,0a3.55,3.55,0,0,1,.44-.21,6.16,6.16,0,0,1,1.82-.19.35.35,0,0,0,.35-.29.29.29,0,0,0-.26-.32Z" transform="translate(-69.93 -56.16)"/><path class="cls-1" d="M75.74,82.74c-.53.11-1.07.08-1.6.15a3.14,3.14,0,0,0-1.41.61A1.65,1.65,0,0,0,72,84.67a1,1,0,0,0,.15.74,1.66,1.66,0,0,0,.68.42c.5.19.89-.69.34-.83a1.41,1.41,0,0,1-.31-.1l-.07-.05s0,0,0,0,0,0,0,0,0-.08,0-.11a.83.83,0,0,1,0-.22,1.14,1.14,0,0,1,.53-.68c.75-.51,1.65-.34,2.48-.53.33-.07.3-.6-.07-.53Z" transform="translate(-69.93 -56.16)"/><path class="cls-1" d="M73.65,87.47a12.7,12.7,0,0,0-2.36.66,1.44,1.44,0,0,0-.81.78A1,1,0,0,0,70.77,90a.42.42,0,0,0,.62,0,.4.4,0,0,0,0-.61.81.81,0,0,1-.12-.13s0,0,0,0,0-.11,0-.06,0,0,0,0,0,.07,0,0,0,0,0,0,0-.09,0,0,0,0,0,0l.07-.08,0,0,.09-.07,0,0,.1-.06.25-.12a12.25,12.25,0,0,1,1.91-.53A.35.35,0,0,0,74,87.7a.29.29,0,0,0-.35-.23Z" transform="translate(-69.93 -56.16)"/><path class="cls-1" d="M73,91.53a4.2,4.2,0,0,0-1.81.71,1.41,1.41,0,0,0-.58.89,1.11,1.11,0,0,0,.58,1c.35.26.82-.35.44-.61a.66.66,0,0,1-.17-.12l0,0-.08-.09,0,0h0s0,0,0,0,0,0,0,0,0-.1,0-.06,0-.08,0,0l0,0v0l0-.06.12-.15c0,.05,0,0,0,0l.07-.07.16-.13,0,0,.08,0,.17-.09.17-.07.09,0h0c.25-.08.51-.14.77-.21a.36.36,0,0,0,.28-.37.29.29,0,0,0-.36-.24Z" transform="translate(-69.93 -56.16)"/><path class="cls-1" d="M73.07,96.16a4,4,0,0,0-1.48.48c-.18.14-.33.3-.52.43s-.35.21-.51.33a1.83,1.83,0,0,0-.63,1.25c0,.56.49.91.95,1.12s1.06.41,1.59.63a.53.53,0,0,0,.62-.32.43.43,0,0,0-.26-.58A14.54,14.54,0,0,1,71.25,99l-.3-.14c-.08,0-.21-.1-.25-.18s.06-.35.11-.47c.17-.37.63-.53.93-.8A1.46,1.46,0,0,1,72.3,97c.28-.1.57-.14.85-.21a.37.37,0,0,0,.28-.39.3.3,0,0,0-.36-.25Z" transform="translate(-69.93 -56.16)"/><path class="cls-1" d="M75.39,102.22a4.78,4.78,0,0,0-2,.88,1.2,1.2,0,0,0-.32,1.11.87.87,0,0,0,.32.54,1.46,1.46,0,0,0,.51.22c.21.07.4.15.6.23a3.58,3.58,0,0,0,.77.23.54.54,0,0,0,.55-.45.44.44,0,0,0-.42-.5l-.28,0h-.06s.06,0,0,0l-.14,0c-.18,0-.34-.13-.51-.18l-.41-.13-.06,0s0,0,0,0,0,0,0,0l0,0s0,0,0,0,0,0,0,0a.41.41,0,0,0,0-.08s0,.07,0,0,0,0,0,0a.31.31,0,0,1,0-.1s0-.06,0,0v0a1.23,1.23,0,0,1,0-.19c0,.06,0,0,0,0s0,0,0,0,0,0,0,0l.06-.08c0,.05,0,0,0,0l.09-.07,0,0s0,0,0,0l.42-.2c.18-.08.29-.11.46-.17l.48-.15a.36.36,0,0,0,.27-.36.29.29,0,0,0-.35-.23Z" transform="translate(-69.93 -56.16)"/><path class="cls-1" d="M78.36,107.38a3.18,3.18,0,0,0-1.17.85,1,1,0,0,0-.21,1,1.06,1.06,0,0,0,.78.65c.14,0,.29,0,.43.09s.38.12.57.18a.68.68,0,0,0,.81-.41.61.61,0,0,0,0-.46.49.49,0,0,0-.34-.3c-.19,0-.39-.11-.58-.14l-.57-.09.15,0a1.29,1.29,0,0,1-.28-.08l.13.06-.1-.06.11.09a.31.31,0,0,1-.09-.11l.07.13a.61.61,0,0,1,0-.12l0,.14a.28.28,0,0,1,0-.09v.14a.41.41,0,0,1,0-.11l0,.14a.5.5,0,0,1,0-.13l-.07.13a.66.66,0,0,1,.12-.17l-.1.11a2.47,2.47,0,0,1,.39-.32l-.13.09a3.2,3.2,0,0,1,.48-.26.58.58,0,0,0,.3-.73.52.52,0,0,0-.71-.23Z" transform="translate(-69.93 -56.16)"/><path class="cls-2" d="M98.85,71.63a37.38,37.38,0,0,0-4.1,0,19.37,19.37,0,0,0-3.78.78,48.59,48.59,0,0,0-7,2.66,20.31,20.31,0,0,0-3.33,2.06,17,17,0,0,0-2.71,2.37,20.75,20.75,0,0,0-2.38,3.14A21.2,21.2,0,0,0,74,86.09,21.65,21.65,0,0,0,73.12,90a10.28,10.28,0,0,0-.05,3.71c.15.66.22,1.31.32,2s.29,1.27.38,1.91a6.65,6.65,0,0,0,.44,1.6c.24.64.41,1.3.68,1.92a20.62,20.62,0,0,0,1.89,3.37,35.43,35.43,0,0,0,2,3A19.8,19.8,0,0,0,84.26,112a28.22,28.22,0,0,0,7.35,2.87,39.58,39.58,0,0,0,7.88,1.18,36,36,0,0,0,8-.35c1.38-.24,2.74-.6,4.09-1s2.51-.68,3.72-1.14a19.59,19.59,0,0,0,6.51-3.89,14.12,14.12,0,0,0,3.8-6.3,22.5,22.5,0,0,0,.71-8,31.25,31.25,0,0,0-1.67-7.83,22.12,22.12,0,0,0-9.38-11.64,27.37,27.37,0,0,0-7.26-3c-2.61-.65-5.11-1.51-7.84-1.54a23,23,0,0,0-3.87.37c-.68.11-.76,1.2,0,1.24,1.21.06,2.43,0,3.64.1a25.89,25.89,0,0,1,3.72.56,64,64,0,0,1,7.19,2.17,20.55,20.55,0,0,1,10.48,8.94,23.59,23.59,0,0,1,2.51,6.83,25.48,25.48,0,0,1,.65,7.58,15.21,15.21,0,0,1-1.89,6.8,13.74,13.74,0,0,1-5,4.56,29.51,29.51,0,0,1-6.74,2.55,36.76,36.76,0,0,1-7.5,1.34,40.33,40.33,0,0,1-14.84-1.8,21.33,21.33,0,0,1-6.49-3.4,20.15,20.15,0,0,1-4.31-5.07A21.08,21.08,0,0,1,76,101a15.48,15.48,0,0,1-.61-1.6,12.74,12.74,0,0,1-.58-1.88c-.08-.54-.21-1-.32-1.58s-.17-1.32-.28-2a11.16,11.16,0,0,1,0-3.78,19.39,19.39,0,0,1,2.41-7.08,21.7,21.7,0,0,1,2.22-2.84A15.46,15.46,0,0,1,81.47,78a18.09,18.09,0,0,1,3.16-1.89c1.09-.53,2.21-.9,3.32-1.36a33.56,33.56,0,0,1,3.39-1.11A16.82,16.82,0,0,1,94.86,73c1.26-.09,2.55,0,3.81,0,.82,0,1.07-1.31.18-1.32Z" transform="translate(-69.93 -56.16)"/><path class="cls-1" d="M72.48,100.38a20.7,20.7,0,0,0,2.71.57c.91.18,1.82.39,2.74.55a54.86,54.86,0,0,0,5.57.63c1.91.14,3.82.33,5.74.41.91,0,1.83,0,2.74,0s1.87.13,2.81.13c3.87,0,7.72-.12,11.58-.28,1.94-.08,3.87-.39,5.81-.37s3.83-.13,5.74-.22c2.13-.11,4.24-.17,6.36-.37A11.67,11.67,0,0,0,129.7,100c.76-.49.17-1.51-.61-1a10.45,10.45,0,0,1-5,1.23c-1.85.17-3.7.23-5.55.34s-3.67.27-5.5.32c-.86,0-1.73,0-2.59,0s-2,.23-3,.28c-1.95.12-3.91.22-5.86.27s-3.65.16-5.48.15-3.57-.13-5.35-.11-3.67-.18-5.5-.31c-2.06-.14-4.12-.27-6.17-.55-1.09-.14-2.16-.36-3.24-.56a26.43,26.43,0,0,1-3.07-.6c-.52-.17-.91.67-.34.86Z" transform="translate(-69.93 -56.16)"/><path class="cls-1" d="M71.14,94.08a5.44,5.44,0,0,0,2.08.69c1,.13,2,.29,3,.42,2,.25,3.92.43,5.89.57,3.94.28,7.9.65,11.85.75s7.82.21,11.72-.05c2-.14,4.1-.12,6.14-.29s3.87-.35,5.81-.55,4.17-.49,6.24-.87a13,13,0,0,0,2.53-1c.74-.29,1.4-.57,1.59-1.43s-1.16-.85-1.32-.06c0,.1-.39.21-.57.28a6.72,6.72,0,0,0-.88.47,6.74,6.74,0,0,1-2.28.67c-1.82.26-3.63.56-5.47.76s-3.82.39-5.73.54-3.76.11-5.64.25c-3.74.28-7.5.24-11.24.16s-7.25-.42-10.89-.57c-2.13-.1-4.26-.24-6.39-.44-1-.1-2.1-.27-3.15-.36a6.33,6.33,0,0,1-2.87-.49c-.38-.22-.83.36-.44.6Z" transform="translate(-69.93 -56.16)"/><path class="cls-1" d="M70.79,90a2.82,2.82,0,0,0,1.6.61c.92.12,1.85.22,2.77.31,2,.18,3.88.17,5.83.18l12.17.09c2,0,4,0,6,0S103,91,105,91c4,0,7.89-.26,11.84-.22,1.14,0,2.26-.1,3.4-.12s2,0,3-.12a27.72,27.72,0,0,0,3-.63,1.7,1.7,0,0,0,1.45-1.34c.17-.65-.9-.77-1.09-.19-.12.38-.32.33-.68.38a6.72,6.72,0,0,0-1,.28,11.53,11.53,0,0,1-2.87.38c-1.85.08-3.72.16-5.58.14s-3.76.09-5.64.12-3.56.13-5.34.12S101.85,90,100,90l-5.71,0c-3.78,0-7.55,0-11.32,0-2.09,0-4.18.09-6.27,0-1,0-2.07-.14-3.1-.22-.73-.05-1.69.1-2.29-.39-.32-.26-.87.3-.55.59Z" transform="translate(-69.93 -56.16)"/><path class="cls-1" d="M72.85,85.82a34.41,34.41,0,0,0,10.17,1l5.59,0c1.81,0,3.61.22,5.42.22s3.73.08,5.6,0,3.65-.27,5.49-.31c3.63-.09,7.26-.1,10.88-.37,1-.07,2-.21,3-.32s2-.16,2.95-.35c1.2-.24,3.53-.75,3.46-2.34,0-.86-1.35-.51-1.32.28,0-.18-.15,0-.22.1a2.82,2.82,0,0,1-.38.21,5.51,5.51,0,0,1-.89.31,13.62,13.62,0,0,1-2.37.47c-1.69.18-3.37.43-5.07.56-3.47.27-6.94.25-10.42.35-1.67,0-3.33.21-5,.32s-3.58,0-5.36,0-3.3-.23-5-.25-3.46,0-5.2,0c-1.9,0-3.8,0-5.7-.08-.93,0-1.85-.1-2.77-.22A20.89,20.89,0,0,1,73.17,85c-.49-.13-.86.64-.32.81Z" transform="translate(-69.93 -56.16)"/><path class="cls-1" d="M75.27,105.4c1.76.19,3.46.79,5.23.89.79,0,1.58,0,2.37.09s1.68.19,2.53.29c3.45.4,6.93.71,10.41.81,1.8,0,3.61,0,5.41,0s3.26-.12,4.91-.2c3.35-.18,6.7-.47,10.06-.64.93,0,1.86-.1,2.78-.19s1.85,0,2.78-.14a24.69,24.69,0,0,0,5.5-1.21.77.77,0,0,0,.6-.8.61.61,0,0,0-.76-.51c-.8.26-1.57.57-2.38.79a17,17,0,0,1-2.45.42c-.79.09-1.56.09-2.35.12s-1.73.15-2.6.22c-1.64.11-3.3.14-4.94.26-.81.06-1.6.16-2.4.24s-1.71.06-2.56.15a109.72,109.72,0,0,1-20.66-.35,55.78,55.78,0,0,0-5.62-.47c-1.94,0-3.81-.6-5.74-.7-.55,0-.71.81-.12.88Z" transform="translate(-69.93 -56.16)"/><path class="cls-1" d="M78.76,110.12c2.89.83,6,.5,8.94.72.7,0,1.4.13,2.1.2s1.51,0,2.27.07c1.47,0,2.93.22,4.39.32s3,0,4.42.1,3,0,4.45,0,2.94,0,4.41-.07,3-.05,4.46-.18,3.28-.2,4.91-.4,3.28-.52,4.92-.89c.86-.19.71-1.59-.17-1.33a42.61,42.61,0,0,1-8.4,1.33c-2.95.26-5.92.4-8.88.39s-5.85-.11-8.78-.12c-1.43,0-2.87-.18-4.3-.28s-2.83-.08-4.25-.23c-3.32-.35-6.74-.07-10-.84-.71-.16-1.25.94-.47,1.16Z" transform="translate(-69.93 -56.16)"/><path class="cls-1" d="M74.92,81.14c.23.63.93.64,1.49.72,1.06.17,2.09.52,3.14.72s2.06.27,3.08.45,2,.33,3,.46c2.19.28,4.42.28,6.62.4s4.35.15,6.53.17c1.18,0,2.38.07,3.55,0a8.57,8.57,0,0,0,3.41-.67c.43-.25.45-1-.13-1a11.83,11.83,0,0,0-2.72.19,20.83,20.83,0,0,1-3.06.12c-2,0-4,0-6.08,0s-4.1-.13-6.15-.23-3.85-.47-5.78-.66c-1.17-.12-2.31-.3-3.47-.51q-.7-.14-1.41-.24c-.22,0-1.09,0-1.2-.22-.23-.49-1-.1-.79.38Z" transform="translate(-69.93 -56.16)"/><path class="cls-1" d="M105.46,82.24c-.34-.24-.66-.49-1-.75a4,4,0,0,0-.47-.34,1.33,1.33,0,0,0-.69-.24.4.4,0,0,0-.32.16.35.35,0,0,0,0,.34.86.86,0,0,0,.1.16,1.14,1.14,0,0,0,.16.15l.23.19.47.38c.33.25.65.5,1,.73a.5.5,0,0,0,.66-.15.44.44,0,0,0-.09-.63Z" transform="translate(-69.93 -56.16)"/><path class="cls-1" d="M104.87,82.79a11.4,11.4,0,0,0-.6,1.08c-.08.16-.15.32-.22.48a3.67,3.67,0,0,0-.19.62.38.38,0,0,0,.26.42.48.48,0,0,0,.5-.18c0-.08.12-.15.17-.23a1.59,1.59,0,0,0,.13-.22l.27-.46c.18-.32.36-.63.56-.93a.66.66,0,0,0,.1-.41.45.45,0,0,0-.21-.34.58.58,0,0,0-.77.17Z" transform="translate(-69.93 -56.16)"/><path class="cls-2" d="M86.07,115.3a10.77,10.77,0,0,0-1.45,3,20.87,20.87,0,0,0-.54,3.24,11.89,11.89,0,0,0,1,6.84c.27.51,1,.11.84-.41a16.16,16.16,0,0,1-.84-6.51,21.56,21.56,0,0,1,.4-3,10.89,10.89,0,0,1,1.22-2.9c.2-.37-.41-.62-.62-.29Z" transform="translate(-69.93 -56.16)"/><path class="cls-2" d="M85.62,115.42l-.15.1-.08,0,0,0-.31.2-.66.4c-.23.15-.47.29-.69.45l-.23.2a.71.71,0,0,0-.23.38.25.25,0,0,0,.17.27.52.52,0,0,0,.45-.09l.13-.09c.06,0-.08,0,0,0l.06,0c.23-.12.46-.24.68-.37.47-.27.93-.56,1.38-.85a.43.43,0,0,0,.08-.6.43.43,0,0,0-.6,0Z" transform="translate(-69.93 -56.16)"/><path class="cls-2" d="M86.1,116.4a11.22,11.22,0,0,0,.78,1.28c.13.17.27.35.41.51a2.58,2.58,0,0,0,.32.34l.27.21a.5.5,0,0,0,.59,0,.52.52,0,0,0,.16-.57,3.62,3.62,0,0,0-.25-.48c-.07-.12-.16-.24-.23-.37s-.32-.47-.47-.72l.08.14-.33-.53.08.13c-.09-.15-.18-.3-.26-.45a.59.59,0,0,0-.34-.3.64.64,0,0,0-.47,0,.65.65,0,0,0-.34.82Z" transform="translate(-69.93 -56.16)"/><path class="cls-2" d="M86.21,130.94c-.11,1.13-.23,2.26-.45,3.37a11.13,11.13,0,0,0-.51,3.12c.08.87,1.08,1.25,1.83,1.36a20,20,0,0,0,3.36.32c.4,0,.67-.61.21-.76a20.17,20.17,0,0,0-2.88-.5,5.07,5.07,0,0,1-1.22-.24.91.91,0,0,1-.41-.22,1.29,1.29,0,0,1-.08-.65,18.71,18.71,0,0,1,.5-2.77c.19-1,.3-2,.39-3,0-.49-.7-.49-.74,0Z" transform="translate(-69.93 -56.16)"/><path class="cls-2" d="M86.58,135.45H89.1a2.61,2.61,0,0,0,.27.06.62.62,0,0,0,.44-.09c.16-.1.32-.3.21-.5-.3-.54-1.07-.49-1.61-.49s-1.13,0-1.7,0a.56.56,0,0,0-.57.48.46.46,0,0,0,.44.53Z" transform="translate(-69.93 -56.16)"/><path class="cls-2" d="M86.53,131.86c.71,0,1.42,0,2.12-.07.35,0,.7-.06,1-.12s.71,0,1-.12a.34.34,0,0,0,.16-.6,1.44,1.44,0,0,0-1.08-.11c-.35.06-.69.14-1,.18a19.24,19.24,0,0,1-2.15.13.41.41,0,0,0-.4.34.32.32,0,0,0,.31.37Z" transform="translate(-69.93 -56.16)"/><path class="cls-2" d="M95.42,134.94a2.25,2.25,0,0,0-2.19.14,2.28,2.28,0,0,0-.72,2.15,1.14,1.14,0,0,0,.76.84,1.46,1.46,0,0,0,1.13-.2,2.38,2.38,0,0,0,.89-.92,1.31,1.31,0,0,0,.22-1.17.42.42,0,0,0-.72,0c-.52.59.06,1.47.62,1.78a4.3,4.3,0,0,0,2.57.4.46.46,0,0,0,.12-.87,13.73,13.73,0,0,0-1.81-.33,1.42,1.42,0,0,1-.57-.24,1.37,1.37,0,0,1-.2-.22.54.54,0,0,0,0-.11c0-.06,0-.07,0,0l-.66.07a2.26,2.26,0,0,1-.28.48A.93.93,0,0,1,94,137a.73.73,0,0,1-.22,0c-.1,0,0,0-.08,0s0,0-.05,0a.48.48,0,0,1-.09-.13.64.64,0,0,1-.05-.28,1.4,1.4,0,0,1,.37-1.07c.35-.29.94-.16,1.34-.07s.58-.42.22-.55Z" transform="translate(-69.93 -56.16)"/><path class="cls-2" d="M100.29,137.2a1.65,1.65,0,0,1-.33-1.1c0,.09,0,0,0,0s0-.09,0-.14,0,0,0,0l0-.06.1-.14.1-.11c-.09.11,0,0,0,0a2.11,2.11,0,0,1,.23-.19l0,0,0,0,.15-.07a2.06,2.06,0,0,1,.26-.12c-.13,0,0,0,0,0l.16,0s.2,0,0,0h.51s-.06,0,0,0l.16,0,.27.1.13.06a.86.86,0,0,0,.32,0,.48.48,0,0,0,.37-.5c0-.37-.4-.59-.71-.73a2.05,2.05,0,0,0-.77-.17,2.69,2.69,0,0,0-1.63.61A2.37,2.37,0,0,0,99,136a3,3,0,0,0,.44,1.62.44.44,0,0,0,.61.2.49.49,0,0,0,.27-.63Z" transform="translate(-69.93 -56.16)"/><path class="cls-2" d="M105.22,132.07c0,.94,0,1.88,0,2.81,0,.44,0,.89,0,1.33a2.49,2.49,0,0,0,.36,1.32.4.4,0,0,0,.68-.23c0-.43-.08-.86-.1-1.29s0-.92-.07-1.37c0-.92-.1-1.83-.14-2.74a.39.39,0,0,0-.46-.31.46.46,0,0,0-.35.48Z" transform="translate(-69.93 -56.16)"/><path class="cls-2" d="M104.38,135.79c.67,0,1.34-.09,2-.11h1.2l.14,0c-.16,0,.21,0,0,0a.39.39,0,0,0,.41-.15.52.52,0,0,0-.43-.78c-.3,0-.61-.08-.91-.1-.76,0-1.53,0-2.3,0a.66.66,0,0,0-.66.55.53.53,0,0,0,.51.6Z" transform="translate(-69.93 -56.16)"/><path class="cls-2" d="M109,132.56c.11.88.2,1.75.29,2.63a12.41,12.41,0,0,0,.41,2.51c.11.33.56.13.61-.13a4.68,4.68,0,0,0,0-1.24l-.09-1.33c-.08-.88-.19-1.75-.31-2.63-.07-.57-.94-.34-.88.19Z" transform="translate(-69.93 -56.16)"/><path class="cls-2" d="M110.23,136.07a2.91,2.91,0,0,1,2.15.44,10.87,10.87,0,0,1,.91.74l.47.38a2.25,2.25,0,0,0,.61.33.53.53,0,0,0,.59-.21.51.51,0,0,0,0-.6,4,4,0,0,0-1-1,7.84,7.84,0,0,0-1.07-.74,4.26,4.26,0,0,0-2.81-.38.58.58,0,0,0-.46.62.49.49,0,0,0,.6.4Z" transform="translate(-69.93 -56.16)"/><path class="cls-1" d="M94.85,80.64a3.81,3.81,0,0,1,.6-3.39,5.87,5.87,0,0,1,2.17-2A35.09,35.09,0,0,1,103.38,73c1.53-.51,2.83-1.16,3.07-2.91a8,8,0,0,1,.5-3,5.14,5.14,0,0,1,2-1.92A17.88,17.88,0,0,1,111.79,64,18.82,18.82,0,0,0,115,62.33c.4-.24.35-1-.23-.86a27.68,27.68,0,0,0-3,1.29,24.31,24.31,0,0,0-2.92,1.38,5.87,5.87,0,0,0-3.1,4.24c-.09,1.05.16,2.33-.73,3.11a8.1,8.1,0,0,1-2.81,1.21,19.59,19.59,0,0,0-5.67,2.49,7.73,7.73,0,0,0-2.09,2.49A4.2,4.2,0,0,0,94.19,81c.12.42.77.09.66-.32Z" transform="translate(-69.93 -56.16)"/><path class="cls-1" d="M94.86,81.22a6.62,6.62,0,0,0,.7-.59,3.16,3.16,0,0,0,.37-.45,1.92,1.92,0,0,0,.18-.31.71.71,0,0,0,.06-.25v-.15a.34.34,0,0,0-.21-.29.41.41,0,0,0-.36,0l-.15.08a.87.87,0,0,0-.21.22l-.17.22a3.12,3.12,0,0,1-.32.4l.1-.1c-.18.19-.37.36-.56.53a.54.54,0,0,0-.18.32.44.44,0,0,0,.1.33.48.48,0,0,0,.65,0Z" transform="translate(-69.93 -56.16)"/><path class="cls-1" d="M92.8,80.24c.23.19.46.38.68.58l-.1-.08.38.33-.1-.09.3.24.1.08a1.86,1.86,0,0,0,.2.1l-.09-.05.09.05a.4.4,0,0,0,.24,0,.46.46,0,0,0,.25-.1.42.42,0,0,0,.13-.47,1.84,1.84,0,0,0-.15-.28,1.39,1.39,0,0,0-.15-.19,3.46,3.46,0,0,0-.39-.37c-.25-.23-.51-.44-.77-.66a.5.5,0,0,0-.38-.06.55.55,0,0,0-.34.22.58.58,0,0,0-.1.38.48.48,0,0,0,.2.32Z" transform="translate(-69.93 -56.16)"/><path class="cls-1" d="M120.44,56.53a18.39,18.39,0,0,1-.34,2.67c-.09.44-.24.86-.33,1.3a2.43,2.43,0,0,0,0,1.36c.26.66,1,.7,1.65.63.81-.09,1.58-.32,2.38-.47a.3.3,0,0,0,0-.6,15.86,15.86,0,0,0-2.18,0,3.37,3.37,0,0,1-.71,0l-.14-.05c-.06,0,0,0,0,0a.9.9,0,0,1,0-.23,17.78,17.78,0,0,1,.38-2.28,17.76,17.76,0,0,0,.14-2.42c0-.46-.78-.35-.8.07Z" transform="translate(-69.93 -56.16)"/><path class="cls-1" d="M124.75,61.21a3.93,3.93,0,0,0,0,.49l0,.24a.85.85,0,0,0,.06.17.75.75,0,0,0,.07.12.25.25,0,0,0,.16.14.28.28,0,0,0,.18,0,.3.3,0,0,0,.17-.12.42.42,0,0,0,0-.22v.06a1.61,1.61,0,0,0,0-.31,1.93,1.93,0,0,1,0-.24v0c0-.13,0-.27,0-.4a.33.33,0,0,0-.37-.39.4.4,0,0,0-.27.14.2.2,0,0,0-.08.12.33.33,0,0,0,0,.19Z" transform="translate(-69.93 -56.16)"/><path class="cls-1" d="M124.94,59.77h0l-.07,0,.08,0,.16-.06.1-.07.06-.06a.42.42,0,0,0,.11-.18l0-.07v-.08l0-.08a.16.16,0,0,0-.07-.09.18.18,0,0,0-.07,0l-.07,0h-.08L125,59a1.23,1.23,0,0,1-.23.11l.08,0-.13.05.08,0h0a.19.19,0,0,0-.11.05s0,0-.07,0l0,0,0-.06h0l-.06.06a.18.18,0,0,0,0,.1.15.15,0,0,0,0,.07.12.12,0,0,0,0,.1h0l0,.06.06.06.07,0H125l.1,0a1.4,1.4,0,0,0,.17-.09l-.43-.29h0l0-.08,0,0,0-.07,0,0,.06-.06,0,0,.07,0-.17.07a.39.39,0,0,0-.1.08.36.36,0,0,0-.07.1.43.43,0,0,0,0,.11.2.2,0,0,0,0,.11.26.26,0,0,0,.17.15h.07a.25.25,0,0,0,.15,0Z" transform="translate(-69.93 -56.16)"/><path class="cls-1" d="M130.41,60a3,3,0,0,0-2.1.05,1.41,1.41,0,0,0-.69,1.62,1.21,1.21,0,0,0,1.75.71,2.19,2.19,0,0,0,.82-.78,10.28,10.28,0,0,1,.53-.91l-.45-.15c-.08.72-.11,1.44-.21,2.15a4.07,4.07,0,0,1-.65,1.86.18.18,0,0,0,0,.07s0,0,0,0l-.08.07c.05,0,.05,0,0,0s-.15.07,0,0l-.18,0c.11,0,0,0,0,0h-.19c.11,0,0,0-.06,0l-.19,0a3.24,3.24,0,0,1-.33-.13h0l-.17-.08-.07,0c-.27-.15-.42-.2-.68-.34a.43.43,0,0,0-.62.52,2.44,2.44,0,0,0,1.12,1,2.15,2.15,0,0,0,1.43.16c1.28-.38,1.47-1.95,1.54-3.08.05-.73,0-1.46,0-2.19,0-.19-.28-.25-.4-.13a10.12,10.12,0,0,1-1.07,1.1.83.83,0,0,1-.5.21.56.56,0,0,1-.38-.31.62.62,0,0,1,.26-.82,2.3,2.3,0,0,1,1.51,0,.32.32,0,0,0,.38-.19.27.27,0,0,0-.16-.36Z" transform="translate(-69.93 -56.16)"/><path class="cls-1" d="M132,58.13c0,.71.12,1.42.12,2.12a14.65,14.65,0,0,1-.22,2.1.47.47,0,0,0,.44.53,1,1,0,0,0,.81-.4,2.91,2.91,0,0,0,.17-.3c.08-.14.2-.28.29-.41s.58-.88.9-.78c.07,0,0,0,.06,0s.08.1,0,0a1.25,1.25,0,0,1,.09.22c.05.22.05.44.08.66a1.41,1.41,0,0,0,.86,1.34.53.53,0,0,0,.64-.67l-.15-.37-.06-.17c0-.09,0,0,0,0-.06-.24-.06-.49-.1-.73A1.5,1.5,0,0,0,135,60a1.63,1.63,0,0,0-1.65.72c-.21.25-.43.49-.65.74a2,2,0,0,0-.34.46h0s.13,0,0,0l.57.39a7.32,7.32,0,0,1,.09-1.05,9.77,9.77,0,0,0,.06-1.08c0-.74,0-1.48-.07-2.22a.46.46,0,0,0-.56-.38.56.56,0,0,0-.44.59Z" transform="translate(-69.93 -56.16)"/><path class="cls-1" d="M137.77,58.05c0,.81.13,1.62.16,2.44,0,.39,0,.77,0,1.16a2.15,2.15,0,0,0,.08,1.21.4.4,0,0,0,.72-.06,2.89,2.89,0,0,0,.15-1.24c0-.41,0-.82,0-1.22,0-.83-.13-1.65-.19-2.48,0-.58-.92-.34-.89.19Z" transform="translate(-69.93 -56.16)"/><path class="cls-1" d="M136.22,59.61c.81,0,1.63,0,2.44,0a12.13,12.13,0,0,0,2.49-.18c.39-.08.62-.77.12-.88a9.56,9.56,0,0,0-2.45-.11l-2.45.08a.63.63,0,0,0-.63.52.5.5,0,0,0,.48.57Z" transform="translate(-69.93 -56.16)"/><path class="cls-1" d="M149.62,56.36a9.39,9.39,0,0,0-1.41,3.85,3.28,3.28,0,0,0,1.6,3.38c.42.21,1-.29.66-.71a6.25,6.25,0,0,1-.95-1.28,3.31,3.31,0,0,1-.27-1.58,8.08,8.08,0,0,1,1.09-3.33c.22-.43-.49-.74-.72-.33Z" transform="translate(-69.93 -56.16)"/><path class="cls-1" d="M153.15,62.25a4.43,4.43,0,0,1-.45-1,.94.94,0,0,1,.18-.87l.11-.12.18-.13s.06,0,.06,0l.09,0,.21-.1c.29-.13.59-.22.88-.33a.26.26,0,0,0,.15-.3.23.23,0,0,0-.28-.16,2.75,2.75,0,0,0-2,.89c-.59.8-.13,1.73.31,2.48a.31.31,0,0,0,.41.13.33.33,0,0,0,.17-.42Z" transform="translate(-69.93 -56.16)"/><path class="cls-1" d="M156.38,61.66a3.39,3.39,0,0,0,1.52-.1,1.61,1.61,0,0,0,1-.71c.32-.68-.53-1.21-1.06-1.41a1.61,1.61,0,0,0-1.24,0,2.11,2.11,0,0,0-.79.78,2.74,2.74,0,0,0-.42,1.1,1.39,1.39,0,0,0,.51,1.2,3.47,3.47,0,0,0,1.29.56,6.67,6.67,0,0,0,.91.19l.43,0a2.92,2.92,0,0,0,.51,0,.52.52,0,0,0,.4-.38.42.42,0,0,0-.17-.48,2.7,2.7,0,0,0-.61-.25l-.28-.06-.23,0-.12,0h0l-.1,0-.14,0-.31-.06-.52-.15-.21-.08s-.07-.05,0,0l-.1-.06-.06,0,0,0,0,0s-.17-.24-.1-.1c0-.06,0-.13-.08-.19s0,.05,0,0,0-.06,0-.09,0,0,0,0v-.11c0-.08,0-.16,0-.23s0,0,0,0a.56.56,0,0,0,0-.12c0-.07.05-.14.07-.2a1.74,1.74,0,0,1,.18-.34l.1-.15c.06-.08,0,0,0,0l.06,0a.58.58,0,0,1,.4-.14,1.27,1.27,0,0,1,.65.25,1.29,1.29,0,0,1,.25.2l.11.13s0,0,0,0,0,0,0,0v0h0s0,0,0,0,0,0,0,0a.76.76,0,0,1-.09.09,1.75,1.75,0,0,1-.46.21,3.34,3.34,0,0,1-1.3,0c-.45,0-.58.68-.09.72Z" transform="translate(-69.93 -56.16)"/><path class="cls-1" d="M162.26,60.66a1.37,1.37,0,0,0-1.35-.53,1,1,0,0,0-.74.91,2.63,2.63,0,0,0,.08,1.08,1.21,1.21,0,0,0,.05.18c0,.09,0-.06,0,0a.76.76,0,0,0,.11.26.47.47,0,0,0,.05.1c.1.11-.05-.12,0,0A.61.61,0,0,0,161,63h.14a2.33,2.33,0,0,0,.36-.08c.61-.22.93-.92,1.31-1.4l-.71-.47a1.8,1.8,0,0,0-.36.88,1,1,0,0,0,.46,1,2.14,2.14,0,0,0,2,0c.32-.14.4-.72,0-.81a3.08,3.08,0,0,0-.68-.08l-.33,0c-.07,0,0,0,0,0L163,62c-.08,0,0,0,0,0s-.07,0-.09,0l-.08,0c-.06,0,.08,0,0,0l-.13-.08c-.05,0,.06.06,0,0s.05.11,0,0,0-.08,0,0,0,0,0,0v-.07s0-.09,0,0,0,0,0,0,0-.06,0-.08,0-.06,0-.08,0-.09,0,0,0,0,0,0,.05-.08,0,0a.43.43,0,0,0,0-.57.45.45,0,0,0-.59,0l-.32.34-.16.17-.06.07-.27.26-.15.12h0l0,0c-.06,0-.06,0,0,0h-.09c-.44.09.39.25.27.09l-.14-.11a.08.08,0,0,1,.05,0,.36.36,0,0,1,0-.11c-.06-.14-.13-.28-.18-.42l0-.12a.25.25,0,0,1,0-.07s0,0,0,0a2,2,0,0,1,0-.24.49.49,0,0,1,0-.12c0,.07,0,0,0-.06s0-.12,0-.05,0-.1,0-.07.08-.09,0,0l.05,0s0,0,0,0a.45.45,0,0,1,.28,0A1.18,1.18,0,0,1,162,61c.18.14.44-.14.29-.3Z" transform="translate(-69.93 -56.16)"/><path class="cls-1" d="M164.24,58.52c.06.81.21,1.61.29,2.42a8,8,0,0,1,.06,1.09,3.16,3.16,0,0,0,.13,1.3.47.47,0,0,0,.81,0,4.27,4.27,0,0,0,.28-2.6c-.09-.84-.25-1.66-.32-2.5a.57.57,0,0,0-.7-.47.68.68,0,0,0-.55.73Z" transform="translate(-69.93 -56.16)"/><path class="cls-1" d="M167.12,58.15c.11.78.15,1.56.2,2.34,0,.39,0,.77.09,1.15a3.28,3.28,0,0,0,.32,1.17.45.45,0,0,0,.81-.07,2.72,2.72,0,0,0,0-1.3c0-.38-.05-.77-.07-1.15a23.63,23.63,0,0,0-.21-2.38c-.11-.75-1.25-.45-1.16.24Z" transform="translate(-69.93 -56.16)"/><path class="cls-1" d="M169.88,61.59a9,9,0,0,0,.42,1,2.49,2.49,0,0,0,.35.5l.26.24.09.08a1.76,1.76,0,0,0,.2.09.39.39,0,0,0,.49-.41.77.77,0,0,0-.08-.27c-.06-.08-.11-.17-.16-.25l-.06-.08,0-.06c0,.06,0,.07,0,0l-.16-.25.06.1a11,11,0,0,1-.51-1.1.46.46,0,0,0-.62-.2.51.51,0,0,0-.26.63Z" transform="translate(-69.93 -56.16)"/><path class="cls-1" d="M171.51,61.35c-.19.55-.31,1.12-.47,1.68a11.78,11.78,0,0,0-.41,1.63,5,5,0,0,0,.56,3.41c.27.39,1,.08,1-.34a2.47,2.47,0,0,0-.09-.86,5.62,5.62,0,0,1-.16-.71,5,5,0,0,1,0-1.5,11.39,11.39,0,0,1,.32-1.43c.13-.51.22-1,.39-1.54a.58.58,0,1,0-1.11-.34Z" transform="translate(-69.93 -56.16)"/><path class="cls-1" d="M180.92,57.49a1.76,1.76,0,0,0-.83-.51,1.26,1.26,0,0,0-1,.25,2,2,0,0,0-.66,1.73,15.12,15.12,0,0,0,.28,2,5,5,0,0,1,.07,1.16c0,.36-.14.81.08,1.12a.31.31,0,0,0,.43,0,1.5,1.5,0,0,0,.44-.82,3.17,3.17,0,0,0,.12-1.06,8.53,8.53,0,0,0-.33-1.87,3.09,3.09,0,0,1-.16-1.38.66.66,0,0,1,.38-.53c.3-.11.59.19.8.36s.59-.24.33-.46Z" transform="translate(-69.93 -56.16)"/><path class="cls-1" d="M177.41,61.74c.63-.06,1.26-.09,1.9-.14a5.55,5.55,0,0,0,2-.36.36.36,0,0,0,0-.66,2.63,2.63,0,0,0-1-.1l-1,0c-.69,0-1.38.1-2.07.17a.61.61,0,0,0-.48.65.51.51,0,0,0,.62.41Z" transform="translate(-69.93 -56.16)"/><path class="cls-1" d="M184.66,61a2,2,0,0,0-1.32-.35,1.27,1.27,0,0,0-1,.92,1.48,1.48,0,0,0,.15,1.31,1.27,1.27,0,0,0,1.54.29,1.75,1.75,0,0,0,.7-.59,1.69,1.69,0,0,0,.22-.39l0-.13a.08.08,0,0,0,0,0c0-.07,0,0,0,0l-.16.14,0,0-.19,0h-.06l-.24-.29c.07.33.1.65.2,1a2.07,2.07,0,0,0,.27.45,1.15,1.15,0,0,0,.14.17.68.68,0,0,0,.34.19.48.48,0,0,0,.61-.51.64.64,0,0,0-.12-.35,2.09,2.09,0,0,0-.14-.17,1.67,1.67,0,0,0-.12-.16s0,.06,0,0l-.06-.09c-.07-.13-.12-.25-.18-.38a2.3,2.3,0,0,0-.23-.44.35.35,0,0,0-.36-.11.4.4,0,0,0-.18.07l-.06,0c-.15.13-.06.08,0,0a1.5,1.5,0,0,0-.11.13l-.09.16,0,.09s.06-.09,0,0a.1.1,0,0,0,0,0l-.09.11c0,.05.06,0,0,0l0,.05-.11.09s-.08,0,0,0l0,0-.13.07s-.16.06-.06,0l-.13,0s-.15,0,0,0h-.18l-.07,0s0,0,0,0l-.12-.08s.08.09,0,0l0,0,0,0s0,.09,0,0l0-.09s0-.07,0,0,0,0,0,0,0-.08,0-.11,0-.14,0-.06a1.64,1.64,0,0,1,0-.22s0-.1,0,0a.56.56,0,0,1,0-.12l0-.09c0-.05,0,0,0,0l0,0,0,0s.1-.07.07-.06h0l.11,0,.22,0a3.08,3.08,0,0,1,.53.21.34.34,0,0,0,.44-.09.3.3,0,0,0-.06-.43Z" transform="translate(-69.93 -56.16)"/><path class="cls-1" d="M187.93,60.18a1.84,1.84,0,0,0-.79.84,1.1,1.1,0,0,0,.46,1.19c.11.09.23.17.35.25l.1.07s.1.09,0,0,0,0,0,0l.08.08c0,.07,0-.09,0,0a.08.08,0,0,0,0,0c0,.05,0,0,0-.06s0,.09,0,.1,0-.11,0,0v0c0-.08,0,0,0,0s-.05.08,0,0,0,0,0,0,0,0,.05,0,0,0-.05,0l0,0c-.07.06,0,0,0,0a.38.38,0,0,0-.13.06l.06,0-.1,0h0l-.16,0c-.11,0,.11,0,0,0s0,0,0,0l-.07,0h-.05c-.06,0,.08,0,0,0l-.33-.13a.42.42,0,0,0-.51.34,1,1,0,0,0,1,1,1.64,1.64,0,0,0,1.34-1,1.14,1.14,0,0,0-.39-1.36,2.58,2.58,0,0,0-.42-.25l-.2-.12-.08-.05s-.12-.1-.07,0h0c-.1-.1,0,0,0,0l0-.06,0,.05s0-.05,0,0,0,0,0,0,0,.09,0,0,0,0,0,0l0-.06s.05,0,0,0,0,0,0,0l.13-.09.05,0c.06-.05-.08,0,0,0l.16-.09a.55.55,0,0,0,.25-.76.52.52,0,0,0-.77-.08Z" transform="translate(-69.93 -56.16)"/><path class="cls-1" d="M191.25,58.7c.1.8.17,1.61.27,2.42a5.9,5.9,0,0,0,.17,1l0,.09c0-.07,0-.07,0,0a1.16,1.16,0,0,1,0,.18.61.61,0,0,0,.05.18c0-.07,0-.08,0,0a.42.42,0,0,0,.13.3.53.53,0,0,0,.74,0c.32-.24.27-.68.19-1s-.13-.56-.18-.84c-.15-.82-.27-1.64-.43-2.46-.12-.64-1.07-.39-1,.21Z" transform="translate(-69.93 -56.16)"/><path class="cls-1" d="M190.65,61c.56,0,1.12,0,1.68,0a6.07,6.07,0,0,0,.85-.06,5.57,5.57,0,0,0,.71-.14h-.18l-.15-.1,0,0,0-.16v0a.25.25,0,0,0,.15.33.44.44,0,0,0,.48-.19.39.39,0,0,0,0-.46,1.06,1.06,0,0,0-.89-.21l-.22,0h-.53l-1.72,0a.61.61,0,0,0-.61.5.49.49,0,0,0,.46.55Z" transform="translate(-69.93 -56.16)"/><path class="cls-1" d="M194.29,57.45a11.11,11.11,0,0,1,1.2,1.7,5,5,0,0,1,.51,2,4.87,4.87,0,0,1-.24,1.93c-.22.64-.62,1.23-.82,1.88a.37.37,0,0,0,.52.46c1.42-.74,1.74-2.86,1.62-4.3a5.51,5.51,0,0,0-.63-2.21A10.49,10.49,0,0,0,194.87,57c-.31-.32-.85.13-.58.48Z" transform="translate(-69.93 -56.16)"/><path class="cls-1" d="M153.47,65.72c2.79.12,5.58.09,8.38.13q1.31,0,2.61.12c.24,0,1.42,0,1.51.26s.49.22.64,0c1-1.33-2.64-1.25-3.21-1.26-3.29-.06-6.56.19-9.85.11-.38,0-.5.6-.08.62Z" transform="translate(-69.93 -56.16)"/></svg>