<svg id="Layer_1" data-name="Layer 1" xmlns="http://www.w3.org/2000/svg" viewBox="0 0 299.3 201.36"><defs><style>.cls-1{fill:#486afb;}.cls-2{fill:#fd46fc;}</style></defs><path class="cls-1" d="M83.88,103.17c0,3-.16,6.07,0,9.09.06,1.43.43,2.82.52,4.25s0,3-.07,4.51c-.08,3-.09,6-.12,9s-.2,5.88,0,8.8c.08,1.39.3,2.75.41,4.13.12,1.54,0,3.09,0,4.63,0,3,.1,5.93.06,8.9s-.43,6-.62,9c-.09,1.47,0,2.95,0,4.42s-.28,3-.42,4.55c-.28,2.86,0,5.75,0,8.62s0,6,0,9.07q0,9.09,0,18.16,0,9.24,0,18.5c0,1.34,0,2.69-.06,4s-.37,2.73-.5,4.11a10.29,10.29,0,0,0,1.24,6.62,7.14,7.14,0,0,0,2.14,2.17,5.83,5.83,0,0,0,3.31.71,19.19,19.19,0,0,0,3.54-.47c1.48-.28,3-.29,4.53-.47,3-.37,5.91-1.16,9-1.07,2.83.09,5.61-.56,8.45-.66,5.75-.21,11.54.16,17.3.16H151c6,0,12-.21,17.92.5,1.4.16,2.8.32,4.2.42s3,0,4.45.13c1.27.09,2.51.37,3.77.46,1.45.1,2.9,0,4.34,0,6.1,0,12.21,0,18.31,0,3.07,0,6.15-.1,9.21.05s5.89.47,8.86.48c6,0,12.05,0,18.06,0h9.13a69.67,69.67,0,0,0,8.79-.1,32.88,32.88,0,0,1,4.32-.4h23a61.15,61.15,0,0,1,8.67.33c1.19.17,2.38.15,3.57.24a10.24,10.24,0,0,0,3.62-.19,1,1,0,0,0,.51-1.57,5.75,5.75,0,0,1-.73-2.77c-.16-1.05-.51-2.05-.63-3.1-.28-2.43.48-5,.74-7.39s.26-4.76.32-7.15.2-4.85.14-7.28c-.13-4.8-1.08-9.51-.4-14.32a52.32,52.32,0,0,0,.23-7.51c0-2.5,0-5-.05-7.49s0-5,0-7.48.63-4.72.39-7.06a53.54,53.54,0,0,1-.26-7.49,30,30,0,0,0-.26-7,33.3,33.3,0,0,1-.31-7.06,51.63,51.63,0,0,0-.32-7,62.12,62.12,0,0,1-.24-7.84c0-2.6,0-5.21.06-7.82,0-2.91,0-5.83,0-8.74a41.25,41.25,0,0,1,.33-8.17c.5-2.52.18-5.27.17-7.83,0-2.34.48-4.78-.1-7.08a1,1,0,0,0-1.43-.61,25.65,25.65,0,0,1-4.66,1.43c-1.59.4-3.14,1.19-4.8,1.28s-3.59,0-5.37,0l-5.35,0c-3.57,0-7.13,0-10.69.23s-6.86.52-10.32.45-6.93-.61-10.41-.74-7,.11-10.48.11c-7.29,0-14.6-.19-21.88.11s-14.38.39-21.6.39c-3.63,0-7.26-.1-10.89.11s-7,.43-10.45.43c-7.17,0-14.33-.18-21.49-.1s-14.18,1.13-21.29,1a90.24,90.24,0,0,0-10.66.26,97.9,97.9,0,0,1-10.42.23,69,69,0,0,0-10.16.67,74.13,74.13,0,0,1-11.05.36c-1.79,0-3.58,0-5.37,0-1.25,0-1.38,1.9-.11,1.9,3.66,0,7.32.09,11,0a42.24,42.24,0,0,0,5.15-.3c1.79-.24,3.57-.57,5.37-.68,3.48-.22,7-.07,10.49,0s7-.55,10.47-.56c3.67,0,7.32.14,11-.07s7.07-.62,10.62-.78c7.23-.32,14.5-.12,21.74,0,3.58,0,7.17.07,10.75-.14s7-.4,10.49-.39c7.35,0,14.72.16,22.06-.18s14.55-.3,21.84-.31c3.61,0,7.22-.06,10.83-.13s7,.33,10.51.58c7,.5,14-.43,21.05-.49,3.64,0,7.28,0,10.92,0a29.69,29.69,0,0,0,4.9-.09c1.64-.28,3.21-1,4.82-1.39a22.15,22.15,0,0,0,4.42-1.43l-1.43-.61c.52,2.06.06,4.27.06,6.37a49.92,49.92,0,0,1-.06,7.44,24.91,24.91,0,0,0-.5,3.34c0,1.22.06,2.45.06,3.67,0,2.63,0,5.26,0,7.88,0,5.22-.13,10.44,0,15.65,0,2.48.55,4.9.54,7.38s-.14,5,0,7.42a30.86,30.86,0,0,0,.52,3.15,24,24,0,0,1,.13,3.7c0,2.43-.25,4.87,0,7.3a34.76,34.76,0,0,1,.34,3.67c0,1.18-.35,2.33-.44,3.5-.17,2.54-.07,5.12-.06,7.66s.05,5.14.06,7.7.24,5.09,0,7.58A57,57,0,0,0,299,208c.07,2.41.4,4.78.56,7.18.17,2.69,0,5.39-.06,8.08s0,5.43-.33,8.15-1.05,5.36-.6,8.07c.18,1.11.48,2.19.63,3.31a5.84,5.84,0,0,0,1.1,2.85l.51-1.57a10,10,0,0,1-3.45.1c-1.33-.09-2.64-.13-4-.33a60,60,0,0,0-8.79-.21H266.41a56.07,56.07,0,0,0-8.4.39c-2.82.41-5.81.09-8.65.09H231.11c-3,0-6,.05-8.94,0s-5.9-.34-8.86-.49c-5.83-.28-11.73,0-17.57,0h-9.08c-1.34,0-2.68.06-4,.06s-2.81-.29-4.22-.43c-2.84-.3-5.7-.2-8.55-.52A84.19,84.19,0,0,0,161,242c-11.89-.09-23.78.31-35.67,0-2.84-.07-5.68-.2-8.52-.17-1.35,0-2.69.07-4,.18s-2.73.41-4.1.51-2.81-.1-4.21,0a30.84,30.84,0,0,0-3.9.66c-2.82.53-5.77.45-8.56,1.11a9.53,9.53,0,0,1-3.76.2,4.42,4.42,0,0,1-2.67-2.4c-1.19-2.23-.71-4.81-.39-7.19a61.84,61.84,0,0,0,.26-8.61v-8.82c0-12,.14-24-.09-36a53.43,53.43,0,0,1,.25-8.58c.42-2.86-.05-5.75.33-8.62.77-5.82.48-11.67.43-17.52,0-1.34,0-2.67-.1-4-.14-1.58-.41-3.15-.45-4.74-.08-2.94,0-5.89,0-8.83s-.12-6-.1-9c0-1.37,0-2.75-.06-4.11s-.48-2.82-.51-4.26c-.05-2.89,0-5.78,0-8.67,0-.79-1.25-.82-1.25,0Z" transform="translate(-2.7 -74.63)"/><path class="cls-1" d="M100.82,75.21a9.19,9.19,0,0,0-6.57.05c-1.77.72-4,2.41-3.64,4.59.35,2,2.62,3.23,4.11,4.31a14.09,14.09,0,0,1,2.67,2.26c.29.35.55.72.22,1.12a2.86,2.86,0,0,1-1.14.73,6.3,6.3,0,0,1-3,.47c-1.24-.18-2.35-1.15-3.38-1.79a.75.75,0,0,0-1,1.12A8.07,8.07,0,0,0,92,90.27a5.72,5.72,0,0,0,3.2.24c1.79-.28,4.74-1.31,4.48-3.61a4.71,4.71,0,0,0-2-2.76c-1-.8-2-1.49-3-2.19a7.44,7.44,0,0,1-2.06-1.81c-.59-.89-.11-1.73.59-2.41a7,7,0,0,1,7.2-1.29.65.65,0,0,0,.41-1.23Z" transform="translate(-2.7 -74.63)"/><path class="cls-2" d="M189.27,208.47c-3.9,0-7.65.45-11.07,2.45-.89.52-1.74,1.09-2.61,1.64s-1.67,1-2.46,1.52a20.14,20.14,0,0,0-3.78,3.42,35.61,35.61,0,0,0-3.5,4.7c-1.06,1.69-2.15,3.37-3.1,5.11-2,3.66-3,7.73-3.94,11.75a46.72,46.72,0,0,0-1.23,6.32,23.89,23.89,0,0,0,.09,5.21,26,26,0,0,0,3.08,9.33,29.48,29.48,0,0,0,15.19,13.2,48.24,48.24,0,0,0,11.34,2.4,37,37,0,0,0,12.55-.14,18.74,18.74,0,0,0,5.22-2.1c.85-.49,1.69-1,2.58-1.42a21.18,21.18,0,0,0,2.75-1.45c1.57-1.06,2.85-2.48,4.31-3.68a21.14,21.14,0,0,0,3.87-4.09,38.77,38.77,0,0,0,6.74-20.87,58.13,58.13,0,0,0-.31-12.16,25.2,25.2,0,0,0-1.51-5.93,34.75,34.75,0,0,0-2.89-5.16c-.44-.67-.7-1.42-1.1-2.11a11.81,11.81,0,0,0-2-2.21,32.42,32.42,0,0,0-4.42-4,21.46,21.46,0,0,0-5.28-2.44,18.16,18.16,0,0,0-2.9-.84c-1-.16-2-.19-3-.42a26.61,26.61,0,0,0-5.7-.48,28.58,28.58,0,0,0-3.07,0,16.65,16.65,0,0,0-3,.55c-1.87.47-3.88.48-5.7,1.09a12.7,12.7,0,0,0-4.27,2.57c-1.21,1.05-2.25,2.3-3.48,3.32-.54.45.22,1.2.74.76q1.83-1.51,3.67-3a11.55,11.55,0,0,1,4-2.29,19.51,19.51,0,0,1,2.65-.43c1-.13,2-.3,2.94-.51a12.92,12.92,0,0,1,2.76-.38c.95,0,1.89,0,2.84.08s1.9,0,2.84.1a22.63,22.63,0,0,1,2.58.51c1,.2,2,.22,2.94.39a19,19,0,0,1,2.66.81,14.29,14.29,0,0,1,7,4.23c.69.69,1.4,1.35,2.09,2.05a7.16,7.16,0,0,1,1.57,1.94,15.89,15.89,0,0,0,1.22,2.17,26,26,0,0,1,2.67,5,24.86,24.86,0,0,1,1.27,5.6,34,34,0,0,1,.33,5.79,68.24,68.24,0,0,1-.73,11,36.67,36.67,0,0,1-3.19,10,32.77,32.77,0,0,1-2.71,4.52,19.55,19.55,0,0,1-3.57,3.7,44,44,0,0,1-4.09,3.51c-.85.53-1.78.92-2.68,1.37s-1.59.87-2.38,1.32a16.74,16.74,0,0,1-5,2,25.53,25.53,0,0,1-5.92.51c-2,0-4-.24-6-.47-1.84-.23-3.68-.44-5.49-.82a29.46,29.46,0,0,1-9.85-3.74,30.11,30.11,0,0,1-7.07-6.2,24,24,0,0,1-5.72-17.57,46,46,0,0,1,1.19-6.06c.47-1.95.93-3.89,1.53-5.81a30.2,30.2,0,0,1,2.21-5.48c.91-1.68,1.95-3.3,3-4.92a26.24,26.24,0,0,1,6.87-7.77c.76-.54,1.59-1,2.37-1.48s1.6-1,2.41-1.53a16.74,16.74,0,0,1,5.18-2.07,26.61,26.61,0,0,1,5.35-.46.63.63,0,0,0,.06-1.26Z" transform="translate(-2.7 -74.63)"/><path class="cls-2" d="M153.45,211.15q2.19-4.2,4.43-8.38a91.52,91.52,0,0,1,4.72-8.22l-1.69-.45c0,1.68.11,3.39.18,5.07l.22,5.07a39.93,39.93,0,0,0,.29,4.38c.18,1.22.61,3,1.84,3.59a.81.81,0,0,0,1.17-.9,16.24,16.24,0,0,0-.73-1.59,7.32,7.32,0,0,1-.42-1.78c-.18-1.42-.18-2.88-.25-4.31l-.22-4.7c-.08-1.6-.08-3.23-.27-4.82-.09-.81-1.24-1.35-1.69-.46-1.43,2.82-3.11,5.51-4.67,8.25s-3.05,5.53-4.48,8.35c-.53,1,1,1.94,1.57.9Z" transform="translate(-2.7 -74.63)"/><path class="cls-2" d="M155.85,206.36c1,0,2,.06,3,0l1.43-.08c.25,0,.51,0,.76-.06a.91.91,0,0,0,.73-.25.42.42,0,0,0,0-.57c-.38-.33-1-.13-1.48-.09l-1.42.07c-1,0-2,0-3,0-.64,0-.64,1,0,1Z" transform="translate(-2.7 -74.63)"/><path class="cls-1" d="M3.76,169.81c.56-2.31,1.14-4.61,1.77-6.9.33-1.19.65-2.38,1-3.55.07-.24.14-.48.22-.71a3.8,3.8,0,0,0,.3-.81c.16-.19.07-.25-.28-.17l0,.08a2.82,2.82,0,0,0,.18.79c.49,2.33,1,4.66,1.5,7a32.68,32.68,0,0,0,1.81,6.84c.28.62,1.23.29,1.23-.33a29.53,29.53,0,0,0-1.11-6.37c-.49-2.13-1-4.25-1.46-6.37a6,6,0,0,0-.85-2.66,1.3,1.3,0,0,0-2,0,6.83,6.83,0,0,0-.77,2.49c-.27,1.07-.56,2.14-.83,3.21-.61,2.39-1.21,4.77-1.78,7.16-.16.68.88,1,1,.28Z" transform="translate(-2.7 -74.63)"/><path class="cls-1" d="M5.76,166.55c.41,0,.81-.07,1.21-.12l.6-.07a1.28,1.28,0,0,0,.34-.06l.13-.05.3-.13a.89.89,0,0,0,.44-.3.72.72,0,0,0,.17-.49.87.87,0,0,0-.11-.41.79.79,0,0,0-.49-.38,4.13,4.13,0,0,0-.77-.13c-.2,0-.4,0-.6.05l-1.21.11a1.05,1.05,0,0,0-.71.29,1,1,0,0,0-.28.69,1,1,0,0,0,.29.72,1,1,0,0,0,.69.28Z" transform="translate(-2.7 -74.63)"/><path class="cls-1" d="M38.65,156c-1.72.41-3.47.94-4.54,2.44a3.62,3.62,0,0,0-.1,4.1,18.33,18.33,0,0,0,2.54,2.67c.8.82,1.39,1.79.63,2.87a4.07,4.07,0,0,1-2.31,1.38,2.82,2.82,0,0,1-1.51.22c-.37-.12-.57-.54-.88-.77a.82.82,0,0,0-1.1.3c-.52.94.26,1.88,1.11,2.25a4.48,4.48,0,0,0,3.08-.13c1.81-.57,3.61-1.77,3.92-3.79a4.52,4.52,0,0,0-1.65-3.84c-.79-.79-2-1.59-2.37-2.65-.68-2.05,2.31-2.8,3.68-3.13a1,1,0,0,0-.5-1.92Z" transform="translate(-2.7 -74.63)"/><path class="cls-1" d="M50,160.42Z" transform="translate(-2.7 -74.63)"/><path class="cls-1" d="M49.91,160a.93.93,0,0,0-.37-.1.62.62,0,0,0-.23,0,.88.88,0,0,0-.34.19,1.56,1.56,0,0,0-.16.2l-.06.1a1.69,1.69,0,0,0-.08.24.91.91,0,0,0,0,.49.7.7,0,0,0,.08.2.76.76,0,0,0,.11.14l0,0a.82.82,0,0,0,.22.16l.14.05a.36.36,0,0,0,.23,0,.28.28,0,0,0,.15,0,.47.47,0,0,0,.2-.12.93.93,0,0,0,.2-.38.82.82,0,0,0,0-.22,1.66,1.66,0,0,0,0-.22,1.45,1.45,0,0,0-.09-.22,1,1,0,0,0-.14-.2l0,0a1,1,0,0,0-.17-.12.55.55,0,0,0-.22-.1h0a.63.63,0,0,0-.19,0l-.19,0h0a.63.63,0,0,0-.24.09,1,1,0,0,0-.35.35.57.57,0,0,0-.11.28.88.88,0,0,0,0,.24.69.69,0,0,0,0,.2.25.25,0,0,0,0,.12.63.63,0,0,0,.15.24l0,0,.16.12a.7.7,0,0,0,.51.07l.19-.08h0l.14-.11h0a1,1,0,0,0,.12-.16,1.11,1.11,0,0,0,.07-.16.51.51,0,0,0,0-.3.52.52,0,0,0-.06-.15l0,.38a.75.75,0,0,0,0-.3.55.55,0,0,0-.18-.4.29.29,0,0,0-.25-.09.31.31,0,0,0-.23.15.56.56,0,0,1-.05.08l.05-.07-.06.06.09-.07-.09,0,.12,0,0,0,.48.13h0l-.13-.09a.66.66,0,0,0-.15-.07h0l.15.06-.21-.08.48.48v0l0,.17,0-.25,0,.18V161l0,.18a.24.24,0,0,1,0-.08l-.07.17a.43.43,0,0,1,0-.07l-.11.15s0,0,0-.05l-.15.11.06,0-.18.07h.06l-.18,0,.23,0-.18,0h0l-.17,0h.06l-.16-.06.07,0-.14-.1,0,0-.11-.14.12.15-.11-.13s0,0,0,0l-.06-.16a.64.64,0,0,0,0,.07l0-.15v0l0-.15s0,0,0,.05l.57-.44h0l.15,0h0l.13,0,0,0,.12.09,0,0,.09.13a.36.36,0,0,1,0-.09l.06.15a.32.32,0,0,1,0-.09l0,.15v-.12l0,.14,0-.1,0,.14a.24.24,0,0,1,.06-.11l-.09.11.07-.07-.12.09.07,0-.14.06.07,0-.15,0h.06l-.14,0,.07,0a.5.5,0,0,0,.21,0,.44.44,0,0,0,.21-.07l.11-.09a.38.38,0,0,0,.12-.17.35.35,0,0,0,0-.14.3.3,0,0,0,0-.21l-.05-.14a.58.58,0,0,0-.21-.2Z" transform="translate(-2.7 -74.63)"/><path class="cls-1" d="M49.9,168.3a1.68,1.68,0,0,0,.25-.33.31.31,0,0,0,.05-.1.78.78,0,0,0,.09-.21,1.75,1.75,0,0,0,0-.24,1.44,1.44,0,0,0-.18-.81,2.07,2.07,0,0,0-.17-.24l-.1-.1a1.27,1.27,0,0,0-.31-.2.75.75,0,0,0-.53,0,1.51,1.51,0,0,0-.51.29,1.26,1.26,0,0,0-.26.31,1.24,1.24,0,0,0-.17.37,1.14,1.14,0,0,0-.07.41.17.17,0,0,0,0,.1,1.12,1.12,0,0,0,0,.32c0,.09.07.19.11.28l.06.1a1.6,1.6,0,0,0,.43.43.78.78,0,0,0,.64.08l.15,0a2,2,0,0,0,.41-.2,1.16,1.16,0,0,0,.42-.46,1,1,0,0,0,.1-.74,1.06,1.06,0,0,0-.47-.61,1,1,0,0,0-.55-.16.5.5,0,0,0-.24,0,.91.91,0,0,0-.37.21l-.07.09a.86.86,0,0,0-.19.53.81.81,0,0,0,.39.67.78.78,0,0,0,.77,0l0,0-.2.08.26-.1-.2.08h0l-.21,0h.07l-.2,0,.07,0-.18-.08.07.05L49,168a.34.34,0,0,1,.06.06l-.12-.16,0,0-.08-.19s0,0,0,.05l0-.2v.05l0-.19a.14.14,0,0,1,0,.07l.08-.17,0,0,.12-.15-.08.08.16-.13a1.19,1.19,0,0,1-.15.09l.19-.08a1.89,1.89,0,0,1-.34.09l.74.2-.1-.1.13.16a.64.64,0,0,1-.08-.14l.08.2a1.1,1.1,0,0,1-.06-.26l0,.21a1.22,1.22,0,0,1,0-.27l0,.2a1.46,1.46,0,0,1,.05-.2l-.07.18a.7.7,0,0,1,.09-.17l-.11.16a.49.49,0,0,1,.12-.13l-.16.12.14-.07-.18.07h0l-.54-.07.07,0-.15-.11a.63.63,0,0,1,.12.11l-.12-.15a.51.51,0,0,1,.09.16l-.07-.18a.73.73,0,0,1,.05.2l0-.18a.67.67,0,0,1,0,.2l0-.18c0,.1,0,.2,0,.3l0-.18a.29.29,0,0,1,0,.09l.07-.16-.06.11.1-.14-.06.07a.68.68,0,0,0-.19.46.7.7,0,0,0,.2.49.68.68,0,0,0,.47.19.74.74,0,0,0,.48-.2Z" transform="translate(-2.7 -74.63)"/><path class="cls-1" d="M24.45,160.24c-3,.19-6.91.42-9,3a3,3,0,0,0,.23,4.21,4.82,4.82,0,0,0,2.06.83c1,.2,2,.32,3,.44a28.5,28.5,0,0,0,6.65.28.82.82,0,0,0,.78-.69.78.78,0,0,0-.57-.87c-2-.29-4.11-.35-6.17-.55-1-.1-2.05-.24-3.07-.37-.62-.08-1.67-.09-2-.75s.28-1.48.74-1.91a6.62,6.62,0,0,1,2.22-1.27,18.89,18.89,0,0,1,5.12-.88c.92-.07.94-1.5,0-1.44Z" transform="translate(-2.7 -74.63)"/><path class="cls-1" d="M15.37,172.58c2.45-2.82,4.77-5.71,7-8.68,1.12-1.46,2.22-3,3.33-4.43a33.4,33.4,0,0,0,3.19-4.66.75.75,0,0,0-1.18-.9,35,35,0,0,0-3.5,4.43c-1.09,1.49-2.19,3-3.27,4.48-2.18,3-4.3,6.07-6.32,9.21-.28.43.38.94.72.55Z" transform="translate(-2.7 -74.63)"/></svg>