<svg id="Layer_1" data-name="Layer 1" xmlns="http://www.w3.org/2000/svg" viewBox="0 0 124.17 98.87"><defs><style>.cls-1{fill:#fd46fc;}.cls-2{fill:#486afb;}</style></defs><path class="cls-1" d="M166.43,147.23c8.57-1.89,17.5-3.34,26.28-2.25A47.3,47.3,0,0,1,205,148.39a103.69,103.69,0,0,0,11.23,4.4,24.92,24.92,0,0,0,13.83.05c1.16-.34.68-2.17-.47-1.82a23,23,0,0,1-12.32.33,81.91,81.91,0,0,1-11.33-4.09,49.89,49.89,0,0,0-12-3.37,56.78,56.78,0,0,0-13-.11,105.53,105.53,0,0,0-14.62,2.67c-.5.12-.3.89.21.78Z" transform="translate(-106.92 -73.15)"/><path class="cls-2" d="M113.59,104.74a5.21,5.21,0,0,0-4.68.09,2.74,2.74,0,0,0-1,4,6.56,6.56,0,0,0,1.77,1.59,12.28,12.28,0,0,1,1.75,1.47,3.9,3.9,0,0,1,1.18,1.63c.11.51-.34.86-.76,1.08-1.25.65-2.75.16-3.93-.4a.64.64,0,0,0-.86.87c1.49,2.49,6.18,2.39,7.33-.41.66-1.64-.56-3.13-1.65-4.22a14.1,14.1,0,0,0-1.88-1.57c-.52-.37-1.19-.73-1.45-1.35s.35-1,.85-1.16a3.21,3.21,0,0,1,2.4.06,1,1,0,0,0,1.34-.36,1,1,0,0,0-.37-1.33Z" transform="translate(-106.92 -73.15)"/><path class="cls-1" d="M123.43,145.75c5.81-1.47,11.76-.34,17.64,0a29.9,29.9,0,0,0,15.49-3c4.43-2.26,8.73-5.81,11.05-10.29a12.62,12.62,0,0,0,1.48-7.22,14.06,14.06,0,0,0-2.5-6.09c-1.4-2.09-3.09-4-4.43-6.11a13.21,13.21,0,0,1-2.1-8.27c.1-1.27-1.87-1.27-2,0a14.67,14.67,0,0,0,1.48,7.68,34.36,34.36,0,0,0,3.72,5.46,22.06,22.06,0,0,1,3.35,5.35,9.29,9.29,0,0,1,0,6.61c-1.66,4.57-5.7,8.18-9.8,10.56a26.68,26.68,0,0,1-6.65,2.75,30.3,30.3,0,0,1-8.06.83c-6.38-.09-12.78-1.25-19,.66a.55.55,0,0,0,.28,1.06Z" transform="translate(-106.92 -73.15)"/><path class="cls-1" d="M162.11,137.86a11.29,11.29,0,0,1,3.4,5.26,13.89,13.89,0,0,1,0,6.72c-1,4.65-3.57,8.8-5,13.33a28.68,28.68,0,0,0-1.39,7.89,1,1,0,0,0,2,0c.11-5,2-9.59,3.95-14.12,1.86-4.38,3.57-9.18,2.33-14a12.78,12.78,0,0,0-4.05-6.33c-.81-.7-2,.46-1.18,1.2Z" transform="translate(-106.92 -73.15)"/><path class="cls-1" d="M195.38,104.46a22.86,22.86,0,0,0-2.71,13.19,41.51,41.51,0,0,0,4.05,12.56,68.28,68.28,0,0,1,4.82,12.38,43.54,43.54,0,0,1,1.26,13,39.74,39.74,0,0,1-3.5,14.22c-.48,1,1.06,1.91,1.52.87A44.4,44.4,0,0,0,204,145a51.14,51.14,0,0,0-4.22-12.61c-1.82-4-3.84-8-4.87-12.26a22.5,22.5,0,0,1,1.64-15c.37-.78-.76-1.45-1.17-.67Z" transform="translate(-106.92 -73.15)"/><path class="cls-2" d="M121.53,105.89q.41,8.51.73,17c.2,5.68.24,11.36.28,17s-.1,11.36-.22,17q-.09,4.23-.2,8.46a38,38,0,0,0-.06,3.85,2.68,2.68,0,0,0,1.67,2.55,4.56,4.56,0,0,0,1.69.09c.75,0,1.5-.08,2.24-.12,1.41-.07,2.84,0,4.25,0l8.48,0c5.7,0,11.39,0,17.09,0,11.35-.05,22.71,0,34.06.08,5.74,0,11.48,0,17.22-.06s11.31,0,17-.12c1.42,0,2.83-.06,4.25,0a.77.77,0,0,0,.66-1.15,8.09,8.09,0,0,1-.51-3.78c0-1.35.14-2.71.2-4.06.12-2.91.25-5.82.34-8.72.17-5.82.26-11.64.34-17.45s.11-11.64.08-17.46q0-4.42-.09-8.85c0-1.42,0-2.85-.09-4.27a2.8,2.8,0,0,0-1.16-2.49,2.94,2.94,0,0,0-1.69-.16l-2.22.23c-1.44.14-2.89.28-4.33.34-2.89.12-5.78.16-8.67.17-5.81,0-11.62,0-17.43-.08-11.65,0-23.31,0-35,0s-23.39,0-35.09.14l-4.25,0a.92.92,0,0,0,0,1.84l17.36-.16c5.79-.06,11.57-.19,17.36-.26,11.48-.15,23-.16,34.46-.18s23.06,0,34.56-.49l2-.11,1-.06a3.26,3.26,0,0,1,1.12,0c.39.13.42.62.45,1,0,.66,0,1.35,0,2,0,2.86,0,5.73,0,8.6q0,8.6-.13,17.2c-.08,5.78-.24,11.56-.41,17.33-.08,2.87-.17,5.73-.25,8.6s-.37,5.61-.19,8.38a8.68,8.68,0,0,0,.88,3.47l.67-1.15c-2.82.06-5.65,0-8.48-.06l-8.36,0q-8.35,0-16.72,0c-11.18,0-22.37.13-33.56.19s-22.37,0-33.56.05c-1.37,0-2.74-.06-4.11-.12-.38,0-.9.06-1.11-.32a2.82,2.82,0,0,1-.14-1.26c0-2.81.14-5.63.17-8.45,0-5.56,0-11.12-.08-16.67s-.14-11.12-.23-16.67-.18-11.2-.4-16.79l-.18-4.1c0-1.08-1.73-1.09-1.68,0Z" transform="translate(-106.92 -73.15)"/><path class="cls-1" d="M137.83,120.09l-.22,3.91-.11,1.92a3.24,3.24,0,0,0,.28,2.06.73.73,0,0,0,1.13.14,3.4,3.4,0,0,0,.58-2.12c0-.64.07-1.28.11-1.92l.22-4a1,1,0,0,0-1-1,1,1,0,0,0-1,1Z" transform="translate(-106.92 -73.15)"/><path class="cls-1" d="M140.23,121.07a3.79,3.79,0,0,1,2.11-.12,1.88,1.88,0,0,1,.82.32c.1.1.09.1.06.21-.15.52-.76.75-1.22.89a6.63,6.63,0,0,0-2.06.84.85.85,0,0,0-.38.91.82.82,0,0,0,.78.61A5.9,5.9,0,0,1,143,125c.58.27,1.2.91,1,1.6a2.53,2.53,0,0,1-1.8,1.28,5,5,0,0,1-1.22.15,5.09,5.09,0,0,0-1.35,0,.59.59,0,0,0-.26,1,2.3,2.3,0,0,0,1.74.54,4.76,4.76,0,0,0,1.74-.37,3.87,3.87,0,0,0,2.47-2.38A2.92,2.92,0,0,0,144.1,124a5.92,5.92,0,0,0-3.75-.87l.4,1.52a19.8,19.8,0,0,1,2.64-1,2.76,2.76,0,0,0,1.59-2.26c0-1.17-1-1.83-1.94-2.18a5.5,5.5,0,0,0-3.31-.07c-1.24.35-.71,2.32.5,1.93Z" transform="translate(-106.92 -73.15)"/><path class="cls-1" d="M146.3,131.19c.08.41.14.84.24,1.24.06.2.12.4.17.6a4,4,0,0,0,.33.73.76.76,0,0,0,.84.35.94.94,0,0,0,.35-.2.78.78,0,0,0,.21-.53,2.6,2.6,0,0,0,.05-.62c0-.2,0-.41,0-.62,0-.48-.14-1-.22-1.45a1,1,0,0,0-.47-.61,1,1,0,0,0-.74-.1,1,1,0,0,0-.62.47,1.12,1.12,0,0,0-.1.74Z" transform="translate(-106.92 -73.15)"/><path class="cls-1" d="M177.22,127.82a21.21,21.21,0,0,0-.27,3.65,16.56,16.56,0,0,0,.1,1.73,2.35,2.35,0,0,0,.81,1.93.74.74,0,0,0,1-.27,2.45,2.45,0,0,0,.19-1.71c-.05-.55-.08-1.11-.09-1.67a19.39,19.39,0,0,1,.2-3.15,1,1,0,0,0-.7-1.22,1,1,0,0,0-1.22.71Z" transform="translate(-106.92 -73.15)"/><path class="cls-1" d="M179.21,127.32a3.44,3.44,0,0,1,1.56.15,3,3,0,0,1,.75.35l.28.19c.11.08.26.35.12,0,0-.12.05-.12,0-.13a3.58,3.58,0,0,0-.32.18c-.29.14-.59.25-.88.38a17.86,17.86,0,0,1-2,.83.91.91,0,0,0,0,1.75,6,6,0,0,0,1.46.16,8.28,8.28,0,0,1,1.22,0c.62.09,1.18.42.87,1.1a3.42,3.42,0,0,1-1.58,1.52c-.72.38-1.58.33-2.25.79a.61.61,0,0,0,0,1c.94.66,2.32.06,3.18-.49a4.79,4.79,0,0,0,2.1-2.57,2.34,2.34,0,0,0-1.15-2.68c-1.06-.62-2.23-.4-3.38-.62l.22,1.65c.89-.5,1.85-.83,2.78-1.26s1.64-1,1.35-2-1.29-1.41-2.08-1.72a5.45,5.45,0,0,0-2.71-.28.88.88,0,0,0-.62,1.06.89.89,0,0,0,1.06.63Z" transform="translate(-106.92 -73.15)"/><path class="cls-1" d="M183.34,137a2.8,2.8,0,0,1,1.85-.07l-.36-.85a12.29,12.29,0,0,1-2.06,3.08.76.76,0,0,0,.34,1.26c.85.19,1.71.33,2.57.46a6.63,6.63,0,0,0,2.8.14.7.7,0,0,0,.17-1.28,6.72,6.72,0,0,0-2.74-.6c-.86-.09-1.73-.17-2.6-.21l.66,1.13a18.36,18.36,0,0,0,1.92-3.54.58.58,0,0,0-.41-.71,4.22,4.22,0,0,0-2.41.15.55.55,0,0,0-.38.65.54.54,0,0,0,.65.39Z" transform="translate(-106.92 -73.15)"/><path class="cls-1" d="M211,127.74a14.34,14.34,0,0,1,.22,3.09c0,.51-.06,1-.11,1.55a5.45,5.45,0,0,0,0,1.71.72.72,0,0,0,1.2.32,3.13,3.13,0,0,0,.51-.91,6.13,6.13,0,0,0,.21-.87,13.43,13.43,0,0,0,.2-1.79,15.49,15.49,0,0,0-.27-3.6,1,1,0,0,0-1.21-.71,1,1,0,0,0-.72,1.21Z" transform="translate(-106.92 -73.15)"/><path class="cls-1" d="M212.83,127.31a4.14,4.14,0,0,1,3.79.85c.08.08.26.18.3.29,0,0,0-.08,0,0a2.83,2.83,0,0,1-.24.25,4.55,4.55,0,0,1-.88.63,5.13,5.13,0,0,1-2.22.71.69.69,0,0,0-.18,1.35,8.39,8.39,0,0,0,2.24.1,1,1,0,0,1,.75.26.71.71,0,0,1,0,.83,2.45,2.45,0,0,1-1.88,1.07,9.71,9.71,0,0,1-2.4-.27.45.45,0,0,0-.39.67,3,3,0,0,0,3.14.86,3.56,3.56,0,0,0,2.5-1.89,1.86,1.86,0,0,0-.79-2.54c-.88-.4-1.87-.15-2.77-.42v1.33a8.3,8.3,0,0,0,2.92-1.15c.87-.58,2.1-1.49,1.27-2.63a5.21,5.21,0,0,0-5.44-1.63.7.7,0,0,0,.35,1.35Z" transform="translate(-106.92 -73.15)"/><path class="cls-1" d="M218.59,136.57a3.91,3.91,0,0,1,.82-.26h.27l.11,0,.1.06c-.06,0,0,0,.05,0l0,.05c.06.08,0,0,0,.08,0-.08,0,0,0,0s0,0,0,0l0,0s0-.06,0,0l-.08.08c.1-.1,0,0,0,0s-.13.06,0,0-.05,0-.07,0l-.24.07-.51.13c-.44.12-1,.3-1.12.82a.59.59,0,0,0,.86.66l.05,0-.29.08a2.4,2.4,0,0,1,1.1.12,1.34,1.34,0,0,1,.36.22.3.3,0,0,1,.12.28c0,.36-.42.55-.7.61a3.22,3.22,0,0,1-.82,0,1.68,1.68,0,0,0-1,.06.42.42,0,0,0-.15.56,1.68,1.68,0,0,0,1.2.51,2.39,2.39,0,0,0,1.24-.16,1.82,1.82,0,0,0,1.13-1.52,1.65,1.65,0,0,0-.81-1.44,2.69,2.69,0,0,0-.81-.32l-.49-.07h-.17s-.24,0-.13,0l.14,1.08a.87.87,0,0,0,.25-.21c.13-.15-.06.07.08-.08s-.1,0,0,0l.12-.07c.05,0,.13,0,0,0l.17-.05.33-.07a1.79,1.79,0,0,0,1.22-.77,1.41,1.41,0,0,0-.57-1.82,2.62,2.62,0,0,0-2.19-.05.7.7,0,0,0-.48.82.68.68,0,0,0,.82.49Z" transform="translate(-106.92 -73.15)"/><path class="cls-1" d="M177.18,157.38l-.12,3.21-.06,1.58c0,.26,0,.53,0,.79a2.69,2.69,0,0,0,0,.49,1.13,1.13,0,0,0,.26.45c.23.16.27.19.13.1a.79.79,0,0,0,1.1,0c-.13.1-.09.06.14-.11a.72.72,0,0,0,.2-.32,1.72,1.72,0,0,0,.1-.6c0-.24,0-.49,0-.73l.05-1.64.09-3.21a1,1,0,1,0-1.93,0Z" transform="translate(-106.92 -73.15)"/><path class="cls-1" d="M178.5,157.81a4.91,4.91,0,0,1,1.56-.35c.28,0,.61.06.88,0s.08.08,0,0-.11-.15-.07-.15a2,2,0,0,1-.24.39,4,4,0,0,1-.54.46,5.75,5.75,0,0,1-1.33.73.81.81,0,0,0,0,1.56c.58.16,1.16.36,1.72.57a5.39,5.39,0,0,1,.75.31c.06,0,.16.14.22.15s.08-.06,0-.08a5.52,5.52,0,0,0-.7.44l-.84.48a5.27,5.27,0,0,0-1.55,1.18.56.56,0,0,0,.54.93,5.26,5.26,0,0,0,2.2-1.16c.59-.44,1.51-.92,1.58-1.74s-.65-1.33-1.27-1.68a11.63,11.63,0,0,0-2.27-1v1.56a5.76,5.76,0,0,0,2.26-1.24,2.45,2.45,0,0,0,1-2.16c-.18-1-1.16-1.15-2-1.16a7,7,0,0,0-2.74.57.8.8,0,0,0-.29,1.08.81.81,0,0,0,1.08.28Z" transform="translate(-106.92 -73.15)"/><path class="cls-1" d="M184,165.19a5.48,5.48,0,0,1,.58.6s.15.18.06.06a1.27,1.27,0,0,1,.13.19,2.23,2.23,0,0,1,.2.33.6.6,0,0,1,.08.16c0-.18,0,0,0,.07s.11.27.08.34c0-.11,0-.12,0,0v.25c0,.19,0,0,0,0a.87.87,0,0,0,0,.19l0,.09q.07-.17,0-.09l-.08.15a.41.41,0,0,0-.05.09l.06-.08-.11.11c-.1.1.22-.14,0,0l-.11.06c.16-.06.2-.08.11,0l-.07,0-.12,0c-.21,0,.18,0,0,0h-.27c-.15,0,.2,0,.07,0s-.24-.09,0,0c-.09,0-.18-.08-.27-.1a.85.85,0,0,0-.42,0h0a.62.62,0,0,0-.6.47,1,1,0,0,0,.35,1.06,1.73,1.73,0,0,0,.9.35,1.94,1.94,0,0,0,1.52-.54,2.48,2.48,0,0,0,0-3.2,7,7,0,0,0-1.35-1.32.58.58,0,1,0-.81.82Z" transform="translate(-106.92 -73.15)"/><path class="cls-1" d="M185.63,165.44h2.24c.53,0,1.16-.38,1.17-1s-.63-.95-1.16-1c-.24,0-.49,0-.73,0h-1.51a1,1,0,0,0-1,1,1,1,0,0,0,1,1Z" transform="translate(-106.92 -73.15)"/><path class="cls-1" d="M212.27,155.68a39.61,39.61,0,0,0-.24,4.21c0,.68,0,1.36.05,2s0,1.74.57,2.28a.81.81,0,0,0,1.25-.17c.39-.57.2-1.45.17-2.1s0-1.41,0-2.11a40.7,40.7,0,0,1,.24-4.14,1,1,0,0,0-1-1,1,1,0,0,0-1,1Z" transform="translate(-106.92 -73.15)"/><path class="cls-1" d="M213.87,156.33a3.52,3.52,0,0,1,2-.74,1,1,0,0,1,.65.28.73.73,0,0,1,.17.52c0,1.27-1.65,1.75-2.7,2a.79.79,0,0,0-.58.86.78.78,0,0,0,.78.7,4.52,4.52,0,0,1,2,.19,2.38,2.38,0,0,1,.72.34c.21.2-.12.42-.29.56a3.48,3.48,0,0,1-1.42.69,12,12,0,0,0-1.8.36.53.53,0,0,0-.11.84,2.58,2.58,0,0,0,2.62.15,4.09,4.09,0,0,0,2.11-1.75,1.49,1.49,0,0,0,.06-1.46,2.94,2.94,0,0,0-1.1-1,4.63,4.63,0,0,0-3-.51l.4,1.53a7,7,0,0,0,2.89-1.25,3.05,3.05,0,0,0,1.06-2.71,2.32,2.32,0,0,0-2.12-1.93,4.69,4.69,0,0,0-3.1,1,.73.73,0,0,0,.73,1.26Z" transform="translate(-106.92 -73.15)"/><path class="cls-1" d="M218.2,162.55c-.52,1.58-.82,3.57.24,5a3,3,0,0,0,4,1,.72.72,0,0,0,.32-.78,2.58,2.58,0,0,0-2.35-1.76,2.49,2.49,0,0,0-1.5.6c-.42.36-1,1.18-.57,1.71a.75.75,0,0,0,.8.34,1,1,0,0,0,.59-.55l.14-.22c-.08.12,0,0,.06-.06a1.14,1.14,0,0,1,.16-.15c-.12.1.05,0,.07,0s.21-.1.08,0l.25-.07h.09s.26,0,.15,0l.21.06c-.1,0,.09,0,.1.05a.65.65,0,0,1,.27.21c-.06-.08.05.08.06.1s0,.15,0,.18l.33-.78c-.18.08.11,0-.08,0l-.19.05c-.15,0,.09,0-.07,0h-.16c-.07,0-.14,0,0,0l-.19,0-.2-.05s-.23-.09-.06,0l-.34-.17-.14-.1c-.06,0-.17-.13-.06,0-.1-.1-.21-.19-.3-.29l-.07-.08-.08-.11a2.69,2.69,0,0,1-.36-1.6,3.82,3.82,0,0,1,.12-.89,10.8,10.8,0,0,1,.29-1.08.84.84,0,0,0-.59-1,.86.86,0,0,0-1,.6Z" transform="translate(-106.92 -73.15)"/><path class="cls-1" d="M137.26,152l-.14,4.14c0,.67,0,1.35-.05,2a4.15,4.15,0,0,0,.33,2.12.66.66,0,0,0,1.12,0,4.06,4.06,0,0,0,.43-2c0-.7.05-1.4.07-2.1l.1-4.14a.93.93,0,0,0-1.86,0Z" transform="translate(-106.92 -73.15)"/><path class="cls-1" d="M138,153c.83-.06,1.59-.38,2.4-.47a1.26,1.26,0,0,1,.77.09c.17.07.43.26.45.4,0,.31-.94.87-1.22,1.06-.67.44-1.4.8-2.08,1.22a.86.86,0,0,0-.39.92.83.83,0,0,0,.8.62,4.15,4.15,0,0,1,1.68.15,4.44,4.44,0,0,1,.72.27c.15.08.62.25.67.43.12.34-.79.79-1,.94s-.51.33-.78.48c0,0-.41.22-.15.16-.1,0-.33-.07-.13,0l.42.32,0,0,.07.49v0a.63.63,0,0,0-.59-.78.73.73,0,0,0-.68,1.05,1,1,0,0,0,1.42.42,9.1,9.1,0,0,0,1.36-1.12,4.77,4.77,0,0,0,1-1.1c.58-1-.11-1.82-.92-2.39a5.33,5.33,0,0,0-3.05-.91l.2,1.62a7.86,7.86,0,0,0,2.88-1.6c.78-.62,1.69-1.44,1.39-2.55a2.54,2.54,0,0,0-2-1.71c-1.12-.18-2.09.41-3.17.51a.79.79,0,0,0-.77.76.76.76,0,0,0,.76.78Z" transform="translate(-106.92 -73.15)"/><path class="cls-1" d="M145.48,160.83c-.12.68-.25,1.36-.33,2,0,.3-.08.6-.08.9a1.84,1.84,0,0,0,.21,1.11.56.56,0,0,0,.75.21,1.82,1.82,0,0,0,.66-1,8.89,8.89,0,0,0,.26-.88c.15-.62.26-1.24.38-1.87a1,1,0,0,0-.1-.72,1,1,0,0,0-1.75.23Z" transform="translate(-106.92 -73.15)"/><path class="cls-1" d="M144.71,161.56l-.3.13.17-.07-.63.24-.36.13-.13,0c-.08,0,.11,0,0,0a1.15,1.15,0,0,0-.33.21l.9.52a5.51,5.51,0,0,0,.06-.7l0-.56a5.23,5.23,0,0,0,0-.56,2.09,2.09,0,0,0,0-.42.89.89,0,0,0-.16-.36.52.52,0,0,0-.89,0,1,1,0,0,0-.15.38c0,.11,0,.21,0,.32a3.25,3.25,0,0,0,0,.54c0,.35.07.7.09,1a.87.87,0,0,0,.14.48.69.69,0,0,0,.54.25,4.07,4.07,0,0,0,.6-.06,5.47,5.47,0,0,0,1-.27.83.83,0,0,0,.43-.33.66.66,0,0,0,0-.61.65.65,0,0,0-.37-.39.75.75,0,0,0-.62,0Z" transform="translate(-106.92 -73.15)"/><path class="cls-1" d="M142.32,76.74a42,42,0,0,0-1,7.82,35.36,35.36,0,0,0,.11,3.85,16.38,16.38,0,0,0,.64,3.94.42.42,0,0,0,.83-.1c0-1.28-.1-2.56-.15-3.83s0-2.49,0-3.73a46.09,46.09,0,0,1,.88-7.59c.18-.88-1.18-1.26-1.37-.36Z" transform="translate(-106.92 -73.15)"/><path class="cls-1" d="M142.3,78.28a5.65,5.65,0,0,1,3.15-.88,2,2,0,0,1,1.13.61,1.41,1.41,0,0,1,.24.33,1.43,1.43,0,0,1,.09.34c0-.11,0,.23,0,.13a1.47,1.47,0,0,1-.64.94,12.24,12.24,0,0,1-1.3.84c-.53.33-1.06.67-1.58,1s-1.47.79-1.47,1.54a.62.62,0,0,0,.32.55c.65.29,1.28-.19,1.84-.53s1-.63,1.53-1a7.82,7.82,0,0,0,2.41-2,2.47,2.47,0,0,0-.09-2.83A3.4,3.4,0,0,0,145.34,76a7.36,7.36,0,0,0-3.68,1.16c-.75.39-.1,1.49.64,1.12Z" transform="translate(-106.92 -73.15)"/><path class="cls-1" d="M153.43,78a2.4,2.4,0,0,0-2.27-.1,2.87,2.87,0,0,0-1.59,1.83,4.15,4.15,0,0,0,.16,2.67,1.49,1.49,0,0,0,1.12,1,1.71,1.71,0,0,0,1.34-.47,6.51,6.51,0,0,0,1-1.23,16.7,16.7,0,0,1,1.09-1.42l-1.1-.46a3.67,3.67,0,0,0,.48,2.22,3.18,3.18,0,0,0,.73.86,2.85,2.85,0,0,0,.53.38,1.52,1.52,0,0,0,.69.16.61.61,0,0,0,.43-1l-.14-.18a.32.32,0,0,0-.12-.11l-.05,0-.28-.25c-.11-.11-.22-.22-.32-.34.07.08,0,0,0-.05L155,81.3a2.71,2.71,0,0,1-.21-.37,2,2,0,0,1-.1-.21c0,.1,0,0,0-.07a2.86,2.86,0,0,1-.16-.77.65.65,0,0,0-1.21-.32,15.4,15.4,0,0,1-.93,1.35,6.86,6.86,0,0,1-.86,1,1.41,1.41,0,0,1-.18.14.52.52,0,0,1-.18.08c-.08,0-.09,0,0,0h0c.07.06-.07-.06,0,0a2.51,2.51,0,0,1-.39-1.09,2.19,2.19,0,0,1,.61-2A1.53,1.53,0,0,1,153,78.8c.51.3.94-.48.45-.8Z" transform="translate(-106.92 -73.15)"/><path class="cls-1" d="M158.26,81.5c-.06-.27-.12-.54-.17-.82,0-.07,0-.14,0-.21v-.06c0-.11,0-.1,0,0a1.22,1.22,0,0,1,0-.38c0-.14,0-.27,0-.41s0,.18,0,0a1.18,1.18,0,0,1,0-.2,1.46,1.46,0,0,1,0-.2l0-.1c0-.07,0,0,0,.09a2.2,2.2,0,0,0,.15-.26c.09-.15-.16.17,0,0l.1-.12.22-.19.11-.1c.12-.11,0,0-.06.05s.16-.12.25-.16l.13-.07-.11,0,.07,0c.06,0,.24,0,.27-.06s-.18,0,0,0h.13a.4.4,0,0,0,.11,0h-.05l.09,0a.59.59,0,0,0,.67-.86,1.71,1.71,0,0,0-1.61-.76,2.48,2.48,0,0,0-1.76.91c-1,1.24-.75,2.84-.46,4.28a1,1,0,0,0,1.21.71,1,1,0,0,0,.71-1.21Z" transform="translate(-106.92 -73.15)"/><path class="cls-1" d="M162.79,74.09A34.47,34.47,0,0,0,163,77.6c.06.61.15,1.22.25,1.83a8.62,8.62,0,0,0,.48,1.72.83.83,0,0,0,.88.59.81.81,0,0,0,.7-.79,15.85,15.85,0,0,0-.18-1.81c-.08-.53-.16-1.06-.23-1.6-.13-1.14-.21-2.29-.23-3.44a1,1,0,0,0-.94-.95,1,1,0,0,0-1,.94Z" transform="translate(-106.92 -73.15)"/><path class="cls-1" d="M162.12,79.22a31.1,31.1,0,0,0,3.45-.48,7.44,7.44,0,0,0,3.21-1.19.55.55,0,0,0-.25-.92,10.32,10.32,0,0,0-3.31.31c-1,.16-2.06.35-3.09.47a.94.94,0,0,0-.92.9.92.92,0,0,0,.91.91Z" transform="translate(-106.92 -73.15)"/><path class="cls-1" d="M170.25,79.38c.07.47.12,1,.2,1.43.05.24.09.48.14.72a3.5,3.5,0,0,0,.32.81.78.78,0,0,0,.87.37,1,1,0,0,0,.36-.21.87.87,0,0,0,.22-.54,2.91,2.91,0,0,0,0-.72c0-.24,0-.48-.07-.72-.06-.54-.15-1.09-.23-1.63a1,1,0,0,0-1.17-.69,1,1,0,0,0-.59.46,1.17,1.17,0,0,0-.1.72Z" transform="translate(-106.92 -73.15)"/><path class="cls-1" d="M171.17,76.06h0l-.16.12h0l-.18.07h0l-.19,0h0l-.18,0h0l-.17-.07,0,0-.15-.11,0,0-.12-.15,0,0-.08-.18a0,0,0,0,1,0,0l0-.19v0l0-.18v0l.08-.17,0,0,.12-.15,0,0,.15-.12,0,0,.19-.08h0l-.19.08-.16.12h0l.15-.12,0,0,.17-.08h0a.75.75,0,0,0-.18.08h0l.16-.06h0l.17,0h0l-.16,0a.48.48,0,0,0-.22.12.32.32,0,0,0-.12.11.57.57,0,0,0-.11.22,1,1,0,0,0,0,.18s0,.08,0,.09,0,.06,0,.09a.49.49,0,0,0,.08.18l.11.15h0l.14.11h0l.1,0,.1,0h0l.19,0a.21.21,0,0,0,.11,0h.1l.19-.08h0a1.67,1.67,0,0,0,.16-.12h0l.12-.15h0a1.19,1.19,0,0,0,.08-.2.77.77,0,0,1,0-.1s0-.07,0-.1h0l0-.19v0h0l-.07-.19h0v0h0l-.12-.16h0v0h0l-.16-.11,0,0-.09,0-.09,0h0l-.11,0h-.13l-.19,0h0l-.18.07h0l-.15.11h0l-.11.15a.81.81,0,0,0-.07.53l.07.18a.55.55,0,0,0,.19.21.42.42,0,0,0,.16.09.58.58,0,0,0,.26.06l.18,0a.61.61,0,0,0,.33-.19Z" transform="translate(-106.92 -73.15)"/><path class="cls-1" d="M175.91,74.89c0,1.31,0,2.61.08,3.91a16.22,16.22,0,0,0,.57,3.93.66.66,0,0,0,1.3-.16,22.26,22.26,0,0,0,0-3.83c-.06-1.28-.09-2.56-.1-3.84a.94.94,0,0,0-1.87,0Z" transform="translate(-106.92 -73.15)"/><path class="cls-1" d="M175.88,79.29c.43-.08.86-.16,1.3-.21s-.18,0,.15,0l.3,0,.66-.08c.86-.09,1.72-.14,2.58-.22a.62.62,0,0,0,.61-.53.61.61,0,0,0-.45-.68,13,13,0,0,0-5.65-.15,1,1,0,0,0-.71,1.21,1,1,0,0,0,1.21.71Z" transform="translate(-106.92 -73.15)"/><path class="cls-1" d="M182.73,80.39l.24,1a8.43,8.43,0,0,0,.43,1.15l.14.17a.63.63,0,0,0,.26.16.78.78,0,0,0,.5,0,.81.81,0,0,0,.6-.77v-.51a4.28,4.28,0,0,0-.07-.72l-.17-1a1,1,0,0,0-.47-.62,1,1,0,0,0-.75-.09,1,1,0,0,0-.61.47,1.05,1.05,0,0,0-.1.74Z" transform="translate(-106.92 -73.15)"/><path class="cls-1" d="M182.89,76.34a1,1,0,0,0,.13.18l.17.14.09,0,.2.08h.05l.17,0,.22,0H184a.62.62,0,0,0,.25-.14l0,0a.24.24,0,0,0,.06-.11l0-.07v0l0-.15s0,0,0,0a.47.47,0,0,0,0-.16,0,0,0,0,0,0,0,.94.94,0,0,0-.06-.15l0,0a1.13,1.13,0,0,0-.1-.13l0,0-.11-.09h0l-.18-.08h-.08a.66.66,0,0,0-.14,0h-.16l-.07,0-.15.06,0,0a.94.94,0,0,0-.12.09l0,0-.08.12s0,0,0,.06a.2.2,0,0,0,0,.11s0,0,0,.06a.43.43,0,0,0,0,.11h0a.35.35,0,0,0,.06.14l.06.08a.23.23,0,0,0,.12.08.17.17,0,0,0,.1,0,.23.23,0,0,0,.14,0h0l.12,0,.11,0h0l-.11,0,.05,0-.12,0h.08l-.13,0,.09,0-.12,0,.18.07-.12,0,.08,0-.1-.08.13.1-.11-.08.06,0-.09-.11,0,0,0-.13a.11.11,0,0,1,0,0v-.2h0l.24-.31h0l.13,0-.12,0,.13,0h-.11l.12,0-.12,0,.11,0a.21.21,0,0,1-.1-.06l.1.08-.08-.08.08.1,0,0a.29.29,0,0,0-.13-.14.42.42,0,0,0-.16-.09.4.4,0,0,0-.19,0,.64.64,0,0,0-.18.06.53.53,0,0,0-.22.29.48.48,0,0,0,0,.37Z" transform="translate(-106.92 -73.15)"/><path class="cls-1" d="M188.66,79.46a2.68,2.68,0,0,0,.48,3.07,3.51,3.51,0,0,0,3.42.89,4.29,4.29,0,0,0,3-2.2,2.07,2.07,0,0,0-.11-2A3.18,3.18,0,0,0,194,78.08c-1.2-.53-2.92-.69-3.89.37-.28.31-.11,1,.37.91l.56,0c.24,0,.44-.09.63-.1a3.37,3.37,0,0,1,1.15.05,2.72,2.72,0,0,1,1,.45,1.27,1.27,0,0,1,.36.38.51.51,0,0,1,0,.27c-.14.62-.92,1.08-1.56,1.3a3.83,3.83,0,0,1-1.24.26,1.7,1.7,0,0,1-.55-.07l-.18,0s-.16-.07-.05,0l-.26-.15,0,0-.1-.08a1.45,1.45,0,0,1-.21-.22s-.08-.11,0,0a.57.57,0,0,1-.08-.13,1.3,1.3,0,0,1-.14-.26,1.66,1.66,0,0,0-.05-.17.43.43,0,0,1,0-.22.74.74,0,0,1,.08-.4c.36-.75-.72-1.39-1.13-.65Z" transform="translate(-106.92 -73.15)"/><path class="cls-1" d="M198.67,82.24a3.26,3.26,0,0,1,0-1.67,2.81,2.81,0,0,1,.33-.75.94.94,0,0,1,.18-.25l.14-.13s.08-.06,0,0l.07,0,.11-.06.11,0c.07,0,0,0,0,0h.09c.07,0,0,0,0,0l.12,0c-.15,0,.07.09,0,0l.07.08c.07.06,0,0,0,0l0,.07.11.19a11.08,11.08,0,0,1,.82,1.61c-.06-.16,0,0,0,.1l.1.27.16.39a.93.93,0,0,1,.05.1c.05.12-.05-.13,0,0s.11.25.16.38a1,1,0,0,1,0,.1s.07.15,0,.06,0,0,0,0a1,1,0,0,0,.21.36l.16.2a.67.67,0,0,0,1.11-.3,1.8,1.8,0,0,0,0-.73c0-.19-.08-.38-.13-.57a7.9,7.9,0,0,0-.46-1.17,8.58,8.58,0,0,0-1.21-1.93,1.64,1.64,0,0,0-2.16-.38A3.26,3.26,0,0,0,197.81,80a5.21,5.21,0,0,0-.07,2.48c.13.61,1.08.36.93-.24Z" transform="translate(-106.92 -73.15)"/><path class="cls-1" d="M207.49,76.34a2.69,2.69,0,0,0-1.26.36c-.45.27-1,.78-.85,1.36a2.93,2.93,0,0,0,1.21,1.48l.32.23.14.1,0,0a3.2,3.2,0,0,1,.27.25l0,.06c.07.07-.06-.07,0-.07s.08.14.11.18,0-.14,0,0,0,.12,0,0a.11.11,0,0,1,0,.08c0,.1.05-.13,0,0a.38.38,0,0,0,0,.1c0-.08,0-.06,0,0s.07,0-.05.06-.17.15,0,.06a3.24,3.24,0,0,1-.47.28l-.32.15-.07,0-.12,0c-.22.09-.46.17-.69.24a5.6,5.6,0,0,0-.66.21,2.82,2.82,0,0,0-.48.19,2.12,2.12,0,0,0-.38.29c-.46.36-.12,1,.33,1.2a2.6,2.6,0,0,0,1.65-.1,9.79,9.79,0,0,0,1.49-.63,2.36,2.36,0,0,0,1.51-2.28,2.63,2.63,0,0,0-1.26-1.69l-.37-.26c.17.12,0,0-.07-.06l-.16-.14-.15-.14s-.17-.24-.05,0a1.74,1.74,0,0,1-.11-.18c0-.08,0-.07,0,0l0-.1-.21.76a2.5,2.5,0,0,1,.23-.23l0,0,.14-.09.14-.07h0l.16,0c.1,0,.11,0,0,0a.82.82,0,0,0,.8-.79.81.81,0,0,0-.79-.8Z" transform="translate(-106.92 -73.15)"/><path class="cls-1" d="M148.21,86.6s0,0,0,0Z" transform="translate(-106.92 -73.15)"/><path class="cls-1" d="M148.87,88.44q23.44-.3,46.82,1.55c4.35.35,8.72.87,13.09,1,.64,0,.81-1,.15-1.13-3.88-.6-7.84-.82-11.75-1.07s-7.75-.45-11.63-.62q-11.76-.53-23.53-.77-6.57-.14-13.14-.13a.59.59,0,0,0,0,1.17Z" transform="translate(-106.92 -73.15)"/></svg>