<svg id="Layer_1" data-name="Layer 1" xmlns="http://www.w3.org/2000/svg" viewBox="0 0 303.11 158.31"><defs><style>.cls-1{fill:#fd46fc;}.cls-2{fill:#486afb;}</style></defs><path class="cls-1" d="M124.16,44.66c0,1.89-.06,3.79-.11,5.68,0,.9,0,1.8-.07,2.7a18.84,18.84,0,0,0-.14,2.37.63.63,0,0,0,.93.54,2.85,2.85,0,0,0,1.13-2.37c.09-.93.06-1.88.08-2.81,0-2,.07-4.07.08-6.1a1,1,0,0,0-1.9,0Z" transform="translate(-14.8 -39.01)"/><path class="cls-1" d="M125,44.65c1.34-1,3.43-2,4.84-.56a2,2,0,0,1,.25,2.34,6.2,6.2,0,0,1-1.83,2,2,2,0,0,1-1,.51s-.07,0-.14,0l-.17-.11a.46.46,0,0,1-.2-.23c0,.09,0,0,0,0a.6.6,0,0,0-1-.41,1.36,1.36,0,0,0,.06,1.87,1.88,1.88,0,0,0,1.93.54,3.9,3.9,0,0,0,1.65-1.07,10.21,10.21,0,0,0,1.3-1.49,3.68,3.68,0,0,0,.48-3.68,3.12,3.12,0,0,0-2.64-1.59,5.9,5.9,0,0,0-3.8,1.45c-.27.21,0,.68.28.48Z" transform="translate(-14.8 -39.01)"/><path class="cls-1" d="M132.86,47.6a5.83,5.83,0,0,0,2.66.55,3.68,3.68,0,0,0,2.46-.9,1.78,1.78,0,0,0,.3-2.24,2.17,2.17,0,0,0-1.79-.85A4,4,0,0,0,133,46.29a3.26,3.26,0,0,0,1,4c1.74,1.25,3.76,0,5.42-.7.57-.25.26-1.14-.3-1.13a7.63,7.63,0,0,0-2.06.37,4.4,4.4,0,0,1-1.69.29h-.07L135,49h0l-.14-.07-.16-.1c-.11-.07.11.12-.05,0a2.27,2.27,0,0,1-.26-.28c.08.12-.06-.09-.06-.1l-.08-.13a1.19,1.19,0,0,1-.11-.26,1.71,1.71,0,0,1-.1-.67,2.39,2.39,0,0,1,1.7-2.08,1.77,1.77,0,0,1,1.28,0,.42.42,0,0,1,.17.72,2.36,2.36,0,0,1-1.65.6,4.71,4.71,0,0,1-2.13-.34.7.7,0,0,0-.84.42.69.69,0,0,0,.3.88Z" transform="translate(-14.8 -39.01)"/><path class="cls-1" d="M142,49.51a6,6,0,0,0-.34-2.4,3.89,3.89,0,0,1-.18-1.85,2.1,2.1,0,0,1,.11-.33,1.23,1.23,0,0,1,.18-.28,1,1,0,0,1,.57-.35,7.53,7.53,0,0,1,1.86-.18.52.52,0,0,0,.14-1,4,4,0,0,0-2.34-.26,2.46,2.46,0,0,0-1.74,1.67,4.4,4.4,0,0,0,0,2.25c.11.44.25.88.37,1.32a7,7,0,0,1,.21,1.28.57.57,0,0,0,.5.57.56.56,0,0,0,.63-.42Z" transform="translate(-14.8 -39.01)"/><path class="cls-1" d="M145.6,49.33a6.23,6.23,0,0,1,0,1.06l1.4.19c-.06-.86-.26-1.7-.3-2.56,0-.69-.17-1.7.42-2.22s1.12.1,1.3.65c.26.75.15,1.61.36,2.38a.73.73,0,0,0,1.4,0,4.67,4.67,0,0,0,.15-1.39,4.5,4.5,0,0,1,0-1.27c.14-.54.61-1.18,1.22-.77s.64,1.46.74,2.16a2.55,2.55,0,0,0,1.26,2.16c.53.25,1.26-.3.88-.88a4.63,4.63,0,0,1-.58-1.18c-.16-.5-.23-1-.39-1.53a2.69,2.69,0,0,0-2-2,2,2,0,0,0-2.07,1.35c-.42.95-.34,2-.67,3l1.32-.17c-.52-.83-.47-1.89-1.08-2.69a1.74,1.74,0,0,0-2.17-.66,2.83,2.83,0,0,0-1.22,2.42,11.67,11.67,0,0,0,0,3.39.71.71,0,0,0,1.37-.35,7.5,7.5,0,0,1,0-1.06.67.67,0,0,0-1.33,0Z" transform="translate(-14.8 -39.01)"/><path class="cls-1" d="M154.06,46.4a7.58,7.58,0,0,0,2.59,4.52c.84.69,2,1.21,3,.45a3.17,3.17,0,0,0,1-2.48,9.15,9.15,0,0,0-.3-3c-.15-.51-.39-1.28-1-1.33-.79-.07-.79.84-.72,1.4s.11.82.14,1.33a10.3,10.3,0,0,1,0,1.47l0,.37s0,.1,0,.15c0-.21,0-.07,0,0s-.08.34-.13.51c.05-.18,0,0,0,.07l-.06.09s.13-.17,0,0,.11-.13,0,0-.2.09.05,0c.07,0,.06,0,0,0,.18,0-.2-.08-.06,0a2.79,2.79,0,0,1-.33-.19l-.11-.08c-.14-.1.16.13-.06,0l-.23-.2c-.18-.16-.35-.33-.51-.5l-.23-.28c-.07-.08,0,0,0,0l-.13-.18a7.12,7.12,0,0,1-.68-1.2s0-.14,0-.06-.05-.14-.05-.13-.07-.2-.1-.3-.13-.49-.18-.74a.89.89,0,0,0-1.08-.64.92.92,0,0,0-.64,1.09Z" transform="translate(-14.8 -39.01)"/><path class="cls-1" d="M162.8,41.78c.08,1.56.23,3.11.42,4.66.1.77.21,1.54.34,2.3s.13,1.83.87,2.18a.71.71,0,0,0,.85-.12c.57-.67.2-1.58,0-2.34s-.28-1.47-.41-2.2c-.24-1.49-.43-3-.56-4.48a.78.78,0,0,0-1.55,0Z" transform="translate(-14.8 -39.01)"/><path class="cls-1" d="M162.61,46.31a18.82,18.82,0,0,0,2.8-.19,6.21,6.21,0,0,0,2.59-.79c.39-.26.4-1-.15-1.1a11,11,0,0,0-2.63,0c-.86.06-1.73.12-2.6.13a1,1,0,1,0,0,1.92Z" transform="translate(-14.8 -39.01)"/><path class="cls-1" d="M173.88,46.08a6.7,6.7,0,0,0-1.82-.79,3.25,3.25,0,0,0-1.72-.1c-1.19.37-1.46,2.17-1.4,3.21a2.75,2.75,0,0,0,.63,1.84,1.61,1.61,0,0,0,1.92.18,7.32,7.32,0,0,0,2.44-2.71l-1.32-.18a4.14,4.14,0,0,0,1.63,2.53,4.76,4.76,0,0,0,1.37.73,2.61,2.61,0,0,0,1.61,0,.74.74,0,0,0,0-1.42c-.24,0-.46-.13-.7-.17l-.38-.08a3,3,0,0,1-1-.44A3.11,3.11,0,0,1,174,47.17a.72.72,0,0,0-1.39,0,3.33,3.33,0,0,1-1.42,1.7,1.49,1.49,0,0,1-.48.26s-.08,0,0,0-.18-.31-.21-.41a5.65,5.65,0,0,1-.17-.71c-.09-.58-.17-1.9.59-2.06a4.3,4.3,0,0,1,2.71.6.29.29,0,0,0,.29-.5Z" transform="translate(-14.8 -39.01)"/><path class="cls-1" d="M178.71,40.07q.51,2.43.87,4.89c.11.79.21,1.58.29,2.37a7.19,7.19,0,0,0,.49,2.52.75.75,0,0,0,1.37-.18,6.45,6.45,0,0,0,0-2.66c-.1-.81-.21-1.61-.34-2.41-.27-1.67-.6-3.32-1-5-.25-1.08-1.88-.64-1.65.43Z" transform="translate(-14.8 -39.01)"/><path class="cls-1" d="M178.14,45.13c1.14,0,2.28,0,3.43.12l1.64.1c.56,0,1.35.14,1.77-.3a.53.53,0,0,0,.08-.62c-.35-.54-1.13-.58-1.71-.63s-1.14-.09-1.71-.1c-1.17,0-2.33,0-3.49,0a.72.72,0,0,0,0,1.43Z" transform="translate(-14.8 -39.01)"/><path class="cls-1" d="M187.21,46.17c.07.54.11,1.09.2,1.62l.12.72a6.22,6.22,0,0,0,.19.71.61.61,0,0,0,.66.44.63.63,0,0,0,.54-.59,6.13,6.13,0,0,0,.05-.74l0-.71c0-.48-.06-1-.09-1.44a.84.84,0,0,0-.82-.82.81.81,0,0,0-.59.24.84.84,0,0,0-.24.57Z" transform="translate(-14.8 -39.01)"/><path class="cls-1" d="M187.37,41.81a.86.86,0,0,0-.13.14c0,.06-.05.12-.08.17a.44.44,0,0,0,0,.1,1.37,1.37,0,0,0,0,.19,1.2,1.2,0,0,0,0,.2.69.69,0,0,1,0,.13l0,0a.94.94,0,0,0,.09.12v0l0,0a.37.37,0,0,0,.14.07h.24l0,0a.68.68,0,0,0,.26-.15.81.81,0,0,0,.12-.14,1,1,0,0,0,.08-.18.08.08,0,0,1,0,0s0-.1,0-.15a.77.77,0,0,0,0-.15.32.32,0,0,0,0-.09.36.36,0,0,0,0-.09l-.1-.12a.52.52,0,0,0-.11-.1.05.05,0,0,1,0,0l-.18-.06-.15,0-.15,0h-.05l-.15.06-.12.09,0,0a.94.94,0,0,0-.12.22v0a.6.6,0,0,0,0,.12.34.34,0,0,0,.06.2.29.29,0,0,0,.14.15.41.41,0,0,0,.4,0l.15-.11-.09.07.06,0-.1,0,.1,0-.12,0h.08l-.11,0,.06,0-.1,0,.05,0-.1-.06,0,0-.07-.09,0,0,0-.11a.24.24,0,0,1,0,.08v-.15a.24.24,0,0,1,0,.08l0-.1s0,0,0,.06l.07-.09,0,0,.09-.07-.06,0,.11,0h0l.39.11-.06-.06.06.08,0-.09,0,.09,0-.11v.1a.49.49,0,0,1,0-.12l0,.1,0-.1,0,.09,0-.09,0,.08v0a.37.37,0,0,0,.1-.25.42.42,0,0,0-.1-.26.39.39,0,0,0-.25-.1h-.09a.34.34,0,0,0-.16.1Z" transform="translate(-14.8 -39.01)"/><path class="cls-1" d="M193.09,44.42a3.64,3.64,0,0,0-1.78,3.83,3.43,3.43,0,0,0,6.75-.12,3.62,3.62,0,0,0-2-3.79,5.44,5.44,0,0,0-2.77-.34,3,3,0,0,0-2.48,1.32.63.63,0,0,0,.86.85,6.79,6.79,0,0,1,1.53-.68,4.52,4.52,0,0,1,1.64-.07,2,2,0,0,1,1.85,1.93,1.82,1.82,0,0,1-.44,1.22,3.44,3.44,0,0,1-.27.27c-.19.18.06,0-.06,0l-.18.12-.15.08-.13.06-.13.05-.25.07-.16,0c-.24,0,.12,0-.12,0h-.35c-.24,0,.12,0-.12,0l-.17,0-.16,0-.16-.05c.05,0,.05,0,0,0a2.06,2.06,0,0,1-1-1,1.87,1.87,0,0,1-.09-1.51,2.19,2.19,0,0,1,1-1.19c.69-.39.08-1.44-.62-1.07Z" transform="translate(-14.8 -39.01)"/><path class="cls-1" d="M200.94,49.44a10,10,0,0,1-.69-3.32,2.37,2.37,0,0,1,.3-1.55c.24-.28.53-.2.74.06a3.91,3.91,0,0,1,.53,1.11c.21.54.41,1.08.59,1.63s.34,1.1.49,1.65c.07.28.13.57.21.84a6.6,6.6,0,0,0,.38.86.7.7,0,0,0,1.29-.34,8.5,8.5,0,0,0-.07-.87,7.58,7.58,0,0,0-.24-.77c-.18-.53-.37-1.05-.57-1.57a16.64,16.64,0,0,0-1.32-2.84c-.48-.75-1.37-1.41-2.26-.84s-.84,1.68-.76,2.62a12.57,12.57,0,0,0,.79,3.48c.14.36.73.21.59-.15Z" transform="translate(-14.8 -39.01)"/><path class="cls-1" d="M210.16,43.6a11,11,0,0,0-2.91.39,1.83,1.83,0,0,0-1.09.75,1.35,1.35,0,0,0,.06,1.42,5.52,5.52,0,0,0,1,1.06l1.13,1.09.58.54.23.22c.1.1.07,0,0,0s0,0,0,0,0-.06,0-.09,0,0,0,0,0-.07,0,0-.1.1,0,0l0,0-.26.14c-.09,0,0,0,0,0l-.16.06-.38.1a1.91,1.91,0,0,1-.67.06l-.2,0c-.1,0,0,0,0,0l-.15-.08a1.62,1.62,0,0,1-.42-.29.65.65,0,0,0-1.08.29c-.19,1.27,1,2,2.18,1.9a3.32,3.32,0,0,0,2.61-1.36,1.52,1.52,0,0,0,0-1.54,5.64,5.64,0,0,0-1.15-1.19l-1.26-1.14-.57-.51c-.06,0-.14-.16-.19-.19s0-.16-.05.07l0,0s.08-.1,0-.05a1,1,0,0,1,.29-.16,5.64,5.64,0,0,1,.72-.21,8.78,8.78,0,0,1,1.77-.25.59.59,0,0,0,0-1.18Z" transform="translate(-14.8 -39.01)"/><path class="cls-1" d="M133.07,54.69q13.35-.12,26.68-.13t26.55.13c5,.06,10.06.23,15.09.12a.51.51,0,0,0,0-1c-4.44-.21-8.89-.16-13.33-.18l-13.34,0q-13.28,0-26.56.09-7.54.06-15.08.19a.42.42,0,0,0,0,.83Z" transform="translate(-14.8 -39.01)"/><path class="cls-1" d="M23.38,139.43l1.15,6.31c.19,1.06.37,2.11.56,3.17.08.48.16,1,.26,1.45,0,.25.09.49.14.73a2,2,0,0,1,.15.62.76.76,0,0,0,1.4.57c.49-.79.06-2-.11-2.84-.24-1.16-.49-2.33-.73-3.5-.46-2.29-.92-4.59-1.39-6.88-.19-.94-1.59-.56-1.43.37Z" transform="translate(-14.8 -39.01)"/><path class="cls-1" d="M25.84,147.66c1.05-1,3.75-2.48,4.58-.46a3.81,3.81,0,0,1-1.69,4.37,1.62,1.62,0,0,1-1.08.16,1.6,1.6,0,0,1-.8-.4.63.63,0,0,0-.91,0,.68.68,0,0,0-.1.77,2.26,2.26,0,0,0,2.82,1A4.4,4.4,0,0,0,31,150.59a4.66,4.66,0,0,0,.28-3.36,2.61,2.61,0,0,0-.92-1.31,2.31,2.31,0,0,0-1.64-.35,5.87,5.87,0,0,0-3.32,1.67c-.28.27.15.7.43.42Z" transform="translate(-14.8 -39.01)"/><path class="cls-1" d="M34.86,146.11a4.43,4.43,0,0,0-2.38,3.35,2.77,2.77,0,0,0,.67,2,2.88,2.88,0,0,0,2.1.85,3.71,3.71,0,0,0,2.14-.66,2.93,2.93,0,0,0,1.26-2.13,3.57,3.57,0,0,0-1.93-3.8,2.68,2.68,0,0,0-1.95,0,2.37,2.37,0,0,0-1,.63,1.58,1.58,0,0,0-.46,1.08.56.56,0,0,0,1,.4c.13-.15.28-.31.42-.45l.11-.09c.07-.08-.14.08,0,0l.3-.18s.21-.09,0,0l.11,0a2.37,2.37,0,0,1,.34-.08H36c-.09,0-.09,0,0,0l.28.07c-.16,0,.08.06.13.09s-.09-.1,0,0l.16.15,0,0a1.75,1.75,0,0,1,.16.25,2.85,2.85,0,0,1,.31,1.37v.2s0,.26,0,.12a2.36,2.36,0,0,1-.1.38c-.07.21.07-.08,0,.11l-.08.13c-.1.19.1-.09,0,.07l-.15.16a1.07,1.07,0,0,1-.16.14c.13-.1,0,0,0,0l-.36.2c-.14.07,0,0,0,0l-.21.07a3,3,0,0,1-.43.11s-.25,0-.09,0h-.15a2.14,2.14,0,0,1-.44,0s.11,0,0,0l-.21-.06c-.13,0-.06,0,0,0l-.26-.14c-.19-.1,0,.05,0,0l-.12-.11s-.15-.18-.06-.05L34,150.2a1,1,0,0,1-.1-.17s-.09-.2,0-.07a1.86,1.86,0,0,1-.1-.39,2.21,2.21,0,0,1,0-.63,2.56,2.56,0,0,1,.3-.75A4.24,4.24,0,0,1,35.35,147c.52-.34,0-1.17-.49-.84Z" transform="translate(-14.8 -39.01)"/><path class="cls-1" d="M40.9,150.91l2.4-2.49,1.17-1.2c.21-.21.42-.42.62-.64a2,2,0,0,0,.54-.78.51.51,0,0,0-.62-.63,2,2,0,0,0-.73.55c-.21.21-.4.43-.6.65l-1.17,1.28-2.34,2.53c-.45.49.27,1.21.73.73Z" transform="translate(-14.8 -39.01)"/><path class="cls-1" d="M40.19,147.25c.75.95,1.49,1.89,2.26,2.83l1.1,1.35a4.25,4.25,0,0,0,1.39,1.25.52.52,0,0,0,.75-.57,4.11,4.11,0,0,0-1-1.62c-.39-.49-.79-1-1.19-1.43-.78-.93-1.58-1.85-2.37-2.78a.7.7,0,0,0-1,0,.69.69,0,0,0,0,1Z" transform="translate(-14.8 -39.01)"/><path class="cls-1" d="M55.27,146.48a3.61,3.61,0,0,0-1.57,3.67,3.36,3.36,0,0,0,3.13,2.65,3.21,3.21,0,0,0,2-.51,3.3,3.3,0,0,0,1.31-1.78,3.36,3.36,0,0,0-1.27-3.8c-1.24-.83-3.44-.71-4.16.76-.2.4.23.93.65.65a5.07,5.07,0,0,1,.65-.35l.08,0c.09,0-.09,0,0,0l.16-.06.37-.08c.13,0,0,0,0,0h.26l.41,0c.08,0,0,0,0,0h.09l.17,0,.2.06.08,0c.1,0-.1-.05,0,0l.33.18s.13.11,0,0l.15.13.13.13,0,0c-.05-.07,0,0,0,0s.12.22.19.33,0,0,0,0a.36.36,0,0,0,0,.11c0,.06,0,.11,0,.17a.85.85,0,0,1,0,.17s0,.06,0,.09,0-.13,0,0,0,.23,0,.35,0,.12,0,.17c0-.17,0,0,0,.1a3.37,3.37,0,0,1-.1.34.49.49,0,0,1,0,.11s.06-.12,0,0l-.09.18a1.19,1.19,0,0,1-.09.15s-.14.2-.07.11,0,.05-.06.08l-.15.14-.09.09c.08-.08,0,0-.08,0s-.24.19-.34.18c.09,0,.13,0,0,0l-.08,0-.17,0-.18,0h-.08c.18,0,0,0,0,0h-.56s-.12,0,0,0h0l-.35-.09c-.07,0-.2-.08-.06,0L56,151a2.14,2.14,0,0,1-.32-.2c-.07,0-.13-.11,0,0l-.16-.13-.14-.15c-.05-.06-.09-.14,0,0l-.21-.36v0c0,.08,0,0,0-.05l-.06-.2a2,2,0,0,1,0-.24s0-.1,0,0,0,0,0-.06a3.38,3.38,0,0,1,0-.45s0-.06,0-.09,0,.09,0,0,0-.14,0-.21a1.88,1.88,0,0,1,.32-.74l0-.07s.07-.1,0-.06,0,0,0,0l.08-.09.17-.16.07-.06c.08-.07-.11.07,0,0a.57.57,0,0,0,.2-.76.56.56,0,0,0-.76-.21Z" transform="translate(-14.8 -39.01)"/><path class="cls-1" d="M66.41,142.81a2.23,2.23,0,0,0-2.44.3,4,4,0,0,0-1.3,2.42,11.65,11.65,0,0,0-.15,3.28,13.69,13.69,0,0,0,.28,1.68,4.48,4.48,0,0,0,.49,1.54.44.44,0,0,0,.68.09c.69-.57.43-1.74.29-2.49a13.22,13.22,0,0,1-.3-2.74,5.93,5.93,0,0,1,.36-2.33c.26-.55.91-1.13,1.57-.84s1.13-.6.52-.91Z" transform="translate(-14.8 -39.01)"/><path class="cls-1" d="M61.81,147.4l3.33-.25,1.61-.13a3,3,0,0,0,1.8-.57.63.63,0,0,0-.14-1,2.84,2.84,0,0,0-1.66-.24l-1.66.15-3.27.29a.89.89,0,0,0-.87.86.87.87,0,0,0,.86.87Z" transform="translate(-14.8 -39.01)"/><path class="cls-1" d="M75.33,150.9c0,.26.11.52.15.79l1.07-.28a3.63,3.63,0,0,1-.06-1.64,5.6,5.6,0,0,1,.49-1.48,2.48,2.48,0,0,1,2.12-1.53,2.17,2.17,0,0,1,1.78,1.38,9.26,9.26,0,0,1,.34,3,.65.65,0,0,0,1.28.17,4.5,4.5,0,0,0-2-5.44,3,3,0,0,0-2.77,0,4.44,4.44,0,0,0-1.85,2.34c-.45,1.08-.94,2.46-.38,3.58.27.55,1.24.17,1-.41-.1-.25-.18-.51-.26-.76a.5.5,0,0,0-1,.25Z" transform="translate(-14.8 -39.01)"/><path class="cls-1" d="M35.92,161.55a4.51,4.51,0,0,0-2.22,2.74,3.13,3.13,0,0,0,1.93,3.19,3.43,3.43,0,0,0,3.77-.55,3,3,0,0,0,.6-3.51,4.23,4.23,0,0,0-1.73-1.57,7.11,7.11,0,0,0-1.19-.54,1.68,1.68,0,0,0-1.37-.05.61.61,0,0,0-.22.81,1.52,1.52,0,0,0,.76.58q.41.18.78.39a6.52,6.52,0,0,1,.72.43l.13.09c.21.14-.06-.06,0,0a3.11,3.11,0,0,1,.33.29l.11.12c.15.17,0-.08,0,0l.16.29c-.09-.16,0-.09,0,0a1.05,1.05,0,0,1,.05.19l0,.12c0-.2,0,0,0,0a1.83,1.83,0,0,1,0,.33c0-.18,0,0,0,.11s0,.1,0,.16-.09.18,0,0a2.1,2.1,0,0,1-.15.3l-.11.16s.11-.13,0,0l-.21.21s-.16.11,0,0l-.11.07a.51.51,0,0,1-.16.09l-.09,0h0c-.11,0-.21.07-.32.09l-.11,0h-.45s-.19,0-.06,0l-.22,0a2.39,2.39,0,0,1-1-.53,1.7,1.7,0,0,1-.65-1.08c-.15-1,.86-1.82,1.57-2.38.38-.3-.12-.94-.51-.67Z" transform="translate(-14.8 -39.01)"/><path class="cls-1" d="M39.89,158.55a43,43,0,0,1,.69,4.93c.07.87.09,1.74.12,2.61,0,.67.1,2,1.11,1.81s.8-1.47.77-2.15q0-1.31-.18-2.61a47.55,47.55,0,0,0-.78-5c-.24-1.13-2-.67-1.73.45Z" transform="translate(-14.8 -39.01)"/><path class="cls-1" d="M41.17,164.13a5.73,5.73,0,0,1,2-1.12,4.19,4.19,0,0,1,2.1-.23c.6.12,1,.46.64,1.08a5.22,5.22,0,0,1-1.69,1.51,8.93,8.93,0,0,1-2.4,1l.85.35c-.13-.18-.24-.37-.38-.53a.56.56,0,0,0-.67-.09,1,1,0,0,0-.26,1.37.77.77,0,0,0,.84.36,7,7,0,0,0,2.7-1.25A6.18,6.18,0,0,0,47,164.28a1.74,1.74,0,0,0-.83-2.4,4.32,4.32,0,0,0-2.73-.11,7,7,0,0,0-3,1.56.57.57,0,1,0,.81.8Z" transform="translate(-14.8 -39.01)"/><path class="cls-1" d="M47.79,164.44a12.88,12.88,0,0,1,.75,5.56,1.26,1.26,0,0,1-.42.83,1.31,1.31,0,0,1-.6.22c-.59,0-1-.44-1.29-1a.6.6,0,0,0-1.09.15,2.35,2.35,0,0,0,1.66,2.53,2.71,2.71,0,0,0,3.08-1.21,5.89,5.89,0,0,0,.4-3.71,22.83,22.83,0,0,0-.91-3.82.82.82,0,0,0-1.58.42Z" transform="translate(-14.8 -39.01)"/><path class="cls-1" d="M48,160.05H48l-.12,0h0l-.24-.07.08,0-.19-.19a.56.56,0,0,0,.34.26.44.44,0,0,0,.16,0h.13l.12,0,.17-.07a.52.52,0,0,0,.18-.18.44.44,0,0,0,.07-.24.45.45,0,0,0-.07-.25.39.39,0,0,0-.18-.18.57.57,0,0,0-.22-.11h-.06l-.16,0a.52.52,0,0,0-.4.17l.24-.14-.09,0h.25l-.11,0a.57.57,0,0,0-.26,0,.5.5,0,0,0-.38.49.32.32,0,0,0,0,.19.32.32,0,0,0,.11.17.38.38,0,0,0,.22.13.57.57,0,0,0,.26,0Z" transform="translate(-14.8 -39.01)"/><path class="cls-1" d="M51.64,165.5a3.31,3.31,0,0,0,3.86-.34,1.57,1.57,0,0,0,.37-1.84,2.12,2.12,0,0,0-1.52-.91,3.47,3.47,0,0,0-2.09.14A2.31,2.31,0,0,0,51,163.9c-.43,1.27.55,2.56,1.55,3.24a4.89,4.89,0,0,0,3.73.6.59.59,0,0,0,.43-.64.61.61,0,0,0-.58-.51c.11,0-.09,0-.09,0l-.11,0-.42-.07h-.13c.13,0,0,0,0,0L55,166.4a5.62,5.62,0,0,1-.55-.15l-.3-.09L54,166.1c-.06,0,0,0,0,0l-.09,0c-.17-.08-.35-.16-.52-.26l-.25-.15-.1-.07c-.15-.1.09.09,0,0a5.55,5.55,0,0,1-.42-.42c.11.13,0,0-.06-.08a2.21,2.21,0,0,1-.18-.34c-.07-.14,0-.06,0,0a1.21,1.21,0,0,1,0-.18s0-.19,0-.07v-.13c0-.17,0,.08,0-.08a.56.56,0,0,1,0-.12c0-.12,0,0,0,0a1.28,1.28,0,0,1,.11-.2,1.22,1.22,0,0,1,.29-.31,1.53,1.53,0,0,1,.63-.26,2,2,0,0,1,1.27.21.57.57,0,0,1,.17.12l.08.1a.36.36,0,0,1-.09.37,1.3,1.3,0,0,1-.5.38c-.11,0,.13,0-.07,0l-.22.07-.36.07a2.79,2.79,0,0,1-1.48-.2.61.61,0,0,0-.8.22.6.6,0,0,0,.22.8Z" transform="translate(-14.8 -39.01)"/><path class="cls-1" d="M61.82,162.68a5.07,5.07,0,0,0-2.65.07,2.42,2.42,0,0,0-1.6,2,2.92,2.92,0,0,0,1.09,2.34,3.72,3.72,0,0,0,2.24.91,2.38,2.38,0,0,0,2.26-1.2.55.55,0,0,0-.74-.74s-.09,0,0,0l-.06,0-.15,0-.38.1c-.06,0-.24.08,0,0H61c-.14,0-.28-.05-.41-.09l-.21-.05a.35.35,0,0,0-.17-.06s.15.06.07,0l-.11-.05-.19-.1-.17-.11-.08-.05s.12.1,0,0-.23-.21-.34-.33l0,0c.06.08,0,0,0,0a1.74,1.74,0,0,1-.11-.18l-.06-.11s-.05-.12,0,0,0,0,0,0l0-.12s0-.09,0-.13,0,.12,0,0v-.2c0-.1,0,.09,0,0a.32.32,0,0,0,0-.09l0-.09c0-.09-.06.08,0,0s.07-.12.11-.18c-.06.1,0,0,0,0l.16-.15c.06-.05,0,0,0,0l.11-.07a1.55,1.55,0,0,1,.22-.12.2.2,0,0,1,.08,0c.1-.05-.13,0,0,0a3.39,3.39,0,0,1,.55-.13,6.23,6.23,0,0,1,1.22,0c.61.05.76-1,.14-1.08Z" transform="translate(-14.8 -39.01)"/><path class="cls-1" d="M64.44,159.05c.36,1.19.69,2.4,1,3.61.13.6.24,1.2.34,1.8a6.61,6.61,0,0,0,.38,1.89.69.69,0,0,0,1.26-.16,5.67,5.67,0,0,0-.11-2.05c-.08-.61-.17-1.22-.28-1.82a31.57,31.57,0,0,0-.88-3.7.88.88,0,0,0-1-.61.86.86,0,0,0-.61,1Z" transform="translate(-14.8 -39.01)"/><path class="cls-1" d="M63.35,162.62l3.19-.39,1.54-.19a3.07,3.07,0,0,0,1.75-.44.64.64,0,0,0-.13-1,3.15,3.15,0,0,0-1.8,0l-1.54.2-3.19.42a.69.69,0,0,0-.51.77.68.68,0,0,0,.69.61Z" transform="translate(-14.8 -39.01)"/><path class="cls-1" d="M73.88,160.78a4.11,4.11,0,0,0-1.75.43,1.85,1.85,0,0,0-.8.63,1.21,1.21,0,0,0,0,1,3.59,3.59,0,0,0,1,1.35,13.3,13.3,0,0,1,1,.94,1,1,0,0,1,.19.4c0,.1,0,.11,0,0a.91.91,0,0,1,0,.17c0-.15-.11.19,0,.05l0,0c-.08.07-.09.08,0,0-.1.07-.21.12-.31.18l-.24.11a2.29,2.29,0,0,1-.37.12,1.57,1.57,0,0,1-.63.1h-.2c.1,0,.09,0,0,0a3,3,0,0,1-.32-.09l-.16-.05c.09,0,.08,0,0,0s-.29-.19-.16-.09c-.09-.07-.15-.15-.23-.22a1.56,1.56,0,0,0-.34-.23.68.68,0,0,0-1,.41,1.24,1.24,0,0,0,.15.92,2.28,2.28,0,0,0,.63.68,2.59,2.59,0,0,0,1.42.49,4.5,4.5,0,0,0,3-1.14,2.26,2.26,0,0,0-.24-3,11.5,11.5,0,0,0-1-.93l-.25-.25,0,0a1.3,1.3,0,0,1-.1-.15,1.09,1.09,0,0,1-.08-.15c0,.06,0,0,0,0s0-.12,0,0v-.18l-.43.74a2.56,2.56,0,0,1,1.37-.42.92.92,0,0,0,.9-.9.9.9,0,0,0-.89-.9Z" transform="translate(-14.8 -39.01)"/><path class="cls-2" d="M135.46,146a34.68,34.68,0,0,0-2.38,8.76c-.27,2.7-.06,5.82,1.51,8.13.34.5,1.29.21,1.06-.44a18.89,18.89,0,0,1-1.28-7.8,30.15,30.15,0,0,1,2.06-8.39c.22-.61-.75-.86-1-.26Z" transform="translate(-14.8 -39.01)"/><path class="cls-1" d="M139,153.79a3.14,3.14,0,0,0,1.58,4.63,2.19,2.19,0,0,0,1.45-.12,1.54,1.54,0,0,0,.85-1.29,2.55,2.55,0,0,0-.58-1.62,6.36,6.36,0,0,0-1.09-1.17,2.93,2.93,0,0,0-1.58-.76c-.53-.05-1.33.36-1.12,1a.38.38,0,0,0,.55.23h0l.06,0s.11,0,0,0l.06,0c.11,0,0,0,0,0h.09c.11,0,0,0,0,0a1.2,1.2,0,0,1,.24.06.42.42,0,0,1,.12,0s-.09,0,0,0l.22.12.24.14.12.08s.18.14.07.05a5.57,5.57,0,0,1,.88.87c-.08-.1,0,0,0,0l.1.13.15.24a2.15,2.15,0,0,1,.14.26c-.06-.13,0,0,0,.06s0,.12,0,.19v0c0-.08,0-.07,0,0v0h0l0,.11c0-.14,0,0,0,0s.11-.1,0,0l-.05.06c-.09.09.14-.08,0,0a.31.31,0,0,0-.1.05c.06-.07.13,0,0,0l-.09,0h-.29l-.13,0-.2-.06c-.14-.05.13.07,0,0l-.11-.06-.07,0,0,0q-.09-.06,0,0c-.07,0-.16-.14-.21-.18l-.15-.16c-.1-.12.09.13,0,0l0-.07a1.71,1.71,0,0,1-.13-.23.59.59,0,0,1,0-.08.59.59,0,0,0,0-.08c0,.09.05.1,0,0a4.42,4.42,0,0,1-.14-.52c0-.15,0,.11,0,0a1,1,0,0,0,0-.16,2.44,2.44,0,0,1,0-.27.57.57,0,0,1,0-.13c0,.08,0,.1,0,0a.13.13,0,0,0,0-.06,2,2,0,0,1,.07-.26c0-.05,0-.09,0-.13s-.05.1,0,0a2.49,2.49,0,0,1,.15-.28.64.64,0,0,0-.24-.87.65.65,0,0,0-.87.24Z" transform="translate(-14.8 -39.01)"/><path class="cls-1" d="M143.13,150.28c.2,1.27.41,2.53.64,3.8.11.62.23,1.24.35,1.86a5.76,5.76,0,0,0,.52,1.92.7.7,0,0,0,1.27-.16,2.69,2.69,0,0,0,0-1,1.82,1.82,0,0,1-.06-1,.86.86,0,0,1,1.36-.33c.84.73-.13,2.33-1.12,1.66-.27-.19-.57.12-.52.4.18,1,1.6,1,2.3.56a2.2,2.2,0,0,0,.6-2.94,2.06,2.06,0,0,0-2.7-.69,1.93,1.93,0,0,0-.9,1.19,2.83,2.83,0,0,0,0,.77c0,.12,0,.23,0,.35v.18c-.05.13,0,.14,0,0l1.05.61a6.53,6.53,0,0,0-.32-1.9c-.15-.64-.29-1.27-.43-1.91-.27-1.26-.53-2.51-.77-3.77a.67.67,0,1,0-1.29.34Z" transform="translate(-14.8 -39.01)"/><path class="cls-1" d="M150.37,155.89a9.92,9.92,0,0,1,.78,4.89,1.73,1.73,0,0,1-.27.77c.06-.08,0,0-.06.07s0,0,0,0l-.07,0c-.09.05-.08.07-.21.07-.63,0-1-.87-1.28-1.31s-.91-.29-.88.23a2.86,2.86,0,0,0,1.66,2.57,1.9,1.9,0,0,0,2.48-1.34,6.66,6.66,0,0,0,.08-3.17,14.83,14.83,0,0,0-1-3.32c-.29-.68-1.48-.2-1.22.5Z" transform="translate(-14.8 -39.01)"/><path class="cls-1" d="M149.76,153.1l.17.1.08.05h0l.15.06.21,0a.63.63,0,0,0,.33-.09A.69.69,0,0,0,151,153a1,1,0,0,1,.07-.15l0-.17a.48.48,0,0,0-.06-.24.28.28,0,0,0-.08-.15.44.44,0,0,0-.19-.17,1.21,1.21,0,0,0-.52-.16.39.39,0,0,0-.24,0,.36.36,0,0,0-.22.07l-.13.1a.5.5,0,0,0-.13.19.42.42,0,0,0,0,.15.59.59,0,0,0,0,.23l.06.15a.63.63,0,0,0,.23.23Z" transform="translate(-14.8 -39.01)"/><path class="cls-1" d="M154.72,157.27a2.85,2.85,0,0,0,1.56.33,1.65,1.65,0,0,0,1.23-.77,1.42,1.42,0,0,0,.14-1.25,1.28,1.28,0,0,0-.92-.75,1.72,1.72,0,0,0-1.21.23,2,2,0,0,0-.79,1.06,2.4,2.4,0,0,0,.69,2.48,2.5,2.5,0,0,0,1.6.62,2.6,2.6,0,0,0,.79-.11,2.34,2.34,0,0,0,.46-.19,1.63,1.63,0,0,0,.34-.3.57.57,0,0,0,.09-.69.6.6,0,0,0-.63-.26c.15,0-.07,0-.11,0s-.24,0-.36.06l-.09,0h0l-.23,0H157c-.16,0,.13,0,0,0l-.12,0-.45-.12c-.15-.05.14.08,0,0l-.08,0a1,1,0,0,1-.2-.13s.12.1,0,0a.6.6,0,0,0-.08-.08l-.06-.06-.05-.06,0,.06-.1-.17-.06-.11c0-.09,0,0,0,0s-.06-.19-.07-.21,0-.05,0-.08l0-.09c0,.1,0,0,0,0v-.09a1.48,1.48,0,0,1,0-.21c0,.15,0-.07,0-.1a.24.24,0,0,1,0-.08c0-.1,0,.07,0,0l.1-.16c-.06.1,0,0,0,0l.06-.06s.1-.08,0,0,0,0,0,0l.08,0s0,0,0,0l.06,0,.17,0c.11,0-.08,0,0,0h.07c.12,0,0,0,0,0l.09,0c.08,0,0,0,0,0l.07,0s0,0,0,0l.07.07c-.06-.07,0,0,0,0l0,0c0-.05,0-.05,0,0a.24.24,0,0,1,0,.08c0-.09,0,0,0,0s0-.11,0,0,0,.06,0,.09v0a.3.3,0,0,1,0,.08.43.43,0,0,0,0,.07c0,.09.05,0,0,0l-.08.09s-.13.08,0,0l-.07,0-.07,0,0,0-.28.07c.1,0,0,0,0,0h-.36l-.32-.08-.11,0-.1,0s0,0,0,0a.58.58,0,0,0-.77.21.57.57,0,0,0,.21.77Z" transform="translate(-14.8 -39.01)"/><path class="cls-1" d="M164.16,153.65a3.28,3.28,0,0,0-2.83,1.56,2.52,2.52,0,0,0,1,3.34,2.4,2.4,0,0,0,1.12.27,1.79,1.79,0,0,0,1.09-.37.65.65,0,0,0,.26-.79.63.63,0,0,0-.74-.38c.16,0-.06,0-.09,0h-.22a1.08,1.08,0,0,0-.18,0h-.09c-.08,0-.07,0,0,0-.1,0-.32-.08-.41-.11l-.05,0c-.08,0-.07,0,0,0,0,0-.17-.09-.19-.11a.15.15,0,0,1-.09-.06c.08.07.1.08,0,0l-.12-.11-.07-.08c0-.07,0-.06,0,0s-.1-.16-.12-.18l0-.1,0,.09a.86.86,0,0,1-.07-.21.78.78,0,0,1,0-.21c0,.18,0,0,0-.06s0-.12,0-.19c0,.17,0-.05,0-.09s.06-.2,0-.11,0-.09.05-.11l.11-.17c0-.06,0-.05,0,0l.06-.08.11-.1s.2-.16.06-.06a2.61,2.61,0,0,1,.3-.2l.19-.09c.07,0,.06,0,0,0l.1,0a2.3,2.3,0,0,1,.35-.1l.21,0,.1,0h0a.58.58,0,1,0,0-1.16Z" transform="translate(-14.8 -39.01)"/><path class="cls-1" d="M167.49,151.48q0,1.71.09,3.42a16.48,16.48,0,0,0,.4,3.43.54.54,0,0,0,1.06-.14,22,22,0,0,0,0-3.35c0-1.12,0-2.24,0-3.35a.78.78,0,0,0-1.56,0Z" transform="translate(-14.8 -39.01)"/><path class="cls-1" d="M166.21,155.54l3,.13a14.42,14.42,0,0,0,1.47,0c.49,0,1.36-.13,1.37-.78s-.87-.78-1.36-.83-1,0-1.47-.05l-3,0a.77.77,0,0,0,0,1.53Z" transform="translate(-14.8 -39.01)"/><path class="cls-1" d="M177.53,151.84c.17,1.18.29,2.35.4,3.53l.15,1.82a4.22,4.22,0,0,0,.36,1.83.58.58,0,0,0,1,0,4.18,4.18,0,0,0,.28-2c0-.61,0-1.21-.06-1.82-.07-1.29-.22-2.57-.38-3.85a.9.9,0,0,0-1.74.45Z" transform="translate(-14.8 -39.01)"/><path class="cls-1" d="M185.55,159.19c0,.11,0-.06,0-.08l0,.09.06.19a3.15,3.15,0,0,1,.09.42c0,.11,0-.19,0-.08s0,.07,0,.1,0,.14,0,.2a3,3,0,0,1,0,.43c0,.12,0,0,0-.07s0,.07,0,.1a1.42,1.42,0,0,1,0,.2,1.86,1.86,0,0,1-.1.39c-.08.26-.14.52-.2.79a.61.61,0,0,0,.88.68,2.5,2.5,0,0,0,1.2-2,4,4,0,0,0-.37-2.27.88.88,0,0,0-1.19-.32.89.89,0,0,0-.32,1.2Z" transform="translate(-14.8 -39.01)"/><path class="cls-1" d="M191.08,153.6a3.14,3.14,0,0,0,1.59,4.63,2.07,2.07,0,0,0,1.45-.12,1.55,1.55,0,0,0,.84-1.28,2.52,2.52,0,0,0-.58-1.63,6,6,0,0,0-1.09-1.17,2.93,2.93,0,0,0-1.58-.76c-.53,0-1.32.36-1.12,1a.38.38,0,0,0,.55.23l0,0c-.08,0-.06,0,.06,0s.12,0,0,0l.06,0c.12,0,0,0,0,0s.08,0,.1,0,0,0,0,0,.21,0,.24,0a.5.5,0,0,1,.13,0s-.1,0,0,0l.21.12.24.15.12.08.07,0a5.56,5.56,0,0,1,.89.86c-.09-.1,0,0,0,0l.1.14a1.88,1.88,0,0,1,.16.23c0,.09.09.17.13.26-.06-.13,0,0,0,.06s0,.13.05.19v0c0-.07,0-.07,0,0v.06h0l0,.1c.05-.14,0,0,0,0s.11-.1,0,0l-.05,0c-.09.1.14-.08,0,0l-.1.06c.06-.07.14-.05,0,0l-.09,0-.1,0h-.19l-.12,0-.21-.06c-.14,0,.14.07,0,0l-.11-.06-.07,0,0,0,0,0c-.06,0-.16-.14-.2-.18l-.15-.16c-.11-.12.08.13,0,0a.35.35,0,0,1-.05-.08,1.76,1.76,0,0,1-.14-.23l0-.08,0-.08c0,.09,0,.11,0,0a5.11,5.11,0,0,1-.13-.53c0-.14,0,.11,0,0s0-.1,0-.15a2.43,2.43,0,0,1,0-.27.66.66,0,0,1,0-.14c0,.09,0,.1,0,.06a.15.15,0,0,1,0-.07l.06-.26s0-.09,0-.13-.06.1,0,0,.1-.19.16-.28a.65.65,0,0,0-.24-.87.66.66,0,0,0-.88.24Z" transform="translate(-14.8 -39.01)"/><path class="cls-1" d="M195.22,150.09c.2,1.27.42,2.54.64,3.8.12.62.23,1.24.35,1.86a6.07,6.07,0,0,0,.52,1.93.71.71,0,0,0,1.28-.17,2.91,2.91,0,0,0,0-1,1.82,1.82,0,0,1-.07-1,.86.86,0,0,1,1.36-.32c.85.72-.13,2.32-1.12,1.65-.27-.18-.56.13-.52.4.18,1,1.61,1,2.3.57a2.2,2.2,0,0,0,.6-2.94,2.05,2.05,0,0,0-2.7-.7,1.92,1.92,0,0,0-.89,1.19,2.9,2.9,0,0,0,0,.78c0,.11,0,.22,0,.34v.19q-.08.18,0,0l1,.6a6,6,0,0,0-.32-1.9l-.42-1.91c-.27-1.25-.53-2.51-.78-3.77a.67.67,0,0,0-1.29.34Z" transform="translate(-14.8 -39.01)"/><path class="cls-1" d="M202.46,155.71a9.79,9.79,0,0,1,.78,4.89,1.8,1.8,0,0,1-.26.76c.06-.08,0,0-.07.07s0,0,0,0l-.07,0c-.09.05-.07.07-.21.06-.63,0-.95-.87-1.28-1.31s-.91-.29-.87.23a2.85,2.85,0,0,0,1.66,2.57,1.89,1.89,0,0,0,2.47-1.34,6.54,6.54,0,0,0,.08-3.17,14.25,14.25,0,0,0-1-3.31c-.28-.69-1.47-.21-1.22.5Z" transform="translate(-14.8 -39.01)"/><path class="cls-1" d="M201.85,152.91l.17.11.08,0h0l.16.06a1.33,1.33,0,0,0,.21,0,.76.76,0,0,0,.33-.08.64.64,0,0,0,.24-.25l.06-.15,0-.16a.53.53,0,0,0,0-.25.38.38,0,0,0-.09-.15.52.52,0,0,0-.19-.17,1.17,1.17,0,0,0-.52-.16.45.45,0,0,0-.23,0,.48.48,0,0,0-.23.07l-.13.1a.41.41,0,0,0-.12.2.24.24,0,0,0,0,.15.37.37,0,0,0,0,.23l.06.15a.58.58,0,0,0,.22.22Z" transform="translate(-14.8 -39.01)"/><path class="cls-1" d="M206.82,157.08a2.83,2.83,0,0,0,1.56.33,1.63,1.63,0,0,0,1.22-.77,1.4,1.4,0,0,0,.14-1.24,1.27,1.27,0,0,0-.92-.76,1.74,1.74,0,0,0-1.2.24,1.91,1.91,0,0,0-.8,1.05,2.4,2.4,0,0,0,.7,2.49,2.52,2.52,0,0,0,1.6.61,2.65,2.65,0,0,0,.79-.11,2,2,0,0,0,.45-.19,1.43,1.43,0,0,0,.35-.3.57.57,0,0,0,.08-.68.6.6,0,0,0-.63-.27c.15,0-.07,0-.11,0s-.23,0-.35.06l-.1,0h-.47c-.16,0,.12,0,0,0l-.12,0a3.17,3.17,0,0,1-.44-.12c-.16,0,.14.08,0,0l-.08,0s-.21-.1-.2-.12.12.1,0,0l-.08-.07-.06-.06-.06-.07.05.06-.11-.16-.06-.12c0-.09,0,0,0,0a1,1,0,0,1-.06-.2.29.29,0,0,1,0-.09s0-.18,0-.09,0,0,0,0v-.08a1.48,1.48,0,0,1,0-.21c0,.14,0-.07,0-.11l0-.08c0-.09,0,.07,0,0l.09-.17c-.06.1,0,0,0,0l.06-.06,0,0,0,0,.07,0s0,0,0,0l.06,0,.17,0c.12,0-.08,0,0,0h.08c.11,0,0,0,0,0l.09,0c.07,0,0,0,0,0l.06,0s0,0,0,0l.07.07c-.06-.07,0,0,0,0l0,0h0s0,.05,0,.08,0,0,0,0,0-.1,0,0l0,.09s0,0,0,0l0,.07a.16.16,0,0,0,0,.07c-.05.1,0,0,0,0l-.09.09s-.13.08,0,0l-.07,0-.07,0c.07,0,.08,0,0,0l-.28.07c.1,0,0,0,0,0h-.36l-.32-.08-.1,0-.11,0c.05,0,.05,0,0,0a.59.59,0,0,0-.78.21.57.57,0,0,0,.22.77Z" transform="translate(-14.8 -39.01)"/><path class="cls-1" d="M216.26,153.47a3.29,3.29,0,0,0-2.84,1.55,2.53,2.53,0,0,0,1,3.34,2.32,2.32,0,0,0,1.12.27,1.85,1.85,0,0,0,1.09-.36.66.66,0,0,0,.27-.8.67.67,0,0,0-.75-.38c.16,0-.06,0-.09,0h-.48c-.09,0-.07,0,0,0-.11,0-.32-.09-.42-.12l-.05,0c-.08,0-.07,0,0,0s-.16-.09-.19-.1l-.09-.06,0,0-.11-.11-.08-.08q-.07-.1,0,0s-.1-.15-.11-.18a.31.31,0,0,1-.05-.1l0,.09a.73.73,0,0,1-.06-.21,1.29,1.29,0,0,1,0-.21c0,.19,0,0,0-.06a1.09,1.09,0,0,1,0-.18c0,.17,0-.06,0-.09l0-.12c0,.09,0-.09.05-.1l.1-.17c0-.06,0-.06,0,0a.23.23,0,0,1,.07-.07l.1-.11s.2-.16.06-.06a3.28,3.28,0,0,1,.31-.2l.18-.09h0l.09,0,.36-.1.2,0,.1,0h0a.59.59,0,0,0,.58-.57.59.59,0,0,0-.57-.58Z" transform="translate(-14.8 -39.01)"/><path class="cls-1" d="M219.59,151.29c0,1.14,0,2.28.08,3.42a15.77,15.77,0,0,0,.41,3.43c.16.63,1,.44,1.06-.13a23.41,23.41,0,0,0,0-3.35q0-1.68,0-3.36a.78.78,0,0,0-1.55,0Z" transform="translate(-14.8 -39.01)"/><path class="cls-1" d="M218.3,155.35c1,.05,2,.1,3,.13a14.18,14.18,0,0,0,1.46,0c.49,0,1.37-.12,1.37-.78s-.87-.78-1.36-.83-1,0-1.47,0h-3a.76.76,0,1,0,0,1.52Z" transform="translate(-14.8 -39.01)"/><path class="cls-1" d="M270.08,153.6a3.14,3.14,0,0,0,1.59,4.63,2.07,2.07,0,0,0,1.45-.12,1.55,1.55,0,0,0,.84-1.28,2.52,2.52,0,0,0-.58-1.63,6,6,0,0,0-1.09-1.17,2.93,2.93,0,0,0-1.58-.76c-.53,0-1.32.36-1.12,1a.38.38,0,0,0,.55.23l0,0c-.08,0-.06,0,.06,0s.12,0,0,0l.06,0c.12,0,0,0,0,0s.08,0,.1,0,0,0,0,0,.21,0,.24,0a.5.5,0,0,1,.13,0s-.1,0,0,0l.21.12.24.15.12.08.07,0a5.56,5.56,0,0,1,.89.86c-.09-.1,0,0,0,0l.1.14a1.88,1.88,0,0,1,.16.23c.05.09.09.17.13.26-.06-.13,0,0,0,.06s0,.13.05.19v0c0-.07,0-.07,0,0v.06h0l0,.1c0-.14,0,0,0,0s.11-.1,0,0l0,0c-.09.1.14-.08,0,0l-.1.06c.06-.07.14-.05,0,0l-.09,0-.1,0h-.19l-.12,0-.21-.06c-.14,0,.14.07,0,0l-.11-.06-.07,0,0,0,0,0c-.06,0-.16-.14-.2-.18l-.15-.16c-.11-.12.08.13,0,0a.35.35,0,0,1-.05-.08,1.76,1.76,0,0,1-.14-.23.3.3,0,0,0,0-.08l0-.08c0,.09,0,.11,0,0a5.11,5.11,0,0,1-.13-.53c0-.14,0,.11,0,0s0-.1,0-.15a2.43,2.43,0,0,1,0-.27.66.66,0,0,1,0-.14c0,.09,0,.1,0,.06a.15.15,0,0,1,0-.07l.06-.26s0-.09.05-.13-.06.1,0,0,.1-.19.16-.28a.65.65,0,0,0-.24-.87.66.66,0,0,0-.88.24Z" transform="translate(-14.8 -39.01)"/><path class="cls-1" d="M274.22,150.09c.2,1.27.42,2.54.64,3.8.12.62.23,1.24.35,1.86a6.07,6.07,0,0,0,.52,1.93.71.71,0,0,0,1.28-.17,2.91,2.91,0,0,0,0-1,1.82,1.82,0,0,1-.07-1,.86.86,0,0,1,1.36-.32c.85.72-.13,2.32-1.12,1.65-.27-.18-.56.13-.52.4.18,1,1.61,1,2.3.57a2.2,2.2,0,0,0,.6-2.94,2.05,2.05,0,0,0-2.7-.7,1.92,1.92,0,0,0-.89,1.19,2.9,2.9,0,0,0,0,.78c0,.11,0,.22,0,.34v.19q-.07.18,0,0l1,.6a6,6,0,0,0-.32-1.9l-.42-1.91c-.27-1.25-.53-2.51-.78-3.77a.67.67,0,0,0-1.29.34Z" transform="translate(-14.8 -39.01)"/><path class="cls-1" d="M281.46,155.71a9.79,9.79,0,0,1,.78,4.89,1.8,1.8,0,0,1-.26.76c.06-.08,0,0-.07.07s0,0,0,0l-.07,0c-.09.05-.07.07-.21.06-.63,0-.95-.87-1.28-1.31s-.91-.29-.87.23a2.85,2.85,0,0,0,1.66,2.57,1.89,1.89,0,0,0,2.47-1.34,6.54,6.54,0,0,0,.08-3.17,14.25,14.25,0,0,0-1-3.31c-.28-.69-1.47-.21-1.22.5Z" transform="translate(-14.8 -39.01)"/><path class="cls-1" d="M280.85,152.91l.17.11.08,0h0l.16.06a1.33,1.33,0,0,0,.21,0,.76.76,0,0,0,.33-.08.64.64,0,0,0,.24-.25l.06-.15,0-.16a.53.53,0,0,0-.05-.25.38.38,0,0,0-.09-.15.52.52,0,0,0-.19-.17,1.17,1.17,0,0,0-.52-.16.45.45,0,0,0-.23,0,.48.48,0,0,0-.23.07l-.13.1a.41.41,0,0,0-.12.2.24.24,0,0,0,0,.15.37.37,0,0,0,0,.23l.06.15a.58.58,0,0,0,.22.22Z" transform="translate(-14.8 -39.01)"/><path class="cls-1" d="M285.82,157.08a2.83,2.83,0,0,0,1.56.33,1.63,1.63,0,0,0,1.22-.77,1.4,1.4,0,0,0,.14-1.24,1.27,1.27,0,0,0-.92-.76,1.74,1.74,0,0,0-1.2.24,1.91,1.91,0,0,0-.8,1.05,2.4,2.4,0,0,0,.7,2.49,2.52,2.52,0,0,0,1.6.61,2.65,2.65,0,0,0,.79-.11,2,2,0,0,0,.45-.19,1.43,1.43,0,0,0,.35-.3.57.57,0,0,0,.08-.68.6.6,0,0,0-.63-.27c.15,0-.07,0-.11,0s-.23,0-.35.06l-.1,0h-.47c-.16,0,.12,0,0,0l-.12,0a3.17,3.17,0,0,1-.44-.12c-.16,0,.14.08,0,0l-.08,0s-.21-.1-.2-.12.12.1,0,0l-.08-.07-.06-.06-.06-.07.05.06-.11-.16-.06-.12c-.05-.09,0,0,0,0a1,1,0,0,1-.06-.2.29.29,0,0,1,0-.09s0-.18,0-.09,0,0,0,0v-.08a1.48,1.48,0,0,1,0-.21c0,.14,0-.07,0-.11l0-.08c0-.09-.05.07,0,0l.09-.17c-.06.1,0,0,0,0l.06-.06,0,0,.05,0,.07,0c.05,0,.05,0,0,0l.06,0,.17,0c.12,0-.08,0,0,0h.08c.11,0-.05,0,0,0l.09,0c.07,0,0,0,0,0l.06,0s0,0,0,0l.07.07c-.06-.07,0,0,0,0l0,0h0s0,.05,0,.08,0,0,0,0,0-.1,0,0l0,.09s0,0,0,0l0,.07a.16.16,0,0,0,0,.07c-.05.1,0,0,0,0l-.09.09s-.13.08,0,0l-.07,0-.07,0c.07,0,.08,0,0,0l-.28.07c.1,0,0,0,0,0h-.36l-.32-.08-.1,0-.11,0c.05,0,.05,0,0,0a.59.59,0,0,0-.78.21.57.57,0,0,0,.22.77Z" transform="translate(-14.8 -39.01)"/><path class="cls-1" d="M295.26,153.47a3.29,3.29,0,0,0-2.84,1.55,2.53,2.53,0,0,0,1,3.34,2.32,2.32,0,0,0,1.12.27,1.85,1.85,0,0,0,1.09-.36.66.66,0,0,0,.27-.8.67.67,0,0,0-.75-.38c.16,0-.06,0-.09,0h-.48c-.09,0-.07,0,0,0-.11,0-.32-.09-.42-.12l0,0c-.08,0-.07,0,0,0s-.16-.09-.19-.1l-.09-.06,0,0-.11-.11-.08-.08q-.08-.1,0,0s-.1-.15-.11-.18a.31.31,0,0,1-.05-.1l0,.09a.73.73,0,0,1-.06-.21,1.29,1.29,0,0,1-.05-.21c0,.19,0,0,0-.06a1.09,1.09,0,0,1,0-.18c0,.17,0-.06,0-.09s.07-.21,0-.12l.05-.1.1-.17c0-.06,0-.06,0,0l.07-.07.1-.11s.2-.16.06-.06a3.28,3.28,0,0,1,.31-.2l.18-.09h0l.09,0,.36-.1.2,0,.1,0h0a.59.59,0,0,0,.58-.57.59.59,0,0,0-.57-.58Z" transform="translate(-14.8 -39.01)"/><path class="cls-1" d="M298.59,151.29c0,1.14,0,2.28.08,3.42a15.77,15.77,0,0,0,.41,3.43c.16.63,1,.44,1.06-.13a23.41,23.41,0,0,0,0-3.35q0-1.68,0-3.36a.78.78,0,0,0-1.55,0Z" transform="translate(-14.8 -39.01)"/><path class="cls-1" d="M297.3,155.35c1,.05,2,.1,3,.13a14.18,14.18,0,0,0,1.46,0c.49,0,1.37-.12,1.37-.78s-.87-.78-1.36-.83-1,0-1.47,0h-3a.76.76,0,1,0,0,1.52Z" transform="translate(-14.8 -39.01)"/><path class="cls-1" d="M237.64,159c.05.11,0-.06,0-.08a.38.38,0,0,1,0,.1,1.07,1.07,0,0,1,.07.19c0,.13.06.27.09.41s0-.18,0-.07a.31.31,0,0,1,0,.1,1.27,1.27,0,0,1,0,.2,3,3,0,0,1,0,.42c0,.12,0,0,0-.07s0,.07,0,.1l0,.2c0,.13-.06.26-.1.39a7.69,7.69,0,0,0-.21.79.62.62,0,0,0,.89.69,2.52,2.52,0,0,0,1.19-2,3.84,3.84,0,0,0-.37-2.26.86.86,0,0,0-1.19-.32.9.9,0,0,0-.32,1.19Z" transform="translate(-14.8 -39.01)"/><path class="cls-1" d="M246.62,158a.54.54,0,0,1-.07-.13l0,.13a.61.61,0,0,1,0-.18l0,.13a1.62,1.62,0,0,1,0-.22v.13a.79.79,0,0,1,.06-.22l-.05.12a.64.64,0,0,1,.1-.18l-.08.1.14-.14-.11.09.15-.09-.12.05.15,0-.13,0h.16l-.13,0,.17.05-.12-.05.21.12-.11-.08a1.29,1.29,0,0,1,.17.16l-.09-.1a.87.87,0,0,1,.11.18l0-.12a.84.84,0,0,1,0,.17l0-.13a.54.54,0,0,1,0,.18l0-.12a.65.65,0,0,1,0,.13l0-.11a.8.8,0,0,1-.08.16l.07-.1a.8.8,0,0,1-.13.13l.1-.08a.72.72,0,0,1-.19.11l.11,0a.43.43,0,0,1-.16,0l.12,0h-.21l.12,0-.18,0,.12,0a.57.57,0,0,1-.13-.08l.1.08,0,0,.09.59a2,2,0,0,0,.18-.86,2.08,2.08,0,0,0-.22-.88l-.09-.11a.39.39,0,0,0-.17-.11.56.56,0,0,0-.34,0,.9.9,0,0,0-.66.94,1,1,0,0,0,.22.59.82.82,0,0,0,.66.34.55.55,0,0,0,.35-.12.6.6,0,0,0,.21-.31,2.42,2.42,0,0,0,.06-.47,1.35,1.35,0,0,0,0-.29.75.75,0,0,0-.09-.25.47.47,0,0,0-.73-.09.51.51,0,0,0-.15.21,1.53,1.53,0,0,0-.11.27,2.42,2.42,0,0,0-.07.47l.58-.57h-.06l.14,0-.06,0,.13.06-.06,0,.11.09-.06-.06.09.12-.06-.11.06.14a.65.65,0,0,1,0-.13l0,.14v-.13l0,.14,0-.1-.05.13,0-.08-.09.11.06-.05-.12.09.07,0-.13,0h0l-.59-.25s.05.1.07.16l-.05-.14a1.78,1.78,0,0,1,.1.38l0-.13a1.28,1.28,0,0,1,0,.39l0-.13c0,.1,0,.2-.07.3a.47.47,0,0,0,0,.31.55.55,0,0,0,.2.25,1.29,1.29,0,0,0,1.26,0,1.13,1.13,0,0,0,.65-1.08,1.33,1.33,0,0,0-.33-.77,1.25,1.25,0,0,0-.62-.38,1.2,1.2,0,0,0-.81.1,1.22,1.22,0,0,0-.48.45,1.32,1.32,0,0,0-.19.7,1.07,1.07,0,0,0,.06.35,1.47,1.47,0,0,0,.24.42.52.52,0,0,0,.34.14.55.55,0,0,0,.3-.11.48.48,0,0,0,.13-.63Z" transform="translate(-14.8 -39.01)"/><path class="cls-1" d="M250.74,157.8a.86.86,0,0,0,.15.22l-.07-.09a.68.68,0,0,0,.59.33A.82.82,0,0,0,252,158a.85.85,0,0,0,.13-1,.48.48,0,0,0-.54-.22,1,1,0,0,0-.53.4,1,1,0,0,0-.15.54.84.84,0,0,0,.25.62.91.91,0,0,0,.62.26,1,1,0,0,0,.66-.26l-.1.08a.85.85,0,0,0,.31-.34.9.9,0,0,0,.08-.56,1.33,1.33,0,0,0-.13-.35,1.39,1.39,0,0,0-.23-.31.57.57,0,0,0-.31-.15.6.6,0,0,0-.35.07h0l-.12.09a.42.42,0,0,0-.11.18.56.56,0,0,0,0,.34h0a.61.61,0,0,0,.2.3.55.55,0,0,0,.33.11h-.13l.1,0-.12-.05.08.05-.1-.08.06.06-.08-.1a.25.25,0,0,1,0,.07l0-.11,0,.12,0-.13a.17.17,0,0,1,0,.1l0-.12a.54.54,0,0,1,0,.1l0-.12a.19.19,0,0,1,0,.09l.07-.09-.07.07.1-.08-.06,0,.12,0-.13,0,.13,0h-.18l.13,0-.11,0,.11.05-.08-.05.1.08a.27.27,0,0,1-.07-.08l.08.11a.24.24,0,0,1-.06-.11l.05.13a.26.26,0,0,1,0-.11l0,.12a.2.2,0,0,1,0-.11l0,.12a.65.65,0,0,1,0-.13l0,.11a.27.27,0,0,1,.06-.1l-.08.1.07-.07-.1.08.09-.05-.12.05h0l-.54-.23,0,.05-.05-.12a.24.24,0,0,1,0,.08l0-.13a.17.17,0,0,1,0,.1l0-.12s0,0,0,.08l.05-.11-.05.08.07-.1a.17.17,0,0,1-.06.06l.11-.08-.07,0,.12-.05-.07,0,.12,0h-.12l.12,0-.08,0a1.1,1.1,0,0,0-.18,0l.22.06h0l.09.06-.06-.05.07.09,0,0a.43.43,0,0,0-.79.11v.11a.39.39,0,0,0,.06.21Z" transform="translate(-14.8 -39.01)"/><path class="cls-1" d="M257.47,158.54a.9.9,0,0,0,.64.1,1,1,0,0,0,.45-.26,1.06,1.06,0,0,0,.26-.43.67.67,0,0,0,0-.24.25.25,0,0,0,0-.12.5.5,0,0,0,0-.12.88.88,0,0,0-.35-.47.85.85,0,0,0-.22-.09l-.23,0a1.08,1.08,0,0,0-.47.15,1,1,0,0,0-.34.34.83.83,0,0,0-.08.56.14.14,0,0,0,0,.06.71.71,0,0,0,.08.18.58.58,0,0,0,.16.19.94.94,0,0,0,.45.21,1.05,1.05,0,0,0,.5,0,1.07,1.07,0,0,0,.45-.26,1.1,1.1,0,0,0,.27-.51,1,1,0,0,0-.23-.88.8.8,0,0,0-.21-.15.88.88,0,0,0-.62-.08.85.85,0,0,0-.17.06l-.07,0a.75.75,0,0,0-.26.27.78.78,0,0,0-.1.36.53.53,0,0,0,0,.13c0,.05,0,.09,0,.13a.87.87,0,0,0,.16.3.74.74,0,0,0,.61.3l-.45-.27a.75.75,0,0,0,.25.25.83.83,0,0,0,.34.1h0a1.13,1.13,0,0,0,.18,0,.68.68,0,0,0,.32-.18.77.77,0,0,0,.19-.31.85.85,0,0,0,0-.23.88.88,0,0,0-.1-.36c0-.06-.08-.11-.11-.16a1,1,0,0,0-.16-.12.57.57,0,0,0-.73.16.55.55,0,0,0-.12.33.61.61,0,0,0,.17.41s0,0,.05,0l-.09-.12,0,.05-.06-.14,0,.05,0-.14v.06l0-.14a0,0,0,0,0,0,0l.05-.13s0,0,0,0l.08-.11,0,0,.12-.09,0,0,.13,0h-.05l.14,0h-.06l.13,0h0l.13,0,0,0,.11.08h0a.52.52,0,0,0-.18-.12.5.5,0,0,0-.27,0l-.09,0,.14,0h-.06l.14,0-.06,0,.12,0-.06,0,.11.09-.06-.07.08.11a.56.56,0,0,1-.05-.08l.06.12,0-.08,0,.13v-.09l0,.12s0,0,0-.06l-.05.12,0-.06-.07.1.06-.06-.11.08.07,0-.11,0,.09,0h-.12a.17.17,0,0,1,.1,0l-.1-.05.09.05-.09-.07.07.07-.08-.09a.21.21,0,0,1,.06.1l0-.11,0,.1,0-.11a.24.24,0,0,1,0,.12l0-.11a.53.53,0,0,1-.05.15l.05-.1-.08.14.07-.09-.1.1.09-.07-.13.07.11-.05a.49.49,0,0,1-.16.05l.11,0H258l.12,0-.14,0,.1.05-.11-.07.1.07a.27.27,0,0,1-.08-.07l.08.1a.3.3,0,0,1-.06-.11l0,.12a.31.31,0,0,1,0-.08l0,.11a.11.11,0,0,1,0-.08l0,.12a.19.19,0,0,1,0-.08l0,.1a.22.22,0,0,1,.05-.08l-.07.09a.26.26,0,0,1,.09-.09l-.1.07.13-.07-.11,0a.58.58,0,0,1,.14,0H258l.08,0-.1,0,.06,0-.09-.07.06.05-.08-.09.05.07-.05-.11a.09.09,0,0,1,0,0v-.14a.24.24,0,0,1,0,.08l.05-.11a.41.41,0,0,1-.07.11l.08-.1-.11.11.11-.09-.12.07.13,0-.12,0h.18l-.08,0,.13,0-.07,0,.12.08,0,0a.58.58,0,0,0-.38-.15.51.51,0,0,0-.44.22.51.51,0,0,0-.11.39.52.52,0,0,0,.27.41Z" transform="translate(-14.8 -39.01)"/><path class="cls-1" d="M251.18,157.66a.49.49,0,0,0,0,.21.81.81,0,0,0,.16.27,1,1,0,0,0,.37.23.82.82,0,0,0,.44,0,.67.67,0,0,0,.46-.32.73.73,0,0,0,.1-.28.76.76,0,0,0,0-.3.84.84,0,0,0-.37-.48.82.82,0,0,0-.24-.1.73.73,0,0,0-.25,0h-.06a1.25,1.25,0,0,0-.19,0,.82.82,0,0,0-.35.2.7.7,0,0,0-.13.16s0,0,0,0a.56.56,0,0,0-.07.18.61.61,0,0,0,0,.3.81.81,0,0,0,.09.29.9.9,0,0,0,.14.2,1.37,1.37,0,0,0,.18.16.91.91,0,0,0,.46.13.61.61,0,0,0,.3-.08.54.54,0,0,0,.22-.23,2,2,0,0,0,.18-.52,1,1,0,0,0,0-.35.28.28,0,0,0,0-.09,1.11,1.11,0,0,0,0-.19.62.62,0,0,0-.07-.19.59.59,0,0,0-.5-.29h0l.26.07h0l.11.08a.48.48,0,0,0-.43-.17.41.41,0,0,0-.28.13,1.3,1.3,0,0,0-.1.15l.08-.11h0l.24-.14a.59.59,0,0,0-.43.43,2.23,2.23,0,0,0,0,.27l0-.15-.06.39,0-.15a2.49,2.49,0,0,1-.09.37l.58-.45h-.05l.16,0h-.07l.15.05-.07,0,.12.09-.06-.06.09.12a.43.43,0,0,1,0-.07l.06.14a.14.14,0,0,1,0-.07l0,.15v-.07l0,.14s0,0,0,0l-.05.14,0-.05-.09.12,0,0L252,158l.06,0-.14,0,.08,0-.14,0H252l-.14,0,.1,0-.12-.05.08.05-.11-.09.13.1-.11-.09.05.06-.08-.11a.33.33,0,0,1,0,.06l0-.13a.13.13,0,0,1,0,.06v-.19s0,0,0,.06l0-.12s0,0,0,.05l.08-.1-.05,0,.1-.08-.06,0,.11-.05-.1,0,.12,0h-.12l.11,0-.08,0,.1,0-.07,0,.09.07,0-.06.07.09,0-.05,0,.1s0,0,0-.06v0a.4.4,0,0,0-.12-.29.41.41,0,0,0-.58,0l-.07.09a.46.46,0,0,0,0,.2Z" transform="translate(-14.8 -39.01)"/><path class="cls-1" d="M264.19,158.81c.06.1.11.21.16.31l-.09-.21a1.91,1.91,0,0,1,.1.34s0,.24,0,.08,0,0,0,.08v.18s0,.15,0,.17,0-.22,0-.1v.09l0,.18-.09.32-.06.16s-.06.15,0,0,0,0,0,0l-.08.16-.07.18c0-.11.06-.14,0-.09l0,.07a2.87,2.87,0,0,0-.17.44.58.58,0,0,0,.56.72,1.23,1.23,0,0,0,.64-.19,2.11,2.11,0,0,0,.45-.39,2.47,2.47,0,0,0,.54-1.1,3.07,3.07,0,0,0-.41-2.25.84.84,0,1,0-1.46.85Z" transform="translate(-14.8 -39.01)"/><path class="cls-1" d="M307,153.69c.14.83.27,1.66.36,2.49a17.91,17.91,0,0,0,.44,2.62c.12.43.85.5.93,0a10.25,10.25,0,0,0,0-2.71c-.09-.93-.21-1.85-.35-2.77a.73.73,0,1,0-1.42.37Z" transform="translate(-14.8 -39.01)"/><path class="cls-1" d="M309.06,156.59l1.85-1.27.89-.62c.16-.11.32-.22.47-.34a1.15,1.15,0,0,0,.58-.72.72.72,0,0,0-.5-.87,1.11,1.11,0,0,0-.88.19l-.49.32-.89.62-1.84,1.28a.83.83,0,0,0-.3,1.11.82.82,0,0,0,1.11.3Z" transform="translate(-14.8 -39.01)"/><path class="cls-1" d="M308.76,157.37c.77.36,1.56.7,2.37,1a5.83,5.83,0,0,0,2.42.56.6.6,0,0,0,.55-.37.58.58,0,0,0-.13-.64,3.69,3.69,0,0,0-.55-.4,2.37,2.37,0,0,0-.36-.17l-.16-.07c-.09,0-.1,0,0,0l-.65-.27-.23-.09-.15-.06h0c-.74-.31-1.46-.63-2.18-1a.87.87,0,1,0-.86,1.51Z" transform="translate(-14.8 -39.01)"/><path class="cls-2" d="M314.61,151a7.63,7.63,0,0,1,1.58,5.48,17.9,17.9,0,0,1-2,5.87.62.62,0,0,0,1,.73c3.41-3.41,3.79-9.54.54-13.15-.66-.73-1.67.34-1.06,1.07Z" transform="translate(-14.8 -39.01)"/><path class="cls-1" d="M229.66,152.49c-.15.07.13,0,0,0s0,0,0,0-.13,0,0,0,.14,0,.06,0,0,0,0,0l.08.05c.08.05-.1-.11,0,0l.14.14c-.09-.1,0,0,.05.09s.1.18.07.12,0,0,0,.07l0,.13s0,.24,0,.12v.2c0-.11,0,.07,0,.11l0,.12c0-.07,0,0,0,0a3.1,3.1,0,0,1-.29.5l-.07.1a2.62,2.62,0,0,1-.22.25c-.24.29-.51.56-.75.85a2.27,2.27,0,0,0-.7,1.36c0,1.31,1.47,1.38,2.44,1.46a9.77,9.77,0,0,0,1.53,0,2.82,2.82,0,0,0,1.78-.61.67.67,0,0,0-.3-1.1,3.46,3.46,0,0,0-1.47,0,11.38,11.38,0,0,1-1.43,0l-.54,0-.35-.06s-.25-.09-.28-.07c.13-.08.3.38.3.42s-.12.25,0,.09l.07-.11.16-.24h0l.11-.13a8.41,8.41,0,0,0,1.41-2.1,2.49,2.49,0,0,0-.26-2.23,1.77,1.77,0,0,0-2.31-.75.71.71,0,0,0-.26,1,.72.72,0,0,0,1,.25Z" transform="translate(-14.8 -39.01)"/><path class="cls-2" d="M14.81,135.5c.64,10.47,1.15,20.95,1.73,31.43l.22,3.85a33.87,33.87,0,0,0,.23,3.9c.26,1.44,1.64,1.38,2.8,1.39l3.86,0,15.71.14,31.53.28,15.7.14,4,0c1,0,2.21.1,2.93-.79s.53-2.43.53-3.52c0-1.27,0-2.54-.1-3.81-.25-5.2-.67-10.4-1-15.59s-.75-10.52-1.11-15.77l-.24-3.85a1,1,0,0,0-1-1c-9.28.81-18.59.42-27.89.06s-18.53-.49-27.81-.08a135,135,0,0,0-15.68,1.35c-.86.14-.67,1.54.19,1.51,4.63-.16,9.25-.56,13.87-.79s9.27-.35,13.9-.36c9.28,0,18.53.6,27.81.75a137.73,137.73,0,0,0,15.6-.49l-1-1c.55,7.53,1,15.06,1.51,22.6.26,3.79.55,7.58.77,11.38.1,1.88.18,3.77.16,5.65,0,.41,0,.82,0,1.23s0,.43-.26.49a4,4,0,0,1-.92,0l-1.62,0-45.37-.39-12.71-.11-6.36-.05-3.24,0-1.49,0c-.36,0-1.17.13-1.44-.06l.36.37c-.22-.31-.12-1.11-.15-1.5l-.12-2-.24-3.85L18,159.48q-.48-7.64-1-15.28-.28-4.33-.54-8.69c-.06-1.06-1.71-1.07-1.64,0Z" transform="translate(-14.8 -39.01)"/><path class="cls-1" d="M66.27,121c5.51-12.71,14.12-24.72,26.54-31.41a42.42,42.42,0,0,1,20.34-5.18A35.41,35.41,0,0,1,123.42,86a45.5,45.5,0,0,1,9.15,4.24c5.62,3.28,10.89,7.24,16.88,9.85a30.79,30.79,0,0,0,9.26,2.54,29,29,0,0,0,11.37-1.35c7.45-2.29,14-6.6,21-9.93,6.15-2.92,13-5.09,19.82-3.58a17.81,17.81,0,0,1,7.74,3.65,14.29,14.29,0,0,1,4.64,8.24,82.19,82.19,0,0,1,1.16,12.13q.34,6.3.34,12.61c0,2.1,0,4.2.07,6.3a.82.82,0,0,0,1.63,0,99.15,99.15,0,0,0,.18-13.24c-.12-4.3-.38-8.61-.77-12.9-.33-3.69-.78-7.5-2.7-10.76a16.11,16.11,0,0,0-6.41-6c-5.85-3.09-12.72-3.07-18.95-1.24-7.56,2.23-14.19,6.65-21.27,10a43.67,43.67,0,0,1-11.44,3.83,24.87,24.87,0,0,1-10.68-.6C148,98,142.39,94,136.77,90.55c-5.89-3.65-12-6.77-19-7.65A42.16,42.16,0,0,0,96.6,86C83.26,91.45,73.42,102.79,67,115.44c-.78,1.54-1.51,3.11-2.2,4.69-.43,1,1,1.82,1.46.83Z" transform="translate(-14.8 -39.01)"/><path class="cls-1" d="M220.08,126.48l2,3,1,1.5c.38.56.78,1.28,1.49,1.44a.74.74,0,0,0,.91-.52,1.84,1.84,0,0,0-.2-1.15,6.06,6.06,0,0,0-.48-.76l-1-1.5-2-3a1,1,0,0,0-1.73,1Z" transform="translate(-14.8 -39.01)"/><path class="cls-1" d="M227.05,131.44c.85-1.05,1.74-2.06,2.68-3,.47-.48.94-1,1.42-1.41s1.31-1.1,1.25-1.87a.67.67,0,0,0-.49-.64c-.83-.18-1.54.54-2.09,1.05s-1,.94-1.47,1.43c-.95,1-1.86,2-2.72,3.07a1,1,0,0,0,0,1.41,1,1,0,0,0,1.41,0Z" transform="translate(-14.8 -39.01)"/><path class="cls-1" d="M234.76,89.19c-2.07,0-4.39.7-5.28,2.77a3.32,3.32,0,0,0,.14,3A4.26,4.26,0,0,0,232,96.8a6.54,6.54,0,0,0,4.1-.15.61.61,0,0,0-.15-1.2c-1-.08-2,0-3-.11a3.32,3.32,0,0,1-1.85-.86,1.88,1.88,0,0,1-.53-1.81,2.93,2.93,0,0,1,1.3-1.78,5.77,5.77,0,0,1,2.85-.8c.57,0,.58-.91,0-.9Z" transform="translate(-14.8 -39.01)"/><path class="cls-1" d="M237.23,86.33c.09,1.62.15,3.25.21,4.87s.06,3.26.22,4.87c.09.89,1.4,1.21,1.65.22a9,9,0,0,1,.56-1.73c.2-.41.51-.42.86-.11a5.34,5.34,0,0,1,.87,1.31,4.42,4.42,0,0,0,1.28,1.56.54.54,0,0,0,.8-.47,3.19,3.19,0,0,0-.37-1.37,8.93,8.93,0,0,0-.61-1.29,3.19,3.19,0,0,0-1.84-1.54c-2-.52-2.64,1.78-3.17,3.21l1.65.22c-.05-1.62-.27-3.25-.42-4.87s-.3-3.25-.42-4.87c-.06-.81-1.32-.84-1.27,0Z" transform="translate(-14.8 -39.01)"/><path class="cls-1" d="M246.29,91.8a3.66,3.66,0,0,0,.27,3.88,4.43,4.43,0,0,0,3.56,1.76,3.08,3.08,0,0,0,2.11-.79,2.8,2.8,0,0,0,.79-1.83,3.12,3.12,0,0,0-2.2-3.1,3.49,3.49,0,0,0-4,1.45.48.48,0,0,0,.64.65,6.37,6.37,0,0,1,1.3-.66l.36-.1.2,0h.58l.11,0a2,2,0,0,1,.33.09l.15,0c-.11,0,0,0,.06,0l.29.17c.13.08.06,0,0,0l.17.15.13.14c.09.1-.1-.15,0,0l.15.26c.11.18,0-.08,0,0a1.09,1.09,0,0,1,.05.17l0,.14c0,.21,0-.14,0,.07s0,.21,0,.32,0-.17,0,0l0,.14a.65.65,0,0,0,0,.13c-.06.2.05-.08,0,0s-.05.1-.08.15-.15.2,0,0l-.19.2c-.11.11,0,0,0,0l-.17.11-.19.09s.15,0,0,0l-.4.1c-.26,0,.07,0-.08,0h-.54l-.13,0-.13,0-.38-.1a2.5,2.5,0,0,1-.53-.23,2.9,2.9,0,0,1-.29-.19s-.16-.11-.07,0c-.06,0-.12-.1-.18-.15a2.29,2.29,0,0,1-.72-1.18,2,2,0,0,1,.13-1.43c.35-.69-.67-1.28-1-.6Z" transform="translate(-14.8 -39.01)"/><path class="cls-1" d="M255.69,92.45A3.85,3.85,0,0,0,255,96.1a3.15,3.15,0,0,0,2.79,1.81,3.64,3.64,0,0,0,3.14-1.81,3.16,3.16,0,0,0-.26-3.67,3.23,3.23,0,0,0-4-.87c-.48.3-.34,1.18.3,1.13.22,0,.44,0,.66,0a4,4,0,0,1,.65.1c.11,0,.22,0,.33.09l.16,0,.05,0,.29.15a.57.57,0,0,0,.13.08c.19.12-.08-.07.09.07a2.18,2.18,0,0,1,.22.21s.1.11,0,0a1,1,0,0,1,.09.13,1.43,1.43,0,0,1,.15.27s0-.11,0,0a1.33,1.33,0,0,1,.05.19c0,.13,0-.16,0,.07,0,.06,0,.11,0,.16s0,.11,0,.16,0-.12,0,0a2,2,0,0,1-.08.31.88.88,0,0,1-.05.15c0-.1,0,0,0,.07a1.91,1.91,0,0,1-.16.27l-.05.08c.06-.07,0,0,0,.07l-.22.22s-.27.24-.15.15a3.92,3.92,0,0,1-.56.33c-.12.06.11,0,0,0l-.14,0a3.37,3.37,0,0,1-.34.09c-.14,0-.06,0,0,0h-.46c-.14,0-.05,0,0,0l-.14,0-.14,0-.09,0a2.22,2.22,0,0,1-.5-.28c.08.06,0,0,0,0a.52.52,0,0,1-.11-.1.47.47,0,0,1-.1-.1s-.14-.17-.07-.07a1.71,1.71,0,0,1-.25-.48,1.8,1.8,0,0,1-.05-.73,3.88,3.88,0,0,1,.58-1.5.52.52,0,0,0-.9-.52Z" transform="translate(-14.8 -39.01)"/><path class="cls-1" d="M265.42,91c-.86.2-1.77.59-2,1.56a1.75,1.75,0,0,0,.33,1.27,13.08,13.08,0,0,0,.84,1.12,2.78,2.78,0,0,1,.28.36l.08.13c0,.08.05.1,0,0s.09.24,0,.07c0,.09,0,.1,0,0,0,.09,0,.09,0,0l0,.06h0l-.11.1h0l-.19.11h0l-.15.05-.25.07-.35.07c-.16,0,0,0-.14,0s-.41,0-.62,0a4.87,4.87,0,0,0-.76.06.63.63,0,0,0-.29,1.06,2.82,2.82,0,0,0,2.82.31,2,2,0,0,0,1.6-2.09,2.21,2.21,0,0,0-.71-1.22c-.31-.31-.62-.62-.91-1a1.39,1.39,0,0,1-.29-.37.18.18,0,0,1,.05-.15,1.7,1.7,0,0,1,.87-.29.73.73,0,0,0,.71-.81.71.71,0,0,0-.88-.6Z" transform="translate(-14.8 -39.01)"/><path class="cls-1" d="M268.17,95.36a4,4,0,0,0,3.86-.75,1.63,1.63,0,0,0,.56-1.8,1.88,1.88,0,0,0-1.41-1.09A2.76,2.76,0,0,0,268,93.48a2.88,2.88,0,0,0,1.43,3.44,6,6,0,0,0,2.52.5A8.94,8.94,0,0,0,274.8,97c.65-.21.58-1.25-.15-1.23a29.5,29.5,0,0,1-3.52-.09,2.71,2.71,0,0,1-1.26-.4,1.28,1.28,0,0,1-.49-.77,1.42,1.42,0,0,1,.94-1.72,1.21,1.21,0,0,1,1.11.07c.37.26.25.62,0,.92a3.09,3.09,0,0,1-3,.72.44.44,0,0,0-.23.85Z" transform="translate(-14.8 -39.01)"/><path class="cls-1" d="M232.58,105.22a3.29,3.29,0,0,0,.26,2.85,3.18,3.18,0,0,0,2.66,1.47,2.81,2.81,0,0,0,2.65-1.73,2.37,2.37,0,0,0-1.39-2.78,5.47,5.47,0,0,0-1.74-.65,2.76,2.76,0,0,0-2.06.19.61.61,0,0,0,.15,1.12,5.76,5.76,0,0,0,1.38.09l.15,0h.19l.18,0a4.24,4.24,0,0,1,.61.17c.13,0-.14-.07.08,0l.13.07.27.14a1.58,1.58,0,0,1,.24.15l.11.07c-.11-.08.06.06.06.06a1.8,1.8,0,0,1,.19.2c-.09-.1,0,.07.07.12l.06.11c-.05-.13,0,0,0,0l0,.13c0-.14,0,0,0,.07,0-.13,0,.07,0,.13s0,0,0,0a.61.61,0,0,1-.05.12s-.11.17-.06.08l0,.06-.21.2c.11-.09,0,0,0,0a.41.41,0,0,1-.11.07l-.12.06c-.09.06.11,0,0,0a4,4,0,0,1-.57.15c-.11,0,.11,0,0,0h-.43s-.13,0,0,0l-.13,0-.31-.07-.13,0s-.11,0,0,0l-.23-.12a1.36,1.36,0,0,1-.38-.3l-.08-.09s-.12-.16-.07-.07l-.15-.25-.06-.12,0-.09a1.8,1.8,0,0,1-.09-.28,1.94,1.94,0,0,1,.07-1.14.51.51,0,0,0-.35-.62.51.51,0,0,0-.62.36Z" transform="translate(-14.8 -39.01)"/><path class="cls-1" d="M238.22,102.55c.19,1.15.4,2.3.64,3.44a10.16,10.16,0,0,0,1,3.38.64.64,0,0,0,1.19-.32,12.63,12.63,0,0,0-.68-3.47c-.28-1.13-.54-2.26-.78-3.4a.73.73,0,0,0-.89-.52.76.76,0,0,0-.53.89Z" transform="translate(-14.8 -39.01)"/><path class="cls-1" d="M241,106.54a3.89,3.89,0,0,1,.47-.09l.24,0c-.12,0,.11,0,.15,0a6.68,6.68,0,0,1,1,0l.24,0h.1l.5.11.22.07.11,0,.05,0,0,0,.11,0,.23.14.2.12c-.12-.08,0,0,.05.06a1.21,1.21,0,0,1,.16.16c-.11-.12,0,0,0,.09s0-.13,0,0,0,0,0,0,0,.23,0,.09a1.42,1.42,0,0,1-.07.22c.06-.12-.05.08-.07.12s0,0,0,0l-.08.09-.09.08s-.11.1,0,0l0,0-.11.07a2,2,0,0,1-.25.14,4.93,4.93,0,0,1-.46.23l-.25.11h0l-.17.07a12,12,0,0,1-1.2.38l-.61.14a2.54,2.54,0,0,0-.71.27.66.66,0,0,0,.16,1.19,1.85,1.85,0,0,0,.81.07c.24,0,.47-.06.71-.11a10,10,0,0,0,1.3-.36,5,5,0,0,0,2.46-1.56,2,2,0,0,0-.33-2.69,4.46,4.46,0,0,0-2.34-1,8.36,8.36,0,0,0-2.95.16.8.8,0,0,0,.4,1.55Z" transform="translate(-14.8 -39.01)"/><path class="cls-1" d="M247.84,106.85a15,15,0,0,1,.47,5.93,2.83,2.83,0,0,1-.79,1.84c-.63.49-1.6.19-2.32.11a.7.7,0,0,0-.49,1.19,3.14,3.14,0,0,0,1.66.68,3.05,3.05,0,0,0,1.8-.36,3.65,3.65,0,0,0,1.62-2.52,14.6,14.6,0,0,0-.7-7.2.65.65,0,0,0-1.25.33Z" transform="translate(-14.8 -39.01)"/><path class="cls-1" d="M247.53,103.74l.17.15a.54.54,0,0,0,.26.16l.13,0h0a1.2,1.2,0,0,0,.2,0,.91.91,0,0,0,.35-.22.87.87,0,0,0,.19-.37,1,1,0,0,0,0-.43s0,0,0-.08a1.36,1.36,0,0,0-.1-.21.86.86,0,0,0-.2-.26,1,1,0,0,0-.2-.15,1,1,0,0,0-.23-.11H248l-.09,0a.78.78,0,0,0-.22,0h0l-.17.07h0l-.15.12h0l-.11.15-.07.17a.81.81,0,0,0,0,.41l0,.09a.3.3,0,0,0,0,.1l.06.08.07.09.14.1a.53.53,0,0,0,.24.08h.17a.47.47,0,0,0,.26-.08l.14-.11.11-.14a.51.51,0,0,0,.07-.24.46.46,0,0,0,0-.26h0l0,.18v0l0,.18a0,0,0,0,1,0,0l-.07.16v0l-.11.14c.05,0,.05,0,.13-.16a0,0,0,0,1,0,0l-.11.15a0,0,0,0,1,0,0l-.15.11,0,0-.17.07h0l-.17,0H248l-.17,0,.13,0-.15-.07.13.08-.13-.1.08.08-.09-.12a.25.25,0,0,1,0,.07l0-.13a0,0,0,0,0,0,0l0-.14v.07l0-.13s0,0,0,.07l.05-.12,0,.06.08-.11,0,.05.11-.08,0,0,.13,0H248l.13,0h0l.25.07-.23-.14a.48.48,0,0,0-.18-.06.37.37,0,0,0-.18,0l-.12,0a.47.47,0,0,0-.15.13.24.24,0,0,0-.06.11.39.39,0,0,0,0,.18.51.51,0,0,0,.15.35Z" transform="translate(-14.8 -39.01)"/><path class="cls-1" d="M251.26,108.08c1.06.33,2.35.58,3.17-.37a1.71,1.71,0,0,0-.71-2.62,2.17,2.17,0,0,0-2.72,1.12,2.24,2.24,0,0,0-.2,1.77,2.64,2.64,0,0,0,1.09,1.31,6.43,6.43,0,0,0,1.78.78,6.55,6.55,0,0,0,2.11.28.59.59,0,0,0,.16-1.16c-.44-.14-.89-.28-1.33-.44l-.66-.23-.3-.12c-.15-.06.16.07-.08,0l-.25-.11-.2-.08c-.14-.05.11,0,0,0l-.23-.11-.26-.14-.11-.07-.07,0,0,0-.09-.08-.11-.11s0-.1,0,0c0-.07-.08-.13-.11-.21s0,.14,0,0,0-.19,0-.11a1.19,1.19,0,0,1,.27-.88l.11-.12.09-.08,0,0,.21-.12h0l.18,0a.9.9,0,0,1,.69.27.53.53,0,0,1,.1.65c-.41.79-1.57.58-2.31.39a.4.4,0,0,0-.21.77Z" transform="translate(-14.8 -39.01)"/><path class="cls-1" d="M259,104.36a3.53,3.53,0,0,0-3.11,2.35,2.44,2.44,0,0,0,.34,2,3.6,3.6,0,0,0,1.73,1.21,4,4,0,0,0,2.54,0,.7.7,0,0,0-.17-1.38l-.15,0q.09,0,0,0l-.26,0-.25,0c-.1,0-.1,0,0,0l-.26,0a8.35,8.35,0,0,1-1-.28l-.06,0,.05,0s-.19-.09-.23-.11l-.15-.09-.11-.07.05,0-.13-.12-.08-.09c-.07-.08-.06-.06,0,0s-.08-.12-.09-.15a.47.47,0,0,1-.05-.1c.05.13.06.14,0,0s0-.27,0-.13,0-.09,0-.12,0-.08,0-.12c0,.11,0,.13,0,.07a1.66,1.66,0,0,1,.06-.21.36.36,0,0,1,0-.11c-.05.11-.05.12,0,0s.05-.11.08-.16l.07-.11c.06-.07.05-.06,0,0a1.74,1.74,0,0,0,.12-.14.86.86,0,0,1,.2-.18c-.17.08,0,0,0,0a3.3,3.3,0,0,1,.41-.23l.13,0c-.1,0-.11,0,0,0l.2-.07a4.94,4.94,0,0,1,.52-.13.8.8,0,0,0,.57-1,.82.82,0,0,0-1-.56Z" transform="translate(-14.8 -39.01)"/><path class="cls-1" d="M261.71,102.16a27.63,27.63,0,0,0,.07,3.28c.05.58.12,1.15.19,1.72,0,.28.08.55.14.83a2.11,2.11,0,0,0,.48.88.74.74,0,0,0,1.24-.33,3.85,3.85,0,0,0-.08-1.72c-.09-.49-.15-1-.2-1.49a23.81,23.81,0,0,1-.06-3.16.89.89,0,1,0-1.78,0Z" transform="translate(-14.8 -39.01)"/><path class="cls-1" d="M261.33,105.76H264a15.59,15.59,0,0,0,2.73-.11.64.64,0,0,0,.47-.61.65.65,0,0,0-.47-.62A10,10,0,0,0,264,104a24,24,0,0,0-2.68-.06.93.93,0,1,0,0,1.86Z" transform="translate(-14.8 -39.01)"/><path class="cls-1" d="M271.62,103.78a7,7,0,0,0-2.13.36.85.85,0,0,0-.61.78,2.2,2.2,0,0,0,1.33,1.72c.32.19.62.39.92.61l.08.06.22.18a3.9,3.9,0,0,1,.38.33.5.5,0,0,1,.07.08s-.09-.14,0,0,.14.2.12.2-.06-.16,0-.06,0-.06,0-.06,0,.09,0,.1,0-.14,0,0,.08-.13,0,0a.56.56,0,0,1-.05.08c-.07.14.1-.08,0,0l-.14.14c-.14.13,0,0,0,0s-.1.06-.11.07l-.39.21c-.09.05.07,0,.07,0l-.09,0-.26.08a2.7,2.7,0,0,1-.39.08c-.13,0,.16,0,0,0h-.34a4.6,4.6,0,0,0-.5,0s.17,0,.07,0l-.17,0-.23-.06c-.33-.09-.66-.15-1-.24a.69.69,0,0,0-.77,1,2.68,2.68,0,0,0,.91.86,3.31,3.31,0,0,0,1.3.35,4.2,4.2,0,0,0,2.31-.45,2.42,2.42,0,0,0,1.48-2c0-1-.86-1.63-1.6-2.14-.38-.27-.78-.5-1.18-.73l-.23-.12a.41.41,0,0,0-.11-.07c-.07,0,0,0,0,0a.76.76,0,0,0-.09-.09c-.12-.08.05.08,0,0a.2.2,0,0,1,0-.08s.05.32.05.12l-.61.78a6,6,0,0,1,.91-.22s.22,0,.15,0h.15l.51,0a.83.83,0,0,0,.83-.82.85.85,0,0,0-.82-.83Z" transform="translate(-14.8 -39.01)"/><path class="cls-1" d="M162,177.66c0,1.17,0,2.34.1,3.52,0,.56.06,1.13.11,1.69a3.22,3.22,0,0,0,.6,1.89.64.64,0,0,0,1-.13,3.16,3.16,0,0,0,.26-1.75c0-.58-.07-1.17-.1-1.76q-.09-1.73-.12-3.45a1,1,0,0,0-.92-.94.94.94,0,0,0-.93.93Z" transform="translate(-14.8 -39.01)"/><path class="cls-1" d="M164.2,182.11c.64-.49,1.29-1,2-1.39l1-.64c.45-.28,1-.53,1.15-1.06a.73.73,0,0,0-.13-.65.85.85,0,0,0-.59-.3,1.49,1.49,0,0,0-.8.26l-.5.32-1,.66c-.65.44-1.3.89-1.94,1.35a.85.85,0,0,0-.3,1.14.84.84,0,0,0,1.14.31Z" transform="translate(-14.8 -39.01)"/><path class="cls-1" d="M163.73,182.89a15.74,15.74,0,0,0,1.43,1.28c.31.23.62.45.94.66a4,4,0,0,0,.42.2,1.45,1.45,0,0,0,.57.17h.22a.71.71,0,0,0,.63-.36.73.73,0,0,0,0-.73,1.42,1.42,0,0,0-.35-.49c-.11-.1-.22-.21-.34-.3l-.74-.59a14.82,14.82,0,0,1-1.38-1.25,1,1,0,0,0-1.4,1.42Z" transform="translate(-14.8 -39.01)"/><path class="cls-1" d="M170.12,182.58c.57-.05,1.15-.08,1.73-.09l.85,0a1.59,1.59,0,0,0,1.18-.29.69.69,0,0,0,.1-.83.9.9,0,0,0-.47-.37l-.18-.06a4.22,4.22,0,0,0-.59-.09c-.29,0-.57-.06-.85-.07a14.78,14.78,0,0,0-1.76,0,.89.89,0,1,0,0,1.78Z" transform="translate(-14.8 -39.01)"/><path class="cls-1" d="M176.36,177.38c.24,1.19.44,2.4.59,3.6a19.57,19.57,0,0,0,.54,3.59c.19.58,1.16.7,1.29,0a12.06,12.06,0,0,0-.16-3.88c-.18-1.25-.41-2.49-.67-3.72a.82.82,0,1,0-1.59.41Z" transform="translate(-14.8 -39.01)"/><path class="cls-1" d="M176.08,181.1c.8.07,1.6.16,2.4.26l1.19.14.55,0a3.23,3.23,0,0,0,.64,0,.74.74,0,0,0,.69-.53.72.72,0,0,0-.33-.8,7.41,7.41,0,0,0-2.48-.74c-.88-.14-1.77-.25-2.65-.32a1,1,0,0,0-1,1,1,1,0,0,0,1,1Z" transform="translate(-14.8 -39.01)"/><path class="cls-1" d="M181.5,180.61c.45,1.65,1.62,3.71,3.52,3.86a2.45,2.45,0,0,0,2.3-1.34,3.5,3.5,0,0,0,.37-1.38,3.84,3.84,0,0,0,0-.76,2.57,2.57,0,0,0-.19-.67.57.57,0,0,0-1,0,4.88,4.88,0,0,0-.38,1.05c0,.16-.11.31-.17.47.07-.16-.05.09-.06.11l-.1.18c-.05.06-.09.14-.14.19l0,0-.15.14c-.15.14.16-.09,0,0l-.2.11q-.09,0,.09,0l-.1,0c-.22.05.11,0-.07,0h-.07c-.1,0-.09,0,0,0s-.18,0-.2,0c-.2-.05.11.07-.05,0l-.19-.1s-.24-.17-.15-.09-.11-.11-.13-.12l-.16-.16-.15-.17s-.13-.17,0,0a6.27,6.27,0,0,1-.55-.89l-.11-.21s-.11-.26,0-.08c-.07-.17-.13-.35-.19-.53a.87.87,0,1,0-1.68.44Z" transform="translate(-14.8 -39.01)"/><path class="cls-1" d="M188.41,181.54a42.88,42.88,0,0,1,.48,5.06,19.59,19.59,0,0,1,.07,2.17c0,.23-.12.45-.12.68a.57.57,0,0,0,.56.56c.77.06,1.08-.83,1.15-1.44a12.39,12.39,0,0,0-.06-2.28,37.77,37.77,0,0,0-.78-5.08c-.19-.86-1.43-.5-1.3.33Z" transform="translate(-14.8 -39.01)"/><path class="cls-1" d="M189,181.74a6,6,0,0,1,.67-.45,1,1,0,0,1,.17-.1l.07,0s.11-.05.06,0h0l.1,0,.2-.05c-.09,0,.06,0,.09,0s.19,0,.09,0l.15,0c-.07,0-.05,0,0,0l.08,0,.07,0c.08.05,0,0,0,0l.09.08.09.1c.06.06-.07-.11,0,0l0,.07.06.12s0,.07,0,.07-.05-.13,0-.06.07.2.09.3a.4.4,0,0,1,0,.15c0,.15,0-.1,0,0s0,.21,0,.32a.76.76,0,0,1,0,.15s0,.2,0,.08,0,.07,0,.1,0,.12,0,.19a2,2,0,0,0-.1.32s.06-.12,0-.06l0,.07a.22.22,0,0,0,0,.08c-.05.09,0,0,0,0l-.13.13c.07-.1.1-.07,0,0s-.13.06,0,0-.07,0-.09,0,.06,0,.06,0h-.15s.15,0,0,0l-.05,0c-.1,0,.07,0,0,0a1.07,1.07,0,0,0-.36-.16.49.49,0,0,0-.6.35.75.75,0,0,0,.17.7,1.17,1.17,0,0,0,.48.31,1.47,1.47,0,0,0,.95,0,1.75,1.75,0,0,0,.91-.74,2.4,2.4,0,0,0,.34-1.07,2.35,2.35,0,0,0-1.95-2.77,3.47,3.47,0,0,0-2.22,1,.52.52,0,0,0,0,.7.52.52,0,0,0,.68.14Z" transform="translate(-14.8 -39.01)"/><path class="cls-1" d="M193.1,175.8c.18,1.35.33,2.7.44,4.06a18.4,18.4,0,0,0,.51,4,.53.53,0,0,0,1-.13,15.17,15.17,0,0,0-.49-4.07c-.24-1.35-.49-2.69-.75-4-.09-.49-.8-.28-.74.19Z" transform="translate(-14.8 -39.01)"/><path class="cls-1" d="M196.75,182c1.16.32,2.6.7,3.66-.09a1.59,1.59,0,0,0,.72-1.42,1.69,1.69,0,0,0-.9-1.29,2.09,2.09,0,0,0-2.77,1.06,2.81,2.81,0,0,0,.41,3.3,3,3,0,0,0,1.85.78,4.94,4.94,0,0,0,.86,0,4.05,4.05,0,0,0,1-.24.69.69,0,0,0-.17-1.35l-.59,0c-.2,0-.4,0-.6,0h-.3s-.34,0-.14,0a5.59,5.59,0,0,1-.56-.12c-.13,0,0,0,0,0l-.11-.06-.24-.13c-.1-.06.12.12,0,0l-.09-.09-.09-.1c.1.12,0,0,0-.06s-.12-.25-.07-.13a1.4,1.4,0,0,1-.09-.29,1.72,1.72,0,0,1,0-.53,2.06,2.06,0,0,1,.11-.45,2.49,2.49,0,0,1,.23-.37.89.89,0,0,1,.72-.38.81.81,0,0,1,.61.4.5.5,0,0,1-.21.55,1.21,1.21,0,0,1-.49.22,2.25,2.25,0,0,1-.66.08,7.63,7.63,0,0,1-1.71-.28.54.54,0,0,0-.28,1Z" transform="translate(-14.8 -39.01)"/><path class="cls-1" d="M209.49,180.22q1.74.12,3.48.15a11.26,11.26,0,0,0,3.48-.26c.41-.13.48-.8,0-.9a17.48,17.48,0,0,0-3.47-.06c-1.16,0-2.32,0-3.49,0-.72,0-.71,1.06,0,1.11Z" transform="translate(-14.8 -39.01)"/><path class="cls-1" d="M209.88,183.15c1.4.06,2.81.1,4.22.09a9.52,9.52,0,0,0,4.11-.54.46.46,0,0,0-.1-.83,12.76,12.76,0,0,0-4.09,0c-1.38.09-2.75.13-4.14.1a.57.57,0,0,0,0,1.13Z" transform="translate(-14.8 -39.01)"/><path class="cls-1" d="M225.93,179.41a2.8,2.8,0,0,0-.36,3.28,3.53,3.53,0,0,0,3.33,1.63c1.26-.08,2.76-.76,3-2.12.31-1.55-1.13-2.57-2.36-3.13a3.57,3.57,0,0,0-2.5-.33,1.91,1.91,0,0,0-1.4,1.71c0,.46.71.69.9.24a1.46,1.46,0,0,1,.9-.78,2.19,2.19,0,0,1,1.38.05c.79.24,2.16.83,2,1.88a1.25,1.25,0,0,1-.61.79,3,3,0,0,1-1.18.42,2.93,2.93,0,0,1-2.51-.69,1.69,1.69,0,0,1,0-2.36c.39-.37-.2-1-.6-.59Z" transform="translate(-14.8 -39.01)"/><path class="cls-1" d="M233.05,183.28l0,.26c.1.48.81.35.83-.1,0,0,0,0,0-.05a.21.21,0,0,0,0-.11.63.63,0,0,0,0-.19,2.76,2.76,0,0,0-.08-.27,4.48,4.48,0,0,0-.29-.58c-.09-.17-.19-.33-.28-.51a.8.8,0,0,1-.06-.2s0-.11,0-.05a.75.75,0,0,1,0-.15c0,.09.05-.19,0-.1a.61.61,0,0,1,.07-.14s.11-.14,0-.05a1.8,1.8,0,0,1,.19-.2c.13-.12-.1.07,0,0l.14-.1a2.34,2.34,0,0,1,.27-.15c-.11.06.07,0,.08,0l.25-.1.15-.07.08,0,.42-.2a.48.48,0,0,0-.12-.87,2.25,2.25,0,0,0-1.78.33,1.91,1.91,0,0,0-.86,1.46,2.53,2.53,0,0,0,.42,1.36c.1.19.22.37.31.56a2.1,2.1,0,0,1,.2.56l.77-.32-.11-.23c-.2-.41-.79-.12-.71.29Z" transform="translate(-14.8 -39.01)"/><path class="cls-1" d="M237.79,180.57c-.61,1-.92,2.39.11,3.22a1.86,1.86,0,0,0,1.69.31,2.07,2.07,0,0,0,1.33-1.28,4,4,0,0,0-.7-3.46,16,16,0,0,0-2.19-3.31.64.64,0,0,0-1.06.61,11.46,11.46,0,0,0,1.27,2.64,7,7,0,0,1,1.15,2.34,1,1,0,0,1-.12.71.49.49,0,0,1-.41.22c.09,0-.09,0,0,0s0,0,0,0a.44.44,0,0,1-.07-.19,1.77,1.77,0,0,1,.38-1c.51-.82-.8-1.57-1.3-.75Z" transform="translate(-14.8 -39.01)"/><path class="cls-1" d="M242.29,182.65a4.5,4.5,0,0,0,1.78.29,3.12,3.12,0,0,0,1.66-.48,1.55,1.55,0,0,0-.25-2.58,2.11,2.11,0,0,0-2.79,1,3.23,3.23,0,0,0-.35,1.75,2.09,2.09,0,0,0,1,1.69,3.87,3.87,0,0,0,1.88.48,8,8,0,0,0,1.09,0,2.76,2.76,0,0,0,.64-.1,4.29,4.29,0,0,0,.59-.24.66.66,0,0,0-.33-1.23,5,5,0,0,0-.67,0c-.26,0-.51,0-.77,0l-.63,0-.22,0-.28,0c.12,0,0,0,0,0l-.24-.05s-.28-.1-.13,0l-.23-.13,0,0-.12-.12c.1.09,0,0,0,0l-.08-.14c0,.1,0-.12,0-.16a1.87,1.87,0,0,1,0-.55,1.25,1.25,0,0,1,1-1.24c.5-.07.9.6.5.93a2.2,2.2,0,0,1-1.14.37,3,3,0,0,1-1.43-.21.48.48,0,0,0-.67.23.47.47,0,0,0,.31.64Z" transform="translate(-14.8 -39.01)"/><path class="cls-1" d="M250.08,183.61a6.65,6.65,0,0,1-.82-1.56,3.59,3.59,0,0,1-.21-.81.84.84,0,0,1,0-.39c0,.09,0,0,0-.07s.13-.16,0-.05l.12-.13c.11-.11-.1.05,0,0l.3-.16c.06,0,0,0,0,0l.09,0,.15,0,.19,0s.19,0,.07,0l1-.11a3.87,3.87,0,0,0,1.06-.23.62.62,0,0,0,.44-.65.59.59,0,0,0-.58-.52,11.93,11.93,0,0,0-2.39,0,2.62,2.62,0,0,0-1.69,1.16,2.59,2.59,0,0,0,.17,2.37,8.75,8.75,0,0,0,1.21,1.9c.36.44,1.13-.15.79-.61Z" transform="translate(-14.8 -39.01)"/><path class="cls-1" d="M258.67,183.07a2.55,2.55,0,0,1-.4-1.66,1.72,1.72,0,0,1,.66-1.41c.82-.41,1,2.2,1,2.62l.85-.65s.09.09.1.09,0-.07,0-.07a.76.76,0,0,1,0-.3,3.11,3.11,0,0,1,.29-.94,3.75,3.75,0,0,1,.44-.72s-.07,0-.05,0a.23.23,0,0,1,.1.07,1.69,1.69,0,0,1,.26.28,5.43,5.43,0,0,1,.79,1.69,7.44,7.44,0,0,1,.19.88c0,.2,0,.4.07.6a1,1,0,0,0,.48.67.7.7,0,0,0,.82-.11c.49-.43.31-1.18.16-1.74a7.49,7.49,0,0,0-.5-1.37,7.1,7.1,0,0,0-.82-1.3,2,2,0,0,0-1.14-.79c-1.14-.21-1.54,1.06-1.85,1.9s-.74,2.08.36,2.48a.68.68,0,0,0,.86-.65,7,7,0,0,0-.86-2.59,1.38,1.38,0,0,0-1.8-.78,2.29,2.29,0,0,0-1.07,1.82,6.17,6.17,0,0,0,.2,2.49.54.54,0,0,0,.77.32.53.53,0,0,0,.1-.82Z" transform="translate(-14.8 -39.01)"/><path class="cls-1" d="M269.33,180.75a1.83,1.83,0,0,0-1.6-.84,2.13,2.13,0,0,0-1.78,1,3,3,0,0,0-.41,2.18,1.44,1.44,0,0,0,2.13,1.06c.86-.48,1.24-1.45,1.78-2.21l-1.39-.57a2.62,2.62,0,0,0,.94,3,2.69,2.69,0,0,0,1.41.38,2.92,2.92,0,0,0,1.45-.34.69.69,0,0,0-.16-1.25,10.77,10.77,0,0,0-1.14-.15l-.22,0h-.06l-.27-.08c-.17,0,.12.08,0,0l-.18-.1c.19.11,0-.05-.05-.07s0,0,0,0l-.09-.14c-.1-.19,0,.12,0-.09a2.3,2.3,0,0,1-.06-.28c0-.05,0-.05,0,0a1,1,0,0,1,0-.17c0-.23,0-.46-.06-.7-.09-.75-1.32-.71-1.46,0a2.52,2.52,0,0,1-1.06,1.44.13.13,0,0,1-.07,0s.16,0,.07,0l0,0,0-.05c0,.07,0,.07,0,0l0-.06c.07.12,0-.05,0-.09s0-.14,0-.21c0,.09,0-.12,0-.12v-.23a1.36,1.36,0,0,1,.66-1.14,1,1,0,0,1,1.21.24c.27.32.8-.1.59-.45Z" transform="translate(-14.8 -39.01)"/><path class="cls-1" d="M272.58,176.89c.23,1.24.44,2.49.63,3.74.09.61.15,1.23.26,1.83a7.19,7.19,0,0,0,.52,1.88.66.66,0,0,0,1.2-.16,6.1,6.1,0,0,0,0-2c-.06-.65-.18-1.29-.29-1.92-.21-1.27-.45-2.53-.71-3.79a.83.83,0,0,0-1.61.42Z" transform="translate(-14.8 -39.01)"/><path class="cls-1" d="M275.83,177.62l.48,3.61a16.68,16.68,0,0,0,.73,3.56.75.75,0,0,0,1.46-.19,17.31,17.31,0,0,0-.25-3.8c-.16-1.22-.33-2.45-.49-3.68a1,1,0,0,0-1.22-.72,1,1,0,0,0-.71,1.22Z" transform="translate(-14.8 -39.01)"/><path class="cls-1" d="M271.81,180.39c1.52.13,3,.21,4.56.22.73,0,1.45,0,2.19-.09s1.75,0,2.17-.55a.47.47,0,0,0,0-.65c-.58-.46-1.48-.22-2.17-.17l-2.19.17a43.14,43.14,0,0,1-4.55.13c-.62,0-.61.89,0,.94Z" transform="translate(-14.8 -39.01)"/><path class="cls-1" d="M282.35,183a3.86,3.86,0,0,0,3-.41,1.71,1.71,0,0,0,.94-1.11,1,1,0,0,0-.82-1.13,2.54,2.54,0,0,0-2.62,1,2.3,2.3,0,0,0,.34,2.92,2.88,2.88,0,0,0,1.69.75,4.39,4.39,0,0,0,1.93-.25.54.54,0,0,0,.4-.59.56.56,0,0,0-.54-.48c-.2,0-.41,0-.62-.06l-.31,0-.12,0h-.08l-.27,0c-.15,0-.07,0,0,0l-.29-.06-.24-.07s-.11,0,0,0l-.21-.08c.16.07-.06,0-.1-.06l-.21-.13c.13.09,0,0-.08-.08s-.17-.2-.09-.08l-.13-.21c-.06-.12,0,0,0,0l0-.12c0-.05,0-.25,0-.13a1.31,1.31,0,0,1,0-.28c0-.07,0,0,0,0l0-.12a1.05,1.05,0,0,1,.06-.24c0,.06.06-.11.08-.13a.5.5,0,0,1,.11-.16,1.42,1.42,0,0,1,.74-.45c.14,0,.6-.12.68,0s-.42.48-.55.55a3.84,3.84,0,0,1-2.34.29.47.47,0,0,0-.24.91Z" transform="translate(-14.8 -39.01)"/><path class="cls-1" d="M289.84,183.75a5.47,5.47,0,0,1-.69-1.08l-.09-.29a1.42,1.42,0,0,1,0-.2s0-.1,0,0v-.22a1.16,1.16,0,0,1,.08-.32v0a.64.64,0,0,1,.08-.14s.09-.12,0,0l.11-.13.11-.11.08-.07.08-.06.21-.16,0,0,.14-.08c.1-.06.2-.1.29-.16a5.93,5.93,0,0,1,.56-.29c.4-.16.26-.79-.11-.88a2.4,2.4,0,0,0-.84-.07,2.43,2.43,0,0,0-.93.34,2.53,2.53,0,0,0-1.12,1.48c-.33,1.21.52,2.29,1.27,3.15.35.4,1.09-.15.76-.59Z" transform="translate(-14.8 -39.01)"/><path class="cls-1" d="M294.73,179.09a8.19,8.19,0,0,0-1.43.53,2.72,2.72,0,0,0-1.22.91c-.64,1.09.41,1.95,1.14,2.6l.53.47c.07.07.15.13.21.2l.1.11c-.07-.09-.08-.1,0,0s0,.08,0,0,0-.13,0,0c0-.06.1-.28,0-.15.08-.1.09-.12,0-.05s-.06.06,0,0a.77.77,0,0,1-.24.12l0,0-.15.05-.33.08-.18,0c-.11,0-.22,0-.33,0a5.15,5.15,0,0,1-.68,0,1.93,1.93,0,0,0-.79.09.79.79,0,0,0-.35,1.31,1.56,1.56,0,0,0,.64.41,3.27,3.27,0,0,0,.7.09,4.73,4.73,0,0,0,1.25-.1,2.69,2.69,0,0,0,1.95-1.13,1.57,1.57,0,0,0,0-1.43,2.67,2.67,0,0,0-.73-.84l-.87-.7-.38-.32-.09-.09s-.09-.1,0,0,0,0,0,0l0-.06.06.22a.36.36,0,0,1-.13.24c-.05.07,0,0,0,0a.8.8,0,0,0,.16-.08l.12-.05c-.09,0-.05,0,0,0l.28-.11a8.41,8.41,0,0,1,1.19-.33,1,1,0,0,0,.69-1.17,1,1,0,0,0-1.17-.68Z" transform="translate(-14.8 -39.01)"/><path class="cls-1" d="M257.94,188.13c8.81.38,17.61.74,26.42.89,2.49,0,5,.06,7.48,0a.47.47,0,0,0,0-.93c-4.39-.25-8.8-.3-13.21-.41l-13.21-.34c-2.49-.07-5-.16-7.47-.25-.68,0-.68,1,0,1Z" transform="translate(-14.8 -39.01)"/><path class="cls-1" d="M266.25,192.34c3.62.21,7.26.19,10.89.22s7.26,0,10.89-.12a.36.36,0,0,0,0-.71c-3.63-.14-7.27-.2-10.9-.2s-7.27-.05-10.89.13a.34.34,0,0,0,0,.68Z" transform="translate(-14.8 -39.01)"/><path class="cls-1" d="M272.2,197.16c3.16,0,6.32.12,9.48.16.67,0,.65-1,0-1-3.16-.29-6.31-.41-9.48-.44a.65.65,0,0,0,0,1.3Z" transform="translate(-14.8 -39.01)"/></svg>