<?xml version="1.0" encoding="utf-8"?>
<!-- Generator: Adobe Illustrator 26.0.2, SVG Export Plug-In . SVG Version: 6.00 Build 0)  -->
<svg version="1.1" id="Layer_1" xmlns="http://www.w3.org/2000/svg" xmlns:xlink="http://www.w3.org/1999/xlink" x="0px" y="0px"
	 viewBox="0 0 300 53.22" style="enable-background:new 0 0 300 53.22;" xml:space="preserve">
<style type="text/css">
	.st0{fill:#486AFB;}
	.st1{fill:#FD46FC;}
</style>
<g>
	<g>
		<path class="st0" d="M44.38,19.87c0.66,1.69,1.41,3.33,2.27,4.93c0.19,0.34,0.39,0.7,0.8,0.8c0.43,0.11,0.8-0.17,1.01-0.52
			c0.22-0.36,0.36-0.79,0.52-1.18c0.17-0.41,0.32-0.83,0.46-1.25c0.32-0.96,0.58-1.93,0.79-2.92c0.13-0.63-0.84-0.9-0.96-0.27
			c-0.19,0.94-0.44,1.87-0.74,2.78c-0.15,0.46-0.31,0.91-0.49,1.35c-0.09,0.21-0.17,0.43-0.27,0.64c-0.05,0.1-0.11,0.21-0.15,0.32
			c-0.04,0.12-0.09,0.06,0,0.09c0.13,0.04,0.07-0.02,0.03-0.09c-0.06-0.1-0.11-0.2-0.16-0.3c-0.11-0.21-0.23-0.43-0.34-0.64
			c-0.22-0.43-0.44-0.87-0.64-1.3c-0.42-0.88-0.8-1.78-1.16-2.69c-0.1-0.25-0.34-0.43-0.62-0.35
			C44.49,19.33,44.28,19.62,44.38,19.87L44.38,19.87z"/>
	</g>
</g>
<g>
	<g>
		<path class="st0" d="M49.57,26.47c0.1,0.46,0.2,0.92,0.31,1.38c0.06,0.26,0.37,0.43,0.62,0.35c0.27-0.09,0.41-0.34,0.35-0.62
			c-0.1-0.46-0.2-0.92-0.31-1.38c-0.06-0.26-0.37-0.43-0.62-0.35C49.65,25.94,49.51,26.19,49.57,26.47L49.57,26.47z"/>
	</g>
</g>
<g>
	<g>
		<path class="st0" d="M58.5,20.31c0.06,1.37,0.18,2.74,0.36,4.1c0.03,0.27,0.21,0.5,0.5,0.5c0.24,0,0.53-0.23,0.5-0.5
			c-0.17-1.36-0.29-2.73-0.36-4.1c-0.01-0.27-0.22-0.5-0.5-0.5C58.74,19.81,58.49,20.04,58.5,20.31L58.5,20.31z"/>
	</g>
</g>
<g>
	<g>
		<path class="st0" d="M56.35,23.07c1.87,0,3.74-0.09,5.61-0.25c0.27-0.02,0.5-0.21,0.5-0.5c0-0.25-0.23-0.52-0.5-0.5
			c-1.87,0.17-3.74,0.25-5.61,0.25C55.71,22.07,55.71,23.07,56.35,23.07L56.35,23.07z"/>
	</g>
</g>
<g>
	<g>
		<path class="st0" d="M62.51,21.68c-0.69-1.26-1.98-2.16-3.4-2.37c-0.76-0.11-1.6-0.06-2.26,0.37c-0.64,0.42-1.15,1.11-1.45,1.81
			c-0.33,0.76-0.34,1.59,0.09,2.31c0.38,0.64,1,1.11,1.67,1.4c1.28,0.55,2.93,0.56,4.25,0.12c0.73-0.24,1.42-0.71,1.64-1.48
			c0.23-0.81-0.11-1.63-0.76-2.13c-0.22-0.16-0.56-0.03-0.68,0.18c-0.15,0.26-0.03,0.52,0.18,0.68c0.33,0.25,0.43,0.77,0.25,1.13
			c-0.21,0.43-0.73,0.62-1.17,0.73c-0.99,0.25-2.11,0.27-3.08-0.06c-1.01-0.34-1.94-1.26-1.51-2.39c0.19-0.5,0.56-1.05,1-1.37
			c0.45-0.34,1.06-0.39,1.61-0.32c1.17,0.15,2.21,0.88,2.77,1.9C61.95,22.75,62.82,22.24,62.51,21.68L62.51,21.68z"/>
	</g>
</g>
<g>
	<g>
		<g>
			<path class="st0" d="M66.58,20.05c0.51,1.72,1.3,3.34,2.35,4.79c0.27,0.37,0.75,0.29,0.91-0.12c0.77-1.85,1.75-3.61,2.9-5.25
				c0.16-0.22,0.04-0.56-0.18-0.68c-0.25-0.15-0.53-0.04-0.68,0.18c-1.2,1.71-2.2,3.55-3,5.49c0.3-0.04,0.61-0.08,0.91-0.12
				c-1-1.39-1.76-2.92-2.25-4.55C67.36,19.17,66.4,19.43,66.58,20.05L66.58,20.05z"/>
		</g>
	</g>
	<g>
		<g>
			<path class="st0" d="M71.51,25.58c0.28-0.19,0.59-0.33,0.93-0.37c0.15-0.02,0.26,0,0.38,0.02c-0.04-0.03-0.04-0.03,0.01,0.01
				c-0.03-0.04-0.03-0.04,0,0.01c-0.01-0.09,0.01,0.03,0.01,0.06c-0.02-0.09,0,0.08,0,0.11c-0.01,0.06-0.01,0.07,0,0.02
				c-0.01,0.03-0.01,0.07-0.02,0.1c-0.03,0.1-0.04,0.14-0.12,0.25c-0.19,0.27-0.47,0.49-0.67,0.76c-0.25,0.33-0.49,0.77-0.22,1.16
				c0.25,0.37,0.81,0.37,1.2,0.43c0.83,0.11,1.66,0.08,2.49-0.03c0.27-0.04,0.41-0.38,0.35-0.62c-0.08-0.29-0.35-0.39-0.62-0.35
				c-0.48,0.07-0.97,0.08-1.45,0.06c-0.24-0.01-0.49-0.03-0.73-0.06c-0.11-0.01-0.22-0.03-0.33-0.05c-0.1-0.02-0.18-0.03-0.23-0.06
				c0.06,0.06,0.12,0.12,0.18,0.18c0.1,0.13-0.04,0.23,0.05,0.11c0.04-0.05,0.06-0.11,0.1-0.16c0.05-0.07,0.12-0.14,0.19-0.21
				c0.17-0.18,0.34-0.35,0.48-0.54c0.29-0.38,0.43-0.88,0.33-1.36c-0.29-1.28-2.03-0.85-2.8-0.33c-0.22,0.15-0.32,0.44-0.18,0.68
				C70.96,25.62,71.29,25.73,71.51,25.58L71.51,25.58z"/>
		</g>
	</g>
</g>
<g>
	<g>
		<g>
			<path class="st0" d="M66.58,20.05c0.51,1.72,1.3,3.34,2.35,4.79c0.27,0.37,0.75,0.29,0.91-0.12c0.77-1.85,1.75-3.61,2.9-5.25
				c0.16-0.22,0.04-0.56-0.18-0.68c-0.25-0.15-0.53-0.04-0.68,0.18c-1.2,1.71-2.2,3.55-3,5.49c0.3-0.04,0.61-0.08,0.91-0.12
				c-1-1.39-1.76-2.92-2.25-4.55C67.36,19.17,66.4,19.43,66.58,20.05L66.58,20.05z"/>
		</g>
	</g>
	<g>
		<g>
			<path class="st0" d="M71.51,25.58c0.28-0.19,0.59-0.33,0.93-0.37c0.15-0.02,0.26,0,0.38,0.02c-0.04-0.03-0.04-0.03,0.01,0.01
				c-0.03-0.04-0.03-0.04,0,0.01c-0.01-0.09,0.01,0.03,0.01,0.06c-0.02-0.09,0,0.08,0,0.11c-0.01,0.06-0.01,0.07,0,0.02
				c-0.01,0.03-0.01,0.07-0.02,0.1c-0.03,0.1-0.04,0.14-0.12,0.25c-0.19,0.27-0.47,0.49-0.67,0.76c-0.25,0.33-0.49,0.77-0.22,1.16
				c0.25,0.37,0.81,0.37,1.2,0.43c0.83,0.11,1.66,0.08,2.49-0.03c0.27-0.04,0.41-0.38,0.35-0.62c-0.08-0.29-0.35-0.39-0.62-0.35
				c-0.48,0.07-0.97,0.08-1.45,0.06c-0.24-0.01-0.49-0.03-0.73-0.06c-0.11-0.01-0.22-0.03-0.33-0.05c-0.1-0.02-0.18-0.03-0.23-0.06
				c0.06,0.06,0.12,0.12,0.18,0.18c0.1,0.13-0.04,0.23,0.05,0.11c0.04-0.05,0.06-0.11,0.1-0.16c0.05-0.07,0.12-0.14,0.19-0.21
				c0.17-0.18,0.34-0.35,0.48-0.54c0.29-0.38,0.43-0.88,0.33-1.36c-0.29-1.28-2.03-0.85-2.8-0.33c-0.22,0.15-0.32,0.44-0.18,0.68
				C70.96,25.62,71.29,25.73,71.51,25.58L71.51,25.58z"/>
		</g>
	</g>
</g>
<g>
	<g>
		<path class="st0" d="M82.09,19.59c0.14,0.96,0.23,1.93,0.28,2.91c0.02,0.47,0.03,0.94,0.03,1.41c0,0.44,0.05,0.95-0.13,1.36
			c-0.11,0.25-0.07,0.54,0.18,0.68c0.21,0.12,0.57,0.07,0.68-0.18c0.22-0.49,0.26-0.98,0.26-1.51c0.01-0.55,0-1.1-0.03-1.64
			c-0.05-1.1-0.16-2.2-0.32-3.29c-0.04-0.27-0.38-0.41-0.62-0.35C82.15,19.06,82.05,19.32,82.09,19.59L82.09,19.59z"/>
	</g>
</g>
<g>
	<g>
		<path class="st0" d="M79.6,23.02c2.38,0.29,4.78,0.35,7.17,0.18c0.64-0.05,0.64-1.05,0-1c-2.39,0.17-4.79,0.11-7.17-0.18
			c-0.27-0.03-0.5,0.25-0.5,0.5C79.1,22.82,79.33,22.99,79.6,23.02L79.6,23.02z"/>
	</g>
</g>
<g>
	<g>
		<path class="st0" d="M82.01,19.07c-1.6,0.33-2.74,1.77-2.78,3.39c-0.02,0.83,0.25,1.71,0.81,2.34c0.53,0.6,1.34,0.9,2.1,1.04
			c1.51,0.27,3.28,0.01,4.36-1.19c0.97-1.08,1.3-2.79,0.4-4.02c-0.52-0.72-1.32-1.16-2.13-1.47c-0.93-0.34-1.96-0.45-2.91-0.14
			c-0.61,0.2-0.35,1.17,0.27,0.96c1.18-0.39,2.69,0.01,3.62,0.83c0.84,0.75,0.87,1.88,0.29,2.8c-0.65,1.02-1.92,1.36-3.07,1.3
			c-0.58-0.03-1.2-0.15-1.71-0.44c-0.56-0.32-0.88-0.88-0.98-1.51c-0.24-1.38,0.65-2.67,2.01-2.95
			C82.9,19.91,82.64,18.94,82.01,19.07L82.01,19.07z"/>
	</g>
</g>
<g>
	<g>
		<path class="st0" d="M90.91,20.26c0.34,1.45,0.96,2.83,1.84,4.04c0.26,0.36,0.76,0.3,0.91-0.12c0.59-1.57,1.36-3.06,2.28-4.46
			c0.15-0.23,0.04-0.55-0.18-0.68c-0.24-0.14-0.54-0.05-0.68,0.18c-0.97,1.47-1.76,3.05-2.38,4.7c0.3-0.04,0.61-0.08,0.91-0.12
			c-0.83-1.14-1.42-2.42-1.74-3.8C91.73,19.36,90.77,19.63,90.91,20.26L90.91,20.26z"/>
	</g>
</g>
<g>
	<g>
		<path class="st0" d="M95.36,25.03c0.04-0.04,0.05-0.04,0.01-0.01c0.03-0.02,0.05-0.04,0.08-0.05c0.03-0.02,0.05-0.03,0.08-0.04
			c-0.05,0.02-0.04,0.02,0.01,0c0.05-0.01,0.09-0.03,0.14-0.04c0.06-0.01,0.06-0.01,0.01,0c0.03,0,0.06,0,0.09,0
			c0.03,0,0.06,0,0.09,0c-0.05-0.01-0.05-0.01,0.01,0c0.05,0.01,0.09,0.02,0.14,0.04c0.05,0.01,0.1,0.07,0.16,0.1
			c0.02,0.03,0.02,0.02,0-0.01c-0.01-0.02-0.01-0.04-0.01-0.07c0.01-0.05,0.01-0.05,0,0.01c0.02-0.05,0.02-0.04-0.01,0.01
			c0.06-0.06-0.05,0.05-0.05,0.05c0.04-0.04-0.09,0.06-0.11,0.07c-0.26,0.14-0.52,0.24-0.74,0.44c-0.2,0.18-0.19,0.52,0,0.71
			c0.21,0.21,0.46,0.33,0.72,0.46c0.06,0.03,0.12,0.07,0.18,0.11c-0.07-0.05,0.06,0.07,0.08,0.08c-0.03-0.04-0.03-0.03,0,0.02
			c0.03,0.05,0.03,0.06,0.01,0.01c0.01,0.06,0.02,0.06,0.01,0c0,0.05,0,0.06,0,0.02c0-0.02,0.01-0.04,0.02-0.06
			c0.04-0.04,0.03-0.03-0.01,0.01c0.07-0.04-0.09,0.04-0.11,0.05c-0.14,0.07-0.28,0.13-0.42,0.19c-0.27,0.12-0.57,0.23-0.85,0.33
			c-0.25,0.09-0.42,0.34-0.35,0.62c0.07,0.24,0.36,0.44,0.62,0.35c0.4-0.14,0.79-0.3,1.18-0.47c0.38-0.17,0.8-0.34,0.9-0.79
			c0.09-0.4-0.1-0.83-0.41-1.1c-0.15-0.12-0.31-0.21-0.48-0.3c-0.08-0.04-0.16-0.08-0.23-0.12c-0.03-0.02-0.06-0.04-0.09-0.06
			c0.06,0.04-0.05-0.05-0.06-0.06c0,0.24,0,0.47,0,0.71c0.09-0.09-0.05,0.01,0.06-0.05c0.03-0.02,0.06-0.04,0.09-0.05
			c0.09-0.05,0.18-0.08,0.26-0.13c0.19-0.09,0.37-0.2,0.5-0.36c0.35-0.4,0.39-0.94,0.01-1.34c-0.59-0.61-1.63-0.55-2.23,0.01
			c-0.2,0.18-0.19,0.52,0,0.71C94.85,25.23,95.17,25.22,95.36,25.03L95.36,25.03z"/>
	</g>
</g>
<g>
	<g>
		<path class="st1" d="M55.48,35.4c-0.76,1.25-1.43,2.81-1.46,4.3c-0.03,1.5,1.13,2.3,2.36,2.85c0.25,0.11,0.54,0.07,0.68-0.18
			c0.13-0.21,0.07-0.57-0.18-0.68c-0.46-0.21-0.95-0.42-1.33-0.76c-0.44-0.39-0.57-0.87-0.52-1.45c0.12-1.25,0.67-2.51,1.31-3.57
			C56.68,35.35,55.82,34.85,55.48,35.4L55.48,35.4z"/>
	</g>
</g>
<g>
	<g>
		<path class="st1" d="M57.64,39.44c0.51,0.62,1.11,1.16,1.78,1.62c0.23,0.16,0.55,0.03,0.68-0.18c0.57-0.88,1.03-1.83,1.4-2.81
			c0.09-0.25-0.1-0.56-0.35-0.62c-0.28-0.06-0.52,0.09-0.62,0.35c-0.17,0.47-0.33,0.83-0.56,1.29c-0.22,0.44-0.47,0.87-0.74,1.28
			c0.23-0.06,0.46-0.12,0.68-0.18c-0.31-0.21-0.52-0.38-0.81-0.65c-0.27-0.25-0.53-0.53-0.76-0.81c-0.17-0.2-0.54-0.19-0.71,0
			C57.44,38.95,57.46,39.23,57.64,39.44L57.64,39.44z"/>
	</g>
</g>
<g>
	<g>
		<path class="st1" d="M61.69,41.31c0.07,0.45,0.14,0.91,0.21,1.36c0.02,0.12,0.13,0.24,0.23,0.3c0.11,0.06,0.27,0.09,0.39,0.05
			c0.12-0.04,0.24-0.11,0.3-0.23c0.02-0.04,0.03-0.08,0.05-0.12c0.02-0.09,0.02-0.18,0-0.27c-0.07-0.45-0.14-0.91-0.21-1.36
			c-0.02-0.12-0.13-0.24-0.23-0.3c-0.11-0.06-0.27-0.09-0.39-0.05c-0.12,0.04-0.24,0.11-0.3,0.23c-0.02,0.04-0.03,0.08-0.05,0.12
			C61.67,41.14,61.67,41.23,61.69,41.31L61.69,41.31z"/>
	</g>
</g>
<g>
	<g>
		<path class="st1" d="M65.34,41c0.06,0.16,0.11,0.33,0.13,0.5c-0.01-0.04-0.01-0.09-0.02-0.13c0.02,0.19,0.03,0.38,0,0.57
			c0.01-0.04,0.01-0.09,0.02-0.13c-0.02,0.17-0.07,0.34-0.13,0.5c-0.04,0.11-0.01,0.28,0.05,0.39c0.06,0.1,0.18,0.2,0.3,0.23
			c0.13,0.03,0.27,0.02,0.39-0.05c0.12-0.07,0.18-0.17,0.23-0.3c0.23-0.57,0.22-1.26,0-1.83c-0.05-0.13-0.11-0.23-0.23-0.3
			c-0.11-0.06-0.27-0.09-0.39-0.05c-0.12,0.04-0.24,0.11-0.3,0.23C65.33,40.73,65.29,40.88,65.34,41L65.34,41z"/>
	</g>
</g>
<g>
	<g>
		<path class="st1" d="M68.11,38.93c0.37,0.67,0.86,1.27,1.43,1.77c0.23,0.2,0.62,0.2,0.79-0.1c0.49-0.91,0.97-1.81,1.46-2.72
			c0.12-0.23,0.07-0.55-0.18-0.68c-0.23-0.12-0.55-0.07-0.68,0.18c-0.49,0.91-0.97,1.81-1.46,2.72c0.26-0.03,0.52-0.07,0.79-0.1
			c-0.27-0.23-0.51-0.48-0.74-0.76c-0.03-0.03-0.05-0.06-0.08-0.09c-0.03-0.04,0.03,0.04-0.02-0.03c-0.06-0.08-0.11-0.16-0.17-0.24
			c-0.1-0.15-0.19-0.3-0.28-0.45c-0.13-0.23-0.46-0.32-0.68-0.18C68.06,38.39,67.97,38.68,68.11,38.93L68.11,38.93z"/>
	</g>
</g>
<g>
	<g>
		<path class="st1" d="M72.4,41.16c0.09-0.1-0.05,0.02,0.02-0.02c-0.07,0.03-0.09,0.04-0.05,0.03c0.04-0.01,0.02-0.01-0.06,0.01
			c0.02,0,0.04,0,0.06,0c-0.08-0.01-0.1-0.01-0.04,0c0.09,0.02-0.09-0.06,0,0c0.01,0.01,0.08,0.04,0.08,0.05
			c-0.06-0.04-0.06-0.05-0.02-0.01c0.02,0.02,0.03,0.03,0.05,0.05c-0.04-0.05-0.05-0.07-0.03-0.03c0.01,0.01,0.02,0.03,0.03,0.04
			c0.02,0.05,0.02,0.04-0.01-0.03c0.01,0.02,0.01,0.04,0.02,0.06c-0.02-0.08,0,0.03,0,0.06c0,0.03,0,0.06,0,0.1
			c0.01-0.05,0.01-0.05,0-0.01c-0.02,0.1-0.05,0.21-0.08,0.31c-0.08,0.24-0.18,0.47-0.2,0.73c-0.02,0.31,0.13,0.6,0.4,0.75
			c0.23,0.12,0.49,0.13,0.75,0.13c0.51,0.01,1.01-0.01,1.52-0.08c0.26-0.03,0.51-0.21,0.5-0.5c-0.01-0.24-0.22-0.54-0.5-0.5
			c-0.52,0.07-1.05,0.1-1.57,0.08c-0.07,0-0.13-0.01-0.2-0.01c-0.11,0,0.08,0.02-0.02,0c-0.05-0.02-0.05-0.01,0.02,0.01
			c0.03,0.02,0.05,0.04,0.07,0.07c0.03,0.15,0.04,0.18,0.04,0.09c-0.01,0.06-0.01,0.06,0,0c0.06-0.22,0.15-0.43,0.21-0.65
			c0.13-0.5,0.1-1.06-0.32-1.41c-0.38-0.32-0.98-0.42-1.34-0.01c-0.17,0.2-0.21,0.52,0,0.71C71.88,41.34,72.21,41.37,72.4,41.16
			L72.4,41.16z"/>
	</g>
</g>
<g>
	<g>
		<path class="st1" d="M77.66,40.66c0.04,0.35,0.07,0.7,0.11,1.04c0,0.07,0.01,0.13,0.04,0.19c0.02,0.06,0.05,0.12,0.1,0.16
			c0.09,0.09,0.23,0.15,0.35,0.15c0.13-0.01,0.26-0.05,0.35-0.15c0.08-0.09,0.16-0.22,0.15-0.35c-0.04-0.35-0.07-0.7-0.11-1.04
			c0-0.07-0.01-0.13-0.04-0.19c-0.02-0.06-0.05-0.12-0.1-0.16c-0.09-0.09-0.23-0.15-0.35-0.15c-0.13,0.01-0.26,0.05-0.35,0.15
			C77.72,40.4,77.65,40.53,77.66,40.66L77.66,40.66z"/>
	</g>
</g>
<g>
	<g>
		<path class="st1" d="M81.49,38.61c0.32,0.69,0.78,1.31,1.33,1.83c0.21,0.2,0.64,0.2,0.79-0.1c0.47-1,0.93-2,1.4-3.01
			c0.11-0.24,0.07-0.55-0.18-0.68c-0.22-0.12-0.57-0.07-0.68,0.18c-0.47,1-0.93,2-1.4,3.01c0.26-0.03,0.52-0.07,0.79-0.1
			c-0.12-0.12-0.24-0.24-0.36-0.37c-0.06-0.06-0.11-0.13-0.17-0.2c-0.1-0.13,0.05,0.07-0.05-0.06c-0.03-0.03-0.05-0.07-0.08-0.1
			c-0.2-0.28-0.38-0.59-0.53-0.91c-0.11-0.24-0.47-0.32-0.68-0.18C81.43,38.08,81.37,38.35,81.49,38.61L81.49,38.61z"/>
	</g>
</g>
<g>
	<g>
		<path class="st1" d="M85.37,41.2c-0.06,0.04-0.06,0.05-0.02,0.02c0.05-0.02,0.04-0.02-0.03,0.01c0.02-0.01,0.03-0.01,0.05-0.01
			c0.04-0.01,0.02-0.01-0.05,0c0.02,0,0.05,0,0.07,0c0.04,0,0.05,0,0,0c-0.04-0.01-0.04-0.01,0,0c0.02,0,0.04,0.01,0.07,0.02
			c0.1,0.02-0.07-0.05,0.01,0c0.04,0.02,0.12,0.11,0.04,0.02c0.02,0.03,0.05,0.05,0.07,0.07c-0.11-0.12,0.02,0.07-0.02-0.01
			c-0.03-0.08,0,0.13,0-0.01c0,0.04-0.02,0.14,0.01,0.03c-0.01,0.03-0.07,0.17-0.02,0.07c-0.02,0.04-0.04,0.07-0.06,0.11
			c0.06-0.09-0.01,0-0.03,0.02c-0.04,0.04-0.04,0.04,0,0c-0.02,0.02-0.05,0.03-0.07,0.04c-0.09,0.06,0.07-0.01-0.03,0.02
			c-0.03,0.01-0.05,0.01-0.08,0.02c0.06-0.01,0.07-0.01,0.01-0.01c-0.49,0.02-0.69,0.68-0.25,0.93c0.11,0.06,0.21,0.13,0.31,0.2
			c0.1,0.07,0.11,0.08,0.19,0.14c0.09,0.08,0.18,0.16,0.27,0.25c0.03,0.03,0.07,0.07,0.1,0.11c-0.03-0.04-0.03-0.03,0,0.02
			c-0.02-0.03-0.03-0.06-0.02-0.1c-0.01-0.04,0-0.08,0.02-0.12c0.04-0.05,0.04-0.05,0-0.01c0.01-0.01,0.02-0.02,0.04-0.03
			c-0.02,0.02-0.05,0.03-0.07,0.04c-0.11,0.07,0.08-0.03-0.04,0.02c-0.06,0.02-0.13,0.05-0.19,0.07c-0.25,0.09-0.49,0.19-0.74,0.28
			c-0.24,0.09-0.44,0.34-0.35,0.62c0.08,0.24,0.35,0.45,0.62,0.35c0.32-0.12,0.64-0.24,0.95-0.36c0.36-0.14,0.69-0.36,0.74-0.77
			c0.05-0.4-0.23-0.72-0.51-0.97c-0.25-0.23-0.53-0.43-0.82-0.6c-0.08,0.31-0.17,0.62-0.25,0.93c0.81-0.03,1.53-0.87,1.19-1.68
			c-0.14-0.33-0.43-0.57-0.77-0.67c-0.38-0.11-0.75-0.02-1.05,0.23c-0.2,0.17-0.19,0.54,0,0.71C84.87,41.39,85.15,41.38,85.37,41.2
			L85.37,41.2z"/>
	</g>
</g>
<g>
	<g>
		<path class="st1" d="M88.18,36.62c0.8,1.51,1.95,3.82,0.38,5.26c-0.47,0.44,0.23,1.14,0.71,0.71c0.8-0.74,1.13-1.87,1.05-2.93
			c-0.09-1.28-0.69-2.43-1.28-3.54C88.74,35.55,87.87,36.05,88.18,36.62L88.18,36.62z"/>
	</g>
</g>
<g>
	<g>
		<path class="st0" d="M121.86,21.5c0.52,1.37,1.26,2.62,2.2,3.74c0.21,0.25,0.64,0.16,0.79-0.1c1.04-1.85,2.08-3.7,3.13-5.55
			c0.32-0.56-0.55-1.07-0.86-0.5c-1.04,1.85-2.08,3.7-3.13,5.55c0.26-0.03,0.52-0.07,0.79-0.1c-0.83-0.98-1.49-2.1-1.95-3.3
			c-0.1-0.25-0.34-0.43-0.62-0.35C121.97,20.96,121.77,21.25,121.86,21.5L121.86,21.5z"/>
	</g>
</g>
<g>
	<g>
		<path class="st0" d="M127.18,26.21c-0.05,0.04-0.07,0.05-0.04,0.03C127.16,26.23,127.17,26.23,127.18,26.21
			c0.01,0.01-0.12,0.05-0.01,0.02c0.1-0.03-0.01,0.02-0.03,0c0,0,0.09,0,0.09,0c-0.02,0.02-0.12-0.03-0.03,0
			c0.01,0,0.08,0.02,0.08,0.02c-0.01,0.01-0.11-0.06-0.02,0c0.02,0.01,0.05,0.03,0.07,0.04c0.09,0.05-0.07-0.07,0.01,0
			c0.02,0.02,0.04,0.04,0.06,0.06c0.01,0.01,0.05,0.04,0.06,0.06c-0.04-0.05-0.05-0.06-0.03-0.03c0.01,0.01,0.02,0.03,0.03,0.04
			c0.02,0.02,0.03,0.05,0.04,0.08c0.05,0.09,0.01-0.01,0-0.01c0.01,0,0.03,0.09,0.03,0.1c0.03,0.08,0.01-0.07,0-0.02
			c0,0.02,0,0.06,0,0.08c0,0.02-0.02,0.13,0,0.06c0.01-0.07-0.01,0.04-0.01,0.06c-0.01,0.04-0.02,0.08-0.04,0.12
			c-0.03,0.09,0.02-0.04,0,0.02c-0.02,0.03-0.03,0.06-0.05,0.09c-0.04,0.07-0.08,0.13-0.12,0.2c-0.02,0.03-0.04,0.06-0.06,0.09
			c0.07-0.09-0.02,0.03-0.03,0.03c-0.05,0.06-0.1,0.11-0.15,0.16c-0.11,0.12-0.23,0.23-0.34,0.33c-0.22,0.21-0.18,0.65,0.1,0.79
			c0.9,0.44,1.88,0.59,2.87,0.44c0.26-0.04,0.43-0.38,0.35-0.62c-0.09-0.28-0.34-0.39-0.62-0.35c0.1-0.01-0.04,0-0.06,0.01
			c-0.06,0.01-0.11,0.01-0.17,0.01c-0.1,0.01-0.19,0.01-0.29,0.01c-0.1,0-0.21-0.01-0.31-0.01c-0.05,0-0.1-0.01-0.14-0.01
			c0.09,0.01-0.04-0.01-0.06-0.01c-0.19-0.03-0.38-0.08-0.56-0.13c-0.09-0.03-0.18-0.06-0.27-0.09c-0.03-0.01-0.06-0.02-0.09-0.04
			c0.04,0.02,0.04,0.02,0.01,0c-0.05-0.03-0.1-0.05-0.15-0.07c0.03,0.26,0.07,0.52,0.1,0.79c0.6-0.56,1.31-1.36,1.05-2.25
			c-0.11-0.38-0.39-0.73-0.74-0.91c-0.43-0.22-0.89-0.18-1.26,0.13c-0.2,0.17-0.19,0.54,0,0.71
			C126.69,26.41,126.97,26.39,127.18,26.21L127.18,26.21z"/>
	</g>
</g>
<g>
	<g>
		<path class="st0" d="M102.43,23.45c5.82,0.15,11.64,0.15,17.46,0.01c0.64-0.02,0.64-1.02,0-1c-5.82,0.14-11.64,0.13-17.46-0.01
			C101.78,22.43,101.78,23.43,102.43,23.45L102.43,23.45z"/>
	</g>
</g>
<g>
	<g>
		<path class="st0" d="M120.15,22.15c-0.32-0.31-0.65-0.62-0.97-0.93c-0.09-0.09-0.22-0.15-0.35-0.15c-0.12,0-0.27,0.05-0.35,0.15
			c-0.09,0.1-0.15,0.22-0.15,0.35c0.01,0.13,0.05,0.26,0.15,0.35c0.32,0.31,0.65,0.62,0.97,0.93c0.09,0.09,0.22,0.15,0.35,0.15
			c0.12,0,0.27-0.05,0.35-0.15c0.09-0.1,0.15-0.22,0.15-0.35C120.29,22.38,120.24,22.25,120.15,22.15L120.15,22.15z"/>
	</g>
</g>
<g>
	<g>
		<path class="st0" d="M119.28,23.01c-0.43,0.49-0.82,1.03-1.14,1.6c-0.13,0.23-0.06,0.56,0.18,0.68c0.24,0.12,0.55,0.06,0.68-0.18
			c0.21-0.37,0.44-0.72,0.7-1.06c-0.03,0.03-0.05,0.07-0.08,0.1c0.12-0.15,0.24-0.3,0.36-0.44c0.09-0.1,0.15-0.22,0.15-0.35
			c0-0.12-0.05-0.27-0.15-0.35C119.8,22.83,119.46,22.8,119.28,23.01L119.28,23.01z"/>
	</g>
</g>
<g>
	<g>
		<path class="st0" d="M108.67,15.29c0.06,0.76,0.16,1.53,0.3,2.28c0.05,0.26,0.37,0.43,0.62,0.35c0.28-0.09,0.4-0.34,0.35-0.62
			c-0.03-0.18-0.06-0.36-0.09-0.53c-0.01-0.08-0.03-0.16-0.04-0.25c-0.01-0.04-0.01-0.08-0.02-0.12c0.01,0.13,0-0.03-0.01-0.05
			c-0.05-0.35-0.08-0.7-0.11-1.06c-0.02-0.26-0.22-0.51-0.5-0.5C108.92,14.8,108.65,15.01,108.67,15.29L108.67,15.29z"/>
	</g>
</g>
<g>
	<g>
		<path class="st0" d="M110.23,15.51c0.1,0.7,0.25,1.39,0.45,2.07c0.07,0.25,0.36,0.43,0.62,0.35c0.25-0.08,0.43-0.35,0.35-0.62
			c-0.2-0.68-0.35-1.37-0.45-2.07c-0.02-0.12-0.13-0.24-0.23-0.3c-0.11-0.06-0.27-0.09-0.39-0.05c-0.12,0.04-0.24,0.11-0.3,0.23
			C110.21,15.25,110.21,15.37,110.23,15.51L110.23,15.51z"/>
	</g>
</g>
<g>
	<g>
		<path class="st0" d="M107.59,15.61c1.86-0.03,3.73-0.07,5.59-0.1c0.64-0.01,0.64-1.01,0-1c-1.86,0.03-3.73,0.07-5.59,0.1
			C106.95,14.62,106.94,15.62,107.59,15.61L107.59,15.61z"/>
	</g>
</g>
<g>
	<g>
		<path class="st0" d="M112.82,18.47c0.02-0.04,0.03-0.07,0.05-0.1c0.01-0.02,0.02-0.04,0.04-0.06c0.03-0.05-0.02,0.03-0.03,0.04
			c0.02-0.01,0.06-0.07,0.08-0.08c0.01-0.01,0.07-0.06,0.01-0.01c-0.07,0.05,0.02-0.02,0.03-0.02c0.03-0.02,0.07-0.04,0.1-0.06
			c0.05-0.03-0.04,0.02-0.04,0.02c0,0,0.06-0.02,0.06-0.02c0.04-0.01,0.08-0.02,0.11-0.03c0.05-0.02-0.05,0.01-0.05,0.01
			c0,0,0.08,0,0.08,0c0.02,0,0.03,0,0.05,0c0.1,0-0.03,0-0.03-0.01c0,0,0.1,0.03,0.11,0.03c0.05,0.01-0.04-0.01-0.04-0.02
			c0-0.01,0.06,0.03,0.06,0.03c-0.01,0.01-0.09-0.09-0.03-0.02c-0.02-0.02-0.05-0.08-0.02-0.02c-0.05-0.1-0.02-0.05-0.01-0.02
			c0,0-0.02-0.1-0.01-0.04c0.01,0.06,0.03-0.08,0-0.02c0,0.01-0.01,0.05-0.02,0.06c0.01,0,0.04-0.07,0-0.01
			c-0.01,0.02-0.02,0.04-0.04,0.06c-0.01,0.02-0.02,0.03-0.03,0.05c-0.03,0.06,0.08-0.09,0,0c-0.25,0.29-0.56,0.52-0.78,0.84
			c-0.19,0.28-0.22,0.64,0.02,0.91c0.19,0.2,0.45,0.23,0.71,0.26c0.5,0.06,1,0.05,1.5-0.01c0.26-0.03,0.51-0.21,0.5-0.5
			c-0.01-0.24-0.22-0.53-0.5-0.5c-0.46,0.06-0.93,0.07-1.39,0.02c-0.06-0.01-0.12-0.01-0.18-0.02c0.09,0.01,0.04,0-0.02-0.01
			c-0.06-0.01,0.09,0.05,0.04,0.01c-0.06-0.04,0.12,0.13,0.11,0.11c0.01,0.09,0.02,0.18,0.04,0.26c-0.01,0.02-0.02,0.04-0.02,0.05
			c0-0.01,0.04-0.07,0.05-0.08c0.07-0.1-0.04,0.04,0.02-0.03c0.03-0.04,0.06-0.07,0.1-0.11c0.07-0.07,0.14-0.14,0.21-0.2
			c0.33-0.31,0.71-0.71,0.68-1.21c-0.04-0.59-0.6-0.93-1.15-0.87c-0.51,0.05-1.01,0.34-1.24,0.82c-0.11,0.24-0.07,0.55,0.18,0.68
			C112.36,18.77,112.7,18.72,112.82,18.47L112.82,18.47z"/>
	</g>
</g>
<g>
	<g>
		<path class="st1" d="M122.08,38.16c0.25,0.6,0.52,1.2,0.82,1.78c0.15,0.28,0.3,0.56,0.46,0.83c0.11,0.19,0.21,0.36,0.45,0.42
			c0.22,0.06,0.46-0.03,0.62-0.19c0.23-0.23,0.39-0.57,0.57-0.84c0.18-0.28,0.36-0.56,0.54-0.84c0.36-0.56,0.72-1.12,1.08-1.67
			c0.15-0.23,0.05-0.55-0.18-0.68c-0.24-0.14-0.54-0.05-0.68,0.18c-0.35,0.55-0.71,1.1-1.06,1.64c-0.17,0.27-0.35,0.54-0.52,0.81
			c-0.09,0.14-0.18,0.28-0.27,0.42c-0.04,0.06-0.08,0.12-0.12,0.18c-0.03,0.04-0.05,0.08-0.08,0.12c0.01-0.01,0.01-0.03,0.02-0.04
			c0.08-0.02,0.17-0.05,0.25-0.07c0.01,0,0.03,0,0.04,0.01c0.1,0.08,0.2,0.15,0.3,0.23c-0.48-0.82-0.91-1.67-1.27-2.54
			c-0.1-0.25-0.33-0.43-0.62-0.35C122.19,37.61,121.98,37.91,122.08,38.16L122.08,38.16z"/>
	</g>
</g>
<g>
	<g>
		<path class="st1" d="M126.06,41.56c0-0.01,0.05-0.06,0.01-0.02c-0.04,0.05,0.02-0.02,0.03-0.03c0.03-0.03,0.06-0.06,0.09-0.09
			c0.03-0.03,0.12-0.09,0.04-0.04c0.05-0.03,0.09-0.06,0.14-0.09c0.04-0.02,0.07-0.04,0.11-0.06c-0.09,0.05,0.03-0.01,0.05-0.02
			c0.05-0.01,0.09-0.03,0.14-0.04c0.02,0,0.04-0.01,0.06-0.01c0.07-0.02-0.08,0-0.01,0c0.05,0,0.1-0.01,0.15-0.01
			c0.02,0,0.04,0,0.06,0c0.08,0-0.09-0.02-0.02,0c0.04,0.01,0.07,0.02,0.11,0.03c0.02,0.01,0.08,0.04,0.03,0.01
			c-0.06-0.04,0.02,0.01,0.02,0.02c0.03,0.04-0.01-0.02-0.03-0.03c0.01,0,0.05,0.05,0.05,0.05c0,0-0.06-0.08-0.03-0.03
			c0.03,0.05-0.02-0.04-0.02-0.04c0.04,0.09-0.01-0.1-0.01-0.03c0,0.04-0.01,0.01,0-0.01c-0.02,0.04-0.04,0.07-0.06,0.1
			c-0.22,0.34-0.51,0.65-0.69,1.02c-0.11,0.22-0.22,0.48-0.2,0.73c0.02,0.33,0.23,0.63,0.57,0.7c0.28,0.06,0.59,0.05,0.87,0.06
			c0.28,0.02,0.57,0.03,0.85,0.05c0.26,0.01,0.51-0.24,0.5-0.5c-0.01-0.28-0.22-0.48-0.5-0.5c-0.26-0.01-0.51-0.03-0.77-0.04
			c-0.12-0.01-0.25-0.01-0.37-0.02c-0.06,0-0.12-0.01-0.19-0.01c-0.02,0-0.19-0.02-0.2-0.01c0.04-0.06,0.22,0.16,0.22,0.18
			c0,0,0.02,0.1,0.01,0.04c-0.01-0.06,0,0.04,0,0.04c-0.01,0,0.05-0.15,0.05-0.16c0-0.01,0.03-0.07,0.01-0.02
			c-0.03,0.06,0.03-0.06,0.03-0.06c0.1-0.19,0.22-0.37,0.35-0.54c0.31-0.42,0.72-0.93,0.4-1.47c-0.28-0.48-0.89-0.58-1.39-0.51
			c-0.55,0.08-1.02,0.41-1.33,0.86c-0.15,0.21-0.05,0.57,0.18,0.68C125.64,41.87,125.9,41.79,126.06,41.56L126.06,41.56z"/>
	</g>
</g>
<g>
	<g>
		<path class="st1" d="M71.33,53.08c14.22-0.22,28.44-0.28,42.66-0.16c3.99,0.03,7.98,0.08,11.97,0.14c0.64,0.01,0.64-0.99,0-1
			c-14.22-0.21-28.44-0.26-42.66-0.13c-3.99,0.04-7.98,0.09-11.97,0.15C70.69,52.09,70.69,53.09,71.33,53.08L71.33,53.08z"/>
	</g>
</g>
<g>
	<g>
		<path class="st1" d="M125.42,48.86c0,1.22,0,2.45,0,3.67c0,0.64,1,0.64,1,0c0-1.22,0-2.45,0-3.67
			C126.42,48.22,125.42,48.22,125.42,48.86L125.42,48.86z"/>
	</g>
</g>
<g>
	<g>
		<path class="st1" d="M125.12,48.51c-0.4,0.36-0.79,0.73-1.19,1.09c-0.19,0.18-0.19,0.53,0,0.71c0.21,0.19,0.5,0.19,0.71,0
			c0.4-0.36,0.79-0.73,1.19-1.09c0.19-0.18,0.19-0.53,0-0.71C125.62,48.32,125.33,48.32,125.12,48.51L125.12,48.51z"/>
	</g>
</g>
<g>
	<g>
		<path class="st1" d="M126.11,49.51c0.42,0.35,0.87,0.68,1.34,0.97c0.22,0.14,0.56,0.06,0.68-0.18c0.13-0.24,0.06-0.54-0.18-0.68
			c-0.32-0.19-0.62-0.41-0.92-0.63c0.03,0.03,0.07,0.05,0.1,0.08c-0.11-0.09-0.22-0.17-0.33-0.26c-0.1-0.09-0.21-0.15-0.35-0.15
			c-0.12,0-0.27,0.05-0.35,0.15c-0.09,0.1-0.15,0.22-0.15,0.35C125.97,49.29,126.01,49.43,126.11,49.51L126.11,49.51z"/>
	</g>
</g>
<g>
	<g>
		<path class="st1" d="M70.84,48.01c-0.21,1.56-0.23,3.14-0.08,4.71c0.03,0.27,0.21,0.5,0.5,0.5c0.25,0,0.53-0.23,0.5-0.5
			c-0.16-1.57-0.13-3.15,0.08-4.71c0.04-0.27-0.26-0.5-0.5-0.5C71.04,47.51,70.87,47.74,70.84,48.01L70.84,48.01z"/>
	</g>
</g>
<g>
	<g>
		<path class="st0" d="M202.79,20.89c0.66,1.69,1.41,3.33,2.27,4.93c0.19,0.34,0.39,0.7,0.8,0.8c0.43,0.11,0.8-0.17,1.01-0.52
			c0.22-0.36,0.36-0.79,0.52-1.18c0.17-0.41,0.32-0.83,0.46-1.25c0.32-0.96,0.58-1.93,0.79-2.92c0.13-0.63-0.84-0.9-0.96-0.27
			c-0.19,0.94-0.44,1.87-0.74,2.78c-0.15,0.46-0.31,0.91-0.49,1.35c-0.09,0.21-0.17,0.43-0.27,0.64c-0.05,0.1-0.11,0.21-0.15,0.32
			c-0.04,0.12-0.09,0.06,0,0.09c0.13,0.04,0.07-0.02,0.03-0.09c-0.06-0.1-0.11-0.2-0.16-0.3c-0.11-0.21-0.23-0.43-0.34-0.64
			c-0.22-0.43-0.44-0.87-0.64-1.3c-0.42-0.88-0.8-1.78-1.16-2.69c-0.1-0.25-0.34-0.43-0.62-0.35
			C202.9,20.34,202.69,20.64,202.79,20.89L202.79,20.89z"/>
	</g>
</g>
<g>
	<g>
		<path class="st0" d="M207.98,27.49c0.1,0.46,0.2,0.92,0.31,1.38c0.06,0.26,0.37,0.43,0.62,0.35c0.27-0.09,0.41-0.34,0.35-0.62
			c-0.1-0.46-0.2-0.92-0.31-1.38c-0.06-0.26-0.37-0.43-0.62-0.35C208.06,26.96,207.92,27.21,207.98,27.49L207.98,27.49z"/>
	</g>
</g>
<g>
	<g>
		<path class="st0" d="M216.91,21.33c0.06,1.37,0.18,2.74,0.36,4.1c0.03,0.27,0.21,0.5,0.5,0.5c0.24,0,0.53-0.23,0.5-0.5
			c-0.17-1.36-0.29-2.73-0.36-4.1c-0.01-0.27-0.22-0.5-0.5-0.5C217.15,20.83,216.9,21.06,216.91,21.33L216.91,21.33z"/>
	</g>
</g>
<g>
	<g>
		<path class="st0" d="M214.76,24.09c1.87,0,3.74-0.09,5.61-0.25c0.27-0.02,0.5-0.21,0.5-0.5c0-0.25-0.23-0.52-0.5-0.5
			c-1.87,0.17-3.74,0.25-5.61,0.25C214.12,23.09,214.12,24.09,214.76,24.09L214.76,24.09z"/>
	</g>
</g>
<g>
	<g>
		<path class="st0" d="M220.92,22.7c-0.69-1.26-1.98-2.16-3.4-2.37c-0.76-0.11-1.6-0.06-2.26,0.37c-0.64,0.42-1.15,1.11-1.45,1.81
			c-0.33,0.76-0.34,1.59,0.09,2.31c0.38,0.64,1,1.11,1.67,1.4c1.28,0.55,2.93,0.56,4.25,0.12c0.73-0.24,1.42-0.71,1.64-1.48
			c0.23-0.81-0.11-1.63-0.76-2.13c-0.22-0.16-0.56-0.03-0.68,0.18c-0.15,0.26-0.03,0.52,0.18,0.68c0.33,0.25,0.43,0.77,0.25,1.13
			c-0.21,0.43-0.73,0.62-1.17,0.73c-0.99,0.25-2.11,0.27-3.08-0.06c-1.01-0.34-1.94-1.26-1.51-2.39c0.19-0.5,0.56-1.05,1-1.37
			c0.45-0.34,1.06-0.39,1.61-0.32c1.17,0.15,2.21,0.88,2.77,1.9C220.36,23.77,221.23,23.26,220.92,22.7L220.92,22.7z"/>
	</g>
</g>
<g>
	<g>
		<g>
			<path class="st0" d="M224.99,21.07c0.51,1.72,1.3,3.34,2.35,4.79c0.27,0.37,0.75,0.29,0.91-0.12c0.77-1.85,1.75-3.61,2.9-5.25
				c0.16-0.22,0.04-0.56-0.18-0.68c-0.25-0.15-0.53-0.04-0.68,0.18c-1.2,1.71-2.2,3.55-3,5.49c0.3-0.04,0.61-0.08,0.91-0.12
				c-1-1.39-1.76-2.92-2.25-4.55C225.77,20.19,224.81,20.45,224.99,21.07L224.99,21.07z"/>
		</g>
	</g>
	<g>
		<g>
			<path class="st0" d="M229.92,26.6c0.28-0.19,0.59-0.33,0.93-0.37c0.15-0.02,0.26,0,0.38,0.02c-0.04-0.03-0.04-0.03,0.01,0.01
				c-0.03-0.04-0.03-0.04,0,0.01c-0.01-0.09,0.01,0.03,0.01,0.06c-0.02-0.09,0,0.08,0,0.11c-0.01,0.06-0.01,0.07,0,0.02
				c-0.01,0.03-0.01,0.07-0.02,0.1c-0.03,0.1-0.04,0.14-0.12,0.25c-0.19,0.27-0.47,0.49-0.67,0.76c-0.25,0.33-0.49,0.77-0.22,1.16
				c0.25,0.37,0.81,0.37,1.2,0.43c0.83,0.11,1.66,0.08,2.49-0.03c0.27-0.04,0.41-0.38,0.35-0.62c-0.08-0.29-0.35-0.39-0.62-0.35
				c-0.48,0.07-0.97,0.08-1.45,0.06c-0.24-0.01-0.49-0.03-0.73-0.06c-0.11-0.01-0.22-0.03-0.33-0.05c-0.1-0.02-0.18-0.03-0.23-0.06
				c0.06,0.06,0.12,0.12,0.18,0.18c0.1,0.13-0.04,0.23,0.05,0.11c0.04-0.05,0.06-0.11,0.1-0.16c0.05-0.07,0.12-0.14,0.19-0.21
				c0.17-0.18,0.34-0.35,0.48-0.54c0.29-0.38,0.43-0.88,0.33-1.36c-0.29-1.28-2.03-0.85-2.8-0.33c-0.22,0.15-0.32,0.44-0.18,0.68
				C229.37,26.64,229.7,26.75,229.92,26.6L229.92,26.6z"/>
		</g>
	</g>
</g>
<g>
	<g>
		<g>
			<path class="st0" d="M224.99,21.07c0.51,1.72,1.3,3.34,2.35,4.79c0.27,0.37,0.75,0.29,0.91-0.12c0.77-1.85,1.75-3.61,2.9-5.25
				c0.16-0.22,0.04-0.56-0.18-0.68c-0.25-0.15-0.53-0.04-0.68,0.18c-1.2,1.71-2.2,3.55-3,5.49c0.3-0.04,0.61-0.08,0.91-0.12
				c-1-1.39-1.76-2.92-2.25-4.55C225.77,20.19,224.81,20.45,224.99,21.07L224.99,21.07z"/>
		</g>
	</g>
	<g>
		<g>
			<path class="st0" d="M229.92,26.6c0.28-0.19,0.59-0.33,0.93-0.37c0.15-0.02,0.26,0,0.38,0.02c-0.04-0.03-0.04-0.03,0.01,0.01
				c-0.03-0.04-0.03-0.04,0,0.01c-0.01-0.09,0.01,0.03,0.01,0.06c-0.02-0.09,0,0.08,0,0.11c-0.01,0.06-0.01,0.07,0,0.02
				c-0.01,0.03-0.01,0.07-0.02,0.1c-0.03,0.1-0.04,0.14-0.12,0.25c-0.19,0.27-0.47,0.49-0.67,0.76c-0.25,0.33-0.49,0.77-0.22,1.16
				c0.25,0.37,0.81,0.37,1.2,0.43c0.83,0.11,1.66,0.08,2.49-0.03c0.27-0.04,0.41-0.38,0.35-0.62c-0.08-0.29-0.35-0.39-0.62-0.35
				c-0.48,0.07-0.97,0.08-1.45,0.06c-0.24-0.01-0.49-0.03-0.73-0.06c-0.11-0.01-0.22-0.03-0.33-0.05c-0.1-0.02-0.18-0.03-0.23-0.06
				c0.06,0.06,0.12,0.12,0.18,0.18c0.1,0.13-0.04,0.23,0.05,0.11c0.04-0.05,0.06-0.11,0.1-0.16c0.05-0.07,0.12-0.14,0.19-0.21
				c0.17-0.18,0.34-0.35,0.48-0.54c0.29-0.38,0.43-0.88,0.33-1.36c-0.29-1.28-2.03-0.85-2.8-0.33c-0.22,0.15-0.32,0.44-0.18,0.68
				C229.37,26.64,229.7,26.75,229.92,26.6L229.92,26.6z"/>
		</g>
	</g>
</g>
<g>
	<g>
		<path class="st0" d="M240.5,20.61c0.14,0.96,0.23,1.93,0.28,2.91c0.02,0.47,0.03,0.94,0.03,1.41c0,0.44,0.05,0.95-0.13,1.36
			c-0.11,0.25-0.07,0.54,0.18,0.68c0.21,0.12,0.57,0.07,0.68-0.18c0.22-0.49,0.26-0.98,0.26-1.51c0.01-0.55,0-1.1-0.03-1.64
			c-0.05-1.1-0.16-2.2-0.32-3.29c-0.04-0.27-0.38-0.41-0.62-0.35C240.56,20.08,240.46,20.34,240.5,20.61L240.5,20.61z"/>
	</g>
</g>
<g>
	<g>
		<path class="st0" d="M238.01,24.04c2.38,0.29,4.78,0.35,7.17,0.18c0.64-0.05,0.64-1.05,0-1c-2.39,0.17-4.79,0.11-7.17-0.18
			c-0.27-0.03-0.5,0.25-0.5,0.5C237.51,23.84,237.74,24.01,238.01,24.04L238.01,24.04z"/>
	</g>
</g>
<g>
	<g>
		<path class="st0" d="M240.42,20.09c-1.6,0.33-2.74,1.77-2.78,3.39c-0.02,0.83,0.25,1.71,0.81,2.34c0.53,0.6,1.34,0.9,2.1,1.04
			c1.51,0.27,3.28,0.01,4.36-1.19c0.97-1.08,1.3-2.79,0.4-4.02c-0.52-0.72-1.32-1.16-2.13-1.47c-0.93-0.34-1.96-0.45-2.91-0.14
			c-0.61,0.2-0.35,1.17,0.27,0.96c1.18-0.39,2.69,0.01,3.62,0.83c0.84,0.75,0.87,1.88,0.29,2.8c-0.65,1.02-1.92,1.36-3.07,1.3
			c-0.58-0.03-1.2-0.15-1.71-0.44c-0.56-0.32-0.88-0.88-0.98-1.51c-0.24-1.38,0.65-2.67,2.01-2.95
			C241.31,20.93,241.05,19.96,240.42,20.09L240.42,20.09z"/>
	</g>
</g>
<g>
	<g>
		<path class="st0" d="M249.32,21.27c0.34,1.45,0.96,2.83,1.84,4.04c0.26,0.36,0.76,0.3,0.91-0.12c0.59-1.57,1.36-3.06,2.28-4.46
			c0.15-0.23,0.04-0.55-0.18-0.68c-0.24-0.14-0.54-0.05-0.68,0.18c-0.97,1.47-1.76,3.05-2.38,4.7c0.3-0.04,0.61-0.08,0.91-0.12
			c-0.83-1.14-1.42-2.42-1.74-3.8C250.14,20.38,249.18,20.65,249.32,21.27L249.32,21.27z"/>
	</g>
</g>
<g>
	<g>
		<path class="st0" d="M253.77,26.05c0.04-0.04,0.05-0.04,0.01-0.01c0.03-0.02,0.05-0.04,0.08-0.05c0.03-0.02,0.05-0.03,0.08-0.04
			c-0.05,0.02-0.04,0.02,0.01,0c0.05-0.01,0.09-0.03,0.14-0.04c0.06-0.01,0.06-0.01,0.01,0c0.03,0,0.06,0,0.09,0
			c0.03,0,0.06,0,0.09,0c-0.05-0.01-0.05-0.01,0.01,0c0.05,0.01,0.09,0.02,0.14,0.04c0.05,0.01,0.1,0.07,0.16,0.1
			c0.02,0.03,0.02,0.02,0-0.01c-0.01-0.02-0.01-0.04-0.01-0.07c0.01-0.05,0.01-0.05,0,0.01c0.02-0.05,0.02-0.04-0.01,0.01
			c0.06-0.06-0.05,0.05-0.05,0.05c0.04-0.04-0.09,0.06-0.11,0.07c-0.26,0.14-0.52,0.24-0.74,0.44c-0.2,0.18-0.19,0.52,0,0.71
			c0.21,0.21,0.46,0.33,0.72,0.46c0.06,0.03,0.12,0.07,0.18,0.11c-0.07-0.05,0.06,0.07,0.08,0.08c-0.03-0.04-0.03-0.03,0,0.02
			c0.03,0.05,0.03,0.06,0.01,0.01c0.01,0.06,0.02,0.06,0.01,0c0,0.05,0,0.06,0,0.02c0-0.02,0.01-0.04,0.02-0.06
			c0.04-0.04,0.03-0.03-0.01,0.01c0.07-0.04-0.09,0.04-0.11,0.05c-0.14,0.07-0.28,0.13-0.42,0.19c-0.27,0.12-0.57,0.23-0.85,0.33
			c-0.25,0.09-0.42,0.34-0.35,0.62c0.07,0.24,0.36,0.44,0.62,0.35c0.4-0.14,0.79-0.3,1.18-0.47c0.38-0.17,0.8-0.34,0.9-0.79
			c0.09-0.4-0.1-0.83-0.41-1.1c-0.15-0.12-0.31-0.21-0.48-0.3c-0.08-0.04-0.16-0.08-0.23-0.12c-0.03-0.02-0.06-0.04-0.09-0.06
			c0.06,0.04-0.05-0.05-0.06-0.06c0,0.24,0,0.47,0,0.71c0.09-0.09-0.05,0.01,0.06-0.05c0.03-0.02,0.06-0.04,0.09-0.05
			c0.09-0.05,0.18-0.08,0.26-0.13c0.19-0.09,0.37-0.2,0.5-0.36c0.35-0.4,0.39-0.94,0.01-1.34c-0.59-0.61-1.63-0.55-2.23,0.01
			c-0.2,0.18-0.19,0.52,0,0.71C253.26,26.25,253.58,26.24,253.77,26.05L253.77,26.05z"/>
	</g>
</g>
<g>
	<g>
		<path class="st1" d="M215.28,35.69c-0.76,1.25-1.43,2.81-1.46,4.3c-0.03,1.5,1.13,2.3,2.36,2.85c0.25,0.11,0.54,0.07,0.68-0.18
			c0.13-0.21,0.07-0.57-0.18-0.68c-0.46-0.21-0.95-0.42-1.33-0.76c-0.44-0.39-0.57-0.87-0.52-1.45c0.12-1.25,0.67-2.51,1.31-3.57
			C216.48,35.65,215.61,35.14,215.28,35.69L215.28,35.69z"/>
	</g>
</g>
<g>
	<g>
		<path class="st1" d="M225.14,41.3c0.06,0.16,0.11,0.33,0.13,0.5c-0.01-0.04-0.01-0.09-0.02-0.13c0.02,0.19,0.03,0.38,0,0.57
			c0.01-0.04,0.01-0.09,0.02-0.13c-0.02,0.17-0.07,0.34-0.13,0.5c-0.04,0.11-0.01,0.28,0.05,0.39c0.06,0.1,0.18,0.2,0.3,0.23
			c0.13,0.03,0.27,0.02,0.39-0.05c0.12-0.07,0.18-0.17,0.23-0.3c0.23-0.57,0.22-1.26,0-1.83c-0.05-0.13-0.11-0.23-0.23-0.3
			c-0.11-0.06-0.27-0.09-0.39-0.05c-0.12,0.04-0.24,0.11-0.3,0.23C225.13,41.02,225.09,41.17,225.14,41.3L225.14,41.3z"/>
	</g>
</g>
<g>
	<g>
		<path class="st1" d="M237.46,40.95c0.04,0.35,0.07,0.7,0.11,1.04c0,0.07,0.01,0.13,0.04,0.19c0.02,0.06,0.05,0.12,0.1,0.16
			c0.09,0.09,0.23,0.15,0.35,0.15c0.13-0.01,0.26-0.05,0.35-0.15c0.08-0.09,0.16-0.22,0.15-0.35c-0.04-0.35-0.07-0.7-0.11-1.04
			c0-0.07-0.01-0.13-0.04-0.19c-0.02-0.06-0.05-0.12-0.1-0.16c-0.09-0.09-0.23-0.15-0.35-0.15c-0.13,0.01-0.26,0.05-0.35,0.15
			C237.52,40.69,237.44,40.82,237.46,40.95L237.46,40.95z"/>
	</g>
</g>
<g>
	<g>
		<path class="st1" d="M247.97,36.92c0.8,1.51,1.95,3.82,0.38,5.26c-0.47,0.44,0.23,1.14,0.71,0.71c0.8-0.74,1.13-1.87,1.05-2.93
			c-0.09-1.28-0.69-2.43-1.28-3.54C248.53,35.84,247.67,36.35,247.97,36.92L247.97,36.92z"/>
	</g>
</g>
<g>
	<g>
		<path class="st0" d="M180.22,23.67c5.82,0.15,11.64,0.15,17.46,0.01c0.64-0.02,0.64-1.02,0-1c-5.82,0.14-11.64,0.13-17.46-0.01
			C179.58,22.66,179.58,23.66,180.22,23.67L180.22,23.67z"/>
	</g>
</g>
<g>
	<g>
		<path class="st0" d="M197.95,22.38c-0.32-0.31-0.65-0.62-0.97-0.93c-0.09-0.09-0.22-0.15-0.35-0.15c-0.12,0-0.27,0.05-0.35,0.15
			c-0.09,0.1-0.15,0.22-0.15,0.35c0.01,0.13,0.05,0.26,0.15,0.35c0.32,0.31,0.65,0.62,0.97,0.93c0.09,0.09,0.22,0.15,0.35,0.15
			c0.12,0,0.27-0.05,0.35-0.15c0.09-0.1,0.15-0.22,0.15-0.35C198.09,22.6,198.04,22.47,197.95,22.38L197.95,22.38z"/>
	</g>
</g>
<g>
	<g>
		<path class="st0" d="M197.08,23.23c-0.43,0.49-0.82,1.03-1.14,1.6c-0.13,0.23-0.06,0.56,0.18,0.68c0.24,0.12,0.55,0.06,0.68-0.18
			c0.21-0.37,0.44-0.72,0.7-1.06c-0.03,0.03-0.05,0.07-0.08,0.1c0.12-0.15,0.24-0.3,0.36-0.44c0.09-0.1,0.15-0.22,0.15-0.35
			c0-0.12-0.05-0.27-0.15-0.35C197.6,23.06,197.26,23.02,197.08,23.23L197.08,23.23z"/>
	</g>
</g>
<g>
	<g>
		<path class="st1" d="M172.94,52.2c9.11-0.11,18.21-0.18,27.32-0.21c9.11-0.03,18.21-0.01,27.32,0.05
			c5.16,0.03,10.31,0.08,15.47,0.14c0.64,0.01,0.64-0.99,0-1c-9.11-0.11-18.21-0.17-27.32-0.19c-9.11-0.02-18.21,0-27.32,0.06
			c-5.16,0.04-10.31,0.09-15.47,0.15C172.3,51.21,172.29,52.21,172.94,52.2L172.94,52.2z"/>
	</g>
</g>
<g>
	<g>
		<path class="st1" d="M242.46,47.65c0,1.22,0,2.45,0,3.67c0,0.64,1,0.64,1,0c0-1.22,0-2.45,0-3.67
			C243.47,47.01,242.47,47.01,242.46,47.65L242.46,47.65z"/>
	</g>
</g>
<g>
	<g>
		<path class="st1" d="M242.17,47.3c-0.4,0.36-0.79,0.73-1.19,1.09c-0.19,0.18-0.19,0.53,0,0.71c0.21,0.19,0.5,0.19,0.71,0
			c0.4-0.36,0.79-0.73,1.19-1.09c0.19-0.18,0.19-0.53,0-0.71C242.67,47.11,242.38,47.11,242.17,47.3L242.17,47.3z"/>
	</g>
</g>
<g>
	<g>
		<path class="st1" d="M243.16,48.3c0.42,0.35,0.87,0.68,1.34,0.97c0.22,0.14,0.56,0.06,0.68-0.18c0.13-0.24,0.06-0.54-0.18-0.68
			c-0.32-0.19-0.62-0.41-0.92-0.63c0.03,0.03,0.07,0.05,0.1,0.08c-0.11-0.09-0.22-0.17-0.33-0.26c-0.1-0.09-0.21-0.15-0.35-0.15
			c-0.12,0-0.27,0.05-0.35,0.15c-0.09,0.1-0.15,0.22-0.15,0.35C243.02,48.08,243.06,48.22,243.16,48.3L243.16,48.3z"/>
	</g>
</g>
<g>
	<g>
		<path class="st1" d="M172.45,47.13c-0.21,1.56-0.23,3.14-0.08,4.71c0.03,0.27,0.21,0.5,0.5,0.5c0.25,0,0.53-0.23,0.5-0.5
			c-0.16-1.57-0.13-3.15,0.08-4.71c0.04-0.27-0.26-0.5-0.5-0.5C172.65,46.63,172.48,46.87,172.45,47.13L172.45,47.13z"/>
	</g>
</g>
<g>
	<g>
		<path class="st0" d="M186.06,14.64c-0.12,0.4-0.23,0.81-0.33,1.22c-0.1,0.43-0.2,0.86-0.24,1.3c-0.05,0.48,0.24,0.88,0.69,1.02
			c0.17,0.05,0.35,0.07,0.53,0.05c0.1-0.01,0.19-0.02,0.29-0.03c0.05,0,0.1,0,0.16-0.01c0.1-0.01-0.03-0.02,0.07,0.01
			c0.26,0.06,0.55-0.08,0.62-0.35c0.06-0.25-0.08-0.56-0.35-0.62c-0.19-0.04-0.38-0.05-0.58-0.03c-0.08,0.01-0.16,0.02-0.24,0.02
			c-0.04,0-0.07,0-0.11,0c-0.06,0-0.07-0.01-0.01,0.01c-0.03-0.01-0.07-0.02-0.1-0.02c-0.06-0.01,0.06,0.04,0.01,0.01
			c-0.07-0.04-0.03-0.03-0.01,0.01c-0.01-0.01-0.02-0.02-0.03-0.03c0.03,0.05,0.04,0.06,0.02,0.03c-0.04-0.05,0.04,0.07,0.02,0.06
			c0,0,0-0.09,0-0.09c0,0.08,0,0,0.01-0.04c0.01-0.05,0.02-0.09,0.02-0.14c0.12-0.72,0.29-1.42,0.51-2.12
			c0.08-0.25-0.09-0.56-0.35-0.62C186.4,14.22,186.14,14.37,186.06,14.64L186.06,14.64z"/>
	</g>
</g>
<g>
	<g>
		<path class="st0" d="M189.15,18.23c0.08-0.06,0.16-0.11,0.25-0.16c0.02-0.01,0.16-0.08,0.06-0.04c0.03-0.01,0.1-0.05,0.13-0.04
			c-0.06,0.01-0.08,0.01-0.04,0c0.02,0,0.04,0,0.06,0c0.05,0,0.05,0,0.01,0c-0.04-0.01-0.04-0.01,0.01,0
			c0.05,0.02,0.05,0.01-0.01-0.01c0.01,0.01,0.02,0.01,0.03,0.02c0.05,0.03,0.04,0.03-0.01-0.01c0.03,0.03,0.03,0.04,0.01,0.01
			c-0.02-0.02-0.03-0.04-0.04-0.07c0.01,0.05,0.01,0.05,0.01,0.01c0-0.04,0-0.04,0,0.01c0,0.06,0,0.05,0.01-0.01
			c-0.01,0.03-0.05,0.13,0,0.03c-0.02,0.04-0.04,0.07-0.06,0.1c0.06-0.08-0.03,0.03-0.04,0.03c-0.02,0.02-0.11,0.08-0.04,0.04
			c-0.09,0.06-0.18,0.12-0.27,0.17c-0.41,0.24-0.25,0.96,0.25,0.93c0.03,0,0.05,0,0.08,0c0.06,0,0.05,0-0.02,0
			c0,0,0.1,0.03,0.11,0.03c-0.12-0.04,0,0.01,0.03,0.03c0.03,0.02,0.02,0.01-0.02-0.02c0.02,0.02,0.04,0.03,0.06,0.05
			c0.04,0.04,0.06,0.08,0.02,0.02c0.02,0.03,0.08,0.17,0.04,0.05c0.01,0.02,0.04,0.09,0.03,0.11c-0.01-0.07-0.01-0.08,0-0.02
			c0,0.02,0,0.04,0,0.06c0,0.04,0,0.02,0.01-0.04c0,0.02-0.01,0.05-0.02,0.07c-0.02,0.1,0.05-0.07-0.01,0.01
			c-0.01,0.02-0.02,0.04-0.04,0.06c0.04-0.05,0.05-0.06,0.01-0.01c-0.03,0.03-0.05,0.05-0.08,0.08c0.09-0.08,0.01-0.01-0.02,0.01
			c-0.02,0.01-0.04,0.02-0.07,0.03c0.06-0.03,0.07-0.03,0.02-0.01c-0.02,0.01-0.04,0.01-0.05,0.01c-0.04,0.01-0.02,0.01,0.04,0
			c-0.02,0.02-0.12,0-0.15,0c-0.26-0.03-0.51,0.25-0.5,0.5c0.01,0.3,0.22,0.47,0.5,0.5c0.7,0.08,1.32-0.53,1.36-1.2
			c0.04-0.7-0.62-1.33-1.31-1.29c0.08,0.31,0.17,0.62,0.25,0.93c0.28-0.17,0.57-0.36,0.74-0.65c0.19-0.32,0.23-0.75,0.03-1.07
			c-0.19-0.3-0.55-0.48-0.9-0.46c-0.35,0.02-0.65,0.18-0.93,0.37c-0.21,0.15-0.33,0.45-0.18,0.68
			C188.6,18.27,188.92,18.39,189.15,18.23L189.15,18.23z"/>
	</g>
</g>
<g>
	<g>
		<path class="st1" d="M231.02,36.61c-0.9,0.54-1.57,1.46-1.78,2.49c-0.12,0.55-0.15,1.16,0.09,1.68c0.25,0.55,0.82,0.81,1.39,0.88
			c2.12,0.27,4.24-2.2,3.4-4.25c-0.23-0.58-0.69-1.06-1.29-1.24c-0.6-0.18-1.24-0.03-1.7,0.38c-0.2,0.18-0.18,0.52,0,0.71
			c0.2,0.2,0.5,0.18,0.71,0c0.45-0.4,1.11-0.05,1.35,0.48c0.3,0.67,0,1.52-0.44,2.05c-0.43,0.52-1.07,0.9-1.74,0.89
			c-0.27,0-0.66-0.06-0.78-0.34c-0.12-0.28-0.08-0.65-0.03-0.93c0.16-0.8,0.63-1.5,1.33-1.92
			C232.07,37.14,231.57,36.27,231.02,36.61L231.02,36.61z"/>
	</g>
</g>
<g>
	<g>
		<path class="st0" d="M167.81,20.89c0.34,1.45,0.96,2.83,1.84,4.04c0.26,0.36,0.76,0.3,0.91-0.12c0.59-1.57,1.36-3.06,2.28-4.46
			c0.15-0.23,0.04-0.55-0.18-0.68c-0.24-0.14-0.54-0.05-0.68,0.18c-0.97,1.47-1.76,3.05-2.38,4.7c0.3-0.04,0.61-0.08,0.91-0.12
			c-0.83-1.14-1.42-2.42-1.74-3.8C168.63,19.99,167.67,20.26,167.81,20.89L167.81,20.89z"/>
	</g>
</g>
<g>
	<g>
		<path class="st0" d="M172.26,25.66c0.04-0.04,0.05-0.04,0.01-0.01c0.03-0.02,0.05-0.04,0.08-0.05c0.03-0.02,0.05-0.03,0.08-0.04
			c-0.05,0.02-0.04,0.02,0.01,0c0.05-0.01,0.09-0.03,0.14-0.04c0.06-0.01,0.06-0.01,0.01,0c0.03,0,0.06,0,0.09,0
			c0.03,0,0.06,0,0.09,0c-0.05-0.01-0.05-0.01,0.01,0c0.05,0.01,0.09,0.02,0.14,0.04c0.05,0.01,0.1,0.07,0.16,0.1
			c0.02,0.03,0.02,0.02,0-0.01c-0.01-0.02-0.01-0.04-0.01-0.07c0.01-0.05,0.01-0.05,0,0.01c0.02-0.05,0.02-0.04-0.01,0.01
			c0.06-0.06-0.05,0.05-0.05,0.05c0.04-0.04-0.09,0.06-0.11,0.07c-0.26,0.14-0.52,0.24-0.74,0.44c-0.2,0.18-0.19,0.52,0,0.71
			c0.21,0.21,0.46,0.33,0.72,0.46c0.06,0.03,0.12,0.07,0.18,0.11c-0.07-0.05,0.06,0.07,0.08,0.08c-0.03-0.04-0.03-0.03,0,0.02
			c0.03,0.05,0.03,0.06,0.01,0.01c0.01,0.06,0.02,0.06,0.01,0c0,0.05,0,0.06,0,0.02c0-0.02,0.01-0.04,0.02-0.06
			c0.04-0.04,0.03-0.03-0.01,0.01c0.07-0.04-0.09,0.04-0.11,0.05c-0.14,0.07-0.28,0.13-0.42,0.19c-0.27,0.12-0.57,0.23-0.85,0.33
			c-0.25,0.09-0.42,0.34-0.35,0.62c0.07,0.24,0.36,0.44,0.62,0.35c0.4-0.14,0.79-0.3,1.18-0.47c0.38-0.17,0.8-0.34,0.9-0.79
			c0.09-0.4-0.1-0.83-0.41-1.1c-0.15-0.12-0.31-0.21-0.48-0.3c-0.08-0.04-0.16-0.08-0.23-0.12c-0.03-0.02-0.06-0.04-0.09-0.06
			c0.06,0.04-0.05-0.05-0.06-0.06c0,0.24,0,0.47,0,0.71c0.09-0.09-0.05,0.01,0.06-0.05c0.03-0.02,0.06-0.04,0.09-0.05
			c0.09-0.05,0.18-0.08,0.26-0.13c0.19-0.09,0.37-0.2,0.5-0.36c0.35-0.4,0.39-0.94,0.01-1.34c-0.59-0.61-1.63-0.55-2.23,0.01
			c-0.2,0.18-0.19,0.52,0,0.71C171.75,25.86,172.06,25.85,172.26,25.66L172.26,25.66z"/>
	</g>
</g>
<g>
	<g>
		<path class="st1" d="M219.67,36.61c-0.9,0.54-1.57,1.46-1.78,2.49c-0.12,0.55-0.15,1.16,0.09,1.68c0.25,0.55,0.82,0.81,1.39,0.88
			c2.12,0.27,4.24-2.2,3.4-4.25c-0.23-0.58-0.69-1.06-1.29-1.24c-0.6-0.18-1.24-0.03-1.7,0.38c-0.2,0.18-0.18,0.52,0,0.71
			c0.2,0.2,0.5,0.18,0.71,0c0.45-0.4,1.11-0.05,1.35,0.48c0.3,0.67,0,1.52-0.44,2.05c-0.43,0.52-1.07,0.9-1.74,0.89
			c-0.27,0-0.66-0.06-0.78-0.34c-0.12-0.28-0.08-0.65-0.03-0.93c0.16-0.8,0.63-1.5,1.33-1.92
			C220.72,37.14,220.22,36.27,219.67,36.61L219.67,36.61z"/>
	</g>
</g>
<g>
	<g>
		<path class="st0" d="M62.55,2.25c0.13,2.37,0.25,4.73,0.38,7.1c0.03,0.64,1.03,0.64,1,0c-0.13-2.37-0.25-4.73-0.38-7.1
			C63.52,1.61,62.52,1.6,62.55,2.25L62.55,2.25z"/>
	</g>
</g>
<g>
	<g>
		<path class="st0" d="M63.4,2.01c0.05-0.02,0.05-0.02-0.01,0.01c0.02-0.01,0.05-0.02,0.07-0.02c0.02-0.01,0.05-0.01,0.07-0.02
			c0.06-0.01,0.05-0.01-0.02,0c0.03-0.02,0.11-0.01,0.15-0.01c0.02,0,0.05,0,0.07,0c0.06,0.01,0.05,0.01-0.02,0
			c0.07-0.02,0.23,0.06,0.3,0.08c-0.12-0.04,0.04,0.02,0.06,0.03c0.05,0.02,0.09,0.05,0.14,0.08c0.05,0.03,0.09,0.06,0.13,0.09
			c0.04,0.03,0.04,0.03-0.01,0c0.02,0.02,0.04,0.03,0.06,0.05c0.08,0.07,0.15,0.14,0.22,0.22c0.02,0.02,0.03,0.04,0.05,0.06
			c-0.04-0.05-0.04-0.05,0,0c0.03,0.05,0.06,0.09,0.09,0.14c0.03,0.05,0.05,0.1,0.08,0.14c0.02,0.05,0.02,0.05,0-0.01
			c0.01,0.02,0.02,0.05,0.03,0.08c0.02,0.05,0.03,0.1,0.04,0.15c0.01,0.06,0.01,0.05,0-0.02c0,0.03,0,0.05,0.01,0.08
			c0,0.03,0.02,0.2,0.01,0.06c0,0.05-0.03,0.11-0.04,0.15c0.03-0.11-0.01,0.02-0.03,0.05c-0.01,0.02-0.03,0.04-0.04,0.06
			c0.04-0.05,0.04-0.06,0.01-0.02c-0.04,0.03-0.07,0.08-0.11,0.1c0.12-0.07-0.03,0.01-0.05,0.03c-0.02,0.01-0.04,0.02-0.07,0.03
			c-0.05,0.02-0.05,0.02,0.02-0.01c-0.03,0.03-0.1,0.04-0.14,0.04c-0.02,0.01-0.17,0.02-0.07,0.02c-0.06,0-0.12,0.01-0.19,0.01
			c-0.02,0-0.21-0.02-0.1,0c-0.06-0.01-0.12-0.02-0.18-0.04c-0.12-0.03-0.24-0.07-0.36-0.11c-0.25-0.09-0.56,0.1-0.62,0.35
			c-0.06,0.28,0.09,0.52,0.35,0.62c0.48,0.18,1.04,0.27,1.54,0.1c0.48-0.17,0.89-0.52,1.02-1.02c0.26-0.95-0.49-1.96-1.31-2.36
			c-0.53-0.26-1.1-0.31-1.64-0.06c-0.24,0.11-0.32,0.47-0.18,0.68C62.87,2.08,63.14,2.13,63.4,2.01L63.4,2.01z"/>
	</g>
</g>
<g>
	<g>
		<path class="st0" d="M67.33,3.53c-0.02-0.05-0.04-0.09-0.07-0.14c0.07,0.14,0.02,0.05,0.01,0.01c-0.01-0.03-0.02-0.06-0.03-0.09
			c-0.04-0.11-0.06-0.22-0.08-0.33c-0.02-0.09,0.01,0.12,0,0.03c0-0.03-0.01-0.05-0.01-0.08c0-0.06-0.01-0.12,0-0.18
			c0-0.03,0-0.05,0-0.08c0-0.01,0-0.03,0-0.04c0-0.06-0.01,0.08-0.01,0.07c0-0.05,0.02-0.12,0.04-0.17
			c0.01-0.02,0.01-0.05,0.02-0.07c0-0.01,0.01-0.02,0.01-0.03c0.01-0.05-0.03,0.08-0.03,0.06c0-0.04,0.05-0.1,0.07-0.14
			c0.01-0.01,0.02-0.03,0.03-0.04c0.03-0.05-0.04,0.07-0.04,0.05c0-0.02,0.04-0.04,0.05-0.05c0.02-0.02,0.03-0.03,0.05-0.05
			c0.01-0.01,0.02-0.02,0.03-0.02c0.04-0.04-0.09,0.06-0.04,0.03c0.05-0.03,0.11-0.06,0.17-0.09c0,0-0.1,0.04-0.05,0.02
			c0.01,0,0.03-0.01,0.04-0.01c0.03-0.01,0.07-0.02,0.1-0.03c0.01,0,0.03,0,0.04-0.01c0,0-0.12,0.01-0.06,0.01
			c0.03,0,0.07-0.01,0.1-0.01c0.06,0,0.13,0,0.19,0.01c0.02,0,0.03,0,0.05,0c0.07,0.01-0.02,0-0.04-0.01
			c0.04,0.01,0.08,0.01,0.12,0.02c0.07,0.01,0.14,0.03,0.21,0.05c0.15,0.04,0.3,0.09,0.44,0.15c0.25,0.09,0.56-0.1,0.62-0.35
			c0.06-0.28-0.09-0.52-0.35-0.62c-0.64-0.24-1.4-0.42-2.02-0.05C66.33,1.72,66.09,2.38,66.15,3c0.04,0.37,0.14,0.7,0.31,1.03
			c0.12,0.23,0.46,0.32,0.68,0.18C67.38,4.06,67.46,3.78,67.33,3.53L67.33,3.53z"/>
	</g>
</g>
<g>
	<g>
		<path class="st0" d="M70.12,2.54c-0.03,0.32-0.03,0.66,0.06,0.97c0.1,0.35,0.3,0.65,0.59,0.86c0.28,0.2,0.62,0.28,0.95,0.21
			c0.31-0.06,0.6-0.26,0.81-0.49c0.4-0.44,0.58-1.03,0.48-1.62c-0.09-0.56-0.51-0.99-1.04-1.16c-0.28-0.09-0.59-0.1-0.87-0.02
			c-0.32,0.08-0.58,0.28-0.77,0.54c-0.15,0.21-0.04,0.57,0.18,0.68c0.26,0.14,0.52,0.05,0.68-0.18c-0.1,0.14-0.02,0.02,0.01-0.01
			c0.01-0.01,0.04-0.04,0.05-0.05c0,0-0.11,0.08-0.05,0.04c0.03-0.02,0.07-0.04,0.1-0.06c0.07-0.04-0.06,0.03-0.06,0.02
			c0.01-0.01,0.07-0.02,0.09-0.03c0.03-0.01,0.07-0.01,0.1-0.02c0.06-0.02-0.14,0.01-0.05,0.01c0.02,0,0.03,0,0.05,0
			c0.04,0,0.08,0,0.12,0c0.04,0,0.12,0.03-0.04-0.01c0.02,0.01,0.05,0.01,0.07,0.01c0.04,0.01,0.08,0.02,0.12,0.03
			c0.02,0,0.03,0.01,0.05,0.02c0.09,0.03-0.11-0.06-0.03-0.01c0.04,0.02,0.07,0.04,0.1,0.06c0.01,0.01,0.03,0.02,0.04,0.03
			c0.07,0.05,0,0.01-0.03-0.02c0.02,0.03,0.06,0.05,0.09,0.08c0.03,0.03,0.06,0.09-0.02-0.03c0.01,0.01,0.02,0.03,0.03,0.04
			c0.02,0.04,0.04,0.08,0.07,0.12C72.05,2.62,72,2.51,72,2.5c0.01,0.03,0.03,0.07,0.03,0.1c0.01,0.04,0.02,0.08,0.03,0.12
			c0.02,0.06-0.01-0.14-0.01-0.04c0,0.02,0,0.04,0,0.05c0,0.04,0,0.09,0,0.13c0,0.03-0.01,0.05-0.01,0.08
			c0-0.03,0.01-0.05,0.01-0.08c0,0.02-0.01,0.04-0.01,0.05c-0.01,0.04-0.02,0.09-0.03,0.13C72,3.11,71.93,3.23,72.01,3.1
			c-0.05,0.08-0.08,0.16-0.13,0.24c-0.03,0.04-0.08,0.07,0.01-0.01c-0.01,0.01-0.02,0.03-0.04,0.04c-0.03,0.03-0.06,0.07-0.1,0.1
			c-0.02,0.02-0.03,0.03-0.05,0.05c-0.04,0.03-0.07,0.02,0.02-0.02c-0.06,0.03-0.11,0.07-0.17,0.1c-0.07,0.04,0.02-0.02,0.03-0.01
			c0,0-0.07,0.02-0.08,0.02c-0.06,0.01-0.07-0.02,0.02,0c-0.02,0-0.04,0-0.06,0c-0.01,0-0.02,0-0.03,0c-0.05,0-0.04,0,0.05,0.01
			c-0.02-0.01-0.04-0.01-0.06-0.01c-0.01,0-0.02-0.01-0.03-0.01c-0.05-0.02-0.04-0.01,0.04,0.02c-0.02-0.02-0.06-0.03-0.08-0.04
			c-0.02-0.01-0.03-0.02-0.05-0.03c-0.04-0.03-0.03-0.02,0.03,0.03c-0.02-0.01-0.03-0.03-0.04-0.04c-0.01-0.01-0.03-0.03-0.04-0.04
			c-0.01-0.01-0.03-0.03-0.04-0.04c0.01,0.02,0.03,0.04,0.04,0.05c-0.01-0.05-0.07-0.1-0.09-0.15c-0.05-0.09,0.03,0.08,0,0.01
			c-0.01-0.04-0.03-0.08-0.04-0.12c-0.01-0.02-0.01-0.04-0.02-0.07c0-0.01-0.04-0.16-0.02-0.07c0.02,0.08,0-0.03,0-0.04
			c0-0.04,0-0.07-0.01-0.11c0-0.14,0-0.28,0.02-0.42c0.02-0.26-0.25-0.51-0.5-0.5C70.33,2.05,70.15,2.26,70.12,2.54L70.12,2.54z"/>
	</g>
</g>
<g>
	<g>
		<path class="st0" d="M74.26,2.77c0.32,0.98,0.49,1.98,0.48,3.01c0,0.19,0.02,0.41-0.04,0.6c-0.04,0.13-0.09,0.17-0.21,0.19
			C74.3,6.6,74.13,6.55,73.94,6.5c-0.27-0.07-0.54-0.13-0.81-0.14c-0.64-0.03-0.64,0.97,0,1c0.28,0.01,0.54,0.12,0.81,0.17
			c0.28,0.05,0.56,0.07,0.84,0c0.65-0.16,0.91-0.73,0.95-1.35c0.08-1.23-0.12-2.5-0.5-3.67c-0.08-0.26-0.35-0.42-0.62-0.35
			C74.36,2.22,74.17,2.51,74.26,2.77L74.26,2.77z"/>
	</g>
</g>
<g>
	<g>
		<path class="st0" d="M74.22,0.55c-0.03,0.06-0.06,0.13-0.1,0.19c-0.04,0.06-0.06,0.12-0.06,0.19c-0.01,0.07-0.01,0.13,0.01,0.2
			c0.02,0.07,0.05,0.12,0.09,0.17c0.04,0.05,0.08,0.1,0.14,0.13c0.04,0.02,0.08,0.03,0.12,0.05c0.09,0.02,0.18,0.02,0.27,0
			c0.04-0.02,0.08-0.03,0.12-0.05c0.08-0.04,0.13-0.1,0.18-0.18c0.03-0.06,0.06-0.13,0.1-0.19c0.04-0.06,0.06-0.12,0.06-0.19
			c0.01-0.07,0.01-0.13-0.01-0.2c-0.02-0.07-0.05-0.12-0.09-0.17c-0.04-0.05-0.08-0.1-0.14-0.13c-0.04-0.02-0.08-0.03-0.12-0.05
			c-0.09-0.02-0.18-0.02-0.27,0c-0.04,0.02-0.08,0.03-0.12,0.05C74.32,0.42,74.26,0.48,74.22,0.55L74.22,0.55z"/>
	</g>
</g>
<g>
	<g>
		<path class="st0" d="M76.92,3.68c0.41,0.06,0.8,0.06,1.2-0.01c0.33-0.06,0.68-0.16,0.95-0.36c0.35-0.25,0.54-0.67,0.4-1.1
			c-0.12-0.37-0.45-0.67-0.84-0.75c-0.7-0.15-1.42,0.27-1.74,0.89c-0.18,0.36-0.26,0.74-0.28,1.14c-0.02,0.33-0.05,0.72,0.04,1.04
			c0.06,0.23,0.22,0.43,0.43,0.54c0.21,0.11,0.45,0.12,0.68,0.14c0.43,0.04,0.86,0.04,1.29,0.02c0.26-0.02,0.51-0.22,0.5-0.5
			c-0.01-0.26-0.22-0.52-0.5-0.5c-0.29,0.02-0.58,0.02-0.86,0.01c-0.14-0.01-0.29-0.01-0.43-0.03c-0.03,0-0.24-0.03-0.11-0.01
			c-0.03,0-0.05-0.01-0.08-0.01c-0.03-0.01-0.09-0.05-0.05-0.01c0.01,0.01,0.09,0.08,0.05,0.03c-0.04-0.04,0.02,0.02,0.02,0.02
			c0.05,0.08,0.01,0.05,0.01,0.01c0-0.09,0,0,0,0.01c0-0.13-0.01-0.26-0.01-0.38c0-0.13,0-0.26,0.01-0.38
			c0-0.06,0.01-0.11,0.01-0.17c-0.01,0.09,0,0.01,0-0.01c0.01-0.05,0.02-0.09,0.03-0.14c0.01-0.05,0.03-0.11,0.04-0.16
			c0.01-0.03,0.02-0.06,0.03-0.09c0-0.01,0.04-0.1,0.02-0.05c-0.02,0.05,0.02-0.03,0.02-0.04c0.01-0.02,0.03-0.05,0.04-0.07
			c0.01-0.02,0.02-0.03,0.03-0.05c0.07-0.11-0.07,0.07,0.02-0.02c0.04-0.04,0.07-0.08,0.11-0.11c0.02-0.02,0.04-0.03,0.06-0.05
			c-0.01,0-0.07,0.04-0.02,0.02c0.05-0.02,0.09-0.06,0.14-0.08c0.02-0.01,0.09-0.03,0.03-0.01c-0.07,0.02,0.04-0.01,0.05-0.01
			c0,0,0.07-0.02,0.07-0.02c0,0-0.13,0.01-0.02,0c0.02,0,0.05,0,0.08,0c0.03,0,0.09-0.02-0.02-0.01c0.04,0,0.09,0.02,0.13,0.03
			c0.06,0.02-0.06-0.05-0.01,0c0.04,0.03,0.06,0.05,0.01,0c0.02,0.02,0.04,0.04,0.06,0.06c-0.07-0.05-0.03-0.03-0.01-0.01
			c0.05,0.04,0.01,0.02,0-0.02c0,0.01,0.02,0.07,0.02,0.07c-0.01,0,0-0.13-0.01-0.02c0-0.03-0.01-0.1,0-0.02c0,0,0.03-0.12,0-0.02
			c0.01-0.01,0.02-0.03,0.03-0.04c-0.01,0.01-0.03,0.03-0.04,0.04c-0.03,0.04,0.02-0.01,0.03-0.02c-0.03,0.02-0.06,0.04-0.1,0.06
			c-0.02,0.01-0.05,0.02-0.07,0.03c0.06-0.03,0.04-0.02-0.01,0c-0.14,0.05-0.28,0.09-0.43,0.12c-0.03,0.01-0.07,0.01-0.1,0.02
			c-0.09,0.02,0.11-0.01-0.04,0.01c-0.07,0.01-0.15,0.01-0.22,0.01c-0.07,0-0.15,0-0.22,0c-0.03,0-0.07,0-0.1-0.01
			c-0.02,0-0.16-0.02-0.06-0.01c-0.26-0.04-0.55,0.06-0.62,0.35C76.52,3.3,76.65,3.64,76.92,3.68L76.92,3.68z"/>
	</g>
</g>
<g>
	<g>
		<path class="st0" d="M82.17,1.61c-0.65,0.53-1.28,1.3-1.03,2.21c0.12,0.41,0.39,0.76,0.74,1c0.36,0.25,0.81,0.32,1.24,0.25
			c0.26-0.05,0.43-0.37,0.35-0.62c-0.09-0.28-0.34-0.4-0.62-0.35c-0.12,0.02,0.11,0-0.01,0c-0.04,0-0.07,0-0.11,0
			c-0.1,0,0.1,0.03-0.01,0c-0.03-0.01-0.06-0.01-0.09-0.02c-0.03-0.01-0.06-0.02-0.09-0.03c-0.1-0.03,0.08,0.04-0.01-0.01
			c-0.02-0.01-0.18-0.11-0.18-0.11c0.01-0.01,0.08,0.07,0,0c-0.03-0.02-0.05-0.05-0.08-0.08c-0.01-0.02-0.06-0.05-0.06-0.07
			c0.04,0.05,0.04,0.06,0.01,0.02c-0.01-0.01-0.01-0.02-0.02-0.03c-0.02-0.03-0.04-0.06-0.06-0.09c-0.02-0.03-0.08-0.12-0.01-0.01
			c-0.03-0.05-0.05-0.13-0.06-0.19c-0.02-0.1,0.02-0.01,0,0.01c0.01-0.01,0-0.1,0-0.11c0-0.03-0.02-0.13,0-0.02
			c0-0.03,0.01-0.07,0.02-0.1c0.01-0.04,0.03-0.08,0.04-0.12c0.01-0.06-0.04,0.07,0-0.01c0.04-0.07,0.08-0.14,0.12-0.21
			c0.01-0.02,0.09-0.12,0.02-0.03c0.02-0.03,0.04-0.05,0.07-0.08c0.05-0.06,0.1-0.11,0.16-0.17c0.12-0.12,0.25-0.23,0.38-0.33
			c0.2-0.17,0.19-0.54,0-0.71C82.67,1.41,82.39,1.43,82.17,1.61L82.17,1.61z"/>
	</g>
</g>
<g>
	<g>
		<path class="st0" d="M85.11,0.62c0.13,1.09,0.26,2.17,0.38,3.26c0.03,0.26,0.21,0.51,0.5,0.5c0.24-0.01,0.53-0.22,0.5-0.5
			c-0.13-1.09-0.26-2.17-0.38-3.26c-0.03-0.26-0.21-0.51-0.5-0.5C85.36,0.13,85.07,0.34,85.11,0.62L85.11,0.62z"/>
	</g>
</g>
<g>
	<g>
		<path class="st0" d="M84.83,2.56c0.34-0.04,0.69-0.06,1.04-0.04c0.17,0.01,0.35,0.01,0.52,0.04c-0.02,0-0.04,0-0.05-0.01
			c0.03,0,0.05,0.01,0.08,0.01c0.04,0.01,0.08,0.01,0.12,0.02c0.09,0.02,0.18,0.03,0.28,0.05c0.25,0.06,0.55-0.08,0.62-0.35
			c0.06-0.25-0.08-0.56-0.35-0.62c-0.74-0.16-1.5-0.21-2.24-0.11c-0.14,0.02-0.25,0.04-0.35,0.15c-0.09,0.09-0.15,0.23-0.15,0.35
			C84.34,2.3,84.55,2.59,84.83,2.56L84.83,2.56z"/>
	</g>
</g>
<g>
	<g>
		<path class="st0" d="M88.68,2.95c0.1,0.42,0.2,0.83,0.3,1.25c0.06,0.25,0.36,0.43,0.62,0.35c0.27-0.09,0.41-0.34,0.35-0.62
			c-0.1-0.42-0.2-0.83-0.3-1.25c-0.06-0.25-0.36-0.43-0.62-0.35C88.76,2.43,88.61,2.68,88.68,2.95L88.68,2.95z"/>
	</g>
</g>
<g>
	<g>
		<path class="st0" d="M88.4,0.62c0,0.06,0.01,0.11,0.02,0.17c0.01,0.05,0.04,0.12,0.06,0.16c0.01,0.01,0.01,0.02,0.02,0.04
			c0.03,0.04,0.06,0.08,0.09,0.11C88.6,1.1,88.6,1.1,88.61,1.11c0.04,0.04,0.09,0.07,0.13,0.1c0.01,0.01,0.02,0.02,0.04,0.02
			c0.04,0.02,0.09,0.04,0.13,0.06c0.01,0,0.01,0.01,0.02,0.01c0.01,0,0.01,0,0.02,0c0.05,0.01,0.1,0.02,0.15,0.02
			c0.01,0,0.03,0,0.04,0c0.05,0,0.12-0.01,0.17-0.03c0.12-0.04,0.18-0.08,0.28-0.16c0.01-0.01,0.02-0.02,0.03-0.03
			c0.03-0.04,0.06-0.07,0.09-0.11c0-0.01,0.01-0.01,0.01-0.02c0.03-0.05,0.05-0.1,0.06-0.15c0-0.01,0.01-0.03,0.01-0.04
			c0.01-0.06,0.02-0.11,0.02-0.17c0-0.06-0.01-0.12-0.02-0.17c0-0.01-0.01-0.03-0.01-0.04c-0.02-0.05-0.04-0.11-0.07-0.15
			c-0.03-0.06-0.07-0.11-0.13-0.14c-0.05-0.04-0.1-0.07-0.17-0.09c-0.07-0.02-0.13-0.02-0.2-0.01c-0.07,0-0.13,0.02-0.19,0.06
			c-0.03,0.03-0.07,0.05-0.1,0.08c-0.06,0.06-0.1,0.14-0.13,0.22c-0.01,0.04-0.01,0.09-0.02,0.13c0,0.09,0.02,0.17,0.07,0.25
			c0.01,0.01,0.01,0.02,0.02,0.03c-0.02-0.04-0.03-0.08-0.05-0.12c0.01,0.02,0.01,0.03,0.01,0.05c-0.01-0.04-0.01-0.09-0.02-0.13
			c0,0.02,0,0.04,0,0.06c0.01-0.04,0.01-0.09,0.02-0.13c0,0.02-0.01,0.04-0.02,0.06c0.02-0.04,0.03-0.08,0.05-0.12
			c-0.01,0.02-0.02,0.03-0.03,0.05c0.03-0.03,0.05-0.07,0.08-0.1c-0.01,0.01-0.02,0.03-0.04,0.04c0.03-0.03,0.07-0.05,0.1-0.08
			c-0.01,0.01-0.02,0.02-0.04,0.02c0.04-0.02,0.08-0.03,0.12-0.05c-0.01,0.01-0.03,0.01-0.05,0.01c0.04-0.01,0.09-0.01,0.13-0.02
			c-0.02,0-0.03,0-0.05,0c0.04,0.01,0.09,0.01,0.13,0.02c-0.02,0-0.03-0.01-0.05-0.01c0.04,0.02,0.08,0.03,0.12,0.05
			c-0.02-0.01-0.04-0.02-0.05-0.03c0.03,0.03,0.07,0.05,0.1,0.08c-0.02-0.01-0.03-0.03-0.04-0.04c0.03,0.03,0.05,0.07,0.08,0.1
			c-0.01-0.01-0.02-0.03-0.03-0.05c0.02,0.04,0.03,0.08,0.05,0.12c-0.01-0.01-0.01-0.03-0.01-0.05c0.01,0.04,0.01,0.09,0.02,0.13
			c0-0.01,0-0.02,0-0.02c0-0.07-0.01-0.13-0.04-0.19c-0.02-0.06-0.05-0.12-0.1-0.16c-0.05-0.05-0.1-0.08-0.16-0.1
			c-0.06-0.03-0.12-0.05-0.19-0.04c-0.04,0.01-0.09,0.01-0.13,0.02c-0.08,0.02-0.16,0.07-0.22,0.13c-0.03,0.03-0.05,0.07-0.08,0.1
			C88.42,0.44,88.4,0.53,88.4,0.62L88.4,0.62z"/>
	</g>
</g>
<g>
	<g>
		<path class="st0" d="M92.07,2.09c-0.41,0.54-0.7,1.32-0.26,1.93c0.37,0.51,1.05,0.77,1.66,0.6c0.61-0.17,1.06-0.75,1.15-1.36
			c0.05-0.33,0.05-0.68-0.08-0.99c-0.15-0.37-0.39-0.63-0.76-0.78c-0.59-0.24-1.38,0.01-1.68,0.59C92,2.3,92.05,2.62,92.3,2.76
			c0.23,0.12,0.56,0.07,0.68-0.18c0.01-0.02,0.02-0.04,0.03-0.06c0.03-0.04,0.07-0.06-0.02,0.03c0.03-0.03,0.05-0.06,0.08-0.08
			c0.06-0.06-0.11,0.07-0.03,0.02c0.02-0.01,0.03-0.02,0.05-0.03c0.02-0.01,0.03-0.02,0.05-0.03c0.11-0.06-0.09,0.03-0.01,0.01
			c0.04-0.01,0.07-0.02,0.11-0.03c0.04-0.01,0.12-0.01-0.04,0c0.02,0,0.04,0,0.06-0.01c0.04,0,0.08,0,0.13,0
			c0.05,0,0.09,0.03-0.04-0.01c0.02,0.01,0.05,0.01,0.07,0.01c0.02,0.01,0.04,0.01,0.07,0.02c0.02,0.01,0.09,0.04,0,0
			c-0.09-0.04,0.04,0.03,0.06,0.04c0.08,0.05-0.09-0.09-0.03-0.02c0.01,0.01,0.02,0.02,0.03,0.03c0.02,0.02,0.03,0.04,0.05,0.05
			c-0.06-0.07-0.07-0.09-0.03-0.04c0.01,0.01,0.02,0.03,0.03,0.04c0.01,0.01,0.04,0.06,0.04,0.08c-0.01-0.02-0.02-0.04-0.02-0.06
			c0.01,0.02,0.02,0.04,0.02,0.06c0.02,0.05,0.03,0.11,0.04,0.16c0.01,0.05-0.01,0.1,0-0.02c0,0.03,0.01,0.06,0.01,0.08
			c0,0.06,0,0.11,0,0.17c0,0.04-0.03,0.12,0.01-0.02c0,0.02-0.01,0.04-0.01,0.06c-0.01,0.06-0.02,0.11-0.04,0.16
			c-0.01,0.02-0.01,0.04-0.02,0.05c-0.02,0.04-0.06,0.1,0.01-0.02c-0.03,0.05-0.05,0.1-0.08,0.15c-0.01,0.02-0.03,0.05-0.04,0.07
			c-0.01,0.01-0.01,0.01-0.02,0.02c-0.03,0.04-0.02,0.03,0.03-0.04c-0.03,0.02-0.06,0.07-0.09,0.1c-0.02,0.02-0.05,0.03-0.06,0.05
			c0.05-0.07,0.08-0.06,0.04-0.03c-0.05,0.03-0.12,0.06-0.17,0.1c0,0,0.12-0.04,0.05-0.02c-0.02,0.01-0.05,0.02-0.07,0.02
			c-0.02,0.01-0.05,0.01-0.07,0.02c-0.08,0.02,0.06-0.01,0.06-0.01c-0.03,0.02-0.11,0.01-0.15,0c-0.02,0-0.03,0-0.05,0
			c-0.09,0,0.14,0.03,0.01,0c-0.04-0.01-0.08-0.02-0.12-0.03c-0.02-0.01-0.05-0.02-0.07-0.03c0.14,0.04,0.07,0.03,0.03,0.01
			c-0.04-0.02-0.07-0.04-0.11-0.06c-0.08-0.05,0.09,0.08,0.02,0.02c-0.02-0.02-0.04-0.03-0.05-0.05c-0.02-0.02-0.03-0.04-0.05-0.05
			c-0.06-0.06,0.07,0.11,0.01,0.01c-0.01-0.01-0.02-0.03-0.02-0.04c-0.01-0.01-0.02-0.03-0.02-0.04c-0.02-0.05-0.01-0.03,0.02,0.05
			c-0.01-0.04-0.02-0.1-0.04-0.14c0,0.02,0.01,0.04,0.01,0.07c0-0.02,0-0.04,0-0.07c0,0,0-0.1,0-0.1c0,0.02-0.01,0.04-0.01,0.07
			c0-0.02,0.01-0.04,0.01-0.07c0.01-0.04,0.02-0.09,0.04-0.13c0-0.01,0.01-0.05,0.02-0.06c-0.03,0.07-0.03,0.07-0.01,0.03
			c0.01-0.02,0.02-0.04,0.03-0.06c0.07-0.13,0.16-0.26,0.25-0.38c0.07-0.1,0.08-0.27,0.05-0.39c-0.03-0.12-0.12-0.24-0.23-0.3
			c-0.12-0.06-0.26-0.09-0.39-0.05C92.24,1.91,92.16,1.98,92.07,2.09L92.07,2.09z"/>
	</g>
</g>
<g>
	<g>
		<path class="st0" d="M96.27,4.26c0.01-0.19,0.02-0.38,0.04-0.57c0.01-0.06,0,0.01,0,0.02c0-0.02,0.01-0.05,0.01-0.07
			c0.01-0.04,0.02-0.09,0.03-0.13c0.02-0.1,0.05-0.19,0.08-0.28c0.03-0.09-0.02,0.03,0.02-0.04c0.02-0.03,0.04-0.07,0.05-0.1
			c0.02-0.03,0.04-0.06,0.06-0.1c0,0-0.06,0.07-0.02,0.02c0.02-0.02,0.03-0.04,0.05-0.06c0.03-0.03,0.05-0.06,0.08-0.08
			c0.01-0.01,0.03-0.02,0.04-0.04c0,0-0.07,0.05-0.03,0.02c0.03-0.02,0.06-0.04,0.09-0.06c0.02-0.01,0.03-0.02,0.05-0.03
			c0.07-0.04-0.02,0.01-0.02,0.01c0,0,0.1-0.03,0.11-0.03c0.02,0,0.04-0.01,0.05-0.01c0.06-0.01-0.04,0.01-0.04,0.01
			c0,0,0.1,0,0.11,0c0.02,0,0.07,0.02,0.01,0c-0.07-0.02,0.01,0,0.02,0.01c0.02,0.01,0.05,0.02,0.07,0.02
			c0.05,0.01-0.03-0.01-0.04-0.02c0.01,0.01,0.08,0.04,0.1,0.05c0.01,0,0.09,0.06,0.09,0.06c0,0-0.07-0.06-0.03-0.02
			c0.02,0.02,0.04,0.03,0.05,0.05c0.03,0.03,0.05,0.05,0.08,0.08C97.4,2.97,97.43,3,97.43,3c0,0-0.05-0.08-0.02-0.03
			c0.04,0.07,0.09,0.14,0.13,0.21c0.01,0.02,0.02,0.03,0.02,0.05c0.03,0.05-0.01-0.03-0.01-0.03c0.02,0.01,0.03,0.09,0.04,0.11
			c0.03,0.09,0.05,0.19,0.07,0.28c0,0.02,0.01,0.05,0.01,0.07c0.01,0.04,0.01,0.06,0,0.01c0.01,0.06,0.01,0.11,0.02,0.17
			c0.01,0.11,0.02,0.23,0.02,0.34c0.02,0.26,0.04,0.52,0.08,0.79c0.04,0.26,0.38,0.43,0.62,0.35c0.28-0.09,0.39-0.34,0.35-0.62
			c0.01,0.09-0.01-0.06-0.01-0.08c-0.01-0.06-0.01-0.11-0.01-0.17c-0.01-0.13-0.02-0.26-0.03-0.39c-0.02-0.26-0.04-0.52-0.1-0.78
			c-0.09-0.43-0.3-0.86-0.63-1.15c-0.37-0.33-0.84-0.48-1.33-0.36c-0.45,0.11-0.83,0.46-1.05,0.85c-0.27,0.5-0.31,1.08-0.34,1.63
			c-0.01,0.26,0.24,0.51,0.5,0.5C96.05,4.75,96.25,4.54,96.27,4.26L96.27,4.26z"/>
	</g>
</g>
<g>
	<g>
		<path class="st0" d="M105.19,4.74c-0.02-0.37,0.04-0.74,0.21-1.07c0.08-0.16,0.18-0.33,0.3-0.46c0.01-0.01,0.11-0.1,0.11-0.11
			c0,0-0.04,0.02-0.05,0.02c-0.04-0.01-0.07-0.02-0.11-0.03c0.08,0.03-0.05-0.03,0,0c0.05,0.04-0.04-0.06,0-0.01
			c0.02,0.02,0.03,0.05,0.04,0.07c0.03,0.05,0.06,0.1,0.08,0.16c0.05,0.11,0.1,0.23,0.16,0.34c0.15,0.28,0.38,0.52,0.69,0.59
			c0.25,0.06,0.56-0.07,0.62-0.35c0.06-0.3,0.12-0.68,0.32-0.87c0.05-0.05,0.13-0.09,0.23-0.08c0.15,0.02,0.28,0.13,0.36,0.25
			c0.25,0.35,0.22,0.81,0.29,1.21c0.1,0.57,0.63,0.91,1.18,0.66c0.25-0.11,0.31-0.47,0.18-0.68c-0.15-0.25-0.44-0.29-0.68-0.18
			c0.1,0.01,0.19,0.01,0.29,0.02c0.03,0.06,0.04,0.07,0.02,0.02c0,0.03-0.03-0.19-0.02-0.11c-0.02-0.13-0.03-0.25-0.04-0.38
			c-0.04-0.27-0.1-0.53-0.21-0.79c-0.2-0.46-0.59-0.86-1.1-0.98c-0.48-0.11-0.97,0.05-1.28,0.42c-0.29,0.35-0.42,0.79-0.5,1.23
			c0.21-0.12,0.41-0.23,0.62-0.35c-0.13-0.03,0.06,0.02-0.01,0c-0.04-0.01,0.05,0.06-0.01-0.01c-0.06-0.07,0.02,0.04-0.01-0.01
			c-0.02-0.03-0.04-0.06-0.06-0.09c-0.07-0.14-0.13-0.28-0.2-0.42c-0.17-0.34-0.46-0.62-0.86-0.62c-0.56,0-0.97,0.59-1.2,1.04
			c-0.24,0.49-0.37,1.03-0.34,1.57C104.22,5.38,105.22,5.38,105.19,4.74L105.19,4.74z"/>
	</g>
</g>
<g>
	<g>
		<path class="st0" d="M112.37,2.54c-0.77-0.57-2-0.04-2.13,0.9c-0.06,0.47,0.13,0.96,0.49,1.26c0.42,0.35,0.97,0.41,1.46,0.16
			c0.55-0.29,0.82-0.89,0.73-1.49c-0.04-0.24-0.33-0.39-0.55-0.36c-0.22,0.03-0.47,0.24-0.43,0.49c0.12,0.92,0.68,1.66,1.55,2.01
			c0.24,0.1,0.56-0.11,0.62-0.35c0.07-0.29-0.09-0.51-0.35-0.62c0.11,0.04-0.02-0.01-0.03-0.02c-0.03-0.02-0.06-0.03-0.09-0.05
			c-0.03-0.02-0.06-0.04-0.09-0.05c-0.01-0.01-0.12-0.09-0.03-0.02c-0.06-0.05-0.12-0.1-0.17-0.15c-0.02-0.02-0.05-0.05-0.07-0.08
			c-0.01-0.01-0.1-0.12-0.03-0.03c-0.09-0.12-0.17-0.25-0.23-0.39c0.03,0.06,0.01,0.03,0-0.02c-0.01-0.03-0.02-0.07-0.03-0.1
			c-0.01-0.04-0.02-0.08-0.03-0.12c-0.01-0.03-0.02-0.15-0.01-0.03c-0.33,0.04-0.65,0.09-0.98,0.13c-0.02-0.14,0,0.04-0.01,0.06
			c0.01-0.06,0.01-0.08,0-0.04c0,0.02-0.01,0.04-0.01,0.06c-0.01,0.02-0.01,0.05-0.02,0.07c0.03-0.06,0.03-0.06,0-0.01
			c-0.02,0.03-0.04,0.07-0.06,0.1c0.06-0.1-0.03,0.02-0.05,0.05c-0.02,0.02-0.12,0.08-0.02,0.02c-0.04,0.02-0.08,0.05-0.12,0.07
			c-0.03,0.02-0.02,0.01,0.03-0.01c-0.02,0.01-0.05,0.02-0.07,0.02c-0.1,0.04,0.08,0.01-0.02,0.01c-0.03,0-0.05,0-0.08,0
			c-0.06,0-0.05,0,0.02,0c0,0-0.1-0.02-0.1-0.03c0.06,0.03,0.07,0.03,0.02,0.01c-0.02-0.01-0.04-0.02-0.06-0.04
			c-0.08-0.04,0.06,0.07-0.01-0.01c-0.03-0.03-0.06-0.07-0.09-0.09c-0.02-0.03-0.02-0.02,0.02,0.03c-0.01-0.02-0.03-0.04-0.04-0.06
			c-0.01-0.01-0.07-0.14-0.04-0.07c0.03,0.07-0.02-0.06-0.02-0.08c-0.01-0.02-0.01-0.05-0.01-0.07c0,0.02,0.01,0.04,0.01,0.06
			c-0.01-0.01-0.01-0.13,0-0.14c-0.01,0.07-0.01,0.08,0,0.04c0-0.02,0.01-0.04,0.01-0.05c0.02-0.05,0.01-0.05-0.01,0.02
			c0.01-0.02,0.02-0.04,0.03-0.06c0.01-0.01,0.01-0.02,0.02-0.03c0.03-0.04,0.02-0.04-0.02,0.02c0-0.02,0.07-0.07,0.08-0.08
			c0.03-0.02,0.02-0.02-0.04,0.03c0.02-0.01,0.04-0.03,0.06-0.04c0.03-0.02,0.06-0.03,0.09-0.05c0.05-0.02,0.04-0.02-0.03,0.01
			c0.02-0.01,0.04-0.01,0.06-0.02c0,0,0.1-0.03,0.1-0.02c-0.08,0.01-0.09,0.01-0.03,0.01c0.02,0,0.05,0,0.07,0c0,0,0.1,0,0.1,0.01
			c-0.08-0.01-0.09-0.01-0.03,0c0.02,0,0.04,0.01,0.06,0.02c0.09,0.02-0.08-0.05,0,0c0.04,0.02,0.08,0.05,0.11,0.07
			c0.21,0.16,0.57,0.04,0.68-0.18C112.69,2.96,112.59,2.71,112.37,2.54L112.37,2.54z"/>
	</g>
</g>
<g>
	<g>
		<path class="st0" d="M114.38,4.16c0.12,1.17,0.26,2.34,0.42,3.5c0.04,0.27,0.38,0.41,0.62,0.35c0.29-0.08,0.39-0.35,0.35-0.62
			c-0.15-1.07-0.27-2.16-0.38-3.24c-0.03-0.27-0.21-0.5-0.5-0.5C114.63,3.66,114.36,3.89,114.38,4.16L114.38,4.16z"/>
	</g>
</g>
<g>
	<g>
		<path class="st0" d="M115.32,3.75c0.05-0.05,0.1-0.09,0.15-0.13c0.01-0.01,0.03-0.02,0.04-0.03c0.04-0.04-0.04,0.03-0.04,0.03
			c0.04-0.02,0.07-0.05,0.11-0.08c0.11-0.08,0.23-0.15,0.36-0.2c0.02-0.01,0.12-0.05,0.05-0.02c-0.07,0.03,0.03-0.01,0.05-0.02
			c0.07-0.03,0.14-0.05,0.2-0.07c0.04-0.01,0.07-0.02,0.11-0.03c0.01,0,0.03,0,0.05-0.01c0,0-0.11,0.01-0.06,0.01
			c0.02,0,0.12,0.01,0.04-0.01c-0.08-0.01-0.02,0-0.01,0c0.06,0.03-0.02-0.01-0.04-0.02c0.08,0.04-0.07-0.06-0.01,0
			c0,0-0.07-0.09-0.04-0.04c0.03,0.04-0.02-0.05-0.02-0.05c0,0.03,0.02,0.06,0.02,0.09c0.02,0.08-0.01-0.11,0,0
			c0.01,0.07,0.01,0.14,0.01,0.21c0,0.03,0,0.07,0,0.1c0,0.02-0.01,0.15,0,0.06c0.01-0.08-0.01,0.03-0.01,0.05
			c-0.01,0.03-0.01,0.06-0.02,0.1c-0.01,0.03-0.02,0.06-0.03,0.09c-0.01,0.02-0.01,0.03-0.02,0.05c-0.02,0.06,0-0.01,0.01-0.03
			c-0.04,0.05-0.06,0.13-0.1,0.19c-0.01,0.02-0.07,0.1-0.02,0.04c0.05-0.06-0.02,0.02-0.04,0.04c-0.02,0.03-0.05,0.05-0.08,0.07
			c-0.08,0.07,0.06-0.04-0.01,0c-0.03,0.02-0.06,0.04-0.09,0.06c-0.01,0.01-0.03,0.01-0.04,0.02c-0.06,0.03,0.02-0.01,0.04-0.01
			c-0.03,0-0.08,0.03-0.11,0.04c-0.02,0.01-0.14,0.03-0.05,0.01c0.09-0.01-0.03,0-0.05,0c-0.04,0-0.08,0-0.12-0.01
			c-0.12-0.01-0.27,0.07-0.35,0.15c-0.09,0.09-0.15,0.23-0.15,0.35c0.01,0.13,0.05,0.26,0.15,0.35c0.1,0.1,0.21,0.13,0.35,0.15
			c0.85,0.1,1.57-0.65,1.71-1.44c0.08-0.44,0.09-0.95-0.2-1.31c-0.32-0.39-0.86-0.31-1.28-0.16c-0.43,0.16-0.82,0.4-1.15,0.71
			c-0.19,0.18-0.2,0.53,0,0.71C114.82,3.94,115.12,3.94,115.32,3.75L115.32,3.75z"/>
	</g>
</g>
<g>
	<g>
		<path class="st0" d="M119.54,1.67c-0.25,0.07-0.47,0.19-0.67,0.35c-0.08,0.07-0.15,0.14-0.22,0.22c-0.14,0.17-0.18,0.36-0.11,0.57
			c0.12,0.36,0.39,0.62,0.63,0.9c0.06,0.07-0.07-0.1,0.01,0.02c0.02,0.02,0.03,0.05,0.04,0.07c0.06,0.12-0.01-0.07,0,0.01
			c0.03,0.14,0.01-0.08,0.01,0.01c0,0.14,0.03-0.07,0.01,0.01c0,0.01,0,0.02-0.01,0.03c-0.02,0.05-0.01,0.04,0.02-0.04
			c-0.02,0.02-0.05,0.07-0.06,0.09c0.05-0.06,0.06-0.08,0.02-0.04c-0.01,0.01-0.03,0.03-0.04,0.04c-0.07,0.07,0.09-0.05,0.01-0.01
			c-0.03,0.02-0.07,0.04-0.1,0.06c-0.02,0.01-0.11,0.04-0.11,0.05c0.07-0.03,0.08-0.03,0.03-0.01c-0.02,0.01-0.04,0.01-0.06,0.02
			c-0.15,0.05-0.31,0.08-0.47,0.11c-0.26,0.04-0.42,0.38-0.35,0.62c0.09,0.29,0.34,0.39,0.62,0.35c0.67-0.09,1.45-0.44,1.49-1.21
			c0.02-0.37-0.17-0.68-0.41-0.95c-0.09-0.1-0.17-0.2-0.27-0.3c-0.02-0.03-0.01-0.02,0.03,0.04c-0.01-0.02-0.02-0.03-0.03-0.05
			c-0.02-0.02-0.03-0.05-0.05-0.08c-0.05-0.09,0.01-0.02,0,0.01c0.01-0.02-0.03-0.09-0.03-0.11c-0.04,0.16-0.09,0.32-0.13,0.49
			c0.04-0.05,0.07-0.09,0.12-0.13c0.02-0.02,0.05-0.05,0.07-0.06c-0.06,0.02-0.04,0.03,0.01,0c0.04-0.02,0.11-0.08,0.15-0.09
			c-0.03,0-0.07,0.03-0.01,0.01c0.04-0.01,0.07-0.02,0.11-0.03c0.25-0.07,0.43-0.36,0.35-0.62C120.07,1.76,119.81,1.59,119.54,1.67
			L119.54,1.67z"/>
	</g>
</g>
<g>
	<g>
		<path class="st0" d="M192.83,3.22c0,0.54,0,1.09,0,1.63c0,0.26,0.23,0.51,0.5,0.5c0.27-0.01,0.5-0.22,0.5-0.5
			c0-0.54,0-1.09,0-1.63c0-0.26-0.23-0.51-0.5-0.5C193.06,2.73,192.83,2.94,192.83,3.22L192.83,3.22z"/>
	</g>
</g>
<g>
	<g>
		<path class="st0" d="M192.99,0.67c-0.09,0.1-0.16,0.21-0.19,0.34c-0.02,0.06-0.02,0.13-0.03,0.2c0,0.07,0.01,0.14,0.02,0.2
			c0,0.02,0.01,0.05,0.02,0.07c0.02,0.05,0.05,0.12,0.08,0.18c0.07,0.11,0.16,0.21,0.28,0.27c0.04,0.02,0.08,0.03,0.12,0.05
			c0.04,0.01,0.09,0.01,0.13,0.02c0.04-0.01,0.09-0.01,0.13-0.02c0.07-0.02,0.12-0.05,0.17-0.09c0.04-0.02,0.07-0.05,0.09-0.09
			c0.03-0.03,0.05-0.07,0.06-0.11c0.02-0.04,0.03-0.08,0.03-0.13c0.01-0.07,0.01-0.13-0.01-0.2c-0.03-0.1-0.06-0.19-0.09-0.29
			c-0.02-0.07-0.05-0.12-0.09-0.17c-0.04-0.05-0.08-0.1-0.14-0.13c-0.06-0.04-0.12-0.06-0.19-0.06c-0.07-0.01-0.13-0.01-0.2,0.01
			c-0.04,0.02-0.08,0.03-0.12,0.05c-0.08,0.04-0.13,0.1-0.18,0.18c-0.02,0.04-0.03,0.08-0.05,0.12c-0.02,0.09-0.02,0.18,0,0.27
			c0.03,0.1,0.06,0.19,0.09,0.29c0.24-0.19,0.49-0.38,0.73-0.56c-0.01-0.01-0.02-0.01-0.03-0.02c0.03,0.03,0.07,0.05,0.1,0.08
			c-0.02-0.01-0.03-0.03-0.05-0.05c0.03,0.03,0.05,0.07,0.08,0.1c-0.02-0.02-0.03-0.05-0.04-0.07c0.02,0.04,0.03,0.08,0.05,0.12
			c-0.01-0.03-0.02-0.05-0.02-0.08c0.01,0.04,0.01,0.09,0.02,0.13c0-0.03,0-0.06,0-0.09c-0.01,0.04-0.01,0.09-0.02,0.13
			c0-0.03,0.01-0.05,0.02-0.08c-0.02,0.04-0.03,0.08-0.05,0.12c0.01-0.02,0.02-0.04,0.03-0.06c-0.03,0.03-0.05,0.07-0.08,0.1
			c0-0.01,0.01-0.01,0.01-0.02c0.05-0.05,0.08-0.1,0.1-0.16c0.03-0.06,0.05-0.12,0.04-0.19c0-0.07-0.01-0.13-0.04-0.19
			c-0.02-0.06-0.05-0.12-0.1-0.16c-0.03-0.03-0.07-0.05-0.1-0.08c-0.08-0.05-0.16-0.07-0.25-0.07c-0.04,0.01-0.09,0.01-0.13,0.02
			C193.12,0.57,193.05,0.61,192.99,0.67L192.99,0.67z"/>
	</g>
</g>
<g>
	<g>
		<path class="st0" d="M195.54,5c-0.02-0.09-0.05-0.17-0.06-0.26c-0.01-0.03-0.04-0.19-0.01-0.06c-0.01-0.04-0.01-0.08-0.01-0.12
			c-0.01-0.18-0.01-0.36,0-0.54c0-0.03,0.01-0.05,0.01-0.08c-0.01,0.07-0.01,0.08,0,0.03c0.01-0.03,0.02-0.06,0.02-0.09
			c0.02-0.05,0.01-0.04-0.02,0.03c0.01-0.02,0.02-0.04,0.03-0.05c0.02,0.03-0.16,0.12-0.07,0.08c-0.08,0.03-0.09,0.04-0.04,0.02
			c0.05-0.01,0.03-0.01-0.05,0c0.02,0,0.04,0,0.06,0c-0.03,0-0.05-0.01-0.08-0.01c0.02,0,0.04,0.01,0.06,0.01
			c0.05,0.02,0.04,0.01-0.04-0.02c0.01,0.02,0.13,0.06,0.05,0.02c-0.1-0.05,0.06,0.03,0.04,0.05c-0.04-0.06-0.05-0.07-0.02-0.02
			c0.01,0.01,0.02,0.03,0.03,0.04c0.02,0.03,0.03,0.07,0.05,0.1c0.04,0.09-0.04-0.1,0.01,0.02c0.06,0.17,0.12,0.34,0.17,0.51
			c0.13,0.37,0.25,0.74,0.38,1.11c0.08,0.25,0.35,0.44,0.62,0.35c0.25-0.08,0.44-0.35,0.35-0.62c-0.12-0.35-0.23-0.69-0.35-1.04
			c-0.11-0.33-0.2-0.71-0.39-1c-0.25-0.36-0.65-0.59-1.1-0.49c-0.22,0.05-0.42,0.21-0.53,0.4c-0.1,0.19-0.13,0.39-0.15,0.61
			c-0.04,0.42,0,0.86,0.12,1.26c0.07,0.25,0.36,0.43,0.62,0.35C195.45,5.53,195.61,5.27,195.54,5L195.54,5z"/>
	</g>
</g>
<g>
	<g>
		<path class="st0" d="M198.74,2.92c-0.21,0.16-0.43,0.31-0.6,0.51c-0.21,0.25-0.34,0.52-0.37,0.85c-0.03,0.3,0.07,0.58,0.26,0.82
			c0.19,0.24,0.54,0.37,0.84,0.34c0.34-0.03,0.65-0.18,0.93-0.37c0.11-0.07,0.19-0.17,0.23-0.3c0.03-0.12,0.02-0.28-0.05-0.39
			c-0.14-0.22-0.45-0.34-0.68-0.18c-0.13,0.08-0.25,0.16-0.39,0.22c0.04-0.02,0.08-0.03,0.12-0.05c-0.09,0.04-0.18,0.07-0.28,0.08
			c0.04-0.01,0.09-0.01,0.13-0.02c-0.05,0.01-0.11,0.01-0.16,0c0.04,0.01,0.09,0.01,0.13,0.02c-0.05-0.01-0.09-0.02-0.13-0.03
			c0.04,0.02,0.08,0.03,0.12,0.05c-0.04-0.02-0.08-0.04-0.12-0.07c0.03,0.03,0.07,0.05,0.1,0.08c-0.04-0.03-0.07-0.06-0.09-0.09
			c0.03,0.03,0.05,0.07,0.08,0.1c-0.03-0.04-0.05-0.07-0.07-0.12c0.02,0.04,0.03,0.08,0.05,0.12c-0.02-0.05-0.04-0.11-0.04-0.17
			c0.01,0.04,0.01,0.09,0.02,0.13c-0.01-0.07-0.01-0.13,0-0.2c-0.01,0.04-0.01,0.09-0.02,0.13c0.01-0.07,0.03-0.14,0.06-0.21
			c-0.02,0.04-0.03,0.08-0.05,0.12c0.03-0.08,0.08-0.15,0.13-0.22c-0.03,0.03-0.05,0.07-0.08,0.1c0.11-0.14,0.24-0.26,0.38-0.37
			c-0.03,0.03-0.07,0.05-0.1,0.08c0.05-0.04,0.1-0.08,0.16-0.12c0.11-0.08,0.19-0.16,0.23-0.3c0.03-0.12,0.02-0.28-0.05-0.39
			c-0.07-0.11-0.17-0.2-0.3-0.23C199,2.84,198.85,2.84,198.74,2.92L198.74,2.92z"/>
	</g>
</g>
<g>
	<g>
		<path class="st0" d="M200.6,1.97c0.03,0.86,0.06,1.73,0.1,2.59c0.01,0.26,0.22,0.51,0.5,0.5c0.26-0.01,0.51-0.22,0.5-0.5
			c-0.03-0.86-0.06-1.73-0.1-2.59c-0.01-0.26-0.22-0.51-0.5-0.5C200.83,1.48,200.59,1.69,200.6,1.97L200.6,1.97z"/>
	</g>
</g>
<g>
	<g>
		<path class="st0" d="M202.35,3.92c0.1,0.3,0.24,0.59,0.41,0.85c0.18,0.27,0.42,0.6,0.72,0.74c0.25,0.12,0.53,0.14,0.77-0.01
			c0.16-0.1,0.29-0.26,0.38-0.42c0.15-0.29,0.23-0.61,0.22-0.93c-0.01-0.36-0.11-0.72-0.31-1.01c-0.07-0.11-0.17-0.19-0.3-0.23
			c-0.12-0.03-0.28-0.02-0.39,0.05c-0.21,0.14-0.34,0.45-0.18,0.68c0.03,0.04,0.06,0.09,0.08,0.13c0.01,0.02,0.02,0.05,0.03,0.07
			c0.04,0.09-0.04-0.12-0.01-0.02c0.03,0.1,0.06,0.2,0.08,0.3c-0.01-0.04-0.01-0.09-0.02-0.13c0.02,0.13,0.02,0.26,0,0.39
			c0.01-0.04,0.01-0.09,0.02-0.13c-0.01,0.07-0.02,0.14-0.04,0.2c-0.01,0.03-0.02,0.07-0.03,0.1c-0.03,0.09,0.05-0.12,0-0.01
			c-0.03,0.06-0.07,0.11-0.1,0.17c0.05-0.07,0.06-0.08,0.03-0.04c-0.04,0.03-0.02,0.02,0.04-0.03c-0.04,0.03-0.03,0.02,0.05-0.02
			c-0.02,0.01-0.04,0.01-0.05,0.01c0.04-0.01,0.09-0.01,0.13-0.02c-0.02,0-0.04,0-0.05,0c0.04,0.01,0.09,0.01,0.13,0.02
			c-0.02,0-0.04-0.01-0.05-0.01c-0.05-0.02-0.03-0.01,0.04,0.02c-0.01-0.01-0.06-0.04-0.07-0.05c0.06,0.05,0.07,0.06,0.03,0.02
			c-0.01-0.01-0.02-0.02-0.03-0.03c-0.02-0.02-0.05-0.05-0.07-0.07c-0.05-0.05-0.09-0.1-0.13-0.16c-0.06-0.07,0.07,0.09,0.01,0.01
			c-0.02-0.03-0.04-0.06-0.06-0.08c-0.07-0.11-0.14-0.22-0.2-0.34c-0.03-0.06-0.06-0.13-0.09-0.19c0.07,0.12,0.02,0.05,0.01,0.01
			c-0.01-0.04-0.03-0.07-0.04-0.11c-0.09-0.25-0.35-0.44-0.62-0.35C202.45,3.39,202.25,3.66,202.35,3.92L202.35,3.92z"/>
	</g>
</g>
<g>
	<g>
		<path class="st0" d="M206.63,2.45c-0.48,0.14-0.66,0.62-0.58,1.08c0.04,0.22,0.16,0.4,0.29,0.56c0.05,0.06,0.11,0.12,0.17,0.18
			c0.03,0.03,0.07,0.07,0.1,0.1c0.01,0.01,0.09,0.12,0.05,0.06c-0.04-0.07,0.03,0.06,0.04,0.07c0.02,0.05,0.02,0.04-0.01-0.04
			c0.01,0.02,0.01,0.04,0.02,0.06c0.01,0.03,0.01,0.06,0.02,0.09c-0.01-0.08-0.01-0.1-0.01-0.04c0,0.02,0,0.04,0,0.06
			c0,0.02,0,0.04,0,0.06c0.01-0.08,0.01-0.1,0-0.04c-0.01,0.03-0.02,0.06-0.02,0.09c-0.02,0.05-0.01,0.04,0.02-0.03
			c-0.01,0.02-0.02,0.04-0.03,0.05c-0.01,0.02-0.02,0.03-0.03,0.05c0.04-0.06,0.05-0.07,0.03-0.04c-0.01,0.01-0.02,0.02-0.03,0.03
			c-0.04,0.04-0.03,0.03,0.03-0.02c0,0-0.11,0.06-0.11,0.06c0.07-0.03,0.08-0.04,0.03-0.02c-0.01,0-0.02,0.01-0.03,0.01
			c-0.02,0.01-0.04,0.01-0.06,0.01c0.08-0.01,0.1-0.01,0.04-0.01c-0.02,0-0.04,0-0.06,0c-0.05,0-0.04,0,0.04,0.01
			c-0.02-0.01-0.07-0.02-0.09-0.02c-0.05-0.02-0.04-0.01,0.03,0.02c-0.02-0.01-0.04-0.02-0.05-0.03c-0.02-0.01-0.03-0.02-0.05-0.03
			c0.06,0.05,0.07,0.05,0.03,0.02c-0.19-0.18-0.52-0.2-0.71,0c-0.18,0.19-0.2,0.52,0,0.71c0.37,0.35,0.89,0.41,1.35,0.21
			c0.42-0.19,0.67-0.66,0.68-1.11c0-0.23-0.06-0.46-0.18-0.66c-0.11-0.19-0.27-0.34-0.42-0.49c-0.02-0.03-0.07-0.06-0.08-0.09
			c0.04,0.05,0.05,0.06,0.01,0.02c-0.01-0.02-0.02-0.03-0.03-0.05c-0.02-0.05-0.02-0.03,0.02,0.05c-0.01-0.02-0.01-0.03-0.02-0.05
			c-0.04-0.13,0,0.08,0,0c0-0.02,0-0.04,0-0.05c0-0.05,0-0.04-0.01,0.06c0-0.02,0.01-0.03,0.01-0.05c0.02-0.05,0.01-0.03-0.02,0.05
			c0.08-0.1-0.07,0.06-0.01,0.01c-0.07,0.05-0.09,0.06-0.04,0.04c-0.08,0.03-0.1,0.04-0.05,0.02c0.25-0.07,0.43-0.36,0.35-0.62
			C207.17,2.55,206.9,2.38,206.63,2.45L206.63,2.45z"/>
	</g>
</g>
<g>
	<g>
		<path class="st0" d="M208.85,3.79c0.03,0.38,0.06,0.77,0.1,1.15c0.01,0.13,0.05,0.26,0.15,0.35c0.09,0.09,0.23,0.15,0.35,0.15
			c0.13-0.01,0.26-0.05,0.35-0.15c0.09-0.09,0.16-0.22,0.15-0.35c-0.03-0.38-0.06-0.77-0.1-1.15c-0.01-0.13-0.05-0.26-0.15-0.35
			c-0.09-0.09-0.23-0.15-0.35-0.15c-0.13,0.01-0.26,0.05-0.35,0.15C208.91,3.53,208.84,3.66,208.85,3.79L208.85,3.79z"/>
	</g>
</g>
<g>
	<g>
		<path class="st0" d="M209.62,1.26c0,0,0-0.01,0-0.01c0.01,0.03-0.03-0.09-0.05-0.12c0,0,0,0,0,0c0-0.01-0.07-0.1-0.08-0.1
			c0,0,0,0,0,0c-0.01-0.01-0.1-0.08-0.1-0.08c0,0,0,0,0,0c0,0-0.12-0.05-0.12-0.05c0,0,0,0,0,0c-0.02-0.01-0.1-0.01-0.07-0.01
			c0.04,0.01-0.05-0.01-0.07-0.01c0,0,0,0,0,0c0,0,0,0,0,0c-0.02,0-0.04,0.01-0.07,0.01c0.02,0-0.05,0-0.07,0.01c0,0-0.01,0-0.01,0
			c-0.02,0.01-0.1,0.04-0.12,0.05c0,0,0,0,0,0c0,0,0,0-0.01,0c0,0-0.01,0-0.01,0.01c0,0,0,0,0,0c-0.03,0.02-0.08,0.06-0.1,0.08
			c0,0,0,0,0,0c-0.04,0.03-0.08,0.1-0.09,0.12c-0.03,0.04-0.05,0.11-0.06,0.14c0,0,0,0.01,0,0.01c0,0.01-0.02,0.13-0.02,0.13
			c0,0,0,0,0,0c0,0,0,0,0,0c0,0.11,0.01,0.12,0.04,0.2c0,0.01,0.02,0.04,0.03,0.06c0.01,0.02,0.1,0.13,0.04,0.05
			c-0.05-0.06,0.03,0.04,0.04,0.05c0,0,0,0,0,0c0.01,0.01,0.09,0.07,0.1,0.08c0,0,0,0,0,0c0.04,0.02,0.09,0.04,0.13,0.05
			c0.07,0.02,0.13,0.02,0.2,0.01c0.07,0,0.13-0.02,0.19-0.06c0.06-0.03,0.11-0.07,0.14-0.13c0.04-0.05,0.07-0.1,0.09-0.17
			c0.01-0.04,0.01-0.09,0.02-0.13c0-0.09-0.02-0.17-0.07-0.25c-0.03-0.03-0.05-0.07-0.08-0.1c-0.06-0.06-0.14-0.1-0.22-0.13
			c0,0-0.01,0-0.01,0c0.04,0.02,0.08,0.03,0.12,0.05c0,0-0.01,0-0.01,0c0.03,0.03,0.07,0.05,0.1,0.08c0,0,0,0,0,0
			c0.03,0.03,0.05,0.07,0.08,0.1c0,0,0,0,0,0c0.02,0.04,0.03,0.08,0.05,0.12c0,0,0,0,0-0.01c0.01,0.04,0.01,0.09,0.02,0.13
			c0,0,0-0.01,0-0.01c-0.01,0.04-0.01,0.09-0.02,0.13c0,0,0-0.01,0-0.01c-0.02,0.04-0.03,0.08-0.05,0.12c0-0.01,0.01-0.01,0.01-0.02
			c-0.03,0.03-0.05,0.07-0.08,0.1c0.01-0.01,0.01-0.01,0.02-0.02c-0.03,0.03-0.07,0.05-0.1,0.08c0.01,0,0.01-0.01,0.02-0.01
			c-0.04,0.02-0.08,0.03-0.12,0.05c0,0,0.01,0,0.01,0c-0.04,0.01-0.09,0.01-0.13,0.02c0,0,0.01,0,0.01,0
			c-0.04-0.01-0.09-0.01-0.13-0.02c0,0,0,0,0.01,0c-0.04-0.02-0.08-0.03-0.12-0.05c0,0,0,0,0,0c-0.03-0.03-0.07-0.05-0.1-0.08
			c0,0,0,0,0,0c-0.03-0.03-0.05-0.07-0.08-0.1c0,0,0,0,0,0.01c-0.02-0.04-0.03-0.08-0.05-0.12c0,0,0,0.01,0,0.01
			c0.02,0.07,0.05,0.12,0.09,0.17c0.04,0.05,0.08,0.1,0.14,0.13c0.06,0.04,0.12,0.06,0.19,0.06c0.07,0.01,0.13,0.01,0.2-0.01
			c0.04-0.02,0.08-0.03,0.12-0.05c0.08-0.04,0.13-0.1,0.18-0.18c0.02-0.04,0.03-0.08,0.05-0.12C209.64,1.44,209.64,1.35,209.62,1.26
			L209.62,1.26z"/>
	</g>
</g>
<g>
	<g>
		<path class="st0" d="M211.56,3.44c-0.44,0.35-0.47,1.03-0.22,1.49c0.28,0.53,0.93,0.72,1.48,0.57c0.55-0.14,0.98-0.63,1.08-1.19
			c0.1-0.55-0.02-1.2-0.47-1.59c-0.28-0.24-0.65-0.35-1.01-0.25c-0.32,0.09-0.63,0.36-0.68,0.7c-0.02,0.14-0.02,0.26,0.05,0.39
			c0.06,0.1,0.18,0.2,0.3,0.23c0.13,0.03,0.27,0.02,0.39-0.05c0.1-0.07,0.21-0.17,0.23-0.3c0-0.02,0.01-0.04,0.01-0.06
			c0-0.05-0.06,0.1-0.03,0.06c0.01-0.01,0.02-0.05,0.03-0.05c0.01,0-0.1,0.1-0.03,0.05c0.01-0.01,0.03-0.02,0.03-0.03
			c-0.07,0.09-0.08,0.06-0.04,0.04c0.01,0,0.03-0.02,0.04-0.02c-0.08,0.03-0.1,0.04-0.05,0.02c0.01,0,0.02,0,0.02-0.01
			c0.02,0,0.03-0.01,0.05-0.01c0.09-0.02-0.11,0-0.05,0.01c0.02,0,0.03,0,0.05,0c0.06-0.01-0.14-0.03-0.05-0.01
			c0.01,0,0.03,0.01,0.05,0.01c0.04,0.01,0.04,0.04-0.04-0.02c0.01,0.01,0.03,0.02,0.05,0.03c0.04,0.03,0.07,0.07-0.01-0.02
			c0.02,0.03,0.05,0.05,0.08,0.08c0.01,0.01,0.07,0.08,0.01,0.01c-0.05-0.06-0.01-0.01,0,0.01c0.02,0.04,0.04,0.07,0.06,0.11
			c0.02,0.03,0.02,0.08-0.02-0.04c0.01,0.03,0.02,0.05,0.03,0.08c0.01,0.04,0.02,0.07,0.03,0.11c0,0.02,0.01,0.04,0.01,0.06
			c0.02,0.1-0.01-0.1,0-0.03c0.01,0.09-0.01,0.19,0,0.28c0-0.01,0.02-0.13,0.01-0.05c0,0.02-0.01,0.04-0.01,0.06
			c-0.01,0.04-0.02,0.08-0.04,0.13c-0.01,0.02-0.04,0.08,0,0.01c0.04-0.08,0,0.01-0.01,0.02c-0.02,0.04-0.05,0.08-0.07,0.12
			c-0.03,0.05-0.03,0,0.03-0.03c-0.01,0.01-0.03,0.04-0.04,0.04c-0.02,0.03-0.05,0.05-0.08,0.08c-0.07,0.07,0.08-0.05,0.03-0.02
			c-0.02,0.01-0.03,0.02-0.04,0.03c-0.02,0.01-0.04,0.02-0.06,0.03c-0.02,0.01-0.09,0.05-0.01,0.01c0.08-0.04-0.04,0.01-0.07,0.02
			c-0.02,0-0.03,0.01-0.05,0.01c-0.08,0.02,0.05-0.01,0.05-0.01c0,0-0.11,0.01-0.12,0.01c-0.02,0-0.04,0-0.07,0
			c-0.09,0,0.1,0.02,0.04,0.01c-0.04-0.01-0.08-0.02-0.11-0.03c-0.04-0.01-0.05-0.04,0.05,0.02c-0.01-0.01-0.03-0.02-0.05-0.02
			c-0.02-0.01-0.03-0.02-0.05-0.03c-0.08-0.05,0.07,0.07,0.03,0.02c-0.01-0.01-0.02-0.02-0.04-0.03c-0.01-0.01-0.07-0.09-0.02-0.01
			c0.06,0.07-0.02-0.04-0.03-0.06c-0.01-0.02-0.03-0.07,0,0c0.04,0.09,0,0,0-0.02c-0.01-0.02-0.03-0.17-0.02-0.06
			c0.01,0.09,0,0.03,0,0.01c0-0.02,0-0.05,0-0.07c0-0.02,0.01-0.08,0,0.01c-0.01,0.1,0,0.01,0.01-0.02c0-0.02,0.01-0.03,0.01-0.05
			c0.03-0.1-0.04,0.07-0.02,0.03c0.01-0.02,0.09-0.13,0.03-0.06c-0.05,0.07-0.02,0.02,0,0.01c0.02-0.02,0.04-0.04,0.06-0.06
			c0.09-0.07,0.15-0.24,0.15-0.35c0-0.12-0.05-0.27-0.15-0.35c-0.1-0.09-0.22-0.15-0.35-0.15C211.77,3.3,211.67,3.36,211.56,3.44
			L211.56,3.44z"/>
	</g>
</g>
<g>
	<g>
		<path class="st0" d="M215.65,5.21c-0.02-0.19-0.04-0.39-0.04-0.59c0-0.03-0.01-0.12,0.01-0.15c-0.01,0.07-0.01,0.08,0,0.03
			c0-0.02,0.01-0.05,0.01-0.07c0.01-0.05,0.03-0.09,0.04-0.14c0.03-0.09-0.05,0.09,0,0.01c0.02-0.03,0.04-0.07,0.06-0.1
			c0.03-0.04,0.02-0.03-0.02,0.03c0.01-0.02,0.03-0.03,0.04-0.05c0.02-0.02,0.08-0.06,0.09-0.08c-0.06,0.05-0.07,0.06-0.03,0.03
			c0.02-0.01,0.03-0.02,0.05-0.03c0.02-0.01,0.03-0.02,0.05-0.03c-0.08,0.03-0.09,0.04-0.04,0.02c0.02-0.01,0.04-0.01,0.06-0.01
			c0.05-0.01,0.04-0.01-0.05,0.01c0.02,0,0.04,0,0.06,0c0.05,0,0.04,0-0.05-0.01c0.02,0.01,0.07,0.02,0.1,0.03
			c0.04,0.01,0.02,0.01-0.05-0.02c0.02,0.01,0.03,0.02,0.05,0.03c0.02,0.01,0.03,0.02,0.05,0.03c-0.06-0.05-0.07-0.06-0.03-0.02
			c0.03,0.03,0.06,0.05,0.08,0.08c0.01,0.01,0.03,0.03,0.04,0.05c-0.05-0.06-0.06-0.07-0.02-0.03c0.04,0.07,0.09,0.13,0.12,0.21
			c0.02,0.04,0.04,0.08,0.06,0.12c-0.05-0.13,0,0.01,0.01,0.03c0.03,0.09,0.06,0.17,0.08,0.26c0.02,0.08,0.06,0.2,0.06,0.29
			c-0.01-0.07-0.01-0.08,0-0.02c0,0.02,0.01,0.05,0.01,0.07c0,0.05,0.01,0.1,0.01,0.15c0,0.1,0,0.2-0.01,0.29
			c-0.02,0.26,0.24,0.51,0.5,0.5c0.29-0.01,0.48-0.22,0.5-0.5c0.03-0.38-0.02-0.78-0.13-1.15c-0.11-0.36-0.27-0.72-0.53-0.99
			c-0.29-0.31-0.72-0.45-1.13-0.35c-0.37,0.09-0.69,0.39-0.84,0.73c-0.19,0.44-0.18,0.89-0.13,1.36c0.02,0.14,0.05,0.25,0.15,0.35
			c0.09,0.09,0.23,0.15,0.35,0.15C215.4,5.7,215.69,5.49,215.65,5.21L215.65,5.21z"/>
	</g>
</g>
<g>
	<g>
		<path class="st0" d="M222.29,4.58c-0.04,0.07-0.08,0.15-0.12,0.22c0.31,0.08,0.62,0.17,0.93,0.25c-0.03-0.34-0.02-0.68,0.05-1
			c0.04-0.18,0.09-0.36,0.15-0.53c0.01-0.04,0.03-0.08,0.05-0.12c-0.02,0.05,0,0,0.01-0.02c0.04-0.06,0.02-0.02,0.01-0.02
			c-0.01,0.01-0.02,0.01-0.02,0.02c-0.03,0.02-0.06,0.03-0.1,0.02c-0.16,0.02,0,0.01-0.05,0.01c-0.03-0.01-0.05-0.05-0.02-0.01
			c0.02,0.03,0.05,0.05,0.07,0.07c0.05,0.06-0.03-0.04,0.02,0.03c0.1,0.16,0.1,0.21,0.16,0.4c0.12,0.37,0.2,0.74,0.27,1.12
			c0.04,0.21,0.28,0.37,0.48,0.37c0.22,0,0.42-0.16,0.48-0.37c0.11-0.36,0.21-0.73,0.32-1.09c0.02-0.07,0.04-0.15,0.07-0.22
			c-0.02,0.06-0.01,0.01,0.01-0.01c-0.02,0.02-0.04,0.04-0.06,0.05c-0.11,0.07-0.22,0-0.32-0.04c0.02,0.01,0.05,0.05,0.01,0.01
			c0.05,0.07,0.09,0.15,0.13,0.23c0.33,0.61,0.62,1.24,0.86,1.9c0.09,0.25,0.34,0.43,0.62,0.35c0.24-0.07,0.44-0.36,0.35-0.62
			c-0.17-0.45-0.35-0.9-0.56-1.34c-0.1-0.22-0.21-0.44-0.33-0.65c-0.1-0.2-0.2-0.41-0.36-0.57c-0.2-0.2-0.48-0.28-0.75-0.2
			c-0.25,0.07-0.42,0.29-0.52,0.52c-0.19,0.45-0.29,0.95-0.43,1.42c0.32,0,0.64,0,0.96,0c-0.08-0.48-0.19-0.97-0.37-1.43
			c-0.18-0.47-0.57-0.96-1.13-0.9c-0.57,0.06-0.78,0.64-0.91,1.12c-0.14,0.49-0.19,1.01-0.15,1.52c0.02,0.22,0.14,0.42,0.37,0.48
			c0.21,0.06,0.46-0.04,0.56-0.23c0.04-0.07,0.08-0.15,0.12-0.22c0.13-0.24,0.06-0.54-0.18-0.68
			C222.75,4.27,222.42,4.34,222.29,4.58L222.29,4.58z"/>
	</g>
</g>
<g>
	<g>
		<path class="st0" d="M228.53,3.23c-0.46-0.08-0.9,0.04-1.26,0.35c-0.35,0.3-0.5,0.76-0.43,1.2c0.14,0.82,1.24,1.33,1.92,0.82
			c0.41-0.31,0.57-0.78,0.65-1.26c-0.33-0.04-0.65-0.09-0.98-0.13c0.06,0.78,0.59,1.47,1.35,1.69c0.25,0.07,0.56-0.09,0.62-0.35
			c0.06-0.27-0.08-0.54-0.35-0.62c-0.03-0.01-0.06-0.02-0.09-0.03c-0.07-0.02-0.05,0,0,0c-0.04,0-0.12-0.07-0.16-0.09
			c-0.01-0.01-0.1-0.07-0.04-0.03c0.06,0.05-0.03-0.03-0.03-0.03c-0.05-0.04-0.09-0.09-0.13-0.13c-0.05-0.06,0.01,0.01,0.01,0.01
			c0,0-0.06-0.09-0.06-0.09c-0.01-0.02-0.02-0.04-0.04-0.06c0,0-0.06-0.11-0.02-0.04c0.03,0.07-0.01-0.03-0.01-0.04
			c-0.01-0.03-0.02-0.06-0.03-0.09c-0.01-0.03-0.01-0.06-0.02-0.09c-0.02-0.1,0.01,0.1,0-0.01c-0.02-0.25-0.18-0.46-0.43-0.49
			c-0.23-0.03-0.51,0.11-0.55,0.36c-0.03,0.18-0.07,0.34-0.13,0.51c-0.03,0.1,0.05-0.08-0.01,0.02c-0.02,0.04-0.04,0.08-0.06,0.11
			c-0.07,0.11,0.05-0.04-0.02,0.03c-0.02,0.02-0.08,0.11-0.01,0.02c-0.02,0.01-0.04,0.03-0.06,0.04c-0.04,0.02-0.04,0.02,0,0
			c0.04-0.02,0.04-0.02,0,0c-0.02,0.01-0.04,0.01-0.06,0.02c-0.09,0.03,0.11,0,0.01,0c-0.02,0-0.04,0-0.06,0
			c0.08,0.01,0.1,0.02,0.06,0.01c-0.03-0.01-0.07-0.02-0.11-0.03c-0.1-0.02,0.09,0.05,0,0c-0.03-0.02-0.06-0.05-0.1-0.06
			c-0.03-0.02-0.02-0.01,0.04,0.03c-0.02-0.01-0.03-0.03-0.05-0.04c0,0-0.06-0.07-0.07-0.07c0.04,0.06,0.05,0.07,0.02,0.03
			c-0.01-0.02-0.02-0.04-0.03-0.05c0-0.01-0.01-0.02-0.01-0.03c-0.02-0.05-0.02-0.04,0.01,0.03c0,0-0.02-0.09-0.03-0.09
			c0.01,0.08,0.01,0.09,0.01,0.04c0-0.02,0-0.04,0-0.07c0-0.1-0.03,0.1,0,0c0-0.01,0.01-0.09,0.03-0.1
			c-0.03,0.07-0.03,0.08-0.01,0.03c0.01-0.02,0.02-0.04,0.03-0.06c0.04-0.08-0.07,0.07,0-0.01c0.02-0.02,0.05-0.05,0.07-0.07
			c0.04-0.04,0.03-0.03-0.02,0.01c0.02-0.01,0.04-0.03,0.06-0.04c0.03-0.02,0.06-0.03,0.09-0.05c0.08-0.05-0.09,0.02,0.03-0.01
			c0.01,0,0.11-0.04,0.12-0.03c-0.07,0.01-0.09,0.01-0.05,0.01c0.02,0,0.03,0,0.05,0c0.04,0,0.18,0.02,0.04,0
			c0.26,0.05,0.55-0.07,0.62-0.35C228.93,3.6,228.81,3.28,228.53,3.23L228.53,3.23z"/>
	</g>
</g>
<g>
	<g>
		<path class="st0" d="M230.88,4.74c0,1.02,0,2.05-0.01,3.07c0,0.26,0.23,0.51,0.5,0.5c0.27-0.01,0.5-0.22,0.5-0.5
			c0-1.02,0-2.05,0.01-3.07c0-0.26-0.23-0.51-0.5-0.5C231.11,4.25,230.88,4.46,230.88,4.74L230.88,4.74z"/>
	</g>
</g>
<g>
	<g>
		<path class="st0" d="M232.11,4.43c0.04-0.03,0.07-0.06,0.11-0.1c0.02-0.02,0.04-0.03,0.06-0.05c-0.05,0.04-0.06,0.04-0.01,0.01
			c0.07-0.05,0.14-0.1,0.22-0.14c0.02-0.01,0.04-0.02,0.06-0.03c-0.06,0.03-0.07,0.03-0.02,0.01c0.02,0,0.12-0.05,0.14-0.04
			c-0.08,0.01-0.09,0.01-0.03,0.01c0.02,0,0.05,0,0.07,0c-0.07-0.01-0.08-0.01-0.03,0c0.01,0,0.02,0,0.03,0.01
			c0.02,0.01,0.04,0.01,0.06,0.02c-0.07-0.03-0.08-0.04-0.04-0.01c0.02,0.01,0.04,0.02,0.05,0.03c0.04,0.03,0.03,0.02-0.03-0.02
			c0,0.01,0.08,0.07,0.09,0.09c0.07,0.07-0.05-0.08,0,0c0.02,0.04,0.05,0.07,0.07,0.11c0.01,0.02,0.02,0.04,0.03,0.06
			c-0.03-0.07-0.03-0.08-0.01-0.03c0.03,0.08,0.04,0.15,0.06,0.23c0.01,0.04,0,0.02-0.01-0.05c0,0.02,0,0.05,0.01,0.07
			c0,0.05,0,0.09,0,0.14c0,0.02,0,0.05,0,0.07c-0.01,0.06,0,0.05,0-0.03c0.01,0.01-0.02,0.1-0.03,0.12
			c-0.01,0.04-0.02,0.08-0.04,0.11c-0.02,0.05-0.02,0.04,0.01-0.02c-0.01,0.02-0.02,0.04-0.03,0.06c-0.02,0.04-0.05,0.08-0.07,0.12
			c-0.05,0.09,0.07-0.07-0.02,0.02c-0.03,0.03-0.05,0.05-0.08,0.08c-0.04,0.03-0.03,0.03,0.02-0.02c-0.02,0.01-0.04,0.03-0.05,0.04
			c-0.04,0.02-0.08,0.04-0.11,0.06c-0.09,0.05,0.1-0.03-0.02,0c-0.04,0.01-0.07,0.02-0.11,0.03c-0.05,0.01-0.04,0.01,0.04,0
			c-0.02,0-0.04,0-0.06,0.01c-0.02,0-0.12-0.01-0.13,0c0.08,0.01,0.09,0.01,0.04,0c-0.02,0-0.04-0.01-0.06-0.02
			c-0.25-0.07-0.55,0.08-0.62,0.35c-0.06,0.26,0.08,0.54,0.35,0.62c0.86,0.23,1.74-0.38,1.92-1.24c0.09-0.43,0.04-0.87-0.16-1.26
			c-0.21-0.4-0.59-0.67-1.03-0.71c-0.52-0.05-0.97,0.29-1.34,0.62c-0.2,0.17-0.19,0.53,0,0.71C231.61,4.62,231.89,4.61,232.11,4.43
			L232.11,4.43z"/>
	</g>
</g>
<g>
	<g>
		<path class="st0" d="M236.12,3.1c-0.21,0.07-0.43,0.07-0.64,0.15c-0.24,0.1-0.46,0.26-0.57,0.5c-0.13,0.26-0.11,0.57,0.06,0.81
			c0.12,0.17,0.29,0.31,0.43,0.46c0.02,0.03,0.02,0.02-0.01-0.02c0.02,0.02,0.03,0.05,0.05,0.07c0.02,0.04,0.05,0.07,0.07,0.11
			c0.02,0.04,0.04,0.08,0.06,0.11c0.02,0.05,0.02,0.05,0,0c0.01,0.03,0.02,0.05,0.03,0.08c0.01,0.04,0.02,0.08,0.03,0.13
			c0.03,0.11,0.01-0.07,0,0.04c0,0.03-0.03,0.2,0,0.08c-0.01,0.04-0.02,0.08-0.03,0.12c0.03-0.09,0-0.01-0.01,0.02
			c-0.03,0.04-0.02,0.04,0.02-0.02c-0.01,0.02-0.03,0.03-0.05,0.05c-0.06,0.07,0.09-0.04,0,0c-0.01,0.01-0.03,0.02-0.04,0.02
			c-0.03,0.02-0.02,0.01,0.05-0.02c0,0.01-0.1,0.03-0.11,0.03c-0.04,0.01-0.02,0.01,0.05-0.01c-0.02,0-0.04,0-0.06,0
			c-0.11,0.01,0.12,0.01,0.01,0c-0.05-0.02-0.04-0.01,0.03,0.02c-0.04-0.03-0.04-0.02,0.02,0.02c-0.21-0.16-0.51-0.22-0.71,0
			c-0.17,0.18-0.22,0.53,0,0.71c0.21,0.16,0.43,0.27,0.7,0.25c0.22-0.01,0.43-0.08,0.61-0.21c0.45-0.32,0.59-0.86,0.47-1.39
			c-0.1-0.46-0.39-0.85-0.73-1.16c-0.01-0.01-0.12-0.11-0.07-0.06c0.02,0.03,0.02,0.03,0-0.01c0.02,0.03,0.03,0.07,0.03,0.11
			c0,0.04-0.01,0.08-0.03,0.11c0.03-0.05,0.02-0.04-0.01,0.01c0.03-0.03,0.1-0.07,0.02-0.02c0.05-0.03,0.05-0.03-0.01,0
			c0.03-0.01,0.06-0.02,0.09-0.03c0.05-0.01,0.09-0.02,0.14-0.03c0.12-0.02,0.25-0.04,0.37-0.08c0.25-0.08,0.43-0.35,0.35-0.62
			C236.65,3.2,236.39,3.02,236.12,3.1L236.12,3.1z"/>
	</g>
</g>
<g>
	<g>
		<path class="st1" d="M172.23,42.26c1.04-0.89,2.09-1.78,3.13-2.66c0.2-0.17,0.19-0.53,0-0.71c-0.21-0.2-0.49-0.18-0.71,0
			c-1.04,0.89-2.09,1.78-3.13,2.66c-0.2,0.17-0.19,0.53,0,0.71C171.73,42.46,172.01,42.44,172.23,42.26L172.23,42.26z"/>
	</g>
</g>
<g>
	<g>
		<path class="st1" d="M172.14,40.08c0.83,0.84,1.67,1.67,2.5,2.51c0.18,0.19,0.52,0.2,0.71,0c0.18-0.2,0.2-0.51,0-0.71
			c-0.83-0.84-1.67-1.67-2.5-2.51c-0.18-0.19-0.52-0.2-0.71,0C171.96,39.57,171.94,39.88,172.14,40.08L172.14,40.08z"/>
	</g>
</g>
<g>
	<g>
		<path class="st1" d="M242.03,41.56c0.94-0.63,1.88-1.25,2.82-1.88c0.22-0.14,0.33-0.45,0.18-0.68c-0.14-0.22-0.45-0.33-0.68-0.18
			c-0.94,0.63-1.88,1.25-2.82,1.88c-0.22,0.14-0.33,0.45-0.18,0.68C241.48,41.59,241.8,41.71,242.03,41.56L242.03,41.56z"/>
	</g>
</g>
<g>
	<g>
		<path class="st1" d="M241.9,39.75c0.75,0.93,1.76,1.61,2.88,2.02c0.25,0.09,0.56-0.1,0.62-0.35c0.06-0.28-0.09-0.52-0.35-0.62
			c-0.06-0.02-0.12-0.04-0.18-0.07c-0.03-0.01-0.07-0.03-0.1-0.04c0.04,0.02,0.04,0.02,0,0c-0.13-0.06-0.25-0.12-0.37-0.18
			c-0.24-0.12-0.47-0.27-0.68-0.42c-0.05-0.04-0.11-0.08-0.16-0.12c-0.06-0.05,0.06,0.05,0,0c-0.03-0.02-0.06-0.05-0.08-0.07
			c-0.1-0.08-0.2-0.17-0.29-0.26c-0.2-0.19-0.39-0.39-0.56-0.61c-0.17-0.2-0.54-0.18-0.71,0C241.7,39.26,241.72,39.53,241.9,39.75
			L241.9,39.75z"/>
	</g>
</g>
</svg>
