<svg id="Layer_1" data-name="Layer 1" xmlns="http://www.w3.org/2000/svg" viewBox="0 0 234.81 185.58"><defs><style>.cls-1{fill:#486afb;}.cls-2{fill:#fd46fc;}</style></defs><path class="cls-1" d="M79.48,88.83a15.36,15.36,0,0,0,1.41-12.66,20.47,20.47,0,0,0-8.27-11A36.83,36.83,0,0,0,58.4,60c-5.65-1-11.62-1.55-17.32-.63A30.33,30.33,0,0,0,15.89,91.52c.4,5.19,2.32,10,4.58,14.58s4.76,9,6.06,13.9a23.19,23.19,0,0,1,.71,7.91,37.49,37.49,0,0,1-2,8.8c-1.87,5.57-4.4,11-5.24,16.83-.68,4.71-.17,9.92,2.59,13.94,3,4.41,8.11,6.09,13.2,6.67,6,.69,12-.33,17.79-1.84a91.54,91.54,0,0,0,15.53-5.41,37.72,37.72,0,0,0,12.59-9.09c7.37-8.45,9.82-20,8.94-30.93A68.48,68.48,0,0,0,87,109.79a65.52,65.52,0,0,0-3.32-7.87c-1.27-2.49-2.88-4.92-3.7-7.61-.7-2.28-.74-5,.85-6.88.56-.69-.41-1.62-1-.94a8.49,8.49,0,0,0-1.59,6.6c.37,2.66,1.7,5,2.91,7.4A74.55,74.55,0,0,1,87.05,116c2.75,10.72,3.19,22.58-1.56,32.82a32.11,32.11,0,0,1-9.2,11.8,48.21,48.21,0,0,1-13.42,7.08,96.11,96.11,0,0,1-16.09,4.58c-5.45,1-11.4,1.26-16.68-.69a13.2,13.2,0,0,1-5.94-4.2,15.35,15.35,0,0,1-2.77-6.19c-1.14-5.28.19-10.6,1.94-15.59,1.87-5.38,4.22-10.64,5-16.32a24.41,24.41,0,0,0-.18-8,34.63,34.63,0,0,0-2.22-6.94c-1.91-4.54-4.46-8.78-6.34-13.34A30.6,30.6,0,0,1,17.3,86.26a28.78,28.78,0,0,1,5.26-14A29.08,29.08,0,0,1,33.33,63.3a31.38,31.38,0,0,1,15.13-2.92A59.06,59.06,0,0,1,64,62.87a25.89,25.89,0,0,1,12.17,7.62,17.84,17.84,0,0,1,4.27,11.92,12.26,12.26,0,0,1-1.81,5.94c-.35.56.53,1,.88.48Z"/><path class="cls-1" d="M20.63,174.91a4.77,4.77,0,0,0-4.13-2,4,4,0,0,0-3.85,3c-.32,2,1.67,3.28,3.17,4.17.87.53,1.77,1,2.58,1.63.57.43,2,1.35.9,2a4.34,4.34,0,0,1-1.71.41,9.38,9.38,0,0,1-2,.07A3.43,3.43,0,0,1,13,182.64a.55.55,0,0,0-1,.41c.57,2,2.87,2.65,4.74,2.51a7,7,0,0,0,3.28-.79,2.06,2.06,0,0,0,.92-2.29,5.37,5.37,0,0,0-2.18-2.2c-.83-.59-1.72-1.08-2.59-1.6a5.15,5.15,0,0,1-2.14-1.83,1.84,1.84,0,0,1,.82-2.28,3.47,3.47,0,0,1,4.69,1c.42.63,1.48,0,1.06-.61Z"/><path class="cls-1" d="M178.93,58.19c0,3.91,0,7.83,0,11.74s-.11,7.83-.08,11.75c.06,7.74-.08,15.49,0,23.23.21,15.58,0,31.16.06,46.73,0,4.33.08,8.66.1,13s-.12,8.84,0,13.25a.68.68,0,0,0,1.36,0c.13-3.92,0-7.84,0-11.75s0-7.83,0-11.74c0-7.75-.08-15.5-.11-23.24-.06-15.58-.18-31.15-.15-46.73,0-4.33-.09-8.66-.15-13s0-8.83-.07-13.24a.53.53,0,0,0-1.06,0Z"/><path class="cls-1" d="M178,58.23c-.59.52-1.16,1.07-1.7,1.65a11.86,11.86,0,0,0-.8.93,3.65,3.65,0,0,0-.65,1.13.49.49,0,0,0,.72.54,4.1,4.1,0,0,0,1-.79c.28-.27.55-.55.82-.83.55-.56,1.11-1.09,1.7-1.61a.73.73,0,0,0,0-1,.77.77,0,0,0-1.06,0Z"/><path class="cls-1" d="M179.68,59.9,181,61.3c.2.23.41.47.63.69l.34.32a3.07,3.07,0,0,0,.51.35.7.7,0,0,0,.95-.94,1.77,1.77,0,0,0-.21-.41c-.12-.16-.24-.33-.38-.49s-.42-.49-.63-.73l-1.27-1.4a.86.86,0,0,0-1.21,1.21Z"/><path class="cls-1" d="M175.51,175.52a9.42,9.42,0,0,0,1.54,2.12,5.27,5.27,0,0,0,2.19,1.51.6.6,0,0,0,.66-.28.57.57,0,0,0-.09-.68c-.11-.15,0,.05,0,0l-.15-.2c-.06-.07-.14-.13-.2-.2l-.43-.42c-.27-.28-.55-.56-.8-.86l-.19-.22c-.09-.12.08.1,0,0a.76.76,0,0,0-.08-.11c-.12-.16-.22-.31-.33-.47-.22-.34-.44-.68-.62-1a.85.85,0,0,0-1.16-.29.86.86,0,0,0-.33,1.15Z"/><path class="cls-1" d="M180.71,178.59c.59-.58,1.22-1.11,1.86-1.64a16.38,16.38,0,0,0,1.83-1.6.59.59,0,0,0,.1-.69.58.58,0,0,0-.64-.25,7.11,7.11,0,0,0-2.31,1.25,20.1,20.1,0,0,0-2,1.77.85.85,0,0,0,0,1.19.88.88,0,0,0,1.2,0Z"/><path class="cls-1" d="M190.88,175.56c-.08,1.42-.11,2.85-.07,4.28,0,.71,0,1.42.1,2.14a7.05,7.05,0,0,0,.36,2.09c.16.4.87.52,1,0a9.21,9.21,0,0,0,0-2.1c0-.71-.08-1.42-.1-2.14,0-1.42,0-2.85,0-4.28,0-.84-1.27-.8-1.31,0Z"/><path class="cls-1" d="M192.69,176.82a16,16,0,0,0,.93,6.8c.22.48.93.19.95-.26a27.26,27.26,0,0,0-.13-3.26c-.08-1.1-.11-2.2-.09-3.29s-1.64-1-1.66,0Z"/><path class="cls-1" d="M192.16,176.06a2.72,2.72,0,0,1,4.34-.07,2.28,2.28,0,0,1,.15,2.32,2.35,2.35,0,0,1-.94.91,7.26,7.26,0,0,1-1.31.65.6.6,0,0,0-.16,1.08,9.18,9.18,0,0,0,1.26.5c.42.18.84.37,1.24.59a17.2,17.2,0,0,1,2.19,1.62c.42.35,1.21-.12.85-.65a7.31,7.31,0,0,0-2.29-2.1,5.65,5.65,0,0,0-2.93-1.06l.41,1a2.68,2.68,0,0,1,.86-.52,6,6,0,0,0,.81-.49,3.15,3.15,0,0,0,1.08-1.37,3.32,3.32,0,0,0-.37-3.18,3.54,3.54,0,0,0-2.91-1.44,3.92,3.92,0,0,0-3,1.68c-.31.43.4.95.74.54Z"/><path class="cls-2" d="M98.25,119.27c9.46-2.86,19.43-5,29.36-3.93,9.31,1,18,4.76,27.11,6.71a49.91,49.91,0,0,0,7.59,1.08,22,22,0,0,0,7.59-.66c.62-.18.58-1.19-.13-1.15-2.26.11-4.52.26-6.78.17a43.53,43.53,0,0,1-6.74-.81c-4.57-.88-9-2.26-13.48-3.53a84.34,84.34,0,0,0-13.61-3,60.42,60.42,0,0,0-14.84.25A101.91,101.91,0,0,0,98,118.15c-.72.22-.46,1.35.28,1.12Z"/><path class="cls-2" d="M169.66,120.76c-.27-.24-.54-.48-.82-.7l-.42-.34-.55-.37a.5.5,0,0,0-.38,0,.51.51,0,0,0-.29.19.52.52,0,0,0-.11.3l0,.13a.47.47,0,0,0,.13.24c.11.14.22.28.34.41l.36.39c.24.26.5.51.76.76a.72.72,0,0,0,.47.18.71.71,0,0,0,.49-.21.72.72,0,0,0,.2-.46.62.62,0,0,0-.2-.48Z"/><path class="cls-2" d="M168.1,122.16a6.49,6.49,0,0,0-1,1,7.76,7.76,0,0,0-.5.67,2.82,2.82,0,0,0-.18.29,2.87,2.87,0,0,0-.17.44.54.54,0,0,0,.26.64.62.62,0,0,0,.71-.1c.08-.08.18-.14.26-.22l.23-.25.48-.47a12.35,12.35,0,0,1,1-.89.78.78,0,0,0,.23-.54.8.8,0,0,0-.22-.55.81.81,0,0,0-.55-.21l-.2,0a.82.82,0,0,0-.36.21Z"/><path class="cls-2" d="M131.69,99.77a61.35,61.35,0,0,0-3.87,4.79c-.59.81-1.16,1.64-1.7,2.47-.29.45-.57.89-.85,1.35a2.71,2.71,0,0,0-.58,1.44.63.63,0,0,0,1,.53,2.67,2.67,0,0,0,.93-1.16c.25-.43.49-.87.75-1.29.51-.86,1-1.7,1.6-2.53a54.48,54.48,0,0,1,3.59-4.8c.48-.58-.32-1.37-.82-.8Z"/><path class="cls-2" d="M128.37,104.43,127,102a13.65,13.65,0,0,0-1.64-2.34.66.66,0,0,0-1.09.62,13,13,0,0,0,1.24,2.58l1.39,2.41a.87.87,0,0,0,1.5-.87Z"/><path class="cls-1" d="M12.81.73l.07,6.36,0,3.07c0,.94-.22,2.25.4,3,.28.34.77.13,1-.15a2.34,2.34,0,0,0,.26-1.48l0-1.41L14.46,7,14.33.72a.76.76,0,0,0-1.52,0Z"/><path class="cls-1" d="M13.18,2.55a7.9,7.9,0,0,1,3.65.05A6.74,6.74,0,0,1,20,4.29a1.08,1.08,0,0,1,.35,1.18,1.81,1.81,0,0,1-1.18.89,14.44,14.44,0,0,1-2.08.41c-.74.13-1.49.26-2.23.41s-1.87.17-2,1a.75.75,0,0,0,1.44.36c.17-.42-.3-.79-.69-.69l0,0L14,8l0,0,.23.23,0,0v.35l0-.07L14,8.78c-.08.08-.4.08,0,.07l.24,0,.56-.07,1.25-.17c.75-.11,1.5-.23,2.24-.36A4.47,4.47,0,0,0,21.7,6.35c1.54-2.76-2.33-4.69-4.46-5.17a9.44,9.44,0,0,0-4.39.07.67.67,0,0,0,.33,1.3Z"/><path class="cls-1" d="M26.73,12.68l.15.64a.56.56,0,0,0,.69.39A.6.6,0,0,0,28,13a17.58,17.58,0,0,1-.25-2.17,4.63,4.63,0,0,1,.25-2,2.43,2.43,0,0,0,.14-.2h0q-.14-.07-.06,0l0,0c.11.25.28.47.37.74a3.05,3.05,0,0,1,.11,1.72l1.48.17a3,3,0,0,1,.63-2,3.26,3.26,0,0,1,.42-.41s.24-.11.12-.07-.07-.07,0,0a.22.22,0,0,0,.09.1,3.13,3.13,0,0,1,.25.48A14.64,14.64,0,0,1,32.3,12c.1.45.17.91.24,1.36a4,4,0,0,0,.37,1.37c.27.5.93.28,1.11-.16a3.66,3.66,0,0,0,0-1.86A12.09,12.09,0,0,0,33.71,11a14.68,14.68,0,0,0-.52-1.54,5,5,0,0,0-.77-1.5,1.45,1.45,0,0,0-1.51-.47,2.55,2.55,0,0,0-1.19.94,5.27,5.27,0,0,0-1.17,2.9.76.76,0,0,0,1.48.18,4.06,4.06,0,0,0-.4-2.78c-.38-.71-1.25-1.52-2.05-.89s-.72,1.61-.82,2.39a8,8,0,0,0,.12,3.12L28,13l-.23-.62a.53.53,0,0,0-1,.28Z"/><path class="cls-1" d="M35.17,10.22a4.27,4.27,0,0,0,2.06,1.1,2.51,2.51,0,0,0,2.2-.65A1.94,1.94,0,0,0,40,8.72a2.18,2.18,0,0,0-1.19-1.28,2.38,2.38,0,0,0-1.85-.08,3.16,3.16,0,0,0-1.58,1.39,4.37,4.37,0,0,0-.21,4,2.66,2.66,0,0,0,1.91,1.42,3.73,3.73,0,0,0,2.71-.53.71.71,0,0,0,.33-.76.67.67,0,0,0-.65-.49,4.82,4.82,0,0,0-.93.11l-.4.07-.16,0h-.24s-.31,0-.22,0a1.46,1.46,0,0,1-.41-.11c.09,0,0,0-.05,0l-.15-.08c-.1-.07.12.12,0,0a1.85,1.85,0,0,0-.14-.14c-.11-.09,0,0,0,0a1.63,1.63,0,0,1-.11-.17,2,2,0,0,1-.13-.25c-.1-.19,0,.09,0,0a1.09,1.09,0,0,0-.05-.17,3.59,3.59,0,0,1-.08-.35s0-.24,0-.09a.76.76,0,0,1,0-.15,2.16,2.16,0,0,1,0-.36,2.83,2.83,0,0,1,0-.29c0-.22,0,.08,0-.06l.06-.26.09-.3a1.28,1.28,0,0,1,.1-.26A4.73,4.73,0,0,1,36.92,9a1.61,1.61,0,0,1,.43-.38.88.88,0,0,1,.47-.14,1.1,1.1,0,0,1,.88.33s.07.13.09.16,0-.11,0,.06c0,0,0,.11,0,0a.59.59,0,0,1-.13.48c0-.08,0,0,0,0l-.12.11-.1.07-.2.11h0l-.26.07c-.12,0,.16,0-.06,0h-.26a2.73,2.73,0,0,1-1.44-.69.73.73,0,0,0-1,0,.69.69,0,0,0,0,1Z"/><path class="cls-1" d="M45.6,8.93a2,2,0,0,0-1.86-1,2.5,2.5,0,0,0-2.08,1.21,4.31,4.31,0,0,0-.44,2.8,1.77,1.77,0,0,0,.7,1.37,1.46,1.46,0,0,0,1.47,0,2.48,2.48,0,0,0,1-1.11l.17-.3s.2-.29.1-.16c0-.07.22-.19.07-.1l.12-.07c-.14.06,0,0,0,0l-1-.56c.45,1.54,1.79,3.09,3.5,3.11a.68.68,0,0,0,.36-1.26c-.27-.16-.54-.32-.8-.49l-.2-.13c-.12-.08,0,0,0,0s-.25-.2-.36-.31-.2-.2-.3-.31.08.13-.06-.08l-.14-.19a4.23,4.23,0,0,1-.22-.42s-.09-.21-.06-.12,0,0,0-.05a.88.88,0,0,1-.05-.15.82.82,0,0,0-1-.56,1.87,1.87,0,0,0-1.22.89,3.35,3.35,0,0,0-.3.52l-.1.19s-.18.26-.08.14-.25.23-.11.13l-.13.08c-.08,0-.08,0,0,0-.16,0,.11,0,.15,0a.16.16,0,0,1,.08.08c-.05-.08-.06-.09,0,0a2.75,2.75,0,0,1-.16-1.12,2.46,2.46,0,0,1,.18-1,1.76,1.76,0,0,1,.27-.43s.22-.18.1-.09l.22-.13c.07,0,.08,0,0,0l.12,0,.19,0c.07,0,.08,0,0,0h.28a.73.73,0,0,1,.59.35c.36.61,1.24.07,1-.55Z"/><path class="cls-1" d="M51.9,6.45a3.94,3.94,0,0,0-2,1.33A1.76,1.76,0,0,0,50.06,10a3.18,3.18,0,0,0,.79.57l.41.22.18.11s.2.15.09.05l.15.14c.09.08,0-.08,0,0s.06.12,0,0,0,.08,0,.12,0,0,0,0v.16c0-.09,0,.1,0,.13s-.06.09-.07.11,0,0-.08.11l-.09.09c-.1.1.08-.05,0,0a3.3,3.3,0,0,1-1.21.45c-.2,0-.48.12-.64.14a3.9,3.9,0,0,0-.64.07.61.61,0,0,0-.44.56c0,.66.64.94,1.2.95a4.8,4.8,0,0,0,1.4-.25A3,3,0,0,0,53.29,12a2,2,0,0,0-.89-2.35,8.28,8.28,0,0,0-.83-.45l-.21-.13c-.06,0-.15-.12-.06,0s-.16-.18-.11-.11-.08-.18,0,0a.57.57,0,0,1,0-.14c0,.08,0,.05,0,0v0c0,.08.07-.12,0,0a.41.41,0,0,0,0-.09c.06-.11-.08.08,0,0l.22-.22c.07-.06,0,0,0,0l.13-.09.29-.17.26-.13c.13-.06-.1,0,0,0L52.28,8a.84.84,0,0,0,.6-1,.79.79,0,0,0-1-.55Z"/><path class="cls-1" d="M54.34,9.14A7.66,7.66,0,0,0,55,11.4,3.31,3.31,0,0,0,56.81,13a2.53,2.53,0,0,0,3.27-2.47,2.73,2.73,0,0,0-.4-1.36c-.23-.39-.66-.89-1.15-.9a.51.51,0,0,0-.49.49.65.65,0,0,0,0,.24c0,.06,0,.11.07.17s0,0,0,0l.09.22s0-.08,0,0a1.42,1.42,0,0,0,.07.22c0,.13.08.25.11.38s0,.16.05.23,0,0,0,0,0,.09,0,.13a1.06,1.06,0,0,1,0,.4s0-.15,0-.06,0,.06,0,.09-.05.14-.07.22.06-.12,0,0l-.09.15,0,.07c0,.08,0-.05,0-.05s-.11.12-.16.17l-.06.05c-.06.07.06,0,.07,0a1.19,1.19,0,0,0-.15.09l-.07,0c-.08.05.06,0,.07,0l-.19.06s-.16,0,0,0h-.14l-.09,0-.2-.06c-.09,0,.05,0,.05,0a.37.37,0,0,1-.11-.05l-.16-.09-.08,0c-.08,0,0,0,0,0a.8.8,0,0,1-.17-.15L56.73,11l-.07-.07c-.12-.13,0,0,0,0s-.21-.33-.24-.37l-.11-.22s0-.12,0,0l0-.1c-.05-.15-.1-.31-.14-.47-.1-.34-.16-.69-.23-1a.79.79,0,0,0-1-.56.85.85,0,0,0-.59,1Z"/><path class="cls-1" d="M64.2,12.29s-.13-.06-.15-.1.1.08,0,0l0,0a3.07,3.07,0,0,1-.25-.26c-.13-.13.07.13,0,0l-.09-.15-.09-.16c-.09-.15,0,.14,0,0a2,2,0,0,1-.1-.35.51.51,0,0,1,0-.17c0,.19,0,0,0,0a1.08,1.08,0,0,1,0-.36c-.08.17,0,0,0,0a.66.66,0,0,1,.06-.2l0-.09c0,.09-.05.11,0,.06l.08-.17.1-.15,0,.05.06-.07c.08-.09.17-.17.26-.26l-.06,0L64,9.79l.15-.1a3.3,3.3,0,0,1,.32-.18c.22-.11-.19.08.09,0l.16-.07-.06,0,.35-.1.18,0h.09a.67.67,0,0,0,.61-.46.58.58,0,0,0-.28-.68,2.58,2.58,0,0,0-2.25.12A3.21,3.21,0,0,0,61.94,10a3.3,3.3,0,0,0,1.4,3.78.88.88,0,0,0,1.16-.33.82.82,0,0,0-.3-1.13Z"/><path class="cls-1" d="M66.73,12.19c1.5.2,3.08.34,4.31-.7a2.31,2.31,0,0,0,.46-3.16c-1-1.29-2.64-.75-3.56.28a2.52,2.52,0,0,0-.72,1.87,2.62,2.62,0,0,0,1,1.78,3.56,3.56,0,0,0,2.28.8,5.12,5.12,0,0,0,2.76-.75c.48-.32.37-1.17-.29-1.14-1.08,0-2.21.65-3.29.24a1.84,1.84,0,0,1-.81-.62,1,1,0,0,1-.12-1c.24-.55,1.21-1.48,1.83-1s.32,1.38-.21,1.79c-.9.7-2.2.53-3.25.39a.68.68,0,0,0-.79.46.62.62,0,0,0,.44.77Z"/><path class="cls-1" d="M77.72,6.93A7.71,7.71,0,0,0,75,8.66.85.85,0,0,0,75.19,10a25.17,25.17,0,0,0,4.93,1.95l-.37-1.4-.19.19-.1.08s.15-.1,0,0a2.87,2.87,0,0,1-.48.28s-.16.07,0,0,0,0,0,0l-.25.08-.26.07-.13,0c-.12,0,.2,0,0,0a4.69,4.69,0,0,1-.53,0c-.07,0-.29,0-.12,0l-.26,0c-.37-.07-.73-.16-1.1-.22a.65.65,0,0,0-.67.24.62.62,0,0,0-.06.69,2.26,2.26,0,0,0,1.3.9,3.68,3.68,0,0,0,1.44.11A4.41,4.41,0,0,0,81,11.71a.84.84,0,0,0-.37-1.4,22.63,22.63,0,0,1-4.53-1.8l.17,1.32c.15-.15.3-.29.47-.43l.12-.1h0l.3-.2a4.8,4.8,0,0,1,.54-.32L78,8.64l.07,0,.11,0a.89.89,0,0,0,.64-1,.85.85,0,0,0-1-.59Z"/><path class="cls-1" d="M.13,27.2q.32,4,.27,8c0,.66-.07,1.32-.05,2s.15,1.14.78,1.28c1.25.28,1.31-1.71.14-1.46a.61.61,0,0,0-.46.58v0a.53.53,0,0,0,.41.53h0l-.44-.57q0,.2.15-.27l.5-.21H1.4l.49.2-.07-.08L2,37.7a82,82,0,0,0-.18-10.51c-.09-1.1-1.81-1.06-1.72,0Z"/><path class="cls-1" d="M1.17,27.89a4,4,0,0,1,2.14-.19,3.38,3.38,0,0,1,1,.32l.21.12.11.07h0a2.65,2.65,0,0,1,.38.37c-.09-.1,0,.05,0,.09s.08.21,0,.08c0,0,0,.22,0,.09V29s0,.16,0,.09-.1.22,0,.08a1.37,1.37,0,0,1-.13.2c.08-.1,0,.05-.08.08l-.21.19c-.08.07,0,0,0,0l-.1.07-.21.14c-.18.13-.37.24-.56.36q-.57.38-1.14.72l-1.29.8-.59.37-.08,0s.15,0,.15,0l-.15,0c-.25,0,.16,0,.23,0a.62.62,0,0,0-.82.23c-.38.62.2,1.22.83,1.22a3.2,3.2,0,0,0,1.57-.65c1-.58,2-1.16,2.88-1.83a2.56,2.56,0,0,0,1.31-2.72,3.31,3.31,0,0,0-2.25-2,5.7,5.7,0,0,0-3.67.06.84.84,0,0,0-.59,1,.78.78,0,0,0,1,.55Z"/><path class="cls-1" d="M9.51,31.42a5.47,5.47,0,0,0-.3-1.05c-.09-.23-.18-.45-.28-.67s-.08-.19-.14-.36a3.79,3.79,0,0,1-.26-.93c0,.13,0-.07,0-.1v-.24s0-.26,0-.12a1.18,1.18,0,0,1,0-.2,1.07,1.07,0,0,1,.07-.19c-.06.13,0,0,0-.07l.07-.11h0a1.85,1.85,0,0,0,.14-.14c-.11.12,0,0,0,0s.12,0,0,0l.17-.05c.16,0,0,0,.07,0h.15c.14,0-.08,0,0,0l.15,0c.06,0,.06,0,0,0l.08.05c.1,0,0-.05,0,0s.11.11,0,0a.45.45,0,0,1,.1.23.44.44,0,0,0,.84,0c.23-1.19-1.2-1.91-2.21-1.55-1.41.49-1.56,2.26-1.21,3.5a16.16,16.16,0,0,1,.68,2.35.81.81,0,0,0,1,.57.85.85,0,0,0,.61-1Z"/><path class="cls-1" d="M11.36,28a7.67,7.67,0,0,0,.81,3.44c.74,1.23,2.54,2.2,3.7.89a2.82,2.82,0,0,0,.19-3.41A3.19,3.19,0,0,0,13,27.43,3.94,3.94,0,0,0,9.67,30a.49.49,0,0,0,.83.45,9.19,9.19,0,0,1,1-1.08,2.75,2.75,0,0,1,1.13-.57,1.66,1.66,0,0,1,.56-.06h.15c.2,0-.09,0,.11,0a1.89,1.89,0,0,1,.34.09c-.12,0,0,0,0,0L14,29c.05,0,.23.15.11.06a2.29,2.29,0,0,1,.23.21l.09.09c0,.05.11.14,0,0,.12.17.2.35.31.52s-.06-.18,0,0l0,.12a2,2,0,0,1,.08.33c0,.06,0,.19,0,0v.12a1.51,1.51,0,0,1,0,.3c0,.06,0,.13,0,0l0,.14-.05.14c0,.16.09-.13,0,0l-.06.11s-.13.16,0,.07-.09.08-.09.08.14-.1,0,0c.16-.1,0,0,0,0s-.16,0,0,0l-.16-.05c.15.05,0,0-.06,0L14.05,31c.16.1,0,0-.06-.07l-.22-.23c.15.16,0-.08-.08-.14a2.79,2.79,0,0,1-.18-.34.69.69,0,0,1,0-.13c.08.2,0,0,0,0a4.64,4.64,0,0,1-.2-.73,6.71,6.71,0,0,1-.13-.76s0,.16,0,0a1.23,1.23,0,0,1,0-.2l0-.41a.85.85,0,0,0-.84-.84.89.89,0,0,0-.88.85Z"/><path class="cls-1" d="M16.76,24.57c.21,1.18.38,2.37.49,3.57s.12,2.41.18,3.63a.79.79,0,0,0,.78.77.82.82,0,0,0,.81-.79,3.67,3.67,0,0,1,.78-2.95,1.73,1.73,0,0,1,2.32-.3A1.13,1.13,0,0,1,22,30.38c-.88.71-2.11.41-3.1.85a.59.59,0,0,0,0,1,4.35,4.35,0,0,0,3.67-.38A2.89,2.89,0,0,0,24.08,29a2.74,2.74,0,0,0-2.19-2.09A3.48,3.48,0,0,0,18.84,28a6,6,0,0,0-1.41,3.75l1.59,0a32.57,32.57,0,0,0-.29-3.82c-.15-1.25-.35-2.49-.6-3.73-.18-.88-1.52-.49-1.37.37Z"/><path class="cls-1" d="M28.54,28.21a1.78,1.78,0,0,0-2.5-.47,2.56,2.56,0,0,0-.78,3,2.1,2.1,0,0,0,2.83,1.42,4.08,4.08,0,0,0,1.71-2.48H28.26C28.75,31.47,31,33,32.8,32.37a.72.72,0,0,0,.51-.64.64.64,0,0,0-.49-.63,5.4,5.4,0,0,1-1.9-.58,3,3,0,0,1-1.19-1.44.82.82,0,0,0-1.46.21,3.24,3.24,0,0,1-.28.83,1.76,1.76,0,0,1-.44.59.33.33,0,0,1-.33.11.85.85,0,0,1-.51-.46,1.57,1.57,0,0,1-.06-1.62.63.63,0,0,1,1,0,.51.51,0,0,0,.89-.51Z"/><path class="cls-1" d="M33.07,25.2A36.29,36.29,0,0,1,33.4,32a.84.84,0,0,0,1.64.2,8.55,8.55,0,0,1,1.15-3.37,2.23,2.23,0,0,1,2.44-.9c.38.15.61.44.41.78a2.63,2.63,0,0,1-1,.9,3.59,3.59,0,0,1-1.32.46c-.57.06-1.14,0-1.69.08a.65.65,0,0,0-.31,1.07c.9.82,2.45.52,3.46.09a4,4,0,0,0,2.48-2.55c.25-1.4-1.14-2.34-2.4-2.38a4.14,4.14,0,0,0-3.07,1.5,9.12,9.12,0,0,0-1.78,3.91l1.64.2a39,39,0,0,0-.44-7.24.79.79,0,0,0-1-.55.82.82,0,0,0-.59,1Z"/><path class="cls-1" d="M42.2,28.81v1.66a7.48,7.48,0,0,0,0,.82c0,.13,0,.27,0,.41a2.13,2.13,0,0,0,.2.65.65.65,0,0,0,.68.32.74.74,0,0,0,.59-.5,2,2,0,0,0,.15-.55c0-.13,0-.25,0-.38s0-.55,0-.82V28.79a.84.84,0,0,0-.84-.84.9.9,0,0,0-.88.86Z"/><path class="cls-1" d="M42.55,25.14a.76.76,0,0,1,0,.15l0-.15a1.41,1.41,0,0,1-.06.22l.05-.14a.94.94,0,0,1-.12.22l.09-.13a1.21,1.21,0,0,1-.19.2l.12-.1a1,1,0,0,1-.25.15l.15-.06a1.05,1.05,0,0,1-.24.06l.15,0a.89.89,0,0,1-.23,0l.15,0-.2-.05.13.05-.18-.1.12.09a1.37,1.37,0,0,1-.17-.17l.09.12a2.39,2.39,0,0,1-.13-.21l.06.14a1,1,0,0,1-.07-.3v.15a1.31,1.31,0,0,1,0-.28l0,.15a1.05,1.05,0,0,1,.06-.24l-.06.15a.87.87,0,0,1,.11-.18l-.1.13a.54.54,0,0,1,.15-.15l-.14.1a1.13,1.13,0,0,1,.21-.12l-.15.07a.88.88,0,0,1,.23-.07l-.16,0a1.22,1.22,0,0,1,.27,0l-.16,0a1.43,1.43,0,0,1,.28.07l-.15-.06a1.23,1.23,0,0,1,.25.14l-.13-.09a.69.69,0,0,1,.17.17l-.1-.13a1,1,0,0,1,.12.19l.55-.91a1.28,1.28,0,0,0-1.09.6A1.15,1.15,0,0,0,42,26a.52.52,0,0,0,.94-.39s0-.05,0-.08v0l0,.13a.88.88,0,0,1,0-.15l-.06.13a1.07,1.07,0,0,1,.13-.21l-.09.12a.86.86,0,0,1,.13-.14l-.13.1a.51.51,0,0,1,.16-.09l-.15.06a.42.42,0,0,1,.16,0l-.16,0a.24.24,0,0,1,.12,0l-.15,0h0a.55.55,0,0,0,.31,0,.66.66,0,0,0,.29-.17.62.62,0,0,0,.17-.58,1.54,1.54,0,0,0-.61-.77,1.65,1.65,0,0,0-.81-.26,1.45,1.45,0,0,0-1.44.77A1.68,1.68,0,0,0,40.9,26a1.47,1.47,0,0,0,.61.55,1.5,1.5,0,0,0,1,.08,1.62,1.62,0,0,0,1.22-1.52.58.58,0,0,0-.58-.57.6.6,0,0,0-.6.58Z"/><path class="cls-1" d="M45.42,25.4c.07,1.11.13,2.22.21,3.33a16.26,16.26,0,0,0,.19,1.71A4.15,4.15,0,0,0,46.3,32a.45.45,0,0,0,.77,0,7.48,7.48,0,0,0,.28-3.3c-.06-1.11-.14-2.22-.21-3.33a.84.84,0,0,0-.84-.83.89.89,0,0,0-.88.85Z"/><path class="cls-1" d="M49.1,30l.15.8a3.19,3.19,0,0,0,.33.89.57.57,0,0,0,.58.27.61.61,0,0,0,.5-.43,2.92,2.92,0,0,0,.1-.93l-.07-.82a.82.82,0,0,0-.1-.4l-.13-.16A.77.77,0,0,0,49.8,29a.75.75,0,0,0-.54.31.84.84,0,0,0-.16.68Z"/><path class="cls-1" d="M49.47,26.92a.13.13,0,1,0,0-.25.13.13,0,1,0,0,.25Z"/><path class="cls-1" d="M49.21,26.17c.17.23.34.46.52.68A.43.43,0,0,0,50,27a.49.49,0,0,0,.27.06.79.79,0,0,0,.52-.22l.15-.19,0-.06a1,1,0,0,0,.12-.45,1.17,1.17,0,0,0-.13-.58,2.15,2.15,0,0,0-.18-.24l-.09-.1a2,2,0,0,0-.24-.16,1.48,1.48,0,0,0-.27-.1l-.22,0h-.07a1,1,0,0,0-.45.12.84.84,0,0,0-.24.18,1.24,1.24,0,0,0-.14.18l0,.05a.88.88,0,0,0-.1.27,1.07,1.07,0,0,0,0,.47,1.28,1.28,0,0,0,.11.27.24.24,0,0,0,.06.11,1.12,1.12,0,0,0,.19.24l.19.14.06,0a1,1,0,0,0,.37.1.6.6,0,0,0,.22,0,1,1,0,0,0,.38-.21.54.54,0,0,0,.16-.26.61.61,0,0,0,0-.3.46.46,0,0,0-.15-.26.51.51,0,0,0-.26-.14h0l.15.05s0,0-.06,0l.13.1-.11-.09-.13-.09.14.11a.6.6,0,0,1-.08-.08l.11.14a.54.54,0,0,1-.07-.13l.07.17a.83.83,0,0,1,0-.15l0,.18,0-.28,0,.18v-.11l0,.18a.3.3,0,0,1,0-.1l-.07.17a.16.16,0,0,1,0-.07l-.11.14.06-.06-.15.11.08,0-.17.07.08,0-.18,0H50l-.17,0,0,0-.15-.06.09.05-.14-.1.1.1-.11-.14a.42.42,0,0,1,.09.14l-.07-.17a.35.35,0,0,1,0,.14l0-.18a.2.2,0,0,1,0,.11l0-.18a.32.32,0,0,1,0,.09l.08-.17,0,.07.11-.15a.17.17,0,0,1-.06.06l1.14.13c-.12-.19-.26-.36-.39-.54a.75.75,0,0,0-.43-.33.67.67,0,0,0-.28,0,.72.72,0,0,0-.62.53l0,.18a.74.74,0,0,0,.09.36Z"/><path class="cls-1" d="M53.42,26c0,1,.06,1.91.11,2.87,0,.46,0,.91.08,1.37s0,1.23.47,1.56a.57.57,0,0,0,.79,0c.4-.37.37-1.05.38-1.55s0-.92,0-1.38c0-1-.07-1.91-.1-2.86a.84.84,0,0,0-.85-.84.88.88,0,0,0-.87.85Z"/><path class="cls-1" d="M53.46,28.77c.63,0,1.25-.07,1.88-.13.34,0,.69-.07,1-.12a3.64,3.64,0,0,0,1-.26.55.55,0,0,0,.27-.54.51.51,0,0,0-.39-.44,6.06,6.06,0,0,0-1.9-.14l-1.84.08a.83.83,0,0,0-.8.78.76.76,0,0,0,.77.77Z"/><path class="cls-1" d="M58.78,28a14.37,14.37,0,0,0,1.45,3.43c.2.32.55.76,1,.76a.63.63,0,0,0,.58-.39.94.94,0,0,0,0-.64c-.22-.61-.58-1.17-.84-1.76-.07-.15-.13-.3-.19-.45l0-.1c0-.09-.07-.18-.1-.26-.13-.33-.24-.66-.34-1a.75.75,0,0,0-.91-.52.78.78,0,0,0-.55.92Z"/><path class="cls-1" d="M63.08,28a34.05,34.05,0,0,0-2.56,12.82c0,1,1.32.86,1.45,0,.3-2.11.52-4.23,1-6.31a41.34,41.34,0,0,1,1.8-6.09c.39-1-1.28-1.42-1.66-.41Z"/><path class="cls-1" d="M73.51,27.93a.13.13,0,0,0,0-.26.13.13,0,0,0,0,.26Z"/><path class="cls-1" d="M73.67,25.2c0,1.25-.15,2.5-.3,3.74s-.41,2.46-.61,3.69l1.46.17a6.28,6.28,0,0,1,2-4.49L75.12,28a22.65,22.65,0,0,1,.79,2.82,12.56,12.56,0,0,1,.2,1.37,3.25,3.25,0,0,0,.28,1.52.68.68,0,0,0,1.15,0,2.61,2.61,0,0,0,.1-1.64,13.58,13.58,0,0,0-.27-1.55,12.67,12.67,0,0,0-1-3,.66.66,0,0,0-1-.12,10.26,10.26,0,0,0-2.56,5.4c-.11.85,1.27,1,1.46.18a32.13,32.13,0,0,0,.56-3.9c.13-1.3.2-2.6.22-3.9,0-.84-1.27-.8-1.31,0Z"/><path class="cls-1" d="M79.73,31.26c1.35.4,3.13.22,3.92-1.09A2.31,2.31,0,0,0,83,27.05c-1.48-.81-2.94.59-3.61,1.79s-1.11,3.1.15,4.27a4.35,4.35,0,0,0,4.17.73.67.67,0,0,0-.15-1.31c-.47,0-1,0-1.41,0H82c.13,0,0,0-.06,0l-.33-.06-.31-.08-.17,0c.13,0,0,0-.07,0l-.25-.13-.08,0c.09.06-.08-.07-.08-.07l-.19-.19c-.14-.15,0,.08,0,0l-.11-.17a1.13,1.13,0,0,1-.09-.25,1.1,1.1,0,0,1,0-.31,2.68,2.68,0,0,1,.13-.8,4.36,4.36,0,0,1,.75-1.49A1.87,1.87,0,0,1,82,28a.86.86,0,0,1,.28,0,.52.52,0,0,1,.19.08c-.07,0,.12.13.09.1l.06.09a1.19,1.19,0,0,1,.08.16c0-.07,0,.12,0,.16a.58.58,0,0,1,0,.23.92.92,0,0,1-.09.48,1,1,0,0,1-.35.44,1.7,1.7,0,0,1-.61.27A3.06,3.06,0,0,1,80.11,30a.68.68,0,0,0-.38,1.31Z"/><path class="cls-1" d="M86.54,31.39a.93.93,0,0,1-.14-.14c-.05-.06-.05-.05,0,0l-.06-.08-.1-.17a.36.36,0,0,1,0-.09c0-.08,0-.06,0,0-.07-.05-.1-.31-.11-.39s0-.06,0-.1c0,.11,0,.12,0,0s0-.13,0-.2,0-.13,0-.2,0-.07,0,0,0-.07,0-.1.08-.38.12-.38,0,.12,0,0a.56.56,0,0,1,0-.08l.11-.17c-.08.09-.09.11,0,0l.07-.08.16-.15.08-.07c-.1.08-.11.09,0,0l.18-.12.19-.09c.08,0,.06,0-.06,0l.1,0a3.31,3.31,0,0,1,.42-.12,2.26,2.26,0,0,1,.44-.08H88l.23,0,.46,0c.34,0,.68-.06,1-.11a.62.62,0,0,0,0-1.2,4.77,4.77,0,0,0-3.54.23,2.91,2.91,0,0,0-1.52,3.06,2.75,2.75,0,0,0,.89,1.66.75.75,0,0,0,1,0,.72.72,0,0,0,0-1Z"/><path class="cls-1" d="M91.61,31a3.11,3.11,0,0,0,4-.34,2.41,2.41,0,0,0-.2-3.33,2.25,2.25,0,0,0-2.1-.32,3.31,3.31,0,0,0-1.76,1.54,4.61,4.61,0,0,0-.67,2.25A2.47,2.47,0,0,0,92,32.85a5.54,5.54,0,0,0,2.55.73,8.78,8.78,0,0,0,1.45,0,4.88,4.88,0,0,0,1.5-.34.7.7,0,0,0,.51-.74.64.64,0,0,0-.66-.57c-.37,0-.74,0-1.11.1a7.26,7.26,0,0,1-.93.06,6.74,6.74,0,0,1-1.85-.21,2.25,2.25,0,0,1-.58-.22,1.08,1.08,0,0,1-.45-.42,1.91,1.91,0,0,1,0-1.38,3.42,3.42,0,0,1,.72-1.42A1.33,1.33,0,0,1,94.38,28c.68.19.69,1.11.42,1.59a.85.85,0,0,1-.36.37,1.7,1.7,0,0,1-.69.23,2.42,2.42,0,0,1-1.47-.33A.66.66,0,0,0,91.61,31Z"/><path class="cls-1" d="M154.85,6.71c-.07,1.44-.08,2.88,0,4.31a24.19,24.19,0,0,0,.43,4.34.83.83,0,0,0,1.61-.22c-.05-1.41-.27-2.81-.32-4.22s-.05-2.82,0-4.23c.05-1.11-1.67-1.06-1.72,0Z"/><path class="cls-1" d="M155.36,7a4,4,0,0,1,2.42-.41,2.3,2.3,0,0,1,.95.39,2,2,0,0,1,.61.71,1.87,1.87,0,0,1,.21.8s0,.24,0,.15a1.17,1.17,0,0,1-.07.25s-.15.29-.18.33a3.52,3.52,0,0,1-.33.31l-.12.09-.28.16-.26.13c-.13.06,0,0-.11,0l-.6.2a14,14,0,0,0-1.44.43,2.3,2.3,0,0,0-1.4,1,.49.49,0,0,0,.43.74,6.14,6.14,0,0,0,1.56-.34,12.35,12.35,0,0,0,1.48-.38,4.29,4.29,0,0,0,2.41-1.69c1.1-1.81-.32-4-2.24-4.44a5.43,5.43,0,0,0-3.55.64.55.55,0,0,0-.21.73.56.56,0,0,0,.73.18Z"/><path class="cls-1" d="M162,14.53c-.44.88-.89,1.76-1.32,2.65a15.09,15.09,0,0,0-1.14,2.8.55.55,0,0,0,.26.64.59.59,0,0,0,.7-.11,14.92,14.92,0,0,0,1.56-2.57c.45-.88.89-1.76,1.33-2.65a.78.78,0,0,0-.29-1.07.84.84,0,0,0-1.1.31Z"/><path class="cls-1" d="M159.08,16.14c.31.29.61.6.93.89l.47.42a5.24,5.24,0,0,0,.66.47.7.7,0,0,0,.81-.12.68.68,0,0,0,.12-.8l-.17-.27a2.55,2.55,0,0,0-.29-.38c-.14-.16-.28-.33-.43-.49l-.88-.95a.86.86,0,0,0-.59-.23.92.92,0,0,0-.63.26.88.88,0,0,0-.25.59.82.82,0,0,0,.25.61Z"/><path class="cls-1" d="M172.22,13.24a8.88,8.88,0,0,1-.12,2.91l1.2.14a22.28,22.28,0,0,1,0-2.71c0-.43.09-.86.16-1.29,0-.24.08-.48.13-.72a2.24,2.24,0,0,1,.11-.29l-.17.05s0,0,0,0l.12.17a5.58,5.58,0,0,1,.32.52,8.4,8.4,0,0,1,.5,1,11.15,11.15,0,0,1,.57,2.48c.1.74,1.24.51,1.27-.17a4.73,4.73,0,0,1,.73-2.33,4.38,4.38,0,0,1,.75-.91,1.54,1.54,0,0,1,.42-.3c-.08,0,0,0,0,.05a2.17,2.17,0,0,1,.19.88l.16,1.56a15.14,15.14,0,0,0,.44,3.16.68.68,0,0,0,1.32-.18,9.87,9.87,0,0,0-.16-2l-.28-2c-.12-.9-.15-2.33-1.23-2.66s-2,.93-2.47,1.67a7,7,0,0,0-1.17,3.06h1.29a7.7,7.7,0,0,0-.74-3.16c-.36-.79-1.1-2.34-2.19-2.06a1.29,1.29,0,0,0-.89,1,10.94,10.94,0,0,0-.33,1.63,14.15,14.15,0,0,0-.13,3.5.61.61,0,0,0,1.22,0,11.13,11.13,0,0,0-.09-3.31.51.51,0,0,0-.62-.35.53.53,0,0,0-.37.61Z"/><path class="cls-1" d="M182.79,15.05a3,3,0,0,0,3.61-1.28,2.14,2.14,0,0,0,.09-1.88,2,2,0,0,0-1.27-1.09c-1.42-.42-2.36.93-2.66,2.14a3.68,3.68,0,0,0,.59,3.28,2.42,2.42,0,0,0,2.06.77,4.6,4.6,0,0,0,2.34-1.09.61.61,0,0,0-.59-1,13.77,13.77,0,0,1-1.53.52l-.16,0c-.23.06.07,0-.07,0a1.93,1.93,0,0,1-.34,0h-.07l-.19,0h0l-.15-.09c-.16-.07.06.08,0,0l-.1-.1a.3.3,0,0,1-.08-.08s-.12-.15-.05-.05,0-.05,0-.05l-.06-.1L184,14.8c-.09-.17,0,.08,0-.06s-.09-.35-.12-.52,0,0,0,0a1.28,1.28,0,0,1,0-.19,1.61,1.61,0,0,1,0-.31,3,3,0,0,1,0-.31s0-.13,0,0l0-.15a4.37,4.37,0,0,1,.17-.62l0-.07a1.12,1.12,0,0,1,0-.13,2.82,2.82,0,0,1,.18-.29c0,.07,0,0,0,0a1.31,1.31,0,0,1,.11-.12s.13-.09.05,0,.17-.1.08-.06a.44.44,0,0,1,.37,0,1,1,0,0,1,.41.27.88.88,0,0,1,.11.91,1.18,1.18,0,0,1-.34.47,1.35,1.35,0,0,1-.51.3,2.48,2.48,0,0,1-1.5-.05.68.68,0,0,0-.82.48.63.63,0,0,0,.46.79Z"/><path class="cls-1" d="M192.6,12a1.55,1.55,0,0,0-2.08-.91,2.32,2.32,0,0,0-1.34,2.57c.09,1.07.31,2.52,1.66,2.6a1.86,1.86,0,0,0,1.48-.68,3.53,3.53,0,0,0,.65-1.63l-1.52,0a3.69,3.69,0,0,0,4.65,2.69.64.64,0,0,0,.47-.69.62.62,0,0,0-.61-.54,2.55,2.55,0,0,1-1-.09l-.23-.07c.11,0-.16-.07-.18-.08a3.33,3.33,0,0,1-.46-.24l-.24-.16c.11.08-.08-.07-.08-.07a3,3,0,0,1-.4-.4c.1.11,0-.06-.06-.09s-.11-.18-.16-.27a1.18,1.18,0,0,1-.17-.4.78.78,0,0,0-.75-.57.8.8,0,0,0-.77.58,2.72,2.72,0,0,1-.24.9l-.06.1c-.09.15.05,0-.08.08l-.07,0c.06,0,.06,0,0,0s-.18,0-.07,0,0,0,0,0,0,0,0,0c0,.12-.05-.11-.05-.11s0-.06,0-.09a4.93,4.93,0,0,1-.18-.93,2.36,2.36,0,0,1,0-.75s0-.13.05-.18.13-.22.07-.14.06-.05.07-.06-.06,0,0,0l.14-.08c-.13.06,0,0,.07,0s0,0,0,0h.16c-.12,0,.05,0,.06,0s0,0,0,0-.1,0,0,0l0,0c0,.06,0,.07,0,0,.26.74,1.43.44,1.22-.33Z"/><path class="cls-1" d="M198.4,10a2.53,2.53,0,0,0-.83,2,2.59,2.59,0,0,0,1.05,1.94,2.05,2.05,0,0,1,.38.34c-.08-.1,0,.08.05.1-.06-.13,0,.12,0,0,0,0,0,.22,0,.09,0,0-.07.21,0,.09a1.28,1.28,0,0,1-.11.2c.07-.12-.07.07-.09.1l-.09.08c.06,0,.07,0,0,0l-.26.14c.11-.05-.15,0-.14,0l-.27.06a3.48,3.48,0,0,0-1.18.38.55.55,0,0,0,0,.95,2.66,2.66,0,0,0,2.66-.26,2.19,2.19,0,0,0,1-2.23,2.31,2.31,0,0,0-.69-1.07c-.12-.1-.23-.22-.34-.32s-.07-.08,0,0l-.08-.12s-.1-.23,0-.05l-.06-.2a.78.78,0,0,1,0-.14c0,.09,0,.09,0,0v-.21c0-.21,0,.13,0-.07a1.09,1.09,0,0,0,.07-.24c0-.06,0,0,0,0l.06-.13s.15-.2,0-.05a1.89,1.89,0,0,1,.2-.2.85.85,0,0,0,0-1.2.91.91,0,0,0-1.22,0Z"/><path class="cls-1" d="M201.81,13.12a7.22,7.22,0,0,0,1,1.92,2.65,2.65,0,0,0,1.75,1,2.14,2.14,0,0,0,1.91-.67,2.55,2.55,0,0,0,.4-2.3,3.86,3.86,0,0,0-1.27-2.16.56.56,0,0,0-.66-.07.57.57,0,0,0-.27.61c.14.54.33,1.07.47,1.62,0,.13.07.27.1.41l0,.16s0,.07,0,.11,0-.16,0-.05V14c0,.08-.05.09,0,0,0,0,0,0,0,.08a.19.19,0,0,1,0,.07s-.06.18,0,.05,0,0,0,.06-.09.13,0,0,0,0,0,0a.9.9,0,0,0-.1.09c.1-.14.15-.1.07-.06l-.07,0c-.12.08.2-.06,0,0l-.15,0c-.14,0,.18,0,0,0h-.16l-.16,0s-.12-.05-.16,0,.17.07.09,0l-.11-.05-.12-.07-.06,0c-.1-.06.14.12.06,0a2.4,2.4,0,0,1-.28-.27l-.06-.06c-.12-.14.08.12,0,0L204,13.7c-.08-.11-.14-.24-.21-.36s-.13-.27-.19-.41l-.07-.18c-.05-.11.06.16,0,.05l-.06-.13a.87.87,0,0,0-.39-.51.92.92,0,0,0-.65-.08.9.9,0,0,0-.53.41.78.78,0,0,0-.1.63Z"/><path class="cls-1" d="M209.89,15l-.07-.08,0,.05s-.08-.12-.09-.14l-.09-.14s-.07-.23,0-.09,0-.07,0-.1,0-.1,0-.16l0-.16s0-.07,0-.1c0,.12,0,.14,0,.05s0-.22,0-.33,0-.07,0-.1h0l0-.11s0-.1,0-.16,0,0,0,0l.18-.33c.09-.15-.13.15,0,0l.12-.13.14-.13c.13-.12-.17.12,0,0a2,2,0,0,1,.31-.19c.06,0,.23-.1,0,0a2.58,2.58,0,0,0,.31-.13c-.21.12-.06,0,0,0l.18-.05.15,0c.16,0-.15,0,0,0l.37,0h.15c.08,0,.07,0,0,0h.11a.7.7,0,0,0,.79-.39.65.65,0,0,0-.27-.82,2.81,2.81,0,0,0-2-.22,3,3,0,0,0-1.73,1.25,3.23,3.23,0,0,0,.35,4,.86.86,0,0,0,1.21,0,.84.84,0,0,0,0-1.19Z"/><path class="cls-1" d="M213.65,14.65a2.35,2.35,0,0,0,3.3,0,2.16,2.16,0,0,0-.2-2.9,1.3,1.3,0,0,0-1.89,0,2.5,2.5,0,0,0-.61,1.66A3.06,3.06,0,0,0,216,16.19a3.29,3.29,0,0,0,4-1.11c.33-.47-.34-1.13-.8-.78a5.43,5.43,0,0,1-.51.32l-.27.14s-.13.06,0,0l-.15.05a3.9,3.9,0,0,1-.59.14l-.19,0h-.34c-.12,0,.09,0,0,0H217l-.29-.08h-.05l-.13-.06-.13-.07-.1-.06c-.06,0-.29-.27-.33-.31s0,0,0,0l-.07-.11a2,2,0,0,1-.17-.32c0,.09,0-.1,0-.13a1.31,1.31,0,0,1-.06-.27,1.55,1.55,0,0,1,0-.49c0,.06,0-.16,0-.18a1.45,1.45,0,0,1,.06-.19l.12-.21s.06-.06.05-.06-.05,0,0,0c.69,0,.71.94.47,1.35a1,1,0,0,1-.78.46,1.33,1.33,0,0,1-1.06-.33c-.52-.48-1.35.32-.81.82Z"/><path class="cls-1" d="M224.58,9.68a1.75,1.75,0,0,0-2.07,1.66c-.08,1,.7,1.68,1.36,2.29a1.43,1.43,0,0,1,.55.8.72.72,0,0,1-.34.61c.09-.08-.1.06-.11.07l-.21.11a2.68,2.68,0,0,1-.53.14c-.46.09-.92.09-1.37.21a.57.57,0,0,0,0,1.1c1.61.62,4.13-.33,3.95-2.34a2.49,2.49,0,0,0-.48-1.23c-.21-.31-.54-.68-.72-.92a2.18,2.18,0,0,1-.33-.54c.05.12,0-.14,0-.14s0-.11,0,0V11.4c-.05.22.11-.22,0,0l0-.07h0c.06-.06.07-.07,0,0s-.05,0,0,0a.39.39,0,0,1-.18,0c-.1,0-.1,0,0,0a.91.91,0,0,0,1.07-.61.84.84,0,0,0-.6-1Z"/><path class="cls-1" d="M141.66,31.05l.31,5.11.15,2.51a9.27,9.27,0,0,0,.33,2.58.7.7,0,0,0,1.35,0,8.58,8.58,0,0,0,0-2.58l-.15-2.51L143.38,31c-.07-1.1-1.79-1.07-1.72,0Z"/><path class="cls-1" d="M143,30.37a1.8,1.8,0,0,1,.2-.19c.07-.06,0,0,0,0l.13-.1.24-.14.1-.05c-.09,0,0,0,.07,0a1.45,1.45,0,0,1,.26-.07c-.1,0,.09,0,.12,0s.06,0,0,0l.12,0s.11,0,0,0,.05,0,.06,0,.11.08,0,0l.13.12c.08.08.09.14,0,0,0,.07.08.12.11.18s.08.21.05.11,0,.07,0,.11,0,.13.05.19,0,.06,0,.08,0-.09,0,0,0,.25,0,.37,0-.11,0,.06a1.41,1.41,0,0,1-.06.22l-.06.19c.06-.18,0,0,0,0l-.11.18s-.1.13,0,0l-.09.11a3,3,0,0,1-.36.35l0,0c.08-.07,0,0-.06,0a2,2,0,0,1-.24.16,7.9,7.9,0,0,1-.91.48,2.1,2.1,0,0,0-1.07.69.66.66,0,0,0,.1.81,1,1,0,0,0,.91.14,6.18,6.18,0,0,0,2-1,3.82,3.82,0,0,0,1.44-1.78,3,3,0,0,0,0-1.91,2.25,2.25,0,0,0-1.55-1.53,3,3,0,0,0-2.71,1,.73.73,0,0,0,0,1,.77.77,0,0,0,1.05,0Z"/><path class="cls-1" d="M148.88,33.68a6.16,6.16,0,0,0-.33-1l-.18-.41-.09-.2s-.08-.21,0-.12a3.08,3.08,0,0,1-.23-.84c0,.13,0-.07,0-.08a.61.61,0,0,1,0-.19,1.28,1.28,0,0,1,0-.19c0,.15,0-.06,0-.09s.07-.2,0-.11.06-.11.07-.13-.08.07,0,0,.18-.14,0,0l.15-.1c.15-.09-.13,0,0,0l.17-.05s.24-.05.14,0,.09,0,.11,0H149l.38,0h.07l.31,0,.43,0a.62.62,0,0,0,.33-1.14,3.53,3.53,0,0,0-2-.45A2.12,2.12,0,0,0,146.73,30a3,3,0,0,0,.11,2,11.51,11.51,0,0,1,.77,2,.64.64,0,0,0,.79.45.67.67,0,0,0,.48-.79Z"/><path class="cls-1" d="M150.73,31.48a2.22,2.22,0,0,0,1.54,2.72,3.23,3.23,0,0,0,3.3-1.29,2.19,2.19,0,0,0-.13-3.12,3.25,3.25,0,0,0-3.51,0c-.94.44-2.25,1.43-1.82,2.63a.52.52,0,0,0,1,0,2.25,2.25,0,0,1,.08-.24.32.32,0,0,1,0-.09c0-.1,0,.06,0,0a1.18,1.18,0,0,1,.11-.19l.08-.11c0,.06,0,0,0,0l.19-.19.11-.09s-.08,0,0,0a4.66,4.66,0,0,1,.47-.3,4.41,4.41,0,0,1,1-.43,1.87,1.87,0,0,1,.56-.09,1,1,0,0,1,.47.07c-.08,0,.09,0,.12.06s.2.13.12.06.13.12.19.19c-.08-.09,0,.1.06.14,0-.13,0,.13,0,.08s0,.08,0,.09v.11c0-.1,0,0,0,0s0,.1,0,.14-.07.13-.09.16l-.09.13s.08-.09,0,0l-.18.2-.1.09a2.9,2.9,0,0,1-.29.19l-.25.13c.14-.07-.07,0-.12,0l-.26.06c.13,0,0,0,0,0h-.34c-.12,0,.16,0-.05,0l-.11,0c-.08,0,.12.07,0,0s-.24-.16-.1,0l-.21-.21c-.09-.08.07.13,0,0l-.09-.14s-.07-.11,0,0,0,0,0-.07,0-.08,0-.12,0,.14,0,0,0,0,0,0,0-.12,0-.18a.83.83,0,0,0-.59-1,.9.9,0,0,0-1.06.62Z"/><path class="cls-1" d="M155.84,27.27,156.3,30a19.11,19.11,0,0,0,.58,2.68.73.73,0,0,0,.89.51.76.76,0,0,0,.54-.89,1.61,1.61,0,0,1,.51-1.39.73.73,0,0,1,1.07.25,1.09,1.09,0,0,1-.09,1.36,2.16,2.16,0,0,1-.66.47,3.25,3.25,0,0,0-1.1.51.6.6,0,0,0,.12.94,1.78,1.78,0,0,0,1.72-.17,3.25,3.25,0,0,0,1.21-1.09,2.45,2.45,0,0,0-.24-3,2,2,0,0,0-2.67-.32,3.71,3.71,0,0,0-1.32,2.61l1.47,0a40.07,40.07,0,0,0-.82-5.65.84.84,0,0,0-1-.6.9.9,0,0,0-.63,1.05Z"/><path class="cls-1" d="M166.11,28.77A3.14,3.14,0,0,0,163,31.46a3,3,0,0,0,.51,2.16,1.61,1.61,0,0,0,1.2.72,1.67,1.67,0,0,0,1.21-.48,2.62,2.62,0,0,0,.69-1.14l.09-.25a.49.49,0,0,0,0-.11s.07-.15,0-.08,0,0,0-.05l.07-.13s.07-.11,0,0S167,32,167,32l-1.36-.34a4.78,4.78,0,0,0,1.23,2.09,3,3,0,0,0,2.24,1,.71.71,0,0,0,.62-.41.64.64,0,0,0-.13-.71,6.2,6.2,0,0,0-.87-.57l-.18-.12c-.08,0-.08,0,0,0l-.09-.07a2.6,2.6,0,0,1-.36-.3c-.11-.1-.21-.21-.31-.32h0l-.07-.09-.14-.21a3.72,3.72,0,0,1-.21-.39,1.21,1.21,0,0,1-.09-.2c.07.17,0-.11,0-.14a.81.81,0,0,0-1.36-.34,3,3,0,0,0-.6,1c-.05.16-.1.32-.16.48s-.11.21,0,.09a2.25,2.25,0,0,1-.12.21c.08-.11-.07.06-.08.07s0,0-.08,0,.09,0,0,0h0a.15.15,0,0,1,.09,0c.05,0,0,0,0,0s.06,0,0,0l-.05-.06c.11.12,0-.06,0-.09a2.25,2.25,0,0,1-.12-.21c.06.12,0-.11,0-.14l-.06-.23s0-.08,0-.12h0v-.24s0-.26,0-.17c0-.07,0-.15.05-.23s.08-.22,0-.12a2.22,2.22,0,0,1,.23-.39c-.08.1.07-.07.08-.07a1.21,1.21,0,0,1,.16-.16c.12-.11-.05,0,.08-.06l.19-.11s.21-.1.09-.06l.22-.07.14,0h.27a.73.73,0,0,0,.71-.7.67.67,0,0,0-.68-.68Z"/><path class="cls-1" d="M169.46,27.07l.53,3.28c.18,1.1.33,2.2.61,3.27a.78.78,0,0,0,1.5,0,3.15,3.15,0,0,1,.7-1.7.91.91,0,0,1,.48-.21.42.42,0,0,1,.39.14.59.59,0,0,1,0,.5,1,1,0,0,1-.39.4,2.5,2.5,0,0,1-.88.27,2.24,2.24,0,0,0-.46,0c.07,0,0,.06,0,0,.18.22.15.09.08,0l.19.33,0,0v.3c0-.38-.16-.84-.62-.8a.82.82,0,0,0-.79.6.92.92,0,0,0,.46,1,2.38,2.38,0,0,0,1.8,0,2.64,2.64,0,0,0,2.25-2.57,1.84,1.84,0,0,0-2.57-1.53,3.81,3.81,0,0,0-2.07,2.85l1.52.18c-.07-1.16-.28-2.29-.46-3.44l-.54-3.35a.84.84,0,0,0-1-.6.9.9,0,0,0-.63,1.05Z"/><path class="cls-1" d="M177.06,31.48c.14.44.27.88.41,1.32.07.22.15.42.23.63a3.45,3.45,0,0,0,.2.48l.18.3a.71.71,0,0,0,.79.32.74.74,0,0,0,.53-.68,4.81,4.81,0,0,0-.1-.85c-.05-.21-.1-.43-.16-.65-.13-.44-.27-.88-.41-1.32a.84.84,0,0,0-1-.59.88.88,0,0,0-.63,1Z"/><path class="cls-1" d="M177.32,26.77h0l-.14,0h0l-.15.06h0l0,0,.15-.06a.67.67,0,0,0-.18.07l-.13.1a1.13,1.13,0,0,0-.1.13l-.06.15,0,.15v0s0,.07,0,.1a.19.19,0,0,0,0,.08l.06.15h0v0h0a1.13,1.13,0,0,0,.1.13l0,0a.53.53,0,0,0,.19.12.41.41,0,0,0,.22,0l.15,0h0a.69.69,0,0,0,.15-.07l.11-.08a.52.52,0,0,0,.14-.22h0l-.05.13h0a.69.69,0,0,0,.08-.28,1.11,1.11,0,0,0,0-.19l0,.15a.06.06,0,0,1,0-.06l0,.15a.65.65,0,0,0,0-.16.88.88,0,0,0,0-.17l0,.15v0a.22.22,0,0,0,0-.08.26.26,0,0,0,0-.15l0-.08-.1-.13-.13-.09h0l.12.09h0l.09.11h0l.05.14v.2a.08.08,0,0,1,0,0l0,.12h0a.62.62,0,0,0,.07-.23.4.4,0,0,0-.07-.24.45.45,0,0,0-.42-.24Z"/><path class="cls-1" d="M180.07,27.67a20.92,20.92,0,0,1,.68,3c.08.49.18,1,.26,1.46a6,6,0,0,0,.38,1.5.39.39,0,0,0,.67,0,4.27,4.27,0,0,0,.35-1.57,8.66,8.66,0,0,0,0-1.61,17.91,17.91,0,0,0-.66-3.24.86.86,0,0,0-1-.59.87.87,0,0,0-.63,1Z"/><path class="cls-1" d="M184.49,32.07l.1.8a1.52,1.52,0,0,0,0,.21,1.27,1.27,0,0,0,.06.18l.13.38a.68.68,0,0,0,.79.52.77.77,0,0,0,.66-.72l0-.4c0-.07,0-.14,0-.21s0-.26,0-.39l-.1-.82a.82.82,0,0,0-.4-.51.88.88,0,0,0-1.18.33l-.09.2a.79.79,0,0,0,0,.43Z"/><path class="cls-1" d="M185.16,27.24h0l-.12,0h-.09a.21.21,0,0,0-.08,0h0l-.14,0h0l-.14.06,0,0-.12.09h0a.22.22,0,0,0-.05.06l0,.06,0,0v0a1.11,1.11,0,0,0-.07.16v0h0l0,.17v0h0a.43.43,0,0,0,.05.24c0,.11,0,.06.09.15a.27.27,0,0,0,.07.08l.14.11h0l.15.06h0l.16,0a.72.72,0,0,0,.32-.08.58.58,0,0,0,.18-.17.53.53,0,0,0,.11-.21.54.54,0,0,0,0-.31.57.57,0,0,0-.16-.28l.1.13,0,0,.06.15v0a1.11,1.11,0,0,0-.07-.16l-.1-.13h0l.1.13,0-.05.06.14v0h0l-.06-.15.06.14s0,0,0,0v.1l0,.13s0,0,0,0l-.05.12a0,0,0,0,1,0,0,.43.43,0,0,0,.06-.17.33.33,0,0,0,0-.17l0-.12a.4.4,0,0,0-.17-.17Z"/><path class="cls-1" d="M188.88,28.65a27.49,27.49,0,0,0,.33,2.73,8.44,8.44,0,0,0,.78,2.56c.26.51,1,.23,1-.28a15.32,15.32,0,0,0-.18-2.62c-.09-.78-.18-1.56-.25-2.4a.85.85,0,0,0-.85-.84.88.88,0,0,0-.87.85Z"/><path class="cls-1" d="M189.11,30.69h1.1a10.46,10.46,0,0,0,1.11-.12.79.79,0,0,0,.52-.22.81.81,0,0,0,.21-.41.7.7,0,0,0-.52-.78,10.79,10.79,0,0,0-1.26-.14h-1.13a.89.89,0,0,0-.87.85.83.83,0,0,0,.84.84Z"/><path class="cls-1" d="M193.39,31.08a6.65,6.65,0,0,0,.83,1.44c.15.19.31.38.47.55a4.65,4.65,0,0,0,.7.56.62.62,0,0,0,.42.07.66.66,0,0,0,.39-.19.67.67,0,0,0,.12-.79l-.38-.58c-.13-.2-.26-.41-.38-.62a13.85,13.85,0,0,1-.66-1.27l.09.21,0,0a.84.84,0,0,0-.22-.39l-.18-.13a.88.88,0,0,0-1.22.44.87.87,0,0,0,0,.74Z"/><path class="cls-1" d="M196.06,30.68a47.15,47.15,0,0,0-1.23,6.65,24.41,24.41,0,0,0-.1,6.72c.14.84,1.29.52,1.37-.18.24-2.14.19-4.3.43-6.43a45.78,45.78,0,0,1,1.18-6.35.85.85,0,0,0-1.65-.41Z"/><path class="cls-1" d="M205.51,27.85c0,1,0,2.08.11,3.12a17.6,17.6,0,0,0,.38,3.16.79.79,0,0,0,1,.54,2.42,2.42,0,0,0,1.39-1.14c.16-.23.59-1.3,1-1.18.15,0,.24.39.29.52.13.36.24.72.34,1.09.22.75.32,1.53.6,2.26a.65.65,0,0,0,1.27-.17,7,7,0,0,0-.49-2.7c-.25-.75-.5-1.77-1.25-2.18a1.77,1.77,0,0,0-2.15.65,10.18,10.18,0,0,0-.62.94c-.13.2-.27.39-.51.37l.78.78c0-1-.16-2-.23-3s-.1-2-.11-3.05a.86.86,0,0,0-1.72,0Z"/><path class="cls-1" d="M214.27,33.69c1.21.37,2.73.67,3.69-.41a1.69,1.69,0,0,0,.4-1.67,2,2,0,0,0-1.12-1.19,2.46,2.46,0,0,0-2.69.55,2.58,2.58,0,0,0,.1,3.28,5,5,0,0,0,3.91,1.67.61.61,0,0,0,.58-.44.56.56,0,0,0-.27-.65,6.71,6.71,0,0,0-.75-.27c-.26-.06-.52-.12-.78-.2a4.27,4.27,0,0,1-1.28-.57c-.17-.11.05,0,0,0l-.12-.1a2.28,2.28,0,0,1-.22-.22s-.13-.15-.07-.08l-.06-.09a2.07,2.07,0,0,1-.19-.32l-.06-.11c0,.11,0-.08,0-.08a1.67,1.67,0,0,1-.08-.3,1.57,1.57,0,0,1,0-.48.76.76,0,0,0,0-.11c0-.15-.05.07,0-.06a2.39,2.39,0,0,1,.13-.21h0l.1-.1.07-.07s0,0,0,0l.06,0,.19-.12.06,0,.1,0a1.36,1.36,0,0,1,.48-.07,1,1,0,0,1,.79.37.83.83,0,0,1,.21.49.75.75,0,0,1-.15.47,1.14,1.14,0,0,1-.4.35l-.23.12a1.6,1.6,0,0,1-.33.07,4.35,4.35,0,0,1-1.81-.31.53.53,0,0,0-.29,1Z"/><path class="cls-1" d="M221.31,33.74c.18.21.05.06,0,0l-.09-.14a.45.45,0,0,0-.06-.12c0,.12.07.16,0,.1a.25.25,0,0,1,0-.07,1.25,1.25,0,0,1-.08-.32c0-.07,0-.21,0,0,0,0,0-.1,0-.14s0-.21,0-.31,0,0,0,.1c0,0,0-.06,0-.09l0-.14a.78.78,0,0,0,.05-.14c0-.15-.09.19,0,0s.11-.17.16-.26c-.09.18-.09.11,0,0l.09-.1.12-.11-.09.08a1.84,1.84,0,0,1,.22-.17c-.25.19,0,0,.08,0l.14-.07c.18-.09-.17.05,0,0l.26-.08a.35.35,0,0,1,.14,0l.08,0c-.12,0-.14,0-.06,0l.28,0h.13s.24,0,.06,0a.68.68,0,0,0,.76-.39.63.63,0,0,0-.26-.78,2.45,2.45,0,0,0-1.78-.24,2.78,2.78,0,0,0-2.11,2.79,3,3,0,0,0,.15.88,3.16,3.16,0,0,0,.55,1,.82.82,0,0,0,.59.24,1,1,0,0,0,.63-.26.88.88,0,0,0,.25-.6.86.86,0,0,0-.25-.6Z"/><path class="cls-1" d="M224.46,33.5a3.16,3.16,0,0,0,3.35-.48,2.07,2.07,0,0,0,.09-2.72,1.82,1.82,0,0,0-2.83.68,2.4,2.4,0,0,0,1,3.13,4.39,4.39,0,0,0,2,.66,8.58,8.58,0,0,0,1.24.06c.42,0,.84-.06,1.26-.08a.69.69,0,0,0,.67-.58.63.63,0,0,0-.48-.72,9,9,0,0,0-1.64-.14,5.8,5.8,0,0,1-1.44-.12,2.82,2.82,0,0,1-.93-.42,2.09,2.09,0,0,1-.22-.2l-.09-.1a1,1,0,0,1-.23-.45.61.61,0,0,1,0-.3,1.09,1.09,0,0,1,.19-.39.61.61,0,0,1,.56-.26.47.47,0,0,1,.34.46,1,1,0,0,1-.18.73c-.52.74-1.69.51-2.4.27s-.89.76-.27,1Z"/><path class="cls-2" d="M74.43,37.73l9.9-.12c3.3,0,6.61,0,9.9-.2a.42.42,0,0,0,0-.84c-3.3-.1-6.6.08-9.9.16l-9.9.25c-.48,0-.51.75,0,.75Z"/><path class="cls-2" d="M205.72,39.21l14.37.27c4.79.09,9.58.24,14.37.19a.36.36,0,0,0,0-.71c-4.78-.2-9.58-.21-14.37-.27l-14.36-.19a.36.36,0,0,0,0,.71Z"/><path class="cls-2" d="M219.31,46.85c.22,9.62,1.68,19.38-.14,28.93a32.74,32.74,0,0,1-4.44,11.71,29.65,29.65,0,0,1-8.8,8.55,95.69,95.69,0,0,1-12.27,6.47c-.58.27-.09,1.06.48.82,7.64-3.23,15.61-6.91,20.63-13.82,5.25-7.23,6.34-16.58,6.12-25.27-.15-5.81-.8-11.59-1-17.4a.3.3,0,0,0-.6,0Z"/><path class="cls-2" d="M85.19,44.54a18.6,18.6,0,0,1,1,12.72,19.86,19.86,0,0,1-6.38,9.61c-.33.27.1.83.45.58a19.17,19.17,0,0,0,5.6-23.27c-.19-.41-.81,0-.62.36Z"/><path class="cls-2" d="M79.28,63.91c0,1-.11,1.9-.15,2.85a.42.42,0,0,0,.38.43.47.47,0,0,0,.5-.32,8.54,8.54,0,0,0,.5-3,.61.61,0,0,0-.61-.6.64.64,0,0,0-.62.61Z"/><path class="cls-2" d="M80.5,67.76a30.64,30.64,0,0,0,3.94-.7c.52-.14.48-1-.1-1a30.14,30.14,0,0,0-4.11.59.55.55,0,1,0,.27,1.06Z"/><path class="cls-2" d="M194.72,98.68c-.16.54-.33,1.08-.49,1.63l-.24.8a8.58,8.58,0,0,0-.18.85.49.49,0,0,0,.34.6.53.53,0,0,0,.62-.36c.11-.26.23-.51.32-.78s.18-.55.26-.83c.18-.54.34-1.08.51-1.63a.56.56,0,0,0-.41-.7.62.62,0,0,0-.73.42Z"/><path class="cls-2" d="M195,104c1.64.2,3.28.38,4.94.49a.54.54,0,0,0,.16-1c-1.57-.32-3.14-.56-4.72-.78a.75.75,0,0,0-.87.5.68.68,0,0,0,.49.84Z"/></svg>