<svg id="Layer_1" data-name="Layer 1" xmlns="http://www.w3.org/2000/svg" viewBox="0 0 299.31 171.87"><defs><style>.cls-1{fill:#486afb;}.cls-2{fill:#fd46fc;}</style></defs><path class="cls-1" d="M83.88,103.17c0,3-.16,6.07,0,9.09.06,1.43.43,2.82.52,4.25s0,3-.07,4.51c-.08,3-.09,6-.12,9s-.2,5.88,0,8.8c.08,1.39.3,2.75.41,4.13.12,1.54,0,3.09,0,4.63,0,3,.1,5.93.06,8.9s-.43,6-.62,9c-.09,1.47,0,2.95,0,4.42s-.28,3-.42,4.55c-.28,2.86,0,5.75,0,8.62s0,6,0,9.07q0,9.09,0,18.16,0,9.24,0,18.5c0,1.34,0,2.69-.06,4s-.37,2.73-.5,4.11a10.29,10.29,0,0,0,1.24,6.62,7.14,7.14,0,0,0,2.14,2.17,5.83,5.83,0,0,0,3.31.71,19.19,19.19,0,0,0,3.54-.47c1.48-.28,3-.29,4.53-.47,3-.37,5.91-1.16,9-1.07,2.83.09,5.61-.56,8.45-.66,5.75-.21,11.54.16,17.3.16H151c6,0,12-.21,17.92.5,1.4.16,2.8.32,4.2.42s3,0,4.45.13c1.27.09,2.51.37,3.77.46,1.45.1,2.9,0,4.34,0,6.1,0,12.21,0,18.31,0,3.07,0,6.15-.1,9.21.05s5.89.47,8.86.48c6,0,12.05,0,18.06,0h9.13a69.67,69.67,0,0,0,8.79-.1,32.88,32.88,0,0,1,4.32-.4h23a61.15,61.15,0,0,1,8.67.33c1.19.17,2.38.15,3.57.24a10.24,10.24,0,0,0,3.62-.19,1,1,0,0,0,.51-1.57,5.75,5.75,0,0,1-.73-2.77c-.16-1.05-.51-2.05-.63-3.1-.28-2.43.48-5,.74-7.39s.26-4.76.32-7.15.2-4.85.14-7.28c-.13-4.8-1.08-9.51-.4-14.32a52.32,52.32,0,0,0,.23-7.51c0-2.5,0-5-.05-7.49s0-5,0-7.48.63-4.72.39-7.06a53.54,53.54,0,0,1-.26-7.49,30,30,0,0,0-.26-7,33.3,33.3,0,0,1-.31-7.06,51.63,51.63,0,0,0-.32-7,62.12,62.12,0,0,1-.24-7.84c0-2.6,0-5.21.06-7.82,0-2.91,0-5.83,0-8.74a41.25,41.25,0,0,1,.33-8.17c.5-2.52.18-5.27.17-7.83,0-2.34.48-4.78-.1-7.08a1,1,0,0,0-1.43-.61,25.65,25.65,0,0,1-4.66,1.43c-1.59.4-3.14,1.19-4.8,1.28s-3.59,0-5.37,0l-5.35,0c-3.57,0-7.13,0-10.69.23s-6.86.52-10.32.45-6.93-.61-10.41-.74-7,.11-10.48.11c-7.29,0-14.6-.19-21.88.11s-14.38.39-21.6.39c-3.63,0-7.26-.1-10.89.11s-7,.43-10.45.43c-7.17,0-14.33-.18-21.49-.1s-14.18,1.13-21.29,1a90.24,90.24,0,0,0-10.66.26,97.9,97.9,0,0,1-10.42.23,69,69,0,0,0-10.16.67,74.13,74.13,0,0,1-11.05.36c-1.79,0-3.58,0-5.37,0-1.25,0-1.38,1.9-.11,1.9,3.66,0,7.32.09,11,0a42.24,42.24,0,0,0,5.15-.3c1.79-.24,3.57-.57,5.37-.68,3.48-.22,7-.07,10.49,0s7-.55,10.47-.56c3.67,0,7.32.14,11-.07s7.07-.62,10.62-.78c7.23-.32,14.5-.12,21.74,0,3.58,0,7.17.07,10.75-.14s7-.4,10.49-.39c7.35,0,14.72.16,22.06-.18s14.55-.3,21.84-.31c3.61,0,7.22-.06,10.83-.13s7,.33,10.51.58c7,.5,14-.43,21.05-.49,3.64,0,7.28,0,10.92,0a29.69,29.69,0,0,0,4.9-.09c1.64-.28,3.21-1,4.82-1.39a22.15,22.15,0,0,0,4.42-1.43l-1.43-.61c.52,2.06.06,4.27.06,6.37a49.92,49.92,0,0,1-.06,7.44,24.91,24.91,0,0,0-.5,3.34c0,1.22.06,2.45.06,3.67,0,2.63,0,5.26,0,7.88,0,5.22-.13,10.44,0,15.65,0,2.48.55,4.9.54,7.38s-.14,5,0,7.42a30.86,30.86,0,0,0,.52,3.15,24,24,0,0,1,.13,3.7c0,2.43-.25,4.87,0,7.3a34.76,34.76,0,0,1,.34,3.67c0,1.18-.35,2.33-.44,3.5-.17,2.54-.07,5.12-.06,7.66s.05,5.14.06,7.7.24,5.09,0,7.58A57,57,0,0,0,299,208c.07,2.41.4,4.78.56,7.18.17,2.69,0,5.39-.06,8.08s0,5.43-.33,8.15-1.05,5.36-.6,8.07c.18,1.11.48,2.19.63,3.31a5.84,5.84,0,0,0,1.1,2.85l.51-1.57a10,10,0,0,1-3.45.1c-1.33-.09-2.64-.13-4-.33a60,60,0,0,0-8.79-.21H266.41a56.07,56.07,0,0,0-8.4.39c-2.82.41-5.81.09-8.65.09H231.11c-3,0-6,.05-8.94,0s-5.9-.34-8.86-.49c-5.83-.28-11.73,0-17.57,0h-9.08c-1.34,0-2.68.06-4,.06s-2.81-.29-4.22-.43c-2.84-.3-5.7-.2-8.55-.52A84.19,84.19,0,0,0,161,242c-11.89-.09-23.78.31-35.67,0-2.84-.07-5.68-.2-8.52-.17-1.35,0-2.69.07-4,.18s-2.73.41-4.1.51-2.81-.1-4.21,0a30.84,30.84,0,0,0-3.9.66c-2.82.53-5.77.45-8.56,1.11a9.53,9.53,0,0,1-3.76.2,4.42,4.42,0,0,1-2.67-2.4c-1.19-2.23-.71-4.81-.39-7.19a61.84,61.84,0,0,0,.26-8.61v-8.82c0-12,.14-24-.09-36a53.43,53.43,0,0,1,.25-8.58c.42-2.86-.05-5.75.33-8.62.77-5.82.48-11.67.43-17.52,0-1.34,0-2.67-.1-4-.14-1.58-.41-3.15-.45-4.74-.08-2.94,0-5.89,0-8.83s-.12-6-.1-9c0-1.37,0-2.75-.06-4.11s-.48-2.82-.51-4.26c-.05-2.89,0-5.78,0-8.67,0-.79-1.25-.82-1.25,0Z" transform="translate(-2.7 -74.63)"/><path class="cls-1" d="M100.82,75.21a9.19,9.19,0,0,0-6.57.05c-1.77.72-4,2.41-3.64,4.59.35,2,2.62,3.23,4.11,4.31a14.09,14.09,0,0,1,2.67,2.26c.29.35.55.72.22,1.12a2.86,2.86,0,0,1-1.14.73,6.3,6.3,0,0,1-3,.47c-1.24-.18-2.35-1.15-3.38-1.79a.75.75,0,0,0-1,1.12A8.07,8.07,0,0,0,92,90.27a5.72,5.72,0,0,0,3.2.24c1.79-.28,4.74-1.31,4.48-3.61a4.71,4.71,0,0,0-2-2.76c-1-.8-2-1.49-3-2.19a7.44,7.44,0,0,1-2.06-1.81c-.59-.89-.11-1.73.59-2.41a7,7,0,0,1,7.2-1.29.65.65,0,0,0,.41-1.23Z" transform="translate(-2.7 -74.63)"/><path class="cls-2" d="M185.27,143.47c-3.9-.05-7.65.45-11.07,2.45-.89.51-1.74,1.09-2.61,1.64s-1.67,1-2.46,1.51a20.93,20.93,0,0,0-3.79,3.43,37.47,37.47,0,0,0-3.5,4.7c-1.05,1.68-2.14,3.37-3.1,5.11-2,3.66-3,7.73-3.93,11.75a46.75,46.75,0,0,0-1.24,6.32,23.29,23.29,0,0,0,.1,5.21,26.17,26.17,0,0,0,3.07,9.33,29.45,29.45,0,0,0,15.2,13.2,47.76,47.76,0,0,0,11.34,2.41c4.16.49,8.42.79,12.55-.15a18.59,18.59,0,0,0,5.22-2.09c.85-.49,1.69-1,2.58-1.43a21.12,21.12,0,0,0,2.75-1.44c1.57-1.06,2.85-2.49,4.31-3.69a20.85,20.85,0,0,0,3.87-4.09,38.77,38.77,0,0,0,6.74-20.87,58.13,58.13,0,0,0-.31-12.16,24.78,24.78,0,0,0-1.5-5.94,35.22,35.22,0,0,0-2.9-5.15c-.44-.67-.69-1.42-1.1-2.11a11.53,11.53,0,0,0-2-2.22,33,33,0,0,0-4.42-4,21.86,21.86,0,0,0-5.28-2.45,18.13,18.13,0,0,0-2.9-.83c-1-.16-2-.2-3-.43a28,28,0,0,0-5.7-.48c-1,0-2.05-.07-3.07,0a17.88,17.88,0,0,0-3,.55c-1.86.48-3.87.48-5.69,1.09a12.89,12.89,0,0,0-4.27,2.58c-1.21,1-2.25,2.3-3.48,3.32-.55.45.22,1.2.75.76,1.21-1,2.44-2,3.67-3a11.38,11.38,0,0,1,4-2.3,19.51,19.51,0,0,1,2.65-.43c1-.13,2-.3,2.94-.51a14.32,14.32,0,0,1,2.76-.38c.95,0,1.89.05,2.84.08s1.9,0,2.84.11a22.59,22.59,0,0,1,2.58.5c1,.21,2,.22,2.94.4a17.26,17.26,0,0,1,2.65.81,18.59,18.59,0,0,1,5,2.4,17.38,17.38,0,0,1,2,1.83c.69.68,1.4,1.35,2.09,2a7.36,7.36,0,0,1,1.57,1.94,14.6,14.6,0,0,0,1.22,2.18,27.06,27.06,0,0,1,2.67,4.94,24.31,24.31,0,0,1,1.26,5.6,34,34,0,0,1,.34,5.79,69.41,69.41,0,0,1-.73,11,36.35,36.35,0,0,1-3.2,10,31.16,31.16,0,0,1-2.71,4.51,19,19,0,0,1-3.56,3.71,43.69,43.69,0,0,1-4.09,3.5,27,27,0,0,1-2.68,1.37c-.82.4-1.59.87-2.38,1.33a17,17,0,0,1-5,2,25.53,25.53,0,0,1-5.92.51c-2,0-4-.24-6-.48-1.84-.22-3.68-.44-5.49-.81a29.67,29.67,0,0,1-9.85-3.74,30.34,30.34,0,0,1-7.07-6.2,23.91,23.91,0,0,1-5.71-17.57,44.43,44.43,0,0,1,1.18-6.06c.47-1.95.93-3.89,1.53-5.81a29.82,29.82,0,0,1,2.21-5.47c.92-1.69,1.95-3.31,3-4.93a26.24,26.24,0,0,1,6.87-7.77c.77-.53,1.59-1,2.38-1.47s1.59-1.05,2.4-1.54a16.82,16.82,0,0,1,5.18-2.06,25.91,25.91,0,0,1,5.35-.47c.82,0,.91-1.25.06-1.26Z" transform="translate(-2.7 -74.63)"/><path class="cls-2" d="M150.09,144.2q2.19-4.2,4.43-8.38a92.93,92.93,0,0,1,4.72-8.22l-1.7-.45c0,1.68.11,3.38.18,5.07l.21,5.07a42.77,42.77,0,0,0,.3,4.38c.18,1.22.61,3,1.84,3.6a.83.83,0,0,0,1.19-.91c-.16-.58-.53-1-.74-1.59a7.29,7.29,0,0,1-.42-1.79c-.18-1.42-.18-2.87-.25-4.3l-.22-4.7c-.08-1.6-.08-3.23-.27-4.82-.09-.82-1.25-1.37-1.7-.46-1.43,2.82-3.12,5.5-4.67,8.25s-3.05,5.53-4.49,8.34c-.53,1.05,1.05,2,1.59.91Z" transform="translate(-2.7 -74.63)"/><path class="cls-2" d="M152.48,139.4a29.26,29.26,0,0,0,3,0l1.43-.08.76-.06c.27,0,.55,0,.73-.25a.41.41,0,0,0,0-.57c-.38-.33-1-.13-1.49-.1s-1,.06-1.42.07c-1,0-2,0-3,0-.65,0-.65,1,0,1Z" transform="translate(-2.7 -74.63)"/><path class="cls-1" d="M3.76,169.81c.56-2.31,1.14-4.61,1.78-6.9.32-1.19.65-2.38,1-3.55l.21-.71a3.33,3.33,0,0,0,.3-.81c.16-.19.07-.25-.28-.17l0,.08a2.82,2.82,0,0,0,.18.79c.49,2.33,1,4.66,1.5,7a33.29,33.29,0,0,0,1.8,6.84c.29.62,1.24.3,1.24-.33a29.53,29.53,0,0,0-1.11-6.37c-.48-2.13-1-4.25-1.45-6.37a6,6,0,0,0-.86-2.66,1.29,1.29,0,0,0-2,0,6.64,6.64,0,0,0-.77,2.49c-.27,1.07-.56,2.14-.84,3.21-.6,2.39-1.2,4.77-1.78,7.16-.16.68.89,1,1,.28Z" transform="translate(-2.7 -74.63)"/><path class="cls-1" d="M5.76,166.56,7,166.43l.6-.06a1.86,1.86,0,0,0,.34-.07l.13-.05.3-.12a1,1,0,0,0,.45-.31.83.83,0,0,0,.17-.49,1.19,1.19,0,0,0-.11-.41.85.85,0,0,0-.5-.39,5.16,5.16,0,0,0-.77-.13c-.2,0-.4,0-.6,0l-1.21.11a1.11,1.11,0,0,0-.71.3,1,1,0,0,0-.29.69,1,1,0,0,0,.3.72,1,1,0,0,0,.69.29Z" transform="translate(-2.7 -74.63)"/><path class="cls-1" d="M23.84,161a6.41,6.41,0,0,0-5.36,2.7,4.39,4.39,0,0,0-.94,2.8,2.31,2.31,0,0,0,.65,1.53,2.52,2.52,0,0,0,1.83.57l2.15-.07c.36,0,.71,0,1.07-.06a5.2,5.2,0,0,0,.69-.07,3.24,3.24,0,0,0,.53-.16.78.78,0,0,0,0-1.49,4.4,4.4,0,0,0-.88-.16h-.85c-.54,0-1.09,0-1.64.06l-.79,0h-.56s-.23,0-.09,0l-.13,0c-.12,0,0,.06,0,0s.05,0,.06.05l-.1-.09s.1.18.06.06l-.07-.12c-.07-.09,0,.09,0,.08s0-.15-.05-.17,0-.07,0-.11c0,.2,0,.08,0,0s0-.18,0-.27a.41.41,0,0,1,0-.11c0,.18,0,.05,0,0s0-.19.07-.29l.09-.27c0-.13-.05.13,0,0l.05-.12a5.7,5.7,0,0,1,.3-.54l.16-.24c.11-.15,0,0,0,0l.08-.1a4.47,4.47,0,0,1,.42-.45l.25-.22s.2-.16.07-.06a6.61,6.61,0,0,1,.55-.37,5.59,5.59,0,0,1,.6-.3l.16-.06c.11,0,.21-.07.32-.09l.32-.08.17,0h.06a5.46,5.46,0,0,1,.7,0,.87.87,0,1,0,0-1.74Z" transform="translate(-2.7 -74.63)"/><path class="cls-1" d="M38.65,156c-1.72.4-3.47.94-4.55,2.44a3.63,3.63,0,0,0-.09,4.1,16.88,16.88,0,0,0,2.54,2.67c.8.82,1.38,1.79.63,2.87a4.18,4.18,0,0,1-2.31,1.38,2.82,2.82,0,0,1-1.51.22c-.37-.13-.57-.55-.88-.77a.81.81,0,0,0-1.1.3c-.53.94.25,1.88,1.11,2.26a4.48,4.48,0,0,0,3.08-.14c1.82-.56,3.61-1.77,3.92-3.79a4.55,4.55,0,0,0-1.64-3.85c-.8-.78-2-1.59-2.37-2.65-.69-2,2.3-2.79,3.67-3.11a1,1,0,0,0-.5-1.93Z" transform="translate(-2.7 -74.63)"/><path class="cls-1" d="M50,160.42Z" transform="translate(-2.7 -74.63)"/><path class="cls-1" d="M49.92,160a.83.83,0,0,0-.38-.1l-.24,0a1.12,1.12,0,0,0-.33.2,1,1,0,0,0-.16.19.6.6,0,0,0-.06.11,1.57,1.57,0,0,0-.09.23,1,1,0,0,0,0,.51.82.82,0,0,0,.09.19.76.76,0,0,0,.11.14l0,0a.69.69,0,0,0,.22.16l.14.06a.6.6,0,0,0,.23,0,.42.42,0,0,0,.15,0,.53.53,0,0,0,.2-.13.78.78,0,0,0,.2-.38.82.82,0,0,0,0-.22.83.83,0,0,0,0-.22.85.85,0,0,0-.09-.22,1,1,0,0,0-.14-.2l0,0-.16-.13a.92.92,0,0,0-.23-.09h0l-.19,0-.19,0h0a1,1,0,0,0-.58.44.81.81,0,0,0-.12.29.9.9,0,0,0,0,.24,1.36,1.36,0,0,0,0,.2.43.43,0,0,0,.05.12.42.42,0,0,0,.15.24v0a1,1,0,0,0,.17.12.7.7,0,0,0,.51.08.83.83,0,0,0,.2-.09h0l.14-.1,0,0a.91.91,0,0,0,.11-.16.56.56,0,0,0,.07-.16.58.58,0,0,0-.06-.46l0,.39a.77.77,0,0,0,0-.4.45.45,0,0,0-.16-.3.29.29,0,0,0-.25-.09.31.31,0,0,0-.23.15.56.56,0,0,1-.05.08l.05-.07-.06.06.09-.07-.08,0,.12,0-.06,0,.48.13v0l-.12-.09a.4.4,0,0,0-.16-.06h0l.15.06a1.31,1.31,0,0,0-.21-.08l.48.48v0l0,.17,0-.25,0,.18V161l0,.18a.26.26,0,0,1,0-.08l-.07.17,0-.07-.11.15s0,0,0-.05l-.15.11.06,0-.18.07h.06l-.18,0,.23,0-.18,0h0l-.17,0,.06,0-.16-.07.06,0-.13-.1,0,0-.11-.13.12.14-.11-.13,0,0-.06-.16s0,.05,0,.08l0-.16a0,0,0,0,1,0,0l0-.15a.09.09,0,0,1,0,.05l.58-.44h0l.15,0h0l.14.06-.06,0,.13.09,0,0,.1.12a.22.22,0,0,1-.05-.08l.06.15a.29.29,0,0,1,0-.09l0,.15a.24.24,0,0,1,0-.12l0,.14a.29.29,0,0,1,0-.09l0,.13.06-.11-.09.11.07-.07-.11.09.06,0-.14.05h0l-.14,0,.07,0a.38.38,0,0,0,.21,0,.42.42,0,0,0,.21-.06l.12-.09a.42.42,0,0,0,.11-.18.37.37,0,0,0,0-.14.5.5,0,0,0,0-.21l-.06-.14a.55.55,0,0,0-.2-.2Z" transform="translate(-2.7 -74.63)"/><path class="cls-1" d="M49.9,168.3a1.37,1.37,0,0,0,.25-.33l.06-.09a1.43,1.43,0,0,0,.08-.22,1.72,1.72,0,0,0,0-.24,1.54,1.54,0,0,0-.19-.81,1.46,1.46,0,0,0-.17-.24l-.1-.1a1.27,1.27,0,0,0-.31-.2.7.7,0,0,0-.53,0,1.23,1.23,0,0,0-.51.29,1.34,1.34,0,0,0-.27.31,2.09,2.09,0,0,0-.17.37,1.85,1.85,0,0,0-.07.41v.1a1.64,1.64,0,0,0,.05.32c0,.09.07.19.11.28l.06.1a1.56,1.56,0,0,0,.42.43,1,1,0,0,0,.22.09.79.79,0,0,0,.43,0l.15,0a1.79,1.79,0,0,0,.42-.2,1.3,1.3,0,0,0,.42-.45,2.18,2.18,0,0,0,.09-.23.7.7,0,0,0,0-.14.82.82,0,0,0,0-.38,1.17,1.17,0,0,0-.48-.62,1,1,0,0,0-.55-.16,1,1,0,0,0-.24,0,.87.87,0,0,0-.37.22l-.08.09a.89.89,0,0,0-.18.53.79.79,0,0,0,.39.67.76.76,0,0,0,.77,0l0,0-.2.08.26-.1-.2.08h0l-.21,0h.07l-.2,0,.07,0-.18-.07.07,0L49,168l.06.05-.13-.16a.13.13,0,0,1,0,0l-.07-.19a.09.09,0,0,0,0,.05l0-.2a0,0,0,0,1,0,.05l0-.19a.19.19,0,0,1,0,.07l.07-.17,0,0,.11-.16-.07.08.16-.12-.15.08.19-.07a1.87,1.87,0,0,1-.34.08l.74.2a.43.43,0,0,1-.09-.1l.12.17a.64.64,0,0,1-.08-.14l.08.2a2.44,2.44,0,0,1-.06-.26l0,.21a1.22,1.22,0,0,1,0-.27l0,.2a.76.76,0,0,1,.06-.2l-.08.18a.86.86,0,0,1,.1-.16l-.12.15a.46.46,0,0,1,.12-.12l-.15.12a.57.57,0,0,1,.13-.08l-.18.08h0l-.54-.07.07,0-.15-.11.12.12-.12-.16a.65.65,0,0,1,.09.16l-.07-.18a1.46,1.46,0,0,1,.05.2l0-.18a.67.67,0,0,1,0,.2l0-.18c0,.1,0,.2,0,.3l0-.18s0,.06,0,.09l.07-.16a.36.36,0,0,1-.07.1l.11-.14-.06.07a.7.7,0,0,0-.19.47.66.66,0,0,0,.2.49.67.67,0,0,0,.47.19.69.69,0,0,0,.48-.2Z" transform="translate(-2.7 -74.63)"/></svg>