<svg id="Layer_1" data-name="Layer 1" xmlns="http://www.w3.org/2000/svg" viewBox="0 0 259.19 185.24"><defs><style>.cls-1{opacity:0.45;}.cls-2{fill:#fd46fc;}.cls-3{fill:#486afb;}.cls-4{opacity:0.4;}.cls-5{fill:#231f20;}</style></defs><g class="cls-1"><path class="cls-2" d="M153,34.49A154.64,154.64,0,0,0,154.34,50a.46.46,0,0,0,.14.34.47.47,0,0,0,.31,0l12.05-.58a1.51,1.51,0,0,1-.59-1.14l-2.49-14.16a113.6,113.6,0,0,0-11.95.63"/><path class="cls-3" d="M152.5,34.49q.42,7.51,1.39,15c.05.35,0,.86.32,1.12s.92.14,1.31.11l3.69-.18c2.53-.1,5.1-.11,7.62-.37a.37.37,0,0,0,.2-.68c-.44-.27-.45-1.22-.51-1.66l-.3-2c-.19-1.27-.41-2.53-.63-3.79s-.46-2.52-.7-3.78-.43-2.61-.74-3.89a.38.38,0,0,0-.38-.29c-4,.19-8.08,0-12,.68a.36.36,0,0,0,.08.7c2-.06,4-.33,6-.44a59.82,59.82,0,0,1,6-.15l-.39-.29c.17,1.39.46,2.78.68,4.16s.46,2.77.7,4.16.49,2.68.76,4c.14.67.26,1.33.4,2a1.76,1.76,0,0,0,.66,1.13l.27-.63c-2.29,0-4.59.2-6.88.33l-3.44.18-1,0c-.13,0-.61.11-.73,0s-.24-1.12-.28-1.46a134.9,134.9,0,0,1-1.07-14.06c0-.61-1-.58-.95,0Z"/></g><g class="cls-1"><path class="cls-2" d="M154.41,70.16c0,2.89,0,5.79.31,8.67.11,1.1.35,2.35,1.31,2.89a3.57,3.57,0,0,0,1.72.32l8.47.13a.33.33,0,0,0,.22,0,.35.35,0,0,0,.07-.25A58.12,58.12,0,0,0,165.22,70a87.09,87.09,0,0,1-11.76,0"/><path class="cls-3" d="M154.06,70.16c0,2.65,0,5.29.22,7.93.14,1.84.37,4,2.58,4.26,1.18.15,2.43.08,3.62.11s2.66.06,4,.07c.59,0,1.22.07,1.8,0a.67.67,0,0,0,.66-.57,7.78,7.78,0,0,0,0-1.67c0-.68-.05-1.36-.09-2a55.65,55.65,0,0,0-1.19-8.41.4.4,0,0,0-.39-.29c-2,.1-3.92.2-5.89.23s-3.92-.15-5.88-.14c-.38,0-.52.62-.1.7a32.62,32.62,0,0,0,5.85.22c2,0,4-.12,6-.21l-.39-.29a59.26,59.26,0,0,1,1,6.65c.1,1.07.17,2.15.22,3.23a15.69,15.69,0,0,0,0,1.68s0,.4.09.19,0,0-.17,0a8.18,8.18,0,0,0-1,0c-2.29-.05-4.57-.05-6.86-.08-1,0-2,0-2.55-1a6.89,6.89,0,0,1-.56-2.84c-.2-2.55-.22-5.12-.26-7.68a.35.35,0,0,0-.7,0Z"/></g><g class="cls-1"><path class="cls-2" d="M155.33,101l.51,11.1a.51.51,0,0,0,.11.35.52.52,0,0,0,.32.09l9.42.21a.58.58,0,0,0,.37-.08.57.57,0,0,0,.16-.43,35.27,35.27,0,0,0-.54-9.62,3.37,3.37,0,0,1-.08-1.22,1,1,0,0,1,.77-.86l-10.82.75"/><path class="cls-3" d="M154.89,101c.12,2.45.25,4.9.35,7.36,0,1.24,0,2.5.16,3.74.09,1,1,.86,1.83.86,2.49,0,5,.12,7.49.16.86,0,1.79.18,1.95-.89a22,22,0,0,0,.16-3.54,35.9,35.9,0,0,0-.31-4c-.08-.66-.18-1.33-.31-2s-.43-1.54.26-1.79c.4-.15.41-.82-.09-.79-3.6.23-7.25.29-10.82.75-.49.06-.56.8,0,.79,3.61,0,7.23-.47,10.82-.74l-.09-.79a1.57,1.57,0,0,0-1.18,1.66,27.83,27.83,0,0,0,.5,3.38,34.22,34.22,0,0,1,.24,3.64c0,.59,0,1.18,0,1.77,0,.31,0,.63,0,.94s.06.71-.1.94l.26-.2a3.59,3.59,0,0,1-1.35,0l-1.32,0-2.66-.05c-.85,0-1.7,0-2.54,0l-1.33-.07c-.6,0-.47,0-.5-.62q-.27-5.25-.48-10.5a.45.45,0,0,0-.89,0Z"/></g><g class="cls-4"><path class="cls-2" d="M63,164.86l1.64,12a.53.53,0,0,0,.14.35.5.5,0,0,0,.43.05,23.33,23.33,0,0,1,6.57-.16,25,25,0,0,0,3.76.34A4.8,4.8,0,0,0,79,176a5.3,5.3,0,0,0,1.1-3.24c.18-3-.74-5.93-1.09-8.91,0-.44.1-1.08.54-1L61.9,164.18"/><path class="cls-3" d="M62.47,165c.39,3,.81,6,1.24,9.06l.32,2.21c.07.5,0,1.16.56,1.42s1,0,1.48-.06a18,18,0,0,1,2.54-.2,28.79,28.79,0,0,1,4.45.33,10.33,10.33,0,0,0,3.84,0A4.52,4.52,0,0,0,79.63,176a6.16,6.16,0,0,0,.94-3.19,20.56,20.56,0,0,0-.39-4.82c-.13-.78-.28-1.56-.42-2.34,0-.21-.46-2.33-.26-2.32v-.87c-2.93.14-5.87.4-8.8.6s-5.87.38-8.8.7c-.56,0-.62.91,0,.88,2.94-.12,5.87-.37,8.8-.61s5.88-.41,8.81-.7c.55-.06.59-.92,0-.87-1,.08-1,1.16-1,1.92.14,1.34.41,2.67.64,4a19.81,19.81,0,0,1,.37,4.21,4.82,4.82,0,0,1-1.15,3.33c-2,1.89-5.22.8-7.59.63a25.26,25.26,0,0,0-4.26.07c-.32,0-.65.07-1,.12a2.29,2.29,0,0,1-.51.06c.19,0,0,.19.09-.05a2.82,2.82,0,0,0-.13-1l-.16-1.23c-.43-3.27-.86-6.54-1.34-9.8-.1-.7-1.15-.39-1.07.29Z"/></g><path class="cls-3" d="M63.69,45A15.39,15.39,0,0,0,65.11,32.3a20.42,20.42,0,0,0-8.28-11A36.51,36.51,0,0,0,42.61,16.1c-5.65-1-11.63-1.56-17.32-.64A30.34,30.34,0,0,0,.09,47.66c.4,5.18,2.32,10,4.58,14.58s4.76,9,6.06,13.9a23.38,23.38,0,0,1,.71,7.9,38,38,0,0,1-2,8.8c-1.88,5.57-4.4,11-5.24,16.83-.68,4.72-.17,9.92,2.58,13.94,3,4.42,8.12,6.1,13.22,6.68,6,.69,12-.33,17.79-1.84A91.54,91.54,0,0,0,53.29,123,37.72,37.72,0,0,0,65.88,114c7.37-8.45,9.83-20,9-30.94a69.12,69.12,0,0,0-3.66-17.1,64.46,64.46,0,0,0-3.32-7.86c-1.27-2.5-2.87-4.92-3.7-7.61-.7-2.28-.74-4.94.85-6.88.57-.69-.41-1.64-1-.94a8.46,8.46,0,0,0-1.59,6.61c.36,2.65,1.7,5.05,2.91,7.4a74.12,74.12,0,0,1,5.91,15.52C74,82.87,74.44,94.72,69.69,105a32.19,32.19,0,0,1-9.2,11.8,48.48,48.48,0,0,1-13.42,7.08A96.68,96.68,0,0,1,31,128.42c-5.45,1-11.4,1.25-16.68-.69a13.2,13.2,0,0,1-5.94-4.2,15.48,15.48,0,0,1-2.77-6.19c-1.14-5.28.2-10.6,1.94-15.59,1.88-5.37,4.22-10.64,5-16.32a24.41,24.41,0,0,0-.19-8,35.26,35.26,0,0,0-2.21-6.94C8.23,66,5.69,61.7,3.81,57.15a30.48,30.48,0,0,1-2.3-14.76,28.24,28.24,0,0,1,16-22.95,31.37,31.37,0,0,1,15.12-2.92A59.06,59.06,0,0,1,48.17,19a25.82,25.82,0,0,1,12.17,7.62,17.86,17.86,0,0,1,4.27,11.91,12.16,12.16,0,0,1-1.82,5.94c-.35.57.55,1,.9.49Z"/><path class="cls-5" d="M49.88,43.06c6.48.18,13,.57,19.46.61s12.89.07,19.34,0c12.89,0,25.79-.25,38.68-.39,3.62,0,7.24-.13,10.86-.23l5.49-.16c.92,0,1.83-.07,2.75-.13l1.25-.07a5.76,5.76,0,0,0,1.62-.41,1.4,1.4,0,0,0,0-2.7A5.67,5.67,0,0,0,148,39.3c-.37,0-.75,0-1.12,0-.87,0-1.74,0-2.62,0l-4.74.08c-3.24,0-6.49.06-9.73.15-6.45.16-12.89.24-19.34.33q-19.35.24-38.69.29c-7.29,0-14.57.34-21.85.44a1.25,1.25,0,0,0,0,2.5Z"/><path class="cls-5" d="M59.43,80c6,.35,12,.61,18,.73s12,.13,18,.16c3,0,6-.11,8.93-.16s6-.12,8.93-.21c6-.18,12-.63,18-1,3.34-.22,6.69-.4,10-.62l4.94-.35a35.75,35.75,0,0,0,5.38-.63,1.71,1.71,0,0,0,1.26-1.82,1.62,1.62,0,0,0-1.62-1.42,30.09,30.09,0,0,0-4.45.23l-4.45.38q-4.45.38-8.91.68c-6,.42-12,.46-18,.7q-17.91.73-35.84.49-10.05-.12-20.1-.4a1.72,1.72,0,0,0-1.69,1.65A1.62,1.62,0,0,0,59.43,80Z"/><path class="cls-5" d="M51.79,113.48c3.41.19,6.8.43,10.21.6s6.66.2,10,.26c6.73.14,13.47.18,20.2.28s13.39,0,20.08-.05c6.38-.07,12.74-.15,19.09-.72q5.4-.5,10.74-1.41c1.77-.3,3.54-.63,5.3-1a19.61,19.61,0,0,0,5.24-2c1.19-.65.81-2.83-.68-2.66a30.85,30.85,0,0,0-4.78.84c-1.55.42-3.11.8-4.68,1.12A86.05,86.05,0,0,1,133.3,110c-6.26.57-12.57.72-18.86.83-13.33.24-26.68,0-40-.21l-11.22-.18c-3.79-.06-7.57.11-11.36.14a1.43,1.43,0,0,0-.05,2.86Z"/><path class="cls-3" d="M8.76,7.19a4.78,4.78,0,0,0-4.13-2,3.94,3.94,0,0,0-3.86,3c-.32,2,1.67,3.28,3.17,4.18A28.73,28.73,0,0,1,6.52,14c.57.43,1.94,1.34.9,2a4.46,4.46,0,0,1-1.7.4,8.82,8.82,0,0,1-2,.07,3.41,3.41,0,0,1-2.57-1.48c-.32-.5-1.18-.18-1,.41C.72,17.37,3,18,4.89,17.86a7,7,0,0,0,3.29-.79,2.08,2.08,0,0,0,.92-2.31,5.37,5.37,0,0,0-2.18-2.2C6.09,12,5.2,11.48,4.33,11A5.13,5.13,0,0,1,2.2,9.13,1.82,1.82,0,0,1,3,6.87a3.47,3.47,0,0,1,4.68.94c.43.65,1.5,0,1.07-.62Z"/><path class="cls-3" d="M159.13,14.3c0,3.92,0,7.83,0,11.75s-.11,7.83-.08,11.74c.06,7.75-.08,15.5,0,23.24.21,15.57,0,31.15,0,46.73,0,4.33.09,8.66.1,13s-.11,8.84.06,13.25a.69.69,0,0,0,1.37,0c.13-3.91,0-7.83,0-11.74s0-7.83,0-11.75c0-7.74-.08-15.49-.11-23.23-.06-15.58-.19-31.16-.16-46.73,0-4.33-.08-8.66-.14-13s0-8.83-.08-13.25a.54.54,0,0,0-1.07,0Z"/><path class="cls-3" d="M158.16,14.34c-.59.53-1.16,1.08-1.7,1.65a12,12,0,0,0-.8.94,3.44,3.44,0,0,0-.65,1.13.5.5,0,0,0,.73.55,4.36,4.36,0,0,0,1-.79l.82-.83c.55-.56,1.11-1.1,1.7-1.61a.77.77,0,0,0,0-1.07.8.8,0,0,0-1.08,0Z"/><path class="cls-3" d="M159.88,16l1.27,1.41c.2.23.41.46.63.68s.22.22.34.32a2.06,2.06,0,0,0,.52.35.72.72,0,0,0,.84-.13.83.83,0,0,0,.18-.3.73.73,0,0,0-.06-.52,2.52,2.52,0,0,0-.21-.4c-.13-.17-.25-.34-.38-.5s-.42-.49-.64-.73l-1.26-1.4a.88.88,0,0,0-1.22,0,.86.86,0,0,0,0,1.2Z"/><path class="cls-3" d="M155.71,131.64a9.2,9.2,0,0,0,1.54,2.12,5.26,5.26,0,0,0,2.2,1.52.61.61,0,0,0,.66-.29.59.59,0,0,0-.09-.69c-.11-.14,0,0,0,0l-.16-.2-.2-.2-.43-.42c-.27-.28-.55-.56-.8-.86l-.18-.22c-.1-.12.07.1,0,0l-.09-.11-.33-.47a11.71,11.71,0,0,1-.62-1,.87.87,0,0,0-1.5.87Z"/><path class="cls-3" d="M160.93,134.71a24,24,0,0,1,1.85-1.63,14.75,14.75,0,0,0,1.83-1.61.56.56,0,0,0-.55-.95,7.06,7.06,0,0,0-2.3,1.25,19.18,19.18,0,0,0-2,1.77.84.84,0,0,0,0,1.2.89.89,0,0,0,1.22,0Z"/><path class="cls-3" d="M156.14,1.73c-.08,1.45-.11,2.91-.07,4.36a12.49,12.49,0,0,0,.51,4.27c.17.4.85.26.92-.13a8.59,8.59,0,0,0,0-2.09c0-.72-.08-1.43-.1-2.14,0-1.43,0-2.86,0-4.28,0-.86-1.28-.82-1.33,0Z"/><path class="cls-3" d="M158,3a16,16,0,0,0,.93,6.8c.22.5,1,.2,1-.26a29.52,29.52,0,0,0-.13-3.26c-.08-1.1-.11-2.19-.09-3.29S158,1.94,158,3Z"/><path class="cls-3" d="M157.42,2.23a2.73,2.73,0,0,1,4.34-.06,2.24,2.24,0,0,1,.15,2.3,2.25,2.25,0,0,1-.94.92,6.83,6.83,0,0,1-1.3.64.61.61,0,0,0-.16,1.1,9.58,9.58,0,0,0,1.25.5,12.83,12.83,0,0,1,1.24.59,16.52,16.52,0,0,1,2.19,1.62c.43.35,1.23-.12.87-.67a7.42,7.42,0,0,0-2.3-2.09A5.63,5.63,0,0,0,159.83,6l.41,1a3.17,3.17,0,0,1,.86-.53,5.17,5.17,0,0,0,.82-.48A3.18,3.18,0,0,0,163,4.63a3.32,3.32,0,0,0-.37-3.18A3.58,3.58,0,0,0,159.71,0a4,4,0,0,0-3,1.69c-.31.43.4,1,.73.54Z"/><path class="cls-3" d="M244.13,14.3c0,3.92,0,7.83,0,11.75s-.11,7.83-.08,11.74c.06,7.75-.08,15.5,0,23.24.21,15.57,0,31.15,0,46.73,0,4.33.09,8.66.1,13s-.11,8.84.06,13.25a.69.69,0,0,0,1.37,0c.13-3.91,0-7.83,0-11.74s0-7.83,0-11.75c0-7.74-.08-15.49-.11-23.23-.06-15.58-.19-31.16-.16-46.73,0-4.33-.08-8.66-.14-13s0-8.83-.08-13.25a.54.54,0,0,0-1.07,0Z"/><path class="cls-3" d="M243.16,14.34c-.59.53-1.16,1.08-1.7,1.65a12,12,0,0,0-.8.94,3.44,3.44,0,0,0-.65,1.13.5.5,0,0,0,.73.55,4.36,4.36,0,0,0,1-.79l.82-.83c.55-.56,1.11-1.1,1.7-1.61a.77.77,0,0,0,0-1.07.8.8,0,0,0-1.08,0Z"/><path class="cls-3" d="M244.88,16l1.27,1.41c.2.23.41.46.63.68s.22.22.34.32a2.06,2.06,0,0,0,.52.35.72.72,0,0,0,.84-.13.83.83,0,0,0,.18-.3.73.73,0,0,0-.06-.52,2.52,2.52,0,0,0-.21-.4c-.13-.17-.25-.34-.38-.5s-.42-.49-.64-.73l-1.26-1.4a.88.88,0,0,0-1.22,0,.86.86,0,0,0,0,1.2Z"/><path class="cls-3" d="M240.71,131.64a9.2,9.2,0,0,0,1.54,2.12,5.26,5.26,0,0,0,2.2,1.52.61.61,0,0,0,.66-.29.59.59,0,0,0-.09-.69c-.11-.14,0,0,0,0l-.16-.2-.2-.2-.43-.42c-.27-.28-.55-.56-.8-.86l-.18-.22c-.1-.12.07.1,0,0l-.09-.11-.33-.47a11.71,11.71,0,0,1-.62-1,.87.87,0,0,0-1.5.87Z"/><path class="cls-3" d="M245.93,134.71a24,24,0,0,1,1.85-1.63,14.75,14.75,0,0,0,1.83-1.61.56.56,0,0,0-.55-.95,7.06,7.06,0,0,0-2.3,1.25,19.18,19.18,0,0,0-2,1.77.84.84,0,0,0,0,1.2.89.89,0,0,0,1.22,0Z"/><path class="cls-3" d="M241.14,1.73c-.08,1.45-.11,2.91-.07,4.36a12.49,12.49,0,0,0,.51,4.27c.17.4.85.26.92-.13a8.59,8.59,0,0,0,0-2.09c0-.72-.08-1.43-.1-2.14,0-1.43,0-2.86,0-4.28,0-.86-1.28-.82-1.33,0Z"/><path class="cls-3" d="M243,3a16,16,0,0,0,.93,6.8c.22.5,1,.2,1-.26a29.52,29.52,0,0,0-.13-3.26c-.08-1.1-.11-2.19-.09-3.29S243,1.94,243,3Z"/><path class="cls-3" d="M242.42,2.23a2.73,2.73,0,0,1,4.34-.06,2.24,2.24,0,0,1,.15,2.3,2.25,2.25,0,0,1-.94.92,6.83,6.83,0,0,1-1.3.64.61.61,0,0,0-.16,1.1,9.58,9.58,0,0,0,1.25.5,12.83,12.83,0,0,1,1.24.59,16.52,16.52,0,0,1,2.19,1.62c.43.35,1.23-.12.87-.67a7.42,7.42,0,0,0-2.3-2.09A5.63,5.63,0,0,0,244.83,6l.41,1a3.17,3.17,0,0,1,.86-.53,5.17,5.17,0,0,0,.82-.48A3.18,3.18,0,0,0,248,4.63a3.32,3.32,0,0,0-.37-3.18A3.58,3.58,0,0,0,244.71,0a4,4,0,0,0-3,1.69c-.31.43.4,1,.73.54Z"/><path class="cls-2" d="M245.54,72.62a2.14,2.14,0,0,0-2.12-1.14,1.8,1.8,0,0,0-1.56,1.78c.09,1.86,3,3,4.29,1.6s0-3.68-1.43-4.54c-1.86-1.12-3.71,1.54-3.3,3.23a2.39,2.39,0,0,0,2.24,1.65,4.34,4.34,0,0,0,1.6-.23,1.94,1.94,0,0,0,1.26-.86c.47-.88-.1-2-.55-2.76a2.77,2.77,0,0,0-2.29-1.51,1.91,1.91,0,0,0-1.35.51,3,3,0,0,0-.7,1.32,2.39,2.39,0,0,0,.56,2.79,3.68,3.68,0,0,0,2.38.58,3.16,3.16,0,0,0,2.44-1,3.27,3.27,0,0,0-1.35-4.67,2.45,2.45,0,0,0-2.66.51,4.62,4.62,0,0,0-1.39,2.46,2.39,2.39,0,0,0,1.32,2.43,3.93,3.93,0,0,0,3,.11c2-.77,2.19-3.32.83-4.79a3.2,3.2,0,0,0-4.64.16,2.74,2.74,0,0,0-.58,2.82,2.89,2.89,0,0,0,2.13,1.57c1.49.35,3.46.19,4.48-1.1a2.68,2.68,0,0,0,.57-2.33,3.14,3.14,0,0,0-1.47-2,3.53,3.53,0,0,0-4.6,1.5,2.43,2.43,0,0,0,.17,2.91,3,3,0,0,0,2.59.63,2.58,2.58,0,0,0,2.16-1.69A2.64,2.64,0,0,0,247,70.1c-1.35-1.57-3.74-1.1-5.21,0a2.74,2.74,0,0,0-1.35,2.51c.16,1.12,1.17,1.52,2.17,1.58a5.14,5.14,0,0,0,3-.53,3,3,0,0,0,1.53-2.24c.21-2-1.91-3.27-3.66-2.88a2.79,2.79,0,0,0-1.79,4c1,1.74,3.42,1.5,4.84.52a1.87,1.87,0,0,0,.86-1.21,1.66,1.66,0,0,0-.42-1.36,2.42,2.42,0,0,0-2.91-.29,3.2,3.2,0,0,0-1.86,2,2.15,2.15,0,0,0,1.25,2.39,4,4,0,0,0,3,0,2.1,2.1,0,0,0,1.41-2.47,2.86,2.86,0,0,0-4.32-1.72,3,3,0,0,0-1.33,2.37,2.53,2.53,0,0,0,1.55,2.38,3.61,3.61,0,0,0,4.86-2,2.76,2.76,0,0,0-5.11-2,2.43,2.43,0,0,0,.45,2.76,2.52,2.52,0,0,0,2.5.44,3.25,3.25,0,0,0,1.88-2,2.92,2.92,0,0,0-.25-2.78,2.38,2.38,0,0,0-2.47-.73,4,4,0,0,0-2.37,1.44,2.13,2.13,0,0,0,.38,2.72A3.63,3.63,0,0,0,246.21,74a1.92,1.92,0,0,0,1.95-1.77,2.77,2.77,0,1,0-5.43.66,2.53,2.53,0,0,0,4.48,1,2.14,2.14,0,0,0-.14-2.5A4.47,4.47,0,0,0,244.92,70a.81.81,0,0,0-1,.55.76.76,0,0,0,.54.92,3.19,3.19,0,0,1,1.21.78.68.68,0,0,1,.21.42c0-.12,0,.17,0,.12s0,.14,0,.07-.11.19-.08.15a.58.58,0,0,1-.45.25,1,1,0,0,1-.64-.17.87.87,0,0,1-.2-.15s-.14-.19-.08-.1l-.05-.08-.07-.14c-.06-.12,0,.1,0,0a2.36,2.36,0,0,1-.1-.38c0-.13,0,.09,0,0v-.16a.72.72,0,0,1,0-.24,1.3,1.3,0,0,1,.22-.55.92.92,0,0,1,.71-.42,1.43,1.43,0,0,1,1.55,1.26.85.85,0,0,1-.06.31c.06-.16-.07.06-.07.06a.69.69,0,0,1-.5,0,2.42,2.42,0,0,1-1.31-.79.9.9,0,0,1-.22-.42.62.62,0,0,1,.31-.48,2.74,2.74,0,0,1,1.31-.59.73.73,0,0,1,.87.38,1.94,1.94,0,0,1-.12,1.44A1.59,1.59,0,0,1,246,73a.94.94,0,0,1-1-.25,1,1,0,0,1,.08-1.14,1.23,1.23,0,0,1,1.12-.5,1.3,1.3,0,0,1,.88,2,2.09,2.09,0,0,1-2.7.53,1.07,1.07,0,0,1-.48-1,1.29,1.29,0,0,1,.68-1,1.14,1.14,0,0,1,1.09,0,1.27,1.27,0,0,1,.76,1,.48.48,0,0,1-.07.26.46.46,0,0,1-.12.09,2,2,0,0,1-.72.23,2.27,2.27,0,0,1-1.52-.16.57.57,0,0,1-.13-.92,2.27,2.27,0,0,1,1.4-.86c.23,0,.76.1.66.37s-.38.29-.54.37a3.16,3.16,0,0,1-.79.25,1.66,1.66,0,0,1-1.3-.2,1.17,1.17,0,0,1-.41-.93,1.21,1.21,0,0,1,.43-1,1.19,1.19,0,0,1,.48-.22,1.5,1.5,0,0,1,.6,0,1.31,1.31,0,0,1,1.05,2,2.18,2.18,0,0,1-1.36.75,4.69,4.69,0,0,1-1.79,0c-.43-.1-.52-.45-.3-.83a3.09,3.09,0,0,1,1.32-1.05c.86-.43,2.21-.49,2.75.48a1.11,1.11,0,0,1-.05,1.15,1.55,1.55,0,0,1-1.22.4,1.54,1.54,0,0,1-.58-.11.55.55,0,0,1-.39-.38,1.47,1.47,0,0,1,.45-1.27,1.82,1.82,0,0,1,2.36-.4,1.46,1.46,0,0,1,.39,2,2.92,2.92,0,0,1-2.46.56c-.89-.15-2-.58-1.47-1.64a1.28,1.28,0,0,1,.38-.49l0,0,.15-.1.16-.09c.23-.12-.12,0,.12,0a1.45,1.45,0,0,1,1.12,0,1.63,1.63,0,0,1,.84.93,1.43,1.43,0,0,1-.05,1.21,1.45,1.45,0,0,1-1.24.49,1.48,1.48,0,0,1-1.32-.48.63.63,0,0,1-.14-.5,2.45,2.45,0,0,1,.36-.81,2.21,2.21,0,0,1,.88-1,1,1,0,0,1,1,.35,2.25,2.25,0,0,1,.57,1.27.94.94,0,0,1-.46,1,3.41,3.41,0,0,1-1.49.18,2.63,2.63,0,0,1-.67-.12,1,1,0,0,1-.41-.27c-.24-.41.05-1.08.23-1.47a1.64,1.64,0,0,1,.16-.26c0,.06,0,0,0,0s0,0,.05,0a.75.75,0,0,1,.48,0,2.47,2.47,0,0,1,1,1.28c.1.21.12.44.2.65s-.1,0,.06,0l-.39.13a2.08,2.08,0,0,1-1.64,0c-.42-.27-.35-.73-.17-1.19a2.14,2.14,0,0,1,.32-.55,1.66,1.66,0,0,1,.19-.19.49.49,0,0,1,.19-.1.65.65,0,0,1,.49.2,5.55,5.55,0,0,1,.71.66,1.57,1.57,0,0,1,.49,1.3c-.19,1-1.78.33-2.19-.21a.58.58,0,0,1,.31-.92,1.24,1.24,0,0,1,1.34.51c.28.37.92,0,.67-.38Z"/><path class="cls-2" d="M249.63,78.26a17.9,17.9,0,0,1,4.85.29,1.81,1.81,0,0,1,.78.26c.25.21,0,.41-.19.57a18.42,18.42,0,0,1-1.6,1.19,8.78,8.78,0,0,0-2.94,2.71,1.33,1.33,0,0,0,.47,1.85,6.54,6.54,0,0,0,2.1.47l2.76.45,1.29.2a3.31,3.31,0,0,0,1.5,0c.4-.13.75-.76.31-1.09a5,5,0,0,0-2.31-.63l-2.51-.36L252.92,84a4.84,4.84,0,0,0-1.06-.15c-.15,0-.09-.09-.08.07,0-.13.16-.32.23-.42a6.11,6.11,0,0,1,.65-.78c.93-1,2.05-1.66,3-2.57a1.4,1.4,0,0,0,.57-1.53,1.6,1.6,0,0,0-1.2-.83,17.72,17.72,0,0,0-5.39-.25c-.45,0-.49.74,0,.71Z"/><path class="cls-2" d="M250.46,81.8a36.6,36.6,0,0,0,4.17.55c.68.05,1.36.09,2.05.11a5.09,5.09,0,0,0,2.16-.22l-.91-.9a.71.71,0,0,0-.15.33.53.53,0,0,0,.37.64,1,1,0,0,0,.52,0,.71.71,0,0,0,.52-.65.67.67,0,0,0-.5-.64,6,6,0,0,0-2-.13c-.66,0-1.32,0-2-.06-1.3-.08-2.6-.23-3.88-.42a.78.78,0,0,0-.9.52.7.7,0,0,0,.5.87Z"/><path class="cls-2" d="M160.36,41c.12-.85-.73-1.36-1.47-1.39a1.52,1.52,0,0,0-1.61,1.52,2.26,2.26,0,0,0,2.07,2.05,3.79,3.79,0,0,0,2.93-1.41,1.73,1.73,0,0,0,.48-.74,1,1,0,0,0-.24-1,3.14,3.14,0,0,0-1.29-.74,4.34,4.34,0,0,0-2.64-.19,2.37,2.37,0,0,0-1.74,2A2.56,2.56,0,0,0,158,43.46c1.85,1.21,4.22-1.12,3.32-3a2.37,2.37,0,0,0-2.31-1.3,2.09,2.09,0,0,0-1.87,1.94,2,2,0,0,0,1.62,2.18A2.78,2.78,0,0,0,161.59,42a2.41,2.41,0,0,0-.21-2.9,2.45,2.45,0,0,0-2.68-.77,2.56,2.56,0,0,0-1.56,2.27,2.1,2.1,0,0,0,1.53,2.07,2.36,2.36,0,0,0,2.42-.66,2.11,2.11,0,0,0-.11-2.75,2,2,0,0,0-2.51-.48,2.33,2.33,0,0,0-1,2.29,1.93,1.93,0,0,0,1.84,1.67,2.46,2.46,0,0,0,2.24-1.29A2.06,2.06,0,0,0,161,38.9,2.29,2.29,0,0,0,157.17,41a2.27,2.27,0,0,0,1.7,2,2.76,2.76,0,0,0,2.63-.82,2.48,2.48,0,0,0,.29-2.85,2.54,2.54,0,0,0-2.43-1.41,2.8,2.8,0,0,0-2.37,2,2.5,2.5,0,0,0,1.06,2.76,2.58,2.58,0,0,0,2.83.09,2,2,0,0,0,.38-3.12A2.49,2.49,0,0,0,158.7,39a1.94,1.94,0,0,0-1.28,2.33,2.09,2.09,0,0,0,2,1.65,1.78,1.78,0,0,0,1.65-1.79,1.83,1.83,0,0,0-1.28-1.93.94.94,0,0,0-1,.3,4.68,4.68,0,0,0-.53.73,5.53,5.53,0,0,0-.37.8,6.51,6.51,0,0,0-.18.83.62.62,0,0,0,1.2.3,4.16,4.16,0,0,1,.46-.92,4.53,4.53,0,0,1,.3-.46l.15-.22.13-.15-.55.23c.11,0-.16,0,0,0l.08,0,0,0c-.06,0-.07,0,0,0l.05,0c.08,0-.11-.11-.06,0l.12.13s-.09-.16,0-.06a.43.43,0,0,0,0,.07s.09.18,0,.07,0,.06,0,.09,0,.06,0,.08,0,0,0,0,0,.14,0,.18,0,.2,0,.08,0,.07,0,.1a.14.14,0,0,1,0,.06c0,.12.08-.12,0,0a.29.29,0,0,0-.07.12c0,.08.1-.09,0,0l-.06.06s-.08.09,0,0,0,0,0,0l-.08,0s.17-.06,0,0,.08,0-.08,0,.05,0,0,0l-.1,0c-.12,0,0,0,0,0l-.09,0s-.14-.09-.06,0-.09-.08-.11-.1-.13-.16-.05,0a1.74,1.74,0,0,1-.11-.18.93.93,0,0,1-.05-.1c-.06-.11,0,.07,0,0s0-.12-.05-.18,0-.07,0-.1c0,.13,0,0,0,0s0-.24,0-.09c0,0,0-.07,0-.1s.06-.16,0-.07,0-.07.07-.11-.05.06,0,0l.07-.08.08-.06s-.13.08,0,0l.18-.1c-.16.08,0,0,.07,0s.24,0,.08,0h.29c.07,0,.1,0,0,0l.21,0s.22.1.09,0l.16.08.09.05c.07,0,.08.07,0,0a1.07,1.07,0,0,0,.16.14s.08.11,0,0a.43.43,0,0,1,0,.07,1,1,0,0,1,.16.35.86.86,0,0,1,0,.16s0-.1,0,0l0,.1c0,.1,0-.08,0,0s-.08.13,0,.06,0,0,0,0l-.1.09c-.13.14.1,0-.06.06l-.21.11c-.1,0,.09,0,0,0l-.11,0s-.22,0-.08,0h-.26s-.14,0,0,0h-.06l-.2,0-.11,0h0l-.23-.12-.1-.07c-.09-.05.08.07,0,0l-.15-.14a1.29,1.29,0,0,1-.16-.17s.07.11,0,0l-.08-.12c0-.05-.09-.19,0-.07a1.42,1.42,0,0,1-.07-.22s0-.08,0-.11v0a2.09,2.09,0,0,1,0-.25c0,.11,0-.1,0-.14s.09-.24,0-.13l.12-.23.06-.08c0-.06-.06.06,0,0a1.53,1.53,0,0,1,.18-.18l.09-.09s-.1.07,0,0l.19-.11.06,0,.09,0s.26-.06.14,0a1,1,0,0,1,.25,0h.1s.27.08.15,0l.21.1.1.07s.09.06,0,0,0,0,0,0l.09.08c.06.07.13.13.18.2-.08-.1,0,.05,0,.08l.11.21c0,.09,0-.1,0,0l0,.09a2.46,2.46,0,0,1,.07.29c0-.12,0,0,0,.09v.11s0,.15,0,.07,0,0,0,0l0,.11a.36.36,0,0,1,0,.11c.05-.13,0,0,0,0l-.11.19c0,.09.08-.07,0,0l-.06.06a1.21,1.21,0,0,1-.16.16c-.09.09,0,0,0,0l-.11.07-.2.11-.08,0h0l-.22.06-.11,0h-.2c-.05,0-.25,0-.1,0l-.22-.05-.1,0c.06,0,.07,0,0,0l-.19-.11c.12.07,0,0-.07-.07s-.14-.2-.07-.07c0-.06-.07-.11-.11-.18s-.08-.22,0-.08a1.66,1.66,0,0,1-.06-.21s0-.19,0-.13,0,0,0-.05v-.13a1.62,1.62,0,0,1,0-.22c0,.13,0,0,0-.07l.06-.21c0-.09,0,.1,0,0l.06-.12s.15-.19.05-.08l.12-.13s.11-.09,0,0l0,0c.06,0,.25-.11.11-.07l.18,0h.05c-.08,0,0,0,0,0h.19c-.13,0,.11,0,.16,0l.13,0,0,0,.1,0,.16.1c-.11-.07.07.06.1.09a.75.75,0,0,1,.15.16c0,.06,0,0,0,0l.06.09s.1.22,0,.08a2,2,0,0,1,.07.23c0,.09,0-.1,0,0v.08s0,.23,0,.1a1.46,1.46,0,0,1-.05.2s.06-.11,0,0l-.06.11s-.12.16,0,.06l-.15.15-.08.07s.12-.08,0,0a1.18,1.18,0,0,1-.19.11s-.22.09-.07,0l-.21.07-.1,0h-.18l-.1,0s-.21-.08-.09,0l-.16-.09c-.08,0,.07.07,0,0l-.09-.08-.06-.08s.07.12,0,0,0-.1-.08-.14,0,.11,0,0l0-.09c0-.07,0-.14,0-.21,0,.14,0,0,0-.08a1,1,0,0,1,0-.17c0-.09,0,.11,0,0l0-.1a1.66,1.66,0,0,1,.06-.21c0-.11-.05.08,0,0L159,40c.09-.14-.05,0,0,0l.07-.07s.12-.1,0,0,.08,0,.1-.06-.07,0,0,0,.21,0,.09,0h.11c.11,0,0,0,0,0l.11,0h.08l.09.05s.19.13.1.06a1,1,0,0,1,.18.17s.09.1,0,0l0,0,.11.19a.93.93,0,0,1,.05.1s0-.1,0,0a2,2,0,0,1,.05.24c0,.07,0,0,0,0a.4.4,0,0,1,0,.11v.11c0-.11,0,0,0,0s-.07.22,0,.12l-.1.18c.07-.11,0,0-.07.07l-.08.07s.12-.07,0,0l-.16.09s-.12.06,0,0l-.06,0-.21,0h-.41l-.2-.05h0l-.07,0-.18-.11c-.07,0,.08.07,0,0l-.1-.08-.07-.08s.07.1,0,0l-.1-.16c0-.09,0,.09,0,0l0-.11s0-.25,0-.13a1.21,1.21,0,0,1,0-.19.41.41,0,0,0,0-.11c0-.09,0,.09,0,0a1.8,1.8,0,0,1,0-.19l0-.1c.05-.16,0,0,0,0a1.28,1.28,0,0,1,.11-.2s.11-.17,0-.08l.15-.16a.27.27,0,0,1,.08-.07c.08-.09-.05,0,0,0l.19-.11c.06,0,0,0,0,0l.1,0s.23,0,.13,0h.28c.1,0-.07,0,0,0l.09,0,.15,0,.22.11s.18.13.13.08l.19.17s.15.19.1.11a1.59,1.59,0,0,1,.13.22.56.56,0,0,1,.05.08l0,0a1.1,1.1,0,0,1,0,.8.61.61,0,0,1-.05.12s0-.07,0,0a2.39,2.39,0,0,0-.13.21s-.07.08,0,0-.05,0-.06.06-.13.13-.2.2-.1.07,0,0l-.11.07-.19.11-.07,0c.06,0-.06,0-.07,0a1.64,1.64,0,0,1-.28.07h-.13a.57.57,0,0,1-.19,0l-.27-.06-.06,0s-.18-.11-.12-.06a.8.8,0,0,1-.13-.13c-.07-.06.05.09,0,0l-.06-.09s-.09-.18,0-.06a2,2,0,0,1-.07-.23s0-.13,0-.06,0,0,0-.05v-.19h0a.36.36,0,0,1,0-.1l0-.11s0-.15,0-.08,0,0,0-.05a.41.41,0,0,1,.05-.09s.12-.16,0-.07l.15-.15c-.1.09.08-.05.12-.07s0,0,0,0l.1,0,.12,0h.25l.11,0a1.2,1.2,0,0,1,.64.33s.16.17.1.09a2,2,0,0,1,.12.19s.05.11,0,0l0,.08,0,.12s0,.13,0,.06a1.76,1.76,0,0,1,0,.23s0,.11,0,0,0,.06,0,.09a1,1,0,0,1-.15.38.85.85,0,0,1-.22.29l-.08.08s-.11.09,0,0,0,0,0,0l-.15.09a1,1,0,0,1-1.18-.19l-.08-.07s-.08-.1,0,0l0,0-.06-.09-.11-.2s0-.1,0,0,0-.09,0-.13,0-.12-.05-.19a.36.36,0,0,0,0-.1c0,.09,0,0,0,0v-.22s0-.07,0-.11,0,0,0,0,0-.12.05-.18,0,0,0,0a.93.93,0,0,1,0-.1s.13-.18.07-.11l.15-.16.08-.07c-.08.07,0,0,0,0l.18-.11.1-.05s-.11,0,0,0l.21-.07a1.71,1.71,0,0,1,.35-.06,3.85,3.85,0,0,1,.48,0h0l.12,0,.21,0,.51.14.12,0s.1,0,0,0l.19.08a4,4,0,0,1,.46.24.44.44,0,0,1,.11.09l0,0v0a.14.14,0,0,1,0-.12l-.27.31a2.76,2.76,0,0,1-1.72,1,1.2,1.2,0,0,1-1.22-.86.6.6,0,0,1,0-.32c0,.09,0,0,0,0s-.06.07,0,0l.08-.07c-.11.1,0,0,0,0s.09,0,0,0l.08,0,.1,0c-.08,0,0,0,0,0H159s-.1,0,0,0l.15,0c.11,0,0,0,.06,0l.12.07c-.11-.08,0,0,0,0s0,0,0,0,0-.11,0,0,0,.09,0,0a.86.86,0,0,1,0,.16.51.51,0,0,0,.53.52.56.56,0,0,0,.54-.53Z"/><path class="cls-2" d="M158.91,74.78l1.34.43a.42.42,0,0,0,.52-.38,2.07,2.07,0,0,0-3.31-1.71,2.3,2.3,0,0,0-.73,2,2.24,2.24,0,0,0,1.67,1.73,3.24,3.24,0,0,0,2.78-.35,2.67,2.67,0,0,0,1-2,2.77,2.77,0,0,0-.69-2.06,2.53,2.53,0,0,0-2.06-.8A2.84,2.84,0,0,0,156.74,75a3.22,3.22,0,0,0,3.57,2.44,2.89,2.89,0,0,0,2.17-3.18,3.24,3.24,0,0,0-.78-1.92,2.57,2.57,0,0,0-2-.84,3.39,3.39,0,0,0-3.17,3.11,3,3,0,0,0,3.24,2.93,2.42,2.42,0,0,0,1.93-1.34,2.78,2.78,0,0,0,.17-2.15A2.1,2.1,0,0,0,160,72.58a2.58,2.58,0,0,0-2.06.91,2,2,0,0,0-.24,2.41A3.38,3.38,0,0,0,160,77.34a2.21,2.21,0,0,0,2.52-1,2.15,2.15,0,0,0-.22-2.43,2.21,2.21,0,0,0-2.34-.55,2.15,2.15,0,0,0-1.48,2.1,2.36,2.36,0,0,0,1.34,2,2.3,2.3,0,0,0,2.59-.65,2.07,2.07,0,0,0,.32-2.49,2.36,2.36,0,0,0-2-1,2,2,0,0,0-1.9,1.48A2.33,2.33,0,0,0,159.5,77a2,2,0,0,0,2.55,0,2.06,2.06,0,0,0-1.46-3.7,2.11,2.11,0,0,0-2,1.62,2.29,2.29,0,0,0,.93,2.41.87.87,0,0,0,1-.15c.4-.38.78-.77,1.15-1.17a.78.78,0,0,0,0-1.1.81.81,0,0,0-1.11,0c-.43.36-.84.72-1.23,1.11l1-.16c.12.09.05,0,0,0l-.06-.07c-.08-.06.05.06,0,.06s-.09-.17-.1-.18,0,0,0,.06,0-.07,0-.11a1.16,1.16,0,0,0,0-.18c0,.12,0,.06,0,0a1.08,1.08,0,0,1,0-.18s0,.13,0,.06,0-.11,0-.15-.06.1,0,0a.86.86,0,0,1,.1-.16c-.08.12,0,.06,0,0s.08,0,0,0,0,0,0,0l.07,0s-.16,0-.06,0l.19,0c-.12,0-.06,0,0,0a.27.27,0,0,0,.09,0c.09,0-.12,0,0,0l.17,0,.09,0s-.12-.06-.05,0,.12.06.18.1.08.07,0,0,0,0,0,0l.06.06s-.07-.12,0,0,.06.11.09.15,0,0,0,0l0,.08s0,.06,0,.09,0-.1,0,0,0,.08,0,.12,0-.12,0,0a1.09,1.09,0,0,0-.05.17c0,.08,0,0,0,0a.36.36,0,0,0,0,.09s-.14.17,0,.06l-.13.14s-.11.07,0,0l-.08,0s-.18.07-.09.06-.2,0,0,0h-.17c.11,0,.08,0,0,0s.12.08,0,0l-.07,0c-.09,0,0,0,0,0l-.12-.11-.06-.06c-.07-.06.06.06.05.06s-.08-.12-.09-.14-.13-.19-.06-.1,0,0,0,0a.19.19,0,0,1,0-.08s0-.1,0-.16c0,.12,0,.09,0,0s0-.22,0-.11,0,0,0-.08-.06.07,0,0l0-.07c0-.09,0,.07,0,.06s.05-.06.05-.06.06,0,0,0-.08,0,0,0l.07,0s.07,0,.07,0-.17.05-.08,0,.17-.06.18,0-.16,0-.07,0h.29l.15.05c.08,0,0,0-.05,0l.1,0a1,1,0,0,0,.17.1c.07,0,0,0-.05,0l.06,0a.68.68,0,0,0,.12.12c.06,0,0,0,0-.06s0,.06,0,.09.06.13,0,0c0,.06,0,.13.05.19s0,0,0,0v.19c0-.07,0-.07,0,0s-.06.18,0,.06a.56.56,0,0,1-.09.17c0,.05-.12.14,0,.05l-.18.18c.1-.09,0,0,0,0a.7.7,0,0,1-.17.09c.12-.06,0,0,0,0s-.07,0-.09,0,.09,0,0,0h-.22c.13,0,0,0-.06,0,.11,0,0,0,0,0l-.08,0c-.08,0,.08.08,0,0l-.13-.12-.06-.07s.09.14,0,0a1.3,1.3,0,0,1-.1-.15.36.36,0,0,0,0-.09c0-.08,0,.12,0,0s0-.12-.05-.18,0-.06,0-.09,0,.14,0,.06a1.08,1.08,0,0,0,0-.18s0-.15,0-.05,0,0,0,0,.07-.19,0-.1l.05-.09c0-.08,0,0,0,0l.06-.06.07-.06c.09-.1,0,0,0,0s.15-.08.18-.11-.08,0-.07,0l.08,0,.17,0,.09,0c-.06,0-.13,0,0,0a1.08,1.08,0,0,0,.18,0c-.12,0-.06,0,0,0s.22.07.13,0,.08,0,.11.07-.06-.07,0,0,.09.13,0,0l.09.15s0,.11,0,0l0,.11c0,.06,0,.16,0,0v.17c0,.07,0,.17,0,0,0,.06,0,.14-.05.2s0,0,0,0l-.06.1a1.19,1.19,0,0,1-.09.15c.07-.11,0,0,0,0l-.06.05c0,.06.1,0,0,0s-.18.09-.08.05l-.09,0a1.12,1.12,0,0,1-.48,0,3.9,3.9,0,0,1-.46-.12l-.1,0h0l-.26-.12-.19-.11-.09-.06s-.09-.07,0,0l-.11-.1a1.37,1.37,0,0,1-.17-.17c.09.1,0-.07-.05-.1l0-.09s0,.1,0,0,0-.12-.05-.18a.37.37,0,1,0,0,.05v-.11c0-.13,0,.08,0,0a.88.88,0,0,1,0-.15c0,.14,0,0,0-.06s.12-.17,0-.06l.24-.24c.1-.1-.09,0,0,0l.21-.12c.11-.07-.1,0,0,0l.17,0,.16,0c-.13,0,0,0,.08,0H160s-.13,0,0,0l.16,0c-.11,0,0,0,0,0l.07,0c.09,0-.07-.07,0,0l.12.11s.12.14.07.07,0,.08.06.11.09.19.06.11,0,.07,0,.1a.75.75,0,0,1,0,.16.19.19,0,0,1,0,.08V75c0,.06,0,.12,0,.17s0,0,0,0,0,.06,0,.08l0,.17s-.07.19,0,.07a2,2,0,0,1-.18.32c0,.06,0,0,0,0l-.06.06a1.85,1.85,0,0,1-.14.14c-.09.09.09,0,0,0l-.14.08s-.12.06,0,0l-.09,0-.21.06c-.12,0,.06,0-.07,0h-.26l-.24,0-.19,0-.07,0c-.12-.07-.24-.13-.36-.21s0,0,0,0l-.07-.06-.17-.15-.13-.14c.08.09,0-.06-.06-.09l-.09-.17a1.07,1.07,0,0,1-.06-.12v0s0-.09,0-.13a1.54,1.54,0,0,1,0-.16,1.35,1.35,0,0,1,.07-.62,1.26,1.26,0,0,0,0-.12s0-.09.06-.12a2.39,2.39,0,0,1,.21-.34c-.06.09,0,0,.05-.06l.15-.16.14-.13.07-.06c-.05,0,0,0,0,0L159,73l.14-.07h0l.12,0,.17,0h.07a2.06,2.06,0,0,1,.43,0c-.11,0,0,0,.07,0l.18,0c-.09,0,0,0,.06,0a.51.51,0,0,1,.16.09s.15.1.09,0l.09.08.11.11,0,.06c.07.07-.07-.09,0,0s.12.18.17.27l.08.16c.05.1,0-.08,0,.06l.09.31,0,.16c0,.14,0,0,0,.07s0,.23,0,.35,0,.17,0,.1a.69.69,0,0,1,0,.13,2.07,2.07,0,0,1-.1.33.19.19,0,0,1,0,.07s.05-.1,0,0,0,.1-.08.16l-.08.13c0,.06-.09.12,0,0l-.25.26c-.1.09.09-.06,0,0l-.14.08-.14.07c.12,0,0,0-.08,0l-.21,0c.13,0,0,0-.05,0h-.26c-.1,0,.11,0,0,0l-.37-.09c-.13,0,.06,0-.06,0l-.18-.09-.16-.1-.07,0s.09.07,0,0l-.31-.28-.12-.14-.06-.07s.07.1,0,0a3.7,3.7,0,0,1-.21-.33,1.29,1.29,0,0,1-.06-.13c0,.08,0-.08,0-.1a1.36,1.36,0,0,1,0-.17s0-.06,0-.09,0,.08,0,0v-.18s0-.21,0-.15,0-.09,0-.11.08-.21,0-.1a1.92,1.92,0,0,1,.18-.31c.06-.11-.05,0,0,0l.16-.17.05,0,.15-.1.15-.09.09,0s.12-.06.05,0h0l.12,0,.17-.05.18,0h.11a1.35,1.35,0,0,1,.61.09l.12.06.15.09c.06,0,0,0,0,0a.18.18,0,0,0,.07,0l.16.17c.05,0,0,0,0,0l0,.07a.6.6,0,0,1,.09.15s.07.14.06.11l.05.15a1.48,1.48,0,0,1,.07.66,1.56,1.56,0,0,1,0,.26L161,75l0,.1a1.12,1.12,0,0,1-.39.52c.07-.06,0,0-.07,0a1.51,1.51,0,0,1-.22.11,1.93,1.93,0,0,1-.41.12,2.88,2.88,0,0,1-1-.05,1.68,1.68,0,0,1-.82-.38.85.85,0,0,1-.27-.5,1.32,1.32,0,0,1,.28-1.09,1,1,0,0,1,1.19-.16,1.23,1.23,0,0,1,.71,1.14l.51-.38L159.13,74c-.49-.16-.73.63-.22.79Z"/><path class="cls-2" d="M160.63,105.51a1.65,1.65,0,0,0-1.95-.32,1.63,1.63,0,0,0-.89,1.87,2,2,0,0,0,1.73,1.49,2.2,2.2,0,0,0,2.06-1.3,2.35,2.35,0,0,0-2.4-3.16,2.41,2.41,0,0,0-1.76,3.46c.84,1.84,3.36,1.34,4.75.53a3.44,3.44,0,0,0,1.64-1.9,2.37,2.37,0,0,0-.57-2.31,2.79,2.79,0,0,0-4.2.12c-1.07,1.31-1.19,3.53.28,4.61a1.93,1.93,0,0,0,2.69-.54,3.18,3.18,0,0,0-.46-4.24,2.85,2.85,0,0,0-2.29-.57,2.82,2.82,0,0,0-2.4,3.48,2.78,2.78,0,0,0,4,1.73,2.82,2.82,0,0,0,.73-4.11,2.1,2.1,0,0,0-2.56-.5,2.86,2.86,0,0,0-1.42,2,3.28,3.28,0,0,0,3,3.75,2.89,2.89,0,0,0,2.8-3.31c-.29-1.62-2.2-2.12-3.54-1.49a2.07,2.07,0,0,0-1.19,1.82,2.35,2.35,0,0,0,1.57,2.16,2.3,2.3,0,0,0,2.75-3.11,2.24,2.24,0,0,0-2-1.22c-.89,0-2.29.6-2,1.68a2.47,2.47,0,0,0,1.92,1.74.68.68,0,0,0,.77-.39.62.62,0,0,0-.27-.79,1.78,1.78,0,0,1-.32-.2,1.85,1.85,0,0,0-.14-.14l-.08-.09s0,0,0,0a2.46,2.46,0,0,1-.22-.39c.07.13,0-.06,0-.1s0-.15-.05-.23l-.22.79a1.66,1.66,0,0,0,.13-.14c-.08.1-.09.06,0,0l.17-.1s-.17.05,0,0l.19,0h.18c-.14,0,0,0,0,0l.13,0c.19,0-.12-.08,0,0l.12.06c-.16-.09,0,0,0,0l.09.09c-.13-.15,0,0,0,.05s0,.13,0,0c0,0,.06.25.05.15s0,.09,0,.1a.57.57,0,0,1,0,.13c0-.18,0,0,0,.06s0,.09,0,.13c.06-.17,0,0,0,.06l-.07.11c-.1.17.1-.08,0,0s-.19.15,0,0c0,0-.1,0-.14.09s.15,0,0,0a.5.5,0,0,1-.13,0c.16,0-.09,0-.1,0s0,0,0,0c-.21-.06.1.08-.09,0l-.14-.08h0a.3.3,0,0,1-.08-.08.57.57,0,0,1-.13-.14c.08.12,0,0,0,0s-.08-.19,0,0a1.21,1.21,0,0,1-.05-.18c0-.14,0,.18,0-.06,0-.09,0-.09,0,0a1.09,1.09,0,0,1,0-.17c0-.14-.09.1,0,0a.55.55,0,0,0,.09-.14s-.12.12,0,0l.1-.1c.06-.08-.18.1,0,0s.33-.14.1-.06l.33-.1c.05,0,.13,0,0,0h.29c.18,0-.11,0,0,0a1.4,1.4,0,0,0,.28.06c.1,0-.15-.08,0,0l.15.08c.15.06-.11-.11,0,0l.09.08s.11.18,0,0a.86.86,0,0,1,.07.1s.09.2,0,.09,0,.1,0,.1l0,.1c0-.09,0,.14,0,.16s0,.09,0,.14c0-.17,0,0,0,.07a.65.65,0,0,1,0,.13c-.06.2.08-.11,0,.07s-.11.2-.18.3.09-.1,0,0l-.15.15s-.2.16-.05,0l-.11.08-.19.1c.14-.07,0,0,0,0l-.2.06h-.24c-.14,0,.05,0-.11,0l-.15,0s-.23-.09-.1,0a3.65,3.65,0,0,1-.34-.18l0,0-.18-.16-.11-.11-.1-.12s0,0,0,0a3.79,3.79,0,0,1-.2-.34s-.09-.18,0-.06c0-.05,0-.1-.05-.15a2.74,2.74,0,0,1-.09-.39c0,.14,0-.11,0-.11a.87.87,0,0,1,0-.23c0,.13,0,0,0-.07l.06-.18c.06-.23,0,.05,0-.07l.09-.17.08-.13c.12-.18-.09.07.06-.07a1.14,1.14,0,0,0,.11-.11c.07-.06.07-.07,0,0l.12-.08.12-.07c-.15.08,0,0,0,0s.19,0,0,0c0,0,.22,0,.12,0s.13,0,.12,0,.06,0,.08,0-.11-.11.07,0a1.45,1.45,0,0,1,.17.18c-.1-.12,0,0,0,.06l.06.12c-.08-.15,0,0,0,0s0,.1,0,.15,0,.21,0,.09,0,.09,0,.09,0,.11,0,.16,0,0,0,.09l-.09.32s-.06.12,0,0l-.09.17-.07.12c-.1.17.07-.08,0,0a3,3,0,0,1-.25.25c-.14.14.14-.07,0,0l-.11.07c-.05,0-.23.08,0,0l-.12,0s-.23,0-.07,0h-.27l-.19,0c-.13,0-.06,0,0,0l-.2-.1-.12-.08c-.19-.11.08.09-.08-.06a2.23,2.23,0,0,1-.27-.26s-.09-.12,0,0a1.64,1.64,0,0,1-.14-.22l-.09-.17c0,.12,0,0,0,0a1.58,1.58,0,0,1-.09-.36c0,.15,0-.09,0-.1a.76.76,0,0,1,0-.15c0,.13.11-.33,0-.17a2.91,2.91,0,0,1,.17-.3c.08-.12,0,0,0,0l.14-.15.1-.09c.15-.15-.13.06.05,0l.33-.19c.12,0-.17,0,0,0l.17-.05.16,0c.21,0-.07,0,.05,0h.31c.2,0-.11,0,.08,0l.2,0s.2.07.11,0l.1.05.15.09c.1.07-.11-.11,0,0a2.83,2.83,0,0,1,.25.24c-.09-.09,0,0,0,0a1.76,1.76,0,0,1,.14.23.38.38,0,0,1,.06.13c-.06-.14,0,.06,0,.08a2.81,2.81,0,0,1,.08.31s0,.18,0,0a1.09,1.09,0,0,1,0,.18,2.38,2.38,0,0,1,0,.38c0-.14,0,.08,0,.09l0,.14s-.08.22,0,.08a.52.52,0,0,1-.06.13,1.19,1.19,0,0,1-.09.15s-.11.15,0,.05a1.3,1.3,0,0,1-.32.28c.07,0,0,0-.06,0s-.12,0-.12,0,0,0,0,0l-.1-.06s.09.09,0,0l-.17-.17s.06.1,0,0a2.39,2.39,0,0,1-.13-.21.84.84,0,0,1-.09-.27,1.42,1.42,0,0,1-.05-.22s0-.13,0,0a2.29,2.29,0,0,1,0-.37,1.49,1.49,0,0,1,0-.33,2.51,2.51,0,0,1,.22-.59l.08-.12.06-.09a2.37,2.37,0,0,1,.27-.28c.1-.09-.14.08.05,0l.12-.07a.87.87,0,0,1,.19-.1h0a1.46,1.46,0,0,1,.54,0,1.5,1.5,0,0,1,.56.2.72.72,0,0,1,.2.14l.1.1.09.1c0-.06,0-.05,0,0a2.34,2.34,0,0,1,.15.27c.05.1,0-.15,0,0a.94.94,0,0,1,0,.16c0,.12,0-.15,0,.06a.76.76,0,0,1,0,.15c0,.2,0-.07,0,.13l0,.11a1.23,1.23,0,0,1-.38.53l-.15.13c-.11.1.14-.09-.07,0a3,3,0,0,1-.42.26,3.11,3.11,0,0,1-.6.26,3.79,3.79,0,0,1-.84.2,1.83,1.83,0,0,1-.81-.06,1.71,1.71,0,0,1-.26-.14c.12.08,0,0,0,0s-.16-.19-.06,0a2.4,2.4,0,0,1-.16-.27c.06.12,0,0,0,0a1.21,1.21,0,0,0,0-.18s0-.09,0-.13,0,.12,0-.07,0-.21,0-.31c0,.14,0-.06,0-.08a.56.56,0,0,1,0-.12s.08-.19,0-.07l.06-.11s.12-.17,0-.06a.73.73,0,0,1,.08-.09s.16-.14,0-.06l.16-.1c-.08,0,0,0,.07,0l.17,0c-.09,0,.22,0,.15,0a1.08,1.08,0,0,1,.59.23,1,1,0,0,1,.51.88,1,1,0,0,1-.7.89c-.7.23-1.49-.87-.75-1.31a.71.71,0,0,1,.91.1c.38.41,1-.2.63-.62Z"/><path class="cls-2" d="M31.84,33.9c-4.66.43-9.54,2.47-11.43,7.06a8.17,8.17,0,0,0,0,6.47,8.56,8.56,0,0,0,4.88,4.19A14.45,14.45,0,0,0,39.05,49.3a12.84,12.84,0,0,0,4.06-5.78c.75-2.2,1-4.88-.24-7-1.34-2.29-4.36-3.3-6.86-3.47a10.37,10.37,0,0,0-7.34,2.24c-.37.31.1.88.5.64A11.46,11.46,0,0,1,35,34.11a8.56,8.56,0,0,1,6,2c1.56,1.57,1.58,4,1.09,6.06a11.61,11.61,0,0,1-3,5.3,13,13,0,0,1-11.93,3.45,8.67,8.67,0,0,1-4.85-2.75,6.5,6.5,0,0,1-1.25-5.53c1.07-5,6.08-7.29,10.73-7.71.66-.06.7-1.09,0-1Z"/><path class="cls-2" d="M38,64A13.34,13.34,0,0,0,26.55,73.7,13.49,13.49,0,0,0,32,88.1c4.64,3.07,11.68,3.17,15.81-.88a14.83,14.83,0,0,0,3.9-8.32,14.5,14.5,0,0,0-1.32-8.77,12.57,12.57,0,0,0-6.57-5.93C41,63.15,37.26,63,35.08,65.28c-.4.43.13,1.2.64.83,4.27-3.08,10-.45,12.64,3.49,3,4.53,2.43,10.78-.46,15.23s-9.27,5.14-13.8,3a12.1,12.1,0,0,1-6.68-12.15A12.38,12.38,0,0,1,38,65c.62-.08.67-1.06,0-1Z"/><path class="cls-2" d="M33.78,102c-4.35-.89-8.5,2.11-10.58,5.75-1.14,2-1.79,4.27-.86,6.5a8.4,8.4,0,0,0,4.85,4.43,21.55,21.55,0,0,0,7.34,1.23,12.56,12.56,0,0,0,7.09-1.61,7.57,7.57,0,0,0,3.58-5.19,8.52,8.52,0,0,0-2-6.15,12.75,12.75,0,0,0-5.41-4.07,10.44,10.44,0,0,0-6.74-.62c-.62.19-.59,1.21.13,1.16a13.81,13.81,0,0,1,5.16.42,10.78,10.78,0,0,1,4.42,2.68A9.78,9.78,0,0,1,43.43,111,5.21,5.21,0,0,1,41.89,116a8.75,8.75,0,0,1-5.35,2.27A23.5,23.5,0,0,1,30,118a9.32,9.32,0,0,1-5.44-2.76,5.13,5.13,0,0,1-.91-5.47c1.49-3.82,5.5-7.62,9.88-6.76.67.13,1-.88.3-1Z"/><path class="cls-2" d="M49.89,42.18c12.9.19,25.79.33,38.69.27s25.79-.22,38.68-.42c3.58-.05,7.16-.13,10.73-.21l5.49-.13a53.17,53.17,0,0,0,5.5-.28.47.47,0,0,0,0-.93,48.86,48.86,0,0,0-5,0l-4.74.1-9.74.18q-9.6.2-19.21.3-19.35.22-38.69.24c-7.24,0-14.48.09-21.72.08a.42.42,0,0,0,0,.83Z"/><path class="cls-2" d="M59.45,78.85c11.94.57,23.89.76,35.84.72s23.9-.54,35.83-1.27c3.3-.21,6.6-.41,9.9-.65s6.79-.41,10.14-.86c.68-.09.78-1.14,0-1.11-3,.13-5.93.46-8.9.7s-5.94.44-8.91.64c-6,.39-12,.6-18,.83q-17.91.68-35.85.43-10.05-.15-20.09-.53a.55.55,0,0,0,0,1.1Z"/><path class="cls-2" d="M51.81,112.49c13.38.45,26.76.71,40.15.85,6.73.07,13.47,0,20.2,0,6.33-.07,12.67-.17,19-.7,3.53-.3,7.05-.73,10.54-1.34A53.05,53.05,0,0,0,152,108.65a.47.47,0,0,0-.23-.92c-3,.74-6.06,1.56-9.14,2.16s-6.31,1-9.5,1.33c-6.27.59-12.57.74-18.86.83-13.34.2-26.69,0-40-.2q-11.22-.18-22.45-.32a.48.48,0,0,0,0,1Z"/><path class="cls-2" d="M236.33,68.34Q223.28,62.43,210,57.19c-8.86-3.48-17.8-6.73-26.76-9.94-2.49-.89-5-1.69-7.54-2.49S170.5,43,167.85,42.4c-.44-.1-.82.6-.34.79,2.19.89,4.47,1.57,6.71,2.33s4.48,1.51,6.72,2.29c4.46,1.57,8.94,3.09,13.4,4.67,9,3.19,17.88,6.66,26.7,10.3,5,2.06,10,4.07,14.91,6.19.42.18.81-.43.38-.63Z"/><path class="cls-2" d="M233.46,72.06a59.45,59.45,0,0,0-12.22-.68c-4.15.17-8.28.66-12.4,1.15-8.28,1-16.58,1.76-24.91,2-2.34.08-4.69.13-7,.14s-4.8-.17-7.16.08c-.55.06-.84,1-.16,1.08a42.5,42.5,0,0,0,6.18.15c2.06,0,4.11,0,6.17-.12q6.28-.2,12.56-.66T206.87,74c4.09-.5,8.18-1,12.28-1.36a60.1,60.1,0,0,1,14.06.28c.57.09.85-.79.25-.89Z"/><path class="cls-2" d="M235.31,76.76c-4.35,2-8.74,3.93-13.05,6s-8.63,4.12-13,6.13Q196.26,95,183,100.47c-4.93,2-10,3.76-14.91,5.86-.47.2-.16,1,.32.81,4.6-1.41,9.06-3.33,13.5-5.14s8.78-3.62,13.13-5.51c8.77-3.82,17.45-7.82,26.11-11.89,4.9-2.3,9.71-4.79,14.57-7.2.44-.22.07-.84-.37-.64Z"/><path class="cls-2" d="M236.64,68a5.24,5.24,0,0,0-.58-1.16,2.15,2.15,0,0,0-1.12-1,.51.51,0,0,0-.63.62,1.38,1.38,0,0,0,.24.54l.23.4a6.23,6.23,0,0,1,.42.86l-.07-.18c0,.09.07.18.1.26a.75.75,0,0,0,.34.44.72.72,0,0,0,.54.06.77.77,0,0,0,.45-.34.68.68,0,0,0,.08-.54Z"/><path class="cls-2" d="M235.19,67.81a5,5,0,0,0-1.2.26c-.2.09-.41.17-.61.28a3.59,3.59,0,0,0-.54.4.6.6,0,0,0-.11.72.61.61,0,0,0,.68.27l.39-.1.39-.1a7.05,7.05,0,0,1,.8-.15l-.2,0,.37,0a.92.92,0,0,0,.57-.24.79.79,0,0,0,.24-.55.77.77,0,0,0-.78-.78Z"/><path class="cls-2" d="M233.56,71.18c-.22-.27-.43-.55-.66-.8s-.23-.26-.35-.38l-.19-.18a3.37,3.37,0,0,0-.31-.21.6.6,0,0,0-.64.06.58.58,0,0,0-.21.59,1.52,1.52,0,0,0,.12.36,2.53,2.53,0,0,0,.12.23c.08.15.18.29.27.44s.39.57.59.85a.74.74,0,0,0,.29.29l.18.07a.81.81,0,0,0,.69-.15.77.77,0,0,0,.31-.52.61.61,0,0,0,0-.3.73.73,0,0,0-.2-.35Z"/><path class="cls-2" d="M232.18,72.5l-.27.22.18-.14-.73.55.18-.14c-.61.47-1.26.9-1.84,1.43a.58.58,0,0,0-.1.68.61.61,0,0,0,.64.26,8.08,8.08,0,0,0,3.15-1.68.91.91,0,0,0,.26-.6.84.84,0,0,0-.85-.84,1.11,1.11,0,0,0-.62.26Z"/><path class="cls-2" d="M235.35,76c-.27-.14-.54-.28-.82-.4s-.36-.15-.54-.21a.9.9,0,0,0-.62-.08.52.52,0,0,0-.36.59.94.94,0,0,0,.38.5c.15.12.31.23.47.34s.5.34.76.5a.72.72,0,0,0,.54.07.78.78,0,0,0,.45-.35.75.75,0,0,0,.08-.53.7.7,0,0,0-.34-.43Z"/><path class="cls-2" d="M234.67,77.51c-.14.37-.29.73-.43,1.11-.06.18-.13.36-.19.55s-.11.39-.17.58a.54.54,0,0,0,.32.63.56.56,0,0,0,.68-.24,5.58,5.58,0,0,0,.32-.52l.27-.52c.18-.35.35-.72.52-1.08a.81.81,0,0,0,.08-.53.67.67,0,0,0-.42-.46.68.68,0,0,0-.54,0,.76.76,0,0,0-.44.47Z"/><path class="cls-2" d="M148.77,39.6a10.77,10.77,0,0,0-1.13-1l-.73-.55a2.72,2.72,0,0,0-.8-.44.81.81,0,0,0-.89.37,1,1,0,0,0-.11.38.8.8,0,0,0,.22.55,2.6,2.6,0,0,0,.54.4l.42.3-.17-.13a13,13,0,0,1,1.49,1.28.85.85,0,0,0,1.16,0,.81.81,0,0,0,0-1.14Z"/><path class="cls-2" d="M147.51,40.45a7.22,7.22,0,0,0-.82.64,6.16,6.16,0,0,0-.67.77,2.91,2.91,0,0,0-.66,1.77.5.5,0,0,0,.31.46.53.53,0,0,0,.56-.12,12.28,12.28,0,0,0,1-1,9.36,9.36,0,0,1,1.08-1l-.19.14.23-.16a1,1,0,0,0,.41-.52.89.89,0,0,0-.08-.64.86.86,0,0,0-1.17-.29Z"/><path class="cls-2" d="M150.83,74.66a12.94,12.94,0,0,0-1-.79,4.57,4.57,0,0,0-.47-.29,1.81,1.81,0,0,0-.78-.2.55.55,0,0,0-.47.27.51.51,0,0,0,0,.52,1.59,1.59,0,0,0,.39.53l.4.37c.28.25.55.49.81.76a.85.85,0,0,0,.57.22.88.88,0,0,0,.59-.25.8.8,0,0,0,.24-.57.77.77,0,0,0-.23-.57Z"/><path class="cls-2" d="M149.5,76.71a8.24,8.24,0,0,1-.54.9c-.2.29-.39.58-.6.86l.13-.17c-.21.26-.39.54-.58.81a.67.67,0,0,0,.1.82.71.71,0,0,0,.84.1,5.39,5.39,0,0,0,.71-.55c.17-.18.34-.36.5-.55a8.73,8.73,0,0,0,.93-1.4.87.87,0,0,0,.09-.63.84.84,0,0,0-.4-.52.9.9,0,0,0-1.18.33Z"/><path class="cls-2" d="M151.57,106.36c-.47-.33-.94-.67-1.42-1a6,6,0,0,0-1.62-.84.59.59,0,0,0-.66.85,5.76,5.76,0,0,0,1.28,1.28c.45.36.91.71,1.37,1a1,1,0,0,0,.6.24.86.86,0,0,0,.69-.35A.84.84,0,0,0,152,107a.87.87,0,0,0-.42-.63Z"/><path class="cls-2" d="M150.54,108.47a19,19,0,0,0-1.16,2.61,8.77,8.77,0,0,0-.63,2.71.56.56,0,0,0,1.05.26,12.49,12.49,0,0,0,.57-1.3c.14-.37.32-.8.45-1.11a26,26,0,0,1,1.2-2.35.83.83,0,0,0-.3-1.15.9.9,0,0,0-1.18.33Z"/><path class="cls-2" d="M22,42.33c1.86-1.23,3.73-2.45,5.61-3.63s3.83-2.29,5.68-3.52a.3.3,0,0,0-.3-.53c-2,1-3.84,2.28-5.7,3.48s-3.73,2.46-5.56,3.72c-.3.21,0,.69.27.48Z"/><path class="cls-2" d="M22.79,45.53c2.25-1.66,4.55-3.23,6.92-4.7,1.15-.72,2.32-1.41,3.49-2.08s2.56-1.33,3.74-2.13a.36.36,0,0,0-.36-.63,29.17,29.17,0,0,0-3.65,2.06c-1.19.72-2.37,1.47-3.53,2.23q-3.51,2.3-6.87,4.79c-.29.21,0,.67.26.46Z"/><path class="cls-2" d="M25.17,47.9q3.73-2.28,7.61-4.33C35.36,42.21,38,41,40.53,39.51c.25-.15.09-.59-.19-.48a62.24,62.24,0,0,0-7.79,3.9c-2.57,1.47-5.11,3-7.59,4.6-.24.15,0,.52.21.37Z"/><path class="cls-2" d="M30.05,49.1q2.44-1.44,4.93-2.8L37.43,45c.84-.45,1.73-.86,2.52-1.39.26-.17.12-.68-.22-.54a41.85,41.85,0,0,0-4.94,2.74q-2.48,1.46-4.94,3a.2.2,0,1,0,.2.35Z"/><path class="cls-2" d="M29.2,73.13c2.32-1.51,4.76-2.84,7.14-4.24s4.76-2.84,7.06-4.38a.28.28,0,0,0-.28-.49c-2.43,1.32-4.8,2.77-7.15,4.23s-4.66,3-7.07,4.36c-.35.2,0,.74.3.52Z"/><path class="cls-2" d="M29.81,76.91c5-3,10.19-5.72,15.24-8.64a.33.33,0,0,0-.33-.57c-5.25,2.53-10.28,5.58-15.25,8.61a.34.34,0,0,0,.34.6Z"/><path class="cls-2" d="M31.35,80.31c5.36-3,10.95-5.65,16.41-8.52.23-.12.08-.53-.18-.43a124.18,124.18,0,0,0-16.49,8.51.26.26,0,0,0,.26.44Z"/><path class="cls-2" d="M33.15,83.26Q36.9,81,40.75,79c2.57-1.36,5.22-2.57,7.78-3.94.4-.21.06-.74-.33-.57C45.53,75.62,43,77,40.42,78.41s-5.08,2.84-7.57,4.34a.3.3,0,0,0,.3.51Z"/><path class="cls-2" d="M35.36,86.57c2.69-1.15,5.24-2.57,7.82-3.93s5.21-2.53,7.89-3.68c.34-.15.1-.64-.23-.57a31.43,31.43,0,0,0-8,3.43c-2.6,1.41-5.16,2.88-7.87,4.07-.47.21-.08.87.39.68Z"/><path class="cls-2" d="M25.69,108.9c3.08-1.69,6.19-3.34,9.18-5.17a.33.33,0,1,0-.33-.57c-3.14,1.56-6.2,3.31-9.26,5a.41.41,0,0,0,.41.72Z"/><path class="cls-2" d="M25.27,113.61q3.12-1.83,6.26-3.62c2.09-1.19,4.27-2.28,6.25-3.63a.39.39,0,0,0-.39-.68A67.32,67.32,0,0,0,31,109.13q-3.13,1.8-6.24,3.64a.48.48,0,0,0,.48.84Z"/><path class="cls-2" d="M29.38,116.11q3-2,6.2-3.88c2.09-1.25,4.24-2.4,6.32-3.67a.36.36,0,0,0-.36-.63,92,92,0,0,0-12.61,7.39c-.5.33-.05,1.12.45.79Z"/><path class="cls-2" d="M34.86,117.2,39,114.84c1.36-.8,2.74-1.58,4-2.48a.37.37,0,0,0-.38-.64c-1.44.62-2.83,1.39-4.22,2.14l-4.16,2.26a.62.62,0,0,0,.61,1.08Z"/><path class="cls-2" d="M103.62,27c-1.09,1.81-2.21,3.59-3.38,5.35l-1.72,2.58a20.45,20.45,0,0,0-1.72,2.69.5.5,0,0,0,.8.59,16.45,16.45,0,0,0,2-2.45c.64-.86,1.26-1.73,1.86-2.62,1.2-1.77,2.34-3.58,3.44-5.42.5-.84-.81-1.54-1.3-.72Z"/><path class="cls-2" d="M95.64,28.24c.6.8,1.18,1.62,1.72,2.46a25.63,25.63,0,0,0,1.74,2.52c.35.41,1.08,0,.94-.54a11.67,11.67,0,0,0-1.36-2.74c-.53-.85-1.11-1.67-1.71-2.46a.77.77,0,0,0-1.33.76Z"/><path class="cls-2" d="M204.46,39.12c-1.05-.47-2.3-.91-3.37-.25a1.8,1.8,0,0,0-.58,2.69,2.69,2.69,0,0,0,2.57.86,3.12,3.12,0,0,0,2.12-1.5.48.48,0,0,0-.54-.69c-1.3.25-.68,1.9-.4,2.68s.52,1.45.79,2.18a5.73,5.73,0,0,1,.47,1.77c0,1.48-1.54,1.49-2.65,1.48a16.79,16.79,0,0,1-4.33-.79.58.58,0,0,0-.45,1.05,9.33,9.33,0,0,0,4.4,1c1.25,0,2.85-.06,3.68-1.13s.46-2.43,0-3.55c-.14-.37-1.54-3.76-1.32-3.82l-.53-.69a1.88,1.88,0,0,1-2.52.6c-.5-.32-.6-.81-.07-1.14s1.48,0,2.09.22,1.31-.71.6-1Z"/><path class="cls-2" d="M160.35,42.33a2.9,2.9,0,0,0-.54-1.77,1.24,1.24,0,0,0-1.71-.2,1.55,1.55,0,0,0-.43,1.86,2,2,0,0,0,1.85,1,2.73,2.73,0,0,0,2.53-3.11,2.64,2.64,0,0,0-1.24-1.87,1.76,1.76,0,0,0-2.27.34,3,3,0,0,0,.32,4.35,2.1,2.1,0,0,0,2.17.18,1.94,1.94,0,0,0,1.1-1.79,3.46,3.46,0,0,0-3.23-2.81,2.08,2.08,0,0,0-1.88,1,2.45,2.45,0,0,0-.05,2.19,3.59,3.59,0,0,0,1.65,1.57,4.21,4.21,0,0,0,2,.51,2,2,0,0,0,1.83-1.15,2.45,2.45,0,0,0-.2-2.2,5.77,5.77,0,0,0-1.75-1.62,1.94,1.94,0,0,0-2.38-.12,3.39,3.39,0,0,0-.73,4,2.69,2.69,0,0,0,3.27,1.47A2.6,2.6,0,0,0,162.22,43a2.46,2.46,0,0,0,.07-2.18,3.45,3.45,0,0,0-1.66-1.73,5.16,5.16,0,0,0-2.32-.65,1.79,1.79,0,0,0-1.79,1.44,3.49,3.49,0,0,0,.33,2.22,3.1,3.1,0,0,0,3.56,1.7,2.84,2.84,0,0,0,2-3.35,4,4,0,0,0-3.42-2.9,2.27,2.27,0,0,0-2,1,2.74,2.74,0,0,0-.26,2.25,4.06,4.06,0,0,0,1.38,1.91.56.56,0,0,0,.72,0,.53.53,0,0,0,.16-.69,6.35,6.35,0,0,1-.89-1.46,2.14,2.14,0,0,1-.1-.35.66.66,0,0,1,0-.24c0-.07,0-.14,0-.21v0a1.94,1.94,0,0,1,0-.2s.09-.25.05-.16l.06-.11s.14-.18,0-.08a.93.93,0,0,1,.14-.14s.11-.08,0,0l.17-.1c-.12.06,0,0,0,0l.16,0c-.13,0,.11,0,.14,0H159c-.14,0,.08,0,.09,0a2,2,0,0,1,.33.09c-.12,0,.09.05.09.05l.19.1.13.07.15.1a3.44,3.44,0,0,1,1,1.17,1.47,1.47,0,0,1,.13,1.24c0-.1,0,.09,0,.08a.41.41,0,0,1-.07.11.72.72,0,0,1-.17.23,1.54,1.54,0,0,1-.5.35,1.62,1.62,0,0,1-1.11.13,2,2,0,0,1-1.06-.71,2.36,2.36,0,0,1-.52-1.28,2,2,0,0,1,0-.53.57.57,0,0,1,.11-.28c.06-.08-.08,0,.06-.06-.09.07.18-.09.06,0a1,1,0,0,1,.52,0,5.22,5.22,0,0,1,.88.25c.9.33,2,1,1.93,2a1.09,1.09,0,0,1,0,.26s-.07.18,0,.07a1.09,1.09,0,0,1-.08.15l-.06.09c.07-.1,0,0,0,.05l-.12.12c-.12.11.08-.05-.05,0s-.18.11-.27.15-.14.06,0,0l-.16.06a1.22,1.22,0,0,1-.53.07,1.32,1.32,0,0,1-.95-.39l-.11-.12-.06-.07a1.53,1.53,0,0,1-.17-.27,2,2,0,0,1-.22-.64,2.31,2.31,0,0,1,.1-1.24.92.92,0,0,1,.09-.23l.11-.18,0,0a1.07,1.07,0,0,1,.14-.16s.17-.13.07-.07l.12-.07h0c.08,0,.09,0,0,0a.89.89,0,0,1,.61.19,8.19,8.19,0,0,1,.68.47,2.85,2.85,0,0,1,1,1.1,1.16,1.16,0,0,1,.1.68.71.71,0,0,1-.25.43.93.93,0,0,1-.38.16,2,2,0,0,1-.65,0A3,3,0,0,1,158,40.91a1.32,1.32,0,0,1,0-.55.74.74,0,0,1,.31-.53c-.07.05.21-.11.11-.07l.18,0s.11,0,0,0a1.5,1.5,0,0,1,.7.07,3,3,0,0,1,1.2.7c.31.3.65.75.52,1.17a.8.8,0,0,1-.28.36.86.86,0,0,1-.21.11,1.11,1.11,0,0,1-.3.06,1.18,1.18,0,0,1-1-.55A1.36,1.36,0,0,1,159,41a2,2,0,0,1,.05-.74,2.5,2.5,0,0,1,.32-.75.6.6,0,0,1,.38-.33c.41,0,.81.34,1,.68a1.56,1.56,0,0,1,.11,1.27,1.41,1.41,0,0,1-2,.82.49.49,0,0,1-.21-.71c.07-.11.12-.16.22-.16a.18.18,0,0,1,.13,0,.54.54,0,0,1,.19.16,2.1,2.1,0,0,1,.33,1.11c0,.51.83.5.81,0Z"/><path class="cls-2" d="M160.71,76.49a1.29,1.29,0,0,0,1.09-.73,2,2,0,0,0,0-1.55,3.24,3.24,0,0,0-1.85-2,2,2,0,0,0-2.33,1,2.27,2.27,0,0,0,.21,2.64,2.66,2.66,0,0,0,2.61.88,2.13,2.13,0,0,0,1.65-2.29,3.25,3.25,0,0,0-1.73-2.4,2.3,2.3,0,0,0-2.9.15,3.11,3.11,0,0,0-.58,2.78,3.79,3.79,0,0,0,1.5,2.21,2.71,2.71,0,0,0,4.41-2,3.49,3.49,0,0,0-3.83-3.52,2.55,2.55,0,0,0-2.15,1.73,3.45,3.45,0,0,0,.11,2.45c.75,1.82,3.24,2.93,4.81,1.4a2.32,2.32,0,0,0,.58-2.59,2.65,2.65,0,0,0-2.66-1.36,4.55,4.55,0,0,0-1.75.56c-.5.26-.33,1.16.28,1.1.42,0,.88-.12,1.26-.15a4.56,4.56,0,0,1,.64,0s.14,0,0,0l.1,0,.27.07c.08,0,0,0,0,0l.12.06a1.08,1.08,0,0,1,.18.11c.13.07,0,0,0,0a.27.27,0,0,0,.08.07l.09.1c.08.08,0-.09,0,0a1.28,1.28,0,0,1,.11.2c0-.12,0,0,0,.09s0,0,0,0v.22c0,.1,0-.14,0,0a1.09,1.09,0,0,0-.05.17c0,.13,0,.05,0,0a.3.3,0,0,1,0,.08,2,2,0,0,1-.12.19c.07-.1-.06.07-.1.1l-.06.07s-.12.09-.06,0l-.14.08s-.17.08-.06,0l-.24.07c.09,0-.12,0-.15,0h-.25c.08,0-.11,0-.14,0l-.24-.07-.14-.07-.22-.12-.12-.08s.05,0,0,0l-.22-.19a1.87,1.87,0,0,1-.5-.67s-.09-.2,0-.08a1.72,1.72,0,0,1-.07-.21,2.26,2.26,0,0,1-.1-.45c0,.11,0,0,0-.07V74.3a1.48,1.48,0,0,1,0-.21.28.28,0,0,1,0-.09c0-.08,0,.08,0,0a1.94,1.94,0,0,1,.12-.39c-.05.1,0,0,0,0a1.06,1.06,0,0,1,.12-.2c-.08.11,0,0,.06,0a1,1,0,0,1,.15-.14c-.11.09,0,0,.07,0a.54.54,0,0,1,.19-.08,1.65,1.65,0,0,1,.91,0,2.66,2.66,0,0,1,.86.39l0,0,.08.07.18.16.17.18a.27.27,0,0,1,.07.08c.08.09-.08-.13,0,0a1.75,1.75,0,0,1,.35.78.43.43,0,0,1,0,.11c0,.11,0-.08,0,0v.23c0,.1,0,0,0,.1a2.33,2.33,0,0,1-.07.25,1.27,1.27,0,0,1-.15.33s-.11.17-.1.14,0,0,0,0l-.11.12-.1.09-.06,0-.08,0-.11.06s.09,0,0,0a1.17,1.17,0,0,1-.25.07,1.49,1.49,0,0,1-.85-.14,2.46,2.46,0,0,1-.39-.22c-.07,0,0,0,0,0l-.1-.08-.19-.18-.14-.14-.08-.1s.06.08,0,0a3.66,3.66,0,0,1-.26-.42l-.1-.2c0-.08,0,0,0,0l-.05-.12c0-.14-.08-.29-.11-.44s0-.09,0-.13,0,.09,0,0,0-.15,0-.22,0-.15,0-.23a.34.34,0,0,0,0-.1c0,.1,0,0,0,0a2.23,2.23,0,0,1,.13-.44c0,.07.07-.11.08-.13s0,0,0,0l.09-.09s.18-.11.07-.06l.18,0h.17c.11,0-.07,0,.05,0l.14,0a2.53,2.53,0,0,1,.89.43,3.1,3.1,0,0,1,.59.61,1.19,1.19,0,0,1,.22.74.91.91,0,0,1-.07.38c0-.06-.06.1-.08.12s0,0,0,0l-.08.09a1.07,1.07,0,0,1-.79.18,1.53,1.53,0,0,1-.69-.25,1.38,1.38,0,0,1-.52-.55c-.05-.08,0,0,0-.09a2.25,2.25,0,0,1,0-.22c0-.1,0,.07,0,0v-.1a.63.63,0,0,1,0-.16,1.17,1.17,0,0,1,.33-.6.8.8,0,0,1,.56-.26,1.28,1.28,0,0,1,.77.26,2.38,2.38,0,0,1,1,1.73c0,.24-.13.56-.41.58-.46,0-.5.75,0,.74Z"/><path class="cls-2" d="M161.09,108.44c1-.83,1.92-2.27,1.07-3.54a1.68,1.68,0,0,0-1.79-.71,2.51,2.51,0,0,0-1.55,1.36,2.81,2.81,0,0,0-.25,2,1.64,1.64,0,0,0,1.63,1.25,2.66,2.66,0,0,0,2.2-3.26,3.32,3.32,0,0,0-3.24-2.62,2.61,2.61,0,0,0-2.2,3.24,3.19,3.19,0,0,0,2.91,2.49,2.56,2.56,0,0,0,2.79-1.95,1.69,1.69,0,0,0-1.13-2,2.93,2.93,0,0,0-2.17.2,2.41,2.41,0,0,0-1.36,1.65,2.1,2.1,0,0,0,.6,2,1.45,1.45,0,0,0,1.05.39.65.65,0,0,0,.34-1.19c-.15-.1.07.09,0,0a.6.6,0,0,0-.08-.08c-.05,0-.22-.25-.11-.09a1.28,1.28,0,0,1-.15-.25s-.08-.18,0-.06,0-.11,0-.13,0-.08,0-.12c0,.19,0,0,0,0v-.12c0-.18-.05.13,0,0s0-.07,0-.11c-.05.15,0,0,0,0l.09-.15c.09-.14-.07,0,0,0l.15-.14s.11-.06,0,0l.3-.17c.18-.1-.09,0,0,0l.17,0,.16,0h.11c-.08,0-.08,0,0,0a1.37,1.37,0,0,1,.35,0c-.14,0,.2.06.13,0s.11.06.1.06a.61.61,0,1,0,.05,0c.06.06,0-.12,0,0s0-.07,0,.08a.71.71,0,0,1-.13.49s-.1.13,0,0a2.49,2.49,0,0,1-.23.23c.13-.11,0,0-.1,0l-.12.06c.15-.08,0,0,0,0l-.24.06s-.22,0,0,0l-.17,0h-.44l-.28-.06-.11,0-.11,0h0l-.23-.11-.12-.08s-.15-.11-.07,0-.08-.08-.07-.07l-.11-.1a1.12,1.12,0,0,1-.22-.26,1.66,1.66,0,0,1-.35-1.23c0-.12,0,.13,0-.07s0-.11,0-.17l.09-.19.11-.17c0,.07,0,0,0,0a1.85,1.85,0,0,1,.14-.14c.08-.09,0,0,.07-.06a.84.84,0,0,1,.45-.19,1.44,1.44,0,0,1,.71.12,2.49,2.49,0,0,1,1,.8,1.68,1.68,0,0,1-.11,2.25,1,1,0,0,1-.47.23h-.17s-.11,0-.05,0-.18-.11-.09,0l-.13-.12c.07.08,0,0,0,0s-.09-.18,0-.06l0-.12a1.49,1.49,0,0,1,0-.6,1.88,1.88,0,0,1,.63-1.15.66.66,0,0,1,.92,0,1.2,1.2,0,0,1,.22,1.12,3,3,0,0,1-1.05,1.3.45.45,0,0,0,0,.64.48.48,0,0,0,.65,0Z"/><path class="cls-3" d="M152.5,34.62q.42,7.52,1.39,15c.05.35,0,.86.32,1.12s.92.14,1.31.12l3.69-.19c2.53-.1,5.1-.11,7.62-.37a.37.37,0,0,0,.2-.68c-.44-.27-.45-1.22-.51-1.65l-.3-2c-.19-1.27-.41-2.53-.63-3.79s-.46-2.52-.7-3.78-.43-2.61-.74-3.89a.38.38,0,0,0-.38-.29c-4,.2-8.08,0-12,.68a.36.36,0,0,0,.08.7c2-.06,4-.33,6-.44a59.82,59.82,0,0,1,6-.15l-.39-.29c.17,1.39.46,2.78.68,4.16s.46,2.78.7,4.16.49,2.68.76,4c.14.66.26,1.32.4,2a1.76,1.76,0,0,0,.66,1.13l.27-.63c-2.29,0-4.59.21-6.88.33l-3.44.18-1,0c-.13,0-.61.11-.73,0s-.24-1.12-.28-1.46a134.92,134.92,0,0,1-1.07-14.05c0-.62-1-.59-.95,0Z"/><path class="cls-3" d="M154.06,70.29c0,2.65,0,5.3.22,7.94.14,1.83.37,4,2.58,4.25a33.59,33.59,0,0,0,3.62.11c1.33,0,2.66.06,4,.07.59,0,1.22.07,1.8,0a.67.67,0,0,0,.66-.57,7.78,7.78,0,0,0,0-1.67c0-.68-.05-1.36-.09-2A55.65,55.65,0,0,0,165.62,70a.4.4,0,0,0-.39-.29c-2,.1-3.92.2-5.89.23s-3.92-.15-5.88-.14c-.38,0-.52.62-.1.7a32.62,32.62,0,0,0,5.85.23c2,0,4-.13,6-.21l-.39-.3a60,60,0,0,1,1,6.65c.1,1.07.17,2.15.22,3.23a15.69,15.69,0,0,0,0,1.68s0,.4.09.19,0,0-.17,0a8.18,8.18,0,0,0-1,0c-2.29,0-4.57,0-6.86-.08-1,0-2,0-2.55-1A6.89,6.89,0,0,1,155,78c-.2-2.55-.22-5.12-.26-7.68a.35.35,0,0,0-.7,0Z"/><path class="cls-3" d="M154.89,101.14c.12,2.45.25,4.9.35,7.36,0,1.24,0,2.5.16,3.74.09,1,1,.86,1.83.86,2.49,0,5,.12,7.49.16.86,0,1.79.19,1.95-.89a21.91,21.91,0,0,0,.16-3.53,35.88,35.88,0,0,0-.3-4c-.09-.66-.19-1.33-.31-2-.1-.5-.44-1.54.25-1.79.4-.14.41-.82-.09-.79-3.6.23-7.25.29-10.82.75-.49.06-.56.8,0,.79,3.61,0,7.23-.47,10.82-.74l-.09-.79a1.57,1.57,0,0,0-1.18,1.66,27.83,27.83,0,0,0,.5,3.38,34.22,34.22,0,0,1,.24,3.64c0,.59,0,1.18,0,1.77,0,.32,0,.63,0,.94s.06.72-.1.94l.26-.2a3.59,3.59,0,0,1-1.35,0l-1.32,0-2.66,0c-.85,0-1.7,0-2.54-.05l-1.33-.07c-.6,0-.47,0-.5-.62q-.27-5.25-.48-10.5a.45.45,0,0,0-.89,0Z"/><path class="cls-3" d="M62.47,165c.38,3,.81,6.05,1.24,9.07l.31,2.2c.07.51,0,1.16.57,1.43s1,0,1.48-.07a21.55,21.55,0,0,1,2.54-.2,28.79,28.79,0,0,1,4.45.33,10.55,10.55,0,0,0,3.84,0A4.64,4.64,0,0,0,79.64,176a6.24,6.24,0,0,0,.94-3.18,20.61,20.61,0,0,0-.4-4.83c-.13-.78-.28-1.56-.42-2.34,0-.21-.46-2.33-.26-2.32v-.87c-2.93.14-5.87.4-8.8.6s-5.87.38-8.8.7c-.56.06-.62.91,0,.88,2.94-.12,5.87-.37,8.8-.6s5.88-.42,8.81-.71c.55-.06.59-.92,0-.87-1,.08-1,1.16-1,1.92.14,1.35.41,2.67.64,4a20.54,20.54,0,0,1,.37,4.21,4.8,4.8,0,0,1-1.15,3.33c-2,1.89-5.22.81-7.59.63a26.35,26.35,0,0,0-4.26.07l-1,.12a3.12,3.12,0,0,1-.51.07c.19,0,0,.19.1-.06s-.1-.72-.13-1l-.17-1.23c-.43-3.27-.86-6.54-1.34-9.8-.1-.7-1.16-.39-1.07.29Z"/><path class="cls-3" d="M92,169.89h3.09a17.73,17.73,0,0,0,3.09-.15.46.46,0,0,0,0-.88,17.57,17.57,0,0,0-3.08-.13H92a.59.59,0,0,0,0,1.17Z"/><path class="cls-3" d="M93.28,172.85c1.23-.09,2.46-.12,3.68-.09a28.29,28.29,0,0,0,3.68.07.58.58,0,0,0,.52-.4.51.51,0,0,0-.24-.58,11.53,11.53,0,0,0-3.78-.58,35,35,0,0,0-3.83,0,.82.82,0,0,0-.79.78.75.75,0,0,0,.76.76Z"/><path class="cls-3" d="M114.71,170.17c-1.23-.71-2.63-1.37-4-.77a2.88,2.88,0,0,0-1.83,3,2.56,2.56,0,0,0,2.61,2.22,2.47,2.47,0,0,0,2.24-2.43l-1.07.29a23,23,0,0,1,2.31,8.91,5.22,5.22,0,0,1-.11,1.81c-.22.69-.66.61-1.29.42a26.47,26.47,0,0,1-4.14-1.86c-.56-.29-1.22.46-.72.93a10.35,10.35,0,0,0,4.78,2.47c1.78.39,2.8-.86,2.89-2.52a18.7,18.7,0,0,0-.74-5.36,28,28,0,0,0-2-5.38c-.25-.51-1.08-.24-1.08.3a1.11,1.11,0,0,1-1.4,1.09,1.44,1.44,0,0,1-.89-1.58,1.65,1.65,0,0,1,1.4-1.22,4.29,4.29,0,0,1,2.4.8c.72.39,1.39-.71.66-1.12Z"/><path class="cls-3" d="M116.22,166.43a8,8,0,0,0,3.1-.44.64.64,0,0,0,.46-.66.59.59,0,0,0-.59-.52c-.48,0-1,0-1.43,0h-.71l-.34,0-.17,0c-.09,0-.08,0,0,0l-.11,0a1,1,0,0,0-.65.1.84.84,0,0,0,.4,1.57Z"/><path class="cls-3" d="M120.91,164.53a28.37,28.37,0,0,0,1.39,4.86c.24.57,1.2.26,1.17-.32a28.22,28.22,0,0,0-.89-5,.84.84,0,0,0-1-.59.88.88,0,0,0-.63,1Z"/><path class="cls-3" d="M129.09,166.56a11.54,11.54,0,0,0-1.83,6.24,6.48,6.48,0,0,0,2.51,5.2c.63.44,1.24-.5.8-1a7.11,7.11,0,0,1-1.8-4.44,10.39,10.39,0,0,1,1.56-5.3.71.71,0,0,0-1.24-.68Z"/><path class="cls-3" d="M134.21,170.87a8.15,8.15,0,0,1,2.95.28l-.46-.6a4.14,4.14,0,0,1-1.19,2.38A6.09,6.09,0,0,0,134,175.7c-.17,1.35,1,2.05,2.08,2.46a4.86,4.86,0,0,0,3.65.15.62.62,0,0,0-.14-1.13,29.74,29.74,0,0,1-2.95-.49,2.25,2.25,0,0,1-1.05-.57c-.23-.31,0-.76.18-1.05.83-1.51,2.18-2.7,2.26-4.53a.63.63,0,0,0-.47-.61,8.62,8.62,0,0,0-3.27-.42.73.73,0,0,0-.71.69.67.67,0,0,0,.68.67Z"/><path class="cls-3" d="M133.29,174.32c1.34-.12,2.68-.16,4-.15.67,0,1.34,0,2,.05a8.36,8.36,0,0,0,2,0,.55.55,0,0,0,.15-1,5.58,5.58,0,0,0-1.92-.47q-1.06-.15-2.13-.21a28.21,28.21,0,0,0-4.11.09.9.9,0,0,0-.87.86.83.83,0,0,0,.84.84Z"/><path class="cls-3" d="M141.88,168.75a9.5,9.5,0,0,1,3.11,5c.37,2.19-1.05,4-2,5.8a.63.63,0,0,0,1,.74,8.41,8.41,0,0,0,2.59-6.7,10.78,10.78,0,0,0-3.57-6c-.74-.69-1.9.44-1.16,1.15Z"/></svg>