<svg id="Layer_1" data-name="Layer 1" xmlns="http://www.w3.org/2000/svg" viewBox="0 0 255.03 137.55"><defs><style>.cls-1{fill:#fd46fc;}.cls-2{fill:#486afb;}</style></defs><path class="cls-1" d="M122.61,224.39a3.51,3.51,0,0,0,5.33,2.35,3.19,3.19,0,0,0,1.63-2.84,2.14,2.14,0,0,0-.93-1.66,3.17,3.17,0,0,0-1.94-.35,6.28,6.28,0,0,0-3.88,1.74,1,1,0,0,0-.15,1.17,1.78,1.78,0,0,0,1.14.78,1.34,1.34,0,0,0,1.36-.42.76.76,0,0,0-.53-1.28c.2,0,0,0-.09,0l-.14,0-.09,0,.06,0-.11-.06c.11.08.12.09,0,0s-.07-.07,0,.05L124.2,225l.24-.23.12-.1c.19-.14.39-.27.59-.39l.26-.13s.34-.14.15-.07a4.89,4.89,0,0,1,.68-.21l.32-.07s.2,0,.09,0,.06,0,.08,0a4.33,4.33,0,0,1,.72,0s.16,0,0,0l.17,0s-.15-.07,0,0-.06,0,0,0l.07.07c.08.09-.09-.17,0,0a.53.53,0,0,0,.06.1c.06.08,0-.18,0,0a1,1,0,0,1,.05.24c0-.25,0,0,0,.1s0,.08,0,.13,0-.18,0,0l-.09.29c0,.11.09-.11,0,0a.25.25,0,0,0,0,.09l-.16.25c.1-.15-.06.06-.1.1a1.79,1.79,0,0,1-.25.23c-.09.09.12-.07,0,0a1.48,1.48,0,0,1-.13.08,2.2,2.2,0,0,1-.26.15l-.06,0,0,0-.36.1s-.3.05-.16,0h-.49c.09,0-.06,0-.08,0l-.18,0-.14,0c-.21-.06.06,0-.06,0l-.29-.15-.12-.08c-.18-.11.07.07-.09-.06l-.21-.2a2.12,2.12,0,0,1-.57-1,.66.66,0,0,0-1.27.33Z" transform="translate(-42.07 -101.02)"/><path class="cls-1" d="M132.05,227c-.13-.77-.55-3.42.7-3.58.57-.07,1,.49,1.22,1a5,5,0,0,1,.16,2.1.89.89,0,0,0,.65.85,5,5,0,0,0,4.13-.46c1.11-.65,3-2.54,1.7-3.84s-3,0-3.4,1.29a3.67,3.67,0,0,0,1,3.76,4.61,4.61,0,0,0,2,1.15,3.39,3.39,0,0,0,2.42-.27.81.81,0,0,0,.34-1,.83.83,0,0,0-1-.49,3.18,3.18,0,0,1-2.42-.71,1.67,1.67,0,0,1-.53-2c.07-.12.19-.15.24-.23s0,0,0,0c.19,0,.1-.19-.29-.48l-.07.13a4.46,4.46,0,0,1-1,1,3.72,3.72,0,0,1-2.83.53l.65.85a5.51,5.51,0,0,0-.82-3.13,2.58,2.58,0,0,0-2.38-1c-2.05.37-2.3,3.23-2.23,4.87a.8.8,0,1,0,1.59-.19Z" transform="translate(-42.07 -101.02)"/><path class="cls-1" d="M146.48,226.94c-.14-1.43-.25-2.87-.3-4.3,0-.71,0-1.41-.05-2.12a7.38,7.38,0,0,0-.13-2.25.87.87,0,0,0-1.68,0,6.71,6.71,0,0,0-.16,2.24c0,.71,0,1.41.05,2.12.06,1.43.16,2.87.31,4.29a1,1,0,0,0,1,1,1,1,0,0,0,1-1Z" transform="translate(-42.07 -101.02)"/><path class="cls-1" d="M146.42,230.7l0,0a1.27,1.27,0,0,0-.28,0,0,0,0,0,0-.05,0,1.43,1.43,0,0,0-.29,0,1.53,1.53,0,0,0-.61.34,1.65,1.65,0,0,0-.28.36,1.59,1.59,0,0,0-.16.43,1.65,1.65,0,0,0,0,.7,1.11,1.11,0,0,0,.07.22,1.51,1.51,0,0,0,.11.22,2.31,2.31,0,0,0,.24.29,1.63,1.63,0,0,0,.2.17,1.32,1.32,0,0,0,.32.2,2.38,2.38,0,0,0,.51.18,1.45,1.45,0,0,0,.3,0,1.15,1.15,0,0,0,.48-.13l.1-.06a.81.81,0,0,0,.36-.47.84.84,0,0,0-.08-.58l-.06-.13-.15-.19-.11-.09a.46.46,0,0,0-.13-.08l-.08,0a1.38,1.38,0,0,1-.33-.2l.2.16a1.37,1.37,0,0,1-.17-.17l.16.21a.72.72,0,0,1-.11-.19l.1.25a.27.27,0,0,1,0-.12l0,.25a.75.75,0,0,1,0-.15l0,.25a.54.54,0,0,1,0-.15l-.1.23a.57.57,0,0,1,.08-.13l-.15.2a.2.2,0,0,1,.09-.09l-.21.16.08-.05-.25.1.1,0-.26,0h.07l-.25,0,.07,0a1.06,1.06,0,0,0,.75-.1.73.73,0,0,0,.29-.26.84.84,0,0,0,.17-.34,1,1,0,0,0-.1-.74l-.16-.21a.92.92,0,0,0-.44-.25Z" transform="translate(-42.07 -101.02)"/><path class="cls-1" d="M111.89,103.27a11.84,11.84,0,0,0-4,9.49c.14,1.68.93,3.43,2.73,3.81,2,.44,3.93-.9,4.91-2.56a.74.74,0,0,0-1-1c-1,.58-2.29,2-3.6,1.59-1.07-.35-1.1-1.89-1.06-2.8a10.13,10.13,0,0,1,3.49-7.13c1-.84-.45-2.24-1.41-1.4Z" transform="translate(-42.07 -101.02)"/><path class="cls-1" d="M118.71,107.89a17.74,17.74,0,0,0-.33,6.12,3.67,3.67,0,0,0,1,2.48,2.42,2.42,0,0,0,2.69.23,6,6,0,0,0,2.95-4.26,6.78,6.78,0,0,0-1.1-5.15,4.69,4.69,0,0,0-2.39-2c-1-.28-2.67.39-2.23,1.7a.76.76,0,0,0,1.1.46c.16-.09.36-.28.54-.27s.65.39.85.6a4.61,4.61,0,0,1,1.11,1.8,4.79,4.79,0,0,1-.55,4.19c-.28.42-.89,1.24-1.48,1.22-.43,0-.44-.78-.48-1.11a15.64,15.64,0,0,1,.26-5.54c.29-1.24-1.63-1.76-1.91-.51Z" transform="translate(-42.07 -101.02)"/><path class="cls-1" d="M124.47,109.62a11.59,11.59,0,0,0,1.46,4.43c.72,1.18,2.23,2.31,3.59,1.39a2.76,2.76,0,0,0,1.07-1.85c.16-.81.26-1.63.35-2.45s.15-1.61.16-2.42a7.7,7.7,0,0,0-.27-2.62.74.74,0,0,0-1.42,0,22,22,0,0,0-.37,4.06q-.07,1-.21,1.92a6.43,6.43,0,0,1-.31,1.57c-.05.11,0,.08-.11.16.11-.09,0,0,0,0h.09l-.1,0c.09.07-.15-.08-.17-.09a2.88,2.88,0,0,1-.8-1.1,11.19,11.19,0,0,1-1-3.46,1,1,0,0,0-1.21-.71,1,1,0,0,0-.71,1.21Z" transform="translate(-42.07 -101.02)"/><path class="cls-1" d="M131.27,114.09c.1.63.14,1.27.24,1.9.15,1,1.63.72,1.66-.21,0-1.61,0-3.23.12-4.85a2.34,2.34,0,0,1,.35-1.37.26.26,0,0,1,.15-.12h.07l.06,0a.44.44,0,0,1,.16.15,4.17,4.17,0,0,1,.56,1.32c.19.73.37,1.46.52,2.19s.3,1.47.42,2.21,0,1.94.79,2.37a.83.83,0,0,0,1-.14c.59-.57.24-1.58.12-2.3s-.25-1.43-.41-2.13a17.08,17.08,0,0,0-1.12-3.92,2.22,2.22,0,0,0-2.76-1.36c-1.11.48-1.3,1.75-1.42,2.81a36.38,36.38,0,0,0-.27,5.11l1.66-.21c-.13-.62-.31-1.23-.44-1.85a.75.75,0,0,0-.9-.53.75.75,0,0,0-.53.9Z" transform="translate(-42.07 -101.02)"/><path class="cls-1" d="M139,102q.26,3.19.73,6.38c.16,1.05.34,2.1.53,3.15s.2,2.34,1.12,2.82a.7.7,0,0,0,.84-.12c.66-.86.19-2,0-3s-.37-2-.53-3c-.31-2.06-.55-4.14-.72-6.21-.1-1.27-2.08-1.29-2,0Z" transform="translate(-42.07 -101.02)"/><path class="cls-1" d="M137.12,109.72a30.89,30.89,0,0,1,4.19-.24c.69,0,1.37,0,2.06.09l1,.08a4.07,4.07,0,0,0,1.15-.07.8.8,0,0,0,.19-1.46,3.58,3.58,0,0,0-1.09-.36c-.4-.06-.79-.11-1.19-.15-.69-.07-1.37-.1-2.06-.11a30.4,30.4,0,0,0-4.27.24,1,1,0,0,0-1,1c0,.48.45,1.07,1,1Z" transform="translate(-42.07 -101.02)"/><path class="cls-1" d="M153.08,109.65c-.9-.79-2.08-1.63-3.34-1.17a3.11,3.11,0,0,0-1.82,2.53,10,10,0,0,0,.12,3.88,2.42,2.42,0,0,0,.91,1.56,1.58,1.58,0,0,0,1.94-.28,8.86,8.86,0,0,0,1.22-1.69c.4-.62.77-1.25,1.12-1.9h-1.69l1.37,2.16c.22.34.43.69.65,1s.25.38.38.56a2.18,2.18,0,0,0,.65.56.79.79,0,0,0,.89-.07.82.82,0,0,0,.3-.83,6.4,6.4,0,0,0-1.21-2.27l-1.34-2.1a1,1,0,0,0-1.69,0,21.7,21.7,0,0,1-1.9,3.09c.1-.13-.11.12-.11.12s.35,0,.4,0,.16.19.06,0-.05-.11,0,0a.85.85,0,0,1-.06-.17,7.16,7.16,0,0,1-.28-1.59,4.89,4.89,0,0,1,.4-2.74c.11-.16,0,0,.09-.11s.09-.08,0,0l.16-.1a.58.58,0,0,1,.4,0,2.9,2.9,0,0,1,1.26.72.79.79,0,1,0,1.11-1.13Z" transform="translate(-42.07 -101.02)"/><path class="cls-1" d="M154.07,104.07c.54,1.71,1,3.45,1.4,5.2.19.83.36,1.67.52,2.52a23.07,23.07,0,0,0,.48,2.76l1.76-.72c-.51-.8-.81-2.64.56-2.83a2.14,2.14,0,0,1,2.06,1.65,2,2,0,0,1-.7,2.23c-.83.64-1.71.42-2.66.57-.56.09-.62.8-.31,1.16,1.12,1.28,3.42.4,4.42-.58a3.83,3.83,0,0,0,.61-4.55c-.77-1.45-2.61-2.52-4.23-1.78-1.92.87-1.92,3.09-1.51,4.85a1,1,0,0,0,1.88-.23,14.77,14.77,0,0,0-.4-2.8c-.16-.88-.34-1.76-.53-2.64-.4-1.79-.88-3.56-1.42-5.31-.38-1.22-2.3-.72-1.93.5Z" transform="translate(-42.07 -101.02)"/><path class="cls-1" d="M161.85,105.31a49.94,49.94,0,0,1,1.17,5.4c.14.88.24,1.76.34,2.64a10.93,10.93,0,0,0,.46,2.79.74.74,0,0,0,1.41,0,8,8,0,0,0,.1-2.89c-.08-1-.21-1.9-.36-2.84a48.51,48.51,0,0,0-1.2-5.6,1,1,0,0,0-1.92.49Z" transform="translate(-42.07 -101.02)"/><path class="cls-1" d="M166.31,109.45a11,11,0,0,0,1.84,2.7,2.65,2.65,0,0,0,2.5,1.13c1-.28,1.26-1.21,1.37-2.11.15-1.2.28-2.4.4-3.6l-1.74.21a23.76,23.76,0,0,1-.08,8.24c-.39,2.72-1.08,5.64-.51,8.37.2.94,1.51.66,1.58-.2.12-1.39.14-2.79.29-4.18s.38-2.87.57-4.3a20.87,20.87,0,0,0-.13-8.37.89.89,0,0,0-1.75.22,20,20,0,0,1-.2,2.31c0,.35-.1.71-.18,1.06a2,2,0,0,0-.1.36c0,.17-.14,0,.07.06-.41-.09-.88-.8-1.12-1.1a9.67,9.67,0,0,1-1.1-1.79c-.56-1.15-2.27-.15-1.71,1Z" transform="translate(-42.07 -101.02)"/><path class="cls-1" d="M188,110.61a17.67,17.67,0,0,1,0,2.06c0,.34,0,.69-.08,1a7,7,0,0,0,0,1,.82.82,0,0,0,.72.82.84.84,0,0,0,.92-.6,5,5,0,0,0,.32-1.15c0-.36.06-.71.08-1.07a16.36,16.36,0,0,0,0-2.1,1,1,0,0,0-1-1,1,1,0,0,0-1,1Z" transform="translate(-42.07 -101.02)"/><path class="cls-1" d="M187.77,104.85a1,1,0,0,0,0,.25,2.53,2.53,0,0,0,.07.48,1.83,1.83,0,0,0,.18.46,2.27,2.27,0,0,0,.29.4.67.67,0,0,0,.32.2.64.64,0,0,0,.36.08l.25,0a.93.93,0,0,0,.45-.26,1.86,1.86,0,0,0,.21-.28c.05-.09.09-.21.13-.29a1.6,1.6,0,0,0,.07-.42,1.56,1.56,0,0,0,0-.43,1.21,1.21,0,0,0-.05-.18,1.86,1.86,0,0,0-.45-.73,1.5,1.5,0,0,0-.25-.19,1,1,0,0,0-.51-.15h-.12a1,1,0,0,0-.44.12.56.56,0,0,0-.24.22.69.69,0,0,0-.15.28.89.89,0,0,0,.09.62,2.35,2.35,0,0,0,.19.25l-.14-.19a3.06,3.06,0,0,0,.21.29l.1.09-.16-.19a.52.52,0,0,1,.11.19l-.09-.23a.54.54,0,0,1,.05.22l0-.25a.67.67,0,0,1,0,.2l0-.25a1.09,1.09,0,0,1-.05.17l.1-.23-.07.12.15-.2-.06.07,1.54.19a1.28,1.28,0,0,1-.11-.2l.11.24-.13-.3.1.25a1.16,1.16,0,0,1-.08-.32l0,.25a1.6,1.6,0,0,1,0-.31,1.09,1.09,0,0,0-.29-.71.63.63,0,0,0-.33-.2.75.75,0,0,0-.37-.09,1,1,0,0,0-.71.3l-.15.2a1,1,0,0,0-.13.49Z" transform="translate(-42.07 -101.02)"/><path class="cls-1" d="M192.19,116.91l0,0-.5-.86v.05l.13-.48,0,0,.61-.47h-.06l.74.1-.07,0,.37.37c.11.23,0-.27,0-.29,0-.21,0-.42-.07-.63q-.06-.63-.09-1.26a12.87,12.87,0,0,1,0-2.15,5.26,5.26,0,0,1,.16-.71c.09-.28-.06.1.06-.16,0,0,.2-.34.12-.23s.29-.26.15-.17l.17-.1c-.09,0-.07,0,.07,0a.73.73,0,0,1,.46.1c1,.57,1.45,2,1.67,3.11a14,14,0,0,1,.2,1.94,9.29,9.29,0,0,0,.19,2.3.84.84,0,0,0,1.61,0,6.51,6.51,0,0,0,.17-2.29,16.3,16.3,0,0,0-.24-2.31,6.85,6.85,0,0,0-2-4A3,3,0,0,0,194,108a2.55,2.55,0,0,0-1.88,1.1c-.8,1.13-.74,2.64-.74,4a23.72,23.72,0,0,0,.18,2.92,1.22,1.22,0,0,0,1,1.18,1.08,1.08,0,0,0,1.21-1.09,1,1,0,0,0-.5-.87l0,0a1,1,0,0,0-1.35.37,1,1,0,0,0,.37,1.35Z" transform="translate(-42.07 -101.02)"/><path class="cls-1" d="M204.59,101.93a2.2,2.2,0,0,0-2.69,1.47,12.15,12.15,0,0,0-.27,3.95l-.06,4.07,0,2a3.45,3.45,0,0,0,.26,2.09c.27.38.93.63,1.29.16.65-.85.43-2.16.45-3.2l.05-3.35,0-3.36c0-.29-.12-2.14.43-2,1.21.41,1.72-1.51.52-1.92Z" transform="translate(-42.07 -101.02)"/><path class="cls-1" d="M201.29,111l2.94.12c.48,0,1,0,1.46,0a8.8,8.8,0,0,0,1.54-.23.72.72,0,0,0,0-1.38,11.25,11.25,0,0,0-3-.41L201.3,109a1,1,0,0,0-1,1,1,1,0,0,0,1,1Z" transform="translate(-42.07 -101.02)"/><path class="cls-1" d="M209.15,111.22a25.4,25.4,0,0,0,.3,2.75,6.84,6.84,0,0,0,.85,2.57.76.76,0,0,0,1.42-.37,5,5,0,0,0,0-.78c0-.1,0-.19,0-.29s0,.08,0-.12c0-.48-.17-1-.25-1.42,0-.2-.07-.4-.09-.61a2.36,2.36,0,0,1,0-.28c0,.19,0-.13,0-.16-.05-.43-.08-.85-.11-1.28a1,1,0,0,0-1-1,1,1,0,0,0-1,1Z" transform="translate(-42.07 -101.02)"/><path class="cls-1" d="M208.74,106.14a1.39,1.39,0,0,0,.21.27h0l.21.16h0l0,0h0l.24.09h.06a1.51,1.51,0,0,0,.32,0l.26,0h.06l0,0a1.3,1.3,0,0,0,.25-.1h0c.07-.06.15-.11.21-.17h0l0,0h0l.16-.21s0,0,0,0v0a2.29,2.29,0,0,0,.1-.23s0-.1,0-.12a.45.45,0,0,0,0-.23.72.72,0,0,0-.11-.35.7.7,0,0,0-.15-.19h0l-.18-.14-.2-.08-.21,0-.22,0,.22,0h0l.23,0c-.08,0,.09,0-.24,0a.93.93,0,0,0-.46.12,1,1,0,0,0-.21.17l.19-.15-.07,0,.23-.1-.09,0,.24,0a1.26,1.26,0,0,0-.27,0h0l.25,0h-.1l.25,0-.08,0,.24.1-.06,0,.21.15,0,0,.17.21,0,0,.1.25v0a.89.89,0,0,0-.26-.45l-.2-.16a1,1,0,0,0-.49-.13.71.71,0,0,0-.38.08.67.67,0,0,0-.33.22.69.69,0,0,0-.21.32.77.77,0,0,0-.08.37,1.09,1.09,0,0,0,.13.5Z" transform="translate(-42.07 -101.02)"/><path class="cls-1" d="M214.5,115a33.53,33.53,0,0,1-.32-4.36v-.49s0-.37,0-.39-.18.26-.19.18.26.08.25.08a2.33,2.33,0,0,1,.95.84,6,6,0,0,1,.82,2.92c.09,1.38-.1,3,.67,4.23a.76.76,0,0,0,1.41-.37,17.51,17.51,0,0,0-.13-1.91c-.05-.67-.06-1.34-.12-2a8,8,0,0,0-.85-3.29,4,4,0,0,0-2.44-2.09,1.61,1.61,0,0,0-1.69.51,2.53,2.53,0,0,0-.23,1.78c.12,1.57.32,3.15.56,4.7a.68.68,0,0,0,.82.49.7.7,0,0,0,.48-.82Z" transform="translate(-42.07 -101.02)"/><path class="cls-1" d="M219.67,112.3a19.5,19.5,0,0,0,.45,2.12c.09.35.19.69.31,1a2.23,2.23,0,0,0,.38.79,1.27,1.27,0,0,0,.65.42.76.76,0,0,0,.81-.34,1.26,1.26,0,0,0,.2-.73,2.16,2.16,0,0,0-.16-.71c-.09-.33-.19-.66-.28-1-.18-.69-.33-1.39-.44-2.09a1,1,0,0,0-.46-.61,1,1,0,0,0-1.46,1.11Z" transform="translate(-42.07 -101.02)"/><path class="cls-1" d="M220.87,106.66l-.18-.2-.19-.2a1.12,1.12,0,0,0-.66-.27.64.64,0,0,0-.36.08.7.7,0,0,0-.33.2l-.14.2a.85.85,0,0,0-.13.47l0,.24a1,1,0,0,0,.25.44l.21.17.22.17a.7.7,0,0,0,.29.19.67.67,0,0,0,.34.07.69.69,0,0,0,.35-.07.79.79,0,0,0,.31-.2l.14-.19a.89.89,0,0,0,.12-.45l0-.23a.89.89,0,0,0-.24-.42Z" transform="translate(-42.07 -101.02)"/><path class="cls-1" d="M224.59,105.72a45.49,45.49,0,0,1,1.23,4.86c.16.82.29,1.64.43,2.46s.12,1.83.72,2.38a.71.71,0,0,0,1.08-.15c.47-.65.22-1.74.13-2.47s-.25-1.76-.42-2.64a47.63,47.63,0,0,0-1.25-4.94c-.37-1.22-2.3-.72-1.92.5Z" transform="translate(-42.07 -101.02)"/><path class="cls-1" d="M225,111c1.11,0,2.22,0,3.33-.07.54,0,1.08-.08,1.62-.15a3.65,3.65,0,0,0,1.84-.47.81.81,0,0,0-.2-1.47,3.71,3.71,0,0,0-1.69,0c-.54.06-1.08.1-1.63.14-1.08.07-2.17.09-3.26.07a1,1,0,0,0-1,1,1,1,0,0,0,1,1Z" transform="translate(-42.07 -101.02)"/><path class="cls-1" d="M234.65,112.74a6.37,6.37,0,0,0,3,.51,3.09,3.09,0,0,0,2.19-1.39c1-1.75-1.25-3.06-2.77-2.92a3.25,3.25,0,0,0-2.92,3.37,4.49,4.49,0,0,0,2.85,4,7.1,7.1,0,0,0,3.06.54,13.08,13.08,0,0,0,1.87-.23,9.56,9.56,0,0,0,1.72-.55.85.85,0,0,0,.6-.9.8.8,0,0,0-.81-.72c-.83.09-1.66.22-2.49.35a7,7,0,0,1-1.94.06,3.38,3.38,0,0,1-2.72-1.65,2.29,2.29,0,0,1-.19-1.32,1.47,1.47,0,0,1,.27-.63.7.7,0,0,1,.33-.29l.18-.09c-.07,0-.08,0,0,0l.34-.08c-.13,0,.21,0,.25,0,.27,0-.12,0,.15,0a.9.9,0,0,1,.48.2c-.12-.09.13.14.15.17-.11-.14.07.18.09.21l-.1-.73a.7.7,0,0,1-.31.39,1.42,1.42,0,0,1-.64.24,4.9,4.9,0,0,1-2.16-.49,1,1,0,0,0-.51,1.9Z" transform="translate(-42.07 -101.02)"/><path class="cls-1" d="M187.29,122.17q20.64.85,41.27,1.69c3.89.15,7.8.29,11.69.15a.66.66,0,0,0,0-1.31c-6.83-.82-13.77-.9-20.64-1.18L199,120.67l-11.68-.48c-1.28,0-1.29,1.93,0,2Z" transform="translate(-42.07 -101.02)"/><path class="cls-2" d="M89.27,105.9a19.09,19.09,0,0,0,.77,4.57,6.94,6.94,0,0,0,1.87,3.47,2.86,2.86,0,0,0,3.91-.32A7.67,7.67,0,0,0,97.89,110a11.74,11.74,0,0,0,.16-5.24.75.75,0,0,0-1.45,0,45.92,45.92,0,0,1-.65,4.81,6.52,6.52,0,0,1-.83,1.87,2.83,2.83,0,0,1-1.23,1.17c-.44.16-.68,0-1-.41a5.18,5.18,0,0,1-.75-1.57,16.6,16.6,0,0,1-.91-4.68,1,1,0,0,0-1-1,1,1,0,0,0-1,1Z" transform="translate(-42.07 -101.02)"/><path class="cls-2" d="M99,111.71c0,.7,0,1.4-.08,2.09h1.28a18.4,18.4,0,0,1,.26-4.8,7.59,7.59,0,0,1,1.91-3.57l-.78.22c.7.18.89,1,1,1.6.2.87.35,1.75.52,2.63a34.22,34.22,0,0,0,1.24,5.41c.28.73,1.51.73,1.47-.18a38.13,38.13,0,0,0-1.13-6.16c-.35-1.64-.5-4-2.33-4.75a1,1,0,0,0-1.27.23,7,7,0,0,0-.82,1.12,9.37,9.37,0,0,0-1,2.35,16,16,0,0,0-.38,5.89c.09.81,1.32.86,1.28,0s0-1.4-.07-2.09a.57.57,0,0,0-1.13,0Z" transform="translate(-42.07 -101.02)"/><path class="cls-1" d="M97.37,121.9q13.13,1.11,26.3,1.47t26.34-.09c5-.17,9.94-.45,14.89-.92.77-.08.81-1.25,0-1.22-8.77.33-17.54.73-26.32.85s-17.56,0-26.33-.41q-7.45-.31-14.88-.88c-.78-.06-.78,1.14,0,1.2Z" transform="translate(-42.07 -101.02)"/><path class="cls-2" d="M132.85,181.62q25.71.4,51.43.25T235.7,181l14.43-.45,7.08-.25a39.26,39.26,0,0,0,7.27-.58c.65-.15.72-1.27,0-1.37a14.86,14.86,0,0,0-1.49-.22c-.52,0-1.05,0-1.57,0l-3.41.11-6.29.23q-6.43.23-12.86.41-12.86.38-25.71.62-25.71.48-51.43.4-14.43,0-28.86-.26a1,1,0,0,0,0,2Z" transform="translate(-42.07 -101.02)"/><path class="cls-2" d="M135.45,169.88c-1.4,0-3,.12-3.74,1.52a4.76,4.76,0,0,0-.29,2.51c.06,1,.1,2,.13,3.05a74.64,74.64,0,0,1-.61,12.32,1,1,0,0,0,.93,1.22,30.36,30.36,0,0,0,5.72-.3.79.79,0,0,0,0-1.52,30.36,30.36,0,0,0-5.72-.11l1,1a67.2,67.2,0,0,0,.5-11c-.07-1.77-.27-3.52-.44-5.28-.06-.67-.15-1.49.49-1.9a3.93,3.93,0,0,1,2.06-.37.57.57,0,0,0,0-1.13Z" transform="translate(-42.07 -101.02)"/><path class="cls-2" d="M260.64,171.93l1.47-.08.74,0h.24c.21,0,.23,0,.06-.07s0,.25,0,.35.1.36.14.54c.1.43.18.87.25,1.3a27.83,27.83,0,0,1,.13,5.08c-.16,3.45-.55,6.89.19,10.3l1.12-1.11a20.16,20.16,0,0,0-3.28-.42,7.34,7.34,0,0,0-3.23.38.81.81,0,0,0,.19,1.47,18.84,18.84,0,0,0,2.91,0,17.05,17.05,0,0,1,2.94.31.94.94,0,0,0,1.12-1.12c-.63-3.73,0-7.53,0-11.28a21.32,21.32,0,0,0-.57-5.52c-.21-.8-.49-1.77-1.4-2a4.06,4.06,0,0,0-1.3,0l-1.72.17c-1,.1-1.09,1.71,0,1.66Z" transform="translate(-42.07 -101.02)"/><path class="cls-2" d="M131.51,156.78c-.38,1.63-.71,3.67.68,4.94a3.94,3.94,0,0,0,4.56.3,7.35,7.35,0,0,0,2-1.67,4.63,4.63,0,0,0,1.19-2.4c.2-1.93-1.75-3-3.44-3a6.89,6.89,0,0,0-3,.83,7,7,0,0,0-1.19.83,2.48,2.48,0,0,0-1,1.24.57.57,0,0,0,.82.63,2.75,2.75,0,0,0,.8-.72,7.7,7.7,0,0,1,.75-.66,6.6,6.6,0,0,1,1.77-1,3.23,3.23,0,0,1,2.31-.06,1.75,1.75,0,0,1,1.11,1.38c.13,1.34-1.15,2.71-2.18,3.4a3.25,3.25,0,0,1-3.52.3c-1.42-.86-1-2.79-.68-4.12.15-.64-.83-.9-1-.27Z" transform="translate(-42.07 -101.02)"/><path class="cls-2" d="M261.93,158.48c.09,1,.17,2,.26,3,0,.5.09,1,.14,1.5a14.54,14.54,0,0,0,.3,1.6.81.81,0,0,0,1.6-.21,15,15,0,0,0,0-1.5c0-.48-.08-1-.11-1.44-.07-1-.16-2-.24-2.94a1,1,0,1,0-2,0Z" transform="translate(-42.07 -101.02)"/><path class="cls-2" d="M44.35,181.22a4.44,4.44,0,0,0-.64,5.18,3.06,3.06,0,0,0,2.71,1.78,2.09,2.09,0,0,0,1.7-2.29,6.43,6.43,0,0,0-.33-1.79c-.2-.68-.43-1.37-.68-2l-1.38.8a5.51,5.51,0,0,0,3.4,1.95,3.1,3.1,0,0,0,1.71-.38,2.34,2.34,0,0,0,.71-.62,2,2,0,0,0,.31-1,.75.75,0,0,0-.56-.73.8.8,0,0,0-.85.35c.08-.1-.1.1-.13.12.19-.17-.11.09-.18.15l-.11.11c.09-.07.09-.07,0,0l-.2.11c.19-.1-.11,0-.15.05l-.24.06H49l-.18,0-.28-.1a4.21,4.21,0,0,1-.57-.32,11.76,11.76,0,0,1-1.08-.87.83.83,0,0,0-1.3,1,10.2,10.2,0,0,1,.77,2.72c0-.15,0,0,0,.08a1.85,1.85,0,0,1,0,.23,1.93,1.93,0,0,1,0,.24s0,.08,0,.12,0-.13,0,0l-.06.22a.38.38,0,0,1,0,.1s.06-.14,0-.05l-.06.09s.11-.11,0-.05-.18.14,0,.05c-.09.05,0,0,0,0s.08,0,0,0l-.08,0a.64.64,0,0,1-.19-.08l-.14-.09s-.16-.1-.09-.05,0-.05-.07-.06l-.08-.08-.17-.17s-.15-.18-.07-.07l-.15-.23a2.82,2.82,0,0,1-.23-.42l-.05-.1s0,.1,0,0a2.76,2.76,0,0,1-.08-.27,3.84,3.84,0,0,1-.11-.46c0,.09,0-.1,0-.13s0-.18,0-.28a2.7,2.7,0,0,1,.64-1.8c.57-.64-.34-1.56-1-.94Z" transform="translate(-42.07 -101.02)"/><path class="cls-2" d="M46.41,178.13l2.69,2.34,1.33,1.14a9.53,9.53,0,0,0,.81.61,4.13,4.13,0,0,0,.89.45.73.73,0,0,0,.77-.27.76.76,0,0,0,.06-.81A10.56,10.56,0,0,0,50.45,179l-2.64-2.3a1,1,0,0,0-1.41,0,1,1,0,0,0,0,1.4Z" transform="translate(-42.07 -101.02)"/><path class="cls-2" d="M47.55,174.27l3.56,3.11a25.79,25.79,0,0,0,3.77,3,.79.79,0,0,0,1-.21.8.8,0,0,0-.07-1,24.29,24.29,0,0,0-3.35-3.22L49,172.86a1,1,0,0,0-1.41,0,1,1,0,0,0,0,1.4Z" transform="translate(-42.07 -101.02)"/><path class="cls-2" d="M60.82,173.69l-.25-.16-.14-.09c.08.05-.14-.11-.16-.13l-.2-.16a6.21,6.21,0,0,1-.73-.72l-.07-.1,0,0-.16-.23a3.78,3.78,0,0,1-.26-.43,3.61,3.61,0,0,1-.22-.44c0-.06-.1-.23,0-.07,0-.1-.07-.21-.11-.31l-.09.7a1.17,1.17,0,0,1,.05-.11s-.14.17,0,.07-.18.16-.25.14l.11,0s-.22,0-.07,0h.07c-.12,0,0,0,0,0l.13,0,.13,0c.12,0-.14-.07,0,0l.24.12.76.45,1.47.85c.26.15.52.31.78.45a6.44,6.44,0,0,0,1,.34.81.81,0,0,0,.77-1.35c-.16-.15-.32-.31-.49-.45a5.31,5.31,0,0,0-.75-.48L61,170.94a7.77,7.77,0,0,0-2.26-1.1,2.13,2.13,0,0,0-1.32.12,1.32,1.32,0,0,0-.78,1.27,3.88,3.88,0,0,0,.51,1.25,7,7,0,0,0,.72,1.05,6.27,6.27,0,0,0,2,1.71.89.89,0,1,0,.89-1.55Z" transform="translate(-42.07 -101.02)"/><path class="cls-2" d="M62.28,170.43a6.56,6.56,0,0,0,2.84.46,1,1,0,0,0,1-1,6.11,6.11,0,0,0-.54-2,4.71,4.71,0,0,0-1.06-1.54,2.81,2.81,0,0,0-1-.69,1.28,1.28,0,0,0-.67,0,.77.77,0,0,0-.57.57c-.13.51.25.92.58,1.26a7.3,7.3,0,0,1,.57.66l-.17-.21a4.92,4.92,0,0,1,.66,1.13l-.1-.25a4.92,4.92,0,0,1,.21.65c0,.11,0,.21.07.32l0,.16c0,.08,0,0,0-.12,0,0,0,.07,0,.11l1-1a4.56,4.56,0,0,1-.64,0l-.32,0H64a6,6,0,0,1-1.23-.36,1,1,0,0,0-.76.1,1,1,0,0,0-.46.6,1.06,1.06,0,0,0,.1.76,1.25,1.25,0,0,0,.6.46Z" transform="translate(-42.07 -101.02)"/><path class="cls-2" d="M69.15,166.94,68,165.64l-.23-.28s0,0,0-.08a.2.2,0,0,1,0,.2.36.36,0,0,1-.17.23c.09,0,.08,0,0,0,.08,0,.09,0,0,0s.15,0,.19,0-.09-.05.08,0a2.78,2.78,0,0,0,.64.19,2,2,0,0,0,1.77-.37,1,1,0,0,0,.14-1.12,5.67,5.67,0,0,1-.4-.93A1.51,1.51,0,0,1,70,163c0-.13,0,.17,0-.07a1.66,1.66,0,0,1,.06-.21c0-.06,0-.06,0,0l0-.07c.1-.14,0,0,0-.05l.09-.09-.06,0q.12-.07,0,0h0c.08,0,.15,0,0,0h.22c-.08,0-.12,0,0,0l.22.06.19.07c.14,0-.2-.1,0,0l.36.17c.29.14.59.27.89.38a1.57,1.57,0,0,0,2-.61.73.73,0,0,0-.63-1.09c-.19,0,.12,0,0,0l-.18,0c.08,0,.07,0,0,0a1.53,1.53,0,0,0-.38,0c-.21,0,.17.06,0,0l-.43-.13c.12,0,0,0,0,0l-.22-.1a3.69,3.69,0,0,0-2.22-.47,2.26,2.26,0,0,0-1.68,1.78,4.33,4.33,0,0,0,.63,2.86l.14-1.12c.08-.07.24-.08.08-.08s-.14,0,0,0l-.2,0a6.25,6.25,0,0,0-.86-.18,1.88,1.88,0,0,0-1.52.54,1.52,1.52,0,0,0,0,1.93c.39.58.76,1.16,1.14,1.74a1,1,0,1,0,1.56-1.2Z" transform="translate(-42.07 -101.02)"/><path class="cls-2" d="M70.45,158.51l5.31,3.16,1-1.73a2.29,2.29,0,0,1-.27-.14c-.16-.09,0,0-.12-.1l-.18-.18c-.05-.06-.05-.05,0,0l-.06-.08a2,2,0,0,1-.21-.41,1.36,1.36,0,0,1-.07-.36,1.14,1.14,0,0,1,.27-.8c-.08.1.1-.11.12-.13s.23-.2.11-.11c.07-.06.15-.1.22-.15l.15-.07h0a1.18,1.18,0,0,1,.42-.1.5.5,0,0,1,.32,0l.14.08c-.06,0-.07-.05,0,0s0,0,0,0,0-.21-.1,0a9.78,9.78,0,0,1-1,1,4.61,4.61,0,0,0-1,1.41.76.76,0,0,0,.06.82.74.74,0,0,0,.77.27,5.4,5.4,0,0,0,2-1.48,3.34,3.34,0,0,0,1.21-2c.08-1.61-1.78-2.29-3.1-1.91a3.33,3.33,0,0,0-.61,6.19,1,1,0,0,0,1-1.73l-5.31-3.15a1,1,0,0,0-1,1.72Z" transform="translate(-42.07 -101.02)"/><path class="cls-2" d="M81.29,154.1a4.39,4.39,0,0,0,.64-1.64,5,5,0,0,0,.07-.54,1,1,0,0,0-.43-.89,1.91,1.91,0,0,0-1-.37,2.27,2.27,0,0,0-2.17,2.55,3.15,3.15,0,0,0,1.81,2.61,3.11,3.11,0,0,0,1.78.27,3,3,0,0,0,1.45-.7,2.74,2.74,0,0,0,.92-1.43,2.42,2.42,0,0,0-.19-1.81.76.76,0,0,0-1.4.37c0,.06,0,.13,0,.19s0-.08,0-.07,0,.09,0,.1-.06.27-.1.39a.31.31,0,0,0,0,.08c0,.15,0-.06,0-.07s-.07.14-.09.18l-.21.35,0,.07c-.07.11.14-.16,0-.07l-.12.15-.12.11A.65.65,0,0,0,82,154s.2-.14.08-.07-.24.12-.34.19c.15-.11.19-.06.1,0l-.08,0-.22,0c-.12,0,.21,0,.09,0h-.29c-.13,0,.2,0,.07,0l-.08,0a1.41,1.41,0,0,1-.22-.06c-.17-.05.18.09,0,0l-.18-.1s-.22-.16-.09-.05l-.1-.09-.15-.15,0-.06c-.09-.1.12.18,0,.07s-.14-.26-.22-.38.08.21,0,.11,0-.07,0-.11,0-.13,0-.19,0,.19,0,0a1,1,0,0,1,0-.24c0-.17,0,0,0,.06s0-.09,0-.12,0-.09,0-.13-.07.13,0,0l0-.08c.08-.15-.11.11,0,0l.06-.07c.12-.13-.14.08,0,0l.07,0c.15-.09-.17,0-.06,0l.09,0c.16-.05-.17,0-.06,0h.09l-.11,0h0c.09,0-.09,0-.1,0l.07,0c.07,0,0,0-.09-.07l-.29-.71s0,.1,0,.15v-.11s0,.2,0,.21a2.58,2.58,0,0,1-.12.42c0,.06-.08.27,0,0a1.24,1.24,0,0,1-.1.2,2.71,2.71,0,0,1-.21.37,1,1,0,1,0,1.71,1Z" transform="translate(-42.07 -101.02)"/><path class="cls-2" d="M86.12,150.89l-.43-.15-.07,0-.24-.11a8,8,0,0,1-.82-.44l-.42-.27-.19-.14c-.17-.11.12.1,0,0l-.33-.27a1.06,1.06,0,0,1-.15-.15l0,0,0,0-.1-.18c0,.12,0,.15,0,.08l0-.1c0-.17,0,.19,0,0V149c0-.07,0,0,0,.11l0-.16c-.06.13-.07.17,0,.1l0-.08s.1-.12.09-.14l0,0,0,0a5.27,5.27,0,0,1,.55-.51c.15-.12-.15.11,0,0l.28-.22a3.57,3.57,0,0,1,.28-.27.74.74,0,0,0,.14-.79.71.71,0,0,0-.66-.45,4.38,4.38,0,0,0-.62.08,3.18,3.18,0,0,0-.57.25,3,3,0,0,0-.85.64,2.17,2.17,0,0,0-.41,2.48,4.72,4.72,0,0,0,1.81,1.65,9.82,9.82,0,0,0,2.21,1,.93.93,0,0,0,1.14-.66,1,1,0,0,0-.66-1.14Z" transform="translate(-42.07 -101.02)"/><path class="cls-2" d="M85.13,144.8a1.9,1.9,0,0,0,.49,2.36,2.72,2.72,0,0,0,2.44.56,9.6,9.6,0,0,0,1.07-.36l.52-.17.26-.05c.12,0-.06,0-.06,0s.16,0,.19,0-.05,0-.06,0c.15,0,0,0,0,0s.11.08,0,0,0,0,0,0l-.07-.1a.73.73,0,0,0,0,.09s0-.2,0-.12a1.3,1.3,0,0,0,0,.13s0-.2,0-.11a.4.4,0,0,0,0,.11v.09c0,.13,0,0,0-.07s0,.14,0,.17,0,.1,0,.11.09-.19,0-.07a2,2,0,0,1-.11.2c-.09.15,0,0,0,0a.76.76,0,0,1-.11.14c-.12.14-.26.28-.39.41a2.77,2.77,0,0,0-.72,1.28.81.81,0,0,0,1.35.77,1.29,1.29,0,0,1,.16-.17c.07-.06.2-.17,0-.05a4.77,4.77,0,0,0,.52-.48,6.3,6.3,0,0,0,.78-.93,2.4,2.4,0,0,0,.21-2.16,1.7,1.7,0,0,0-1-.95,2.44,2.44,0,0,0-1.39,0,10.4,10.4,0,0,0-1.09.31,4.44,4.44,0,0,1-.52.15.93.93,0,0,1-.22,0c.12,0,.11,0,0,0h-.14c-.16,0,.06,0,.07,0a.37.37,0,0,0-.12,0l-.11,0c-.17,0,.13.07,0,0l-.21-.12.09.06s-.1-.09-.11-.1l-.06-.06s.13.21,0,0,0,0,0-.08.07.19,0,.08,0-.06,0-.08c0,.16,0,.2,0,.12s0,0,0,0,0,.05,0,0c.06-.18-.11.21,0,0a1,1,0,0,0-1.72-1Z" transform="translate(-42.07 -101.02)"/><path class="cls-2" d="M42.3,202.19a23.93,23.93,0,0,1,2.64,2.39c.4.41.78.84,1.15,1.28s.73,1,1.13,1.47a.89.89,0,0,0,1.05.14.94.94,0,0,0,.41-1,7.86,7.86,0,0,0-.55-1.68,3.9,3.9,0,0,1-.38-1.33,1.2,1.2,0,0,1,1.4-1.2,1.41,1.41,0,0,1,1.12,1.48c0,.85-.7,1.35-1.41,1.68a.55.55,0,0,0,0,.94c1.09.8,2.47-.28,2.9-1.31a3.3,3.3,0,0,0-.42-3.25,2.83,2.83,0,0,0-2.89-1.06,2.67,2.67,0,0,0-2.09,2.1c-.23,1.36.57,2.53.6,3.85l1.63-.43a17,17,0,0,0-2.52-2.84,25.47,25.47,0,0,0-2.9-2.4c-.66-.47-1.52.64-.87,1.15Z" transform="translate(-42.07 -101.02)"/><path class="cls-2" d="M54,199.9a3,3,0,0,0,0-3,.6.6,0,0,0-.68-.28,2.1,2.1,0,0,0-1.35,1.19,3,3,0,0,0-.16,1.91A3.17,3.17,0,0,0,55.16,202a4.91,4.91,0,0,0,1.32-.26,4.59,4.59,0,0,0,.69-.29,2.12,2.12,0,0,0,.64-.66.76.76,0,0,0-.06-.84.77.77,0,0,0-.79-.27,2.83,2.83,0,0,0-.5.13c-.16.06-.32.15-.48.22s.05,0,.05,0l-.11,0-.2.07-.43.11-.12,0c-.07,0-.11,0,.06,0l-.21,0h-.55c.18,0,.11,0,.05,0l-.19,0-.19-.06-.11,0c-.15-.05.11,0,0,0a2.43,2.43,0,0,1-.35-.2c-.17-.1.1.1,0,0l-.14-.14a1,1,0,0,0-.1-.11c.17.16.06.07,0,0s-.1-.2-.16-.29.06.17,0,.07a.14.14,0,0,0,0-.06c0-.05,0-.11,0-.17s0-.1,0-.15,0-.22,0-.09,0,0,0-.08v-.32s0-.06,0-.09,0,.18,0,0,.05-.21.08-.32,0,0,0,0a.36.36,0,0,0,0-.09l.09-.14c.07-.13-.1.1,0,0l.11-.12.06-.06c.08-.07,0,0,0,0l.18-.12-.83-.22a1.74,1.74,0,0,1,.15.26s.06.15,0,.09l0,.1.06.26s0,0,0,0v.21a1.72,1.72,0,0,1-.26.93.59.59,0,0,0,.22.8.6.6,0,0,0,.8-.22Z" transform="translate(-42.07 -101.02)"/><path class="cls-2" d="M54.14,194a25.91,25.91,0,0,0,3.49,2.86c.47.31,1,.68,1.57.34a.89.89,0,0,0,.44-.8,1.14,1.14,0,0,0-.24-.64,2.11,2.11,0,0,0-.43-.36c-.3-.2-.59-.42-.87-.63-.06,0-.21-.12-.24-.18l.06.05-.09-.07-.47-.37c-.63-.51-1.24-1-1.82-1.61a1,1,0,0,0-1.41,0,1,1,0,0,0,0,1.4Z" transform="translate(-42.07 -101.02)"/><path class="cls-2" d="M56.44,196.08l1.23-2a6.66,6.66,0,0,0,1-2.21.77.77,0,0,0-.26-.77.73.73,0,0,0-.8-.05,2.8,2.8,0,0,0-.56.47c-.15.18-.31.35-.44.54s-.46.67-.67,1c-.42.67-.84,1.34-1.25,2a1,1,0,0,0,.37,1.36,1,1,0,0,0,1.35-.37Z" transform="translate(-42.07 -101.02)"/><path class="cls-2" d="M60.05,192.59a5.47,5.47,0,0,0,3.15,1.28,1,1,0,0,0,1-1V189.8l-1.25.95a11.72,11.72,0,0,0,3.36.57,2.83,2.83,0,0,0,2.53-1.8,3,3,0,0,0-.8-3,4.32,4.32,0,0,0-1.32-.91,4,4,0,0,0-.89-.33,2.75,2.75,0,0,0-1,0,.76.76,0,0,0-.34,1.26,3.31,3.31,0,0,0,1.15.73,4.74,4.74,0,0,1,.8.45l.2.19.07.07c0-.06,0-.07,0,0a1.64,1.64,0,0,1,.14.22s.11.24.08.16a2,2,0,0,1,.06.3,1.27,1.27,0,0,1,0,.2c0-.2-.06.17,0,0,0,0-.14.23-.08.14s-.1.11-.1.11,0,0,0,0l-.2.12c.13-.07,0,0-.07,0l-.24.06c-.27.07.08,0-.08,0h-.24a14.13,14.13,0,0,1-2.47-.53,1,1,0,0,0-1.25,1v3.08l1-1a3.24,3.24,0,0,1-1.77-.7,1,1,0,0,0-1.4,0,1,1,0,0,0,0,1.4Z" transform="translate(-42.07 -101.02)"/><path class="cls-2" d="M69.35,186.05c1.25-.42,2.65-1,3.11-2.34a2.38,2.38,0,0,0-1.39-3,2,2,0,0,0-2,.62,2.4,2.4,0,0,0-.51,2.18,3.78,3.78,0,0,0,3.32,2.66,3.08,3.08,0,0,0,2.11-.66,3,3,0,0,0,.77-.86,1.84,1.84,0,0,0,.2-1.3.76.76,0,0,0-.65-.57.79.79,0,0,0-.77.38l-.07.11c.09-.14,0-.05,0,0a1.78,1.78,0,0,0-.25.36l-.08.12c-.09.15,0,0,0,0l-.25.25c-.08.08,0,.07,0,0a.5.5,0,0,1-.12.08,2.8,2.8,0,0,0-.25.14s.23-.08,0,0l-.14,0-.14,0s-.22.05-.09,0,0,0-.07,0h-.32c-.14,0,.14,0,0,0l-.35-.09-.15,0c.13,0,0,0,0,0a1.56,1.56,0,0,1-.28-.16s-.16-.11-.07,0,0,0,0,0-.16-.15-.24-.22a.69.69,0,0,0-.11-.13c-.07-.08.07.11,0,0l-.17-.3c.08.15,0,0,0,0s0-.1,0-.16,0-.05,0,0v-.17c0-.19,0,0,0,0s.1-.24,0-.06l.07-.12c0-.07.09-.08,0,0l.1-.1c.1-.11,0,0,0,0s.12,0,.12-.07-.21.05,0,0H70.5c-.07,0-.07,0,0,0h.06l-.1,0c.22.06-.19-.07,0,0,0,0,.13.09,0,0s0,0,0,0-.09-.18,0,0l.06.1c.09.15,0,0,0-.06a1,1,0,0,0,.06.22c0,.15,0-.05,0-.08s0,.09,0,.12,0,.34,0,.17,0,.16,0,.16.09-.18,0-.07a1.4,1.4,0,0,0-.1.16c-.05.08,0,.1,0,0,0,.05-.09.11-.12.14a.52.52,0,0,1-.11.1c-.12.12-.07,0,0,0-.09,0-.23.16-.31.21l-.3.16-.14.06c-.2.09,0,0,0,0a3.37,3.37,0,0,1-.72.25,1,1,0,0,0,.5,1.93Z" transform="translate(-42.07 -101.02)"/><path class="cls-2" d="M74.79,182.06a2.76,2.76,0,0,0,1.31-2.41c0-1.15-.89-2.59-2.23-2.23A1.74,1.74,0,0,0,72.63,179a2.43,2.43,0,0,0,.78,1.73,3.33,3.33,0,0,0,3.07.87,2.71,2.71,0,0,0,2.2-2.63.79.79,0,0,0-.56-.73.81.81,0,0,0-.85.36l-.06.1s.1-.12,0-.06A1.68,1.68,0,0,0,77,179s-.06.1-.07.1.15-.17,0,0l-.17.18-.31.3c-.12.11.18-.12,0,0a1.88,1.88,0,0,1-.24.14l-.1.05c.15-.06-.06,0-.11,0l-.22.05c-.12,0,.19,0,.06,0H75.5c-.11,0,.09,0,.09,0a.44.44,0,0,1-.13,0l-.22-.06-.09,0,.08,0-.06,0-.19-.11a.34.34,0,0,1-.11-.07l0,0-.17-.15-.07-.07c-.14-.15.07.12,0,0a1.43,1.43,0,0,0-.12-.21s.06.23,0,0l0-.1c0-.12,0,.17,0,0s0,.07,0,.08c0-.17,0,.06,0,.06s.11-.22,0-.06,0,0,0,0c-.16.16-.12.08-.06.05s-.22.07-.07,0a.67.67,0,0,1-.2,0s-.23-.11-.14,0,0-.05,0-.05l.1.1c.09.09-.05,0-.06-.07s.08.12.11.18a.25.25,0,0,0,0,.07c.06.09-.06-.2,0-.09s0,.12,0,.18l0,.1c0,.12,0,0,0-.08a1,1,0,0,0,0,.24s0,.27,0,.12,0,.07,0,.11l0,.11c0,.11-.08,0,0,0a1.14,1.14,0,0,0-.1.19.41.41,0,0,0,0,.09c-.07.11,0-.05,0-.06s-.12.14-.16.17-.05,0-.06.05.15-.11.09-.07l-.07,0a.9.9,0,1,0,.9,1.55Z" transform="translate(-42.07 -101.02)"/><path class="cls-2" d="M80,176.86c-.28-.25-.54-.51-.8-.78l0,0a.76.76,0,0,1-.08-.11l-.14-.22s-.12-.26-.08-.16,0-.13,0-.15a.43.43,0,0,1,0-.11c0,.12,0,.14,0,.07a2.08,2.08,0,0,0,0-.25c0,.15,0,.07,0,0s.1-.25,0,0l.1-.18c.09-.17-.12.14,0,0s-.17.08,0,0-.2,0,0,0-.12,0,.13,0-.12-.05.15,0l.58.16c.39.12.77.26,1.15.41l.43.17.56.26.6.28a3.44,3.44,0,0,0,.76.21.8.8,0,0,0,.76-1.33,6.82,6.82,0,0,0-2.89-1.58c-1-.35-2.22-.84-3.2-.25a2.49,2.49,0,0,0-1,2.59,4.73,4.73,0,0,0,1.65,2.37A.95.95,0,1,0,80,176.86Z" transform="translate(-42.07 -101.02)"/><path class="cls-2" d="M84.85,167.23a5.42,5.42,0,0,0,2.75,2.32,2.71,2.71,0,0,0,3.05-1.17c.69-1.39-.19-2.74-1.16-3.7A3.35,3.35,0,0,0,86,163.57a2.09,2.09,0,0,0-1.41,1.85,1.59,1.59,0,0,0,1.17,1.67.77.77,0,0,0,.78-.27.74.74,0,0,0,.06-.82.36.36,0,0,0-.07-.1c-.06-.06,0,.2,0,.06a1.52,1.52,0,0,1-.06-.2s0-.09,0-.12,0,.23,0,.09a.31.31,0,0,0,0-.1c0,.16,0,.19,0,.09v-.05l0-.12c0-.12.09-.08,0,.06,0,0,.16-.28,0-.11s0,0,0,0,.12,0-.07,0l.1-.07.1-.06-.11.05.27-.07c-.18.07-.17,0-.08,0H87s.15,0,.16,0-.24,0-.07,0l.15,0s.23.09.09,0,0,0,.06,0l.12.06a2.2,2.2,0,0,1,.25.17c.12.08-.19-.16,0,0l.1.09.27.26c.16.15.31.31.45.47a.48.48,0,0,0,.09.11c-.12-.08-.09-.12,0,0l.21.33.08.15c.09.18,0-.05,0-.05a1.16,1.16,0,0,1,.08.32s0-.26,0-.06v.13s0-.21,0,0,.1-.16,0,0a.41.41,0,0,1,0,.09c-.06.13.06-.07.08-.09s-.13.18-.17.18.23-.16.09-.08l-.1.07-.12.06c-.15.08.24-.08.06,0l-.2,0s-.2,0,0,0,0,0,0,0h-.24c-.09,0-.15-.05.07,0a.66.66,0,0,0-.15,0l-.1,0-.07,0,.1,0a2.25,2.25,0,0,0-.31-.16l-.14-.08-.05,0c-.09-.06-.07,0,.05,0l-.24-.21a4.88,4.88,0,0,1-.49-.53c-.06-.07-.13-.22-.21-.26l.08.11-.05-.08-.14-.18a1.09,1.09,0,0,0-.6-.46,1,1,0,0,0-.76.1,1,1,0,0,0-.36,1.35Z" transform="translate(-42.07 -101.02)"/><path class="cls-2" d="M94.42,157.89a2.88,2.88,0,0,0-1.66,2.17,2.83,2.83,0,0,0,1.09,2.73,2.6,2.6,0,0,0,1.42.59c.64,0,1.12-.69,1.38-1.2a3.79,3.79,0,0,0,.24-2.88l-1,1.25a13.45,13.45,0,0,0,3.52-.41.78.78,0,0,0,.57-.73.79.79,0,0,0-.57-.75,7.24,7.24,0,0,0-1.8-.18l-1.71.08a1,1,0,0,0-1,1.24,1.92,1.92,0,0,1,.09.32l0,.17c0-.09,0-.11,0,0s0,.22,0,.33,0,.08,0,0c0,.07,0,.14,0,.21s-.07.21-.09.31.06-.12,0,0l-.08.15-.17.28c-.07.11.11-.11,0,0s-.09.1-.14.15l1-.26-.3-.08c.16.05,0,0,0,0a1.37,1.37,0,0,1-.2-.13c.21.15,0-.05-.08-.09l0-.06c-.08-.09-.07-.08,0,0s-.09-.15-.12-.2,0-.09,0,0a.88.88,0,0,1,0-.15c0-.06,0-.28,0,0v-.23c0-.19,0,.13,0-.1,0-.06.11-.32,0-.11a2,2,0,0,1,.1-.21l.09-.13c-.07.08-.08.1,0,0l.19-.19c.17-.16-.16.08,0,0l.28-.14a1,1,0,0,0,.36-1.35,1,1,0,0,0-1.35-.37Z" transform="translate(-42.07 -101.02)"/><path class="cls-2" d="M100.61,157.34l-.35-.17-.17-.11s-.21-.15-.06,0,0,0-.06-.05l-.15-.14a3.58,3.58,0,0,1-.26-.29l.15.19a3.23,3.23,0,0,1-.42-.72l.1.23a3,3,0,0,1-.11-.32l-.93,1.18,1.5,0a13.28,13.28,0,0,0,1.41,0,1.81,1.81,0,0,0,1.06-.41,1.16,1.16,0,0,0,.35-1.18,1.19,1.19,0,0,0-.76-.85,1,1,0,0,0-1.08.43.76.76,0,0,0,.28,1,.7.7,0,0,1-.31-.41.08.08,0,0,0,0,.05c.11.28.12.3,0,.06s0-.22,0-.15,0,0,0-.15c0,.09,0,.05.06-.13-.14.17.16-.16,0,0l.2-.16-.12.07.24-.1-.13,0c-.17,0,.25,0,0,0H98.37a1,1,0,0,0-.93,1.18,4.19,4.19,0,0,0,.94,1.62,4,4,0,0,0,1.55,1,.88.88,0,0,0,.69-.09.94.94,0,0,0,.38-.45.91.91,0,0,0-.39-1.13Z" transform="translate(-42.07 -101.02)"/><path class="cls-2" d="M102.62,153.55a3.49,3.49,0,0,0,2.91.7,2.2,2.2,0,0,0,1.36-2.82c-.64-2-2.87-3-4.79-3.41a8.55,8.55,0,0,0-3.49-.07.74.74,0,0,0,0,1.41,20.64,20.64,0,0,0,2.92.57,6.41,6.41,0,0,1,2.49.94,2.41,2.41,0,0,1,.45.35l.21.22c.08.09.09.1,0,0l.08.13a1.92,1.92,0,0,1,.18.31c-.08-.16,0,.09,0,.13a1.16,1.16,0,0,1,0,.18c0-.09,0-.09,0,0s0,.12,0,0,0,0,0,.05c0-.1,0-.09,0,0,.06-.08,0-.08,0,0l.06-.05c-.1.06-.1.06,0,0l-.17,0c.09,0,.1,0,0,0s-.33,0-.17,0a2,2,0,0,1-.52-.17,4.6,4.6,0,0,1-.6-.37,1,1,0,0,0-1.35.37,1,1,0,0,0,.37,1.36Z" transform="translate(-42.07 -101.02)"/><path class="cls-2" d="M107.39,145.48a23,23,0,0,0,2,1.72c.39.3.79.6,1.19.88a6.37,6.37,0,0,0,1.2.59.85.85,0,0,0,1.07-.22.84.84,0,0,0-.08-1.1,14,14,0,0,0-1.11-.93l-.52-.36-.26-.2c-.12-.09.13.11,0,0l-.14-.11a24.36,24.36,0,0,1-2-1.7,1,1,0,1,0-1.39,1.41Z" transform="translate(-42.07 -101.02)"/><path class="cls-2" d="M131.49,202a83.68,83.68,0,0,0,1.45,13.22.7.7,0,0,0,1.38-.17c0-4.35-.57-8.71-.84-13-.08-1.27-2.07-1.29-2,0Z" transform="translate(-42.07 -101.02)"/><path class="cls-2" d="M130.31,202.46c-.15.24-.32.48-.46.73s-.13.25-.2.38a1.24,1.24,0,0,0-.14.38,1.74,1.74,0,0,0,0,.39.82.82,0,0,0,.1.4.66.66,0,0,0,.21.23.77.77,0,0,0,.67.14,1.58,1.58,0,0,0,.67-.43l.29-.34c.23-.28.43-.6.64-.9a.76.76,0,0,0,.11-.36.81.81,0,0,0,0-.38.67.67,0,0,0-.19-.35.7.7,0,0,0-.28-.26,1,1,0,0,0-.74-.1,1,1,0,0,0-.62.47Z" transform="translate(-42.07 -101.02)"/><path class="cls-2" d="M132.27,203.33a22.21,22.21,0,0,0,2,1.58c.32.23.65.44,1,.65l.5.28a1.74,1.74,0,0,0,.63.21h.29a.83.83,0,0,0,.72-1.23l-.2-.3a1.53,1.53,0,0,0-.41-.35l-.49-.3c-.33-.21-.66-.42-1-.64l-.47-.33-.22-.16c.05,0,.15.11.05,0l-.14-.1q-.47-.36-.9-.75a1,1,0,0,0-1.41,0,1,1,0,0,0,0,1.4Z" transform="translate(-42.07 -101.02)"/><path class="cls-1" d="M165.46,219.42l.08,5.35,0,2.59c0,.7,0,2.13,1,2.13s1-1.42,1-2.12l0-2.59-.08-5.35a1,1,0,0,0-2,0Z" transform="translate(-42.07 -101.02)"/><path class="cls-1" d="M167.74,225.58a11.45,11.45,0,0,1,1.14.22l.58.17c.2.07-.15-.08,0,0l.27.13.26.16c.19.11-.16-.15,0,0s.39.32.38.39c-.1-.12-.11-.14-.05,0l0,.06a1.71,1.71,0,0,1,.13.23c0,.1,0,.08,0-.06,0,0,0,.08,0,.12s0,.15.05.22,0,.05,0-.09c0,0,0,.09,0,.13a.57.57,0,0,1,0,.13c0-.14,0-.16,0-.06l-.06.22q0,.1,0-.09l-.06.12-.06.1c-.06.09-.05.08,0-.05a1.57,1.57,0,0,1-.18.19s-.14.1-.14.13.14-.11.05,0l-.11.07a1.61,1.61,0,0,0-.23.12c.14-.05.17-.07.09,0l-.11,0-.31.08-.16,0c.12,0,.13,0,0,0a3.17,3.17,0,0,0-1.47.21.85.85,0,0,0-.17,1.33,2,2,0,0,0,1.47.45,3.7,3.7,0,0,0,1.23-.21,2.93,2.93,0,0,0,.24-5.56,7.89,7.89,0,0,0-2.47-.72,1,1,0,0,0-1.22.7,1,1,0,0,0,.7,1.22Z" transform="translate(-42.07 -101.02)"/><path class="cls-1" d="M173,227.1a7.46,7.46,0,0,0,1.71,1.7,4,4,0,0,0,1,.57,2,2,0,0,0,1.44-.09,2.44,2.44,0,0,0,1.28-1.72,3.68,3.68,0,0,0,.08-1.19,6,6,0,0,1,0-1.12.73.73,0,0,0-.53-.69.77.77,0,0,0-.8.33,2.72,2.72,0,0,0-.4,1c0,.16-.07.32-.09.48a5.48,5.48,0,0,1-.07.6c0-.13,0-.14,0,0V227a1.21,1.21,0,0,1-.05.18.24.24,0,0,0,0,.08c0,.1,0,.07,0-.08a.69.69,0,0,0-.07.15l-.08.14c-.09.17.16-.18,0,0s-.09.12-.13.13l.13-.1-.09.06-.06,0,.13-.05-.1,0,.15,0h0l-.1,0,.05,0a.76.76,0,0,0-.18-.09l-.17-.1c-.06,0-.36-.19-.38-.26l.1.08-.1-.08-.15-.13-.34-.31-.27-.29-.12-.15-.09-.1c.1.12.11.14.05.05a1.08,1.08,0,0,0-.61-.46A1,1,0,0,0,173,227.1Z" transform="translate(-42.07 -101.02)"/><path class="cls-1" d="M180.19,223.27l.87,3.58a13.72,13.72,0,0,0,1.18,3.55.73.73,0,0,0,1.35-.36,13.69,13.69,0,0,0-.6-3.69l-.88-3.58a1,1,0,0,0-1.21-.71,1,1,0,0,0-.71,1.21Z" transform="translate(-42.07 -101.02)"/><path class="cls-1" d="M180,227.6c1,0,1.91-.09,2.86-.18.51,0,1-.12,1.53-.2a3.81,3.81,0,0,0,1.48-.45.78.78,0,0,0-.18-1.41,2.41,2.41,0,0,0-.84-.09l-.64,0-1.4.12c-.93.09-1.86.14-2.8.18a1,1,0,0,0,0,2Z" transform="translate(-42.07 -101.02)"/><path class="cls-1" d="M190,226.69c.35,1.48,1,3.15,2.69,3.5a2.44,2.44,0,0,0,2.2-.62,5.27,5.27,0,0,0,.57-.68,3.65,3.65,0,0,1,.31-.36s.15-.14.09-.09.15-.08.15-.08l-1.19-.15a7,7,0,0,0,3.94,1.61,1,1,0,0,0,1-1,24.58,24.58,0,0,0-.32-3.21,13.37,13.37,0,0,0-.35-1.52c-.17-.56-.4-1.28-1.11-1.29a.88.88,0,0,0-.72.45,1.47,1.47,0,0,0-.05.95c.07.51.17,1,.26,1.54a22.49,22.49,0,0,1,.3,3.06l1-1a4.79,4.79,0,0,1-2.56-1,1,1,0,0,0-1.19-.16,3.62,3.62,0,0,0-1.16,1.11,3.06,3.06,0,0,1-.42.46c.15-.13-.23.1-.09,0-.13,0,0,0-.18,0a1.14,1.14,0,0,1-.73-.55,5,5,0,0,1-.52-1.54,1,1,0,0,0-1.92.5Z" transform="translate(-42.07 -101.02)"/><path class="cls-1" d="M200.23,222.58a37.6,37.6,0,0,1,.68,5.49,1,1,0,0,0,1.49.86,7.06,7.06,0,0,0,1.4-1.27,1.88,1.88,0,0,1,.55-.45l.19-.07c-.06,0,.19,0,.05,0,.12,0,.12.1,0,0a.64.64,0,0,1,.14.27c.11.3.18.61.26.92a16.93,16.93,0,0,1,.37,2,1,1,0,0,0,1.92-.5,16.27,16.27,0,0,0-.5-2.5,2.82,2.82,0,0,0-1.36-2,2.46,2.46,0,0,0-2.42.35c-.61.43-1.05,1.16-1.64,1.52l1.49.87a43.34,43.34,0,0,0-.75-6,1,1,0,0,0-1.21-.71,1,1,0,0,0-.71,1.21Z" transform="translate(-42.07 -101.02)"/><path class="cls-1" d="M208.48,228.89a3.63,3.63,0,0,0,3.31-.47c1-.74,2.09-2.51.91-3.6a1.94,1.94,0,0,0-2.1-.29,3.79,3.79,0,0,0-1.44,1.37c-.77,1.11-1,2.84.16,3.79a4.94,4.94,0,0,0,2.55.76c.39,0,.77.07,1.16.08a4.58,4.58,0,0,0,1.37-.23.81.81,0,0,0,.59-.89.82.82,0,0,0-.79-.71c-.22,0-.53-.1-.79-.11h-.79c-.26,0-.53,0-.79-.06l-.69-.11-.32-.07-.18-.06s-.15-.07,0,0l-.12-.06c-.11-.07.06.08,0,0s-.05-.06-.08-.09c.15.16,0,0,0,0s0,.15,0,0l0-.11a.45.45,0,0,1,0-.16c0,.2,0,0,0,0v-.16s0,.15,0,0a2.85,2.85,0,0,1,.11-.39c-.05.13.06-.12.08-.15l.17-.28.21-.31s.09-.11,0,0l.08-.1c.07-.08.15-.14.21-.21s-.12.06,0,0l.1-.07c.14-.09,0,0,0,0l.13,0s-.17,0,0,0,.05,0,0,0c.18.06,0,0,0,0l0,0c.06,0,0,0,0-.05s.11.1,0,0,0,.08,0,0l0-.09s0-.06,0,0-.07.15,0,0l-.09.16-.14.21c.12-.15,0,0-.05,0l-.18.17c-.14.13,0,0,0,0a.71.71,0,0,1-.14.1,2.81,2.81,0,0,1-.54.29s.21-.08,0,0l-.13,0-.32.07c-.13,0,.17,0,0,0h-.46c-.11,0-.06,0,0,0a.35.35,0,0,1-.14,0,1.91,1.91,0,0,1-.34-.1,1,1,0,0,0-1.22.7,1,1,0,0,0,.7,1.21Z" transform="translate(-42.07 -101.02)"/><path class="cls-1" d="M218.38,229.85l-.92-1.91-.23-.48c-.11-.25.06.19,0-.07a1.68,1.68,0,0,1-.07-.24c0-.2,0,.16,0-.07s0,.13,0,0,.09-.23,0-.1,0-.06.06-.08c.11-.19,0,0,0,0s.11-.13.13-.14l.08-.07-.08.06a.62.62,0,0,0,.17-.11l.18-.09c.17-.09-.2.05,0,0l.16,0,.1,0c-.09,0-.1,0,0,0a4,4,0,0,1,.49,0h.26c.28,0-.15,0,.13,0s.78.11,1.17.16a.73.73,0,0,0,.37-1.36,4.39,4.39,0,0,0-2.63-.73,2.87,2.87,0,0,0-2.18,1.26,2.6,2.6,0,0,0,0,2.64c.36.78.74,1.54,1.11,2.31a1,1,0,0,0,1.36.37,1,1,0,0,0,.36-1.36Z" transform="translate(-42.07 -101.02)"/><path class="cls-1" d="M222.06,229.36a3.71,3.71,0,0,0,3.51-1.48,2.14,2.14,0,0,0-1.31-3.21c-1.56-.29-2.49,1.34-2.9,2.58s-.51,2.92.7,3.77a8.16,8.16,0,0,0,2.11.81,7.33,7.33,0,0,0,2.35.51.8.8,0,0,0,.76-.58.82.82,0,0,0-.37-.88,9.64,9.64,0,0,0-3-1.17c-.22-.07-.44-.13-.66-.21.13.05-.07,0-.11-.06l-.05,0c.09.06-.11-.12,0,0s-.1-.23,0,0a2.33,2.33,0,0,1-.07-.25c0-.17,0,.08,0-.1v-.35a3,3,0,0,1,.09-.52,3.86,3.86,0,0,1,.2-.66,1.38,1.38,0,0,0,.09-.21l.15-.28.15-.25c.08-.12-.08.1,0,0l.12-.13.1-.09s-.12.07,0,0a.6.6,0,0,0,.11-.06c-.06,0-.14,0,0,0h-.12c-.08,0,0,0,0,0-.18-.13.12.1,0,0s.13.22,0,0c0,.08.08.22.05.07,0,.06.08.23,0,.09,0,0,0,.17,0,0,0,.05,0,.11,0,.16,0-.13-.05.08-.08.13s0,0,0,0a1.07,1.07,0,0,1-.14.16s-.24.18-.11.1l-.28.16a3.17,3.17,0,0,1-.63.16,5.44,5.44,0,0,1-.73,0,.86.86,0,0,0-.85.85.85.85,0,0,0,.84.85Z" transform="translate(-42.07 -101.02)"/><path class="cls-1" d="M232.87,227.64c.07.5.13,1,.19,1.52,0,.26.09.53.13.79a3.68,3.68,0,0,0,.33.83.81.81,0,0,0,1.46-.19,3.53,3.53,0,0,0,.1-.85c0-.23,0-.47-.05-.7-.05-.46-.12-.93-.17-1.39a1.14,1.14,0,0,0-.3-.72,1,1,0,0,0-1.4,0,1,1,0,0,0-.29.7Z" transform="translate(-42.07 -101.02)"/><path class="cls-1" d="M234.31,223.8a1.51,1.51,0,0,0-.14-.35.08.08,0,0,0,0,0,2.43,2.43,0,0,0-.2-.25.23.23,0,0,0-.07-.07,1.66,1.66,0,0,0-.3-.22l-.24-.09-.25,0-.25,0a.73.73,0,0,0-.35.18.55.55,0,0,0-.19.18.53.53,0,0,0-.12.22.55.55,0,0,0-.07.25.71.71,0,0,0,0,.38v0a.78.78,0,0,0,.05.14s0,.08.05.13l0,.06,0,.11a.51.51,0,0,0,.18.25.27.27,0,0,0,.1.08.62.62,0,0,0,.31.16h0l.06,0a.9.9,0,0,0,.4,0,.82.82,0,0,0,.36-.21l.06-.05h0l.15-.2a.92.92,0,0,0,.09-.23,1,1,0,0,0,0-.29v-.13a1.55,1.55,0,0,0,0-.37l-1.45,1.11.09.05-.21-.15a.38.38,0,0,1,.09.09l-.16-.21a.41.41,0,0,1,.07.11l-.1-.25s0,0,0,.06a.71.71,0,0,0,.19.35.7.7,0,0,0,.28.26.66.66,0,0,0,.36.11.7.7,0,0,0,.38,0l.25-.1a.94.94,0,0,0,.37-.37l.09-.23a.89.89,0,0,0,0-.51Z" transform="translate(-42.07 -101.02)"/><path class="cls-1" d="M238.34,224.75a1.7,1.7,0,0,0-.43,1.58,3,3,0,0,0,.71,1.27c.27.33.6.63.89.93l1,1-.16-1.2c-.12.17.14-.14,0,0l-.12.12-.09.08.12-.1a.49.49,0,0,0-.15.1l-.15.08c-.18.1.21-.07,0,0l-.38.11c-.24.06-.49.1-.73.15a2.38,2.38,0,0,0-.37.06l-.36.13a.79.79,0,0,0,0,1.52,3.15,3.15,0,0,0,1,.17,4,4,0,0,0,1.08-.14,3.17,3.17,0,0,0,1.83-1.27,1,1,0,0,0-.16-1.2l-1.58-1.61-.32-.34c.09.11.11.14.06.07l-.06-.08-.12-.2c-.11-.22,0,.17,0,0v-.06q0-.15,0,.09a.24.24,0,0,1,0-.12l0,.15c0-.1,0-.07,0,.08s-.12.15-.05.07a1,1,0,1,0-1.41-1.4Z" transform="translate(-42.07 -101.02)"/><path class="cls-1" d="M249,221.24l.63,1.16c.1.19.21.37.31.55a1.51,1.51,0,0,0,.32.43l.26.23a.85.85,0,0,0,1,.13.89.89,0,0,0,.3-.31.86.86,0,0,0,.09-.61l-.06-.33a1.72,1.72,0,0,0-.19-.52c-.1-.18-.19-.37-.29-.56l-.63-1.16a1,1,0,0,0-1.36-.37,1,1,0,0,0-.36,1.36Z" transform="translate(-42.07 -101.02)"/><path class="cls-1" d="M251.83,221.06c.24.45.47.91.75,1.33.13.2.26.41.4.61a8.3,8.3,0,0,0,.6.73.72.72,0,0,0,.89.11.76.76,0,0,0,.35-.83,7.91,7.91,0,0,0-.3-.9l-.28-.68a14.46,14.46,0,0,0-.69-1.36,1,1,0,0,0-1.35-.36,1,1,0,0,0-.37,1.35Z" transform="translate(-42.07 -101.02)"/><path class="cls-1" d="M257.15,222.32a18.25,18.25,0,0,0,.62,7.57c.26.76,1.5.71,1.47-.18a60.59,60.59,0,0,1-.1-7.38,1,1,0,0,0-2,0Z" transform="translate(-42.07 -101.02)"/><path class="cls-1" d="M256.73,227.36a15.9,15.9,0,0,0,2.29-.27,8.94,8.94,0,0,0,2.13-.79.74.74,0,0,0,.35-.82.76.76,0,0,0-.72-.56c-.37,0-.75.06-1.13.12a4.68,4.68,0,0,1-.54.08c.23,0,0,0-.06,0l-.35,0-.59.08-.23,0c.24,0-.05,0-.1,0-.34,0-.69.07-1,.08a1,1,0,0,0,0,2Z" transform="translate(-42.07 -101.02)"/><path class="cls-1" d="M262,227.25c.06,1.18.33,2.59,1.62,3a1.85,1.85,0,0,0,2.48-1.59l-1.49.86.27.17c-.1-.07.14.12.17.14l.47.43a4.56,4.56,0,0,0,1.19.81,2.39,2.39,0,0,0,2.83-.55,3.93,3.93,0,0,0,.82-2.61c0-.95-.27-2.31-1.24-2.76a.75.75,0,0,0-1.11.64,3.3,3.3,0,0,0,.19,1.12,4.7,4.7,0,0,1,.12.51,1.55,1.55,0,0,1,0,.21c0-.14,0,.17,0,.17a3.69,3.69,0,0,1,0,.47s0,.24,0,.12c0,.07,0,.14,0,.22a1.66,1.66,0,0,0-.06.21c0,.17,0,0,0,.06a1.24,1.24,0,0,1-.1.2s-.15.21-.07.11l-.09.09c-.09.09-.06,0,0,0s-.23.09-.11.06-.16,0,0,0h-.17l-.16-.05c.12,0-.05,0-.09,0l-.23-.13-.08-.06h0l-.2-.17c-.14-.11-.27-.24-.4-.35a6.82,6.82,0,0,0-1-.74,1,1,0,0,0-1.49.86c0,.16,0-.08,0-.12s0-.09,0,0l.08-.11c.07-.07.18-.09,0,0s.22-.06,0,0,.13,0,0,0h-.17c.11,0,.15,0,0,0s.22.09,0,0c.08,0,.12.12,0,0s.07.16,0-.07a.8.8,0,0,0-.08-.16c.08.18,0,0,0-.06a1.74,1.74,0,0,1-.05-.22s0-.26,0-.15,0-.14,0-.16,0-.18,0-.28a1,1,0,0,0-2,0Z" transform="translate(-42.07 -101.02)"/><path class="cls-1" d="M272.5,227.17a3.79,3.79,0,0,0,.27,2.92,2.52,2.52,0,0,0,3,.86,5.43,5.43,0,0,0,2.37-2.16,1.87,1.87,0,0,0,.3-.95,1.76,1.76,0,0,0-.49-1.16,3.84,3.84,0,0,0-1.19-.88,5.24,5.24,0,0,0-1.73-.47,2.6,2.6,0,0,0-.92.06,2.13,2.13,0,0,0-.9.51.77.77,0,0,0,.34,1.28,6.54,6.54,0,0,0,1.17.12H275s.12,0,.12,0-.2,0-.06,0l.53.13a1.09,1.09,0,0,0,.23.09c-.1,0-.17-.08-.06,0l.11.05c.16.09.31.21.47.29,0,0-.19-.15-.06,0l.1.07.18.18c.12.12,0,0,0-.06.09.14,0-.06,0-.08.05.16,0-.06,0-.08s0-.17,0-.1,0,.05,0-.08l-.14.21c-.05.08,0,.1,0-.05a.76.76,0,0,1-.08.11c-.12.16-.24.31-.37.46s-.24.26-.37.38l-.19.17c.16-.16.11-.08.05,0l-.17.1-.21.11.09,0-.11,0a1.89,1.89,0,0,0-.23.05s.25,0,.09,0h-.29c-.12,0,0,0,.09,0a1.41,1.41,0,0,0-.22-.06s.22.11.09,0l-.1-.06c-.1,0,0,0,.07.06l-.1-.1s-.11-.13,0,0,0,0,0,0a.47.47,0,0,1-.07-.12c-.06-.1.08.24,0,.07l-.06-.26c0-.11,0-.05,0,.08a.66.66,0,0,0,0-.14,3.46,3.46,0,0,1,0-.56s0-.08,0-.12c0,.25,0,.1,0,0l.06-.29a1,1,0,0,0-1.92-.51Z" transform="translate(-42.07 -101.02)"/><path class="cls-1" d="M277.71,222.32l0,1a7.77,7.77,0,0,0,.07,1,.88.88,0,0,0,.23.56.9.9,0,0,0,.44.21.78.78,0,0,0,.85-.56,6.09,6.09,0,0,0,.25-.93l.14-.95a.89.89,0,0,0,0-.51l-.1-.24a.94.94,0,0,0-.73-.48,1,1,0,0,0-1.12,1Z" transform="translate(-42.07 -101.02)"/><path class="cls-1" d="M280.87,223l.09,1a1.64,1.64,0,0,1,0,.22,2.17,2.17,0,0,0,.1.47l.16.47a.84.84,0,0,0,.9.61.76.76,0,0,0,.49-.24l.13-.17a.74.74,0,0,0,.11-.41l.07-.49a1.6,1.6,0,0,0,0-.23c0-.08,0-.16,0-.24l-.09-1a.84.84,0,0,0-.08-.38.74.74,0,0,0-.22-.33,1,1,0,0,0-1.69.7Z" transform="translate(-42.07 -101.02)"/><path class="cls-1" d="M286.12,222.46a7.58,7.58,0,0,1,3,.14l-.6-.46c.36.67-.82,1.73-1.14,2.22a3.77,3.77,0,0,0-.52,2.87,13.29,13.29,0,0,0,.87,2.43,5.84,5.84,0,0,1,.4,1.29c.06.41.06.83.12,1.25.11.79,1.16.72,1.53.2.79-1.14.11-2.68-.37-3.82-.38-.92-1-2.06-.44-3,.34-.61.87-1.09,1.19-1.72a3,3,0,0,0,.3-2.17,1.3,1.3,0,0,0-.92-1,8.27,8.27,0,0,0-1.32-.22,9.85,9.85,0,0,0-2.6.1,1,1,0,1,0,.5,1.92Z" transform="translate(-42.07 -101.02)"/><path class="cls-1" d="M290.76,236.29a1.23,1.23,0,0,0-.49-.47,1.11,1.11,0,0,0-.3-.12l-.29,0h-.05a1.44,1.44,0,0,0-1,.42,1.26,1.26,0,0,0-.33.57,2.06,2.06,0,0,0,0,.28,1,1,0,0,0,.13.53.33.33,0,0,0,.06.1,3.15,3.15,0,0,0,.22.29,2.09,2.09,0,0,0,.29.23l.09.05a2.44,2.44,0,0,0,.34.14l.12,0a1.26,1.26,0,0,0,.61,0,1.11,1.11,0,0,0,.65-.51,2.14,2.14,0,0,0,.12-.28l0-.21a.71.71,0,0,0-.07-.32.45.45,0,0,0-.11-.19.64.64,0,0,0-.24-.22.31.31,0,0,1-.1-.05l.2.14,0,0h0l-.21-.16-.23-.09a.32.32,0,0,0-.14,0l-.17,0h-.05l.25,0-.17-.05.24.1a.51.51,0,0,1-.16-.09l.2.15a.57.57,0,0,1-.11-.11l.16.21a.75.75,0,0,1-.07-.12l.13.5v0l0,.26a.14.14,0,0,1,0-.07l-.1.24a.16.16,0,0,1,0-.07l-.16.21.06-.07-.21.17a.21.21,0,0,1,.1-.06l-.25.1.12,0-.26,0h.11l-.25,0,.09,0-.24-.1.07,0-.21-.15a.12.12,0,0,1,.05.05l-.16-.21,0,0a.73.73,0,0,0,.26.29.84.84,0,0,0,.34.17.7.7,0,0,0,.38,0,.81.81,0,0,0,.37-.12l.21-.16a.89.89,0,0,0,.25-.44l0-.25a1.06,1.06,0,0,0-.13-.5Z" transform="translate(-42.07 -101.02)"/><path class="cls-1" d="M293,223.24a42.88,42.88,0,0,0,.62,4.51,14.27,14.27,0,0,0,1.31,4.31.76.76,0,0,0,1.41-.38,36.76,36.76,0,0,0-.77-4.27,41.23,41.23,0,0,1-.59-4.16,1,1,0,0,0-1-1,1,1,0,0,0-1,1Z" transform="translate(-42.07 -101.02)"/><path class="cls-1" d="M296.15,237l-.15-.11a.86.86,0,0,1-.13-.14l.09.11-.07-.1a1.67,1.67,0,0,0-.12-.16l-.13-.09a.46.46,0,0,0-.28-.08.35.35,0,0,0-.2.05.52.52,0,0,0-.19.11l-.08.11a.5.5,0,0,0-.07.27.46.46,0,0,0,.08.28v0l.09.12a.83.83,0,0,0,.15.11l.1.07-.1-.08a.8.8,0,0,1,.13.13l.12.15a.54.54,0,0,0,.37.15.52.52,0,0,0,.21,0,.44.44,0,0,0,.18-.12l.08-.11a.48.48,0,0,0,.07-.26l0-.14a.52.52,0,0,0-.14-.25Z" transform="translate(-42.07 -101.02)"/><path class="cls-1" d="M295.74,238.25l.11,0a1.35,1.35,0,0,0,.28,0,2.53,2.53,0,0,0,.38-.07l.2-.08a.7.7,0,0,0,.22-.2.4.4,0,0,0,.1-.18.52.52,0,0,0,.06-.28,1.09,1.09,0,0,0,0-.26.29.29,0,0,0,0-.09,1.14,1.14,0,0,0-.28-.47,1.23,1.23,0,0,0-.58-.37l.18.08a1.2,1.2,0,0,0-.89-.12,1.15,1.15,0,0,0-.68.56,1.32,1.32,0,0,0-.12.31,1.37,1.37,0,0,0,0,.45,1.09,1.09,0,0,0,.13.41,1,1,0,0,0,.22.27,1.07,1.07,0,0,0,.48.26,1.18,1.18,0,0,0,.56,0l.08,0,.26-.1a1.33,1.33,0,0,0,.43-.42,1.3,1.3,0,0,0,.15-.34,1.36,1.36,0,0,0,0-.4,1.52,1.52,0,0,0-.15-.6,2.54,2.54,0,0,0-.23-.34,1.52,1.52,0,0,0-.64-.42,1.35,1.35,0,0,0-.35-.06,1.22,1.22,0,0,0-.53.13,1.06,1.06,0,0,0-.48.48,1.21,1.21,0,0,0-.12.47,1,1,0,0,0,.81,1,1.54,1.54,0,0,0,.74,0,1,1,0,0,0,.46-.28.89.89,0,0,0,.21-.38,1.11,1.11,0,0,0,0-.25,1.12,1.12,0,0,0,0-.32,1.31,1.31,0,0,0-.26-.46,1,1,0,0,0-.79-.34,1.21,1.21,0,0,0-.45.12.89.89,0,0,0-.21.16.79.79,0,0,0-.21.27,1,1,0,0,0,0,1,1,1,0,0,0,.35.34.68.68,0,0,0,.83-.1.75.75,0,0,0,.17-.3.77.77,0,0,0,0-.37l0,.17a.17.17,0,0,1,0-.07l0,.18a2.4,2.4,0,0,0,0-.28l0,.19a.94.94,0,0,1,0-.16l-.07.18a.25.25,0,0,1,0-.07l-.12.16.05-.06-.16.13.08,0-.19.08h.06l-.2,0h.05l-.19,0h.05l-.18-.07.06,0-.16-.12a.23.23,0,0,1,.07.07l-.12-.16a.56.56,0,0,1,.05.08l-.08-.19,0,.08,0-.2a.09.09,0,0,1,0,.07l0-.19s0,0,0,0l.07-.18a.13.13,0,0,1,0,.05l.12-.16,0,0,.16-.13-.21.16.16-.13-.06,0,.19-.08-.17,0,.19,0a.33.33,0,0,1-.14,0l.18,0-.1,0,.17.07-.08-.05.15.12-.06-.06.12.16,0-.05.08.17s0,0,0-.05l0,.19a.08.08,0,0,1,0-.07l0,.19s0-.06,0-.08l-.07.17a.56.56,0,0,1,.05-.08l-.11.15a.23.23,0,0,1,.07-.07l-.16.12.08-.05-.18.08.08,0-.19,0h.09l-.19,0,.11,0-.18-.07a.6.6,0,0,1,.11.06l-.16-.12.13.13-.13-.17a1,1,0,0,1,.1.18l-.09-.2a.77.77,0,0,1,.07.26l0-.22v.14l0-.21a.74.74,0,0,1,0,.14l.08-.2a.41.41,0,0,1-.05.09l.13-.17a.46.46,0,0,1-.07.07l.17-.13a.57.57,0,0,1-.13.08l.2-.09-.09,0,.21,0h-.08l.21,0-.08,0,.19.08-.07,0,.17.13,0,0,.13.17,0-.06.09.2a.24.24,0,0,1,0-.08l0,.21v-.11l0,.21a.36.36,0,0,1,0-.1l-.08.19.06-.09-.13.17.07-.08-.17.13.1-.06-.2.09a.17.17,0,0,1,.1,0l-.21,0h.1l-.2,0h.06l-.18-.08a.41.41,0,0,1,.11.07l-.16-.12.1.09-.13-.16a.72.72,0,0,1,.12.21l-.08-.2,0,.05.36-.87,0,0,.19-.08h0l.2,0h-.11l.2,0-.1,0,.19.07-.1-.05a.83.83,0,0,0-.6-.08.78.78,0,0,0-.37.22.56.56,0,0,0-.17.26.51.51,0,0,0-.06.3.56.56,0,0,0,.06.31.61.61,0,0,0,.18.27.84.84,0,0,0,.35.21Z" transform="translate(-42.07 -101.02)"/></svg>