<svg id="Layer_1" data-name="Layer 1" xmlns="http://www.w3.org/2000/svg" viewBox="0 0 157.74 89.91"><defs><style>.cls-1{fill:none;stroke:#ffc300;stroke-width:0.5px;}.cls-1,.cls-2{stroke-miterlimit:10;}.cls-2{fill:#121212;stroke:#121212;}.cls-3{fill:#faf9f6;}</style></defs><line class="cls-1" x1="113.74" y1="10.08" x2="43.51" y2="45.2"/><rect class="cls-2" x="105.21" y="6.91" width="17.56" height="5.85"/><line class="cls-1" x1="43.51" y1="44.71" x2="113.74" y2="79.83"/><line class="cls-1" x1="66.92" y1="33.01" x2="113.74" y2="56.42"/><line class="cls-1" x1="90.33" y1="21.3" x2="113.74" y2="33.01"/><line class="cls-1" x1="66.92" y1="56.42" x2="113.74" y2="33.01"/><rect class="cls-2" x="58.38" y="30.32" width="17.56" height="5.85"/><rect class="cls-2" x="34.97" y="42.03" width="17.56" height="5.85"/><rect class="cls-2" x="58.38" y="53.74" width="17.56" height="5.85"/><rect class="cls-2" x="105.21" y="77.15" width="17.56" height="5.85"/><rect class="cls-2" x="81.79" y="42.03" width="17.56" height="5.85"/><rect class="cls-2" x="81.79" y="18.62" width="17.56" height="5.85"/><rect class="cls-2" x="105.21" y="30.32" width="17.56" height="5.85"/><line class="cls-1" x1="90.33" y1="68.12" x2="113.74" y2="56.42"/><rect class="cls-2" x="105.21" y="53.74" width="17.56" height="5.85"/><rect class="cls-2" x="81.79" y="65.44" width="17.56" height="5.85"/><path class="cls-3" d="M41,43c0-.13,0-.14-.11-.14a1.28,1.28,0,0,1-1,.37v.17a1.68,1.68,0,0,0,.74-.15v3c0,.21,0,.28-.53.28h-.18v.17c.16,0,.72,0,.92,0s.75,0,.9,0v-.17h-.18c-.51,0-.53-.07-.53-.28V43"/><path class="cls-3" d="M43.63,46.71c-.19,0-.57-.1-.68-.74a7.58,7.58,0,0,1-.06-1.19A5.23,5.23,0,0,1,43,43.53a.7.7,0,0,1,.65-.57.69.69,0,0,1,.66.63,5.62,5.62,0,0,1,.08,1.19A7.52,7.52,0,0,1,44.31,46c-.11.64-.48.75-.68.75m1.18-1.86a3.16,3.16,0,0,0-.24-1.4,1,1,0,0,0-.94-.61,1,1,0,0,0-1,.65,3,3,0,0,0-.22,1.36,3,3,0,0,0,.25,1.4,1,1,0,0,0,.93.58,1,1,0,0,0,1-.64A3.26,3.26,0,0,0,44.81,44.85Z"/><path class="cls-3" d="M46.45,46.71c-.18,0-.56-.1-.67-.74a7.58,7.58,0,0,1-.06-1.19,5.23,5.23,0,0,1,.09-1.25.66.66,0,0,1,1.31.06,5.62,5.62,0,0,1,.08,1.19A7.52,7.52,0,0,1,47.14,46c-.12.64-.48.75-.69.75m1.19-1.86a3.16,3.16,0,0,0-.24-1.4,1,1,0,0,0-1.9,0,3,3,0,0,0-.23,1.36,3.08,3.08,0,0,0,.25,1.4,1,1,0,0,0,1.9-.06A3.26,3.26,0,0,0,47.64,44.85Z"/><path class="cls-3" d="M64.66,31.4c0-.14,0-.14-.12-.14a1.32,1.32,0,0,1-1,.37v.17a1.7,1.7,0,0,0,.75-.15v3c0,.21,0,.28-.53.28h-.18v.17h1.82V35h-.18c-.51,0-.53-.07-.53-.28V31.4"/><path class="cls-3" d="M66.93,33c-.1,0-.12,0-.12.07s0,.06.13.06h.27c.5,0,.72.4.72,1,0,.76-.4,1-.68,1a1.05,1.05,0,0,1-.93-.52.29.29,0,0,0,.36-.29.29.29,0,0,0-.58,0,1.07,1.07,0,0,0,1.16.94,1.16,1.16,0,0,0,1.21-1.11,1.1,1.1,0,0,0-1-1.05,1.1,1.1,0,0,0,.83-1c0-.46-.48-.79-1-.79s-1,.35-1,.77a.25.25,0,0,0,.27.28.25.25,0,0,0,.26-.26.26.26,0,0,0-.27-.27h-.06a1,1,0,0,1,.79-.39c.19,0,.57.08.57.65a1.39,1.39,0,0,1-.18.69.63.63,0,0,1-.53.28h-.18"/><path class="cls-3" d="M70.11,35.13c-.19,0-.56-.11-.67-.74a6.57,6.57,0,0,1-.07-1.2,4.76,4.76,0,0,1,.1-1.25.68.68,0,0,1,.64-.57.71.71,0,0,1,.67.64,6.35,6.35,0,0,1,.07,1.18,7.71,7.71,0,0,1-.06,1.19c-.11.64-.48.75-.68.75m1.19-1.87a3.14,3.14,0,0,0-.24-1.39,1,1,0,0,0-1.91,0,3.08,3.08,0,0,0-.22,1.35,2.9,2.9,0,0,0,.25,1.4,1,1,0,0,0,1.9-.06A3.21,3.21,0,0,0,71.3,33.26Z"/><path class="cls-3" d="M65.83,57.14a.63.63,0,0,1-.57-.4,1.9,1.9,0,0,1-.1-.76,1.46,1.46,0,0,1,.16-.85.65.65,0,0,1,.57-.32.65.65,0,0,1,.56.42,2.73,2.73,0,0,1,.12.87c0,.49-.23,1-.74,1m.75-.3c0,1.37-.61,1.66-1,1.66a.77.77,0,0,1-.6-.22h0a.24.24,0,0,0,.25-.24.23.23,0,0,0-.24-.24.23.23,0,0,0-.24.25c0,.36.29.61.79.61.73,0,1.43-.78,1.43-2,0-1.56-.65-1.95-1.16-1.95a1.23,1.23,0,0,0-1.2,1.3,1.2,1.2,0,0,0,1.12,1.29.83.83,0,0,0,.77-.61Z"/><path class="cls-3" d="M68.7,58.54c-.19,0-.57-.11-.68-.74A7.65,7.65,0,0,1,68,56.6a5.32,5.32,0,0,1,.09-1.25.7.7,0,0,1,.65-.57.72.72,0,0,1,.67.64,6.35,6.35,0,0,1,.07,1.18,7.71,7.71,0,0,1-.06,1.19c-.11.64-.48.75-.68.75m1.18-1.87a3.14,3.14,0,0,0-.24-1.39,1,1,0,0,0-.94-.61,1,1,0,0,0-1,.65,3,3,0,0,0-.22,1.35,2.9,2.9,0,0,0,.25,1.4,1,1,0,0,0,.93.59,1.05,1.05,0,0,0,1-.64A3.28,3.28,0,0,0,69.88,56.67Z"/><path class="cls-3" d="M88.07,19.69c0-.13,0-.14-.11-.14a1.28,1.28,0,0,1-1,.37v.17a1.68,1.68,0,0,0,.74-.15v3c0,.21,0,.28-.53.28H87v.17c.16,0,.72,0,.91,0s.75,0,.91,0v-.17H88.6c-.51,0-.53-.07-.53-.28V19.69"/><path class="cls-3" d="M90.71,23.38a.67.67,0,0,1-.6-.45,2.75,2.75,0,0,1-.11-.84c0-.46.21-1,.73-1a.62.62,0,0,1,.58.41,2,2,0,0,1,.09.75,1.74,1.74,0,0,1-.11.78.62.62,0,0,1-.58.38m-.72-2c0-1.47.72-1.7,1-1.7a.59.59,0,0,1,.53.24c-.07,0-.29,0-.29.24a.24.24,0,0,0,.48,0c0-.3-.22-.6-.73-.6-.73,0-1.5.75-1.5,2,0,1.6.7,2,1.2,2a1.23,1.23,0,0,0,1.17-1.31,1.2,1.2,0,0,0-1.12-1.29.83.83,0,0,0-.77.61Z"/><path class="cls-3" d="M93.49,22a.64.64,0,0,1-.58-.41,2.09,2.09,0,0,1-.09-.76A1.55,1.55,0,0,1,93,20a.65.65,0,0,1,.58-.32.62.62,0,0,1,.55.42,2.73,2.73,0,0,1,.12.87c0,.49-.22,1.05-.73,1.05m.74-.31c0,1.38-.61,1.66-1,1.66a.74.74,0,0,1-.59-.22h0a.23.23,0,0,0,.25-.24.22.22,0,0,0-.23-.24.23.23,0,0,0-.25.25c0,.36.29.61.8.61.73,0,1.43-.77,1.43-2,0-1.56-.65-1.95-1.16-1.95a1.25,1.25,0,0,0-1.21,1.3,1.2,1.2,0,0,0,1.12,1.29.82.82,0,0,0,.77-.61Z"/><path class="cls-3" d="M88,43.13c0-.13,0-.14-.11-.14a1.28,1.28,0,0,1-1,.38v.16a1.68,1.68,0,0,0,.74-.15v3c0,.21,0,.28-.53.28h-.18v.17H88.7v-.17h-.18c-.51,0-.53-.07-.53-.28V43.13"/><path class="cls-3" d="M90.87,43.13c0-.13,0-.14-.12-.14a1.27,1.27,0,0,1-1,.38v.16a1.68,1.68,0,0,0,.74-.15v3c0,.21,0,.28-.53.28h-.18v.17h1.82v-.17H91.4c-.51,0-.53-.07-.53-.28V43.13"/><path class="cls-3" d="M94.79,43.25v-.13h-1.4c-.71,0-.72-.08-.74-.19h-.13l-.18,1.16h.13a1.54,1.54,0,0,1,.14-.53,3.44,3.44,0,0,1,.57,0h1.23l-.62.88a4.47,4.47,0,0,0-.74,2.28c0,.06,0,.29.24.29s.24-.22.24-.3v-.29a3.55,3.55,0,0,1,.41-1.93l.85-1.21"/><path class="cls-3" d="M88.82,68.37l.7.46a.77.77,0,0,1,.42.63.84.84,0,0,1-.91.74.88.88,0,0,1-.92-.84,1.14,1.14,0,0,1,.71-1m-.27-.75a.6.6,0,0,1-.31-.49.71.71,0,0,1,.78-.62.75.75,0,0,1,.79.72,1,1,0,0,1-.59.83Zm.79.52a1.11,1.11,0,0,0,.71-.91,1,1,0,0,0-1-.86,1,1,0,0,0-1,1,.92.92,0,0,0,.22.59c.06.08.07.08.48.37a1.24,1.24,0,0,0-.86,1.07,1.09,1.09,0,0,0,1.18,1,1.14,1.14,0,0,0,1.19-1.09C90.21,68.68,89.79,68.42,89.34,68.14Z"/><path class="cls-3" d="M92.11,66.51c0-.13,0-.14-.12-.14a1.28,1.28,0,0,1-1,.38v.16a1.7,1.7,0,0,0,.75-.15v3c0,.21,0,.28-.53.28H91v.17h1.82v-.17h-.18c-.52,0-.53-.07-.53-.28V66.51"/><path class="cls-3" d="M108.81,10.77h-.13a3.4,3.4,0,0,1-.12.51,1.62,1.62,0,0,1-.55.05h-1.08c.16-.13.52-.51.67-.65.88-.81,1.21-1.11,1.21-1.69a1.12,1.12,0,0,0-1.21-1.11A1.08,1.08,0,0,0,106.53,9a.27.27,0,0,0,.28.3.27.27,0,0,0,.27-.27.26.26,0,0,0-.27-.28h-.08a.81.81,0,1,1,1.59.28,2,2,0,0,1-.61,1.3l-1.18,1.31v.14h2.13l.15-1"/><path class="cls-3" d="M110.8,8c0-.14,0-.14-.12-.14a1.31,1.31,0,0,1-1,.37v.17a1.68,1.68,0,0,0,.74-.15v3c0,.21,0,.28-.53.28h-.18v.17h1.82v-.17h-.18c-.51,0-.53-.07-.53-.28V8"/><path class="cls-3" d="M113.39,10.35a.64.64,0,0,1-.58-.4,2.12,2.12,0,0,1-.09-.77,1.53,1.53,0,0,1,.15-.84.63.63,0,0,1,.58-.32.62.62,0,0,1,.55.42,2.73,2.73,0,0,1,.12.87c0,.48-.22,1-.73,1m.74-.3c0,1.37-.61,1.66-1,1.66a.74.74,0,0,1-.59-.22h0a.24.24,0,0,0,.25-.24.22.22,0,0,0-.23-.24.23.23,0,0,0-.25.25c0,.36.29.6.8.6.73,0,1.43-.77,1.43-2,0-1.56-.65-1.95-1.16-1.95a1.24,1.24,0,0,0-1.21,1.3,1.2,1.2,0,0,0,1.12,1.29.83.83,0,0,0,.77-.61Z"/><path class="cls-3" d="M116,11.46a.28.28,0,1,0-.28.28.29.29,0,0,0,.28-.28"/><path class="cls-3" d="M119.2,8.13V8h-1.4c-.7,0-.71-.08-.74-.19h-.12L116.76,9h.12c0-.11.07-.47.15-.53a2.5,2.5,0,0,1,.56,0h1.24l-.62.88a4.37,4.37,0,0,0-.74,2.28c0,.06,0,.29.23.29s.25-.22.25-.3v-.29a3.55,3.55,0,0,1,.41-1.93l.84-1.21"/><path class="cls-3" d="M120.74,11.75c-.19,0-.57-.11-.68-.74a7.65,7.65,0,0,1-.06-1.2,5.32,5.32,0,0,1,.09-1.25.7.7,0,0,1,.65-.57.71.71,0,0,1,.67.64,6.35,6.35,0,0,1,.07,1.18,7.71,7.71,0,0,1-.06,1.19c-.11.64-.48.75-.68.75m1.18-1.87a3.14,3.14,0,0,0-.23-1.39,1,1,0,0,0-1.91,0,3.08,3.08,0,0,0-.22,1.35,2.9,2.9,0,0,0,.25,1.4,1,1,0,0,0,1.89-.06A3.21,3.21,0,0,0,121.92,9.88Z"/><path class="cls-3" d="M107.8,31.4c0-.14,0-.14-.11-.14a1.35,1.35,0,0,1-1,.37v.17a1.68,1.68,0,0,0,.74-.15v3c0,.21,0,.28-.53.28h-.18v.17h1.82V35h-.18c-.51,0-.53-.07-.53-.28V31.4"/><path class="cls-3" d="M109.75,31.79a1.8,1.8,0,0,0,.52.09,1.22,1.22,0,0,0,1.07-.57s0,0,0,0l-.08,0a2,2,0,0,1-.76.16,1.83,1.83,0,0,1-.76-.16l-.06,0s0,0,0,.13v1.73c0,.1,0,.14.07.14s0,0,.09-.08a.89.89,0,0,1,.73-.38.61.61,0,0,1,.51.39,1.84,1.84,0,0,1,.1.73,1.54,1.54,0,0,1-.16.81.74.74,0,0,1-.61.36.9.9,0,0,1-.87-.69l.1,0a.25.25,0,0,0,.25-.26.24.24,0,0,0-.25-.25.25.25,0,0,0-.26.28,1.05,1.05,0,0,0,1,1.05A1.26,1.26,0,0,0,111.56,34a1.17,1.17,0,0,0-1.07-1.26,1,1,0,0,0-.74.3v-1.2"/><path class="cls-3" d="M114.44,34.15h-.13a2.5,2.5,0,0,1-.12.51,1.59,1.59,0,0,1-.55.05h-1.07c.15-.13.51-.51.66-.65.88-.81,1.21-1.11,1.21-1.69a1.12,1.12,0,0,0-1.2-1.11,1.07,1.07,0,0,0-1.07,1.07.27.27,0,0,0,.27.3.27.27,0,0,0,.27-.28.26.26,0,0,0-.27-.27h-.08a.81.81,0,0,1,1.6.28,2,2,0,0,1-.62,1.3L112.17,35v.14h2.12l.15-1"/><path class="cls-3" d="M115.83,34.84a.28.28,0,1,0-.29.28.29.29,0,0,0,.29-.28"/><path class="cls-3" d="M118,31.4c0-.14,0-.14-.11-.14a1.32,1.32,0,0,1-1,.37v.17a1.68,1.68,0,0,0,.74-.15v3c0,.21,0,.28-.53.28h-.18v.17h1.82V35h-.18c-.51,0-.53-.07-.53-.28V31.4"/><path class="cls-3" d="M120.62,35.13c-.19,0-.57-.11-.68-.74a7.65,7.65,0,0,1-.06-1.2,5.27,5.27,0,0,1,.09-1.25.7.7,0,0,1,.65-.57.72.72,0,0,1,.67.64,6.35,6.35,0,0,1,.07,1.18,7.71,7.71,0,0,1-.06,1.19c-.11.64-.48.75-.68.75m1.18-1.87a3.14,3.14,0,0,0-.24-1.39,1,1,0,0,0-.94-.61,1,1,0,0,0-1,.65,2.94,2.94,0,0,0-.22,1.35,2.9,2.9,0,0,0,.25,1.4,1,1,0,0,0,.93.58,1,1,0,0,0,1-.64A3.21,3.21,0,0,0,121.8,33.26Z"/><path class="cls-3" d="M107.8,54.81c0-.14,0-.14-.11-.14a1.35,1.35,0,0,1-1,.37v.17a1.68,1.68,0,0,0,.74-.15v3c0,.21,0,.28-.53.28h-.18v.16h1.82v-.16h-.18c-.51,0-.53-.07-.53-.28V54.81"/><path class="cls-3" d="M110.42,58.54c-.18,0-.56-.11-.67-.74a6.57,6.57,0,0,1-.07-1.2,4.8,4.8,0,0,1,.1-1.25.69.69,0,0,1,.64-.57.71.71,0,0,1,.67.64,5.57,5.57,0,0,1,.08,1.18,6.62,6.62,0,0,1-.07,1.19c-.11.64-.47.75-.68.75m1.19-1.87a3.14,3.14,0,0,0-.24-1.39,1,1,0,0,0-.94-.61,1.05,1.05,0,0,0-1,.65,3.14,3.14,0,0,0-.22,1.35,2.9,2.9,0,0,0,.25,1.4,1,1,0,0,0,.93.59,1.06,1.06,0,0,0,1-.64A3.28,3.28,0,0,0,111.61,56.67Z"/><path class="cls-3" d="M112.63,55.2a1.8,1.8,0,0,0,.51.09,1.25,1.25,0,0,0,1.08-.56s0-.06,0-.06l-.07,0a2,2,0,0,1-1.53,0l0,0s0,0,0,.13v1.73c0,.1,0,.14.07.14s0,0,.09-.08a.88.88,0,0,1,.73-.38.58.58,0,0,1,.5.39,1.86,1.86,0,0,1,.11.73,1.54,1.54,0,0,1-.16.81.74.74,0,0,1-.61.36.89.89,0,0,1-.87-.69l.09,0a.25.25,0,0,0,.26-.26.24.24,0,0,0-.26-.25c-.1,0-.25,0-.25.28a1.06,1.06,0,0,0,1,1.06,1.27,1.27,0,0,0,1.23-1.29,1.18,1.18,0,0,0-1.08-1.27,1,1,0,0,0-.73.31V55.2"/><path class="cls-3" d="M115.83,58.25a.29.29,0,0,0-.28-.28.28.28,0,0,0,0,.56.29.29,0,0,0,.29-.28"/><path class="cls-3" d="M117.39,56.45c-.1,0-.12,0-.12.06s0,.06.13.06h.27c.49,0,.71.41.71,1,0,.77-.39,1-.68,1a1,1,0,0,1-.92-.52.29.29,0,1,0-.22-.27,1.07,1.07,0,0,0,1.16.95,1.17,1.17,0,0,0,1.21-1.12,1.13,1.13,0,0,0-1-1,1.11,1.11,0,0,0,.83-1c0-.46-.48-.79-1-.79s-1,.35-1,.78a.26.26,0,0,0,.26.28.25.25,0,0,0,.26-.27.25.25,0,0,0-.26-.26h-.07a1,1,0,0,1,.8-.39c.19,0,.57.08.57.65a1.32,1.32,0,0,1-.19.69.58.58,0,0,1-.53.28l-.17,0"/><path class="cls-3" d="M120.62,58.54c-.19,0-.57-.11-.68-.74a7.65,7.65,0,0,1-.06-1.2,5.32,5.32,0,0,1,.09-1.25.7.7,0,0,1,.65-.57.72.72,0,0,1,.67.64,6.35,6.35,0,0,1,.07,1.18,7.71,7.71,0,0,1-.06,1.19c-.11.64-.48.75-.68.75m1.18-1.87a3.14,3.14,0,0,0-.24-1.39,1,1,0,0,0-.94-.61,1,1,0,0,0-1,.65,3,3,0,0,0-.22,1.35,2.9,2.9,0,0,0,.25,1.4,1,1,0,0,0,.93.59,1.05,1.05,0,0,0,1-.64A3.28,3.28,0,0,0,121.8,56.67Z"/><path class="cls-3" d="M110.33,78.37v-.14h-1.41c-.7,0-.71-.07-.73-.18h-.13l-.18,1.16H108a1.48,1.48,0,0,1,.14-.53,3.38,3.38,0,0,1,.57,0H110l-.62.88a4.36,4.36,0,0,0-.74,2.27c0,.07,0,.3.24.3s.24-.23.24-.3v-.29a3.55,3.55,0,0,1,.41-1.93l.85-1.21"/><path class="cls-3" d="M113,81h-.13a2.23,2.23,0,0,1-.12.51,1.59,1.59,0,0,1-.55,0h-1.07c.15-.13.51-.5.66-.64.88-.81,1.21-1.12,1.21-1.69a1.13,1.13,0,0,0-1.2-1.12,1.08,1.08,0,0,0-1.07,1.08.27.27,0,1,0,.54,0,.26.26,0,0,0-.27-.27h-.08a.81.81,0,0,1,1.6.29,2,2,0,0,1-.62,1.29l-1.17,1.32V82h2.12l.15-1"/><path class="cls-3" d="M114.39,81.7a.29.29,0,0,0-.28-.29.29.29,0,0,0,0,.57.29.29,0,0,0,.29-.28"/><path class="cls-3" d="M116.26,80.59a.64.64,0,0,1-.57-.41,1.9,1.9,0,0,1-.1-.76,1.41,1.41,0,0,1,.16-.84.63.63,0,0,1,.57-.33.65.65,0,0,1,.56.43,2.65,2.65,0,0,1,.12.86c0,.49-.22,1-.74,1m.75-.3c0,1.37-.61,1.65-1,1.65a.7.7,0,0,1-.59-.22h0a.23.23,0,0,0,.25-.24.23.23,0,0,0-.24-.23.22.22,0,0,0-.24.25c0,.36.29.6.79.6.73,0,1.43-.77,1.43-2,0-1.56-.65-2-1.16-2a1.24,1.24,0,0,0-1.2,1.3,1.2,1.2,0,0,0,1.12,1.29.83.83,0,0,0,.77-.61Z"/><path class="cls-3" d="M119.18,82c-.19,0-.57-.1-.68-.73a7.71,7.71,0,0,1-.06-1.2,5.23,5.23,0,0,1,.09-1.25.7.7,0,0,1,.65-.57.71.71,0,0,1,.67.63,6.4,6.4,0,0,1,.07,1.19,7.52,7.52,0,0,1-.06,1.18c-.11.64-.48.75-.68.75m1.18-1.86a3.16,3.16,0,0,0-.24-1.4,1,1,0,0,0-.94-.61,1,1,0,0,0-1,.65,3,3,0,0,0-.22,1.36,2.93,2.93,0,0,0,.25,1.4,1,1,0,0,0,.93.58,1,1,0,0,0,1-.64A3.26,3.26,0,0,0,120.36,80.12Z"/></svg>