<svg id="Layer_1" data-name="Layer 1" xmlns="http://www.w3.org/2000/svg" viewBox="0 0 235.71 183.9"><defs><style>.cls-1{fill:none;stroke:#ffc300;stroke-width:1.06px;}.cls-1,.cls-2{stroke-miterlimit:10;}.cls-2{fill:#121212;stroke:#121212;stroke-width:2.13px;}.cls-3{fill:#faf9f6;}</style></defs><line class="cls-1" x1="168.49" y1="27.85" x2="19.2" y2="102.49"/><line class="cls-1" x1="19.2" y1="101.46" x2="168.49" y2="176.1"/><rect class="cls-2" x="1.06" y="95.75" width="37.32" height="12.44"/><path class="cls-3" d="M15.45,105.42h.13v-.55h-.71a1.08,1.08,0,0,1-.77-.17V97.56c-.07-.06-.05-.08-.21-.08s-.11,0-.14,0a2.37,2.37,0,0,1-.37.27,3.35,3.35,0,0,1-1.67.46h-.22v.54h.22a3.75,3.75,0,0,0,1.23-.22l.1,0v6.17a.53.53,0,0,1-.29.14c-.13,0-.55,0-.89,0h-.31v.55h.14c.2,0,1.49,0,1.87,0s1.69,0,1.9,0"/><path class="cls-3" d="M20.31,98.31c.35.35.44.73.48,2,0,.22,0,.66,0,1.12,0,.66,0,1.37,0,1.6-.06,1.11-.16,1.47-.5,1.82a1,1,0,0,1-.81.36,1,1,0,0,1-.83-.36c-.34-.35-.44-.71-.5-1.82,0-.23,0-.94,0-1.6,0-.46,0-.9,0-1.12,0-1.29.13-1.67.48-2a1.21,1.21,0,0,1,.86-.39,1.06,1.06,0,0,1,.84.39m-2.68.14a5.54,5.54,0,0,0-.68,3.16,5.64,5.64,0,0,0,.52,2.82,2.15,2.15,0,0,0,2,1.26,2.32,2.32,0,0,0,1-.25,2.05,2.05,0,0,0,1-1,5.77,5.77,0,0,0,.51-2.82,6.42,6.42,0,0,0-.44-2.72,2.36,2.36,0,0,0-.55-.81,2.27,2.27,0,0,0-1.52-.6A2.18,2.18,0,0,0,17.63,98.45Z"/><path class="cls-3" d="M26.31,98.31c.35.35.44.73.48,2,0,.22,0,.66,0,1.12,0,.66,0,1.37,0,1.6-.06,1.11-.16,1.47-.5,1.82a1,1,0,0,1-.81.36,1,1,0,0,1-.83-.36c-.34-.35-.44-.71-.5-1.82,0-.23,0-.94,0-1.6,0-.46,0-.9,0-1.12,0-1.29.13-1.67.48-2a1.21,1.21,0,0,1,.86-.39,1.06,1.06,0,0,1,.84.39m-2.68.14a5.54,5.54,0,0,0-.68,3.16,5.64,5.64,0,0,0,.52,2.82,2.15,2.15,0,0,0,2,1.26,2.32,2.32,0,0,0,1-.25,2.05,2.05,0,0,0,1-1,5.77,5.77,0,0,0,.51-2.82,6.42,6.42,0,0,0-.44-2.72,2.36,2.36,0,0,0-.55-.81,2.27,2.27,0,0,0-1.52-.6A2.18,2.18,0,0,0,23.63,98.45Z"/><rect class="cls-2" x="150.34" y="21.11" width="37.32" height="12.44"/><line class="cls-1" x1="68.97" y1="76.57" x2="168.49" y2="126.34"/><line class="cls-1" x1="118.73" y1="51.69" x2="168.49" y2="76.57"/><line class="cls-1" x1="68.97" y1="126.34" x2="168.49" y2="76.57"/><rect class="cls-2" x="50.82" y="70.87" width="37.32" height="12.44"/><rect class="cls-2" x="50.82" y="120.63" width="37.32" height="12.44"/><rect class="cls-2" x="150.34" y="170.39" width="37.32" height="12.44"/><rect class="cls-2" x="100.58" y="95.75" width="37.32" height="12.44"/><rect class="cls-2" x="100.58" y="45.99" width="37.32" height="12.44"/><rect class="cls-2" x="150.34" y="70.87" width="37.32" height="12.44"/><line class="cls-1" x1="118.73" y1="151.22" x2="168.49" y2="126.34"/><rect class="cls-2" x="150.34" y="120.63" width="37.32" height="12.44"/><rect class="cls-2" x="100.58" y="145.51" width="37.32" height="12.44"/><path class="cls-3" d="M64.17,73.15c0-.28,0-.3-.25-.3a2.74,2.74,0,0,1-2.19.8V74a3.56,3.56,0,0,0,1.58-.32v6.44c0,.45,0,.59-1.12.59h-.38v.36c.33,0,1.53,0,1.94,0s1.59,0,1.92,0v-.36h-.38c-1.09,0-1.12-.14-1.12-.59v-7"/><path class="cls-3" d="M69,76.64c-.21,0-.26,0-.26.13s.06.12.28.12h.57c1,0,1.52.87,1.52,2.06,0,1.62-.84,2-1.45,2a2.2,2.2,0,0,1-2-1.1.6.6,0,0,0,.75-.61.58.58,0,0,0-.6-.6.59.59,0,0,0-.62.64,2.27,2.27,0,0,0,2.47,2A2.47,2.47,0,0,0,72.26,79a2.38,2.38,0,0,0-2.1-2.24,2.34,2.34,0,0,0,1.77-2.17c0-1-1-1.7-2.22-1.7a1.94,1.94,0,0,0-2.15,1.66.55.55,0,0,0,.57.59.56.56,0,1,0,0-1.12H68a2,2,0,0,1,1.7-.84c.4,0,1.21.19,1.21,1.4a2.82,2.82,0,0,1-.4,1.46,1.24,1.24,0,0,1-1.12.59l-.37,0"/><path class="cls-3" d="M75.75,81.09c-.39,0-1.2-.23-1.43-1.57A14.92,14.92,0,0,1,74.18,77a10.74,10.74,0,0,1,.2-2.66,1.4,1.4,0,0,1,2.79.14A12.62,12.62,0,0,1,77.33,77a15.86,15.86,0,0,1-.13,2.52c-.24,1.36-1,1.6-1.45,1.6m2.52-4a6.82,6.82,0,0,0-.5-3,2.21,2.21,0,0,0-4.06.09,6.64,6.64,0,0,0-.47,2.88,6.31,6.31,0,0,0,.53,3,2.22,2.22,0,0,0,4-.13A6.83,6.83,0,0,0,78.27,77.12Z"/><path class="cls-3" d="M66.66,127.88a1.38,1.38,0,0,1-1.23-.87,4.43,4.43,0,0,1-.19-1.61,3.26,3.26,0,0,1,.32-1.8,1.32,1.32,0,0,1,2.41.21,5.88,5.88,0,0,1,.25,1.84c0,1-.47,2.23-1.56,2.23m1.58-.64c0,2.91-1.3,3.52-2,3.52a1.57,1.57,0,0,1-1.26-.47H65a.5.5,0,0,0,.54-.51.49.49,0,0,0-.51-.5.49.49,0,0,0-.52.53c0,.76.62,1.28,1.69,1.28,1.55,0,3-1.64,3-4.32,0-3.33-1.38-4.15-2.47-4.15a2.63,2.63,0,0,0-2.56,2.76,2.57,2.57,0,0,0,2.39,2.75,1.77,1.77,0,0,0,1.63-1.3Z"/><path class="cls-3" d="M72.74,130.85c-.39,0-1.19-.23-1.43-1.57a16.06,16.06,0,0,1-.13-2.55,11.29,11.29,0,0,1,.19-2.66,1.49,1.49,0,0,1,1.37-1.21,1.51,1.51,0,0,1,1.43,1.35,12.62,12.62,0,0,1,.16,2.52,14.74,14.74,0,0,1-.14,2.52c-.23,1.36-1,1.6-1.45,1.6m2.53-4a6.83,6.83,0,0,0-.51-3,2.2,2.2,0,0,0-4.05.09,6.49,6.49,0,0,0-.47,2.88,6.19,6.19,0,0,0,.53,3,2.18,2.18,0,0,0,2,1.23,2.22,2.22,0,0,0,2.06-1.36A7,7,0,0,0,75.27,126.88Z"/><path class="cls-3" d="M113.93,48.27c0-.28,0-.3-.25-.3a2.74,2.74,0,0,1-2.19.8v.35a3.56,3.56,0,0,0,1.58-.32v6.44c0,.45,0,.59-1.12.59h-.38v.36c.33,0,1.53,0,1.94,0s1.59,0,1.92,0v-.36h-.38c-1.09,0-1.12-.14-1.12-.59v-7"/><path class="cls-3" d="M119.52,56.12a1.44,1.44,0,0,1-1.26-.95,5.9,5.9,0,0,1-.23-1.79c0-1,.44-2.2,1.56-2.2a1.31,1.31,0,0,1,1.22.87,4.27,4.27,0,0,1,.2,1.61,3.6,3.6,0,0,1-.24,1.65,1.33,1.33,0,0,1-1.25.81M118,51.89c0-3.12,1.52-3.62,2.19-3.62a1.29,1.29,0,0,1,1.13.51c-.15,0-.62,0-.62.5a.51.51,0,1,0,1,0c0-.65-.47-1.28-1.54-1.28-1.56,0-3.19,1.6-3.19,4.32,0,3.4,1.48,4.16,2.53,4.16a2.62,2.62,0,0,0,2.5-2.78,2.56,2.56,0,0,0-2.39-2.74,1.76,1.76,0,0,0-1.63,1.3Z"/><path class="cls-3" d="M125.44,53.24a1.38,1.38,0,0,1-1.23-.87,4.49,4.49,0,0,1-.19-1.62,3.24,3.24,0,0,1,.32-1.79,1.32,1.32,0,0,1,2.41.21A6.11,6.11,0,0,1,127,51c0,1-.47,2.23-1.55,2.23M127,52.6c0,2.91-1.3,3.52-2,3.52a1.57,1.57,0,0,1-1.26-.47h.07a.5.5,0,0,0,.54-.51.52.52,0,0,0-1,0c0,.76.62,1.28,1.69,1.28,1.55,0,3-1.64,3-4.32,0-3.33-1.38-4.16-2.47-4.16A2.64,2.64,0,0,0,123,50.74a2.57,2.57,0,0,0,2.39,2.75,1.77,1.77,0,0,0,1.63-1.3Z"/><path class="cls-3" d="M113.76,98.1c0-.29,0-.3-.25-.3a2.72,2.72,0,0,1-2.19.79V99a3.59,3.59,0,0,0,1.59-.32v6.44c0,.44,0,.59-1.13.59h-.38V106c.33,0,1.53,0,1.94,0s1.59,0,1.93,0v-.36h-.39c-1.08,0-1.12-.15-1.12-.59v-7"/><path class="cls-3" d="M119.88,98.1c0-.29,0-.3-.25-.3a2.74,2.74,0,0,1-2.19.79V99a3.56,3.56,0,0,0,1.58-.32v6.44c0,.44,0,.59-1.12.59h-.38V106c.33,0,1.53,0,1.94,0s1.59,0,1.92,0v-.36H121c-1.09,0-1.12-.15-1.12-.59v-7"/><path class="cls-3" d="M128.2,98.35v-.29h-3c-1.49,0-1.52-.16-1.57-.39h-.27l-.38,2.47h.27a3.37,3.37,0,0,1,.31-1.13,6.46,6.46,0,0,1,1.2-.07h2.62l-1.31,1.88a9.22,9.22,0,0,0-1.59,4.83c0,.14,0,.63.51.63s.52-.48.52-.64V105a7.47,7.47,0,0,1,.88-4.1l1.79-2.57"/><path class="cls-3" d="M115.51,151.73l1.5,1a1.61,1.61,0,0,1,.89,1.35,1.79,1.79,0,0,1-1.94,1.58,1.87,1.87,0,0,1-1.95-1.79,2.44,2.44,0,0,1,1.5-2.12m-.58-1.59a1.28,1.28,0,0,1-.65-1c0-.8.84-1.31,1.67-1.31a1.6,1.6,0,0,1,1.68,1.53,2.13,2.13,0,0,1-1.26,1.76Zm1.68,1.11a2.36,2.36,0,0,0,1.53-1.94A2,2,0,0,0,116,147.5a2.1,2.1,0,0,0-2.19,2,1.94,1.94,0,0,0,.47,1.26c.14.16.15.18,1,.78a2.65,2.65,0,0,0-1.82,2.29A2.32,2.32,0,0,0,116,156a2.42,2.42,0,0,0,2.52-2.31C118.47,152.4,117.58,151.84,116.61,151.25Z"/><path class="cls-3" d="M122.5,147.79c0-.28,0-.29-.24-.29a2.77,2.77,0,0,1-2.19.79v.35a3.58,3.58,0,0,0,1.58-.32v6.44c0,.45,0,.59-1.12.59h-.39v.36c.34,0,1.54,0,1.94,0s1.6,0,1.93,0v-.36h-.38c-1.09,0-1.13-.14-1.13-.59v-7"/><path class="cls-3" d="M158,29.3h-.27a5.24,5.24,0,0,1-.26,1.09,3.29,3.29,0,0,1-1.16.11H154c.33-.28,1.09-1.07,1.41-1.37,1.88-1.73,2.57-2.37,2.57-3.6a2.39,2.39,0,0,0-2.56-2.37,2.29,2.29,0,0,0-2.27,2.29.58.58,0,1,0,1.16.05.55.55,0,0,0-.58-.58h-.18a1.82,1.82,0,0,1,1.71-1.41,1.79,1.79,0,0,1,1.69,2,4.25,4.25,0,0,1-1.31,2.76l-2.49,2.79v.3h4.51L158,29.3"/><path class="cls-3" d="M162.24,23.46c0-.29,0-.3-.25-.3a2.74,2.74,0,0,1-2.19.79v.36a3.56,3.56,0,0,0,1.58-.32v6.44c0,.44,0,.59-1.12.59h-.38v.36c.33,0,1.53,0,1.94,0s1.59,0,1.92,0V31h-.38c-1.09,0-1.12-.15-1.12-.59v-7"/><path class="cls-3" d="M167.73,28.43a1.36,1.36,0,0,1-1.22-.87,4.27,4.27,0,0,1-.2-1.62,3.24,3.24,0,0,1,.32-1.79,1.4,1.4,0,0,1,1.23-.69,1.36,1.36,0,0,1,1.18.9,5.88,5.88,0,0,1,.25,1.84c0,1-.47,2.23-1.56,2.23m1.59-.65c0,2.92-1.3,3.53-2,3.53a1.57,1.57,0,0,1-1.26-.47h.07a.5.5,0,0,0,.53-.51.51.51,0,1,0-1,0c0,.77.61,1.29,1.69,1.29,1.54,0,3-1.64,3-4.33,0-3.32-1.39-4.15-2.47-4.15a2.64,2.64,0,0,0-2.56,2.77,2.56,2.56,0,0,0,2.38,2.74,1.76,1.76,0,0,0,1.64-1.29Z"/><path class="cls-3" d="M173.18,30.79a.6.6,0,0,0-.59-.61.6.6,0,1,0,0,1.2.6.6,0,0,0,.6-.59"/><path class="cls-3" d="M180.1,23.71v-.29h-3c-1.5,0-1.52-.16-1.57-.39h-.27l-.39,2.47h.28a2.91,2.91,0,0,1,.31-1.13,6.35,6.35,0,0,1,1.19-.07h2.62L178,26.18A9.33,9.33,0,0,0,176.4,31c0,.13,0,.63.51.63s.52-.48.52-.64v-.62a7.39,7.39,0,0,1,.88-4.1l1.79-2.57"/><path class="cls-3" d="M183.36,31.39c-.4,0-1.2-.22-1.43-1.57a14.75,14.75,0,0,1-.14-2.54,10.7,10.7,0,0,1,.2-2.66,1.47,1.47,0,0,1,1.37-1.21,1.5,1.5,0,0,1,1.42,1.35,12.62,12.62,0,0,1,.16,2.52,14.86,14.86,0,0,1-.14,2.52c-.23,1.36-1,1.59-1.44,1.59m2.52-4a6.68,6.68,0,0,0-.51-3,2.19,2.19,0,0,0-2-1.3,2.21,2.21,0,0,0-2.05,1.39,6.47,6.47,0,0,0-.47,2.88,6.27,6.27,0,0,0,.53,3,2.21,2.21,0,0,0,4-.12A6.85,6.85,0,0,0,185.88,27.43Z"/><path class="cls-3" d="M155.86,73.15c0-.28,0-.3-.25-.3a2.69,2.69,0,0,1-2.18.8V74a3.58,3.58,0,0,0,1.58-.32v6.44c0,.45,0,.59-1.13.59h-.38v.36c.33,0,1.53,0,1.94,0s1.59,0,1.93,0v-.36H157c-1.08,0-1.12-.14-1.12-.59v-7"/><path class="cls-3" d="M160,74a3.81,3.81,0,0,0,1.1.19,2.65,2.65,0,0,0,2.29-1.2.1.1,0,0,0-.1-.11s0,0-.16,0a4.21,4.21,0,0,1-1.61.33,4,4,0,0,1-1.63-.35l-.13,0c-.09,0-.09.07-.09.27v3.67c0,.22,0,.3.14.3s.08,0,.2-.17a1.89,1.89,0,0,1,1.55-.8,1.27,1.27,0,0,1,1.07.82,4,4,0,0,1,.22,1.55,3.3,3.3,0,0,1-.34,1.73,1.54,1.54,0,0,1-1.3.76,1.92,1.92,0,0,1-1.84-1.46.65.65,0,0,0,.2,0,.52.52,0,0,0,.54-.55.51.51,0,0,0-.54-.54.52.52,0,0,0-.55.59,2.25,2.25,0,0,0,2.21,2.25,2.68,2.68,0,0,0,2.62-2.74,2.5,2.5,0,0,0-2.28-2.7,2.11,2.11,0,0,0-1.57.66V74"/><path class="cls-3" d="M170,79h-.27a5,5,0,0,1-.26,1.08,3.26,3.26,0,0,1-1.16.11H166c.34-.28,1.09-1.07,1.41-1.37,1.88-1.73,2.57-2.37,2.57-3.59a2.39,2.39,0,0,0-2.56-2.38,2.29,2.29,0,0,0-2.27,2.29.58.58,0,1,0,1.16,0,.55.55,0,0,0-.58-.58h-.17a1.73,1.73,0,0,1,3.4.61A4.3,4.3,0,0,1,167.64,78l-2.5,2.8v.29h4.51L170,79"/><path class="cls-3" d="M172.92,80.48a.6.6,0,1,0-.6.59.59.59,0,0,0,.6-.59"/><path class="cls-3" d="M177.53,73.15c0-.28,0-.3-.25-.3a2.74,2.74,0,0,1-2.19.8V74a3.56,3.56,0,0,0,1.58-.32v6.44c0,.45,0,.59-1.12.59h-.38v.36c.33,0,1.53,0,1.94,0s1.59,0,1.92,0v-.36h-.38c-1.09,0-1.12-.14-1.12-.59v-7"/><path class="cls-3" d="M183.1,81.09c-.4,0-1.2-.23-1.43-1.57a14.92,14.92,0,0,1-.14-2.55,10.74,10.74,0,0,1,.2-2.66,1.4,1.4,0,0,1,2.79.14,12.62,12.62,0,0,1,.16,2.52,14.74,14.74,0,0,1-.14,2.52c-.23,1.36-1,1.6-1.44,1.6m2.52-4a6.68,6.68,0,0,0-.51-3,2.2,2.2,0,0,0-4.05.09,6.49,6.49,0,0,0-.47,2.88,6.31,6.31,0,0,0,.53,3,2.22,2.22,0,0,0,4-.13A6.83,6.83,0,0,0,185.62,77.12Z"/><path class="cls-3" d="M155.86,122.91c0-.28,0-.29-.25-.29a2.73,2.73,0,0,1-2.18.79v.35a3.58,3.58,0,0,0,1.58-.32v6.44c0,.45,0,.59-1.13.59h-.38v.36c.33,0,1.53,0,1.94,0s1.59,0,1.93,0v-.36H157c-1.08,0-1.12-.14-1.12-.59v-7"/><path class="cls-3" d="M161.43,130.85c-.39,0-1.2-.23-1.43-1.57a14.92,14.92,0,0,1-.14-2.55,10.74,10.74,0,0,1,.2-2.66,1.4,1.4,0,0,1,2.79.14,12.62,12.62,0,0,1,.16,2.52,15.86,15.86,0,0,1-.13,2.52c-.24,1.36-1,1.6-1.45,1.6m2.52-4a6.82,6.82,0,0,0-.5-3,2.21,2.21,0,0,0-4.06.09,6.64,6.64,0,0,0-.47,2.88,6.19,6.19,0,0,0,.54,3,2.21,2.21,0,0,0,4-.13A6.83,6.83,0,0,0,164,126.88Z"/><path class="cls-3" d="M166.12,123.75a3.81,3.81,0,0,0,1.1.19,2.65,2.65,0,0,0,2.28-1.2.1.1,0,0,0-.1-.11.36.36,0,0,0-.16.05,4.13,4.13,0,0,1-1.6.33,4.07,4.07,0,0,1-1.64-.35l-.12,0c-.1,0-.1.07-.1.27v3.67c0,.22,0,.3.15.3s.07,0,.2-.16a1.84,1.84,0,0,1,1.54-.81,1.27,1.27,0,0,1,1.08.82,4,4,0,0,1,.22,1.56,3.26,3.26,0,0,1-.35,1.73,1.53,1.53,0,0,1-1.29.75,1.93,1.93,0,0,1-1.85-1.46.79.79,0,0,0,.2,0,.53.53,0,0,0,.55-.55.55.55,0,1,0-1.09.05,2.25,2.25,0,0,0,2.21,2.25,2.68,2.68,0,0,0,2.62-2.74,2.51,2.51,0,0,0-2.29-2.7,2.1,2.1,0,0,0-1.56.66v-2.56"/><path class="cls-3" d="M172.92,130.24a.6.6,0,1,0-.6.59.59.59,0,0,0,.6-.59"/><path class="cls-3" d="M176.24,126.4c-.21,0-.26,0-.26.13s.06.13.29.13h.56c1,0,1.52.86,1.52,2.05,0,1.62-.84,2-1.44,2a2.22,2.22,0,0,1-2-1.1.61.61,0,0,0,.76-.61.58.58,0,0,0-.61-.6.59.59,0,0,0-.62.64,2.28,2.28,0,0,0,2.48,2,2.46,2.46,0,0,0,2.55-2.37,2.37,2.37,0,0,0-2.1-2.24,2.33,2.33,0,0,0,1.77-2.17c0-1-1-1.69-2.21-1.69s-2.15.75-2.15,1.65a.55.55,0,0,0,.57.59.56.56,0,0,0,0-1.12h-.13a2,2,0,0,1,1.69-.84c.41,0,1.21.19,1.21,1.4a2.89,2.89,0,0,1-.39,1.46,1.25,1.25,0,0,1-1.13.59l-.37,0"/><path class="cls-3" d="M183.1,130.85c-.4,0-1.2-.23-1.43-1.57a14.92,14.92,0,0,1-.14-2.55,10.74,10.74,0,0,1,.2-2.66,1.4,1.4,0,0,1,2.79.14,12.62,12.62,0,0,1,.16,2.52,14.74,14.74,0,0,1-.14,2.52c-.23,1.36-1,1.6-1.44,1.6m2.52-4a6.68,6.68,0,0,0-.51-3,2.2,2.2,0,0,0-4.05.09,6.49,6.49,0,0,0-.47,2.88,6.31,6.31,0,0,0,.53,3,2.22,2.22,0,0,0,4-.13A6.83,6.83,0,0,0,185.62,126.88Z"/><path class="cls-3" d="M161.23,173v-.29h-3c-1.5,0-1.52-.16-1.57-.39h-.27l-.39,2.47h.28a3.14,3.14,0,0,1,.3-1.13,6.52,6.52,0,0,1,1.2-.07h2.62l-1.31,1.88a9.33,9.33,0,0,0-1.58,4.83c0,.14,0,.63.51.63s.52-.48.52-.64v-.62a7.48,7.48,0,0,1,.87-4.1l1.8-2.57"/><path class="cls-3" d="M166.91,178.58h-.27a5,5,0,0,1-.26,1.09,3.26,3.26,0,0,1-1.16.11h-2.29c.33-.28,1.09-1.07,1.41-1.37,1.88-1.73,2.57-2.37,2.57-3.59a2.39,2.39,0,0,0-2.56-2.38,2.29,2.29,0,0,0-2.27,2.29.58.58,0,1,0,1.16.05.55.55,0,0,0-.58-.58h-.17a1.72,1.72,0,0,1,3.39.61,4.25,4.25,0,0,1-1.31,2.75l-2.49,2.79v.3h4.51l.32-2.08"/><path class="cls-3" d="M169.86,180.07a.6.6,0,0,0-.59-.61.6.6,0,1,0,0,1.2.6.6,0,0,0,.6-.59"/><path class="cls-3" d="M173.85,177.71a1.36,1.36,0,0,1-1.23-.87,4.49,4.49,0,0,1-.19-1.62,3.24,3.24,0,0,1,.32-1.79,1.32,1.32,0,0,1,2.41.21,6.11,6.11,0,0,1,.24,1.84c0,1-.47,2.23-1.55,2.23m1.58-.64c0,2.91-1.3,3.52-2,3.52a1.57,1.57,0,0,1-1.26-.47h.07a.5.5,0,0,0,.53-.51.49.49,0,0,0-.5-.51.49.49,0,0,0-.52.54c0,.76.62,1.28,1.69,1.28,1.55,0,3-1.64,3-4.32,0-3.33-1.38-4.16-2.47-4.16a2.64,2.64,0,0,0-2.56,2.77A2.56,2.56,0,0,0,173.8,178a1.76,1.76,0,0,0,1.63-1.29Z"/><path class="cls-3" d="M180,180.67c-.4,0-1.2-.22-1.43-1.57a14.75,14.75,0,0,1-.14-2.54,10.74,10.74,0,0,1,.2-2.66,1.47,1.47,0,0,1,1.37-1.21,1.51,1.51,0,0,1,1.42,1.35,12.62,12.62,0,0,1,.16,2.52,14.74,14.74,0,0,1-.14,2.52c-.23,1.36-1,1.59-1.44,1.59m2.52-4a6.68,6.68,0,0,0-.51-3,2.2,2.2,0,0,0-4.05.09,6.49,6.49,0,0,0-.47,2.88,6.25,6.25,0,0,0,.53,3,2.21,2.21,0,0,0,4-.12A7,7,0,0,0,182.56,176.71Z"/><path class="cls-3" d="M8.6,3.13H9.7c.23,0,.35,0,.35-.21s-.07-.13-.31-.13H8.69l.44-1.74a.72.72,0,0,0,0-.27.3.3,0,0,0-.31-.3A.47.47,0,0,0,8.4.89l-.46,1.9H6.82c-.24,0-.35,0-.35.23s.08.11.31.11H7.84L7.06,6.28A3.1,3.1,0,0,0,6.93,7,1,1,0,0,0,8,8.05c1.2,0,1.84-1.75,1.84-1.83s0-.11-.12-.11a.09.09,0,0,0-.09,0l-.11.22C9.26,7,8.71,7.81,8,7.81c-.36,0-.38-.3-.38-.56a1.74,1.74,0,0,1,0-.38L8.6,3.13"/><path class="cls-3" d="M21.86,6.28c.16,0,.38,0,.38-.21s-.21-.23-.38-.23h-7c-.16,0-.38,0-.38.21s.21.23.38.23h7m0-2.22c.16,0,.38,0,.38-.21s-.21-.23-.38-.23h-7c-.16,0-.38,0-.38.22s.21.22.38.22Z"/><path class="cls-3" d="M29.22,7.94c-.38,0-1.16-.22-1.38-1.51A13.87,13.87,0,0,1,27.7,4a9.92,9.92,0,0,1,.2-2.56A1.42,1.42,0,0,1,29.22.24a1.44,1.44,0,0,1,1.37,1.3A12.54,12.54,0,0,1,30.74,4a14.8,14.8,0,0,1-.13,2.43c-.22,1.31-1,1.54-1.39,1.54m2.43-3.83a6.5,6.5,0,0,0-.49-2.86,2.13,2.13,0,0,0-3.91.08,6.45,6.45,0,0,0-.45,2.78A6,6,0,0,0,27.31,7a2.14,2.14,0,0,0,3.89-.11A6.71,6.71,0,0,0,31.65,4.11Z"/><path class="cls-3" d="M58.9,3.37H60c.23,0,.35,0,.35-.21S60.28,3,60,3H59l.44-1.74a.73.73,0,0,0,0-.28.3.3,0,0,0-.31-.3.49.49,0,0,0-.47.42L58.24,3H57.12c-.24,0-.35,0-.35.22s.08.12.31.12h1.06l-.78,3.15a3.4,3.4,0,0,0-.14.69,1,1,0,0,0,1.06,1.07c1.21,0,1.85-1.74,1.85-1.82A.11.11,0,0,0,60,6.35a.09.09,0,0,0-.09.05s0,0-.11.21c-.25.6-.8,1.44-1.49,1.44-.36,0-.38-.3-.38-.56a2.4,2.4,0,0,1,0-.39l.93-3.73"/><path class="cls-3" d="M72.16,6.52c.16,0,.38,0,.38-.21s-.21-.23-.38-.23h-7c-.16,0-.38,0-.38.21s.21.23.38.23h7m0-2.22c.16,0,.38,0,.38-.21s-.21-.23-.38-.23h-7c-.16,0-.38,0-.38.22s.21.22.38.22Z"/><path class="cls-3" d="M79.94.52c0-.27,0-.28-.24-.28A2.64,2.64,0,0,1,77.59,1v.35A3.45,3.45,0,0,0,79.12,1V7.25c0,.43,0,.57-1.09.57h-.37v.34c.33,0,1.48,0,1.88,0s1.53,0,1.86,0V7.82H81c-1,0-1.09-.14-1.09-.57V.52"/><path class="cls-3" d="M108.22,3.2h1.1c.23,0,.35,0,.35-.21s-.07-.14-.31-.14h-1l.44-1.74a.69.69,0,0,0,0-.27.3.3,0,0,0-.31-.3A.49.49,0,0,0,108,1l-.46,1.89h-1.12c-.24,0-.35,0-.35.23s.08.12.31.12h1.06l-.78,3.15a3.16,3.16,0,0,0-.14.69,1,1,0,0,0,1.06,1.07c1.21,0,1.85-1.74,1.85-1.82a.11.11,0,0,0-.12-.11.09.09,0,0,0-.09.05s0,0-.11.21c-.25.6-.8,1.43-1.49,1.43-.36,0-.38-.3-.38-.56a2.3,2.3,0,0,1,0-.38l.93-3.73"/><path class="cls-3" d="M121.48,6.35c.16,0,.38,0,.38-.22s-.21-.22-.38-.22h-7c-.16,0-.38,0-.38.21s.21.23.38.23h7m0-2.22c.16,0,.38,0,.38-.21s-.21-.23-.38-.23h-7c-.16,0-.38,0-.38.21s.21.23.38.23Z"/><path class="cls-3" d="M131.07,6h-.26a4.34,4.34,0,0,1-.25,1,3,3,0,0,1-1.12.11h-2.21c.33-.28,1-1,1.36-1.33,1.82-1.67,2.48-2.29,2.48-3.47A2.29,2.29,0,0,0,128.61.07a2.21,2.21,0,0,0-2.2,2.2.56.56,0,1,0,1.12,0,.52.52,0,0,0-.56-.56h-.16a1.66,1.66,0,0,1,3.27.58A4.11,4.11,0,0,1,128.82,5l-2.41,2.7V8h4.35l.31-2"/><path class="cls-3" d="M158.17,3.55h1.1c.23,0,.35,0,.35-.22s-.08-.13-.31-.13h-1.05l.44-1.74a.72.72,0,0,0,.05-.27.3.3,0,0,0-.31-.3.47.47,0,0,0-.47.41l-.46,1.9h-1.12c-.24,0-.35,0-.35.23s.08.12.31.12h1.06l-.79,3.14a3.89,3.89,0,0,0-.13.69,1,1,0,0,0,1.06,1.08c1.21,0,1.85-1.74,1.85-1.83a.11.11,0,0,0-.12-.11.09.09,0,0,0-.09.05s0,0-.11.22c-.25.59-.8,1.43-1.49,1.43-.36,0-.38-.3-.38-.56a2.3,2.3,0,0,1,0-.38l.93-3.73"/><path class="cls-3" d="M171.42,6.69c.17,0,.39,0,.39-.21s-.21-.23-.39-.23h-7c-.16,0-.38,0-.38.22s.2.22.38.22h7m0-2.22c.17,0,.39,0,.39-.21S171.6,4,171.42,4h-7c-.16,0-.38,0-.38.22s.2.22.38.22Z"/><path class="cls-3" d="M178.07,4.06c-.2,0-.25,0-.25.13s.06.12.27.12h.55c1,0,1.47.83,1.47,2,0,1.56-.81,2-1.39,2a2.11,2.11,0,0,1-1.9-1.07.58.58,0,0,0,.73-.58.59.59,0,1,0-1.18,0,2.19,2.19,0,0,0,2.38,1.93,2.39,2.39,0,0,0,2.47-2.29,2.28,2.28,0,0,0-2-2.16A2.25,2.25,0,0,0,180.9,2c0-.94-1-1.63-2.14-1.63A1.86,1.86,0,0,0,176.69,2a.53.53,0,0,0,.55.57.52.52,0,0,0,.53-.54.52.52,0,0,0-.55-.54h-.13A2,2,0,0,1,178.73.7c.39,0,1.16.17,1.16,1.34a2.64,2.64,0,0,1-.38,1.41,1.19,1.19,0,0,1-1.08.57l-.36,0"/><path class="cls-3" d="M196.37,29.31c.16,0,.38,0,.38-.21s-.21-.23-.38-.23h-7c-.16,0-.38,0-.38.22s.21.22.38.22h7m0-2.21c.16,0,.38,0,.38-.22s-.21-.22-.38-.22h-7c-.16,0-.38,0-.38.21s.21.23.38.23Z"/><path class="cls-3" d="M204.25,23.32c0-.28,0-.29-.24-.29a2.6,2.6,0,0,1-2.11.77v.34a3.45,3.45,0,0,0,1.53-.31V30c0,.43,0,.57-1.08.57H202V31c.33,0,1.48,0,1.88,0s1.53,0,1.86,0v-.35h-.37c-1.05,0-1.09-.14-1.09-.57V23.32"/><path class="cls-3" d="M209.53,31c-.38,0-1.16-.21-1.38-1.51A13.82,13.82,0,0,1,208,27a10.47,10.47,0,0,1,.19-2.56,1.43,1.43,0,0,1,1.33-1.17,1.45,1.45,0,0,1,1.37,1.3,12.54,12.54,0,0,1,.15,2.43,14.74,14.74,0,0,1-.13,2.43c-.22,1.32-1,1.54-1.39,1.54M212,27.15a6.47,6.47,0,0,0-.49-2.86,2.12,2.12,0,0,0-3.91.08,6.39,6.39,0,0,0-.45,2.78,6,6,0,0,0,.51,2.87,2.13,2.13,0,0,0,1.91,1.19,2.15,2.15,0,0,0,2-1.31A6.64,6.64,0,0,0,212,27.15Z"/><path class="cls-3" d="M215.43,31c-.38,0-1.16-.21-1.38-1.51a13.82,13.82,0,0,1-.14-2.46,10.47,10.47,0,0,1,.19-2.56,1.43,1.43,0,0,1,1.33-1.17,1.45,1.45,0,0,1,1.37,1.3A12.54,12.54,0,0,1,217,27a14.74,14.74,0,0,1-.13,2.43c-.22,1.32-1,1.54-1.39,1.54m2.43-3.82a6.47,6.47,0,0,0-.49-2.86,2.12,2.12,0,0,0-3.91.08,6.39,6.39,0,0,0-.45,2.78,6,6,0,0,0,.51,2.87,2.13,2.13,0,0,0,1.91,1.19,2.15,2.15,0,0,0,2-1.31A6.64,6.64,0,0,0,217.86,27.15Z"/><path class="cls-3" d="M222.48,30.27a1,1,0,0,0,1,.81,1,1,0,0,0,.85-.66,5.56,5.56,0,0,0,.36-1.16.11.11,0,0,0-.12-.11c-.1,0-.12.06-.16.24-.22.82-.43,1.45-.91,1.45s-.36-.39-.36-.55a3.39,3.39,0,0,1,.16-.89c.08-.32.16-.64.24-1l.49-1.94a1.46,1.46,0,0,0,.08-.36.3.3,0,0,0-.32-.3c-.35,0-.43.3-.5.6-.12.46-.77,3-.85,3.44,0,0-.48,1-1.35,1-.62,0-.74-.54-.74-1a7.88,7.88,0,0,1,.65-2.43,2.11,2.11,0,0,0,.2-.77.92.92,0,0,0-.94-1c-1.1,0-1.54,1.73-1.54,1.83a.12.12,0,0,0,.13.1c.11,0,.12,0,.17-.21.28-1,.75-1.48,1.2-1.48.12,0,.31,0,.31.4a3.26,3.26,0,0,1-.31,1.1,6.48,6.48,0,0,0-.58,2.23,1.3,1.3,0,0,0,1.41,1.41,1.77,1.77,0,0,0,1.41-.81"/><path class="cls-3" d="M227.13,23.31c.63,0,1,.46,1,1.29,0,1-.56,1.29-1,1.29a1.61,1.61,0,0,1-1.31-.58.44.44,0,0,0,.48-.45.44.44,0,1,0-.87,0c0,.75.81,1.25,1.71,1.25A1.67,1.67,0,0,0,229,24.6a1.56,1.56,0,0,0-1.33-1.44,1.54,1.54,0,0,0,1.09-1.4c0-.63-.71-1.08-1.54-1.08s-1.49.46-1.49,1.06a.41.41,0,1,0,.81,0,.43.43,0,0,0-.43-.42,1.43,1.43,0,0,1,1.09-.46.78.78,0,0,1,.81.88,1.55,1.55,0,0,1-.34,1c-.24.25-.43.26-.91.3-.15,0-.22,0-.22.11s.08.12.21.12h.4"/><path class="cls-3" d="M196.32,79.18c.17,0,.38,0,.38-.22s-.2-.22-.38-.22h-7c-.17,0-.38,0-.38.21s.2.23.38.23h7m0-2.22c.17,0,.38,0,.38-.21s-.2-.23-.38-.23h-7c-.17,0-.38,0-.38.21s.2.23.38.23Z"/><path class="cls-3" d="M204.21,73.18c0-.27,0-.28-.24-.28a2.66,2.66,0,0,1-2.11.76V74a3.41,3.41,0,0,0,1.52-.31v6.22c0,.42,0,.57-1.08.57h-.37v.34c.32,0,1.48,0,1.87,0s1.54,0,1.86,0v-.34h-.37c-1,0-1.08-.15-1.08-.57V73.18"/><path class="cls-3" d="M209.48,80.83c-.38,0-1.15-.21-1.38-1.51a14.8,14.8,0,0,1-.13-2.46,10.51,10.51,0,0,1,.19-2.56,1.42,1.42,0,0,1,1.32-1.17,1.45,1.45,0,0,1,1.37,1.3,11.77,11.77,0,0,1,.16,2.43,14.92,14.92,0,0,1-.13,2.44c-.23,1.31-1,1.53-1.4,1.53M211.91,77a6.47,6.47,0,0,0-.48-2.86,2.13,2.13,0,0,0-3.91.08,6.23,6.23,0,0,0-.46,2.78,6,6,0,0,0,.52,2.87,2.1,2.1,0,0,0,1.9,1.19,2.13,2.13,0,0,0,2-1.31A6.64,6.64,0,0,0,211.91,77Z"/><path class="cls-3" d="M215.38,80.83c-.38,0-1.15-.21-1.38-1.51a14.8,14.8,0,0,1-.13-2.46,10.51,10.51,0,0,1,.19-2.56,1.42,1.42,0,0,1,1.32-1.17,1.45,1.45,0,0,1,1.37,1.3,11.77,11.77,0,0,1,.16,2.43,14.92,14.92,0,0,1-.13,2.44c-.23,1.31-1,1.53-1.4,1.53M217.81,77a6.47,6.47,0,0,0-.48-2.86,2.13,2.13,0,0,0-3.91.08A6.23,6.23,0,0,0,213,77a6,6,0,0,0,.52,2.87,2.1,2.1,0,0,0,1.9,1.19,2.13,2.13,0,0,0,2-1.31A6.64,6.64,0,0,0,217.81,77Z"/><path class="cls-3" d="M222.44,80.13a1,1,0,0,0,1,.81,1,1,0,0,0,.86-.65,6.31,6.31,0,0,0,.36-1.17.11.11,0,0,0-.12-.11c-.11,0-.12.06-.17.24-.21.82-.43,1.45-.9,1.45s-.36-.39-.36-.54a3.26,3.26,0,0,1,.15-.9c.09-.32.17-.64.24-1l.49-1.94a1.46,1.46,0,0,0,.08-.36.3.3,0,0,0-.32-.3c-.34,0-.43.3-.5.6-.12.47-.76,3-.85,3.45,0,0-.47,1-1.34,1-.62,0-.74-.53-.74-1a7.9,7.9,0,0,1,.64-2.44,1.94,1.94,0,0,0,.21-.77.92.92,0,0,0-1-1c-1.09,0-1.53,1.72-1.53,1.82a.12.12,0,0,0,.13.11c.1,0,.12,0,.16-.22.29-1,.75-1.48,1.21-1.48.12,0,.31,0,.31.4a3.3,3.3,0,0,1-.31,1.11,6.34,6.34,0,0,0-.59,2.22A1.3,1.3,0,0,0,221,80.94a1.81,1.81,0,0,0,1.42-.81"/><path class="cls-3" d="M227.31,74.2c.13-.12.47-.38.59-.49a2.17,2.17,0,0,0,1-1.61,1.62,1.62,0,0,0-1.78-1.56A1.51,1.51,0,0,0,225.5,72a.4.4,0,0,0,.42.44.41.41,0,0,0,.41-.42c0-.41-.4-.41-.49-.41A1.23,1.23,0,0,1,227,70.8a1.17,1.17,0,0,1,1.12,1.3c0,.82-.58,1.43-1.52,2.39l-1,1c-.09.09-.09.1-.09.3h3.13l.23-1.42h-.24a2.58,2.58,0,0,1-.19.71,3,3,0,0,1-.77.06h-1.42l1.07-1"/><path class="cls-3" d="M233.26,79.4a1,1,0,0,1-.23.46,2,2,0,0,1-1.34.84c-.49,0-.76-.44-.76-1.14a8.74,8.74,0,0,1,.59-2.49c.41-.84,1-1.27,1.43-1.27.79,0,.94,1,.94,1.08s0,.16,0,.19l-.59,2.33m2.41-6.55a1,1,0,0,0,0-.18c0-.12-.12-.12-.15-.12l-.65.06-.6,0c-.3,0-.38,0-.38.25s.1.12.26.12c.59,0,.6.1.6.22a1,1,0,0,1,0,.21L234,76.35a1.2,1.2,0,0,0-1.08-.78c-1.34,0-2.8,1.74-2.8,3.5,0,1.18.69,1.87,1.5,1.87A2.2,2.2,0,0,0,233.2,80a1,1,0,0,0,1,.91,1,1,0,0,0,.86-.64,6.24,6.24,0,0,0,.36-1.18.11.11,0,0,0-.12-.11c-.11,0-.12.06-.17.24-.18.7-.41,1.45-.89,1.45s-.37-.31-.37-.54a2.82,2.82,0,0,1,.08-.64Z"/><path class="cls-3" d="M196.29,129.27c.17,0,.39,0,.39-.21s-.21-.23-.39-.23h-7c-.16,0-.38,0-.38.22s.2.22.38.22h7m0-2.21c.17,0,.39,0,.39-.22s-.21-.23-.39-.23h-7c-.16,0-.38,0-.38.22s.2.23.38.23Z"/><path class="cls-3" d="M204.18,123.28c0-.28,0-.29-.24-.29a2.64,2.64,0,0,1-2.11.76v.35a3.45,3.45,0,0,0,1.53-.31V130c0,.43,0,.57-1.09.57h-.37v.35c.33,0,1.48,0,1.88,0s1.53,0,1.86,0v-.35h-.38c-1,0-1.08-.14-1.08-.57v-6.72"/><path class="cls-3" d="M209.46,130.93c-.39,0-1.16-.22-1.39-1.51a14.93,14.93,0,0,1-.13-2.46,10.43,10.43,0,0,1,.19-2.56,1.36,1.36,0,0,1,2.7.13A12.54,12.54,0,0,1,211,127a14.8,14.8,0,0,1-.13,2.43c-.23,1.31-1,1.54-1.39,1.54m2.43-3.83a6.5,6.5,0,0,0-.49-2.86,2.12,2.12,0,0,0-3.91.09,6.37,6.37,0,0,0-.45,2.77,6,6,0,0,0,.51,2.88,2.13,2.13,0,0,0,1.91,1.19,2.15,2.15,0,0,0,2-1.31A6.88,6.88,0,0,0,211.89,127.1Z"/><path class="cls-3" d="M215.36,130.93c-.39,0-1.16-.22-1.39-1.51a14.93,14.93,0,0,1-.13-2.46,10.43,10.43,0,0,1,.19-2.56,1.36,1.36,0,0,1,2.7.13,12.54,12.54,0,0,1,.15,2.43,14.8,14.8,0,0,1-.13,2.43c-.23,1.31-1,1.54-1.39,1.54m2.43-3.83a6.5,6.5,0,0,0-.49-2.86,2.12,2.12,0,0,0-3.91.09,6.37,6.37,0,0,0-.45,2.77,6,6,0,0,0,.51,2.88,2.13,2.13,0,0,0,1.91,1.19,2.15,2.15,0,0,0,2-1.31A6.88,6.88,0,0,0,217.79,127.1Z"/><path class="cls-3" d="M222.41,130.23a1,1,0,0,0,1,.81,1,1,0,0,0,.85-.66,5.41,5.41,0,0,0,.36-1.17c0-.06,0-.1-.12-.1s-.12.06-.16.23c-.22.83-.43,1.46-.91,1.46s-.36-.39-.36-.55a3.39,3.39,0,0,1,.16-.89l.24-1,.48-1.94a1.42,1.42,0,0,0,.09-.36.31.31,0,0,0-.32-.3c-.35,0-.43.3-.5.6-.12.46-.77,3-.85,3.44,0,0-.48,1-1.35,1-.62,0-.74-.54-.74-1a7.88,7.88,0,0,1,.65-2.43,2.11,2.11,0,0,0,.2-.78.92.92,0,0,0-.94-1c-1.1,0-1.54,1.73-1.54,1.83a.12.12,0,0,0,.13.1c.11,0,.12,0,.17-.21.28-1,.75-1.48,1.2-1.48.12,0,.31,0,.31.39a3.24,3.24,0,0,1-.31,1.11,6.48,6.48,0,0,0-.58,2.23A1.29,1.29,0,0,0,221,131a1.82,1.82,0,0,0,1.42-.81"/><path class="cls-3" d="M228.64,129.5a1,1,0,0,1-.23.45,2,2,0,0,1-1.35.85c-.49,0-.76-.44-.76-1.15a8.49,8.49,0,0,1,.6-2.49c.4-.83,1-1.26,1.43-1.26.78,0,.94,1,.94,1.07a1.8,1.8,0,0,1-.05.19l-.58,2.34m2.4-6.56a.48.48,0,0,0,0-.18c0-.12-.12-.12-.14-.12s-.6,0-.66.07l-.59,0c-.3,0-.39,0-.39.25s.1.12.26.12c.59,0,.6.11.6.23a.94.94,0,0,1,0,.2l-.73,2.9a1.18,1.18,0,0,0-1.07-.79c-1.35,0-2.81,1.74-2.81,3.51,0,1.18.7,1.87,1.51,1.87a2.27,2.27,0,0,0,1.55-.91,1,1,0,0,0,1,.91,1,1,0,0,0,.86-.65,6,6,0,0,0,.36-1.18c0-.06-.05-.1-.12-.1s-.12.06-.17.23c-.18.71-.4,1.46-.89,1.46s-.37-.31-.37-.55a2.71,2.71,0,0,1,.08-.63Z"/><path class="cls-3" d="M233.39,124.3l.59-.5a2.2,2.2,0,0,0,1-1.61,1.63,1.63,0,0,0-1.79-1.56,1.52,1.52,0,0,0-1.58,1.43.41.41,0,0,0,.42.45.41.41,0,0,0,.41-.42.42.42,0,0,0-.49-.42,1.22,1.22,0,0,1,1.15-.77,1.16,1.16,0,0,1,1.12,1.29c0,.83-.58,1.43-1.52,2.39l-1,1c-.09.08-.09.1-.09.3h3.14l.23-1.42h-.25a2.58,2.58,0,0,1-.18.7,2.66,2.66,0,0,1-.78.07h-1.41l1.07-1"/><path class="cls-3" d="M193.33,179c.16,0,.38,0,.38-.21s-.2-.23-.38-.23h-7c-.17,0-.38,0-.38.22s.2.22.38.22h7m0-2.21c.16,0,.38,0,.38-.22s-.2-.22-.38-.22h-7c-.17,0-.38,0-.38.21s.2.23.38.23Z"/><path class="cls-3" d="M201.11,173c0-.28,0-.29-.23-.29a2.67,2.67,0,0,1-2.11.76v.35a3.41,3.41,0,0,0,1.52-.31v6.21c0,.43,0,.57-1.08.57h-.37v.35c.32,0,1.48,0,1.87,0s1.54,0,1.86,0v-.35h-.37c-1,0-1.09-.14-1.09-.57V173"/><path class="cls-3" d="M206.49,180.69c-.38,0-1.16-.21-1.38-1.51a14.87,14.87,0,0,1-.13-2.46,10.43,10.43,0,0,1,.19-2.56,1.42,1.42,0,0,1,1.32-1.17,1.44,1.44,0,0,1,1.37,1.3,11.77,11.77,0,0,1,.16,2.43,13.7,13.7,0,0,1-.14,2.43c-.22,1.31-1,1.54-1.39,1.54m2.43-3.83a6.5,6.5,0,0,0-.49-2.86,2.12,2.12,0,0,0-1.93-1.25,2.15,2.15,0,0,0-2,1.34,6.37,6.37,0,0,0-.45,2.77,6,6,0,0,0,.51,2.88,2.14,2.14,0,0,0,3.89-.12A6.69,6.69,0,0,0,208.92,176.86Z"/><path class="cls-3" d="M212.39,180.69c-.38,0-1.16-.21-1.38-1.51a14.87,14.87,0,0,1-.13-2.46,10.43,10.43,0,0,1,.19-2.56,1.42,1.42,0,0,1,1.32-1.17,1.44,1.44,0,0,1,1.37,1.3,11.77,11.77,0,0,1,.16,2.43,13.7,13.7,0,0,1-.14,2.43c-.22,1.31-1,1.54-1.39,1.54m2.43-3.83a6.5,6.5,0,0,0-.49-2.86,2.12,2.12,0,0,0-1.93-1.25,2.15,2.15,0,0,0-2,1.34,6.37,6.37,0,0,0-.45,2.77,6,6,0,0,0,.51,2.88,2.14,2.14,0,0,0,3.89-.12A6.69,6.69,0,0,0,214.82,176.86Z"/><path class="cls-3" d="M218.87,179.26a1,1,0,0,1-.23.45,2,2,0,0,1-1.34.85c-.49,0-.77-.44-.77-1.15a8.49,8.49,0,0,1,.6-2.49c.4-.83,1-1.26,1.43-1.26.79,0,.94,1,.94,1.07a.77.77,0,0,1-.05.19l-.58,2.34m2.41-6.56a.86.86,0,0,0,0-.17c0-.12-.12-.12-.14-.12s-.6,0-.66.06l-.59,0c-.3,0-.38,0-.38.25s.09.12.26.12c.58,0,.6.11.6.23a.77.77,0,0,1,0,.2l-.73,2.9a1.18,1.18,0,0,0-1.07-.79c-1.35,0-2.8,1.74-2.8,3.51,0,1.18.69,1.87,1.5,1.87a2.23,2.23,0,0,0,1.55-.91,1,1,0,0,0,1,.91,1,1,0,0,0,.86-.65,5.78,5.78,0,0,0,.35-1.18c0-.06,0-.1-.12-.1s-.11.06-.16.24c-.18.7-.41,1.45-.9,1.45-.34,0-.37-.31-.37-.55a2.42,2.42,0,0,1,.09-.63Z"/><path class="cls-3" d="M223.49,173c.63,0,1,.46,1,1.3,0,1-.57,1.29-1,1.29a1.61,1.61,0,0,1-1.31-.58.45.45,0,0,0,.49-.45.43.43,0,0,0-.44-.44.42.42,0,0,0-.44.46c0,.75.81,1.25,1.72,1.25a1.67,1.67,0,0,0,1.79-1.53,1.56,1.56,0,0,0-1.33-1.44,1.54,1.54,0,0,0,1.1-1.4c0-.63-.72-1.09-1.55-1.09s-1.49.47-1.49,1.07a.39.39,0,0,0,.41.42.39.39,0,0,0,.4-.41.42.42,0,0,0-.43-.41,1.41,1.41,0,0,1,1.09-.46.77.77,0,0,1,.81.88,1.55,1.55,0,0,1-.34,1c-.24.25-.42.26-.91.29-.15,0-.21,0-.21.12s.07.11.2.11h.4"/></svg>