<?xml version="1.0" encoding="utf-8"?>
<!-- Generator: Adobe Illustrator 26.0.2, SVG Export Plug-In . SVG Version: 6.00 Build 0)  -->
<svg version="1.1" id="Layer_1" xmlns="http://www.w3.org/2000/svg" xmlns:xlink="http://www.w3.org/1999/xlink" x="0px" y="0px"
	 viewBox="0 0 150.86 55.92" style="enable-background:new 0 0 150.86 55.92;" xml:space="preserve">
<style type="text/css">
	.st0{fill:none;stroke:#486AFB;stroke-miterlimit:10;}
	.st1{fill:#486AFB;}
</style>
<circle class="st0" cx="96.13" cy="44.09" r="11"/>
<circle class="st0" cx="53.07" cy="11.91" r="11"/>
<circle class="st0" cx="11.5" cy="11.74" r="11"/>
<g>
	<g>
		<line class="st0" x1="24.1" y1="44.23" x2="36.93" y2="44.23"/>
		<g>
			<path class="st1" d="M39.94,44.23c-1.42,0.53-3.18,1.43-4.27,2.38l0.86-2.38l-0.86-2.38C36.76,42.81,38.52,43.71,39.94,44.23z"/>
		</g>
	</g>
</g>
<circle class="st0" cx="11.5" cy="44.23" r="11"/>
<g>
	<g>
		<line class="st0" x1="22.44" y1="20.08" x2="38.91" y2="35.39"/>
		<g>
			<path class="st1" d="M41.12,37.44c-1.4-0.58-3.3-1.12-4.75-1.17l2.25-1.16l0.99-2.33C39.76,34.23,40.44,36.09,41.12,37.44z"/>
		</g>
	</g>
</g>
<path class="st1" d="M10.95,11.41c-0.11,0.46-0.32,1.3-0.7,2.02C9.9,14.1,9.53,14.59,9.1,14.59c-0.33,0-0.54-0.29-0.54-1.21
	c0-0.42,0.06-0.99,0.32-1.97H10.95 M8.96,11.09c0.17-0.64,0.37-1.43,0.76-2.14c0.27-0.49,0.64-1.04,1.08-1.04
	c0.49,0,0.55,0.64,0.55,1.2c0,0.49-0.08,0.99-0.32,1.98H8.96z M12.01,9.73c0-0.65-0.18-2.04-1.19-2.04c-1.38,0-2.91,2.8-2.91,5.08
	c0,0.93,0.29,2.04,1.19,2.04C10.5,14.81,12.01,11.95,12.01,9.73z"/>
<path class="st1" d="M52.31,11.37c-0.11,0.46-0.32,1.3-0.7,2.02c-0.35,0.68-0.72,1.16-1.15,1.16c-0.33,0-0.54-0.29-0.54-1.21
	c0-0.42,0.06-0.99,0.32-1.97H52.31 M50.32,11.06c0.17-0.64,0.37-1.43,0.76-2.14c0.27-0.49,0.64-1.04,1.08-1.04
	c0.49,0,0.55,0.64,0.55,1.2c0,0.49-0.08,0.99-0.32,1.98H50.32z M53.37,9.69c0-0.65-0.18-2.04-1.19-2.04c-1.38,0-2.91,2.8-2.91,5.08
	c0,0.93,0.29,2.04,1.19,2.04C51.86,14.77,53.37,11.92,53.37,9.69z"/>
<circle class="st0" cx="53.07" cy="44.42" r="11"/>
<path class="st1" d="M51.29,45.54c-0.05,0.18-0.05,0.2-0.2,0.37c-0.44,0.55-0.84,0.7-1.12,0.7c-0.5,0-0.64-0.55-0.64-0.93
	c0-0.5,0.32-1.72,0.55-2.17c0.31-0.59,0.76-0.95,1.15-0.95c0.65,0,0.78,0.81,0.78,0.87c0,0.06-0.02,0.12-0.03,0.17L51.29,45.54
	 M51.94,42.97c-0.18-0.37-0.47-0.64-0.91-0.64c-1.16,0-2.39,1.46-2.39,2.91c0,0.93,0.55,1.59,1.32,1.59c0.2,0,0.7-0.04,1.29-0.75
	c0.08,0.42,0.43,0.75,0.9,0.75c0.35,0,0.58-0.23,0.73-0.55c0.17-0.36,0.3-0.96,0.3-0.98c0-0.1-0.09-0.1-0.12-0.1
	c-0.1,0-0.11,0.04-0.14,0.18c-0.17,0.65-0.35,1.23-0.75,1.23c-0.27,0-0.3-0.26-0.3-0.46c0-0.22,0.02-0.3,0.13-0.74
	c0.11-0.42,0.13-0.52,0.22-0.89l0.36-1.39c0.07-0.28,0.07-0.3,0.07-0.34c0-0.17-0.12-0.27-0.29-0.27
	C52.12,42.53,51.97,42.75,51.94,42.97z"/>
<path class="st1" d="M55.89,43.75c0-0.19-0.01-0.2-0.21-0.2C55.22,44,54.59,44,54.3,44v0.25c0.17,0,0.63,0,1.02-0.2v3.59
	c0,0.23,0,0.32-0.7,0.32h-0.27v0.25c0.13-0.01,0.99-0.03,1.25-0.03c0.22,0,1.1,0.02,1.26,0.03v-0.25h-0.27c-0.7,0-0.7-0.09-0.7-0.32
	V43.75"/>
<path class="st1" d="M12.06,43.36c0.06-0.26,0.29-1.17,0.98-1.17c0.05,0,0.29,0,0.5,0.13c-0.28,0.05-0.48,0.3-0.48,0.54
	c0,0.16,0.11,0.35,0.38,0.35c0.22,0,0.54-0.18,0.54-0.57c0-0.52-0.59-0.66-0.92-0.66c-0.58,0-0.92,0.53-1.04,0.75
	c-0.25-0.65-0.79-0.75-1.07-0.75c-1.03,0-1.6,1.28-1.6,1.53c0,0.1,0.1,0.1,0.12,0.1c0.08,0,0.11-0.02,0.13-0.11
	c0.34-1.05,0.99-1.3,1.33-1.3c0.19,0,0.54,0.09,0.54,0.67c0,0.31-0.17,0.97-0.54,2.36c-0.16,0.62-0.51,1.03-0.94,1.03
	c-0.06,0-0.29,0-0.5-0.13c0.25-0.05,0.47-0.26,0.47-0.54c0-0.27-0.22-0.35-0.37-0.35c-0.3,0-0.55,0.26-0.55,0.58
	c0,0.46,0.5,0.66,0.93,0.66c0.66,0,1.01-0.7,1.04-0.75c0.12,0.37,0.48,0.75,1.07,0.75c1.02,0,1.59-1.28,1.59-1.53
	c0-0.1-0.09-0.1-0.12-0.1c-0.09,0-0.11,0.04-0.13,0.11c-0.33,1.06-1,1.3-1.32,1.3c-0.39,0-0.55-0.32-0.55-0.66
	c0-0.22,0.06-0.44,0.17-0.87L12.06,43.36"/>
<path class="st1" d="M14.5,11.8c0-0.19-0.01-0.2-0.21-0.2c-0.45,0.44-1.09,0.45-1.38,0.45v0.25c0.17,0,0.63,0,1.02-0.2v3.59
	c0,0.23,0,0.32-0.7,0.32h-0.27v0.25c0.13-0.01,0.99-0.03,1.25-0.03c0.22,0,1.1,0.02,1.26,0.03v-0.25H15.2c-0.7,0-0.7-0.09-0.7-0.32
	V11.8"/>
<path class="st1" d="M57.1,14.88h-0.24c-0.02,0.15-0.09,0.57-0.18,0.64c-0.06,0.04-0.6,0.04-0.7,0.04h-1.29
	c0.74-0.65,0.98-0.85,1.41-1.18c0.52-0.42,1-0.85,1-1.52c0-0.85-0.75-1.37-1.65-1.37c-0.87,0-1.46,0.61-1.46,1.26
	c0,0.36,0.3,0.39,0.37,0.39c0.17,0,0.37-0.12,0.37-0.37c0-0.13-0.05-0.37-0.41-0.37c0.22-0.5,0.7-0.65,1.03-0.65
	c0.7,0,1.07,0.55,1.07,1.12c0,0.61-0.44,1.1-0.66,1.35l-1.7,1.67c-0.07,0.06-0.07,0.08-0.07,0.27h2.9L57.1,14.88"/>
<circle class="st0" cx="139.36" cy="43.84" r="11"/>
<path class="st1" d="M139.28,45.96c-0.43,0-0.86-0.31-0.86-1.08c0-0.49,0.26-1.56,0.58-2.07c0.5-0.77,1.06-0.91,1.34-0.91
	c0.58,0,0.88,0.48,0.88,1.07c0,0.39-0.2,1.43-0.58,2.08C140.28,45.62,139.73,45.96,139.28,45.96 M141.93,43.35
	c0-1.03-0.7-1.68-1.59-1.68c-1.33,0-2.66,1.41-2.66,2.82c0,0.98,0.67,1.68,1.59,1.68C140.59,46.17,141.93,44.8,141.93,43.35z"/>
<circle class="st0" cx="96.13" cy="11.5" r="11"/>
<path class="st1" d="M95.37,10.96c-0.11,0.46-0.32,1.3-0.7,2.02c-0.35,0.68-0.72,1.16-1.15,1.16c-0.33,0-0.54-0.29-0.54-1.21
	c0-0.42,0.06-0.99,0.32-1.97H95.37 M93.38,10.65c0.17-0.64,0.37-1.43,0.76-2.14c0.27-0.49,0.64-1.04,1.08-1.04
	c0.49,0,0.55,0.64,0.55,1.2c0,0.49-0.08,0.99-0.32,1.98H93.38z M96.43,9.28c0-0.65-0.18-2.04-1.19-2.04c-1.38,0-2.91,2.8-2.91,5.08
	c0,0.93,0.29,2.04,1.19,2.04C94.92,14.36,96.43,11.51,96.43,9.28z"/>
<path class="st1" d="M94.35,45.13c-0.05,0.18-0.05,0.2-0.2,0.37c-0.44,0.55-0.84,0.7-1.12,0.7c-0.5,0-0.64-0.55-0.64-0.93
	c0-0.5,0.32-1.72,0.55-2.17c0.31-0.59,0.76-0.95,1.15-0.95c0.65,0,0.78,0.81,0.78,0.87c0,0.06-0.02,0.12-0.03,0.17L94.35,45.13
	 M95,42.56c-0.18-0.37-0.47-0.64-0.91-0.64c-1.16,0-2.39,1.46-2.39,2.91c0,0.93,0.55,1.59,1.32,1.59c0.2,0,0.7-0.04,1.29-0.75
	c0.08,0.42,0.43,0.75,0.9,0.75c0.35,0,0.58-0.23,0.73-0.55c0.17-0.36,0.3-0.96,0.3-0.98c0-0.1-0.09-0.1-0.12-0.1
	c-0.1,0-0.11,0.04-0.14,0.18c-0.17,0.65-0.35,1.23-0.75,1.23c-0.27,0-0.3-0.26-0.3-0.46c0-0.22,0.02-0.3,0.13-0.74
	c0.11-0.42,0.13-0.52,0.22-0.89l0.36-1.39c0.07-0.28,0.07-0.3,0.07-0.34c0-0.17-0.12-0.27-0.29-0.27
	C95.18,42.12,95.03,42.34,95,42.56z"/>
<path class="st1" d="M98.53,13.4c0.55,0,0.94,0.38,0.94,1.13c0,0.87-0.51,1.13-0.91,1.13c-0.28,0-0.9-0.08-1.2-0.49
	c0.33-0.01,0.41-0.25,0.41-0.39c0-0.23-0.17-0.39-0.39-0.39c-0.2,0-0.39,0.12-0.39,0.41c0,0.66,0.73,1.09,1.58,1.09
	c0.98,0,1.65-0.65,1.65-1.36c0-0.55-0.45-1.1-1.22-1.26c0.74-0.27,1-0.79,1-1.22c0-0.55-0.64-0.97-1.42-0.97
	c-0.78,0-1.38,0.38-1.38,0.94c0,0.24,0.15,0.37,0.37,0.37c0.22,0,0.36-0.16,0.36-0.36c0-0.2-0.14-0.35-0.36-0.37
	c0.25-0.31,0.73-0.39,0.99-0.39c0.32,0,0.76,0.15,0.76,0.77c0,0.3-0.1,0.62-0.28,0.84c-0.23,0.27-0.43,0.28-0.78,0.3
	c-0.18,0.01-0.19,0.01-0.22,0.02c-0.01,0-0.07,0.01-0.07,0.09c0,0.1,0.06,0.1,0.18,0.1H98.53"/>
<g>
	<g>
		<line class="st0" x1="67.04" y1="44.32" x2="79.87" y2="44.32"/>
		<g>
			<path class="st1" d="M82.89,44.32c-1.42,0.53-3.18,1.43-4.27,2.38l0.86-2.38l-0.86-2.38C79.7,42.89,81.47,43.79,82.89,44.32z"/>
		</g>
	</g>
</g>
<g>
	<g>
		<line class="st0" x1="65.39" y1="20.17" x2="81.85" y2="35.48"/>
		<g>
			<path class="st1" d="M84.06,37.53c-1.4-0.58-3.3-1.12-4.75-1.17l2.25-1.16l0.99-2.33C82.7,34.32,83.38,36.18,84.06,37.53z"/>
		</g>
	</g>
</g>
<g>
	<g>
		<line class="st0" x1="110.06" y1="43.91" x2="122.89" y2="43.91"/>
		<g>
			<path class="st1" d="M125.91,43.91c-1.42,0.53-3.18,1.43-4.27,2.38l0.86-2.38l-0.86-2.38C122.73,42.48,124.49,43.38,125.91,43.91
				z"/>
		</g>
	</g>
</g>
<g>
	<g>
		<line class="st0" x1="108.41" y1="19.76" x2="124.87" y2="35.07"/>
		<g>
			<path class="st1" d="M127.08,37.12c-1.4-0.58-3.3-1.12-4.75-1.17l2.25-1.16l0.99-2.33C125.72,33.91,126.4,35.77,127.08,37.12z"/>
		</g>
	</g>
</g>
<path class="st1" d="M100.14,46.53H99.9c-0.02,0.15-0.09,0.57-0.18,0.64c-0.06,0.04-0.6,0.04-0.7,0.04h-1.29
	c0.74-0.65,0.98-0.85,1.41-1.18c0.52-0.42,1-0.85,1-1.52c0-0.85-0.75-1.37-1.65-1.37c-0.87,0-1.46,0.61-1.46,1.26
	c0,0.36,0.3,0.39,0.37,0.39c0.17,0,0.37-0.12,0.37-0.37c0-0.13-0.05-0.37-0.41-0.37c0.22-0.5,0.7-0.65,1.03-0.65
	c0.7,0,1.07,0.55,1.07,1.12c0,0.61-0.44,1.1-0.66,1.35l-1.7,1.67c-0.07,0.06-0.07,0.08-0.07,0.27h2.9L100.14,46.53"/>
</svg>
