<svg id="Layer_1" data-name="Layer 1" xmlns="http://www.w3.org/2000/svg" viewBox="0 0 155.67 154.86"><defs><style>.cls-1,.cls-2{fill:none;stroke-miterlimit:10;}.cls-1{stroke:#486afb;}.cls-2{stroke:#fd46fc;stroke-width:1.5px;}.cls-3{fill:#486afb;}.cls-4{fill:#fd46fc;}</style></defs><line class="cls-1" x1="114.64" y1="106.82" x2="98.71" y2="88.66"/><line class="cls-1" x1="111.11" y1="109.99" x2="95.15" y2="91.79"/><line class="cls-1" x1="35.75" y1="106.82" x2="51.68" y2="88.66"/><line class="cls-1" x1="39.31" y1="109.95" x2="55.25" y2="91.79"/><circle class="cls-2" cx="75.2" cy="65.45" r="33.04"/><circle class="cls-2" cx="28.99" cy="118.12" r="13.16"/><circle class="cls-2" cx="121.4" cy="118.12" r="13.16"/><path class="cls-3" d="M122.33,177.58c-.72.47-1.74.94-1.79,1.93s.93,1.53,1.7,1.93a10.45,10.45,0,0,1,.92.53,1.34,1.34,0,0,1,.34.29c-.08-.09,0,0,0,0s0-.11,0,0,0,0,0,0,0,0,0,.06,0,0,0,0h0l0-.07s-.08.09-.09.11l-.13.11-.06.06c-.13.1,0,0,0,0-.28.17-.54.35-.83.49,0,0-.33.12-.14.06l-.23.08-.26.07-.08,0c-.12,0,.14,0,0,0a.59.59,0,0,0-.19,0c-.06,0,.16,0,0,0s.14.06,0,0,.12.1.06,0c.17.16,0,0,0,0s0,.07,0,0,0-.09,0-.14a.47.47,0,0,0-.46-.36.51.51,0,0,0-.47.35,1,1,0,0,0,.23,1.1,1.33,1.33,0,0,0,1.2.28,4.47,4.47,0,0,0,2-1.07,1.65,1.65,0,0,0,.56-.9,1.55,1.55,0,0,0-.52-1.43,16.83,16.83,0,0,0-2.13-1.33c-.17-.12,0,0,0,0l-.15-.14c-.09-.08,0,0,0,0a.24.24,0,0,1-.06-.09c0-.07,0-.07,0,0s0-.15,0,0v-.12c0,.07,0,.07,0,0s-.08.12,0,0,0,0,0-.06a2.09,2.09,0,0,1,.53-.42l.58-.35a.68.68,0,0,0,.24-.9.65.65,0,0,0-.89-.23Z" transform="translate(-77.46 -36.26)"/><path class="cls-3" d="M125.68,181c0,.63,0,1.26,0,1.88a4.81,4.81,0,0,0,.49,2,.6.6,0,0,0,.66.28.63.63,0,0,0,.44-.57,11.75,11.75,0,0,0,0-1.78c0-.61,0-1.21,0-1.82a.82.82,0,0,0-1.63,0Z" transform="translate(-77.46 -36.26)"/><path class="cls-3" d="M125.4,177.4a.94.94,0,0,0,.68.45.73.73,0,0,0,.58-.27,1.28,1.28,0,0,0,.27-.87,1.23,1.23,0,0,0-.1-.41.43.43,0,0,0-.26-.2.54.54,0,0,0-.33.05.91.91,0,0,0-.39.34,1,1,0,0,0-.15.44,1.07,1.07,0,0,0,.29.83.64.64,0,0,0,.62.27.82.82,0,0,0,.28-.14.92.92,0,0,0,.22-.17.86.86,0,0,0,.16-.88,2.81,2.81,0,0,0-.19-.39l-.16-.3,0,.11a1.22,1.22,0,0,0-.07-.17l-.1-.13.07.09,0,0a.43.43,0,0,0-.35-.21.41.41,0,0,0-.36.21.69.69,0,0,0-.08.28.64.64,0,0,0,0,.2,2.88,2.88,0,0,0,.13.31,2.93,2.93,0,0,1,.21.39l0-.12a.75.75,0,0,1,0,.16v-.14a.24.24,0,0,1,0,.08l0-.11,0,.09.07-.1-.11.11.09-.07a1.18,1.18,0,0,1-.19.11h.45l-.1-.06.09.07-.13-.13.07.09a.51.51,0,0,1-.09-.16l0,.11a.75.75,0,0,1,0-.16l0,.11a.43.43,0,0,1,0-.16l0,.11a.56.56,0,0,1,0-.12l0,.1.06-.1-.06.09a.48.48,0,0,1,.09-.11l-.09.08.12-.07-.59-.16h0l0-.11a1.24,1.24,0,0,1,0,.16v-.11a1.61,1.61,0,0,1,0,.22v-.11a.83.83,0,0,1-.06.21l0-.1a1.19,1.19,0,0,1-.09.15l.07-.09a.38.38,0,0,1-.09.09l.09-.07-.07,0,.11-.05,0,0h0l.11,0-.06,0,.1.05-.09-.05.09.06-.11-.11.07.09,0-.05a.46.46,0,0,0-.26-.2.42.42,0,0,0-.33,0,.44.44,0,0,0-.16.59Z" transform="translate(-77.46 -36.26)"/><path class="cls-3" d="M129.52,183.42c0-.33,0-.67.07-1a2.38,2.38,0,0,1,.11-.53c0-.06.05-.12.09-.19l.06-.06s-.07,0,0,0a1.33,1.33,0,0,1,.16.12,1.18,1.18,0,0,1,.19.58,15.05,15.05,0,0,0,.16,1.66.55.55,0,0,0,.66.39c.76-.19.82-1,1.05-1.66a2,2,0,0,1,.41-.72c.1-.09,0,0,.11-.08-.06,0,.12,0,.13,0h.15c-.09,0,.11.06,0,0a1.3,1.3,0,0,1,.46.47c.16.26.29.54.43.81a4.39,4.39,0,0,0,1.78,2,.65.65,0,0,0,.88-.89,5.94,5.94,0,0,0-.91-1.17,5.19,5.19,0,0,1-.58-.93,3,3,0,0,0-1.62-1.62,1.82,1.82,0,0,0-2.12,1,7.36,7.36,0,0,0-.39,1.08c0,.16-.07.32-.1.47s-.05.16-.06.23,0,0,0,.06.08-.08,0,0l.73.2a4.33,4.33,0,0,1-.14-.91,3.79,3.79,0,0,0-.21-1c-.21-.53-.78-1.06-1.39-.86-.91.31-.79,1.82-.84,2.57,0,.49.73.49.77,0Z" transform="translate(-77.46 -36.26)"/><path class="cls-3" d="M137.68,183.17c.07,1.34.21,2.67.2,4a15.51,15.51,0,0,1-.12,1.93c-.06.55-.33,1.44.14,1.86a.48.48,0,0,0,.47.12c.62-.22.75-1.06.88-1.64a10.76,10.76,0,0,0,.24-2.12c0-1.38-.12-2.76-.19-4.15a.82.82,0,0,0-.81-.81.8.8,0,0,0-.81.8Z" transform="translate(-77.46 -36.26)"/><path class="cls-3" d="M139.39,182c.41-.14.82-.28,1.24-.39a4.52,4.52,0,0,1,.73-.16c.07,0,.25,0,0,0h.5c.15,0-.19,0,0,0l.13,0c.14,0-.16-.1,0,0a.05.05,0,0,0,0,0c.12.07-.13-.12-.07,0l0,0c.06.06,0,0-.07-.11,0,0,0,0,0,.06s0,0,0-.11a.45.45,0,0,0,0,.11c0,.1,0-.2,0-.09a.37.37,0,0,0,0,.11c0,.16,0-.18,0,0l-.06.21-.06.19c-.06.15.07-.16,0,0l-.09.19-.15.25a1.21,1.21,0,0,1-.1.14c.13-.14,0,0,0,0s-.32.35-.49.52-.68.55-1,.86l-.18.17c-.06.06-.2.14-.23.21l.05,0-.14.09-.09.06c.12,0,.15-.06.08,0h.09l.57.33c0-.07,0,0,0,0a.2.2,0,0,1,0,.13l0-.08c0,.06,0,.05,0,0a.46.46,0,0,0-.39-.67.92.92,0,0,0-.86.74.68.68,0,0,0,.47.8,1.45,1.45,0,0,0,1.31-.4l.33-.25.09-.07s-.22.17,0,0l.11-.09,0,0,.27-.21.3-.24a4.5,4.5,0,0,0,1.62-2.48,1.72,1.72,0,0,0-.12-1.14,1.31,1.31,0,0,0-.79-.63,3.18,3.18,0,0,0-1.73.06c-.55.13-1.07.32-1.6.5a.71.71,0,1,0,.36,1.38Z" transform="translate(-77.46 -36.26)"/><path class="cls-3" d="M144,179.29c.11.86.09,1.74.13,2.62a11.22,11.22,0,0,0,.14,1.41,3.14,3.14,0,0,0,.45,1.33.55.55,0,0,0,1-.27,7.52,7.52,0,0,0-.06-1.34c0-.44,0-.88-.06-1.32,0-.94-.07-1.87-.2-2.8a.73.73,0,0,0-.89-.53.75.75,0,0,0-.53.9Z" transform="translate(-77.46 -36.26)"/><path class="cls-3" d="M148.56,183.18a5.23,5.23,0,0,0,2.49-.53,1.42,1.42,0,0,0,.77-1.12,1,1,0,0,0-.68-1.09,2.35,2.35,0,0,0-1.26.05,2.73,2.73,0,0,0-1.24.72,2.84,2.84,0,0,0-.88,1.72,1.91,1.91,0,0,0,.87,1.73,2.7,2.7,0,0,0,1.93.29,6.54,6.54,0,0,0,1.65-.55.58.58,0,0,0-.44-1.06l-1.19.26-.29.05c-.12,0,0,0,0,0a.11.11,0,0,0-.08,0h-.19a1.6,1.6,0,0,1-.31,0h-.07l-.12,0-.26-.08c.12,0,.1.05,0,0l-.07,0s-.1-.09-.13-.09.1.09,0,0l-.06-.05a.52.52,0,0,0-.1-.11c-.06-.06.07.1,0,0l0-.06a.56.56,0,0,0-.05-.08c-.06-.1,0,.06,0,0a1.42,1.42,0,0,1-.05-.16s0-.06,0-.09v-.14s0-.11,0,0v-.07a1.86,1.86,0,0,1,.1-.31c0,.09,0-.06.05-.09s.07-.13.1-.19l.1-.15h0l.06-.07a2.23,2.23,0,0,1,.26-.27l.12-.11s0,0,0,0l.07,0,.17-.1.09,0c.07,0-.1,0,0,0l.23-.08.24-.06h.07s0,0,0,0h.22l.11,0h0l.06,0c.08,0,0,0,0,0s0-.07,0,0,0-.07,0,0v0c0-.09,0,0,0,0s0,0,0,0l0,.11c0-.1,0,0,0,0a.61.61,0,0,1-.07.1c.07-.1,0,0,0,0l-.08.07s.07,0,0,0l0,0-.12.08-.14.07s-.06,0,0,0l0,0a2.8,2.8,0,0,1-.31.09,4.11,4.11,0,0,1-.61.12h-.22l-.28,0h-.48a.48.48,0,1,0,0,1Z" transform="translate(-77.46 -36.26)"/><path class="cls-3" d="M156.52,182.67a3.15,3.15,0,0,0,1.51.65,2.74,2.74,0,0,0,1.5-.37,1.34,1.34,0,0,0,.73-1.17,1,1,0,0,0-.72-.89,1.76,1.76,0,0,0-2.13.86,2.81,2.81,0,0,0,.77,3c1.11,1.15,2.76.25,3.77-.57a.62.62,0,0,0,.1-.74.63.63,0,0,0-.69-.28,2.85,2.85,0,0,0-.7.22l-.53.22c-.2.08-.4.13-.6.19,0,0-.15,0,0,0h-.13s-.11,0,0,0-.05,0-.07,0c.18.07-.13-.1,0,0a1.22,1.22,0,0,1-.17-.15l-.16-.18c.1.11,0,0,0,0l-.09-.14a3,3,0,0,1-.24-.43c.06.12,0-.06,0-.1a2.29,2.29,0,0,1-.07-.28c0,.13,0-.1,0-.13s0-.1,0,0,0-.05,0-.07,0,0,0,0a.67.67,0,0,1,.06-.12c0-.06,0-.05.1-.13s-.07,0,0,0l.14-.08c-.1.06,0,0,.05,0l.19,0h.14s-.05,0,0,0,.06,0,.06,0h0c.05.05,0-.06,0,0s0,0,0-.07,0,0,0,0,0,.07,0,.1a.53.53,0,0,1-.17.16,1.86,1.86,0,0,1-1,.28,2.47,2.47,0,0,1-1.11-.49.49.49,0,1,0-.48.85Z" transform="translate(-77.46 -36.26)"/><path class="cls-3" d="M161.48,182.83c.23.22.45.43.67.66s.23.24.34.37l.16.19c.12.15-.07-.12,0,0,.32.51.73,1.14,1.42,1.09a.85.85,0,0,0,.79-.6,7.59,7.59,0,0,0,.18-2.23c0-.17,0-.35,0-.52v-.13a.4.4,0,1,1,0,0c0,.1,0-.07,0-.1s-.06.12,0,0,.06-.07,0,0,.14-.12,0,0,0,0,.08,0a.76.76,0,0,0,.26-.18.61.61,0,0,0-.13-.95,1,1,0,0,0-.84,0,1.24,1.24,0,0,0-.41.3,2,2,0,0,0-.43,1.08c-.06.43-.09.85-.13,1.28a3.11,3.11,0,0,1,0,.32.53.53,0,0,1,0,.13c0-.11,0-.06,0,0a3.18,3.18,0,0,1-.14.61l.8-.61c-.09,0-.05,0,.1,0-.08,0-.05,0,.09,0-.11-.06.14.14.05,0s-.14-.17-.05,0,0,0,0-.05c-.14-.21-.28-.42-.44-.62a13.83,13.83,0,0,0-1.18-1.24.82.82,0,0,0-1.15,0,.83.83,0,0,0,0,1.15Z" transform="translate(-77.46 -36.26)"/><path class="cls-3" d="M167.89,183.8a2.41,2.41,0,0,0,1.2-.33,1.26,1.26,0,0,0,.59-1.23,1.21,1.21,0,0,0-.8-1.14,1.54,1.54,0,0,0-1.38.32,2.35,2.35,0,0,0-.68.94,3,3,0,0,0-.29,1.21,1.51,1.51,0,0,0,.47,1.08,2,2,0,0,0,1,.46,4,4,0,0,0,1.2,0,2.45,2.45,0,0,0,.54-.1l.38-.14a.65.65,0,0,0,.46-.68.63.63,0,0,0-.62-.55c-.2,0-.41,0-.62,0a6,6,0,0,1-.74,0,2.17,2.17,0,0,1-.36,0h0l-.16,0-.08,0c-.12,0,.15.07.07,0l-.14-.08c-.1-.06.08,0,.07.06l-.06,0-.05-.05c-.06-.06.11.17.05.07s0-.11-.07-.13.07.18,0,.1,0,0,0,0l0-.09v0s0,.17,0,.1v-.1a1.48,1.48,0,0,1,0-.21c0-.1,0,.16,0,0s0-.06,0-.09,0-.15,0-.22a1.72,1.72,0,0,1,.07-.21.36.36,0,0,1,0-.11c0-.06,0,.06,0,.06l0-.08.11-.19c0-.06.09-.13.12-.19s-.08.08,0,.05a.1.1,0,0,0,0-.05l.07-.06c.09-.09-.08,0,0,0l.1-.07,0,0-.06,0,.11,0h.06c.1,0,0,0,0,0h0c.08,0,0,0,0,0l0,0,0,0,0,0s-.05-.09,0,0l0,0c0,.06,0,0,0,0s0,.1,0,.12a.11.11,0,0,1,0,.05c0,.06,0-.12,0,0v.21c0,.06,0-.08,0,0v0c0,.09,0-.07,0,0s0,.07,0,.09.09-.1,0,0l0,0,0,0c-.05,0,.11-.08,0,0l-.08,0c-.11.06.11,0,0,0a1,1,0,0,1-.23.06h-.4a.6.6,0,0,0-.61.59.62.62,0,0,0,.6.61Z" transform="translate(-77.46 -36.26)"/><path class="cls-3" d="M171.86,184.17a2.51,2.51,0,0,0,0-.27s0-.14,0-.05c0-.06,0-.12,0-.18a2.62,2.62,0,0,1,0-.28v-.13h0a.29.29,0,0,0,0-.09.56.56,0,0,1,0-.12.12.12,0,1,0,0,0h0l0-.06s0,0,0,0,.08-.08.11-.1,0,0,0,0,.06,0,.07-.05l.08,0-.05,0,.14,0c.11,0,0,0,0,0s.09,0,.1,0-.07,0,0,0a.62.62,0,0,1,.16,0s-.14-.07,0,0l.05,0,.08.05c.06,0-.1-.09,0,0l.11.1c.11.12-.08-.12,0,0l.07.12,0,.07c.06.11,0-.13,0,0a4,4,0,0,1,.16.59.5.5,0,0,0,0,.12l0-.11v.07a2.44,2.44,0,0,1,0,.27c0,.56.11,1.26.66,1.54a.56.56,0,0,0,.62,0,.58.58,0,0,0,.21-.6c0-.13,0,.14,0,0a1.38,1.38,0,0,0,0-.2s0-.1,0,0,0-.06,0-.08a1,1,0,0,0,0-.17c0-.21,0-.43,0-.65a2.93,2.93,0,0,0-.46-1.49,1.78,1.78,0,0,0-1.74-.8,1.54,1.54,0,0,0-1.23,1.16,2.61,2.61,0,0,0,0,.79c0,.15,0,.3.05.45,0-.09,0,.07,0,.09a1.5,1.5,0,0,1,0,.2.45.45,0,1,0,.89-.11Z" transform="translate(-77.46 -36.26)"/><path class="cls-3" d="M175.39,180.14c.06.32.12.64.17,1,0,.15.05.3.07.45l0,.27s0-.12,0,0l0,.15c.07.62.09,1.25.19,1.86a1,1,0,0,0,.91.92.79.79,0,0,0,.75-.56,1.18,1.18,0,0,0-.05-.59s0-.15,0-.15,0,.16,0,.07,0-.05,0-.08l0-.39c0-.32-.07-.63-.1-1-.09-.79-.2-1.56-.36-2.34a.82.82,0,0,0-1-.58.83.83,0,0,0-.58,1Z" transform="translate(-77.46 -36.26)"/><path class="cls-3" d="M175.43,182.08c.56-.07,1.12-.16,1.67-.28a4.35,4.35,0,0,0,.8-.24,1,1,0,0,0,.61-.65.59.59,0,0,0-.72-.72c-.14,0,.13,0,0,0l-.2,0c.12,0,.14,0,.07,0h-.24l-.84.09-.21,0h0l-.58.08-.79.11a.8.8,0,0,0-.5.38.82.82,0,0,0,.3,1.11.86.86,0,0,0,.61.08Z" transform="translate(-77.46 -36.26)"/><path class="cls-3" d="M182.19,180a5,5,0,0,0-1.11.67c-.15.13-.3.25-.44.39a1.06,1.06,0,0,0-.33.8A1.46,1.46,0,0,0,181,183a.93.93,0,0,0,.19.11l.24.1c.14,0,0,0,0,0l.35.19.34.18.18.1.08.06,0,0h0s-.06-.06,0,0l.06,0,.06.07c.1.1,0,0,0-.06l0,.08s.07.14,0-.07c0,0,0,.06,0,.08l0-.11c0,.06,0,.06,0,0v-.05a.64.64,0,0,0,0,.07l0-.09s0,.07,0,.08,0,0,0,0a.86.86,0,0,0-.14.13s.17-.11,0,0l-.11.07-.19.1-.08,0,.05,0c-.07.08-.33.12-.43.15l-.4.11-.23.05-.11,0c-.15,0,.09,0,0,0h-.27s-.12,0,0,0l-.15,0-.24-.07c.21.05-.2-.07-.26-.09-.49-.18-.88.36-.79.79.19,1,1.34,1.08,2.15.93a5.64,5.64,0,0,0,1.6-.56,1.72,1.72,0,0,0,1-1.79,2.12,2.12,0,0,0-1.24-1.36,6.84,6.84,0,0,0-.86-.42l-.09,0c-.08,0,.08.07,0,0s0,.05,0,0-.06-.07-.07-.07.09.15,0,.05c0,.07,0,.14,0,0v-.1l-.21.52c.1-.11.2-.22.31-.32l.17-.14c.18-.15-.12.07.07-.06a4.93,4.93,0,0,1,.77-.44.73.73,0,0,0,.27-1,.75.75,0,0,0-1-.26Z" transform="translate(-77.46 -36.26)"/><path class="cls-3" d="M181.55,160.1a51.86,51.86,0,0,0-9.34,7.28,41,41,0,0,0-3.74,4.16,9.67,9.67,0,0,0-2.25,4.91c-.07.83,1.07.84,1.33.18a16.92,16.92,0,0,1,2.38-4.48,44.59,44.59,0,0,1,3.59-3.94,52,52,0,0,1,8.69-7c.73-.46.07-1.61-.66-1.16Z" transform="translate(-77.46 -36.26)"/><path class="cls-3" d="M122.24,161.32c1.64,1,3.18,2.2,4.74,3.34a35.23,35.23,0,0,1,4.33,3.45,12.34,12.34,0,0,1,3,4.58c.66,1.83.94,3.76,1.53,5.61a.54.54,0,0,0,1.05-.27,34.27,34.27,0,0,0-1.26-6.12,13.15,13.15,0,0,0-3.11-4.76,32,32,0,0,0-4.46-3.57c-1.69-1.21-3.36-2.45-5.13-3.54-.81-.5-1.53.77-.73,1.28Z" transform="translate(-77.46 -36.26)"/><path class="cls-3" d="M151.34,144c.18,4.27.17,8.55.18,12.83s.11,8.46.31,12.69c.12,2.44.17,4.9.37,7.33a.63.63,0,0,0,1.26,0c.4-4.23-.13-8.56-.29-12.8s-.1-8.47-.16-12.7c0-2.45-.12-4.91-.25-7.36-.06-.9-1.46-.92-1.42,0Z" transform="translate(-77.46 -36.26)"/><path class="cls-3" d="M150.81,144.08l-1.22,1.35a7.19,7.19,0,0,0-.66.8,2.67,2.67,0,0,0-.47.9.59.59,0,0,0,.22.6.58.58,0,0,0,.63.05,1,1,0,0,0,.24-.14l.13-.1c.08-.06-.11.09,0,0a5.37,5.37,0,0,0,.44-.37,7.84,7.84,0,0,0,.65-.64c.4-.44.81-.87,1.21-1.32a.83.83,0,0,0,0-1.15.82.82,0,0,0-1.15,0Z" transform="translate(-77.46 -36.26)"/><path class="cls-3" d="M151.74,145.36a10.17,10.17,0,0,0,1.52,1.16c.25.15.51.27.78.4l.39.2a4.06,4.06,0,0,0,.59.19.73.73,0,0,0,.8-.34.74.74,0,0,0-.12-.86,3.07,3.07,0,0,0-.38-.34,2.26,2.26,0,0,0-.43-.24c-.27-.13-.53-.25-.78-.4s-.46-.31-.7-.47c0,0,.14.1.05,0a.27.27,0,0,0-.08-.07l-.16-.13-.34-.3a.81.81,0,1,0-1.14,1.16Z" transform="translate(-77.46 -36.26)"/><path class="cls-3" d="M121.27,161.6c.07.65.08,1.3.17,2l0-.2c0,.21,0,.42.09.63a1.7,1.7,0,0,0,0,.22,2.44,2.44,0,0,0,.14.34.62.62,0,0,0,1.07,0,3.26,3.26,0,0,0,.15-.44c0-.14,0-.29.06-.44a3.94,3.94,0,0,0,0-.69c0-.46,0-.91-.11-1.36a.87.87,0,0,0-.24-.59.81.81,0,0,0-.57-.23.84.84,0,0,0-.58.24.77.77,0,0,0-.23.57Z" transform="translate(-77.46 -36.26)"/><path class="cls-3" d="M123.07,161.73q1-.39,2-.87l.9-.45c.14-.08.3-.14.43-.23s.31-.23.46-.34a.72.72,0,0,0,.29-.87.69.69,0,0,0-.82-.41c-.16.05-.33.09-.49.15a3.66,3.66,0,0,0-.61.27l-.88.42-.89.41-.45.2c.19-.08-.09,0-.12,0l-.27.11a.9.9,0,0,0-.5.38.81.81,0,0,0,.91,1.19Z" transform="translate(-77.46 -36.26)"/><path class="cls-3" d="M181.23,159.74c-.45,0-.9,0-1.34,0h-.66a4.4,4.4,0,0,0-.81.12.72.72,0,0,0-.53.68.74.74,0,0,0,.52.68,4.53,4.53,0,0,0,.81.12h2a.81.81,0,1,0,0-1.62Z" transform="translate(-77.46 -36.26)"/><path class="cls-3" d="M180.31,161.65c-.07.5-.15,1-.24,1.49,0,.23-.08.47-.13.7a7,7,0,0,0-.08.91.72.72,0,0,0,.61.7.73.73,0,0,0,.78-.51,5.54,5.54,0,0,0,.25-.68c.06-.24.1-.49.14-.73.09-.49.17-1,.24-1.45a.94.94,0,0,0-.08-.62.83.83,0,0,0-1.12-.3.79.79,0,0,0-.37.49Z" transform="translate(-77.46 -36.26)"/><path class="cls-4" d="M171.73,42.91a5.25,5.25,0,0,0,3.54,0,2.44,2.44,0,0,0,1-3.13c-.73-1.29-2.57-.75-3.46,0a4.6,4.6,0,0,0-1.6,3.45,2.4,2.4,0,0,0,1.08,2,3.21,3.21,0,0,0,1.54.4,4.26,4.26,0,0,0,.8-.08,3,3,0,0,0,.8-.3.64.64,0,0,0-.31-1.19l-1.05.14a2.35,2.35,0,0,1-.95-.09.44.44,0,0,1-.15,0l-.1-.06s-.22-.23-.13-.12a1.61,1.61,0,0,1-.17-.28c-.08-.16,0,.11,0-.08a1.8,1.8,0,0,0-.05-.19,2,2,0,0,1,0-.62,2.82,2.82,0,0,1,.12-.61,3.49,3.49,0,0,1,.64-1.24,2.38,2.38,0,0,1,1.1-.78,1.65,1.65,0,0,1,.63-.07.5.5,0,0,1,.13,0s.16.06.1,0a.34.34,0,0,1,.18.14s0,.07,0,.07a.8.8,0,0,1,0,.15v0a1.51,1.51,0,0,1-.64,1.34l-.13.07h0l-.11,0a2.33,2.33,0,0,1-.36.08c.09,0,0,0,0,0l-.25,0h-.38a9.7,9.7,0,0,1-1.43-.24c-.75-.17-1.06,1-.31,1.15Z" transform="translate(-77.46 -36.26)"/><path class="cls-4" d="M176.7,41A24.27,24.27,0,0,0,178.56,44,2.84,2.84,0,0,0,180,45.08a1.27,1.27,0,0,0,1.16-.32,2.27,2.27,0,0,0,.57-1.16,9.31,9.31,0,0,0,.21-2.29c0-.66,0-1.65-.87-1.74a.54.54,0,0,0-.52.52,1.55,1.55,0,0,0,0,.22c0,.06,0,.12,0,0a1.13,1.13,0,0,1,0,.18c0,.07,0,0,0,0a1.08,1.08,0,0,1,0,.18c0,.22,0,.44-.06.65s0,.56-.07.84c0-.11,0,.06,0,.09l0,.21c0,.15-.06.3-.1.45s-.08.29-.12.44l-.06.2s-.07.17,0,0,0,0,0,.08a.21.21,0,0,0,0,.06c-.06.11.12-.12,0-.08l0,.05c-.05.07.17-.13.1-.08l-.05,0,.12,0h0c-.06,0,.24,0,.12,0s.19.06,0,0l-.06,0c-.1,0,.14.07.11.05l-.14-.07a.94.94,0,0,0-.12-.09s.16.13.07.05l-.08-.06a5.3,5.3,0,0,1-.56-.6l-.07-.09c-.08-.09,0,0,0,0a1.33,1.33,0,0,1-.14-.19l-.28-.39c-.17-.25-.33-.5-.49-.76s-.45-.78-.68-1.16a.75.75,0,0,0-1-.27.74.74,0,0,0-.27,1Z" transform="translate(-77.46 -36.26)"/><path class="cls-4" d="M183.25,43.86A6.73,6.73,0,0,0,186,42.79a2.13,2.13,0,0,0,.8-1.27,1.53,1.53,0,0,0-.75-1.74c-1.27-.54-2.43.88-2.93,1.88a2.9,2.9,0,0,0,.32,3.43,3.27,3.27,0,0,0,2.09.82,3.23,3.23,0,0,0,2.11-.47.68.68,0,0,0-.51-1.25s-.22,0-.05,0h-.14a3.71,3.71,0,0,0-.48.1l-.32.06c-.14,0,0,0,0,0l-.27,0h-.53s.14,0,0,0L185,44.3l-.19-.06c-.16-.05.08,0,0,0a1.29,1.29,0,0,1-.16-.09s-.17-.11-.08,0l-.08-.07a1.59,1.59,0,0,0-.13-.13s0-.11,0,0l-.1-.14a.31.31,0,0,0-.05-.1c.09.17,0,0,0-.08l0-.14s0-.17,0,0a2.62,2.62,0,0,1,0-.28,1,1,0,0,1,0-.17c0,.14,0,0,0,0s0-.23.08-.35.07-.2.1-.3-.07.14,0,0l.07-.16a4.8,4.8,0,0,1,.32-.54l.09-.12c.07-.1-.1.11,0,0l.21-.25.15-.13c-.08.07,0,0,0,0l.17-.1c-.11.06,0,0,.08,0h.06c-.06,0,0,0,0,0-.11,0,.09,0,0,0h0c-.06-.05-.06-.05,0,0l0-.05c0,.07,0,.06,0,0a.45.45,0,0,1,0,.11c.05.13,0-.09,0,.06v.11c0,.07,0,.07,0,0s0,.07,0,.1l0,.1c0,.15.06-.1,0,0a2.39,2.39,0,0,1-.13.21c.1-.15,0,0-.08.07l-.11.1c.13-.12,0,0,0,0a2.89,2.89,0,0,1-.55.29h0l-.15.05-.31.1c-.4.11-.81.19-1.21.28a.71.71,0,1,0,.36,1.38Z" transform="translate(-77.46 -36.26)"/><path class="cls-4" d="M188.53,44.15a3.34,3.34,0,0,1,.39-1.59s.16-.21.08-.12l.18-.2.1-.09c-.06,0-.05,0,0,0l.16-.09c-.14.08.06,0,.1,0s.07,0,0,0h.11c-.09,0-.1,0,0,0s.07,0,0,0l.17.1,0,0,.1.09.08.1c-.05-.06-.05-.06,0,0a3.66,3.66,0,0,1,.26.42,2,2,0,0,1,.1.21s.13.29.06.12c.06.16.12.31.17.47l.36,1,.08.23c0,.09.07.17.11.26s0,.08,0,0c.08.21.17.41.26.61a.63.63,0,0,0,1.15-.15,2,2,0,0,0,0-1.17c-.07-.19-.15-.37-.23-.56,0,0-.06-.15,0-.07s0,0,0,0a1.86,1.86,0,0,0-.1-.25,6.88,6.88,0,0,0-.85-1.77,2.48,2.48,0,0,0-.83-.78,1.7,1.7,0,0,0-1.11-.13A2.46,2.46,0,0,0,187.75,42a5.87,5.87,0,0,0-.61,2,.71.71,0,0,0,.59.87.71.71,0,0,0,.8-.69Z" transform="translate(-77.46 -36.26)"/><path class="cls-4" d="M192.78,38.48c.2,1,.42,2.08.65,3.12.11.5.21,1,.33,1.5a4,4,0,0,0,.62,1.63c.3.38.91.11,1-.28a3.85,3.85,0,0,0-.1-1.75q-.15-.75-.33-1.5c-.23-1-.45-2.08-.65-3.12a.81.81,0,0,0-1-.57.82.82,0,0,0-.57,1Z" transform="translate(-77.46 -36.26)"/><path class="cls-4" d="M192.29,41.47c.91-.09,1.83-.17,2.73-.35a8.06,8.06,0,0,0,2.46-.93.6.6,0,0,0-.14-1.08,2.35,2.35,0,0,0-1.31.12c-.42.12-.85.22-1.28.3l-.63.11-.31,0-.18,0c.05,0,0,0,0,0l-1.32.13a.82.82,0,1,0,0,1.63Z" transform="translate(-77.46 -36.26)"/><path class="cls-4" d="M159,41.7c.58,0,1.16,0,1.74.07l.42,0h.09l.31,0h.1l.3,0a1.06,1.06,0,0,0,.53-.05.55.55,0,0,0,.39-.38.54.54,0,0,0-.14-.53,3.11,3.11,0,0,0-.92-.56,4.39,4.39,0,0,0-1-.19c-.6-.08-1.2-.06-1.8-.1a.82.82,0,0,0-.82.81.83.83,0,0,0,.81.82Z" transform="translate(-77.46 -36.26)"/><path class="cls-4" d="M160,44.89l1.19-.16.59-.08.17,0h0l.29,0,.6-.07.38-.05c-.06,0-.05,0,0,0a1.33,1.33,0,0,0,.28,0,1.7,1.7,0,0,0,.62-.22,1.06,1.06,0,0,0,.35-.32c-.15.2.26-.29.05-.07a.63.63,0,0,0-.13-1,.84.84,0,0,0-.85,0c-.08,0-.08,0,0,0l-.15,0s-.23,0-.1,0c-.4,0-.81.06-1.22.11l-2.54.33a.83.83,0,0,0-.59,1,.85.85,0,0,0,1,.58Z" transform="translate(-77.46 -36.26)"/><path class="cls-4" d="M108.27,44.08a11.93,11.93,0,0,1,0-2,1.61,1.61,0,0,1,.27-.76.93.93,0,0,1,.36-.26c-.07,0,.09,0,.08,0s0,0,0,0,0,0,.06,0-.06-.06,0,0l0,0a1.88,1.88,0,0,1,.12.18,2.89,2.89,0,0,1,.21.68c.06.27.1.55.14.82s0,.27,0,.4c0-.2,0,.23,0,.32a.69.69,0,0,0,.67.52.72.72,0,0,0,.68-.52c.26-.7.33-1.5,1.09-1.83a1,1,0,0,1,.81,0c-.09,0,.08,0,.08,0s0,0,0,.05,0-.09,0,0l.09.17c.1.15,0-.13,0,.05l.06.2c0,.06,0,.13,0,.2s0,.23,0,.1a6.88,6.88,0,0,1,0,.91,6,6,0,0,0,0,1.8.69.69,0,0,0,1.32,0,6.64,6.64,0,0,0,.17-2.18,3.34,3.34,0,0,0-.75-2.28,2.25,2.25,0,0,0-2.7-.21,3.7,3.7,0,0,0-1.73,2.63H111c-.33-.93-.39-2.12-1.14-2.84a1.37,1.37,0,0,0-1.64-.18A2.48,2.48,0,0,0,107,41.81a10.14,10.14,0,0,0-.18,2.27c0,.93,1.48.93,1.43,0Z" transform="translate(-77.46 -36.26)"/><path class="cls-4" d="M115.52,42.81a3.18,3.18,0,0,0,.88,1.36,2.34,2.34,0,0,0,2,.41,2.1,2.1,0,0,0,1.6-1.24,2.12,2.12,0,0,0-.75-2,2.82,2.82,0,0,0-.78-.59,3,3,0,0,0-1.44-.29.65.65,0,0,0-.63.48.69.69,0,0,0,.31.73,1.76,1.76,0,0,0,.38.21l.18.09.16.07.15.05-.1,0a1.49,1.49,0,0,1,.38.22c.14.1-.09-.08,0-.05l.13.11.21.21.12.14,0,.06s-.12-.17,0-.06l.16.29c.06.12-.07-.22,0,0a.64.64,0,0,0,0,.07c0,.12,0-.21,0-.08s0,0,0-.12a.21.21,0,0,0,0,.06s.1-.19,0-.1a.22.22,0,0,1,0,.05s.15-.16.07-.09l-.05.05c-.14.13.18-.11,0,0l-.26.14.1,0-.07,0-.17,0-.24.06.13,0a.14.14,0,0,0-.09,0h-.3c.2,0,.16,0,.09,0l-.14,0c-.18-.06.16.09,0,0l-.13-.08c-.09-.05.09.06.09.07a.24.24,0,0,0-.08-.06.69.69,0,0,1-.11-.13c-.13-.14.1.16,0,0l-.09-.14a6.3,6.3,0,0,1-.34-.69.75.75,0,0,0-.49-.38.79.79,0,0,0-.62.08.85.85,0,0,0-.38.49,1,1,0,0,0,.09.62Z" transform="translate(-77.46 -36.26)"/><path class="cls-4" d="M120.69,41.47a.19.19,0,0,0,0-.37.19.19,0,0,0,0,.37Z" transform="translate(-77.46 -36.26)"/><path class="cls-4" d="M119.63,38.69c.17,1,.38,2,.64,3a10.61,10.61,0,0,0,1.08,2.91.69.69,0,0,0,1.27-.51,29,29,0,0,0-.78-2.87c-.26-1-.47-1.92-.64-2.9a.81.81,0,0,0-1.57.41Z" transform="translate(-77.46 -36.26)"/><path class="cls-4" d="M123.34,43.37a4.23,4.23,0,0,0,3.34-.51c.66-.51,1.42-1.72.62-2.45a1.64,1.64,0,0,0-1.72-.11,3.46,3.46,0,0,0-1.49,1.15c-.75,1.07-.08,2.36.63,3.26a2.5,2.5,0,0,0,1.56,1,4.36,4.36,0,0,0,1,0,7.79,7.79,0,0,0,1-.2.65.65,0,0,0-.16-1.27c-.4,0-.8,0-1.21,0l-.27,0c.13,0-.13,0-.18,0l-.12,0c-.11,0,.12.09,0,0a.41.41,0,0,0-.11-.07c.08.05,0,0,0,0a5,5,0,0,1-.39-.41l-.09-.12c.08.11,0,0,0-.05a2.11,2.11,0,0,1-.18-.27,1.51,1.51,0,0,1-.15-.28s-.07-.17,0,0a.49.49,0,0,0,0-.11,2.3,2.3,0,0,1-.06-.28c0,.13,0,0,0,0a1.21,1.21,0,0,1,0-.19c0,.15,0,0,0-.1,0,.14.05-.08.08-.12s-.12.11,0,0l.1-.09a3,3,0,0,1,.26-.24,3.89,3.89,0,0,1,.45-.3.82.82,0,0,1,.25-.08h.11c.08,0,0,0,0,0h0c.06,0,0,0,0,0s-.09-.13,0,0-.07-.16,0-.06,0-.16,0-.05,0,0,0,0-.09.23,0,.1a1.62,1.62,0,0,1-.1.18l-.07.11,0,0-.06.07-.07.06s-.16.14-.09.09a2.59,2.59,0,0,1-.31.19l-.13.06c.11,0-.07,0-.09,0a1.59,1.59,0,0,1-.33.08h0l-.21,0-.67,0-.66-.08a.69.69,0,0,0-.86.57.7.7,0,0,0,.67.78Z" transform="translate(-77.46 -36.26)"/><path class="cls-4" d="M130.61,40.74a8.34,8.34,0,0,0-1,2,2.12,2.12,0,0,0,.09,1.49,1.58,1.58,0,0,0,1.46.81,3.74,3.74,0,0,0,.88-.13l.33-.11.22-.08c.12,0-.18.06,0,0l.14-.05a.64.64,0,0,0,0-1.22,3.4,3.4,0,0,0-1.19-.06h-.41c-.18,0,.1,0,.05,0l-.12,0c-.13,0,.2.1.06,0s.14.14.06.05l-.07-.08.13.17a.72.72,0,0,1-.11-.19l.08.21c0-.06,0-.11,0-.16s0,.2,0,.11v-.09a.86.86,0,0,1,0-.16c0-.13,0,.21,0,.08s0-.05,0-.08.07-.25.11-.37l.06-.16c-.1.27,0,0,0,0,.18-.4.42-.77.63-1.15a.81.81,0,0,0-1.41-.81Z" transform="translate(-77.46 -36.26)"/><path class="cls-4" d="M133.46,42.19a3.36,3.36,0,0,0,1,1.52,3.21,3.21,0,0,0,.77.48,2.07,2.07,0,0,0,.7.18,1.93,1.93,0,0,0,.48,0,2.33,2.33,0,0,0,1-.33l.18-.12a2,2,0,0,0,.27-.21l.23-.2a1.53,1.53,0,0,0,.48-1,1,1,0,0,0-.91-1,.68.68,0,0,0-.66.66.28.28,0,0,0,0,.09c0,.23,0,.26,0,.07s0-.17,0-.11a.36.36,0,0,0,0,.1c0,.07.09-.19,0,0s.12-.13,0,0l-.08.09a1.37,1.37,0,0,1-.18.16c-.1.09.18-.13.07,0l-.11.08c-.12.09-.12.09,0,0-.09,0-.18.12-.27.17s.16,0,0,0l-.15,0-.15,0h-.28c.1,0,.13,0,.07,0s.08,0,0,0l-.15-.08a1.88,1.88,0,0,1-.24-.14c-.13-.08.14.12,0,0l-.1-.09c-.07-.06-.13-.13-.19-.19l-.06-.07.08.1a.83.83,0,0,0-.08-.12l-.14-.24s-.09-.22,0-.08l0-.08a.85.85,0,0,0-1-.59.84.84,0,0,0-.58,1Z" transform="translate(-77.46 -36.26)"/><path class="cls-4" d="M139.19,39.11l.09.6,0,.16c0-.09,0-.08,0,0l0,.31c0,.45.11.9.19,1.34a4.61,4.61,0,0,0,1,2.4.59.59,0,0,0,.7.09.61.61,0,0,0,.27-.66c-.14-.77-.32-1.54-.44-2.31,0-.2-.05-.4-.08-.59,0,0,0-.33,0-.18,0-.1,0-.19,0-.28-.05-.43-.1-.87-.17-1.31a.82.82,0,0,0-1-.58.84.84,0,0,0-.59,1Z" transform="translate(-77.46 -36.26)"/><path class="cls-4" d="M143.47,43.37a4.83,4.83,0,0,0,3.8-.85,2,2,0,0,0,0-3,2,2,0,0,0-1.93-.41,2,2,0,0,0-1.29,1.28,8.07,8.07,0,0,0-.45,1.11,3.62,3.62,0,0,0,.12,1.22,1.44,1.44,0,0,0,.61.93,3.63,3.63,0,0,0,1,.74,9.88,9.88,0,0,0,2.39.67c.44.06.88.16,1.33.2a9.09,9.09,0,0,0,1.28,0,.66.66,0,0,0,.18-1.3c-1-.14-2-.29-3-.47a8.56,8.56,0,0,1-1.4-.39,4.37,4.37,0,0,1-1.12-.85l.19.33-.18-1.1v.36c.2-.55.29-1.35.89-1.58a.61.61,0,0,1,.72.15.68.68,0,0,1,.24.58c-.06.54-.66.8-1.12.93a4.77,4.77,0,0,1-2.06.06.68.68,0,1,0-.18,1.35Z" transform="translate(-77.46 -36.26)"/><path class="cls-4" d="M172.71,54.33a2.38,2.38,0,0,0-1.18,1.49,2.33,2.33,0,0,0-.07.53.9.9,0,0,0,.37.7,3.39,3.39,0,0,0,.87.58,4.09,4.09,0,0,1,.47.23c.16.08.3.22.46.28a.06.06,0,0,1,0-.06s0,.1,0,0,0-.2,0-.31,0,0-.06,0,.15-.09,0,0-.27.15-.41.21l-.13.06-.08,0,.08,0-.33.12a4.71,4.71,0,0,1-.64.19l-.12,0h0c.31,0-.07,0-.17,0h-.1a.47.47,0,0,0-.24.13c-.15.11-.09.08.21-.11l.45.06,0,0,.27.66a1,1,0,0,0,0-.42.48.48,0,0,0-.58-.35.86.86,0,0,0-.28.11.58.58,0,0,0-.3.51l0,.19.06-.46c-.37.69.38,1.18,1,1.12a4,4,0,0,0,1.36-.4,3.78,3.78,0,0,0,.88-.54,1.13,1.13,0,0,0,.43-1,1.38,1.38,0,0,0-.73-1l-.46-.28-.23-.1-.15-.07-.06,0s0,0,0,0a4.36,4.36,0,0,1-.42-.23s-.09-.07,0,0l-.09-.06-.19-.18.2.48a1.62,1.62,0,0,1,0-.22c0,.16,0-.06,0-.1s0-.1,0-.15c0,.16,0,0,.05-.07l.06-.09c-.05.07-.06.08,0,0l.11-.12s.21-.16.08-.07a1.37,1.37,0,0,1,.2-.13.67.67,0,0,0-.67-1.15Z" transform="translate(-77.46 -36.26)"/><path class="cls-4" d="M175.47,57.2s0,.1,0,.14l0-.21a6,6,0,0,0,.68,2.84.63.63,0,0,0,.7.29.64.64,0,0,0,.46-.6,9.61,9.61,0,0,0-.07-1.07l0,.2c-.08-.66-.12-1.33-.21-2a.84.84,0,0,0-.39-.5.86.86,0,0,0-.61-.08.81.81,0,0,0-.5.39,1,1,0,0,0-.08.6Z" transform="translate(-77.46 -36.26)"/><path class="cls-4" d="M174.92,54.36l0,.09-.06-.14a2.62,2.62,0,0,0,.21.45.83.83,0,0,0,.19.23,1,1,0,0,0,.39.21.76.76,0,0,0,.3,0,.54.54,0,0,0,.26-.16,3.72,3.72,0,0,0,.33-.45,2.4,2.4,0,0,0,.11-.23,1.48,1.48,0,0,0,.13-.35,1,1,0,0,0,0-.24v0a1.25,1.25,0,0,0,0-.19.67.67,0,0,0-.07-.18l0,0a.83.83,0,0,0-.28-.28.86.86,0,0,0-.63-.08,1.22,1.22,0,0,0-.24.1,1.88,1.88,0,0,0-.23.16,1.37,1.37,0,0,0-.19.23,1.15,1.15,0,0,0-.12.25,1.24,1.24,0,0,0,0,.27.65.65,0,0,0,.19.45.52.52,0,0,0,.36.14h.13a.49.49,0,0,0,.23-.14h0l-.11.09,0,0a.73.73,0,0,0,.21-.22l0,0-.09.12,0,0,.14-.17-.1.12a1.19,1.19,0,0,1,.2-.19l-.13.1.11-.07-.15.07.08,0-.16,0h.06l-.15,0,.05,0-.15-.06,0,0-.13-.09,0,0-.1-.12,0,0-.06-.14s0,0,0,.06l0-.15a.2.2,0,0,1,0,.11l0-.15a1.41,1.41,0,0,1-.06.22l0-.14a2.15,2.15,0,0,1-.28.49l.09-.12,0,.07.56-.15-.06,0,.14,0-.07,0,.12.09-.08-.08.1.13a.87.87,0,0,1-.14-.27l.06.15c-.05-.11-.09-.21-.13-.32a.66.66,0,0,0-.36-.27.61.61,0,0,0-.44.06.56.56,0,0,0-.27.35l0,.15a.54.54,0,0,0,.08.3Z" transform="translate(-77.46 -36.26)"/><path class="cls-4" d="M179.35,58.82c0-.32,0-.64,0-1,0-.11,0-.21,0-.32s0-.09,0-.14,0,.12,0-.06a1.27,1.27,0,0,1,.06-.28.56.56,0,0,1,0-.12c-.06.15,0,0,0,0s-.06,0,0,0,0,0,0,0c.12-.06-.13,0,0,0-.1,0-.12,0-.07,0h-.06c.1,0,0,0,0,0s0,0,0,0,.12.16.06.06l.1.18a4.13,4.13,0,0,1,.2.62c.06.25.11.51.18.76a.76.76,0,0,0,.91.53c.67-.16,1-.81,1.37-1.35.14-.22.29-.42.43-.63l0,0,.14-.15c.09-.1.09,0,0,0,.2,0-.17,0,0,0h-.07c-.08,0-.09,0,0,0l.08,0c.14.05,0,0,.1.06l.16.17c-.07-.09,0,0,0,.06l.09.18c.1.2,0-.12,0,.1s0,.16.07.23c.19.68.17,1.67.89,2a.7.7,0,0,0,.92-.25c.29-.44,0-1-.09-1.41a5.82,5.82,0,0,0-.24-1,2.48,2.48,0,0,0-1.67-1.74c-.9-.2-1.48.44-1.93,1.11-.15.24-.3.47-.44.71s-.16.27-.25.4c.07-.1-.08.07-.1.09l0,0c-.08,0-.07,0,0,0l.84.35c0-.07,0-.07,0,0s0-.08,0-.12a1.59,1.59,0,0,1-.07-.2c-.06-.16-.11-.33-.17-.49a3.46,3.46,0,0,0-.54-1,1.23,1.23,0,0,0-1.77-.25,2.4,2.4,0,0,0-.58,1.4c0,.28-.08.55-.1.83l0,.32a.49.49,0,0,0,0,.12c0,.17,0-.13,0,0a.71.71,0,1,0,1.4.19Z" transform="translate(-77.46 -36.26)"/><path class="cls-4" d="M185.65,57.55c.09,1.25.16,2.51.21,3.76,0,.6,0,1.2,0,1.8s-.14,1.53.48,2a.72.72,0,0,0,.71,0c.62-.41.45-1.27.44-1.93s0-1.2,0-1.8c-.05-1.25-.12-2.51-.21-3.76a.85.85,0,0,0-.81-.82.82.82,0,0,0-.82.81Z" transform="translate(-77.46 -36.26)"/><path class="cls-4" d="M187.15,57.56a7.67,7.67,0,0,1,.8-.43l-.2.08a2.14,2.14,0,0,1,.55-.15l-.2,0a1.7,1.7,0,0,1,.39,0l-.21,0a1.57,1.57,0,0,1,.31.08c.06,0-.2-.1-.05,0l.11.08-.16-.13a.8.8,0,0,1,.13.13l-.13-.17a1.18,1.18,0,0,1,.11.19l-.08-.2a1.06,1.06,0,0,1,0,.19l0-.2a1.92,1.92,0,0,1,0,.24c0-.23,0-.14,0-.08a.5.5,0,0,1,0,.13c0,.12.09-.18,0-.06a.47.47,0,0,0-.05.1,1.64,1.64,0,0,1-.14.22.36.36,0,0,1-.07.1c-.08.12.13-.16,0,0s-.1.13-.16.19a2.5,2.5,0,0,1-.34.31L188,58l-.23.17.17-.13a2.42,2.42,0,0,1-.4.25l.18-.08-.31.12.19-.07-.15,0s-.24,0,0,0l-.21,0h.06a1.8,1.8,0,0,0-.22,0,.6.6,0,0,0-.29,1.12,2.28,2.28,0,0,0,.92.24,1.82,1.82,0,0,0,.94-.29,3.54,3.54,0,0,0,1.15-1.19,2,2,0,0,0,.29-1.65,1.79,1.79,0,0,0-1.69-1.15,3.73,3.73,0,0,0-2,.71.83.83,0,0,0-.3,1.12.82.82,0,0,0,1.11.29Z" transform="translate(-77.46 -36.26)"/><path class="cls-4" d="M189.87,54.55c.3.91.59,1.82.8,2.75l.3,1.28a1.75,1.75,0,0,0,.67,1.13.55.55,0,0,0,.8-.61c0-.07,0-.08,0,0a.49.49,0,0,1,0-.12,2.43,2.43,0,0,1,0-.27c0-.16,0-.32,0-.48a7.71,7.71,0,0,0-.22-1.44,26.24,26.24,0,0,0-.77-2.62.81.81,0,1,0-1.57.41Z" transform="translate(-77.46 -36.26)"/><path class="cls-4" d="M194,58.5a3.65,3.65,0,0,0,3-1.12c.6-.82.52-2.37-.69-2.58s-1.9.93-2.23,1.88a2.68,2.68,0,0,0-.12,1.43,2,2,0,0,0,.87,1.23,3.45,3.45,0,0,0,1.36.47,6,6,0,0,0,.84.08l.64,0a.64.64,0,0,0,.17-1.25,10.91,10.91,0,0,0-1.12-.19l-.24,0s-.14,0,0,0l-.13,0a3.13,3.13,0,0,1-.53-.12l-.12,0c-.08,0-.12,0,0,0a.78.78,0,0,1-.2-.11l-.07,0c-.14-.07,0,0,0,0a1,1,0,0,1-.18-.18s.1.16,0,0l-.06-.1c0-.11,0-.07,0,0a.56.56,0,0,0,0-.12l0-.13c0-.15,0,.15,0,0v-.22s0-.07,0-.11,0,.15,0,0,0-.17,0-.25.05-.18.08-.27,0-.09,0-.13,0-.06,0,0a.36.36,0,0,0,0-.09,3.91,3.91,0,0,1,.26-.44c.08-.13-.09.08,0,0l.09-.09.09-.09c-.11.11,0,0,0,0s.14,0,0,0l.11,0c-.13,0,0,0,0,0h0s.15,0,0,0l0,0s0,0,0,0,.11.14,0,0c0,0,.08.17,0,0l0,.12c0,.12,0-.11,0,0a.48.48,0,0,1,0,.12s0,.16,0,0l-.06.21c0,.13.06-.1,0,0l-.1.17c-.07.14.08-.07,0,0l-.14.14s-.15.12,0,0l-.16.1-.13.07-.09,0c.09,0,.1,0,0,0l-.28.08-.34.07c-.17,0,.13,0,0,0l-.2,0c-.23,0-.45,0-.68,0a.68.68,0,0,0-.66.66.67.67,0,0,0,.66.67Z" transform="translate(-77.46 -36.26)"/><path class="cls-4" d="M204.77,58.19a3.88,3.88,0,0,0,2.6-.6,1.9,1.9,0,0,0,.66-1.48,1.5,1.5,0,0,0-.37-.91,1.12,1.12,0,0,0-.95-.33,1.21,1.21,0,0,0-.75.38l-.14.13a.39.39,0,0,1-.1.08l-.27.29a5.65,5.65,0,0,0-.83,1.32,3.55,3.55,0,0,0-.18,3.11,2,2,0,0,0,1.28.93,3.41,3.41,0,0,0,.78.11,3.2,3.2,0,0,0,.81-.09.66.66,0,0,0,0-1.27c-.15,0-.3-.06-.45-.09a1.84,1.84,0,0,0-.33,0c-.06,0-.3,0-.13,0a2.6,2.6,0,0,1-.4-.1l-.1,0c-.1,0,.1.07,0,0l-.2-.11c.13.08,0,0,0,0s.07.12,0,0l-.06-.09c-.09-.15,0,.07,0-.06s0-.08,0-.12,0-.23,0-.08a1.7,1.7,0,0,1,0-.45.57.57,0,0,1,0-.13c0,.11,0,0,0,0s0-.2.07-.31a3.7,3.7,0,0,1,.38-1,3.52,3.52,0,0,1,.28-.46l.08-.12,0,0c.05-.07.11-.13.17-.2s.12-.11.17-.17.13-.18.18-.2-.08.06-.16,0,.13.06,0,0-.1-.07,0,0v0c0,.12,0,.08,0,0s0,.1,0,0a1.46,1.46,0,0,1-.07.19.41.41,0,0,1-.05.09s-.07.12,0,.06,0,0,0,0l-.1.1s-.1.06,0,0l-.12.08-.1.05c-.09,0,.14,0,0,0l-.51.12c.1,0-.1,0-.14,0h-.81a.63.63,0,0,0,0,1.26Z" transform="translate(-77.46 -36.26)"/><path class="cls-4" d="M208.15,57.39c.58.85,1,1.88,2.1,2.24a1.88,1.88,0,0,0,1.85-.42,3.44,3.44,0,0,0,.94-1.46,6.92,6.92,0,0,0,.35-1.09c0-.17.09-.34.12-.51s0-.16.05-.24,0-.11,0,0,0,0,0-.06l.06-.14a.7.7,0,0,0-1-.77A1.83,1.83,0,0,0,212,56c-.07.21-.13.41-.19.62a2.77,2.77,0,0,1-.1.26s-.09.26,0,.16a4.33,4.33,0,0,1-.4.73l-.06.09,0,0a1.85,1.85,0,0,1-.14.14l-.06.06c-.06.06,0,0,.05,0s-.19.11-.19.11l0,0-.1,0c.12,0,.13,0,0,0h-.14c.12,0,.13,0,.05,0l-.09,0,.06,0a.91.91,0,0,0-.17-.09l0,0,0,0a4,4,0,0,0-.29-.28s-.11-.11-.1-.12.08.1,0,0l-.07-.08-.24-.36c-.13-.21-.26-.42-.4-.63a.78.78,0,1,0-1.35.78Z" transform="translate(-77.46 -36.26)"/><path class="cls-4" d="M214.27,58.65a3.26,3.26,0,0,0,2.62-.57,1.73,1.73,0,0,0,.5-1.58,1.47,1.47,0,0,0-1.09-1.1,2.55,2.55,0,0,0-2.7,1.8,2.19,2.19,0,0,0,1.23,2.52,4.57,4.57,0,0,0,1.36.42l.77.08a3.18,3.18,0,0,0,.69-.09.63.63,0,0,0,.48-.61.64.64,0,0,0-.47-.62l-.4-.1a1.75,1.75,0,0,0-.33,0c.26,0-.05,0-.12,0a5.63,5.63,0,0,1-.9-.22c-.07,0-.32-.14-.09,0l-.21-.1-.17-.09-.1-.06c-.06,0-.17-.15,0,0a.81.81,0,0,1-.14-.12l-.08-.08s-.07-.14,0,.05l-.12-.18,0-.07c.12.19,0,.1,0,0l0-.13v0c0-.08,0-.15,0,0,0,0,0-.07,0-.1a.74.74,0,0,1,0-.14c0-.16-.08.14,0,0a1.53,1.53,0,0,1,.19-.3c-.12.12,0,0,0,0l.08-.09c.07-.08.15-.14.22-.21s-.13.08,0,0l.12-.08.08,0,.09,0c-.09,0-.1,0,0,0l.14,0c.14,0-.14,0,0,0h0c.08,0,.06,0,0,0h.12l-.05,0,.1.06s-.12-.09,0,0-.09-.13,0,0,0,0,0-.06a.35.35,0,0,0,0,.11c0,.13,0-.14,0,0s0,0,0,0a.93.93,0,0,1,0,.13s0-.1,0,0A.83.83,0,0,0,216,57l0,0-.06.07a.73.73,0,0,0-.09.08l.05,0-.07,0-.07,0c-.17.09.11,0,0,0l-.27.08-.11,0h0a10.84,10.84,0,0,1-1.14,0,.68.68,0,0,0-.68.66.69.69,0,0,0,.67.68Z" transform="translate(-77.46 -36.26)"/><path class="cls-4" d="M219,58.86l.27-.49a2.13,2.13,0,0,1,.16-.25.83.83,0,0,1,.08-.12c.08-.13-.08.08,0,0l.19-.21.09-.07c.07-.06-.13.09-.05,0l.06,0,.11-.06c.1-.06-.17,0,0,0l.12,0s-.15,0-.1,0H220s-.15,0-.09,0H220s.15.06,0,0,0,0,.07,0l.08.05,0,0a1.42,1.42,0,0,1,.22.21l0,0c.07.07-.09-.14,0-.06l.08.13a1.82,1.82,0,0,1,.15.27.36.36,0,0,0,0,.09s-.07-.16,0-.08.05.11.07.17a4.85,4.85,0,0,1,.16.63c0,.25.1.49.14.74a3.53,3.53,0,0,0,.28.79.62.62,0,0,0,1.13-.15,3.09,3.09,0,0,0,.06-.8,6.57,6.57,0,0,0-.12-.89,4.61,4.61,0,0,0-.6-1.53,2.26,2.26,0,0,0-1.51-1.06,1.72,1.72,0,0,0-1.49.61,5.77,5.77,0,0,0-.85,1.38.65.65,0,0,0,.24.88.66.66,0,0,0,.88-.24Z" transform="translate(-77.46 -36.26)"/><path class="cls-4" d="M223.5,54.11c.16.82.37,1.62.56,2.44.08.39.17.78.24,1.17l0,.24s0,0,0,.06a.78.78,0,0,0,0,.16c0,.27,0,.37.09.65a.61.61,0,0,0,1,.27,1.68,1.68,0,0,0,.35-1.51c-.07-.41-.17-.83-.27-1.24-.22-.87-.47-1.73-.65-2.61a.73.73,0,0,0-.88-.51.75.75,0,0,0-.52.88Z" transform="translate(-77.46 -36.26)"/><path class="cls-4" d="M222.8,56.84a16.85,16.85,0,0,1,2.13-.07,7.92,7.92,0,0,0,2.23-.11.66.66,0,0,0,0-1.27,9.82,9.82,0,0,0-2.23-.23,13.78,13.78,0,0,0-2.13.05.82.82,0,1,0,0,1.63Z" transform="translate(-77.46 -36.26)"/><path class="cls-4" d="M230.84,54.53a2.73,2.73,0,0,0-1.42,1,2.23,2.23,0,0,0-.31.73,1.42,1.42,0,0,0,.44,1.15,3.17,3.17,0,0,0,.6.56c.19.14.4.22.6.34l.44.25.21.14c.16.1,0,0,0,0l.11.1s.07.09.1.1-.1-.15,0,0l0,.07,0-.11c0,.08,0,0,0-.08,0,.07,0,.19,0,0,0,.15.05-.1,0,0s0,0,.06-.07l0,0c-.06.06,0,0,.08-.06l-.16.09c.09-.09.16,0,0,0l-.11,0-.24,0-.14,0h0c-.53,0-1.06,0-1.6,0h-.42a2.9,2.9,0,0,0-.48,0s.2,0,.05,0l-.14,0c-.18,0,.17.07,0,0s-.12-.12.06.05c-.07-.07.08.18.06.08v0c-.15-.2-.16-.21,0,0s0,.13,0,0a.64.64,0,0,0-1.07-.29,1,1,0,0,0,0,1.37,2,2,0,0,0,1.18.43,11.29,11.29,0,0,0,1.3,0,5.15,5.15,0,0,0,2.27-.37,1.37,1.37,0,0,0,.8-1.16,1.53,1.53,0,0,0-.6-1.26,8.56,8.56,0,0,0-1.07-.7c-.1-.07-.21-.11-.32-.18s-.18-.15,0,0l-.14-.13a1.59,1.59,0,0,0-.13-.13c-.12-.13.07.11,0,0a2.93,2.93,0,0,1-.21-.39l.08.61s.1-.23,0-.13,0-.06,0-.08.06-.15.1-.17l-.06.09.08-.09.12-.11,0,0,0,0,.16-.09c.08,0,.07,0,0,0l.12,0a.83.83,0,0,0,.59-1,.84.84,0,0,0-1-.59Z" transform="translate(-77.46 -36.26)"/><path class="cls-4" d="M159.67,56l.41.05c-.2,0,0,0,0,0l.18,0c.31,0,.63.1.94.13a6.78,6.78,0,0,0,.77.05,6.54,6.54,0,0,0,.89-.09.58.58,0,0,0,.43-.56.6.6,0,0,0-.42-.56l-.73-.22c-.26-.07-.53-.11-.79-.17-.56-.13-1.13-.21-1.7-.29a.86.86,0,0,0-.59.25.8.8,0,0,0-.23.56.84.84,0,0,0,.81.82Z" transform="translate(-77.46 -36.26)"/><path class="cls-4" d="M159.88,58.92c.75.11,1.51.25,2.27.29a4.41,4.41,0,0,0,2.27-.33.55.55,0,0,0-.13-1,9.29,9.29,0,0,0-1.06-.12l-.53-.06s-.24,0-.12,0l-.26,0-.24,0h0l-.23,0-.5-.08-1-.16a.81.81,0,0,0-.42,1.57Z" transform="translate(-77.46 -36.26)"/><path class="cls-4" d="M106.84,55.26a2.85,2.85,0,0,0-2.09.28,2.26,2.26,0,0,0-.91,2,2.46,2.46,0,0,0,1,2,1.42,1.42,0,0,0,1.81-.34,12.26,12.26,0,0,0,1-1.57l-.87.24c-.12-.08,0,0,0,0-.11-.12,0,0,0,0a2.3,2.3,0,0,1,.15.32,2,2,0,0,0,.48.7,1.78,1.78,0,0,0,1,.42,2.6,2.6,0,0,0,1-.09.63.63,0,0,0,.46-.69.63.63,0,0,0-.61-.55h-.1l-.21,0-.22,0c-.19,0,.12,0-.06,0l-.18-.05c.1,0,0,0,0,0s-.12-.08,0,0l-.08-.07s0,0,0,.05-.11-.18-.14-.23l-.17-.31a1.5,1.5,0,0,0-.6-.57.65.65,0,0,0-.87.24,4,4,0,0,1-.24.51,2.61,2.61,0,0,1-.17.28l-.09.15L106,58c0-.06,0,.05-.06.07l-.11.13a.94.94,0,0,1-.1.1s-.14.13-.06.06,0,0-.08,0,0,0,0,0l-.11,0c.09-.05.12,0,.05,0s0,0,0,0l-.12,0c.11,0,0,0,0,0h0a.18.18,0,0,1-.07,0l-.15-.16c.08.1,0,0,0-.07s-.05-.1-.08-.15,0,0,0,0l0-.09a1.55,1.55,0,0,1-.07-.23,1.29,1.29,0,0,1,.26-1.22,2,2,0,0,1,1.58-.29.44.44,0,0,0,.43-.43.45.45,0,0,0-.43-.44Z" transform="translate(-77.46 -36.26)"/><path class="cls-4" d="M110.11,54.08c.13.77.32,1.53.47,2.29,0,.19.07.38.1.56s0,.2,0,.3c0-.11,0,.14,0,.14,0,.43.08.87.15,1.3a.73.73,0,0,0,1.4,0,6.16,6.16,0,0,0-.12-2.63c-.15-.8-.34-1.58-.49-2.38a.81.81,0,0,0-1-.58.82.82,0,0,0-.58,1Z" transform="translate(-77.46 -36.26)"/><path class="cls-4" d="M110.05,56.51c.81-.1,1.63-.18,2.43-.33.35-.06.7-.15,1-.24s.92-.4.91-.94a.62.62,0,0,0-.6-.61c-.28,0-.55.1-.83.15s-.65.11-1,.15h-.12l-.26,0-.5.05-1.08.1a.84.84,0,0,0-.82.81c0,.39.36.87.81.82Z" transform="translate(-77.46 -36.26)"/><path class="cls-4" d="M115.26,57.49a3.37,3.37,0,0,0,1.64,1.17,2,2,0,0,0,1.32-.17,1.76,1.76,0,0,0,.82-.73,1.54,1.54,0,0,0-.47-1.88,3.46,3.46,0,0,0-1.56-.7c-.62-.11-1.48-.16-1.91.39a.61.61,0,0,0-.09.69.59.59,0,0,0,.64.26c.14,0-.14,0,0,0l.25,0,.11,0h.07c.06,0-.19,0-.06,0a3.77,3.77,0,0,1,.58,0h0l.13,0,.34.08.13,0,.07,0,0,0,.28.14.11.07,0,0,.06.05.18.19c-.13-.11-.09-.12,0-.06l0,0a1.17,1.17,0,0,0,0,.11c-.09-.14,0-.14,0,0s0,.1,0,0h0c0,.06,0,.05,0,0s0,0,0,0,0,0,0,0l0,.07c0-.09.1-.12,0-.06l-.07.07c.11-.08,0,0,0,0l-.09.05c-.06,0-.24.08,0,0l-.16.05-.11,0c-.09,0,.18,0,0,0h-.06a.53.53,0,0,0-.19-.06l.06,0-.1-.06-.18-.11c.2.12,0,0,0,0a7,7,0,0,1-.59-.62.75.75,0,0,0-1.06,0,.77.77,0,0,0,0,1.07Z" transform="translate(-77.46 -36.26)"/><path class="cls-4" d="M120,58l0,.07.92.12c0-.34-.1-.67-.09-1a.85.85,0,0,1,.08-.35l.11-.14s0,0,0,0,0,0,0,0l-.21-.21a5.25,5.25,0,0,1,.33.49c.09.16.14.33.23.48a1.11,1.11,0,0,0,1.07.57c.77-.2.86-1.1,1.41-1.53.07,0,.14-.08.16-.07a1.12,1.12,0,0,1,.22.19,3.14,3.14,0,0,1,.49.75c.16.29.3.6.47.89a1.78,1.78,0,0,0,.94.87.64.64,0,0,0,.79-.78,3.47,3.47,0,0,0-.44-.83c-.15-.25-.29-.51-.43-.76a3.72,3.72,0,0,0-1.24-1.45,1.47,1.47,0,0,0-1.89.34c-.36.42-.51.93-1,1.2l.49-.06s-.09-.08,0,0a3,3,0,0,1-.18-.3,5.2,5.2,0,0,0-.46-.59,1.06,1.06,0,0,0-1.51,0,2.35,2.35,0,0,0-.23,2.52c.24.54,1.13.06.81-.47l0-.06A.44.44,0,0,0,120,58Z" transform="translate(-77.46 -36.26)"/><path class="cls-4" d="M130.05,54.43l-.72.53a.88.88,0,0,0-.38.91c0,.14.05.28.08.42a.92.92,0,0,0,.56.62l.33.18.15.11c.17.11-.13-.11,0,0a2.75,2.75,0,0,1,.26.22,1.09,1.09,0,0,0,.1.11c-.08-.11-.1-.13-.05-.06a.21.21,0,0,1,0,.06l0-.1c0,.06,0,.06,0,0s0-.08,0,0a.46.46,0,0,1,.06-.23c-.07.13.14-.11,0,0s.13-.08,0,0a2.69,2.69,0,0,1-.29.16c-.16.08.15,0,0,0l-.16.05c-.27.09-.54.17-.8.28l-.44.21-.13.05c.17-.11.11,0,0,0a1,1,0,0,0-.42.24c-.11.11.15-.1,0,0a.71.71,0,0,0,0,1.22,1.11,1.11,0,0,0,1,0,3.71,3.71,0,0,0,.46-.19,1.42,1.42,0,0,1,.25-.12l-.15.07.1,0,.18-.06.35-.11a3.47,3.47,0,0,0,.85-.4,1.5,1.5,0,0,0,.69-1,1.33,1.33,0,0,0-.24-1,3.91,3.91,0,0,0-1.54-1.19l.38.5-.08-.45-.38.91.72-.53a.9.9,0,0,0,.38-.5.86.86,0,0,0-.08-.61.83.83,0,0,0-1.12-.3Z" transform="translate(-77.46 -36.26)"/><path class="cls-4" d="M77.46,40.56a4.26,4.26,0,0,0,.61,2.53,1.43,1.43,0,0,0,1.5.45,2.58,2.58,0,0,0,1.09-.75l.19-.18c-.08.08,0,0,0,0s-.08,0-.13,0c.34,0-.23,0-.19-.07s0,0,0,.06a2.76,2.76,0,0,0,.28.39,2.41,2.41,0,0,0,1.18.78,1.89,1.89,0,0,0,2.34-1.17A4.55,4.55,0,0,0,84,40.18a.53.53,0,0,0-1,.13,3.55,3.55,0,0,0,0,.92s0,.2,0,.17,0,.13,0,.17,0,.3,0,.45a1.47,1.47,0,0,1,0,.21c0,.1,0-.11,0,0a.29.29,0,0,1,0,.09l0,.1s0-.1,0,0a.43.43,0,0,1,0,.07c0-.08,0,0,0,0s0,0,0,0l-.11.06a.47.47,0,0,1-.15.06.86.86,0,0,1-.39,0,1.16,1.16,0,0,1-.64-.5,1.11,1.11,0,0,0-1-.61,1.65,1.65,0,0,0-.93.57l-.15.15a.39.39,0,0,1-.1.08s.06,0,0,0a.59.59,0,0,1-.33.11c-.12,0-.15-.12-.22-.26l-.06-.18a2,2,0,0,1,0-.26c-.06-.33-.06-.73-.09-1.09a.63.63,0,0,0-.62-.62.61.61,0,0,0-.62.61Z" transform="translate(-77.46 -36.26)"/><path class="cls-4" d="M84.48,37.24c.14,1,.29,2,.39,3a9.88,9.88,0,0,0,.37,2.92.8.8,0,0,0,1.26.16c.25-.3.53-.76.71-1,0,.06.05-.06.06-.07l.11-.12.1-.11,0,0c-.09.07.2-.16.1-.07s.07,0,0,0a.14.14,0,0,1-.09,0c-.06,0,0,0,0,0l-.07,0,.07,0s-.06-.05-.06-.05a.42.42,0,0,1,.1.22c.07.24.1.48.16.73a5.4,5.4,0,0,0,.3.94,1.78,1.78,0,0,0,.73.78.74.74,0,0,0,.87-.12.76.76,0,0,0,.11-.86,4.62,4.62,0,0,1-.36-.84c-.09-.3-.13-.61-.21-.91a1.86,1.86,0,0,0-1.35-1.49,1.79,1.79,0,0,0-1.64.7,6.76,6.76,0,0,0-.55.74l-.18.28-.1.14c-.09.14.09-.11,0,0l1.27.17a3,3,0,0,1-.08-1c0-.49-.07-1-.13-1.47-.11-1-.27-2-.41-3a.79.79,0,1,0-1.53.39Z" transform="translate(-77.46 -36.26)"/><path class="cls-4" d="M90.73,42.15a5.71,5.71,0,0,0,.48,1.62,1.82,1.82,0,0,0,.74.79,1.58,1.58,0,0,0,1.45,0,2.3,2.3,0,0,0,.95-.88,2,2,0,0,0,.19-1.36,2.1,2.1,0,0,0-1.87-1.7A3.06,3.06,0,0,0,91.1,41a5.25,5.25,0,0,0-1.27.91.62.62,0,0,0,0,.81.6.6,0,0,0,.78.15c.31-.14.62-.3.94-.42l.13,0,.23-.07.23-.07.15,0c.14,0-.09,0,0,0h.33c.1,0-.15,0-.06,0l.11,0c.09,0,0,0-.06,0a1.45,1.45,0,0,0,.18.1c.08,0-.13-.12-.06-.05l.06.06.08.08c.06.06,0,.06,0-.07a.65.65,0,0,0,.09.16.3.3,0,0,0,0,.08c0-.06-.07-.19,0,0a1.21,1.21,0,0,1,0,.18.28.28,0,0,0,0,.09s0-.21,0-.08a1.08,1.08,0,0,0,0,.18c0-.12,0-.17,0-.09s0,.06,0,0-.06.11-.09.16-.06,0,0-.06,0,.05-.06.07l-.13.13c-.1.1,0,0,.06,0s-.09.06-.12.07l-.08,0s.21-.06.08,0l-.08,0c-.11,0,.08,0,.09,0h-.08c.09,0,.19,0,.1,0l-.07,0c.16,0,.17.07.07,0s.11.11,0,0l-.1-.11c-.08-.08.07.09.07.09l0-.07-.09-.15,0-.07c-.07-.14.08.2,0,.06s0-.13-.07-.19l-.09-.34c0-.21-.08-.43-.12-.64a.82.82,0,0,0-1-.58.84.84,0,0,0-.59,1Z" transform="translate(-77.46 -36.26)"/><path class="cls-4" d="M94.86,38.8c0,.92.12,1.84.18,2.75a19.19,19.19,0,0,0,.24,2.83.67.67,0,0,0,1.29,0,10.24,10.24,0,0,0,.1-2.82c0-.92-.13-1.83-.18-2.75a.84.84,0,0,0-.81-.82.82.82,0,0,0-.82.81Z" transform="translate(-77.46 -36.26)"/><path class="cls-4" d="M98.94,43.56a2.27,2.27,0,0,0,2.47-1,1.58,1.58,0,0,0,.15-1,1.21,1.21,0,0,0-.51-.74,1.57,1.57,0,0,0-1.53,0,2.79,2.79,0,0,0-1.29,2.14,2.63,2.63,0,0,0,.16,1.49,1.6,1.6,0,0,0,1,.85,2.72,2.72,0,0,0,1.33.06,2.38,2.38,0,0,0,.53-.11l.53-.21a.69.69,0,0,0,.49-.73.65.65,0,0,0-.66-.58,7.68,7.68,0,0,0-1,.11l-.21,0h0s-.16,0-.19,0H100l-.17,0-.08,0s.2.09.08,0l-.07,0,0,0c-.06,0,.13.11.09.06l-.07-.06c-.1-.1.06.07,0,.07s-.09-.15-.1-.17.06.11,0,.11l0-.05,0-.1a.43.43,0,0,1,0-.11c0-.15,0,.13,0,0a2.81,2.81,0,0,1,0-.41.38.38,0,0,0,0-.1c0-.08,0,.11,0,.09a.43.43,0,0,0,0-.05c0-.08,0-.16,0-.23a2.17,2.17,0,0,1,.07-.24.42.42,0,0,1,0-.1v-.06c0-.09,0,0,0,.06s.13-.27.22-.4l0,0s-.1.13-.05.08l.06-.08.08-.08,0,0-.06,0,.17-.1s-.15.05-.09,0l0,0h.06c-.11,0,.11,0,0,0l.06,0c.11,0-.11-.06,0,0s.07,0,0,0,0,0,0,0l-.06-.08,0,0c0,.07,0-.1,0-.09s0,0,0,0,0-.09,0-.08,0,0,0,0,0-.08,0-.07a.19.19,0,0,0,0,.08c0,.1,0-.11,0,0s-.06.08-.07.12.1-.11,0-.07l0,.06L100,42c-.07.07.16-.1,0,0L100,42l0,0c-.07.05.16,0,.08,0l-.12,0-.14,0h-.06c.13,0,0,0,0,0h-.14a4.87,4.87,0,0,1-.54,0,.73.73,0,0,0-.73.72.76.76,0,0,0,.73.74Z" transform="translate(-77.46 -36.26)"/></svg>