<?xml version="1.0" encoding="utf-8"?>
<!-- Generator: Adobe Illustrator 26.0.2, SVG Export Plug-In . SVG Version: 6.00 Build 0)  -->
<svg version="1.1" id="Layer_1" xmlns="http://www.w3.org/2000/svg" xmlns:xlink="http://www.w3.org/1999/xlink" x="0px" y="0px"
	 viewBox="0 0 300 61.42" style="enable-background:new 0 0 300 61.42;" xml:space="preserve">
<style type="text/css">
	.st0{fill:#486AFB;}
	.st1{fill:#FFFFFF;}
	.st2{fill:#FD46FC;}
</style>
<g>
	<g>
		<path class="st0" d="M212.55,0.41c-4.72,0.7-9.55,1.49-13.85,3.66c-2.12,1.07-4.08,2.52-5.61,4.35c-1.68,2.01-2.86,4.38-3.81,6.81
			c-2.04,5.2-3.08,10.84-2.8,16.43c0.25,5.07,1.45,10.74,4.84,14.7c3.32,3.88,8.51,4.8,13.37,4.89c4.7,0.09,9.62-0.27,14.01-2.06
			c2.1-0.86,4.05-2.05,5.65-3.67c1.75-1.77,2.98-3.96,3.8-6.29c1.63-4.62,1.9-9.84,1.4-14.68c-0.49-4.74-1.84-9.41-4.22-13.55
			c-2.39-4.16-5.95-8.13-10.45-10.01c-1.14-0.47-2.31-0.77-3.54-0.91c-0.64-0.07-0.63,0.93,0,1c4.83,0.53,8.86,4.24,11.58,8.02
			c2.64,3.68,4.33,7.98,5.18,12.42c0.87,4.54,0.91,9.32,0.04,13.86c-0.91,4.75-3.11,9.12-7.36,11.67c-3.85,2.31-8.48,3.01-12.9,3.18
			c-4.55,0.17-9.68,0.1-13.6-2.53c-4.15-2.79-5.79-8.12-6.49-12.81c-0.79-5.29-0.26-10.75,1.25-15.86
			c1.41-4.79,3.55-9.68,7.76-12.64c3.71-2.62,8.27-3.7,12.68-4.47c1.11-0.19,2.23-0.36,3.34-0.53
			C213.45,1.28,213.18,0.32,212.55,0.41L212.55,0.41z"/>
	</g>
</g>
<g>
	<g>
		<path class="st0" d="M176.4,0.35c-9.39,1.86-17.52,8.74-20.26,18c-1.41,4.75-1.42,9.97,0.17,14.68c1.45,4.29,4.2,8.09,7.77,10.85
			c3.95,3.06,8.61,4.49,13.58,4.72c2.73,0.13,5.57,0.11,8.28-0.31c2.49-0.38,4.75-1.39,6.52-3.2c1.66-1.69,2.8-3.81,3.69-5.99
			c1.03-2.53,1.75-5.19,2.17-7.88c0.82-5.29,0.52-10.77-1.02-15.91c-1.35-4.52-3.74-8.91-7.49-11.88
			c-3.61-2.86-8.57-4.22-13.09-2.98c-1.08,0.3-2.1,0.75-3.05,1.33c-0.55,0.34-0.05,1.2,0.5,0.86c3.88-2.38,8.87-2.02,12.78,0.09
			c4.04,2.17,6.84,6.14,8.51,10.33c1.83,4.6,2.53,9.65,2.24,14.58c-0.29,4.86-1.49,10.03-4.04,14.22c-1.22,2-2.88,3.78-5.08,4.68
			c-2.34,0.97-4.97,1.02-7.46,1.07c-5.02,0.11-9.95-0.46-14.32-3.09c-3.63-2.18-6.6-5.43-8.48-9.23c-2.08-4.21-2.68-9.08-1.92-13.7
			c1.52-9.17,8.32-16.6,17.09-19.48c1.04-0.34,2.09-0.61,3.16-0.82C177.3,1.19,177.03,0.22,176.4,0.35L176.4,0.35z"/>
	</g>
</g>
<g>
	<g>
		<path class="st1" d="M155.23,40.95c12.02,3.65,25.79,5.27,37.32-0.85c3.35-1.78,6.26-4.24,8.95-6.89
			c1.38-1.36-0.74-3.48-2.12-2.12c-2.28,2.24-4.68,4.33-7.46,5.93c-2.46,1.41-5.1,2.42-7.85,3.1c-5.63,1.39-11.6,1.35-17.32,0.47
			c-3.64-0.56-7.21-1.47-10.73-2.54C154.18,37.49,153.39,40.39,155.23,40.95L155.23,40.95z"/>
	</g>
</g>
<g>
	<g>
		<path class="st1" d="M151.52,27.5c2.45,0.77,4.99,1.21,7.55,1.37c0.78,0.05,1.53-0.72,1.5-1.5c-0.04-0.85-0.66-1.45-1.5-1.5
			c-0.58-0.04-1.17-0.09-1.75-0.16c-0.09-0.01-0.18-0.02-0.27-0.03c0.18,0.02,0.17,0.02,0,0c-0.13-0.02-0.27-0.04-0.4-0.06
			c-0.29-0.05-0.58-0.09-0.86-0.15c-1.17-0.22-2.33-0.51-3.47-0.87c-0.75-0.23-1.67,0.28-1.85,1.05
			C150.29,26.47,150.72,27.25,151.52,27.5L151.52,27.5z"/>
	</g>
</g>
<g>
	<g>
		<path class="st0" d="M88.03,1.57c-8.2,3.02-10.71,12.64-11.72,20.41c-0.56,4.31-0.44,8.78,1.29,12.83
			c1.56,3.64,4.33,6.51,8.05,7.93c3.65,1.39,8.06,1.59,11.78,0.35c1.85-0.61,3.54-1.63,4.85-3.08c1.33-1.48,2.25-3.27,2.97-5.12
			c3.03-7.67,2.96-17.02-1-24.35c-1.68-3.11-4.11-5.95-7.24-7.66c-2.95-1.61-6.82-2.29-9.92-0.72c-0.78,0.39-1.47,0.95-2.01,1.64
			C84.69,4.29,85.39,5,85.79,4.5c2.15-2.73,6.22-2.59,9.18-1.47c3.08,1.16,5.59,3.57,7.39,6.28c4.24,6.39,4.94,14.85,2.98,22.15
			c-0.97,3.61-2.55,7.58-5.89,9.62c-3.16,1.93-7.27,2.16-10.83,1.47c-3.77-0.73-7.01-2.76-9.04-6.05
			c-2.08-3.37-2.72-7.37-2.56-11.28c0.09-2.23,0.42-4.44,0.85-6.63c0.39-1.97,0.86-3.93,1.53-5.83c1.25-3.53,3.31-6.93,6.51-9.01
			c0.75-0.49,1.54-0.89,2.37-1.2C88.89,2.31,88.63,1.34,88.03,1.57L88.03,1.57z"/>
	</g>
</g>
<g>
	<g>
		<path class="st1" d="M104.17,29.78c0.35-0.07,0.71-0.13,1.07-0.19c0.19-0.03,0.38-0.06,0.58-0.09c0.04-0.01,0.48-0.07,0.26-0.04
			c0.69-0.09,1.38-0.16,2.08-0.21c1.42-0.11,2.85-0.14,4.28-0.12c0.78,0.01,1.54-0.7,1.5-1.5c-0.04-0.82-0.66-1.49-1.5-1.5
			c-3.04-0.05-6.07,0.19-9.05,0.75c-0.77,0.15-1.28,1.12-1.05,1.85C102.59,29.56,103.34,29.94,104.17,29.78L104.17,29.78z"/>
	</g>
</g>
<g>
	<g>
		<path class="st1" d="M101.49,13.08c0.55-0.29,1.1-0.58,1.66-0.84c0.28-0.13,0.56-0.26,0.84-0.39c0.16-0.07,0.32-0.14,0.49-0.21
			c0.08-0.04,0.16-0.07,0.24-0.1c-0.13,0.06-0.15,0.06-0.05,0.02c1.18-0.47,2.36-0.91,3.57-1.28c0.75-0.23,1.3-1.06,1.05-1.85
			c-0.24-0.76-1.04-1.29-1.85-1.05c-2.58,0.79-5.09,1.83-7.47,3.11c-0.69,0.37-0.97,1.39-0.54,2.05
			C99.89,13.25,100.75,13.48,101.49,13.08L101.49,13.08z"/>
	</g>
</g>
<g>
	<g>
		<path class="st0" d="M70.49,55.98c-0.06,0.94-0.01,1.88,0.13,2.82c0.04,0.26,0.38,0.43,0.62,0.35c0.28-0.09,0.39-0.34,0.35-0.62
			c-0.03-0.18-0.05-0.34-0.07-0.57c-0.02-0.22-0.04-0.44-0.04-0.66c-0.02-0.44-0.01-0.88,0.02-1.32c0.02-0.26-0.24-0.51-0.5-0.5
			C70.7,55.49,70.51,55.7,70.49,55.98L70.49,55.98z"/>
	</g>
</g>
<g>
	<g>
		<path class="st0" d="M70.37,53.78c0.14,0.15,0.35,0.23,0.56,0.23c0.06,0,0.13-0.01,0.18-0.02c0.02,0,0.04-0.01,0.06-0.01
			c0.06-0.02,0.11-0.04,0.17-0.07c0.05-0.03,0.1-0.07,0.15-0.11c0.06-0.05,0.11-0.12,0.15-0.18c0.01-0.03,0.03-0.06,0.04-0.08
			c0.01-0.03,0.03-0.06,0.03-0.08c0-0.01,0.01-0.02,0.01-0.04c0.01-0.05,0.02-0.11,0.02-0.17c0-0.01,0-0.02,0-0.03
			c-0.01-0.05-0.01-0.11-0.02-0.16c-0.01-0.06-0.05-0.12-0.07-0.18c-0.01-0.02-0.02-0.04-0.03-0.06c-0.03-0.05-0.08-0.11-0.12-0.15
			c-0.1-0.09-0.21-0.16-0.35-0.2c-0.13-0.04-0.28-0.04-0.41,0c-0.07,0.02-0.12,0.05-0.17,0.09c-0.05,0.04-0.1,0.08-0.13,0.14
			c-0.04,0.06-0.06,0.12-0.06,0.19c-0.01,0.07-0.01,0.13,0.01,0.2c0.02,0.04,0.03,0.08,0.05,0.12c0.04,0.08,0.1,0.13,0.18,0.18
			c0.04,0.02,0.08,0.03,0.12,0.05c0.09,0.02,0.18,0.02,0.27,0c0.01,0,0.02,0,0.03-0.01c-0.04,0.01-0.09,0.01-0.13,0.02
			c0.02,0,0.04,0,0.07,0c-0.04-0.01-0.09-0.01-0.13-0.02c0.03,0,0.05,0.01,0.08,0.02c-0.04-0.02-0.08-0.03-0.12-0.05
			c0.02,0.01,0.05,0.02,0.07,0.04c-0.03-0.03-0.07-0.05-0.1-0.08c0.02,0.02,0.05,0.04,0.07,0.07c-0.03-0.03-0.05-0.07-0.08-0.1
			c0.02,0.02,0.03,0.05,0.04,0.07c-0.02-0.04-0.03-0.08-0.05-0.12c0.01,0.02,0.02,0.05,0.02,0.08c-0.01-0.04-0.01-0.09-0.02-0.13
			c0,0.02,0,0.04,0,0.06c0.01-0.04,0.01-0.09,0.02-0.13c0,0.02-0.01,0.04-0.02,0.06c0.02-0.04,0.03-0.08,0.05-0.12
			c-0.01,0.02-0.02,0.04-0.03,0.06c0.03-0.03,0.05-0.07,0.08-0.1c-0.02,0.02-0.03,0.04-0.05,0.05c0.03-0.03,0.07-0.05,0.1-0.08
			c-0.02,0.02-0.05,0.03-0.07,0.04c0.04-0.02,0.08-0.03,0.12-0.05c-0.03,0.01-0.06,0.02-0.09,0.02c0.04-0.01,0.09-0.01,0.13-0.02
			c-0.03,0-0.06,0-0.09,0c0.04,0.01,0.09,0.01,0.13,0.02c-0.03,0-0.05-0.01-0.07-0.02c0.04,0.02,0.08,0.03,0.12,0.05
			c-0.02-0.01-0.04-0.02-0.05-0.03c0.03,0.03,0.07,0.05,0.1,0.08c-0.01-0.01-0.02-0.02-0.03-0.03c-0.05-0.05-0.1-0.08-0.16-0.1
			c-0.06-0.03-0.12-0.05-0.19-0.04c-0.07,0-0.13,0.01-0.19,0.04c-0.06,0.02-0.12,0.05-0.16,0.1c-0.09,0.1-0.15,0.22-0.15,0.35
			c0.01,0.04,0.01,0.09,0.02,0.13C70.27,53.65,70.31,53.72,70.37,53.78L70.37,53.78z"/>
	</g>
</g>
<g>
	<g>
		<path class="st0" d="M73.73,57.92c0.03,0.08,0.02,0.03,0-0.02c-0.01-0.04-0.02-0.08-0.03-0.12c-0.01-0.03-0.02-0.07-0.02-0.11
			c0-0.02-0.01-0.04-0.01-0.05c0,0.03,0.01,0.09,0.01,0.03c0-0.08-0.01-0.15,0-0.23c0-0.04,0.01-0.07,0.01-0.11
			c0-0.06-0.01,0.05-0.01,0.04c-0.01-0.02,0.01-0.07,0.02-0.09c0.01-0.07,0.03-0.14,0.05-0.21c0.01-0.04,0.03-0.08,0.04-0.12
			c0-0.01,0.03-0.07,0-0.01c-0.03,0.06,0.01-0.01,0.01-0.02c0.03-0.06,0.07-0.13,0.1-0.19c0.02-0.04,0.05-0.07,0.07-0.1
			c0.01-0.01,0.05-0.06,0-0.01c-0.04,0.05,0.01-0.01,0.02-0.02c0.05-0.06,0.1-0.12,0.16-0.17c0.02-0.02,0.05-0.06,0.08-0.07
			c0,0-0.08,0.05-0.03,0.02c0.02-0.01,0.04-0.03,0.06-0.04c0.07-0.04,0.13-0.08,0.2-0.11c0.08-0.04-0.08,0.02,0.01,0
			c0.05-0.02,0.1-0.03,0.15-0.05c0.05-0.01,0.11-0.01,0.03-0.01c0.04,0,0.08-0.01,0.12-0.01c0.02,0,0.04,0,0.06,0
			c0.07,0-0.08-0.02-0.02,0c0.02,0.01,0.04,0.01,0.06,0.01c0.06,0.01,0.02,0.01-0.01-0.01c0.04,0.03,0.08,0.06,0.03,0.01
			c0.02,0.02,0.08,0.09,0.04,0.03c0.03,0.05,0.05,0.09,0.08,0.14c0.03,0.05,0,0-0.01-0.01c0.01,0.03,0.02,0.06,0.03,0.09
			c0.19,0.51,0.39,1.02,0.58,1.54c0.09,0.24,0.34,0.44,0.62,0.35c0.24-0.08,0.45-0.35,0.35-0.62c-0.2-0.53-0.4-1.07-0.6-1.6
			c-0.12-0.3-0.26-0.57-0.54-0.74c-0.23-0.14-0.51-0.2-0.78-0.18c-0.94,0.08-1.69,0.84-1.92,1.74c-0.14,0.52-0.08,1.04,0.12,1.53
			c0.1,0.24,0.48,0.31,0.68,0.18C73.81,58.45,73.84,58.18,73.73,57.92L73.73,57.92z"/>
	</g>
</g>
<g>
	<g>
		<path class="st0" d="M80.38,55.52c-0.93-0.06-1.97,0.48-2.33,1.38c-0.41,1.04,0.76,1.72,1.66,1.63c0.84-0.08,1.6-0.64,1.87-1.44
			c0.34-1-0.26-2.02-0.89-2.75c-0.73-0.84-1.66-1.47-2.68-1.9c-0.25-0.1-0.55,0.11-0.62,0.35c-0.08,0.29,0.1,0.51,0.35,0.62
			c0.62,0.26,1.2,0.63,1.69,1.08c0.5,0.45,1.02,1.01,1.19,1.67c0.13,0.51-0.05,0.95-0.49,1.21c-0.37,0.22-0.86,0.28-1.17-0.05
			c-0.06-0.06-0.01,0.02-0.01,0.01c0.01-0.03,0.02-0.07,0.03-0.1c0.02-0.05,0.07-0.11,0.1-0.16c0.09-0.12,0.21-0.23,0.34-0.31
			c0.29-0.19,0.6-0.26,0.94-0.24c0.27,0.02,0.5-0.24,0.5-0.5C80.88,55.73,80.65,55.54,80.38,55.52L80.38,55.52z"/>
	</g>
</g>
<g>
	<g>
		<path class="st0" d="M83.92,56.95c0.51,0.1,1.03,0.16,1.55,0.15c0.44,0,0.99,0.02,1.36-0.27c0.23-0.18,0.35-0.47,0.28-0.76
			c-0.06-0.25-0.23-0.44-0.42-0.59c-0.36-0.3-0.77-0.54-1.23-0.64c-0.89-0.19-1.82,0.12-2.32,0.91c-0.49,0.77-0.26,1.75,0.39,2.34
			c0.81,0.74,1.91,0.76,2.95,0.72c0.26-0.01,0.51-0.22,0.5-0.5c-0.01-0.26-0.22-0.51-0.5-0.5c-0.37,0.01-0.74,0.03-1.11,0
			c-0.04,0-0.08-0.01-0.12-0.01c0.06,0.01-0.05-0.01-0.07-0.01c-0.09-0.01-0.17-0.03-0.25-0.05c-0.07-0.02-0.15-0.04-0.22-0.07
			c0.02,0.01-0.15-0.06-0.08-0.03c0.04,0.02-0.07-0.04-0.09-0.05c-0.06-0.03-0.12-0.07-0.18-0.11c-0.03-0.02-0.05-0.04-0.08-0.06
			c0.07,0.05-0.01-0.01-0.03-0.03c-0.05-0.05-0.1-0.1-0.15-0.15c-0.02-0.02-0.04-0.05-0.06-0.07c0.06,0.07-0.02-0.03-0.03-0.05
			c-0.02-0.03-0.04-0.07-0.06-0.1c-0.01-0.02-0.05-0.11-0.02-0.03c-0.02-0.06-0.04-0.12-0.06-0.17c0,0-0.02-0.14-0.01-0.07
			c0.01,0.07,0-0.08,0-0.07c0-0.03,0-0.06,0-0.09c0.01-0.13-0.03,0.08,0.01-0.05c0.01-0.03,0.01-0.06,0.02-0.09
			c0,0,0.05-0.13,0.02-0.07c-0.03,0.07,0.04-0.07,0.03-0.06c0.01-0.03,0.03-0.05,0.05-0.08c0.02-0.03,0.03-0.05,0.05-0.07
			c-0.05,0.07,0.01-0.01,0.02-0.02c0.06-0.06,0.12-0.12,0.18-0.17c-0.07,0.06,0.07-0.04,0.09-0.05c0.03-0.02,0.05-0.03,0.08-0.04
			c-0.01,0,0.13-0.06,0.07-0.03c-0.07,0.03,0.08-0.02,0.07-0.02c0.03-0.01,0.06-0.02,0.09-0.02c0.03-0.01,0.06-0.01,0.09-0.02
			c-0.09,0.02,0.05,0,0.07-0.01c0.09,0,0.17,0,0.26,0c0.01,0,0.1,0.01,0.02,0c0.03,0.01,0.07,0.01,0.1,0.02
			c0.08,0.02,0.17,0.04,0.25,0.07c0.03,0.01,0.07,0.02,0.1,0.04c-0.07-0.03,0.07,0.04,0.07,0.04c0.07,0.04,0.14,0.07,0.2,0.12
			c0.04,0.02,0.07,0.05,0.11,0.07c0.01,0,0.07,0.06,0.02,0.02c0.06,0.05,0.12,0.1,0.17,0.15c0.01,0.01,0.01,0.01,0.02,0.02
			c0.04,0.04,0.04,0.05,0.01,0.01c0-0.01-0.01-0.02-0.01-0.04c-0.01-0.07,0-0.13,0.03-0.19c0.02-0.03,0.04-0.05,0.08-0.08
			c-0.08,0.06,0.08-0.01-0.03,0.02c-0.03,0.01-0.05,0.01-0.08,0.02c-0.1,0.03,0.08,0-0.05,0.01c-0.22,0.02-0.43,0.03-0.65,0.03
			c-0.44,0-0.84-0.04-1.25-0.12c-0.26-0.05-0.55,0.07-0.62,0.35C83.51,56.58,83.64,56.9,83.92,56.95L83.92,56.95z"/>
	</g>
</g>
<g>
	<g>
		<path class="st0" d="M89.29,58.16c0.74-0.71,1.38-1.54,1.88-2.44c0.13-0.23,0.06-0.56-0.18-0.68c-0.24-0.12-0.55-0.06-0.68,0.18
			c-0.24,0.42-0.5,0.84-0.8,1.22c0.06-0.08-0.03,0.03-0.05,0.06c-0.04,0.05-0.08,0.09-0.12,0.14c-0.08,0.09-0.16,0.19-0.24,0.28
			c-0.17,0.19-0.34,0.36-0.52,0.54c-0.19,0.18-0.2,0.53,0,0.71C88.78,58.35,89.08,58.36,89.29,58.16L89.29,58.16z"/>
	</g>
</g>
<g>
	<g>
		<path class="st0" d="M88.95,56.33c0.69,0.73,1.38,1.47,2.08,2.2c0.18,0.19,0.53,0.2,0.71,0c0.19-0.2,0.19-0.5,0-0.71
			c-0.69-0.73-1.38-1.47-2.08-2.2c-0.18-0.19-0.53-0.2-0.71,0C88.76,55.83,88.76,56.13,88.95,56.33L88.95,56.33z"/>
	</g>
</g>
<g>
	<g>
		<path class="st0" d="M101.14,54.51c-0.63-0.01-1.29,0.08-1.88,0.31c-0.3,0.11-0.61,0.27-0.76,0.57c-0.15,0.28-0.15,0.61-0.04,0.9
			c0.12,0.3,0.31,0.53,0.56,0.72c0.21,0.16,0.45,0.27,0.66,0.43c0.02,0.02,0.05,0.04,0.1,0.09c0.02,0.02,0.09,0.12,0.06,0.06
			c0.03,0.04,0.05,0.08,0.07,0.13c-0.03-0.06,0.02,0.09,0.03,0.12c0.02,0.08,0.01-0.02,0,0.07c0,0.03-0.01,0.16,0,0.13
			c0.01-0.03-0.02,0.08-0.03,0.1c0,0.01-0.04,0.11-0.02,0.06c0.02-0.04-0.03,0.04-0.03,0.05c-0.08,0.13-0.21,0.22-0.38,0.24
			c-0.08,0.01-0.16,0.01-0.25-0.01c-0.02-0.01-0.05-0.01-0.07-0.02c-0.08-0.02,0.08,0.05-0.04-0.02c-0.02-0.01-0.04-0.02-0.06-0.04
			c-0.07-0.04,0.08,0.07-0.04-0.03c-0.2-0.18-0.51-0.2-0.71,0c-0.18,0.18-0.21,0.53,0,0.71c0.44,0.38,1.05,0.52,1.61,0.32
			c0.59-0.22,0.96-0.73,1.02-1.35c0.06-0.63-0.28-1.14-0.77-1.49c-0.11-0.08-0.23-0.15-0.34-0.22c-0.1-0.06-0.22-0.14-0.27-0.19
			c-0.03-0.03-0.05-0.05-0.07-0.08c0.01,0.01,0.03,0.04,0-0.01c-0.02-0.02-0.08-0.14-0.06-0.1c-0.01-0.02-0.06-0.13-0.02-0.07
			c-0.01-0.02-0.02-0.07-0.01-0.01c0-0.03,0.03-0.06,0-0.02c-0.01,0.02-0.06,0.03,0.03-0.03c-0.04,0.03,0.04-0.02,0.04-0.02
			c0.05-0.03,0.08-0.04,0.16-0.07c0.17-0.06,0.35-0.11,0.53-0.15c0.34-0.08,0.68-0.1,1.03-0.09c0.27,0.01,0.5-0.23,0.5-0.5
			C101.64,54.73,101.42,54.51,101.14,54.51L101.14,54.51z"/>
	</g>
</g>
<g>
	<g>
		<path class="st0" d="M102.72,57.51c0.4,0.25,0.84,0.47,1.32,0.47c0.47,0,0.92-0.22,1.18-0.61c0.28-0.41,0.22-0.99-0.06-1.39
			c-0.23-0.34-0.6-0.59-1-0.68c-0.85-0.19-1.69,0.26-2.04,1.05c-0.37,0.84-0.24,1.97,0.62,2.47c0.79,0.46,1.71,0.13,2.55,0.1
			c0.26-0.01,0.51-0.22,0.5-0.5c-0.01-0.26-0.22-0.51-0.5-0.5c-0.31,0.01-0.61,0.06-0.91,0.09c-0.15,0.02-0.3,0.03-0.44,0.04
			c-0.07,0-0.14,0.01-0.21,0c-0.03,0-0.05,0-0.08,0c-0.01,0-0.17-0.01-0.09,0c0.08,0.01-0.04-0.01-0.05-0.01
			c-0.04-0.01-0.07-0.02-0.11-0.03c-0.02-0.01-0.05-0.02-0.07-0.02c-0.12-0.03,0.09,0.05-0.02-0.01c-0.06-0.03-0.11-0.06-0.16-0.1
			c0.08,0.06,0.03,0.02,0.01,0c-0.01-0.01-0.13-0.14-0.07-0.06c-0.05-0.06-0.09-0.13-0.12-0.2c0.03,0.08,0,0,0-0.01
			c-0.01-0.05-0.03-0.09-0.04-0.14c-0.01-0.03-0.01-0.06-0.02-0.09c0.02,0.1,0-0.03,0-0.04c0-0.08,0-0.16,0.01-0.25
			c0,0.1-0.01,0.04,0,0.01c0.01-0.04,0.02-0.08,0.03-0.12c0.02-0.07,0.04-0.13,0.06-0.2c-0.04,0.1-0.01,0.01,0.01-0.01
			c0.01-0.03,0.03-0.06,0.05-0.09c0.02-0.03,0.03-0.06,0.05-0.09c0.07-0.11-0.03,0.03,0.03-0.04c0.05-0.05,0.09-0.1,0.14-0.14
			c0.09-0.09-0.05,0.03,0.01-0.01c0.03-0.02,0.06-0.04,0.08-0.06c0.03-0.02,0.06-0.03,0.09-0.05c0.07-0.04-0.11,0.03,0,0
			c0.06-0.02,0.15-0.06,0.21-0.05c-0.11-0.01-0.04,0,0,0c0.03,0,0.06,0,0.09,0c0.03,0,0.09-0.01,0.11,0.01c-0.01,0-0.12-0.02-0.02,0
			c0.06,0.01,0.12,0.03,0.18,0.05c0.12,0.03-0.09-0.05,0.02,0c0.03,0.02,0.06,0.03,0.1,0.05c0.03,0.02,0.06,0.04,0.09,0.06
			c-0.01-0.01-0.08-0.07-0.02-0.01c0.03,0.03,0.14,0.16,0.07,0.06c0.03,0.05,0.07,0.1,0.09,0.16c-0.05-0.11,0.01,0.04,0.01,0.05
			c0.04,0.13,0-0.07,0.01,0.06c0.01,0.14,0.02-0.08-0.01,0.06c-0.03,0.13,0.03-0.1-0.01,0.02c-0.03,0.1,0.06-0.05-0.01,0.02
			c-0.03,0.03-0.05,0.05-0.08,0.08c0.08-0.07,0.02-0.02-0.01,0c-0.03,0.02-0.15,0.06-0.04,0.02c-0.03,0.01-0.06,0.02-0.09,0.03
			c-0.04,0.01-0.16,0.01-0.04,0.01c-0.03,0-0.05,0-0.08,0c-0.03,0-0.06,0-0.09,0c0.05,0.01,0.05,0.01-0.01,0
			c-0.09-0.02-0.19-0.05-0.28-0.08c0.02,0.01,0.08,0.04-0.01-0.01c-0.06-0.03-0.12-0.06-0.17-0.09c-0.09-0.05-0.17-0.1-0.25-0.15
			c-0.22-0.14-0.56-0.05-0.68,0.18C102.41,57.07,102.48,57.36,102.72,57.51L102.72,57.51z"/>
	</g>
</g>
<g>
	<g>
		<path class="st0" d="M107.22,54.39c0.08,1.47,0.15,2.93,0.23,4.4c0.01,0.27,0.22,0.5,0.5,0.5c0.26,0,0.51-0.23,0.5-0.5
			c-0.08-1.47-0.15-2.93-0.23-4.4c-0.01-0.27-0.22-0.5-0.5-0.5C107.46,53.89,107.21,54.12,107.22,54.39L107.22,54.39z"/>
	</g>
</g>
<g>
	<g>
		<path class="st0" d="M106.89,56.7c1.17-0.18,2.38-0.07,3.51,0.27c0.26,0.08,0.54-0.09,0.62-0.35c0.07-0.27-0.09-0.54-0.35-0.62
			c-1.31-0.4-2.69-0.48-4.04-0.27c-0.27,0.04-0.41,0.38-0.35,0.62C106.36,56.64,106.62,56.74,106.89,56.7L106.89,56.7z"/>
	</g>
</g>
<g>
	<g>
		<path class="st0" d="M173.1,54.15c0.33,0.74,0.68,1.48,1.03,2.21c0.3,0.62,0.55,1.38,1.27,1.62c0.19,0.06,0.48-0.04,0.56-0.23
			c0.72-1.59,1.44-3.18,2.15-4.77c0.11-0.25,0.07-0.54-0.18-0.68c-0.21-0.13-0.57-0.07-0.68,0.18c-0.72,1.59-1.44,3.18-2.15,4.77
			c0.19-0.08,0.38-0.15,0.56-0.23c-0.16-0.05-0.26-0.31-0.33-0.45c-0.16-0.32-0.31-0.64-0.46-0.96c-0.31-0.65-0.61-1.3-0.91-1.96
			c-0.11-0.25-0.47-0.31-0.68-0.18C173.02,53.62,172.98,53.91,173.1,54.15L173.1,54.15z"/>
	</g>
</g>
<g>
	<g>
		<path class="st0" d="M177.05,59.14c0.03,0.59,0.07,1.19,0.1,1.78c0.01,0.26,0.22,0.51,0.5,0.5c0.26-0.01,0.52-0.22,0.5-0.5
			c-0.03-0.59-0.07-1.19-0.1-1.78c-0.01-0.26-0.22-0.51-0.5-0.5C177.29,58.66,177.03,58.86,177.05,59.14L177.05,59.14z"/>
	</g>
</g>
<g>
	<g>
		<path class="st0" d="M204.95,54.73c0.45,1.28,1.07,2.5,1.88,3.59c0.2,0.27,0.69,0.37,0.86,0c0.42-0.87,0.83-1.75,1.25-2.62
			c0.2-0.42,0.41-0.84,0.6-1.27c0.13-0.29,0.13-0.61-0.13-0.83c-0.22-0.18-0.59-0.18-0.78,0.05c-0.17,0.21-0.21,0.5,0,0.71
			c0.17,0.17,0.54,0.21,0.71,0c0.01-0.01,0.01-0.02,0.02-0.03c-0.07,0.04-0.15,0.09-0.22,0.13c0.01,0,0.02-0.01,0.03-0.01
			c-0.09,0-0.18,0-0.27,0c-0.02-0.01-0.03-0.02-0.05-0.03c-0.06-0.06-0.12-0.12-0.18-0.18c0.01,0.01,0.01,0.02,0.02,0.03
			c-0.02-0.08-0.05-0.17-0.07-0.25c0.05-0.1,0.05-0.1,0,0c-0.02,0.05-0.05,0.1-0.07,0.15c-0.03,0.07-0.07,0.15-0.1,0.22
			c-0.08,0.17-0.16,0.34-0.24,0.51c-0.15,0.32-0.3,0.63-0.45,0.95c-0.31,0.66-0.63,1.31-0.94,1.97c0.29,0,0.58,0,0.86,0
			c-0.75-1.03-1.36-2.15-1.78-3.36c-0.09-0.25-0.34-0.42-0.62-0.35C205.05,54.18,204.86,54.47,204.95,54.73L204.95,54.73z"/>
	</g>
</g>
<g>
	<g>
		<path class="st0" d="M209.46,59.01c0.29-0.15,0.52-0.27,0.8-0.28c0.05,0,0.04,0.01,0,0c0.04,0.01,0.07,0.02,0.11,0.03
			c0.01,0,0.09,0.04,0.04,0.01c-0.06-0.03,0.05,0.03,0.06,0.03c0.04,0.02,0.04,0.03,0,0c0.01,0.01,0.09,0.09,0.05,0.04
			c-0.04-0.05,0.02,0.04,0.02,0.04c0.01,0.03,0.01,0.02,0,0c-0.01-0.03-0.01-0.03,0,0.02c-0.02-0.04,0-0.04,0,0.01
			c0,0.04-0.01,0.06,0,0.01c0,0-0.04,0.12-0.02,0.08c0.02-0.04-0.03,0.04-0.03,0.05c-0.02,0.04-0.05,0.07-0.07,0.11
			c0.03-0.04-0.01,0.01-0.02,0.02c-0.05,0.06-0.11,0.12-0.16,0.17c-0.27,0.26-0.54,0.51-0.81,0.77c-0.25,0.24-0.16,0.78,0.22,0.84
			c0.89,0.12,1.78,0.24,2.67,0.37c0.26,0.04,0.55-0.06,0.62-0.35c0.05-0.24-0.07-0.58-0.35-0.62c-0.89-0.12-1.78-0.24-2.67-0.37
			c0.07,0.28,0.15,0.56,0.22,0.84c0.33-0.31,0.7-0.61,0.99-0.96c0.35-0.4,0.55-0.92,0.31-1.43c-0.2-0.42-0.64-0.64-1.08-0.69
			c-0.49-0.06-0.97,0.19-1.39,0.41c-0.24,0.13-0.31,0.46-0.18,0.68C208.92,59.07,209.22,59.14,209.46,59.01L209.46,59.01z"/>
	</g>
</g>
<g>
	<g>
		<path class="st2" d="M92.6,15.18c-0.11,0.09-0.18,0.22-0.22,0.35c-0.04,0.14-0.03,0.27-0.01,0.42c0.01,0.1,0.06,0.19,0.1,0.28
			c0.05,0.08,0.11,0.17,0.18,0.23c0.11,0.09,0.22,0.17,0.36,0.19c0.07,0.01,0.14,0.03,0.21,0.02c0.05-0.01,0.12-0.01,0.17-0.02
			c0.03-0.01,0.07-0.03,0.1-0.04c0.11-0.05,0.21-0.11,0.29-0.2c0.1-0.12,0.15-0.21,0.2-0.36c0.01-0.03,0.02-0.05,0.02-0.08
			c0.01-0.07,0.03-0.15,0.02-0.22c-0.01-0.15-0.04-0.27-0.1-0.4c-0.06-0.13-0.17-0.22-0.28-0.3c-0.06-0.04-0.13-0.07-0.19-0.09
			c-0.07-0.03-0.15-0.03-0.22-0.04c-0.1-0.01-0.21,0.01-0.31,0.03c-0.1,0.03-0.2,0.07-0.28,0.13c-0.12,0.09-0.22,0.17-0.29,0.31
			c-0.11,0.19-0.17,0.46-0.05,0.65c0.09,0.14,0.21,0.28,0.35,0.36c0.11,0.06,0.23,0.1,0.36,0.09c0.15-0.01,0.29-0.06,0.41-0.17
			c0.13-0.12,0.2-0.31,0.2-0.48c-0.01-0.15-0.06-0.3-0.17-0.41c-0.11-0.11-0.25-0.17-0.41-0.17c-0.13,0-0.26,0.06-0.35,0.15
			c-0.05,0.05-0.08,0.1-0.1,0.16c-0.03,0.06-0.05,0.12-0.04,0.19c0.01,0.13,0.05,0.26,0.15,0.35c0.1,0.09,0.22,0.15,0.35,0.15
			c0,0,0.01,0,0.01,0c-0.04-0.01-0.09-0.01-0.13-0.02c0.01,0,0.01,0,0.02,0.01c-0.04-0.02-0.08-0.03-0.12-0.05c0,0,0.01,0,0.01,0.01
			c-0.03-0.03-0.07-0.05-0.1-0.08c0,0,0.01,0.01,0.01,0.01c-0.03-0.03-0.05-0.07-0.08-0.1c0,0.01,0.01,0.01,0.01,0.02
			c-0.02-0.04-0.03-0.08-0.05-0.12c0,0.01,0.01,0.02,0.01,0.03c-0.01-0.04-0.01-0.09-0.02-0.13c0,0.01,0,0.03,0,0.04
			c0.01-0.04,0.01-0.09,0.02-0.13c0,0.01-0.01,0.03-0.01,0.04c0.02-0.04,0.03-0.08,0.05-0.12c-0.01,0.01-0.01,0.03-0.02,0.04
			c0.03-0.03,0.05-0.07,0.08-0.1c-0.01,0.01-0.01,0.01-0.02,0.02c0.03-0.03,0.07-0.05,0.1-0.08c-0.01,0.01-0.02,0.01-0.03,0.01
			c0.04-0.02,0.08-0.03,0.12-0.05c-0.01,0-0.02,0-0.02,0.01c0.04-0.01,0.09-0.01,0.13-0.02c-0.02,0-0.03,0-0.04,0
			c0.04,0.01,0.09,0.01,0.13,0.02c-0.02,0-0.03-0.01-0.05-0.01c0.04,0.02,0.08,0.03,0.12,0.05c-0.02-0.01-0.04-0.02-0.06-0.03
			c0.03,0.03,0.07,0.05,0.1,0.08c-0.04-0.03-0.06-0.06-0.09-0.1c0.03,0.03,0.05,0.07,0.08,0.1c-0.01-0.02-0.03-0.04-0.04-0.06
			c0.02,0.08,0.05,0.17,0.07,0.25c0-0.01,0-0.01,0-0.02c-0.01,0.04-0.01,0.09-0.02,0.13c0-0.03,0.01-0.06,0.02-0.09
			c-0.02,0.04-0.03,0.08-0.05,0.12c0.01-0.03,0.03-0.06,0.05-0.09c-0.03,0.03-0.05,0.07-0.08,0.1c0.02-0.03,0.05-0.06,0.08-0.08
			c-0.03,0.03-0.07,0.05-0.1,0.08c0.03-0.03,0.07-0.05,0.11-0.06c-0.04,0.02-0.08,0.03-0.12,0.05c0.04-0.02,0.08-0.03,0.13-0.03
			c-0.04,0.01-0.09,0.01-0.13,0.02c0.04,0,0.07,0,0.11,0c-0.04-0.01-0.09-0.01-0.13-0.02c0.03,0,0.06,0.01,0.09,0.02
			c-0.04-0.02-0.08-0.03-0.12-0.05c0.03,0.01,0.05,0.03,0.08,0.05c-0.03-0.03-0.07-0.05-0.1-0.08c0.02,0.02,0.04,0.03,0.05,0.05
			c-0.03-0.03-0.05-0.07-0.08-0.1c0.02,0.02,0.03,0.05,0.04,0.07c-0.02-0.04-0.03-0.08-0.05-0.12c0.01,0.03,0.02,0.06,0.03,0.1
			c-0.01-0.04-0.01-0.09-0.02-0.13c0,0.04,0,0.08,0,0.12c0.01-0.04,0.01-0.09,0.02-0.13c-0.01,0.04-0.02,0.09-0.03,0.13
			c0.02-0.04,0.03-0.08,0.05-0.12c-0.01,0.03-0.03,0.06-0.05,0.09c0.03-0.03,0.05-0.07,0.08-0.1c-0.02,0.02-0.04,0.05-0.06,0.06
			c0.03-0.03,0.07-0.05,0.1-0.08c-0.02,0.02-0.05,0.03-0.07,0.04c0.04-0.02,0.08-0.03,0.12-0.05c-0.02,0.01-0.05,0.02-0.08,0.02
			c0.04-0.01,0.09-0.01,0.13-0.02c-0.02,0-0.05,0-0.07,0c0.04,0.01,0.09,0.01,0.13,0.02c-0.03,0-0.05-0.01-0.07-0.02
			c0.04,0.02,0.08,0.03,0.12,0.05c-0.03-0.01-0.05-0.03-0.07-0.04c0.03,0.03,0.07,0.05,0.1,0.08c-0.03-0.02-0.05-0.04-0.07-0.07
			c0.03,0.03,0.05,0.07,0.08,0.1c-0.02-0.03-0.04-0.06-0.06-0.1c0.02,0.04,0.03,0.08,0.05,0.12c-0.01-0.04-0.03-0.07-0.03-0.11
			c0.01,0.04,0.01,0.09,0.02,0.13c0-0.03,0-0.07,0-0.1c-0.01,0.04-0.01,0.09-0.02,0.13c0-0.03,0.01-0.05,0.02-0.08
			c-0.02,0.04-0.03,0.08-0.05,0.12c0.01-0.02,0.02-0.04,0.03-0.06c-0.03,0.03-0.05,0.07-0.08,0.1c0.01-0.02,0.03-0.03,0.05-0.05
			c0.05-0.05,0.08-0.1,0.1-0.16c0.03-0.06,0.05-0.12,0.04-0.19c0-0.07-0.01-0.13-0.04-0.19c-0.02-0.06-0.05-0.12-0.1-0.16
			c-0.1-0.09-0.22-0.15-0.35-0.15c-0.04,0.01-0.09,0.01-0.13,0.02C92.73,15.07,92.66,15.11,92.6,15.18L92.6,15.18z"/>
	</g>
</g>
<g>
	<g>
		<path class="st2" d="M92.31,30.32c-0.06,0.08-0.13,0.17-0.19,0.25c-0.03,0.03-0.05,0.07-0.08,0.1c-0.04,0.06-0.06,0.12-0.06,0.19
			c-0.01,0.04-0.01,0.09,0,0.13c0,0.07,0.02,0.13,0.06,0.19c0.11,0.24,0.36,0.41,0.6,0.49c0.11,0.04,0.23,0.05,0.35,0.05
			c0.17-0.01,0.3-0.04,0.45-0.11c0.03-0.01,0.06-0.03,0.09-0.05c0.06-0.04,0.13-0.09,0.18-0.15c0.04-0.04,0.08-0.09,0.1-0.13
			c0.07-0.12,0.09-0.27,0.05-0.4c-0.03-0.08-0.06-0.16-0.11-0.23c-0.1-0.13-0.21-0.26-0.37-0.33c-0.07-0.03-0.15-0.07-0.23-0.08
			c-0.14-0.02-0.24-0.03-0.38,0c-0.31,0.05-0.57,0.33-0.64,0.63c-0.03,0.15-0.04,0.32,0.01,0.47c0.06,0.18,0.18,0.35,0.35,0.44
			c0.32,0.17,0.7,0.1,0.96-0.14c0.25-0.23,0.3-0.64,0.12-0.93c-0.33-0.53-1.07-0.42-1.54-0.16c-0.11,0.06-0.2,0.18-0.23,0.3
			c-0.03,0.12-0.02,0.28,0.05,0.39c0.15,0.23,0.44,0.32,0.68,0.18c0.04-0.02,0.08-0.04,0.12-0.06c-0.04,0.02-0.08,0.03-0.12,0.05
			c0.1-0.04,0.2-0.07,0.31-0.09c-0.04,0.01-0.09,0.01-0.13,0.02c0.06-0.01,0.13-0.01,0.19,0c-0.04-0.01-0.09-0.01-0.13-0.02
			c0.04,0.01,0.08,0.01,0.11,0.03c-0.04-0.02-0.08-0.03-0.12-0.05c0.02,0.01,0.05,0.02,0.07,0.04c-0.03-0.03-0.07-0.05-0.1-0.08
			c0.02,0.01,0.03,0.03,0.05,0.05c-0.03-0.03-0.05-0.07-0.08-0.1c0.01,0.02,0.02,0.03,0.03,0.05c-0.02-0.04-0.03-0.08-0.05-0.12
			c0.01,0.02,0.02,0.05,0.02,0.07c-0.01-0.04-0.01-0.09-0.02-0.13c0,0.02,0,0.04,0,0.06c0.01-0.04,0.01-0.09,0.02-0.13
			c0,0.02-0.01,0.04-0.02,0.06c0.02-0.04,0.03-0.08,0.05-0.12c-0.01,0.02-0.02,0.04-0.03,0.06c0.03-0.03,0.05-0.07,0.08-0.1
			c-0.01,0.02-0.03,0.03-0.05,0.05c0.03-0.03,0.07-0.05,0.1-0.08c-0.03,0.02-0.05,0.03-0.08,0.05c0.04-0.02,0.08-0.03,0.12-0.05
			c-0.03,0.01-0.06,0.02-0.09,0.03c0.04-0.01,0.09-0.01,0.13-0.02c-0.03,0-0.05,0-0.08,0c0.04,0.01,0.09,0.01,0.13,0.02
			c-0.02,0-0.04-0.01-0.07-0.02c0.04,0.02,0.08,0.03,0.12,0.05c-0.02-0.01-0.04-0.02-0.06-0.04c0.03,0.03,0.07,0.05,0.1,0.08
			c-0.02-0.01-0.03-0.03-0.04-0.04c0.03,0.03,0.05,0.07,0.08,0.1c-0.01-0.02-0.03-0.04-0.04-0.06c0.02,0.04,0.03,0.08,0.05,0.12
			c-0.01-0.03-0.02-0.05-0.02-0.08c0.01,0.04,0.01,0.09,0.02,0.13c0-0.03,0-0.06,0-0.1c-0.01,0.04-0.01,0.09-0.02,0.13
			c0.01-0.04,0.01-0.07,0.03-0.11c-0.02,0.04-0.03,0.08-0.05,0.12c0.01-0.03,0.03-0.06,0.05-0.09c-0.03,0.03-0.05,0.07-0.08,0.1
			c0.02-0.02,0.04-0.04,0.06-0.06c-0.03,0.03-0.07,0.05-0.1,0.08c0.02-0.02,0.05-0.03,0.07-0.04c-0.04,0.02-0.08,0.03-0.12,0.05
			c0.03-0.01,0.05-0.02,0.08-0.02c-0.04,0.01-0.09,0.01-0.13,0.02c0.03,0,0.06,0,0.1,0c-0.04-0.01-0.09-0.01-0.13-0.02
			c0.04,0.01,0.07,0.01,0.11,0.03c-0.04-0.02-0.08-0.03-0.12-0.05c0.04,0.02,0.08,0.04,0.11,0.06c-0.03-0.03-0.07-0.05-0.1-0.08
			c0.03,0.02,0.06,0.05,0.08,0.08c-0.03-0.03-0.05-0.07-0.08-0.1c0.02,0.03,0.04,0.06,0.06,0.1c-0.02-0.04-0.03-0.08-0.05-0.12
			c0.01,0.01,0.01,0.03,0.01,0.04c0.02-0.13,0.03-0.26,0.05-0.39c0,0.01-0.01,0.01-0.01,0.02c0.03-0.03,0.05-0.07,0.08-0.1
			c-0.02,0.03-0.05,0.05-0.07,0.08c0.03-0.03,0.07-0.05,0.1-0.08c-0.03,0.03-0.07,0.05-0.11,0.07c0.04-0.02,0.08-0.03,0.12-0.05
			c-0.04,0.02-0.09,0.03-0.14,0.04c0.04-0.01,0.09-0.01,0.13-0.02c-0.06,0.01-0.11,0.01-0.17,0c0.04,0.01,0.09,0.01,0.13,0.02
			c-0.05-0.01-0.1-0.02-0.15-0.04c0.04,0.02,0.08,0.03,0.12,0.05c-0.04-0.02-0.08-0.04-0.12-0.07c0.03,0.03,0.07,0.05,0.1,0.08
			c-0.03-0.02-0.06-0.05-0.08-0.08c0.03,0.03,0.05,0.07,0.08,0.1c-0.02-0.03-0.04-0.06-0.05-0.09c-0.03,0.2-0.05,0.4-0.08,0.61
			c0.06-0.08,0.13-0.17,0.19-0.25c0.05-0.05,0.08-0.1,0.1-0.16c0.03-0.06,0.05-0.12,0.04-0.19c0-0.12-0.05-0.27-0.15-0.35
			c-0.1-0.09-0.22-0.15-0.35-0.15C92.54,30.18,92.39,30.22,92.31,30.32L92.31,30.32z"/>
	</g>
</g>
<g>
	<g>
		<path class="st2" d="M87.26,16.53c0.08,0.93,0.17,1.85,0.25,2.78c0.02,0.26,0.21,0.51,0.5,0.5c0.25-0.01,0.53-0.22,0.5-0.5
			c-0.08-0.93-0.17-1.85-0.25-2.78c-0.02-0.26-0.21-0.51-0.5-0.5C87.51,16.04,87.24,16.25,87.26,16.53L87.26,16.53z"/>
	</g>
</g>
<g>
	<g>
		<path class="st2" d="M87.13,32.44c0.22-0.06,0.44-0.12,0.67-0.16c0.11-0.02,0.22-0.04,0.34-0.06c0.03,0,0.05-0.01,0.08-0.01
			c-0.02,0-0.09,0.02,0.01,0c0.03,0,0.11,0.02-0.02-0.02c-0.07-0.02-0.08-0.04-0.13-0.09c-0.04-0.05-0.01-0.02,0,0
			c-0.02-0.04-0.02-0.06-0.03-0.1c-0.02-0.08,0.01-0.02,0,0c-0.04,0.08,0.03-0.02,0.01-0.03c0.01,0.01-0.02,0.09-0.03,0.1
			c0,0.01-0.02,0.07,0,0.01c0.02-0.06,0,0.01-0.01,0.02c-0.1,0.19-0.24,0.37-0.36,0.55c-0.13,0.2-0.27,0.4-0.4,0.59
			c-0.15,0.22-0.33,0.45-0.33,0.73c0,0.31,0.2,0.56,0.48,0.67c0.23,0.1,0.49,0.1,0.73,0.12c0.55,0.06,1.11,0.11,1.66,0.17
			c0.26,0.03,0.51-0.25,0.5-0.5c-0.01-0.29-0.22-0.47-0.5-0.5c-0.5-0.05-1-0.1-1.49-0.15c-0.12-0.01-0.24-0.02-0.36-0.04
			c-0.03,0-0.06-0.01-0.08-0.01c-0.02,0-0.09-0.03-0.02,0c0.06,0.02,0.01,0,0,0c-0.02-0.01-0.11-0.01-0.04,0c0.05,0,0.02,0.02,0,0
			c0.05,0.04,0.05,0.05,0.09,0.11c0.04,0.08,0.04,0.12,0.04,0.21c0,0.02-0.05,0.09,0,0c0.06-0.1,0.13-0.2,0.2-0.3
			c0.13-0.2,0.27-0.4,0.4-0.59c0.12-0.18,0.26-0.36,0.36-0.55c0.22-0.43,0.27-1.05-0.24-1.31c-0.31-0.15-0.64-0.08-0.96-0.02
			c-0.27,0.05-0.53,0.11-0.8,0.19c-0.25,0.07-0.43,0.36-0.35,0.62C86.59,32.35,86.86,32.52,87.13,32.44L87.13,32.44z"/>
	</g>
</g>
<g>
	<g>
		<path class="st2" d="M174.02,25.51c0.01,0.13,0.03,0.23,0.09,0.34c0.03,0.05,0.07,0.09,0.1,0.14c0.04,0.04,0.09,0.08,0.13,0.11
			c0.01,0.01,0.03,0.02,0.04,0.03c0.05,0.03,0.11,0.05,0.16,0.07c0.02,0.01,0.03,0.01,0.05,0.01c0.06,0.01,0.12,0.02,0.18,0.02
			c0.15,0.01,0.32-0.04,0.44-0.12c0.1-0.07,0.19-0.15,0.24-0.25c0.06-0.12,0.09-0.22,0.1-0.36c0-0.02,0-0.04,0-0.06
			c-0.01-0.06-0.01-0.13-0.03-0.19c-0.02-0.08-0.06-0.16-0.1-0.23c-0.04-0.05-0.07-0.1-0.11-0.14c-0.04-0.05-0.1-0.09-0.15-0.12
			c-0.02-0.01-0.03-0.02-0.05-0.03c-0.06-0.03-0.12-0.05-0.18-0.07c-0.06-0.02-0.13-0.02-0.19-0.03c-0.02,0-0.04,0-0.07,0
			c-0.06,0.01-0.12,0.01-0.18,0.03c-0.06,0.01-0.12,0.04-0.17,0.07c-0.15,0.07-0.27,0.2-0.36,0.33c-0.09,0.14-0.14,0.31-0.15,0.47
			c-0.01,0.08,0.01,0.17,0.03,0.25c0.02,0.06,0.04,0.11,0.07,0.16c0.01,0.02,0.02,0.04,0.03,0.06c0.08,0.11,0.14,0.17,0.25,0.25
			c0.01,0.01,0.03,0.02,0.05,0.03c0.05,0.03,0.11,0.05,0.17,0.07c0.02,0.01,0.04,0.01,0.05,0.01c0.06,0.01,0.12,0.02,0.19,0.02
			c0.08,0,0.16-0.01,0.24-0.02c0.08-0.01,0.15-0.05,0.22-0.08c0.07-0.03,0.13-0.08,0.19-0.13c0.01-0.01,0.03-0.02,0.04-0.04
			c0.04-0.04,0.08-0.09,0.11-0.14c0.02-0.03,0.03-0.07,0.05-0.11c0.02-0.04,0.03-0.08,0.04-0.12c0.03-0.14,0.03-0.24,0-0.38
			c-0.02-0.08-0.05-0.16-0.09-0.23c-0.01-0.02-0.02-0.04-0.04-0.05c-0.04-0.05-0.07-0.1-0.12-0.15c-0.06-0.06-0.13-0.11-0.2-0.15
			c-0.05-0.03-0.11-0.05-0.17-0.07c-0.02-0.01-0.04-0.01-0.07-0.02c-0.14-0.03-0.24-0.03-0.38,0c-0.08,0.01-0.17,0.05-0.24,0.1
			c-0.12,0.08-0.2,0.16-0.28,0.27c-0.08,0.12-0.1,0.24-0.12,0.38c-0.01,0.13,0.03,0.26,0.09,0.38c0.03,0.05,0.07,0.1,0.11,0.15
			c0.01,0.01,0.02,0.02,0.02,0.02c0.04,0.03,0.08,0.07,0.12,0.09c0.01,0.01,0.02,0.01,0.03,0.02c0.04,0.02,0.09,0.04,0.14,0.06
			c0.06,0.02,0.13,0.03,0.19,0.03c0.01,0,0.02,0,0.03,0c0.05,0,0.1-0.01,0.15-0.02c0.06-0.01,0.12-0.04,0.17-0.07
			c0.11-0.07,0.19-0.17,0.23-0.3c0.02-0.07,0.02-0.13,0.01-0.2c0-0.07-0.02-0.13-0.06-0.19c-0.07-0.11-0.17-0.2-0.3-0.23
			c-0.13-0.03-0.27-0.02-0.39,0.05c-0.01,0.01-0.02,0.01-0.03,0.02c0.04-0.02,0.08-0.03,0.12-0.05c-0.01,0-0.03,0.01-0.04,0.01
			c0.04-0.01,0.09-0.01,0.13-0.02c-0.02,0-0.03,0-0.05,0c0.04,0.01,0.09,0.01,0.13,0.02c-0.02,0-0.04-0.01-0.06-0.02
			c0.04,0.02,0.08,0.03,0.12,0.05c-0.02-0.01-0.04-0.02-0.05-0.03c0.03,0.03,0.07,0.05,0.1,0.08c-0.02-0.01-0.03-0.03-0.04-0.04
			c0.03,0.03,0.05,0.07,0.08,0.1c-0.01-0.01-0.02-0.03-0.03-0.04c0.02,0.04,0.03,0.08,0.05,0.12c-0.01-0.02-0.01-0.04-0.01-0.05
			c0.01,0.04,0.01,0.09,0.02,0.13c0-0.02,0-0.04,0-0.06c-0.01,0.04-0.01,0.09-0.02,0.13c0-0.03,0.01-0.05,0.02-0.08
			c-0.02,0.04-0.03,0.08-0.05,0.12c0.01-0.02,0.02-0.05,0.04-0.07c-0.03,0.03-0.05,0.07-0.08,0.1c0.02-0.02,0.04-0.04,0.06-0.06
			c-0.03,0.03-0.07,0.05-0.1,0.08c0.02-0.02,0.05-0.03,0.07-0.04c-0.04,0.02-0.08,0.03-0.12,0.05c0.02-0.01,0.05-0.02,0.07-0.02
			c-0.04,0.01-0.09,0.01-0.13,0.02c0.03,0,0.06,0,0.09,0c-0.04-0.01-0.09-0.01-0.13-0.02c0.03,0.01,0.07,0.01,0.1,0.03
			c-0.04-0.02-0.08-0.03-0.12-0.05c0.03,0.02,0.07,0.03,0.1,0.06c-0.03-0.03-0.07-0.05-0.1-0.08c0.03,0.02,0.06,0.05,0.08,0.08
			c-0.03-0.03-0.05-0.07-0.08-0.1c0.02,0.03,0.04,0.06,0.06,0.1c-0.02-0.04-0.03-0.08-0.05-0.12c0.01,0.03,0.02,0.05,0.02,0.08
			c-0.01-0.04-0.01-0.09-0.02-0.13c0,0.03,0,0.06,0,0.08c0.01-0.04,0.01-0.09,0.02-0.13c0,0.03-0.01,0.05-0.02,0.08
			c0.02-0.04,0.03-0.08,0.05-0.12c-0.01,0.02-0.02,0.05-0.04,0.07c0.03-0.03,0.05-0.07,0.08-0.1c-0.02,0.02-0.04,0.04-0.06,0.06
			c0.03-0.03,0.07-0.05,0.1-0.08c-0.03,0.02-0.06,0.04-0.09,0.05c0.04-0.02,0.08-0.03,0.12-0.05c-0.04,0.02-0.08,0.03-0.12,0.03
			c0.04-0.01,0.09-0.01,0.13-0.02c-0.04,0.01-0.08,0.01-0.12,0c0.04,0.01,0.09,0.01,0.13,0.02c-0.04-0.01-0.07-0.01-0.11-0.03
			c0.04,0.02,0.08,0.03,0.12,0.05c-0.03-0.01-0.05-0.03-0.08-0.04c0.03,0.03,0.07,0.05,0.1,0.08c-0.02-0.02-0.04-0.03-0.05-0.05
			c0.03,0.03,0.05,0.07,0.08,0.1c-0.02-0.02-0.03-0.04-0.04-0.07c0.02,0.04,0.03,0.08,0.05,0.12c-0.01-0.03-0.02-0.06-0.02-0.08
			c0.01,0.04,0.01,0.09,0.02,0.13c0-0.03,0-0.07,0-0.1c-0.01,0.04-0.01,0.09-0.02,0.13c0.01-0.04,0.02-0.07,0.03-0.11
			c-0.02,0.04-0.03,0.08-0.05,0.12c0.02-0.04,0.04-0.07,0.06-0.11c-0.03,0.03-0.05,0.07-0.08,0.1c0.02-0.03,0.05-0.06,0.08-0.08
			c-0.03,0.03-0.07,0.05-0.1,0.08c0.03-0.02,0.05-0.04,0.08-0.05c-0.04,0.02-0.08,0.03-0.12,0.05c0.03-0.01,0.06-0.02,0.08-0.02
			c-0.04,0.01-0.09,0.01-0.13,0.02c0.03,0,0.06,0,0.09,0c-0.04-0.01-0.09-0.01-0.13-0.02c0.03,0,0.05,0.01,0.07,0.02
			c-0.04-0.02-0.08-0.03-0.12-0.05c0.03,0.01,0.06,0.03,0.08,0.05c-0.03-0.03-0.07-0.05-0.1-0.08c0.03,0.02,0.05,0.05,0.07,0.07
			c-0.03-0.03-0.05-0.07-0.08-0.1c0.02,0.03,0.04,0.06,0.05,0.09c-0.02-0.04-0.03-0.08-0.05-0.12c0.01,0.03,0.02,0.06,0.03,0.09
			c-0.01-0.04-0.01-0.09-0.02-0.13c0,0.03,0,0.06,0,0.08c0.01-0.04,0.01-0.09,0.02-0.13c0,0.02-0.01,0.04-0.02,0.06
			c0.02-0.04,0.03-0.08,0.05-0.12c-0.01,0.02-0.02,0.04-0.03,0.05c0.03-0.03,0.05-0.07,0.08-0.1c-0.01,0.02-0.03,0.03-0.04,0.04
			c0.03-0.03,0.07-0.05,0.1-0.08c-0.02,0.01-0.03,0.02-0.05,0.03c0.04-0.02,0.08-0.03,0.12-0.05c-0.03,0.01-0.05,0.02-0.08,0.02
			c0.04-0.01,0.09-0.01,0.13-0.02c-0.03,0-0.06,0-0.09,0c0.04,0.01,0.09,0.01,0.13,0.02c-0.03,0-0.06-0.01-0.09-0.02
			c0.04,0.02,0.08,0.03,0.12,0.05c-0.02-0.01-0.04-0.02-0.06-0.04c0.03,0.03,0.07,0.05,0.1,0.08c-0.02-0.01-0.03-0.03-0.04-0.04
			c0.03,0.03,0.05,0.07,0.08,0.1c-0.01-0.01-0.02-0.03-0.03-0.04c0.02,0.04,0.03,0.08,0.05,0.12c-0.01-0.02-0.01-0.03-0.01-0.05
			c0.01,0.04,0.01,0.09,0.02,0.13c0,0,0-0.01,0-0.01c0-0.07-0.01-0.13-0.04-0.19c-0.02-0.06-0.05-0.12-0.1-0.16
			c-0.05-0.05-0.1-0.08-0.16-0.1c-0.06-0.03-0.12-0.05-0.19-0.04c-0.13,0.01-0.26,0.05-0.35,0.15
			C174.08,25.25,174.02,25.38,174.02,25.51L174.02,25.51z"/>
	</g>
</g>
<g>
	<g>
		<path class="st2" d="M173.08,30.02c0.36,0.51,0.72,1.03,1.07,1.54c0.18,0.27,0.54,0.34,0.79,0.1c0.62-0.6,1.09-1.33,1.41-2.13
			c0.1-0.24-0.1-0.56-0.35-0.62c-0.29-0.07-0.51,0.09-0.62,0.35c-0.01,0.02-0.07,0.18-0.02,0.06c-0.01,0.04-0.03,0.07-0.05,0.11
			c-0.04,0.08-0.08,0.17-0.12,0.25c-0.09,0.17-0.19,0.33-0.29,0.49c-0.05,0.08-0.1,0.15-0.16,0.22c-0.01,0.02-0.02,0.03-0.04,0.05
			c0.04-0.05,0.04-0.05,0.01-0.01c-0.03,0.04-0.06,0.07-0.09,0.11c-0.12,0.15-0.25,0.28-0.39,0.42c0.26,0.03,0.52,0.07,0.79,0.1
			c-0.36-0.51-0.72-1.03-1.07-1.54c-0.15-0.21-0.44-0.33-0.68-0.18C173.05,29.47,172.93,29.79,173.08,30.02L173.08,30.02z"/>
	</g>
</g>
<g>
	<g>
		<path class="st2" d="M175.98,32.7c0.04,0.27,0.08,0.55,0.11,0.82c0.02,0.07,0.05,0.12,0.09,0.17c0.04,0.05,0.08,0.1,0.14,0.13
			c0.11,0.06,0.27,0.09,0.39,0.05c0.12-0.04,0.24-0.11,0.3-0.23c0.02-0.04,0.03-0.08,0.05-0.12c0.02-0.09,0.02-0.18,0-0.27
			c-0.04-0.27-0.08-0.55-0.11-0.82c-0.02-0.07-0.05-0.12-0.09-0.17c-0.04-0.05-0.08-0.1-0.14-0.13c-0.11-0.06-0.27-0.09-0.39-0.05
			c-0.12,0.04-0.24,0.11-0.3,0.23c-0.02,0.04-0.03,0.08-0.05,0.12C175.96,32.53,175.96,32.62,175.98,32.7L175.98,32.7z"/>
	</g>
</g>
<g>
	<g>
		<path class="st2" d="M214.79,16.95c-0.06,0.04-0.12,0.08-0.16,0.14c-0.08,0.1-0.12,0.16-0.16,0.28c0,0.01-0.01,0.03-0.01,0.04
			c-0.01,0.06-0.02,0.11-0.02,0.17c0,0.07,0.01,0.15,0.02,0.21c0.01,0.03,0.01,0.06,0.03,0.09c0.03,0.07,0.05,0.14,0.09,0.19
			c0.08,0.12,0.17,0.22,0.3,0.3c0.01,0.01,0.02,0.01,0.04,0.02c0.05,0.02,0.1,0.05,0.16,0.06c0.01,0,0.03,0.01,0.04,0.01
			c0.06,0.01,0.12,0.02,0.17,0.02c0.06,0,0.11-0.01,0.17-0.02c0.02,0,0.03-0.01,0.04-0.01c0.05-0.02,0.1-0.04,0.15-0.07
			c0.05-0.03,0.09-0.06,0.13-0.1c0.05-0.04,0.09-0.1,0.13-0.16c0.04-0.06,0.06-0.12,0.08-0.19c0.02-0.05,0.02-0.1,0.03-0.14
			c0.01-0.05,0.01-0.1,0.01-0.15c0-0.07-0.01-0.14-0.03-0.21c-0.02-0.07-0.05-0.13-0.08-0.2c-0.01-0.03-0.03-0.05-0.04-0.07
			c-0.04-0.05-0.08-0.11-0.13-0.16c-0.05-0.04-0.1-0.09-0.16-0.12c-0.06-0.03-0.12-0.06-0.19-0.07c-0.14-0.02-0.21-0.02-0.34,0
			c-0.07,0.01-0.13,0.04-0.19,0.07c-0.06,0.03-0.11,0.08-0.16,0.12c-0.05,0.04-0.09,0.1-0.13,0.16c-0.02,0.02-0.03,0.05-0.04,0.07
			c-0.03,0.06-0.06,0.13-0.08,0.2c-0.02,0.07-0.03,0.14-0.03,0.21c0,0.03,0,0.06,0,0.09c0.01,0.07,0.01,0.14,0.04,0.21
			c0.02,0.06,0.05,0.13,0.08,0.19c0.03,0.05,0.06,0.09,0.1,0.13c0.01,0.01,0.02,0.02,0.03,0.03c0.05,0.05,0.11,0.09,0.17,0.12
			c0.02,0.01,0.1,0.04,0.12,0.05c0.03,0.01-0.02,0,0.07,0.01c0.02,0,0.04,0.01,0.07,0.01c0.04-0.01,0.09-0.01,0.13-0.02
			c0.02-0.01,0.1-0.04,0.12-0.05c0.03-0.02,0.06-0.04,0.09-0.07c0.05-0.03,0.09-0.07,0.13-0.11c0.05-0.06,0.1-0.12,0.13-0.18
			c0.03-0.05,0.05-0.11,0.07-0.16c0.01-0.02,0.01-0.03,0.01-0.05c0.03-0.12,0.03-0.22,0-0.34c-0.01-0.05-0.04-0.1-0.06-0.15
			c0-0.01-0.01-0.01-0.01-0.02c0,0,0-0.01-0.01-0.01c-0.02-0.03-0.06-0.08-0.08-0.11c0,0-0.01-0.01-0.01-0.01
			c-0.03-0.03-0.07-0.06-0.11-0.09c-0.02-0.01-0.05-0.02-0.08-0.03c-0.03-0.01-0.05-0.02-0.08-0.03c-0.12-0.04-0.27-0.01-0.39,0.05
			c-0.06,0.03-0.11,0.07-0.14,0.13c-0.04,0.05-0.07,0.1-0.09,0.17c-0.03,0.13-0.02,0.27,0.05,0.39c0.07,0.11,0.17,0.19,0.3,0.23
			c0.01,0,0.01,0,0.02,0.01c-0.04-0.02-0.08-0.03-0.12-0.05c0.01,0,0.02,0.01,0.03,0.02c-0.03-0.03-0.07-0.05-0.1-0.08
			c0.01,0.01,0.01,0.01,0.02,0.02c-0.03-0.03-0.05-0.07-0.08-0.1c0.01,0.01,0.01,0.02,0.01,0.02c-0.02-0.04-0.03-0.08-0.05-0.12
			c0,0.01,0.01,0.02,0.01,0.03c-0.01-0.04-0.01-0.09-0.02-0.13c0,0.02,0,0.03,0,0.05c0.01-0.04,0.01-0.09,0.02-0.13
			c0,0.03-0.01,0.05-0.02,0.08c0.02-0.04,0.03-0.08,0.05-0.12c-0.02,0.04-0.03,0.07-0.06,0.1c0.03-0.03,0.05-0.07,0.08-0.1
			c-0.03,0.03-0.05,0.06-0.09,0.09c0.03-0.03,0.07-0.05,0.1-0.08c-0.01,0.01-0.03,0.02-0.05,0.03c0.13-0.02,0.26-0.03,0.39-0.05
			c0,0,0,0-0.01,0c0.04,0.02,0.08,0.03,0.12,0.05c-0.02-0.01-0.04-0.02-0.06-0.03c0.03,0.03,0.07,0.05,0.1,0.08
			c-0.02-0.01-0.03-0.03-0.05-0.05c0.03,0.03,0.05,0.07,0.08,0.1c-0.02-0.02-0.03-0.05-0.04-0.07c0.02,0.04,0.03,0.08,0.05,0.12
			c-0.01-0.03-0.02-0.06-0.03-0.09c0.01,0.04,0.01,0.09,0.02,0.13c-0.01-0.04-0.01-0.08,0-0.12c-0.01,0.04-0.01,0.09-0.02,0.13
			c0.01-0.04,0.02-0.08,0.03-0.12c-0.02,0.04-0.03,0.08-0.05,0.12c0.01-0.03,0.03-0.06,0.05-0.08c-0.03,0.03-0.05,0.07-0.08,0.1
			c0.02-0.02,0.04-0.04,0.06-0.06c-0.03,0.03-0.07,0.05-0.1,0.08c0.02-0.01,0.04-0.03,0.06-0.03c-0.04,0.02-0.08,0.03-0.12,0.05
			c0.02-0.01,0.04-0.02,0.07-0.02c-0.04,0.01-0.09,0.01-0.13,0.02c0.02,0,0.05,0,0.07,0c-0.04-0.01-0.09-0.01-0.13-0.02
			c0.02,0,0.04,0.01,0.06,0.02c-0.04-0.02-0.08-0.03-0.12-0.05c0.02,0.01,0.04,0.02,0.06,0.04c-0.03-0.03-0.07-0.05-0.1-0.08
			c0.02,0.02,0.04,0.04,0.06,0.06c-0.03-0.03-0.05-0.07-0.08-0.1c0.02,0.03,0.04,0.06,0.05,0.09c-0.02-0.04-0.03-0.08-0.05-0.12
			c0.02,0.04,0.03,0.08,0.03,0.12c-0.01-0.04-0.01-0.09-0.02-0.13c0,0.04,0.01,0.07,0,0.11c0.01-0.04,0.01-0.09,0.02-0.13
			c0,0.03-0.01,0.06-0.02,0.09c0.02-0.04,0.03-0.08,0.05-0.12c-0.01,0.02-0.02,0.04-0.04,0.06c0.03-0.03,0.05-0.07,0.08-0.1
			c-0.01,0.02-0.03,0.03-0.04,0.04c0.03-0.03,0.07-0.05,0.1-0.08c-0.02,0.01-0.04,0.02-0.06,0.03c0.04-0.02,0.08-0.03,0.12-0.05
			c-0.02,0.01-0.04,0.02-0.07,0.02c0.04-0.01,0.09-0.01,0.13-0.02c-0.02,0-0.04,0-0.06,0c0.04,0.01,0.09,0.01,0.13,0.02
			c-0.02,0-0.05-0.01-0.07-0.02c0.04,0.02,0.08,0.03,0.12,0.05c-0.02-0.01-0.05-0.02-0.07-0.04c0.03,0.03,0.07,0.05,0.1,0.08
			c-0.03-0.02-0.05-0.05-0.07-0.07c0.03,0.03,0.05,0.07,0.08,0.1c-0.02-0.03-0.04-0.06-0.06-0.1c0.02,0.04,0.03,0.08,0.05,0.12
			c-0.01-0.03-0.02-0.07-0.03-0.11c0.01,0.04,0.01,0.09,0.02,0.13c0-0.03,0-0.06,0-0.09c-0.01,0.04-0.01,0.09-0.02,0.13
			c0-0.02,0.01-0.05,0.02-0.07c-0.02,0.04-0.03,0.08-0.05,0.12c0.01-0.02,0.02-0.04,0.03-0.05c-0.03,0.03-0.05,0.07-0.08,0.1
			c0.01-0.02,0.03-0.03,0.04-0.04c-0.03,0.03-0.07,0.05-0.1,0.08c0.01,0,0.01-0.01,0.02-0.01c0.06-0.03,0.11-0.07,0.14-0.13
			c0.04-0.05,0.07-0.1,0.09-0.17c0.02-0.07,0.02-0.13,0.01-0.2c0-0.07-0.02-0.13-0.06-0.19c-0.07-0.11-0.17-0.2-0.3-0.23
			C215.05,16.87,214.9,16.87,214.79,16.95L214.79,16.95z"/>
	</g>
</g>
<g>
	<g>
		<path class="st2" d="M214.73,22.12c0.06,0.9,0.29,1.77,0.68,2.58c0.07,0.16,0.27,0.25,0.43,0.25c0.19,0,0.32-0.1,0.43-0.25
			c0.46-0.62,0.92-1.24,1.38-1.86c0.16-0.21,0.04-0.57-0.18-0.68c-0.26-0.14-0.52-0.05-0.68,0.18c-0.46,0.62-0.92,1.24-1.38,1.86
			c0.29,0,0.58,0,0.86,0c-0.04-0.09-0.08-0.18-0.12-0.27c0.05,0.11-0.01-0.04-0.02-0.06c-0.02-0.05-0.04-0.09-0.05-0.14
			c-0.07-0.18-0.12-0.36-0.17-0.55c-0.05-0.18-0.09-0.37-0.12-0.56c-0.01-0.04-0.01-0.08-0.02-0.13c-0.01-0.06-0.01-0.06,0,0.01
			c0-0.03-0.01-0.06-0.01-0.08c-0.01-0.1-0.02-0.2-0.03-0.3c-0.02-0.26-0.22-0.51-0.5-0.5C214.97,21.63,214.71,21.84,214.73,22.12
			L214.73,22.12z"/>
	</g>
</g>
<g>
	<g>
		<path class="st2" d="M217.94,25.78c0.02-0.02,0.03-0.03,0.05-0.05c0.04-0.04-0.11,0.07-0.03,0.02c0.03-0.02,0.07-0.04,0.1-0.06
			c0.05-0.03-0.12,0.04-0.03,0.01c0.02-0.01,0.03-0.01,0.05-0.02c0.05-0.02,0.18-0.02,0.02-0.01c0.04,0,0.08-0.01,0.12-0.01
			c0.02,0,0.04,0,0.07,0c0.08,0-0.05,0-0.05-0.01c0,0,0.12,0.03,0.13,0.03c0.07,0.02-0.05-0.02-0.05-0.02c0,0,0.07,0.03,0.07,0.04
			c-0.06-0.23-0.12-0.46-0.18-0.68c-0.2,0.3-0.41,0.61-0.61,0.91c-0.1,0.14-0.21,0.29-0.28,0.44c-0.13,0.26-0.16,0.55,0,0.81
			c0.24,0.38,0.75,0.45,1.16,0.48c0.37,0.03,0.76-0.02,1.12-0.13c0.25-0.08,0.43-0.35,0.35-0.62c-0.08-0.25-0.35-0.43-0.62-0.35
			c-0.08,0.02-0.15,0.05-0.23,0.06c-0.03,0.01-0.07,0.01-0.1,0.02c-0.04,0.01-0.14,0.01,0,0c-0.14,0-0.28,0.02-0.43,0.02
			c-0.04,0-0.08,0-0.12-0.01c-0.04,0-0.13-0.04,0,0c-0.06-0.02-0.14-0.02-0.2-0.04c-0.04-0.01-0.07-0.02-0.1-0.03
			c-0.02-0.01-0.11-0.04-0.03-0.01c0.09,0.04-0.02-0.01-0.03-0.02c0.02,0.02,0.04,0.03,0.06,0.05c-0.03-0.04-0.02-0.02,0.03,0.04
			c0.02,0.03,0.03,0.07,0.03,0.11c0,0.05,0,0.05,0,0.01c-0.01,0.08-0.01,0.1,0,0.04c-0.01,0.02-0.02,0.04-0.03,0.06
			c0,0,0.11-0.18,0.11-0.18c0.08-0.13,0.17-0.25,0.25-0.38c0.18-0.26,0.35-0.53,0.53-0.79c0.15-0.22,0.04-0.56-0.18-0.68
			c-0.53-0.3-1.22-0.21-1.65,0.22c-0.19,0.18-0.2,0.52,0,0.71C217.43,25.96,217.74,25.97,217.94,25.78L217.94,25.78z"/>
	</g>
</g>
<g>
	<g>
		<path class="st2" d="M171.1,24.92c-0.8-0.43-1.62-0.81-2.46-1.16c-0.24-0.1-0.56,0.11-0.62,0.35c-0.07,0.29,0.09,0.51,0.35,0.62
			c0.02,0.01,0.19,0.08,0.09,0.04c0.04,0.02,0.08,0.04,0.12,0.05c0.1,0.04,0.19,0.08,0.29,0.13c0.2,0.09,0.39,0.18,0.59,0.27
			c0.38,0.18,0.76,0.37,1.14,0.57c0.23,0.12,0.55,0.07,0.68-0.18C171.4,25.37,171.35,25.05,171.1,24.92L171.1,24.92z"/>
	</g>
</g>
<g>
	<g>
		<path class="st2" d="M170.17,25.8c-0.53,0.73-0.93,1.55-1.2,2.42c-0.08,0.25,0.09,0.56,0.35,0.62c0.27,0.06,0.53-0.08,0.62-0.35
			c0.06-0.21,0.14-0.41,0.22-0.62c0.01-0.03,0.02-0.05,0.03-0.08c-0.02,0.06-0.02,0.06,0,0.01c0.02-0.04,0.03-0.07,0.05-0.11
			c0.04-0.1,0.09-0.2,0.14-0.3c0.19-0.38,0.41-0.74,0.66-1.08c0.15-0.21,0.04-0.57-0.18-0.68C170.59,25.49,170.33,25.57,170.17,25.8
			L170.17,25.8z"/>
	</g>
</g>
<g>
	<g>
		<path class="st2" d="M212.34,19.96c-0.31-0.01-0.62-0.03-0.93-0.06c-0.08-0.01-0.16-0.02-0.24-0.03c-0.11-0.01,0.1,0.02-0.01,0
			c-0.04-0.01-0.07-0.01-0.11-0.02c-0.16-0.02-0.31-0.05-0.47-0.08c-0.26-0.05-0.55,0.07-0.62,0.35c-0.06,0.25,0.07,0.56,0.35,0.62
			c0.67,0.13,1.35,0.21,2.03,0.23c0.26,0.01,0.51-0.24,0.5-0.5C212.83,20.18,212.62,19.97,212.34,19.96L212.34,19.96z"/>
	</g>
</g>
<g>
	<g>
		<path class="st2" d="M212.11,21.02c-0.18,0.86-0.25,1.75-0.21,2.63c0.01,0.26,0.22,0.51,0.5,0.5c0.26-0.01,0.51-0.22,0.5-0.5
			c-0.02-0.41-0.01-0.82,0.02-1.23c0.01-0.1,0.02-0.21,0.03-0.31c0.01-0.05,0.01-0.1,0.02-0.14c0.01-0.11-0.01,0.06,0.01-0.06
			c0.03-0.21,0.07-0.41,0.11-0.62c0.05-0.26-0.07-0.55-0.35-0.62C212.47,20.62,212.16,20.75,212.11,21.02L212.11,21.02z"/>
	</g>
</g>
<g>
	<g>
		<path class="st2" d="M128.58,3.53c0.3,0.95,0.78,1.81,1.41,2.59c0.19,0.24,0.66,0.17,0.79-0.1c0.46-0.98,1.07-1.99,1.7-2.79
			c0.16-0.2,0.21-0.51,0-0.71c-0.18-0.17-0.53-0.22-0.71,0c-0.73,0.93-1.36,1.92-1.86,2.99c0.26-0.03,0.52-0.07,0.79-0.1
			c-0.03-0.04-0.07-0.08-0.1-0.12c0.04,0.06-0.04-0.06-0.05-0.07c-0.06-0.09-0.12-0.17-0.18-0.26c-0.12-0.18-0.24-0.37-0.34-0.57
			c-0.22-0.4-0.34-0.69-0.47-1.12c-0.08-0.25-0.35-0.43-0.62-0.35C128.68,2.99,128.49,3.26,128.58,3.53L128.58,3.53z"/>
	</g>
</g>
<g>
	<g>
		<path class="st2" d="M129.02,26.64c0.35,0.68,0.75,1.33,1.19,1.95c0.24,0.33,0.62,0.31,0.86,0c0.71-0.93,1.55-1.77,2.45-2.51
			c0.21-0.17,0.18-0.53,0-0.71c-0.21-0.21-0.5-0.17-0.71,0c-0.97,0.8-1.84,1.71-2.61,2.71c0.29,0,0.58,0,0.86,0
			c-0.45-0.62-0.85-1.27-1.19-1.95c-0.12-0.24-0.46-0.31-0.68-0.18C128.95,26.1,128.9,26.4,129.02,26.64L129.02,26.64z"/>
	</g>
</g>
<g>
	<g>
		<path class="st0" d="M176.4,0.35c-8.61,1.71-16.23,7.64-19.52,15.85c-1.03,2.56-1.6,5.29-1.75,8.05c-0.04,0.64,0.96,0.64,1,0
			c0.26-4.64,1.82-9.14,4.56-12.9c2.42-3.32,5.7-5.99,9.38-7.8c2.09-1.03,4.31-1.77,6.6-2.23C177.3,1.19,177.03,0.22,176.4,0.35
			L176.4,0.35z"/>
	</g>
</g>
<g>
	<g>
		<path class="st2" d="M170.97,26.05c0.64,0,0.64-1,0-1C170.33,25.05,170.33,26.05,170.97,26.05L170.97,26.05z"/>
	</g>
</g>
<g>
	<g>
		<path class="st2" d="M97.46,14.37c4.68-3.2,10.03-5.35,15.64-6.24c5.6-0.89,11.84-0.76,16.82,2.25c4.35,2.63,7.5,6.75,11.26,10.08
			c3.77,3.35,8.29,5.69,13.22,6.76c5.54,1.2,11.41,0.85,16.71-1.2c0.59-0.23,0.34-1.2-0.27-0.96c-9.69,3.75-21.02,1.68-28.81-5.18
			c-3.75-3.3-6.89-7.34-11.12-10.07c-4.86-3.13-10.83-3.54-16.44-2.88c-6.26,0.74-12.3,3.01-17.51,6.57
			C96.43,13.87,96.93,14.74,97.46,14.37L97.46,14.37z"/>
	</g>
</g>
<g>
	<g>
		<path class="st2" d="M97.29,30.79c7.87-3.25,16.6-3.18,24.85-1.59c8.6,1.66,16.74,4.96,24.94,7.93c7.9,2.86,15.98,5.44,24.41,5.96
			c7.59,0.47,15.48-0.71,22.06-4.71c6.64-4.04,11.11-10.6,17.03-15.51c0.75-0.62,1.53-1.21,2.33-1.77c0.52-0.36,0.03-1.23-0.5-0.86
			c-6.35,4.41-10.76,10.98-16.92,15.62c-6.27,4.72-14.08,6.48-21.83,6.33c-8.35-0.17-16.4-2.5-24.22-5.26
			c-8.25-2.91-16.38-6.33-24.95-8.25c-8.03-1.79-16.61-2.36-24.56,0.1c-0.98,0.3-1.95,0.66-2.9,1.05
			C96.44,30.07,96.7,31.04,97.29,30.79L97.29,30.79z"/>
	</g>
</g>
<g>
	<g>
		<path class="st2" d="M170.97,26.05c0.64,0,0.64-1,0-1C170.33,25.05,170.33,26.05,170.97,26.05L170.97,26.05z"/>
	</g>
</g>
<g>
	<g>
		<path class="st2" d="M212.65,21.17c0.64,0,0.64-1,0-1C212.01,20.17,212,21.17,212.65,21.17L212.65,21.17z"/>
	</g>
</g>
</svg>
