<svg id="Layer_1" data-name="Layer 1" xmlns="http://www.w3.org/2000/svg" viewBox="0 0 307.46 155.74"><defs><style>.cls-1{fill:#fd46fc;}.cls-2{fill:#486afb;}</style></defs><path class="cls-1" d="M23.39,139.43l1.14,6.31c.19,1.06.37,2.11.56,3.16.09.49.17,1,.26,1.46,0,.24.09.49.15.73s.18.47.14.62a.77.77,0,0,0,1.4.57c.49-.79.05-2-.12-2.84-.23-1.16-.48-2.33-.72-3.5-.47-2.29-.93-4.59-1.39-6.88-.19-.94-1.59-.55-1.42.37Z" transform="translate(-14.81 -37.83)"/><path class="cls-1" d="M25.84,147.66c1.16-1.14,4.08-2.53,4.69-.13a3.64,3.64,0,0,1-.5,2.69,2.85,2.85,0,0,1-1.89,1.55,1.92,1.92,0,0,1-.91-.17c-.24-.11-.29-.24-.51-.37a.66.66,0,0,0-.88.24.64.64,0,0,0,0,.64,2.23,2.23,0,0,0,2.8,1,4.32,4.32,0,0,0,2.35-2.5,4.61,4.61,0,0,0,.29-3.36,2.61,2.61,0,0,0-.92-1.31,2.31,2.31,0,0,0-1.64-.35,5.87,5.87,0,0,0-3.32,1.67c-.28.27.15.7.43.42Z" transform="translate(-14.81 -37.83)"/><path class="cls-1" d="M34.86,146.11a4.42,4.42,0,0,0-2.37,3.35,2.74,2.74,0,0,0,.66,2,2.81,2.81,0,0,0,2.1.85,3.72,3.72,0,0,0,2.14-.65,3,3,0,0,0,1.26-2.13,3.57,3.57,0,0,0-1.93-3.8,2.73,2.73,0,0,0-1.95,0,2.47,2.47,0,0,0-1,.63,1.7,1.7,0,0,0-.46,1.08.57.57,0,0,0,1,.4,6,6,0,0,1,.42-.45,1,1,0,0,0,.11-.1c.07-.07-.14.09,0,0a3,3,0,0,1,.3-.18s.2-.09,0,0l.11,0a2.14,2.14,0,0,1,.34-.09s-.14,0,0,0H36c-.09,0-.09,0,0,0l.28.08c-.16-.06.09.06.13.09s-.08-.1,0,0l.16.16s.1.11,0,0c.06.08.11.17.16.25a3.1,3.1,0,0,1,.31,1.37,1.27,1.27,0,0,1,0,.2s0,.26,0,.12a1.86,1.86,0,0,1-.1.39c-.06.2.07-.08,0,.1a.64.64,0,0,0-.08.14c-.11.19.1-.1,0,.06l-.14.16-.17.15c.13-.11,0,0,0,0a3.12,3.12,0,0,1-.35.2c-.15.07,0,0,0,0l-.21.08-.43.1s-.25,0-.09,0h-.15a2.14,2.14,0,0,1-.44,0h0l-.21,0h0a2,2,0,0,1-.25-.13c-.19-.1,0,0,0,0l-.12-.12s-.15-.17-.06,0l-.07-.11-.1-.17s-.09-.21,0-.08a1.79,1.79,0,0,1-.1-1,2.56,2.56,0,0,1,.3-.75A4.13,4.13,0,0,1,35.35,147c.53-.34,0-1.18-.49-.84Z" transform="translate(-14.81 -37.83)"/><path class="cls-1" d="M40.9,150.91c.8-.83,1.59-1.66,2.4-2.49l1.17-1.2c.21-.21.42-.42.62-.64a2.11,2.11,0,0,0,.54-.78.51.51,0,0,0-.62-.62,4,4,0,0,0-1.33,1.19l-1.17,1.28c-.77.85-1.56,1.69-2.34,2.54-.45.48.27,1.19.73.72Z" transform="translate(-14.81 -37.83)"/><path class="cls-1" d="M40.19,147.25c.75.95,1.5,1.89,2.26,2.82.37.45.73.91,1.11,1.36a4.23,4.23,0,0,0,1.38,1.25.52.52,0,0,0,.75-.57,4.23,4.23,0,0,0-1-1.62c-.39-.48-.79-1-1.19-1.43-.78-.93-1.58-1.85-2.38-2.77a.68.68,0,0,0-1,0,.71.71,0,0,0,0,1Z" transform="translate(-14.81 -37.83)"/><path class="cls-1" d="M55.27,146.49a3.58,3.58,0,0,0-1.57,3.66,3.38,3.38,0,0,0,3.13,2.65,3.16,3.16,0,0,0,3.34-2.29,3.37,3.37,0,0,0-1.26-3.8c-1.25-.83-3.42-.7-4.16.76-.2.39.23.94.65.65a4.52,4.52,0,0,1,.65-.36l.08,0c.09,0-.1,0,0,0l.16-.05c.12,0,.25-.06.37-.09s0,0,0,0h.26l.41,0h.06l.17,0,.2.05.08,0h0l.33.18,0,0,.16.13.12.13s.09.11,0,0,0,0,0,0l.18.33c0,.07,0,0,0,0s0,.07,0,.11l0,.17s0,.11,0,.17a.19.19,0,0,0,0,.08c0,.09,0-.12,0,0s0,.23,0,.35a1.11,1.11,0,0,0,0,.17c0-.17,0,0,0,.1a1.89,1.89,0,0,1-.09.34s0,.07,0,.11.06-.12,0,0a1.63,1.63,0,0,0-.09.19l-.09.15s-.15.19-.07.1l-.07.08-.14.14s-.18.18-.1.09,0,0-.08.06-.24.18-.34.18c.1,0,.13-.05,0,0l-.08,0-.17,0-.18,0-.08,0c.19,0,0,0,0,0H56.9l-.21,0s-.12,0,0,0h0l-.35-.09c-.07,0-.2-.08-.06,0A1.63,1.63,0,0,1,56,151a2.79,2.79,0,0,1-.33-.19c-.06-.05-.12-.11,0,0l-.15-.14-.14-.15c-.05-.06-.1-.14,0,0-.07-.12-.15-.24-.21-.36s0-.1,0,0,0,0,0-.05a1.59,1.59,0,0,1-.07-.2c0-.08,0-.16,0-.23s0-.11,0,0,0,0,0-.06a3.38,3.38,0,0,1,0-.45.28.28,0,0,1,0-.09c0-.1,0,.09,0,0a1.55,1.55,0,0,1,0-.21,2,2,0,0,1,.31-.74l0-.07,0-.06,0,0,.08-.09.17-.17.07-.06c.08-.07-.11.08,0,0a.58.58,0,0,0,.2-.76.56.56,0,0,0-.76-.2Z" transform="translate(-14.81 -37.83)"/><path class="cls-1" d="M66.41,142.81a2.25,2.25,0,0,0-2.44.3,4,4,0,0,0-1.29,2.42,11.65,11.65,0,0,0-.16,3.28,13.72,13.72,0,0,0,.29,1.68,4.85,4.85,0,0,0,.48,1.54.44.44,0,0,0,.68.09c.67-.59.43-1.72.29-2.49a13.94,13.94,0,0,1-.31-2.74,5.94,5.94,0,0,1,.37-2.33c.26-.56.91-1.14,1.57-.84s1.13-.6.52-.91Z" transform="translate(-14.81 -37.83)"/><path class="cls-1" d="M61.81,147.4l3.33-.26,1.61-.12a3,3,0,0,0,1.8-.57.63.63,0,0,0-.14-1,2.77,2.77,0,0,0-1.66-.25l-1.66.15-3.27.29a.9.9,0,0,0-.87.86.88.88,0,0,0,.86.87Z" transform="translate(-14.81 -37.83)"/><path class="cls-1" d="M75.33,150.9q.09.39.15.78l1.07-.27a3.49,3.49,0,0,1-.06-1.64,5.6,5.6,0,0,1,.49-1.48,2.48,2.48,0,0,1,2.12-1.53,2.15,2.15,0,0,1,1.78,1.38,9.27,9.27,0,0,1,.35,3,.64.64,0,0,0,1.26.17,4.5,4.5,0,0,0-1.95-5.44,3,3,0,0,0-2.76,0,4.41,4.41,0,0,0-1.86,2.34c-.45,1.07-.93,2.46-.38,3.58.27.55,1.23.17,1-.41-.1-.25-.18-.5-.26-.76a.5.5,0,0,0-1,.25Z" transform="translate(-14.81 -37.83)"/><path class="cls-1" d="M35.92,161.55a4.51,4.51,0,0,0-2.22,2.74,3.13,3.13,0,0,0,1.94,3.19,3.4,3.4,0,0,0,3.76-.56,3,3,0,0,0,.59-3.5,4.2,4.2,0,0,0-1.72-1.57,6.65,6.65,0,0,0-1.19-.53,1.68,1.68,0,0,0-1.37-.06.61.61,0,0,0-.22.81,1.49,1.49,0,0,0,.76.57l.79.4c.24.13.48.27.71.42l.14.09c.2.14-.07-.05,0,0l.32.29.11.12c.16.17,0-.08,0,0l.16.28c-.08-.15,0-.08,0,0a1.8,1.8,0,0,0,.05.19s0,.08,0,.12c0-.2,0,0,0,0s0,.22,0,.33c0-.18,0,0,0,.11s0,.1,0,.16-.08.18,0,0c-.05.1-.1.2-.16.3l-.1.17s.11-.13,0,0l-.21.21s-.16.11,0,0l-.11.08-.16.09-.1,0h0c-.11,0-.21.07-.32.09s-.22,0-.11,0-.13,0-.12,0h-.39l-.22,0a2.28,2.28,0,0,1-1-.53,1.73,1.73,0,0,1-.64-1.08c-.15-1,.86-1.83,1.57-2.38.38-.3-.12-.94-.51-.67Z" transform="translate(-14.81 -37.83)"/><path class="cls-1" d="M39.89,158.55a40.88,40.88,0,0,1,.69,4.93c.07.87.1,1.74.13,2.61,0,.67.1,2,1.1,1.81s.79-1.47.77-2.15q-.06-1.31-.18-2.61a45.5,45.5,0,0,0-.79-5c-.24-1.13-1.94-.67-1.72.45Z" transform="translate(-14.81 -37.83)"/><path class="cls-1" d="M41.17,164.13a5.51,5.51,0,0,1,2-1.13,4.42,4.42,0,0,1,2.1-.23c.6.13,1,.47.64,1.09a5.1,5.1,0,0,1-1.69,1.51,8.62,8.62,0,0,1-2.4,1l.84.35a6.3,6.3,0,0,0-.37-.53.58.58,0,0,0-.67-.09,1,1,0,0,0-.26,1.37.77.77,0,0,0,.84.35,6.69,6.69,0,0,0,2.69-1.24A6.29,6.29,0,0,0,47,164.28a1.75,1.75,0,0,0-.83-2.4,4.32,4.32,0,0,0-2.73-.11,7.08,7.08,0,0,0-3,1.56.57.57,0,0,0,0,.8.58.58,0,0,0,.8,0Z" transform="translate(-14.81 -37.83)"/><path class="cls-1" d="M47.79,164.43c.49,1.77,1.09,3.72.75,5.57a1.26,1.26,0,0,1-.42.84,1.3,1.3,0,0,1-.6.21c-.59,0-1-.44-1.29-1a.6.6,0,0,0-1.09.15,2.35,2.35,0,0,0,1.66,2.52,2.7,2.7,0,0,0,3.08-1.2,6,6,0,0,0,.4-3.71,24.11,24.11,0,0,0-.91-3.82.82.82,0,0,0-1.58.41Z" transform="translate(-14.81 -37.83)"/><path class="cls-1" d="M47.82,160.06h.11l-.24-.07.08,0-.19-.19a.64.64,0,0,0,.1.13.34.34,0,0,0,.18.11.35.35,0,0,0,.2,0h.08a.53.53,0,0,0,.24,0l.12-.05.11-.08.07-.1a.32.32,0,0,0,.06-.18.28.28,0,0,0,0-.13.27.27,0,0,0,0-.12.26.26,0,0,0-.07-.11.29.29,0,0,0-.14-.13l0,0a.65.65,0,0,0-.17-.08h-.06l-.16,0a.54.54,0,0,0-.4.17l.24-.13-.09,0h.25l-.11,0a.57.57,0,0,0-.26,0l-.12.05a.58.58,0,0,0-.19.19.41.41,0,0,0-.05.18.34.34,0,0,0,0,.2.4.4,0,0,0,.1.18.35.35,0,0,0,.14.13.54.54,0,0,0,.25.06Z" transform="translate(-14.81 -37.83)"/><path class="cls-1" d="M51.64,165.5a3.33,3.33,0,0,0,3.86-.35,1.53,1.53,0,0,0,.36-1.83,2.1,2.1,0,0,0-1.51-.91,3.4,3.4,0,0,0-2.09.15A2.29,2.29,0,0,0,51,163.9c-.43,1.27.56,2.56,1.56,3.24a4.86,4.86,0,0,0,3.72.6.58.58,0,0,0,.42-.64.59.59,0,0,0-.57-.51h-.09l-.12,0-.41-.08h-.13c.13,0,0,0,0,0L55,166.4l-.55-.14-.3-.1-.15,0c-.05,0,0,0,0,0l-.09,0-.52-.26-.26-.16-.09-.06c-.15-.1.09.08,0,0a4.16,4.16,0,0,1-.42-.42c.11.13,0,0-.06-.08s-.13-.22-.19-.33,0-.07,0,0a1.21,1.21,0,0,1,0-.18s0-.19,0-.07v-.13c0-.17,0,.08,0-.08l0-.12c0-.12,0,0,0,0a2,2,0,0,1,.1-.21,1.7,1.7,0,0,1,.29-.31,1.62,1.62,0,0,1,.64-.25,2.07,2.07,0,0,1,1.27.2l.18.13a.45.45,0,0,1,.07.1.34.34,0,0,1-.09.37,1.62,1.62,0,0,1-1.15.55,2.79,2.79,0,0,1-1.48-.2.6.6,0,0,0-.8.21.6.6,0,0,0,.22.8Z" transform="translate(-14.81 -37.83)"/><path class="cls-1" d="M61.82,162.69a5,5,0,0,0-2.65.07,2.39,2.39,0,0,0-1.59,2,2.91,2.91,0,0,0,1.08,2.34,3.65,3.65,0,0,0,2.24.9,2.35,2.35,0,0,0,2.25-1.19.54.54,0,0,0-.73-.73h0l-.06,0-.15,0-.38.1s-.24.08,0,0a.49.49,0,0,1-.17,0,2.81,2.81,0,0,1-.41,0H61l-.41-.08-.21-.06s-.13-.07-.17-.06.15.07.07,0l-.11-.05-.19-.1-.17-.11-.08-.05s.12.1,0,0a3.55,3.55,0,0,1-.34-.33l0,0c.06.08,0,0,0,0a1.63,1.63,0,0,0-.11-.17l-.06-.12s0-.12,0,0,0,0,0,0a.93.93,0,0,1,0-.13l0-.13s0,.12,0,0a1.34,1.34,0,0,0,0-.2c0-.1,0,.09,0,0a.29.29,0,0,0,0-.09l0-.09c0-.09,0,.08,0,0s.07-.12.11-.18c-.07.1,0,0,0,0l.16-.15c.06-.06,0,0,0,0l.1-.07.22-.13.09,0c.1,0-.14,0,0,0a3.39,3.39,0,0,1,.55-.13,6.23,6.23,0,0,1,1.22,0c.61.05.75-1,.14-1.07Z" transform="translate(-14.81 -37.83)"/><path class="cls-1" d="M64.44,159.05c.36,1.19.69,2.4,1,3.61.13.6.25,1.2.35,1.8a6.67,6.67,0,0,0,.37,1.89.69.69,0,0,0,1.25-.16,5.46,5.46,0,0,0-.1-2.05c-.08-.61-.17-1.22-.28-1.82a31.57,31.57,0,0,0-.88-3.7.88.88,0,0,0-1-.61.87.87,0,0,0-.61,1Z" transform="translate(-14.81 -37.83)"/><path class="cls-1" d="M63.35,162.62l3.19-.39,1.54-.19a3.15,3.15,0,0,0,1.75-.44.64.64,0,0,0-.13-1,3.15,3.15,0,0,0-1.8,0l-1.54.21-3.19.41a.7.7,0,0,0,.18,1.38Z" transform="translate(-14.81 -37.83)"/><path class="cls-1" d="M73.88,160.78a4.27,4.27,0,0,0-1.75.44,1.89,1.89,0,0,0-.8.62,1.21,1.21,0,0,0,0,1,3.59,3.59,0,0,0,1,1.35,11.54,11.54,0,0,1,1,.94,1.07,1.07,0,0,1,.2.4c0,.1,0,.11,0,0v.17c0-.15-.1.19,0,.05-.05.09-.06.09,0,0l0,0a2.27,2.27,0,0,1-.31.17,3.37,3.37,0,0,1-.61.24,1.76,1.76,0,0,1-.63.1h-.2c.09,0,.09,0,0,0l-.32-.08-.16-.05c.09,0,.08,0,0,0s-.29-.18-.16-.09a2.39,2.39,0,0,1-.23-.22,2.54,2.54,0,0,0-.34-.23.67.67,0,0,0-1,.41,1.19,1.19,0,0,0,.14.92,2.37,2.37,0,0,0,.63.67,2.68,2.68,0,0,0,1.42.5,3.68,3.68,0,0,0,1.57-.29,3.86,3.86,0,0,0,1.43-.85,2.24,2.24,0,0,0-.25-3,13.2,13.2,0,0,0-1-.94l-.25-.25c-.07-.08-.08-.09,0,0a1.3,1.3,0,0,1-.1-.15l-.09-.15c0,.07,0,0,0,0s0-.12,0,0a1.09,1.09,0,0,1,0-.18l-.42.74a2.63,2.63,0,0,1,1.37-.43.9.9,0,1,0,0-1.79Z" transform="translate(-14.81 -37.83)"/><path class="cls-1" d="M139,153.79c-1,1.56-.32,4.13,1.58,4.62a2.07,2.07,0,0,0,1.45-.12,1.49,1.49,0,0,0,.84-1.28,2.5,2.5,0,0,0-.58-1.62,6.31,6.31,0,0,0-1.08-1.17,3,3,0,0,0-1.58-.76c-.53,0-1.33.36-1.12,1a.38.38,0,0,0,.55.23h0l.06,0s.12-.06,0,0c0,0,.21,0,.06,0h.09c.1,0,0,0,0,0s.21,0,.24.06a.25.25,0,0,1,.12,0c0-.05-.09-.05,0,0l.22.11.24.15.12.08.07.05a5.51,5.51,0,0,1,.88.86c-.08-.09,0,0,0,0l.1.14c.06.08.11.16.16.24a2.1,2.1,0,0,1,.13.26c-.06-.13,0,0,0,.06s0,.12,0,.19v0c0-.08,0-.07,0,0v0c0-.07,0-.07,0,0l0,.1c.05-.14,0,0,0,0s.11-.1,0,0l-.05.05c-.09.1.14-.08,0,0l-.1.06c.06-.07.13-.05,0,0l-.09,0-.1,0c.11-.06.1,0,0,0h-.2l-.13,0-.2-.06c-.14,0,.13.07,0,0l-.11-.06-.07,0,0,0c-.06,0-.05,0,0,0s-.15-.13-.2-.18l-.15-.16c-.1-.12.09.13,0,0l0-.08a1.71,1.71,0,0,1-.13-.23.3.3,0,0,1,0-.08l0-.08c0,.09,0,.1,0,0a3.07,3.07,0,0,1-.14-.52c0-.14,0,.1,0,0s0-.1,0-.16v-.27s0-.1,0-.13c-.06.13,0,0,0,0a2,2,0,0,1,.07-.26.5.5,0,0,1,0-.13c0-.13-.05.1,0,0a1.82,1.82,0,0,1,.15-.27.64.64,0,0,0-.24-.87.65.65,0,0,0-.87.24Z" transform="translate(-14.81 -37.83)"/><path class="cls-1" d="M143.13,150.28c.2,1.27.42,2.53.64,3.8.12.62.23,1.24.35,1.85a6,6,0,0,0,.52,1.93.7.7,0,0,0,1.27-.16,2.91,2.91,0,0,0,0-1,1.82,1.82,0,0,1-.06-1,.86.86,0,0,1,1.36-.33c.85.73-.13,2.33-1.12,1.66-.27-.19-.57.12-.52.4.18,1,1.61,1,2.3.56a2.18,2.18,0,0,0,.59-2.93,2,2,0,0,0-2.69-.7,1.92,1.92,0,0,0-.89,1.19,2.48,2.48,0,0,0,0,.77c0,.12,0,.23,0,.35v.18c-.05.13,0,.14,0,0l1,.6a6.2,6.2,0,0,0-.31-1.9c-.15-.64-.29-1.27-.43-1.91-.27-1.25-.53-2.51-.77-3.77a.67.67,0,0,0-1.29.34Z" transform="translate(-14.81 -37.83)"/><path class="cls-1" d="M150.37,155.89a9.83,9.83,0,0,1,.78,4.9,1.85,1.85,0,0,1-.26.76c.05-.08,0,0-.07.07s.06,0-.06,0-.08.07-.21.06c-.63,0-1-.87-1.28-1.31s-.92-.29-.88.23a2.87,2.87,0,0,0,1.67,2.56,1.89,1.89,0,0,0,2.47-1.33,6.66,6.66,0,0,0,.08-3.17,15.28,15.28,0,0,0-1-3.31c-.29-.69-1.47-.21-1.22.49Z" transform="translate(-14.81 -37.83)"/><path class="cls-1" d="M149.76,153.09l.17.11.08.05h0l.15.07.21,0a.63.63,0,0,0,.33-.09A.69.69,0,0,0,151,153l.06-.15,0-.17a.4.4,0,0,0-.05-.24.29.29,0,0,0-.09-.15.42.42,0,0,0-.18-.17,1.21,1.21,0,0,0-.53-.16.44.44,0,0,0-.23,0,.44.44,0,0,0-.22.07l-.13.1a.41.41,0,0,0-.12.2.23.23,0,0,0,0,.14.36.36,0,0,0,0,.23l.06.15a.52.52,0,0,0,.22.22Z" transform="translate(-14.81 -37.83)"/><path class="cls-1" d="M154.72,157.27a2.94,2.94,0,0,0,1.56.33,1.69,1.69,0,0,0,1.23-.77,1.42,1.42,0,0,0,.14-1.25,1.28,1.28,0,0,0-.92-.75,1.72,1.72,0,0,0-1.21.23,2,2,0,0,0-.79,1.06,2.38,2.38,0,0,0,.7,2.48,2.44,2.44,0,0,0,1.59.61,2.6,2.6,0,0,0,.79-.11,2.23,2.23,0,0,0,.45-.18,1.73,1.73,0,0,0,.35-.31.58.58,0,0,0,.09-.67.61.61,0,0,0-.63-.27H158a2.08,2.08,0,0,0-.36,0l-.09,0H157c-.16,0,.13,0,0,0l-.11,0-.45-.12c-.15-.05.14.08,0,0l-.08,0a1,1,0,0,1-.2-.12s.12.09,0,0l-.08-.07-.06-.06-.05-.07,0,.06-.11-.16-.06-.12c0-.09,0,0,0,0s-.06-.18-.07-.2a.29.29,0,0,1,0-.09s0-.18,0-.09,0,0,0,0a.28.28,0,0,1,0-.09c0-.07,0-.14,0-.21,0,.15,0-.07,0-.1l0-.08c0-.1,0,.07,0,0a1.4,1.4,0,0,1,.1-.16c-.07.1,0,0,0,0l.06-.06s.1-.08,0,0,0,0,0,0l.08,0s0,0,0,0l.06,0,.17,0c.11,0-.08,0,0,0h.07c.12,0,0,0,0,0l.09,0c.08,0,0,0,0,0l.07,0s0,0,0,0l.07.07c-.06-.07,0,0,0,0l0,0c0-.05,0-.05,0,0a.24.24,0,0,1,0,.08c0-.11,0,.14,0,0a.29.29,0,0,1,0,.09s0,0,0,.06,0,0,0,0a.43.43,0,0,0,0,.07c0,.09.05,0,0,0l-.08.09s-.13.08,0,0l-.07,0-.07,0,0,0a1.64,1.64,0,0,1-.28.07c.1,0,0,0,0,0h-.3c.11,0,0,0-.07,0a1.77,1.77,0,0,1-.31-.08l-.11,0-.1,0h0a.56.56,0,0,0-.56,1Z" transform="translate(-14.81 -37.83)"/><path class="cls-1" d="M164.16,153.66a3.29,3.29,0,0,0-2.83,1.55,2.53,2.53,0,0,0,1,3.34,2.31,2.31,0,0,0,1.12.26,1.76,1.76,0,0,0,1.08-.36.64.64,0,0,0,.27-.79.66.66,0,0,0-.74-.38c.16,0-.06,0-.09,0h-.45a1.21,1.21,0,0,1-.41-.12l-.05,0c-.08,0-.07,0,0,0s-.16-.08-.19-.1l-.09-.06c.09.07.1.07,0,0l-.12-.11-.07-.08c-.06-.07,0-.06,0,0s-.1-.15-.11-.18a.93.93,0,0,1-.05-.1l0,.09a.58.58,0,0,1-.07-.21.78.78,0,0,1,0-.21v-.06a1.28,1.28,0,0,1,0-.19c0,.17,0-.05,0-.09s.07-.21,0-.11,0-.09.05-.11a1.63,1.63,0,0,1,.11-.17c0-.06,0-.05,0,0l.07-.07.11-.11s.19-.16.06-.06l.3-.19.19-.1c.06,0,.06,0,0,0l.1,0,.35-.11.21,0h.11a.58.58,0,0,0,0-1.15Z" transform="translate(-14.81 -37.83)"/><path class="cls-1" d="M167.5,151.48c0,1.14,0,2.28.08,3.42a15.84,15.84,0,0,0,.41,3.43.54.54,0,0,0,1-.14,23.39,23.39,0,0,0,0-3.35c0-1.12,0-2.24,0-3.35a.77.77,0,0,0-1.54,0Z" transform="translate(-14.81 -37.83)"/><path class="cls-1" d="M166.21,155.53c1,.06,2,.1,3,.14.49,0,1,.05,1.47,0s1.36-.13,1.36-.78-.87-.78-1.35-.83-1,0-1.47-.05h-3a.76.76,0,0,0-.76.75.77.77,0,0,0,.76.76Z" transform="translate(-14.81 -37.83)"/><path class="cls-1" d="M177.53,151.84c.17,1.18.29,2.35.4,3.53l.15,1.82a4.37,4.37,0,0,0,.37,1.83.56.56,0,0,0,1,0,4,4,0,0,0,.29-1.95c0-.61,0-1.21-.06-1.82-.08-1.28-.22-2.57-.39-3.85a.9.9,0,0,0-1.09-.64.91.91,0,0,0-.64,1.09Z" transform="translate(-14.81 -37.83)"/><path class="cls-1" d="M185.55,159.19c0,.11,0-.06,0-.08s0,.06,0,.09a1.46,1.46,0,0,1,.07.19c0,.14.06.28.09.42s0-.19,0-.08a.38.38,0,0,1,0,.1,1.41,1.41,0,0,1,0,.2,3.05,3.05,0,0,1,0,.43c0,.12,0,0,0-.07s0,.07,0,.1l0,.2c0,.13-.06.26-.1.39a7.69,7.69,0,0,0-.21.79.61.61,0,0,0,.88.68,2.54,2.54,0,0,0,1.2-2,4,4,0,0,0-.37-2.27.88.88,0,0,0-1.19-.31.9.9,0,0,0-.32,1.19Z" transform="translate(-14.81 -37.83)"/><path class="cls-1" d="M191.09,153.6a3.14,3.14,0,0,0,1.58,4.63,2.19,2.19,0,0,0,1.45-.12,1.55,1.55,0,0,0,.84-1.28,2.53,2.53,0,0,0-.58-1.62,5.78,5.78,0,0,0-1.09-1.17,2.93,2.93,0,0,0-1.58-.76c-.53-.05-1.32.36-1.12,1a.38.38,0,0,0,.55.23l0,0c-.08,0-.06,0,.06,0s.12-.05,0,0c.05,0,.21,0,.06,0h.1c.1,0,0,0,0,0a1.4,1.4,0,0,1,.24.06s.1,0,.12,0-.09,0,0,0l.22.12.24.14.11.08s.18.14.08.05a6,6,0,0,1,.88.87c-.08-.1,0,0,0,0a1.13,1.13,0,0,0,.1.13l.15.24.14.26c-.06-.13,0,0,0,.06s0,.13,0,.19v0h0v.06c0-.07,0-.07,0,0a.45.45,0,0,1,0,.11c.05-.14,0,0,0,0s.1-.1,0,0l-.06,0c-.09.1.14-.08,0,0a.47.47,0,0,0-.1.05c.06-.07.14-.05,0,0l-.1,0-.1,0c.11-.05.11,0,0,0a.67.67,0,0,1-.2,0h0c-.08,0-.06,0,0,0a.42.42,0,0,0-.12,0l-.21-.06c-.14,0,.13.07,0,0l-.11-.05-.07,0,0,0,0,0c-.07,0-.16-.13-.2-.17l-.16-.17c-.1-.12.09.13,0,0a.18.18,0,0,0,0-.07c-.05-.08-.09-.16-.13-.24l0-.08a.59.59,0,0,1,0-.08c0,.09.05.11,0,0a5.18,5.18,0,0,1-.14-.53c0-.14,0,.11,0,0a.77.77,0,0,0,0-.15,2.44,2.44,0,0,1,0-.27.66.66,0,0,1,0-.14c0,.13,0,.05,0,0a2,2,0,0,1,.07-.26l0-.13c.05-.13-.05.1,0,0l.15-.28a.63.63,0,1,0-1.1-.63Z" transform="translate(-14.81 -37.83)"/><path class="cls-1" d="M195.22,150.09c.2,1.27.42,2.54.65,3.8.11.62.22,1.24.34,1.86a5.9,5.9,0,0,0,.53,1.93.7.7,0,0,0,1.26-.17,2.69,2.69,0,0,0,0-1,1.81,1.81,0,0,1-.06-1,.85.85,0,0,1,1.36-.32c.85.72-.13,2.33-1.12,1.65-.27-.18-.56.13-.52.4.18,1,1.61,1,2.3.56a2.18,2.18,0,0,0,.6-2.93,2.06,2.06,0,0,0-2.7-.7,1.92,1.92,0,0,0-.89,1.19,2.9,2.9,0,0,0,0,.78c0,.11,0,.22,0,.34v.19q-.06.18,0,0l1,.6a6.58,6.58,0,0,0-.32-1.9c-.15-.63-.29-1.27-.43-1.91-.27-1.25-.53-2.51-.77-3.76a.67.67,0,0,0-.81-.48.68.68,0,0,0-.48.81Z" transform="translate(-14.81 -37.83)"/><path class="cls-1" d="M202.47,155.71a9.9,9.9,0,0,1,.77,4.89,1.68,1.68,0,0,1-.26.76c.06-.08,0,0-.06.07s.05,0-.07,0-.07.07-.21.07c-.63,0-.95-.88-1.28-1.32s-.91-.28-.87.23a2.85,2.85,0,0,0,1.66,2.57,1.9,1.9,0,0,0,2.47-1.34,6.66,6.66,0,0,0,.08-3.17,14.75,14.75,0,0,0-1-3.31c-.29-.68-1.47-.2-1.21.5Z" transform="translate(-14.81 -37.83)"/><path class="cls-1" d="M201.85,152.91l.17.1.09.05h0l.16.06a1.33,1.33,0,0,0,.21,0,.66.66,0,0,0,.56-.33,1,1,0,0,1,.07-.15l0-.16a.54.54,0,0,0-.06-.25.28.28,0,0,0-.08-.15.52.52,0,0,0-.19-.17,1.5,1.5,0,0,0-.52-.16.6.6,0,0,0-.23,0,.62.62,0,0,0-.23.07l-.13.1a.51.51,0,0,0-.12.2.24.24,0,0,0,0,.15.45.45,0,0,0,0,.23l.06.15a.77.77,0,0,0,.22.22Z" transform="translate(-14.81 -37.83)"/><path class="cls-1" d="M206.82,157.08a2.83,2.83,0,0,0,1.56.33,1.63,1.63,0,0,0,1.22-.77,1.4,1.4,0,0,0,.14-1.24,1.27,1.27,0,0,0-.92-.76,1.74,1.74,0,0,0-1.2.24,1.93,1.93,0,0,0-.8,1.06,2.4,2.4,0,0,0,2.3,3.08,2.38,2.38,0,0,0,.79-.1,2.53,2.53,0,0,0,.45-.19,1.63,1.63,0,0,0,.34-.3.56.56,0,0,0,.09-.68.58.58,0,0,0-.63-.26c.15,0-.07,0-.11,0a2.14,2.14,0,0,0-.35.06s-.09,0-.1,0h-.47c-.16,0,.12,0,0,0l-.12,0-.44-.12c-.16-.05.14.07,0,0l-.09,0s-.2-.1-.19-.12.11.1,0,0l-.08-.07-.05-.06-.06-.07c.06.08.07.1,0,.06l-.1-.16-.06-.12c0-.08,0,0,0,0s-.06-.18-.07-.2,0-.06,0-.08,0-.19,0-.1,0,0,0,0v-.08a1.48,1.48,0,0,1,0-.21c0,.14,0-.08,0-.11a.24.24,0,0,0,0-.08c0-.09,0,.07,0,0l.09-.16c-.06.1,0,0,0,0l.06-.06,0,0,0,0,.07,0s0,0,0,0l.06,0,.17,0c.12,0-.08,0,0,0h.08c.11,0,0,0,0,0l.09,0c.07,0,0,0,0,0l.06,0s0,0,0,0l.07.07c-.06-.07,0,0,0,0l0,0h0s0,.05,0,.08,0,.14,0,0l0,.09a.14.14,0,0,1,0,.06h0a.25.25,0,0,0,0,.07c-.05.1,0,0,0,0l-.09.09s-.12.09,0,0l-.07,0-.07,0c.07,0,.08,0,0,0l-.28.07c.1,0,0,0,0,0h-.36l-.32-.08-.11,0-.1,0h0a.58.58,0,0,0-.76.21.57.57,0,0,0,.21.77Z" transform="translate(-14.81 -37.83)"/><path class="cls-1" d="M216.26,153.47a3.25,3.25,0,0,0-2.83,1.56,2.5,2.5,0,0,0,1,3.33,2.36,2.36,0,0,0,1.11.27,1.86,1.86,0,0,0,1.09-.37.63.63,0,0,0-.48-1.16c.16,0-.06,0-.09,0l-.21,0h-.27c-.09,0-.07,0,0,0-.1,0-.31-.08-.41-.12h-.05c-.08,0-.07,0,0,0s-.16-.08-.19-.1l-.09-.06c.09.07.1.08,0,0l-.12-.11-.07-.08,0,0s-.1-.16-.12-.19l0-.09,0,.08a.74.74,0,0,1-.07-.21.71.71,0,0,1,0-.21c0,.19,0,0,0-.06s0-.12,0-.18c0,.17,0-.06,0-.09s.06-.21,0-.12,0-.09,0-.11.07-.11.11-.17,0-.05,0,0l.06-.08.11-.1s.2-.16.06-.06a2,2,0,0,1,.31-.2l.18-.09h0l.09,0a2.42,2.42,0,0,1,.36-.1l.2-.05h.11a.58.58,0,1,0,0-1.15Z" transform="translate(-14.81 -37.83)"/><path class="cls-1" d="M219.59,151.29q0,1.71.09,3.42a16.4,16.4,0,0,0,.4,3.43.54.54,0,0,0,1-.13,22,22,0,0,0,0-3.35q0-1.68,0-3.36a.78.78,0,0,0-1.55,0Z" transform="translate(-14.81 -37.83)"/><path class="cls-1" d="M218.3,155.35l3,.13a14.18,14.18,0,0,0,1.46,0c.49,0,1.36-.13,1.37-.78s-.87-.78-1.36-.82a14.44,14.44,0,0,0-1.47-.05c-1,0-2,0-3,0a.76.76,0,0,0,0,1.52Z" transform="translate(-14.81 -37.83)"/><path class="cls-1" d="M270.09,153.6a3.14,3.14,0,0,0,1.58,4.63,2.19,2.19,0,0,0,1.45-.12,1.55,1.55,0,0,0,.84-1.28,2.53,2.53,0,0,0-.58-1.62,5.78,5.78,0,0,0-1.09-1.17,2.93,2.93,0,0,0-1.58-.76c-.53-.05-1.32.36-1.12,1a.38.38,0,0,0,.55.23l0,0c-.08,0-.06,0,.06,0s.12-.05,0,0c0,0,.21,0,.06,0h.1c.1,0,0,0,0,0a1.4,1.4,0,0,1,.24.06s.1,0,.12,0-.09,0,0,0l.22.12.24.14.11.08s.18.14.08.05a6,6,0,0,1,.88.87c-.08-.1,0,0,0,0a1.13,1.13,0,0,0,.1.13l.15.24.14.26c-.06-.13,0,0,0,.06s0,.13.05.19v0h0v.06c0-.07,0-.07,0,0a.45.45,0,0,1,0,.11c0-.14,0,0,0,0s.1-.1,0,0l-.06,0c-.09.1.14-.08,0,0l-.1.05c.06-.07.14-.05,0,0l-.1,0-.1,0c.11-.05.11,0,0,0a.67.67,0,0,1-.2,0h0c-.08,0-.06,0,0,0a.42.42,0,0,0-.12,0l-.21-.06c-.14,0,.13.07,0,0l-.11-.05-.07,0,0,0,0,0c-.07,0-.16-.13-.2-.17l-.16-.17c-.1-.12.09.13,0,0a.18.18,0,0,0-.05-.07c-.05-.08-.09-.16-.13-.24a.59.59,0,0,1,0-.08l0-.08c0,.09.05.11,0,0a5.18,5.18,0,0,1-.14-.53c0-.14,0,.11,0,0a.77.77,0,0,0,0-.15,2.44,2.44,0,0,1,0-.27.66.66,0,0,1,0-.14c-.05.13,0,.05,0,0a2,2,0,0,1,.07-.26l0-.13c.05-.13,0,.1,0,0l.15-.28a.63.63,0,1,0-1.1-.63Z" transform="translate(-14.81 -37.83)"/><path class="cls-1" d="M274.22,150.09c.2,1.27.42,2.54.65,3.8.11.62.22,1.24.34,1.86a5.9,5.9,0,0,0,.53,1.93.7.7,0,0,0,1.26-.17,2.69,2.69,0,0,0,0-1,1.81,1.81,0,0,1-.06-1,.85.85,0,0,1,1.36-.32c.85.72-.13,2.33-1.12,1.65-.27-.18-.56.13-.52.4.18,1,1.61,1,2.3.56a2.18,2.18,0,0,0,.6-2.93,2.06,2.06,0,0,0-2.7-.7,1.92,1.92,0,0,0-.89,1.19,2.9,2.9,0,0,0,0,.78c0,.11,0,.22,0,.34v.19q-.06.18,0,0l1,.6a6.58,6.58,0,0,0-.32-1.9c-.15-.63-.29-1.27-.43-1.91-.27-1.25-.53-2.51-.77-3.76a.67.67,0,0,0-.81-.48.68.68,0,0,0-.48.81Z" transform="translate(-14.81 -37.83)"/><path class="cls-1" d="M281.47,155.71a9.9,9.9,0,0,1,.77,4.89,1.68,1.68,0,0,1-.26.76c.06-.08,0,0-.06.07s.05,0-.07,0-.07.07-.21.07c-.63,0-.95-.88-1.28-1.32s-.91-.28-.87.23a2.85,2.85,0,0,0,1.66,2.57,1.9,1.9,0,0,0,2.47-1.34,6.66,6.66,0,0,0,.08-3.17,14.75,14.75,0,0,0-1-3.31c-.29-.68-1.47-.2-1.21.5Z" transform="translate(-14.81 -37.83)"/><path class="cls-1" d="M280.85,152.91l.17.1.09.05h0l.16.06a1.33,1.33,0,0,0,.21,0,.66.66,0,0,0,.56-.33,1,1,0,0,1,.07-.15l0-.16a.54.54,0,0,0-.06-.25.28.28,0,0,0-.08-.15.52.52,0,0,0-.19-.17,1.5,1.5,0,0,0-.52-.16.6.6,0,0,0-.23,0,.62.62,0,0,0-.23.07l-.13.1a.51.51,0,0,0-.12.2.24.24,0,0,0,0,.15.45.45,0,0,0,0,.23l.06.15a.77.77,0,0,0,.22.22Z" transform="translate(-14.81 -37.83)"/><path class="cls-1" d="M285.82,157.08a2.83,2.83,0,0,0,1.56.33,1.63,1.63,0,0,0,1.22-.77,1.4,1.4,0,0,0,.14-1.24,1.27,1.27,0,0,0-.92-.76,1.74,1.74,0,0,0-1.2.24,1.93,1.93,0,0,0-.8,1.06,2.4,2.4,0,0,0,2.3,3.08,2.38,2.38,0,0,0,.79-.1,2.53,2.53,0,0,0,.45-.19,1.63,1.63,0,0,0,.34-.3.56.56,0,0,0,.09-.68.58.58,0,0,0-.63-.26c.15,0-.07,0-.11,0a2.14,2.14,0,0,0-.35.06s-.09,0-.1,0h-.47c-.16,0,.12,0,0,0l-.12,0-.44-.12c-.16-.05.14.07,0,0l-.09,0s-.2-.1-.19-.12.11.1,0,0l-.08-.07-.05-.06-.06-.07,0,.06-.1-.16-.06-.12c-.05-.08,0,0,0,0s-.06-.18-.07-.2,0-.06,0-.08,0-.19,0-.1,0,0,0,0v-.08a1.48,1.48,0,0,1,0-.21c0,.14,0-.08,0-.11a.24.24,0,0,0,0-.08c0-.09,0,.07,0,0l.09-.16c-.06.1,0,0,0,0l.06-.06,0,0,.05,0,.07,0c.05,0,.05,0,0,0l.06,0,.17,0c.12,0-.08,0,0,0h.08c.11,0-.05,0,0,0l.09,0c.07,0,0,0,0,0l.06,0s0,0,0,0l.07.07c-.06-.07,0,0,0,0l0,0h0s0,.05,0,.08,0,.14,0,0l0,.09a.14.14,0,0,1,0,.06h0a.25.25,0,0,0,0,.07c-.05.1,0,0,0,0l-.09.09s-.12.09,0,0l-.07,0-.07,0c.07,0,.08,0,0,0l-.28.07c.1,0,0,0,0,0h-.36l-.32-.08-.11,0-.1,0h0a.58.58,0,0,0-.76.21.57.57,0,0,0,.21.77Z" transform="translate(-14.81 -37.83)"/><path class="cls-1" d="M295.26,153.47a3.25,3.25,0,0,0-2.83,1.56,2.5,2.5,0,0,0,1,3.33,2.36,2.36,0,0,0,1.11.27,1.86,1.86,0,0,0,1.09-.37.63.63,0,0,0-.48-1.16c.16,0-.06,0-.09,0l-.21,0h-.27c-.09,0-.07,0,0,0-.1,0-.31-.08-.41-.12h0c-.08,0-.07,0,0,0s-.16-.08-.19-.1l-.09-.06c.09.07.1.08,0,0l-.12-.11-.07-.08,0,0s-.1-.16-.12-.19l0-.09,0,.08a.74.74,0,0,1-.07-.21.71.71,0,0,1,0-.21c0,.19,0,0,0-.06s0-.12,0-.18c0,.17,0-.06,0-.09s.06-.21,0-.12.05-.09.05-.11.07-.11.11-.17,0-.05,0,0l.06-.08.11-.1s.2-.16.06-.06a2,2,0,0,1,.31-.2l.18-.09h0l.09,0a2.42,2.42,0,0,1,.36-.1l.2-.05h.11a.58.58,0,1,0,0-1.15Z" transform="translate(-14.81 -37.83)"/><path class="cls-1" d="M298.59,151.29q0,1.71.09,3.42a16.4,16.4,0,0,0,.4,3.43.54.54,0,0,0,1.05-.13,22,22,0,0,0,0-3.35q0-1.68,0-3.36a.78.78,0,0,0-1.55,0Z" transform="translate(-14.81 -37.83)"/><path class="cls-1" d="M297.3,155.35l3,.13a14.18,14.18,0,0,0,1.46,0c.49,0,1.36-.13,1.37-.78s-.87-.78-1.36-.82a14.44,14.44,0,0,0-1.47-.05c-1,0-2,0-3,0a.76.76,0,0,0,0,1.52Z" transform="translate(-14.81 -37.83)"/><path class="cls-1" d="M237.64,159c.05.11,0-.06,0-.08a.42.42,0,0,1,0,.1l.06.19a2.71,2.71,0,0,1,.09.41c0,.11,0-.18,0-.07a.38.38,0,0,0,0,.1,1.41,1.41,0,0,0,0,.2c0,.14,0,.28,0,.42s0,0,0-.07a.38.38,0,0,0,0,.1,1.77,1.77,0,0,0,0,.2,2.79,2.79,0,0,1-.1.39c-.08.26-.15.53-.21.8a.61.61,0,0,0,.89.67,2.52,2.52,0,0,0,1.19-2,3.92,3.92,0,0,0-.37-2.26.88.88,0,0,0-1.19-.32.9.9,0,0,0-.32,1.19Z" transform="translate(-14.81 -37.83)"/><path class="cls-1" d="M246.62,158a.57.57,0,0,1-.08-.13l.06.13a.61.61,0,0,1,0-.18l0,.13a.81.81,0,0,1,0-.22l0,.13a.79.79,0,0,1,.06-.22l-.05.12a.54.54,0,0,1,.11-.18l-.08.1a.86.86,0,0,1,.13-.14l-.1.09a.38.38,0,0,1,.15-.09l-.13.05.16,0h0l-.13,0,.17,0-.12-.05.21.13-.1-.08.16.16-.08-.1a.77.77,0,0,1,.1.18l0-.12a.84.84,0,0,1,0,.17l0-.13a.43.43,0,0,1,0,.16l0-.12a.83.83,0,0,1,0,.15l.05-.11L247,158l.07-.1a.8.8,0,0,1-.13.13l.1-.08a.72.72,0,0,1-.19.11l.11,0a.43.43,0,0,1-.16,0l.12,0h-.21l.12,0-.18,0,.12,0a.57.57,0,0,1-.13-.08l.1.08,0,0,.08.59a1.83,1.83,0,0,0,.19-.86,2.15,2.15,0,0,0-.22-.87l-.09-.12a.62.62,0,0,0-.17-.11.56.56,0,0,0-.34,0,.88.88,0,0,0-.65.93,1,1,0,0,0,.21.59.86.86,0,0,0,.66.34.56.56,0,0,0,.35-.13.52.52,0,0,0,.2-.3,2.42,2.42,0,0,0,.06-.47,1.36,1.36,0,0,0,0-.29,1.06,1.06,0,0,0-.09-.25.46.46,0,0,0-.73-.09.8.8,0,0,0-.15.21,1.53,1.53,0,0,0-.11.27,2.42,2.42,0,0,0-.06.47l.57-.56h0l.13.05-.06,0,.11.08-.06-.06.09.12a.24.24,0,0,1-.06-.11l.05.14,0-.13,0,.14a.28.28,0,0,1,0-.13l0,.14a.38.38,0,0,1,0-.1l-.06.13a.22.22,0,0,1,.05-.08l-.09.11,0-.05-.11.08.07,0-.13.06,0,0-.59-.24a1,1,0,0,1,.07.15l-.05-.13a1.78,1.78,0,0,1,.1.38l0-.13a1.28,1.28,0,0,1,0,.39l0-.13a1,1,0,0,1-.07.3.47.47,0,0,0,0,.31.55.55,0,0,0,.2.25,1.29,1.29,0,0,0,1.26,0,1.13,1.13,0,0,0,.65-1.08,1.28,1.28,0,0,0-.95-1.14,1.19,1.19,0,0,0-.81.09,1.18,1.18,0,0,0-.48.46,1.26,1.26,0,0,0-.19.69,1.43,1.43,0,0,0,.06.35,1.47,1.47,0,0,0,.24.42.52.52,0,0,0,.34.14.55.55,0,0,0,.3-.11.49.49,0,0,0,.18-.26.54.54,0,0,0,0-.37Z" transform="translate(-14.81 -37.83)"/><path class="cls-1" d="M250.74,157.8a.86.86,0,0,0,.15.22l-.07-.09a.68.68,0,0,0,.59.33A.82.82,0,0,0,252,158a.85.85,0,0,0,.13-1,.48.48,0,0,0-.54-.22,1,1,0,0,0-.53.4.85.85,0,0,0-.11.26.86.86,0,0,0,0,.28.89.89,0,0,0,.25.62,1,1,0,0,0,.62.26,1,1,0,0,0,.66-.26l-.1.08a.85.85,0,0,0,.31-.34.9.9,0,0,0,.08-.56,1.33,1.33,0,0,0-.13-.35,1.14,1.14,0,0,0-.23-.3.48.48,0,0,0-.31-.15.61.61,0,0,0-.35.06.18.18,0,0,0-.07.05.36.36,0,0,0-.14.16h0a.55.55,0,0,0,0,.13.53.53,0,0,0,0,.28l.06.13a.32.32,0,0,0,.14.16.55.55,0,0,0,.33.12h0l-.14,0,.09,0-.12-.05.09.05-.1-.08.06.06-.08-.1a.25.25,0,0,1,0,.07l0-.11,0,.12,0-.13a.17.17,0,0,1,0,.1l0-.12a.54.54,0,0,1,0,.1l0-.12a.19.19,0,0,1,0,.09l.07-.09-.07.07.1-.08-.06,0,.12,0-.13,0,.13,0h-.18l.13,0-.12,0,.12.05-.09-.05.11.08-.08-.07.09.1a.21.21,0,0,1-.06-.1l.05.13a.23.23,0,0,1,0-.11v.12a.27.27,0,0,1,0-.12l-.05.11.07-.11-.08.1.07-.07-.1.08.09-.05-.12.05h0l-.54-.23,0,.05-.05-.12a.24.24,0,0,1,0,.08l0-.13a.17.17,0,0,1,0,.1l0-.12s0,0,0,.08l.05-.11-.05.08.07-.1a.17.17,0,0,1-.06.06l.11-.08-.07,0,.12-.05-.07,0,.12,0h-.12l.12,0-.08,0a1.1,1.1,0,0,0-.18,0l.22.06h0l.09.06-.06-.05.07.09,0,0a.43.43,0,0,0-.79.11v.11a.39.39,0,0,0,.06.21Z" transform="translate(-14.81 -37.83)"/><path class="cls-1" d="M257.47,158.54a.87.87,0,0,0,.63.09,1,1,0,0,0,.46-.25,1.06,1.06,0,0,0,.26-.43.67.67,0,0,0,0-.24.49.49,0,0,0,0-.12.5.5,0,0,0,0-.12.88.88,0,0,0-.35-.47.85.85,0,0,0-.22-.09l-.23,0a1.08,1.08,0,0,0-.47.15,1,1,0,0,0-.34.34.83.83,0,0,0-.08.56.14.14,0,0,0,0,.06.71.71,0,0,0,.08.18.58.58,0,0,0,.16.19.94.94,0,0,0,.45.21,1.05,1.05,0,0,0,.5,0,1.07,1.07,0,0,0,.45-.26,1.1,1.1,0,0,0,.27-.51,1,1,0,0,0-.23-.88.8.8,0,0,0-.21-.15.88.88,0,0,0-.62-.08.85.85,0,0,0-.17.06l-.07,0a.75.75,0,0,0-.26.27.92.92,0,0,0-.1.36c0,.05,0,.09,0,.13a.61.61,0,0,0,0,.13.73.73,0,0,0,.15.29.72.72,0,0,0,.24.22,1,1,0,0,0,.37.09l-.45-.27a.85.85,0,0,0,.25.25.82.82,0,0,0,.34.09h0l.18,0a1,1,0,0,0,.32-.18.81.81,0,0,0,.18-.31.45.45,0,0,0,0-.23.65.65,0,0,0-.1-.36.42.42,0,0,0-.11-.15.59.59,0,0,0-.57-.18.59.59,0,0,0-.3.21.55.55,0,0,0,.05.74l.05,0-.1-.12s0,0,0,.05l-.05-.14s0,0,0,.05l0-.14v.06l0-.14a0,0,0,0,1,0,0l.05-.13a.05.05,0,0,1,0,0l.09-.11,0,0,.12-.09,0,0,.13,0h.12l.12,0,0,0,.11.09v0a.94.94,0,0,0-.18-.12.61.61,0,0,0-.27,0h-.09l.14,0h-.06l.14,0-.06,0,.12,0a.05.05,0,0,1,0,0l.1.08-.06-.05.09.1a.22.22,0,0,1-.05-.08l.05.12,0-.09,0,.13a.14.14,0,0,1,0-.09l0,.12a.14.14,0,0,1,0-.06l-.05.12,0-.06-.07.1.06-.06-.11.08.07,0-.11,0,.09,0h-.12a.17.17,0,0,1,.1,0l-.1-.05.09.05-.09-.07.07.07-.08-.09a.21.21,0,0,1,.06.1l0-.11,0,.1,0-.11a.24.24,0,0,1,0,.12l0-.11a.53.53,0,0,1-.05.15l.05-.1-.08.14.07-.09-.1.1.09-.07-.13.07.11-.05a.49.49,0,0,1-.16.05l.11,0H258l.12,0-.14,0,.1.05-.11-.07.1.07a.27.27,0,0,1-.08-.07l.08.1a.3.3,0,0,1-.06-.11l0,.12a.31.31,0,0,1,0-.08l0,.11a.11.11,0,0,1,0-.08l0,.12a.19.19,0,0,1,0-.08l0,.1a.22.22,0,0,1,.05-.08l-.07.09a.26.26,0,0,1,.09-.09l-.1.07.13-.07-.11,0a.58.58,0,0,1,.14,0H258l.08,0-.1,0,.06,0-.09-.07.06.05-.08-.09.05.07-.05-.11a.09.09,0,0,1,0,0v-.14a.24.24,0,0,1,0,.08l.05-.11a.41.41,0,0,1-.07.11l.08-.1a.57.57,0,0,1-.11.11l.11-.08-.12.07.13-.06-.12,0,.13,0h-.09l.13,0-.07,0,.12.05-.07,0,.12.08h0a.59.59,0,0,0-.38-.16.53.53,0,0,0-.44.22.55.55,0,0,0,.16.8Z" transform="translate(-14.81 -37.83)"/><path class="cls-1" d="M251.18,157.66a.49.49,0,0,0,0,.21.81.81,0,0,0,.16.27,1,1,0,0,0,.37.23.82.82,0,0,0,.44,0,.71.71,0,0,0,.46-.33.51.51,0,0,0,.09-.27.61.61,0,0,0,0-.3.94.94,0,0,0-.38-.48l-.23-.1-.25,0h-.06a1.25,1.25,0,0,0-.19,0,.83.83,0,0,0-.34.2.91.91,0,0,0-.13.16l0,0a.67.67,0,0,0-.07.18,1,1,0,0,0,0,.3.81.81,0,0,0,.09.29.9.9,0,0,0,.14.2.7.7,0,0,0,.19.15.77.77,0,0,0,.45.13.52.52,0,0,0,.3-.08.58.58,0,0,0,.22-.22,2.47,2.47,0,0,0,.18-.52,2.07,2.07,0,0,0,0-.35s0-.06,0-.09,0-.13,0-.19a.48.48,0,0,0-.07-.18.57.57,0,0,0-.5-.29h0l.26.07h0l.1.08a.49.49,0,0,0-.42-.17.44.44,0,0,0-.34.22.21.21,0,0,0,0,.06l.08-.1h0l.24-.14a.57.57,0,0,0-.42.43,2.51,2.51,0,0,0,0,.27l0-.15c0,.13,0,.26-.06.39l0-.15a1.7,1.7,0,0,1-.1.37l.58-.44h-.05l.15,0-.06,0,.14.06-.06,0,.12.09a.13.13,0,0,1-.07-.06l.1.13a.3.3,0,0,1,0-.08l.06.14a.14.14,0,0,1,0-.07l0,.15s0,0,0-.07l0,.14a.08.08,0,0,1,0,0l-.06.14,0-.05-.08.11,0,0-.12.1.06,0-.14.06.08,0-.14,0H252l-.14,0a.19.19,0,0,1,.1,0l-.12-.05.08,0-.1-.08.12.09-.11-.08.05.06-.08-.11,0,0,0-.12s0,0,0,.06l0-.13v.06l0-.12,0,.05,0-.12,0,.06.07-.1a.08.08,0,0,1,0,0l.1-.07-.07,0,.11-.05-.1,0,.12,0h-.12l.11,0-.08,0,.1,0-.07,0,.09.07,0-.06.07.09,0-.05,0,.1s0,0,0-.06v0a.4.4,0,0,0-.12-.29.41.41,0,0,0-.58,0l-.07.09a.46.46,0,0,0,0,.2Z" transform="translate(-14.81 -37.83)"/><path class="cls-1" d="M264.19,158.81a3,3,0,0,1,.16.31l-.09-.21a1.91,1.91,0,0,1,.1.34s0,.24,0,.08,0,0,0,.08v.18s0,.15,0,.17,0-.22,0-.1l0,.09,0,.18a1.92,1.92,0,0,1-.09.32l-.06.16s-.06.15,0,0,0,0,0,0a1.09,1.09,0,0,1-.08.15l-.07.19,0-.1,0,.07a2.35,2.35,0,0,0-.17.44.57.57,0,0,0,.55.72,1.48,1.48,0,0,0,.64-.19,1.9,1.9,0,0,0,.45-.4,2.49,2.49,0,0,0,.54-1.09,3.07,3.07,0,0,0-.41-2.25.84.84,0,0,0-1.46.85Z" transform="translate(-14.81 -37.83)"/><path class="cls-1" d="M307,153.69c.15.83.27,1.66.37,2.49a17.89,17.89,0,0,0,.43,2.62c.12.43.86.5.93,0a18.35,18.35,0,0,0-.31-5.48.74.74,0,0,0-.89-.52.75.75,0,0,0-.53.89Z" transform="translate(-14.81 -37.83)"/><path class="cls-1" d="M309.06,156.59l1.85-1.28.89-.61.47-.34a1.15,1.15,0,0,0,.58-.72.71.71,0,0,0-.5-.86,1.07,1.07,0,0,0-.88.19c-.16.1-.33.21-.48.32l-.9.62-1.84,1.28a.82.82,0,0,0-.3,1.1.83.83,0,0,0,1.11.3Z" transform="translate(-14.81 -37.83)"/><path class="cls-1" d="M308.76,157.37q1.17.54,2.37,1a5.54,5.54,0,0,0,2.42.56.62.62,0,0,0,.55-.36.58.58,0,0,0-.13-.64,4.29,4.29,0,0,0-.55-.4,2.37,2.37,0,0,0-.36-.17l-.16-.06,0,0-.65-.26-.23-.09-.15-.07h0c-.74-.31-1.47-.63-2.18-1a.87.87,0,0,0-.86,1.51Z" transform="translate(-14.81 -37.83)"/><path class="cls-1" d="M229.66,152.49c-.15.07.13,0,0,0s0,0,0,0-.12,0,0,0,.14,0,.06,0,0,0,0,0l.08,0c.08,0-.1-.1,0,0l.13.14c-.09-.1,0,0,.05.1s.1.17.08.12,0,0,0,.07l0,.13s0,.24,0,.12a1.41,1.41,0,0,1,0,.2c0-.11,0,.07,0,.12a.76.76,0,0,1,0,.11l0,0a4.76,4.76,0,0,1-.28.49.87.87,0,0,1-.08.1l-.21.26c-.25.28-.51.55-.75.84a2.24,2.24,0,0,0-.71,1.36c0,1.31,1.48,1.38,2.44,1.45a9.77,9.77,0,0,0,1.53,0,2.78,2.78,0,0,0,1.78-.62.65.65,0,0,0-.3-1.08,3.31,3.31,0,0,0-1.47-.05,9.76,9.76,0,0,1-1.43,0c-.17,0-.41,0-.54,0l-.35-.06a2.05,2.05,0,0,0-.28-.08c.13-.08.3.39.3.42s-.12.25,0,.09l.06-.11.17-.24h0l.1-.13a8,8,0,0,0,1.41-2.11,2.44,2.44,0,0,0-.26-2.22,1.77,1.77,0,0,0-2.3-.75.7.7,0,0,0-.26.95.71.71,0,0,0,1,.26Z" transform="translate(-14.81 -37.83)"/><path class="cls-2" d="M14.81,135.5c.65,10.47,1.15,20.95,1.74,31.43l.21,3.85a31.78,31.78,0,0,0,.24,3.9c.25,1.43,1.63,1.37,2.79,1.38l3.86,0,15.71.14,31.53.28,15.7.13,4,0c1,0,2.21.1,2.93-.79s.53-2.43.53-3.52c0-1.27,0-2.54-.11-3.81-.24-5.2-.67-10.4-1-15.59s-.75-10.52-1.11-15.77c-.09-1.29-.16-2.57-.25-3.85a1,1,0,0,0-1-1c-9.28.81-18.59.43-27.89.06s-18.53-.48-27.81-.08a137.26,137.26,0,0,0-15.68,1.36c-.85.13-.66,1.52.19,1.49,4.63-.15,9.25-.56,13.87-.79s9.27-.35,13.9-.36c9.28,0,18.53.6,27.81.76a140.11,140.11,0,0,0,15.6-.5l-1-1c.55,7.53,1,15.06,1.52,22.6.26,3.79.54,7.58.76,11.38.11,1.88.18,3.77.16,5.65,0,.41,0,.82,0,1.23s0,.43-.27.5a4.71,4.71,0,0,1-.92,0H89.22l-45.37-.4-12.71-.11-6.36-.05-3.24,0H20.05c-.37,0-1.17.12-1.44-.06l.36.36c-.22-.31-.13-1.11-.15-1.5l-.13-2-.24-3.85L18,159.48q-.48-7.64-1-15.28c-.19-2.89-.36-5.79-.53-8.69-.06-1-1.71-1.06-1.64,0Z" transform="translate(-14.81 -37.83)"/><path class="cls-1" d="M66.27,121c5.51-12.71,14.12-24.72,26.53-31.42a42.59,42.59,0,0,1,20.35-5.17A35.07,35.07,0,0,1,123.42,86a45.5,45.5,0,0,1,9.15,4.24c5.62,3.27,10.89,7.23,16.88,9.85a30.79,30.79,0,0,0,9.26,2.54,29.42,29.42,0,0,0,11.37-1.35c7.44-2.29,14-6.6,21-9.93,6.15-2.93,13-5.1,19.82-3.58a17.7,17.7,0,0,1,7.74,3.65,14.29,14.29,0,0,1,4.64,8.24,82.08,82.08,0,0,1,1.17,12.13q.35,6.3.33,12.61c0,2.1,0,4.2.08,6.3a.81.81,0,0,0,1.62,0,102.62,102.62,0,0,0,.18-13.24c-.13-4.3-.39-8.61-.77-12.9-.33-3.69-.79-7.5-2.71-10.75a16.11,16.11,0,0,0-6.4-6c-5.85-3.08-12.72-3.07-18.94-1.23-7.57,2.23-14.2,6.64-21.28,10a43.28,43.28,0,0,1-11.44,3.82,24.56,24.56,0,0,1-10.68-.6C148,98,142.39,94,136.77,90.56c-5.89-3.66-12-6.77-19-7.66A42.38,42.38,0,0,0,96.6,86C83.26,91.45,73.42,102.8,67,115.44c-.78,1.54-1.52,3.11-2.21,4.69-.42,1,1,1.82,1.46.83Z" transform="translate(-14.81 -37.83)"/><path class="cls-1" d="M220.08,126.48l2,3,1,1.5c.38.56.78,1.27,1.49,1.44a.76.76,0,0,0,.91-.52,1.84,1.84,0,0,0-.2-1.15c-.14-.26-.32-.51-.48-.76l-1-1.5-2-3a1,1,0,1,0-1.72,1Z" transform="translate(-14.81 -37.83)"/><path class="cls-1" d="M227.05,131.44c.85-1.05,1.74-2.07,2.68-3,.46-.48.94-.94,1.42-1.41s1.31-1.09,1.25-1.86a.68.68,0,0,0-.49-.64c-.82-.17-1.53.54-2.09,1.05s-1,.94-1.47,1.43c-.95,1-1.85,2-2.71,3.07a1,1,0,0,0,0,1.41,1,1,0,0,0,1.4,0Z" transform="translate(-14.81 -37.83)"/><path class="cls-1" d="M234.76,89.19c-2.07,0-4.39.7-5.27,2.77a3.33,3.33,0,0,0,.13,3A4.27,4.27,0,0,0,232,96.8a6.61,6.61,0,0,0,4.1-.15.61.61,0,0,0-.15-1.2c-1-.08-2,0-3-.11a3.25,3.25,0,0,1-1.85-.86,1.86,1.86,0,0,1-.53-1.81,3,3,0,0,1,1.3-1.79,5.86,5.86,0,0,1,2.85-.79c.57,0,.58-.91,0-.9Z" transform="translate(-14.81 -37.83)"/><path class="cls-1" d="M237.23,86.33c.09,1.62.15,3.25.22,4.87s.06,3.26.22,4.87c.08.89,1.39,1.21,1.64.22a8.53,8.53,0,0,1,.56-1.73c.2-.42.51-.42.86-.12a5.3,5.3,0,0,1,.87,1.32,4.3,4.3,0,0,0,1.28,1.55.53.53,0,0,0,.79-.46,3.32,3.32,0,0,0-.36-1.37,9.45,9.45,0,0,0-.62-1.28,3.1,3.1,0,0,0-1.83-1.54c-2-.53-2.64,1.77-3.17,3.2l1.64.22c-.05-1.62-.27-3.25-.41-4.87s-.3-3.25-.42-4.87c-.06-.81-1.31-.83-1.27,0Z" transform="translate(-14.81 -37.83)"/><path class="cls-1" d="M246.29,91.81a3.68,3.68,0,0,0,.27,3.87,4.43,4.43,0,0,0,3.56,1.76,3,3,0,0,0,2.11-.8,2.81,2.81,0,0,0,.79-1.82,3.12,3.12,0,0,0-2.2-3.09,3.48,3.48,0,0,0-4,1.44.48.48,0,0,0,.64.65,7,7,0,0,1,1.3-.67c.12,0,.24-.07.36-.09l.2,0h.06a1.82,1.82,0,0,1,.33,0h.19l.11,0,.33.08.15.06.06,0,.3.17c.12.09,0,0,0,0l.17.15.13.14c.09.1-.09-.15,0,0l.16.26c.1.18,0-.09,0,0a1.09,1.09,0,0,1,.05.17.58.58,0,0,1,0,.14c0,.2,0-.14,0,.07s0,.21,0,.32,0-.18,0,0l0,.14,0,.13c-.06.2.05-.08,0,0a1.09,1.09,0,0,0-.08.15s-.15.2,0,0a1.8,1.8,0,0,1-.19.2c-.1.11,0,0,0,0l-.17.11-.19.1s.15-.05,0,0a2.92,2.92,0,0,1-.4.1c-.26,0,.07,0-.08,0h-.54s-.24,0-.13,0-.15,0-.13,0l-.38-.1a3.34,3.34,0,0,1-1.07-.6,2.31,2.31,0,0,1-.73-1.19,2,2,0,0,1,.14-1.43.6.6,0,0,0-1-.59Z" transform="translate(-14.81 -37.83)"/><path class="cls-1" d="M255.69,92.45A3.85,3.85,0,0,0,255,96.1a3.14,3.14,0,0,0,2.78,1.81,3.62,3.62,0,0,0,3.13-1.81,3.13,3.13,0,0,0-.26-3.67,3.22,3.22,0,0,0-4-.87c-.47.3-.34,1.17.3,1.13a4.85,4.85,0,0,1,.66,0,4,4,0,0,1,.65.1l.33.08.22.08.28.15a.57.57,0,0,0,.13.08c.19.11-.08-.08.09.06l.23.22s.1.11,0,0l.08.13a1.17,1.17,0,0,1,.15.27s0-.11,0,0a1.05,1.05,0,0,1,.05.19c0,.13,0-.16,0,.07v.16a.86.86,0,0,1,0,.16s0-.12,0,0-.05.2-.08.31l-.06.15c0-.1,0,0,0,.07s-.1.19-.16.28l0,.07c0-.07-.05.06-.06.07l-.22.23s-.27.24-.15.14a3.48,3.48,0,0,1-.56.34c-.12,0,.11,0,0,0l-.14,0a2,2,0,0,1-.33.09h-.18c-.11,0-.21,0-.31,0h0l-.14,0-.14,0s-.21-.07-.09,0a2.69,2.69,0,0,1-.5-.28c.07,0-.1-.09-.13-.12l-.1-.1s-.14-.17-.07-.08a2,2,0,0,1-.17-.27.93.93,0,0,1-.08-.2,2,2,0,0,1-.06-.74,4,4,0,0,1,.59-1.51c.33-.58-.53-1.06-.9-.51Z" transform="translate(-14.81 -37.83)"/><path class="cls-1" d="M265.42,91c-.86.2-1.77.6-1.95,1.56a1.72,1.72,0,0,0,.32,1.26c.26.39.55.77.84,1.13a4.57,4.57,0,0,1,.29.36l.08.13c0,.08,0,.09,0,0s.09.24,0,.07c0,.09,0,.1,0,0,0,.09,0,.09,0,0l0,.06h0a.94.94,0,0,1-.1.1c.07-.06.07-.06,0,0l-.19.11h0l-.15.06-.25.07-.35.06c-.16,0,0,0-.14,0h-.62a3.89,3.89,0,0,0-.76,0,.63.63,0,0,0-.28,1.06,2.8,2.8,0,0,0,2.81.31,2,2,0,0,0,1.59-2.09,2.19,2.19,0,0,0-.7-1.22c-.31-.31-.63-.61-.92-1a1.3,1.3,0,0,1-.28-.36.17.17,0,0,1,.05-.16,1.62,1.62,0,0,1,.87-.3.72.72,0,0,0,.71-.79.73.73,0,0,0-.88-.61Z" transform="translate(-14.81 -37.83)"/><path class="cls-1" d="M268.17,95.36a4,4,0,0,0,3.86-.75,1.65,1.65,0,0,0,.56-1.8,1.9,1.9,0,0,0-1.41-1.09,2.76,2.76,0,0,0-3.13,1.76,2.87,2.87,0,0,0,1.42,3.44,5.88,5.88,0,0,0,2.52.49A8.4,8.4,0,0,0,274.8,97a.62.62,0,0,0-.15-1.22,25.83,25.83,0,0,1-3.52-.09,2.66,2.66,0,0,1-1.26-.39,1.4,1.4,0,0,1-.5-.78,1.45,1.45,0,0,1,.94-1.73,1.26,1.26,0,0,1,1.12.08c.37.26.26.62,0,.92a3.11,3.11,0,0,1-3,.72.44.44,0,0,0-.23.85Z" transform="translate(-14.81 -37.83)"/><path class="cls-1" d="M232.58,105.22a3.26,3.26,0,0,0,.27,2.85,3.12,3.12,0,0,0,2.65,1.46,2.79,2.79,0,0,0,2.65-1.72c.45-1.18-.43-2.22-1.39-2.78a5.47,5.47,0,0,0-1.74-.65,2.76,2.76,0,0,0-2.06.19.62.62,0,0,0-.29.6.61.61,0,0,0,.44.52,7,7,0,0,0,1.38.09h.24l.1,0,.18,0a6.13,6.13,0,0,1,.61.18c.13,0-.14-.07.08,0l.13.06.27.14.24.15.11.08c-.1-.08.06.06.06.06s.13.13.19.19.05.08.07.12a.67.67,0,0,1,.06.12c-.05-.13,0,0,0,0a.5.5,0,0,1,0,.13c0-.14,0,0,0,.07,0-.12,0,.07,0,.13s0,0,0,0l-.06.12-.05.08,0,.06a2,2,0,0,1-.21.2c.11-.09,0,0,0,0l-.12.07-.11.06c-.1.07.1,0,0,0a5.27,5.27,0,0,1-.57.14c-.1,0,.11,0,0,0h-.43s-.13,0,0,0l-.13,0-.32-.08-.12,0h0l-.23-.12a1.53,1.53,0,0,1-.38-.29l-.09-.1s-.11-.15-.06-.07c0-.08-.11-.17-.15-.25a1.8,1.8,0,0,1-.2-.49,2,2,0,0,1,.08-1.14.52.52,0,0,0-.35-.62.54.54,0,0,0-.62.36Z" transform="translate(-14.81 -37.83)"/><path class="cls-1" d="M238.23,102.55c.19,1.15.4,2.3.63,3.44a9.83,9.83,0,0,0,1.06,3.37.64.64,0,0,0,1.18-.31,13.42,13.42,0,0,0-.68-3.47c-.29-1.13-.55-2.26-.79-3.4a.72.72,0,1,0-1.4.37Z" transform="translate(-14.81 -37.83)"/><path class="cls-1" d="M241,106.53l.47-.09.24,0,.15,0a8.34,8.34,0,0,1,1,0h.24l.1,0a4.48,4.48,0,0,1,.5.11l.22.07.11,0s.12.05.05,0,0,0,0,0l.11,0,.24.13.19.13c-.12-.08,0,0,.06.06l.15.15c-.11-.11,0,0,0,.1s0-.13,0,0,0,0,0,0,0,.23,0,.09a1,1,0,0,1-.06.23c0-.13-.06.07-.08.11s0,0,0,0l-.08.09-.09.09,0,0,0,0-.11.07-.25.15-.46.23-.25.11-.17.06a9.84,9.84,0,0,1-1.2.38c-.2.06-.41.1-.61.14a2.66,2.66,0,0,0-.71.27.66.66,0,0,0,.16,1.19,1.85,1.85,0,0,0,.81.07l.71-.11a8.7,8.7,0,0,0,1.3-.37,4.86,4.86,0,0,0,2.45-1.55,2,2,0,0,0-.33-2.69,4.47,4.47,0,0,0-2.34-1,8.1,8.1,0,0,0-2.94.17.79.79,0,1,0,.4,1.53Z" transform="translate(-14.81 -37.83)"/><path class="cls-1" d="M247.84,106.85a14.84,14.84,0,0,1,.47,5.93,2.77,2.77,0,0,1-.79,1.84c-.63.5-1.6.2-2.32.12a.69.69,0,0,0-.49,1.17,3.14,3.14,0,0,0,1.66.68,3,3,0,0,0,1.8-.35,3.64,3.64,0,0,0,1.61-2.52,14.59,14.59,0,0,0-.69-7.2.65.65,0,0,0-1.25.33Z" transform="translate(-14.81 -37.83)"/><path class="cls-1" d="M247.53,103.74l.17.15a.63.63,0,0,0,.26.16h.15a.44.44,0,0,0,.2,0,.72.72,0,0,0,.35-.22.78.78,0,0,0,.19-.36,1,1,0,0,0,0-.43.19.19,0,0,0,0-.07.85.85,0,0,0-.09-.22,1.33,1.33,0,0,0-.21-.26,1.57,1.57,0,0,0-.19-.15.67.67,0,0,0-.23-.1h-.21l-.22,0h0l-.17.07h0l-.15.11h0a.79.79,0,0,0-.12.15l-.07.17a.81.81,0,0,0,0,.41.3.3,0,0,0,0,.09l0,.1s.06.09.06.08l.06.08.14.11a.57.57,0,0,0,.24.08h.17a.61.61,0,0,0,.26-.08l.14-.11.1-.14a.72.72,0,0,0,.07-.5h0l0,.18v0l0,.17v0l-.06.17v0l-.11.14c.05-.06.05,0,.12-.16l0,0-.11.14a0,0,0,0,0,0,0l-.14.12,0,0-.17.07h0l-.17,0H248l-.16,0a.53.53,0,0,1,.12,0l-.15-.06.13.07-.12-.09a.6.6,0,0,1,.08.08l-.1-.12.05.07-.06-.13a0,0,0,0,1,0,0l0-.14v.07l0-.13a.19.19,0,0,1,0,.07l.05-.12,0,.06.08-.1s0,0,0,0l.11-.08,0,0,.13,0h.06l.25.06-.23-.14a.48.48,0,0,0-.18-.06.37.37,0,0,0-.18,0l-.12,0a.47.47,0,0,0-.15.13.24.24,0,0,0-.06.11.39.39,0,0,0,0,.18.49.49,0,0,0,.15.35Z" transform="translate(-14.81 -37.83)"/><path class="cls-1" d="M251.26,108.08c1.06.33,2.35.58,3.17-.37a1.71,1.71,0,0,0-.71-2.62,2.17,2.17,0,0,0-2.72,1.12,2.24,2.24,0,0,0-.2,1.77,2.69,2.69,0,0,0,1.09,1.31,6.74,6.74,0,0,0,1.78.78,6.84,6.84,0,0,0,2.11.28.59.59,0,0,0,.16-1.15l-1.33-.44-.66-.24-.3-.12c-.15-.05.16.08-.08,0l-.25-.1-.21-.09c-.13-.05.11.06,0,0l-.24-.11-.25-.14-.11-.06-.08-.06,0,0-.09-.09-.11-.11s0-.1,0,0l-.12-.2s0,.13,0,0,0-.19,0-.11a1.19,1.19,0,0,1,.27-.89c-.05.07.1-.1.11-.11l.09-.08,0,0a.72.72,0,0,1,.21-.12h0l.18,0a.9.9,0,0,1,.69.27.53.53,0,0,1,.1.65c-.41.79-1.57.58-2.31.39a.4.4,0,0,0-.21.77Z" transform="translate(-14.81 -37.83)"/><path class="cls-1" d="M259,104.36a3.52,3.52,0,0,0-3.1,2.36,2.36,2.36,0,0,0,.34,2,3.45,3.45,0,0,0,1.72,1.21,3.88,3.88,0,0,0,2.54,0,.7.7,0,0,0-.17-1.38h-.15c.06,0,0,0,0,0l-.26,0-.25,0c-.1,0-.1,0,0,0l-.26,0a9,9,0,0,1-1-.27l-.05,0c-.09,0-.08,0,0,0,0,0-.18-.08-.22-.1l-.16-.1-.1-.06c.11.08.12.09.05,0l-.14-.12-.08-.09c-.06-.07-.05-.06,0,.06s-.08-.13-.09-.16l-.06-.1c.05.13.06.14,0,0s0-.27,0-.12,0-.1,0-.13a.49.49,0,0,1,0-.12c0,.11,0,.13,0,.07s0-.14.05-.21l0-.12c0,.12,0,.13,0,0l.09-.16.07-.11q.07-.12,0,0a1.79,1.79,0,0,0,.13-.14,1.07,1.07,0,0,1,.19-.18l0,0a2.38,2.38,0,0,1,.41-.23l.12-.06c-.09,0-.1.05,0,0l.2-.06a4.42,4.42,0,0,1,.52-.14.78.78,0,0,0,.56-.95.8.8,0,0,0-.95-.57Z" transform="translate(-14.81 -37.83)"/><path class="cls-1" d="M261.71,102.16a27.63,27.63,0,0,0,.07,3.28c.05.58.12,1.15.2,1.72a7.39,7.39,0,0,0,.14.82,2,2,0,0,0,.47.89.75.75,0,0,0,1.24-.33,3.85,3.85,0,0,0-.08-1.72c-.09-.49-.15-1-.2-1.49a20.84,20.84,0,0,1-.06-3.16.89.89,0,1,0-1.78,0Z" transform="translate(-14.81 -37.83)"/><path class="cls-1" d="M261.33,105.76c.89,0,1.78,0,2.68,0a16.64,16.64,0,0,0,2.73-.12.62.62,0,0,0,.47-.6.66.66,0,0,0-.47-.62A10,10,0,0,0,264,104a26.7,26.7,0,0,0-2.68-.06.93.93,0,0,0,0,1.86Z" transform="translate(-14.81 -37.83)"/><path class="cls-1" d="M271.62,103.79a6.71,6.71,0,0,0-2.13.36.81.81,0,0,0-.6.77c0,.84.66,1.31,1.32,1.72.32.19.62.39.92.61l.08.06.23.18a3.8,3.8,0,0,1,.37.33.5.5,0,0,1,.07.08s-.09-.14,0-.05a1.57,1.57,0,0,1,.12.21s-.06-.16,0-.06,0-.06,0-.06,0,.09,0,.1,0-.14,0,0,.08-.13,0,0l-.05.09c-.07.14.1-.09,0,0a.93.93,0,0,1-.14.14c-.14.13,0,0,0,0l-.11.08-.39.21.08,0-.1,0a2,2,0,0,1-.26.09l-.39.08c-.13,0,.16,0,0,0h-.1a1.92,1.92,0,0,1-.24,0l-.5,0s.17,0,.06,0l-.16,0-.23,0c-.33-.1-.66-.16-1-.25a.68.68,0,0,0-.76,1,2.53,2.53,0,0,0,.91.87,3.39,3.39,0,0,0,1.29.35,4.2,4.2,0,0,0,2.31-.46,2.41,2.41,0,0,0,1.48-2c0-1-.86-1.63-1.6-2.14-.38-.26-.78-.5-1.18-.72l-.23-.13-.11-.07c-.07,0,0,0,0,0a.87.87,0,0,0-.1-.08c-.12-.09.05.07,0,0a.2.2,0,0,1,0-.08s.05.31,0,.12l-.6.77a7.09,7.09,0,0,1,.91-.22l.15,0h.15a4.35,4.35,0,0,1,.51,0,.82.82,0,0,0,.82-.82.82.82,0,0,0-.81-.82Z" transform="translate(-14.81 -37.83)"/><path class="cls-1" d="M175.83,178.7c1.16.08,2.32.13,3.49.14a11.86,11.86,0,0,0,3.47-.25c.41-.13.49-.81,0-.9a17.48,17.48,0,0,0-3.47-.05c-1.16,0-2.32,0-3.48,0-.72,0-.72,1.06,0,1.11Z" transform="translate(-14.81 -37.83)"/><path class="cls-1" d="M176.22,181.63c1.41.05,2.81.09,4.22.08a9.72,9.72,0,0,0,4.12-.54.45.45,0,0,0-.11-.82,13.3,13.3,0,0,0-4.08.05c-1.38.09-2.76.13-4.14.1a.57.57,0,0,0,0,1.13Z" transform="translate(-14.81 -37.83)"/><path class="cls-1" d="M192.28,177.89a2.76,2.76,0,0,0-.36,3.27,3.51,3.51,0,0,0,3.33,1.63c1.25-.07,2.76-.75,3-2.11.31-1.55-1.13-2.57-2.36-3.13a3.57,3.57,0,0,0-2.5-.33,1.91,1.91,0,0,0-1.39,1.71c0,.46.7.69.89.24a1.78,1.78,0,0,1,2.28-.74c.79.24,2.17.84,2,1.89-.11.76-1.1,1.1-1.79,1.21a2.93,2.93,0,0,1-2.51-.69,1.7,1.7,0,0,1,0-2.36c.4-.37-.2-1-.59-.59Z" transform="translate(-14.81 -37.83)"/><path class="cls-1" d="M199.39,181.76l.06.26c.1.48.8.35.82-.11,0,0,0,0,0,0a.41.41,0,0,0,0-.11,1.25,1.25,0,0,0,0-.19,1.43,1.43,0,0,0-.09-.27,6.19,6.19,0,0,0-.28-.58c-.1-.17-.2-.34-.28-.51a.47.47,0,0,1-.06-.2s0-.11,0,0a.75.75,0,0,1,0-.15c0,.08.05-.19,0-.1a.61.61,0,0,1,.07-.14s.11-.15,0-.06l.19-.19c.13-.12-.1.07,0,0l.14-.1.27-.14.08,0,.26-.1.14-.07.09,0,.41-.19a.48.48,0,0,0-.11-.87,2.75,2.75,0,0,0-1,0,2.4,2.4,0,0,0-.8.36,1.9,1.9,0,0,0-.85,1.46,2.52,2.52,0,0,0,.41,1.36c.11.18.22.36.32.55a3.23,3.23,0,0,1,.2.57l.77-.32-.12-.24c-.19-.41-.79-.11-.71.3Z" transform="translate(-14.81 -37.83)"/><path class="cls-1" d="M204.13,179.05c-.6,1-.91,2.39.11,3.22a1.83,1.83,0,0,0,1.69.3,2.08,2.08,0,0,0,1.33-1.27,4,4,0,0,0-.7-3.46,16,16,0,0,0-2.19-3.31.64.64,0,0,0-1.05.61,11.2,11.2,0,0,0,1.27,2.63,7.29,7.29,0,0,1,1.15,2.34,1,1,0,0,1-.13.72.44.44,0,0,1-.41.22c.1,0-.09,0,0,0s0,0,0,0a.44.44,0,0,1-.07-.19,1.82,1.82,0,0,1,.38-1c.5-.81-.79-1.55-1.3-.74Z" transform="translate(-14.81 -37.83)"/><path class="cls-1" d="M208.63,181.13a4.72,4.72,0,0,0,1.78.29,3.12,3.12,0,0,0,1.66-.48,1.54,1.54,0,0,0-.25-2.58,2.12,2.12,0,0,0-2.79,1,3.42,3.42,0,0,0-.35,1.75,2.12,2.12,0,0,0,1,1.68,3.87,3.87,0,0,0,1.88.48,7.93,7.93,0,0,0,1.09,0,2.84,2.84,0,0,0,.65-.1,5.83,5.83,0,0,0,.58-.23.66.66,0,0,0-.32-1.23c-.23,0-.45-.05-.68,0s-.51,0-.77,0l-.63,0-.22,0-.28,0c.12,0,0,0,0,0l-.23-.05s-.29-.1-.14,0l-.23-.13,0,0-.12-.12c.1.09,0,0,0,0a.64.64,0,0,1-.08-.14c.05.11,0-.12,0-.15a1.9,1.9,0,0,1,0-.55,1.26,1.26,0,0,1,1-1.25c.51-.06.9.61.5.94a2.19,2.19,0,0,1-1.14.36,3,3,0,0,1-1.43-.2.47.47,0,0,0-.67.23.49.49,0,0,0,.31.64Z" transform="translate(-14.81 -37.83)"/><path class="cls-1" d="M216.42,182.09a6.65,6.65,0,0,1-.82-1.56,3.59,3.59,0,0,1-.21-.81.84.84,0,0,1,0-.39l0-.08s.13-.15,0-.05l.13-.13c.1-.11-.11.06,0,0l.31-.16,0,0,.09,0,.16,0,.18,0h.08c.38-.06.59-.07,1-.11a4.36,4.36,0,0,0,1.07-.24.6.6,0,0,0,.43-.64.59.59,0,0,0-.58-.52,11.93,11.93,0,0,0-2.39,0,2.24,2.24,0,0,0-1.52,3.53,9.42,9.42,0,0,0,1.21,1.9c.36.44,1.12-.15.79-.61Z" transform="translate(-14.81 -37.83)"/><path class="cls-1" d="M129.85,40.74a3.71,3.71,0,0,0-1.73,2.89,2.19,2.19,0,0,0,.93,1.71,2.56,2.56,0,0,0,1.64.41,3.06,3.06,0,0,0,2.1-1,.62.62,0,0,0,.13-.68.61.61,0,0,0-.57-.39,2.6,2.6,0,0,0-.56.07l-.44.14-.45.14-.26.05-.13,0h.11s-.19,0-.21,0h-.16c-.09,0-.08,0,.05,0l-.11,0L130,44l-.1,0c.11,0,.13,0,.05,0l-.14-.07,0,0-.07-.06-.08-.08h0s0,0,0,0l-.05-.09c-.08-.14.05.16,0,0a.65.65,0,0,1,0-.19c0,.11,0,.12,0,0v-.08a.45.45,0,0,1,0-.2c-.07.17,0,0,0-.06l.06-.19c0-.08,0-.07,0,0l0-.07a2.88,2.88,0,0,1,.22-.38l.05-.07h0l.14-.17q.3-.33.63-.63a.67.67,0,0,0,0-.94.68.68,0,0,0-.94,0Z" transform="translate(-14.81 -37.83)"/><path class="cls-1" d="M135.28,41.51c-.61,1-1.17,2.27-.61,3.44a2.67,2.67,0,0,0,3.14,1.23,3.16,3.16,0,0,0,2.41-2.57,2.43,2.43,0,0,0-1.91-2.27,3.26,3.26,0,0,0-1.88.12,4,4,0,0,0-1.78,1.12.47.47,0,0,0,.45.79,8.72,8.72,0,0,0,1.29-.53,3.32,3.32,0,0,1,1.14-.3h.2l.24.05.12,0h0a1.51,1.51,0,0,1,.28.15h0l.09.08a1.45,1.45,0,0,1,.17.18c-.09-.11,0,0,.06.1a.47.47,0,0,1,.05.1c-.06-.14,0,0,0,.05a.52.52,0,0,1,0,.11c0-.14,0,0,0,0a.49.49,0,0,0,0,.12c0-.14,0,0,0,0s-.07.2,0,.11,0,.05,0,.07l-.08.11c0,.07.07-.06,0,0l-.21.23-.11.09c-.09.08.1-.06,0,0s-.4.24-.6.35.1,0,0,0l-.15.05c-.11,0-.23.06-.34.09l-.15,0h-.19s-.23,0-.07,0l-.26,0-.13-.05h0l-.24-.14c.12.07,0,0,0,0l-.14-.14s-.08-.11,0,0l-.11-.17s0-.13,0,0a1.54,1.54,0,0,1-.05-.17,2,2,0,0,1,0-.49,4.81,4.81,0,0,1,.53-1.36.61.61,0,0,0-1.06-.61Z" transform="translate(-14.81 -37.83)"/><path class="cls-1" d="M141.41,45.79a4.93,4.93,0,0,1,.05-1.67c.08-.34.17-1,.57-1.09a.75.75,0,0,1,.77.43,3.26,3.26,0,0,1,.23,1.35.67.67,0,0,0,1.33,0,2.49,2.49,0,0,1,.13-.94,1.55,1.55,0,0,1,.23-.42l.18-.18a.82.82,0,0,1,.62-.19.57.57,0,0,1,.22.07c.12.06,0,0,0,0l.09.09,0,0,.09.17c-.07-.16,0,.06,0,.08s0,.22,0,.12,0,.14,0,.17c0,.31,0,.62-.06.93a4.82,4.82,0,0,0,0,.93,1.92,1.92,0,0,0,.18.74,1.62,1.62,0,0,0,.53.51.78.78,0,0,0,1.15-.67c0-.09,0-.09,0,0a1.53,1.53,0,0,0,0-.3,1.59,1.59,0,0,0-.07-.39l0-.16c0,.08,0,.09,0,0a2.81,2.81,0,0,1,0-.29c0-.37,0-.74,0-1.11a2.3,2.3,0,0,0-1.28-2.27,2.37,2.37,0,0,0-2.48.5,3.51,3.51,0,0,0-.92,2.57l1.3-.17a3.57,3.57,0,0,0-.76-1.9,1.79,1.79,0,0,0-1.64-.57,1.7,1.7,0,0,0-1.15,1.36,6.83,6.83,0,0,0-.25,2.25c0,.57.94.56.88,0Z" transform="translate(-14.81 -37.83)"/><path class="cls-1" d="M148.56,38.82c0,1.18.11,2.37.24,3.54q.09.93.24,1.86A3,3,0,0,0,149.8,46a.64.64,0,0,0,1-.14,3.36,3.36,0,0,0,.16-2c-.07-.51-.14-1-.19-1.54-.12-1.16-.19-2.32-.22-3.48a1,1,0,0,0-2,0Z" transform="translate(-14.81 -37.83)"/><path class="cls-1" d="M150.56,42.26a4.93,4.93,0,0,1,2.29-.55,2.77,2.77,0,0,1,1.9.61,1.09,1.09,0,0,1,.28,1.35,2.28,2.28,0,0,1-.76.6,4.62,4.62,0,0,1-1,.44,8.08,8.08,0,0,1-1.21.28c-.45,0-1,0-1.42.36a.5.5,0,0,0-.08.6,1.62,1.62,0,0,0,1.5.5,5.54,5.54,0,0,0,1.51-.24,4.88,4.88,0,0,0,2.59-1.74,2.41,2.41,0,0,0-.21-2.7,3.44,3.44,0,0,0-2.57-1.21,6.12,6.12,0,0,0-3.35.78.53.53,0,0,0,.53.92Z" transform="translate(-14.81 -37.83)"/><path class="cls-1" d="M157,43.11c0,.55,0,1.1.12,1.64l.09.7a5.76,5.76,0,0,0,.19.68.8.8,0,0,0,.74.57.79.79,0,0,0,.75-.57,6,6,0,0,0,.14-.85c0-.24,0-.48,0-.72a13.87,13.87,0,0,0-.06-1.44,1.05,1.05,0,0,0-.29-.71,1,1,0,0,0-1.7.7Z" transform="translate(-14.81 -37.83)"/><path class="cls-1" d="M157.3,39.38l.12.16.15.13.29.26v-.86l-.09.07.13-.1-.24.2.13-.1a1.56,1.56,0,0,1-.28.16l.14-.06-.06,0h0a.43.43,0,0,0-.21.11l-.08.06a.6.6,0,0,1-.08.08.49.49,0,0,0,.11.77l.08,0,.17.07h.08a.17.17,0,0,0,.14,0h.1a2.42,2.42,0,0,0,.35-.12,1.38,1.38,0,0,0,.48-.35.72.72,0,0,0,.15-.27.45.45,0,0,0,0-.23.48.48,0,0,0-.07-.23.58.58,0,0,0-.22-.22l-.33-.22-.16-.1-.19-.08a.41.41,0,0,0-.19,0,.31.31,0,0,0-.19,0l-.13.06a.37.37,0,0,0-.15.13.5.5,0,0,0-.1.31v.13a.49.49,0,0,0,.14.23Z" transform="translate(-14.81 -37.83)"/><path class="cls-1" d="M162,45.92a5.66,5.66,0,0,1-.2-1.09,4.05,4.05,0,0,1,0-1.1,2.1,2.1,0,0,1,.9-1.45,1.28,1.28,0,0,1,.67-.21,1,1,0,0,1,.35.06c-.09,0,.05,0,.08,0a1.35,1.35,0,0,1,.22.14c-.1-.08.05,0,.07.07l.16.17c.09.11,0-.06,0,.06s.1.15.14.23l.11.21,0,.09s-.05-.13,0,0,.09.3.13.46c.12.51.13.9.22,1.35a2.65,2.65,0,0,0,.61,1.39.59.59,0,0,0,1-.27,4.64,4.64,0,0,0,0-1.44,6.63,6.63,0,0,0-.29-1.46,3.66,3.66,0,0,0-1.45-2,2.35,2.35,0,0,0-2.4-.06A3.32,3.32,0,0,0,160.91,43a5.63,5.63,0,0,0-.21,1.52c0,.27,0,.53,0,.8s0,.53,0,.79a.64.64,0,0,0,.72.64.65.65,0,0,0,.55-.8Z" transform="translate(-14.81 -37.83)"/><path class="cls-1" d="M169.09,43.42s0,0,0,0Z" transform="translate(-14.81 -37.83)"/><path class="cls-1" d="M171.24,42.72a2.09,2.09,0,0,0-2.17-1.48,2.39,2.39,0,0,0-2.13,2,2.54,2.54,0,0,0,1.48,3,2.17,2.17,0,0,0,2-.62,4.57,4.57,0,0,0,1.06-1.48l-1.51-.2A3.55,3.55,0,0,0,172.16,46a3,3,0,0,0,2.87-.52c.54-.43-.06-1.25-.64-1.11a2.74,2.74,0,0,1-.87.05l-.26,0h-.08a4.77,4.77,0,0,1-.51-.13l-.25-.08c.12,0,0,0-.06,0a2.5,2.5,0,0,1-.41-.25l-.09-.08-.18-.19c-.12-.13,0,.07-.07-.09l-.15-.22a.84.84,0,0,0-1.51.2c-.11.41-.78,1.2-1.22,1.11.06,0-.1-.1-.14-.14l-.08-.11-.08-.15a1.57,1.57,0,0,1-.12-.8,1,1,0,0,1,.83-1,1,1,0,0,1,1.12.56.51.51,0,0,0,1-.26Z" transform="translate(-14.81 -37.83)"/><path class="cls-1" d="M175.86,38.68c.13,1.16.29,2.31.49,3.47.1.56.21,1.12.36,1.67a3.93,3.93,0,0,0,.73,1.64.6.6,0,0,0,1-.27,4.17,4.17,0,0,0-.12-1.79c-.1-.54-.23-1.07-.35-1.61-.23-1.09-.43-2.2-.59-3.3-.12-.85-1.6-.68-1.51.19Z" transform="translate(-14.81 -37.83)"/><path class="cls-1" d="M175.16,42.38Z" transform="translate(-14.81 -37.83)"/><path class="cls-1" d="M174.57,42.53l4-.41a12.77,12.77,0,0,0,4-.8.63.63,0,0,0-.15-1.15,12.84,12.84,0,0,0-4.1.13l-4,.5a.88.88,0,0,0,.22,1.73Z" transform="translate(-14.81 -37.83)"/><path class="cls-1" d="M183.23,42.67c.09.74.18,1.49.32,2.23.06.33.13.66.22,1a2.69,2.69,0,0,0,.22.64,2.5,2.5,0,0,0,.39.47.64.64,0,0,0,1-.14,2.14,2.14,0,0,0,.2-.53,2.51,2.51,0,0,0,0-.67c0-.21,0-.41-.06-.62s0-.2,0-.3l0,.1,0-.15c0-.38-.09-.76-.15-1.15,0-.17-.05-.35-.07-.52l0-.22c0-.11,0-.1,0,0l0-.15a1.14,1.14,0,0,0-.3-.72,1,1,0,0,0-.69-.28c-.49,0-1.07.43-1,1Z" transform="translate(-14.81 -37.83)"/><path class="cls-1" d="M184.65,39.13l0-.05h0l.07-.09v0h0a1.17,1.17,0,0,0,.05-.11s0,0,0-.08,0,0,0-.07,0-.09,0-.14a.5.5,0,0,0-.13-.22h0l-.09-.07h0l-.11,0h0a.53.53,0,0,0-.25,0h0l-.12,0c.1,0-.07,0-.1.07a.56.56,0,0,0-.11.2h0a.49.49,0,0,0,0,.12h0s0,.1,0,.05,0,0,0,.06a.31.31,0,0,0,.05.12.46.46,0,0,0,.16.15.37.37,0,0,0,.21.06.42.42,0,0,0,.21-.06.41.41,0,0,0,.16-.16h0l-.07.09h0l-.09.07h0l-.11,0h0l-.12,0h0l.11,0,.12,0,.09-.08h0l-.1.07h0l-.11.05h-.18l-.11,0h0L184.1,39h0l-.07-.09h0l0-.11v-.15l0-.1,0,.05.07-.09s0,0-.05.05a.34.34,0,0,0-.09.14.41.41,0,0,0,0,.16.29.29,0,0,0,0,.16.31.31,0,0,0,.1.15l.09.07a.46.46,0,0,0,.21,0h.11a.49.49,0,0,0,.2-.11Z" transform="translate(-14.81 -37.83)"/><path class="cls-1" d="M188.5,42.49a2.79,2.79,0,0,0-.56,2.94,2.63,2.63,0,0,0,2.16,1.24,3,3,0,0,0,2.53-.83,2.17,2.17,0,0,0,0-2.71,3.1,3.1,0,0,0-1.29-1,2.47,2.47,0,0,0-1.8-.25.63.63,0,0,0-.42.42.6.6,0,0,0,.16.57,1.74,1.74,0,0,0,.5.35,5.2,5.2,0,0,0,.67.21l.26.08.11,0c-.11-.08-.06,0,0,0l.24.13.12.07c.12.08-.06-.05,0,0l.17.16s.07.07.06.07-.09-.14,0,0a1.86,1.86,0,0,1,.13.23s-.06-.19,0-.05l.05.14a.36.36,0,0,0,0,.1c0,.13,0,0,0,0a1.62,1.62,0,0,0,0,.22c0,.15,0,0,0,0a.44.44,0,0,0,0,.1s0,.08,0,.09l0-.08,0,.06c-.06.12,0,0,0,0a.73.73,0,0,0-.08.09l0,0c-.06.05-.06.05,0,0l0,0-.09.06-.19.1-.1,0c.12,0,.14-.06.05,0l-.05,0a2.37,2.37,0,0,1-.46.11l-.09,0c.19-.05.14,0,.08,0l-.26,0H190c-.14,0,.05,0,.06,0l-.11,0-.23,0-.1,0c-.07,0-.07-.06.06,0l-.16-.08-.09,0c-.07,0-.07-.1,0,0-.05-.06-.11-.1-.16-.15a.15.15,0,0,0-.05-.06c.13.11.07.1,0,0a.56.56,0,0,1,0-.08c-.07-.12,0,.18,0,0l0-.12c-.06-.17,0,.12,0,0a.48.48,0,0,1,0-.12c0-.06,0-.18,0-.06a1.67,1.67,0,0,1,.08-.3s.07-.19,0-.1,0-.07,0-.09a5.32,5.32,0,0,1,.35-.61.68.68,0,0,0-1.18-.68Z" transform="translate(-14.81 -37.83)"/><path class="cls-1" d="M195.16,44.74c0-.46-.07-1.14.3-1.49s1-.11,1.29.17a2.7,2.7,0,0,1,.54.67c.19.3.37.61.54.92s.36.64.55,1a3.3,3.3,0,0,0,.7.9c.23.18.68.17.73-.19A4,4,0,0,0,198.9,44a4.78,4.78,0,0,0-1.79-1.78,1.93,1.93,0,0,0-2.29.4,3.28,3.28,0,0,0-.53,2.12c0,.56.89.56.87,0Z" transform="translate(-14.81 -37.83)"/><path class="cls-1" d="M203.46,41.28a1.61,1.61,0,0,0-1.54,1.65,2.61,2.61,0,0,0,1.18,2,5.28,5.28,0,0,1,.75.67c-.13-.16,0,.09.07.13l0,.06c0-.1,0-.1,0,0h0v.07h0l0,.14c0,.18,0-.13,0,.06s0,.08,0,0l-.05.05-.11.11c.1-.07.1-.08,0,0s-.24.09-.05,0c0,0-.29.08-.19.06h0a.81.81,0,0,0-.31,0l-.08,0a.88.88,0,0,0-.42.11c.1,0,.1,0,0,0a.71.71,0,0,0-.31,1.17,1.88,1.88,0,0,0,2.69-.23,2.15,2.15,0,0,0,.34-2.54,3.12,3.12,0,0,0-.79-.87l-.51-.38-.13-.09c.07.05.06,0,0,0l-.18-.15-.21-.22c.09.11,0,0,0-.07s0-.09,0,0l0-.09c0-.06,0,0,0,0v-.13c0,.17,0,0,0,0s0,.09,0,0,0-.07,0,0,.17-.1,0,0c.08,0,.06,0,0,0h0a.81.81,0,0,0,.8-.78.81.81,0,0,0-.79-.8Z" transform="translate(-14.81 -37.83)"/><path class="cls-1" d="M131.78,50.18q13.14,0,26.29.33c8.81.19,17.61.47,26.41.79l14.82.54c.49,0,.49-.74,0-.77-8.75-.49-17.51-.79-26.28-1s-17.6-.38-26.41-.47q-7.41-.08-14.83-.08a.34.34,0,0,0,0,.67Z" transform="translate(-14.81 -37.83)"/><path class="cls-2" d="M131.81,145.88a3.37,3.37,0,0,0-1.28,2.54,19.06,19.06,0,0,0,.53,2.79,2.16,2.16,0,0,1-.88,2c-.6.59-1.39,1.26-1.31,2.19a.5.5,0,0,0,.85.35,22.22,22.22,0,0,0,1.73-1.63,3.35,3.35,0,0,0,1.07-2.35,11,11,0,0,0-.59-2.65,2.17,2.17,0,0,1,.77-2.37c.6-.53-.29-1.39-.89-.87Z" transform="translate(-14.81 -37.83)"/><path class="cls-2" d="M135.29,163.72c-1.09.27-2.64.52-3.43-.52-.66-.87.09-2.08.44-2.93a4,4,0,0,0,.08-3.3,2.72,2.72,0,0,0-2.64-1.74c-.53.09-.48.76-.14,1a6.81,6.81,0,0,1,1.29,1,2.11,2.11,0,0,1,.49,1.27c0,1.13-.8,2.13-1,3.21a2.8,2.8,0,0,0,1.29,3,4.79,4.79,0,0,0,3.94.15.6.6,0,0,0-.3-1.16Z" transform="translate(-14.81 -37.83)"/><path class="cls-2" d="M317,150.29c.57.18.35,1.09.24,1.49a5,5,0,0,0-.27,2.51,3.38,3.38,0,0,0,3.38,2.71.59.59,0,0,0,.15-1.15,2.91,2.91,0,0,1-2.16-2.63,12.13,12.13,0,0,0,.25-2.48,2,2,0,0,0-1.29-1.6c-.73-.23-1,.91-.3,1.15Z" transform="translate(-14.81 -37.83)"/><path class="cls-2" d="M316.8,164.38a7.13,7.13,0,0,0,4-.66,2.3,2.3,0,0,0,1.31-2.88c-.42-.89-1.54-1.21-1.62-2.28a2.7,2.7,0,0,1,1-2.26c.38-.35,0-1.08-.52-.9-2,.7-2.18,3.48-.89,4.93.29.32.81.64.94,1.08s-.24.74-.55,1a5.93,5.93,0,0,1-3.65.72c-.84-.06-.83,1.23,0,1.3Z" transform="translate(-14.81 -37.83)"/><path class="cls-1" d="M152.3,175.22c-.89.31-1.86.55-2.16,1.58a2.86,2.86,0,0,0,.88,2.58l.39.43a1.63,1.63,0,0,1,.17.2c-.11-.14.09.13.11.16a2.53,2.53,0,0,1,.12.23c-.08-.18,0,0,0,.08s0-.09,0,0,0,.11,0,0l0,.08c0-.09,0-.09,0,0s0,.09,0,0l-.05.06a1.36,1.36,0,0,1-.12.12c.1-.07.1-.07,0,0l-.21.13c.17-.1,0,0-.1,0a1.83,1.83,0,0,1-.57.08c-.25,0-.54,0-.72,0l.75.43a1,1,0,0,0-.57-.45l.48.36,0,0,.1.38c0,.08,0,.09,0,0a.67.67,0,0,0-.45-.79,1,1,0,0,0-.74.16.87.87,0,0,0-.4,1v.06a.85.85,0,0,0,.62.62,3.37,3.37,0,0,0,3.09-.59,2.19,2.19,0,0,0,.44-2.72,4.93,4.93,0,0,0-.83-1c-.14-.14-.27-.27-.4-.42s-.07-.09,0,0l-.1-.15c-.05-.08-.09-.16-.13-.24.09.19-.05-.26,0-.05v-.08c0-.1,0-.1,0,0,0-.1,0-.1,0,0,.05-.08.05-.1,0-.05s0,0,0,0c-.1.06-.1.07,0,0s.26-.13,0-.05a1.81,1.81,0,0,1,.31-.09c.18-.06.37-.1.55-.15a.94.94,0,1,0-.47-1.83Z" transform="translate(-14.81 -37.83)"/><path class="cls-1" d="M156.21,180.24a6.62,6.62,0,0,0,2.43,0,3.5,3.5,0,0,0,1.91-.94,1.48,1.48,0,0,0,0-2,2.66,2.66,0,0,0-1.76-.81,3.17,3.17,0,0,0-3.17,2.13c-.49,1.31-.26,3.12,1.08,3.83a3.32,3.32,0,0,0,2.3.22c.8-.22,1.51-.66,2.29-.92a.55.55,0,0,0-.13-1.07,6.2,6.2,0,0,0-1.82.2l-.35.07-.22,0c-.15,0,.17,0,0,0l-.29,0c.18,0,0,0,0,0a2.54,2.54,0,0,1-.39,0h-.14c.19,0,0,0-.06,0l-.27-.08c-.2-.06.09.06,0,0l-.15-.08c-.13-.07,0,0,0,0l-.15-.14c-.15-.15,0,.11-.05-.08a.64.64,0,0,0-.08-.14c-.07-.15,0-.06,0,0l-.06-.24s-.06-.32,0-.17a2.36,2.36,0,0,1,0-.46s0-.29,0-.17c0-.13.05-.25.08-.37l0-.14c.06-.21-.06.1,0-.1s.11-.22.18-.33a1.58,1.58,0,0,1,.82-.69,1.63,1.63,0,0,1,1.09,0,1.13,1.13,0,0,1,.41.29l0,.05s0,.13,0,0,0,.11,0,0-.11.15,0,.08l-.13.12s0,0,0,0l-.09.06-.36.18c.12,0,0,0,0,0l-.3.1-.49.12a5.45,5.45,0,0,1-1.89.09.68.68,0,0,0-.18,1.33Z" transform="translate(-14.81 -37.83)"/><path class="cls-1" d="M165,174.77l.3,3.54a13.22,13.22,0,0,0,.59,3.59.75.75,0,0,0,.69.54.73.73,0,0,0,.71-.54,12.63,12.63,0,0,0,0-3.58l-.31-3.54a1,1,0,0,0-2,0Z" transform="translate(-14.81 -37.83)"/><path class="cls-1" d="M164.55,178.87a28.8,28.8,0,0,1,3.11-.23c.54,0,1.08,0,1.62,0a3.82,3.82,0,0,0,1.74-.31.72.72,0,0,0,0-1.23,3.5,3.5,0,0,0-1.85-.45c-.54,0-1.09,0-1.63,0a31.39,31.39,0,0,0-3.49.3,1,1,0,0,0-.72,1.21,1,1,0,0,0,1.22.71Z" transform="translate(-14.81 -37.83)"/><path class="cls-1" d="M226.32,179.62a3.7,3.7,0,0,0-.63,1.33,1.54,1.54,0,0,0,.33,1.22,2,2,0,0,0,2.47.5,2.5,2.5,0,0,0,1.19-2.45,5.08,5.08,0,0,0-1.45-2.77,5.15,5.15,0,0,0-2.77-1.84.49.49,0,0,0-.42.73,7.79,7.79,0,0,0,1,1,10.28,10.28,0,0,1,1,1,3.46,3.46,0,0,1,1.06,2.11v.12c0-.07,0-.05,0,0l-.06.24a.75.75,0,0,1-.05.16c0-.06,0-.05,0,0a1.48,1.48,0,0,1-.13.21c.07-.09-.11.12-.14.14s-.08,0-.1,0c.15-.07-.15,0-.07,0s-.16,0-.2,0-.08,0-.1,0-.13-.07-.16-.1-.06-.06-.08-.08-.06-.17,0-.06c-.08-.26.27-.68.43-.94a.61.61,0,0,0-1.06-.61Z" transform="translate(-14.81 -37.83)"/><path class="cls-1" d="M231.53,179.47a1.8,1.8,0,0,0-.83,2,2.16,2.16,0,0,0,1.82,1.56c1,.16,2.41-.16,2.53-1.42a2.16,2.16,0,0,0-.58-1.48,3.88,3.88,0,0,0-.93-.83,3.67,3.67,0,0,0-1.27-.54,3.21,3.21,0,0,0-.76-.07,1.64,1.64,0,0,0-.44,0,1.77,1.77,0,0,0-.41.21.65.65,0,0,0-.31.65.67.67,0,0,0,.47.55s.16.06,0,0h0a1.34,1.34,0,0,0,.48.11.15.15,0,0,0,.09,0c-.17,0-.12,0,0,0l.25.05.38.1c.07,0,.28.12.05,0l.21.1.36.21.08.05c.14.09-.13-.11-.05,0a1.56,1.56,0,0,1,.2.16,2.44,2.44,0,0,1,.27.29c.05.06.08.14,0-.05l.06.07a2.39,2.39,0,0,1,.13.21s.08.18,0,0,0,0,0,0,0,.12,0,.13,0-.22,0-.08,0-.05,0-.06c0,.16.07-.14,0-.05s.15-.15,0-.05l0,0c-.07.06-.05,0,.07,0a.65.65,0,0,0-.16.09c.16-.1.14-.06.07,0l-.11,0-.19,0-.09,0h0a2.81,2.81,0,0,1-.41,0c.21,0,0,0-.05,0l-.11,0s-.13-.07,0,0l0,0-.08,0-.08,0s-.12-.1,0,0l0,0-.07-.06,0-.06.06.08,0-.05a.16.16,0,0,1,0-.07c-.06-.11,0,0,0,0a1.94,1.94,0,0,0,0-.2c0-.09,0-.05,0,0a.27.27,0,0,0,0-.09v-.08a.53.53,0,0,0,.05-.18c0,.09-.05.11,0,0a.47.47,0,0,1,0-.1l0,.05s.05-.06.07-.08-.11.05,0,0l.12-.07a.63.63,0,0,0,.23-.85.65.65,0,0,0-.86-.23Z" transform="translate(-14.81 -37.83)"/><path class="cls-1" d="M236.63,181.83a3,3,0,0,0,1.55,0,2.59,2.59,0,0,0,1.31-.8,1.24,1.24,0,0,0,.15-1.5,1.53,1.53,0,0,0-1.21-.61,2.33,2.33,0,0,0-2.1,1.27,2.26,2.26,0,0,0,.37,2.63,2.33,2.33,0,0,0,1.47.71,2.48,2.48,0,0,0,.72-.07,1.63,1.63,0,0,0,.73-.42.57.57,0,0,0,.09-.7.6.6,0,0,0-.64-.27c-.14,0,0,0,0,0h-.47c-.07,0-.16,0,0,0l-.12,0-.39-.11s-.15-.06,0,0,0,0,0,0a1.13,1.13,0,0,1-.21-.12l-.07,0c-.06,0-.12-.12,0,0l-.16-.13-.13-.15s.11.16.05.06l-.07-.12a.41.41,0,0,1,0-.09c-.07-.12,0,.14,0,0l-.06-.21c0-.09,0-.07,0,0s0-.07,0-.09a2,2,0,0,1,0-.25h0a.24.24,0,0,1,0-.08,1.17,1.17,0,0,1,.06-.2c0-.14-.07.12,0,0a.3.3,0,0,0,0-.08,2.39,2.39,0,0,1,.13-.21s.09-.12,0-.05l0,0,.15-.14c.07-.07,0,0,0,0L238,180l.07,0s.19-.07.06,0l.21-.06h.12l.1,0,.1,0c-.11,0,0,0,0,0s.12.09,0,0a.12.12,0,0,1,.05,0s.06.11,0,0c0,.08,0,0,0,0s0,.14,0,0v.09c0-.11,0,0,0,0s0,0,0,0,0,0,0,0l-.12.12c-.08.07,0,0,0,0l-.18.11-.09.05-.12.06-.07,0-.15,0-.3.09-.13,0h-.09l-.31,0H237s-.23,0-.12,0a.58.58,0,0,0-.69.4.56.56,0,0,0,.4.69Z" transform="translate(-14.81 -37.83)"/><path class="cls-1" d="M243.54,178.5a1.41,1.41,0,0,0-1.7,1.68,1,1,0,0,0,0,.16c.09.23.11.27.05.11a2.6,2.6,0,0,0,.1.25,3.54,3.54,0,0,0,.33.46c.2.22.43.41.63.62l.08.09c.06.07,0,0,0-.05s.09.13.1.14l0,.1q-.07-.18,0-.06l0,.11c0-.12,0-.14,0-.05s0-.18,0,0,0,.07,0-.06a.93.93,0,0,1-.05.1c0,.08,0,.06.05-.05l-.07.08,0,0c-.07.07-.05.05.06,0a.94.94,0,0,0-.18.12l.08,0-.11,0c-.05,0-.25.05,0,0l-.27,0h-.18a.92.92,0,0,0-.29,0,1.69,1.69,0,0,0-.63.09.68.68,0,0,0-.41,1,2.06,2.06,0,0,0,2.59.55,1.93,1.93,0,0,0,1.16-1.8,2.53,2.53,0,0,0-1.14-1.77,1.45,1.45,0,0,1-.18-.16,1.74,1.74,0,0,0-.12-.14l0,0-.06-.1c0-.08,0-.07,0,0s0,.12,0,0c0,.13,0,.15,0,.06l0-.05c-.05.12-.06.14,0,.06s0-.06,0,.05c.07-.06,0-.05-.07,0,.08,0,.06,0-.08,0,.09,0,.06,0-.08,0s-.17,0-.08,0a.88.88,0,0,0,1.06-.61.89.89,0,0,0-.61-1.06Z" transform="translate(-14.81 -37.83)"/><path class="cls-1" d="M252.85,182.41a.65.65,0,0,1,0,.13s0,0,0,0h0c0-.06,0,0,0,0l1.35.18a3.73,3.73,0,0,1-.14-.44l-.06-.24s0-.07,0-.11,0,.16,0-.07a3.35,3.35,0,0,1,0-.85,2.64,2.64,0,0,1,.89-1.51l.1-.07.22-.12c.06,0,0,0,0,0l.13,0,.1,0c.1,0-.07,0,0,0h.14l.1,0,.13.07,0,0,.1.1c.05.05,0,0,0,0a.18.18,0,0,0,.05.07l.09.18c.07.12,0-.07,0,.06s0,.15.07.23.06.26.08.4,0,.23,0,.09a1.94,1.94,0,0,0,0,.24l.12,1.33c0,.23,0,.47.07.7a3,3,0,0,0,.28.87.67.67,0,0,0,1.22-.16,2.73,2.73,0,0,0,0-.9c0-.23-.06-.47-.1-.7-.07-.47-.15-.94-.23-1.4a3.32,3.32,0,0,0-.89-2,2,2,0,0,0-2.41-.13,3.87,3.87,0,0,0-1.52,2,4.66,4.66,0,0,0-.15,2.74.75.75,0,0,0,1.43,0,1.67,1.67,0,0,0,0-1.06.69.69,0,0,0-1.33.35Z" transform="translate(-14.81 -37.83)"/><path class="cls-1" d="M259.09,179.59a2.62,2.62,0,0,0,2.39,3.95,1.8,1.8,0,0,0,1.5-.88,2,2,0,0,0,.16-1.47,3.22,3.22,0,0,0-1.41-1.86,2.43,2.43,0,0,0-2.51-.24.63.63,0,0,0-.29.6.61.61,0,0,0,.43.51,2.33,2.33,0,0,0,.44.1c.15,0-.16,0,0,0l.16,0,.27.08.16.05c.14,0-.18-.08,0,0l.28.14.1.07c.07,0,.18.17,0,0a4.57,4.57,0,0,1,.44.44l-.14-.18a2.5,2.5,0,0,1,.3.53l-.09-.23a2.09,2.09,0,0,1,.13.49l0-.24a1.61,1.61,0,0,1,0,.38l0-.24a1.05,1.05,0,0,1-.06.24l.09-.22a.59.59,0,0,1-.1.17l.15-.19a.57.57,0,0,1-.11.11l.2-.15a.78.78,0,0,1-.2.11l.24-.09a1.94,1.94,0,0,1-.33.07l.25,0a1.77,1.77,0,0,1-.4,0l.24,0a1.64,1.64,0,0,1-.38-.1l.22.09a2.93,2.93,0,0,1-.39-.21l.2.14a2.27,2.27,0,0,1-.32-.3l.16.2a1.44,1.44,0,0,1-.23-.4l.1.24a1.91,1.91,0,0,1-.11-.41l0,.24a1.77,1.77,0,0,1,0-.46l0,.23a1.82,1.82,0,0,1,.11-.4l-.09.22a2,2,0,0,1,.1-.21.94.94,0,0,0-.34-1.26,1,1,0,0,0-1.27.34Z" transform="translate(-14.81 -37.83)"/><path class="cls-1" d="M265,176.91c.1,1,.2,1.89.31,2.83a18.76,18.76,0,0,0,.51,2.87.58.58,0,0,0,1.13-.15,32.2,32.2,0,0,0-.39-5.54.79.79,0,0,0-.77-.78.78.78,0,0,0-.79.77Z" transform="translate(-14.81 -37.83)"/><path class="cls-1" d="M264.72,180.14A19.41,19.41,0,0,0,267,180c.42,0,.83-.11,1.24-.2a6.58,6.58,0,0,0,1.23-.41.73.73,0,0,0,.34-.81.76.76,0,0,0-.7-.54,9.73,9.73,0,0,0-1.08,0l-1.1.1c-.73.07-1.47.12-2.21.14a.92.92,0,0,0,0,1.83Z" transform="translate(-14.81 -37.83)"/><path class="cls-1" d="M253.18,186.32c2.42,0,4.85,0,7.27,0s4.85.18,7.28.13a.32.32,0,0,0,0-.64,95.53,95.53,0,0,0-14.55.22.14.14,0,0,0,0,.28Z" transform="translate(-14.81 -37.83)"/><path class="cls-1" d="M256.76,189.45a49.47,49.47,0,0,0,8.07-.36c.47-.08.35-.81-.1-.81-2.66,0-5.31.25-8,.3a.44.44,0,0,0,0,.87Z" transform="translate(-14.81 -37.83)"/><path class="cls-1" d="M259.64,193.46a30.14,30.14,0,0,0,4.75,0c.52-.07.47-.88,0-1a14.86,14.86,0,0,0-2.4-.3c-.78-.07-1.57-.11-2.35-.16a.72.72,0,1,0,0,1.43Z" transform="translate(-14.81 -37.83)"/><path class="cls-1" d="M276.11,182.32s.07-.15-.05,0h1.4a5.24,5.24,0,0,1-.39-.87,2,2,0,0,1,0-1c.09-.38.47-1,.94-.77.15.06.2.18.28.35s.12.39.18.57a3.16,3.16,0,0,0,.76,1.54c.45.42,1.38.15,1.31-.55,0-.31-.13-.9.16-1.14s.74,0,1,.23c.85.89.39,2.41,1.31,3.27a.72.72,0,0,0,1.22-.51,4.15,4.15,0,0,0-.2-1.3,10.86,10.86,0,0,0-.33-1.15,3.15,3.15,0,0,0-1.6-1.93,2,2,0,0,0-2.23.34,3.4,3.4,0,0,0-.79,2l1.29-.35a1.14,1.14,0,0,1-.23-.28c-.07-.14-.14-.28-.2-.42s-.23-.61-.37-.88a1.81,1.81,0,0,0-1.9-1,2.23,2.23,0,0,0-1.69,1.78,4.43,4.43,0,0,0,.12,2.9.82.82,0,0,0,1.4,0,1.64,1.64,0,0,0,.18-1.24.8.8,0,0,0-1-.57.82.82,0,0,0-.57,1Z" transform="translate(-14.81 -37.83)"/><path class="cls-1" d="M288,179.82a1.86,1.86,0,0,0-1.58-.82,1.91,1.91,0,0,0-1.64,1.05,2.05,2.05,0,0,0,.07,2.1,1.67,1.67,0,0,0,1,.73,1.9,1.9,0,0,0,1.24-.18,3.23,3.23,0,0,0,1.45-2l-1.32-.35a3.26,3.26,0,0,0,0,1.08,2.43,2.43,0,0,0,.38.89,1.83,1.83,0,0,0,2,.84.63.63,0,0,0,.46-.52.62.62,0,0,0-.31-.63,4.17,4.17,0,0,1-.54-.31l-.14-.09c-.13-.08,0,0,0,0s-.2-.19-.24-.24-.1-.08-.11-.12.07.11,0,0l-.08-.12c-.09-.16,0,0,0,0a3.29,3.29,0,0,0-.09-.32c0,.11,0,0,0,0s0-.19,0-.06a.68.68,0,0,0-1.25-.51,6.18,6.18,0,0,1-.45.79c.08-.11-.06.07-.08.09l-.17.17c.09-.08,0,0,0,0l-.17.08c.17-.08,0,0,0,0s.12,0-.07,0-.25,0-.07,0c-.06,0-.19-.08-.05,0l-.1-.06.06,0-.09-.09c.06.07.07.09,0,0s-.11-.24,0-.07a.64.64,0,0,1-.06-.18s0-.2,0-.05v-.18c0-.08,0-.08,0,0s0-.06,0-.09a1.46,1.46,0,0,1,0-.2c0-.15-.06.08,0-.06a1.19,1.19,0,0,1,.09-.15c-.07.1.05,0,.07-.07l.06-.06s0,0,0,0,.16-.08.06,0l.16,0c.1,0,0,0,.08,0a1.62,1.62,0,0,1,.22,0c-.07,0,.09,0,.08,0l.09,0a.66.66,0,0,1,.17.15.51.51,0,0,0,.67.18.5.5,0,0,0,.18-.67Z" transform="translate(-14.81 -37.83)"/><path class="cls-1" d="M290.54,176.89c.21,1,.42,1.89.65,2.83a13.59,13.59,0,0,0,.91,2.79.55.55,0,0,0,1-.27,13.07,13.07,0,0,0-.39-2.92c-.2-.95-.41-1.89-.64-2.83a.8.8,0,1,0-1.55.4Z" transform="translate(-14.81 -37.83)"/><path class="cls-1" d="M293.19,177.36c.42,1.74.66,3.55,1.21,5.27a.65.65,0,0,0,1.27-.16,19.3,19.3,0,0,0-.88-5.53.83.83,0,0,0-1.6.42Z" transform="translate(-14.81 -37.83)"/><path class="cls-1" d="M291.32,180.3l2.65,0,1.33,0a10.62,10.62,0,0,0,1.38-.17c.59-.12.62-1.12,0-1.21a10.71,10.71,0,0,0-1.38-.12l-1.33,0-2.65.1a.71.71,0,0,0,0,1.42Z" transform="translate(-14.81 -37.83)"/><path class="cls-1" d="M298.22,181.91a6.38,6.38,0,0,0,3.7-.16,1.91,1.91,0,0,0,1.07-1.14,1.32,1.32,0,0,0-.37-1.33,2.16,2.16,0,0,0-1.36-.49,2.59,2.59,0,0,0-1.55.26,2.12,2.12,0,0,0-.55,2.9,3,3,0,0,0,1.55,1.21,4.48,4.48,0,0,0,2.15.15.55.55,0,0,0,.55-.48.54.54,0,0,0-.4-.61c-.45-.13-.91-.23-1.36-.38l-.32-.1h0l-.12,0c-.18-.09-.32-.2-.49-.3s.1.08,0,0l-.1-.09c-.07-.06-.13-.13-.19-.19s.09.15,0,0l-.07-.11-.06-.12c0,.09,0,.06,0,0l0-.11s0-.14,0,0,0-.14,0-.17,0-.15,0-.06,0,0,0-.06l0-.11c0-.07,0,.08,0,0s.14-.2.06-.1.17-.16.07-.09a1.12,1.12,0,0,1,.54-.18,1.86,1.86,0,0,1,.82.05.57.57,0,0,1,.23.15s0,0,0,0a.25.25,0,0,1,0,.12c0-.05,0,0,0,0a.53.53,0,0,1-.06.1c0-.05,0,0,0,0l-.09.08,0,0-.14.09-.11,0s-.14.07-.07,0a3.59,3.59,0,0,1-1.42.19,11,11,0,0,1-1.52-.17.65.65,0,0,0-.77.44.63.63,0,0,0,.45.77Z" transform="translate(-14.81 -37.83)"/><path class="cls-1" d="M305.65,182.27q-.12-.36-.21-.75l-.06-.36c0,.18,0,0,0,0a1.09,1.09,0,0,1,0-.18.83.83,0,0,1,0-.35q0,.16,0,0v-.05a1.05,1.05,0,0,1,.05-.19l0-.09q-.06.15,0,.06s.06-.12.1-.17l0-.05,0,0,.1-.12.12-.11c.14-.12-.16.1,0,0l.28-.16.17-.08-.08,0,.08,0,.33-.09.21,0c-.15,0,0,0,.06,0h.4l.88,0a.63.63,0,0,0,.31-1.17,3.9,3.9,0,0,0-1.05-.39,3.84,3.84,0,0,0-1.22,0,2.54,2.54,0,0,0-2.28,2.79,6.66,6.66,0,0,0,.48,1.8.69.69,0,1,0,1.33-.35Z" transform="translate(-14.81 -37.83)"/></svg>