<svg id="Layer_1" data-name="Layer 1" xmlns="http://www.w3.org/2000/svg" viewBox="0 0 221.48 208.03"><defs><style>.cls-1{opacity:0.25;}.cls-2{fill:#fd46fc;}.cls-3{fill:none;stroke:#486afb;stroke-miterlimit:10;}.cls-4{fill:#486afb;}</style></defs><g class="cls-1"><path class="cls-2" d="M301,173.77c.15,1.58-.4,3.1-.43,4.68-.12,5.83,0,11.69,0,17.53a36.58,36.58,0,0,1-.11,5.83,26.48,26.48,0,0,0-.39,4.53,64.91,64.91,0,0,0,.46,7.65c.47,3.9,0,8.11,0,12a59,59,0,0,1-.95,10.23,10.78,10.78,0,0,0,.33,4.67c.41,1.38.22,3.2,1.15,4.34-1.38.33-3.29,0-4.68,0-1.71,0-3.22-.5-5-.49-6.35,0-12.69,0-19,0-3.5,0-7,0-10.5,0-1.61,0-3.1.45-4.7.53s-3.3,0-4.94,0H230.58c-3.26,0-6.52.07-9.77,0-3,0-5.88-.51-8.87-.51H186.12a33.67,33.67,0,0,1-5.5-.11,24.27,24.27,0,0,0-4.52-.39c-4.25.06-8.39-.9-12.62-1-3.79-.1-7.6,0-11.38,0H128.49c-6.05,0-12.54-.66-18.48.39a39.27,39.27,0,0,1-5,.09,45,45,0,0,0-4.6.77c-2.16.32-4.2.56-6.35.71-1,.07-1.87.49-2.89.53-.73,0-1.5,0-2.24,0-1.82-.05-3.39-1.83-4.1-3.48A12,12,0,0,1,84.5,236a40.1,40.1,0,0,0,.39-7.27V183c0-3.23-.32-6.62.24-9.79.5-2.8-.1-5.63.29-8.42.92-6.5.4-13.25.47-19.84,0-2.24-.5-4.39-.53-6.64,0-1.93,0-3.87,0-5.8V121.68c0-1.63.11-3.29,0-4.91s-.52-2.93-.53-4.47c0-2.9,0-5.81,0-8.71,3.38,0,6.77.09,10.14,0,2.69-.06,5.3-.69,8-.91,1.91-.16,3.81-.1,5.72-.1h6.63c2.47,0,4.83-.44,7.28-.53,2.74-.09,5.5,0,8.24,0,3.71,0,7.35-.32,11-.64,7.23-.63,14.51-.36,21.76-.36,3.95,0,7.91.11,11.85,0s7.76-.55,11.67-.53c5.92,0,11.84,0,17.76,0,5.2,0,10.33-.5,15.52-.49,5.78,0,11.56,0,17.34,0,4.26,0,8.71-.39,13,.11a73.59,73.59,0,0,0,15.06.27c7.09-.64,14.26-.37,21.39-.38a19.61,19.61,0,0,0,4-.1c1.12-.23,2.21-.73,3.32-1A28.32,28.32,0,0,0,300,97.33c.51,1.79.08,4.32.08,6.21,0,2.36.06,4.74,0,7.11,0,1.14-.46,2.13-.53,3.27-.1,1.48,0,3,0,4.49v8.75c0,5.07-.12,10.15,0,15.21,0,1.92.51,3.77.53,5.71,0,1.51,0,3,0,4.54s-.05,2.74,0,4.11c0,1.16.43,2.13.54,3.27a85.92,85.92,0,0,1,0,8.79A48.46,48.46,0,0,0,301,173.77Zm-80.25,2.58c.09-3.63.35-7.6-.29-11.17a28.17,28.17,0,0,0-1-4.76,35.55,35.55,0,0,0-2-4.27c-.44-.83-1-1.51-1.5-2.3a10.89,10.89,0,0,0-1.46-2.51c-.6-.62-1.2-1.24-1.83-1.83a39.53,39.53,0,0,0-3.36-3.12,25.35,25.35,0,0,0-7-3.08c-1.41-.46-2.88-.35-4.29-.72a14.51,14.51,0,0,0-4.22-.47c-1.54,0-3.2-.17-4.73,0a31.81,31.81,0,0,0-3.31.67c-1.15.22-2.3.34-3.45.52a10.1,10.1,0,0,0-4.59,2.16,17.67,17.67,0,0,0-1.64.71c-1.7.85-3.23,2-4.87,3a18.78,18.78,0,0,0-5.19,4.44,35.18,35.18,0,0,0-3.59,5,46.47,46.47,0,0,0-3.73,6.68,53.82,53.82,0,0,0-2.39,7.85,48.94,48.94,0,0,0-1.59,8.48c-.48,9.84,5.3,18.64,13.45,23.7A33.43,33.43,0,0,0,181,209.48c5.45.7,11,1.47,16.36-.15a23.84,23.84,0,0,0,5.14-2.53c1.16-.65,2.37-1.09,3.51-1.8a31.55,31.55,0,0,0,3.59-3.06,26.37,26.37,0,0,0,3.23-2.92C218,192.72,220.51,184.44,220.72,176.35Z" transform="translate(-80.81 -74.63)"/><path class="cls-3" d="M84.89,103.42h0v.16c0,2.9,0,5.81,0,8.71,0,1.54.44,3,.53,4.47s0,3.28,0,4.91v10.78c0,1.93,0,3.87,0,5.8,0,2.25.55,4.4.53,6.64-.07,6.59.45,13.34-.47,19.84-.39,2.79.21,5.62-.29,8.42-.56,3.17-.24,6.56-.24,9.79V228.7A40.1,40.1,0,0,1,84.5,236a12,12,0,0,0,.36,6.32c.71,1.65,2.28,3.43,4.1,3.48.74,0,1.51,0,2.24,0,1,0,1.88-.46,2.89-.53,2.15-.15,4.19-.39,6.35-.71a45,45,0,0,1,4.6-.77,39.27,39.27,0,0,0,5-.09c5.94-1,12.43-.39,18.48-.39H152.1c3.78,0,7.59-.12,11.38,0,4.23.11,8.37,1.07,12.62,1a24.27,24.27,0,0,1,4.52.39,33.67,33.67,0,0,0,5.5.11h25.82c3,0,5.91.47,8.87.51,3.25,0,6.51,0,9.77,0h21.71c1.64,0,3.31.11,4.94,0s3.09-.55,4.7-.53c3.5,0,7,0,10.5,0,6.34,0,12.68,0,19,0,1.73,0,3.24.51,5,.49,1.39,0,3.3.35,4.68,0a1.89,1.89,0,0,0,.34-.09c-1-1.14-.78-3-1.2-4.41a10.48,10.48,0,0,1-.33-4.67,59,59,0,0,0,1-10.23c0-3.93.42-8.14-.05-12a67.13,67.13,0,0,1-.45-7.65,24.6,24.6,0,0,1,.39-4.53,36.58,36.58,0,0,0,.11-5.83c0-5.84-.14-11.69,0-17.53,0-1.58.57-3.1.43-4.68a48.5,48.5,0,0,1-.42-5,86.12,86.12,0,0,0,0-8.8c-.11-1.14-.51-2.11-.54-3.27,0-1.37,0-2.74,0-4.11s0-3,0-4.54c0-1.94-.49-3.79-.53-5.71-.1-5.06,0-10.14,0-15.21v-8.75c0-1.48-.12-3,0-4.49.08-1.14.51-2.13.53-3.27.06-2.37,0-4.75,0-7.11,0-1.89.44-4.42-.07-6.21a28.53,28.53,0,0,1-5.47,1.67c-1.11.29-2.21.79-3.33,1a19.57,19.57,0,0,1-4,.1c-7.13,0-14.29-.26-21.38.39a74.31,74.31,0,0,1-15.06-.28c-4.24-.5-8.69-.11-12.95-.11-5.78,0-11.56,0-17.35,0-5.19,0-10.31.49-15.52.49-5.91,0-11.83,0-17.75,0-3.91,0-7.77.45-11.67.53s-7.91,0-11.85,0c-7.25,0-14.54-.27-21.77.36-3.69.32-7.33.66-11,.64-2.74,0-5.51-.13-8.24,0-2.46.09-4.81.55-7.28.53H109c-1.91,0-3.81-.06-5.71.1-2.67.22-5.28.85-8,.91-3.47.08-7,0-10.43,0H82.42" transform="translate(-80.81 -74.63)"/><path class="cls-3" d="M177.66,145.45c-1.49,1.15-2.83,2.53-4.23,3.68" transform="translate(-80.81 -74.63)"/><path class="cls-3" d="M177.66,145.45a17.67,17.67,0,0,0-1.64.71c-1.7.85-3.23,2-4.87,3a18.78,18.78,0,0,0-5.19,4.44,35.18,35.18,0,0,0-3.59,5,46.47,46.47,0,0,0-3.73,6.68,53.82,53.82,0,0,0-2.39,7.85,48.94,48.94,0,0,0-1.59,8.48c-.48,9.84,5.3,18.64,13.45,23.7A33.43,33.43,0,0,0,181,209.48c5.45.7,11,1.47,16.36-.15a23.84,23.84,0,0,0,5.14-2.53c1.16-.65,2.37-1.09,3.51-1.8a31.55,31.55,0,0,0,3.59-3.06,26.37,26.37,0,0,0,3.23-2.92c5.19-6.3,7.66-14.58,7.87-22.67.09-3.63.35-7.6-.29-11.17a28.17,28.17,0,0,0-1-4.76,35.55,35.55,0,0,0-2-4.27c-.44-.83-1-1.51-1.5-2.3a10.89,10.89,0,0,0-1.46-2.51c-.6-.62-1.2-1.24-1.83-1.83a39.53,39.53,0,0,0-3.36-3.12,25.35,25.35,0,0,0-7-3.08c-1.41-.46-2.88-.35-4.29-.72a14.51,14.51,0,0,0-4.22-.47c-1.54,0-3.2-.17-4.73,0a31.81,31.81,0,0,0-3.31.67c-1.15.22-2.3.34-3.45.52A10.1,10.1,0,0,0,177.66,145.45Z" transform="translate(-80.81 -74.63)"/><path class="cls-3" d="M185.62,144.33a21.91,21.91,0,0,0-8,1.12" transform="translate(-80.81 -74.63)"/><path class="cls-3" d="M84.6,103.58h0c0,3,0,5.91,0,8.87,0,1.54.45,2.94.53,4.46s0,3.29,0,4.92v10.78c0,1.93,0,3.87,0,5.8,0,2.25.54,4.4.52,6.64-.06,6.59.45,13.34-.46,19.84-.4,2.79.2,5.62-.29,8.42-.56,3.17-.25,6.56-.25,9.79v45.75a41,41,0,0,1-.38,7.27,11.89,11.89,0,0,0,.36,6.32c.7,1.65,2.27,3.43,4.1,3.48.73,0,1.5,0,2.23,0,1,0,1.89-.46,2.89-.53,2.15-.15,4.19-.39,6.36-.71a44.85,44.85,0,0,1,4.59-.77,39.2,39.2,0,0,0,5-.09c6-1,12.44-.39,18.48-.39h23.61c3.79,0,7.6-.12,11.38,0,4.23.11,8.37,1.07,12.62,1a24.38,24.38,0,0,1,4.53.39,33.64,33.64,0,0,0,5.5.11h25.81c3,0,5.91.47,8.87.51,3.25,0,6.52,0,9.77,0H252c1.63,0,3.3.11,4.94,0s3.08-.55,4.69-.53c3.5,0,7,0,10.5,0,6.34,0,12.69,0,19,0,1.74,0,3.25.51,4.95.49,1.51,0,3.62.41,5-.07l-.05-.07c-.93-1.14-.74-3-1.15-4.34a10.78,10.78,0,0,1-.33-4.67,59,59,0,0,0,.95-10.23c0-3.93.43-8.14,0-12a64.91,64.91,0,0,1-.46-7.65,26.48,26.48,0,0,1,.39-4.53,36.58,36.58,0,0,0,.11-5.83c0-5.84-.14-11.7,0-17.53,0-1.58.58-3.1.43-4.68a48.46,48.46,0,0,1-.42-5,85.92,85.92,0,0,0,0-8.79c-.11-1.14-.52-2.11-.54-3.27,0-1.37,0-2.74,0-4.11s0-3,0-4.54c0-1.94-.49-3.79-.53-5.71-.1-5.06,0-10.14,0-15.21v-8.75c0-1.48-.12-3,0-4.49.07-1.14.5-2.13.53-3.27.05-2.37,0-4.75,0-7.11,0-1.89.43-4.42-.08-6.21A28.32,28.32,0,0,1,294.52,99c-1.11.29-2.2.79-3.32,1a19.61,19.61,0,0,1-4,.1c-7.13,0-14.3-.26-21.39.38a73.59,73.59,0,0,1-15.06-.27c-4.24-.5-8.69-.11-13-.11-5.78,0-11.56,0-17.34,0-5.19,0-10.32.49-15.52.49-5.92,0-11.84,0-17.76,0-3.91,0-7.76.45-11.67.53s-7.9,0-11.85,0c-7.25,0-14.53-.27-21.76.36-3.7.32-7.34.66-11,.64-2.74,0-5.5-.13-8.24,0-2.45.09-4.81.55-7.28.53h-6.63c-1.91,0-3.81-.06-5.72.1-2.67.22-5.28.85-8,.91-3.37.08-6.76,0-10.14,0H82.13" transform="translate(-80.81 -74.63)"/></g><g class="cls-1"><path class="cls-4" d="M83.89,103.17c0,3-.16,6.07,0,9.09.06,1.43.43,2.82.52,4.25s0,3-.08,4.51c-.07,3-.08,6-.12,9s-.19,5.88,0,8.8c.07,1.39.3,2.76.41,4.14.12,1.53,0,3.08,0,4.62,0,3,.1,5.93.06,8.9s-.43,6-.62,9c-.09,1.47,0,2.95,0,4.42s-.28,3-.42,4.55c-.28,2.86,0,5.75-.05,8.62s0,6,0,9.07q0,9.09,0,18.16,0,9.24,0,18.5c0,1.34,0,2.69-.07,4S83.1,235.63,83,237a10.18,10.18,0,0,0,1.24,6.61,7,7,0,0,0,2.13,2.17,5.83,5.83,0,0,0,3.31.71,18.17,18.17,0,0,0,3.53-.47c1.48-.27,3-.29,4.54-.47,3-.36,5.91-1.16,9-1.07,2.83.09,5.61-.56,8.45-.66,5.75-.21,11.54.16,17.3.16H151c6,0,12-.2,17.92.5,1.4.16,2.8.33,4.2.42s3,0,4.45.13c1.27.09,2.51.37,3.77.46,1.45.1,2.9,0,4.34,0,6.1,0,12.21,0,18.31,0,3.07,0,6.15-.11,9.21,0s5.89.47,8.86.48c6,0,12.05,0,18.07,0h9.12a71.6,71.6,0,0,0,8.79-.09,31.27,31.27,0,0,1,4.32-.41c1.61,0,3.21,0,4.81,0H285.4a61.15,61.15,0,0,1,8.67.33c1.19.17,2.38.16,3.57.24a10.24,10.24,0,0,0,3.62-.18,1,1,0,0,0,.5-1.56,5.79,5.79,0,0,1-.73-2.78c-.15-1.05-.51-2-.63-3.1-.28-2.43.48-5,.74-7.39s.26-4.76.32-7.15.2-4.85.14-7.28c-.13-4.8-1.08-9.51-.4-14.32a53.81,53.81,0,0,0,.24-7.51c0-2.5,0-5-.05-7.49s0-5,0-7.48.63-4.72.39-7.06a53.63,53.63,0,0,1-.26-7.5,29.92,29.92,0,0,0-.26-7,33.27,33.27,0,0,1-.31-7.06,51.63,51.63,0,0,0-.32-7,60.3,60.3,0,0,1-.23-7.84c0-2.6,0-5.21.05-7.82,0-2.91,0-5.83,0-8.74a41.25,41.25,0,0,1,.33-8.17c.5-2.52.18-5.27.17-7.83,0-2.34.48-4.78-.1-7.08a1,1,0,0,0-1.41-.61,24.47,24.47,0,0,1-4.67,1.43c-1.59.4-3.14,1.2-4.8,1.28s-3.59,0-5.37,0l-5.35,0c-3.57,0-7.13,0-10.69.22s-6.86.53-10.32.46-6.93-.61-10.41-.74-7,.1-10.48.11c-7.29,0-14.6-.19-21.88.11s-14.38.39-21.6.39c-3.63,0-7.26-.1-10.89.1s-7,.43-10.46.44c-7.16,0-14.32-.18-21.48-.1s-14.18,1.13-21.29,1a92.44,92.44,0,0,0-10.66.27,100.61,100.61,0,0,1-10.42.23,69,69,0,0,0-10.16.67,72.81,72.81,0,0,1-11.05.35c-1.79,0-3.58,0-5.38,0-1.24,0-1.36,1.88-.09,1.88,3.65,0,7.31.09,11,.05a42.24,42.24,0,0,0,5.15-.3c1.79-.23,3.57-.57,5.37-.68,3.48-.21,7-.06,10.49,0s7-.55,10.47-.56c3.67,0,7.32.15,11-.07s7.07-.62,10.62-.78c7.23-.32,14.5-.12,21.74,0,3.58,0,7.17.07,10.75-.14s7-.4,10.49-.39c7.35,0,14.72.17,22.06-.18s14.55-.3,21.84-.3c3.61,0,7.22-.06,10.83-.13s7,.32,10.51.57c7,.51,14-.42,21.05-.49,3.64,0,7.28,0,10.92,0a28.63,28.63,0,0,0,4.9-.09c1.64-.28,3.2-1,4.82-1.38a22.75,22.75,0,0,0,4.41-1.44l-1.41-.6c.52,2.06.05,4.27.05,6.37a48.61,48.61,0,0,1-.05,7.44,24.91,24.91,0,0,0-.5,3.34c0,1.22.05,2.45.06,3.67,0,2.63,0,5.26,0,7.89,0,5.21-.13,10.43,0,15.64,0,2.48.55,4.9.54,7.38s-.15,5,0,7.42a30.64,30.64,0,0,0,.51,3.14,23,23,0,0,1,.14,3.71,71.1,71.1,0,0,0,0,7.3,32.28,32.28,0,0,1,.33,3.67c0,1.18-.35,2.33-.43,3.5-.17,2.54-.07,5.12-.06,7.66s0,5.14.06,7.7.23,5.09,0,7.58A57.06,57.06,0,0,0,299,208c.08,2.41.41,4.78.57,7.18.17,2.69,0,5.39-.06,8.08s-.05,5.43-.33,8.15-1,5.36-.6,8.07c.18,1.11.47,2.19.63,3.31a5.7,5.7,0,0,0,1.09,2.84l.51-1.56a9.52,9.52,0,0,1-3.45.1c-1.33-.09-2.64-.12-4-.32a58.6,58.6,0,0,0-8.79-.22H266.41a57.43,57.43,0,0,0-8.4.38c-2.81.42-5.81.1-8.65.1H231.11c-3,0-6,0-8.94,0s-5.9-.34-8.86-.48c-5.83-.28-11.73,0-17.58,0h-9.07c-1.34,0-2.68.07-4,.06a39.68,39.68,0,0,1-4.22-.43c-2.84-.29-5.7-.19-8.55-.52A84.18,84.18,0,0,0,161,242c-11.89-.09-23.79.3-35.67,0-2.84-.06-5.68-.2-8.52-.16-1.35,0-2.69.07-4,.18s-2.73.4-4.1.51-2.81-.1-4.21,0a34.34,34.34,0,0,0-3.89.66c-2.83.53-5.78.46-8.56,1.12a9.63,9.63,0,0,1-3.78.2,4.41,4.41,0,0,1-2.67-2.41c-1.19-2.23-.71-4.81-.38-7.19a63.42,63.42,0,0,0,.25-8.61v-8.82c0-12,.15-24-.08-36a51.22,51.22,0,0,1,.25-8.58c.41-2.86-.06-5.75.32-8.62.78-5.82.48-11.67.44-17.52,0-1.34,0-2.67-.1-4-.15-1.58-.41-3.15-.46-4.74-.08-2.94,0-5.89,0-8.83s-.12-6-.11-9c0-1.36.05-2.74-.06-4.1s-.48-2.82-.51-4.26c0-2.89,0-5.78,0-8.67,0-.78-1.24-.81-1.24,0Z" transform="translate(-80.81 -74.63)"/></g><path class="cls-4" d="M100.82,75.21a9.19,9.19,0,0,0-6.57.05c-1.77.72-4,2.41-3.64,4.59.35,2,2.62,3.23,4.11,4.31a14.09,14.09,0,0,1,2.67,2.26c.29.35.55.72.22,1.12a2.86,2.86,0,0,1-1.14.73,6.3,6.3,0,0,1-3,.47c-1.24-.18-2.35-1.15-3.38-1.79a.75.75,0,0,0-1,1.12A8.07,8.07,0,0,0,92,90.27a5.72,5.72,0,0,0,3.2.24c1.79-.28,4.74-1.31,4.48-3.61a4.71,4.71,0,0,0-2-2.76c-1-.8-2-1.49-3-2.19a7.44,7.44,0,0,1-2.06-1.81c-.59-.89-.11-1.73.59-2.41a7,7,0,0,1,7.2-1.29.65.65,0,0,0,.41-1.23Z" transform="translate(-80.81 -74.63)"/><path class="cls-4" d="M185.27,143.47c-3.9,0-7.65.45-11.07,2.45-.89.52-1.74,1.09-2.61,1.64s-1.67,1-2.46,1.52a20.14,20.14,0,0,0-3.78,3.42,35.61,35.61,0,0,0-3.5,4.7c-1.06,1.69-2.15,3.37-3.1,5.11-2,3.66-3,7.73-3.94,11.75a46.72,46.72,0,0,0-1.23,6.32,23.89,23.89,0,0,0,.09,5.21,26,26,0,0,0,3.08,9.33,29.48,29.48,0,0,0,15.19,13.2,48.24,48.24,0,0,0,11.34,2.4,37,37,0,0,0,12.55-.14,18.74,18.74,0,0,0,5.22-2.1c.85-.49,1.69-1,2.58-1.42a21.18,21.18,0,0,0,2.75-1.45c1.57-1.06,2.85-2.48,4.31-3.68a21.14,21.14,0,0,0,3.87-4.09,38.77,38.77,0,0,0,6.74-20.87,58.13,58.13,0,0,0-.31-12.16,25.2,25.2,0,0,0-1.51-5.93,34.75,34.75,0,0,0-2.89-5.16c-.44-.67-.7-1.42-1.1-2.11a11.81,11.81,0,0,0-2-2.21,32.42,32.42,0,0,0-4.42-4,21.46,21.46,0,0,0-5.28-2.44,18.16,18.16,0,0,0-2.9-.84c-1-.16-2-.19-3-.42a26.61,26.61,0,0,0-5.7-.48,28.58,28.58,0,0,0-3.07,0,16.65,16.65,0,0,0-3,.55c-1.87.47-3.88.48-5.7,1.09a12.7,12.7,0,0,0-4.27,2.57c-1.21,1.05-2.25,2.3-3.48,3.32-.54.45.22,1.2.74.76q1.83-1.51,3.67-3a11.55,11.55,0,0,1,4-2.29,19.51,19.51,0,0,1,2.65-.43c1-.13,2-.3,2.94-.51a12.92,12.92,0,0,1,2.76-.38c.95,0,1.89,0,2.84.08s1.9,0,2.84.1a22.63,22.63,0,0,1,2.58.51c1,.2,2,.22,2.94.39a19,19,0,0,1,2.66.81,14.29,14.29,0,0,1,7,4.23c.69.69,1.4,1.35,2.09,2.05a7.16,7.16,0,0,1,1.57,1.94,15.89,15.89,0,0,0,1.22,2.17,26,26,0,0,1,2.67,5,24.86,24.86,0,0,1,1.27,5.6,34,34,0,0,1,.33,5.79,68.24,68.24,0,0,1-.73,11,36.67,36.67,0,0,1-3.19,10,32.77,32.77,0,0,1-2.71,4.52,19.55,19.55,0,0,1-3.57,3.7,44,44,0,0,1-4.09,3.51c-.85.53-1.78.92-2.68,1.37s-1.59.87-2.38,1.32a16.74,16.74,0,0,1-5,2,25.53,25.53,0,0,1-5.92.51c-2,0-4-.24-6-.47-1.84-.23-3.68-.44-5.49-.82a29.46,29.46,0,0,1-9.85-3.74,30.11,30.11,0,0,1-7.07-6.2,24,24,0,0,1-5.72-17.57,46,46,0,0,1,1.19-6.06c.47-1.95.93-3.89,1.53-5.81a30.2,30.2,0,0,1,2.21-5.48c.91-1.68,1.95-3.3,3-4.92a26.24,26.24,0,0,1,6.87-7.77c.76-.54,1.59-1,2.37-1.48s1.6-1,2.41-1.53a16.74,16.74,0,0,1,5.18-2.07,26.61,26.61,0,0,1,5.35-.46.63.63,0,0,0,.06-1.26Z" transform="translate(-80.81 -74.63)"/><path class="cls-4" d="M150.09,144.2q2.19-4.2,4.43-8.38a91.52,91.52,0,0,1,4.72-8.22l-1.7-.45c0,1.68.11,3.38.18,5.07l.22,5.07a40.09,40.09,0,0,0,.29,4.38c.18,1.22.61,3,1.84,3.59a.81.81,0,0,0,1.18-.9,16.33,16.33,0,0,0-.74-1.59,8.33,8.33,0,0,1-.42-1.79c-.18-1.42-.18-2.87-.24-4.3l-.23-4.7c-.07-1.6-.08-3.23-.26-4.82-.09-.82-1.24-1.36-1.7-.46-1.43,2.82-3.11,5.5-4.67,8.25s-3.05,5.53-4.48,8.35c-.53,1,1,1.94,1.58.9Z" transform="translate(-80.81 -74.63)"/><path class="cls-4" d="M152.48,139.4c1,0,2,.07,3,0l1.43-.08.76-.06c.27,0,.55,0,.73-.25a.41.41,0,0,0,0-.57c-.38-.33-1-.13-1.49-.1s-1,.06-1.42.07c-1,0-2,0-3,0-.65,0-.65,1,0,1Z" transform="translate(-80.81 -74.63)"/><path class="cls-2" d="M87,281.3a151.55,151.55,0,0,1,3.81-15.17H89.05c.57,2.7,1,5.42,1.56,8.13l.77,4a17.85,17.85,0,0,0,1,4c.34.74,1.42.33,1.45-.38a17.5,17.5,0,0,0-.59-4l-.83-4.12c-.54-2.7-1.15-5.39-1.65-8.1a.9.9,0,0,0-1.73,0c-1.3,5.05-2.59,10.1-3.63,15.22-.2,1,1.33,1.41,1.54.41Z" transform="translate(-80.81 -74.63)"/><path class="cls-2" d="M88.43,277.43a4.77,4.77,0,0,0,1.64.16,4,4,0,0,0,.91-.13,2.52,2.52,0,0,0,.54-.21,1.25,1.25,0,0,0,.49-.53.82.82,0,0,0-.49-1.18,1.23,1.23,0,0,0-.43-.1,2.67,2.67,0,0,0-.48.08l-.55.09.26,0a4.75,4.75,0,0,1-1.13,0l.26,0-.51-.1a1,1,0,1,0-.51,1.92Z" transform="translate(-80.81 -74.63)"/><path class="cls-2" d="M98.54,264.43a2.69,2.69,0,0,0-1.22-.27,3.23,3.23,0,0,0-1.21.31A3.37,3.37,0,0,0,94.55,266a5.36,5.36,0,0,0-.52,2.29,1.77,1.77,0,0,0,1.77,1.94,4.77,4.77,0,0,0,1.41-.06,5.5,5.5,0,0,0,.58-.16,1.38,1.38,0,0,0,.57-.34c.1-.12.2-.25.29-.38a.8.8,0,0,0,0-.82.82.82,0,0,0-.71-.42,1.89,1.89,0,0,0-.71.07,5.62,5.62,0,0,1-.55.15l-.14,0c-.11,0-.1,0,0,0a.88.88,0,0,1-.28,0c-.06,0-.46,0-.49,0h.07l-.12,0,.07,0c.12.1.14.11.06,0,.09.13.11.16.06.07,0,.15.06.18,0,.08l0-.12c0,.15,0,.18,0,.07a4.26,4.26,0,0,1,0-.5c0-.06,0-.34,0-.08a.85.85,0,0,1,0-.22,4.21,4.21,0,0,1,.12-.48.56.56,0,0,1,0-.12c0-.1,0-.08,0,0a.8.8,0,0,1,.11-.23l.12-.22.08-.11c-.09.11-.1.13,0,0l.32-.31-.08.06.1-.07.2-.11.11-.05c-.14.05-.16.06-.07,0l.23-.07.11,0c-.14,0-.16,0-.06,0h.16l.11,0c.06,0,.31.11.06,0a1,1,0,0,0,.7.09,1,1,0,0,0,.57-.43.94.94,0,0,0-.35-1.27Z" transform="translate(-80.81 -74.63)"/><path class="cls-2" d="M104.43,274.78c8.24,2.47,17.75-.67,23.2-7.25,7-8.47,5.43-20.3,2.92-30.18a75.57,75.57,0,0,0-2.89-9c-.58-1.48-1.21-3-1.9-4.39a13.44,13.44,0,0,0-2.47-4,.73.73,0,0,0-1.21.7,19.76,19.76,0,0,0,1.66,3.7c.6,1.21,1.16,2.45,1.68,3.7a74.36,74.36,0,0,1,2.56,7.45A62.88,62.88,0,0,1,130.71,251c.11,4.84-.77,9.79-3.52,13.84a20.59,20.59,0,0,1-9.19,7.3,19.86,19.86,0,0,1-13.08.79c-1.18-.35-1.66,1.48-.49,1.84Z" transform="translate(-80.81 -74.63)"/><path class="cls-2" d="M121.23,220.87a23.21,23.21,0,0,0-1.2,2.26c-.2.43-.38.87-.56,1.32a2,2,0,0,0-.19.72,1.13,1.13,0,0,0,.8,1.08.85.85,0,0,0,.83-.22,1.35,1.35,0,0,0,.27-.48c-.1.34.06-.15.09-.25a4.68,4.68,0,0,1,.18-.48c-.1.24,0-.07,0-.11l.12-.28.24-.52a22.4,22.4,0,0,1,1.1-2,1,1,0,0,0-.37-1.36,1,1,0,0,0-1.36.37Z" transform="translate(-80.81 -74.63)"/><path class="cls-2" d="M124,221.88c.49.11,1,.25,1.46.4.25.08.49.16.72.25l.36.14c-.17-.06.13.06.16.07.45.2.89.41,1.32.65l.67.37a1.77,1.77,0,0,0,.48.23,1.56,1.56,0,0,0,.48,0,.83.83,0,0,0,.72-1.23,1.45,1.45,0,0,0-.27-.44,2.61,2.61,0,0,0-.43-.31q-.33-.21-.66-.39-.69-.37-1.41-.69a18.6,18.6,0,0,0-3.09-1,1,1,0,1,0-.51,1.92Z" transform="translate(-80.81 -74.63)"/><path class="cls-4" d="M83.6,103.33c0,3-.16,6.07,0,9.09.06,1.43.43,2.82.53,4.25s0,3-.08,4.51c-.08,3-.09,6-.12,9s-.2,5.88,0,8.8c.08,1.39.3,2.75.41,4.13.12,1.54,0,3.09.06,4.63,0,3,.09,5.93.05,8.9s-.43,6-.62,9c-.09,1.47,0,2.95,0,4.42s-.28,3-.42,4.55c-.27,2.86,0,5.75,0,8.62,0,3,0,6.05,0,9.07q0,9.09,0,18.16,0,9.24,0,18.5c0,1.34,0,2.69-.06,4s-.37,2.73-.5,4.11a10.24,10.24,0,0,0,1.24,6.61,7.11,7.11,0,0,0,2.13,2.17,5.89,5.89,0,0,0,3.32.71,18.27,18.27,0,0,0,3.53-.47c1.48-.27,3-.29,4.54-.47,3-.36,5.9-1.16,9-1.07,2.84.09,5.62-.56,8.45-.66,5.76-.21,11.54.16,17.3.16h18.58c6,0,11.95-.2,17.93.5,1.39.16,2.79.33,4.19.42s3,0,4.45.13c1.27.09,2.51.37,3.78.46,1.44.1,2.89,0,4.33,0,6.11,0,12.21,0,18.31,0,3.07,0,6.15-.1,9.21,0s5.9.47,8.87.48c6,0,12,0,18.06,0H249a71.6,71.6,0,0,0,8.79-.09,31.41,31.41,0,0,1,4.33-.41c1.6,0,3.2,0,4.81,0h18.22a61.21,61.21,0,0,1,8.67.33c1.18.17,2.37.16,3.56.24A10.48,10.48,0,0,0,301,246a1,1,0,0,0,.5-1.56,6,6,0,0,1-.73-2.78c-.15-1.05-.51-2.05-.63-3.1-.28-2.43.49-5,.74-7.39s.26-4.76.32-7.15.2-4.85.14-7.28c-.12-4.8-1.07-9.51-.4-14.32a52.32,52.32,0,0,0,.24-7.51c0-2.5,0-5,0-7.49s0-5,0-7.48.64-4.72.4-7.06a53.63,53.63,0,0,1-.26-7.5,29.92,29.92,0,0,0-.27-7,34,34,0,0,1-.31-7.06,51.63,51.63,0,0,0-.32-7,60.3,60.3,0,0,1-.23-7.84c0-2.61,0-5.21.05-7.82,0-2.91,0-5.83,0-8.74a42,42,0,0,1,.32-8.17c.5-2.52.18-5.27.17-7.83,0-2.34.48-4.78-.1-7.08a1,1,0,0,0-1.41-.61,24.6,24.6,0,0,1-4.66,1.43c-1.6.4-3.14,1.2-4.81,1.28s-3.59,0-5.36,0l-5.36,0c-3.56,0-7.13,0-10.69.22s-6.85.53-10.31.46S251,99,247.54,98.84s-7,.1-10.48.11c-7.28,0-14.6-.19-21.87.11s-14.39.39-21.61.39c-3.62,0-7.26-.1-10.88.1s-7,.43-10.46.44c-7.16,0-14.33-.18-21.49-.1s-14.18,1.13-21.29,1a92.5,92.5,0,0,0-10.66.27,100.49,100.49,0,0,1-10.42.23,67.83,67.83,0,0,0-10.16.67,72.73,72.73,0,0,1-11,.35l-5.37,0c-1.24,0-1.37,1.89-.1,1.89,3.65,0,7.31.09,11,0a42.07,42.07,0,0,0,5.14-.3c1.79-.23,3.57-.57,5.38-.68,3.47-.22,7-.06,10.49,0s7-.55,10.47-.56,7.31.15,11-.07,7.08-.62,10.62-.78c7.24-.32,14.51-.12,21.74-.05,3.58,0,7.17.07,10.75-.14s7-.4,10.49-.39c7.35,0,14.72.17,22.06-.18s14.55-.3,21.84-.3c3.61,0,7.22-.06,10.83-.13s7,.32,10.51.57c7,.5,14-.42,21-.49,3.64,0,7.28,0,10.92,0a28.63,28.63,0,0,0,4.9-.09c1.64-.28,3.21-1,4.83-1.38a23,23,0,0,0,4.41-1.44l-1.42-.6c.52,2.06.06,4.27.06,6.37a49.92,49.92,0,0,1-.06,7.44,26.63,26.63,0,0,0-.5,3.34c0,1.22.06,2.45.06,3.67,0,2.63,0,5.26,0,7.88,0,5.22-.13,10.44,0,15.65.05,2.48.55,4.9.54,7.38s-.14,4.95,0,7.42a30.67,30.67,0,0,0,.52,3.14,24.18,24.18,0,0,1,.13,3.71c0,2.43-.25,4.87,0,7.3a34.76,34.76,0,0,1,.34,3.67c0,1.18-.35,2.33-.44,3.5-.17,2.54-.07,5.12-.06,7.66s.05,5.14.06,7.7.24,5.08,0,7.58a57,57,0,0,0-.45,7.39c.07,2.41.4,4.78.56,7.18.18,2.69,0,5.39-.06,8.08s-.05,5.43-.33,8.15-1.05,5.36-.6,8.07c.19,1.11.48,2.19.64,3.31a5.7,5.7,0,0,0,1.09,2.84l.5-1.56a9.75,9.75,0,0,1-3.45.1c-1.33-.09-2.63-.12-4-.32a58.6,58.6,0,0,0-8.79-.22H266.12a57.36,57.36,0,0,0-8.39.38c-2.82.42-5.82.1-8.66.1H230.83c-3,0-6,0-8.94,0s-5.9-.34-8.87-.48c-5.83-.28-11.73,0-17.57,0h-9.08c-1.34,0-2.68.07-4,.06a39.68,39.68,0,0,1-4.22-.43c-2.84-.3-5.7-.19-8.55-.52a81.38,81.38,0,0,0-8.83-.65c-11.88-.09-23.78.3-35.67,0-2.84-.06-5.68-.2-8.52-.16-1.34,0-2.69.06-4,.18s-2.73.4-4.1.51-2.8-.1-4.2,0a34.14,34.14,0,0,0-3.9.66c-2.83.53-5.77.46-8.56,1.12a9.59,9.59,0,0,1-3.77.2,4.36,4.36,0,0,1-2.67-2.41c-1.2-2.23-.72-4.81-.39-7.19a63.42,63.42,0,0,0,.26-8.61v-8.82c0-12,.14-24-.09-36a51.22,51.22,0,0,1,.25-8.58c.42-2.86,0-5.75.33-8.62.77-5.82.47-11.67.43-17.52,0-1.34,0-2.67-.1-4-.14-1.58-.41-3.15-.45-4.74-.08-2.94,0-5.89,0-8.83s-.12-6-.11-9c0-1.36.06-2.74-.06-4.1s-.48-2.82-.5-4.26c-.06-2.89,0-5.78,0-8.67,0-.78-1.24-.81-1.24,0Z" transform="translate(-80.81 -74.63)"/></svg>