<?xml version="1.0" encoding="utf-8"?>
<!-- Generator: Adobe Illustrator 26.0.2, SVG Export Plug-In . SVG Version: 6.00 Build 0)  -->
<svg version="1.1" id="Layer_1" xmlns="http://www.w3.org/2000/svg" xmlns:xlink="http://www.w3.org/1999/xlink" x="0px" y="0px"
	 viewBox="0 0 300 78.2" style="enable-background:new 0 0 300 78.2;" xml:space="preserve">
<style type="text/css">
	.st0{fill:#FD46FC;}
	.st1{fill:#486AFB;}
</style>
<g>
	<g>
		<path class="st0" d="M78.71,39.88c0.19,1.32,0.24,2.67,0.15,4c-0.02,0.27,0.24,0.5,0.5,0.5c0.28,0,0.48-0.23,0.5-0.5
			c0.09-1.43,0.02-2.85-0.19-4.27c-0.04-0.27-0.38-0.41-0.62-0.35C78.77,39.35,78.67,39.61,78.71,39.88L78.71,39.88z"/>
	</g>
</g>
<g>
	<g>
		<path class="st0" d="M93.15,42.5c0.8,0.01,1.61,0.02,2.41,0.04c0.26,0,0.51-0.23,0.5-0.5c-0.01-0.27-0.22-0.5-0.5-0.5
			c-0.8-0.01-1.61-0.02-2.41-0.04c-0.26,0-0.51,0.23-0.5,0.5C92.66,42.27,92.87,42.5,93.15,42.5L93.15,42.5z"/>
	</g>
</g>
<g>
	<g>
		<path class="st0" d="M99.7,40.81c-0.29,1.09-0.58,2.18-0.87,3.27c-0.07,0.25,0.08,0.55,0.35,0.62c0.26,0.06,0.54-0.08,0.62-0.35
			c0.29-1.09,0.58-2.18,0.87-3.27c0.07-0.25-0.08-0.55-0.35-0.62C100.05,40.41,99.77,40.54,99.7,40.81L99.7,40.81z"/>
	</g>
</g>
<g>
	<g>
		<path class="st0" d="M99.14,41.87c-0.61-0.09-1.21-0.08-1.81,0.07c0.21,0.21,0.41,0.41,0.62,0.62c0.34-0.83,0.26-1.8-0.14-2.6
			c-0.12-0.23-0.47-0.32-0.68-0.18c-0.24,0.15-0.31,0.43-0.18,0.68c0.02,0.04,0.06,0.09,0.06,0.13c-0.03-0.06-0.03-0.07-0.01-0.02
			c0.01,0.02,0.02,0.05,0.03,0.07c0.03,0.08,0.05,0.16,0.08,0.25c0.02,0.07,0.06,0.18,0.05,0.25c-0.01-0.07-0.01-0.08,0-0.02
			c0,0.02,0.01,0.05,0.01,0.07c0,0.04,0.01,0.09,0.01,0.13c0,0.09,0,0.18,0,0.28c0,0.04-0.01,0.07-0.01,0.11
			c-0.01,0.06-0.01,0.05,0-0.02c0,0.02-0.01,0.05-0.01,0.07c-0.03,0.18-0.09,0.36-0.15,0.53c-0.07,0.16,0.01,0.37,0.13,0.49
			c0.13,0.13,0.31,0.17,0.49,0.13c0.12-0.03,0.23-0.05,0.35-0.07c0.06-0.01-0.09,0.01,0.01,0c0.03,0,0.06-0.01,0.08-0.01
			c0.06-0.01,0.13-0.01,0.19-0.01c0.12-0.01,0.24-0.01,0.36,0c0.06,0,0.11,0.01,0.17,0.01c0.04,0,0.07,0.01,0.1,0.01
			c0.08,0.01-0.12-0.02,0.01,0c0.14,0.02,0.26,0.02,0.39-0.05c0.1-0.06,0.2-0.18,0.23-0.3C99.54,42.25,99.42,41.91,99.14,41.87
			L99.14,41.87z"/>
	</g>
</g>
<g>
	<g>
		<path class="st0" d="M114.69,40.64c-0.34,0.5-0.1,1.12,0.28,1.52c0.17,0.18,0.38,0.31,0.59,0.42c0.09,0.05,0.19,0.1,0.28,0.16
			c0.04,0.03,0.08,0.05,0.13,0.08c0.02,0.02,0.05,0.03,0.07,0.05c-0.05-0.04-0.05-0.04,0,0c0.04,0.04,0.08,0.07,0.12,0.11
			c-0.08-0.08,0,0,0.02,0.03c0.01,0.02,0.03,0.05,0.04,0.07c-0.02-0.06-0.03-0.06-0.01-0.01c0.01,0.03,0.01,0.05,0.02,0.08
			c-0.01-0.07-0.01-0.07-0.01-0.02c0,0.03,0,0.05,0,0.08c0.01-0.07,0.01-0.07,0-0.02c-0.01,0.04-0.02,0.08-0.03,0.11
			c0.04-0.12-0.03,0.03-0.04,0.06c0.06-0.1-0.03,0.02-0.05,0.05c0.08-0.08,0-0.01-0.03,0.01c-0.05,0.03-0.05,0.02,0.01,0
			c-0.02,0.01-0.05,0.02-0.08,0.02c-0.06,0.01-0.05,0.01,0.02,0c-0.03,0-0.05,0-0.08,0c-0.06,0-0.05,0,0.02,0
			c-0.03,0-0.05-0.01-0.08-0.02c-0.04-0.01-0.11-0.06-0.03-0.01c-0.02-0.01-0.16-0.11-0.06-0.03c-0.02-0.02-0.12-0.14-0.06-0.04
			c-0.03-0.04-0.05-0.09-0.08-0.14c-0.11-0.24-0.47-0.31-0.68-0.18c-0.25,0.16-0.29,0.43-0.18,0.68c0.19,0.43,0.67,0.7,1.13,0.72
			c0.47,0.03,0.94-0.25,1.15-0.68c0.21-0.43,0.21-0.95-0.08-1.35c-0.27-0.36-0.64-0.55-1.02-0.76c-0.04-0.02-0.09-0.05-0.13-0.08
			c-0.02-0.01-0.04-0.02-0.05-0.04c0.06,0.04,0.01,0.01-0.02-0.02c-0.04-0.03-0.07-0.07-0.11-0.11c0,0-0.05-0.06-0.02-0.02
			c0.03,0.04-0.02-0.03-0.02-0.04c-0.02-0.02-0.03-0.05-0.04-0.07c-0.01-0.01-0.04-0.09-0.02-0.03c0.02,0.05-0.02-0.07-0.02-0.09
			c0,0.01,0.03,0.08,0.01,0.04c-0.03-0.05,0.02-0.07,0,0c0-0.01,0.02-0.07,0-0.01c-0.03,0.06,0.03-0.04,0.03-0.04
			c0.15-0.22,0.05-0.56-0.18-0.68C115.12,40.33,114.85,40.41,114.69,40.64L114.69,40.64z"/>
	</g>
</g>
<g>
	<g>
		<path class="st0" d="M116.24,41.11c0.52,0,1.03,0,1.55,0c0.26,0,0.51-0.23,0.5-0.5c-0.01-0.27-0.22-0.5-0.5-0.5
			c-0.52,0-1.03,0-1.55,0c-0.26,0-0.51,0.23-0.5,0.5C115.76,40.88,115.96,41.11,116.24,41.11L116.24,41.11z"/>
	</g>
</g>
<g>
	<g>
		<path class="st0" d="M131.63,41.08c0.37,0.13,0.73,0.03,1.11-0.01c0.02,0,0.22,0,0.12-0.01c0.02,0,0.19,0.06,0.11,0.02
			c0.03,0.01,0.06,0.03,0.08,0.05c-0.04-0.03-0.04-0.03,0,0.01c-0.03-0.05-0.03-0.05,0,0c-0.02-0.03-0.03-0.06-0.03-0.1
			c0-0.06,0.08-0.12,0.01-0.06c-0.04,0.04-0.05,0.05-0.02,0.02c-0.03,0.02-0.06,0.04-0.09,0.06c-0.16,0.09-0.33,0.18-0.49,0.26
			c-0.32,0.17-0.66,0.32-0.99,0.46c-0.23,0.1-0.4,0.28-0.36,0.55c0.04,0.25,0.24,0.42,0.49,0.43c0.09,0,0.17,0.01,0.25,0.02
			c0.04,0,0.08,0.01,0.12,0.01c-0.1-0.01,0.05,0.01,0.06,0.01c0.17,0.03,0.34,0.08,0.51,0.14c0.09,0.03-0.02-0.01,0.03,0.01
			c0.03,0.02,0.07,0.03,0.1,0.05c0.04,0.02,0.07,0.05,0.11,0.07c0.08,0.05-0.02-0.02,0.02,0.01c0.03,0.02,0.05,0.05,0.08,0.07
			c0.02,0.02,0.08,0.11,0.02,0.02c0.02,0.03,0.03,0.06,0.05,0.09c0.02,0.03,0.01,0.02-0.01-0.03c0.01,0.02,0.01,0.04,0.02,0.06
			c0.01,0.05,0.01,0.08,0.01,0.01c0,0.01,0,0.15,0.01,0.07c0,0.04-0.02,0.09-0.03,0.12c-0.01,0.03-0.01,0.03,0,0
			c-0.01,0.02-0.02,0.03-0.03,0.05c-0.09,0.13,0.06-0.05-0.05,0.07c-0.03,0.03-0.06,0.06-0.1,0.09c-0.03,0.03,0.01,0-0.05,0.04
			c-0.05,0.03-0.09,0.06-0.14,0.08c0.05-0.03-0.04,0.01-0.06,0.02c-0.05,0.02-0.1,0.03-0.15,0.04c-0.12,0.02-0.24,0.02-0.37,0.02
			c-0.25-0.01-0.49-0.06-0.73-0.11c-0.26-0.05-0.54,0.08-0.62,0.35c-0.07,0.25,0.08,0.56,0.35,0.62c0.69,0.14,1.41,0.26,2.07-0.07
			c0.55-0.28,0.95-0.86,0.86-1.49c-0.15-1.1-1.43-1.4-2.35-1.44c0.04,0.33,0.09,0.65,0.13,0.98c0.48-0.2,0.96-0.42,1.42-0.66
			c0.43-0.23,0.89-0.5,0.9-1.04c0-0.47-0.41-0.82-0.83-0.92c-0.25-0.06-0.47-0.04-0.72,0c-0.21,0.03-0.39,0.08-0.57,0.01
			c-0.25-0.09-0.55,0.1-0.62,0.35C131.2,40.74,131.37,40.99,131.63,41.08L131.63,41.08z"/>
	</g>
</g>
<g>
	<g>
		<path class="st0" d="M78.33,56.64c-0.04,0.53-0.28,1.03-0.46,1.52c-0.17,0.46-0.29,0.97-0.24,1.46c0.05,0.51,0.24,1.01,0.64,1.34
			c0.38,0.32,0.87,0.45,1.36,0.43c0.46-0.02,0.9-0.14,1.32-0.31c0.46-0.19,0.97-0.4,1.31-0.78c0.36-0.4,0.51-0.97,0.27-1.48
			c-0.27-0.58-0.93-0.67-1.5-0.55c-1.08,0.22-1.97,1.08-2.31,2.11c-0.09,0.26,0.1,0.55,0.35,0.62c0.27,0.07,0.53-0.09,0.62-0.35
			c0.19-0.58,0.7-1.11,1.26-1.31c0.13-0.05,0.32-0.1,0.43-0.12c0.05-0.01,0.1-0.01,0.15-0.01c0,0,0.09,0.01,0.05,0.01
			c0.08,0.01,0.07,0.02,0.04,0.01c-0.02-0.02-0.01-0.01,0.03,0.03c-0.02-0.03-0.03-0.03-0.01,0c0.03,0.05,0.01-0.07,0.01,0.04
			c0-0.02,0-0.09,0,0.02c0,0.03,0,0.07,0,0.1c0.01-0.08-0.01,0.03-0.02,0.04c-0.04,0.08,0.06-0.09-0.02,0.05
			c-0.03,0.05-0.03,0.06-0.02,0.04c-0.05,0.07-0.14,0.15-0.18,0.18c-0.28,0.21-0.63,0.36-0.91,0.46c-0.35,0.13-0.66,0.2-0.98,0.2
			c-0.2,0-0.19-0.01-0.37-0.06c-0.08-0.02-0.22-0.11-0.29-0.19c-0.2-0.21-0.25-0.48-0.24-0.79c0.01-0.21,0.03-0.32,0.08-0.53
			c0.06-0.23,0.14-0.45,0.23-0.66c0.19-0.5,0.36-0.99,0.4-1.53c0.02-0.27-0.24-0.5-0.5-0.5C78.54,56.14,78.35,56.37,78.33,56.64
			L78.33,56.64z"/>
	</g>
</g>
<g>
	<g>
		<path class="st0" d="M95.58,58.36c0.06,1.09,0.11,2.18,0.17,3.27c0.01,0.26,0.22,0.51,0.5,0.5c0.26-0.01,0.51-0.22,0.5-0.5
			c-0.06-1.09-0.11-2.18-0.17-3.27c-0.01-0.26-0.22-0.51-0.5-0.5C95.82,57.87,95.57,58.08,95.58,58.36L95.58,58.36z"/>
	</g>
</g>
<g>
	<g>
		<path class="st0" d="M99.45,58.46c-0.25,0.32-0.44,0.69-0.57,1.07c-0.16,0.44-0.26,0.93-0.05,1.37c0.17,0.36,0.57,0.6,0.94,0.7
			c0.37,0.1,0.77,0.1,1.15,0.01c0.73-0.18,1.37-0.75,1.53-1.5c0.16-0.75-0.09-1.58-0.77-1.99c-0.67-0.41-1.69-0.32-2.19,0.32
			c-0.09,0.11-0.15,0.21-0.15,0.35c0,0.12,0.05,0.27,0.15,0.35c0.18,0.16,0.54,0.22,0.71,0c0.04-0.05,0.08-0.09,0.13-0.14
			c0.05-0.05,0,0.03-0.03,0.02c0.01,0,0.07-0.05,0.08-0.05c0.03-0.02,0.06-0.03,0.08-0.05c0.06-0.03,0.01,0.02-0.03,0.01
			c0.03,0.01,0.14-0.05,0.18-0.06c0.02-0.01,0.08-0.01,0.09-0.02c-0.02,0-0.05,0.01-0.07,0.01c0.02,0,0.04,0,0.06,0
			c0.05,0,0.11,0,0.16,0c0.01,0,0.12,0,0.03,0c-0.08,0,0.01,0,0.03,0.01c0.02,0,0.18,0.06,0.18,0.05c-0.01,0.01-0.11-0.05,0,0
			c0.03,0.01,0.06,0.03,0.08,0.05c0.02,0.01,0.04,0.02,0.05,0.04c0.09,0.06-0.08-0.08,0,0c0.02,0.02,0.12,0.09,0.12,0.12
			c-0.01-0.02-0.02-0.03-0.04-0.05c0.01,0.02,0.03,0.04,0.04,0.06c0.02,0.03,0.04,0.06,0.05,0.09c0.01,0.02,0.05,0.07,0.04,0.09
			c-0.01-0.02-0.02-0.04-0.02-0.06c0.01,0.02,0.02,0.04,0.02,0.06c0.02,0.05,0.03,0.11,0.04,0.16c0,0.02,0,0.12,0.01,0.03
			c0-0.09,0,0.02,0,0.04c0,0.07,0,0.14,0,0.21c0,0.01,0,0.02,0,0.03c-0.01,0.06,0,0.05,0-0.03c0.01,0.01-0.02,0.09-0.02,0.1
			c-0.01,0.06-0.03,0.11-0.05,0.16c-0.03,0.11,0.04-0.07,0-0.01c-0.01,0.03-0.02,0.05-0.04,0.08c-0.02,0.03-0.03,0.06-0.05,0.09
			c-0.01,0.02-0.07,0.12,0,0.01c-0.03,0.06-0.1,0.11-0.15,0.16c-0.02,0.02-0.04,0.03-0.05,0.05c-0.09,0.08,0.09-0.06-0.01,0.01
			c-0.05,0.03-0.1,0.07-0.15,0.1c-0.03,0.02-0.06,0.03-0.1,0.05c-0.11,0.05,0.1-0.03-0.01,0.01c-0.07,0.02-0.14,0.05-0.21,0.06
			c-0.02,0.01-0.05,0.01-0.07,0.02c-0.04,0.01-0.13,0.05-0.01,0.01c-0.12,0.04-0.28,0.01-0.4,0c-0.12-0.01,0.11,0.03-0.01,0
			c-0.03-0.01-0.06-0.01-0.09-0.02c-0.06-0.01-0.14-0.03-0.19-0.06c0.1,0.06,0.04,0.01,0.01,0c-0.03-0.01-0.05-0.03-0.08-0.04
			c-0.01-0.01-0.02-0.01-0.03-0.02c-0.04-0.03-0.04-0.03,0.02,0.01c0-0.01-0.07-0.07-0.07-0.07c-0.08-0.08,0.04,0.09,0-0.01
			c-0.01-0.02-0.02-0.04-0.03-0.06c0.01,0.02,0.02,0.04,0.03,0.06c-0.02-0.01-0.02-0.15-0.01-0.03c0-0.02,0.01-0.21,0-0.09
			c0.02-0.17,0.08-0.34,0.13-0.5c0.01-0.03,0.02-0.07,0.04-0.1c0.01-0.02,0.02-0.04,0.02-0.06c-0.02,0.05-0.02,0.05,0,0
			c0.04-0.08,0.07-0.15,0.11-0.23c0.09-0.16,0.19-0.32,0.3-0.46c0.16-0.21,0.04-0.57-0.18-0.68C99.87,58.14,99.62,58.24,99.45,58.46
			L99.45,58.46z"/>
	</g>
</g>
<g>
	<g>
		<path class="st0" d="M115.77,58.13c1.18,0.2,2.36,0.4,3.53,0.6c-0.1-0.24-0.2-0.49-0.3-0.73c-0.56,1.29-1.24,2.53-2.06,3.68
			c-0.16,0.22-0.04,0.56,0.18,0.68c0.25,0.15,0.53,0.04,0.68-0.18c0.81-1.15,1.5-2.38,2.06-3.68c0.11-0.26,0.05-0.67-0.3-0.73
			c-1.18-0.2-2.36-0.4-3.53-0.6c-0.27-0.05-0.54,0.07-0.62,0.35C115.36,57.76,115.5,58.09,115.77,58.13L115.77,58.13z"/>
	</g>
</g>
<g>
	<g>
		<path class="st0" d="M135.37,56.32c-0.66,0.07-1.33,0.33-1.72,0.9c-0.36,0.53-0.32,1.22,0.02,1.74c0.61,0.92,2.05,1.45,1.8,2.76
			c-0.09,0.47-0.42,0.76-0.88,0.75c-0.33-0.01-0.7-0.18-0.74-0.52c-0.07-0.58,0.64-1.07,1.03-1.37c0.72-0.55,1.44-1.08,2.15-1.63
			c0.33-0.26,0.56-0.58,0.52-1.01c-0.04-0.44-0.36-0.77-0.71-1.01c-0.72-0.49-1.64-0.72-2.5-0.8c-0.64-0.06-0.64,0.94,0,1
			c0.68,0.06,1.55,0.26,2.08,0.73c0.03,0.03,0.15,0.17,0.15,0.16c-0.01,0.1-0.25,0.23-0.33,0.29c-0.37,0.28-0.74,0.57-1.12,0.85
			c-0.97,0.74-2.78,1.83-2.15,3.32c0.45,1.07,1.97,1.29,2.83,0.6c1.08-0.87,0.8-2.58-0.07-3.49c-0.4-0.41-1.08-0.77-1.29-1.33
			c-0.21-0.56,0.5-0.9,0.94-0.95c0.27-0.03,0.5-0.21,0.5-0.5C135.87,56.58,135.64,56.29,135.37,56.32L135.37,56.32z"/>
	</g>
</g>
<g>
	<g>
		<path class="st0" d="M72.47,36.71c-1.59-0.06-2.66,1.29-3.03,2.71c-0.47,1.81-0.51,3.81-0.65,5.67
			c-0.31,4.11-0.39,8.23-0.23,12.35c0.09,2.36,0.27,4.72,0.52,7.08c0.04,0.39,0.39,0.61,0.75,0.43c0.78-0.38,1.61-0.63,2.48-0.74
			c0.63-0.08,0.64-1.08,0-1c-1.05,0.13-2.03,0.41-2.98,0.87c0.25,0.14,0.5,0.29,0.75,0.43c-0.5-4.79-0.69-9.61-0.55-14.42
			c0.07-2.36,0.22-4.73,0.44-7.08c0.15-1.59,0.09-5.4,2.5-5.3C73.11,37.74,73.11,36.74,72.47,36.71L72.47,36.71z"/>
	</g>
</g>
<g>
	<g>
		<path class="st0" d="M141.31,36.16c0.82-0.29,1.65,0.18,2.09,0.89c0.52,0.83,0.52,1.89,0.52,2.84c-0.01,2.14-0.06,4.27-0.09,6.41
			c-0.06,4.3-0.21,8.61-0.14,12.91c0.04,2.34,0.23,4.69,0.78,6.97c0.21-0.21,0.41-0.41,0.62-0.62c-1.35-0.4-2.77-0.37-4.09,0.12
			c-0.6,0.22-0.34,1.19,0.27,0.96c1.17-0.43,2.37-0.48,3.56-0.12c0.38,0.11,0.7-0.25,0.62-0.62c-1.09-4.48-0.75-9.2-0.69-13.77
			c0.03-2.41,0.07-4.81,0.1-7.22c0.02-1.16,0.03-2.32,0.05-3.48c0.01-1.06,0.08-2.14-0.07-3.19c-0.25-1.77-1.77-3.78-3.79-3.06
			C140.44,35.41,140.7,36.38,141.31,36.16L141.31,36.16z"/>
	</g>
</g>
<g>
	<g>
		<path class="st1" d="M91.85,0.92c-1.46-0.09-3.02,0.84-3.28,2.35c-0.12,0.7,0.01,1.45,0.44,2.03c0.43,0.58,1.09,0.91,1.81,0.9
			c0.77,0,1.53-0.38,1.91-1.06c0.31-0.56-0.55-1.07-0.86-0.5c-0.11,0.19-0.21,0.29-0.38,0.39c-0.05,0.03-0.1,0.05-0.15,0.08
			c-0.07,0.03,0.06-0.02-0.01,0c-0.02,0.01-0.05,0.02-0.07,0.02c-0.05,0.02-0.11,0.03-0.16,0.04C91.06,5.19,91.03,5.19,91,5.2
			c-0.08,0.01,0.11,0-0.04,0c-0.11,0-0.23,0.01-0.34,0c0.09,0.01-0.06-0.01-0.08-0.02c-0.07-0.02-0.14-0.04-0.21-0.06
			c0,0-0.08-0.03-0.03-0.01c0.05,0.02-0.04-0.02-0.05-0.02C90.2,5.06,90.15,5.03,90.11,5c-0.02-0.01-0.04-0.03-0.06-0.04
			C89.98,4.91,90.09,5,90.03,4.95c-0.05-0.05-0.1-0.1-0.15-0.15c-0.01-0.01-0.07-0.09-0.04-0.05c0.03,0.03-0.02-0.03-0.02-0.03
			c-0.04-0.06-0.08-0.12-0.11-0.18c-0.02-0.03-0.06-0.13-0.06-0.13c0,0-0.04-0.12-0.05-0.16c-0.02-0.06-0.03-0.12-0.04-0.18
			c0-0.01-0.02-0.1-0.01-0.02c0-0.03-0.01-0.05-0.01-0.08c-0.01-0.14-0.01-0.28,0-0.42c0.01-0.06,0-0.01,0,0
			c0.01-0.03,0.01-0.07,0.02-0.1c0.01-0.06,0.03-0.12,0.05-0.18c0.02-0.06,0.04-0.12,0.06-0.18c-0.02,0.06,0.01-0.02,0.01-0.03
			c0.02-0.03,0.03-0.06,0.05-0.09c0.13-0.23,0.28-0.41,0.5-0.58c0.44-0.34,1.04-0.49,1.62-0.46c0.27,0.02,0.5-0.24,0.5-0.5
			C92.35,1.14,92.12,0.94,91.85,0.92L91.85,0.92z"/>
	</g>
</g>
<g>
	<g>
		<path class="st1" d="M94.67,2.35c-0.31,0.91-0.77,1.78-0.58,2.77c0.07,0.38,0.26,0.77,0.55,1.04c0.38,0.37,0.9,0.5,1.43,0.43
			c0.85-0.13,1.47-0.82,1.7-1.62c0.24-0.83,0.08-1.88-0.56-2.49c-0.7-0.66-1.92-0.63-2.56,0.1c-0.18,0.2-0.2,0.51,0,0.71
			c0.18,0.18,0.53,0.2,0.71,0c0.03-0.03,0.05-0.06,0.08-0.08c0.02-0.02,0.09-0.08,0.02-0.02c0.05-0.04,0.1-0.06,0.15-0.1
			c0.08-0.05,0.03-0.02,0.01-0.01c0.04-0.01,0.07-0.03,0.11-0.04c0.04-0.01,0.07-0.02,0.11-0.03c0.09-0.02-0.03,0,0.03-0.01
			c0.07,0,0.14,0,0.21,0c0.09,0,0.03,0,0,0c0.04,0.01,0.08,0.01,0.11,0.02c0.04,0.01,0.07,0.02,0.11,0.03
			c0.02,0.01,0.09,0.04,0.01,0c0.07,0.03,0.14,0.07,0.2,0.12c-0.07-0.05,0,0,0,0.01c0.03,0.04,0.07,0.07,0.1,0.11
			c0.02,0.03,0.07,0.1,0.1,0.16c0.06,0.12,0.11,0.26,0.15,0.42c0.01,0.03,0.01,0.06,0.02,0.09c0.02,0.09-0.01-0.12,0,0.03
			c0,0.06,0.01,0.12,0.01,0.19c0,0.07,0,0.14-0.01,0.21c0,0.02-0.02,0.13,0,0.03c-0.01,0.05-0.02,0.09-0.03,0.14
			c-0.01,0.06-0.03,0.12-0.05,0.18c-0.01,0.04-0.02,0.07-0.04,0.11c0,0.01-0.04,0.1-0.02,0.05c0.03-0.06-0.04,0.07-0.03,0.07
			C96.68,5,96.66,5.03,96.65,5.06c-0.02,0.03-0.03,0.05-0.05,0.08c-0.01,0.02-0.08,0.11-0.03,0.05c-0.04,0.05-0.09,0.1-0.14,0.15
			c-0.02,0.02-0.16,0.13-0.09,0.08c-0.06,0.04-0.11,0.07-0.17,0.11c-0.01,0.01-0.1,0.05-0.04,0.02c0.04-0.01,0.02-0.01-0.04,0.01
			C96.06,5.57,96.03,5.58,96,5.59c-0.14,0.04-0.27,0.05-0.39,0.02c-0.09-0.02-0.06-0.01-0.15-0.06c-0.03-0.02-0.05-0.03-0.08-0.05
			c0.08,0.05-0.03-0.03-0.04-0.04c-0.02-0.01-0.12-0.15-0.07-0.07c-0.05-0.06-0.08-0.13-0.12-0.2c-0.01-0.01-0.04-0.09-0.01-0.01
			c-0.01-0.03-0.02-0.06-0.03-0.09c-0.03-0.08-0.04-0.15-0.06-0.23c-0.04-0.15,0,0.05-0.01-0.03c-0.01-0.05-0.01-0.1-0.01-0.14
			c0-0.08,0-0.16,0-0.24c0.01-0.17,0.07-0.38,0.13-0.56c0.13-0.43,0.32-0.84,0.47-1.26c0.09-0.26-0.1-0.55-0.35-0.62
			C95.01,1.92,94.75,2.09,94.67,2.35L94.67,2.35z"/>
	</g>
</g>
<g>
	<g>
		<path class="st1" d="M99.61,5.44C99.33,4.98,99.3,4.52,99.46,4c0.06-0.2,0.21-0.41,0.4-0.56c-0.05,0.04,0.09-0.06,0.11-0.07
			c0.03-0.02,0.06-0.03,0.09-0.05c-0.04,0.02-0.03,0.02,0.02,0c0.02-0.01,0.2-0.03,0.11-0.03c0.03,0,0.17,0,0.14,0
			c-0.03,0,0.11,0.03,0.13,0.04c-0.07-0.03,0.09,0.05,0.1,0.06c0.05,0.03,0.06,0.04,0.02,0.01c0.03,0.02,0.05,0.05,0.08,0.07
			c0.01,0.01,0.12,0.15,0.09,0.1c0.16,0.22,0.22,0.41,0.25,0.69c0.03,0.33,0,0.67-0.02,1c-0.03,0.36-0.06,0.71-0.09,1.07
			c-0.02,0.27,0.25,0.5,0.5,0.5c0.29,0,0.48-0.23,0.5-0.5c0.1-1.18,0.44-2.77-0.61-3.65c-0.52-0.43-1.19-0.51-1.79-0.19
			c-0.53,0.28-0.9,0.83-1.05,1.4c-0.18,0.69-0.07,1.44,0.3,2.05c0.14,0.23,0.45,0.32,0.68,0.18C99.66,5.99,99.75,5.67,99.61,5.44
			L99.61,5.44z"/>
	</g>
</g>
<g>
	<g>
		<path class="st1" d="M104.95,2.4c-1.01,0.35-1.7,1.26-1.82,2.31c-0.06,0.52,0.05,1.11,0.36,1.54c0.35,0.49,0.89,0.76,1.49,0.75
			c0.63,0,1.24-0.26,1.8-0.53c0.24-0.12,0.31-0.46,0.18-0.68c-0.15-0.25-0.44-0.3-0.68-0.18c-0.06,0.03-0.13,0.06-0.19,0.09
			c-0.02,0.01-0.18,0.08-0.13,0.06c-0.13,0.05-0.27,0.1-0.4,0.15c-0.28,0.09-0.41,0.11-0.68,0.1c-0.03,0-0.07,0-0.1-0.01
			c0.04,0.01,0.05,0.01,0.01,0c-0.06-0.01-0.11-0.03-0.16-0.04c-0.06-0.02-0.06-0.02-0.01,0c-0.03-0.01-0.06-0.03-0.09-0.05
			c-0.03-0.02-0.06-0.04-0.08-0.05c0.03,0.03,0.03,0.02-0.02-0.02c-0.01-0.02-0.13-0.14-0.09-0.1c-0.03-0.04-0.06-0.09-0.08-0.13
			c-0.02-0.03-0.03-0.06-0.05-0.09c0.02,0.04,0.01,0.03-0.01-0.03c-0.02-0.07-0.04-0.13-0.06-0.2c-0.01-0.03-0.01-0.07-0.02-0.1
			c0.01,0.06,0.01,0.05,0-0.01c0-0.06-0.01-0.12-0.01-0.19c0-0.05,0-0.09,0-0.14c0-0.03,0-0.06,0.01-0.09
			c-0.01,0.06-0.01,0.05,0-0.01c0.03-0.12,0.05-0.24,0.1-0.36c0.01-0.02,0.06-0.13,0.02-0.05c0.03-0.06,0.05-0.11,0.08-0.17
			c0.03-0.05,0.06-0.11,0.1-0.16c0.02-0.03,0.04-0.05,0.05-0.08c-0.03,0.04-0.03,0.04,0.01-0.01c0.07-0.08,0.15-0.16,0.23-0.24
			c0.01-0.01,0.16-0.12,0.08-0.07c0.05-0.04,0.1-0.07,0.16-0.1c0.05-0.03,0.11-0.06,0.16-0.09c0.05-0.02,0.06-0.03,0.01-0.01
			c0.03-0.01,0.06-0.02,0.09-0.03c0.25-0.09,0.42-0.34,0.35-0.62C105.5,2.51,105.21,2.31,104.95,2.4L104.95,2.4z"/>
	</g>
</g>
<g>
	<g>
		<path class="st1" d="M108.55,5.55c-0.12-0.19-0.15-0.27-0.2-0.46c-0.02-0.08-0.04-0.17-0.06-0.26c0.01,0.08,0-0.08,0-0.08
			c0-0.04,0-0.09,0-0.13c0-0.34,0.08-0.63,0.26-0.92c0.15-0.25,0.37-0.44,0.67-0.59c0.04-0.02,0.09-0.05,0.14-0.07
			c-0.06,0.03,0.02-0.01,0.04-0.02c0.09-0.03,0.18-0.06,0.27-0.08c0.04-0.01,0.08-0.02,0.12-0.02c0.05-0.01-0.05,0,0.04,0
			c0.1,0,0.2-0.01,0.3,0c0.27,0.01,0.5-0.24,0.5-0.5c0-0.28-0.23-0.49-0.5-0.5c-0.97-0.05-1.93,0.46-2.44,1.28
			c-0.53,0.85-0.52,2,0.01,2.85c0.14,0.23,0.45,0.32,0.68,0.18C108.6,6.1,108.7,5.78,108.55,5.55L108.55,5.55z"/>
	</g>
</g>
<g>
	<g>
		<path class="st1" d="M110.92,5.34c0.96,0.33,2.27,0.26,3.03-0.48c0.34-0.33,0.57-0.83,0.4-1.3c-0.19-0.52-0.73-0.76-1.25-0.8
			c-0.84-0.07-1.73,0.44-2.11,1.19c-0.22,0.43-0.29,0.94-0.16,1.42c0.16,0.54,0.54,0.89,1.06,1.08c0.57,0.2,1.23,0.25,1.83,0.27
			c0.66,0.02,1.31-0.04,1.96-0.17c0.27-0.05,0.42-0.37,0.35-0.62c-0.08-0.28-0.35-0.4-0.62-0.35c-0.79,0.16-1.61,0.18-2.41,0.08
			c-0.32-0.04-0.75-0.07-1.02-0.27c-0.2-0.15-0.25-0.42-0.22-0.66c0.04-0.4,0.44-0.8,0.86-0.93c0.23-0.07,0.46-0.09,0.68,0.02
			c0.03,0.01,0.14,0.12,0.09,0.04c0.03,0.05-0.03,0.14-0.1,0.23c-0.22,0.27-0.58,0.37-0.91,0.42c-0.41,0.07-0.82,0.01-1.22-0.12
			c-0.26-0.09-0.55,0.1-0.62,0.35C110.49,5,110.66,5.25,110.92,5.34L110.92,5.34z"/>
	</g>
</g>
<g>
	<g>
		<path class="st1" d="M116.79,0.63c0.42,1.7,0.68,3.42,0.78,5.17c0.04,0.64,1.04,0.64,1,0c-0.11-1.83-0.38-3.65-0.81-5.43
			C117.6-0.26,116.64,0,116.79,0.63L116.79,0.63z"/>
	</g>
</g>
<g>
	<g>
		<path class="st1" d="M116.35,3.24c1.33,0,2.66-0.08,3.98-0.22c0.27-0.03,0.5-0.21,0.5-0.5c0-0.25-0.23-0.53-0.5-0.5
			c-1.32,0.15-2.65,0.22-3.98,0.22C115.7,2.25,115.7,3.25,116.35,3.24L116.35,3.24z"/>
	</g>
</g>
<g>
	<g>
		<path class="st1" d="M121.79,5.06c0.8,0.26,1.85,0.19,2.36-0.56c0.41-0.6,0.28-1.61-0.39-1.97c-0.94-0.51-1.82,0.44-2.24,1.18
			c-0.26,0.45-0.39,0.96-0.28,1.48c0.09,0.39,0.34,0.74,0.65,0.99c0.39,0.31,0.84,0.5,1.31,0.61c0.5,0.12,1.03,0.16,1.5,0.38
			c0.25,0.11,0.54,0.07,0.68-0.18c0.13-0.21,0.07-0.57-0.18-0.68c-0.68-0.31-1.42-0.35-2.13-0.59c-0.21-0.07-0.47-0.21-0.63-0.37
			c-0.11-0.11-0.13-0.13-0.21-0.27c-0.03-0.05-0.01-0.01,0,0c-0.01-0.03-0.02-0.07-0.03-0.1c-0.02-0.09-0.03-0.13-0.02-0.22
			c0.01-0.27,0.2-0.57,0.37-0.81c0.15-0.21,0.38-0.46,0.57-0.53c0.06-0.02,0.06-0.02,0.16-0.01c-0.03,0-0.09,0.01-0.01,0.01
			c-0.03,0-0.07-0.06-0.01,0c0.06,0.06-0.04-0.06,0.04,0.03c0.01,0.01,0.06,0.08,0.02,0.02c-0.04-0.06,0.02,0.04,0.03,0.05
			c0.05,0.07,0.01,0.01,0-0.01c0.01,0.03,0.02,0.05,0.03,0.08c0.01,0.03,0.01,0.05,0.02,0.08c0-0.02,0-0.1,0-0.01
			c0,0.06,0,0.11,0,0.17c0.01-0.11-0.02,0.06-0.03,0.09c-0.02,0.05,0.01-0.02,0.01-0.02c-0.02,0.04-0.04,0.07-0.06,0.11
			c0.06-0.09-0.08,0.07-0.07,0.06c0.03-0.03-0.04,0.02-0.04,0.02c-0.04,0.03-0.09,0.05-0.14,0.08c0.02-0.01,0.06-0.02-0.03,0.01
			c-0.04,0.01-0.09,0.03-0.13,0.03c-0.01,0-0.12,0.02-0.07,0.01c0.04-0.01-0.1,0.01-0.1,0.01c-0.08,0-0.17,0-0.25,0
			c-0.09-0.01-0.07-0.01-0.17-0.03c-0.09-0.02-0.18-0.04-0.26-0.07c-0.26-0.08-0.55,0.1-0.62,0.35
			C121.36,4.72,121.53,4.98,121.79,5.06L121.79,5.06z"/>
	</g>
</g>
<g>
	<g>
		<path class="st1" d="M90.28,11.49c-0.02,1.64,0.03,3.27,0.14,4.9c0.02,0.27,0.22,0.5,0.5,0.5c0.26,0,0.52-0.23,0.5-0.5
			c-0.11-1.63-0.16-3.27-0.14-4.9C91.29,10.85,90.29,10.85,90.28,11.49L90.28,11.49z"/>
	</g>
</g>
<g>
	<g>
		<path class="st1" d="M89.19,14.51c0.97,0,1.94,0,2.91,0c0.26,0,0.51-0.23,0.5-0.5c-0.01-0.27-0.22-0.5-0.5-0.5
			c-0.97,0-1.94,0-2.91,0c-0.26,0-0.51,0.23-0.5,0.5C88.7,14.28,88.91,14.51,89.19,14.51L89.19,14.51z"/>
	</g>
</g>
<g>
	<g>
		<path class="st1" d="M93.84,15.5c0.49,0.24,1,0.46,1.55,0.49c0.5,0.03,1.01-0.16,1.34-0.54c0.36-0.41,0.49-0.94,0.26-1.44
			c-0.19-0.42-0.65-0.69-1.09-0.76c-1-0.16-1.98,0.44-2.33,1.38c-0.34,0.92,0.05,1.96,0.84,2.5c0.82,0.56,1.94,0.49,2.86,0.27
			c0.25-0.06,0.43-0.36,0.35-0.62c-0.09-0.26-0.34-0.42-0.62-0.35c-0.15,0.04-0.3,0.07-0.45,0.09c-0.15,0.03,0.1-0.01-0.05,0.01
			c-0.03,0-0.06,0.01-0.09,0.01c-0.09,0.01-0.19,0.01-0.28,0.02c-0.15,0-0.31,0-0.46-0.02c-0.14-0.01,0.06,0.02-0.02,0
			c-0.04-0.01-0.07-0.01-0.11-0.02c-0.09-0.02-0.17-0.04-0.26-0.07c-0.03-0.01-0.06-0.02-0.08-0.03c-0.13-0.05,0.08,0.05-0.04-0.02
			c-0.06-0.04-0.13-0.07-0.19-0.11c-0.02-0.02-0.05-0.03-0.07-0.05c0.09,0.06-0.03-0.02-0.04-0.03c-0.02-0.02-0.04-0.04-0.07-0.06
			c-0.02-0.02-0.04-0.04-0.06-0.07c-0.03-0.04-0.04-0.05-0.02-0.02c0.04,0.05-0.05-0.07-0.04-0.06c-0.02-0.03-0.04-0.07-0.06-0.1
			c-0.02-0.03-0.04-0.07-0.05-0.1c0.04,0.08,0-0.01-0.01-0.03c-0.02-0.07-0.04-0.13-0.06-0.2c0-0.01-0.02-0.16-0.01-0.05
			c0-0.05-0.01-0.09-0.01-0.14c0-0.05,0-0.09,0-0.14c0-0.02,0.01-0.1,0-0.01c0.01-0.08,0.03-0.15,0.05-0.23
			c0-0.01,0.06-0.15,0.02-0.06c0.01-0.03,0.03-0.06,0.04-0.08c0.02-0.04,0.05-0.08,0.07-0.12c0.01-0.02,0.09-0.12,0.03-0.05
			c0.05-0.06,0.1-0.12,0.16-0.17c0.02-0.02,0.05-0.04,0.07-0.06c-0.08,0.06,0.05-0.03,0.05-0.03c0.07-0.04,0.14-0.08,0.21-0.11
			c-0.08,0.03,0,0,0.01,0c0.06-0.02,0.12-0.04,0.18-0.05c0.03-0.01,0.06-0.01,0.09-0.02c-0.11,0.02,0.04,0,0.05,0
			c0.03,0,0.06,0,0.09,0c0.02,0,0.16,0.01,0.04,0c0.07,0.01,0.13,0.03,0.19,0.05c0.02,0.01,0.11,0.05,0.03,0.01
			c0.04,0.02,0.08,0.04,0.12,0.06c0.02,0.01,0.11,0.1,0.04,0.02c0.02,0.02,0.04,0.04,0.06,0.06c0.09,0.09-0.04-0.07,0.02,0.03
			c0.05,0.08,0.01,0.02,0,0c0.01,0.02,0.03,0.15,0.02,0.04c0,0.03,0,0.06,0,0.09c0.01,0.11,0.04-0.07-0.01,0.03
			c-0.01,0.03-0.06,0.12-0.01,0.04c-0.15,0.23-0.32,0.36-0.59,0.36c-0.22,0-0.36-0.03-0.59-0.11c-0.21-0.07-0.36-0.14-0.57-0.25
			c-0.24-0.11-0.55-0.07-0.68,0.18C93.54,15.04,93.59,15.38,93.84,15.5L93.84,15.5z"/>
	</g>
</g>
<g>
	<g>
		<path class="st1" d="M98.36,15.73c0,0.18-0.01,0.35-0.01,0.53c-0.01,0.56,0.84,0.68,0.98,0.13c0.14-0.51,0.03-0.99,0-1.5
			c-0.01-0.1-0.01-0.19,0-0.28c0.01-0.1-0.02,0.08,0-0.02c0.01-0.04,0.02-0.09,0.03-0.13c0.01-0.04,0.03-0.08,0.04-0.13
			c-0.03,0.08-0.01,0.03,0.01-0.02c0.02-0.03,0.04-0.06,0.06-0.09c0.05-0.07,0,0-0.01,0.02c0.02-0.02,0.03-0.04,0.05-0.05
			c0.01-0.01,0.03-0.02,0.04-0.04c0.04-0.05-0.03,0.03-0.03,0.03c0-0.03,0.15-0.05,0.06-0.04c-0.06,0.01-0.02,0.01,0.01,0
			c0.02-0.01,0.05-0.03,0,0c-0.08,0.04,0.07-0.03,0.08,0c0,0.01-0.13-0.03-0.03,0c0.01,0,0.04,0.01,0.05,0.01
			c0.06,0-0.05,0-0.04-0.02c0,0,0.04,0.02,0.04,0.02c0.01,0.01,0.03,0.02,0.04,0.03c0.03,0.02,0.02,0.03,0,0
			c-0.02-0.05-0.01-0.01,0.01,0.02c0.01,0.02,0.03,0.04,0.05,0.05c0.04,0.03-0.02-0.03-0.02-0.03c0.01,0.01,0.02,0.03,0.03,0.04
			c0.02,0.04,0.05,0.07,0.07,0.11c0.02,0.03,0.03,0.07,0.05,0.1c0.01,0.01,0.03,0.07,0,0.01c-0.02-0.06,0.01,0.02,0.01,0.03
			c0.03,0.08,0.05,0.16,0.07,0.24c0.02,0.07,0.06,0.19,0.05,0.26c0-0.01-0.01-0.11,0-0.03c0,0.04,0.01,0.07,0.01,0.11
			c0.01,0.07,0.02,0.15,0.02,0.22c0.01,0.13,0.03,0.26,0.04,0.39c0.02,0.29,0.04,0.57,0.05,0.86c0.01,0.26,0.22,0.51,0.5,0.5
			c0.26-0.01,0.51-0.22,0.5-0.5c-0.02-0.59-0.06-1.19-0.15-1.78c-0.06-0.43-0.22-0.86-0.5-1.2c-0.34-0.41-0.91-0.53-1.39-0.3
			c-0.42,0.2-0.68,0.67-0.76,1.11c-0.05,0.3-0.03,0.58,0,0.88c0.02,0.16,0.04,0.32,0.04,0.49c0,0.07,0,0.14,0,0.21
			c0,0.1,0,0.05,0,0.03c-0.01,0.05-0.02,0.1-0.04,0.16c0.33,0.04,0.65,0.09,0.98,0.13c0-0.18,0.01-0.35,0.01-0.53
			c0.01-0.26-0.23-0.51-0.5-0.5C98.59,15.24,98.37,15.45,98.36,15.73L98.36,15.73z"/>
	</g>
</g>
<g>
	<g>
		<path class="st1" d="M105.09,12.34c-0.35,0.09-0.69,0.21-1.02,0.36c-0.32,0.14-0.66,0.32-0.77,0.68
			c-0.23,0.75,0.76,1.13,1.18,1.49c0.2,0.17,0.31,0.31,0.35,0.54c-0.02-0.11-0.01,0.16,0.01,0.04c-0.01,0.03-0.01,0.07-0.02,0.1
			c0.02-0.04,0.02-0.03-0.01,0.02c-0.03,0.05-0.11,0.13-0.17,0.16c-0.49,0.29-0.99,0.36-1.52,0.18c-0.26-0.08-0.55,0.1-0.62,0.35
			c-0.07,0.27,0.09,0.53,0.35,0.62c0.67,0.22,1.41,0.16,2.04-0.14c0.65-0.3,1.08-0.9,0.9-1.63c-0.17-0.68-0.74-1.06-1.28-1.43
			c-0.08-0.06-0.21-0.18-0.26-0.2c0.04,0.11,0.03,0.2-0.02,0.28c-0.03,0.02-0.02,0.02,0.03-0.01c0.07-0.04,0.14-0.08,0.22-0.11
			c0.28-0.14,0.59-0.24,0.9-0.32c0.26-0.07,0.42-0.36,0.35-0.62C105.63,12.42,105.35,12.27,105.09,12.34L105.09,12.34z"/>
	</g>
</g>
<g>
	<g>
		<path class="st1" d="M107.5,14.54c0.04,1.21,1.11,2.35,2.37,2.22c0.67-0.07,1.3-0.5,1.45-1.19c0.14-0.67-0.21-1.26-0.78-1.6
			c-0.29-0.17-0.62-0.26-0.95-0.33c-0.16-0.03-0.33-0.06-0.49-0.09c-0.08-0.02-0.16-0.04-0.24-0.06c-0.04-0.01-0.08-0.02-0.12-0.04
			c-0.02-0.01-0.05-0.02-0.07-0.03c0.04,0.02,0.04,0.02-0.02-0.01c-0.04,0.3-0.08,0.61-0.12,0.91c0.17-0.05,0.35-0.1,0.52-0.14
			c0.25-0.07,0.43-0.36,0.35-0.62c-0.08-0.26-0.35-0.42-0.62-0.35c-0.17,0.05-0.35,0.1-0.52,0.14c-0.19,0.05-0.33,0.22-0.36,0.42
			c-0.02,0.18,0.06,0.42,0.24,0.5c0.26,0.12,0.53,0.2,0.81,0.26c0.24,0.05,0.49,0.08,0.73,0.15c0.05,0.01,0.1,0.03,0.15,0.05
			c0.02,0.01,0.04,0.01,0.06,0.02c-0.09-0.03-0.03-0.01-0.01,0c0.1,0.05,0.19,0.1,0.28,0.16c-0.08-0.06,0.01,0.01,0.04,0.04
			c0.03,0.03,0.06,0.07,0.09,0.1c-0.07-0.09,0.01,0.03,0.03,0.06c0.02,0.03,0.02,0.08,0-0.01c0.01,0.02,0.02,0.05,0.02,0.08
			c0.03,0.08,0.01,0.01,0-0.01c0,0.03,0,0.05,0,0.08c0,0.03,0,0.05,0,0.08c0-0.01,0.02-0.08,0-0.03c-0.02,0.04-0.03,0.09-0.04,0.14
			c0.03-0.09,0.01-0.03,0-0.01c-0.02,0.03-0.04,0.06-0.05,0.09c-0.03,0.06,0.05-0.05,0,0c-0.01,0.02-0.03,0.03-0.04,0.05
			c-0.02,0.02-0.04,0.04-0.06,0.06c-0.02,0.02-0.07,0.05,0,0c-0.04,0.03-0.09,0.05-0.13,0.08c-0.05,0.03,0,0,0.01,0
			c-0.04,0.02-0.09,0.03-0.13,0.04c-0.02,0.01-0.05,0.01-0.07,0.02c-0.07,0.02,0.07,0,0,0c-0.05,0-0.11,0.01-0.16,0.01
			c-0.03,0-0.06,0-0.09,0c-0.02,0-0.09-0.02-0.01,0c-0.06-0.01-0.12-0.02-0.18-0.04c-0.03-0.01-0.06-0.02-0.09-0.03
			c-0.01,0-0.07-0.03-0.02,0c0.06,0.02-0.02-0.01-0.03-0.02c-0.02-0.01-0.05-0.02-0.07-0.04c-0.04-0.02-0.08-0.05-0.12-0.07
			c-0.02-0.01-0.04-0.03-0.07-0.05c0.04,0.02,0.05,0.04,0.01,0c-0.09-0.08-0.17-0.17-0.25-0.26c0.07,0.08-0.02-0.03-0.04-0.06
			c-0.03-0.05-0.06-0.1-0.09-0.16c-0.01-0.02-0.02-0.04-0.03-0.05c-0.06-0.11,0.02,0.06,0-0.01c-0.02-0.06-0.04-0.11-0.06-0.17
			c-0.01-0.05-0.02-0.11-0.03-0.16c0.02,0.1,0,0.04,0,0.01c0-0.04-0.01-0.08-0.01-0.12c-0.01-0.26-0.22-0.51-0.5-0.5
			C107.74,14.05,107.49,14.26,107.5,14.54L107.5,14.54z"/>
	</g>
</g>
<g>
	<g>
		<path class="st1" d="M113.37,15.59c-0.02-0.03-0.04-0.07-0.06-0.11c-0.01-0.01-0.06-0.11-0.03-0.05c0.03,0.06-0.01-0.04-0.02-0.05
			c-0.01-0.04-0.03-0.08-0.04-0.12c-0.01-0.04-0.02-0.08-0.03-0.12c0-0.02-0.02-0.13-0.01-0.05c0.01,0.07,0-0.04,0-0.05
			c0-0.04,0-0.08,0-0.12c0-0.03,0-0.07,0-0.1c0-0.02,0-0.04,0.01-0.06c0,0.02,0,0.03-0.01,0.05c-0.01-0.06,0.03-0.16,0.05-0.22
			c0.01-0.03,0.02-0.06,0.03-0.1c0.04-0.12-0.05,0.09,0.01-0.03c0.03-0.07,0.07-0.13,0.11-0.19c0.02-0.03,0.03-0.06,0.05-0.08
			c-0.09,0.09,0.01,0,0.02-0.02c0.04-0.05,0.09-0.09,0.14-0.13c0.02-0.02,0.09-0.1,0.02-0.02c0.02-0.02,0.05-0.04,0.08-0.05
			c0.06-0.04,0.12-0.07,0.18-0.1c0.01-0.01,0.11-0.05,0.04-0.02c-0.07,0.03,0.03-0.01,0.05-0.02c0.07-0.02,0.15-0.04,0.22-0.06
			c0.02,0,0.12-0.02,0.05-0.01c-0.08,0.01,0.03,0,0.05,0c0.08,0,0.15,0,0.23,0c0.26,0.02,0.51-0.24,0.5-0.5
			c-0.01-0.29-0.22-0.48-0.5-0.5c-0.78-0.05-1.55,0.36-1.98,1.01c-0.45,0.69-0.44,1.63-0.01,2.33c0.14,0.22,0.45,0.33,0.68,0.18
			C113.41,16.13,113.51,15.83,113.37,15.59L113.37,15.59z"/>
	</g>
</g>
<g>
	<g>
		<path class="st1" d="M118.07,12.47c-0.46,0.1-0.9,0.3-1.28,0.58c-0.26,0.19-0.34,0.53-0.1,0.79c0.29,0.3,0.57,0.61,0.82,0.94
			c0.12,0.15,0.24,0.31,0.34,0.48c0.05,0.08,0.1,0.15,0.12,0.22c-0.01-0.05,0.02,0.01,0,0.03c0,0,0-0.09,0.02-0.07
			c0.01,0.01-0.13,0.1-0.15,0.12c-0.08,0.05-0.16,0.1-0.25,0.14c-0.15,0.08-0.28,0.12-0.47,0.17c-0.21,0.06-0.33,0.08-0.52,0.09
			c-0.17,0.01-0.41,0-0.53-0.02c-0.27-0.04-0.54,0.07-0.62,0.35c-0.07,0.24,0.08,0.57,0.35,0.62c0.54,0.08,1.08,0.07,1.61-0.07
			c0.49-0.14,1.1-0.39,1.4-0.82c0.38-0.55,0-1.13-0.34-1.58c-0.33-0.45-0.69-0.88-1.08-1.29c-0.03,0.26-0.07,0.52-0.1,0.79
			c0.34-0.25,0.65-0.39,1.04-0.48c0.26-0.06,0.42-0.36,0.35-0.62C118.61,12.55,118.33,12.41,118.07,12.47L118.07,12.47z"/>
	</g>
</g>
<g>
	<g>
		<path class="st1" d="M191.66,2.45c-1.12-0.48-2.5,0.07-2.9,1.26c-0.19,0.58-0.05,1.27,0.36,1.72c0.47,0.52,1.26,0.54,1.84,0.19
			c0.71-0.43,0.97-1.23,1.15-1.99c-0.32-0.09-0.64-0.18-0.96-0.27c-0.11,0.7,0.11,1.42,0.68,1.88c0.6,0.48,1.4,0.54,2.1,0.22
			c0.25-0.11,0.31-0.47,0.18-0.68c-0.15-0.25-0.44-0.29-0.68-0.18c-0.64,0.3-1.41-0.29-1.3-0.97c0.04-0.27-0.07-0.54-0.35-0.62
			c-0.25-0.07-0.55,0.09-0.62,0.35c-0.12,0.49-0.23,1.11-0.69,1.4c-0.18,0.12-0.38,0.14-0.52,0.06c-0.06-0.03-0.1-0.07-0.13-0.13
			c-0.08-0.11-0.08-0.15-0.11-0.27c-0.08-0.33,0.11-0.71,0.39-0.91c0.19-0.14,0.34-0.2,0.58-0.24c0.12-0.02,0.38,0,0.49,0.05
			c0.25,0.11,0.54,0.07,0.68-0.18C191.97,2.92,191.91,2.55,191.66,2.45L191.66,2.45z"/>
	</g>
</g>
<g>
	<g>
		<path class="st1" d="M194.49,0.63c0.2,1.39,0.38,2.78,0.54,4.18c0.31-0.08,0.62-0.17,0.93-0.25c-0.15-0.3,0.01-0.69,0.27-0.9
			c0.32-0.26,0.76-0.21,1.1-0.02c0.19,0.11,0.35,0.25,0.47,0.43c0.02,0.04,0.05,0.08,0.07,0.12c0.02,0.05,0.02-0.05,0.01-0.01
			c-0.02,0.08-0.17,0.17-0.23,0.22c-0.48,0.36-1.02,0.64-1.58,0.84c-0.25,0.09-0.42,0.34-0.35,0.62c0.07,0.25,0.36,0.44,0.62,0.35
			c0.44-0.15,0.86-0.34,1.26-0.57c0.36-0.21,0.77-0.46,1.04-0.8c0.62-0.77-0.14-1.72-0.86-2.1c-0.73-0.38-1.62-0.36-2.25,0.21
			c-0.59,0.53-0.78,1.4-0.43,2.11c0.21,0.43,0.99,0.24,0.93-0.25c-0.17-1.48-0.36-2.96-0.58-4.44c-0.04-0.27-0.38-0.41-0.62-0.35
			C194.56,0.09,194.46,0.36,194.49,0.63L194.49,0.63z"/>
	</g>
</g>
<g>
	<g>
		<path class="st1" d="M201.35,2.01c-0.51,0.18-0.97,0.47-1.34,0.87c-0.18,0.2-0.2,0.5,0,0.71c0.34,0.35,0.8,0.34,1.26,0.37
			c0.05,0,0.11,0.01,0.03,0c0.05,0.01,0.1,0.02,0.15,0.03c0.1,0.02-0.07-0.05,0.02,0.01c0.02,0.01,0.04,0.02,0.06,0.04
			c-0.06-0.05-0.07-0.05-0.03-0.01c0.07,0.07-0.04-0.09,0,0c0.01,0.02,0.02,0.04,0.03,0.06c-0.03-0.07-0.03-0.08-0.02-0.05
			c0.01,0.04,0.02,0.08,0.03,0.11c0.02,0.09,0.01-0.11,0,0.02c0,0.02,0.01,0.11,0,0.12c0.01-0.08,0.01-0.08,0-0.03
			c0,0.01,0,0.02-0.01,0.03c-0.01,0.03-0.02,0.12-0.04,0.14c0.03-0.06,0.03-0.07,0.02-0.04c-0.01,0.02-0.02,0.03-0.02,0.05
			c-0.02,0.04-0.05,0.08-0.07,0.12c0.04-0.06,0.03-0.04-0.01,0.01c-0.01,0.01-0.11,0.09-0.07,0.06c0.04-0.03-0.08,0.05-0.1,0.06
			c-0.04,0.02-0.08,0.04-0.12,0.06c0.1-0.05-0.07,0.02-0.09,0.03c-0.1,0.03-0.2,0.06-0.31,0.08c-0.05,0.01-0.09,0.02-0.14,0.02
			c0.11-0.02-0.08,0.01-0.1,0.01c-0.11,0.01-0.21,0.02-0.32,0.03c-0.26,0.02-0.51,0.22-0.5,0.5c0.01,0.26,0.22,0.52,0.5,0.5
			c0.79-0.06,1.77-0.18,2.18-0.97c0.18-0.34,0.26-0.76,0.14-1.14c-0.13-0.4-0.45-0.71-0.87-0.79c-0.22-0.04-0.43-0.05-0.65-0.06
			c-0.05,0-0.09-0.01-0.14-0.01c0.1,0.01,0.01,0-0.03-0.01c-0.02,0-0.04-0.01-0.05-0.02c0.03,0,0.08,0.02,0.02,0.01
			c0,0-0.08-0.03-0.01,0c0.05,0.02-0.01-0.01-0.03-0.03c0,0.24,0,0.47,0,0.71c0.07-0.08,0.15-0.16,0.23-0.23
			c0.04-0.03,0.07-0.06,0.11-0.09c-0.07,0.06,0.05-0.04,0.07-0.05c0.08-0.06,0.17-0.11,0.26-0.15c0.04-0.02,0.08-0.04,0.13-0.06
			c-0.09,0.04,0.08-0.03,0.1-0.04c0.25-0.09,0.44-0.35,0.35-0.62C201.89,2.12,201.61,1.91,201.35,2.01L201.35,2.01z"/>
	</g>
</g>
<g>
	<g>
		<path class="st1" d="M204.45,1.69c0.04,1.18,0.21,2.35,0.53,3.48c0.07,0.26,0.35,0.42,0.62,0.35c0.26-0.07,0.42-0.35,0.35-0.62
			c-0.3-1.06-0.46-2.12-0.49-3.22c-0.01-0.26-0.22-0.51-0.5-0.5C204.69,1.2,204.44,1.41,204.45,1.69L204.45,1.69z"/>
	</g>
</g>
<g>
	<g>
		<path class="st1" d="M204.13,3.38c1.1-0.04,2.21-0.09,3.31-0.13c0.26-0.01,0.51-0.22,0.5-0.5c-0.01-0.26-0.22-0.51-0.5-0.5
			c-1.1,0.04-2.21,0.09-3.31,0.13c-0.26,0.01-0.51,0.22-0.5,0.5C203.64,3.14,203.85,3.39,204.13,3.38L204.13,3.38z"/>
	</g>
</g>
<g>
	<g>
		<path class="st1" d="M210.07,4.98c-0.04-0.13-0.08-0.26-0.11-0.4c-0.02-0.07-0.03-0.13-0.04-0.2c-0.01-0.03-0.01-0.07-0.02-0.1
			c0-0.02-0.01-0.03-0.01-0.05c-0.01-0.07,0.01,0.01,0,0.03c0-0.13-0.02-0.27-0.01-0.4c0-0.03,0.01-0.06,0.01-0.09
			c0-0.06-0.01,0.06-0.01,0.06c0.01-0.01,0.01-0.03,0.01-0.05c0.01-0.07,0.03-0.13,0.05-0.19c0.03-0.09-0.05,0.09,0,0.01
			c0.01-0.03,0.03-0.05,0.04-0.08c0.01-0.02,0.04-0.05,0.05-0.08c0,0-0.07,0.08-0.03,0.04c0.01-0.02,0.03-0.03,0.04-0.05
			c0.03-0.03,0.05-0.05,0.08-0.08c0.07-0.06-0.08,0.05-0.01,0c0.03-0.02,0.05-0.03,0.08-0.05c0.02-0.01,0.12-0.06,0.05-0.03
			c-0.08,0.03,0.02-0.01,0.04-0.01c0.03-0.01,0.06-0.02,0.09-0.02c0.03-0.01,0.06-0.01,0.09-0.02c0.11-0.02-0.08,0.01,0,0
			c0.13-0.01,0.26-0.01,0.39,0c0.04,0,0.08,0.01,0.11,0.01c0,0-0.11-0.02-0.05-0.01c0.02,0,0.04,0.01,0.06,0.01
			c0.08,0.01,0.15,0.03,0.23,0.04c0.15,0.03,0.3,0.08,0.45,0.12c0.25,0.08,0.56-0.09,0.62-0.35c0.06-0.27-0.08-0.53-0.35-0.62
			c-0.61-0.18-1.34-0.35-1.96-0.11c-0.36,0.14-0.67,0.37-0.86,0.72c-0.17,0.32-0.24,0.69-0.22,1.05c0.02,0.39,0.11,0.77,0.22,1.14
			c0.08,0.25,0.35,0.43,0.62,0.35C209.98,5.52,210.16,5.25,210.07,4.98L210.07,4.98z"/>
	</g>
</g>
<g>
	<g>
		<path class="st1" d="M215.93,3.38c-0.34-0.41-0.95-0.53-1.45-0.38c-0.54,0.17-0.93,0.63-1.08,1.17c-0.14,0.5-0.11,1.13,0.2,1.57
			c0.39,0.53,1.04,0.65,1.61,0.35c0.6-0.31,0.82-0.98,0.98-1.59c-0.33-0.04-0.65-0.09-0.98-0.13c0.06,0.58,0.38,1.07,0.89,1.35
			c0.51,0.28,1.1,0.31,1.62,0.05c0.24-0.12,0.31-0.46,0.18-0.68c-0.14-0.25-0.44-0.3-0.68-0.18c-0.11,0.06,0.08-0.01-0.04,0.02
			c-0.04,0.01-0.08,0.02-0.13,0.03c0.07-0.02,0.03,0-0.02,0c-0.04,0-0.07,0-0.11,0c-0.11,0,0.06,0.02-0.04,0
			c-0.04-0.01-0.09-0.02-0.13-0.03c-0.01,0-0.12-0.04-0.07-0.02c0.05,0.02-0.07-0.03-0.08-0.04c-0.03-0.02-0.06-0.04-0.1-0.06
			c-0.11-0.06,0.05,0.06-0.04-0.03c-0.03-0.03-0.07-0.06-0.1-0.09c-0.01-0.01-0.08-0.1-0.05-0.05c0.04,0.05-0.03-0.05-0.04-0.06
			c-0.02-0.04-0.04-0.08-0.06-0.12c0.04,0.1-0.01-0.03-0.01-0.04c-0.01-0.02-0.02-0.15-0.01-0.04c-0.03-0.25-0.17-0.46-0.43-0.49
			c-0.24-0.03-0.49,0.11-0.55,0.36c-0.05,0.21-0.11,0.46-0.19,0.62c-0.1,0.2-0.17,0.29-0.33,0.38c-0.1,0.06,0.04,0-0.07,0.03
			c-0.15,0.04,0.09,0-0.07,0.01c-0.06,0-0.07,0-0.03,0c0.03,0.01,0.02,0-0.03-0.01c0.07,0.04-0.06-0.03-0.06-0.04
			c0.08,0.06-0.05-0.07,0,0c-0.03-0.04-0.06-0.09-0.08-0.13c0.03,0.07-0.02-0.07-0.02-0.08c0,0-0.03-0.16-0.02-0.07
			c-0.02-0.1-0.01-0.21,0-0.32c0.01-0.1-0.01,0.02,0.01-0.08c0.01-0.05,0.03-0.1,0.04-0.15c0.02-0.09-0.01,0.01,0.03-0.08
			c0.02-0.05,0.05-0.09,0.08-0.14c0.04-0.07-0.02,0,0.05-0.06c0.01-0.01,0.11-0.1,0.06-0.06c0.04-0.03,0.08-0.05,0.12-0.07
			c-0.07,0.04,0.04-0.01,0.06-0.02c0.01,0,0.13-0.03,0.07-0.02c-0.05,0.01,0.08,0,0.1,0c0.02,0,0.05,0,0.07,0
			c-0.05-0.01-0.05-0.01-0.02,0c0.02,0,0.14,0.05,0.09,0.03c-0.07-0.03,0.11,0.07,0.05,0.03c-0.03-0.02-0.02-0.01,0.02,0.02
			c0.02,0.02,0.04,0.05,0.06,0.07c0.17,0.21,0.53,0.18,0.71,0C216.13,3.88,216.1,3.58,215.93,3.38L215.93,3.38z"/>
	</g>
</g>
<g>
	<g>
		<path class="st1" d="M220.95,2.65c-0.72,0.16-1.61,0.47-1.94,1.2c-0.2,0.44-0.19,0.96,0.09,1.37c0.26,0.39,0.68,0.68,1.14,0.78
			c0.63,0.13,1.26-0.01,1.87-0.18c0.25-0.07,0.43-0.36,0.35-0.62c-0.08-0.26-0.34-0.42-0.62-0.35c-0.21,0.06-0.41,0.11-0.62,0.15
			c-0.06,0.01-0.11,0.02-0.17,0.03c-0.06,0.01,0,0,0.01,0c-0.02,0-0.05,0.01-0.07,0.01c-0.11,0.01-0.23,0.01-0.34,0.01
			c-0.02,0-0.05,0-0.07-0.01c0,0-0.08-0.01-0.03,0c0.05,0.01-0.03-0.01-0.03-0.01c-0.02-0.01-0.05-0.01-0.07-0.02
			c-0.04-0.01-0.07-0.02-0.11-0.03c-0.02-0.01-0.03-0.01-0.05-0.02c-0.06-0.02,0.08,0.04,0.02,0.01c-0.07-0.04-0.14-0.08-0.21-0.12
			c-0.08-0.05,0.05,0.05-0.01-0.01c-0.04-0.03-0.07-0.07-0.1-0.1c-0.06-0.07,0.04,0.07-0.01-0.01c-0.02-0.03-0.05-0.07-0.06-0.11
			c0-0.01-0.02-0.04-0.02-0.05c0.01,0,0.03,0.09,0.02,0.04c-0.01-0.04-0.02-0.08-0.03-0.12c-0.02-0.07,0.02,0.01,0,0.03
			c0,0,0-0.05,0-0.05c0-0.03,0-0.07,0-0.1c0-0.05,0,0.05-0.01,0.06c0,0,0.01-0.04,0.01-0.05c0.01-0.03,0.06-0.14,0.02-0.07
			c-0.04,0.07,0.01-0.02,0.02-0.03c0.02-0.03,0.04-0.06,0.06-0.09c0.05-0.07-0.06,0.07,0,0.01c0.03-0.03,0.05-0.05,0.08-0.08
			c0.01-0.01,0.08-0.07,0.08-0.07c0,0-0.08,0.06-0.04,0.03c0.01-0.01,0.03-0.02,0.04-0.03c0.06-0.04,0.13-0.08,0.2-0.12
			c0.04-0.02,0.07-0.04,0.11-0.05c0.02-0.01,0.15-0.06,0.08-0.04c-0.07,0.03,0.05-0.02,0.07-0.03c0.04-0.01,0.08-0.03,0.12-0.04
			c0.17-0.06,0.34-0.1,0.51-0.14c0.26-0.06,0.43-0.37,0.35-0.62C221.48,2.73,221.23,2.59,220.95,2.65L220.95,2.65z"/>
	</g>
</g>
<g>
	<g>
		<path class="st1" d="M224.17,0.76c0.26,1.35,0.28,2.75,0.04,4.11c-0.05,0.27,0.07,0.54,0.35,0.62c0.24,0.07,0.57-0.08,0.62-0.35
			c0.27-1.54,0.26-3.1-0.04-4.64c-0.05-0.27-0.37-0.42-0.62-0.35C224.24,0.22,224.12,0.5,224.17,0.76L224.17,0.76z"/>
	</g>
</g>
<g>
	<g>
		<path class="st1" d="M223.6,2.72c0.97,0.09,1.94,0.18,2.91,0.26c0.26,0.02,0.51-0.25,0.5-0.5c-0.01-0.29-0.22-0.47-0.5-0.5
			c-0.97-0.09-1.94-0.18-2.91-0.26c-0.26-0.02-0.51,0.25-0.5,0.5C223.12,2.51,223.32,2.69,223.6,2.72L223.6,2.72z"/>
	</g>
</g>
<g>
	<g>
		<path class="st1" d="M192.34,12.79c0.46,0.94,1.26,1.72,2.22,2.14c0.36,0.16,0.72-0.03,0.75-0.43c0.1-1.09,0.2-2.18,0.3-3.27
			c0.02-0.26-0.25-0.51-0.5-0.5c-0.29,0.01-0.47,0.22-0.5,0.5c-0.1,1.09-0.2,2.18-0.3,3.27c0.25-0.14,0.5-0.29,0.75-0.43
			c-0.22-0.1-0.42-0.21-0.62-0.34c-0.2-0.13-0.28-0.2-0.47-0.38c-0.35-0.33-0.55-0.61-0.77-1.06c-0.12-0.24-0.46-0.31-0.68-0.18
			C192.27,12.25,192.22,12.55,192.34,12.79L192.34,12.79z"/>
	</g>
</g>
<g>
	<g>
		<path class="st1" d="M196.58,13.81c0.79,0.33,1.84,0.36,2.6-0.06c0.38-0.22,0.69-0.59,0.71-1.04c0.02-0.42-0.23-0.8-0.59-1.01
			c-0.71-0.42-1.65-0.18-2.2,0.4c-0.6,0.64-0.65,1.64-0.04,2.29c0.34,0.37,0.86,0.5,1.35,0.45c0.25-0.03,0.49-0.08,0.73-0.13
			c0.12-0.03,0.23-0.05,0.35-0.07c-0.1,0.01,0.06,0,0.07-0.01c0.07,0,0.13-0.01,0.2,0c0.26,0.01,0.51-0.23,0.5-0.5
			c-0.01-0.28-0.22-0.49-0.5-0.5c-0.35-0.01-0.69,0.07-1.03,0.15c-0.08,0.02-0.16,0.04-0.25,0.05c-0.03,0.01-0.07,0.01-0.1,0.02
			c0.09-0.01-0.02,0-0.04,0c-0.07,0.01-0.14,0.01-0.22,0c-0.1,0-0.03,0-0.01,0c-0.06-0.01-0.11-0.02-0.16-0.04
			c-0.06-0.02-0.11-0.06-0.17-0.12c-0.02-0.02-0.07-0.09-0.01-0.01c-0.02-0.02-0.03-0.04-0.05-0.07c-0.02-0.03-0.03-0.06-0.05-0.09
			c-0.02-0.03-0.01-0.02,0.01,0.03c-0.01-0.02-0.01-0.04-0.02-0.06c-0.02-0.06-0.03-0.12-0.04-0.18c0.02,0.12,0-0.05,0-0.09
			c0-0.03,0.02-0.12,0-0.01c0-0.03,0.01-0.05,0.02-0.08c0.01-0.03,0.02-0.07,0.03-0.1c0.01-0.03,0.01-0.03-0.01,0.02
			c0.01-0.02,0.02-0.04,0.03-0.06c0.03-0.06,0.06-0.11,0.1-0.16c-0.06,0.08,0,0,0.02-0.02c0.02-0.03,0.05-0.05,0.08-0.08
			c0.02-0.02,0.15-0.11,0.07-0.06c0.07-0.04,0.13-0.09,0.21-0.12c0.02-0.01,0.11-0.04,0.02-0.01c0.03-0.01,0.05-0.02,0.08-0.03
			c0.03-0.01,0.24-0.05,0.1-0.03c0.05,0,0.1-0.01,0.15-0.01c0.01,0,0.13,0,0.05,0c-0.07,0,0.07,0.01,0.09,0.02
			c0.05,0.01,0.1,0.03,0.14,0.05c-0.12-0.05,0.05,0.04,0.08,0.05c-0.02-0.01-0.08-0.07-0.02-0.01c0.01,0.01,0.09,0.07,0.03,0.03
			c-0.05-0.04,0.01,0.02,0.02,0.03c0.05,0.08-0.03-0.09,0,0.01c0.02,0.07,0-0.03,0-0.03c0.01,0.01,0,0.06,0,0.08
			c0-0.11,0.01-0.04-0.01,0c-0.03,0.07,0.07-0.09,0,0c-0.01,0.02-0.03,0.04-0.04,0.06c0.06-0.09,0.01-0.02-0.01,0
			c-0.03,0.02-0.05,0.05-0.08,0.07c0.07-0.05,0,0-0.04,0.02c-0.02,0.01-0.05,0.03-0.07,0.04c-0.02,0.01-0.14,0.06-0.03,0.02
			c-0.07,0.03-0.15,0.05-0.22,0.07c-0.04,0.01-0.09,0.02-0.13,0.03c-0.02,0-0.16,0.02-0.08,0.01c-0.09,0.01-0.18,0.02-0.27,0.02
			c-0.1,0-0.2,0-0.29-0.01c-0.04,0-0.09-0.01-0.13-0.01c0.08,0.01-0.07-0.01-0.08-0.02c-0.19-0.04-0.38-0.1-0.56-0.17
			c-0.24-0.1-0.56,0.11-0.62,0.35C196.17,13.49,196.32,13.71,196.58,13.81L196.58,13.81z"/>
	</g>
</g>
<g>
	<g>
		<path class="st1" d="M203.34,11.28c-0.45,0.08-0.9,0.24-1.3,0.46c-0.4,0.22-0.81,0.5-1.06,0.89c-0.15,0.24-0.21,0.51-0.16,0.78
			c0.05,0.28,0.24,0.5,0.47,0.66c0.37,0.26,0.83,0.43,1.26,0.54c0.51,0.14,1.06,0.19,1.59,0.16c0.26-0.02,0.51-0.22,0.5-0.5
			c-0.01-0.26-0.22-0.52-0.5-0.5c-0.24,0.02-0.49,0.01-0.73-0.01c-0.03,0-0.06-0.01-0.1-0.01c0.05,0.01,0.05,0.01-0.01,0
			c-0.05-0.01-0.1-0.02-0.14-0.02c-0.13-0.02-0.26-0.05-0.38-0.09c-0.11-0.03-0.22-0.07-0.33-0.11c-0.02-0.01-0.19-0.07-0.11-0.04
			c-0.05-0.02-0.09-0.04-0.13-0.06c-0.11-0.05-0.23-0.11-0.33-0.18c-0.02-0.01-0.1-0.09-0.04-0.02c-0.02-0.02-0.04-0.04-0.06-0.06
			c0.04,0.05,0.04,0.05,0.01,0c0.02,0.06,0.03,0.06,0.01,0.01c0.01,0.07,0.01,0.08,0.01,0.02c-0.01,0.09,0,0.04,0.01-0.02
			c-0.03,0.11,0.03-0.04,0.04-0.07c0.03-0.05,0.03-0.05,0,0c0.02-0.02,0.04-0.04,0.06-0.07c0.03-0.03,0.06-0.06,0.09-0.09
			c0.01-0.01,0.15-0.12,0.08-0.06c0.09-0.07,0.18-0.13,0.27-0.19c0.11-0.07,0.22-0.13,0.33-0.18c0.04-0.02,0.09-0.04,0.13-0.06
			c-0.09,0.04,0.08-0.03,0.1-0.04c0.22-0.08,0.45-0.14,0.69-0.18c0.26-0.05,0.43-0.37,0.35-0.62
			C203.86,11.35,203.61,11.23,203.34,11.28L203.34,11.28z"/>
	</g>
</g>
<g>
	<g>
		<path class="st1" d="M206.16,10.96c0.25,1.02,0.37,2,0.38,3.05c0,0.26,0.23,0.51,0.5,0.5c0.27-0.01,0.5-0.22,0.5-0.5
			c-0.01-1.11-0.15-2.23-0.42-3.31c-0.06-0.25-0.36-0.43-0.62-0.35C206.25,10.43,206.1,10.69,206.16,10.96L206.16,10.96z"/>
	</g>
</g>
<g>
	<g>
		<path class="st1" d="M206.12,12.37c0.97-0.18,1.94-0.35,2.91-0.53c0.26-0.05,0.43-0.37,0.35-0.62c-0.09-0.28-0.34-0.4-0.62-0.35
			c-0.97,0.18-1.94,0.35-2.91,0.53c-0.26,0.05-0.43,0.37-0.35,0.62C205.59,12.3,205.84,12.42,206.12,12.37L206.12,12.37z"/>
	</g>
</g>
<g>
	<g>
		<path class="st1" d="M210.7,12.63c-0.32,0.49-0.27,1.17,0.04,1.66c0.34,0.54,0.94,0.84,1.58,0.7c0.57-0.13,1.02-0.63,1.16-1.18
			c0.08-0.28,0.08-0.61-0.03-0.89c-0.12-0.32-0.34-0.57-0.62-0.77c-0.53-0.37-1.24-0.42-1.86-0.44c-0.21,0-0.43,0.16-0.48,0.37
			c-0.05,0.2,0.03,0.47,0.23,0.56c0.15,0.07,0.29,0.13,0.44,0.2c0.24,0.11,0.55,0.08,0.68-0.18c0.12-0.22,0.07-0.57-0.18-0.68
			c-0.15-0.07-0.29-0.13-0.44-0.2c-0.08,0.31-0.17,0.62-0.25,0.93c0.11,0,0.21,0.01,0.32,0.01c0.05,0,0.11,0.01,0.16,0.01
			c0.03,0,0.05,0.01,0.08,0.01c0.02,0,0.03,0,0.05,0.01c0.06,0.01,0.04,0.01-0.04-0.01c0.03,0.02,0.12,0.02,0.16,0.03
			c0.05,0.01,0.09,0.02,0.14,0.03c0.05,0.01,0.1,0.03,0.15,0.04c0.02,0.01,0.05,0.02,0.07,0.02c0.01,0.01,0.03,0.01,0.04,0.02
			c0.04,0.01,0.02,0.01-0.05-0.02c0.03,0.03,0.09,0.04,0.14,0.07c0.04,0.02,0.08,0.05,0.13,0.08c0.08,0.05-0.06-0.06-0.02-0.02
			c0.02,0.02,0.04,0.03,0.06,0.05c0.01,0.01,0.03,0.03,0.04,0.04c0.01,0.01,0.03,0.03,0.04,0.04c0.03,0.04,0.03,0.03-0.02-0.03
			c0,0.02,0.06,0.1,0.07,0.12c0.03,0.04,0.01,0.08-0.01-0.03c0,0.02,0.01,0.04,0.02,0.05c0.01,0.04,0.02,0.09,0.03,0.13
			c-0.04-0.11-0.01-0.09-0.01-0.02c0,0.03,0,0.05,0,0.08c0,0.02,0,0.05,0,0.07c0,0.07,0.03-0.13,0-0.04
			c-0.01,0.05-0.02,0.09-0.03,0.13c-0.01,0.02-0.01,0.04-0.02,0.05c-0.03,0.1,0.06-0.11,0.01-0.02c-0.02,0.05-0.05,0.09-0.08,0.13
			c-0.01,0.02-0.03,0.04-0.04,0.06c0.02-0.07,0.06-0.07,0.03-0.03c-0.03,0.03-0.06,0.07-0.1,0.1c-0.02,0.02-0.05,0.04-0.06,0.06
			c0-0.01,0.1-0.07,0.04-0.03c-0.05,0.03-0.09,0.06-0.14,0.08c-0.07,0.04,0.04-0.02,0.04-0.02c-0.02,0-0.06,0.02-0.08,0.03
			c-0.02,0.01-0.04,0.01-0.05,0.01c-0.07,0.02-0.07-0.02,0.02,0c-0.04-0.01-0.1,0-0.14,0c-0.05,0-0.04-0.03,0.05,0.01
			c-0.02-0.01-0.05-0.01-0.08-0.02c-0.03-0.01-0.05-0.02-0.08-0.02c-0.05-0.01-0.02-0.04,0.05,0.02c-0.03-0.03-0.08-0.04-0.12-0.06
			c-0.01-0.01-0.08-0.06-0.01-0.01c0.07,0.06,0,0-0.01-0.01c-0.04-0.04-0.08-0.08-0.11-0.12c-0.03-0.03-0.02-0.05,0.03,0.04
			c-0.01-0.03-0.04-0.05-0.05-0.08c-0.03-0.04-0.05-0.09-0.07-0.13c-0.05-0.09,0.04,0.12,0.01,0.02c-0.01-0.03-0.02-0.05-0.03-0.08
			c-0.01-0.02-0.01-0.03-0.01-0.05c-0.01-0.05-0.01-0.16-0.01,0c0-0.04-0.01-0.09-0.01-0.13c0-0.03,0-0.05,0-0.08
			c0-0.1-0.03,0.12,0,0.03c0.01-0.05,0.04-0.1,0.04-0.15c-0.02,0.1-0.04,0.09-0.02,0.05c0.02-0.03,0.04-0.06,0.06-0.09
			c0.14-0.22,0.05-0.56-0.18-0.68C211.13,12.32,210.85,12.4,210.7,12.63L210.7,12.63z"/>
	</g>
</g>
<g>
	<g>
		<path class="st1" d="M215.4,13.72c-0.05-0.05-0.1-0.1-0.15-0.15c-0.02-0.03-0.01-0.01,0.03,0.05c-0.01-0.01-0.02-0.03-0.03-0.05
			c-0.02-0.03-0.04-0.06-0.06-0.1c-0.01-0.02-0.03-0.05-0.04-0.07c-0.04-0.08,0.04,0.12,0-0.01c-0.02-0.06-0.03-0.13-0.05-0.19
			c-0.02-0.1,0.01,0.13,0,0.01c0-0.03,0-0.07,0-0.1c0-0.04,0-0.07,0-0.11c0-0.01,0-0.02,0-0.03c0.01-0.05,0-0.04-0.01,0.05
			c0.02-0.06,0.03-0.13,0.05-0.19c0.04-0.13-0.04,0.07,0-0.01c0.02-0.03,0.03-0.06,0.05-0.09c0.02-0.03,0.04-0.05,0.05-0.08
			c-0.05,0.06-0.06,0.08-0.03,0.04c0.01-0.01,0.02-0.03,0.04-0.04c0.02-0.02,0.04-0.04,0.06-0.06c0.03-0.03,0.13-0.08,0.01-0.01
			c0.06-0.03,0.11-0.07,0.17-0.1c0.02-0.01,0.05-0.02,0.08-0.04c-0.12,0.08-0.03,0.02,0.01,0c0.06-0.02,0.13-0.02,0.19-0.05
			c-0.09,0.01-0.1,0.01-0.05,0.01c0.02,0,0.04,0,0.06,0c0.03,0,0.06,0,0.08,0c0.04,0,0.08,0.01,0.11,0.01
			c-0.13,0.01-0.07-0.01-0.02,0c0.04,0.01,0.07,0.02,0.11,0.03c0.03,0.01,0.16,0.06,0.01,0c0.13,0.06,0.25,0.09,0.39,0.05
			c0.12-0.03,0.24-0.12,0.3-0.23c0.11-0.22,0.08-0.57-0.18-0.68c-0.32-0.14-0.63-0.19-0.98-0.15c-0.34,0.05-0.64,0.19-0.91,0.4
			c-0.51,0.4-0.68,1.1-0.53,1.72c0.08,0.34,0.27,0.67,0.54,0.89c0.1,0.09,0.21,0.15,0.35,0.15c0.12,0,0.27-0.05,0.35-0.15
			C215.57,14.24,215.62,13.9,215.4,13.72L215.4,13.72z"/>
	</g>
</g>
<g>
	<g>
		<path class="st1" d="M219.76,11.01c-0.45,0.11-0.89,0.3-1.27,0.57c-0.26,0.18-0.35,0.55-0.1,0.79c0.35,0.34,0.7,0.67,1.04,1.01
			c0.07,0.07,0.15,0.14,0.21,0.22c0.08,0.09,0.09,0.09,0.15,0.18c0.03,0.04,0.05,0.08,0.07,0.12c0.01,0.02,0.03,0.05,0.04,0.07
			c-0.01-0.03-0.01-0.03,0,0c0.01,0.03,0.03,0.11,0.02,0.04c0,0,0,0.16,0.01,0.08c0,0.04-0.02,0.07-0.03,0.11
			c-0.01,0.03-0.01,0.03,0.01-0.02c-0.01,0.01-0.01,0.03-0.02,0.04c-0.09,0.06,0.05-0.03-0.03,0.04c-0.01,0.01-0.12,0.1-0.04,0.04
			c-0.03,0.02-0.06,0.04-0.1,0.06c-0.03,0.02-0.09,0.04-0.03,0.02c-0.04,0.02-0.09,0.03-0.13,0.04c-0.02,0.01-0.16,0.02-0.05,0.01
			c-0.39,0.03-0.73-0.14-1.09-0.32c-0.24-0.12-0.54-0.06-0.68,0.18c-0.13,0.22-0.06,0.56,0.18,0.68c0.56,0.28,1.14,0.54,1.78,0.44
			c0.52-0.08,0.99-0.42,1.17-0.92c0.21-0.58-0.1-1.15-0.48-1.58c-0.39-0.44-0.85-0.83-1.28-1.24c-0.03,0.26-0.07,0.52-0.1,0.79
			c0.33-0.23,0.64-0.38,1.03-0.47c0.26-0.06,0.42-0.36,0.35-0.62C220.3,11.09,220.02,10.95,219.76,11.01L219.76,11.01z"/>
	</g>
</g>
<g>
	<g>
		<path class="st0" d="M201.23,40.32c-0.13-2.37,1.97-4.19,4.04-4.91c2.56-0.9,5.45-0.51,7.93,0.48c2.29,0.92,4.82,2.57,5.01,5.27
			c0.19,2.74-1.19,5.35-3.57,6.69c-2.84,1.6-6.24,1.71-9.41,1.84c-0.26,0.01-0.51,0.22-0.5,0.5c0.07,2.61-0.05,5.21-0.38,7.8
			c-0.08,0.64,0.92,0.63,1,0c0.33-2.59,0.45-5.19,0.38-7.8c-0.17,0.17-0.33,0.33-0.5,0.5c3.29-0.14,6.77-0.28,9.74-1.88
			c2.63-1.42,4.15-4.04,4.25-7.01c0.1-3.11-2.15-5.19-4.77-6.44c-2.74-1.31-6.01-1.9-8.98-1.06c-2.65,0.75-5.4,3.02-5.24,6.02
			C200.27,40.96,201.27,40.97,201.23,40.32L201.23,40.32z"/>
	</g>
</g>
<g>
	<g>
		<path class="st0" d="M204.56,57.41c-0.66-0.05-1.32-0.09-1.98-0.14c-0.26-0.02-0.51,0.24-0.5,0.5c0.01,0.29,0.22,0.48,0.5,0.5
			c0.66,0.05,1.32,0.09,1.98,0.14c0.26,0.02,0.51-0.24,0.5-0.5C205.04,57.63,204.84,57.43,204.56,57.41L204.56,57.41z"/>
	</g>
</g>
<g>
	<g>
		<path class="st0" d="M202.94,57.24c0.08-2.9,0.16-5.8,0.25-8.71c-0.17,0.17-0.33,0.33-0.5,0.5c3.01,0.12,5.87-0.87,8.63-1.95
			c1.22-0.48,2.53-0.94,3.44-1.93c0.73-0.79,1.18-1.8,1.28-2.87c0.19-1.98-0.89-3.91-2.43-5.09c-1.8-1.38-4.16-1.72-6.33-1.18
			c-2.23,0.55-4.43,2.06-5.08,4.36c0.16-0.12,0.32-0.24,0.48-0.37c-0.57,0.01-1.14,0.02-1.71,0.03c-0.64,0.01-0.64,1.01,0,1
			c0.57-0.01,1.14-0.02,1.71-0.03c0.22,0,0.42-0.15,0.48-0.37c1.04-3.67,6.34-4.83,9.33-3.01c1.45,0.88,2.56,2.47,2.57,4.21
			c0,0.93-0.34,1.83-0.95,2.53c-0.81,0.94-2.05,1.35-3.17,1.79c-2.65,1.03-5.38,1.99-8.26,1.87c-0.28-0.01-0.49,0.24-0.5,0.5
			c-0.08,2.9-0.16,5.8-0.25,8.71C201.92,57.89,202.92,57.89,202.94,57.24L202.94,57.24z"/>
	</g>
</g>
<g>
	<g>
		<path class="st0" d="M203.62,61.79c-0.78,0.2-1.57,0.7-1.83,1.5c-0.24,0.74,0.17,1.58,0.85,1.92c0.85,0.42,1.82,0.11,2.54-0.43
			c0.37-0.27,0.79-0.59,0.91-1.06c0.12-0.46-0.1-0.95-0.44-1.26c-0.37-0.34-0.88-0.54-1.36-0.68c-0.44-0.13-1.02-0.12-1.27,0.34
			c-0.13,0.24-0.06,0.54,0.18,0.68c0.23,0.13,0.56,0.06,0.68-0.18c0.04-0.08-0.01,0.01-0.02,0.02c-0.04,0.03-0.06,0.05-0.1,0.07
			c0.07-0.03,0,0-0.02,0c0.03,0,0.05,0,0.08,0c0.03,0,0.06,0,0.08,0.01c-0.11-0.01-0.01,0,0.02,0.01c0.06,0.02,0.12,0.03,0.18,0.05
			c0.3,0.1,0.55,0.18,0.81,0.38c-0.04-0.03,0.02,0.02,0.03,0.02c0.03,0.02,0.05,0.05,0.07,0.07c0.06,0.06,0.03,0.04,0.02,0.02
			c0.02,0.03,0.03,0.06,0.05,0.08c0.05,0.07,0.02,0.04,0.01,0.01c0.01,0.03,0.02,0.06,0.03,0.09c-0.02-0.08,0-0.02,0,0
			c0,0.05,0,0.06,0,0.02c0-0.04,0-0.03-0.01,0.02c0.05-0.09-0.08,0.1-0.03,0.04c-0.05,0.06-0.1,0.11-0.16,0.16
			c-0.12,0.11-0.22,0.19-0.32,0.26c-0.12,0.09-0.25,0.17-0.38,0.24c-0.16,0.08-0.22,0.11-0.39,0.16c-0.07,0.02-0.14,0.04-0.21,0.05
			c0.07-0.01-0.12,0-0.14,0c-0.16,0-0.22-0.01-0.38-0.08c0.09,0.04-0.06-0.04-0.08-0.05c-0.02-0.02-0.05-0.03-0.07-0.05
			c0.02,0.02,0.06,0.06,0,0c-0.04-0.04-0.08-0.08-0.12-0.12c0.07,0.08-0.03-0.07-0.05-0.09c-0.01-0.02-0.05-0.11-0.01-0.01
			c-0.01-0.03-0.02-0.05-0.03-0.08c-0.01-0.03-0.04-0.19-0.02-0.07c-0.01-0.05,0-0.11-0.01-0.16c0-0.02,0.01-0.1-0.01,0.01
			c0.01-0.03,0.01-0.07,0.02-0.1c0.01-0.03,0.02-0.05,0.02-0.08c0.02-0.05-0.04,0.06,0.01-0.02c0.04-0.06,0.07-0.13,0.11-0.19
			c-0.05,0.07-0.01,0.01,0.01-0.01c0.03-0.03,0.06-0.07,0.09-0.1c0.02-0.02,0.04-0.04,0.07-0.06c0.01-0.01,0.1-0.08,0.06-0.05
			c-0.04,0.03,0.04-0.03,0.05-0.03c0.03-0.02,0.07-0.05,0.1-0.07c0.07-0.04,0.14-0.08,0.22-0.12c0.03-0.01,0.06-0.03,0.09-0.04
			c-0.08,0.03,0.07-0.02,0.07-0.02c0.08-0.03,0.16-0.05,0.24-0.07c0.26-0.07,0.42-0.36,0.35-0.62
			C204.16,61.88,203.88,61.72,203.62,61.79L203.62,61.79z"/>
	</g>
</g>
<g>
	<g>
		<path class="st1" d="M159.27,49.78c0.92,0.99,1.84,1.97,2.75,2.96c0.21,0.22,0.65,0.19,0.79-0.1c0.61-1.27,1.34-2.47,2.19-3.59
			c0.16-0.21,0.03-0.56-0.18-0.68c-0.26-0.15-0.52-0.04-0.68,0.18c-0.85,1.12-1.59,2.32-2.19,3.59c0.26-0.03,0.52-0.07,0.79-0.1
			c-0.92-0.99-1.84-1.97-2.75-2.96C159.54,48.6,158.83,49.31,159.27,49.78L159.27,49.78z"/>
	</g>
</g>
<g>
	<g>
		<path class="st1" d="M168.41,48.58c-0.7,0.07-1.47,0.16-1.99,0.69c-0.49,0.51-0.66,1.3-0.21,1.89c0.17,0.22,0.4,0.37,0.6,0.56
			c0.05,0.04,0.1,0.09,0.14,0.14c-0.07-0.09,0.08,0.13,0.02,0.04c0.01,0.06,0.02,0.06,0.01,0.01c0,0.03,0,0.06,0,0.1
			c0-0.09-0.02,0.08-0.03,0.11c0.03-0.07-0.06,0.09-0.07,0.1c0.04-0.05-0.08,0.08-0.1,0.09c0.05-0.04-0.09,0.05-0.11,0.06
			c0.05-0.02,0.03-0.01-0.04,0.01c-0.04,0.01-0.09,0.02-0.13,0.03c-0.31,0.06-0.64-0.04-0.93-0.13c-0.26-0.08-0.55,0.1-0.62,0.35
			c-0.07,0.27,0.09,0.53,0.35,0.62c0.59,0.19,1.24,0.28,1.83,0.01c0.48-0.22,0.83-0.72,0.86-1.25c0.03-0.56-0.36-0.92-0.75-1.24
			c-0.08-0.06-0.15-0.13-0.22-0.21c-0.04-0.04,0-0.01,0,0c-0.01-0.02-0.03-0.04-0.04-0.06c-0.03-0.05-0.01-0.01,0,0
			c-0.01-0.03-0.02-0.07-0.03-0.1c0.01,0.07,0-0.05,0-0.07c0,0.07,0.01-0.05,0.02-0.07c0.01-0.02,0.05-0.13,0.03-0.08
			c0.02-0.04,0.07-0.12,0.08-0.13c0.11-0.16,0.3-0.27,0.52-0.34c0.28-0.09,0.53-0.11,0.82-0.14c0.27-0.03,0.5-0.21,0.5-0.5
			C168.91,48.83,168.68,48.55,168.41,48.58L168.41,48.58z"/>
	</g>
</g>
<g>
	<g>
		<path class="st1" d="M169.51,52.62c0,0.07,0,0.13,0,0.2c0,0.07,0.01,0.13,0.04,0.19c0.02,0.06,0.05,0.12,0.1,0.16
			c0.05,0.05,0.1,0.08,0.16,0.1c0.06,0.03,0.12,0.05,0.19,0.04c0.04-0.01,0.09-0.01,0.13-0.02c0.08-0.02,0.16-0.07,0.22-0.13
			c0.03-0.03,0.05-0.07,0.08-0.1c0.05-0.08,0.07-0.16,0.07-0.25c0-0.07,0-0.13,0-0.2c0-0.07-0.01-0.13-0.04-0.19
			c-0.02-0.06-0.05-0.12-0.1-0.16c-0.05-0.05-0.1-0.08-0.16-0.1c-0.06-0.03-0.12-0.05-0.19-0.04c-0.04,0.01-0.09,0.01-0.13,0.02
			c-0.08,0.02-0.16,0.07-0.22,0.13c-0.03,0.03-0.05,0.07-0.08,0.1C169.53,52.44,169.51,52.53,169.51,52.62L169.51,52.62z"/>
	</g>
</g>
<g>
	<g>
		<path class="st0" d="M207.25,29.78c2.8-2.73,6.6-6.3,10.9-4.95c1.64,0.51,3.12,1.97,3.31,3.73c0.21,1.98-1.25,3.68-2.73,4.79
			c-0.51,0.38-0.09,1.15,0.5,0.86c2.03-0.98,4.39-0.09,6.23,0.91c1.71,0.93,3.38,2.17,4.34,3.9c0.97,1.73,1.15,4.09-0.83,5.16
			c-0.97,0.52-2.07,0.81-3.1,1.18c-1.2,0.42-2.4,0.85-3.61,1.27c-0.31,0.11-0.54,0.58-0.22,0.84c1.61,1.27,3.13,2.65,4.53,4.15
			c1.32,1.43,2.85,3.08,3.08,5.1c0.1,0.87-0.04,1.81-0.56,2.53c-0.55,0.77-1.47,1.16-2.34,1.45c-2.09,0.69-4.28,0.95-6.47,0.86
			c-0.47-0.02-0.61,0.54-0.35,0.85c2.55,3.13,1.91,7.88-1.4,10.19c-1.53,1.07-3.95,1.85-5.55,0.5c-1.33-1.12-1.77-3.02-2.71-4.43
			c-0.2-0.31-0.67-0.34-0.86,0c-1.1,1.91-2.48,3.62-4.13,5.08c-1.6,1.42-3.61,2.92-5.75,3.32c-1.06,0.2-2.26,0.04-3.11-0.66
			c-0.79-0.65-1.08-1.67-1.17-2.65c-0.15-1.79-0.1-4.31,1.44-5.52c-0.24-0.24-0.47-0.47-0.71-0.71c-2.3,2.57-6.57,2.53-8.91,0.05
			c-2.46-2.61-2.44-6.79-0.18-9.51c1.29-1.56,3.09-2.59,5.07-2.99c-0.09-0.32-0.18-0.64-0.27-0.96c-1.05,0.24-2.11-0.8-2.8-1.46
			c-0.68-0.65-1.28-1.39-1.75-2.21c-0.97-1.66-1.4-3.62-1-5.52c0.38-1.82,1.46-3.49,3.16-4.32c1.66-0.81,3.66-0.76,5.21,0.27
			c0.47,0.31,1.05-0.42,0.61-0.79c-2.82-2.29-5.34-6.35-3.12-9.92c1.89-3.03,6.14-3.68,9.35-2.87c1.98,0.5,3.78,1.54,5.19,3.02
			c0.44,0.47,1.15-0.24,0.71-0.71c-2.76-2.89-7.01-4.26-10.93-3.37c-1.84,0.42-3.62,1.37-4.79,2.87c-1.28,1.65-1.6,3.81-1.14,5.81
			c0.55,2.38,2.16,4.35,4.02,5.86c0.2-0.26,0.4-0.52,0.61-0.79c-2.94-1.97-6.98-0.77-8.81,2.12c-1.96,3.1-1.35,7.06,0.79,9.88
			c1.08,1.42,2.98,3.52,4.97,3.07c0.63-0.14,0.36-1.09-0.27-0.96c-3.94,0.78-7.33,4.11-7.5,8.23c-0.16,3.99,2.61,7.71,6.69,8.08
			c2.14,0.19,4.36-0.58,5.81-2.19c0.44-0.49-0.21-1.1-0.71-0.71c-1.38,1.09-1.65,2.94-1.74,4.59c-0.09,1.75,0.05,3.77,1.47,4.99
			c3.23,2.79,7.85-0.49,10.35-2.73c1.67-1.5,3.09-3.27,4.21-5.22c-0.29,0-0.58,0-0.86,0c0.89,1.34,1.35,2.93,2.4,4.16
			c1.21,1.42,3.06,1.71,4.8,1.25c3.32-0.87,5.79-3.97,5.91-7.39c0.07-2-0.62-3.95-1.88-5.49c-0.12,0.28-0.24,0.57-0.35,0.85
			c2.41,0.09,4.93-0.2,7.2-1.06c1.88-0.72,3.17-2.1,3.21-4.19c0.04-2.17-1.28-3.99-2.64-5.55c-1.6-1.83-3.37-3.5-5.29-5
			c-0.07,0.28-0.15,0.56-0.22,0.84c2.09-0.74,4.25-1.39,6.3-2.24c1.65-0.69,2.72-1.97,2.7-3.82c-0.03-3.7-3.51-6.38-6.57-7.78
			c-1.97-0.9-4.2-1.4-6.24-0.41c0.17,0.29,0.34,0.58,0.5,0.86c1.34-1.01,2.57-2.3,3.05-3.96c0.45-1.55,0.05-3.14-0.94-4.39
			c-2.39-3.02-6.65-2.68-9.71-0.96c-1.92,1.08-3.53,2.64-5.09,4.17C206.08,29.52,206.79,30.23,207.25,29.78L207.25,29.78z"/>
	</g>
</g>
</svg>
