<svg id="Layer_1" data-name="Layer 1" xmlns="http://www.w3.org/2000/svg" viewBox="0 0 165.55 135.28"><defs><style>.cls-1{fill:#486afb;}.cls-2{fill:#fd46fc;}</style></defs><path class="cls-1" d="M8.75,7.18a4.76,4.76,0,0,0-4.13-2,4,4,0,0,0-3.85,3c-.32,2,1.67,3.28,3.16,4.17.88.53,1.77,1,2.59,1.63.57.43,2,1.35.9,2a4.16,4.16,0,0,1-1.71.4,8.83,8.83,0,0,1-2,.08,3.42,3.42,0,0,1-2.58-1.49.55.55,0,0,0-1,.41C.72,17.35,3,18,4.89,17.83A6.93,6.93,0,0,0,8.16,17a2.05,2.05,0,0,0,.92-2.3c-.32-1-1.39-1.65-2.17-2.2s-1.72-1.08-2.6-1.6A5.16,5.16,0,0,1,2.18,9.12,1.84,1.84,0,0,1,3,6.84a3.47,3.47,0,0,1,4.69,1c.42.63,1.48,0,1.06-.61Z"/><path class="cls-1" d="M153.13,14.3c0,3.91,0,7.82,0,11.74s-.11,7.83-.08,11.74c.06,7.75-.08,15.5,0,23.24.21,15.58,0,31.16,0,46.73,0,4.33.09,8.66.1,13s-.11,8.84.06,13.25a.68.68,0,0,0,1.35,0c.13-3.91,0-7.83,0-11.74s0-7.83,0-11.74c0-7.75-.08-15.5-.11-23.24-.06-15.58-.19-31.15-.15-46.73,0-4.33-.09-8.66-.15-13s0-8.83-.07-13.24a.53.53,0,0,0-1.06,0Z"/><path class="cls-1" d="M152.15,14.34c-.58.52-1.15,1.07-1.69,1.65a11.86,11.86,0,0,0-.8.93,3.65,3.65,0,0,0-.65,1.13.49.49,0,0,0,.72.54,4.31,4.31,0,0,0,1-.79c.28-.27.55-.55.82-.83.54-.56,1.11-1.09,1.69-1.61a.73.73,0,0,0,0-1,.79.79,0,0,0-1.07,0Z"/><path class="cls-1" d="M153.88,16l1.26,1.4c.21.23.42.47.64.69l.34.32a2.52,2.52,0,0,0,.51.34.7.7,0,0,0,.83-.12.71.71,0,0,0,.12-.81,1.77,1.77,0,0,0-.21-.41l-.38-.49c-.2-.25-.42-.49-.63-.73l-1.27-1.4A.86.86,0,0,0,153.88,16Z"/><path class="cls-1" d="M149.71,131.63a9.61,9.61,0,0,0,1.53,2.12,5.37,5.37,0,0,0,2.2,1.51.61.61,0,0,0,.66-.28.59.59,0,0,0-.09-.69c-.11-.14,0,.06,0,0l-.15-.2-.21-.2-.42-.42c-.28-.28-.55-.56-.81-.86l-.18-.22c-.1-.12.07.09,0,0a.76.76,0,0,1-.08-.11c-.12-.16-.22-.31-.33-.47-.23-.34-.44-.68-.63-1a.83.83,0,0,0-1.15-.29.85.85,0,0,0-.33,1.15Z"/><path class="cls-1" d="M154.91,134.7c.59-.58,1.21-1.11,1.85-1.64a15.63,15.63,0,0,0,1.84-1.6.59.59,0,0,0,.1-.69.58.58,0,0,0-.65-.25,7.06,7.06,0,0,0-2.3,1.25,21.38,21.38,0,0,0-2,1.77.84.84,0,0,0,0,1.19.88.88,0,0,0,1.2,0Z"/><path class="cls-1" d="M150.14,1.72c-.08,1.42-.11,2.85-.07,4.28,0,.71.05,1.43.1,2.14a7.39,7.39,0,0,0,.36,2.09c.16.4.87.53,1,0a9.12,9.12,0,0,0,0-2.09c0-.72-.08-1.43-.1-2.14,0-1.43,0-2.86,0-4.28,0-.85-1.26-.81-1.31,0Z"/><path class="cls-1" d="M152,3a16,16,0,0,0,.93,6.79c.22.48.93.19,1-.26a27.34,27.34,0,0,0-.13-3.26c-.08-1.1-.11-2.19-.09-3.29S152,1.94,152,3Z"/><path class="cls-1" d="M151.42,2.23a2.72,2.72,0,0,1,4.34-.07,2.26,2.26,0,0,1,.15,2.31,2.38,2.38,0,0,1-.94.92,7.46,7.46,0,0,1-1.3.64.6.6,0,0,0-.17,1.08,8.1,8.1,0,0,0,1.26.51,10,10,0,0,1,1.24.59,15.68,15.68,0,0,1,2.19,1.62c.43.34,1.21-.12.85-.66a7.16,7.16,0,0,0-2.29-2.09A5.66,5.66,0,0,0,153.82,6l.41,1a3,3,0,0,1,.86-.53,8.37,8.37,0,0,0,.82-.48A3.24,3.24,0,0,0,157,4.62a3.3,3.3,0,0,0-.37-3.17A3.52,3.52,0,0,0,153.7,0a4,4,0,0,0-3,1.68c-.31.43.4,1,.74.55Z"/><path class="cls-2" d="M153.93,73.94a1,1,0,0,0,.39-1.35,1,1,0,0,0-1.38-.48,1.31,1.31,0,0,0-.61,1.54,1.36,1.36,0,0,0,1.59.77A1.46,1.46,0,0,0,155.06,73a2.67,2.67,0,0,0-.85-1.83,1.21,1.21,0,0,0-1-.43,1.53,1.53,0,0,0-.9.54,2.19,2.19,0,0,0-.48,1.79,1.75,1.75,0,0,0,1.15,1.4,2.05,2.05,0,0,0,1.74-.19,1.73,1.73,0,0,0,.89-1.57A2,2,0,0,0,154.49,71c-1.46-.68-2.84.84-2.89,2.25a1.5,1.5,0,0,0,.25.94,1.41,1.41,0,0,0,1.08.57,3.24,3.24,0,0,0,2-.33,1.64,1.64,0,0,0,.77-1.91,6.35,6.35,0,0,0-.48-1.18,9.56,9.56,0,0,0-.56-1.05,1.11,1.11,0,0,0-1.05-.62,1.3,1.3,0,0,0-.91.75,3.87,3.87,0,0,0-.61,2,2.22,2.22,0,0,0,2.75,2.29,2.42,2.42,0,0,0,1.56-1.06,2.71,2.71,0,0,0,.29-1.91,2.76,2.76,0,0,0-1.08-1.66,2.39,2.39,0,0,0-2.46-.18,2.85,2.85,0,0,0-1.46,1.78,2.4,2.4,0,0,0,.46,2.17,2.1,2.1,0,0,0,2,.74,2,2,0,0,0,1.57-1.46c.39-1.6-1.33-2.94-2.81-2.72a2.21,2.21,0,0,0-1.64,3.12c.69,1.29,2.56,1.34,3.68.64a2.17,2.17,0,0,0,1-1.64,2.39,2.39,0,0,0-.44-1.64,2.18,2.18,0,0,0-1.64-.92,2.53,2.53,0,0,0-2.51,2.77,2,2,0,0,0,1.39,1.66,3.29,3.29,0,0,0,2.23-.38,1.93,1.93,0,0,0,1.33-1.65c0-1.75-2.21-2.28-3.49-1.53a1.84,1.84,0,0,0-1,1.78,1.86,1.86,0,0,0,1.48,1.43,2.27,2.27,0,0,0,2.8-2,2.44,2.44,0,0,0-.7-1.77,2.14,2.14,0,0,0-1.89-.54A2.11,2.11,0,0,0,152,71a2,2,0,0,0,.19,1.88,1.81,1.81,0,0,0,1.86.79,2.47,2.47,0,0,0,1.65-1.29,2,2,0,0,0-.05-2.25,2.14,2.14,0,0,0-1.89-.54,3,3,0,0,0-2,1.1,2,2,0,0,0-.17,2.17A3,3,0,0,0,153.34,74a2,2,0,0,0,2.74-2.31,2.08,2.08,0,0,0-3.32-1,2.16,2.16,0,0,0,2.42,3.53,2.16,2.16,0,0,0,1.24-1.77,1.84,1.84,0,0,0-1.19-1.79,2,2,0,0,0-2.1.67,2.8,2.8,0,0,0-.7,1.89,2.37,2.37,0,0,0,.86,1.8,2.62,2.62,0,0,0,1.85.57,2.25,2.25,0,0,0,1.7-1,2.55,2.55,0,0,0,.33-1.85,2.49,2.49,0,0,0-3.28-1.61,2.69,2.69,0,0,0-1.69,1.4,1.81,1.81,0,0,0,.4,2.12,2,2,0,0,0,2.08.2,4.21,4.21,0,0,0,1.55-1.53.42.42,0,0,0,0-.58.41.41,0,0,0-.59,0,4.13,4.13,0,0,1-1.16,1,1.16,1.16,0,0,1-1.07.06.72.72,0,0,1-.23-.87,1.36,1.36,0,0,1,.39-.5,2.43,2.43,0,0,1,.54-.3,1.88,1.88,0,0,1,1.24,0,1.2,1.2,0,0,1,.44.25,1,1,0,0,1,.29.41,1.43,1.43,0,0,1,0,1,2.2,2.2,0,0,1-.15.26l-.15.16a1,1,0,0,1-.42.23,1.53,1.53,0,0,1-1-.08,1.19,1.19,0,0,1-.46-.32,1.31,1.31,0,0,1-.26-.4,1.56,1.56,0,0,1,.79-1.93.63.63,0,0,1,.8.4.87.87,0,0,1-.28,1,1,1,0,0,1-.93.2,1.33,1.33,0,0,1-.41-.17,1.15,1.15,0,0,1-.22-.22c.06.08-.06-.08-.05-.08s-.09-.16,0-.08a1.1,1.1,0,0,1,.06-1,.61.61,0,0,1,.07-.1c.1-.15-.07.07,0-.07l.09-.08c.1-.12-.07,0,.06-.06a.73.73,0,0,1,.45-.14,1,1,0,0,1,.83.37.84.84,0,0,1,0,.9.76.76,0,0,1-.13.18.68.68,0,0,1-.15.15l-.1.06c-.15.08.08,0-.08,0a1,1,0,0,1-.35,0,2.6,2.6,0,0,1-1.33-.49.86.86,0,0,1-.39-.94,1.36,1.36,0,0,1,.83-.89,2,2,0,0,1,1.29-.13c.39.11.51.45.38.88a1.81,1.81,0,0,1-.74,1,.86.86,0,0,1-.91,0,1,1,0,0,1-.39-.9.48.48,0,0,1,0-.21s0,0,0,0l.09-.15c0,.05,0,0,0,0a1.59,1.59,0,0,1,.13-.13c-.05,0,0,0,0,0l.21-.12a1.1,1.1,0,0,1,1.51.75,1.13,1.13,0,0,1-.12,1,.83.83,0,0,1-.3.29,1.18,1.18,0,0,1-.5.18,1.23,1.23,0,0,1-.89-.22.71.71,0,0,1-.25-.4.58.58,0,0,1,.17-.4,1.43,1.43,0,0,1,1.09-.44,1.13,1.13,0,0,1,1,.53c.17.35,0,.63-.33.82a3.2,3.2,0,0,1-1.33.49.93.93,0,0,1-1-.53,1.22,1.22,0,0,1,.07-1.09,1.31,1.31,0,0,1,1.81-.6,1.44,1.44,0,0,1,.51,1.66,1.8,1.8,0,0,1-2.16.63.91.91,0,0,1-.62-.77,1.22,1.22,0,0,1,.31-.84,1.14,1.14,0,0,0,.11-.11c.08-.07-.11.06.05,0l.13-.07c.1,0-.13,0,.06,0a1.36,1.36,0,0,1,.61,0h0l.19,0a.85.85,0,0,1,.22.09,1.36,1.36,0,0,1,.5.4l0,0a2,2,0,0,1,.11.2.77.77,0,0,1,.1.29.62.62,0,0,1-.16.45.86.86,0,0,1-.37.28c.09,0-.23.05-.14,0a.6.6,0,0,1-.3,0,1.13,1.13,0,0,1-.75-.65,1.34,1.34,0,0,1,.11-1.15,1.56,1.56,0,0,1,1-.77,1.2,1.2,0,0,1,.65,0,1.44,1.44,0,0,1,.53.35,1.66,1.66,0,0,1,.48,1,1.81,1.81,0,0,1,0,.46,1.65,1.65,0,0,1-.07.21l-.09.17-.06.07a1,1,0,0,1-.37.31s-.18.08-.08,0l-.11,0-.17.05s-.18,0-.08,0a1.43,1.43,0,0,1-.48,0l-.14,0s-.14-.05-.05,0l-.13-.07s-.17-.11-.09-.05a1.17,1.17,0,0,1-.46-.95,3,3,0,0,1,.28-1.26,4.54,4.54,0,0,1,.3-.53l-.21,0s-.11-.15,0,0,.14.21.21.33a6.73,6.73,0,0,1,.79,1.5,1,1,0,0,1,0,.64c-.07.15-.15.19-.31.28a2,2,0,0,1-.52.15,2.6,2.6,0,0,1-.58,0,1.31,1.31,0,0,1-.34,0,.33.33,0,0,1-.18-.1.68.68,0,0,1-.08-.43,1.85,1.85,0,0,1,.53-1.08.71.71,0,0,1,.91-.16,1,1,0,0,1,.52.84c0,.63-.87.89-1.34.65a.9.9,0,0,1-.31-.26,1,1,0,0,1-.18-.51,1.21,1.21,0,0,1,.27-.87.64.64,0,0,1,.16-.14l.08,0c.12-.07,0,0,.06,0a1.54,1.54,0,0,1,.49.46,1.25,1.25,0,0,1,.29,1.12.61.61,0,0,1-.71.38.41.41,0,0,1-.29-.61c.31-.65.88.22.49.44s-.06.72.31.54Z"/><path class="cls-2" d="M163.41,76.85c-1.79-.21-3.86.58-4.45,2.42a3.49,3.49,0,0,0,.37,2.75,4,4,0,0,0,2.4,1.77,4.91,4.91,0,0,0,1.79.11,3,3,0,0,0,1.85-.76.65.65,0,0,0-.45-1.11,2.53,2.53,0,0,0-.67.1l-.33.07-.12,0s-.19,0-.08,0l-.3,0h0l-.29,0a5,5,0,0,1-.67,0s.09,0,0,0a.45.45,0,0,1-.16,0,2.3,2.3,0,0,1-.28-.06l-.16,0-.06,0-.1-.05a1.51,1.51,0,0,1-.18-.09l-.23-.13c-.08,0,0,0,0,0l-.12-.09c-.13-.12-.26-.25-.38-.38s.07.09,0,0l-.07-.09-.15-.24a2.4,2.4,0,0,1-.11-.23c0-.08,0,0,0,0l-.06-.17q0-.11-.06-.24a1.34,1.34,0,0,0,0-.18,1.74,1.74,0,0,0,0-.18.61.61,0,0,1,0-.14s0-.2,0-.12,0,0,0,0l0-.14a.65.65,0,0,0,0-.13s0-.11,0,0a2.3,2.3,0,0,1,.24-.39c-.08.1.08-.09.1-.11l.18-.16.07-.07c-.1.08,0,0,0,0a1.82,1.82,0,0,1,.23-.15l.28-.14c.08,0,0,0,0,0l.16-.06c.2-.06.39-.11.59-.15l.11,0h.07l.29,0a4.42,4.42,0,0,1,.63,0,.71.71,0,0,0,.7-.68.67.67,0,0,0-.67-.66Z"/><path class="cls-2" d="M49.61,19.53c13.18,6.06,26.3,12.26,39.24,18.82s25.83,13.27,38.47,20.38c7.09,4,14.17,8,21.23,12a.4.4,0,0,0,.4-.68C136.51,62.61,123.81,55.57,111,48.74S85.22,35.42,72.12,29.16Q61.11,23.89,49.94,19c-.37-.16-.71.38-.33.56Z"/><path class="cls-2" d="M51,123.72c5.73-3.78,12.23-6.22,18.57-8.73,6.61-2.6,13.14-5.36,19.64-8.2s12.82-6.06,19.16-9.23,12.74-6.6,19-10.08q10.57-5.83,21-12a.47.47,0,0,0-.47-.81c-12.49,7.08-25,14-37.77,20.67-6.29,3.28-12.69,6.34-19.14,9.29s-13.08,5.91-19.8,8.42c-7.17,2.67-14.33,5.42-20.67,9.76-.53.37-.05,1.22.49.86Z"/><path class="cls-2" d="M72.79,72.72c9.8.19,19.61.25,29.41.35s19.52.09,29.28.11q8.29,0,16.58-.09a.37.37,0,0,0,0-.73q-14.7-.06-29.4,0c-9.77,0-19.53-.09-29.29-.18L72.81,72a.38.38,0,0,0,0,.75Z"/><path class="cls-2" d="M149.34,69.92a10.38,10.38,0,0,0-.72-1.31.37.37,0,0,0-.47-.15.39.39,0,0,0-.23.44,9.51,9.51,0,0,0,.35,1.47.57.57,0,0,0,.77.37.59.59,0,0,0,.32-.32.55.55,0,0,0,0-.5Z"/><path class="cls-2" d="M148.17,70.14c-.19.06-.39.11-.57.18l-.37.15-.13.06a.57.57,0,0,0-.13.08.37.37,0,0,0-.18.39.35.35,0,0,0,.34.26h.16l.22,0,.3,0,.59-.14a.48.48,0,0,0,.35-.58.48.48,0,0,0-.22-.28.45.45,0,0,0-.36,0Z"/><path class="cls-2" d="M148.17,72.23a2.47,2.47,0,0,0-.61-.51.31.31,0,0,0-.31,0,.32.32,0,0,0-.08.12.24.24,0,0,0,0,.17,1.47,1.47,0,0,0,.06.14s0,0,0,.08l.1.15c.09.13.19.25.29.37a.24.24,0,0,0,.12.07.32.32,0,0,0,.14,0,.23.23,0,0,0,.14,0,.26.26,0,0,0,.13-.08.41.41,0,0,0,.11-.25.35.35,0,0,0-.11-.27Z"/><path class="cls-2" d="M147.5,72.81l-.18.21a.83.83,0,0,0-.13.18l-.08.11,0,.08a.23.23,0,0,0,0,.14.19.19,0,0,0,0,.08.25.25,0,0,0,.08.12l.07,0,.08,0a.23.23,0,0,0,.14,0,.33.33,0,0,0,.13,0l.11-.08a1.33,1.33,0,0,0,.19-.14l.2-.18a.3.3,0,0,0,.09-.13.29.29,0,0,0,0-.16.37.37,0,0,0,0-.15.34.34,0,0,0-.09-.14l-.09-.07a.46.46,0,0,0-.2,0l-.11,0a.49.49,0,0,0-.2.11Z"/><path class="cls-2" d="M147.79,74.44l-.58-.21-.27-.1-.31-.08a.32.32,0,0,0-.36.18.29.29,0,0,0,.12.37l.28.15.27.11.57.23a.47.47,0,0,0,.26,0,.37.37,0,0,0,.25-.48.35.35,0,0,0-.23-.2Z"/><path class="cls-2" d="M147.75,75.37c0,.37,0,.74,0,1.12a.28.28,0,0,0,.24.27.29.29,0,0,0,.31-.21c.07-.39.12-.79.18-1.19a.36.36,0,0,0-.11-.26.39.39,0,0,0-.27-.11.4.4,0,0,0-.38.38Z"/><path class="cls-1" d="M63.67,44.94a15.36,15.36,0,0,0,1.42-12.66,20.4,20.4,0,0,0-8.27-11A36.67,36.67,0,0,0,42.6,16.08c-5.65-1-11.62-1.55-17.32-.63A30.3,30.3,0,0,0,.09,47.63c.4,5.19,2.32,9.95,4.58,14.58s4.76,9,6.05,13.9A23.19,23.19,0,0,1,11.44,84a38,38,0,0,1-2,8.8c-1.88,5.57-4.4,11-5.24,16.83-.68,4.71-.17,9.92,2.58,13.94,3,4.41,8.11,6.09,13.21,6.67,6,.68,12-.33,17.79-1.84A91.54,91.54,0,0,0,53.28,123a37.58,37.58,0,0,0,12.58-9.09c7.38-8.45,9.83-20,9-30.93a69.12,69.12,0,0,0-3.66-17.1A62.92,62.92,0,0,0,67.83,58c-1.26-2.49-2.87-4.92-3.7-7.61-.69-2.28-.73-5,.85-6.88.57-.69-.4-1.62-1-.94a8.45,8.45,0,0,0-1.6,6.6c.37,2.66,1.71,5,2.92,7.4a74.33,74.33,0,0,1,5.91,15.52C74,82.84,74.44,94.7,69.69,104.94a32.11,32.11,0,0,1-9.2,11.8,48.41,48.41,0,0,1-13.43,7.08A95.73,95.73,0,0,1,31,128.4c-5.45,1-11.4,1.26-16.68-.69a13.2,13.2,0,0,1-5.94-4.2,15.35,15.35,0,0,1-2.77-6.19c-1.15-5.28.19-10.6,1.94-15.59,1.87-5.38,4.22-10.64,5-16.32a24.41,24.41,0,0,0-.18-8,34.63,34.63,0,0,0-2.22-6.94c-1.92-4.54-4.46-8.78-6.34-13.34A30.6,30.6,0,0,1,1.5,42.37a28.68,28.68,0,0,1,5.26-14,29.08,29.08,0,0,1,10.77-8.94,31.37,31.37,0,0,1,15.12-2.92A59.13,59.13,0,0,1,48.17,19,25.82,25.82,0,0,1,60.34,26.6a17.89,17.89,0,0,1,4.27,11.92,12.16,12.16,0,0,1-1.82,5.94c-.35.56.54,1,.88.48Z"/></svg>