<svg id="Layer_1" data-name="Layer 1" xmlns="http://www.w3.org/2000/svg" viewBox="0 0 208.55 132.59"><defs><style>.cls-1{fill:#486afb;}.cls-2{fill:#fd46fc;}</style></defs><path class="cls-1" d="M107.5,146.45a149.66,149.66,0,0,0,7,16.78c2.66,5.42,5.67,10.68,8.75,15.87q1.3,2.19,2.62,4.36a35.66,35.66,0,0,0,2.82,4.36.86.86,0,0,0,1.13.06.86.86,0,0,0,.23-1.1,32,32,0,0,0-2.29-4c-.75-1.25-1.51-2.5-2.26-3.76q-2.31-3.87-4.55-7.78c-2.91-5.12-5.82-10.33-8.27-15.69-1.41-3.09-2.76-6.19-3.91-9.39-.28-.76-1.49-.45-1.22.31Z" transform="translate(-49.23 -60.09)"/><path class="cls-1" d="M154,149.35c4.9,11,10.14,21.86,15.34,32.73l2.15,4.5c.37.79.75,1.57,1.12,2.36a11.19,11.19,0,0,0,1.4,2.13c.45.57,1.29-.06,1.15-.66a20,20,0,0,0-1.63-4.15l-2-4.15L167.68,174c-2.6-5.43-5.17-10.87-7.86-16.26-1.52-3-3-6.08-4.59-9.11-.42-.8-1.56-.1-1.21.7Z" transform="translate(-49.23 -60.09)"/><path class="cls-1" d="M129.86,188.06c11.74,1.54,23.49,3,35.3,4l4.93.38c.83.07,1.65.14,2.47.18a8.93,8.93,0,0,0,2.53-.05.71.71,0,0,0,0-1.36,7.79,7.79,0,0,0-2.15-.34c-.74-.07-1.48-.12-2.22-.18q-2.22-.15-4.44-.33c-3-.23-5.92-.5-8.87-.75q-8.81-.73-17.6-1.57c-3.32-.31-6.64-.72-9.95-1.13-.74-.09-.74,1.07,0,1.16Z" transform="translate(-49.23 -60.09)"/><path class="cls-1" d="M108.8,146.3c6.21.31,12.42.74,18.63,1.19s12.4,1.13,18.61,1.62l5.09.41a18.63,18.63,0,0,0,5.27.12c.76-.16.6-1.14,0-1.37a16.78,16.78,0,0,0-4.64-.66l-4.59-.34q-4.65-.33-9.31-.55-9.31-.43-18.62-.9l-10.44-.52c-.64,0-.65,1,0,1Z" transform="translate(-49.23 -60.09)"/><path class="cls-1" d="M137.28,110.44h0s0,0,0,0Z" transform="translate(-49.23 -60.09)"/><path class="cls-1" d="M136.89,108.81c-7.66,9.64-15.06,19.46-22.44,29.32l-3.09,4.15c-1,1.41-2.16,2.79-3.1,4.28-.36.57.51,1.26,1,.73,1.94-2.34,3.61-4.93,5.39-7.38s3.61-5,5.43-7.45c3.65-5,7.41-9.83,11.12-14.74,2.1-2.78,4.17-5.59,6.28-8.37.29-.39-.24-.93-.55-.54Z" transform="translate(-49.23 -60.09)"/><path class="cls-1" d="M180.43,111.85a43.9,43.9,0,0,1-5.06,7.21q-2.81,3.45-5.5,7-5.49,7.24-10.67,14.7a58.49,58.49,0,0,0-5.51,8.61c-.29.63.52,1.39,1,.79a74.45,74.45,0,0,0,5.17-7.5q2.52-3.83,5.15-7.56c3.49-4.94,7.2-9.71,10.85-14.52a57,57,0,0,0,5.32-8.26c.27-.52-.52-1-.79-.46Z" transform="translate(-49.23 -60.09)"/><path class="cls-1" d="M138.14,109.35q15.54.24,31,1.8l4.31.46a36.59,36.59,0,0,0,4.43.37.53.53,0,0,0,.14-1,27.29,27.29,0,0,0-3.82-.57c-1.27-.15-2.55-.28-3.82-.4-2.59-.24-5.17-.46-7.77-.65q-7.77-.55-15.57-.78c-3-.08-5.93-.12-8.9-.14a.48.48,0,0,0,0,.95Z" transform="translate(-49.23 -60.09)"/><path class="cls-1" d="M175.77,191.16c7-9.67,13.6-19.66,19.84-29.86q1.3-2.13,2.58-4.28a17.64,17.64,0,0,0,2.34-4.49.68.68,0,0,0-1.14-.66,15.94,15.94,0,0,0-2.48,3.73l-2.33,3.88c-1.53,2.51-3.06,5-4.64,7.5-3.23,5.05-6.61,10-10,15q-2.88,4.15-5.85,8.26a1,1,0,0,0,.36,1.33,1,1,0,0,0,1.34-.36Z" transform="translate(-49.23 -60.09)"/><path class="cls-1" d="M179.83,114a171.46,171.46,0,0,0,8.48,15.22,148.33,148.33,0,0,1,8.57,15.07c1.36,2.94,2.46,6,3.72,9,.27.66,1.17.16,1.08-.44a31.49,31.49,0,0,0-2.75-8.28c-1.23-2.64-2.59-5.22-4.05-7.74-2.91-5-6.2-9.83-9.28-14.76a97.71,97.71,0,0,1-4.89-8.55c-.28-.59-1.16-.07-.88.51Z" transform="translate(-49.23 -60.09)"/><path class="cls-2" d="M128.73,136.23a.88.88,0,0,0-.36.56c0,.15,0,.1,0,.06a.57.57,0,0,0,0,.12,1.36,1.36,0,0,0,0,.2,1.65,1.65,0,0,0,.11.36l0,.06c-.06-.11,0,.06,0,.06a.58.58,0,0,0,.14.17.92.92,0,0,0,.31.24,1.56,1.56,0,0,0,.74.18,1.5,1.5,0,0,0,1.28-.75,1.42,1.42,0,0,0-.07-1.42,1.29,1.29,0,0,0-1.29-.57,1.5,1.5,0,0,0-1.07.79,1.55,1.55,0,0,0-.12.79h0s0,.1,0,.14l0,.15a1.8,1.8,0,0,0,.16.38,1.47,1.47,0,0,0,1.28.78,1.88,1.88,0,0,0,1.84-1.84,1.67,1.67,0,0,0-1.76-1.56,1.76,1.76,0,0,0-1.8,1.57,2,2,0,0,0,1.89,2,1.94,1.94,0,0,0,1.83-2.44,1.87,1.87,0,0,0-1.06-1.23,1.94,1.94,0,0,0-2.46,2.8,2.07,2.07,0,0,0,1.54.88,1.84,1.84,0,0,0,1.59-.65,2.37,2.37,0,0,0,.54-1.72,2.23,2.23,0,0,0-.27-.91,1.87,1.87,0,0,0-.28-.35s-.3-.2-.05,0l-.18-.14-.14-.08a1.4,1.4,0,0,0-1.26.06,2.36,2.36,0,0,0-.69.53,2.14,2.14,0,0,0-.56,1.88,1.88,1.88,0,0,0,1.37,1.4,1.66,1.66,0,0,0,1.82-.87,1.62,1.62,0,0,0,.15-1.14,1.54,1.54,0,0,0-.7-.92,1.6,1.6,0,0,0-1.95.28,1.55,1.55,0,0,0-.12,1.92,1.43,1.43,0,0,0,1.94.46A1.79,1.79,0,0,0,132,137a1.5,1.5,0,0,0-.22-.85,1.72,1.72,0,0,0-.87-.68,1.94,1.94,0,0,0-1.64.21,2.1,2.1,0,0,0-1,1.65,1.66,1.66,0,0,0,1,1.66,1.92,1.92,0,0,0,1.18.12,2.11,2.11,0,0,0,1.42-1.15,3.1,3.1,0,0,0,.29-1l0,.23a2.55,2.55,0,0,0-.11-1.31,2.22,2.22,0,0,0-.8-1,2.26,2.26,0,0,0-1.8-.36,2,2,0,0,0-1.46,1.39,2.17,2.17,0,0,0,.43,2.06,2.2,2.2,0,0,0,2,.65,2.08,2.08,0,0,0,1.13-3.49,2,2,0,0,0-1.95-.47,1.81,1.81,0,0,0-1.36,1.76,2,2,0,0,0,.31,1.06,1.38,1.38,0,0,0,.73.55,1.18,1.18,0,0,0,.67,0h-.32a.69.69,0,0,0,.35-1.34h0l.31.18a1.24,1.24,0,0,0-.18-.14c-.06-.06.15.13.06,0l-.1-.11.12.17c-.11-.15-.2-.3-.32-.44l.14.18a1,1,0,0,1-.16-.29l.08.21c0-.05,0-.1-.05-.14s0-.2,0-.05,0,0,0-.06v-.06s-.05.22,0,.08.06-.18,0,0,0,0,0-.06-.05.09-.06.08l0-.05.13-.11-.17.13A1.49,1.49,0,0,1,130,136l-.19.08.13,0c.08,0,.19,0,0,0H130s.19,0,0,0,0,0,0,0l.13,0-.09,0,.06,0,.11.07-.16-.12a1.8,1.8,0,0,1,.2.19l-.14-.17a1.12,1.12,0,0,1,.16.28l-.08-.21a1.65,1.65,0,0,1,.07.32l0-.22a2.71,2.71,0,0,1,0,.4l0-.22a2.81,2.81,0,0,1-.08.31l.08-.2a1.12,1.12,0,0,1-.16.28l.14-.18a1,1,0,0,1-.21.21l.19-.14a1.34,1.34,0,0,1-.31.17l.22-.09a1.39,1.39,0,0,1-.35.09l.23,0-.3,0,.22,0h-.32l.22,0a1.89,1.89,0,0,1-.34-.09l.2.08a1.12,1.12,0,0,1-.28-.16l.17.14a1.2,1.2,0,0,1-.22-.23l.13.18a1.82,1.82,0,0,1-.15-.27l.08.2a1.3,1.3,0,0,1-.08-.34l0,.21a1.6,1.6,0,0,1,0-.31c0-.12,0,.1,0,.09l0-.08a.88.88,0,0,1,0-.15c0-.11,0,.09,0,.09s0-.06,0-.07l.08-.13c.07-.13-.05.07-.05.06l0-.05.13-.12-.17.13a1.91,1.91,0,0,1,.27-.16l-.19.08.18-.06h.08c-.2.05-.13,0-.06,0H130c.14,0-.18,0,0,0l.08,0,.17.05-.07,0,.09,0,.07,0c.08,0-.15-.13-.07,0a1,1,0,0,1,.14.15l-.13-.17a.92.92,0,0,1,.16.27l-.08-.2a2,2,0,0,1,.09.35l0-.22a2.18,2.18,0,0,1,0,.51l0-.23a2.5,2.5,0,0,1-.17.65l.09-.22a1.87,1.87,0,0,1-.22.39l.15-.19a2.47,2.47,0,0,1-.28.28l.2-.16-.23.14.23-.1a.83.83,0,0,1-.27.07l.24,0h-.28l.24,0a1.63,1.63,0,0,1-.3-.07l.22.08a.61.61,0,0,1-.18-.09l.19.14-.15-.14.15.19-.1-.17.09.22c0-.08,0-.15-.06-.22l0,.22a.89.89,0,0,1,0-.23l0,.22a1.34,1.34,0,0,1,.07-.27l-.08.2a1.3,1.3,0,0,1,.14-.26l-.13.18a1.36,1.36,0,0,1,.24-.24l-.18.14a1.49,1.49,0,0,1,.24-.14l-.21.09a1.78,1.78,0,0,1,.33-.09l-.22,0h.29l-.22,0a.79.79,0,0,1,.22.06l-.21-.09a1.32,1.32,0,0,1,.2.12l-.18-.14.13.13-.14-.18a.53.53,0,0,1,.08.15l-.09-.22a.47.47,0,0,1,0,.16l0-.22a1.85,1.85,0,0,1,0,.23l0-.23a.86.86,0,0,1-.06.23l.09-.21a1.71,1.71,0,0,1-.13.23l.14-.19a.92.92,0,0,1-.14.14l.19-.14a.51.51,0,0,1-.16.09l.22-.09-.13,0,.23,0h-.13l.22,0-.14,0,.21.08a.6.6,0,0,1-.11-.06l.19.14a.63.63,0,0,1-.12-.11l.15.19a1,1,0,0,1-.1-.17l.09.22a1.21,1.21,0,0,1-.05-.18l0,.23a.6.6,0,0,1,0-.19l0,.22a.83.83,0,0,1,0-.15l-.09.21.06-.11-.14.18.12-.11-.19.15.14-.08-.23.1.16,0-.24,0h.2l-.23,0a.61.61,0,0,1,.18.05l-.21-.09a.57.57,0,0,1,.13.08l-.19-.15.12.11-.16-.19a.41.41,0,0,1,.07.11l-.09-.23a.75.75,0,0,1,0,.16l0-.24a.83.83,0,0,1,0,.22l0-.24a.75.75,0,0,1,0,.16l.09-.22a.82.82,0,0,1-.12.2l.15-.19a1.37,1.37,0,0,1-.17.17l.19-.15a.56.56,0,0,1-.17.09l.23-.09-.16,0,.23,0a.81.81,0,0,1-.22,0l.22,0a.83.83,0,0,1-.21-.06l.21.09a1,1,0,0,1-.2-.11l.18.13a1.15,1.15,0,0,1-.23-.21l.14.17a1,1,0,0,1-.13-.23l.08.2s0-.08-.05-.13,0-.19,0,0a.57.57,0,0,0,0-.13c0,.19,0,.16,0-.08l0,.12a.47.47,0,0,1,0-.17c0-.06.08-.16,0,0l.12-.22.05-.07c-.08.09-.09.11,0,.05l.09-.09c.05-.06.12-.08,0,0l.11-.08.08-.05c.07,0,0,0-.06,0l.14,0c-.11,0-.13,0-.08,0s0,0-.08,0l.06,0c-.11-.06-.14-.07-.09,0l0,0-.07,0-.08-.11,0,.05a.7.7,0,0,0,.06.09c.07.12-.06-.2,0,0s0,.08,0,.13,0,.17,0-.06a1.92,1.92,0,0,1,0,.24c0,.08,0,.19,0,0,0,0,0,.08,0,.12a2.25,2.25,0,0,1-.08.24c0,.06,0,0,.05-.1l0,.07a.47.47,0,0,0-.05.1,1.14,1.14,0,0,1-.15.23l.14-.17a2.76,2.76,0,0,1-.29.3l.17-.14a1.28,1.28,0,0,1-.25.15l.2-.08a1,1,0,0,1-.25.07c-.09,0,.19,0,.1,0h-.21c-.09,0,.18,0,.09,0h-.05l-.13,0-.07,0s.17.08.1,0l-.14-.08,0,0c-.08,0,.13.12.06.06l-.09-.09c-.06-.06-.09-.16,0,0a.76.76,0,0,1-.08-.11l0-.07s.06.19,0,.08a.53.53,0,0,1,0-.12.64.64,0,0,0,0-.07c0-.06,0,.08,0,.09s0-.12,0-.16v-.08c0-.06,0,.08,0,.08a.7.7,0,0,0,0-.14l0-.06c0,.1,0,0,0,0s0-.05,0-.08,0,0,0-.06-.09.11,0,.06l.09-.11.1-.08s-.14.09-.05,0l.07,0,0,0c.09,0,0,0-.06,0a.25.25,0,0,0,.12,0c.07,0-.13,0,0,0H130c.08,0-.13,0,0,0h.07l.12,0,.07,0s-.14-.07-.06,0l.13.07.06,0,0,0,.09.09.09.09c-.13-.11-.08-.11,0-.06a.35.35,0,0,0,0,.08l0,.05c.06.09,0-.07,0-.08a.57.57,0,0,1,0,.14s0,.18,0,0,0,.05,0,.09,0,.18,0,.05,0,0,0,0,0,.13,0,.14l0-.09,0,.08-.08.13c-.06.1.13-.15,0,0a2,2,0,0,1-.21.2c-.06.07.16-.09.08-.05l0,0a.83.83,0,0,1-.13.07s.2-.07.09,0h0l-.06,0c-.07,0-.12,0,.07,0H130c-.07,0,.12,0,.1,0s-.19-.05-.25-.07.07,0,.07,0l-.06,0-.11-.06-.09-.07c.13.08.1.08.05.05l-.06-.06a.6.6,0,0,1-.08-.08s0,0-.05-.05,0,.05,0,.06a.33.33,0,0,0-.06-.1.76.76,0,0,0-.08-.11c-.16-.21,0,.1,0,0s-.07-.15,0,0,0,0,0-.07a.06.06,0,0,1,0,0c0-.09,0,0,0,0s0-.21,0-.18,0,.12,0,0v-.05c0-.09,0,0,0,0s0-.11,0-.13v0c0-.06-.05.08,0,0l0,0c0-.06.06,0,0,0a1.79,1.79,0,0,0,.13-.14c.06-.06-.11.07,0,0l.09-.05.05,0s0,0,0,0l.09,0,.1,0,.07,0h.27c.06,0-.1,0,0,0h.07l.19.06c-.08,0-.09,0,0,0l.05,0,.1.05,0,0c.05,0,0,0,0,0l.08.06.06.08c.06.06,0,0,0,0l0,.06,0,.09c0,.07,0-.05,0-.06a.11.11,0,0,0,0,.06.53.53,0,0,0,0,.12c0,.06,0-.11,0,0s0,.05,0,.08,0,.14,0,.06,0,0,0,.06,0,.1,0,.12l0,0,0,.06a.75.75,0,0,1-.07.12l0,.05s.08-.09,0-.05l-.19.2c-.09.09.1-.06,0,0l-.1.06-.1.06-.06,0c-.08.05,0,0,0,0a1.19,1.19,0,0,0-.23.07h-.07s-.1,0,0,0,0,0-.06,0-.17,0,0,0l-.1,0c-.19-.08.05,0,0,0s-.16-.11-.07,0a1.07,1.07,0,0,1-.19-.18c.07.08,0,0,0-.06a.54.54,0,0,1-.07-.13c0,.08,0-.05,0-.07s0-.06,0,0v0a.56.56,0,0,1,0-.13c0,.06,0,0,0,0l0-.09a.43.43,0,0,1,0,0c0,.06,0,0,0,0l0-.06a.39.39,0,0,1,.08-.1l.05,0s-.07,0,0,0l.11,0s-.06,0,0,0l0,0,.13,0h.15s-.07,0,0,0H130s0,0,0,0,0,0,0,0l0,0,.06,0c-.07-.06,0,0,0,0s0,0,0,0a.75.75,0,0,0,.07.12s0,.07,0,0,0,0,0,.05,0,.1,0,.15,0,0,0,0,0,.08,0,.12,0,0,0,0-.05.14,0,.06l-.06.12s0,.05,0,0l0,0,0,.05s-.08.06,0,0,0,0,0,0l-.08,0-.07,0c-.05,0,.08,0,0,0l-.13,0s-.16,0-.06,0h-.22l-.12,0-.05,0h0l-.06,0c-.07,0,0,0,0,0l-.09-.08-.11-.09s0,0,0,0l0,0,0-.06s0,0,0-.05,0,0,0,0,0,0,0,0,0-.06,0,0,0-.06,0-.09h0v-.07h0a.14.14,0,0,1,0-.06l0,0a.29.29,0,0,0,0-.36.28.28,0,0,0-.36-.08Z" transform="translate(-49.23 -60.09)"/><path class="cls-2" d="M147.58,138a.85.85,0,0,0-.88-.46,1.23,1.23,0,0,0-1,.66,2.26,2.26,0,0,0-.17.52,1.24,1.24,0,0,0,0,.43.72.72,0,0,0,.33.52,1.59,1.59,0,0,0,1,.3,1.92,1.92,0,0,0,1.71-1.15,1.85,1.85,0,0,0-.66-2.14,1.77,1.77,0,0,0-2.08-.08,2,2,0,0,0-.86,1.76,2,2,0,0,0,1.49,1.73,2.29,2.29,0,0,0,2.24-.76,2.83,2.83,0,0,0,.6-2.32,2,2,0,0,0-3.53-1.08,5.18,5.18,0,0,0-.67.73,3.67,3.67,0,0,0-.64,1.08,1.29,1.29,0,0,0,.54,1.48,2.89,2.89,0,0,0,1.23.29,3.37,3.37,0,0,0,2.17-.47,2.39,2.39,0,0,0,1.09-1.84,2,2,0,0,0-.66-1.69,2.07,2.07,0,0,0-2.39-.07,4.81,4.81,0,0,0-.41.27l-.2.16c-.11.08,0,0,0,0l-.35.26a2.22,2.22,0,0,0-.74,1.09,1.58,1.58,0,0,0,.38,1.48,2.33,2.33,0,0,0,1,.56,3.22,3.22,0,0,0,2.12-.15,1.75,1.75,0,0,0,1-1.92,2,2,0,0,0-2-1.41,3.11,3.11,0,0,0-2.12,1,2,2,0,0,0-.37,2.28,2.09,2.09,0,0,0,2.43.69,2.8,2.8,0,0,0,1.72-1.69,2.55,2.55,0,0,0-2.23-3.29,2.49,2.49,0,0,0-2.54,2.6,2.54,2.54,0,0,0,1.31,2,2.72,2.72,0,0,0,2.63.24,2.19,2.19,0,0,0,.77-3.06,2,2,0,0,0-.22-.29c-.08-.09-.2-.14-.27-.23l.1.07-.13-.09-.14-.11-.19-.1a2.28,2.28,0,1,0-1.74,4.21,1.87,1.87,0,0,0,2.37-1.18,1.68,1.68,0,0,0-1.6-2.13,1.45,1.45,0,0,0-1.28.8,1.63,1.63,0,0,0,0,1.46,1.29,1.29,0,0,0,.51.55,1.12,1.12,0,0,0,1.16,0,1.55,1.55,0,0,0,.79-1.38,1,1,0,0,0-1.48-.86,3.55,3.55,0,0,0-.79.61,1.62,1.62,0,0,0-.49,1l.31-.54a4.82,4.82,0,0,0-.62.57.53.53,0,0,0,.64.83c.19-.11.41-.2.6-.32l-.47.06a1.14,1.14,0,0,0,.58,0h.08l.17,0c.24-.1.3-.13.18-.07l.24-.1s.25-.13,0,0c.18-.09.37-.14.55-.25l-1.48-.86c0,.13,0,.15,0,0l.06-.14c0,.07,0,.06,0,0s.06-.08,0-.05,0,0,.11-.08c-.14.09.25-.07.07,0l.73.1c-.14-.08.19.18.08.06l.12.15c-.05-.09,0,0,0,.14,0-.13,0-.06,0,.1,0-.12,0-.09,0,.09l0-.11c0,.19-.08.21,0,.09a.46.46,0,0,1-.47.28c.18,0-.23-.07-.06,0s-.21-.1-.05,0-.18-.16,0,0-.13-.21,0-.05-.06-.24,0-.06l0-.15a.17.17,0,0,1,0,.1l0-.14a.32.32,0,0,1,0,.09q.1-.23,0-.09c-.05.09,0,.06.07-.07a1.14,1.14,0,0,0-.11.11l.12-.09-.08.05c-.15.11.22-.05,0,0h-.05c-.09,0-.06,0,.09,0H147c-.1,0-.07,0,.07,0a.75.75,0,0,0-.16,0c-.18,0,.17.11,0,0l-.1-.06c-.08,0-.06,0,.05,0a1.31,1.31,0,0,0-.12-.11c-.14-.13.1.17,0,0s-.05-.08-.07-.13l0,0c0-.09,0-.06,0,.08a.89.89,0,0,0-.07-.28l0,.12a.28.28,0,0,1,0-.09,1.41,1.41,0,0,0,0-.2c0,.1,0,.17,0,.07l0-.14,0,0c0-.08,0-.06,0,.07a.38.38,0,0,0,.06-.13l0,0c0-.08,0-.06-.05.05s.07-.08.1-.11l0,0c.07-.06.05-.05-.06,0a1.4,1.4,0,0,0,.16-.1c.15-.09-.19.06,0,0l.14,0c.16-.05-.19,0,0,0h.12a.89.89,0,0,0,.14,0,.74.74,0,0,0,.14,0c-.12-.05-.14-.06-.07,0l.09,0,0,0-.06,0a.43.43,0,0,0,.1.09c.13.12-.1-.17,0,0s0,.09.07.11l-.06-.13,0,.09s0,.09,0,.13,0-.21,0,0v.18c0,.17,0-.22,0-.05l0,.13c0,.09-.09.16,0,0a.67.67,0,0,0-.06.12s-.06.08-.08.12c.11-.21.11-.13,0-.06l-.1.09c.19-.2.1-.07,0,0l0,0,.07,0-.1,0h0a1,1,0,0,0-.17,0h-.17l.11,0-.11,0-.17-.05-.11,0c-.09,0-.08,0,0,0,0,0-.26-.13-.3-.16l-.15-.09c-.17-.11.14.13,0,0a2.94,2.94,0,0,0-.24-.25l.08.09-.06-.08s0,0,0-.08,0-.05,0,.09a2.33,2.33,0,0,1-.07-.25c0-.11,0-.13,0,0a.57.57,0,0,0,0-.13c0-.05,0-.09,0-.14s0,.19,0,0a2.63,2.63,0,0,0,.08-.3l0,.11a.2.2,0,0,1,0-.08l.06-.12c.06-.08.12-.08,0,0a.76.76,0,0,0,.08-.11s.09-.06.1-.09l-.1.07.07,0,.12-.07.08,0-.07,0a1.11,1.11,0,0,0,.26-.07s-.19,0-.05,0a.33.33,0,0,0,.14,0c.17,0-.17,0,0,0l.14,0s.12,0,.14,0l-.06,0,.09.05.13.08c.14.09-.14-.13,0,0l.2.21c.13.13-.1-.17,0,0l.08.13.07.13c0,.08,0,.06,0-.07l0,.09,0,.14c.05.17,0-.2,0,0v.2c0,.09,0,.07,0-.07a1.4,1.4,0,0,0-.09.29l0-.11,0,.09a1,1,0,0,1-.11.17c-.09.16.14-.15,0,0l-.1.12-.11.1c-.14.13.18-.12,0,0a2.26,2.26,0,0,1-.26.16l-.14.07.09,0-.1,0-.15,0c-.18,0,.21,0,0,0a2.35,2.35,0,0,0-.26,0l.12,0-.11,0c-.18,0,.16.1,0,0s.14.14,0,0,.14.2,0,0,.05.22,0,.06,0-.08,0,.06a.66.66,0,0,0,0-.14l0,.13s0-.06,0-.09l0-.13c.05-.17-.09.17,0,0a.91.91,0,0,0,.07-.14l.06-.08c.05-.07,0-.06,0,.05.07-.05.13-.17.2-.23s.18-.14,0,0l.17-.13q-.15.1,0,0a1.77,1.77,0,0,1,.33-.19c-.2.06,0,0,0,0l.12,0c.09,0,.08,0,0,0a.54.54,0,0,1,.18,0c.18,0-.11-.05,0,0l0,0c.08,0,.07,0,0,0l.05,0c.07,0,.06,0,0,0l.12.1,0,0c.06.07,0,.05,0,0a.83.83,0,0,0,.07.13q-.08-.19,0-.06c0,.08,0,.06,0-.07v.15c0-.11,0-.18,0,0s.11-.18,0-.06-.09.14,0,0,0,0,0,0-.13.05.06,0l-.1.07c-.09,0-.24.06,0,0l-.52.13c-.17,0,.23,0,.05,0h-.46c-.09,0-.13-.06.05,0a1,1,0,0,0-.15,0,2,2,0,0,0-.3-.09l.11,0-.09,0,0,0c-.08,0-.06,0,.06.05s-.09-.1-.11-.1.11.14.06.06,0-.06,0,.06c-.06-.18,0,.18,0,0s0,.18,0,0-.08.13,0,0l.09-.15s.12-.21,0,0a.81.81,0,0,1,.12-.14,2.13,2.13,0,0,1,.31-.29l0,0,.15-.1a2,2,0,0,1,.32-.17c-.17.06.11,0,.16,0s-.13,0,0,0h.11c-.09,0-.09,0,0,0h.06c.08,0,.07,0,0,0l.1.06c.13.06-.12-.12,0,0l.08.08c.09.11-.09-.16,0,0l.06.11c-.11-.17,0-.11,0,0s0,.11,0,.16c-.06-.16,0-.12,0,0v.12s0,.09,0,.13c0-.19,0-.11,0,0s-.05.16-.07.24c0-.2,0-.11,0,0a1.09,1.09,0,0,1-.08.15c-.08.13.14-.15,0,0l-.09.09c-.1.1,0,0,0,0s-.11.07-.13.09l-.29.15c-.17.08.2-.06,0,0l-.21.06-.16,0H147q-.14,0,.06,0c-.06,0-.26,0-.33,0a3.74,3.74,0,0,1-.67,0H146l-.1,0c-.16,0,.14.1,0,0s.12.11.13.13a.35.35,0,0,1,.05.31l0-.2c0,.11,0,.12,0,0l0-.06c0-.08,0-.07,0,0a.69.69,0,0,1,.1-.19l.16-.3a1.1,1.1,0,0,0,.09-.14c.1-.16-.1.11,0,0a2.75,2.75,0,0,1,.22-.26l.12-.11.09-.08,0,0a.81.81,0,0,1,.27-.16c.14-.09-.16,0,0,0l.14,0h.15c.15,0-.14-.05,0,0l.09,0c-.09,0-.1,0,0,0l.12.07s-.13-.11,0,0,.07.09.1.1l-.07-.08a.22.22,0,0,1,.05.08l0,0c0,.07,0,.06,0-.06s0,.12,0,.14a.3.3,0,0,1,0,.1s0,.06,0,.09,0-.14,0,0v.3c0,.17,0-.19,0,0a.83.83,0,0,0,0,.15s0,.1,0,.15l0,.05c0,.09,0,.07,0-.05s-.15.29-.18.33.14-.15,0,0l-.11.12-.12.1c-.14.13.19-.11,0,0l-.14.08,0,0,.08,0a1.13,1.13,0,0,0-.15,0l-.09,0c.13,0,.16,0,.07,0h-.21c.19,0,.16,0-.1,0,.31.06-.1,0-.12,0l.1,0-.08,0-.05,0c-.07,0,0,0,.05,0l-.11-.1c-.09-.09.11.17,0,0s0-.1,0,0c0,0,0-.08,0-.12v0c0-.08,0-.06,0,.07,0,0,0-.1,0-.13s0,0,0,0,0-.1,0-.12v0c0-.07,0-.06,0,0a.43.43,0,0,0,.05-.12.3.3,0,0,0,.07-.1c0,.09-.08.1,0,0a.73.73,0,0,0,.09-.08c0,.09-.11.07,0,0s.06,0,0,0,.09,0,.13,0h0c.08,0,.07,0,0,0l.1,0c.15,0-.12-.08,0,0l.13.07c.14.08-.1-.1,0,0l.1.11c.12.11-.07-.14,0,0s.05.08.07.13,0-.16,0,0a.29.29,0,0,1,0,.09c0-.1,0-.12,0,0s0,.13,0,.15v-.09a.29.29,0,0,1,0,.09c0,.14.09-.15,0,0a.41.41,0,0,0-.07.11c0-.1.1-.12,0,0a.9.9,0,0,0-.1.09l.1-.07-.07.05-.15.09c-.09.05-.13,0,0,0a.65.65,0,0,0-.13,0s-.1,0-.12,0l.1,0h-.09a.49.49,0,0,0-.12,0c.07,0,.14,0,0,0s-.19-.06,0,0l-.12,0,.35.61c0-.13,0-.26,0-.4s0-.07,0,0,0,0,0-.13c0,.07,0,.07,0,0s0,.05,0,0l0,0c.05-.05,0,0,0,0l-.05,0,.08,0h0c.06,0,0,0,0,0l-.07-.06a.47.47,0,1,0,.81-.47Z" transform="translate(-49.23 -60.09)"/><path class="cls-2" d="M130.58,136.48a1,1,0,0,0-.33-1.46,1.58,1.58,0,0,0-1.52,0,1.9,1.9,0,0,0-.74,2.71,1.87,1.87,0,0,0,.65.66,2.12,2.12,0,0,0,.86.23,2.23,2.23,0,0,0,2.24-2,2.19,2.19,0,0,0-.59-1.57,2.55,2.55,0,0,0-1.28-.79,2.48,2.48,0,0,0-1.63.18,2.8,2.8,0,0,0-1.59,2.57,1.78,1.78,0,0,0,1,1.55,2.15,2.15,0,0,0,1.65.09,2.39,2.39,0,0,0,1.33-1.15,2.45,2.45,0,0,0,.23-1.72,2.27,2.27,0,0,0-2.63-1.62,1.94,1.94,0,0,0-1.27,2.73,1.44,1.44,0,0,0,.62.55.73.73,0,0,0,.87-.12.76.76,0,0,0,.12-.87c-.07-.13,0,.19,0,.05a.64.64,0,0,0,0-.07c0-.13,0,.1,0,.1a2.84,2.84,0,0,0,0-.29c0-.09,0-.05,0,.11a.21.21,0,0,0,0-.08s0-.12,0-.12,0,.4,0-.12c0-.21-.06.2,0,0l.06-.17c-.07.24-.07.15,0,.07a.16.16,0,0,0,0-.07c.07-.12-.06.1-.07.09l.1-.1c.06-.07.13-.05-.09.06l.07,0s.15-.07,0,0,0,0,0,0l.09,0c.15,0-.18,0-.08,0h.17l-.11,0a.35.35,0,0,0,.11,0c.08,0,.11.08-.06,0a1.51,1.51,0,0,0,.17.1c.07,0,.1.11-.05-.05l.07.06.08.07,0,0L129,136a.75.75,0,0,0,.09.15c.09.15-.06-.22,0,0s0,.06,0,.09,0,.19,0,0,0,0,0,0v.09a.38.38,0,0,1,0,.1l0-.14a.59.59,0,0,1,0,.23l0,.09c.05-.22.06-.12,0,0l-.09.16c-.1.15.15-.17,0,0l-.09.11s-.23.19-.08.08-.05,0-.1,0l-.09.05c-.1.06.24-.07.08,0l-.09,0s-.23,0-.06,0-.06,0-.11,0h-.1c-.11,0,.22.05.07,0s-.25-.08-.1,0,0,0,0,0-.05,0,0,0,.07.05,0,0l-.06-.06c-.12-.11.12.19,0,0s0,0,0,.06,0-.11,0-.13,0,0,0,0v-.25a.22.22,0,0,1,0-.08c0,.11,0,.13,0,.08s0-.15.05-.22l0,0c0-.08,0-.06,0,0s0-.09,0-.09a2.39,2.39,0,0,1,.13-.21s0-.05,0-.08c-.11.18,0,.05,0,0l.17-.17.08-.06c0,.09-.12.09,0,0l.19-.11,0,0-.06,0s.11,0,.14,0l.09,0h.19c.15,0-.13,0,0,0l.12,0,.09,0c.17.05,0,0,0,0l.2.11,0,0c-.1,0,0,0,0,0s.17.2.09.09l0,0a.75.75,0,0,1,.07.12.59.59,0,0,0,0,.08l0-.11,0,.08a.48.48,0,0,0,0,.18v.07s0,.18,0,0,0,0,0,0a.45.45,0,0,0,0,.11c0-.15.07-.16,0-.09a1.14,1.14,0,0,0-.1.19c.07-.16.11-.14.06-.08l-.09.09-.06.06c-.08.07-.14.06,0,0l-.18.11s-.25.12-.09.05,0,0-.09,0-.17,0,0,0,0,0-.06,0h-.08c.21,0,.14,0,.05,0s-.16-.06,0,0,.08,0,0,0c-.24-.1-.26-.11-.09,0,0,0-.06,0-.08,0s.13.12,0,0l-.08-.08,0,0,0,0a.52.52,0,0,0-.11-.19c.09.11,0,.11,0,0a.62.62,0,0,1,0-.16s0,.18,0,0v-.13c0-.15,0,.09,0,0s0-.11.05-.16v0s.1-.14,0,0l.08-.09.06-.06c-.07.06.05,0,.05,0l.13-.07c-.11.06,0,0,0,0l.14,0c.08,0-.12,0,0,0s.16,0,0,0,.14,0,.07,0,.06,0,.08,0-.06-.08,0,0l0,0c0-.08,0-.06,0,0a.2.2,0,0,1,0-.11c0-.06,0-.07,0,0a.5.5,0,0,0,.79.6Z" transform="translate(-49.23 -60.09)"/><path class="cls-2" d="M141.21,119.51a.76.76,0,0,0-.46-1.07,1,1,0,0,0-1,.38l-.06.07-.08.12s0,0,0,0l-.19.27a2.22,2.22,0,0,0-.28.58,1.66,1.66,0,0,0,.09,1.22,1.55,1.55,0,0,0,1,.81,1.52,1.52,0,0,0,1.29-.31,3.16,3.16,0,0,0,1.26-2.1,1.53,1.53,0,0,0-.42-1.23,1.51,1.51,0,0,0-1.08-.45,2,2,0,0,0-1.82,1.13,4.13,4.13,0,0,0-.39,1,2.52,2.52,0,0,0-.09,1.25,1.56,1.56,0,0,0,2,1,1.86,1.86,0,0,0,1-.88,2.85,2.85,0,0,0,.3-1.22c0-.15,0-.3,0-.45s0-.13,0-.19c0-.43,0-.2,0-.1,0-.1,0-.21,0-.31a1.29,1.29,0,0,0-1.16-1,1.55,1.55,0,0,0-.56.08l-.23.1c.08,0,.28-.13-.1,0l-.23.12a3.5,3.5,0,0,0-.87.61,2.1,2.1,0,0,0-.62,2.16,1.86,1.86,0,0,0,1.89,1.24,2.26,2.26,0,0,0,1.9-1.28,3,3,0,0,0,.3-1.21,4.28,4.28,0,0,0-.11-1,1.65,1.65,0,0,0-.7-1.06,1.47,1.47,0,0,0-1.45,0,2.6,2.6,0,0,0-.88.7,3.36,3.36,0,0,0-.65,1.09,2.16,2.16,0,0,0,.56,2.27,1.85,1.85,0,0,0,2.36.16,2.37,2.37,0,0,0,.84-1.8,3.64,3.64,0,0,0-.34-1.81,1.32,1.32,0,0,0-1.2-.72,2.22,2.22,0,0,0-1.27.6,3.14,3.14,0,0,0-1.16,1.68,1.92,1.92,0,0,0,.18,1.31,1.82,1.82,0,0,0,1,.82,2.27,2.27,0,0,0,2.07-.36,3,3,0,0,0,1.05-2.12,2.42,2.42,0,0,0-.44-2.06,1.29,1.29,0,0,0-1.57-.12,4.79,4.79,0,0,0-.91.7,2.61,2.61,0,0,0-.89,2,1.94,1.94,0,0,0,1.44,1.83,2.23,2.23,0,0,0,2.12-.72,3.08,3.08,0,0,0,.56-2.53,2.43,2.43,0,0,0-.49-1.22,1.41,1.41,0,0,0-1.7-.24,3.44,3.44,0,0,0-.84.68,5.67,5.67,0,0,0-.73.89,2.33,2.33,0,0,0-.14,2.36,1.94,1.94,0,0,0,2.1,1,1.82,1.82,0,0,0,1.25-2,2.41,2.41,0,0,0-1.36-2.17,1.5,1.5,0,0,0-1.22.17,2,2,0,0,0-.8,1,1.84,1.84,0,0,0,0,1.09,2.21,2.21,0,0,0,.84,1.11,2.38,2.38,0,0,0,.9.38,1.7,1.7,0,0,0,1.37-.28l-.71.19h0a.8.8,0,0,0,.55-.07.75.75,0,0,0,.34-.44.73.73,0,0,0-.52-.88h0l.44.34a1.63,1.63,0,0,0-.52-.46s-.16-.11,0,0l0,0a.71.71,0,0,0-.32-.17l.14.06-.22-.09.07,0-.36-.2s-.13-.09,0,0,0,0,0,0l-.16-.16.17.21a1.09,1.09,0,0,1-.14-.23l.1.25,0-.09c-.06-.15,0,.09,0,.12s0-.08,0-.1-.06.26,0,.12.09-.25,0-.07,0,0,0,0l.06-.1-.15.2a.77.77,0,0,1,.18-.18L141,120a.38.38,0,0,1,.15-.09l-.25.1c.11,0,.22,0-.09,0,.1,0,.14,0-.12,0,.14,0-.24-.12-.1,0s.05,0-.09-.07l.07.08-.16-.21a1.94,1.94,0,0,1,.22.4l-.1-.24a2.53,2.53,0,0,1,.12.36,1.16,1.16,0,0,1,0,.18c0,.11,0-.22,0-.11s0,.07,0,.11v.08c0,.14,0-.12,0-.12a.75.75,0,0,1,0,.16s.12-.22.05-.12-.1.15,0,0,0,0-.06,0l.2-.16a.67.67,0,0,1-.14.09l.24-.1-.11,0c-.14,0,.25,0,.1,0s.23.06.09,0-.09-.06.08,0a.39.39,0,0,0-.11-.06c-.09-.06-.09-.14.07,0l-.18-.18.16.2a1.11,1.11,0,0,1-.17-.3l.1.24a.56.56,0,0,1,0-.12.29.29,0,0,1,0-.09c0,.18,0,.22,0,.15v-.14c0-.09,0,.25,0,0A.84.84,0,0,0,141,120c0-.16-.1.2,0,0l.15-.27a1,1,0,0,0,.09-.13c-.14.24-.07.09,0,0l.21-.24c.16-.16.32-.33.49-.47l-.2.16a1.4,1.4,0,0,1,.26-.16l-.24.1.09,0h0a.49.49,0,0,1-.24,0,.43.43,0,0,1-.16-.05c-.08,0-.09,0,0,0s-.18-.17-.08,0l-.16-.21a.54.54,0,0,1,.07.13l-.1-.24a4.61,4.61,0,0,1,.16.64c0,.18,0-.22,0,0,0,0,0,.09,0,.14s0,.22,0,.34,0-.22,0-.06l0,.17a.75.75,0,0,0-.05.16c.05-.23,0-.12,0,0a1.05,1.05,0,0,1-.07.11s.18-.21,0-.06a1.07,1.07,0,0,1-.19.18l.2-.15a1.63,1.63,0,0,1-.34.19l.23-.09-.14.05h-.07c-.14,0,.13,0,.12,0s-.14,0-.15,0h-.06s.24,0,.11,0l-.08,0s.2.1.12,0l-.07,0c-.1,0,.13.09.1.08s-.08-.08-.11-.1.11.11.08.11,0-.08,0-.09,0,0,0-.06c.11.14.06.19,0,.1s0-.1,0-.15,0-.06,0-.06,0,.2,0,.12v-.18s0-.15,0,0,0,0,0,0a.83.83,0,0,0,0-.15c.06-.18-.08.15,0,0a1.62,1.62,0,0,1,.1-.18s.14-.21,0-.08,0,0,.05-.06a2.44,2.44,0,0,1,.29-.27l.09-.07-.08.06.15-.11.16-.11.07,0s-.18,0-.05,0a.49.49,0,0,1-.44-.1c-.16-.12.05.09-.08-.08s0-.06,0,0-.09-.21,0,0c0,0,0,0,0,.06-.07-.2,0-.17,0-.08s0,.21,0,.32a1,1,0,0,1,0,.16c0,.11,0-.19,0-.07s0,.07,0,.1l-.09.41a1.18,1.18,0,0,1-.07.2l0,.1c0,.11.08-.18,0-.08a2.53,2.53,0,0,1-.2.36c-.05.09.07-.1.07-.09a.65.65,0,0,1-.08.09.86.86,0,0,1-.14.13l.2-.16a1.23,1.23,0,0,1-.37.21l.24-.09c-.11,0-.22.06-.33.09.29-.08.14,0,0,0h0l-.16,0,.11,0-.07,0c-.12-.07.2.18,0,0a.69.69,0,0,1-.11-.13l.15.2-.09-.16c.06.17.08.2,0,.11a.29.29,0,0,0,0-.09c0,.17,0,.2,0,.11v-.09c0-.22,0,.15,0,0l.06-.18c0-.08,0-.06,0,.08l0-.09a.83.83,0,0,1,.07-.13l.05-.09c.05-.07,0,0,0,.06s.1-.12.14-.16a.93.93,0,0,1,.14-.14l.16-.14-.06,0,.08-.06.13-.09c.06,0,.28-.12,0,0,.09,0,.07,0-.05,0a.37.37,0,0,1-.23-.07c-.11-.09-.14-.11-.08,0-.09-.13-.11-.15-.06-.08s-.07-.22,0,0a.29.29,0,0,1,0,.09c0,.09,0,.06,0-.09,0,.09,0,.19,0,.28s0,.44,0,.67c0-.31,0-.12,0,0l0,.12s0,.1,0,.16-.12.25,0,0c0,.09-.08.17-.13.26s.19-.22,0-.06l-.1.09.21-.16a1.2,1.2,0,0,1-.21.13l.23-.1-.1,0-.08,0s.22,0,.13,0-.2,0,0,0-.19-.08,0,0,0,0,0,0c-.18-.1.12.13,0,0l-.1-.09c-.06-.06,0-.11.06.08,0,0,0,0-.05-.08s-.06-.13-.07-.13.07.2.05.12l0-.09v-.07s0,.2,0,.11v-.22c0-.09,0,.09,0,.09s0-.05,0-.08,0-.12,0-.18l0-.07c0-.09,0,.08,0,.08a1.74,1.74,0,0,0,.1-.19.64.64,0,0,1,.08-.14l0-.07c.05-.08,0,.07,0,.06a3.08,3.08,0,0,1,.26-.28c.05,0,.09,0,0,0l.07,0,.14-.09-.08,0c.13,0,0,0-.06,0s.06,0,.08,0h0a.23.23,0,0,1-.11,0c-.1,0,0,0,0,0s.09.09-.07-.06c.09.09-.1-.17,0,0a.45.45,0,0,0,.06.12c-.1-.14-.06-.16,0-.08a.24.24,0,0,1,0,.08.64.64,0,0,0,0,.07c0,.08,0-.11,0-.1a.75.75,0,0,0,0,.15v.15s0,.27,0,.12,0,0,0,.08a1.46,1.46,0,0,1-.05.2s0,.11-.05.17-.09.25,0,.1,0,0,0,.07l-.1.17s-.07.1,0,0,0,0,0,0l-.13.13.2-.15a1.58,1.58,0,0,1-.24.15s0,0-.06,0,.22-.07.13,0l-.17,0s-.19,0,0,0,0,0,0,0H140c-.09,0,.15,0,.13,0s-.13,0-.17,0,.17.1.06,0-.18-.12-.05,0,0,0,0,0,.08.1.06.09,0-.08-.06-.1,0,.1,0,.1a.19.19,0,0,0,0-.07s0,0,0-.07,0-.08,0,.07a.66.66,0,0,0,0-.14s0-.11,0,0,0,0,0,0,0-.1,0-.14-.07.12,0,0a1.4,1.4,0,0,0,.1-.16c0-.07,0,.06-.05.06s.05-.06.07-.08l.13-.13a.15.15,0,0,0,.06,0l-.06,0,.32-.19.17-.07c.14-.07-.14,0,0,0l.14,0h-.05c.1,0,0,0-.06,0s.08,0,0,0a.36.36,0,0,1-.14-.1l-.05-.06s.05.1,0,0,0,0,0,0,0-.18,0-.09v.19c0,.06,0,.12,0,.17v.11c0,.11,0,0,0-.06,0,.13-.05.26-.08.39a1.77,1.77,0,0,0-.06.17c0-.17.07-.14,0-.07a.41.41,0,0,1-.05.09.16.16,0,0,1,0,.07c0,.09.16-.18,0-.05l-.12.12.2-.15-.2.12.23-.1-.18.06h-.08c-.13,0,.13,0,.13,0s-.08,0-.1,0,.26.06.11,0h0c.17.07.16.14.1.08s.12.19.07.09.06.24,0,.06,0,0,0,.07c0-.07,0-.15,0-.22s0-.19,0-.29.06-.13,0,0c0,0,0-.08,0-.1s0-.16,0-.24l.06-.22,0-.1c.05-.16-.07.13,0,0l.06-.12c.09-.13,0,0,0,0s.12-.11.12-.13-.13.09,0,0l.1-.06c.07,0,.06,0-.07,0a.56.56,0,0,0,.12,0h.09c-.14.06-.15,0-.05,0s-.2,0-.06,0l.08,0c-.1,0-.15-.08-.07,0s.14.09,0,0,0,0,0,0l-.08-.1a.56.56,0,0,1,.05.08s-.08-.21,0-.08,0,.08,0-.08a.14.14,0,0,0,0,.09c0,.16,0-.15,0,0l0,.11c0,.06-.07.11,0-.06,0,.07-.07.15-.12.23l-.07.11v0c-.06.07,0,.06,0-.06a1.15,1.15,0,0,0-.14.17,4.14,4.14,0,0,1-.35.38s-.23.2-.1.1,0,0,0,0-.07,0,.08,0l-.09,0-.22.09c.3-.06.39-.08.27-.08s.2.05,0,0,.16.09,0,0l0,0c.1.07.06,0-.11-.09.08.07.11.08.07,0l.05.06-.05-.08c-.08-.12,0,.14,0,0a.29.29,0,0,1,0-.09c0,.14,0,0,0-.06s0,0,0,0a.85.85,0,0,1,0-.17s0-.09,0-.14a.41.41,0,0,1,0-.08l.13-.23c-.06.1,0,0,0,0s0,0,0,0l0,0c-.23.1-.41-.07-.29-.36a.5.5,0,0,0,.18.65.49.49,0,0,0,.66-.18Z" transform="translate(-49.23 -60.09)"/><path class="cls-2" d="M156.24,121.94a1,1,0,0,0,.69-.83.82.82,0,0,0-.6-1,1.69,1.69,0,0,0-1.75.77,1.56,1.56,0,0,0-.17,1.08,1.83,1.83,0,0,0,.18.46l.1.15.06.07,0-.05c0,.09.14.2.2.27l.15.14.13.1c-.16-.12.17.11.21.13a2,2,0,0,0,.63.15,1.81,1.81,0,0,0,1.23-.5,3.12,3.12,0,0,0,.86-2,1.78,1.78,0,0,0-1.07-1.88,2.52,2.52,0,0,0-2.18.61,2.68,2.68,0,0,0-1.19,2,2,2,0,0,0,1.13,2,2.16,2.16,0,0,0,2.28-.53,2.76,2.76,0,0,0,.85-2,1.84,1.84,0,0,0-1.39-1.81,2.37,2.37,0,0,0-1.14,4.6,2.17,2.17,0,0,0,2.24-.72,2.07,2.07,0,0,0,.27-2.39l0-.07-.14-.18.09.1a2.62,2.62,0,0,1-.24-.3,2.34,2.34,0,0,0-1.51-.7,2,2,0,0,0-1.86,1,2.28,2.28,0,0,0-.08,2.15,1.83,1.83,0,0,0,2.51.8,2.37,2.37,0,0,0,1.23-2.21,4.43,4.43,0,0,0-.2-1.2,2.15,2.15,0,0,0-.83-1.19,2.07,2.07,0,0,0-2.25.06,3,3,0,0,0-.8,4.34,2.42,2.42,0,0,0,2,.82,2.36,2.36,0,0,0,1.31-.55,2.55,2.55,0,0,0,.68-1.06,4,4,0,0,0,.22-.84,2.82,2.82,0,0,0,0-1.26,1.55,1.55,0,0,0-1.18-1.08,2.14,2.14,0,0,0-1.44.28,2.63,2.63,0,0,0-1.28,2.06,2.18,2.18,0,0,0,1.09,2,2.16,2.16,0,0,0,2.22,0,2,2,0,0,0,.85-2.29,1.71,1.71,0,0,0-.86-1,1.85,1.85,0,0,0-1.31-.11,1.69,1.69,0,0,0-1,.79,1.53,1.53,0,0,0,0,1.48,1.75,1.75,0,0,0,1,.82,1.5,1.5,0,0,0,1.43-.32,1.08,1.08,0,0,0,.34-1,1.27,1.27,0,0,0-.55-.89,2.18,2.18,0,0,0-1.33-.41,2,2,0,0,0-2,1.66,1.66,1.66,0,0,0,1.57,2,1.7,1.7,0,0,0,1.22-.52,1.52,1.52,0,0,0,.38-1.41,1,1,0,0,0-1.88.49c0-.17,0-.22,0-.15s0,0,0-.15c0,.16.11-.23,0-.09s.18-.17.05-.08l-.09.08.21-.16-.14.08.24-.1-.15,0,.13,0c-.1,0-.06,0,.13,0l-.08,0c.17.08.21.09.13,0,.24.15.12.1,0,0l.16.21a.64.64,0,0,1-.08-.14l.1.25a.56.56,0,0,0,0-.12c-.05-.14,0,.22,0,.11v-.11c0-.07,0-.06,0,0s0,.11,0,0l0-.11c0-.1-.12.22,0,.1l0,0c0-.07,0,0-.09.11l.1-.09-.21.16a1.35,1.35,0,0,1,.26-.15l-.24.1.14,0s.2,0,0,0,0,0,0,0h0a1.14,1.14,0,0,0,.25.06l-.11,0,.07,0s-.21-.19-.06,0l-.16-.21a.35.35,0,0,1,0,.08l-.1-.24c.05-.39.05-.5,0-.34l.25-.44a.12.12,0,0,1-.05,0l.21-.16-.1,0,.24-.1-.07,0c.19-.09.24,0,.13,0l.14,0c-.09,0-.11-.08.1,0l-.07,0c-.11,0,.1.06.11.09s-.12-.12-.14-.15l.16.21a.54.54,0,0,1-.07-.13l.1.24c0-.1,0-.23,0,.07,0-.09,0,0,0,.14,0-.07,0-.06,0,0s0,.11,0,0,0,0-.09.11l.11-.11-.21.17.16-.1-.25.1.11,0c.05,0,.18,0,0,0s-.05,0,0,0,.11.06-.09,0l.09,0c.11,0-.23-.12-.11,0s0,0-.07-.07a.87.87,0,0,1,.08.1l-.16-.21a1.18,1.18,0,0,1,.11.19l-.1-.25,0,.13c0,.16,0-.21,0-.1v.11c0,.17.06-.2,0-.09a.35.35,0,0,0,0,.11c0,.17.12-.22,0-.07l0,.08c-.08.15.17-.2,0,0s-.12,0,.09-.06l-.11.07c-.07,0-.14,0,.13,0l-.12,0h-.09c.26-.07.19,0,.09,0h-.09c-.15,0,.27.06,0,0l-.08,0c-.1,0-.15-.1.07,0L156,122c-.13-.07.11.07.09.08L156,122a.6.6,0,0,1-.08-.08s.16.24.05,0a.25.25,0,0,1,0-.07c-.09-.15.07.25,0,.08l0-.12c0-.12,0-.09,0,.08a1.92,1.92,0,0,0,0-.24c0,.24,0,.16,0,.06s0-.09,0-.14-.08.18,0,.07l0-.11a.5.5,0,0,1,.08-.12s-.17.2-.06.08l.17-.17c.14-.14-.21.14,0,0l.13-.08c.08,0,.21-.06-.06,0l.1,0a.9.9,0,0,0,.16,0c-.07,0-.2,0-.08,0s-.21,0,0,0l-.13,0c-.11-.09-.15-.12-.1-.07s-.14-.22,0-.07-.08-.23,0-.07,0-.23,0,0v.13s0,.33,0,.15,0,0,0,0l0,.15a2.8,2.8,0,0,1-.06.28c0,.08,0,.19-.09.27s.1-.23,0-.1l-.06.14-.05.08c-.05.08-.15.16,0,0-.06.06-.14.2-.21.21s.23-.15.09-.07l-.13.07c.17-.12.21-.07.12,0l-.13,0c-.15,0,.13,0,.12,0a.66.66,0,0,1-.14,0h-.07l-.11,0c-.09,0-.13-.09.08,0l-.21-.11c-.08,0-.12-.14.05,0l-.07-.06a.47.47,0,0,1-.1-.1c-.07-.07-.08-.17,0,.06l-.12-.2c-.09-.17.06.23,0,0a.45.45,0,0,0,0-.11.9.9,0,0,0,0-.16c.07.12,0,.18,0,.08s0-.22,0-.33c0,.23,0,.11,0,0l0-.1a2.76,2.76,0,0,0,.08-.27l0,.12s0-.07,0-.1a1115104081320.42,1115104081320.42,0,0,0,.14-.24l.06-.09-.08.1c.07,0,.13-.14.19-.19l.09-.08c-.16.16-.13.09,0,0a1.71,1.71,0,0,1,.23-.13c.08,0,.08,0-.09,0l.16,0,.11,0c-.2.07-.15,0-.05,0h.09l-.14,0,.09,0c.08,0,.05.07-.09,0l.12.06c-.09,0-.16-.12-.08,0l-.05-.06.06.09c.08.13,0-.05,0-.07s0,.12.05.16l.06.27a.52.52,0,1,1,0,.06c-.05-.14,0,0,0,.06s0,.24,0,.36a.76.76,0,0,1,0,.15v0c0,.1,0,.08,0-.07a2.11,2.11,0,0,0-.06.29l0,0c0,.1,0,.08,0-.06a.36.36,0,0,0,0,.09l0,0,.06-.08a.5.5,0,0,0-.1.11c-.13.14.2-.12,0,0l-.09.06,0,0,.1,0-.1,0c-.17,0,.24,0,.06,0h0l-.09,0c.13,0,.16.06.1,0l-.07-.05.1.08-.08-.08c-.12-.1,0,.07.06.08l-.16-.2c.11.15.14.18.08.1a.3.3,0,0,0,0-.08c.13.17.07.18,0,.07l0-.1c0-.09,0-.15,0,.08,0,0,0-.08,0-.12s0-.09,0-.13c0,.2,0,.17,0,.07a1.8,1.8,0,0,0,.06-.22s-.1.2,0,.09l.06-.12s0,0,.05-.07c-.1.12-.12.15-.06.08l.06-.06.06-.06c.11-.11-.19.12-.05,0l.07,0c.14-.09-.21.06,0,0l.08,0h.15c-.14,0-.17,0-.08,0l.09,0c.09,0,.11.09,0,0l.2.11c.14.08-.11-.11,0,0l.09.08.08.08c.13.13-.07-.15,0,0s.08.17,0,0,0,0,0,0,0,.17,0,0,0,0,0,0v.15c0,.1,0,0,0-.08a.57.57,0,0,0,0,.14c0,.15.1-.18,0,0l-.08.12c0,.08-.08,0,.06-.07-.06.05-.11.13-.17.18s.2-.13,0,0l-.08,0L156,122c.21-.14.15-.06.05,0l-.14,0c-.15,0,.1,0,.1,0a.38.38,0,0,1-.15,0c-.18,0,.18,0,.06,0l-.12,0s-.18-.07,0,0,0,0,0,0l-.15-.09c-.1-.06.18.16.06,0l-.09-.09-.09-.09.09.12-.06-.08a.94.94,0,0,0-.12-.22s.07.23,0,.09,0-.13-.05-.19,0,0,0,.07a.71.71,0,0,0,0-.14s0-.07,0-.1c0,.22,0,.1,0,0l0-.09c0-.09.1-.14,0,0a.73.73,0,0,0,.05-.09s.1-.12.1-.16-.11.12,0,.05l.1-.11.07-.07c.13-.12-.16.11,0,0l.21-.12c.15-.09-.14,0,0,0l.17-.05s.18,0,0,0h.12c.08,0,.07,0,0,0s.09,0,.1,0h0l.09.05-.07-.05.06.08,0-.07,0,.06c.08.13,0-.16,0,0,0,0,0-.18,0,0a1,1,0,0,1,0,.24c0,.17,0-.17,0,0s0,.06,0,.09a.88.88,0,0,1-.05.15c0,.16.08-.15,0,0l-.12.22c-.05.07-.14.12,0,0l-.08.1-.18.18-.09.09c-.13.12.19-.13,0,0l-.21.14-.11,0,.14,0-.09,0-.09,0h0c-.09,0-.06,0,.09,0l-.09,0a.24.24,0,0,1-.09,0l.12,0c-.25-.1-.28-.11-.09,0l-.08,0,.11.08-.07-.06-.06-.07c.15.12.1.13,0,0a.56.56,0,0,1-.05-.08c0-.08,0,0,0,.08l0-.09s0-.08,0-.09v.11c0-.24,0-.27,0-.09a1.85,1.85,0,0,0,0-.24c0,.12,0,.14,0,0l0-.11c.05-.18-.08.14,0,0a.61.61,0,0,1,.07-.14l.07-.11c.06-.1-.12.13,0,0l.18-.2.2-.18c.14-.12-.13.09,0,0l.14-.09.24-.14s.19-.12,0,0l.11,0s.22,0,0,0h.12c.15,0-.1,0,0,0-.19-.09,0,0,0,0l-.08-.06.06.06c-.07,0-.09-.14,0,0s0-.17,0,0a.52.52,0,0,0,0,.11c0,.08,0-.19,0,0a.48.48,0,0,1,0,.12v.12s0,.23,0,.09,0,0,0,0a.5.5,0,0,1,0,.12,2.58,2.58,0,0,1-.08.26.36.36,0,0,1,0,.09c-.06.18.08-.16,0,0a1.71,1.71,0,0,1-.14.27.47.47,0,0,0-.06.09c.09-.18.06-.08,0,0s-.14.11-.18.18c.07-.12.14-.1.06-.06l-.13.07.12,0-.15,0c-.14.06-.14.06,0,0-.09,0-.06,0,.07,0s-.07,0-.09,0,.17,0,0,0l0,0c-.22,0-.27,0-.15,0h.05l-.09,0h0l0,0-.09,0c-.13-.08.13.08,0,0s.05.11,0,0l0,0c0,.08,0,0,0-.05s0,.11,0,0v-.09c0,.14,0,0,0,0s.05-.08,0,0l.06-.12c.06-.11-.07.07,0,0l.1-.09s.06,0,0,0,.15-.07,0,0l.09,0,.13,0c-.1,0,0,0,0,0s.15,0,0,0l.13,0-.31-.24a.16.16,0,0,1,0,.07c0-.07,0-.07,0,0s0-.06,0,0,0-.07,0,0v0a.3.3,0,0,1,0,.08s0-.06,0,0a.19.19,0,0,1,.1,0,.53.53,0,0,0-.37.62.52.52,0,0,0,.63.37Z" transform="translate(-49.23 -60.09)"/><path class="cls-2" d="M125,157.51a1.28,1.28,0,0,0-1.45.57,1.34,1.34,0,0,0,0,1.45,1.89,1.89,0,0,0,2.58.47,3,3,0,0,0,.94-.89,2.28,2.28,0,0,0,.36-1.08,1.56,1.56,0,0,0-.4-1.19,1.43,1.43,0,0,0-1.44-.4,2.46,2.46,0,0,0-1.59,2.24,1.7,1.7,0,0,0,.53,1.15,1.94,1.94,0,0,0,1.19.5,1.68,1.68,0,0,0,1.72-1.42,2,2,0,0,0-.21-1.3,1.78,1.78,0,0,0-1-.8,1.93,1.93,0,0,0-2.49,2,2.21,2.21,0,0,0,.49,1.26,1.8,1.8,0,0,0,1.27.65,1.51,1.51,0,0,0,1.34-.74,2,2,0,0,0-.29-2.45,2,2,0,0,0-3.47.84,1.81,1.81,0,0,0,1.63,2.37,2,2,0,0,0,1-.22,1.82,1.82,0,0,0,1.1-1.62,1.9,1.9,0,0,0-1.32-1.74,1.69,1.69,0,0,0-2,.7,1.73,1.73,0,0,0-.17,1.14,1.91,1.91,0,0,0,.44.93,1.18,1.18,0,0,0,1.15.42h-.37a.94.94,0,0,0,1-.36l-.53.3h0a.67.67,0,0,0,.43-.18.6.6,0,0,0,.18-.42c0-.3-.27-.65-.6-.61h0l.42.18a.68.68,0,0,0-.29-.18c.2.09.1,0,.06,0s.12.1.07,0a1.33,1.33,0,0,0-.35-.19l.32.18c0-.06-.11-.1-.16-.15l.13.17c-.09-.12-.19-.22-.28-.34l.13.17a1.2,1.2,0,0,1-.16-.27l.09.2a1.09,1.09,0,0,1-.08-.31l0,.21a1.13,1.13,0,0,1,0-.26l0,.21a2,2,0,0,1,.06-.23l-.08.2.09-.16-.13.17a.86.86,0,0,1,.14-.13l-.18.13a1.32,1.32,0,0,1,.2-.12l-.2.09.21-.06-.21,0H125l-.21,0,.28.07-.19-.07a1.11,1.11,0,0,1,.3.17l-.17-.13a1,1,0,0,1,.21.21l-.13-.17a1.59,1.59,0,0,1,.13.22l-.08-.2a1,1,0,0,1,.06.25l0-.21a1.34,1.34,0,0,1,0,.2l0-.2a1.05,1.05,0,0,1-.06.24l.08-.19a2.39,2.39,0,0,1-.13.21l.13-.17a1.45,1.45,0,0,1-.21.22l.17-.13a2,2,0,0,1-.32.18l.2-.08a1.06,1.06,0,0,1-.35.09l.2,0h-.3l.2,0-.27-.07.19.07a.94.94,0,0,1-.22-.12l.17.12a.77.77,0,0,1-.18-.18l.13.17a1.59,1.59,0,0,1-.13-.22l.08.2a1.09,1.09,0,0,1-.07-.3l0,.2a1.93,1.93,0,0,1,0-.34l0,.2a1.19,1.19,0,0,1,.09-.36l-.08.19a1.29,1.29,0,0,1,.19-.32l-.12.16a1.1,1.1,0,0,1,.21-.22l-.16.12a1.38,1.38,0,0,1,.24-.14l-.19.08a1.11,1.11,0,0,1,.26-.07l-.2,0H125l-.2,0a1.57,1.57,0,0,1,.29.08l-.19-.08a1.29,1.29,0,0,1,.32.19l-.16-.13a1.59,1.59,0,0,1,.29.29l-.14-.17a2,2,0,0,1,.21.35l-.09-.2a1.68,1.68,0,0,1,.09.32l0-.21a1.93,1.93,0,0,1,0,.34l0-.22a1.28,1.28,0,0,1-.07.28l.08-.2a1.71,1.71,0,0,1-.13.23l.13-.18a.75.75,0,0,1-.15.16l.17-.14-.12.07.21-.08-.18,0,.21,0h-.15l.21,0a.79.79,0,0,1-.22-.06l.19.08a1,1,0,0,1-.23-.13l.17.13a1,1,0,0,1-.21-.21l.14.18a1.91,1.91,0,0,1-.16-.27l.09.2a1.2,1.2,0,0,1-.1-.37l0,.21a1.08,1.08,0,0,1,0-.31l0,.21a1,1,0,0,1,.08-.3l-.08.19a1,1,0,0,1,.14-.24l-.13.17a.77.77,0,0,1,.18-.18l-.17.13a1.3,1.3,0,0,1,.26-.14l-.21.08a1.53,1.53,0,0,1,.29-.07l-.21,0a.93.93,0,0,1,.29,0l-.21,0a.89.89,0,0,1,.28.07l-.2-.08a.61.61,0,0,1,.22.13l-.17-.14.16.16-.14-.18a1.13,1.13,0,0,1,.12.21l-.08-.21a1.22,1.22,0,0,1,.06.26l0-.21a1.22,1.22,0,0,1,0,.27l0-.22a1.31,1.31,0,0,1-.06.27l.08-.21a.92.92,0,0,1-.13.24l.14-.18a.91.91,0,0,1-.17.17l.18-.14a.54.54,0,0,1-.18.11l.21-.09a.73.73,0,0,1-.2.05l.22,0h-.21l.21,0a.84.84,0,0,1-.26-.07l.2.08a1.13,1.13,0,0,1-.21-.12l.18.14a1.14,1.14,0,0,1-.19-.19l.13.18a1.62,1.62,0,0,1-.1-.18l.09.21a.76.76,0,0,1-.06-.2l0,.22a1.34,1.34,0,0,1,0-.2l0,.22a1.49,1.49,0,0,1,.09-.3l-.09.2a2.82,2.82,0,0,1,.26-.44l-.14.18a1.52,1.52,0,0,1,.31-.31l-.18.14a.65.65,0,0,1,.23-.13l-.22.08.17,0-.22,0H126l-.22,0,.14,0-.21-.08.12.07-.19-.14a.2.2,0,0,1,.09.09l-.14-.2a.83.83,0,0,1,.07.13l-.09-.22a.85.85,0,0,1,0,.17l0-.23a.74.74,0,0,1,0,.21l0-.23a1.4,1.4,0,0,1-.1.35l.09-.22a2.55,2.55,0,0,1-.25.46l.14-.19a2.22,2.22,0,0,1-.38.37l.19-.15a2.11,2.11,0,0,1-.45.28l.22-.09a1.09,1.09,0,0,1-.31.08l.22,0h-.2l.21,0a1,1,0,0,1-.23-.06l.2.08a1,1,0,0,1-.17-.1l.17.13a.93.93,0,0,1-.14-.14l.13.17s0-.09-.08-.14l.09.2a.56.56,0,0,1,0-.12l0,.21a.56.56,0,0,1,0-.13l0,.2,0-.12-.07.19a.55.55,0,0,1,.08-.15l-.13.17.11-.12-.17.13.14-.07-.2.08.09,0-.2,0h.12l-.2,0,.06,0a.79.79,0,0,0,1-.55.84.84,0,0,0-.08-.6.94.94,0,0,0-.47-.36Z" transform="translate(-49.23 -60.09)"/><path class="cls-2" d="M135.72,178a1.16,1.16,0,0,0-1.45.24,1.23,1.23,0,0,0-.07,1.59,1.41,1.41,0,0,0,1.52.51,1.64,1.64,0,0,0,.81-.61,1.55,1.55,0,0,0,.26-.8,1.6,1.6,0,0,0-.18-.83,1.47,1.47,0,0,0-.52-.56,1.65,1.65,0,0,0-1.12-.28,1.94,1.94,0,0,0-.74.2,1.67,1.67,0,0,0-.56.53,1.56,1.56,0,0,0-.22.76,1.73,1.73,0,0,0,.19.81,1.86,1.86,0,0,0,1.12.94,1.63,1.63,0,0,0,1.68-.54,2,2,0,0,0,.46-.84,2.48,2.48,0,0,0,0-.94,1.9,1.9,0,0,0-.92-1.34,1.92,1.92,0,0,0-1.52-.16,1.68,1.68,0,0,0-1.11,1.19,1.73,1.73,0,0,0,.4,1.6,1.56,1.56,0,0,0,.75.42,1.76,1.76,0,0,0,1.06-.15,1.58,1.58,0,0,0,.89-1.41,1.49,1.49,0,0,0-.84-1.32,1.85,1.85,0,0,0-.8-.19,1.93,1.93,0,0,0-.82.19,1.63,1.63,0,0,0-.87,1.44,1.82,1.82,0,0,0,.2.89l-.08-.21a1.23,1.23,0,0,0,.14.31l.19.24a1.7,1.7,0,0,0,.19.19,2.43,2.43,0,0,0,.32.24,1.16,1.16,0,0,0,.52.11.57.57,0,0,0,.55-.71,1.89,1.89,0,0,0-.13-.33l-.1-.21.07.18a1.89,1.89,0,0,1-.09-.34l0,.22c0-.11,0-.22,0-.33l0,.22,0-.3,0,.22a1.15,1.15,0,0,1,0-.32l0,.22a1,1,0,0,1,.06-.23l-.09.22a.72.72,0,0,1,.11-.19l-.15.19a1.09,1.09,0,0,1,.19-.18l-.2.16a.54.54,0,0,1,.18-.11l-.23.09a1,1,0,0,1,.25-.06l-.24,0H135l-.23,0a.73.73,0,0,1,.2.05l-.21-.09.15.09-.18-.14.11.11-.14-.19a.75.75,0,0,1,.07.12l-.09-.22,0,.13,0-.22v.12l0-.23a.75.75,0,0,1,0,.16l.08-.21a1.09,1.09,0,0,1-.08.15l.14-.19a1.21,1.21,0,0,1-.16.16l.19-.15a1.18,1.18,0,0,1-.19.11l.22-.09-.19.05.23,0h-.19l.23,0a.32.32,0,0,1-.14,0l.21.09-.15-.09.19.14a.65.65,0,0,1-.17-.16l.14.19a1.14,1.14,0,0,1-.1-.19l.09.22a1.05,1.05,0,0,1-.06-.24l0,.22a1.93,1.93,0,0,1,0-.24l0,.21a1.6,1.6,0,0,1,.05-.21l-.07.2a.56.56,0,0,1,.09-.17l-.13.17a.49.49,0,0,1,.13-.12l-.17.13.18-.11-.2.08a1.05,1.05,0,0,1,.24-.06l-.21,0a1,1,0,0,1,.24,0l-.2,0a1.25,1.25,0,0,1,.26.07l-.19-.08a1.71,1.71,0,0,1,.23.13l-.17-.13a.9.9,0,0,1,.19.2l-.13-.18a1.71,1.71,0,0,1,.13.23l-.09-.21a1.58,1.58,0,0,1,.09.31l0-.22a1.45,1.45,0,0,1,0,.36l0-.22a1.7,1.7,0,0,1-.1.37l.08-.21a1,1,0,0,1-.16.29l.14-.18a1.25,1.25,0,0,1-.23.23l.19-.14a.94.94,0,0,1-.22.12l.22-.09a.67.67,0,0,1-.19,0l.22,0a.61.61,0,0,1-.19,0l.21,0a.76.76,0,0,1-.2-.06l.2.08a.94.94,0,0,1-.22-.12l.17.13a2.08,2.08,0,0,1-.21-.21l.14.17a1.88,1.88,0,0,1-.12-.18l.08.19a.86.86,0,0,1-.06-.23l0,.21a.6.6,0,0,1,0-.19l0,.2a1.09,1.09,0,0,1,.05-.17l-.08.19a.51.51,0,0,1,.09-.16l-.13.17a.71.71,0,0,1,.15-.15l-.17.13a1.18,1.18,0,0,1,.19-.11l-.2.08a1.14,1.14,0,0,1,.25-.06l-.2,0h.26l-.19,0a.9.9,0,0,1,.27.07l-.19-.08a1.18,1.18,0,0,1,.19.11l-.16-.12.15.14-.13-.17a.7.7,0,0,1,.09.17l-.08-.19a.7.7,0,0,1,.06.19l0-.2a1,1,0,0,1,0,.24l0-.2a1.36,1.36,0,0,1-.07.25l.08-.19a.82.82,0,0,1-.12.2l.13-.16-.13.13.17-.13a.51.51,0,0,1-.16.09l.19-.07-.17,0,.2,0a.54.54,0,0,1-.18,0l.19,0-.24-.07.17.07-.15-.08.15.11-.13-.12.12.15a.6.6,0,0,1-.09-.15l.07.16a.21.21,0,0,1,0-.12l0,.17a.31.31,0,0,1,0-.1l0,.17a.83.83,0,0,1,0-.15l-.06.15a1.09,1.09,0,0,1,.08-.15l-.09.13a.68.68,0,0,1,.12-.12l-.13.1.15-.09-.15.06.09,0c.09,0-.16,0,0,0h0c.12.05-.11-.06,0,0a.56.56,0,0,0,.56-1Z" transform="translate(-49.23 -60.09)"/><path class="cls-2" d="M156,179.46a1.17,1.17,0,0,0-1.48-.14,1.3,1.3,0,0,0-.49,1.6,1.52,1.52,0,0,0,1.52.93,1.92,1.92,0,0,0,1.58-1.06,4,4,0,0,0,.3-1.74,2.66,2.66,0,0,0-.37-1.35,1.4,1.4,0,0,0-1.49-.7,2.53,2.53,0,0,0-1.31,1.19,2.37,2.37,0,0,0-.38,1.73,1.83,1.83,0,0,0,1.17,1.39,1.73,1.73,0,0,0,1.62-.32,3,3,0,0,0,.92-1.34,2.12,2.12,0,0,0,0-1.81,1.86,1.86,0,0,0-1.25-.85,2.7,2.7,0,0,0-2.62,1.07,2.45,2.45,0,0,0-.28,2.72,2.27,2.27,0,0,0,2.65.9,2,2,0,0,0,1.2-1.05,2.16,2.16,0,0,0,.1-1.58,2.47,2.47,0,0,0-1-1.26,1.9,1.9,0,0,0-1.56-.2,2.23,2.23,0,0,0-1.55,2.63,2.18,2.18,0,0,0,2.5,1.43,2,2,0,0,0,1.29-.88,2.46,2.46,0,0,0,.29-1.76,2.15,2.15,0,0,0-.91-1.42,1.47,1.47,0,0,0-1-.21,1.84,1.84,0,0,0-.95.48,3,3,0,0,0-.95,1.32,2.13,2.13,0,0,0,.12,1.71,1.92,1.92,0,0,0,1.56,1A2,2,0,0,0,157,181a2.54,2.54,0,0,0,.43-1.58,2.46,2.46,0,0,0-.3-1,2.16,2.16,0,0,0-.68-.7,2,2,0,0,0-1.67-.27,1.88,1.88,0,0,0-1.26,1.28,1.8,1.8,0,0,0,.4,1.73,1,1,0,0,0,.69.29,1,1,0,0,0,.7-1.7.12.12,0,0,1-.05-.05l.16.21a.83.83,0,0,1-.07-.13l.1.24a.83.83,0,0,1-.06-.21l0,.25a.81.81,0,0,1,0-.22l0,.25a1.25,1.25,0,0,1,.07-.26l-.1.24a1.32,1.32,0,0,1,.12-.2l-.15.2a.81.81,0,0,1,.16-.16l-.21.16a.83.83,0,0,1,.16-.09l-.24.1.24-.07-.25,0h.25l-.25,0a1.28,1.28,0,0,1,.28.07l-.23-.09a1.05,1.05,0,0,1,.29.17l-.2-.16a1.45,1.45,0,0,1,.21.22l-.16-.21a2.54,2.54,0,0,1,.16.28l-.1-.24a2,2,0,0,1,.08.33l0-.25a1.7,1.7,0,0,1,0,.39l0-.24c0,.13-.07.25-.1.38q.09-.22,0-.09a.59.59,0,0,0,0,.08c0,.06-.07.11-.1.16l.15-.2a1.31,1.31,0,0,1-.23.24l.2-.16a1.09,1.09,0,0,1-.23.14l.23-.09-.22.06.25,0s-.16,0-.17,0,.26,0,.07,0,0,0,0,0,.09,0,0,0l-.14-.09.19.14a1.45,1.45,0,0,1-.22-.21l.16.2a1.28,1.28,0,0,1-.16-.27l.09.23-.06-.17s0-.06,0-.09c0,.16,0,.2,0,.1a1,1,0,0,1,0-.17c0-.06,0,0,0,.11,0,0,0-.06,0-.09a1.89,1.89,0,0,0,.06-.18c-.06.13-.07.15,0,.07l0-.09.08-.12.05-.08c-.08.11-.1.13,0,.06l.24-.25.08-.06c.07-.06,0,0-.07,0a.69.69,0,0,0,.17-.1l-.08,0-.14,0c.09,0,.06,0-.09,0,.08,0,.05,0-.09-.05l.07,0-.08-.06a1.27,1.27,0,0,0,.11.13l-.14-.19a1.34,1.34,0,0,1,.17.31l-.09-.22.06.17s0,.06,0,.09,0,.06,0-.1c0,.12,0,.24,0,.36s0,0,0-.11a.29.29,0,0,1,0,.09c0,.06,0,.12,0,.18.07-.15.08-.18,0-.1l0,.09-.11.15.15-.2a1.29,1.29,0,0,1-.19.21l.2-.16a1.16,1.16,0,0,1-.24.14l.24-.1a1.34,1.34,0,0,1-.27.07l.24,0h-.24c-.1,0-.17-.05.1,0l-.12,0a.84.84,0,0,0-.12,0s.25.11.09,0l-.21-.13.2.15-.25-.2.19.15-.17-.17.16.2a1,1,0,0,1-.14-.24l.09.23-.06-.24,0,.24v-.14s0-.2,0,0,0,0,0,0,.1-.15,0,.06a2.39,2.39,0,0,0,.12-.22q-.15.2-.06.09l0,0a.46.46,0,0,1,.12-.12l-.19.15a1.29,1.29,0,0,1,.32-.19l-.22.09.15,0c.22-.05-.18,0,0,0h.08c.1,0,.06,0-.1,0l.14,0c.14,0-.23-.12,0,0s.18.16,0-.05l.21.21-.15-.19a2.07,2.07,0,0,1,.19.32l-.1-.23a1.61,1.61,0,0,1,.1.36l0-.24a2.62,2.62,0,0,1,0,.28c0,.07.06-.27,0-.08a.88.88,0,0,1-.05.15l.09-.23a1,1,0,0,1-.12.23l.15-.2a1.39,1.39,0,0,1-.21.21l.21-.16a2,2,0,0,1-.32.18l.24-.1a2.37,2.37,0,0,1-.36.09l.25,0a1.51,1.51,0,0,1-.37,0l.24,0-.29-.08c.29.09.15.07.06,0l-.12-.08.2.15a1,1,0,0,1-.21-.21l.15.2a1.35,1.35,0,0,1-.15-.26l.1.24a1.92,1.92,0,0,1-.09-.32l0,.24a1.62,1.62,0,0,1,0-.22v-.09c0-.11,0,.24,0,.11a1.41,1.41,0,0,1,.06-.22s.06-.16,0,0,0,0,0,0l.11-.19.06-.1c.08-.11-.13.16-.06.08s.21-.22.33-.32l-.19.15a2.13,2.13,0,0,1,.44-.26l-.22.1a.52.52,0,0,1,.16-.06l.08,0c.16,0-.1,0-.09,0a.91.91,0,0,1,.17,0c.1,0,.26.06,0,0l.15,0,.09,0c.08,0-.17-.09-.11,0l.15.08s-.18-.18-.09-.06l.06.07-.15-.19.09.15-.1-.23s.06.22,0,.09,0,.08,0-.06,0,0,0,0a2.5,2.5,0,0,1-.07.26l0,.08c-.05.14.08-.19,0-.09a3,3,0,0,1-.38.67l.15-.2a1.28,1.28,0,0,1-.28.29l.2-.15a1.18,1.18,0,0,1-.19.11l.23-.09a.83.83,0,0,1-.21.06l.24,0h-.15s.24,0,.11,0,.17.1.08,0l-.07,0c-.07,0,.14.13.09.07a1.42,1.42,0,0,0-.12-.13l.15.19a1.59,1.59,0,0,1-.13-.22l.09.23-.08-.29c.06.27,0,.1,0,0v0c0,.2,0,.16,0-.1,0,.25,0,.08,0,0s.06-.13.06-.19c0,.11-.06.14,0,.08l0-.07.1-.18.18-.29.05-.06c.05-.07,0-.06,0,0l.07-.07-.1.07c.07-.05,0,0-.07,0l.06,0s-.25,0-.08,0c-.16,0-.2,0-.12,0-.14-.07-.19-.08-.13-.05s-.15-.15-.06-.05a.23.23,0,0,1,.07.07c-.18-.17-.09-.13,0,0l0,.1c-.13-.21,0-.13,0,0a1,1,0,0,1,.06.25c0,.21,0-.17,0,0s0,.07,0,.11,0,.23,0,.34a.49.49,0,0,1,0,.12c0-.12,0-.15,0-.08a1.29,1.29,0,0,1,0,.19.94.94,0,0,1,0,.16l0,.11q0,.14,0-.06a.61.61,0,0,0-.07.14l-.1.15.14-.19-.23.3.15-.19a1.52,1.52,0,0,1-.22.22l.19-.15a1.09,1.09,0,0,1-.23.14l.22-.09-.15,0c-.09,0,.25,0,.07,0l.12,0-.08,0-.12,0,.11.05-.05,0c-.13-.06.15.13,0,0s.1.18,0,0,0,.21,0,0,0,0,0,.1c0-.05,0,0,0,0s0,.08,0,0,0,0,0,.08c.05-.1-.13.12,0,0l0,0c0-.05,0,0-.07.05l0,0-.09,0c.06,0,0,0-.09,0l.18,0h-.08l-.11,0q.1,0-.06,0s0,0-.06-.05a.67.67,0,0,0,.93,0,.66.66,0,0,0,0-.92Z" transform="translate(-49.23 -60.09)"/><path class="cls-2" d="M135.61,179a1.42,1.42,0,0,0,.61-.81,1.46,1.46,0,0,0,0-.42,1.6,1.6,0,0,0-.15-.58.75.75,0,0,0-.45-.35.73.73,0,0,0-.56.08,3.51,3.51,0,0,0-1,.83,2,2,0,0,0-.4.77,1.92,1.92,0,0,0,0,.86,1.52,1.52,0,0,0,1.28,1.19,1.36,1.36,0,0,0,.45,0,1.88,1.88,0,0,0,.56-.16,1.77,1.77,0,0,0,.71-.62,2.65,2.65,0,0,0,.41-1.53,2.3,2.3,0,0,0-.12-.82,1.87,1.87,0,0,0-.47-.74,2.16,2.16,0,0,0-2.45-.17,2.08,2.08,0,0,0-.87,2.4,2.61,2.61,0,0,0,.69,1.11,2.24,2.24,0,0,0,1.36.59,1.74,1.74,0,0,0,.64-.06,1.78,1.78,0,0,0,.58-.26,2.41,2.41,0,0,0,.83-1,2.33,2.33,0,0,0,.24-1.22,2.16,2.16,0,0,0-.16-.71,2,2,0,0,0-.41-.63,1.83,1.83,0,0,0-1.06-.58,2.37,2.37,0,0,0-1.24.08,2.23,2.23,0,0,0-1.47,1.41,1.1,1.1,0,0,0-.08.4,1,1,0,0,0,.39.88,3,3,0,0,0,.38.24.9.9,0,0,0,.6.13.69.69,0,0,0,.2,0l.18-.07a.67.67,0,0,0,.22-.19.78.78,0,0,0,.15-.44A1,1,0,0,0,135,178l-.19-.26.1.73,0-.09-.1.23.17-.44-.1.24a1.17,1.17,0,0,1,.15-.27l-.15.21a1.31,1.31,0,0,1,.23-.24l-.21.16a1.58,1.58,0,0,1,.36-.2l-.24.1a1.32,1.32,0,0,1,.39-.1l-.25,0a2.16,2.16,0,0,1,.36,0l-.24,0a1,1,0,0,1,.29.08l-.23-.09a1,1,0,0,1,.23.12l-.2-.15.19.19-.16-.2a1.28,1.28,0,0,1,.15.25l-.1-.24a.89.89,0,0,1,.07.28l0-.25a1.53,1.53,0,0,1,0,.37l0-.24a1.66,1.66,0,0,1-.11.38l.1-.23a1.45,1.45,0,0,1-.2.34l.15-.2a1.44,1.44,0,0,1-.27.28l.2-.16a.92.92,0,0,1-.27.16l.24-.1a.9.9,0,0,1-.28.08l.24,0h-.26l.25,0a1,1,0,0,1-.3-.08l.22.09a1.22,1.22,0,0,1-.29-.17l.2.15a1.44,1.44,0,0,1-.28-.27l.15.19a1.9,1.9,0,0,1-.23-.39l.1.23a1.64,1.64,0,0,1-.1-.38l0,.24a2.16,2.16,0,0,1,0-.36l0,.23a1.29,1.29,0,0,1,.08-.28l-.09.21a1,1,0,0,1,.13-.22l-.14.18a1.8,1.8,0,0,1,.19-.2l-.18.15a1,1,0,0,1,.26-.16l-.21.09a1,1,0,0,1,.34-.09l-.22,0a1.82,1.82,0,0,1,.33,0l-.22,0a.59.59,0,0,1,.19,0l-.2-.09a.88.88,0,0,1,.21.12l-.18-.13a.67.67,0,0,1,.15.14l-.14-.18a.82.82,0,0,1,.12.2l-.09-.21a2.21,2.21,0,0,1,.07.3l0-.24a3.1,3.1,0,0,1,0,.61l0-.23a1.88,1.88,0,0,1-.12.48l.09-.22a1.57,1.57,0,0,1-.18.31l.15-.19a1.61,1.61,0,0,1-.23.22l.2-.15a.88.88,0,0,1-.21.12l.23-.1-.21.06.24,0H135l.23,0a.58.58,0,0,1-.14,0l.21.08a.55.55,0,0,1-.15-.08l.19.14a.43.43,0,0,1-.12-.11l.14.18a.69.69,0,0,1-.1-.19l.08.22a1.74,1.74,0,0,1-.05-.22l0,.22a.94.94,0,0,1,0-.29l0,.21a1,1,0,0,1,.07-.25l-.08.19a2.38,2.38,0,0,1,.18-.3l-.13.16a3.71,3.71,0,0,1,.68-.63l-1.17-.15,0,0-.08-.19a1.21,1.21,0,0,1,0,.18l0-.19a.33.33,0,0,1,0,.14l0-.18a1.09,1.09,0,0,1,0,.17l.07-.18a.51.51,0,0,1-.09.16l.12-.15-.1.1.15-.12,0,0a.81.81,0,0,0-.34.45.72.72,0,0,0,.07.56.75.75,0,0,0,1,.27Z" transform="translate(-49.23 -60.09)"/><path class="cls-2" d="M126.37,159.53a1.74,1.74,0,0,0-.35-2.6.59.59,0,0,0-.39-.07.68.68,0,0,0-.38.18,3.47,3.47,0,0,0-.66.61,1.91,1.91,0,0,0-.51,1,1.88,1.88,0,0,0,.18,1.21,1.42,1.42,0,0,0,1.06.73,1.83,1.83,0,0,0,1.94-1.52,2.22,2.22,0,0,0,0-.68,2,2,0,0,0-.21-.67.94.94,0,0,0-.16-.23,1.1,1.1,0,0,0-.2-.23,1.79,1.79,0,0,0-.64-.37,2.79,2.79,0,0,0-.4-.07h-.18a2.6,2.6,0,0,0-.39.05l-.08,0a1.11,1.11,0,0,0-.3.12,1.55,1.55,0,0,0-.55.56,1.43,1.43,0,0,0-.14.34,1.35,1.35,0,0,0,0,.28,1,1,0,0,0,.26.63.84.84,0,0,0,.81.22,1,1,0,0,0,.42-.23c.06-.07.11-.15.16-.22l-.14.18a.68.68,0,0,1,.12-.12l-.2.15a.7.7,0,0,1,.17-.09l-.24.09.38-.15-.24.1.24-.07-.25,0h.23l-.24,0a.53.53,0,0,1,.17,0l-.23-.09a.8.8,0,0,1,.16.08l-.2-.15a1.29,1.29,0,0,1,.17.16l-.16-.19a.67.67,0,0,1,.12.2l-.1-.24a1.57,1.57,0,0,1,.08.29l0-.24a1,1,0,0,1,0,.3l0-.24a1.16,1.16,0,0,1-.08.32l.09-.21a1.49,1.49,0,0,1-.14.24l.14-.19a.88.88,0,0,1-.21.22l.19-.14-.18.1.22-.09-.19,0,.22,0a.38.38,0,0,1-.15,0l.21,0-.12,0,.2.08a.77.77,0,0,1-.18-.1l.17.13-.15-.15.13.17-.12-.22.08.2a1.34,1.34,0,0,1-.07-.27l0,.19a1,1,0,0,1,0-.25l0,.19a2.45,2.45,0,0,1,.08-.29l-.06.17a1.58,1.58,0,0,1,.2-.36l-.1.14a4.27,4.27,0,0,1,.5-.54l-.77.1.09.06c.09.05-.12-.11,0,0a1.59,1.59,0,0,1,.13.13l-.1-.13c0,.05.05.1.08.14-.09-.13,0-.13,0-.06a513785625491.66,513785625491.66,0,0,1,0,.16c0,.13,0-.06,0-.06v.18c0,.12,0-.12,0-.06s0,.06,0,.08a.24.24,0,0,1,0,.08c0,.12,0-.11,0-.06l-.07.14c0,.06.12-.14,0,0l-.06.07a.66.66,0,0,0,0,.92.67.67,0,0,0,.92,0Z" transform="translate(-49.23 -60.09)"/><path class="cls-2" d="M146,157.56a1.46,1.46,0,0,0-.93.93,1.69,1.69,0,0,0-.08.5,1,1,0,0,0,0,.24v-.15a1.09,1.09,0,0,0,0,.26,2.35,2.35,0,0,0,.14.37.92.92,0,0,0,1.23.33,3.35,3.35,0,0,0,.53-.4,2.66,2.66,0,0,0,.39-.43,2,2,0,0,0,.41-1.23,1.66,1.66,0,0,0-.53-1.18,1.54,1.54,0,0,0-1.38-.34,2.52,2.52,0,0,0-.87,4.18,2.24,2.24,0,0,0,1.33.51,1.85,1.85,0,0,0,1.28-.49,2.05,2.05,0,0,0,.53-2.1,2.11,2.11,0,0,0-1.95-1.38,2.17,2.17,0,0,0-2,1.16,2.39,2.39,0,0,0,0,2.37,2.1,2.1,0,0,0,1.13.88,1.92,1.92,0,0,0,1.27-.08,2.38,2.38,0,0,0,1.45-1.73,2.49,2.49,0,0,0-.66-2.22,2,2,0,0,0-2.33-.31,2.06,2.06,0,0,0,.37,3.8,2.22,2.22,0,0,0,2.18-.43,2.38,2.38,0,0,0-.8-4,1.9,1.9,0,0,0-2.2,1.13,1.71,1.71,0,0,0,.08,1.48,2,2,0,0,0,1.07.84,1.18,1.18,0,0,0,.94,0,1.35,1.35,0,0,0,.44-.45.71.71,0,0,0-.26-.94c-.09-.06.11.13.06,0l0,0a1,1,0,0,0-.42-.25s-.16-.06,0,0-.2-.16,0,0,0,0,0,0l-.09-.1.16.2a1.3,1.3,0,0,1-.14-.26l.1.25a.76.76,0,0,1-.06-.2l0,.25a.62.62,0,0,0,0-.13c0-.16-.06.26,0,.07s-.14.24,0,.08a.83.83,0,0,1,.08-.12l-.16.21a1,1,0,0,1,.18-.18l-.21.16a.94.94,0,0,1,.22-.12l-.25.1.24-.06-.25,0h.12c.16,0-.25,0-.09,0s-.2-.13-.05,0l.13.09-.21-.16a1.48,1.48,0,0,1,.25.25l-.16-.21a1.64,1.64,0,0,1,.16.29l-.1-.24a1.06,1.06,0,0,1,.09.36l0-.26a1.29,1.29,0,0,1,0,.28c0,.1-.06.21,0-.07l0,.12c0,.05,0,.08,0,.12s.1-.21,0-.08a1.28,1.28,0,0,1-.15.25l.16-.2a1.34,1.34,0,0,1-.21.2l.21-.16a.92.92,0,0,1-.27.16l.24-.1a1.67,1.67,0,0,1-.3.08l.25,0H146c.32,0,.15,0,.06,0l-.13,0c-.08,0,.25.12.06,0l-.13-.08c.15.12.18.14.11.08l-.06-.05-.1-.11.15.2a1.17,1.17,0,0,1-.15-.27l.1.24a.75.75,0,0,1-.05-.16c0-.09,0,0,0,.12v-.08c0-.12.06-.11,0,.07,0-.05,0-.11,0-.16s-.12.23,0,0l.06-.11c-.1.14-.13.17-.07.1l.06-.07.13-.11-.2.15a1.28,1.28,0,0,1,.25-.15l-.23.1.16-.05h0c-.1,0-.11,0,0,0s.23,0,0,0,0,0,0,0c-.23,0-.17-.07-.08,0l.07,0c.08.05,0,0-.1-.08a2,2,0,0,1,.2.21l-.16-.21a2.19,2.19,0,0,1,.17.29l-.1-.24a2,2,0,0,1,.11.42l0-.25a1,1,0,0,1,0,.25c0,.09-.05.18,0-.08a.61.61,0,0,1,0,.13.35.35,0,0,1,0,.12s.11-.25,0-.07a1.28,1.28,0,0,1-.14.23l.15-.2a1.87,1.87,0,0,1-.31.32l.21-.16a2.14,2.14,0,0,1-.3.17l.24-.1a1.28,1.28,0,0,1-.28.07l.25,0h-.2s.27.05.1,0-.12-.08.08,0l-.08,0s-.16-.11,0,0,0,0,0,0l-.09-.11.16.21a1.78,1.78,0,0,1-.17-.3l.1.24a1.72,1.72,0,0,1-.07-.21s0-.06,0-.09,0,.24,0,.09v-.2c0-.11,0,.2,0,.1s0-.08,0-.11l0-.09c0-.12,0,.08,0,.09s.06-.13.09-.18,0,.06,0,.07,0-.06.06-.07l.16-.15-.2.15a1,1,0,0,1,.27-.14l-.23.09.16-.05c.22,0-.18,0,0,0h.17c.15,0-.25,0,0,0l.08,0-.11,0,.15.07c.13.08-.2-.17,0,0l.11.12-.15-.2a.94.94,0,0,1,.12.22l-.09-.24a2,2,0,0,1,.06.23c-.07-.26,0-.18,0-.09s0,.23,0,0,0,0,0,0-.07.19,0,0,0,0,0,0a1,1,0,0,1-.08.11l.15-.2a.92.92,0,0,1-.22.22l.21-.15a1.4,1.4,0,0,1-.17.09l.24-.09-.17.05h0c.09,0,.1,0,0,0h-.09c.16,0,.2,0,.13,0l-.16,0c-.16,0,.19.11.06,0l-.08,0,.08.06A2.5,2.5,0,0,1,146,159l.16.2A1.35,1.35,0,0,1,146,159l.09.23a1.49,1.49,0,0,1-.09-.3.36.36,0,0,0,0-.1l0,.13a.43.43,0,0,1,0-.16v-.16c0-.18,0,.19,0,0s0-.2.08-.31-.09.17,0,0a.75.75,0,0,1,.07-.12l.06-.08-.08.1s.07-.08.1-.11l.07-.06-.11.09s.09,0,.11-.08l-.09,0h0c.14-.05-.21,0,0,0s0,0-.11,0h0c-.07,0-.08,0,0,0-.12-.09-.15-.12-.1-.07s-.09-.13,0-.06,0-.15,0-.07a.53.53,0,0,0,0,.12c0,.07,0-.24,0-.06s0,.2,0,0,0,0,0,0,.08-.14,0-.06l-.08.13s-.13.19,0,0l0,.05c-.15.15-.34.27-.48.43h1.28c-.08-.06-.09-.13,0,.08-.07-.12.06.19,0,.09s0,.08,0,.08,0-.11,0-.11-.05.21,0,.07-.09.17,0,.07-.14.14,0,0-.16.11,0,0a.77.77,0,0,0,.32-.94.76.76,0,0,0-.89-.45Z" transform="translate(-49.23 -60.09)"/><path class="cls-2" d="M139.87,168.58c-.76-.23-1.44.63-1.25,1.35a1.37,1.37,0,0,0,2,.68,1.7,1.7,0,0,0,.73-1.1,2.28,2.28,0,0,0,0-1.13,1.71,1.71,0,0,0-.75-1,1.2,1.2,0,0,0-1.38.17,2.09,2.09,0,0,0-.54,1,3.61,3.61,0,0,0-.15.85,2,2,0,0,0,.59,1.62,1.55,1.55,0,0,0,1.29.34,1.73,1.73,0,0,0,1-.63,2.51,2.51,0,0,0,.48-2.34,2.08,2.08,0,0,0-1.71-1.45,1.78,1.78,0,0,0-1.11.17,1.91,1.91,0,0,0-.81.83,3,3,0,0,0-.41,2.32,1.68,1.68,0,0,0,2,1.17,2,2,0,0,0,1.3-1.61,3.18,3.18,0,0,0-.22-2,1.59,1.59,0,0,0-1.78-.95,1.71,1.71,0,0,0-1.2,1.71,2.17,2.17,0,0,0,1.29,1.85,4.18,4.18,0,0,0,1,.38,1.38,1.38,0,0,0,1-.14,1.6,1.6,0,0,0,.59-.62,2.15,2.15,0,0,0-.27-2.43,2.11,2.11,0,0,0-3.17,0,1.13,1.13,0,0,0-.27.56,1,1,0,0,0,.12.62,2.86,2.86,0,0,0,.84.89,1.5,1.5,0,0,0,.32.19,1.15,1.15,0,0,0,.57.12l.35,0a.8.8,0,0,0,.49-1.16l-.11-.16a1.57,1.57,0,0,0-.44-.45l.19.15a3,3,0,0,1-.53-.54l.16.21a2.14,2.14,0,0,1-.13-.19v1l0,0-.15.2a.9.9,0,0,1,.2-.19l-.21.16a1,1,0,0,1,.24-.14l-.25.1a2,2,0,0,1,.35-.09l-.26,0a1.71,1.71,0,0,1,.32,0l-.25,0a1.34,1.34,0,0,1,.27.07l-.24-.09a1.39,1.39,0,0,1,.21.11l-.2-.15a1.8,1.8,0,0,1,.2.19l-.16-.2a1.17,1.17,0,0,1,.15.27l-.09-.24c0,.1.06.2.08.3l0-.25a1.71,1.71,0,0,1,0,.32l0-.25a1.18,1.18,0,0,1-.06.27l.09-.23a1.23,1.23,0,0,1-.14.25l.15-.19a.68.68,0,0,1-.12.12l.2-.16-.07.05.23-.1-.09,0,.24,0h-.16l.24,0a4.54,4.54,0,0,1-.63-.18l-.09,0,.14,0a.53.53,0,0,1-.17-.08,1.4,1.4,0,0,1-.26-.16l.19.14a1.44,1.44,0,0,1-.28-.27l.14.19a1.43,1.43,0,0,1-.15-.27l.09.22a.49.49,0,0,1,0-.11c0-.1,0-.18,0,.06v-.17c0-.11,0,.11,0,.11s0-.1,0-.12-.08.15,0,.06a.41.41,0,0,1,.05-.09c-.08.18-.13.15-.07.1l0-.05c.09-.09-.19.13-.06.05s-.19.06-.07,0-.2,0-.07,0h.06s-.21-.05-.11,0l.06,0s-.16-.08-.12-.05.08.06.1.06-.14-.13-.11-.08l0,0,0,0c.07.07-.07-.09-.07-.1a.33.33,0,0,0,.06.1l0,.05c.06.11-.05-.1,0-.1a1.26,1.26,0,0,1,.07.25l0,.13c0,.18,0-.17,0,0a2.17,2.17,0,0,1,0,.26,2.28,2.28,0,0,1,0,.26.13.13,0,0,1,0,.06c0,.1,0-.2,0-.1l0,.15a2.33,2.33,0,0,1-.07.25s-.07.19,0,0,0,0,0,.06l-.05.09,0,.06c0,.06.07-.1.08-.1s-.07.08-.09.09l0,0s.2-.13.08-.07l0,0c-.07,0-.08,0,.11,0l-.1,0s.22,0,.09,0h-.06c-.08,0,.1,0,.1,0s-.18-.07,0,0a.5.5,0,1,0-.05,0c-.12-.06.12.12,0,0l-.11-.1.07.08a.28.28,0,0,1-.06-.09l0-.06c0-.06,0-.08,0,.08,0,0,0-.09,0-.14a.16.16,0,0,1,0-.1s0,.15,0,.06v-.29s0,.14,0,0a1.24,1.24,0,0,0,0-.16l.06-.18,0-.08c.06-.16,0,.08,0,0s.08-.19.13-.28l.09-.14c.06-.08-.09.11,0,0l.06-.07.05,0c.09-.09,0,0,0,0a.75.75,0,0,0,.12-.07c.05,0-.09,0-.09,0l.05,0s.21,0,.08,0h.06s.1,0,0,0,0,0,0,0l.12,0c.16.05-.14-.07,0,0l.14.08-.08-.06.07.07s.15.17.06.05,0,0,0,.07a.21.21,0,0,0,0,.06c.06.11,0-.07,0-.07s0,.14.05.17,0,.06,0,.09,0,0,0-.08a.61.61,0,0,1,0,.19.53.53,0,0,1,0,.18s0-.19,0-.1,0,.08,0,.12l-.06.18a.43.43,0,0,1-.06.17s.09-.18,0-.09a.2.2,0,0,0,0,.08l-.09.15c-.06.09.12-.15,0-.07l-.06.07-.15.13.18-.14a1.35,1.35,0,0,1-.26.15l.21-.09s-.25.06-.1,0,0,0,0,0-.09,0,.09,0l-.07,0c-.07,0,0-.06.11.05l-.06,0c-.09-.05,0,0,.07.06l0,0c0-.05,0-.1.07.09l-.06-.1c-.09-.17,0,.17,0,0a.75.75,0,0,1,0-.16.15.15,0,0,1,0-.07c0-.08,0,.18,0,.09a.81.81,0,0,1,0-.16,1.82,1.82,0,0,1,0-.33c0-.11,0,.08,0,.08a.17.17,0,0,0,0-.07.75.75,0,0,1,0-.16c0-.05,0-.1,0-.15l0-.07c0-.12-.06.12,0,0l.09-.17s.08-.08,0,.05c.08-.09,0,0-.06,0l.07,0s-.16.06-.07,0H140q-.11,0,0,0l-.11-.05s.14.1,0,0,0,0,0,0,.09.11,0,0,0,0,0,0a.43.43,0,0,0,0,.07s-.07-.2,0-.07.06.19.06.19,0-.2,0-.08v.08c0,.05,0,.14,0,.18s0-.15,0,0a.29.29,0,0,1,0,.09.19.19,0,0,1,0,.08c-.06.17.05-.09,0,0l-.09.17c-.05.09,0,0,0-.06a.37.37,0,0,0-.06.07c-.06.06-.06,0,.08-.06l-.07,0-.07,0c-.12.07.18,0,.05,0l-.08,0h.05l-.05,0s.16.07.06,0,.1.1,0,0,.09.14,0,0l0,.08v0s0,.15,0,0,0-.14,0,0c0-.07,0,0,0,0l0-.07c0-.06-.09.11,0,0s-.09.06,0,0-.14,0,0,0c-.06,0-.09,0,0,0a.53.53,0,0,0,.14-1Z" transform="translate(-49.23 -60.09)"/><path class="cls-2" d="M165.54,151.67a1.65,1.65,0,0,0-.74-1.74,1.52,1.52,0,0,0-1.9.27,1.63,1.63,0,0,0-.2,2,1.91,1.91,0,0,0,.84.7,2.39,2.39,0,0,0,1.14.24,2,2,0,0,0,1.77-1.14,2.3,2.3,0,0,0,.21-1,2.17,2.17,0,0,0-.28-1,2,2,0,0,0-1.7-1,2.18,2.18,0,0,0-1.66.72,2.14,2.14,0,0,0-.47,1.14,1.89,1.89,0,0,0,.12.85,2.39,2.39,0,0,0,.59.91,2.2,2.2,0,0,0,.94.5,2.11,2.11,0,0,0,2-.71,2.36,2.36,0,0,0,.5-1,2.12,2.12,0,0,0-.16-1.29,2.18,2.18,0,0,0-1.44-1.14,2.09,2.09,0,0,0-2,.51,2.18,2.18,0,0,0-.53.92,2.29,2.29,0,0,0-.05,1,1.91,1.91,0,0,0,.31.8,2.07,2.07,0,0,0,.33.39,2.34,2.34,0,0,0,.68.4,1.91,1.91,0,0,0,2.06-.48,1.68,1.68,0,0,0,.43-1.15,1.85,1.85,0,0,0-.45-1.17,1.51,1.51,0,0,0-1.11-.51,1.71,1.71,0,0,0-1.26.52,2.24,2.24,0,0,0-.6,1,1.42,1.42,0,0,0,.89,1.51,1.82,1.82,0,0,0,.75.2,1.23,1.23,0,0,0,.83-.37.8.8,0,0,0,.22-.66.86.86,0,0,0-.39-.59l0,0,.17.13a2.31,2.31,0,0,0-.29-.24,3.33,3.33,0,0,0-.4-.16l.23.09a.71.71,0,0,1-.22-.13l.2.16-.18-.18.16.21-.21-.27.16.21-.08-.12.1.75s0-.07,0-.11l-.1.24a1.35,1.35,0,0,1,.19-.33l-.15.21a1,1,0,0,1,.2-.21l-.21.16.18-.1-.24.1.16,0-.25,0h.17l-.25,0,.14,0-.23-.1a.41.41,0,0,1,.11.07l-.2-.15a.57.57,0,0,1,.11.11l-.16-.21a1,1,0,0,1,.1.17l-.1-.25a1.74,1.74,0,0,1,.05.22l0-.25a1.33,1.33,0,0,1,0,.2l0-.25a.61.61,0,0,1-.05.18l.1-.23a1.19,1.19,0,0,1-.09.15l.16-.21a.86.86,0,0,1-.14.13l.21-.16a1,1,0,0,1-.17.1l.25-.1a1,1,0,0,1-.25.06l.25,0a1.13,1.13,0,0,1-.26,0l.25,0a1.57,1.57,0,0,1-.29-.08l.24.09a.84.84,0,0,1-.21-.11l.21.15a.89.89,0,0,1-.2-.19l.17.21a1.28,1.28,0,0,1-.15-.25l.1.24a1.16,1.16,0,0,1-.08-.32l0,.26a1.82,1.82,0,0,1,0-.33l0,.25a1.16,1.16,0,0,1,.08-.32l-.1.23a1.35,1.35,0,0,1,.15-.26l-.15.21a.66.66,0,0,1,.18-.19l-.21.16a1.16,1.16,0,0,1,.24-.14l-.25.1.26-.07-.25,0a.86.86,0,0,1,.32,0l-.25,0a1.68,1.68,0,0,1,.32.09l-.23-.09a1.18,1.18,0,0,1,.29.16l-.21-.15a1.26,1.26,0,0,1,.24.22l-.16-.2a1.71,1.71,0,0,1,.13.23l-.1-.24a1.37,1.37,0,0,1,.07.24l0-.25a1.13,1.13,0,0,1,0,.26l0-.24a1.57,1.57,0,0,1-.08.29l.1-.24a1.46,1.46,0,0,1-.17.3l.15-.2a1.36,1.36,0,0,1-.24.24l.21-.16a1.38,1.38,0,0,1-.29.17l.24-.1a1,1,0,0,1-.29.07l.25,0h-.23l.25,0a1,1,0,0,1-.25-.06l.23.1-.27-.16.2.15-.22-.22.16.2a1.5,1.5,0,0,1-.19-.32l.09.23a1.47,1.47,0,0,1-.08-.3l0,.25a1.41,1.41,0,0,1,0-.29l0,.24a1.05,1.05,0,0,1,.06-.24l-.09.22a1,1,0,0,1,.13-.23l-.14.2a1.34,1.34,0,0,1,.2-.21l-.19.15a1.56,1.56,0,0,1,.28-.16l-.23.1a1.68,1.68,0,0,1,.32-.09l-.24,0a1.82,1.82,0,0,1,.33,0l-.23,0a1,1,0,0,1,.25.07l-.21-.09a.82.82,0,0,1,.2.12l-.19-.15a1.14,1.14,0,0,1,.19.19l-.15-.19a1.09,1.09,0,0,1,.14.23l-.1-.23a1.18,1.18,0,0,1,.08.31l0-.23a.86.86,0,0,1,0,.32l0-.23a1.13,1.13,0,0,1-.09.35l.09-.22a1.28,1.28,0,0,1-.15.25l.15-.19a1.7,1.7,0,0,1-.19.19l.19-.15a1.36,1.36,0,0,1-.24.13l.23-.09a1.87,1.87,0,0,1-.32.08l.23,0a2.26,2.26,0,0,1-.52,0l.22,0a1.82,1.82,0,0,1-.38-.11l.21.09a1.56,1.56,0,0,1-.28-.16l.18.13a1.19,1.19,0,0,1-.2-.19l.14.18a1.13,1.13,0,0,1-.12-.21l.08.2a1.21,1.21,0,0,1-.05-.18l0,.21a.81.81,0,0,1,0-.22l0,.2.06-.22-.07.18a.71.71,0,0,1,.13-.22l-.12.15a.77.77,0,0,1,.18-.18l-.15.12.16-.1-.17.07.09,0h-.05s.08,0,.1,0-.15,0,0,0l.1,0-.08,0,0,0,.09,0c.1.05-.12-.11,0,0l.07.06,0,0s0,0,0-.06a.25.25,0,0,0,0,.09c.06.1,0-.15,0,0l0,.09c0,.1,0-.11,0,0v.1s0,0,0-.08,0,0,0,.06a.65.65,0,0,0,.44.77.64.64,0,0,0,.76-.44Z" transform="translate(-49.23 -60.09)"/><path class="cls-2" d="M179,151.62a1.05,1.05,0,0,0,.57.43,1,1,0,0,0,.55,0,1.22,1.22,0,0,0,.75-.62,1.11,1.11,0,0,0-.2-1.25,1.39,1.39,0,0,0-.94-.4,1.88,1.88,0,0,0-1.68,1,1.53,1.53,0,0,0-.32,1.28,1.61,1.61,0,0,0,1.08,1,2.44,2.44,0,0,0,2-.16,2.18,2.18,0,0,0,1.08-1.72,1.94,1.94,0,0,0-.86-1.77,2.05,2.05,0,0,0-1.85-.18,2.38,2.38,0,0,0-.94.59,3,3,0,0,0-.53.79,4.45,4.45,0,0,0-.32.93c0,.13-.05.25-.07.37s-.05.25-.06.38a1,1,0,0,0,.35.74,2.35,2.35,0,0,0,1,.49,2.86,2.86,0,0,0,1.09,0,2.44,2.44,0,0,0,1.63-1.09,2.62,2.62,0,0,0,.31-1.9A2.23,2.23,0,0,0,180.4,149a1.55,1.55,0,0,0-1.48,0,1.67,1.67,0,0,0-.75,1.08,2.11,2.11,0,0,0,.6,1.95,1.9,1.9,0,0,0,.91.5,1.93,1.93,0,0,0,1.23-.15,2,2,0,0,0,1.1-1.69,1.65,1.65,0,0,0-.27-1,1.78,1.78,0,0,0-.93-.72,1.7,1.7,0,0,0-1.78.39,1,1,0,0,0-.35.73,1.2,1.2,0,0,0,0,.38.75.75,0,0,0,1.08.46l.07,0-.2.08a1.35,1.35,0,0,0,.32-.11l.15-.08-.23.09.19,0-.24,0,.36,0-.25,0a1.41,1.41,0,0,1,.29,0l-.25,0a1.28,1.28,0,0,1,.28.07l-.23-.09a.78.78,0,0,1,.2.11l-.2-.15.12.12-.16-.21.09.15-.1-.24a1.33,1.33,0,0,1,.05.19l0-.25a.89.89,0,0,1,0,.23l0-.25a.86.86,0,0,1-.06.23l.1-.23a1.49,1.49,0,0,1-.14.24l.15-.21a.9.9,0,0,1-.19.2l.21-.16-.23.14.24-.1-.2.05.26,0H180l.25,0a1.05,1.05,0,0,1-.24-.06l.24.1-.21-.12.2.15a1.14,1.14,0,0,1-.22-.22l.16.21a1.12,1.12,0,0,1-.16-.28l.1.24a1.19,1.19,0,0,1-.07-.27l0,.25a1.31,1.31,0,0,1,0-.28l0,.25a.83.83,0,0,1,.06-.21l-.1.23a.77.77,0,0,1,.1-.18l-.15.2.11-.12-.21.16.14-.08-.24.1.11,0-.25,0h.16l-.25,0a.6.6,0,0,1,.19.06l-.23-.1.22.13-.2-.15a1.8,1.8,0,0,1,.19.2l-.16-.2a2,2,0,0,1,.18.32l-.1-.24a1.8,1.8,0,0,1,.1.4l0-.25a1.41,1.41,0,0,1,0,.41l0-.25a1.38,1.38,0,0,1-.1.4l.1-.24a1.74,1.74,0,0,1-.18.33l.15-.2a1.6,1.6,0,0,1-.26.26l.21-.16a1.8,1.8,0,0,1-.35.21l.24-.1a1.8,1.8,0,0,1-.4.1l.25,0a1.62,1.62,0,0,1-.44,0l.24,0a1.61,1.61,0,0,1-.36-.1l.23.1a1.5,1.5,0,0,1-.32-.19l.2.16,0,0,.26.94a5.06,5.06,0,0,1,.27-1.15l-.09.23a2.47,2.47,0,0,1,.29-.53l-.15.2a1.52,1.52,0,0,1,.31-.31l-.21.16a1.53,1.53,0,0,1,.37-.21l-.24.09a2.24,2.24,0,0,1,.37-.1l-.24,0h.33l-.24,0a1,1,0,0,1,.25.07l-.22-.09.16.1-.19-.15a1,1,0,0,1,.17.18l-.15-.2a.88.88,0,0,1,.12.21l-.09-.23a1,1,0,0,1,.07.3l0-.24a1.15,1.15,0,0,1,0,.32l0-.24a1.09,1.09,0,0,1-.08.31l.09-.22a.84.84,0,0,1-.14.24l.15-.19a1,1,0,0,1-.21.21l.2-.16a1.49,1.49,0,0,1-.3.18l.23-.1a1.64,1.64,0,0,1-.38.1l.25,0a2.57,2.57,0,0,1-.48,0l.24,0a1.45,1.45,0,0,1-.42-.12l.22.1-.33-.14.22.09a.67.67,0,0,1-.14-.09l.19.15-.06-.06.15.2a.25.25,0,0,1,0-.07l.09.23,0-.09,0,.23v-.09l0,.23a.88.88,0,0,1,.07-.23l-.09.21.16-.37-.09.21a2.38,2.38,0,0,1,.26-.5l-.13.17a1,1,0,0,1,.21-.21l-.17.13a.64.64,0,0,1,.18-.1l-.19.07.09,0c.11,0,.06,0-.06,0h0s.1,0,.09,0l-.11,0,.05,0s-.15-.15-.06-.05-.12-.19-.05-.05,0,0,0-.12q0,.07,0,0c0-.08,0-.09,0,0l0-.14c0,.12.09-.16,0-.06s.13-.14,0-.06,0,0,.07-.05c-.07,0-.14,0,.08,0-.07,0-.14,0,.08,0-.09,0,.15,0,.18,0s.22.18.13.07a.72.72,0,0,0-.95-.06.73.73,0,0,0-.19.93Z" transform="translate(-49.23 -60.09)"/><path class="cls-2" d="M193.23,152.33a2.47,2.47,0,0,0,1-1.25.7.7,0,0,0-.19-.7,1.93,1.93,0,0,0-2.61,2.85,1.84,1.84,0,0,0,1.43.57,2.11,2.11,0,0,0,1.54-.83,2.14,2.14,0,0,0,.41-1.69,2.1,2.1,0,0,0-.9-1.28,2.41,2.41,0,0,0-1.32-.43,2.18,2.18,0,0,0-1.46.58,2.41,2.41,0,0,0-.44,2.85,2.51,2.51,0,0,0,2.74,1.15,2.47,2.47,0,0,0,1.85-2.33A2.52,2.52,0,0,0,190.9,150a2.62,2.62,0,0,0-.27,3,2.13,2.13,0,0,0,3,.86,2.23,2.23,0,0,0,.89-1.26,1.94,1.94,0,0,0-.2-1.51,1.92,1.92,0,0,0-1.7-.92,2.15,2.15,0,0,0-1.61,1,1.84,1.84,0,0,0-.21,1.61,2.07,2.07,0,0,0,1.3,1.25,2,2,0,0,0,1.59-.1,1.28,1.28,0,0,0,.75-1.12,1.46,1.46,0,0,0-.6-1.09l-.6-.51a1.61,1.61,0,0,0-.64-.43,1.32,1.32,0,0,0-.87.14,1.61,1.61,0,0,0-.8,1.48,1.59,1.59,0,0,0,1.24,1.48,1.86,1.86,0,0,0,1.77-.57,2.11,2.11,0,0,0,.39-2,2.29,2.29,0,0,0-1.14-1.39,2.18,2.18,0,0,0-1.73-.18,2.14,2.14,0,0,0-1.3,1.34,1.68,1.68,0,0,0,0,.89,1.29,1.29,0,0,0,.67.81.74.74,0,0,0,.72,0,.78.78,0,0,0,.36-.62c0,.21,0,0,0,0l-.08.21a.3.3,0,0,1,0-.08,1.6,1.6,0,0,0,.12-.49l0,.24c0-.11,0-.21,0-.31l0,.24a1.33,1.33,0,0,1,.1-.34l-.1.23a2,2,0,0,1,.14-.25l-.15.21a1,1,0,0,1,.25-.26l-.21.16a.94.94,0,0,1,.22-.12l-.25.1.27-.07-.26,0a1.58,1.58,0,0,1,.31,0l-.25,0a1.09,1.09,0,0,1,.31.08l-.23-.09a1.34,1.34,0,0,1,.31.17l-.21-.15a1.24,1.24,0,0,1,.26.25l-.16-.21a1.61,1.61,0,0,1,.17.28l-.1-.24a1.54,1.54,0,0,1,.09.37l0-.25a1.41,1.41,0,0,1,0,.29l0-.25a1,1,0,0,1-.06.25l.09-.24a.94.94,0,0,1-.12.22l.15-.2a1.06,1.06,0,0,1-.15.15l.21-.16a.87.87,0,0,1-.19.1l.24-.1a.83.83,0,0,1-.21.06l.25,0h-.21l.25,0a.58.58,0,0,1-.18,0l.24.1a.83.83,0,0,1-.16-.09l.21.15a.28.28,0,0,1-.1-.09l.16.21a.57.57,0,0,1-.08-.13l.1.24a.53.53,0,0,1,0-.18l0,.26a.6.6,0,0,1,0-.19l0,.25a.83.83,0,0,1,0-.15l-.1.23.09-.15-.15.2.1-.1-.2.16a.21.21,0,0,1,.1-.06l-.24.1.08,0-.93-.25.57.47a2.8,2.8,0,0,1,.52.45l-.16-.2a.16.16,0,0,1,0,.07l-.1-.24v0l0-.25a.28.28,0,0,1,0,.09l0-.25v0l.09-.22,0,.07.15-.2-.06.06.2-.16a1.18,1.18,0,0,1-.19.11l.24-.1a.83.83,0,0,1-.27.07l.25,0a.74.74,0,0,1-.21,0l.25,0a1.3,1.3,0,0,1-.34-.08l.23.09a1.17,1.17,0,0,1-.27-.15l.2.15a1.45,1.45,0,0,1-.22-.21l.16.2a1,1,0,0,1-.13-.23l.1.24a.67.67,0,0,1-.07-.24l0,.25a.81.81,0,0,1,0-.22l0,.24a.72.72,0,0,1,.07-.25l-.1.23a.88.88,0,0,1,.14-.23l-.15.19a1.45,1.45,0,0,1,.21-.22l-.2.16a2.26,2.26,0,0,1,.26-.16l-.24.1a1.25,1.25,0,0,1,.26-.07l-.25,0a.89.89,0,0,1,.23,0l-.24,0,.23.07-.22-.09a1.12,1.12,0,0,1,.24.13l-.2-.14a.9.9,0,0,1,.2.19l-.16-.2a1.06,1.06,0,0,1,.12.2l-.09-.23a2.25,2.25,0,0,1,0,.22l0-.24a.76.76,0,0,1,0,.3l0-.24a1.68,1.68,0,0,1-.09.32l.09-.22a1.38,1.38,0,0,1-.17.29l.14-.19a1,1,0,0,1-.23.24l.2-.15a1.71,1.71,0,0,1-.23.13l.23-.09a1,1,0,0,1-.25.06l.23,0h-.22l.23,0a1.16,1.16,0,0,1-.32-.08l.21.09-.28-.16.19.14a1.54,1.54,0,0,1-.29-.28l.15.19a1.58,1.58,0,0,1-.2-.36l.09.23a2.18,2.18,0,0,1-.11-.44l0,.24a2.26,2.26,0,0,1,0-.45l0,.23a1.86,1.86,0,0,1,.1-.39l-.09.22a1.35,1.35,0,0,1,.19-.33l-.15.2a1.66,1.66,0,0,1,.26-.27l-.2.15a1.87,1.87,0,0,1,.39-.22l-.23.09a2.09,2.09,0,0,1,.43-.11l-.24,0a2.26,2.26,0,0,1,.45,0l-.23,0a1.9,1.9,0,0,1,.39.11l-.21-.09a1.75,1.75,0,0,1,.35.2l-.18-.14a1.6,1.6,0,0,1,.26.26l-.15-.19a1.18,1.18,0,0,1,.16.29l-.09-.23a1.8,1.8,0,0,1,.1.4l0-.24a1.62,1.62,0,0,1,0,.44l0-.23a2.09,2.09,0,0,1-.11.43l.09-.22a2.08,2.08,0,0,1-.22.38l.15-.2a1.6,1.6,0,0,1-.26.26l.2-.16a1.29,1.29,0,0,1-.32.19l.24-.1a2.58,2.58,0,0,1-.42.12l.25,0h-.45l.25,0a1.59,1.59,0,0,1-.39-.1l.22.09a1.75,1.75,0,0,1-.35-.2l.2.15a1.31,1.31,0,0,1-.24-.23l.16.2a1.49,1.49,0,0,1-.18-.3l.1.23a2,2,0,0,1-.09-.33l0,.24a1.48,1.48,0,0,1,0-.42l0,.23a1.4,1.4,0,0,1,.11-.4l-.09.22a1.34,1.34,0,0,1,.17-.31l-.15.19a1.48,1.48,0,0,1,.25-.25l-.2.15a1.51,1.51,0,0,1,.28-.15l-.23.09a1.57,1.57,0,0,1,.31-.08l-.23,0a1.61,1.61,0,0,1,.31,0l-.22,0,.32.08c.08,0-.17-.09-.11,0l.08,0,.15.1-.19-.14a1.48,1.48,0,0,1,.25.25l-.14-.19a1.17,1.17,0,0,1,.15.27l-.09-.22a.9.9,0,0,1,.07.27l0-.23a2.44,2.44,0,0,1,0,.27l0-.23a1.11,1.11,0,0,1-.08.3l.09-.22a1.46,1.46,0,0,1-.17.3l.14-.19a2.13,2.13,0,0,1-.3.3l.19-.15a1.22,1.22,0,0,1-.29.17l.22-.09a.84.84,0,0,1-.26.07l.23,0-.3,0,.23,0h-.15c-.07,0-.05,0,0,0h0l-.12,0c-.06,0,.22.11.05,0l-.09,0c-.11-.06.19.16,0,0l-.17-.18.14.17a1.12,1.12,0,0,1-.16-.28l.08.2-.06-.16c0-.05,0-.22,0-.08s0-.05,0-.09,0-.08,0,.07c0,0,0,0,0-.06s0-.06,0-.09-.08.17,0,.07a.3.3,0,0,1,0-.08c0-.06.09-.08,0,.06l.11-.12s.05-.06.06,0-.18.12-.06,0l.14-.08c.1-.05-.16,0-.07,0l.08,0,.15,0c.08,0-.18,0-.06,0h.17c.1,0-.08,0-.08,0a.53.53,0,0,1,.17,0c.11,0-.13-.07-.06,0a.2.2,0,0,0,.08,0l.05,0c.12.06-.13-.11,0,0l-.19-.69a.14.14,0,0,0,0,.06s0,0,0-.07a.3.3,0,0,1,0,.08l-.06.12s-.09.13,0,0,0,0,0,0l-.08.08-.08.07c-.1.1.13-.09,0,0a.7.7,0,1,0,.71,1.21Z" transform="translate(-49.23 -60.09)"/><path class="cls-2" d="M165.29,151.15a1.14,1.14,0,0,0,.3-1.2,1.32,1.32,0,0,0-1.08-.95,1.49,1.49,0,0,0-1.36.56,2.09,2.09,0,0,0-.4.73,2.12,2.12,0,0,0,0,.83,2.3,2.3,0,0,0,.61,1.15,2.17,2.17,0,0,0,1.12.61,2,2,0,0,0,1.41-.22,2.15,2.15,0,0,0,.82-.87,2.3,2.3,0,0,0,.27-1.15,2,2,0,0,0-.1-.59,2.09,2.09,0,0,0-.42-.74,1.65,1.65,0,0,0-1.74-.47,2.22,2.22,0,0,0-1.14.88,2.28,2.28,0,0,0-.35,1.16,2,2,0,0,0,.52,1.34,1.93,1.93,0,0,0,1.22.54,2,2,0,0,0,1.13-.24,1.73,1.73,0,0,0,.84-1,1.59,1.59,0,0,0-.16-1.31,1.87,1.87,0,0,0-2.39-.73,1.64,1.64,0,0,0-.57.54,1,1,0,0,0-.1.73,1,1,0,0,0,.36.52,1,1,0,0,0,1.28-.08l.09-.09-.21.16.12-.07-.24.1.18,0-.26,0h.22l-.25,0,.21.06-.23-.09a1,1,0,0,1,.24.14l-.21-.16.16.16-.16-.21a.86.86,0,0,1,.1.16L165,151a.75.75,0,0,1,0,.16l0-.25a.48.48,0,0,1,0,.17l0-.25a1.09,1.09,0,0,1,0,.17l.09-.23a.64.64,0,0,1-.08.14l.15-.2a.54.54,0,0,1-.15.15l.21-.16a.94.94,0,0,1-.22.12l.25-.1a.9.9,0,0,1-.27.07l.25,0a1.31,1.31,0,0,1-.28,0l.25,0-.25-.07.24.1-.18-.1.21.15a.67.67,0,0,1-.15-.14l.16.21a.78.78,0,0,1-.11-.2l.1.25a.72.72,0,0,1-.07-.25l0,.25a1.31,1.31,0,0,1,0-.28l0,.25a1.09,1.09,0,0,1,.08-.31l-.09.23a1.51,1.51,0,0,1,.15-.28l-.15.21a1.61,1.61,0,0,1,.22-.23l-.2.16.22-.13-.24.1a1,1,0,0,1,.25-.07l-.25,0h.2l-.25,0,.12,0-.23-.09a.51.51,0,0,1,.16.09l-.2-.15.16.16-.16-.2a1.38,1.38,0,0,1,.14.24l-.1-.24a1.37,1.37,0,0,1,.07.29l0-.25a1.22,1.22,0,0,1,0,.33l0-.24a1.92,1.92,0,0,1-.09.32l.09-.23a1.14,1.14,0,0,1-.18.32l.16-.2a1.54,1.54,0,0,1-.26.25L165,151a1.49,1.49,0,0,1-.24.14l.24-.1a.84.84,0,0,1-.26.07l.24,0h-.26l.24,0a1.67,1.67,0,0,1-.3-.08l.22.09-.28-.16.19.14a1.44,1.44,0,0,1-.28-.27l.15.19a1.49,1.49,0,0,1-.18-.3l.1.22a1.31,1.31,0,0,1-.09-.34l0,.24a2.26,2.26,0,0,1,0-.26l0,.22a.79.79,0,0,1,.06-.22l-.09.2a1.09,1.09,0,0,1,.14-.23l-.14.17a1.29,1.29,0,0,1,.17-.16l-.18.13a1,1,0,0,1,.2-.11l-.21.09.16-.05-.21,0h.14l-.2,0,.1,0-.18-.08.14.08-.16-.12.11.11-.12-.15a.6.6,0,0,1,.09.15l-.07-.17a.29.29,0,0,1,0,.09l0-.18v.08c0,.1,0-.19,0-.09s.09-.16,0-.07.13-.15,0-.07a.71.71,0,0,0,0,1,.67.67,0,0,0,.48.2.78.78,0,0,0,.5-.21Z" transform="translate(-49.23 -60.09)"/><path class="cls-2" d="M54.58,64.59a3.59,3.59,0,0,0-3.68.91,6.32,6.32,0,0,0-1.64,4.09c-.13,1.41.2,3.1,1.75,3.57s3-.77,3.81-2a13,13,0,0,0,1.48-4.93L54.43,66a16.52,16.52,0,0,0,.41,4.09,4.26,4.26,0,0,0,.94,1.64,1.88,1.88,0,0,0,1.92.72c.43-.18.87-.74.5-1.22a2.09,2.09,0,0,0-.63-.59s-.28-.16-.17-.08c-.08-.06-.16-.15-.24-.22a2.39,2.39,0,0,1-.52-1.07A22.21,22.21,0,0,1,56.33,66a1,1,0,1,0-1.9,0,12.82,12.82,0,0,1-.73,3.3,5.25,5.25,0,0,1-.8,1.4,2.12,2.12,0,0,1-1.09.77.68.68,0,0,1-.75-.23A2.38,2.38,0,0,1,50.74,70a6.12,6.12,0,0,1,.65-3.34,2.64,2.64,0,0,1,3-1.35c.45.15.61-.54.18-.7Z" transform="translate(-49.23 -60.09)"/><path class="cls-2" d="M57.56,70.84c0,.43.1.86.14,1.29l1.86-.23a6.54,6.54,0,0,1-.47-2.48,3.86,3.86,0,0,1,.23-1.19,3.36,3.36,0,0,1,.2-.44c0-.08.09-.16.14-.24s.16-.25.1-.17l.19-.21s.2-.17.09-.09l.24-.15.06,0,.11,0a.54.54,0,0,1,.31,0s.15,0,.06,0l.06,0c-.12-.12,0,.07.09.1s0,0,0,0l.06.11s.11.24.08.16,0,.13,0,.17,0,.2.07.3a2.56,2.56,0,0,1,0,.27s0,.15,0,0,0,.08,0,.08l.09.79c.06.56.1,1.13.13,1.7,0,.28,0,.56.07.85a4.29,4.29,0,0,0,.22,1,.79.79,0,0,0,1.51,0,5,5,0,0,0,.15-1.89c0-.63-.1-1.26-.17-1.88a4.69,4.69,0,0,0-1.06-3.1,2.5,2.5,0,0,0-3.36.12,5,5,0,0,0-1.41,2.9,6.53,6.53,0,0,0,.38,4,.95.95,0,0,0,1.73-.71l-.18-1.29a.91.91,0,0,0-1-.68.92.92,0,0,0-.81.91Z" transform="translate(-49.23 -60.09)"/><path class="cls-2" d="M70.21,69.15c1.68.13,3.72.19,5-1.19a2.2,2.2,0,0,0,.52-2.55,2.35,2.35,0,0,0-2-1.12c-1.85,0-3,1.6-3.39,3.23s-.18,3.44,1.36,4.36a6.26,6.26,0,0,0,2.73.68c.51,0,1,0,1.54,0a8,8,0,0,0,1.74-.29.8.8,0,0,0-.2-1.57l-2.16,0a11.76,11.76,0,0,1-1.84-.14,2.18,2.18,0,0,1-1.2-.53A1.14,1.14,0,0,1,72,69.6a1.91,1.91,0,0,1-.1-.71A3.56,3.56,0,0,1,73,66.13,1.14,1.14,0,0,1,74.16,66c.37.21.13.56-.12.82-1,1-2.51.93-3.82.86a.76.76,0,0,0-.76.75.78.78,0,0,0,.75.76Z" transform="translate(-49.23 -60.09)"/><path class="cls-2" d="M78.51,72.63c.86-1.13,1.77-2.24,2.71-3.31.47-.52,1-1,1.43-1.55.24-.26.49-.51.74-.76l.37-.37c0-.06.08-.09,0,0,.09-.05.11-.06,0,0a.5.5,0,0,1-.44,0l-.47-.82a3.89,3.89,0,0,1-.21.74c-.11.43.39.9.8.62.14-.1.28-.19.41-.3l.18-.15c-.13.05-.13.05,0,0a1,1,0,0,0,.42-1.57,1.33,1.33,0,0,0-1.61-.17,3.89,3.89,0,0,0-.91.81c-.59.6-1.16,1.22-1.71,1.85-1.13,1.28-2.2,2.61-3.22,4a.93.93,0,0,0,1.47,1.11Z" transform="translate(-49.23 -60.09)"/><path class="cls-2" d="M78.49,66.83a27.48,27.48,0,0,0,1.84,4c.33.59.69,1.18,1.07,1.75A4.57,4.57,0,0,0,83,74.33a.84.84,0,0,0,1.2-.93,4.93,4.93,0,0,0-1-1.8c-.38-.57-.74-1.15-1.08-1.75a26.83,26.83,0,0,1-1.67-3.52,1,1,0,0,0-1.21-.71,1,1,0,0,0-.71,1.21Z" transform="translate(-49.23 -60.09)"/><path class="cls-2" d="M90.82,67.43a7.55,7.55,0,0,0-1-1.36A3.72,3.72,0,0,0,88.37,65c-1.5-.48-2,1.48-2.31,2.55a12.54,12.54,0,0,0-.32,1.93,4.63,4.63,0,0,0,.07,1.74,1.57,1.57,0,0,0,1.78,1.11,3,3,0,0,0,1.52-.93,11.78,11.78,0,0,0,2.21-3.15l-1.73-.71a4.51,4.51,0,0,0,.59,4,3,3,0,0,0,1.49,1,2.09,2.09,0,0,0,2-.48c.63-.52,0-1.6-.79-1.37l-.16,0h0s-.33,0-.12,0l-.25,0a2.27,2.27,0,0,1-.25-.06c-.19,0,.07.06-.09,0s-.27-.17-.19-.11-.14-.13-.16-.16-.17-.24-.06-.06a2,2,0,0,1-.3-1A4.18,4.18,0,0,1,91.41,68a.94.94,0,1,0-1.82-.49A6.72,6.72,0,0,1,88,69.84c-.1.1-.2.2-.31.29s-.33.28-.19.18l-.25.16q.14,0,0,0a.35.35,0,0,1,.28,0s.25.28.13.11l0-.08c0,.09,0,.09,0,0a8.23,8.23,0,0,1,0-.86,8.53,8.53,0,0,1,.19-1.59c.11-.53.31-1.1.45-1.58,0-.1.07-.08-.13,0s-.15,0,0,0l.1,0a3.27,3.27,0,0,1,.56.35,4.15,4.15,0,0,1,1,1.11.62.62,0,0,0,1.07-.61Z" transform="translate(-49.23 -60.09)"/><path class="cls-2" d="M93.47,71l0,.53,1.85-.23a16.75,16.75,0,0,1-.25-2.65c0-.49-.06-1.77.62-1.93.39-.09.59.57.7.91A22.33,22.33,0,0,1,97,70.27a1,1,0,0,0,1.74.23c.5-.85,1-1.79,1.53-2.58,0,0,.22-.23.22-.25s-.1,0-.11,0a2.07,2.07,0,0,1,.2.24,1.88,1.88,0,0,1,.18.38c.25.75.36,1.54.6,2.29s.72,2,1.77,2.06a.84.84,0,0,0,.83-.82c0-.58-.37-.94-.58-1.45a8.59,8.59,0,0,1-.36-1.24,5.89,5.89,0,0,0-1.15-2.76,2,2,0,0,0-2.93.08,8.37,8.37,0,0,0-.91,1.42l-.94,1.69,1.75.23a14,14,0,0,0-1-3.42,2.16,2.16,0,0,0-2.58-1.3c-1.2.42-1.58,1.64-1.76,2.77a10.76,10.76,0,0,0,0,3.92c.21,1,2,.83,1.85-.24L95.31,71a1,1,0,0,0-.92-.93.93.93,0,0,0-.92.92Z" transform="translate(-49.23 -60.09)"/><path class="cls-2" d="M104.32,69.11a26.11,26.11,0,0,1,1.05,4.53c.1.73.16,1.46.19,2.2s0,1.58,0,2.37a1,1,0,0,0,1.22,1,1.3,1.3,0,0,0,.7-2.06.59.59,0,0,0-1,.26s0,0,0,0l.4-.1s-.23,0-.16,0l.69,1.2a18,18,0,0,0-.16-5.07,26.15,26.15,0,0,0-1.08-4.79A1,1,0,0,0,105,67.9a1,1,0,0,0-.71,1.21Z" transform="translate(-49.23 -60.09)"/><path class="cls-2" d="M106.68,68a6.77,6.77,0,0,1,1.13-.71,1.34,1.34,0,0,1,.51-.11.75.75,0,0,1,.43.12c.16.08,0-.08.07,0s.23.27.12.11a3.33,3.33,0,0,1,.28.48l.07.16.12.31c.06.18.12.37.17.56s.06.25.09.37,0-.06,0,.13c0,0,0,.37,0,.2a.85.85,0,0,1,0,.17c0-.09,0-.08,0,0s.06-.09-.06.08-.08.08,0,0l-.14.09a4.51,4.51,0,0,1-.57.31,11.07,11.07,0,0,1-2.8,1,.81.81,0,1,0,.4,1.56,14.25,14.25,0,0,0,2.79-.77c.94-.38,2-.84,2.23-2a5,5,0,0,0-.61-2.79,2.89,2.89,0,0,0-1.9-1.71,3.86,3.86,0,0,0-3.06,1,.77.77,0,0,0-.27,1,.75.75,0,0,0,1,.28Z" transform="translate(-49.23 -60.09)"/><path class="cls-2" d="M111.43,63.62l.55,4.59.27,2.22c.09.74.11,2,1.15,2s.93-1.33.85-2L114,68.22l-.56-4.59a1,1,0,0,0-1-1,1,1,0,0,0-1,1Z" transform="translate(-49.23 -60.09)"/><path class="cls-2" d="M116.67,69.64a9.34,9.34,0,0,0,3,0,4.82,4.82,0,0,0,2.49-1c1.23-1.13.63-3.06-.67-3.85-1.51-.91-3.5.07-4.26,1.51a2.67,2.67,0,0,0,0,2.57A3.78,3.78,0,0,0,119,70.32a11.12,11.12,0,0,0,3,.87,17.2,17.2,0,0,0,1.76.18,7.42,7.42,0,0,0,1.82-.21c.91-.18.65-1.47-.19-1.53a26.35,26.35,0,0,1-4.34-.5c-.84-.2-2.13-.55-2.44-1.4s.88-2,1.73-2,1.68,1,.93,1.69a3.54,3.54,0,0,1-1.77.74,6.21,6.21,0,0,1-2.39-.09.85.85,0,0,0-1,.59.84.84,0,0,0,.59,1Z" transform="translate(-49.23 -60.09)"/><path class="cls-2" d="M134.17,66.69a20.33,20.33,0,0,0,3,5.23c.36.44.77,1.07,1.4,1.07a.94.94,0,0,0,.91-.69,1.34,1.34,0,0,0-.4-1.18l-.44-.54s-.13-.16,0,0l-.09-.12a3.71,3.71,0,0,1-.23-.32c-.28-.38-.53-.77-.78-1.17s-.53-.92-.77-1.39c-.12-.24-.23-.48-.34-.73s-.11-.24-.16-.37,0,0,0,0-.08-.19-.11-.28a1,1,0,0,0-1.22-.71,1,1,0,0,0-.71,1.21Z" transform="translate(-49.23 -60.09)"/><path class="cls-2" d="M139.92,67.41A18.16,18.16,0,0,0,137.64,74a13.26,13.26,0,0,0,.54,6.93c.32.75,1.57.37,1.53-.41a30,30,0,0,1-.11-6.21,16.38,16.38,0,0,1,2.05-5.87,1,1,0,0,0-1.73-1Z" transform="translate(-49.23 -60.09)"/><path class="cls-2" d="M142.55,68.7A5.27,5.27,0,0,0,145,72.4a3.89,3.89,0,0,0,4.39-.24,3.25,3.25,0,0,0,.86-4,5.62,5.62,0,0,0-3.81-2.56c-1.57-.33-4-.26-4.54,1.6a.73.73,0,0,0,1,.81,4.63,4.63,0,0,1,1.24-.54,3.93,3.93,0,0,1,1.47-.08,4.31,4.31,0,0,1,2.69,1.29,1.29,1.29,0,0,1-.08,1.79s-.29.26-.15.16l-.25.16-.17.08c.05,0,.11,0-.06,0l-.15,0-.11,0a2.05,2.05,0,0,1-1.23-.19,2.78,2.78,0,0,1-1.1-1,4.09,4.09,0,0,1-.59-1.61,1,1,0,0,0-1.17-.69,1,1,0,0,0-.7,1.18Z" transform="translate(-49.23 -60.09)"/><path class="cls-2" d="M150,68.07a4.84,4.84,0,0,0,3.18,3.75c.91.33,2.22.47,2.83-.45s-.15-2.1-.63-2.93c-.29-.51-.58-1-.89-1.53a3.74,3.74,0,0,0-1.29-1.54.71.71,0,0,0-1.05.61,2.74,2.74,0,0,0,.45,1.43q.31.61.66,1.2l.67,1.14.3.51a1.19,1.19,0,0,1,.12.22s-.06-.17,0-.06l0,.13s0,.11,0,.11,0-.18,0-.08,0-.09,0-.12a.42.42,0,0,1,.09-.14s.1,0,.14-.08,0,0,0,0,.15,0,.05,0h-.41c-.07,0-.21,0-.06,0a2.68,2.68,0,0,1-.49-.11l-.21-.06c-.16-.06.09,0-.06,0l-.45-.23-.18-.12s-.18-.13-.06,0a4,4,0,0,1-.38-.34,2,2,0,0,1-.2-.21l-.07-.08c-.08-.09.07.11,0,0s-.2-.3-.29-.46-.07-.15-.11-.22,0,0,0,0a.78.78,0,0,0-.05-.14,3.53,3.53,0,0,1-.14-.56.79.79,0,0,0-1-.56.82.82,0,0,0-.56,1Z" transform="translate(-49.23 -60.09)"/><path class="cls-2" d="M153.74,61.58l.59,1a2.49,2.49,0,0,0,.29.43l.17.21.37.43.17.13a.63.63,0,0,0,.3.1.79.79,0,0,0,.52-.1.92.92,0,0,0,.31-.31.81.81,0,0,0,.08-.61l-.19-.54-.09-.25a3.38,3.38,0,0,0-.22-.47l-.57-1a1,1,0,0,0-1.83.24,1.09,1.09,0,0,0,.1.75Z" transform="translate(-49.23 -60.09)"/><path class="cls-2" d="M158.16,63.46c.25,1.24.47,2.48.66,3.73a22,22,0,0,0,.74,3.7A.75.75,0,0,0,161,70.7a15.82,15.82,0,0,0-.27-3.94c-.2-1.27-.42-2.54-.67-3.8a1,1,0,0,0-1.21-.72,1,1,0,0,0-.72,1.22Z" transform="translate(-49.23 -60.09)"/><path class="cls-2" d="M161.58,63.31c.27,1.36.5,2.72.69,4.09.09.68.14,1.37.28,2s.27,1.33.41,2,1.34.59,1.4-.18.08-1.37.07-2.06a18.87,18.87,0,0,0-.22-2.24c-.19-1.39-.43-2.78-.7-4.16a1,1,0,0,0-1.93.5Z" transform="translate(-49.23 -60.09)"/><path class="cls-2" d="M177.61,67.48a3.65,3.65,0,0,0-3.45-1.37,2.89,2.89,0,0,0-2.29,2.74,3,3,0,0,0,2.33,2.74,4.51,4.51,0,0,0,4-1.36l-1.09-.29a16.09,16.09,0,0,1,.53,3.77,16.69,16.69,0,0,1-.06,1.87,1.77,1.77,0,0,1-.52,1.28,3,3,0,0,1-2.49.09A7.21,7.21,0,0,1,172,75.38a.64.64,0,0,0-1,.77c1,2.32,4.75,3.74,7,2.21,1.28-.9,1.33-2.48,1.3-3.9a17.07,17.07,0,0,0-.87-4.85.66.66,0,0,0-1-.39,4.09,4.09,0,0,1-2.52.66c-.52-.09-1.18-.43-1.28-1a1.34,1.34,0,0,1,1.08-1.34,2.33,2.33,0,0,1,2.09.79c.54.54,1.29-.26.82-.84Z" transform="translate(-49.23 -60.09)"/><path class="cls-2" d="M181.5,70.88A6.84,6.84,0,0,0,184,70.8a3.5,3.5,0,0,0,2-1,1.6,1.6,0,0,0-.05-2.09,3.49,3.49,0,0,0-2.17-1,4.42,4.42,0,0,0-2.47.18,2.71,2.71,0,0,0-1.59,1.7c-.52,1.75.85,3.34,2.33,4a7.9,7.9,0,0,0,2.74.69,5.18,5.18,0,0,0,2.85-.55.68.68,0,0,0-.33-1.26,34.29,34.29,0,0,1-3.52-.15,3.4,3.4,0,0,1-2.43-1.58c-.45-1,.36-1.77,1.3-1.9a4.45,4.45,0,0,1,1.85.19c.37.11,1,.47.79,1s-1,.67-1.51.78a5.92,5.92,0,0,1-2.14.08c-.53-.07-.65.86-.12.93Z" transform="translate(-49.23 -60.09)"/><path class="cls-2" d="M188.74,63.77a17,17,0,0,0,.37,4.77,13.31,13.31,0,0,0,.67,2.23c.29.73.66,1.74,1.48,2a.65.65,0,0,0,.78-.45c.2-.69-.28-1.53-.51-2.17a16.71,16.71,0,0,1-.65-2.08,15.55,15.55,0,0,1-.41-4.3c.05-1.12-1.66-1.12-1.73,0Z" transform="translate(-49.23 -60.09)"/><path class="cls-2" d="M190.1,68.3h1.66a15.62,15.62,0,0,0,1.81-.18.87.87,0,0,0,.52-.4.84.84,0,0,0,.09-.52.86.86,0,0,0-.23-.49,1.06,1.06,0,0,0-.59-.24,12.52,12.52,0,0,0-1.62-.16h-1.63a1,1,0,0,0,0,2Z" transform="translate(-49.23 -60.09)"/><path class="cls-2" d="M205.76,64.36c-.47.37-1.06.56-1.51,1a2,2,0,0,0-.69,1.74c.12.69.67,1.06,1.17,1.47a14.48,14.48,0,0,1,1.33,1.27,1.45,1.45,0,0,1,.26.43s0,0,0,0a.75.75,0,0,1-.07.12q.08-.09,0,0a1.46,1.46,0,0,1-.52.38l-.27.13,0,0-.25.09a3.48,3.48,0,0,1-1.64.26,1.45,1.45,0,0,1-.95-.62c-.26-.35-1-.41-1.07.15a2.11,2.11,0,0,0,1.76,2.24,5,5,0,0,0,3.35-.73,2.43,2.43,0,0,0,1.4-2.54c-.26-1.12-1.4-2-2.27-2.61a4,4,0,0,0-.64-.47c-.09,0,0,0,0,0a1.43,1.43,0,0,1,.12-.21c.32-.39.95-.53,1.35-.83a.81.81,0,0,0,.29-1.07.79.79,0,0,0-1.07-.29Z" transform="translate(-49.23 -60.09)"/><path class="cls-2" d="M208.88,67.27l.37,2.67c.06.44.12.89.19,1.33,0,.21.06.41.1.61a3.13,3.13,0,0,0,.32.78.82.82,0,0,0,1.49-.19,2.62,2.62,0,0,0,.1-.83c0-.2,0-.41-.07-.61-.06-.51-.13-1-.2-1.54l-.37-2.72a1,1,0,0,0-1.22-.71,1,1,0,0,0-.71,1.21Z" transform="translate(-49.23 -60.09)"/><path class="cls-2" d="M207.61,64.4a2.1,2.1,0,0,0,1.21.36,1.36,1.36,0,0,0,.45-.12,1,1,0,0,0,.25-.17,1.18,1.18,0,0,0,.31-.5l-.05.14a1.23,1.23,0,0,0,.12-.5.89.89,0,0,0-.13-.5,1,1,0,0,0-.52-.41,1.23,1.23,0,0,0-.66,0,2.23,2.23,0,0,0-.51.19,1.91,1.91,0,0,0-.32.16l-.29.22a.77.77,0,0,0-.13.12,2.19,2.19,0,0,0-.2.25,1.18,1.18,0,0,0-.1.42.55.55,0,0,0,.16.38.58.58,0,0,0,.37.15,2.23,2.23,0,0,0,.27,0,1.05,1.05,0,0,0,.26-.13l.3-.19c.2-.11.39-.23.6-.32l-.16.07a.88.88,0,0,1,.23-.07l-.17,0H209l-.16,0,.1,0-.15-.06.07,0-.13-.09a.12.12,0,0,1,.05,0l-.1-.13a.16.16,0,0,1,0,.07l-.06-.16s0,.06,0,.09l0-.15v.13l0-.16s0,.07,0,.1l.05-.14-.07.14.09-.13a.38.38,0,0,1-.11.11l.13-.09-.1.06.14-.06a.8.8,0,0,1-.15,0l.15,0h-.18l.15,0a1.17,1.17,0,0,1-.32-.09l.14.06a3.84,3.84,0,0,1-.4-.21.61.61,0,0,0-.6,1.06Z" transform="translate(-49.23 -60.09)"/><path class="cls-2" d="M216.59,65.18a6.19,6.19,0,0,0-3.43,3.2,2.73,2.73,0,0,0,0,2.75,2.93,2.93,0,0,0,2.26,1.17,4.11,4.11,0,0,0,3-1.26.75.75,0,0,0-.72-1.24,5.15,5.15,0,0,0-.76.24l-.18.07,0,0-.27.1-.65.19c-.11,0-.12,0,0,0h-.38l-.15,0-.22-.07c-.09,0-.09,0,0,0l-.13-.07c-.07,0-.17-.12,0,0a2,2,0,0,1-.21-.2c.15.16,0,0,0,0s-.05-.09,0,0c0,0,0-.11-.05-.16s0-.16,0-.21,0-.1,0-.21.07-.22.11-.33,0-.08,0-.12,0,.07,0,0a2.1,2.1,0,0,1,.13-.26,5,5,0,0,1,.29-.5l.16-.23c-.08.11.08-.1.1-.12s.26-.28.4-.42l.21-.19.13-.1c-.06,0-.06,0,0,0a5.2,5.2,0,0,1,1-.59.77.77,0,0,0-.57-1.41Z" transform="translate(-49.23 -60.09)"/><path class="cls-2" d="M217.79,64.61a27.92,27.92,0,0,0,2,7.47,1,1,0,0,0,1.56.2,1.14,1.14,0,0,0,.19-1.43,1,1,0,0,0-1.09-.5.72.72,0,0,0-.51.66c0-.09,0-.11,0-.05s0,0,0,0l.34-.35-.26.2c-.17.23-.2.27-.09.13l1.56.2a24.74,24.74,0,0,1-1.72-6.47,1,1,0,0,0-1-1,1,1,0,0,0-1,1Z" transform="translate(-49.23 -60.09)"/><path class="cls-2" d="M221.65,69.3c.67-.37,1.36-.72,2-1l1-.47.5-.21.12,0a1.7,1.7,0,0,0,.58-.34,1,1,0,1,0-1.37-1.35,2.21,2.21,0,0,0-.48.73.63.63,0,0,0,.29.7,2,2,0,0,0,.87.2V65.55a2.19,2.19,0,0,0-.93.28l-.51.21c-.36.15-.71.31-1.07.48-.7.33-1.4.68-2.09,1.06a1,1,0,0,0-.36,1.36,1,1,0,0,0,1.36.36Z" transform="translate(-49.23 -60.09)"/><path class="cls-2" d="M222.22,70.58a12.73,12.73,0,0,0,2.19.8,11.41,11.41,0,0,0,2.25.32.71.71,0,0,0,.19-1.39c-.32-.12-.64-.25-1-.36a10.18,10.18,0,0,1-1-.36l0,0-.43-.17-.2-.08c-.1,0-.09,0,0,0l-.13,0c-.31-.14-.62-.28-.93-.44a1,1,0,1,0-1,1.74Z" transform="translate(-49.23 -60.09)"/><path class="cls-2" d="M237.29,66.07c-.95,1.26-1.78,2.8-1,4.38a3.25,3.25,0,0,0,1.69,1.49,6.26,6.26,0,0,0,2.46.55,4.29,4.29,0,0,0,2.19-.52,2.55,2.55,0,0,0,1.23-2c.1-1.66-1.2-3-2.44-3.86a7.26,7.26,0,0,0-2.22-1.2c-1.08-.28-2.71.36-2.13,1.72a.82.82,0,0,0,.71.41,1.22,1.22,0,0,0,.59-.14h0l.16-.13c-.18.06.26,0-.07,0l.15,0c-.07,0-.17,0,0,0s.15,0,0,0,.29.09.14,0a8,8,0,0,1,1.47.85l.32.22c.14.11-.17-.14.06.06l.15.12q.33.28.63.6l.11.14c-.12-.14,0,0,0,0a3.87,3.87,0,0,1,.21.34c0,.05,0,.11.08.16s0-.21,0,0,.07.25.09.37,0-.19,0,.05v.16s0-.17,0,0,0,.11,0,.16c0-.15,0,0,0,0l-.09.14c.12-.16,0,0,0,0s-.12.1,0,0l-.32.18c-.13.07.15,0,0,0l-.2.06-.33.08h0l-.3,0a4,4,0,0,1-1.6-.24,2.78,2.78,0,0,1-.62-.28c-.05,0-.29-.2-.18-.11l-.14-.12s-.17-.21-.08-.08l-.09-.15c-.12-.2,0,.13,0-.09l-.05-.17c-.06-.23,0,.13,0-.11s0-.3,0-.44c0,0,0,.12,0,0a2.33,2.33,0,0,1,.07-.25,3.5,3.5,0,0,1,.34-.75c.18-.3.38-.59.58-.87a.84.84,0,0,0-1.45-.83Z" transform="translate(-49.23 -60.09)"/><path class="cls-2" d="M251.11,61.82a2.86,2.86,0,0,0-3.26-.24,4.12,4.12,0,0,0-1.93,3.07,9,9,0,0,0,.14,3.66,3.65,3.65,0,0,0,2.22,2.79.74.74,0,0,0,.82-.35.78.78,0,0,0-.12-.88,6.17,6.17,0,0,1-1.15-2,7.5,7.5,0,0,1-.27-2.58,3.14,3.14,0,0,1,.87-2.28,1.5,1.5,0,0,1,1.89-.18c.6.45,1.36-.55.79-1Z" transform="translate(-49.23 -60.09)"/><path class="cls-2" d="M245.62,67.35l1.55-.12a.73.73,0,0,0,.45-.19.63.63,0,0,0,0-.88.67.67,0,0,0-.44-.18l-1.55-.13a.78.78,0,0,0-.54.23.75.75,0,0,0-.22.52.76.76,0,0,0,.23.53.73.73,0,0,0,.52.22Z" transform="translate(-49.23 -60.09)"/><path class="cls-2" d="M257.23,65.9a.88.88,0,0,0,.1-.22.45.45,0,0,0,0-.11.43.43,0,0,0,0-.12h0l0-.2v0a2.14,2.14,0,0,0-.1-.22l.08.19a1.19,1.19,0,0,0-.11-.26,1.22,1.22,0,0,0-.34-.34,1.17,1.17,0,0,0-.26-.1.67.67,0,0,0-.28,0,1.2,1.2,0,0,0-.24,0h0l-.21.08a.47.47,0,0,0-.09.06,2,2,0,0,0-.24.19c-.07.08-.13.17-.19.25a.35.35,0,0,0,0,.08.88.88,0,0,0-.11.24,1.07,1.07,0,0,0,0,.47,1.39,1.39,0,0,0,.12.28,1.24,1.24,0,0,0,.18.25s0,0,0,0l.2.16,0,0,0,0h0l.22.09.08,0a1.48,1.48,0,0,0,.31,0,1.75,1.75,0,0,0,.32,0,1.28,1.28,0,0,0,.56-.33.94.94,0,0,0,.24-.89c0-.1-.08-.2-.12-.3a.43.43,0,0,1,0-.07l-.18-.22h0l-.19-.15-.07,0-.25-.1h-.07l-.13,0a.45.45,0,0,0-.23,0,.46.46,0,0,0-.23.06.45.45,0,0,0-.21.12l-.1.08-.14.19-.09.21,0,.23,0,.24a.21.21,0,0,0,0,.11.5.5,0,0,0,.13.21.35.35,0,0,0,.17.17l.12.09,0,0-.2-.15a.3.3,0,0,1,.08.08l.07.07-.15-.2a.31.31,0,0,1,.05.1l-.09-.24h0l.24-.89-.06,0,.2-.15-.07,0,.23-.09-.1,0,.24,0h-.1l.23,0a.31.31,0,0,1-.13,0l.21.09-.08-.05.18.14-.06-.06.14.19,0-.07.08.22v.43a.36.36,0,0,1,0-.11l-.08.2a.8.8,0,0,1,.08-.16l-.13.17.07-.07-.17.13.07,0-.21.09.05,0-.2,0h.05l-.2,0,.08,0L256.1,66l.06,0-.16-.12,0,0-.12-.17s0,0,0,0l-.08-.19s0,0,0,0l0-.2v0l0-.19a0,0,0,0,1,0,0l.08-.18,0,0a.57.57,0,0,0-.08.28.48.48,0,0,0,0,.29A.57.57,0,0,0,256,66a.61.61,0,0,0,.22.2l.18.07a.74.74,0,0,0,.39,0l.19-.08a.75.75,0,0,0,.28-.28Z" transform="translate(-49.23 -60.09)"/><path class="cls-2" d="M256.13,69.48a2.19,2.19,0,0,0-.39.29l-.23.2a4.08,4.08,0,0,0-.31.39,1.35,1.35,0,0,0-.15.26.71.71,0,0,0-.1.31.74.74,0,0,0,0,.33l.09.22a1,1,0,0,0,.32.32A3.12,3.12,0,0,0,256,72a1.71,1.71,0,0,0,.45,0,2.15,2.15,0,0,0,.34,0L257,72l.17-.07a1.27,1.27,0,0,0,.45-.44.71.71,0,0,0,.08-.18.56.56,0,0,0,.07-.18c0-.1,0-.2,0-.3a1.23,1.23,0,0,0,0-.2.86.86,0,0,0-.13-.42,1.64,1.64,0,0,0-.19-.25l-.05-.06a1.33,1.33,0,0,0-.45-.25h0l-.22,0h0l-.23,0a1,1,0,0,0-.24.1.77.77,0,0,0-.31.31.84.84,0,0,0-.11.41.86.86,0,0,0,.42.74l.05,0-.18-.13,0,0-.14-.19,0,0-.1-.22A2,2,0,0,1,256,71l-.09-.23,0,.11,0-.24a1.54,1.54,0,0,0,0,.3s0,0,0,.07l0-.25v.11l0-.23a.29.29,0,0,1,0,.09l.09-.22a.43.43,0,0,0,0,.07l.14-.2s0,0-.05.06l.19-.15a.57.57,0,0,1-.13.08l.23-.1a.47.47,0,0,1-.16,0l.23,0h-.27l.22,0-.35-.08.61,1.06a1.07,1.07,0,0,1,.07-.19l-.08.2a1.92,1.92,0,0,1,.25-.44l-.13.17a1.67,1.67,0,0,1,.32-.33.64.64,0,0,0,.15-.25.55.55,0,0,0,.07-.28l0-.2a.59.59,0,0,0-.14-.27.32.32,0,0,0-.14-.14.5.5,0,0,0-.26-.13.78.78,0,0,0-.58.07Z" transform="translate(-49.23 -60.09)"/><path class="cls-2" d="M245,67.94a14.57,14.57,0,0,0,2.37.35,10.1,10.1,0,0,0,1.1,0,2.78,2.78,0,0,0,1.43-.21.82.82,0,0,0-.2-1.49,3,3,0,0,0-1.22,0c-.37,0-.74,0-1.1,0a17.75,17.75,0,0,1-2.19-.11.67.67,0,0,0-.68.59.68.68,0,0,0,.49.75Z" transform="translate(-49.23 -60.09)"/><path class="cls-2" d="M111.16,88.66l1.12,4.48a1,1,0,0,0,1.06.72,1,1,0,0,0,.86-1,10.89,10.89,0,0,0-.29-3.06,5.48,5.48,0,0,1-.09-1.22,2,2,0,0,1,.09-.59.91.91,0,0,1,0-.16l.1-.19a2.39,2.39,0,0,1,.13-.21c-.1.14.08-.08.09-.09s.24-.21.08-.09l.19-.12.13-.07c-.09,0-.1.05,0,0s.21,0,.07,0a1,1,0,0,1,.3,0c-.17,0,.12,0,.13,0l.13,0,.22.11a4.63,4.63,0,0,1,.46.31l.38.32.48.39a.7.7,0,0,0,1.09-.84,4,4,0,0,0-2.25-2.25,2.78,2.78,0,0,0-2.91.91,4.29,4.29,0,0,0-.87,3.21,17.57,17.57,0,0,1,.36,3.54l1.93-.24L113,88.18a1,1,0,0,0-1.85.48Z" transform="translate(-49.23 -60.09)"/><path class="cls-2" d="M119.84,88.89a4.34,4.34,0,0,0,3.26,4.69A2.57,2.57,0,0,0,126,92.35a2.47,2.47,0,0,0,.08-1.85,3.32,3.32,0,0,0-1.2-1.56,7.34,7.34,0,0,0-1.71-.84l-.89-.34a4.43,4.43,0,0,0-1.16-.35,1,1,0,0,0-.93.72,1,1,0,0,0,.45,1.08,3.78,3.78,0,0,0,.82.36l.76.29.63.24.13.05c-.21-.1-.09,0,0,0l.35.16c.18.09.35.2.53.31s-.18-.17,0,0l.1.09.1.09.08.1-.09-.12a2.33,2.33,0,0,0,.17.26,1.17,1.17,0,0,0,0,.11c-.11-.17,0-.16,0-.07a2.06,2.06,0,0,0,.07.29s0-.24,0-.08a1.08,1.08,0,0,0,0,.18c0-.15,0-.17,0-.07s0,.09,0,.14.13-.21,0,0a.47.47,0,0,0-.05.1c0-.13.14-.16.06-.08l-.09.09c-.09.09-.12,0,.07-.06l-.13.08-.09,0s.25-.08.11,0l-.23.05c-.12,0,.26,0,.07,0h-.37c-.2,0,.18,0,.06,0l-.14,0a.83.83,0,0,1-.21-.06s-.19-.08,0,0,0,0,0,0l-.26-.14s-.28-.19-.14-.09,0,0,0,0l-.09-.08-.2-.19-.1-.11,0,0c-.07-.08-.06-.06.05.07a2.2,2.2,0,0,0-.17-.25,1.82,1.82,0,0,1-.15-.27.37.37,0,0,1,0-.11.37.37,0,0,1,0-.11l0,.14a2,2,0,0,0-.1-.32,3,3,0,0,1-.08-.32s0-.08,0-.12c.06.26,0,.09,0,0a5,5,0,0,1,0-.67,1,1,0,0,0-.29-.71,1,1,0,0,0-1.41,0,1.16,1.16,0,0,0-.29.69Z" transform="translate(-49.23 -60.09)"/><path class="cls-2" d="M126.06,85.21a18.91,18.91,0,0,1,1.11,3.69,31.39,31.39,0,0,0,.64,3.88.72.72,0,0,0,1.38,0,8.68,8.68,0,0,0-.09-4.38,20.32,20.32,0,0,0-1.32-4.18,1,1,0,0,0-1.36-.37,1,1,0,0,0-.36,1.36Z" transform="translate(-49.23 -60.09)"/><path class="cls-2" d="M129.67,85.58l1,3.94c.15.63.28,1.27.46,1.9a5.41,5.41,0,0,0,.88,2,.71.71,0,0,0,1.18-.33,5.2,5.2,0,0,0-.15-2.18c-.12-.64-.29-1.27-.44-1.9l-1-3.94a1,1,0,0,0-1.93.5Z" transform="translate(-49.23 -60.09)"/><path class="cls-2" d="M134.79,89.76c.15.44.31.89.47,1.34.08.21.16.43.25.65a2,2,0,0,0,.25.51l.21.29a1,1,0,0,0,.4.34.81.81,0,0,0,1.13-.75,2.87,2.87,0,0,0-.1-.88l-.21-.67c-.15-.44-.32-.89-.47-1.33a1.1,1.1,0,0,0-.48-.62,1,1,0,0,0-1.35.37.94.94,0,0,0-.1.75Z" transform="translate(-49.23 -60.09)"/><path class="cls-2" d="M134.09,86.21l.11.15.14.11.16.07h0a.85.85,0,0,0,.45,0,.88.88,0,0,0,.22-.1.61.61,0,0,0,.17-.15.84.84,0,0,0,.19-.33,1.23,1.23,0,0,0,0-.19,1.1,1.1,0,0,0,0-.18v0a.61.61,0,0,0-.3-.4l-.15-.06a.74.74,0,0,0-.33,0l-.07,0h0l-.1,0-.09,0a1.16,1.16,0,0,0-.24.2,1.22,1.22,0,0,0-.2.25l-.08.12-.09.23a.81.81,0,0,0,0,.25.66.66,0,0,0,0,.14,1,1,0,0,0,0,.26.94.94,0,0,0,.1.23,2.4,2.4,0,0,0,.18.26.87.87,0,0,0,.31.18.73.73,0,0,0,.36,0l.18-.07a.81.81,0,0,0,.26-.26.73.73,0,0,0,.09-.35.28.28,0,0,1,0-.09l0,.19c0-.1,0-.2,0-.3a.57.57,0,0,1,0-.13l0,.2c0-.12,0-.23,0-.34l0,.19a.66.66,0,0,1,.06-.2l-.07.17a.51.51,0,0,1,.09-.16l-.11.14a.72.72,0,0,0,.19-.34l-.06.16a.2.2,0,0,1,0-.08l-1,.14,0,0-.11-.13,0,0-.06-.16s0,0,0,0l0-.15v0l0-.15a0,0,0,0,0,0,0l0-.14,0,.06.09-.12-.06.06.12-.09h0l.14-.05h0l.14,0,0,0,.13.06,0,0,.12.09,0,0,.09.12v0a.61.61,0,0,0-.33-.26.62.62,0,0,0-.42.06.52.52,0,0,0-.25.33.61.61,0,0,0,.05.42Z" transform="translate(-49.23 -60.09)"/><path class="cls-2" d="M141,92.1c0-.11,0-.09,0,0l-.06-.14c0-.08,0-.15-.07-.22a.79.79,0,0,1-.06-.22.83.83,0,0,1,0-.15c0,.11,0,.14,0,.06a4,4,0,0,1,0-.49c0-.07,0-.15,0-.22-.05.24,0-.09,0-.13s.07-.4.14-.43-.06.13,0,0l.05-.09a2.12,2.12,0,0,1,.12-.2c.09-.16-.14.13,0,0l.13-.14c.09-.07.07,0,0,0l.1-.07c.15-.1-.2,0,0,0s-.23,0,0,0-.17,0,.06,0q.1,0-.06,0l.12.07.09.06-.06,0c.14,0,.31.27.41.36l.39.37c.28.26.56.52.86.77l.49.39a2.6,2.6,0,0,0,.33.25,1.17,1.17,0,0,0,.45.13.77.77,0,0,0,.93-.93,1.62,1.62,0,0,0-.14-.44,3.19,3.19,0,0,0-.33-.4l-.49-.51c-.33-.34-.7-.65-1-1a4.78,4.78,0,0,0-1.11-.84,2,2,0,0,0-1.74,0,3,3,0,0,0-1.5,2.16,4.77,4.77,0,0,0,.32,2.89,1,1,0,0,0,1.36.37A1,1,0,0,0,141,92.1Z" transform="translate(-49.23 -60.09)"/><path class="cls-2" d="M150.09,88.85a13,13,0,0,0-1.46-.57,1.84,1.84,0,0,0-1.82.79,3.09,3.09,0,0,0-.25,3.12,2.39,2.39,0,0,0,4.54-.53l-1.42.19a10.71,10.71,0,0,1,1.49,3.08,7.2,7.2,0,0,1,.1,3.36c-.55,2.3-4.19.63-5.46-.05a.62.62,0,0,0-.74,1c1.76,1.88,6.33,3.37,7.67.21a7.6,7.6,0,0,0,.14-4.48,8.5,8.5,0,0,0-2-4,.78.78,0,0,0-1.32.55c0,.16-.53.27-.69.25a.65.65,0,0,1-.57-.47,1.22,1.22,0,0,1,.13-1c-.06.13-.37-.11,0,.07l.27.14a5.06,5.06,0,0,0,.9.38,1,1,0,0,0,.52-1.93Z" transform="translate(-49.23 -60.09)"/><path class="cls-2" d="M164.61,89.74a2.65,2.65,0,0,0-3.08-1.38c-1.26.49-1.46,2-1.16,3.12s1.2,2.45,2.56,2.32,2.23-1.61,2.86-2.72A.9.9,0,0,0,164.37,90a2,2,0,0,0,.57,2.95,3.25,3.25,0,0,0,1.64.41c.55,0,1.1-.1,1.65-.09a.69.69,0,0,0,.34-1.27,2.86,2.86,0,0,0-1.12-.41c-.38-.07-.79-.06-1.12-.13l-.22,0s-.19-.07-.14,0a.71.71,0,0,1-.18-.12c.1.08-.08-.11,0,0s-.05-.13,0,0,0-.13,0-.15v.12c0-.1,0-.12,0-.06s0,0,0,0l-1.64-.67A3,3,0,0,1,162.8,92c.07,0-.17,0-.07,0h-.1c.07,0,.07,0,0,0a.73.73,0,0,1-.2-.13,2.54,2.54,0,0,1-.44-.71c-.17-.48-.33-1.17.06-1.51.6-.53,1.46.2,1.83.64s1-.12.72-.55Z" transform="translate(-49.23 -60.09)"/><path class="cls-2" d="M178.51,89.44a2.73,2.73,0,0,0-1.21,3.15,2.57,2.57,0,0,0,3,1.66A2.45,2.45,0,0,0,182,91.14a6.3,6.3,0,0,0-1-1.71c-.43-.57-.86-1.12-1.31-1.67a11.1,11.1,0,0,0-3.42-3.13.72.72,0,0,0-1,1,19.61,19.61,0,0,0,2.43,2.88A20.58,20.58,0,0,1,180,91.33a1.19,1.19,0,0,1,.25.56c0,.16,0,.21-.13.37l-.21.15a.48.48,0,0,1-.39,0A.81.81,0,0,1,179.4,91a.89.89,0,1,0-.89-1.53Z" transform="translate(-49.23 -60.09)"/><path class="cls-2" d="M183.51,91.46q.26.87.57,1.71c.13.33.26.68.42,1,.07.13.13.26.2.38a2.06,2.06,0,0,0,.45.48.82.82,0,0,0,.87.16.8.8,0,0,0,.5-.73c0-.1,0-.2,0-.3a1.18,1.18,0,0,0-.11-.5c-.1-.28-.21-.55-.32-.82l.1.25c-.28-.7-.53-1.41-.74-2.13a1,1,0,0,0-1.21-.72,1,1,0,0,0-.72,1.22Z" transform="translate(-49.23 -60.09)"/><path class="cls-2" d="M184.47,86.67a.05.05,0,0,0,0,0l-.14-.18a1.12,1.12,0,0,0-.2-.17,1,1,0,0,0-.34-.14,1.28,1.28,0,0,0-.55,0l-.09,0a1.34,1.34,0,0,0-.27.13.72.72,0,0,0-.3.3.55.55,0,0,0-.09.3.58.58,0,0,0,0,.32.78.78,0,0,0,.22.37v0l-.14-.18c.06.07.11.16.17.22a1.25,1.25,0,0,0,.22.16l.12.07.24.11.31.11.12,0,.06,0a1,1,0,0,0,.41,0l.09,0a.42.42,0,0,0,.22-.11.58.58,0,0,0,.17-.18.64.64,0,0,0,.06-.47l0-.09a.91.91,0,0,0-.2-.36l-.05-.05a1.62,1.62,0,0,0-.19-.18l-.11-.08a1.64,1.64,0,0,0-.26-.2l-.12-.07a1.09,1.09,0,0,0-.25-.1l-.26,0,.21,0h0l.5,1.2,0-.06-.13.17s0,0,.05,0l-.16.12.08,0-.19.08a.19.19,0,0,1,.1,0l-.19,0h.11l-.19,0,.09,0-.17-.07.08,0-.15-.11,0,0a.46.46,0,0,0,.23.14.4.4,0,0,0,.26.06l.18,0a.47.47,0,0,0,.24-.13.27.27,0,0,0,.13-.13.46.46,0,0,0,.12-.23l0-.18a.64.64,0,0,0-.1-.35Z" transform="translate(-49.23 -60.09)"/><path class="cls-2" d="M189,92.09a5.86,5.86,0,0,0,2.15.44,2.4,2.4,0,0,0,1.82-1,1.87,1.87,0,0,0,.19-1.92,2.08,2.08,0,0,0-1.38-1,2.81,2.81,0,0,0-3.07,1.75,3.81,3.81,0,0,0-.45,2,2.44,2.44,0,0,0,1.2,1.88,7.11,7.11,0,0,0,4.81.47.68.68,0,0,0-.17-1.33c-.28,0-.54-.07-.84-.08a7.93,7.93,0,0,1-.84-.07l-.29,0-.42-.08c-.26,0-.51-.13-.77-.2l-.28-.08-.1,0a.43.43,0,1,0-.05,0,2.49,2.49,0,0,1-.28-.15s-.1-.11,0,0l-.15-.14c-.05-.05-.07-.12,0,0L190,92.3c-.09-.14,0,0,0,0s0-.13-.05-.2,0,.17,0,0v-.17a.86.86,0,0,1,0-.16c0,.15,0-.11,0-.11a1.92,1.92,0,0,1,.09-.32s0-.09,0-.14c.07-.21,0,.09,0,0a4.36,4.36,0,0,1,.33-.6c-.09.13.08-.08.11-.11a1.8,1.8,0,0,1,.2-.19c-.12.1,0,0,0,0l.12-.07h0l.15,0s.17,0,0,0h.24c-.13,0-.06,0,0,0l.12,0,.08,0c-.09,0,.22.14.14.08l.05,0s.06.11,0,0l.06.1c.07.11,0,0,0,0a.53.53,0,0,1,0,.12c0-.14,0,0,0,0s0-.1,0,0-.07.2,0,.13,0,0,0,.07l-.06.08s0-.06,0,0l-.09.1s-.18.14-.11.1-.05,0-.07,0l-.19.1c-.1,0,.1,0,0,0l-.23.07a3.67,3.67,0,0,1-1.7-.24.62.62,0,0,0-.32,1.2Z" transform="translate(-49.23 -60.09)"/></svg>