<svg id="Layer_1" data-name="Layer 1" xmlns="http://www.w3.org/2000/svg" viewBox="0 0 124.44 163.16"><defs><style>.cls-1{fill:#486afb;}.cls-2{fill:#fd46fc;}</style></defs><path class="cls-1" d="M11.39,20.87c0,1.13,0,2.25,0,3.37s.06,2.25,0,3.36-.49,2.25-.63,3.39a28.16,28.16,0,0,0-.1,3.31A53.08,53.08,0,0,1,10.06,41a51.57,51.57,0,0,0-.45,6.68c0,4.52-.4,9-.15,13.54S10,70.41,10.25,75s.52,9.25.53,13.9-.07,9.34-.09,14c0,9.31,0,18.62-.23,27.92,0,2.34-.12,4.69-.22,7s.18,4.52.24,6.79c.11,4.44-.36,8.95.18,13.37a18.74,18.74,0,0,0,.7,3.12c.23.76,1.38.31,1.29-.41a96.19,96.19,0,0,1-.41-13.26c0-2.24-.12-4.46-.25-6.7s.06-4.61.11-6.91c.2-9.25,0-18.51-.08-27.77s.25-18.51-.31-27.74c-.28-4.58-.35-9.17-.64-13.75-.15-2.31-.31-4.61-.29-6.92s.24-4.47.34-6.71,0-4.47.17-6.7.55-4.44.73-6.67-.09-4.45.14-6.66c.11-1.09.34-2.17.42-3.27s0-2.24,0-3.36,0-2.25,0-3.37c0-.76-1.18-.86-1.18-.1Z"/><path class="cls-1" d="M12.87,163.06a42,42,0,0,0,5.26,0c1.75,0,3.49.14,5.24,0s3.6-.32,5.41-.4,3.53-.19,5.29-.38c3.56-.37,7.15-.05,10.72-.19s7.06-.22,10.6-.27,7.19-.11,10.78-.36,7.29-.42,10.94-.48c7.16-.11,14.34-.08,21.51,0,2,0,4,.13,6,.25s4,.12,6,.22c4,.2,8.09.84,12.11.45a.76.76,0,0,0,0-1.5c-7.2-.42-14.41-.8-21.61-1-3.5-.1-7,0-10.49,0s-7.25,0-10.88.07c-7.18.09-14.32.78-21.49.93-3.62.07-7.24.07-10.85.2-1.79.06-3.58.15-5.37.15s-3.55,0-5.33,0-3.82.33-5.74.45-4.07.15-6.1.35a57.33,57.33,0,0,1-5.86.16,57.19,57.19,0,0,1-6,0,.6.6,0,0,0-.11,1.2Z"/><path class="cls-1" d="M120,19.92a38.93,38.93,0,0,0-.3,6.74,9,9,0,0,0,.2,1.37,4.53,4.53,0,0,1,0,1.72c-.21,1.11-.29,2.24-.39,3.37a138.06,138.06,0,0,0-.43,14.09c0,2.33,0,4.64,0,7s.14,4.53.24,6.8.06,4.63.22,6.93.32,4.69.39,7c.14,4.64.08,9.28.08,13.92,0,2.34,0,4.67.06,7a50.87,50.87,0,0,1-.16,6.76c-.13,1.1-.32,2.2-.43,3.3a34,34,0,0,0-.1,3.5c0,2.29-.11,4.59-.23,6.88-.24,4.64-.14,9.29-.14,13.93,0,9.4.25,18.8.68,28.19,0,1.16.11,2.32.19,3.49,0,.71,1.17.62,1.22-.06a123.21,123.21,0,0,0-.12-14c-.18-4.71-.26-9.42-.27-14.13s0-9.34,0-14c0-2.28.15-4.56.24-6.84s-.09-4.65.13-7,.57-4.42.6-6.67-.08-4.53-.08-6.79c0-4.69,0-9.38,0-14.08,0-2.29-.1-4.57-.23-6.86s-.37-4.68-.43-7-.21-4.55-.33-6.83,0-4.66,0-7c0-4.67-.09-9.37.17-14a55.51,55.51,0,0,1,.57-6.82,5.55,5.55,0,0,0,.13-1.46c0-.5-.18-1-.24-1.49a23.65,23.65,0,0,1,0-3.47c0-1.14.15-2.28.31-3.41.13-.92-1.3-1-1.43-.11Z"/><path class="cls-1" d="M12.88,21.43c14.49,0,29,.09,43.47.1s28.81.09,43.22.19c4.08,0,8.16,0,12.24,0s8.14.08,12.17-.26c.64-.06.59-1.07,0-1.12-3.63-.31-7.33-.25-11-.26s-7.17,0-10.75,0c-7.21,0-14.42.09-21.63.12q-21.61.09-43.25.13c-8.12,0-16.24.07-24.37.06-.64,0-.75,1-.09,1Z"/><path class="cls-2" d="M17.77,132.79c.2-.2.41-.41.61-.63l.32-.34a1.15,1.15,0,0,0,.14-.17l.07-.08a.43.43,0,0,1,0-.07.11.11,0,0,0,0-.05s0,0,0,0a.17.17,0,0,0-.13-.24.19.19,0,0,0-.23.16v0a.17.17,0,0,0,.21.18h0l-.11-.35-.05,0-.07,0-.07.08-.17.18-.08.08s0,0,0,0l0,0,0,0-.16.17c-.19.21-.4.41-.6.62a.23.23,0,0,0,0,.33.25.25,0,0,0,.33,0Z"/><path class="cls-2" d="M18.7,131.9a3.08,3.08,0,0,0,.46.76,1.85,1.85,0,0,0,.39.3c.17.1.41.22.6.1a.23.23,0,0,0,.13-.18.22.22,0,0,0-.1-.19h0s0,0,0,0l-.09,0-.09,0,0,0s-.07,0,0,0l-.08-.05-.17-.12,0,0h0l-.07-.07-.12-.15,0,0h0a.35.35,0,0,0-.05-.08l-.17-.35a.26.26,0,0,0-.35-.13.27.27,0,0,0-.14.35Z"/><path class="cls-2" d="M19.06,131.38a2.91,2.91,0,0,0,0-.66c0-.22,0-.43,0-.65l-.06-.59a.82.82,0,0,0-.22-.52c-.08-.07-.2,0-.24.08a.42.42,0,0,0,0,.25c0,.08,0,.17,0,.26s0,.38,0,.57,0,.4,0,.6a3.22,3.22,0,0,1,0,.62c0,.13.11.27.24.28a.27.27,0,0,0,.28-.24Z"/><path class="cls-2" d="M17.46,130.14c.17.11.31.25.47.37a1.24,1.24,0,0,0,.23.17l.18.1a.58.58,0,0,0,.19,0,.22.22,0,0,0,.21-.12.2.2,0,0,0,0-.22.53.53,0,0,0-.13-.13l-.12-.09a2,2,0,0,1-.23-.18c-.16-.12-.3-.26-.46-.37a.27.27,0,0,0-.31.44Z"/><path class="cls-2" d="M19.37,130.62l.49-.33a1.88,1.88,0,0,0,.23-.16l.14-.14,0,0a.29.29,0,0,0,0-.2.2.2,0,0,0-.19-.18.28.28,0,0,0-.2.05l-.07,0,.06,0-.45.31-.42.28a.27.27,0,0,0-.1.18.33.33,0,0,0,.06.19.32.32,0,0,0,.18.1.29.29,0,0,0,.2-.07Z"/><path class="cls-2" d="M18.28,127.76a.9.9,0,0,0-.3.89.77.77,0,0,0,.66.66,1,1,0,0,0,.84-.34.72.72,0,0,0,.17-.93.91.91,0,0,0-.51-.29,1.3,1.3,0,0,0-.65,0,.16.16,0,0,0-.12.14.13.13,0,0,0,.09.15l.26,0,.19,0,.17.05.09,0,0,0,0,0,0,0s0,0,0,0l0,0s0,0,0,0,0,0,0,0,0,0,0,0v0s0,0,0,0v0s0,0,0,0a.2.2,0,0,1,0,.08s0,0,0,0l-.07.09,0,0h0l-.06,0-.07.06,0,0h0l-.15.07h0c-.05,0,0,0,0,0l-.08,0H18.6l-.1,0s0,0,0,0l0,0s0,0,0,0a.46.46,0,0,1-.09-.15.6.6,0,0,1,0-.38.35.35,0,0,1,.05-.13.61.61,0,0,1,.12-.16.17.17,0,0,0,0-.21.15.15,0,0,0-.21,0Z"/><path class="cls-2" d="M18.78,110.49v.06a.18.18,0,0,0,.25.13,3,3,0,0,0,.57-.5c.22-.19.44-.4.65-.6s.41-.36.6-.56a1.09,1.09,0,0,0,.43-.66.15.15,0,0,0-.25-.13c-.18.14-.35.32-.52.48s-.4.36-.59.55-.39.38-.58.58l-.28.3c-.07.08-.14.17-.22.25l.27.06,0,0a.17.17,0,0,0-.32.09Z"/><path class="cls-2" d="M20.79,109.1c.11.32.21.63.33.94a2.29,2.29,0,0,0,.51.88.21.21,0,0,0,.34-.22c-.1-.31-.25-.6-.37-.9s-.22-.61-.33-.92a.26.26,0,0,0-.35-.13.27.27,0,0,0-.13.35Z"/><path class="cls-2" d="M20.56,106.19c0,.42.05.83.08,1.25a4.33,4.33,0,0,0,.17,1.19.17.17,0,0,0,.31-.06c0-.82-.06-1.63-.12-2.46a.23.23,0,0,0-.26-.17.23.23,0,0,0-.18.25Z"/><path class="cls-2" d="M20.41,107.07h-.07l-.11,0L20,107l-.1,0,0,0,0,0h0l0,0-.1-.06c-.27-.17-.49-.4-.76-.55a.21.21,0,0,0-.24,0,.2.2,0,0,0-.06.24,1.37,1.37,0,0,0,.34.42,2.41,2.41,0,0,0,.44.33,2.54,2.54,0,0,0,1,.36.27.27,0,0,0,.29-.24.28.28,0,0,0-.24-.29Z"/><path class="cls-2" d="M21,107.6c.33-.19.67-.37,1-.58a2.66,2.66,0,0,0,.85-.75c.07-.12-.05-.29-.18-.21-.32.16-.62.37-.93.55s-.64.35-.95.54a.26.26,0,0,0-.13.33.25.25,0,0,0,.34.12Z"/><path class="cls-2" d="M20.09,104.8a1.35,1.35,0,0,0-.17.78.55.55,0,0,0,.31.37.79.79,0,0,0,.48,0,1.49,1.49,0,0,0,.45-.19,1.17,1.17,0,0,0,.37-.33.71.71,0,0,0,.12-.51.66.66,0,0,0-.35-.43,1.16,1.16,0,0,0-.68-.13,1.2,1.2,0,0,0-.62.3.16.16,0,0,0,.16.26l.22-.1a.86.86,0,0,1,.21-.07h.28a.35.35,0,0,1,.11,0l.06,0h0l.08.06s.05,0,0,0l0,0v0s0,0,0,0,0,0,0,0,0,0,0,0v0s0,0,0,0v0s0,0,0,0a0,0,0,0,1,0,0,.05.05,0,0,1,0,0s0,0,0,0v0l-.05.07,0,0h0s0,0,0,0l-.12.12-.14.1c.05,0,0,0,0,0l0,0-.1,0-.09,0s-.05,0,0,0h-.05l-.07,0h-.16l0,0-.05,0h0l0,0s0,0,0,0,0,0,0-.05,0,0,0,0v0a.49.49,0,0,1,0-.17,2.24,2.24,0,0,1,.1-.37c0-.1-.11-.15-.15,0Z"/><path class="cls-2" d="M39.53,147.68c.27-.48.52-1,.82-1.45.15-.23.3-.45.47-.67a2,2,0,0,0,.44-.7c0-.12-.1-.24-.2-.14a6.09,6.09,0,0,0-.54.6,5.43,5.43,0,0,0-.48.7c-.29.48-.54,1-.81,1.46-.11.2.18.41.3.2Z"/><path class="cls-2" d="M40.81,145.17c.15.44.3.88.47,1.31a4.8,4.8,0,0,0,.64,1.23c.15.18.41,0,.34-.21-.16-.43-.36-.84-.53-1.26s-.32-.85-.47-1.28a.25.25,0,1,0-.45.21Z"/><path class="cls-2" d="M40.77,142.77c.06.45.12.91.14,1.38,0,.22,0,.45,0,.68a4.85,4.85,0,0,0,0,.66.18.18,0,0,0,.33.07,1.48,1.48,0,0,0,.15-.69c0-.24,0-.48,0-.72a14,14,0,0,0-.19-1.45.2.2,0,0,0-.39.07Z"/><path class="cls-2" d="M40.93,144.13l-.14-.11s0,0,0,0l0,0-.06-.06-.27-.3a2.35,2.35,0,0,0-.26-.29c-.1-.09-.21-.17-.31-.27s-.27,0-.23.15a1.25,1.25,0,0,0,.2.4.22.22,0,0,1,.05.08s0,.05,0,0l0,0,.13.22a2.07,2.07,0,0,0,.58.6.28.28,0,0,0,.37-.07.27.27,0,0,0-.07-.37Z"/><path class="cls-2" d="M41.27,144.51l.55-.48a3,3,0,0,0,.51-.55.18.18,0,0,0-.22-.27,2.39,2.39,0,0,0-.63.42l-.54.48a.26.26,0,1,0,.33.4Z"/><path class="cls-2" d="M40.12,141.6a1.55,1.55,0,0,0,0,.71.63.63,0,0,0,.74.33,1.12,1.12,0,0,0,.8-.6.67.67,0,0,0,.07-.48.6.6,0,0,0-.37-.36,1.5,1.5,0,0,0-.63-.07l-.29,0-.28.07a.18.18,0,0,0,0,.35,2.46,2.46,0,0,0,.47,0h.4s.07,0,0,0h0l.1,0s.05,0,0,0l0,0,0,0s0,0,0,0l0,0s0,0,0,0l0,0s0-.06,0,0a.06.06,0,0,0,0,0s0,0,0,0v.05s0,0,0,0a.43.43,0,0,0,0,0,.25.25,0,0,1,0,.07s0,0,0,0l0,0,0,.07,0,0h0a.58.58,0,0,1-.14.13s0,0,0,0l0,0-.1,0h0l0,0h-.14s0,0,0,0h-.1s0,0,0,0,0,0,0,0l0,0h0v0l0,0,0,0,0-.06s0,0,0,0v0a.17.17,0,0,1,0-.07v-.22s0-.11,0-.16a.16.16,0,0,0-.15-.17.16.16,0,0,0-.17.14Z"/><path class="cls-2" d="M47.37,102.81c-.31.48-.61,1-.91,1.44-.14.23-.28.46-.43.69s-.4.59-.1.75a.21.21,0,0,0,.24,0c.09-.07.1-.19.17-.29s.13-.21.2-.32.26-.43.38-.65l.81-1.35c.15-.24-.21-.49-.36-.25Z"/><path class="cls-2" d="M47.28,103.19c.2.55.44,1.08.68,1.61l.37.79a2.81,2.81,0,0,0,.36.6.15.15,0,0,0,.24,0,.84.84,0,0,0-.08-.72c-.11-.27-.25-.54-.37-.8-.26-.56-.51-1.12-.73-1.69-.12-.31-.59-.09-.47.22Z"/><path class="cls-2" d="M47.09,99.21c0,.7.07,1.41.1,2.12a7,7,0,0,0,.21,2,.21.21,0,0,0,.39-.07c0-.69-.07-1.38-.1-2.07s-.07-1.41-.11-2.12c0-.32-.5-.22-.49.09Z"/><path class="cls-2" d="M45.89,100a6,6,0,0,0,.7.95c.12.14.24.26.37.39l.17.17a1.12,1.12,0,0,0,.18.2c.1.09.26,0,.27-.13a.7.7,0,0,0-.22-.51l-.39-.38a8.16,8.16,0,0,1-.74-.91.2.2,0,0,0-.34.22Z"/><path class="cls-2" d="M47.79,101.38a10.41,10.41,0,0,1,.81-.68,7.68,7.68,0,0,0,.82-.69.17.17,0,0,0,0-.22.16.16,0,0,0-.22-.06,7.07,7.07,0,0,0-1,.56c-.29.22-.56.45-.83.68a.28.28,0,0,0,0,.38.27.27,0,0,0,.37,0Z"/><path class="cls-2" d="M46.55,98.07a1.28,1.28,0,0,0,.05.7.71.71,0,0,0,.77.35,1.1,1.1,0,0,0,.75-.5.67.67,0,0,0,.11-.58.58.58,0,0,0-.36-.34,1.26,1.26,0,0,0-.61-.06,1.4,1.4,0,0,0-.28.06,2.22,2.22,0,0,0-.3.11.19.19,0,0,0,0,.35.8.8,0,0,0,.27,0,1.38,1.38,0,0,0,.2,0l.2,0h.24s0,0,0,0l.07,0,.07,0s0,0,0,0h0l0,0s0,0,0,0v0s0,0,0,0,0,0,0,0,0,0,0,0l0,.09h0l0,0,0,.06s0,0,0,.06h0l0,0-.06,0,0,0h0a.77.77,0,0,1-.16.07h-.11s.05,0,0,0h-.07s-.06,0,0,0l-.07,0h0s0,0,0,0l0,0h0s0,0,0,0l0,0s0,0,0,0l0,0,0-.07s0,.05,0,0v0s0,0,0-.07v-.12s0,0,0,0a.81.81,0,0,1,0-.16.18.18,0,0,0-.16-.19.18.18,0,0,0-.19.16Z"/><path class="cls-2" d="M103.49,99.88l.61-.63.32-.34.15-.17.06-.09a.16.16,0,0,0,0-.07.07.07,0,0,0,0,0s0,0,0,0a.2.2,0,0,0-.14-.25.2.2,0,0,0-.23.17h0a.18.18,0,0,0,.21.19h0l-.11-.36-.05,0-.07,0-.07.07-.17.19-.07.08h0l0,0-.15.16-.61.62a.23.23,0,1,0,.3.36Z"/><path class="cls-2" d="M104.43,99a2.45,2.45,0,0,0,.46.76,1.91,1.91,0,0,0,.38.31c.17.1.41.22.6.1A.24.24,0,0,0,106,100a.22.22,0,0,0-.09-.2h0s0,0,0,0l-.09,0-.09,0,0,0s-.07,0,0,0l-.08,0-.17-.11,0,0s0,0,0,0l-.07-.07a.76.76,0,0,1-.11-.14l0,0s0,.06,0,0a.59.59,0,0,1,0-.08,3.84,3.84,0,0,1-.18-.35.27.27,0,0,0-.35-.13.26.26,0,0,0-.13.35Z"/><path class="cls-2" d="M104.78,98.46a2.91,2.91,0,0,0,0-.66c0-.21,0-.43,0-.64s0-.4-.06-.59a.73.73,0,0,0-.22-.52c-.08-.08-.2,0-.24.08a.49.49,0,0,0,0,.24,2.46,2.46,0,0,1,0,.26c0,.19,0,.38,0,.57s0,.4,0,.6a3.2,3.2,0,0,1,0,.62.26.26,0,1,0,.52,0Z"/><path class="cls-2" d="M103.19,97.22c.16.12.31.25.46.38a2.07,2.07,0,0,0,.24.17l.17.09a.46.46,0,0,0,.19,0,.26.26,0,0,0,.21-.12.2.2,0,0,0,0-.23.8.8,0,0,0-.13-.13l-.12-.08-.23-.19-.46-.37a.28.28,0,0,0-.37.07.26.26,0,0,0,.07.37Z"/><path class="cls-2" d="M105.09,97.71l.5-.33.22-.17a.86.86,0,0,0,.14-.13l0,0a.28.28,0,0,0,0-.2.22.22,0,0,0-.2-.18.28.28,0,0,0-.2.06l-.06,0,.06,0c-.16.1-.3.21-.45.31l-.43.28a.32.32,0,0,0-.1.19.33.33,0,0,0,.06.19.26.26,0,0,0,.18.09.34.34,0,0,0,.2-.06Z"/><path class="cls-2" d="M104,94.84a1.3,1.3,0,0,0-.27.39,1.1,1.1,0,0,0,0,.51.79.79,0,0,0,.66.65,1,1,0,0,0,.84-.33.72.72,0,0,0,.17-.93.8.8,0,0,0-.51-.29,1.3,1.3,0,0,0-.65,0,.16.16,0,0,0-.12.13.13.13,0,0,0,.1.15l.25,0,.2,0,.16,0,.1,0h0l0,0,0,0s0,0,0,0l0,0h0l0,0s0,0,0,0v0h0a.09.09,0,0,0,0,.05s0-.05,0,0l0,.08s0,0,0,0l-.06.08,0,0s0,0,0,0l-.06.06-.06,0,0,0,0,0h0a.61.61,0,0,1-.14.07h0s.05,0,0,0l-.08,0h-.16l-.1,0,0,0,0,0s0,0,0,0a.33.33,0,0,1-.1-.14.7.7,0,0,1,0-.38.58.58,0,0,1,0-.14.57.57,0,0,1,.12-.15.17.17,0,0,0,0-.21.15.15,0,0,0-.21,0Z"/><path class="cls-2" d="M19.57,153.91V154a.16.16,0,0,0,.24.12,2.48,2.48,0,0,0,.58-.49l.65-.6c.2-.19.41-.36.6-.56s.42-.39.43-.67a.15.15,0,0,0-.25-.13c-.19.15-.35.33-.52.49s-.4.36-.59.55l-.58.58c-.09.09-.19.19-.28.3a2.5,2.5,0,0,1-.22.24l.27.06,0-.05a.17.17,0,0,0-.32.1Z"/><path class="cls-2" d="M21.58,152.52c.11.31.21.63.33.94a2.36,2.36,0,0,0,.51.88.21.21,0,0,0,.34-.22c-.1-.31-.25-.6-.37-.9s-.22-.62-.33-.92a.26.26,0,0,0-.35-.13.27.27,0,0,0-.13.35Z"/><path class="cls-2" d="M21.35,149.61c0,.41,0,.83.08,1.25a4.39,4.39,0,0,0,.17,1.19.17.17,0,0,0,.31-.06c0-.82-.06-1.64-.12-2.46a.23.23,0,0,0-.26-.18.23.23,0,0,0-.18.26Z"/><path class="cls-2" d="M21.2,150.49s0,0,0,0h-.05l-.11,0-.21-.07-.09,0,0,0s-.06,0,0,0l0,0,0,0-.1-.06c-.27-.17-.49-.41-.77-.55a.2.2,0,0,0-.23,0,.2.2,0,0,0-.06.24,1.5,1.5,0,0,0,.34.42,2.73,2.73,0,0,0,.43.33,2.77,2.77,0,0,0,1,.36.27.27,0,1,0,.05-.53Z"/><path class="cls-2" d="M21.82,151l1-.58a2.66,2.66,0,0,0,.85-.75c.07-.12-.05-.29-.19-.22-.31.17-.61.38-.92.55l-.95.54a.26.26,0,0,0-.13.34.25.25,0,0,0,.34.12Z"/><path class="cls-2" d="M20.88,148.21a1.29,1.29,0,0,0-.17.79.51.51,0,0,0,.31.36.72.72,0,0,0,.48,0,1.49,1.49,0,0,0,.45-.19,1.09,1.09,0,0,0,.37-.34.6.6,0,0,0-.23-.93,1.17,1.17,0,0,0-.69-.13,1.14,1.14,0,0,0-.61.3.15.15,0,0,0,.16.25l.22-.09a.6.6,0,0,1,.2-.07.45.45,0,0,1,.2,0h.09l.11,0,.06,0h0l.08.05s.05,0,0,0l0,0h0s0,0,0,0,0,0,0,.05,0-.05,0,0v0s0-.05,0,0v0c0,.05,0,0,0,0s0,0,0,0a.08.08,0,0,1,0,0s0,0,0,0l0,0a.43.43,0,0,0,0,.07l0,0v0s0,0,0,0l-.12.11-.14.1c.05,0,0,0,0,0l0,0-.1.05-.09,0s-.06,0,0,0l-.05,0h-.22s0,0,0,0l0,0L21,149s0,0,0,0l0,0s0,0,0,0l0,0v-.07a1.08,1.08,0,0,1,0-.18,2.47,2.47,0,0,1,.11-.36c0-.1-.11-.15-.15-.06Z"/><path class="cls-2" d="M76.3,90.55c.27-.48.52-1,.82-1.45.15-.23.3-.45.47-.67a2.07,2.07,0,0,0,.44-.7c0-.12-.1-.24-.2-.14a5.13,5.13,0,0,0-.54.6,5.43,5.43,0,0,0-.48.7c-.29.48-.54,1-.81,1.46-.11.2.18.4.3.2Z"/><path class="cls-2" d="M77.58,88c.15.44.3.87.47,1.31a4.8,4.8,0,0,0,.64,1.23c.15.18.41,0,.34-.21-.16-.43-.36-.84-.53-1.26s-.32-.85-.47-1.28a.26.26,0,0,0-.33-.12.26.26,0,0,0-.12.33Z"/><path class="cls-2" d="M77.54,85.63c.06.46.12.92.14,1.39,0,.22,0,.45,0,.68a4.85,4.85,0,0,0,0,.66.18.18,0,0,0,.33.07,1.49,1.49,0,0,0,.15-.7c0-.23,0-.47,0-.71a14.58,14.58,0,0,0-.19-1.46.2.2,0,0,0-.39.07Z"/><path class="cls-2" d="M77.7,87l-.14-.11h0s0,0,0,0l-.06-.06-.27-.3a2.35,2.35,0,0,0-.26-.29l-.31-.27c-.09-.08-.27,0-.23.15a1.25,1.25,0,0,0,.2.4.22.22,0,0,1,.05.08s0,.05,0,0,0,0,0,0,.1.14.14.21a2.24,2.24,0,0,0,.58.61.28.28,0,0,0,.37-.07A.27.27,0,0,0,77.7,87Z"/><path class="cls-2" d="M78,87.38l.55-.48a3.33,3.33,0,0,0,.51-.55.18.18,0,0,0-.22-.27,2.39,2.39,0,0,0-.63.42l-.54.48a.26.26,0,1,0,.33.4Z"/><path class="cls-2" d="M76.89,84.47a1.55,1.55,0,0,0,0,.71.63.63,0,0,0,.74.33,1.12,1.12,0,0,0,.8-.6.67.67,0,0,0,.07-.48.6.6,0,0,0-.37-.36,1.5,1.5,0,0,0-.63-.07,2.85,2.85,0,0,0-.29,0L77,84.1a.18.18,0,0,0,0,.35,2.46,2.46,0,0,0,.47,0h.4s.07,0,0,0h0l.1,0s.05,0,0,0l0,0,0,0s0,0,0,0l0,0s0,0,0,0l0,0s0-.06,0,0,0,0,0,0,0,0,0,0v0s0,0,0,0a.43.43,0,0,1,0,.05.2.2,0,0,1,0,.08h0l0,0a.35.35,0,0,1,0,.08l0,0s0,0,0,0a.53.53,0,0,1-.14.12h0l0,0-.1,0s0,0,0,0h0l-.09,0h-.15s0,0,0,0,0,0,0,0l0,0,0,0s0,0,0,0v0l0,0s0,0,0,0l0-.06s0,0,0,0v0a.22.22,0,0,1,0-.08v-.21s0-.11,0-.16a.16.16,0,0,0-.15-.17.16.16,0,0,0-.17.14Z"/><path class="cls-2" d="M54.36,41.47c-.31.48-.61,1-.91,1.44-.14.23-.28.46-.43.69s-.4.59-.1.75a.21.21,0,0,0,.24,0c.1-.07.11-.19.17-.29s.14-.21.2-.32.26-.43.39-.65c.26-.45.53-.9.8-1.35.15-.24-.2-.49-.36-.25Z"/><path class="cls-2" d="M54.27,41.85c.21.55.44,1.08.68,1.61.13.26.25.53.38.79a2.51,2.51,0,0,0,.36.61.15.15,0,0,0,.23,0,.8.8,0,0,0-.07-.72c-.12-.27-.26-.54-.38-.8-.26-.56-.51-1.12-.73-1.69-.11-.31-.59-.09-.47.22Z"/><path class="cls-2" d="M54.09,37.87c0,.7.07,1.41.09,2.12a7.41,7.41,0,0,0,.21,2,.21.21,0,0,0,.39-.07c0-.69-.06-1.38-.09-2.07l-.12-2.12c0-.32-.5-.22-.48.09Z"/><path class="cls-2" d="M52.88,38.7a6.65,6.65,0,0,0,.7.95c.12.14.25.26.37.39a1.37,1.37,0,0,1,.17.17,1.71,1.71,0,0,0,.18.2c.1.09.26,0,.27-.13a.7.7,0,0,0-.22-.51L54,39.39a7.17,7.17,0,0,1-.74-.91.21.21,0,0,0-.27,0,.22.22,0,0,0-.08.26Z"/><path class="cls-2" d="M54.78,40c.27-.23.53-.47.81-.68a7.68,7.68,0,0,0,.82-.69.17.17,0,0,0,0-.22.16.16,0,0,0-.22-.06,7.74,7.74,0,0,0-1,.56c-.29.22-.56.45-.82.68a.27.27,0,0,0,0,.38.27.27,0,0,0,.37,0Z"/><path class="cls-2" d="M53.54,36.73a1.28,1.28,0,0,0,.06.7.7.7,0,0,0,.77.35,1.09,1.09,0,0,0,.75-.5.7.7,0,0,0,.1-.58.55.55,0,0,0-.36-.34,1.39,1.39,0,0,0-.61-.06l-.27.06a2.33,2.33,0,0,0-.31.11.19.19,0,0,0,0,.35.76.76,0,0,0,.26,0l.21,0,.2,0h.24l.08,0,.06,0s-.05,0,0,0h0l0,0s0,0,0,0v0s0,0,0,0,0,0,0,0,0,0,0,0a1,1,0,0,0,0,.1s0,0,0,0l0,0,0,.06s0,0,0,.06,0,0,0,0l0,0-.07,0,0,0h0a.69.69,0,0,1-.15.07h-.2s-.06,0,0,0l-.06,0h0s0,0,0,0l0,0s0,0,0,0,0,0,0,0,0,0,0,0,0,0,0,0l0,0s0,0,0-.07,0,.05,0,0v0a.17.17,0,0,1,0-.07.22.22,0,0,1,0-.08v0h0v-.16a.18.18,0,0,0-.16-.19.2.2,0,0,0-.19.16Z"/><path class="cls-2" d="M110.55,47.77c.2-.21.41-.41.61-.63l.32-.34.15-.17.06-.08,0-.07a.11.11,0,0,0,0,0s0,0,0,0a.17.17,0,0,0-.13-.24.19.19,0,0,0-.23.16v0a.17.17,0,0,0,.21.18h0l-.11-.35,0,0-.07,0-.07.08-.17.18-.07.08h0l0,0,0,0-.15.17-.61.61a.23.23,0,1,0,.3.36Z"/><path class="cls-2" d="M111.48,46.88a3.28,3.28,0,0,0,.46.76,1.85,1.85,0,0,0,.39.3c.17.1.41.22.6.1a.22.22,0,0,0,0-.38s0,0,0,0l0,0-.09,0-.09,0,0,0s-.07,0,0,0-.06,0-.08,0l-.17-.12,0,0c-.05,0,0,0,0,0l-.07-.07-.11-.15,0,0h0a.59.59,0,0,0,0-.08c-.07-.12-.12-.24-.18-.36a.26.26,0,0,0-.35-.12.27.27,0,0,0-.14.35Z"/><path class="cls-2" d="M111.84,46.36a2.91,2.91,0,0,0,0-.66c0-.22,0-.43,0-.65l-.06-.59a.82.82,0,0,0-.22-.52c-.08-.07-.2,0-.24.08a.42.42,0,0,0,0,.25c0,.08,0,.17,0,.26s0,.38,0,.57,0,.4,0,.6a3.11,3.11,0,0,1,0,.61.28.28,0,0,0,.24.29.27.27,0,0,0,.28-.24Z"/><path class="cls-2" d="M110.24,45.12c.17.11.31.25.47.37l.23.17.18.1a.58.58,0,0,0,.19,0,.21.21,0,0,0,.18-.35.74.74,0,0,0-.13-.12l-.12-.09a2,2,0,0,1-.23-.18,5.32,5.32,0,0,0-.46-.37.27.27,0,0,0-.31.44Z"/><path class="cls-2" d="M112.15,45.6l.5-.33.22-.16L113,45s0,0,0,0a.36.36,0,0,0,0-.2.24.24,0,0,0-.2-.19.34.34,0,0,0-.2.06l-.06,0,.05,0-.44.31-.43.28a.32.32,0,0,0-.1.18.33.33,0,0,0,.06.19.32.32,0,0,0,.18.1.35.35,0,0,0,.2-.07Z"/><path class="cls-2" d="M111.06,42.74a1.19,1.19,0,0,0-.27.39,1.06,1.06,0,0,0,0,.5.8.8,0,0,0,.66.66,1,1,0,0,0,.84-.34.72.72,0,0,0,.17-.93.91.91,0,0,0-.51-.29,1.3,1.3,0,0,0-.65,0,.16.16,0,0,0-.12.14.13.13,0,0,0,.09.15l.26,0,.19,0,.17.05.09,0s.06,0,0,0l0,0,0,0s0,0,0,0l0,0s0,0,0,0l0,0s0,0,0,0v0s0,0,0,0v0s0,0,0,0l0,.08s0,0,0,0l-.07.09,0,0s0,0,0,0l-.06,0-.06.06h0l0,0s0,0,0,0l-.14.07h0s.05,0,0,0l-.08,0h-.16l-.1,0s0,0,0,0l0,0s0,0,0,0a.46.46,0,0,1-.09-.15.6.6,0,0,1,0-.38.35.35,0,0,1,0-.13.61.61,0,0,1,.12-.16.17.17,0,0,0,0-.21.15.15,0,0,0-.21,0Z"/><path class="cls-2" d="M18.78,35.61v0a.18.18,0,0,0,.25.13,3,3,0,0,0,.57-.49l.65-.6c.2-.19.41-.37.6-.56s.42-.4.43-.67a.15.15,0,0,0-.25-.13c-.18.15-.35.33-.52.48l-.59.55-.58.58-.28.3a1.79,1.79,0,0,1-.22.25l.27.06,0-.05a.17.17,0,0,0-.32.1Z"/><path class="cls-2" d="M20.79,34.22c.11.31.21.63.33.93a2.29,2.29,0,0,0,.51.88.2.2,0,0,0,.34-.21c-.1-.31-.25-.6-.37-.9s-.22-.62-.33-.93a.26.26,0,0,0-.35-.12.26.26,0,0,0-.13.35Z"/><path class="cls-2" d="M20.56,31.31c0,.41.05.83.08,1.24a4.28,4.28,0,0,0,.17,1.19.17.17,0,0,0,.31-.05c0-.83-.06-1.64-.12-2.46a.23.23,0,0,0-.26-.18.24.24,0,0,0-.18.26Z"/><path class="cls-2" d="M20.41,32.19h-.07l-.11,0-.2-.07-.1,0,0,0,0,0s0,0,0,0l0,0-.1-.06c-.27-.17-.49-.41-.76-.55a.19.19,0,0,0-.24,0,.19.19,0,0,0-.06.23A1.26,1.26,0,0,0,19,32a2.46,2.46,0,0,0,.44.34,2.93,2.93,0,0,0,1,.36.27.27,0,1,0,.05-.53Z"/><path class="cls-2" d="M21,32.72c.33-.2.67-.38,1-.59a2.63,2.63,0,0,0,.85-.74c.07-.12-.05-.29-.18-.22-.32.16-.62.37-.93.55s-.64.35-.95.54a.26.26,0,0,0-.13.34.26.26,0,0,0,.34.12Z"/><path class="cls-2" d="M20.09,29.91a1.37,1.37,0,0,0-.17.79.56.56,0,0,0,.31.36.79.79,0,0,0,.48,0,1.79,1.79,0,0,0,.45-.19,1.2,1.2,0,0,0,.37-.34.7.7,0,0,0,.12-.5.66.66,0,0,0-.35-.43,1.16,1.16,0,0,0-.68-.13,1.13,1.13,0,0,0-.62.3.15.15,0,0,0,.16.25l.22-.1a.83.83,0,0,1,.21-.06.4.4,0,0,1,.19,0h.06s.06,0,0,0l.11,0,.06,0h0l.08.05s.05.05,0,0l0,0h0s0,0,0,0,0,0,0,.05,0-.05,0,0v0c0,.05,0,0,0,0v0s0,0,0,0a.06.06,0,0,1,0,0l0,0s0,0,0,0v0l-.05.06,0,0v0s0,0,0,0l-.12.11-.14.1c.05,0,0,0,0,0l0,0-.1.05-.09,0h-.06l-.07,0h-.15s0,0,0,0h0l-.05,0s0,0,0,0l0,0v0a.08.08,0,0,1,0-.05s0,0,0,0v0a.55.55,0,0,1,0-.18,2.93,2.93,0,0,1,.1-.37c0-.09-.11-.14-.15-.05Z"/><path class="cls-2" d="M98.37,81.35c.27-.48.52-1,.82-1.45a7.37,7.37,0,0,1,.47-.67,2,2,0,0,0,.44-.71c0-.11-.1-.23-.2-.14a5.32,5.32,0,0,0-.55.61,5.7,5.7,0,0,0-.47.7c-.29.47-.54,1-.81,1.46-.11.2.18.4.3.2Z"/><path class="cls-2" d="M99.65,78.84c.15.43.3.87.46,1.3a5.05,5.05,0,0,0,.65,1.24c.15.18.41,0,.33-.21-.15-.43-.35-.84-.52-1.26s-.32-.85-.47-1.28a.25.25,0,0,0-.33-.12.25.25,0,0,0-.12.33Z"/><path class="cls-2" d="M99.6,76.43a10.75,10.75,0,0,1,.14,1.38q0,.34,0,.69c0,.22,0,.44,0,.66a.18.18,0,0,0,.33.07,1.38,1.38,0,0,0,.14-.7c0-.24,0-.48,0-.71a11.92,11.92,0,0,0-.2-1.46c0-.25-.42-.18-.39.07Z"/><path class="cls-2" d="M99.77,77.79a.71.71,0,0,1-.14-.1s0,0,0,0l0,0-.06-.06-.26-.3c-.09-.1-.17-.2-.26-.29l-.31-.27c-.09-.08-.27,0-.23.15a1.11,1.11,0,0,0,.2.39.41.41,0,0,0,0,.09s0,0,0,0,0,0,0,0l.14.21a2.07,2.07,0,0,0,.58.6.26.26,0,0,0,.37-.07.27.27,0,0,0-.07-.37Z"/><path class="cls-2" d="M100.11,78.18l.54-.48a3.36,3.36,0,0,0,.52-.55.18.18,0,0,0-.22-.27,2.1,2.1,0,0,0-.63.42l-.55.48a.26.26,0,0,0,.34.4Z"/><path class="cls-2" d="M99,75.27A1.55,1.55,0,0,0,99,76a.64.64,0,0,0,.75.33,1.17,1.17,0,0,0,.8-.6.68.68,0,0,0,.07-.48.6.6,0,0,0-.37-.36,2.17,2.17,0,0,0-.92,0l-.28.06a.18.18,0,0,0,0,.35,1.85,1.85,0,0,0,.47,0h.4s.07,0,0,0h0l.1,0s0,0,0,0l0,0,0,0s0,0,0,0h0s0,0,0,0v0s0-.05,0,0v0s0,0,0,0v0s0,0,0,0,0,0,0,0a.13.13,0,0,1,0,.08h0l0,0,0,.08,0,0s0,0,0,0a.57.57,0,0,1-.15.12s0,0,0,0l0,0-.09,0s0,0,0,0h0l-.09,0h-.18s0,0,0,0l0,0,0,0s0,0,0,0l0,0v0s0,0,0,0,0,0,0-.07,0,0,0,0v0s0,0,0-.08V75.3a.15.15,0,0,0-.14-.17.16.16,0,0,0-.17.14Z"/><path class="cls-2" d="M19.09,53.3c-.31.47-.61,1-.91,1.44-.14.23-.28.46-.43.68s-.4.59-.1.75a.21.21,0,0,0,.24,0c.09-.08.1-.2.16-.3l.21-.31c.13-.21.26-.43.38-.65.27-.45.53-.91.81-1.36.15-.24-.21-.48-.36-.24Z"/><path class="cls-2" d="M19,53.67c.2.55.44,1.08.68,1.61.12.27.25.53.37.79a2.65,2.65,0,0,0,.36.61.16.16,0,0,0,.24,0,.86.86,0,0,0-.08-.73c-.12-.27-.25-.53-.37-.8-.26-.55-.51-1.11-.73-1.68-.12-.32-.59-.09-.47.21Z"/><path class="cls-2" d="M18.81,49.69c0,.71.07,1.41.1,2.12a6.81,6.81,0,0,0,.21,2.06.21.21,0,0,0,.39-.07c0-.69-.07-1.39-.1-2.08s-.07-1.41-.11-2.12c0-.31-.5-.22-.49.09Z"/><path class="cls-2" d="M17.61,50.53a6.46,6.46,0,0,0,.7.95l.37.38.16.17a2,2,0,0,0,.18.21.18.18,0,0,0,.28-.13.7.7,0,0,0-.23-.52l-.38-.38a7.08,7.08,0,0,1-.74-.9.19.19,0,0,0-.26,0,.2.2,0,0,0-.08.26Z"/><path class="cls-2" d="M19.51,51.86c.26-.23.53-.46.81-.68a7.58,7.58,0,0,0,.82-.68.18.18,0,0,0,0-.23.19.19,0,0,0-.22-.06,6.56,6.56,0,0,0-1,.57,10.7,10.7,0,0,0-.83.68.27.27,0,0,0,0,.37.26.26,0,0,0,.37,0Z"/><path class="cls-2" d="M18.27,48.56a1.28,1.28,0,0,0,.05.7.72.72,0,0,0,.77.35,1.13,1.13,0,0,0,.75-.51.67.67,0,0,0,.11-.58.6.6,0,0,0-.36-.34,1.41,1.41,0,0,0-.61-.06l-.28.06-.3.11a.19.19,0,0,0,0,.35,1.18,1.18,0,0,0,.27,0l.2,0,.2,0h.24l.08,0,.06,0s0,0,0,0h0v0l0,0s0,0,0,0v0c0-.05,0,0,0,0s0,0,0,0,0,0,0,0l0,.1s0,0,0,0l0,0,0,.06s0,0,0,0h0l0,0-.06.06,0,0h0a.46.46,0,0,1-.16.07h-.19s-.07,0,0,0l-.07,0,0,0c.05,0,0,0,0,0l0,0h0s0,0,0,0l0,0s0,0,0,0l0,0,0-.06s0,0,0,0v0a.22.22,0,0,0,0-.08v-.11h0a.92.92,0,0,1,0-.16.18.18,0,0,0-.16-.18.17.17,0,0,0-.19.16Z"/><path class="cls-2" d="M92.78,155.4c.21-.21.41-.41.61-.63l.32-.34.15-.17.06-.09a.16.16,0,0,0,0-.07.06.06,0,0,0,0,0s0,0,0,0a.17.17,0,0,0-.13-.24.19.19,0,0,0-.23.16h0a.18.18,0,0,0,.21.19h0l-.11-.35,0,0-.07,0-.07.08-.17.18-.07.08h0l0,0,0,0-.15.17-.61.61a.23.23,0,1,0,.3.36Z"/><path class="cls-2" d="M93.71,154.51a3,3,0,0,0,.47.76,1.86,1.86,0,0,0,.38.3c.17.1.41.22.6.1a.22.22,0,0,0,0-.38h0s0,0,0,0l-.09,0-.09,0,0,0s-.07,0,0,0l-.08,0-.17-.12,0,0h0l-.07-.07-.11-.15,0,0c0-.05,0,.06,0,0l0-.08c-.07-.12-.12-.24-.18-.36a.28.28,0,0,0-.35-.13.28.28,0,0,0-.14.36Z"/><path class="cls-2" d="M94.07,154a2.91,2.91,0,0,0,0-.66c0-.21,0-.42,0-.64s0-.39-.06-.59a.73.73,0,0,0-.22-.52c-.08-.07-.2,0-.24.08a.49.49,0,0,0,0,.24,2.46,2.46,0,0,1,0,.26c0,.2,0,.39,0,.58s0,.4,0,.6a3.11,3.11,0,0,1,0,.61.27.27,0,0,0,.24.28.26.26,0,0,0,.28-.24Z"/><path class="cls-2" d="M92.48,152.75c.16.11.31.25.46.37a2.07,2.07,0,0,0,.24.17.56.56,0,0,0,.17.09.46.46,0,0,0,.19,0,.22.22,0,0,0,.21-.12.2.2,0,0,0,0-.23.49.49,0,0,0-.13-.12l-.12-.09-.23-.18a5.32,5.32,0,0,0-.46-.37.27.27,0,0,0-.37.07.26.26,0,0,0,.07.37Z"/><path class="cls-2" d="M94.38,153.23l.5-.33.22-.16a1.85,1.85,0,0,0,.14-.14l0,0a.26.26,0,0,0,0-.19.23.23,0,0,0-.2-.19.34.34,0,0,0-.2.06l-.06.05.06,0c-.16.09-.3.2-.45.3l-.43.29a.29.29,0,0,0-.1.18.33.33,0,0,0,.06.19.26.26,0,0,0,.18.09.28.28,0,0,0,.2-.06Z"/><path class="cls-2" d="M93.29,150.36a1.34,1.34,0,0,0-.27.4,1.05,1.05,0,0,0,0,.5.77.77,0,0,0,.66.65,1,1,0,0,0,.84-.33.72.72,0,0,0,.17-.93.91.91,0,0,0-.51-.29,1.3,1.3,0,0,0-.65,0,.17.17,0,0,0-.12.14.14.14,0,0,0,.1.15l.25,0,.2.05.16,0,.1,0s0,0,0,0,0,0,0,0l0,0s0,0,0,0l0,.05h0l0,0s0,0,0,0v0h0a.06.06,0,0,0,0,0s0,0,0,0l0,.08s0,0,0,0l-.06.09,0,0s0,0,0,0l-.06.05-.06.05,0,0,0,0s0,0,0,0l-.14.08h0s0,0,0,0l-.08,0h-.16l-.1,0s0,0,0,0l0,0h0a.34.34,0,0,1-.09-.14.68.68,0,0,1,0-.38.52.52,0,0,1,.17-.29.15.15,0,0,0-.19-.23Z"/><path class="cls-2" d="M18.81,81.79v0a.17.17,0,0,0,.24.13,3,3,0,0,0,.58-.49l.65-.6c.2-.19.41-.37.6-.56s.42-.4.43-.67a.15.15,0,0,0-.25-.13c-.19.15-.35.33-.53.48l-.58.55c-.19.2-.39.39-.58.58l-.28.3a1.79,1.79,0,0,1-.22.25l.27.06,0,0a.17.17,0,0,0-.31.1Z"/><path class="cls-2" d="M20.82,80.4c.11.31.21.63.33.93a2.29,2.29,0,0,0,.51.88A.2.2,0,0,0,22,82c-.1-.31-.25-.6-.37-.91s-.22-.61-.33-.92a.27.27,0,0,0-.48.23Z"/><path class="cls-2" d="M20.59,77.49c0,.41,0,.83.08,1.24a4.28,4.28,0,0,0,.17,1.19.16.16,0,0,0,.3,0A22.39,22.39,0,0,0,21,77.41a.21.21,0,0,0-.25-.18.23.23,0,0,0-.18.26Z"/><path class="cls-2" d="M20.44,78.37s0,0,0,0h-.05l-.11,0-.21-.07-.09,0-.05,0,0,0h0l0,0-.1-.06c-.27-.17-.49-.41-.77-.55a.19.19,0,0,0-.29.24,1.26,1.26,0,0,0,.34.42,2.79,2.79,0,0,0,.43.34,3,3,0,0,0,1,.36.27.27,0,0,0,.05-.53Z"/><path class="cls-2" d="M21.05,78.9c.34-.2.68-.38,1-.59a2.5,2.5,0,0,0,.84-.74.15.15,0,0,0-.18-.22c-.32.16-.61.37-.92.55s-.64.35-.95.54a.26.26,0,0,0-.13.34.25.25,0,0,0,.33.12Z"/><path class="cls-2" d="M20.12,76.09a1.29,1.29,0,0,0-.17.79.53.53,0,0,0,.31.36.79.79,0,0,0,.48,0,1.72,1.72,0,0,0,.44-.19,1.24,1.24,0,0,0,.38-.34.76.76,0,0,0,.12-.51.67.67,0,0,0-.35-.42,1.26,1.26,0,0,0-.69-.14A1.23,1.23,0,0,0,20,76a.15.15,0,0,0,.16.25l.22-.1a.89.89,0,0,1,.2-.06.45.45,0,0,1,.2,0h.09l.11,0,.06,0h0l.08.05s0,0,0,0l0,0h0s0,0,0,0,0,0,0,0,0,0,0,0v0s0,0,0,0v0s0,0,0,0,0,0,0,0l0,0h0l0,0,0,.06,0,0h0s0,0,0,0l-.12.11-.14.1s0,0,0,0l-.05,0-.09,0-.09,0s-.06,0,0,0h-.05l-.08,0h-.14s0,0,0,0h0l-.05,0s0,0,0,0l0,0s0,0,0,0a.08.08,0,0,1,0,0s0,0,0,0v0a.54.54,0,0,1,0-.18,2.26,2.26,0,0,1,.11-.37c0-.09-.11-.14-.15,0Z"/><path class="cls-2" d="M95.75,37c.27-.49.52-1,.82-1.46a7.85,7.85,0,0,1,.47-.66,2.11,2.11,0,0,0,.44-.71.13.13,0,0,0-.2-.14,5.23,5.23,0,0,0-.54.61,5.33,5.33,0,0,0-.48.69c-.29.48-.54,1-.81,1.46-.11.21.18.41.3.21Z"/><path class="cls-2" d="M97,34.44c.15.44.3.88.47,1.31A4.64,4.64,0,0,0,98.14,37c.15.19.41,0,.34-.21-.16-.43-.36-.83-.53-1.26s-.32-.85-.47-1.27a.24.24,0,0,0-.33-.12.25.25,0,0,0-.12.32Z"/><path class="cls-2" d="M97,32c.06.46.12.92.14,1.38,0,.23,0,.46,0,.68a5,5,0,0,0,0,.67.19.19,0,0,0,.33.07,1.55,1.55,0,0,0,.15-.7c0-.24,0-.48,0-.72A14,14,0,0,0,97.38,32,.2.2,0,0,0,97,32Z"/><path class="cls-2" d="M97.15,33.4,97,33.3h0l0,0-.06-.06-.27-.3a2.35,2.35,0,0,0-.26-.29c-.1-.1-.21-.18-.31-.27s-.27,0-.23.15a1.2,1.2,0,0,0,.2.39l0,.08,0,0s0,0,0,0,.09.15.13.22a2.07,2.07,0,0,0,.58.6.27.27,0,0,0,.3-.44Z"/><path class="cls-2" d="M97.49,33.79l.55-.48a3.39,3.39,0,0,0,.51-.56.18.18,0,0,0-.22-.27,2.66,2.66,0,0,0-.63.42l-.54.48a.27.27,0,0,0,0,.38.27.27,0,0,0,.37,0Z"/><path class="cls-2" d="M96.34,30.88a1.5,1.5,0,0,0,0,.7.62.62,0,0,0,.74.33,1.1,1.1,0,0,0,.8-.6.64.64,0,0,0,.07-.47.62.62,0,0,0-.37-.37A1.5,1.5,0,0,0,97,30.4l-.29,0a2.3,2.3,0,0,0-.28.06.18.18,0,0,0,0,.35,2.46,2.46,0,0,0,.47,0H97s0,0,0,0h.06l.22,0s.07,0,0,0h0l.1,0s0,0,0,0l0,0,0,0h0l0,0s0,0,0,0l0,0s0-.06,0,0a.06.06,0,0,0,0,0s0-.05,0,0v0s0,0,0,0a.43.43,0,0,0,0,0,.25.25,0,0,1,0,.07s0,0,0,0l0,0,0,.07,0,.05s0,0,0,0a.58.58,0,0,1-.14.13h0l0,0-.1,0s0,0,0,0l0,0h-.27s0,0,0,0h0l0,0s0,0,0,0v0h0s0,0,0,0l0-.06s0,0,0,0v0a.17.17,0,0,1,0-.07v-.21c0-.06,0-.11,0-.17a.17.17,0,0,0-.15-.17.16.16,0,0,0-.17.15Z"/><path class="cls-2" d="M19.09,95.6c-.31.48-.61,1-.91,1.44-.14.23-.28.47-.43.69s-.4.59-.1.75a.23.23,0,0,0,.24,0c.09-.08.1-.2.16-.3l.21-.32.38-.64c.27-.46.53-.91.81-1.36.15-.24-.21-.49-.36-.25Z"/><path class="cls-2" d="M19,96c.2.55.44,1.08.68,1.61l.37.79a2.88,2.88,0,0,0,.36.61.16.16,0,0,0,.24,0,.84.84,0,0,0-.08-.72c-.12-.27-.25-.53-.37-.8-.26-.56-.51-1.12-.73-1.69-.12-.31-.59-.09-.47.22Z"/><path class="cls-2" d="M18.81,92c0,.7.07,1.41.1,2.12a6.72,6.72,0,0,0,.21,2,.21.21,0,0,0,.39-.07c0-.69-.07-1.38-.1-2.07s-.07-1.41-.11-2.12c0-.32-.5-.22-.49.09Z"/><path class="cls-2" d="M17.61,92.83a6.54,6.54,0,0,0,.7,1l.37.38.16.17c.07.07.11.14.18.2a.18.18,0,0,0,.28-.13.69.69,0,0,0-.23-.51c-.12-.13-.25-.25-.38-.38a6.53,6.53,0,0,1-.74-.91.2.2,0,0,0-.34.22Z"/><path class="cls-2" d="M19.51,94.17c.26-.23.53-.46.81-.68a9,9,0,0,0,.82-.68.19.19,0,0,0,0-.23.17.17,0,0,0-.22-.06,6.56,6.56,0,0,0-1,.57,10.7,10.7,0,0,0-.83.68.26.26,0,0,0,.34.4Z"/><path class="cls-2" d="M18.27,90.86a1.28,1.28,0,0,0,.05.7.71.71,0,0,0,.77.35,1.09,1.09,0,0,0,.75-.5.67.67,0,0,0,.11-.58.58.58,0,0,0-.36-.34,1.46,1.46,0,0,0-.89,0,2.22,2.22,0,0,0-.3.11.19.19,0,0,0,0,.35.8.8,0,0,0,.27,0,1.38,1.38,0,0,0,.2,0l.2,0h.24l.08,0,.06,0s0,0,0,0h0s0,0,0,0,0,0,0,0v0s0,0,0,0,0,0,0,0,0,0,0,0l0,.1s0,0,0,0l0,0a.21.21,0,0,1,0,.06s0,0,0,.06,0,0,0,0l0,0-.06.06,0,0h0a.46.46,0,0,1-.16.07h-.19s-.07,0,0,0l-.07,0h0c.05,0,0,0,0,0l0,0h0v0l0,0s0,0,0,0l0,0,0-.07s0,0,0,0v0a.17.17,0,0,0,0-.07v-.12h0a.86.86,0,0,1,0-.16.18.18,0,1,0-.35,0Z"/><path class="cls-2" d="M55.08,118.9c.21-.2.41-.41.62-.63s.21-.22.31-.34l.15-.17.06-.08,0-.07s0,0,0,0,0,0,0,0a.19.19,0,0,0-.14-.24.18.18,0,0,0-.22.16v0a.18.18,0,0,0,.21.19h0l-.1-.35-.05,0-.07,0-.08.08-.17.18-.07.08h0v0l0,0-.15.17-.61.62a.23.23,0,1,0,.3.35Z"/><path class="cls-2" d="M56,118a2.81,2.81,0,0,0,.46.76,1.57,1.57,0,0,0,.38.3c.17.1.41.22.6.1a.23.23,0,0,0,.13-.18.21.21,0,0,0-.09-.19h0s0,0,0,0a.25.25,0,0,0-.09,0l-.09,0-.05,0s-.07,0,0,0l-.08,0L57,118.5l0,0s0,0,0,0l-.06-.07a1.58,1.58,0,0,1-.12-.15l0,0s0,0,0,0l0-.08-.18-.35a.26.26,0,0,0-.35-.13A.27.27,0,0,0,56,118Z"/><path class="cls-2" d="M56.38,117.49a3.64,3.64,0,0,0,0-.66c0-.22,0-.43,0-.65s0-.39-.06-.59a.73.73,0,0,0-.22-.52c-.08-.07-.2,0-.23.08a.42.42,0,0,0,0,.25,1.1,1.1,0,0,1,0,.26c0,.19,0,.38,0,.57s0,.4,0,.6a3.21,3.21,0,0,1,0,.62.26.26,0,0,0,.23.28.28.28,0,0,0,.29-.24Z"/><path class="cls-2" d="M54.78,116.25c.16.11.31.25.46.37a1.77,1.77,0,0,0,.24.17l.18.1a.4.4,0,0,0,.19,0,.21.21,0,0,0,.18-.34.44.44,0,0,0-.14-.13l-.11-.08-.24-.19c-.15-.12-.3-.26-.46-.37a.27.27,0,0,0-.37.07.28.28,0,0,0,.07.37Z"/><path class="cls-2" d="M56.68,116.73l.5-.33.23-.16a.86.86,0,0,0,.13-.14s0,0,0,0a.28.28,0,0,0,0-.2.2.2,0,0,0-.2-.18.29.29,0,0,0-.2,0l-.06,0,.06,0-.45.31-.43.28a.26.26,0,0,0-.09.18.21.21,0,0,0,.06.19.29.29,0,0,0,.18.1.28.28,0,0,0,.19-.07Z"/><path class="cls-2" d="M55.59,113.87a1,1,0,0,0-.26.39,1,1,0,0,0,0,.5.8.8,0,0,0,.66.66,1,1,0,0,0,.85-.33.73.73,0,0,0,.16-.94.88.88,0,0,0-.5-.29,1.2,1.2,0,0,0-.65,0,.15.15,0,0,0-.13.13c0,.06,0,.14.1.15l.25,0,.2,0,.17.05.09,0,0,0s0,0,0,0l0,0s0,0,0,0l0,0h0l0,0s0,0,0,0v0s0,0,0,0,0,0,0,0,0,0,0,0l0,.08,0,0-.06.09,0,0s0,0,0,0l0,0-.07.06,0,0,0,0h0l-.15.07h0c-.05,0,0,0,0,0l-.09,0h-.16s0,0,0,0l-.09,0s0,0,0,0l0,0h0a.49.49,0,0,1-.1-.15.79.79,0,0,1,0-.38l0-.13.12-.16a.14.14,0,0,0,0-.21.15.15,0,0,0-.21,0Z"/><path class="cls-2" d="M77.14,38.92V39a.17.17,0,0,0,.25.12,3,3,0,0,0,.57-.49l.65-.6c.2-.19.41-.36.6-.56s.42-.39.43-.67a.15.15,0,0,0-.25-.13c-.18.15-.35.33-.52.49s-.4.36-.59.55l-.58.58c-.09.09-.19.19-.28.3a2.5,2.5,0,0,1-.22.24l.27.06,0,0a.17.17,0,0,0-.32.1Z"/><path class="cls-2" d="M79.15,37.53c.11.31.21.63.33.94a2.36,2.36,0,0,0,.51.88.21.21,0,0,0,.34-.22c-.1-.31-.25-.6-.37-.9s-.22-.62-.33-.92a.26.26,0,0,0-.35-.13.26.26,0,0,0-.13.35Z"/><path class="cls-2" d="M78.92,34.62c0,.41,0,.83.08,1.25a4.26,4.26,0,0,0,.17,1.18.16.16,0,0,0,.31,0c0-.82-.06-1.64-.12-2.46a.23.23,0,0,0-.26-.18.25.25,0,0,0-.18.26Z"/><path class="cls-2" d="M78.77,35.5H78.7l-.11,0-.21-.07-.09,0,0,0s-.07,0,0,0l0,0,0,0-.1-.06c-.27-.17-.49-.41-.76-.55a.21.21,0,0,0-.24,0,.2.2,0,0,0-.06.24,1.5,1.5,0,0,0,.34.42,3.5,3.5,0,0,0,.43.33,2.85,2.85,0,0,0,1,.36.27.27,0,0,0,.29-.24.28.28,0,0,0-.24-.29Z"/><path class="cls-2" d="M79.39,36l1-.58a2.66,2.66,0,0,0,.85-.75c.07-.12,0-.29-.18-.22-.32.17-.62.38-.93.55s-.64.35-.95.54a.26.26,0,0,0-.13.34.25.25,0,0,0,.34.12Z"/><path class="cls-2" d="M78.45,33.22a1.37,1.37,0,0,0-.17.79.53.53,0,0,0,.31.36.72.72,0,0,0,.48,0,1.49,1.49,0,0,0,.45-.19,1.09,1.09,0,0,0,.37-.34.69.69,0,0,0,.12-.5.66.66,0,0,0-.35-.43A1.16,1.16,0,0,0,79,32.8a1.13,1.13,0,0,0-.62.3.15.15,0,0,0,.16.25l.22-.09a.58.58,0,0,1,.21-.07.4.4,0,0,1,.19,0h.06s.06,0,0,0l.11,0,.06,0h0l.08.05s0,0,0,0l0,0h0s0,0,0,0,0,0,0,0,0,0,0,0v0s0-.05,0,0v0s0,0,0,0,0,0,0,0a.08.08,0,0,1,0,0s0,0,0,0v0l0,.07,0,0v0s0,0,0,0l-.12.11-.14.1s0,0,0,0l0,0-.1,0L79,34s0,0,0,0l0,0h-.22s0,0,0,0l0,0-.05,0s0,0,0,0l0,0v0a.08.08,0,0,1,0,0s0,0,0,0v0a.55.55,0,0,1,0-.18,2.42,2.42,0,0,1,.1-.36c0-.1-.11-.15-.15-.06Z"/><path class="cls-2" d="M107,156.23c.27-.48.52-1,.82-1.45.15-.23.31-.45.47-.67a2,2,0,0,0,.44-.71.13.13,0,0,0-.2-.14,5.23,5.23,0,0,0-.54.61,4.82,4.82,0,0,0-.48.7c-.29.47-.54,1-.81,1.46-.11.2.18.4.3.2Z"/><path class="cls-2" d="M108.26,153.72c.15.43.3.87.47,1.3a4.7,4.7,0,0,0,.64,1.24c.15.18.41,0,.34-.22-.16-.42-.36-.83-.53-1.25s-.32-.85-.47-1.28a.25.25,0,0,0-.33-.12.26.26,0,0,0-.12.33Z"/><path class="cls-2" d="M108.22,151.31c.06.46.12.92.14,1.38,0,.23,0,.46,0,.68a5,5,0,0,0,0,.67.18.18,0,0,0,.33.07,1.49,1.49,0,0,0,.15-.7c0-.24,0-.48,0-.71a11.9,11.9,0,0,0-.19-1.46.2.2,0,0,0-.39.07Z"/><path class="cls-2" d="M108.39,152.67l-.15-.1s0,0,0,0l0,0-.06-.06-.27-.3a2.35,2.35,0,0,0-.26-.29l-.31-.27c-.09-.08-.27,0-.23.15a1.11,1.11,0,0,0,.2.39.41.41,0,0,1,0,.09s0,.05,0,0,0,0,0,0l.13.21a2.07,2.07,0,0,0,.58.6.26.26,0,0,0,.37-.07.27.27,0,0,0-.06-.37Z"/><path class="cls-2" d="M108.73,153.06l.54-.48a3.78,3.78,0,0,0,.51-.55.18.18,0,0,0-.22-.27,2.39,2.39,0,0,0-.63.42l-.54.48a.26.26,0,0,0,0,.37.28.28,0,0,0,.38,0Z"/><path class="cls-2" d="M107.57,150.15a1.7,1.7,0,0,0,0,.71.63.63,0,0,0,.74.33,1.15,1.15,0,0,0,.8-.6.68.68,0,0,0,.07-.48.6.6,0,0,0-.37-.36,1.35,1.35,0,0,0-.63-.07,1.43,1.43,0,0,0-.29,0l-.28.06a.18.18,0,0,0,0,.35,1.93,1.93,0,0,0,.48,0h.45l.1,0s0,0,0,0l0,0,0,0s0,0,0,0h0s0,0,0,0l0,0s0-.05,0,0a.06.06,0,0,0,0,0s0,0,0,0v0c0,.05,0,0,0,0a.43.43,0,0,1,0,.05.3.3,0,0,1,0,.08h0l0,0a.35.35,0,0,1-.05.08l0,0h0a.41.41,0,0,1-.14.12h0l0,0-.1,0h0l-.09,0H108s0,0,0,0l0,0,0,0h0l0,0,0,0s0,0,0,0l0-.07s0,0,0,0v0a.22.22,0,0,1,0-.08v-.21c0-.05,0-.11,0-.16a.17.17,0,0,0-.15-.18.17.17,0,0,0-.17.15Z"/><path class="cls-2" d="M74.63,68.26c-.31.48-.61,1-.91,1.44-.14.23-.28.46-.43.69s-.4.58-.1.74a.19.19,0,0,0,.24,0c.1-.08.11-.2.17-.3l.2-.31c.14-.21.26-.43.38-.65.27-.45.54-.91.81-1.35a.22.22,0,0,0-.36-.25Z"/><path class="cls-2" d="M74.54,68.64c.2.54.44,1.08.68,1.6.13.27.25.53.37.8a2.85,2.85,0,0,0,.37.6.14.14,0,0,0,.23,0,.8.8,0,0,0-.07-.72c-.12-.27-.26-.54-.38-.81-.26-.55-.51-1.11-.73-1.68-.12-.32-.59-.09-.47.22Z"/><path class="cls-2" d="M74.35,64.65c0,.71.08,1.42.1,2.12a7.11,7.11,0,0,0,.21,2.06.21.21,0,0,0,.39-.07c0-.69-.06-1.39-.1-2.08s-.07-1.41-.11-2.11c0-.32-.5-.23-.49.08Z"/><path class="cls-2" d="M73.15,65.49a7.27,7.27,0,0,0,.7,1l.37.38.17.18a1.12,1.12,0,0,0,.18.2.18.18,0,0,0,.27-.13.74.74,0,0,0-.22-.52l-.38-.38a7.08,7.08,0,0,1-.74-.9.2.2,0,0,0-.27,0,.21.21,0,0,0-.08.26Z"/><path class="cls-2" d="M75.05,66.82c.27-.23.53-.46.81-.67a9.06,9.06,0,0,0,.82-.69.17.17,0,0,0,0-.22.18.18,0,0,0-.22-.07,8.37,8.37,0,0,0-1,.57,10.7,10.7,0,0,0-.83.68.27.27,0,0,0,0,.37.26.26,0,0,0,.37,0Z"/><path class="cls-2" d="M73.81,63.52a1.2,1.2,0,0,0,.06.7.7.7,0,0,0,.77.35,1.09,1.09,0,0,0,.74-.51.66.66,0,0,0,.11-.57.55.55,0,0,0-.36-.34,1.39,1.39,0,0,0-.61-.07l-.27.06-.31.11a.19.19,0,0,0,0,.35.77.77,0,0,0,.26,0l.21,0,.2,0s.06,0,0,0h.22l.07,0,.07,0s-.05,0,0,0h0l0,0s0,0,0,0v0h0s0,0,0,0,0,0,0,0a.42.42,0,0,0,0,.1s0,0,0,0l0,0,0,.06-.05.06s0,0,0,0l0,0-.07,0,0,0s0,0,0,0a.55.55,0,0,1-.15.08s0,0,0,0l-.08,0h-.1l-.06,0h0s0,0,0,0h0s0,0,0,0,0,0,0,0l0,0s0,0,0,0l0,0s0,0,0-.06,0,0,0,0v0a.22.22,0,0,1,0-.08.17.17,0,0,1,0-.07v0h0v-.15a.18.18,0,1,0-.35,0Z"/><path class="cls-2" d="M32.55,106.79l.62-.63.32-.34a2.09,2.09,0,0,0,.14-.17l.07-.09a.43.43,0,0,0,0-.07v0s0,0,0,0a.19.19,0,0,0-.13-.25.2.2,0,0,0-.23.17h0a.17.17,0,0,0,.2.19h0l-.11-.35s0,0,0,0l-.07.05a.27.27,0,0,0-.07.08l-.18.18-.07.08s0,0,0,0h0l0,0-.16.16-.6.62a.23.23,0,1,0,.29.36Z"/><path class="cls-2" d="M33.49,105.9a3.28,3.28,0,0,0,.46.76,1.86,1.86,0,0,0,.38.3c.18.1.42.22.61.1a.24.24,0,0,0,.13-.18.23.23,0,0,0-.1-.2h0l0,0-.1,0-.08,0-.06,0h0l-.08,0-.17-.12-.05,0s.05.05,0,0l-.06-.06-.12-.15,0,0s0,.06,0,0l-.05-.09a3.78,3.78,0,0,1-.17-.35.28.28,0,0,0-.35-.13.28.28,0,0,0-.14.36Z"/><path class="cls-2" d="M33.85,105.37a2.91,2.91,0,0,0,0-.66l0-.64-.06-.59a.82.82,0,0,0-.22-.52c-.08-.07-.2,0-.24.08a.39.39,0,0,0,0,.24,2.35,2.35,0,0,1,0,.26c0,.19,0,.39,0,.58s0,.4,0,.6a2.49,2.49,0,0,1,0,.61.25.25,0,0,0,.24.28.26.26,0,0,0,.28-.24Z"/><path class="cls-2" d="M32.25,104.13l.47.38.23.17.18.09a.41.41,0,0,0,.19,0,.23.23,0,0,0,.2-.12.21.21,0,0,0,0-.23.8.8,0,0,0-.13-.13l-.12-.08-.23-.18c-.16-.13-.3-.26-.46-.37a.27.27,0,0,0-.37.07.26.26,0,0,0,.06.36Z"/><path class="cls-2" d="M34.16,104.62l.49-.33.23-.17L35,104l0,0a.27.27,0,0,0,0-.2.21.21,0,0,0-.19-.18.28.28,0,0,0-.2.06l-.07,0,.06,0c-.15.09-.3.2-.45.3l-.42.29a.25.25,0,0,0-.1.18.33.33,0,0,0,.06.19.26.26,0,0,0,.18.09.3.3,0,0,0,.2-.06Z"/><path class="cls-2" d="M33.06,101.75a1.2,1.2,0,0,0-.26.4,1,1,0,0,0,0,.5.75.75,0,0,0,.66.65,1,1,0,0,0,.84-.33.72.72,0,0,0,.17-.93.85.85,0,0,0-.51-.29,1.3,1.3,0,0,0-.65,0,.14.14,0,0,0-.12.14.15.15,0,0,0,.09.15l.26,0,.19,0,.17.05.09,0h0l0,0,0,0s0,0,0,0l0,.05s0,0,0,0v0s0,0,0,0v0s0,0,0,0v0s0,0,0,0l0,.08s0,0,0,0l-.07.08,0,0s0,0,0,0l-.06,0a.18.18,0,0,1-.07,0l0,0,0,0s0,0,0,0l-.15.07,0,0s0,0,0,0l-.08,0h0s0,0,0,0h-.12l-.09,0,0,0,0,0h0a.45.45,0,0,1-.1-.14.81.81,0,0,1,0-.38.84.84,0,0,1,.06-.14l.11-.15a.15.15,0,1,0-.19-.23Z"/><path class="cls-2" d="M49.55,134.83v0a.17.17,0,0,0,.24.13,3,3,0,0,0,.58-.49l.65-.61c.19-.18.41-.36.6-.55s.42-.4.43-.67a.15.15,0,0,0-.25-.13c-.19.15-.35.32-.53.48l-.58.55-.58.58-.28.3a1.79,1.79,0,0,1-.22.25l.27.06,0-.05a.17.17,0,0,0-.31.1Z"/><path class="cls-2" d="M51.55,133.44c.12.31.22.62.34.93a2.29,2.29,0,0,0,.51.88.2.2,0,0,0,.33-.21c-.09-.31-.24-.6-.36-.91s-.22-.61-.33-.92a.26.26,0,0,0-.35-.12.28.28,0,0,0-.14.35Z"/><path class="cls-2" d="M51.33,130.53c0,.41,0,.83.07,1.24a4.28,4.28,0,0,0,.18,1.19.16.16,0,0,0,.3-.05c0-.83-.06-1.64-.12-2.46a.22.22,0,0,0-.25-.18.23.23,0,0,0-.18.26Z"/><path class="cls-2" d="M51.18,131.41h0l0,0-.11,0-.21-.07-.09,0-.05,0,0,0h0l-.05,0-.1-.06a8.15,8.15,0,0,0-.76-.55.19.19,0,0,0-.29.24,1.26,1.26,0,0,0,.34.42,2.79,2.79,0,0,0,.43.34,3,3,0,0,0,1,.36.27.27,0,0,0,.28-.25.26.26,0,0,0-.23-.28Z"/><path class="cls-2" d="M51.79,131.94c.34-.2.68-.38,1-.59a2.6,2.6,0,0,0,.84-.74.15.15,0,0,0-.18-.22c-.32.16-.61.37-.92.55s-.64.35-.95.54a.26.26,0,0,0-.13.34.25.25,0,0,0,.33.12Z"/><path class="cls-2" d="M50.86,129.13a1.29,1.29,0,0,0-.17.79.53.53,0,0,0,.31.36.76.76,0,0,0,.47,0,1.79,1.79,0,0,0,.45-.19,1.24,1.24,0,0,0,.38-.34.71.71,0,0,0,.11-.51.62.62,0,0,0-.34-.42,1.26,1.26,0,0,0-.69-.14,1.19,1.19,0,0,0-.61.31.15.15,0,0,0,.16.25l.22-.1.2-.07h.28l.12,0,0,0c.06,0,0,0,0,0l.08.05h0a.08.08,0,0,1,0,0h0s0,0,0,0a.11.11,0,0,1,0,0s0,0,0,0v0c0,.05,0,0,0,0v.05s0,0,0,0,0,0,0,0l0,0s0,0,0,0l0,0,0,.06,0,0h0s0,0,0,0l-.12.11-.14.1h0l-.05,0-.09,0-.09,0h-.06l-.08,0h0s0,0,0,0h-.1s0,0,0,0h0l-.06,0s0,0,0,0l0,0s0,0,0,0,0,0,0-.05,0,0,0,0,0,0,0,0a1.09,1.09,0,0,1,0-.18,2.26,2.26,0,0,1,.11-.37c0-.09-.11-.14-.15-.05Z"/><path class="cls-2" d="M41.56,67.66c.28-.49.52-1,.82-1.45a8.12,8.12,0,0,1,.48-.67,2.28,2.28,0,0,0,.44-.71c0-.11-.11-.23-.21-.14a5.23,5.23,0,0,0-.54.61,6.54,6.54,0,0,0-.48.69c-.28.48-.53,1-.8,1.47-.12.2.18.4.29.2Z"/><path class="cls-2" d="M42.84,65.15c.15.43.3.87.47,1.3A4.9,4.9,0,0,0,44,67.69c.14.18.4,0,.33-.22-.15-.42-.36-.83-.53-1.25s-.32-.85-.47-1.28a.24.24,0,0,0-.32-.12.26.26,0,0,0-.13.33Z"/><path class="cls-2" d="M42.8,62.74c.06.46.12.92.14,1.38,0,.23,0,.46,0,.68s0,.45,0,.67a.18.18,0,0,0,.33.07,1.41,1.41,0,0,0,.15-.7c0-.24,0-.48,0-.71a11.92,11.92,0,0,0-.2-1.46c0-.25-.42-.18-.39.07Z"/><path class="cls-2" d="M43,64.1l-.15-.1s0,0,0,0l0,0-.06-.06-.26-.3a3.71,3.71,0,0,0-.27-.29l-.3-.27a.16.16,0,0,0-.24.15,1.11,1.11,0,0,0,.2.39l.06.09s0,0,0,0,0,0,0,0,.09.14.14.21a2,2,0,0,0,.57.6.26.26,0,0,0,.37-.07A.27.27,0,0,0,43,64.1Z"/><path class="cls-2" d="M43.31,64.49l.54-.48a3.85,3.85,0,0,0,.52-.55.18.18,0,0,0-.23-.27,2.39,2.39,0,0,0-.63.42c-.18.15-.36.32-.54.48a.26.26,0,1,0,.34.4Z"/><path class="cls-2" d="M42.15,61.58a1.7,1.7,0,0,0,0,.71.65.65,0,0,0,.74.33,1.13,1.13,0,0,0,.8-.61.6.6,0,0,0,.07-.47.56.56,0,0,0-.37-.36,1.36,1.36,0,0,0-.63-.08l-.29,0-.28.06a.18.18,0,0,0,0,.35,1.55,1.55,0,0,0,.48,0h.45l.11,0h0l0,0,0,0h0s0,0,0,0l0,0s0,0,0,0a.06.06,0,0,1,0,0s0,0,0,0v0c0,.05,0,0,0,0s0,0,0,0a.49.49,0,0,1,0,.07h0l0,0a.35.35,0,0,1,0,.08l0,0s0,0,0,0a.57.57,0,0,1-.15.12s0,0,0,0l0,0-.1,0s0,0,0,0h0l-.09,0h-.18s0,0,0,0,0,0,0,0l0,0h0l0,0v0l0-.07s0,0,0,0v0s0-.05,0-.08v0s0-.06,0,0v-.15a1,1,0,0,0,0-.17.16.16,0,0,0-.14-.17.17.17,0,0,0-.18.15Z"/><path class="cls-2" d="M73.42,131.35c-.31.48-.61,1-.91,1.44-.14.23-.28.46-.44.69s-.4.59-.1.75a.21.21,0,0,0,.24,0c.1-.07.11-.19.17-.29l.21-.32c.13-.21.25-.43.38-.65.27-.45.53-.9.81-1.35.15-.24-.21-.49-.36-.25Z"/><path class="cls-2" d="M73.32,131.73c.21.55.44,1.08.69,1.61.12.26.24.53.37.79a2.81,2.81,0,0,0,.36.6.15.15,0,0,0,.24,0,.84.84,0,0,0-.08-.72c-.12-.27-.25-.54-.38-.8-.26-.56-.5-1.12-.72-1.69-.12-.31-.59-.09-.48.22Z"/><path class="cls-2" d="M73.14,127.75c0,.7.07,1.41.1,2.12a6.72,6.72,0,0,0,.21,2,.2.2,0,0,0,.38-.07c0-.69-.06-1.38-.09-2.07s-.07-1.41-.12-2.12c0-.32-.5-.22-.48.09Z"/><path class="cls-2" d="M71.94,128.58a5.41,5.41,0,0,0,.7.95,4.51,4.51,0,0,0,.37.39l.16.17a1.71,1.71,0,0,0,.18.2.18.18,0,0,0,.28-.13.68.68,0,0,0-.23-.51l-.38-.38a7.17,7.17,0,0,1-.74-.91.2.2,0,0,0-.26,0,.2.2,0,0,0-.08.26Z"/><path class="cls-2" d="M73.84,129.92c.26-.24.53-.47.8-.68a6.9,6.9,0,0,0,.83-.69.17.17,0,0,0,0-.22.15.15,0,0,0-.21-.06,7.18,7.18,0,0,0-1,.56c-.28.22-.55.45-.82.68a.27.27,0,1,0,.34.41Z"/><path class="cls-2" d="M72.6,126.61a1.28,1.28,0,0,0,.05.7.71.71,0,0,0,.77.35,1.12,1.12,0,0,0,.75-.5.71.71,0,0,0,.11-.58.58.58,0,0,0-.36-.34,1.46,1.46,0,0,0-.89,0,2.22,2.22,0,0,0-.3.11.19.19,0,0,0,0,.35.76.76,0,0,0,.26,0,1.52,1.52,0,0,0,.21,0l.2,0h.23s0,0,0,0l.08,0,.06,0h0l0,0h0l0,0s0,0,0,0,0,0,0,0,0,0,0,0a.36.36,0,0,1,0,.09s0,0,0,0l0,0a.21.21,0,0,1,0,.06l0,.06s0,0,0,0l0,0-.06,0,0,0s0,0,0,0a.52.52,0,0,1-.15.07h-.19s-.07,0,0,0l-.07,0h0c.05,0,0,0,0,0l0,0s0,0,0,0,0,0,0,0a0,0,0,0,0,0,0s0,0,0,0v0l0-.07s0,0,0,0v0s0,0,0-.07a.22.22,0,0,0,0-.08v0h0v-.16a.17.17,0,1,0-.34,0Z"/><path class="cls-2" d="M78.16,122.42l.61-.62.32-.35.15-.17.06-.08a.25.25,0,0,0,0-.07.09.09,0,0,0,0,0s0,0,0,0a.17.17,0,0,0-.13-.24A.2.2,0,0,0,79,121h0a.18.18,0,0,0,.21.19h0l-.11-.35,0,0-.07,0-.07.08a1.54,1.54,0,0,0-.17.19l-.07.08s0,0,0,0l0,0,0,0-.15.17-.61.62a.23.23,0,1,0,.3.35Z"/><path class="cls-2" d="M79.09,121.53a3.08,3.08,0,0,0,.46.76,1.85,1.85,0,0,0,.39.3.58.58,0,0,0,.6.1.23.23,0,0,0,.13-.18.21.21,0,0,0-.09-.19h0l0,0-.09,0-.09,0,0,0s-.07,0,0,0l-.08,0a1,1,0,0,1-.17-.12l0,0c-.05,0,0,0,0,0a.46.46,0,0,1-.07-.07.83.83,0,0,1-.11-.15l0,0h0s0,0,0-.08-.12-.23-.18-.35a.26.26,0,0,0-.35-.13.27.27,0,0,0-.14.35Z"/><path class="cls-2" d="M79.45,121a2.91,2.91,0,0,0,0-.66c0-.22,0-.43,0-.64l-.06-.59a.85.85,0,0,0-.22-.53c-.08-.07-.2,0-.24.08a.42.42,0,0,0,0,.25c0,.08,0,.17,0,.26s0,.38,0,.57,0,.4,0,.6a3.2,3.2,0,0,1,0,.62.26.26,0,1,0,.52,0Z"/><path class="cls-2" d="M77.85,119.77c.17.12.31.25.47.38l.23.17.18.09a.4.4,0,0,0,.19,0,.23.23,0,0,0,.21-.11.21.21,0,0,0,0-.23A.53.53,0,0,0,79,120l-.12-.08-.23-.19c-.15-.12-.3-.26-.46-.37a.27.27,0,0,0-.31.44Z"/><path class="cls-2" d="M79.76,120.26c.16-.12.33-.22.5-.34l.22-.16a.86.86,0,0,0,.14-.13.1.1,0,0,1,0,0,.34.34,0,0,0,0-.2.23.23,0,0,0-.2-.18.24.24,0,0,0-.2.06l-.06,0,.05,0-.44.31-.43.28a.32.32,0,0,0-.1.18.34.34,0,0,0,.06.2.26.26,0,0,0,.18.09.34.34,0,0,0,.2-.06Z"/><path class="cls-2" d="M78.67,117.39a1.3,1.3,0,0,0-.27.39,1.06,1.06,0,0,0,0,.5.8.8,0,0,0,.66.66,1,1,0,0,0,.84-.33.73.73,0,0,0,.17-.94.84.84,0,0,0-.51-.28,1.2,1.2,0,0,0-.65,0c-.06,0-.12.06-.12.13a.13.13,0,0,0,.09.15l.26,0,.19,0,.17,0,.09,0h0l0,0a.05.05,0,0,0,0,0s0,0,0,0,0,0,0,0,0,0,0,0a.08.08,0,0,0,0,0s0,0,0,0v0s0,0,0,0v0s0,0,0,0l0,.07s0,0,0,0l-.07.09,0,0h0l-.06,0-.06.06,0,0,0,0h0l-.14.07h0s.05,0,0,0H79s0,0,0,0l-.1,0,0,0,0,0h0a.46.46,0,0,1-.09-.15.58.58,0,0,1,0-.37.34.34,0,0,1,0-.14.44.44,0,0,1,.12-.15.17.17,0,0,0,0-.21.15.15,0,0,0-.21,0Z"/><path class="cls-2" d="M66.69,153.91V154a.17.17,0,0,0,.24.13,3.07,3.07,0,0,0,.58-.5l.65-.6c.2-.19.41-.36.6-.56s.42-.39.43-.66a.15.15,0,0,0-.25-.13c-.19.14-.35.32-.53.48l-.58.55-.58.58a4,4,0,0,0-.28.3,2.5,2.5,0,0,1-.22.24l.27.06,0-.05a.17.17,0,0,0-.31.1Z"/><path class="cls-2" d="M68.7,152.52c.11.31.21.63.33.94a2.36,2.36,0,0,0,.51.88.21.21,0,0,0,.34-.22c-.1-.31-.25-.6-.37-.9s-.22-.61-.33-.92a.26.26,0,0,0-.35-.13.27.27,0,0,0-.13.35Z"/><path class="cls-2" d="M68.47,149.61c0,.42,0,.83.07,1.25a4.4,4.4,0,0,0,.18,1.19A.16.16,0,0,0,69,152c0-.82-.06-1.64-.12-2.46a.21.21,0,0,0-.25-.17.22.22,0,0,0-.18.25Z"/><path class="cls-2" d="M68.32,150.49h-.07l-.11,0-.21-.07-.09,0,0,0s-.06,0,0,0,0,0,0,0l0,0-.1-.06c-.27-.17-.49-.4-.77-.55a.21.21,0,0,0-.24,0,.22.22,0,0,0,0,.24,1.5,1.5,0,0,0,.34.42,2.73,2.73,0,0,0,.43.33,2.77,2.77,0,0,0,1,.36.27.27,0,0,0,.29-.24.28.28,0,0,0-.24-.29Z"/><path class="cls-2" d="M68.93,151c.34-.19.68-.38,1-.58a2.53,2.53,0,0,0,.84-.75.15.15,0,0,0-.18-.22c-.32.17-.61.38-.92.55l-1,.54a.27.27,0,0,0-.13.34.24.24,0,0,0,.33.12Z"/><path class="cls-2" d="M68,148.22a1.26,1.26,0,0,0-.17.78.51.51,0,0,0,.31.36.72.72,0,0,0,.48,0,1.43,1.43,0,0,0,.44-.19,1.12,1.12,0,0,0,.38-.34.74.74,0,0,0,.12-.5.69.69,0,0,0-.35-.43,1.17,1.17,0,0,0-.69-.13,1.21,1.21,0,0,0-.61.3.15.15,0,0,0,.16.25l.22-.09a.6.6,0,0,1,.2-.07.45.45,0,0,1,.2,0h.09l.11,0,.06,0h0l.08.06s0,0,0,0l0,0h0s0,0,0,0,0,0,0,0,0-.05,0,0v0s0-.05,0,0v0c0,.05,0,0,0,0a0,0,0,0,0,0,0l0,0h0l0,0,0,.07,0,0h0s0,0,0,0l-.12.11-.14.11s0,0,0,0l0,0-.09,0-.09,0s-.06,0,0,0l0,0h-.22s0,0,0,0l0,0,0,0s0,0,0,0l0,0s0,0,0,0l0-.05v-.07a.48.48,0,0,1,0-.17,2.26,2.26,0,0,1,.11-.37c0-.1-.11-.15-.15-.05Z"/><path class="cls-2" d="M91.11,126c.27-.48.52-1,.82-1.45.15-.23.31-.45.48-.67a2.1,2.1,0,0,0,.43-.7c0-.12-.1-.24-.2-.14a6.09,6.09,0,0,0-.54.6,5.43,5.43,0,0,0-.48.7c-.29.48-.53,1-.81,1.46-.11.2.18.41.3.2Z"/><path class="cls-2" d="M92.39,123.45c.15.44.3.88.47,1.31A4.8,4.8,0,0,0,93.5,126c.15.18.41,0,.34-.21-.16-.43-.36-.84-.53-1.26s-.32-.85-.47-1.28a.25.25,0,0,0-.33-.12.26.26,0,0,0-.12.33Z"/><path class="cls-2" d="M92.35,121.05c.06.45.12.92.14,1.38,0,.23,0,.45,0,.68a4.85,4.85,0,0,0,0,.66.19.19,0,0,0,.33.08,1.55,1.55,0,0,0,.15-.7c0-.24,0-.48,0-.72a10.1,10.1,0,0,0-.19-1.45.2.2,0,0,0-.39.07Z"/><path class="cls-2" d="M92.52,122.41l-.15-.11s0,0,0,0l0,0-.06-.06c-.09-.09-.18-.2-.27-.3a2.35,2.35,0,0,0-.26-.29c-.1-.09-.21-.17-.31-.27s-.27,0-.23.15a1.25,1.25,0,0,0,.2.4l.06.08v0l0,0,.13.22a2.07,2.07,0,0,0,.58.6.28.28,0,0,0,.37-.07.27.27,0,0,0-.06-.37Z"/><path class="cls-2" d="M92.86,122.79l.54-.48a3,3,0,0,0,.52-.55.19.19,0,0,0-.23-.27,2.66,2.66,0,0,0-.63.42l-.54.48a.26.26,0,0,0,0,.37.27.27,0,0,0,.38,0Z"/><path class="cls-2" d="M91.7,119.88a1.69,1.69,0,0,0,0,.71.63.63,0,0,0,.74.33,1.12,1.12,0,0,0,.8-.6.65.65,0,0,0,.07-.47.57.57,0,0,0-.37-.37,1.5,1.5,0,0,0-.63-.07l-.29,0-.28.07a.18.18,0,0,0,0,.35,2.57,2.57,0,0,0,.48,0h.39s.07,0,0,0h0l.1,0s0,0,0,0l0,0,0,0s0,0,0,0v0s0,0,0,0l0,0s0-.06,0,0a.06.06,0,0,0,0,0s0-.05,0,0v0s0,0,0,0a.43.43,0,0,0,0,0l0,.07s0,0,0,0l0,0,0,.07,0,0s0,0,0,0a.58.58,0,0,1-.14.13s0,0,0,0l0,0-.1,0h0l0,0h-.24s0,0,0,0,0,0,0,0,0,0,0,0h0s0,0,0,0l0,0v0s0,0,0,0l0-.06s0,0,0,0v0a.17.17,0,0,1,0-.07v-.21c0-.06,0-.12,0-.17a.16.16,0,0,0-.14-.17.17.17,0,0,0-.18.14Z"/><path class="cls-2" d="M32.35,89.8c-.31.47-.61,1-.91,1.44-.14.23-.28.46-.43.68s-.4.59-.1.75a.19.19,0,0,0,.24,0c.1-.08.11-.2.17-.3l.2-.31c.14-.21.26-.43.39-.65l.8-1.36a.22.22,0,0,0-.36-.24Z"/><path class="cls-2" d="M32.26,90.18c.21.54.44,1.07.68,1.6.13.27.25.53.38.79a2.34,2.34,0,0,0,.36.61.15.15,0,0,0,.23,0,.8.8,0,0,0-.07-.72c-.12-.28-.26-.54-.38-.81-.26-.55-.51-1.11-.73-1.68-.11-.32-.59-.09-.47.22Z"/><path class="cls-2" d="M32.08,86.19c0,.71.07,1.41.09,2.12a7.52,7.52,0,0,0,.21,2.06.21.21,0,0,0,.39-.07c0-.69-.06-1.39-.09-2.08l-.12-2.11c0-.32-.5-.23-.48.08Z"/><path class="cls-2" d="M30.87,87a7.27,7.27,0,0,0,.7,1l.37.38a1.45,1.45,0,0,1,.17.18,1.71,1.71,0,0,0,.18.2.18.18,0,0,0,.27-.13.73.73,0,0,0-.22-.52c-.12-.13-.26-.25-.38-.38a7.08,7.08,0,0,1-.74-.9.2.2,0,0,0-.27,0,.22.22,0,0,0-.08.26Z"/><path class="cls-2" d="M32.77,88.36c.27-.23.53-.46.81-.67A9.06,9.06,0,0,0,34.4,87a.17.17,0,0,0-.18-.29,7.82,7.82,0,0,0-1,.57,9,9,0,0,0-.82.68.26.26,0,1,0,.33.4Z"/><path class="cls-2" d="M31.53,85.06a1.29,1.29,0,0,0,.06.7.7.7,0,0,0,.77.35,1.13,1.13,0,0,0,.75-.51.7.7,0,0,0,.1-.58.54.54,0,0,0-.36-.33,1.26,1.26,0,0,0-.61-.07,2.61,2.61,0,0,0-.27.06l-.31.11a.19.19,0,0,0,0,.35,1.15,1.15,0,0,0,.26,0l.21,0,.2,0s.06,0,0,0h.21s0,0,0,0l.07,0,.07,0s0,0,0,0h0l0,0h0v0h0s0,0,0,0,0,0,0,0a.42.42,0,0,0,0,.1s0,0,0,0l0,0,0,.06,0,0s0,0,0,0l0,0-.07,0,0,0h0a.3.3,0,0,1-.15.07s0,0,0,0H32.2s0,0,0,0h-.08s-.06,0,0,0l-.06,0,0,0h0s0,0,0,0l0,0s0,.05,0,0l0,0s0,0,0-.06,0,0,0,0v0a.22.22,0,0,1,0-.08.17.17,0,0,1,0-.07v0h0v-.16a.18.18,0,0,0-.16-.18.18.18,0,0,0-.19.16Z"/><path class="cls-2" d="M111.06,144.18l.62-.63.31-.35.15-.17.07-.08,0-.07s0,0,0,0,0,0,0,0a.19.19,0,0,0-.13-.24.19.19,0,0,0-.23.17h0a.17.17,0,0,0,.2.19h0l-.1-.36-.05,0a.18.18,0,0,0-.07.05l-.08.07-.17.19-.07.08s0,0,0,0v0l0,0-.16.16-.61.62a.25.25,0,0,0,0,.33.24.24,0,0,0,.33,0Z"/><path class="cls-2" d="M112,143.28a2.91,2.91,0,0,0,.46.76,1.91,1.91,0,0,0,.38.31.64.64,0,0,0,.61.1c.06,0,.12-.1.12-.18a.21.21,0,0,0-.09-.2h0l0,0-.09,0-.08,0-.06,0h0l-.09-.05-.17-.11a.08.08,0,0,0,0,0h0l-.06-.07a.81.81,0,0,1-.12-.14l0,0c0-.05,0,0,0,0a.56.56,0,0,1,0-.08l-.18-.35a.26.26,0,0,0-.35-.13.28.28,0,0,0-.13.35Z"/><path class="cls-2" d="M112.36,142.76a2.91,2.91,0,0,0,0-.66c0-.21,0-.43,0-.64s0-.4,0-.59a.76.76,0,0,0-.23-.52c-.08-.08-.2,0-.23.07a.36.36,0,0,0,0,.25,2.26,2.26,0,0,1,0,.26c0,.19,0,.38,0,.57s0,.4,0,.6a2.57,2.57,0,0,1,0,.62.25.25,0,0,0,.23.28.28.28,0,0,0,.29-.24Z"/><path class="cls-2" d="M110.76,141.52c.16.12.31.25.46.38l.24.17.18.09a.31.31,0,0,0,.19,0,.21.21,0,0,0,.18-.34.8.8,0,0,0-.13-.13l-.12-.08-.24-.19c-.15-.12-.29-.25-.45-.37a.27.27,0,1,0-.31.44Z"/><path class="cls-2" d="M112.66,142c.17-.12.34-.22.5-.34l.23-.16a.8.8,0,0,0,.13-.13l0,0a.28.28,0,0,0,0-.2.21.21,0,0,0-.2-.18.31.31,0,0,0-.2.06l-.06,0,.06,0-.45.31-.43.28a.26.26,0,0,0-.09.18.24.24,0,0,0,.06.2.26.26,0,0,0,.18.09.33.33,0,0,0,.19-.06Z"/><path class="cls-2" d="M111.57,139.14a1.11,1.11,0,0,0-.26.39,1.07,1.07,0,0,0,0,.5.78.78,0,0,0,.67.66,1,1,0,0,0,.84-.33.72.72,0,0,0,.16-.94.81.81,0,0,0-.5-.28,1.3,1.3,0,0,0-.65,0,.16.16,0,0,0-.13.13c0,.06,0,.14.1.15l.25.05.2.05.17,0,.09,0h0l0,0,0,0s0,0,0,0,0,0,0,0,0,0,0,0,0,0,0,0,0,0,0,0v0s0,0,0,0,0,0,0,0,0,0,0,0l0,.08s0,0,0,0l-.06.09,0,0s0,0,0,0l0,.06-.07,0,0,0,0,0h0l-.15.07h0c-.05,0,0,0,0,0l-.09,0h-.16s0,0,0,0l-.09,0,0,0,0,0h0a.49.49,0,0,1-.1-.15.76.76,0,0,1,0-.37.59.59,0,0,1,.06-.14.58.58,0,0,1,.11-.15.15.15,0,0,0,0-.21.14.14,0,0,0-.21,0Z"/><path class="cls-2" d="M56.39,107.18v.06a.18.18,0,0,0,.25.13,3.41,3.41,0,0,0,.58-.5c.22-.19.43-.4.64-.6s.41-.36.6-.56.43-.39.44-.66a.16.16,0,0,0-.26-.13c-.18.14-.35.32-.52.48l-.58.55c-.19.19-.39.38-.58.58l-.28.3c-.08.08-.14.17-.22.25l.27.06,0,0a.16.16,0,0,0-.31.09Z"/><path class="cls-2" d="M58.39,105.79c.11.32.22.63.34.94a2.4,2.4,0,0,0,.5.88.21.21,0,0,0,.34-.22c-.09-.31-.25-.6-.36-.9s-.22-.61-.33-.92a.27.27,0,0,0-.35-.13.28.28,0,0,0-.14.35Z"/><path class="cls-2" d="M58.17,102.88c0,.42,0,.83.07,1.25a4.34,4.34,0,0,0,.18,1.19.16.16,0,0,0,.3-.06c0-.82-.06-1.63-.12-2.46a.22.22,0,0,0-.43.08Z"/><path class="cls-2" d="M58,103.76H58l-.12,0-.2-.07-.09,0,0,0,0,0h0l0,0-.1-.06c-.26-.17-.48-.4-.76-.55a.21.21,0,0,0-.24,0,.22.22,0,0,0-.05.24,1.5,1.5,0,0,0,.33.42,2.81,2.81,0,0,0,.44.33,2.61,2.61,0,0,0,1,.36.26.26,0,0,0,.29-.24.27.27,0,0,0-.24-.29Z"/><path class="cls-2" d="M58.63,104.29c.34-.19.68-.37,1-.58a2.66,2.66,0,0,0,.85-.75c.07-.12,0-.29-.18-.21-.32.16-.61.37-.93.55l-.95.54a.27.27,0,0,0-.13.33.25.25,0,0,0,.34.12Z"/><path class="cls-2" d="M57.7,101.49a1.36,1.36,0,0,0-.18.78.54.54,0,0,0,.32.37.75.75,0,0,0,.47,0,1.49,1.49,0,0,0,.45-.19,1.17,1.17,0,0,0,.37-.33.67.67,0,0,0,.12-.51.64.64,0,0,0-.34-.43,1.17,1.17,0,0,0-.69-.13,1.2,1.2,0,0,0-.62.3.16.16,0,0,0,.16.26l.23-.1a.8.8,0,0,1,.2-.07h.25s.07,0,0,0a.53.53,0,0,1,.12,0l0,0c.06,0,0,0,0,0l.08.06s0,0,0,0l0,0v0s0,0,0,0,0,0,0,0,0,0,0,0v0c0,.05,0,0,0,0v0s0,0,0,0a0,0,0,0,0,0,0l0,0s0,0,0,0v0l0,.07,0,0h0s0,0,0,0l-.13.12-.14.1c.05,0,0,0,0,0l0,0-.1,0-.08,0s-.06,0,0,0h-.28l0,0-.06,0h0l0,0s0,0,0,0a.08.08,0,0,0,0,0s0,0,0,0,0,0,0,0a.49.49,0,0,1,0-.17,1.58,1.58,0,0,1,.11-.37.08.08,0,1,0-.15-.05Z"/><path class="cls-2" d="M103.31,130.84c.27-.49.52-1,.82-1.45a6.2,6.2,0,0,1,.47-.67A2.11,2.11,0,0,0,105,128c0-.11-.1-.23-.2-.14a5.32,5.32,0,0,0-.55.61,6.45,6.45,0,0,0-.47.69c-.29.48-.54,1-.81,1.47-.11.2.18.4.3.2Z"/><path class="cls-2" d="M104.59,128.33c.15.43.29.87.46,1.3a5.24,5.24,0,0,0,.65,1.24c.15.18.41,0,.33-.22-.15-.42-.35-.83-.52-1.25s-.32-.85-.47-1.28a.25.25,0,0,0-.33-.12.25.25,0,0,0-.12.33Z"/><path class="cls-2" d="M104.54,125.92a10.75,10.75,0,0,1,.14,1.38c0,.23,0,.46,0,.68s0,.45,0,.67a.18.18,0,0,0,.33.07,1.4,1.4,0,0,0,.14-.7c0-.24,0-.48,0-.71a11.92,11.92,0,0,0-.2-1.46c0-.25-.42-.18-.39.07Z"/><path class="cls-2" d="M104.71,127.28a.71.71,0,0,1-.14-.1s0,0,0,0l0,0-.06-.06-.26-.3c-.09-.1-.17-.2-.26-.29l-.31-.27c-.09-.08-.27,0-.23.15a1.11,1.11,0,0,0,.2.39.41.41,0,0,0,0,.09s0,0,0,0,0,0,0,0l.14.21a2.07,2.07,0,0,0,.58.6.26.26,0,0,0,.37-.07.27.27,0,0,0-.07-.37Z"/><path class="cls-2" d="M105.05,127.67l.54-.48a3.36,3.36,0,0,0,.52-.55.18.18,0,0,0-.22-.27,2.1,2.1,0,0,0-.63.42c-.19.15-.37.32-.55.48a.26.26,0,0,0,.34.4Z"/><path class="cls-2" d="M103.9,124.76a1.55,1.55,0,0,0,0,.71.65.65,0,0,0,.75.33,1.15,1.15,0,0,0,.8-.61.64.64,0,0,0,.07-.47.58.58,0,0,0-.37-.36,1.36,1.36,0,0,0-.63-.08l-.29,0a2.3,2.3,0,0,0-.28.06.18.18,0,0,0,0,.35,1.48,1.48,0,0,0,.47,0h.4s.07,0,0,0h0l.1,0s0,0,0,0l0,0,0,0h0s0,0,0,0v0s0,0,0,0v0s0,0,0,0v0s0,0,0,0,0,0,0,0,0,.06,0,.07,0,0,0,0l0,0-.05.08,0,0s0,0,0,0a.57.57,0,0,1-.15.12s0,0,0,0l0,0-.09.05h0l-.09,0h-.18s0,0,0,0,0,0,0,0l0,0s0,0,0,0l0,0v0s0,0,0,0a.21.21,0,0,0,0-.07s0,0,0,0v0s0,0,0-.08v-.38a.16.16,0,0,0-.14-.17.17.17,0,0,0-.17.15Z"/><path class="cls-2" d="M41.09,32.11c-.31.48-.61,1-.91,1.44-.14.23-.28.47-.43.69s-.4.59-.1.75a.23.23,0,0,0,.24,0c.1-.08.11-.2.17-.3s.13-.21.2-.32.26-.43.38-.64l.81-1.36a.22.22,0,0,0-.36-.25Z"/><path class="cls-2" d="M41,32.49c.2.55.44,1.08.68,1.61.13.26.25.53.37.79a2.92,2.92,0,0,0,.37.61.15.15,0,0,0,.23,0,.8.8,0,0,0-.07-.72c-.12-.27-.26-.53-.38-.8-.26-.56-.51-1.12-.73-1.69-.12-.31-.59-.09-.47.22Z"/><path class="cls-2" d="M40.81,28.51c0,.7.08,1.41.1,2.12a7,7,0,0,0,.21,2.05.21.21,0,0,0,.39-.07c0-.69-.06-1.38-.1-2.07s-.07-1.41-.11-2.12c0-.32-.5-.22-.49.09Z"/><path class="cls-2" d="M39.61,29.34a7.37,7.37,0,0,0,.7,1l.37.38a1.37,1.37,0,0,1,.17.17,1.12,1.12,0,0,0,.18.2c.1.09.26,0,.27-.13a.72.72,0,0,0-.22-.51c-.12-.13-.26-.25-.38-.38a6.53,6.53,0,0,1-.74-.91.21.21,0,0,0-.27,0,.21.21,0,0,0-.08.26Z"/><path class="cls-2" d="M41.51,30.68c.27-.23.53-.46.81-.68a9,9,0,0,0,.82-.68.19.19,0,0,0,0-.23A.17.17,0,0,0,43,29a7.14,7.14,0,0,0-1,.57,10.7,10.7,0,0,0-.83.68.26.26,0,1,0,.34.4Z"/><path class="cls-2" d="M40.27,27.37a1.19,1.19,0,0,0,.06.7.7.7,0,0,0,.77.35,1,1,0,0,0,.74-.5.67.67,0,0,0,.11-.58.58.58,0,0,0-.36-.34,1.39,1.39,0,0,0-.61-.06,1.31,1.31,0,0,0-.27.06,1.92,1.92,0,0,0-.31.11.19.19,0,0,0,0,.35.76.76,0,0,0,.26,0,1.52,1.52,0,0,0,.21,0l.2,0h.23s0,0,0,0l.07,0,.07,0s0,0,0,0h0l0,0s0,0,0,0v0h0s0,0,0,0,0,0,0,0a.3.3,0,0,0,0,.1s0,0,0,0l0,0,0,.06s0,.05,0,.06,0,0,0,0l0,0-.07.06,0,0s0,0,0,0a.51.51,0,0,1-.15.07h-.12s.05,0,0,0h-.07s-.06,0,0,0l-.06,0h0s0,0,0,0l0,0s0,0,0,0,0,0,0,0l0,0s0,0,0,0l0,0a.19.19,0,0,1,0-.07s0,.05,0,0v0a.17.17,0,0,1,0-.07.22.22,0,0,1,0-.08v0h0V27.4a.18.18,0,0,0-.16-.19.19.19,0,0,0-.19.16Z"/><path class="cls-1" d="M10.23,63.12c8.09.67,15.84,3.65,22.89,7.58s13.54,9,19.8,14.2,12.22,10.38,18.74,15A73.85,73.85,0,0,0,93,110.86a57.67,57.67,0,0,0,24.17,2.19c1-.13,2-.29,3-.48s.57-1.55-.35-1.38A55.75,55.75,0,0,1,95.66,110,72.56,72.56,0,0,1,73.85,99.81C67.19,95.35,61.1,90.14,54.94,85S42.49,74.81,35.56,70.69s-14.43-7.34-22.4-8.46c-1-.13-1.93-.24-2.91-.31-.77-.06-.81,1.13,0,1.2Z"/><path class="cls-1" d="M72.69,20.67a64.47,64.47,0,0,0-8.52,26.24c-1.12,9.75-.49,19.55.48,29.28C65.62,86.1,67,96,67.29,106a93.32,93.32,0,0,1-3.16,28.18,86.91,86.91,0,0,1-11,23.92c-.6.92-1.22,1.82-1.86,2.71-.52.73.7,1.39,1.21.66A90.48,90.48,0,0,0,64.24,138a88.85,88.85,0,0,0,4.16-27.27c0-10-1.16-20-2.17-29.88-1-9.72-1.87-19.52-1.33-29.31.53-9.52,2.49-19,7-27.43q.81-1.52,1.71-3c.35-.58-.56-1.06-.9-.5Z"/><path class="cls-1" d="M86,55.54a4.4,4.4,0,0,1,2.33.25A1.08,1.08,0,0,1,89,57.07a2.29,2.29,0,0,1-1.37,1.12c-.77.31-1.56.53-2.31.89a.73.73,0,0,0-.35.81,2.6,2.6,0,0,0,1.39,1.54c.52.29,1.22.45,1.57,1s-.24.68-.61.73a5,5,0,0,1-1.22-.1,3.46,3.46,0,0,0-1.36.06.64.64,0,0,0,.14,1.25,8.64,8.64,0,0,0,3,.15,2.09,2.09,0,0,0,1.66-1.78,2.42,2.42,0,0,0-1.39-2.12c-.61-.37-1.46-.55-1.78-1.25l-.28,1c.88-.58,2-.64,2.9-1.15a3,3,0,0,0,1.65-2.28,2.6,2.6,0,0,0-1.36-2.34A5.43,5.43,0,0,0,86,54.07c-1,0-1,1.52,0,1.47Z"/><path class="cls-1" d="M94.22,54.65a2,2,0,0,0-1.07,2.09,7.29,7.29,0,0,0,1.11,2.67,2.58,2.58,0,0,1-.24,2.7,2.37,2.37,0,0,1-.93.73c-.44.2-.94.23-1.38.41s-.71.85-.17,1.13a2.91,2.91,0,0,0,3-.73,3.84,3.84,0,0,0,1.32-2.92,5.82,5.82,0,0,0-1.13-3c-.32-.56-.75-1.66.06-2.05s.11-1.36-.6-1Z"/><path class="cls-1" d="M95.82,56h1.93a6.58,6.58,0,0,0,2-.19.7.7,0,0,0,.52-.64.66.66,0,0,0-.5-.64,6.53,6.53,0,0,0-2-.22H95.85a.9.9,0,0,0-.88.85.85.85,0,0,0,.85.84Z"/><path class="cls-1" d="M86.76,134c-.21,1.77-.39,3.53-.54,5.31-.07.87-.14,1.74-.2,2.61a5.22,5.22,0,0,0,.09,2.61.63.63,0,0,0,1.08,0,5.4,5.4,0,0,0,.32-2.51c0-.9.09-1.8.14-2.71.11-1.77.25-3.54.41-5.3.08-.84-1.2-.79-1.3,0Z"/><path class="cls-1" d="M86.47,138.54a7.23,7.23,0,0,0-3.7.55l.9.36a9.34,9.34,0,0,1,0-1.4c0-.48,0-1,0-1.44s0-1,0-1.44a3,3,0,0,0-.23-1.48.56.56,0,0,0-1,0,3,3,0,0,0-.19,1.49l.06,1.49.06,1.44a8.24,8.24,0,0,1,0,1.49.59.59,0,0,0,.76.58,7.3,7.3,0,0,1,3.23-.52.6.6,0,0,0,.59-.57.56.56,0,0,0-.57-.56Z"/><path class="cls-1" d="M92.41,136.06c-.54,1.63-.79,3.66.24,5.17a3.51,3.51,0,0,0,4.06,1.52,4.72,4.72,0,0,0,2.66-4.41,4.14,4.14,0,0,0-2.84-3.66,4.07,4.07,0,0,0-2.58.12c-.88.34-2,1-2,2.06a.67.67,0,0,0,1,.57,4.39,4.39,0,0,0,.71-.58l.18-.14c.13-.11-.17.1.07-.06a2.65,2.65,0,0,1,.39-.23,2.73,2.73,0,0,1,1.33-.26,2.52,2.52,0,0,1,2.11,2,3.27,3.27,0,0,1-1.29,3,1.46,1.46,0,0,1-1.24.17,2.36,2.36,0,0,1-1.22-.81c-.94-1.1-.69-2.85-.3-4.16.25-.83-1-1.11-1.28-.32Z"/><path class="cls-1" d="M34.93,119.48c-.08,1.32-.2,2.63-.36,4-.08.63-.18,1.26-.27,1.89s-.35,1.49,0,2a.56.56,0,0,0,.75.18,2.69,2.69,0,0,0,.77-1.86c.12-.69.22-1.39.3-2.09.17-1.36.28-2.73.35-4.1,0-1-1.51-1-1.56,0Z"/><path class="cls-1" d="M35.16,122.54a13.1,13.1,0,0,1-3.7-.1l.34.82a8.49,8.49,0,0,0,.72-2.84,5.87,5.87,0,0,0,0-1.45,2.09,2.09,0,0,0-.65-1.36.44.44,0,0,0-.6.17,2.93,2.93,0,0,0-.09,1.29c0,.44.07.87.07,1.31a8,8,0,0,1-.46,2.47c-.14.38.2.66.54.7a16,16,0,0,0,3.85,0,.56.56,0,0,0,.54-.53.53.53,0,0,0-.52-.52Z"/><path class="cls-1" d="M40.31,118.53A2.62,2.62,0,0,0,39,121.38c.25,1.2,1.41,1.68,2.07,2.59a3.13,3.13,0,0,1,.57,1.6c0,.38,0,1-.41,1.09a9.18,9.18,0,0,1-2,0,5.25,5.25,0,0,0-2.24.23.55.55,0,0,0,0,.95,2.47,2.47,0,0,0,1.14.29,11.5,11.5,0,0,0,1.17.08,9.17,9.17,0,0,0,2.22-.1c1.47-.34,1.75-1.81,1.47-3.1a4.77,4.77,0,0,0-.77-1.72A10.48,10.48,0,0,0,40.88,122a1.46,1.46,0,0,1-.57-1.26,1.34,1.34,0,0,1,.71-1c.83-.44.12-1.67-.71-1.23Z"/><path class="cls-1" d="M41.38,120.12l1.42.06c.47,0,1,0,1.42,0a.71.71,0,0,0,.7-.6.66.66,0,0,0-.49-.75c-.53-.08-1-.18-1.57-.23l-1.45-.13a.87.87,0,0,0-.62.26.86.86,0,0,0-.25.59.83.83,0,0,0,.84.83Z"/><path class="cls-1" d="M30.92,40.94a2,2,0,0,0-1.34,2.25,6.66,6.66,0,0,0,1.58,2.6l1,1.32c.17.24.34.47.5.71s.28.36.25.52c0-.1-.09,0-.17,0a4.46,4.46,0,0,1-.73.24c-.32.08-.66,0-.73-.33s-.8-.51-1-.12a1.31,1.31,0,0,0,.32,1.62,2,2,0,0,0,1.83.37A3.65,3.65,0,0,0,34,49.38a1.57,1.57,0,0,0,.22-1.83A8.17,8.17,0,0,0,33.06,46c-.4-.5-.8-1-1.18-1.5a3.49,3.49,0,0,1-.81-1.37.63.63,0,0,1,.05-.45l.09-.14c-.06,0-.05,0,.05,0-.07,0-.05,0,.06,0a.82.82,0,0,0-.4-1.58Z"/><path class="cls-1" d="M32.26,42.1a2.88,2.88,0,0,1,.4-.09c.22,0-.15,0,0,0l.22,0a5,5,0,0,1,.77,0h0l.2,0,.37.08.38.1a1.35,1.35,0,0,0,.36.07h.1c-.1,0-.11,0,0,0a.76.76,0,0,0,.79-.34.71.71,0,0,0-.1-.82,1.66,1.66,0,0,0-.44-.36,4.2,4.2,0,0,0-.55-.22,4.29,4.29,0,0,0-.86-.2,5.21,5.21,0,0,0-2.08.13.88.88,0,0,0-.63,1,.86.86,0,0,0,1,.59Z"/><path class="cls-1" d="M39.13,42.3a6.77,6.77,0,0,0-2.07,4.37c-.11,1.34.35,3,1.69,3.55,1.79.75,3.46-.76,4.42-2.13s1.89-3.37.92-4.77a5.59,5.59,0,0,0-2.23-1.7,4.26,4.26,0,0,0-2.94-.47.53.53,0,0,0-.14,1,16.11,16.11,0,0,0,1.91.69,7.12,7.12,0,0,1,1.68.89A1.11,1.11,0,0,1,42.93,45a6.64,6.64,0,0,1-.7,1.67,6.49,6.49,0,0,1-1.16,1.45,2,2,0,0,1-1.44.72c-.88-.09-1.14-1.27-1.13-2A5.31,5.31,0,0,1,40,43.18c.59-.6-.3-1.44-.9-.88Z"/><path class="cls-1" d="M8.65,2.06A4.8,4.8,0,0,0,4.51,0,4,4,0,0,0,.64,3C.32,5.05,2.31,6.3,3.82,7.2A26.5,26.5,0,0,1,6.39,8.83c.56.42,1.94,1.32.91,2a4.27,4.27,0,0,1-1.7.39,8.76,8.76,0,0,1-2,.08A3.39,3.39,0,0,1,1.05,9.79a.57.57,0,0,0-1,.43c.57,2,2.88,2.66,4.76,2.52a6.89,6.89,0,0,0,3.28-.8A2,2,0,0,0,9,9.63C8.67,8.67,7.6,8,6.81,7.42s-1.72-1.08-2.6-1.6A5.21,5.21,0,0,1,2.09,4,1.81,1.81,0,0,1,2.9,1.75a3.44,3.44,0,0,1,4.66.94c.44.65,1.53,0,1.09-.63Z"/></svg>