<svg id="Layer_1" data-name="Layer 1" xmlns="http://www.w3.org/2000/svg" viewBox="0 0 101.21 57.12"><defs><style>.cls-1{fill:#486afb;}.cls-2{fill:#fd46fc;}</style></defs><path class="cls-1" d="M10.2,1.88c-1.14-.78-2-2-3.57-1.87C4.88.16,4.57,2,4.31,3.39A29.33,29.33,0,0,0,3.8,8.51c0,.82,0,1.64.07,2.46s0,1.89.75,2.45a.65.65,0,0,0,1-.14,2.73,2.73,0,0,0,.2-2c-.07-.67-.11-1.34-.14-2a30.07,30.07,0,0,1,.17-4.24c.08-.66.19-1.32.32-2,.07-.39.09-1.24.52-1.43S7.64,1.8,8,2c.51.37,1,.82,1.48,1.17.81.55,1.55-.77.75-1.32Z"/><path class="cls-1" d="M.56,8.13A24.24,24.24,0,0,0,4.79,9c.74.1,1.48.19,2.22.26s1.66.23,2.22-.3a.75.75,0,0,0,0-1C8.72,7.39,7.7,7.5,7,7.46s-1.34-.1-2-.17C3.65,7.14,2.32,6.83,1,6.63a.78.78,0,0,0-.4,1.5Z"/><path class="cls-1" d="M14.72,2.08c-1.26,2.55-2.55,5.31-2.21,8.23a10.66,10.66,0,0,0,4,6.81c.64.5,1.67-.13,1.2-.93-1.16-2-2.91-3.63-3.24-6s.89-5,2-7.15c.55-1.12-1.14-2.1-1.7-1Z"/><path class="cls-1" d="M32.76,2.68a11.46,11.46,0,0,1,2.92,5.67,9.46,9.46,0,0,1-1.25,6,.72.72,0,0,0,1.14.86c1.91-1.65,2.27-4.64,1.92-7A13.11,13.11,0,0,0,34,1.44c-.76-.83-2,.41-1.23,1.24Z"/><path class="cls-1" d="M48.54,9.77c1.18.22,2.37.4,3.56.54a9.91,9.91,0,0,0,3.52-.05.71.71,0,0,0,0-1.36,8.43,8.43,0,0,0-1.72-.33c-.56-.07-1.11-.15-1.67-.21-1.07-.12-2.13-.28-3.19-.48a1,1,0,0,0-.51,1.89Z"/><path class="cls-1" d="M50.08,13.53c1.17,0,2.33.07,3.5.13a19.71,19.71,0,0,0,3.52,0,.67.67,0,0,0,.49-.64.71.71,0,0,0-.49-.65,12.3,12.3,0,0,0-3.51-.65c-1.16-.12-2.33-.18-3.5-.21a1,1,0,1,0,0,2Z"/><path class="cls-2" d="M23.25,12.82c.88-.78,1.73-1.58,2.55-2.41.4-.41.79-.83,1.16-1.26S28,8,27.86,7.32a.6.6,0,0,0-.55-.43,1.36,1.36,0,0,0-1,.43c-.22.18-.44.36-.65.55-.44.39-.87.8-1.29,1.2-.84.8-1.69,1.59-2.55,2.36a1,1,0,0,0,0,1.4,1,1,0,0,0,1.41,0Z"/><path class="cls-2" d="M22.47,8.75c.7.9,1.4,1.8,2.12,2.68l1.08,1.32A12.37,12.37,0,0,0,26.86,14,.72.72,0,0,0,28,13.09a6.65,6.65,0,0,0-.41-.74c-.15-.24-.33-.46-.5-.69L26,10.26c-.73-1-1.49-1.9-2.24-2.84a.93.93,0,0,0-1.32,0,1,1,0,0,0,0,1.32Z"/><path class="cls-2" d="M67.24,10.38A26.62,26.62,0,0,0,69,12.73a10.9,10.9,0,0,0,.92,1c.16.16.31.32.48.46a4.32,4.32,0,0,0,.73.47.74.74,0,0,0,1-1c-.12-.18-.23-.36-.35-.53s-.36-.42-.55-.63-.61-.67-.9-1c-.15-.16-.29-.33-.43-.5l-.21-.26-.09-.11-.06-.08c.06.1,0,0,0,0l-.11-.15-.2-.27-.41-.57a.9.9,0,1,0-1.55.9Z"/><path class="cls-2" d="M73.09,10.57a33.16,33.16,0,0,0-2.48,6.05A20.39,20.39,0,0,0,69.54,23c0,.92,1.43,1.19,1.65.23.45-2,.73-4.05,1.31-6a30.51,30.51,0,0,1,2.32-5.68c.6-1.13-1.13-2.13-1.73-1Z"/><path class="cls-2" d="M23.56,27.78c.08,2.15.11,4.31.15,6.46s0,4.33.24,6.47c.07.65,1.14,1,1.26.17a41.51,41.51,0,0,0,.3-6.5c0-2.2-.12-4.4-.23-6.59-.05-1.11-1.76-1.13-1.72,0Z"/><path class="cls-2" d="M22.67,27.71c-.36.33-.72.66-1.07,1-.16.16-.34.32-.49.5a6.85,6.85,0,0,0-.5.7.53.53,0,0,0,.05.59.53.53,0,0,0,.55.19,6.36,6.36,0,0,0,.75-.34,4.93,4.93,0,0,0,.61-.4l1.16-.86a.87.87,0,0,0,.33-.33l.08-.2A.83.83,0,0,0,24,27.8a.88.88,0,0,0-1.31-.09Z"/><path class="cls-2" d="M24.82,29.6a14.9,14.9,0,0,0,1.87,1.49c.29.2.6.39.91.57a5,5,0,0,0,1.22.43.82.82,0,0,0,1-.48.83.83,0,0,0-.34-1l-.23-.16s-.13-.1,0,0,0,0,0,0a4.57,4.57,0,0,0-.57-.41q-.45-.27-.9-.57a4.13,4.13,0,0,0-.42-.31s.17.13.06.05l-.1-.08L27,28.89c-.28-.23-.54-.46-.8-.71a1,1,0,1,0-1.4,1.42Z"/><path class="cls-2" d="M13.17,45.4a7,7,0,0,0,0,1.52c0,.22.09.43.15.64a4.17,4.17,0,0,0,.33.75.62.62,0,0,0,.7.3.67.67,0,0,0,.48-.61c0-.21,0-.42,0-.63s0-.44,0-.66a11.45,11.45,0,0,1,.07-1.3.85.85,0,0,0-.27-.63.89.89,0,0,0-.61-.26.92.92,0,0,0-.9.88Z"/><path class="cls-2" d="M12.92,42a2,2,0,0,0,.48.77,1.87,1.87,0,0,0,.35.28l.16.09a.65.65,0,0,0,.28.08.53.53,0,0,0,.37-.17,1,1,0,0,0,.27-.42.79.79,0,0,0,.05-.4,1.07,1.07,0,0,0-.14-.5,1.09,1.09,0,0,0-.38-.36,1.12,1.12,0,0,0-.54-.15,1,1,0,0,0-.29,0,.64.64,0,0,0-.35.23l-.07.1a.28.28,0,0,0-.06.18.46.46,0,0,0,.06.3.39.39,0,0,0,.18.18.45.45,0,0,0,.36,0l.08,0a.68.68,0,0,0,.2-.07l-.13,0,.16,0-.13,0a.43.43,0,0,1,.16,0l-.12,0,.14,0-.11,0,.12.07-.1-.08a.6.6,0,0,1,.08.08l-.08-.09a.41.41,0,0,1,.07.11l-.05-.11a.28.28,0,0,1,0,.13V42.2a.86.86,0,0,1,0,.16v-.12a.8.8,0,0,1,0,.15l0-.11a1,1,0,0,1-.08.14l.07-.1a.26.26,0,0,1-.09.09l.1-.07h0l.35,0h0l.11.05a1.68,1.68,0,0,1-.37-.21l.09.07a1.85,1.85,0,0,1-.28-.28l.07.09a1.5,1.5,0,0,1-.19-.32l0,.1v0a.48.48,0,0,0-.08-.16.33.33,0,0,0-.13-.11.48.48,0,0,0-.33,0,.51.51,0,0,0-.27.21.42.42,0,0,0,0,.33Z"/><path class="cls-2" d="M16.93,47.5a1.74,1.74,0,0,1-.05-.22.43.43,0,0,1,0-.11s0-.1,0,0a3.38,3.38,0,0,1,0-.45,1.09,1.09,0,0,1,.07-.35s0-.06,0-.08.05-.12,0-.07l0-.06.07-.11c.06-.1,0,0,0,0l.07-.08.14-.13c-.09.08,0,0,0,0l.08,0c.08,0,0,0,0,0a.55.55,0,0,1,.17,0l.1,0s.08,0,0,0,0,0,0,0h.18c.13,0,0,0,0,0l.17,0c.12,0-.13-.08,0,0a.2.2,0,0,0,.08,0s.09.08,0,0,0,0,0,0l.08.08c.09.09-.12-.18,0,0l.06.12c.09.16-.06-.19,0,0s0,.12.05.18c.14.42.16.88.3,1.31a2.42,2.42,0,0,0,.46.85,1.32,1.32,0,0,0,.91.44.56.56,0,0,0,.39-.95c-.12-.12,0,.09,0,0l-.08-.13a.75.75,0,0,0-.07-.12c0-.05,0-.11,0,.07a.38.38,0,0,1,0-.1,1.63,1.63,0,0,1-.07-.3s0-.07,0-.1,0,.17,0,.08a.78.78,0,0,0,0-.16s0-.3,0-.13,0-.06,0-.08a1.37,1.37,0,0,1,0-.19c0-.19,0-.37-.08-.55a2.66,2.66,0,0,0-.3-.83,2,2,0,0,0-.75-.74,1.92,1.92,0,0,0-1.2-.18,2.15,2.15,0,0,0-1.59,1.12,4.24,4.24,0,0,0-.23.59,3.62,3.62,0,0,0-.1.62,3.42,3.42,0,0,0,.08,1.19.54.54,0,0,0,.65.38.55.55,0,0,0,.39-.65Z"/><path class="cls-2" d="M21.31,46.88c0,1.38.14,2.77.29,4.15.08.73.18,1.48.33,2.21s.26,1.68,1.06,1.68.74-1.17.69-1.75-.16-1.43-.24-2.14c-.17-1.37-.29-2.76-.35-4.14a.89.89,0,1,0-1.78,0Z"/><path class="cls-2" d="M22.51,46.15a3.57,3.57,0,0,1,.73-.1h.41l.19,0H24a5.22,5.22,0,0,1,.78.19c.11,0-.07,0,0,0l.15.08.12.08c.07,0,0,0,0,0l.07.06s0,0,.05.05-.06-.11,0,0l0,.06c0,.06,0,0,0,0s0-.07,0,0,0,.09,0,0v0h0s-.05.12,0,0c0,0,0,.05,0,.08l-.09.15,0,0-.05.06-.14.15c-.17.17-.36.33-.54.49l.05,0-.06.05-.14.1-.32.2c-.23.14-.44.29-.67.42l-.32.2a1.08,1.08,0,0,0-.24.18l-.05,0,0,0a.38.38,0,0,0,.09.7l.1,0h0c-.05,0,0,0,.1,0a.8.8,0,0,0,.26.05,1.56,1.56,0,0,0,.53,0,3.15,3.15,0,0,0,.94-.31A4.31,4.31,0,0,0,25.94,48a1.76,1.76,0,0,0,.33-2.11A2.52,2.52,0,0,0,24.59,45a5.38,5.38,0,0,0-2.36.1.56.56,0,0,0-.4.68.58.58,0,0,0,.68.4Z"/><path class="cls-2" d="M26.7,46.88A3.55,3.55,0,0,0,28.2,49a2.54,2.54,0,0,0,2.58,0,2.11,2.11,0,0,0,1-2.23,1.59,1.59,0,0,0-.62-1,.82.82,0,0,0-.91-.08.65.65,0,0,0-.3.59.84.84,0,0,0,.14.48c.07.12-.07-.19,0-.06l0,.1.06.21c0,.14,0-.21,0-.06v.11s0,.07,0,.11c0-.24,0-.14,0-.07l0,.11c-.06.18,0-.07,0-.07s-.2.32-.06.13,0,0,0,0a1.31,1.31,0,0,1-.12.11l.19-.15a1.29,1.29,0,0,1-.32.19l.23-.1a1.88,1.88,0,0,1-.45.12l.24,0a1.48,1.48,0,0,1-.42,0l.24,0a2.56,2.56,0,0,1-.46-.11l.24.09a1.64,1.64,0,0,1-.43-.24l.2.15a2.38,2.38,0,0,1-.42-.42l.16.21a2.73,2.73,0,0,1-.34-.6l.1.24a2.3,2.3,0,0,1-.12-.34,1,1,0,0,0-1.88.48Z"/><path class="cls-2" d="M32.76,41.89c.11,1,.24,2,.42,3a8.58,8.58,0,0,0,.87,2.85.65.65,0,0,0,1.2-.32A7.4,7.4,0,0,0,35.12,46c-.08-.46-.14-.92-.23-1.39-.16-.88-.29-1.79-.39-2.66a.89.89,0,0,0-.87-.87c-.43,0-.93.38-.87.86Z"/><path class="cls-2" d="M32,44.73a36.61,36.61,0,0,0,5.73.21.66.66,0,0,0,.64-.57.65.65,0,0,0-.47-.71A36.46,36.46,0,0,0,32,42.74a1,1,0,0,0-1,1,1,1,0,0,0,1,1Z"/><path class="cls-2" d="M62.57,45.2a3,3,0,0,0,2.51,3.74,2.35,2.35,0,0,0,2.3-1.17,2.13,2.13,0,0,0,.2-1.29,1.69,1.69,0,0,0-.8-1.11,4,4,0,0,0-1.5-.51,4.28,4.28,0,0,0-1.85,0,.55.55,0,0,0,.13,1.07c.22,0,.41-.05.62-.06a4.28,4.28,0,0,1,.62,0,4.07,4.07,0,0,1,1.14.24,1.64,1.64,0,0,1,.38.18.77.77,0,0,1,.27.27,1.19,1.19,0,0,1,.07.27.73.73,0,0,1-.06.42,1,1,0,0,1-.55.48c.09,0-.11,0-.12,0l-.22,0h-.39c.08,0-.08,0-.08,0l-.09,0L65,47.64c-.11,0,0,0,0,0l-.11,0-.21-.12-.18-.13c.12.09,0,0-.06-.05L64.09,47c-.06-.07.07.1,0,0a.83.83,0,0,1-.08-.12,1.19,1.19,0,0,1-.12-.22l0-.09,0-.06c0,.07,0,.09,0,0s-.05-.15-.07-.23,0-.17-.05-.24,0,.1,0,0,0-.1,0-.14a2.09,2.09,0,0,0,0-.25c0-.08,0,.09,0,0a.85.85,0,0,0,0-.17.62.62,0,0,0-1.19-.32Z"/><path class="cls-2" d="M67.87,46.85a9.17,9.17,0,0,0,1.62,1.42,3.45,3.45,0,0,0,1.91.82,1.36,1.36,0,0,0,1.16-.73,3.66,3.66,0,0,0,.29-1.17,5.27,5.27,0,0,0,0-1,5,5,0,0,0-.09-.66,2.37,2.37,0,0,0-.21-.58.53.53,0,0,0-1,.12,5.18,5.18,0,0,0-.17,1c0,.17,0-.05,0,.1s0,.24-.06.36,0,.16,0,.24,0-.09,0,.09,0,.27-.08.41,0,.37-.11.42l0-.08,0,.09c.06-.08.08-.1,0-.06s0,0,.06-.05.14,0,.06,0h.1c-.15,0,.15.05,0,0,0,0-.19-.08-.09,0l-.11-.07-.32-.19-.35-.24a1.18,1.18,0,0,1-.18-.13c.17.15-.08-.06-.16-.12s.14.11,0,0L70,46.55l-.34-.3a8.21,8.21,0,0,1-.6-.58.85.85,0,0,0-1.18,0,.85.85,0,0,0,0,1.18Z"/><path class="cls-2" d="M73.93,43c.55,1.82.91,3.69,1.49,5.49a.62.62,0,0,0,1.22-.15,20.92,20.92,0,0,0-1.11-5.75.83.83,0,1,0-1.6.41Z"/><path class="cls-2" d="M74.72,45.23c1.6-.09,3.19-.19,4.78-.4a.61.61,0,0,0,.45-.67.63.63,0,0,0-.6-.54c-1.53-.21-3.07-.3-4.62-.38a1,1,0,0,0-1,1,1,1,0,0,0,1,1Z"/><path class="cls-2" d="M81,46.44c.16,1.73.27,3.45.35,5.18a39.89,39.89,0,0,0,.44,5.12.52.52,0,0,0,1,0,21.32,21.32,0,0,0,.36-5.11c0-1.73-.15-3.45-.31-5.18a.92.92,0,0,0-1.84,0Z"/><path class="cls-2" d="M82.2,45.47a3.83,3.83,0,0,1,3.29,1.28c.16.18.35.41.16.63a2,2,0,0,1-.75.44,10.47,10.47,0,0,1-2.28.66c-.21,0-.16.37,0,.37a7.55,7.55,0,0,0,2.16-.34c.56-.16,1.31-.37,1.58-.95s-.21-1.31-.69-1.73A4.24,4.24,0,0,0,84.09,45a4.44,4.44,0,0,0-2-.11.33.33,0,1,0,.16.63Z"/><path class="cls-2" d="M87.31,46.68a6.61,6.61,0,0,0,1.59,1.66,2.78,2.78,0,0,0,2.31.7,2.1,2.1,0,0,0,1.43-1.65,3.28,3.28,0,0,0,0-1.25A1.81,1.81,0,0,0,92,45a.49.49,0,0,0-.67.19,1,1,0,0,0-.07.67c0,.18,0,.27.06.45,0-.07,0,.12,0,.12a1.55,1.55,0,0,1,0,.22.71.71,0,0,1,0,.14c0,.08,0,.1,0,.06a.84.84,0,0,0,0,.13s-.09.23,0,.06l-.08.15a1.1,1.1,0,0,0-.09.14c.07-.08.07-.1,0,0l0,0a.27.27,0,0,1-.08.07s0,0,0,0,.06,0,0,0l-.07,0,.08,0-.1,0c-.14.05.19,0,0,0,0,0-.24,0,0,0a1.33,1.33,0,0,1-.19-.05c-.18,0,.11.06,0,0l-.21-.11L90,47l-.16-.11c-.08,0-.14-.09,0,0a4.68,4.68,0,0,1-.62-.56,3.45,3.45,0,0,1-.26-.28l-.13-.15c-.06-.07,0-.06,0,0l-.07-.1a.84.84,0,0,0-1.46.84Z"/><path class="cls-2" d="M94.34,43c.81,2.07,1.28,4.24,2,6.34.13.39.82.5.89,0a13.53,13.53,0,0,0-1.1-6.81.93.93,0,0,0-1.1-.64.91.91,0,0,0-.65,1.1Z"/><path class="cls-2" d="M94.49,44.58c2-.18,4.06-.22,6.1-.28a.62.62,0,0,0,.16-1.22,30.37,30.37,0,0,0-6.25-.3.9.9,0,0,0,0,1.8Z"/><path class="cls-2" d="M69.6,27.67c.08,2.15.11,4.31.15,6.46s0,4.33.24,6.47c.07.65,1.14,1,1.26.17a41.5,41.5,0,0,0,.29-6.5c0-2.2-.11-4.4-.22-6.59-.06-1.1-1.76-1.12-1.72,0Z"/><path class="cls-2" d="M68.71,27.61c-.35.33-.72.65-1.06,1a6,6,0,0,0-.5.51,6.72,6.72,0,0,0-.5.69.54.54,0,0,0,.6.78,7.19,7.19,0,0,0,.75-.34,4.81,4.81,0,0,0,.6-.4c.4-.28.78-.57,1.17-.87a.82.82,0,0,0,.32-.32l.09-.2a.86.86,0,0,0-.16-.76.88.88,0,0,0-1.31-.08Z"/><path class="cls-2" d="M70.86,29.49A15.87,15.87,0,0,0,72.73,31c.3.2.6.39.91.56a4.68,4.68,0,0,0,1.22.44.82.82,0,0,0,1-.48.84.84,0,0,0-.35-1l-.22-.16s-.14-.11,0,0,0,0,0,0c-.19-.14-.37-.29-.57-.41s-.61-.37-.9-.57a4,4,0,0,0-.42-.3.69.69,0,1,0,.06,0l-.1-.07-.21-.18a10.69,10.69,0,0,1-.8-.71,1,1,0,1,0-1.4,1.42Z"/></svg>