<svg id="Layer_1" data-name="Layer 1" xmlns="http://www.w3.org/2000/svg" viewBox="0 0 402.44 225.6"><defs><style>.cls-1{fill:#486afb;}.cls-2{fill:#fd46fc;}</style></defs><path class="cls-1" d="M11.37,32.17c0,1.12,0,2.25,0,3.37s.06,2.25,0,3.36-.48,2.25-.62,3.39a26.09,26.09,0,0,0-.11,3.31A53.38,53.38,0,0,1,10,52.27,51.34,51.34,0,0,0,9.59,59c0,4.52-.4,9-.15,13.53s.58,9.22.79,13.84.52,9.26.53,13.91-.07,9.34-.09,14c0,9.3-.05,18.61-.23,27.92,0,2.34-.12,4.68-.22,7s.18,4.52.24,6.79c.11,4.43-.36,9,.18,13.36a18.52,18.52,0,0,0,.7,3.12c.23.74,1.35.31,1.26-.4a99.49,99.49,0,0,1-.41-13.26c0-2.24-.11-4.46-.24-6.7s.05-4.61.1-6.92c.2-9.25,0-18.51-.07-27.76s.24-18.52-.32-27.74c-.28-4.58-.35-9.17-.64-13.75-.14-2.31-.3-4.62-.29-6.93s.24-4.47.34-6.71,0-4.47.18-6.7.55-4.44.73-6.67-.1-4.45.13-6.65c.12-1.1.34-2.17.43-3.27s0-2.25,0-3.37,0-2.24,0-3.37c0-.74-1.14-.83-1.15-.09Z"/><path class="cls-1" d="M12.84,174.36a44,44,0,0,0,5.26,0c1.75,0,3.49.13,5.24,0s3.6-.33,5.41-.41,3.53-.19,5.29-.37c3.56-.38,7.15,0,10.72-.2s7.06-.22,10.6-.27,7.19-.11,10.78-.36,7.29-.42,10.94-.48c7.16-.1,14.34-.08,21.5,0,2,0,4,.14,6,.25s4,.12,6,.23c4,.2,8.09.83,12.11.44a.76.76,0,0,0,0-1.51c-7.2-.42-14.41-.8-21.62-1-3.49-.1-7,0-10.48,0s-7.25,0-10.88.07c-7.18.08-14.32.78-21.49.92-3.62.08-7.24.08-10.86.21-1.79.06-3.57.15-5.36.15s-3.55,0-5.33,0-3.83.33-5.75.45-4.07.14-6.09.35a57.33,57.33,0,0,1-5.86.16c-2,0-4,.24-6,0a.61.61,0,0,0-.11,1.21Z"/><path class="cls-1" d="M120,31.21a38.07,38.07,0,0,0-.29,6.75,10.35,10.35,0,0,0,.19,1.36,4.52,4.52,0,0,1,0,1.72c-.21,1.11-.29,2.25-.39,3.37a138.17,138.17,0,0,0-.43,14.1c0,2.32,0,4.64,0,7s.14,4.53.25,6.81,0,4.62.21,6.93.32,4.69.39,7c.14,4.64.08,9.29.09,13.93,0,2.33,0,4.67,0,7a50.79,50.79,0,0,1-.16,6.76c-.13,1.1-.32,2.2-.43,3.31a31.22,31.22,0,0,0-.09,3.49c0,2.3-.12,4.59-.24,6.89-.23,4.63-.13,9.28-.14,13.92,0,9.4.25,18.8.68,28.19.06,1.17.11,2.33.19,3.49,0,.72,1.19.63,1.24-.06a123,123,0,0,0-.13-14c-.18-4.71-.25-9.42-.26-14.14s-.05-9.33,0-14c0-2.28.15-4.56.24-6.84s-.09-4.66.13-7,.57-4.42.6-6.67-.09-4.52-.09-6.79c0-4.69,0-9.38,0-14.07,0-2.29-.11-4.58-.24-6.87s-.36-4.68-.42-7-.21-4.54-.33-6.82,0-4.66,0-7c0-4.67-.08-9.36.18-14a53.62,53.62,0,0,1,.57-6.82,5.51,5.51,0,0,0,.12-1.46c0-.5-.18-1-.24-1.49a23.51,23.51,0,0,1,0-3.46,32.46,32.46,0,0,1,.3-3.41c.13-.93-1.31-1-1.44-.12Z"/><path class="cls-1" d="M12.84,32.73c14.5,0,29,.09,43.48.1s28.81.09,43.22.19c4.08,0,8.16,0,12.24,0s8.14.08,12.17-.26c.65-.06.6-1.08,0-1.13-3.64-.31-7.33-.25-11-.26s-7.17,0-10.75,0c-7.21,0-14.42.08-21.63.12q-21.61.09-43.25.13c-8.12,0-16.24.06-24.37.06-.65,0-.77,1-.1,1Z"/><path class="cls-1" d="M235.82,56.13C251.87,56,267.91,55.76,284,56c4.57,0,9.14.18,13.71.15a.27.27,0,1,0,0-.53c-4.07-.14-8.14-.12-12.22-.13s-8-.06-12,0q-12,0-23.94.11c-4.57,0-9.15.1-13.72.22-.26,0-.28.41,0,.41Z"/><path class="cls-1" d="M239.91.21q.33,23.21.06,46.42c-.05,4.32-.33,8.67-.13,13a.22.22,0,0,0,.43,0c.31-3.89.2-7.84.22-11.73s0-7.66.08-11.48q.13-11.61,0-23.21-.09-6.49-.19-13a.22.22,0,0,0-.44,0Z"/><path class="cls-1" d="M239.68.4l-.85.78-.41.39c-.14.13-.34.28-.39.47a.19.19,0,0,0,.22.23.79.79,0,0,0,.29-.18l.2-.18.43-.4L240,.73a.25.25,0,0,0,0-.34.25.25,0,0,0-.34,0Z"/><path class="cls-1" d="M240.27,1.08l.65.71.33.35.17.17c.08.07.17.12.25.18a.34.34,0,0,0,.46-.45A1.49,1.49,0,0,0,242,1.8l-.17-.21-.33-.36-.66-.71a.4.4,0,0,0-.56,0,.4.4,0,0,0,0,.55Z"/><path class="cls-1" d="M297.56,55.21a6.11,6.11,0,0,0-.63-1,2.68,2.68,0,0,0-.83-.74.29.29,0,0,0-.34.05.29.29,0,0,0,0,.33c.1.15.22.3.34.45l.18.19.08.1.05,0,0,0s0,0,0,0l.05.06.07.1.15.22a4.25,4.25,0,0,1,.27.46.37.37,0,0,0,.48.12.36.36,0,0,0,.14-.48Z"/><path class="cls-1" d="M297,56c-.4.2-.79.38-1.16.61s-.76.44-1.12.68c-.14.09-.07.34.11.28a17.77,17.77,0,0,0,2.43-1.11.27.27,0,0,0,.11-.36A.28.28,0,0,0,297,56Z"/><path class="cls-1" d="M300,57.4A22.05,22.05,0,0,0,300,60a.26.26,0,0,0,.51.06,21.18,21.18,0,0,0,.2-2.64.35.35,0,0,0-.36-.36.4.4,0,0,0-.37.37Z"/><path class="cls-1" d="M301.11,58.17a5.88,5.88,0,0,0,.1,1.87.29.29,0,0,0,.57-.07c0-.61,0-1.21.1-1.81,0-.2-.19-.38-.38-.38a.4.4,0,0,0-.39.39Z"/><path class="cls-1" d="M300.65,57.58a1.68,1.68,0,0,1,2.34.22c.11.13.28.39.18.57s-.28.17-.41.21c-.38.12-.84.25-.92.71a.27.27,0,0,0,.07.27,10.39,10.39,0,0,0,1.27.9,5.31,5.31,0,0,0,1.41.65.28.28,0,0,0,.22-.51c-.41-.28-.86-.49-1.29-.73s-.85-.5-1.27-.76l.13.31c0-.15.26-.17.42-.21a1.85,1.85,0,0,0,.65-.26,1.12,1.12,0,0,0-.05-1.71,2.26,2.26,0,0,0-3.1,0c-.24.24.11.56.35.35Z"/><path class="cls-1" d="M8.59,13.37a4.73,4.73,0,0,0-4.11-2,3.93,3.93,0,0,0-3.84,3c-.32,2,1.67,3.28,3.16,4.17A26.65,26.65,0,0,1,6.38,20.1c.58.43,2,1.36.9,2a4.33,4.33,0,0,1-1.71.4,8.82,8.82,0,0,1-2,.07A3.41,3.41,0,0,1,1,21.1c-.31-.47-1.13-.17-1,.4.57,2,2.86,2.64,4.73,2.51A7,7,0,0,0,8,23.21a2,2,0,0,0,.91-2.28c-.32-.94-1.39-1.64-2.17-2.19S5,17.66,4.17,17.14A5.15,5.15,0,0,1,2,15.31,1.85,1.85,0,0,1,2.85,13a3.49,3.49,0,0,1,4.71,1c.41.62,1.45,0,1-.6Z"/><path class="cls-2" d="M241.62,50.85c5.06,1.27,9.68-2.33,12.19-6.4A48.33,48.33,0,0,0,257.27,37c1.05-2.6,2.14-5.35,4.23-7.32,1.85-1.75,4.85-2.75,7.22-1.41,2.14,1.22,3,3.82,3.68,6,.88,2.87,1.85,5.7,3,8.48,1,2.37,1.88,5.08,3.71,6.94,2.22,2.26,5.57,2,8.49,2.12,3.62.13,7.24.34,10.87.35a.29.29,0,0,0,0-.58c-3.2-.23-6.42-.29-9.63-.4-1.57-.06-3.16-.08-4.73-.19a7.19,7.19,0,0,1-4-1.27c-2.09-1.6-3-4.49-4-6.83-1.19-2.87-2.21-5.8-3.13-8.77-.65-2.09-1.4-4.41-3.16-5.84a6,6,0,0,0-6.23-.6A10.81,10.81,0,0,0,258.51,33c-1.27,2.46-2.14,5.1-3.27,7.62a20.16,20.16,0,0,1-5.17,7.5,9.77,9.77,0,0,1-8.33,2.36c-.26-.06-.38.32-.12.39Z"/><path class="cls-2" d="M241.82,51a.06.06,0,1,0,0-.12c-.08,0-.09.12,0,.12Z"/><path class="cls-2" d="M241.82,53.13a.06.06,0,1,0,0-.12c-.08,0-.09.12,0,.12Z"/><path class="cls-2" d="M242.11,54.42a.06.06,0,1,0,0-.12.06.06,0,0,0,0,.12Z"/><path class="cls-2" d="M241.31,51.19l0,.23a.36.36,0,0,0,0,.11l0,.12a.31.31,0,0,0,0,.1.18.18,0,0,0,.08.07.29.29,0,0,0,.18,0,.25.25,0,0,0,.18-.08l0-.06a.23.23,0,0,0,0-.14l0-.12s0,0,0-.06v-.3a.35.35,0,0,0-.1-.26.51.51,0,0,0-.16-.09.33.33,0,0,0-.14,0,.33.33,0,0,0-.14,0,.52.52,0,0,0-.11.1.34.34,0,0,0-.06.12.31.31,0,0,0,0,.19Z"/><path class="cls-2" d="M241.38,53.18c0,.12,0,.24,0,.36s0,.23,0,.34a.23.23,0,0,0,.18.23.25.25,0,0,0,.27-.12,1.08,1.08,0,0,0,.17-.38,1.58,1.58,0,0,0,0-.43.29.29,0,0,0-.1-.23.26.26,0,0,0-.22-.09.31.31,0,0,0-.24.1.37.37,0,0,0-.1.22Z"/><path class="cls-2" d="M293.88,52v.65a2.31,2.31,0,0,0,0,.37.5.5,0,0,0,0,.16.88.88,0,0,0,.12.21.25.25,0,0,0,.35,0l.09-.14,0-.07a1.43,1.43,0,0,0,0-.22,1.62,1.62,0,0,0,0-.31V52a.35.35,0,0,0-.35-.34.37.37,0,0,0-.36.35Z"/><path class="cls-2" d="M293.75,54.18a2.37,2.37,0,0,0,0,.53.8.8,0,0,0,0,.21,1.15,1.15,0,0,0,.06.17l.06.09a.25.25,0,0,0,.26.12.21.21,0,0,0,.13,0,.23.23,0,0,0,.09-.14.9.9,0,0,0,0-.16v-.1c0-.08,0-.15,0-.23s0-.3,0-.45a.35.35,0,0,0-.35-.34.37.37,0,0,0-.36.35Z"/><path class="cls-2" d="M241.28,54.75a1.29,1.29,0,0,0,0,.34l0,.12.06.13,0,0a.32.32,0,0,0,.1.1.29.29,0,0,0,.18,0,.42.42,0,0,0,.14-.06.27.27,0,0,0,.1-.15,1.08,1.08,0,0,0,0-.19.49.49,0,0,1,0-.12,2.17,2.17,0,0,1,0-.26.18.18,0,0,0,0-.14.19.19,0,0,0-.07-.11.33.33,0,0,0-.25-.1.38.38,0,0,0-.26.11.37.37,0,0,0-.1.25Z"/><path class="cls-2" d="M242.81,54.46c.28-.52.54-1.05.77-1.6.11-.27.21-.54.31-.82l.15-.41a1.39,1.39,0,0,0,.09-.45c0-.15-.22-.28-.34-.13a2.79,2.79,0,0,0-.32.8c-.1.27-.2.55-.32.81a15.22,15.22,0,0,1-.75,1.58.23.23,0,0,0,.41.22Z"/><path class="cls-2" d="M244.68,54.71c.35-.58.68-1.18,1-1.79.15-.29.3-.6.44-.9a2.81,2.81,0,0,0,.34-.93c0-.12-.16-.18-.24-.09a3.33,3.33,0,0,0-.48.84l-.46.9c-.31.6-.63,1.19-1,1.77-.15.24.23.44.37.2Z"/><path class="cls-2" d="M247.63,54.41l1.14-3a27,27,0,0,0,1-3,.17.17,0,0,0-.32-.13,27.57,27.57,0,0,0-1.18,2.93l-1.12,3c-.1.27.33.36.43.11Z"/><path class="cls-2" d="M250.7,54.45c1-2,1.93-4.09,2.85-6.16s1.85-4,2.57-6.09c.08-.21-.26-.34-.36-.14-1,2-1.78,4.08-2.66,6.12s-1.78,4.08-2.67,6.12c-.08.19.18.34.27.15Z"/><path class="cls-2" d="M253.84,54.09q2.39-5.39,4.49-10.87c1.42-3.72,2.89-7.45,4-11.26.08-.27-.32-.35-.41-.1-1.35,3.7-2.54,7.46-3.94,11.15s-2.87,7.35-4.41,11c-.06.14.18.23.24.1Z"/><path class="cls-2" d="M257.2,53.27q2.24-5.52,4.39-11.08c1.43-3.7,3-7.38,4.17-11.16.06-.2-.25-.32-.33-.13-1.56,3.62-2.84,7.37-4.25,11.06s-2.86,7.49-4.31,11.23c-.08.21.25.28.33.08Z"/><path class="cls-2" d="M260.76,53q2.43-5.52,4.74-11.09,1.17-2.82,2.32-5.67A51.05,51.05,0,0,0,270,30.51a.2.2,0,0,0-.36-.15c-.9,1.75-1.55,3.67-2.27,5.5s-1.5,3.79-2.26,5.68q-2.3,5.67-4.66,11.31c-.09.21.27.34.36.14Z"/><path class="cls-2" d="M264.08,53.73q1.95-4.75,4-9.45c1.31-3,2.74-6,3.91-9.09.06-.16-.2-.26-.28-.11-1.59,2.93-2.88,6.05-4.18,9.11s-2.62,6.28-3.87,9.44c-.11.26.32.36.42.1Z"/><path class="cls-2" d="M268,53.94c1.82-4.2,4-8.26,5.77-12.46a.19.19,0,0,0-.34-.19,93.9,93.9,0,0,0-5.81,12.5c-.09.22.29.36.38.15Z"/><path class="cls-2" d="M271.51,53.52c.68-1.3,1.32-2.62,1.91-4a24.13,24.13,0,0,0,1.56-4c0-.19-.24-.31-.33-.13-.33.64-.56,1.32-.83,2s-.56,1.34-.85,2c-.59,1.32-1.21,2.61-1.87,3.89a.24.24,0,0,0,.41.23Z"/><path class="cls-2" d="M275.19,53.68c.37-.79.73-1.58,1.07-2.38a13.66,13.66,0,0,0,.92-2.4.2.2,0,0,0-.36-.14,24,24,0,0,0-1,2.34c-.32.8-.66,1.6-1,2.39-.11.23.23.42.34.19Z"/><path class="cls-2" d="M278.49,54.3l.75-1.7a12.11,12.11,0,0,0,.69-1.72c.07-.23-.25-.34-.37-.15a12.43,12.43,0,0,0-.78,1.65l-.73,1.68a.26.26,0,0,0,.09.34.27.27,0,0,0,.35-.1Z"/><path class="cls-2" d="M282.06,54.53c.26-.35.5-.71.74-1.08l.32-.55.17-.3a.46.46,0,0,0,.08-.32.15.15,0,0,0-.21-.09.57.57,0,0,0-.21.25l-.17.27-.34.56c-.24.36-.48.72-.73,1.07a.19.19,0,0,0,.07.27.21.21,0,0,0,.28-.08Z"/><path class="cls-2" d="M284.78,53.9a16.84,16.84,0,0,0,.7-1.91.16.16,0,0,0-.29-.12,19.22,19.22,0,0,0-.86,1.91.22.22,0,0,0,.16.28.25.25,0,0,0,.29-.16Z"/><path class="cls-2" d="M286.68,54.32c.25-.44.51-.86.77-1.28s.56-.82.79-1.26a.18.18,0,0,0-.29-.21,7.32,7.32,0,0,0-.94,1.2c-.28.42-.55.85-.8,1.28a.27.27,0,0,0,.47.27Z"/><path class="cls-2" d="M289.05,54.29c.37-.66.75-1.32,1.07-2a.17.17,0,0,0-.29-.16c-.43.63-.79,1.29-1.17,1.95-.15.25.25.46.39.21Z"/><path class="cls-2" d="M291.6,54.41c.18-.3.38-.6.55-.91s.35-.61.52-.92a.23.23,0,0,0-.09-.32.25.25,0,0,0-.32.09l-.6.88c-.2.3-.38.6-.57.9a.29.29,0,0,0,.11.39.31.31,0,0,0,.4-.11Z"/><path class="cls-1" d="M20,41.53c0,1.07.07,2.13.08,3.19v1.59a6.44,6.44,0,0,0,.11,1.58.41.41,0,0,0,.78,0,6,6,0,0,0,.14-1.58c0-.53,0-1.06,0-1.59,0-1.06,0-2.12-.07-3.18,0-.67-1.06-.64-1,0Z"/><path class="cls-1" d="M22.32,45.85a7.24,7.24,0,0,0,0,1,3.65,3.65,0,0,0,.07.46,2.38,2.38,0,0,0,.18.51A.36.36,0,0,0,23,48a.4.4,0,0,0,.33-.28c0-.17,0-.34.05-.52v-.47c0-.31,0-.62,0-.93a.5.5,0,0,0-.51-.5.53.53,0,0,0-.52.51Z"/><path class="cls-1" d="M22.92,43.76a.4.4,0,0,0-.55-.13.24.24,0,0,0-.08.06l-.06.08a.28.28,0,0,0-.05.16.58.58,0,0,0,.06.29.66.66,0,0,0,.22.22.58.58,0,0,0,.29.09.41.41,0,0,0,.19-.05.36.36,0,0,0,.15-.15.61.61,0,0,0,.07-.14.35.35,0,0,0,0-.06l0-.15a.83.83,0,0,0,0-.22.81.81,0,0,0-.1-.21.49.49,0,0,0-.16-.16h0l-.09,0h-.2l-.11,0-.07,0a.19.19,0,0,0-.07.11.13.13,0,0,0,0,.08.2.2,0,0,0,0,.13v0l0,.09.07.08-.07-.08s.06.09.1.12l0,0L22.44,44a.25.25,0,0,1,0,.07l0-.09a.43.43,0,0,1,0,.11V44a.17.17,0,0,1,0,.1l0-.09,0,.08,0-.08,0,0,.22-.16h.11l-.06,0,.08,0-.06,0,.07.05-.06-.05.06.07,0-.06,0,.08s0,0,0-.06v.06l-.05.15h0l-.05.06h0l-.07,0h0l-.08,0h-.08l-.07,0h0l-.07,0s0,0,0,0a.29.29,0,0,0,.21.08h.08l.11-.05A.36.36,0,0,0,23,44a.31.31,0,0,0,0-.23Z"/><path class="cls-1" d="M26.72,45.27a1.39,1.39,0,0,0-2.24.21,1,1,0,0,0-.13.77,1.16,1.16,0,0,0,.36.56c.14.12.29.22.42.35s0,0,0,0a.75.75,0,0,1,.07.12s0,0,0,0a.14.14,0,0,1,0,.06s0,.1,0,0,0,0,0,0,0,0,0,0l0,.07s0,0,0,0,0,0,0,.06.06-.08,0,0,.08,0,0,0-.08,0,0,0l.08,0h0s.1,0,0,0l-.06,0c-.08,0,0,0,0,0l0,0c-.05,0,.07.07,0,0h0a.36.36,0,0,0-.14-.11.41.41,0,0,0-.48.07.51.51,0,0,0-.12.47.77.77,0,0,0,.19.34.84.84,0,0,0,.76.22,1,1,0,0,0,.77-1.07,1.64,1.64,0,0,0-.79-1.17c-.05,0,0,0,0,0l-.06,0-.08-.08c-.06-.06,0,0,0,0l0,0s0,0,0,0,0,0,0,0,0,0,0,0l0-.09s0-.08,0,0,0,0,0,0l.05-.08h0l.07-.07s0,0,0,0l.06,0,.07,0h0l.15,0c-.08,0,.06,0,.08,0h0l.07,0h.05c.07,0,0,0,0,0l.07,0s.06,0,0,0,0,0,0,0l.09.09a.4.4,0,0,0,.56,0,.4.4,0,0,0,0-.56Z"/><path class="cls-1" d="M28,43.8l.14,2.13.08,1a2.37,2.37,0,0,0,.23,1.12.4.4,0,0,0,.68,0A2.15,2.15,0,0,0,29.21,47l-.07-1.08L29,43.79a.51.51,0,0,0-.5-.5.53.53,0,0,0-.53.51Z"/><path class="cls-1" d="M27.63,46.47l1.18-.14.65-.09a1.12,1.12,0,0,0,.67-.28.38.38,0,0,0-.08-.59,1,1,0,0,0-.66-.11,5.7,5.7,0,0,0-.58.06l-1.16.13a.59.59,0,0,0-.37.16.47.47,0,0,0-.15.35.5.5,0,0,0,.5.51Z"/><path class="cls-1" d="M30.94,46.07l.06,1c0,.21,0,.41,0,.62a2.72,2.72,0,0,0,.13.49.43.43,0,0,0,.39.3.45.45,0,0,0,.41-.31,3.69,3.69,0,0,0,.09-.58,4.71,4.71,0,0,0,0-.53l-.05-1a.5.5,0,0,0-.51-.5.54.54,0,0,0-.53.51Z"/><path class="cls-1" d="M31.43,44.26a.48.48,0,0,0,.19-.21.43.43,0,0,0,.05-.12.68.68,0,0,0,0-.14.43.43,0,0,0,0-.11.36.36,0,0,0-.07-.1.28.28,0,0,0-.2-.08.48.48,0,0,0-.23.07.56.56,0,0,0-.18.16,1.11,1.11,0,0,0-.07.16.5.5,0,0,0,0,.12v.05a.55.55,0,0,0,.07.25.57.57,0,0,0,.15.16.47.47,0,0,0,.33,0l.15-.06a.58.58,0,0,0,.12-.1l.08-.1,0,0a.67.67,0,0,0,.07-.24.41.41,0,0,0,0-.16.49.49,0,0,0-.06-.13.76.76,0,0,0-.08-.11.5.5,0,0,0-.22-.13h0a.42.42,0,0,0-.22,0,.32.32,0,0,0-.18.1.37.37,0,0,0-.1.17.39.39,0,0,0,.1.37l.09.06-.08,0,0,0L31.05,44l.1.12-.07-.09,0,0,0-.1s0,0,0,.06V44l0-.1,0,.05,0-.1s0,0,0,0l.06-.08,0,0,.08-.06,0,0,.1,0h.15l.09,0,0,0,.07.06,0,0,.06.07s0,0,0,0l0,.09s0,0,0-.06V44a.43.43,0,0,1,0,0l0,.07,0,0,0,.06,0,0-.06,0,0,0-.07,0h0l-.35-.2V43.8a.06.06,0,0,1,0,0l0-.07,0,0,0-.06s0,0,0,0l.06,0,0,0a.33.33,0,0,0-.14.17.2.2,0,0,0,0,.11.2.2,0,0,0,0,.11.31.31,0,0,0,.17.13.32.32,0,0,0,.22,0Z"/><path class="cls-1" d="M33.73,47.91l0-.07h0a1.42,1.42,0,0,0-.05-.16l0-.16s0-.05,0-.08,0,.05,0,0,0-.22,0-.33a1,1,0,0,1,0-.17s0,0,0-.08,0,0,0,0l.09-.3c0-.1-.05.08,0,0l.06-.12,0,0h0l.09-.09,0,0,.06,0c-.07,0-.08,0,0,0h0s0,0,0,0l.06,0s0,0,0,0l.05.05,0,0s0,0,0,0,.06.11.08.14,0,.14,0,0c0,.11.07.21.1.32l.15.71a2.44,2.44,0,0,0,.24.75.42.42,0,0,0,.75-.11.92.92,0,0,0,0-.37c0-.15,0-.29,0-.44s-.09-.43-.14-.65a1.91,1.91,0,0,0-.69-1.21,1,1,0,0,0-1.32.12,1.93,1.93,0,0,0-.51,1.11,3.44,3.44,0,0,0,.08,1.53.49.49,0,0,0,.67.32.5.5,0,0,0,.26-.71Z"/><path class="cls-1" d="M38.1,45.8a1.49,1.49,0,0,0-1.39-.09,1.19,1.19,0,0,0-.64,1.12.93.93,0,0,0,1,.9c.53,0,.93-.62,1.2-1l-.73-.09a11.61,11.61,0,0,1,.63,3.4,1.43,1.43,0,0,1-.05.65.57.57,0,0,1-.44.22,17,17,0,0,1-1.75.09.4.4,0,0,0-.11.79,4.27,4.27,0,0,0,2.13,0,1.39,1.39,0,0,0,1.14-1.32,7.32,7.32,0,0,0-.2-2,15.3,15.3,0,0,0-.58-2.08.41.41,0,0,0-.67-.17,2.58,2.58,0,0,1-.5.49l-.14.08s.13,0,.12,0,0-.08,0-.08c0-.33.41-.24.58-.14a.46.46,0,0,0,.47-.79Z"/><path class="cls-1" d="M49.91,123.85c0,1.06.06,2.12.07,3.18,0,.53,0,1.07,0,1.6a6.36,6.36,0,0,0,.11,1.57.41.41,0,0,0,.78,0,5.93,5.93,0,0,0,.14-1.57c0-.53,0-1.07,0-1.6,0-1.06,0-2.12-.08-3.18a.52.52,0,0,0-1,0Z"/><path class="cls-1" d="M52.18,128.16a8.94,8.94,0,0,0,0,1,2.32,2.32,0,0,0,.07.46,2.78,2.78,0,0,0,.17.51.37.37,0,0,0,.38.18.39.39,0,0,0,.32-.28,4.35,4.35,0,0,0,.06-.52c0-.15,0-.31,0-.46,0-.32,0-.63,0-.94a.5.5,0,0,0-.51-.5.54.54,0,0,0-.53.51Z"/><path class="cls-1" d="M52.79,126.07a.41.41,0,0,0-.35-.19.51.51,0,0,0-.2.06l-.09.07s0,.07,0,.07a.3.3,0,0,0-.05.16.58.58,0,0,0,.06.29.56.56,0,0,0,.21.22.53.53,0,0,0,.3.09.45.45,0,0,0,.19,0,.41.41,0,0,0,.15-.14,1.47,1.47,0,0,0,.06-.14.14.14,0,0,0,0-.06.88.88,0,0,0,0-.16.56.56,0,0,0,0-.22.78.78,0,0,0-.09-.21.61.61,0,0,0-.16-.16h0l-.08,0h-.1l-.11,0-.1,0-.08,0a.41.41,0,0,0-.07.11.31.31,0,0,0,0,.08.28.28,0,0,0,0,.13v0h0l0,.09.06.08-.06-.08a.58.58,0,0,0,.1.12l0,.05-.06-.08a.59.59,0,0,1,0,.08l0-.09a.17.17,0,0,1,0,.1v-.09a.29.29,0,0,1,0,.09l0-.09s0,0,0,0l.22-.17h0l.08,0-.07,0,.07,0s0,0,0,0l0,.07,0-.06,0,.08a.13.13,0,0,1,0-.06v.06l0,.16v0l0,.07v0l-.06,0h0l-.08,0h0l-.08,0h0l-.07,0h0l-.06,0h0a.31.31,0,0,0,.21.09l.08,0a.27.27,0,0,0,.11-.05.36.36,0,0,0,.11-.16.36.36,0,0,0,0-.23Z"/><path class="cls-1" d="M56.59,127.59a1.39,1.39,0,0,0-2.25.2,1.11,1.11,0,0,0-.13.78,1.15,1.15,0,0,0,.37.55,3.52,3.52,0,0,1,.41.36c.06.06,0,0,0,0s0,.08.07.13v0a.14.14,0,0,0,0,.06v0c0-.07,0,0,0,0s0,0,0,0l0,.07s0,0,0,0,0,.06,0,.06.07-.08,0,0,.08-.05,0,0-.09,0,0,0,.11,0,.07,0h0s.1,0,0,0l-.07,0c-.07,0,0,0,0,0l0,0s.07.07,0,0,.07.1,0,0a.31.31,0,0,0-.14-.11.39.39,0,0,0-.47.07.51.51,0,0,0-.12.47.58.58,0,0,0,.19.34.82.82,0,0,0,.76.22,1,1,0,0,0,.77-1.07,1.64,1.64,0,0,0-.8-1.17s0,0,0,0l-.06-.05-.09-.08c-.06-.05,0,0,0,0l0,0s0,0,0,0,0,0,0,0,0,0,0,0l0-.09s0-.07,0,0v0s.08-.11,0-.08,0,0,0,0l.07-.07,0,0,.06-.05.07,0s0,0,0,0a.42.42,0,0,1,.15,0c-.07,0,.06,0,.09,0s.07,0,0,0l.06,0h.08l.07,0,0,0,0,0,.08.08a.41.41,0,0,0,.57,0,.39.39,0,0,0,0-.55Z"/><path class="cls-1" d="M57.84,126.11l.14,2.13.07,1a2.38,2.38,0,0,0,.24,1.12.39.39,0,0,0,.67,0,2.06,2.06,0,0,0,.12-1.07L59,128.23l-.14-2.13a.52.52,0,0,0-.51-.5.53.53,0,0,0-.52.51Z"/><path class="cls-1" d="M57.5,128.78l1.17-.14.66-.08a1.14,1.14,0,0,0,.66-.29.38.38,0,0,0-.07-.59,1,1,0,0,0-.66-.11,5.9,5.9,0,0,0-.59.06l-1.15.13a.57.57,0,0,0-.37.16.47.47,0,0,0-.15.35.5.5,0,0,0,.5.51Z"/><path class="cls-1" d="M60.81,128.38l.06,1.05c0,.2,0,.41,0,.61a2.72,2.72,0,0,0,.13.49.41.41,0,0,0,.39.3.44.44,0,0,0,.4-.31,2.26,2.26,0,0,0,.09-.58,4.52,4.52,0,0,0,0-.52l0-1a.52.52,0,0,0-.51-.5.54.54,0,0,0-.53.51Z"/><path class="cls-1" d="M61.3,126.57a.52.52,0,0,0,.19-.2.69.69,0,0,0,0-.13.59.59,0,0,0,0-.14.23.23,0,0,0,0-.11.18.18,0,0,0-.06-.09.32.32,0,0,0-.2-.08.44.44,0,0,0-.23.06.49.49,0,0,0-.18.17.41.41,0,0,0-.07.15.5.5,0,0,0,0,.12,0,0,0,0,0,0,.05.54.54,0,0,0,.06.25.41.41,0,0,0,.16.16.42.42,0,0,0,.33,0,.35.35,0,0,0,.14-.06l.13-.1.08-.1v0a.55.55,0,0,0,.07-.25.43.43,0,0,0,0-.16s0-.09-.06-.13a.76.76,0,0,0-.08-.11.58.58,0,0,0-.23-.13h0a.41.41,0,0,0-.22,0,.4.4,0,0,0-.18.1.42.42,0,0,0-.1.17.37.37,0,0,0,.1.37l.09.07L61,126.4l0,0-.07-.08.09.12-.06-.09,0,.05,0-.1a.14.14,0,0,1,0,.06v-.17a.07.07,0,0,1,0,0l0-.09s0,0,0,0l.06-.08,0,0,.09-.06,0,0,.09,0h.16l.09,0,0,0,.07.06,0,0,.06.07,0,0,0,.08a.43.43,0,0,0,0-.05v.1a.09.09,0,0,1,0,0l0,.07,0,0,0,.07,0,0-.07,0,0,0-.08,0h0l-.36-.21v-.07s0,0,0,0l0-.07,0,0,.05-.06,0,0,.06,0h0a.28.28,0,0,0-.14.18.34.34,0,0,0,0,.1.15.15,0,0,0,0,.11.27.27,0,0,0,.17.13.28.28,0,0,0,.22,0Z"/><path class="cls-1" d="M63.6,130.22l0-.07c0,.06,0,.06,0,0a.75.75,0,0,1,0-.16c0-.05,0-.1,0-.16a.25.25,0,0,0,0-.08h0c0-.12,0-.23,0-.34s0-.11,0-.16a.28.28,0,0,1,0-.09h0a2.8,2.8,0,0,1,.09-.31c0-.1,0,.08,0,0l.07-.12,0-.05c0,.05,0,.05,0,0l.09-.09c-.06,0-.06,0,0,0l0,0h0c-.06,0-.07,0,0,0s.05,0,0,0l.06,0s0,0,0,0l0,0,0,0s0,0,0,0,.07.11.09.15,0,.13,0,0a1.81,1.81,0,0,1,.09.31c.06.24.11.47.16.71a2.44,2.44,0,0,0,.24.75.42.42,0,0,0,.75-.11,1.14,1.14,0,0,0,0-.37,3.32,3.32,0,0,0-.06-.44,4.56,4.56,0,0,0-.14-.64,1.9,1.9,0,0,0-.68-1.22,1.06,1.06,0,0,0-1.33.12,2.07,2.07,0,0,0-.51,1.11,3.6,3.6,0,0,0,.09,1.53.48.48,0,0,0,.67.32.5.5,0,0,0,.26-.71Z"/><path class="cls-1" d="M68,128.11a1.44,1.44,0,0,0-1.38-.08,1.18,1.18,0,0,0-.64,1.11.92.92,0,0,0,1,.9c.52,0,.93-.62,1.2-1l-.74-.09a12,12,0,0,1,.64,3.41,1.27,1.27,0,0,1-.06.64c-.08.16-.27.19-.43.22a17.09,17.09,0,0,1-1.75.09.4.4,0,0,0-.12.79,4.16,4.16,0,0,0,2.13,0,1.4,1.4,0,0,0,1.15-1.32,7.79,7.79,0,0,0-.2-2,15.3,15.3,0,0,0-.58-2.08.4.4,0,0,0-.67-.16A2.33,2.33,0,0,1,67,129l-.13.08s.13,0,.12,0,0-.08,0-.09c0-.33.42-.24.59-.14a.46.46,0,0,0,.46-.79Z"/><path class="cls-1" d="M51.69,59c0,1.07.07,2.13.07,3.19,0,.53,0,1.06,0,1.59a6.4,6.4,0,0,0,.11,1.58.41.41,0,0,0,.78,0,5.93,5.93,0,0,0,.14-1.57c0-.54,0-1.07,0-1.6,0-1.06,0-2.12-.07-3.18,0-.67-1.06-.64-1,0Z"/><path class="cls-1" d="M54,63.31a7.24,7.24,0,0,0,0,1,3.65,3.65,0,0,0,.07.46,2.38,2.38,0,0,0,.18.51.36.36,0,0,0,.37.18.4.4,0,0,0,.33-.28c0-.17,0-.34,0-.52v-.47c0-.31,0-.62,0-.93a.5.5,0,0,0-.51-.5.53.53,0,0,0-.52.51Z"/><path class="cls-1" d="M54.57,61.22a.4.4,0,0,0-.55-.13.24.24,0,0,0-.08.06l-.06.08a.28.28,0,0,0-.05.16.58.58,0,0,0,.06.29.63.63,0,0,0,.21.22.65.65,0,0,0,.3.09.41.41,0,0,0,.19-.05.36.36,0,0,0,.15-.15.61.61,0,0,0,.07-.14.35.35,0,0,0,0-.06.77.77,0,0,0,0-.15.55.55,0,0,0,0-.22,1.36,1.36,0,0,0-.1-.21.49.49,0,0,0-.16-.16h0l-.09,0h-.1l-.1,0a.21.21,0,0,0-.11,0l-.07,0A.19.19,0,0,0,54,61a.13.13,0,0,0,0,.08.2.2,0,0,0,0,.13v0l0,.09.06.08L54,61.35a.58.58,0,0,0,.1.12l0,.05-.06-.08a.25.25,0,0,1,0,.07l0-.09a.43.43,0,0,1,0,.11v-.09a.14.14,0,0,1,0,.09v-.09a.19.19,0,0,1,0,.08l0-.08,0,0,.22-.16h.1l0,0,.08,0-.06,0,.06.05,0-.05.06.07,0-.06,0,.08a.13.13,0,0,1,0-.06v.06l0,.15h0l0,.06h0l-.07,0h0l-.08,0h-.08l-.07,0h0l-.07,0s0,0,0,0a.28.28,0,0,0,.21.08h.08l.11,0a.36.36,0,0,0,.11-.16.31.31,0,0,0,0-.23Z"/><path class="cls-1" d="M58.37,62.73a1.39,1.39,0,0,0-2.24.21,1,1,0,0,0-.13.77,1.16,1.16,0,0,0,.36.56,4.71,4.71,0,0,1,.41.35c.07.07,0,0,0,0a.75.75,0,0,1,.07.12s0,0,0,0,0,0,0,.06,0,.1,0,0,0,0,0,0,0,0,0,0l0,.07s0,0,0,0,0,0,0,.06.07-.08,0,0,.08-.05,0,0-.08,0,0,0l.08,0h-.05s.1,0,0,0l-.07,0h0l0,0s.07.07,0,0h0a.36.36,0,0,0-.14-.11.41.41,0,0,0-.48.07.51.51,0,0,0-.12.47.72.72,0,0,0,.19.34.84.84,0,0,0,.76.22,1,1,0,0,0,.77-1.07,1.64,1.64,0,0,0-.79-1.17c-.05,0,0,0,0,0l-.06,0-.09-.08h0l0-.05s0,0,0,0,0,0,0,0,0,0,0,0l0-.09s0-.08,0,0,0,0,0,0,.08-.11,0-.08h0l.07-.07s0,0,0,0l.06,0,.07,0h0l.14,0c-.07,0,.06,0,.09,0h0l.06,0h.06c.06,0,0,0,0,0l.07,0s.06,0,0,0,0,0,0,0l.08.09a.42.42,0,0,0,.57,0,.4.4,0,0,0,0-.56Z"/><path class="cls-1" d="M59.62,61.26l.14,2.13.07,1a2.38,2.38,0,0,0,.24,1.12.4.4,0,0,0,.67,0,2.1,2.1,0,0,0,.12-1.08l-.07-1.08-.14-2.13a.51.51,0,0,0-.51-.5.53.53,0,0,0-.52.51Z"/><path class="cls-1" d="M59.28,63.93l1.18-.14.65-.09a1.12,1.12,0,0,0,.67-.28.38.38,0,0,0-.08-.59,1,1,0,0,0-.66-.11,5.9,5.9,0,0,0-.59.06l-1.15.13a.59.59,0,0,0-.37.16.47.47,0,0,0-.15.35.5.5,0,0,0,.5.51Z"/><path class="cls-1" d="M62.59,63.53l.06,1c0,.21,0,.41,0,.62a2.72,2.72,0,0,0,.13.49.43.43,0,0,0,.39.3.45.45,0,0,0,.41-.31,3.69,3.69,0,0,0,.09-.58c0-.18,0-.35,0-.53l0-1a.5.5,0,0,0-.51-.5.54.54,0,0,0-.53.51Z"/><path class="cls-1" d="M63.08,61.72a.48.48,0,0,0,.19-.21.43.43,0,0,0,0-.12.68.68,0,0,0,0-.14.23.23,0,0,0,0-.11.21.21,0,0,0-.06-.1.28.28,0,0,0-.2-.08.62.62,0,0,0-.23.07.49.49,0,0,0-.25.32.5.5,0,0,0,0,.12v.05a.45.45,0,0,0,.07.25.46.46,0,0,0,.15.16.47.47,0,0,0,.33,0,.94.94,0,0,0,.15-.06.58.58,0,0,0,.12-.1l.08-.1a0,0,0,0,0,0,0,.68.68,0,0,0,.08-.24.41.41,0,0,0,0-.16.49.49,0,0,0-.06-.13.76.76,0,0,0-.08-.11.5.5,0,0,0-.22-.13h0a.55.55,0,0,0-.22,0,.32.32,0,0,0-.18.1.38.38,0,0,0,0,.54l.09.06-.08-.05,0,0-.07-.08.1.12-.07-.09,0,0,0-.1s0,0,0,.06v-.07l0-.1,0,.05,0-.09s0,0,0,0l.06-.08,0,0,.08-.06,0,0,.1,0h.15l.09,0,0,0,.07.06,0,0,.06.07,0,0,0,.09s0,0,0-.06v.11a.43.43,0,0,1,0-.05l0,.07,0,0,0,.06,0,0-.06.05,0,0-.07,0h0l-.35-.2v-.07a.06.06,0,0,1,0,0l0-.07,0,.05,0-.06s0,0,0,0l.06,0,0,0a.33.33,0,0,0-.14.17.45.45,0,0,0,0,.11.36.36,0,0,0,0,.11.31.31,0,0,0,.17.13.28.28,0,0,0,.22,0Z"/><path class="cls-1" d="M65.38,65.37l0-.07s0,.06,0,0,0-.1,0-.16l0-.16s0,0,0-.08,0,0,0,0,0-.22,0-.33a.86.86,0,0,1,0-.16.28.28,0,0,1,0-.09s0,0,0,0,0-.2.09-.3,0,.08,0,0a.75.75,0,0,0,.07-.12l0,0s0,0,0,0l.09-.09c-.06.05-.06.05,0,0l.06,0c-.07,0-.08,0,0,0s0,0,0,0h.07c-.06,0-.07,0,0,0s0,0,0,0l.06,0s0,0,0,0l0,0,0,.05s0,0,0,0,.06.11.08.14,0,.14,0,0c0,.11.07.21.1.32l.15.71a2.44,2.44,0,0,0,.24.75.42.42,0,0,0,.75-.11.92.92,0,0,0,0-.37c0-.15,0-.29,0-.44s-.09-.43-.14-.65A1.91,1.91,0,0,0,66.2,63a1,1,0,0,0-1.32.12,2,2,0,0,0-.52,1.11,3.6,3.6,0,0,0,.09,1.53.49.49,0,0,0,.67.32.5.5,0,0,0,.26-.71Z"/><path class="cls-1" d="M69.75,63.26a1.49,1.49,0,0,0-1.39-.09,1.19,1.19,0,0,0-.64,1.12.93.93,0,0,0,1,.9c.52,0,.93-.62,1.2-1l-.73-.09a12,12,0,0,1,.63,3.4,1.42,1.42,0,0,1,0,.65.57.57,0,0,1-.44.22,17,17,0,0,1-1.75.09.4.4,0,0,0-.12.79,4.31,4.31,0,0,0,2.14,0,1.39,1.39,0,0,0,1.14-1.32,7.32,7.32,0,0,0-.2-2,15.3,15.3,0,0,0-.58-2.08.4.4,0,0,0-.67-.16,2.59,2.59,0,0,1-.51.48l-.13.08s.13,0,.12,0,0-.08,0-.08c0-.33.41-.24.58-.14a.46.46,0,0,0,.47-.79Z"/><path class="cls-1" d="M21.82,81.71c0,1.06.07,2.12.08,3.18v1.6A6.88,6.88,0,0,0,22,88.06a.41.41,0,0,0,.78,0,6.38,6.38,0,0,0,.15-1.57c0-.53,0-1.07,0-1.6,0-1.06,0-2.12-.07-3.18a.52.52,0,0,0-1,0Z"/><path class="cls-1" d="M24.1,86a7.18,7.18,0,0,0,0,1,3.4,3.4,0,0,0,.07.46,2.21,2.21,0,0,0,.18.51.36.36,0,0,0,.37.18.39.39,0,0,0,.33-.28,4.36,4.36,0,0,0,.05-.52c0-.15,0-.31,0-.47,0-.31,0-.62,0-.93a.49.49,0,0,0-.5-.5.53.53,0,0,0-.53.51Z"/><path class="cls-1" d="M24.7,83.93a.39.39,0,0,0-.34-.19.51.51,0,0,0-.21.06l-.08.06-.06.08a.43.43,0,0,0-.05.16.5.5,0,0,0,.07.29.45.45,0,0,0,.21.22.5.5,0,0,0,.29.09.46.46,0,0,0,.2,0,.47.47,0,0,0,.14-.14l.07-.14s0,0,0-.06a.88.88,0,0,0,0-.16.83.83,0,0,0,0-.22.58.58,0,0,0-.1-.21.49.49,0,0,0-.16-.16h0l-.09,0h-.09l-.11,0a.25.25,0,0,0-.11,0l-.07,0a.26.26,0,0,0-.07.11.41.41,0,0,0,0,.08.28.28,0,0,0,0,.13v0h0l0,.09.07.08-.06-.08a.54.54,0,0,0,.09.12l0,0-.06-.08a.56.56,0,0,1,.05.08l0-.1,0,.11v-.09a.28.28,0,0,1,0,.09l0-.09,0,.09,0-.09s0,0,0,0l.22-.17h.05l.08,0-.06,0,.07,0a.12.12,0,0,1-.05,0l.05.07a.21.21,0,0,1,0-.06l0,.08s0,0,0-.06v.06l-.05.16v0l0,.07,0,0-.07,0h0l-.08,0h0l-.08,0h0l-.08,0h0l-.06,0h0a.29.29,0,0,0,.21.08h.08a.22.22,0,0,0,.11-.05.29.29,0,0,0,.11-.16.27.27,0,0,0,0-.23Z"/><path class="cls-1" d="M28.51,85.45a1.39,1.39,0,0,0-2.25.2,1.06,1.06,0,0,0-.13.78,1.15,1.15,0,0,0,.37.55c.13.12.28.22.41.36s0,0,0,0a.54.54,0,0,1,.07.13s0,0,0,0,0,0,0,.06,0,.09,0,0,0,0,0,0,0,0,0,0l0,.07s0,.05,0,0,0,.06,0,.06.06-.08,0,0,.08,0,0,0-.08,0,0,0l.08,0H27s.11,0,0,0l-.06,0c-.08,0,0,0,0,0l0,0s.07.07,0,0h0a.49.49,0,0,0-.14-.11.41.41,0,0,0-.48.07.51.51,0,0,0-.12.47.72.72,0,0,0,.19.34.82.82,0,0,0,.76.22A1,1,0,0,0,28,87.51a1.66,1.66,0,0,0-.79-1.17s0,0,0,0l-.06,0-.08-.08c-.06,0,0,0,0,0l0,0s0,0,0,0,0,0,0,0h0a.29.29,0,0,1,0-.09s0-.07,0,0v0s.08-.11.05-.08,0,0,0,0a.23.23,0,0,0,.07-.07l0,0,.07,0,.06,0s0,0,0,0a.42.42,0,0,1,.15,0c-.07,0,.06,0,.09,0s.06,0,0,0l.07,0h.06c.06,0-.05,0,0,0l.07,0s.07,0,0,0l0,0,.09.08a.4.4,0,0,0,.57-.56Z"/><path class="cls-1" d="M29.75,84l.15,2.13.07,1a2.37,2.37,0,0,0,.23,1.12.4.4,0,0,0,.68,0A2.19,2.19,0,0,0,31,87.17l-.08-1.08L30.78,84a.5.5,0,0,0-.5-.5.54.54,0,0,0-.53.51Z"/><path class="cls-1" d="M29.42,86.64l1.17-.14.65-.08a1.2,1.2,0,0,0,.67-.29.38.38,0,0,0-.08-.59,1,1,0,0,0-.66-.11,5.7,5.7,0,0,0-.58.06l-1.15.13a.59.59,0,0,0-.38.16.56.56,0,0,0-.15.35.51.51,0,0,0,.51.51Z"/><path class="cls-1" d="M32.73,86.24l.05,1.05c0,.2,0,.41,0,.61a2.11,2.11,0,0,0,.14.49.4.4,0,0,0,.39.3.44.44,0,0,0,.4-.31,2.8,2.8,0,0,0,.09-.58,4.52,4.52,0,0,0,0-.52l-.06-1a.5.5,0,0,0-.51-.5.53.53,0,0,0-.52.51Z"/><path class="cls-1" d="M33.22,84.43a.58.58,0,0,0,.18-.2.69.69,0,0,0,.05-.13.59.59,0,0,0,0-.14.43.43,0,0,0,0-.11.28.28,0,0,0-.06-.09.32.32,0,0,0-.21-.08.46.46,0,0,0-.23.06.58.58,0,0,0-.18.17.69.69,0,0,0-.07.15s0,.08,0,.12v0a.55.55,0,0,0,.07.25.41.41,0,0,0,.16.16.4.4,0,0,0,.32,0,.39.39,0,0,0,.15-.06.58.58,0,0,0,.12-.1.39.39,0,0,0,.08-.1l0,0a.72.72,0,0,0,.07-.25.44.44,0,0,0,0-.16,1.12,1.12,0,0,0,0-.13l-.09-.11a.54.54,0,0,0-.22-.13h0a.45.45,0,0,0-.23,0,.46.46,0,0,0-.18.1.59.59,0,0,0-.1.17.39.39,0,0,0,.1.37l.09.07-.08-.06,0,0-.06-.08.09.12-.07-.09,0,.05,0-.1a.13.13,0,0,1,0,.06v-.07l0-.1a.08.08,0,0,1,0,0l0-.09,0,0,.06-.08,0,0L33,84l0,0,.1,0h.16l.08,0,0,0,.07.06s0,0,0,0l.05.07,0,0,0,.08s0,0,0-.05v.1s0,0,0,0l0,.07,0,0,0,.07,0,0-.06,0,0,0-.07,0h0L32.89,84V84a0,0,0,0,1,0,.05V84s0,0,0,0l0-.07a.05.05,0,0,1,0,0l0-.06a.08.08,0,0,1,0,0l.06,0h0a.37.37,0,0,0-.14.18.17.17,0,0,0,0,.1.2.2,0,0,0,0,.11.27.27,0,0,0,.17.13.31.31,0,0,0,.23,0Z"/><path class="cls-1" d="M35.51,88.08l0-.07h0a1.42,1.42,0,0,0,0-.16l0-.16a.22.22,0,0,1,0-.08h0a2,2,0,0,1,0-.34s0-.11,0-.16,0-.06,0-.09,0,0,0,0a2.81,2.81,0,0,1,.08-.31c0-.1,0,.08,0,0l.06-.12a.1.1,0,0,0,0,0h0s.08-.09.1-.09-.07,0,0,0l.06,0h0c.05,0,0,0,0,0h.07c-.07,0-.07,0,0,0s0,0,0,0l.06,0c.05,0,0,0,0,0l0,0s0,0,.05,0,0,0,0,0a.36.36,0,0,1,.08.15s0,.13,0,0L36,87c.06.24.1.47.15.71a2.21,2.21,0,0,0,.25.75.41.41,0,0,0,.74-.11,1.14,1.14,0,0,0,0-.37l-.06-.44c0-.22-.09-.43-.14-.64a1.91,1.91,0,0,0-.69-1.22,1,1,0,0,0-1.32.12,2,2,0,0,0-.51,1.11,3.76,3.76,0,0,0,.08,1.53.49.49,0,0,0,.68.32.5.5,0,0,0,.25-.71Z"/><path class="cls-1" d="M39.88,86a1.44,1.44,0,0,0-1.38-.08A1.16,1.16,0,0,0,37.86,87a.91.91,0,0,0,1,.9c.53,0,.93-.62,1.2-1l-.73-.09a11.67,11.67,0,0,1,.63,3.41,1.39,1.39,0,0,1,0,.64c-.08.16-.28.19-.44.22a16.9,16.9,0,0,1-1.74.09.4.4,0,0,0-.12.79,4.16,4.16,0,0,0,2.13,0,1.41,1.41,0,0,0,1.15-1.32,8.27,8.27,0,0,0-.2-2,16.9,16.9,0,0,0-.58-2.08.4.4,0,0,0-.67-.16,2.88,2.88,0,0,1-.51.48l-.13.08s.12,0,.11,0,0-.08,0-.09c0-.33.42-.24.59-.14a.46.46,0,0,0,.46-.79Z"/><path class="cls-1" d="M66.13,83c0,1.06.06,2.12.07,3.18,0,.53,0,1.06,0,1.6a6.36,6.36,0,0,0,.11,1.57.41.41,0,0,0,.78,0,5.93,5.93,0,0,0,.14-1.57c0-.53,0-1.07,0-1.6,0-1.06,0-2.12-.08-3.18a.52.52,0,0,0-1,0Z"/><path class="cls-1" d="M68.4,87.32a8.94,8.94,0,0,0,0,1,2.32,2.32,0,0,0,.07.46,2.78,2.78,0,0,0,.17.51.38.38,0,0,0,.38.18.4.4,0,0,0,.33-.28c0-.17,0-.34,0-.52s0-.31,0-.47,0-.62,0-.93a.5.5,0,0,0-.51-.5.54.54,0,0,0-.53.51Z"/><path class="cls-1" d="M69,85.23a.39.39,0,0,0-.35-.19.51.51,0,0,0-.2.06l-.09.06a.45.45,0,0,0-.05.08.3.3,0,0,0,0,.16.58.58,0,0,0,.06.29.56.56,0,0,0,.21.22.53.53,0,0,0,.3.09A.41.41,0,0,0,69,86a.36.36,0,0,0,.15-.15.75.75,0,0,0,.06-.13.14.14,0,0,0,0-.06.88.88,0,0,0,0-.16.56.56,0,0,0,0-.22.78.78,0,0,0-.09-.21.61.61,0,0,0-.16-.16h0l-.08,0h-.1l-.11,0a.21.21,0,0,0-.1,0l-.07,0a.28.28,0,0,0-.08.11.24.24,0,0,0,0,.08.28.28,0,0,0,0,.13v0h0l0,.09.06.08-.06-.08a.58.58,0,0,0,.1.12l0,0-.06-.08,0,.07,0-.09a.23.23,0,0,1,0,.11v-.09a.19.19,0,0,1,0,.08l0-.08a.05.05,0,0,0,0,0l.22-.17h0l.08,0-.07,0,.07,0s0,0,0,0l0,.07,0-.06,0,.08a.13.13,0,0,1,0-.06v.06l0,.15h0l-.05.06h0l-.06,0h0l-.08,0h-.08l-.07,0h0l-.07,0h0a.26.26,0,0,0,.21.08h.08a.22.22,0,0,0,.11,0,.36.36,0,0,0,.11-.16.31.31,0,0,0,0-.23Z"/><path class="cls-1" d="M72.81,86.75a1.38,1.38,0,0,0-2.24.2,1,1,0,0,0-.13.77,1.09,1.09,0,0,0,.36.56,3.52,3.52,0,0,1,.41.36c.06.06,0,0,0,0a.54.54,0,0,1,.07.13s0,0,0,0a.14.14,0,0,0,0,.06v0c0-.07,0,0,0,0s0,0,0,0l0,.07s0,0,0,0,0,.06,0,.06.07-.08,0,0,.08,0,0,0-.09,0,0,0l.08,0h-.05s.1,0,0,0l-.07,0h0l0,0s.07.07,0,0,.07.1,0,0a.26.26,0,0,0-.14-.11.39.39,0,0,0-.47.07.51.51,0,0,0-.12.47.72.72,0,0,0,.19.34.82.82,0,0,0,.76.22,1,1,0,0,0,.77-1.07,1.64,1.64,0,0,0-.8-1.17l0,0-.06,0-.09-.08c-.06,0,0,0,0,0l0-.05s0,0,0,0,0,0,0,0,0,0,0,0l0-.09s0-.07,0,0v0s.08-.11,0-.08h0a.46.46,0,0,0,.07-.07s0,0,0,0l.06,0,.07,0s0,0,0,0a.42.42,0,0,1,.15,0c-.07,0,.06,0,.09,0s.07,0,0,0l.06,0H72c.06,0,0,0,0,0l.07,0,0,0,0,0a.6.6,0,0,1,.08.08.41.41,0,0,0,.57,0,.39.39,0,0,0,0-.55Z"/><path class="cls-1" d="M74.06,85.27l.14,2.13.07,1a2.38,2.38,0,0,0,.24,1.12.39.39,0,0,0,.67,0,2.1,2.1,0,0,0,.12-1.08l-.07-1.08-.14-2.13a.52.52,0,0,0-.51-.5.53.53,0,0,0-.52.51Z"/><path class="cls-1" d="M73.72,87.94l1.18-.14.65-.08a1.14,1.14,0,0,0,.66-.29.37.37,0,0,0-.07-.59,1,1,0,0,0-.66-.11,5.9,5.9,0,0,0-.59.06l-1.15.13a.59.59,0,0,0-.37.16.47.47,0,0,0-.15.35.5.5,0,0,0,.5.51Z"/><path class="cls-1" d="M77,87.54l.06,1c0,.2,0,.41,0,.61a2.72,2.72,0,0,0,.13.49.41.41,0,0,0,.39.3.44.44,0,0,0,.4-.31,2.26,2.26,0,0,0,.09-.58,4.52,4.52,0,0,0,0-.52l-.05-1a.5.5,0,0,0-.51-.5.54.54,0,0,0-.53.51Z"/><path class="cls-1" d="M77.52,85.73a.52.52,0,0,0,.19-.2.69.69,0,0,0,.05-.13.59.59,0,0,0,0-.14.23.23,0,0,0,0-.11.18.18,0,0,0-.06-.09.27.27,0,0,0-.2-.08.44.44,0,0,0-.23.06.49.49,0,0,0-.18.17.41.41,0,0,0-.07.15.5.5,0,0,0,0,.12s0,0,0,0a.54.54,0,0,0,.06.25.41.41,0,0,0,.16.16.42.42,0,0,0,.33,0,.47.47,0,0,0,.15-.06l.12-.1.08-.1v0a.59.59,0,0,0,.07-.25.43.43,0,0,0,0-.16l-.06-.13a.76.76,0,0,0-.08-.11.48.48,0,0,0-.23-.13h0a.41.41,0,0,0-.22,0,.4.4,0,0,0-.18.1.38.38,0,0,0,0,.54l.09.07-.08-.06,0,0-.07-.08.1.12-.07-.09,0,0,0-.1s0,0,0,.06v-.17a.09.09,0,0,1,0,.05l0-.09s0,0,0,0l.06-.08,0,0,.09-.06,0,0,.1,0h.15l.09,0,0,0,.07.06,0,0,.06.07,0,0,0,.08s0,0,0-.06v.11s0,0,0,0l0,.07s0,0,0,0l0,.06,0,0-.07.05,0,0-.08,0h0l-.36-.2v-.07s0,0,0,0l0-.07,0,.05,0-.06,0,0,.06,0,0,0a.29.29,0,0,0-.14.17.45.45,0,0,0,0,.11.21.21,0,0,0,0,.11.27.27,0,0,0,.17.13.28.28,0,0,0,.22,0Z"/><path class="cls-1" d="M79.82,89.38l0-.07c0,.06,0,.06,0,0a.75.75,0,0,1-.05-.16.76.76,0,0,1,0-.16s0,0,0-.08h0c0-.12,0-.23,0-.34s0-.11,0-.16a.28.28,0,0,1,0-.09h0A2.8,2.8,0,0,1,79.8,88c0-.1,0,.08,0,0a.75.75,0,0,0,.07-.12l0-.05h0l.09-.09c-.06.05-.06.05,0,0l.06,0h0s0,0,0,0H80c-.06,0-.07,0,0,0s0,0,0,0l.06,0s0,0,0,0l0,0,0,0s0,0,0,0,.06.11.08.14,0,.14,0,0a1.58,1.58,0,0,1,.09.31c.06.24.11.47.16.71a2.44,2.44,0,0,0,.24.75.42.42,0,0,0,.75-.11,1.14,1.14,0,0,0,0-.37,3.32,3.32,0,0,0-.06-.44c0-.22-.08-.43-.13-.65A2,2,0,0,0,80.64,87a1,1,0,0,0-1.32.12,2,2,0,0,0-.52,1.11,3.6,3.6,0,0,0,.09,1.53.48.48,0,0,0,.67.32.5.5,0,0,0,.26-.71Z"/><path class="cls-1" d="M84.18,87.27a1.44,1.44,0,0,0-1.38-.08,1.18,1.18,0,0,0-.64,1.11.92.92,0,0,0,1,.9c.52,0,.93-.62,1.2-1l-.74-.09a11.62,11.62,0,0,1,.64,3.4,1.3,1.3,0,0,1-.06.65c-.08.16-.27.19-.43.22a17.09,17.09,0,0,1-1.75.09.4.4,0,0,0-.12.79,4.16,4.16,0,0,0,2.13,0,1.4,1.4,0,0,0,1.15-1.32,7.79,7.79,0,0,0-.2-2,15.3,15.3,0,0,0-.58-2.08.4.4,0,0,0-.67-.16,2.33,2.33,0,0,1-.51.48l-.13.08s.13,0,.12,0,0-.07,0-.08c0-.33.42-.24.59-.14a.46.46,0,0,0,.46-.79Z"/><path class="cls-1" d="M86.55,42.14c0,1.06.06,2.13.07,3.19,0,.53,0,1.06,0,1.59a6.32,6.32,0,0,0,.11,1.57.41.41,0,0,0,.78,0,6,6,0,0,0,.14-1.58c0-.53,0-1.06,0-1.59,0-1.06,0-2.13-.07-3.19a.52.52,0,0,0-1,0Z"/><path class="cls-1" d="M88.83,46.46a7.24,7.24,0,0,0,0,1,3.65,3.65,0,0,0,.07.46,2.38,2.38,0,0,0,.18.51.36.36,0,0,0,.37.18.4.4,0,0,0,.33-.28c0-.18,0-.35.05-.52v-.47c0-.31,0-.62,0-.93a.51.51,0,0,0-.51-.51.54.54,0,0,0-.52.52Z"/><path class="cls-1" d="M89.43,44.37a.4.4,0,0,0-.55-.13.24.24,0,0,0-.08.06s-.06.08-.06.07a.33.33,0,0,0,0,.16.6.6,0,0,0,.06.3.73.73,0,0,0,.21.22.65.65,0,0,0,.3.09.41.41,0,0,0,.19,0,.43.43,0,0,0,.15-.15.35.35,0,0,0,.06-.14.14.14,0,0,0,0-.06.77.77,0,0,0,0-.15.55.55,0,0,0,0-.22,1.36,1.36,0,0,0-.1-.21c-.06-.08-.08-.12-.16-.16l0,0-.09,0h-.21L89,44l-.07.06a.19.19,0,0,0-.07.11.11.11,0,0,0,0,.08.2.2,0,0,0,0,.13v0h0l0,.09.06.09-.06-.08.1.12s0,0,0,0L89,44.58s0,.05,0,.08l0-.09a.36.36,0,0,1,0,.11v-.1a.17.17,0,0,1,0,.1v-.09a.24.24,0,0,1,0,.08l0-.08,0,0,.22-.16h.1l0,0,.08,0-.06,0,.06.05,0-.05.06.07a.21.21,0,0,1,0-.06l0,.07a.07.07,0,0,1,0-.05v.06l0,.15h0l-.05.06h0l-.07.05h0l-.08,0h-.08l-.07,0h0l-.07-.05s0,0,0,0a.32.32,0,0,0,.21.08h.08a.24.24,0,0,0,.11-.06.33.33,0,0,0,.11-.15.31.31,0,0,0,0-.23Z"/><path class="cls-1" d="M93.23,45.88a1.39,1.39,0,0,0-2.24.21,1,1,0,0,0-.13.77,1.09,1.09,0,0,0,.36.56,4.71,4.71,0,0,1,.41.35c.07.07,0,0,0,0a.75.75,0,0,1,.07.12s0,0,0,0,0,0,0,.06,0,.09,0,0,0,0,0,0,0,0,0,0l0,.07s0,0,0,0,0,.06,0,.06l0,0c0,.05.08-.06,0,0s-.08,0,0,0l.08,0h0s.1,0,0,0h0l0,0s.07.08,0,0,.07.1,0,0a.37.37,0,0,0-.13-.12.42.42,0,0,0-.48.07.53.53,0,0,0-.12.48.77.77,0,0,0,.19.34.81.81,0,0,0,.76.21A1,1,0,0,0,92.71,48a1.62,1.62,0,0,0-.79-1.17s0,0,0,0l-.06,0-.09-.07h0l0,0s0,0,0,0,0,0,0,0h0l0-.08s0-.08,0,0,0,0,0,0l0-.08h0l.07-.07s0,0,0,0l.06,0,.07,0h0l.14,0c-.07,0,.06,0,.09,0h.09l.06,0h0l.07,0,0,0,0,0,.08.09a.42.42,0,0,0,.57,0,.4.4,0,0,0,0-.56Z"/><path class="cls-1" d="M94.48,44.41l.14,2.13.07,1a2.31,2.31,0,0,0,.24,1.11.39.39,0,0,0,.67,0,2,2,0,0,0,.12-1.07l-.07-1.08-.14-2.13a.5.5,0,0,0-.51-.5.53.53,0,0,0-.52.51Z"/><path class="cls-1" d="M94.14,47.07l1.18-.13.65-.09a1.12,1.12,0,0,0,.67-.28.38.38,0,0,0-.08-.59,1.07,1.07,0,0,0-.66-.12l-.59.06-1.15.14a.58.58,0,0,0-.37.15.5.5,0,0,0,.35.86Z"/><path class="cls-1" d="M97.45,46.68l.06,1c0,.2,0,.41,0,.61a2.83,2.83,0,0,0,.13.5.41.41,0,0,0,.79,0,2.34,2.34,0,0,0,.09-.59,4.52,4.52,0,0,0,0-.52l-.05-1a.5.5,0,0,0-.51-.5.54.54,0,0,0-.53.51Z"/><path class="cls-1" d="M97.94,44.87a.55.55,0,0,0,.19-.21.61.61,0,0,0,.05-.12.68.68,0,0,0,0-.14.2.2,0,0,0,0-.11.21.21,0,0,0-.06-.1.28.28,0,0,0-.2-.08.48.48,0,0,0-.23.07.46.46,0,0,0-.18.16.46.46,0,0,0-.07.16.5.5,0,0,0,0,.12v0a.5.5,0,0,0,.22.42.53.53,0,0,0,.33,0l.15-.07a.34.34,0,0,0,.12-.09l.08-.1a0,0,0,0,0,0,0,.67.67,0,0,0,.08-.25.44.44,0,0,0,0-.16.82.82,0,0,0-.14-.23.48.48,0,0,0-.23-.13h0a.54.54,0,0,0-.22,0,.42.42,0,0,0-.18.11.32.32,0,0,0-.1.17.35.35,0,0,0,.1.36l.09.07-.08-.06,0,0-.07-.08.1.11-.07-.08,0,0,0-.1s0,0,0,.07v-.17a.09.09,0,0,1,0,0l0-.1s0,0,0,0l.06-.08,0,0,.08-.07,0,0,.1,0h.15l.09,0,0,0,.07.05,0,0,.06.08a.08.08,0,0,1,0,0l0,.09s0,0,0-.06v.11a.43.43,0,0,1,0,0l0,.07,0,0,0,.06a0,0,0,0,1,0,0l-.06,0,0,0-.08,0h0l-.35-.2v-.07a.08.08,0,0,1,0,0l0-.07,0,0,0-.06,0,0,.06,0,0,0a.29.29,0,0,0-.14.17.41.41,0,0,0,0,.11.49.49,0,0,0,0,.11.31.31,0,0,0,.17.13.33.33,0,0,0,.22,0Z"/><path class="cls-1" d="M100.24,48.52a.25.25,0,0,0,0-.07s0,0,0,0,0-.11,0-.16l0-.16s0-.06,0-.08,0,.05,0,0,0-.22,0-.33a1,1,0,0,1,0-.17.25.25,0,0,1,0-.08s0,0,0,0,.05-.2.09-.3,0,.08,0,0a.75.75,0,0,0,.07-.12l0-.06s0,.06,0,0l.09-.09c-.06,0-.06,0,0,0l.06,0c-.07,0-.08,0,0,0h0s0,0,0,0l.06,0s0,0,0,0l0,.05,0,0s0,0,0,0,.06.11.08.14,0,.14,0,0a1.92,1.92,0,0,1,.09.32c.06.23.11.47.16.71a2.53,2.53,0,0,0,.24.75.42.42,0,0,0,.75-.11.92.92,0,0,0,0-.37c0-.15,0-.3,0-.44s-.09-.43-.14-.65a2,2,0,0,0-.69-1.21,1,1,0,0,0-1.32.12,2,2,0,0,0-.52,1.1,3.63,3.63,0,0,0,.09,1.54.49.49,0,0,0,.67.32.5.5,0,0,0,.26-.71Z"/><path class="cls-1" d="M104.61,46.41a1.46,1.46,0,0,0-1.39-.09,1.18,1.18,0,0,0-.64,1.12.93.93,0,0,0,1,.9c.52,0,.93-.63,1.2-1l-.73-.09a12,12,0,0,1,.63,3.4,1.43,1.43,0,0,1,0,.65.57.57,0,0,1-.44.22,17.09,17.09,0,0,1-1.75.09.4.4,0,0,0-.12.79,4.27,4.27,0,0,0,2.13,0,1.4,1.4,0,0,0,1.15-1.32,7.75,7.75,0,0,0-.2-2,15.3,15.3,0,0,0-.58-2.08.4.4,0,0,0-.67-.17,2.37,2.37,0,0,1-.51.49l-.13.08s.13,0,.12,0,0-.08,0-.09c0-.32.41-.23.58-.14.5.28,1-.48.47-.78Z"/><path class="cls-1" d="M28.13,108.24c0,1.06.07,2.12.08,3.18V113a6.36,6.36,0,0,0,.11,1.57.41.41,0,0,0,.78,0,5.93,5.93,0,0,0,.14-1.57c0-.53,0-1.06,0-1.6,0-1.06,0-2.12-.07-3.18a.52.52,0,0,0-1,0Z"/><path class="cls-1" d="M30.41,112.55a7.18,7.18,0,0,0,0,1,3.4,3.4,0,0,0,.07.46,2.47,2.47,0,0,0,.18.52.36.36,0,0,0,.37.17.4.4,0,0,0,.33-.28c0-.17,0-.34.05-.52v-.46c0-.32,0-.63,0-.94a.5.5,0,0,0-.51-.5.53.53,0,0,0-.52.51Z"/><path class="cls-1" d="M31,110.47a.37.37,0,0,0-.34-.19.5.5,0,0,0-.21,0,.27.27,0,0,0-.08.07.32.32,0,0,0-.06.07.3.3,0,0,0-.05.16.58.58,0,0,0,.06.29.67.67,0,0,0,.21.23.64.64,0,0,0,.3.08.41.41,0,0,0,.19,0,.41.41,0,0,0,.15-.14l.07-.14s0,0,0-.06a.78.78,0,0,0,0-.16.49.49,0,0,0,0-.21,1.12,1.12,0,0,0-.1-.22.39.39,0,0,0-.16-.15l0,0-.09,0h-.1l-.1,0-.11,0-.07,0a.23.23,0,0,0-.07.11.16.16,0,0,0,0,.09.17.17,0,0,0,0,.12v0h0l0,.09.06.08-.06-.08a.58.58,0,0,0,.1.12l0,.05-.06-.08a.2.2,0,0,1,0,.08l0-.09a.3.3,0,0,1,0,.1v-.09a.14.14,0,0,1,0,.09v-.09a.29.29,0,0,1,0,.09l0-.09s0,0,0,0l.22-.17h0l.08,0-.06,0,.06,0-.05,0,.06.07a.21.21,0,0,1,0-.06l0,.08a.13.13,0,0,1,0-.06v.06l-.05.16v0l-.05.07,0,0-.07,0h0l-.08,0h0l-.08,0s0,0,0,0h-.05l-.07,0h0l-.07,0h0a.33.33,0,0,0,.21.09l.08,0a.16.16,0,0,0,.11-.05.36.36,0,0,0,.11-.16.28.28,0,0,0,0-.22Z"/><path class="cls-1" d="M34.81,112a1.38,1.38,0,0,0-2.24.2,1,1,0,0,0-.13.78,1.13,1.13,0,0,0,.36.55,4.71,4.71,0,0,1,.42.36c.06.06,0,0,0,0a.54.54,0,0,1,.07.13v0s0,0,0,.06,0,.09,0,0,0,0,0,0,0,0,0,0l0,.07s0,0,0,0,0,.06,0,.06l0,0c-.05,0,.08-.06,0,0s-.08,0,0,0l.08,0h0s.1,0,0,0l-.07,0c-.07,0,0,0,0,0l0,0s.07.07,0,0h0a.49.49,0,0,0-.14-.11.41.41,0,0,0-.48.07.51.51,0,0,0-.12.47.72.72,0,0,0,.19.34.82.82,0,0,0,.76.22,1,1,0,0,0,.77-1.07,1.62,1.62,0,0,0-.79-1.16s0,0,0,0l-.06,0-.09-.08h0l0,0s0,0,0,0,0,0,0,0,0,0,0,0l0-.09s0-.07,0,0,0,0,0,0,.08-.11,0-.08,0,0,0,0l.07-.07,0,0,.06,0,.07,0s0,0,0,0l.14,0c-.07,0,.06,0,.09,0s.07,0,0,0l.07,0,0,0c.06,0,0,0,0,0l.07,0,0,0,0,0,.08.08a.41.41,0,0,0,.57,0,.39.39,0,0,0,0-.55Z"/><path class="cls-1" d="M36.06,110.5l.14,2.13.07,1a2.38,2.38,0,0,0,.24,1.12.4.4,0,0,0,.68,0,2.15,2.15,0,0,0,.11-1.07l-.07-1.09-.14-2.13a.51.51,0,0,0-.51-.5.53.53,0,0,0-.52.51Z"/><path class="cls-1" d="M35.72,113.17,36.9,113l.65-.08a1.2,1.2,0,0,0,.67-.29.37.37,0,0,0-.08-.58.94.94,0,0,0-.66-.12c-.2,0-.39,0-.59.06l-1.15.13a.59.59,0,0,0-.37.16.49.49,0,0,0-.15.35.5.5,0,0,0,.5.51Z"/><path class="cls-1" d="M39,112.77l.06,1c0,.2,0,.41,0,.61a2.72,2.72,0,0,0,.13.49.41.41,0,0,0,.39.3.45.45,0,0,0,.41-.31,3.69,3.69,0,0,0,.09-.58c0-.17,0-.35,0-.52l0-1a.52.52,0,0,0-.51-.5.54.54,0,0,0-.53.51Z"/><path class="cls-1" d="M39.52,111a.52.52,0,0,0,.19-.2.69.69,0,0,0,0-.13.59.59,0,0,0,0-.14.23.23,0,0,0,0-.11.18.18,0,0,0-.06-.09.28.28,0,0,0-.2-.08.46.46,0,0,0-.23.06.49.49,0,0,0-.18.17.41.41,0,0,0-.07.15.5.5,0,0,0,0,.12v.05a.45.45,0,0,0,.07.25.39.39,0,0,0,.15.16.42.42,0,0,0,.33,0,.47.47,0,0,0,.15-.06.58.58,0,0,0,.12-.1.39.39,0,0,0,.08-.1,0,0,0,0,0,0,0,.73.73,0,0,0,.08-.25.44.44,0,0,0,0-.16.49.49,0,0,0-.06-.13.76.76,0,0,0-.08-.11.61.61,0,0,0-.22-.13h0a.41.41,0,0,0-.22,0,.4.4,0,0,0-.18.1.42.42,0,0,0-.1.17.37.37,0,0,0,.1.37l.09.07-.08-.06,0,0-.07-.08.1.12-.07-.09,0,0,0-.1s0,0,0,.06v-.06l0-.11s0,0,0,0l0-.09a.08.08,0,0,1,0,0l.06-.08,0,0,.08-.06,0,0,.1,0h.15l.09,0,0,0,.07.06,0,0,.06.07,0,0,0,.08a.43.43,0,0,0,0-.05v.1s0,0,0,0l0,.07,0,0-.05.07s0,0,0,0l-.06,0,0,0-.07,0h0l-.35-.21v-.07s0,0,0,0l0-.07,0,0,.05-.06s0,0,0,0l.06,0h0a.32.32,0,0,0-.14.18.17.17,0,0,0,0,.1.2.2,0,0,0,0,.11.27.27,0,0,0,.17.13.28.28,0,0,0,.22,0Z"/><path class="cls-1" d="M41.82,114.62l0-.08h0l0-.15,0-.17s0,0,0-.08h0c0-.11,0-.23,0-.34a.86.86,0,0,1,0-.16.19.19,0,0,1,0-.08s0,0,0,0a2.8,2.8,0,0,1,.09-.31c0-.1,0,.08,0,0a.75.75,0,0,0,.07-.12l0,0s0,0,0,0A.45.45,0,0,1,42,113c-.06,0-.06,0,0,0l.06,0h0s0,0,0,0H42c-.06,0-.07,0,0,0s0,0,0,0l.06,0s0,0,0,0l0,0,0,0h0s.06.1.08.14.05.13,0,0c0,.1.07.21.1.31l.15.71a2.44,2.44,0,0,0,.24.75.42.42,0,0,0,.75-.11.92.92,0,0,0,0-.37c0-.15,0-.29-.05-.44s-.09-.43-.14-.64a1.94,1.94,0,0,0-.69-1.22,1,1,0,0,0-1.32.12,2,2,0,0,0-.52,1.11,3.6,3.6,0,0,0,.09,1.53.48.48,0,0,0,.67.32.49.49,0,0,0,.26-.7Z"/><path class="cls-1" d="M46.19,112.5a1.46,1.46,0,0,0-1.39-.08,1.18,1.18,0,0,0-.64,1.11.92.92,0,0,0,1,.9c.52,0,.93-.62,1.2-1l-.73-.08a11.88,11.88,0,0,1,.63,3.4,1.38,1.38,0,0,1,0,.64.57.57,0,0,1-.44.22,17,17,0,0,1-1.75.09.4.4,0,0,0-.12.79,4.19,4.19,0,0,0,2.14,0,1.39,1.39,0,0,0,1.14-1.32,7.36,7.36,0,0,0-.2-2,14.78,14.78,0,0,0-.58-2.07.4.4,0,0,0-.67-.17,2.33,2.33,0,0,1-.51.48l-.13.08s.13,0,.12,0,0-.08,0-.09c0-.33.41-.24.58-.14a.46.46,0,0,0,.47-.79Z"/><path class="cls-1" d="M85.73,105.55c0,1.06.07,2.12.08,3.19v1.59a6.88,6.88,0,0,0,.11,1.57.41.41,0,0,0,.78,0,5.89,5.89,0,0,0,.14-1.57q0-.79,0-1.59c0-1.07,0-2.13-.07-3.19a.52.52,0,0,0-1,0Z"/><path class="cls-1" d="M88,109.86a7.38,7.38,0,0,0,0,1,3.5,3.5,0,0,0,.07.45,2.47,2.47,0,0,0,.18.52.39.39,0,0,0,.7-.1,4.75,4.75,0,0,0,0-.53v-.46c0-.31,0-.62,0-.93a.51.51,0,0,0-.51-.51.54.54,0,0,0-.52.51Z"/><path class="cls-1" d="M88.61,107.78a.37.37,0,0,0-.34-.19.5.5,0,0,0-.21,0,.27.27,0,0,0-.08.07l-.06.07a.33.33,0,0,0,0,.16.58.58,0,0,0,.06.29.61.61,0,0,0,.22.23.49.49,0,0,0,.29.08.29.29,0,0,0,.2-.05.38.38,0,0,0,.14-.14.61.61,0,0,0,.07-.14.14.14,0,0,1,0-.06c0-.05,0-.1,0-.15a.78.78,0,0,0,0-.22.88.88,0,0,0-.1-.22.39.39,0,0,0-.16-.15l0,0-.09,0h-.09a.2.2,0,0,0-.11,0l-.11,0-.07.06a.21.21,0,0,0-.07.11.11.11,0,0,0,0,.08.3.3,0,0,0,0,.13v0h0l0,.09.07.08-.06-.07a.94.94,0,0,0,.09.12s0,0,0,0l-.06-.08a.3.3,0,0,1,0,.08l0-.09a.36.36,0,0,1,0,.1V108a.14.14,0,0,1,0,.09l0-.09,0,.09,0-.08,0,0,.22-.17h0l.09,0a.06.06,0,0,1-.06,0h0l.08,0-.06,0,.07.05-.06-.05.06.06a.09.09,0,0,1,0-.06l0,.08s0,0,0-.05v.06l-.05.15v0l0,.07,0,0-.07,0h0l-.08,0h-.07l-.08,0h0l-.06-.05a0,0,0,0,1,0,0,.34.34,0,0,0,.21.08h.08a.24.24,0,0,0,.11-.06.31.31,0,0,0,.11-.16.29.29,0,0,0,0-.22Z"/><path class="cls-1" d="M92.41,109.29a1.38,1.38,0,0,0-2.24.21,1,1,0,0,0,.24,1.32c.13.12.28.23.41.36s0,0,0,0l.07.13s0,0,0,0a.14.14,0,0,1,0,.06s0,.09,0,0,0,0,0,0,0,0,0,0l0,.07s0,0,0,0,0,.06,0,.06.06-.07,0,0,.08-.06,0,0-.08,0,0,0,.12,0,.08,0h0s.11,0,0,0h-.06c-.08,0,0,0,0,0l0,0s.07.08,0,0,.07.09,0,0a.53.53,0,0,0-.14-.12.41.41,0,0,0-.48.07.51.51,0,0,0-.12.47.72.72,0,0,0,.19.34.82.82,0,0,0,.76.22,1,1,0,0,0,.77-1.06,1.62,1.62,0,0,0-.79-1.17h0l-.06,0-.08-.08c-.06,0,0,0,0,0l0,0s0,0,0,0,0,0,0,0h0a.29.29,0,0,1,0-.09s0-.07,0,0,0,0,0,0l.05-.08s0,0,0,0l.07-.06s0,0,0,0l.06,0,.07,0s0,0,0,0l.15,0c-.08,0,.06,0,.09,0s.06,0,0,0,.07,0,.07,0l0,0c.07,0,0,0,0,0l.07,0,0,0,0,0,.09.09a.4.4,0,0,0,.56,0,.38.38,0,0,0,0-.55Z"/><path class="cls-1" d="M93.66,107.82l.15,2.12.07,1a2.33,2.33,0,0,0,.23,1.11.4.4,0,0,0,.68,0,2.15,2.15,0,0,0,.12-1.07l-.08-1.09-.14-2.12a.51.51,0,0,0-.5-.51.55.55,0,0,0-.53.52Z"/><path class="cls-1" d="M93.33,110.48l1.17-.14c.22,0,.43,0,.65-.08a1.13,1.13,0,0,0,.67-.29.37.37,0,0,0-.08-.58,1,1,0,0,0-.66-.12l-.58.06-1.15.13a.65.65,0,0,0-.38.16.58.58,0,0,0-.15.36.5.5,0,0,0,.51.5Z"/><path class="cls-1" d="M96.64,110.09l0,1c0,.2,0,.41,0,.61a3.07,3.07,0,0,0,.13.5.42.42,0,0,0,.39.29.43.43,0,0,0,.41-.3,3,3,0,0,0,.09-.59c0-.17,0-.35,0-.52l-.06-1a.52.52,0,0,0-.51-.51.54.54,0,0,0-.52.52Z"/><path class="cls-1" d="M97.12,108.27a.46.46,0,0,0,.19-.2.5.5,0,0,0,0-.13.59.59,0,0,0,0-.13.27.27,0,0,0-.09-.21.28.28,0,0,0-.2-.08.46.46,0,0,0-.23.06.73.73,0,0,0-.18.17.77.77,0,0,0-.07.16.43.43,0,0,0,0,.12v0a.63.63,0,0,0,.07.26.43.43,0,0,0,.15.15.43.43,0,0,0,.33,0l.15-.06a.38.38,0,0,0,.12-.1.39.39,0,0,0,.08-.1l0,0a.72.72,0,0,0,.07-.25.44.44,0,0,0,0-.16.61.61,0,0,0,0-.12l-.09-.11a.42.42,0,0,0-.22-.13h0a.54.54,0,0,0-.22,0,.4.4,0,0,0-.18.1.59.59,0,0,0-.1.17.39.39,0,0,0,.1.37l.09.07-.08-.06a.08.08,0,0,1,0,0l-.06-.09.09.12-.07-.08,0,0,0-.1a.13.13,0,0,1,0,.06V108l0-.1s0,0,0,0l0-.09a.08.08,0,0,1,0,0l.06-.08,0,0,.08-.06a.05.05,0,0,1,0,0l.1,0h.15l.09,0h0l.07.05,0,0,.06.08s0,0,0,0l0,.08a.08.08,0,0,1,0,0v.1a.43.43,0,0,0,0-.05l0,.08,0,0,0,.06,0,0-.06,0,0,0-.07,0h0l-.35-.2v-.06a.06.06,0,0,1,0,.06v-.07a.08.08,0,0,1,0,0l0-.07,0,0,0-.06,0,0,.06,0h0a.36.36,0,0,0-.14.18.2.2,0,0,0,0,.11.17.17,0,0,0,0,.1.29.29,0,0,0,.17.14.28.28,0,0,0,.22,0Z"/><path class="cls-1" d="M99.42,111.93l0-.08c0,.06,0,.06,0,0a.75.75,0,0,0,0-.16l0-.16a.28.28,0,0,1,0-.09h0a1.82,1.82,0,0,1,0-.33,1,1,0,0,1,0-.17s0,0,0-.08,0,0,0,0l.09-.31c0-.1-.05.08,0,0l.06-.12,0-.06s0,.06,0,0,.08-.1.09-.09l0,0,.06,0c-.07,0-.08,0,0,0h0l.06,0s0,0,0,0l0,0,.05.06s0,0,0,0,.06.11.08.14,0,.13,0,0l.09.31.15.71a2.35,2.35,0,0,0,.24.75.42.42,0,0,0,.75-.1,1.24,1.24,0,0,0,0-.38l-.06-.43c0-.22-.09-.44-.14-.65a1.91,1.91,0,0,0-.69-1.21,1,1,0,0,0-1.32.12,2,2,0,0,0-.51,1.1,3.49,3.49,0,0,0,.08,1.54.5.5,0,0,0,.68.32.51.51,0,0,0,.25-.71Z"/><path class="cls-1" d="M103.79,109.82a1.44,1.44,0,0,0-1.38-.09,1.19,1.19,0,0,0-.65,1.12.93.93,0,0,0,1,.9c.53,0,.93-.63,1.2-1l-.73-.08a11.55,11.55,0,0,1,.63,3.4,1.38,1.38,0,0,1,0,.64c-.08.16-.28.19-.44.22a14.55,14.55,0,0,1-1.75.1.4.4,0,0,0-.11.78,4,4,0,0,0,2.13,0,1.39,1.39,0,0,0,1.14-1.32,7.7,7.7,0,0,0-.19-2,18.28,18.28,0,0,0-.58-2.08.4.4,0,0,0-.67-.17,3.37,3.37,0,0,1-.51.49s-.14.07-.13.08.12,0,.11,0,0-.08,0-.09c0-.32.41-.23.59-.14a.45.45,0,0,0,.46-.78Z"/><path class="cls-1" d="M26.35,150.69c0,1.07.06,2.13.07,3.19,0,.53,0,1.06,0,1.59a6.44,6.44,0,0,0,.11,1.58.41.41,0,0,0,.78,0,5.93,5.93,0,0,0,.14-1.57c0-.54,0-1.07,0-1.6,0-1.06,0-2.12-.08-3.18a.52.52,0,0,0-1,0Z"/><path class="cls-1" d="M28.62,155a9.05,9.05,0,0,0,.05,1,2.44,2.44,0,0,0,.07.46,3.05,3.05,0,0,0,.17.51.37.37,0,0,0,.38.18.39.39,0,0,0,.32-.28,4.35,4.35,0,0,0,.06-.52c0-.16,0-.31,0-.47,0-.31,0-.62,0-.93a.5.5,0,0,0-.51-.5.54.54,0,0,0-.53.51Z"/><path class="cls-1" d="M29.23,152.92a.41.41,0,0,0-.35-.19.39.39,0,0,0-.2.06l-.09.06a.45.45,0,0,0-.05.08.28.28,0,0,0-.05.16.58.58,0,0,0,.06.29.63.63,0,0,0,.21.22.62.62,0,0,0,.3.09.45.45,0,0,0,.19-.05.36.36,0,0,0,.15-.15.59.59,0,0,0,.06-.14.08.08,0,0,0,0-.06.77.77,0,0,0,0-.15.56.56,0,0,0,0-.22.78.78,0,0,0-.09-.21.61.61,0,0,0-.16-.16h0l-.08,0H29l-.11,0a.21.21,0,0,0-.1,0l-.08,0a.41.41,0,0,0-.07.11.24.24,0,0,0,0,.08.29.29,0,0,0,0,.13v0l0,.09.06.08-.06-.08a.58.58,0,0,0,.1.12l0,0-.06-.07,0,.07,0-.09a.23.23,0,0,1,0,.11v-.09a.19.19,0,0,1,0,.08l0-.08s0,0,0,0L29,153h.1l-.05,0,.08,0-.07,0,.07,0-.05,0,.05.07,0-.06,0,.08a.13.13,0,0,1,0-.06v.06l0,.15h0l-.05.06h0l-.06,0h0l-.08,0h-.08l-.07,0h0l-.06,0,0,0a.26.26,0,0,0,.21.08H29l.11-.05a.36.36,0,0,0,.11-.16.36.36,0,0,0,0-.23Z"/><path class="cls-1" d="M33,154.43a1.4,1.4,0,0,0-2.25.21,1.09,1.09,0,0,0-.13.77A1.18,1.18,0,0,0,31,156a4.71,4.71,0,0,1,.41.35c.06.07,0,0,0,0l.07.12v0a.14.14,0,0,0,0,.06v0c0-.06,0,0,0,0s0,0,0,0l0,.07s0,0,0,0,0,0,0,.06.07-.08,0,0,.08,0,0,0-.09,0,0,0l.07,0h0s.1,0,0,0l-.07,0h0l0,0c-.05,0,.07.07,0,0s.07.1,0,0a.26.26,0,0,0-.14-.11.39.39,0,0,0-.47.07.51.51,0,0,0-.12.47.58.58,0,0,0,.19.34.84.84,0,0,0,.76.22,1,1,0,0,0,.77-1.07,1.62,1.62,0,0,0-.8-1.17s0,0,0,0l-.06,0-.09-.08c-.06-.06,0,0,0,0a.08.08,0,0,0,0,0s0,0,0,0,0,0,0,0,0,0,0,0l0-.09v0c0,.05,0,0,0,0l.05-.08h0l.07-.07s0,0,0,0l.06,0,.07,0s0,0,0,0l.15,0c-.07,0,.06,0,.09,0s.07,0,0,0l.06,0h.06c.06,0,0,0,0,0l.07,0s.06,0,0,0,0,0,0,0l.08.09a.42.42,0,0,0,.57,0,.4.4,0,0,0,0-.56Z"/><path class="cls-1" d="M34.28,153l.14,2.13.07,1a2.38,2.38,0,0,0,.24,1.12.4.4,0,0,0,.67,0,2.1,2.1,0,0,0,.12-1.08l-.07-1.08L35.31,153a.52.52,0,0,0-.51-.5.53.53,0,0,0-.52.51Z"/><path class="cls-1" d="M33.94,155.63l1.17-.14.66-.09a1.07,1.07,0,0,0,.66-.28.38.38,0,0,0-.07-.59,1,1,0,0,0-.66-.11,5.9,5.9,0,0,0-.59.06l-1.15.13a.57.57,0,0,0-.37.16.47.47,0,0,0-.15.35.5.5,0,0,0,.5.51Z"/><path class="cls-1" d="M37.25,155.23l.06,1c0,.21,0,.41,0,.62a2.72,2.72,0,0,0,.13.49.43.43,0,0,0,.39.3.44.44,0,0,0,.4-.31,2.26,2.26,0,0,0,.09-.58,4.7,4.7,0,0,0,0-.53l-.05-1a.5.5,0,0,0-.51-.5.54.54,0,0,0-.53.51Z"/><path class="cls-1" d="M37.74,153.42a.48.48,0,0,0,.19-.21.43.43,0,0,0,0-.12.68.68,0,0,0,0-.14.23.23,0,0,0,0-.11.21.21,0,0,0-.06-.1.32.32,0,0,0-.2-.08.45.45,0,0,0-.23.07.49.49,0,0,0-.25.32.5.5,0,0,0,0,.12,0,0,0,0,0,0,.05.54.54,0,0,0,.06.25.49.49,0,0,0,.16.16.47.47,0,0,0,.33,0l.14-.06.13-.1.08-.1s0,0,0,0a.51.51,0,0,0,.07-.24.42.42,0,0,0,0-.16s0-.09-.06-.13a.76.76,0,0,0-.08-.11.48.48,0,0,0-.23-.13h0a.41.41,0,0,0-.22,0,.32.32,0,0,0-.18.1.38.38,0,0,0,0,.54l.09.06-.08-.05,0,0-.07-.08.09.12-.06-.09,0,.05,0-.1s0,0,0,.06v-.17a.09.09,0,0,1,0,.05l0-.1,0,0,.06-.08,0,0,.09-.06,0,0,.09,0h.16l.09,0,0,0,.07.06,0,0,.06.07a.05.05,0,0,1,0,0l0,.09s0,0,0-.06v.11a.07.07,0,0,1,0,0l0,.07,0,0-.05.06,0,0-.07,0,0,0-.08,0h0l-.36-.2v0l0-.07,0,0,.05-.06,0,0,.06-.05,0,0a.29.29,0,0,0-.14.17.45.45,0,0,0,0,.11.21.21,0,0,0,0,.11.31.31,0,0,0,.17.13.28.28,0,0,0,.22,0Z"/><path class="cls-1" d="M40,157.07a.25.25,0,0,0,0-.07c0,.05,0,.06,0,0a.75.75,0,0,1,0-.16c0-.05,0-.1,0-.16a.22.22,0,0,0,0-.08c0,.05,0,.05,0,0s0-.22,0-.33,0-.11,0-.17a.25.25,0,0,1,0-.08c0,.05,0,.05,0,0s0-.2.09-.3-.05.08,0,0l.07-.12a.1.1,0,0,1,0-.05h0l.09-.09,0,0,.05,0c-.06,0-.07,0,0,0h0s0,0,0,0l.06,0s0,0,0,0,0,0,0,.05l.05.05,0,0s.07.11.09.14,0,.14,0,0a1.92,1.92,0,0,1,.09.32c.06.23.11.47.16.71a2.44,2.44,0,0,0,.24.75.42.42,0,0,0,.75-.11,1.14,1.14,0,0,0,0-.37,3.32,3.32,0,0,0-.06-.44,5,5,0,0,0-.14-.65,1.9,1.9,0,0,0-.68-1.21,1.06,1.06,0,0,0-1.33.12,2.07,2.07,0,0,0-.51,1.11,3.6,3.6,0,0,0,.09,1.53.49.49,0,0,0,.67.32.5.5,0,0,0,.26-.71Z"/><path class="cls-1" d="M44.4,155a1.47,1.47,0,0,0-1.38-.09,1.19,1.19,0,0,0-.64,1.12.92.92,0,0,0,1,.9c.52,0,.93-.62,1.2-1l-.74-.09a12,12,0,0,1,.64,3.4,1.31,1.31,0,0,1-.06.65c-.08.16-.27.19-.43.22a17.09,17.09,0,0,1-1.75.09.4.4,0,0,0-.12.79,4.27,4.27,0,0,0,2.13,0,1.4,1.4,0,0,0,1.15-1.32,7.75,7.75,0,0,0-.2-2,15.3,15.3,0,0,0-.58-2.08.4.4,0,0,0-.67-.16,2.59,2.59,0,0,1-.51.48l-.13.08s.13,0,.12,0,0-.08,0-.08c0-.33.42-.24.59-.14a.46.46,0,0,0,.46-.79Z"/><path class="cls-1" d="M72.76,149.42c0,1.06.06,2.12.07,3.19,0,.53,0,1.06,0,1.59a6.36,6.36,0,0,0,.11,1.57.41.41,0,0,0,.78,0,6.33,6.33,0,0,0,.14-1.57V152.6c0-1.07,0-2.13-.08-3.19a.52.52,0,0,0-1,0Z"/><path class="cls-1" d="M75,153.73a7.38,7.38,0,0,0,0,1.05,3.47,3.47,0,0,0,.06.45,4.56,4.56,0,0,0,.18.52.37.37,0,0,0,.38.17.36.36,0,0,0,.32-.27,4.78,4.78,0,0,0,.06-.53c0-.15,0-.31,0-.46,0-.31,0-.62,0-.94a.52.52,0,0,0-.51-.5.54.54,0,0,0-.53.51Z"/><path class="cls-1" d="M75.64,151.65a.39.39,0,0,0-.35-.19.46.46,0,0,0-.2,0l-.09.07-.06.07a.32.32,0,0,0,0,.16.49.49,0,0,0,.06.29.67.67,0,0,0,.21.23.6.6,0,0,0,.29.08.46.46,0,0,0,.2,0,.47.47,0,0,0,.14-.14.61.61,0,0,0,.07-.14.14.14,0,0,0,0-.06.77.77,0,0,0,0-.15.78.78,0,0,0,0-.22.85.85,0,0,0-.09-.22.46.46,0,0,0-.16-.15l0,0-.08,0h-.1a.21.21,0,0,0-.11,0l-.1,0-.08.06a.3.3,0,0,0-.07.11.19.19,0,0,0,0,.08.24.24,0,0,0,0,.12v0h0l0,.09.06.08-.06-.07.09.12,0,0-.07-.08a.35.35,0,0,1,0,.08l0-.09a.19.19,0,0,1,0,.1v-.09a.29.29,0,0,1,0,.09l0-.09s0,0,0,0l.22-.17h0l.08,0-.07,0,.07.05-.05-.05.05.06a.33.33,0,0,1,0-.06l0,.08s0,0,0-.05v.05l0,.16v0l0,.07v0l-.06,0h0l-.08,0h-.08l-.07,0h0l-.06,0h0a.27.27,0,0,0,.21.09h.08a.21.21,0,0,0,.1-.06.28.28,0,0,0,.12-.16.34.34,0,0,0,0-.22Z"/><path class="cls-1" d="M79.44,153.16a1.39,1.39,0,0,0-2.25.21,1.08,1.08,0,0,0-.13.77,1.1,1.1,0,0,0,.37.55,4.79,4.79,0,0,1,.41.36c.06.06,0,0,0,0l.07.13v0a.14.14,0,0,0,0,.06v0c0-.06,0,0,0,0s0,0,0,0l0,.07s0,0,0,0,0,.06,0,.06.07-.07,0,0,.09-.06,0,0-.09,0,0,0l.08,0h0s.11,0,0,0l-.06,0c-.07,0,0,0,0,0l0,0c-.05,0,.07.08,0,0s.08.09,0,0a.33.33,0,0,0-.14-.12.39.39,0,0,0-.47.07.51.51,0,0,0-.12.47.58.58,0,0,0,.19.34.82.82,0,0,0,.76.22,1,1,0,0,0,.77-1.06,1.6,1.6,0,0,0-.8-1.17s0,0,0,0l-.06,0-.09-.08c-.06-.05,0,0,0,0s0,0,0,0,0,0,0,0,0,0,0,0,0,0,0,0l0-.09v0s.08-.11,0-.08,0,0,0,0l.07-.06s0,0,0,0l.06,0,.07,0s0,0,0,0l.15,0c-.07,0,.06,0,.09,0s.07,0,0,0,.06,0,.06,0l.06,0c.06,0,0,0,0,0l.08,0,0,0,0,0,.08.09a.41.41,0,0,0,.57,0,.39.39,0,0,0,0-.55Z"/><path class="cls-1" d="M80.69,151.69l.14,2.12.07,1.05a2.37,2.37,0,0,0,.24,1.11.39.39,0,0,0,.67,0,2,2,0,0,0,.12-1.07l-.07-1.09-.14-2.12a.52.52,0,0,0-.51-.51.54.54,0,0,0-.52.52Z"/><path class="cls-1" d="M80.35,154.35l1.17-.14c.22,0,.44,0,.66-.08a1.08,1.08,0,0,0,.66-.29.37.37,0,0,0-.07-.58,1,1,0,0,0-.66-.12c-.2,0-.39,0-.59.06l-1.15.13a.57.57,0,0,0-.37.16.54.54,0,0,0-.16.36.51.51,0,0,0,.51.5Z"/><path class="cls-1" d="M83.66,154l.06,1c0,.2,0,.41,0,.61a2.72,2.72,0,0,0,.13.49.41.41,0,0,0,.39.3.43.43,0,0,0,.4-.3,2.41,2.41,0,0,0,.09-.59,4.52,4.52,0,0,0,0-.52l-.06-1a.5.5,0,0,0-.5-.51.55.55,0,0,0-.53.52Z"/><path class="cls-1" d="M84.15,152.14a.46.46,0,0,0,.19-.2.5.5,0,0,0,0-.13.57.57,0,0,0,0-.13.14.14,0,0,0,0-.11.21.21,0,0,0-.06-.1.32.32,0,0,0-.2-.08.44.44,0,0,0-.23.06.49.49,0,0,0-.18.17.52.52,0,0,0-.09.28.06.06,0,0,0,0,0,.55.55,0,0,0,.07.25.35.35,0,0,0,.16.16.42.42,0,0,0,.33,0,.35.35,0,0,0,.14-.06l.13-.1.08-.1a0,0,0,0,0,0,0,.55.55,0,0,0,.07-.25.3.3,0,0,0,0-.16.61.61,0,0,0,0-.12.44.44,0,0,0-.08-.11.41.41,0,0,0-.23-.13h0a.41.41,0,0,0-.22,0,.4.4,0,0,0-.18.1.42.42,0,0,0-.1.17.36.36,0,0,0,.1.37.31.31,0,0,0,.09.07L83.8,152l0,0-.07-.09.09.12L83.8,152a.05.05,0,0,1,0,0l0-.1a.14.14,0,0,1,0,.06v-.16a.06.06,0,0,1,0,0l0-.09,0,0,.07-.08,0,0,.09-.06,0,0,.09,0h.16l.09,0,0,0,.08.06,0,0,.06.07,0,0,0,.08a.07.07,0,0,1,0-.05v.1a.11.11,0,0,1,0,0l0,.08s0,0,0,0l-.05.07,0,0-.07,0,0,0-.08,0h0l-.36-.2v-.08s0,0,0,0l0-.06,0,.05,0-.06,0,0,.06-.05h0a.28.28,0,0,0-.14.18.2.2,0,0,0,0,.11.17.17,0,0,0,0,.1.24.24,0,0,0,.18.13.25.25,0,0,0,.22,0Z"/><path class="cls-1" d="M86.45,155.8l0-.08c0,.06,0,.06,0,0a1.42,1.42,0,0,1,0-.16,1,1,0,0,1,0-.17.25.25,0,0,0,0-.08h0c0-.11,0-.22,0-.33s0-.12,0-.17a.19.19,0,0,1,0-.08s0,0,0,0,0-.2.08-.31,0,.08,0,0a.75.75,0,0,1,.07-.12l0-.06c0,.05-.05.06,0,0s.07-.1.09-.09-.07.05,0,0l.05,0h0s0,0,0,0l.06,0s0,0,0,0l0,0,.05.05s0,0,0,0,.07.11.09.14,0,.13,0,0a1.81,1.81,0,0,1,.09.31c.06.24.11.48.16.71a2.13,2.13,0,0,0,.24.75.42.42,0,0,0,.75-.1,1.23,1.23,0,0,0,0-.38,3.56,3.56,0,0,0-.06-.44,4.89,4.89,0,0,0-.14-.64,1.9,1.9,0,0,0-.68-1.21,1,1,0,0,0-1.33.12,2,2,0,0,0-.51,1.1,3.6,3.6,0,0,0,.09,1.53.49.49,0,0,0,.67.33.5.5,0,0,0,.26-.71Z"/><path class="cls-1" d="M90.81,153.69a1.42,1.42,0,0,0-1.38-.09,1.18,1.18,0,0,0-.64,1.12.91.91,0,0,0,1,.89c.52,0,.93-.62,1.2-1l-.74-.08a11.89,11.89,0,0,1,.64,3.4,1.26,1.26,0,0,1-.06.64c-.08.16-.27.19-.43.22a17.11,17.11,0,0,1-1.75.1.4.4,0,0,0-.12.78,4.05,4.05,0,0,0,2.13,0,1.4,1.4,0,0,0,1.15-1.32,7.84,7.84,0,0,0-.2-2A14.78,14.78,0,0,0,91,154.3a.4.4,0,0,0-.67-.17,2.64,2.64,0,0,1-.51.49l-.13.08s.13,0,.12,0,0-.08,0-.09c0-.32.42-.23.59-.14a.45.45,0,0,0,.46-.78Z"/><path class="cls-2" d="M152.54,59.15q1.53-2.37,3.15-4.66a46.55,46.55,0,0,0,3.16-4.62.45.45,0,0,0-.71-.53,27.8,27.8,0,0,0-3.61,4.41q-1.67,2.32-3.21,4.73c-.5.77.74,1.43,1.22.67Z"/><path class="cls-2" d="M152.36,52.24a31.39,31.39,0,0,0,3.87,8.17.66.66,0,0,0,1.13-.66c-1.15-2.64-2.41-5.22-3.34-8a.85.85,0,0,0-1-.59.88.88,0,0,0-.63,1Z"/><path class="cls-2" d="M159.12,61.78c0,.58,0,1.16,0,1.73a15.76,15.76,0,0,0,.2,1.83.65.65,0,0,0,.63.48.68.68,0,0,0,.64-.49,14.24,14.24,0,0,0,.21-1.83c0-.58,0-1.16,0-1.73a.83.83,0,0,0-.83-.84.91.91,0,0,0-.88.85Z"/><path class="cls-2" d="M182.08,101.38l3.17-3.93,1.55-2a7.26,7.26,0,0,0,1.42-2.11.5.5,0,0,0-.74-.55,7.21,7.21,0,0,0-1.69,1.79l-1.56,1.94-3.1,3.89a.67.67,0,0,0,0,.94.69.69,0,0,0,1,0Z"/><path class="cls-2" d="M181.59,95.41l1.4,3.46a18.9,18.9,0,0,0,1.63,3.43.64.64,0,0,0,1.16-.48,18.52,18.52,0,0,0-1.16-3.46L183.25,95a.87.87,0,0,0-1-.59.86.86,0,0,0-.62,1Z"/><path class="cls-2" d="M187.72,104.53l1.4-.16.29,0c.07,0,0,0-.06,0a.35.35,0,0,1-.2-.23v0s0-.1,0,0,.05-.07,0,0l-.08.13c-.24.37-.54.71-.81,1.07l-.43.57-.4.51a.71.71,0,0,0,.14,1.12,6.19,6.19,0,0,0,4.14.75.55.55,0,0,0,0-1.06l-1.78-.41q-.44-.1-.87-.24l-.41-.15c.17.07-.25-.1-.09,0l-.27-.12.26,1c.33-.48.68-.94,1-1.41a4.81,4.81,0,0,0,.92-1.42,1.15,1.15,0,0,0-.11-.91,1.11,1.11,0,0,0-.95-.49,7.08,7.08,0,0,0-.79.09l-.89.11a.72.72,0,0,0-.71.68.67.67,0,0,0,.68.67Z"/><path class="cls-2" d="M173.92,153.9c.87-1,1.74-1.9,2.59-2.87.42-.46.84-.93,1.24-1.41a4.46,4.46,0,0,0,1.12-1.73.51.51,0,0,0-.62-.62,4.3,4.3,0,0,0-1.6,1.21c-.45.46-.89.93-1.32,1.4-.88,1-1.74,1.9-2.61,2.86a.85.85,0,0,0,0,1.18.86.86,0,0,0,1.21,0Z"/><path class="cls-2" d="M173.13,148.88c.4,1.22.83,2.42,1.31,3.6a19.66,19.66,0,0,0,1.67,3.53c.41.64,1.56.24,1.32-.54-.37-1.2-.89-2.33-1.36-3.5s-.89-2.34-1.28-3.53a.86.86,0,0,0-1.66.44Z"/><path class="cls-2" d="M179.18,160.54a5,5,0,0,1,.34-2.14,5.46,5.46,0,0,1,.48-1l.12-.17c0,.05,0,.05,0,0s.06-.06,0,0h0l-.08,0a.24.24,0,0,1-.14,0l.1.06c-.15-.09,0,0,.05.07s0,0,0,0l.07.11a3.55,3.55,0,0,1,.21.44l.07.18.09.27q.09.28.15.57c0,.18.07.37.1.55a2.51,2.51,0,0,1,0,.27h0c0,.05,0,.11,0,.16a9,9,0,0,0,.15,1.27.64.64,0,0,0,.62.48.7.7,0,0,0,.65-.49,4.37,4.37,0,0,0,0-2.38,8.73,8.73,0,0,0-.3-1,6.49,6.49,0,0,0-.47-1,2,2,0,0,0-.8-.75,1.34,1.34,0,0,0-1.41.21,2.53,2.53,0,0,0-.59.88,8.16,8.16,0,0,0-.44,1.06,10,10,0,0,0-.45,2.48.68.68,0,0,0,.69.69c.34,0,.75-.31.71-.7Z"/><path class="cls-1" d="M236.26,121.47c16-.12,32.08-.37,48.13-.18,4.57,0,9.15.18,13.72.15a.27.27,0,0,0,0-.53c-4.07-.15-8.15-.12-12.22-.14s-8,0-12,0q-12,0-24,.11c-4.57,0-9.14.1-13.72.22a.21.21,0,0,0,0,.41Z"/><path class="cls-1" d="M240.34,65.55q.33,23.21.06,46.42c-.05,4.31-.33,8.66-.13,13a.22.22,0,0,0,.43,0c.32-3.89.2-7.83.22-11.73s0-7.65.08-11.48q.13-11.6,0-23.21l-.18-13c0-.29-.46-.28-.45,0Z"/><path class="cls-1" d="M240.11,65.74l-.84.78-.42.39c-.14.13-.34.28-.39.47a.18.18,0,0,0,.23.22.68.68,0,0,0,.28-.17l.21-.18.43-.4.84-.78a.23.23,0,0,0,0-.34.24.24,0,0,0-.34,0Z"/><path class="cls-1" d="M240.7,66.42l.66.71c.1.12.21.23.32.35s.11.11.17.17l.26.17a.34.34,0,0,0,.4-.06.32.32,0,0,0,.05-.39,1.71,1.71,0,0,0-.13-.23l-.18-.21-.33-.36-.65-.72a.4.4,0,0,0-.56,0,.39.39,0,0,0,0,.55Z"/><path class="cls-1" d="M298,120.55a6.05,6.05,0,0,0-.62-1,2.49,2.49,0,0,0-.84-.74.26.26,0,0,0-.33.05.27.27,0,0,0-.05.33,4.82,4.82,0,0,0,.35.44c.05.07.12.13.17.2a.39.39,0,0,1,.08.1l.05,0,0,0s0,0,0,0l0,.05.07.11a1.37,1.37,0,0,1,.15.21c.1.15.19.31.27.46a.36.36,0,0,0,.62-.35Z"/><path class="cls-1" d="M297.44,121.33a12.81,12.81,0,0,0-1.16.61c-.38.22-.76.43-1.12.68-.13.09-.06.34.11.27a17.72,17.72,0,0,0,2.43-1.1.28.28,0,0,0,.11-.37.28.28,0,0,0-.37-.09Z"/><path class="cls-1" d="M300.45,122.73a20.19,20.19,0,0,0,0,2.58.24.24,0,0,0,.22.24.25.25,0,0,0,.28-.18,21.32,21.32,0,0,0,.2-2.64.35.35,0,0,0-.35-.36.37.37,0,0,0-.37.36Z"/><path class="cls-1" d="M301.54,123.51a5.6,5.6,0,0,0,.11,1.87.29.29,0,0,0,.56-.08c0-.6,0-1.2.1-1.8a.37.37,0,0,0-.38-.38.41.41,0,0,0-.39.39Z"/><path class="cls-1" d="M301.08,122.91a1.7,1.7,0,0,1,2.34.22c.11.13.29.4.18.58s-.28.17-.41.21c-.38.12-.84.25-.92.7a.26.26,0,0,0,.07.27,10.46,10.46,0,0,0,1.27.91,5.64,5.64,0,0,0,1.41.65.28.28,0,0,0,.22-.51,14.78,14.78,0,0,0-1.29-.73c-.43-.24-.85-.5-1.26-.76l.13.31c0-.15.26-.18.41-.22a1.77,1.77,0,0,0,.66-.25,1.13,1.13,0,0,0-.06-1.71,2.25,2.25,0,0,0-3.1,0c-.23.23.11.56.35.34Z"/><path class="cls-2" d="M242.06,116.19c5.05,1.27,9.67-2.33,12.19-6.4a49.35,49.35,0,0,0,3.45-7.45c1.06-2.6,2.15-5.34,4.23-7.31,1.86-1.75,4.85-2.76,7.22-1.41,2.14,1.22,3,3.82,3.68,6,.89,2.86,1.85,5.7,3,8.48,1,2.36,1.89,5.08,3.71,6.93,2.22,2.26,5.57,2,8.5,2.13,3.62.12,7.24.34,10.86.34a.29.29,0,0,0,0-.57c-3.2-.23-6.42-.29-9.63-.4-1.57-.06-3.16-.09-4.73-.19a7.19,7.19,0,0,1-4-1.27c-2.08-1.6-3-4.49-4-6.83-1.19-2.87-2.21-5.8-3.13-8.77-.65-2.09-1.39-4.41-3.16-5.85a6,6,0,0,0-6.23-.59,10.74,10.74,0,0,0-5,5.26c-1.27,2.45-2.15,5.1-3.28,7.62a20.12,20.12,0,0,1-5.17,7.49,9.71,9.71,0,0,1-8.33,2.36c-.25-.06-.37.33-.11.4Z"/><path class="cls-2" d="M242.26,116.32a.07.07,0,0,0,0-.13.07.07,0,0,0,0,.13Z"/><path class="cls-2" d="M242.26,118.47a.07.07,0,0,0,0-.13.07.07,0,0,0,0,.13Z"/><path class="cls-2" d="M242.54,119.76c.09,0,.09-.13,0-.13s-.09.13,0,.13Z"/><path class="cls-2" d="M241.74,116.52l0,.24a.23.23,0,0,0,0,.11l0,.12a.47.47,0,0,0,0,.1.31.31,0,0,0,.09.07.27.27,0,0,0,.18,0,.27.27,0,0,0,.17-.08l.05-.06a.37.37,0,0,0,0-.14v-.13a.07.07,0,0,0,0,0v-.31a.41.41,0,0,0-.11-.25.42.42,0,0,0-.16-.09.33.33,0,0,0-.14,0,.25.25,0,0,0-.14,0,.24.24,0,0,0-.1.1.19.19,0,0,0-.07.12.28.28,0,0,0,0,.18Z"/><path class="cls-2" d="M241.82,118.52v.35c0,.12,0,.23,0,.35a.24.24,0,0,0,.18.23.26.26,0,0,0,.27-.12,1.38,1.38,0,0,0,.18-.39,1.53,1.53,0,0,0,0-.43.33.33,0,0,0-.09-.23.39.39,0,0,0-.23-.09.4.4,0,0,0-.24.1.33.33,0,0,0-.09.23Z"/><path class="cls-2" d="M294.31,117.37V118a2.43,2.43,0,0,0,0,.38.83.83,0,0,0,0,.15.57.57,0,0,0,.11.22.26.26,0,0,0,.35,0,.46.46,0,0,0,.09-.15l0-.06a1.7,1.7,0,0,0,0-.22c0-.1,0-.21,0-.31s0-.44,0-.65a.34.34,0,0,0-.35-.35.39.39,0,0,0-.36.35Z"/><path class="cls-2" d="M294.19,119.52a2.27,2.27,0,0,0,0,.52,1.29,1.29,0,0,0,0,.21l.06.17.06.1a.25.25,0,0,0,.26.12.29.29,0,0,0,.13,0,.28.28,0,0,0,.1-.14s0-.11,0-.16v-.11a1.62,1.62,0,0,0,0-.22c0-.15,0-.3,0-.45a.34.34,0,0,0-.35-.34.36.36,0,0,0-.35.35Z"/><path class="cls-2" d="M241.71,120.08a1,1,0,0,0,0,.34.31.31,0,0,0,0,.13.27.27,0,0,0,.06.12l0,.06a.55.55,0,0,0,.11.1.32.32,0,0,0,.17,0,.35.35,0,0,0,.14-.06.31.31,0,0,0,.1-.15,1.29,1.29,0,0,0,0-.19.57.57,0,0,1,0-.13,1.06,1.06,0,0,1,0-.25.32.32,0,0,0,0-.14.42.42,0,0,0-.08-.12.32.32,0,0,0-.25-.09.37.37,0,0,0-.26.1.39.39,0,0,0-.1.25Z"/><path class="cls-2" d="M243.24,119.8c.28-.52.54-1.06.77-1.6.11-.27.22-.54.32-.82l.14-.41a1,1,0,0,0,.09-.45c0-.15-.22-.28-.33-.13a2.46,2.46,0,0,0-.33.8c-.1.27-.2.54-.31.81-.23.54-.48,1.06-.76,1.57a.24.24,0,0,0,.41.23Z"/><path class="cls-2" d="M245.12,120.05c.34-.59.68-1.18,1-1.79q.24-.45.45-.9a3.46,3.46,0,0,0,.34-.93c0-.13-.17-.18-.25-.1a4,4,0,0,0-.48.85c-.15.3-.3.6-.46.9-.3.6-.63,1.18-1,1.76a.22.22,0,0,0,.38.21Z"/><path class="cls-2" d="M248.06,119.74l1.14-3a25.71,25.71,0,0,0,1.06-3,.17.17,0,0,0-.32-.12,25.67,25.67,0,0,0-1.19,2.93c-.37,1-.74,2-1.12,3-.1.26.33.36.43.1Z"/><path class="cls-2" d="M251.14,119.79c1-2,1.92-4.1,2.84-6.16s1.86-4,2.58-6.09a.2.2,0,0,0-.36-.15c-1,2-1.79,4.09-2.66,6.12s-1.79,4.09-2.67,6.13c-.08.18.18.33.27.15Z"/><path class="cls-2" d="M254.27,119.42q2.39-5.37,4.49-10.87c1.43-3.71,2.9-7.44,4-11.25.08-.27-.32-.36-.41-.11-1.35,3.71-2.55,7.47-3.95,11.16s-2.87,7.35-4.41,11c-.06.14.18.23.24.09Z"/><path class="cls-2" d="M257.63,118.61q2.24-5.53,4.39-11.09c1.43-3.69,3-7.38,4.17-11.15a.18.18,0,0,0-.33-.13c-1.56,3.62-2.84,7.37-4.25,11.05s-2.86,7.5-4.31,11.24c-.08.21.25.28.33.08Z"/><path class="cls-2" d="M261.19,118.33q2.43-5.52,4.74-11.09c.78-1.89,1.56-3.78,2.32-5.67a49.32,49.32,0,0,0,2.13-5.73.2.2,0,0,0-.36-.14c-.9,1.75-1.55,3.66-2.27,5.49s-1.5,3.8-2.26,5.69q-2.28,5.67-4.66,11.31c-.08.2.27.34.36.14Z"/><path class="cls-2" d="M264.52,119.07q1.94-4.75,4-9.46c1.31-3,2.74-6,3.91-9.08.06-.17-.2-.26-.28-.11-1.59,2.92-2.88,6-4.18,9.11s-2.62,6.27-3.87,9.43c-.1.27.32.36.43.11Z"/><path class="cls-2" d="M268.4,119.27c1.82-4.2,4-8.25,5.77-12.45a.19.19,0,1,0-.34-.19A95.05,95.05,0,0,0,268,119.12c-.09.22.29.37.38.15Z"/><path class="cls-2" d="M271.94,118.85c.68-1.29,1.32-2.61,1.91-3.95a24.37,24.37,0,0,0,1.56-4,.18.18,0,0,0-.33-.13c-.33.63-.56,1.31-.83,2s-.56,1.34-.85,2c-.58,1.31-1.21,2.61-1.87,3.89-.14.27.27.5.41.22Z"/><path class="cls-2" d="M275.62,119c.37-.79.73-1.58,1.07-2.38a14.29,14.29,0,0,0,.92-2.4.19.19,0,0,0-.36-.14,23.75,23.75,0,0,0-1,2.33c-.33.81-.66,1.6-1,2.4-.11.23.23.42.34.19Z"/><path class="cls-2" d="M278.92,119.64c.25-.57.51-1.14.76-1.7a14,14,0,0,0,.69-1.72.21.21,0,0,0-.38-.15,11.87,11.87,0,0,0-.78,1.65l-.72,1.68a.25.25,0,0,0,.09.34.26.26,0,0,0,.34-.1Z"/><path class="cls-2" d="M282.49,119.87c.26-.35.51-.72.74-1.09l.33-.54.16-.3a.54.54,0,0,0,.09-.32c0-.11-.14-.12-.22-.09s-.15.16-.21.25-.11.18-.17.27l-.34.56c-.23.36-.48.72-.73,1.07a.2.2,0,0,0,.07.27.21.21,0,0,0,.28-.08Z"/><path class="cls-2" d="M285.21,119.23a15.54,15.54,0,0,0,.7-1.91.16.16,0,0,0-.29-.11,19.22,19.22,0,0,0-.86,1.91.23.23,0,0,0,.16.28.24.24,0,0,0,.29-.17Z"/><path class="cls-2" d="M287.12,119.65c.24-.43.5-.86.77-1.27s.55-.83.78-1.27a.18.18,0,0,0-.29-.21,9,9,0,0,0-.94,1.2c-.28.42-.54.85-.8,1.29s.3.57.48.26Z"/><path class="cls-2" d="M289.48,119.63c.37-.66.75-1.32,1.07-2a.17.17,0,0,0-.29-.16c-.42.63-.79,1.3-1.17,2a.22.22,0,0,0,.39.22Z"/><path class="cls-2" d="M292,119.75c.19-.3.38-.6.55-.91l.52-.92a.24.24,0,0,0-.08-.32.24.24,0,0,0-.33.09l-.6.88c-.19.29-.38.6-.56.9a.28.28,0,0,0,.1.39.31.31,0,0,0,.4-.11Z"/><path class="cls-1" d="M236.26,220.61c16-.11,32.08-.37,48.13-.18,4.57,0,9.15.19,13.72.15a.27.27,0,0,0,0-.53c-4.07-.14-8.15-.12-12.22-.13s-8,0-12,0q-12,0-24,.12c-4.57,0-9.14.09-13.72.21a.21.21,0,0,0,0,.41Z"/><path class="cls-1" d="M240.34,164.7q.33,23.19.06,46.41c-.05,4.32-.33,8.67-.13,13a.22.22,0,0,0,.43,0c.32-3.89.2-7.83.22-11.73s0-7.66.08-11.48q.13-11.61,0-23.21l-.18-13a.23.23,0,0,0-.45,0Z"/><path class="cls-1" d="M240.11,164.88l-.84.78-.42.39c-.14.13-.34.28-.39.47a.19.19,0,0,0,.23.23.84.84,0,0,0,.28-.18c.07,0,.14-.12.21-.18l.43-.39.84-.79a.23.23,0,0,0,0-.34.25.25,0,0,0-.34,0Z"/><path class="cls-1" d="M240.7,165.56l.66.71c.1.12.21.24.32.35s.11.12.17.17a2.4,2.4,0,0,0,.26.18.34.34,0,0,0,.4-.06.32.32,0,0,0,.05-.39,1.71,1.71,0,0,0-.13-.23l-.18-.21-.33-.37-.65-.71a.4.4,0,0,0-.56,0,.39.39,0,0,0,0,.55Z"/><path class="cls-1" d="M298,219.69a6,6,0,0,0-.62-.95,2.63,2.63,0,0,0-.84-.75.28.28,0,0,0-.38.38,3.87,3.87,0,0,0,.35.45c.05.07.12.13.17.2l.08.09.05.06s.05.07,0,0,0,0,0,0l0,.06.07.1a1.43,1.43,0,0,1,.15.22,4.25,4.25,0,0,1,.27.46.36.36,0,0,0,.48.12.36.36,0,0,0,.14-.48Z"/><path class="cls-1" d="M297.44,220.47c-.39.2-.79.39-1.16.61s-.76.44-1.12.68c-.13.09-.06.34.11.28a19,19,0,0,0,2.43-1.1.28.28,0,0,0,.11-.37.28.28,0,0,0-.37-.1Z"/><path class="cls-1" d="M300.45,221.88a20,20,0,0,0,0,2.57.24.24,0,0,0,.22.25.26.26,0,0,0,.28-.19,21.18,21.18,0,0,0,.2-2.64.34.34,0,0,0-.35-.35.37.37,0,0,0-.37.36Z"/><path class="cls-1" d="M301.54,222.65a5.66,5.66,0,0,0,.11,1.88.29.29,0,0,0,.56-.08c0-.6,0-1.21.1-1.81a.37.37,0,0,0-.38-.37.4.4,0,0,0-.39.38Z"/><path class="cls-1" d="M301.08,222.06a1.68,1.68,0,0,1,2.34.22c.11.13.29.4.18.57s-.28.17-.41.21c-.38.12-.84.25-.92.71a.27.27,0,0,0,.07.27,10.39,10.39,0,0,0,1.27.9,5.31,5.31,0,0,0,1.41.65.28.28,0,0,0,.22-.51,14.78,14.78,0,0,0-1.29-.73c-.43-.24-.85-.5-1.26-.76l.13.31c0-.14.26-.17.41-.21a2,2,0,0,0,.66-.26,1.13,1.13,0,0,0-.06-1.71,2.25,2.25,0,0,0-3.1,0c-.23.23.11.55.35.34Z"/><path class="cls-2" d="M242.06,215.33c5.05,1.28,9.67-2.32,12.19-6.4a49.24,49.24,0,0,0,3.45-7.44c1.06-2.6,2.15-5.35,4.23-7.31,1.86-1.76,4.85-2.76,7.22-1.41,2.14,1.22,3,3.81,3.68,6,.89,2.86,1.85,5.69,3,8.47,1,2.37,1.89,5.08,3.71,6.94,2.22,2.26,5.57,2,8.5,2.12,3.62.13,7.24.34,10.86.35a.29.29,0,0,0,0-.57c-3.2-.23-6.42-.3-9.63-.41-1.57-.06-3.16-.08-4.73-.19a7.26,7.26,0,0,1-4-1.26c-2.08-1.61-3-4.5-4-6.84-1.19-2.87-2.21-5.79-3.13-8.76-.65-2.1-1.39-4.42-3.16-5.85a6,6,0,0,0-6.23-.6,10.74,10.74,0,0,0-5,5.26c-1.27,2.46-2.15,5.1-3.28,7.62a20.16,20.16,0,0,1-5.17,7.5,9.77,9.77,0,0,1-8.33,2.36c-.25-.06-.37.33-.11.39Z"/><path class="cls-2" d="M242.26,215.46a.06.06,0,0,0,0-.12.06.06,0,1,0,0,.12Z"/><path class="cls-2" d="M242.26,217.61a.06.06,0,0,0,0-.12.06.06,0,1,0,0,.12Z"/><path class="cls-2" d="M242.54,218.9a.06.06,0,1,0,0-.12.06.06,0,1,0,0,.12Z"/><path class="cls-2" d="M241.74,215.67l0,.23a.27.27,0,0,0,0,.12l0,.11a.31.31,0,0,0,0,.1.34.34,0,0,0,.09.08.48.48,0,0,0,.18,0,.28.28,0,0,0,.17-.09l.05-.06a.33.33,0,0,0,0-.14v-.12a.13.13,0,0,0,0-.06v-.3a.43.43,0,0,0-.11-.26.3.3,0,0,0-.16-.08.23.23,0,0,0-.14,0,.37.37,0,0,0-.14,0,.32.32,0,0,0-.1.1.25.25,0,0,0-.07.12.31.31,0,0,0,0,.19Z"/><path class="cls-2" d="M241.82,217.66V218c0,.11,0,.23,0,.34a.23.23,0,0,0,.18.23.25.25,0,0,0,.27-.12,1.21,1.21,0,0,0,.18-.38,1.57,1.57,0,0,0,0-.43.32.32,0,0,0-.09-.23.33.33,0,0,0-.23-.09.32.32,0,0,0-.33.32Z"/><path class="cls-2" d="M294.31,216.52v.65a2.31,2.31,0,0,0,0,.37.75.75,0,0,0,0,.16.61.61,0,0,0,.11.21.25.25,0,0,0,.35,0,.46.46,0,0,0,.09-.15l0-.07a1.43,1.43,0,0,0,0-.22,3,3,0,0,0,0-.31c0-.21,0-.43,0-.65a.34.34,0,0,0-.35-.34.38.38,0,0,0-.36.35Z"/><path class="cls-2" d="M294.19,218.66a2.36,2.36,0,0,0,0,.53,1.6,1.6,0,0,0,0,.21l.06.17.06.09a.27.27,0,0,0,.26.13.31.31,0,0,0,.13-.06.26.26,0,0,0,.1-.13c0-.06,0-.12,0-.17v-.1a1.77,1.77,0,0,0,0-.23c0-.15,0-.3,0-.45a.34.34,0,0,0-.35-.34.36.36,0,0,0-.35.35Z"/><path class="cls-2" d="M241.71,219.23a1,1,0,0,0,0,.34.27.27,0,0,0,0,.12.31.31,0,0,0,.06.13l0,.05a.27.27,0,0,0,.11.1.28.28,0,0,0,.31,0,.28.28,0,0,0,.1-.14,1.42,1.42,0,0,0,0-.2.48.48,0,0,1,0-.12,1.14,1.14,0,0,1,0-.26.28.28,0,0,0,0-.13.25.25,0,0,0-.08-.12.37.37,0,0,0-.25-.1.43.43,0,0,0-.26.11.37.37,0,0,0-.1.25Z"/><path class="cls-2" d="M243.24,219c.28-.53.54-1.06.77-1.61.11-.27.22-.54.32-.81s.09-.28.14-.42a1,1,0,0,0,.09-.44c0-.16-.22-.29-.33-.14a2.55,2.55,0,0,0-.33.8c-.1.27-.2.55-.31.82-.23.53-.48,1.06-.76,1.57a.24.24,0,0,0,.41.23Z"/><path class="cls-2" d="M245.12,219.19c.34-.58.68-1.18,1-1.78.16-.3.31-.6.45-.91a3.4,3.4,0,0,0,.34-.92.15.15,0,0,0-.25-.1,3.73,3.73,0,0,0-.48.85l-.46.89c-.3.6-.63,1.19-1,1.77-.14.24.23.44.38.2Z"/><path class="cls-2" d="M248.06,218.89l1.14-3a27.11,27.11,0,0,0,1.06-3c0-.19-.23-.31-.32-.13a25.1,25.1,0,0,0-1.19,2.94c-.37,1-.74,2-1.12,3-.1.27.33.36.43.11Z"/><path class="cls-2" d="M251.14,218.93c1-2,1.92-4.09,2.84-6.16s1.86-4,2.58-6.09a.2.2,0,0,0-.36-.14c-1,2-1.79,4.08-2.66,6.12s-1.79,4.08-2.67,6.13c-.08.18.18.33.27.14Z"/><path class="cls-2" d="M254.27,218.57q2.39-5.38,4.49-10.87c1.43-3.71,2.9-7.45,4-11.26.08-.27-.32-.35-.41-.1-1.35,3.7-2.55,7.46-3.95,11.16s-2.87,7.34-4.41,11c-.06.14.18.23.24.1Z"/><path class="cls-2" d="M257.63,217.76q2.24-5.53,4.39-11.09c1.43-3.69,3-7.38,4.17-11.16.07-.19-.25-.32-.33-.13-1.56,3.62-2.84,7.38-4.25,11.06s-2.86,7.49-4.31,11.23c-.08.21.25.28.33.09Z"/><path class="cls-2" d="M261.19,217.47q2.43-5.52,4.74-11.09c.78-1.88,1.56-3.77,2.32-5.67a49.17,49.17,0,0,0,2.13-5.72.2.2,0,0,0-.36-.15c-.9,1.75-1.55,3.67-2.27,5.5s-1.5,3.79-2.26,5.68q-2.28,5.68-4.66,11.31c-.08.21.27.34.36.14Z"/><path class="cls-2" d="M264.52,218.22q1.94-4.75,4-9.46c1.31-3,2.74-6,3.91-9.09.06-.16-.2-.25-.28-.11-1.59,2.93-2.88,6.05-4.18,9.11s-2.62,6.28-3.87,9.44c-.1.27.32.36.43.11Z"/><path class="cls-2" d="M268.4,218.42c1.82-4.2,4-8.26,5.77-12.46a.19.19,0,0,0-.34-.19,95.18,95.18,0,0,0-5.81,12.5c-.09.22.29.36.38.15Z"/><path class="cls-2" d="M271.94,218c.68-1.3,1.32-2.62,1.91-3.95a24.37,24.37,0,0,0,1.56-4,.18.18,0,0,0-.33-.13c-.33.63-.56,1.31-.83,2s-.56,1.33-.85,2c-.58,1.32-1.21,2.61-1.87,3.89-.14.28.27.5.41.23Z"/><path class="cls-2" d="M275.62,218.16c.37-.79.73-1.58,1.07-2.37a14.07,14.07,0,0,0,.92-2.41.2.2,0,0,0-.36-.14,23.92,23.92,0,0,0-1,2.34c-.33.8-.66,1.6-1,2.39-.11.23.23.42.34.19Z"/><path class="cls-2" d="M278.92,218.78c.25-.57.51-1.13.76-1.7a13.42,13.42,0,0,0,.69-1.72.21.21,0,0,0-.38-.15,12.43,12.43,0,0,0-.78,1.65l-.72,1.68a.24.24,0,0,0,.09.34.25.25,0,0,0,.34-.1Z"/><path class="cls-2" d="M282.49,219c.26-.36.51-.72.74-1.09l.33-.55.16-.3a.52.52,0,0,0,.09-.32.15.15,0,0,0-.22-.08c-.1,0-.15.15-.21.24s-.11.18-.17.27-.22.38-.34.56c-.23.36-.48.72-.73,1.07a.19.19,0,0,0,.07.27.22.22,0,0,0,.28-.07Z"/><path class="cls-2" d="M285.21,218.38a16.84,16.84,0,0,0,.7-1.91.16.16,0,0,0-.29-.12,18.4,18.4,0,0,0-.86,1.92.22.22,0,0,0,.16.27.24.24,0,0,0,.29-.16Z"/><path class="cls-2" d="M287.12,218.8c.24-.43.5-.86.77-1.28s.55-.82.78-1.26a.18.18,0,0,0-.29-.21,7.9,7.9,0,0,0-.94,1.2c-.28.42-.54.85-.8,1.29s.3.56.48.26Z"/><path class="cls-2" d="M289.48,218.77c.37-.66.75-1.31,1.07-2a.17.17,0,0,0-.29-.16c-.42.63-.79,1.29-1.17,1.95-.15.25.25.47.39.21Z"/><path class="cls-2" d="M292,218.89c.19-.3.38-.6.55-.91s.35-.61.52-.92a.24.24,0,0,0-.08-.32.26.26,0,0,0-.33.09l-.6.88c-.19.3-.38.6-.56.9a.28.28,0,0,0,.1.39.29.29,0,0,0,.4-.11Z"/><path class="cls-2" d="M129.05,108.17c.17,0,.18-.26,0-.26s-.18.26,0,.26Z"/><path class="cls-2" d="M131.59,109.8c6.38,3.61,14.21-.45,18.1-5.86,2.42-3.37,3.76-7.4,4.87-11.35s2-8,3.45-11.87a66.56,66.56,0,0,1,11.75-20.09,65.1,65.1,0,0,1,18.43-15A66.25,66.25,0,0,1,213,38c1.09-.1,2.19-.19,3.28-.24s1-1.55,0-1.49a69,69,0,0,0-25,6.31,66.65,66.65,0,0,0-19.52,13.91,67.92,67.92,0,0,0-13.1,19,72.06,72.06,0,0,0-3.95,11.06,85,85,0,0,1-3.68,12,19.51,19.51,0,0,1-6.84,8.76c-2.81,1.87-6.33,3-9.69,2.2a8.93,8.93,0,0,1-2.29-.92c-.74-.42-1.44.73-.69,1.16Z"/><path class="cls-2" d="M135.4,115.82a88.21,88.21,0,0,1,25.26,8.66,61.77,61.77,0,0,1,19.61,16.16,48.72,48.72,0,0,1,9.92,22.17c1.56,9.86-.73,19.87.8,29.72a12.09,12.09,0,0,0,2.22,5.73,8.74,8.74,0,0,0,4.75,2.92c4.31,1.09,8.69-.34,12.92-1.1a24.71,24.71,0,0,1,3.64-.4.67.67,0,0,0,0-1.33c-4.61-.55-9,1.67-13.59,1.53a9.27,9.27,0,0,1-5.29-1.61,8.34,8.34,0,0,1-2.82-5.09c-1-4.74-.75-9.77-.6-14.58a92.23,92.23,0,0,0-.26-15,48.5,48.5,0,0,0-9.32-22.36,61.2,61.2,0,0,0-18.86-16.58A87.67,87.67,0,0,0,139,115.3c-1.08-.23-2.16-.45-3.25-.66-.76-.14-1.12,1-.33,1.18Z"/><path class="cls-2" d="M147.33,113.43q13.42.76,26.88.62t27-1.16q7.56-.58,15.1-1.47a.88.88,0,0,0,.85-.82.81.81,0,0,0-.82-.82q-13.35,1.57-26.8,2.29t-27,.5q-7.59-.12-15.16-.52a.69.69,0,0,0,0,1.38Z"/><path class="cls-2" d="M215,198.61,212.86,197l-1.05-.79a3,3,0,0,0-1.29-.7.42.42,0,0,0-.47.59,2.7,2.7,0,0,0,.88,1c.34.29.69.57,1,.85l2.1,1.63a.66.66,0,0,0,.9,0,.63.63,0,0,0,0-.89Z"/><path class="cls-2" d="M214,198.57a15.81,15.81,0,0,0-2.49,3.33c-.21.38-.54.89-.29,1.32a.63.63,0,0,0,.69.28,1,1,0,0,0,.61-.56,19.19,19.19,0,0,1,1.09-1.72c.05-.07.1-.15.16-.22l.06-.08.07-.09c0,.06,0-.05.05-.06l.1-.14.18-.21q.38-.45.78-.87a.71.71,0,0,0,0-1,.73.73,0,0,0-1,0Z"/><path class="cls-2" d="M266.6,137.89a1.73,1.73,0,0,0-.1-1.37,1.7,1.7,0,0,0-1-.89.56.56,0,0,0-.55.15,1.9,1.9,0,0,0,0,2.68.53.53,0,0,0,.63.07,2.25,2.25,0,0,0,1.07-1.74,1.73,1.73,0,0,0,0-.51,1.52,1.52,0,0,0-.09-.28.54.54,0,0,0-.39-.24l-.18,0-.12,0h-.12l-.14,0a1.14,1.14,0,0,0-.39.27,1,1,0,0,0-.25.48.73.73,0,0,0,.18.66.41.41,0,0,0,.47.05.4.4,0,0,0,.19-.43v0c0,.06,0,.08,0,.05s0-.1,0,0,0-.2,0-.12,0,.1,0,0a.14.14,0,0,1,0-.06c0,.1,0,.07,0,0l0-.05c-.06.11,0,.05,0,0s0,0,0-.05-.1.07,0,0,0,0,.05,0-.12,0,0,0,0,0,0,0h0c-.08,0-.1,0-.05,0l0,0-.23-.4a1.93,1.93,0,0,1,0,.24s0,.09,0,.13,0,0,0,0a.07.07,0,0,0,0,0c0,.14,0,.17,0,.09s0,0,0,0v0l0,.12c0,.05,0,.09,0,.14l0,0c0,.08,0-.1,0,0a1.51,1.51,0,0,1-.11.22l-.06.11,0,0,0,0a1.54,1.54,0,0,1-.17.19l-.09.08s.11-.08,0,0l-.06.05.62.07-.09-.09c-.06-.07.06.08,0,0l0,0-.06-.11,0-.06s0,.13,0,.05a1.05,1.05,0,0,1-.06-.24s0-.1,0,0,0,0,0,0v-.13s0-.1,0-.13v.07s0-.05,0-.08l0-.12s0,0,0-.05-.05.1,0,.05l.13-.21c0-.06-.1.11,0,0l0,0,.1-.1-.68.11a.94.94,0,0,1,.26.14l-.12-.08a1.33,1.33,0,0,1,.27.26l-.09-.12a1.35,1.35,0,0,1,.19.33l-.06-.14a1,1,0,0,1,.09.34v-.15a2.08,2.08,0,0,1,0,.25s0,.16,0,.06,0,0,0,0a.19.19,0,0,1,0,.07.55.55,0,0,0,.39.67.59.59,0,0,0,.43-.06.64.64,0,0,0,.26-.34Z"/><path class="cls-2" d="M265.29,147.25a2.14,2.14,0,0,0,.95-.28,2.49,2.49,0,0,0,.71-.66,2.67,2.67,0,0,0,.37-.71,2.16,2.16,0,0,0,.05-1,.68.68,0,0,0-.44-.48.75.75,0,0,0-.65.05,2,2,0,0,0-.89.77,1.26,1.26,0,0,0-.14.83,1.32,1.32,0,0,0,.34.61,1.08,1.08,0,0,0,.74.33,1,1,0,0,0,.84-.47.94.94,0,0,0,.09-.73,1.08,1.08,0,0,0-.4-.56.86.86,0,0,0-1.05,0,.73.73,0,0,0-.21.94.69.69,0,0,0,.42.31l-.16-.06h0l-.14-.11a.44.44,0,0,0,.15.12.84.84,0,0,0,.56.06l-.19,0h0l-.19,0h0l-.17-.07,0,0-.15-.11a.76.76,0,0,1,.09.09l-.12-.16a.54.54,0,0,1,.07.13l-.08-.19a.14.14,0,0,1,0,.06l0-.19v.05l0-.19v0l.07-.18s0,0,0,0l.12-.15s0,0,0,0l.16-.13-.05,0,.19-.08-.08,0,.2,0-.27,0,.19,0h0l.18,0h0l.17.07-.07,0,.15.11a.27.27,0,0,1-.08-.07l.12.15-.08-.13.07.17,0-.12,0,.18v-.13l0,.18a.45.45,0,0,1,0-.11l-.07.18a.54.54,0,0,1,.07-.13l-.12.15a1,1,0,0,1,.18-.17l-.16.12a2.44,2.44,0,0,1,.41-.24l-1.09-.43v0l0-.19a2,2,0,0,1,0,.42l0-.19a1.27,1.27,0,0,1-.11.38l.08-.17a1.31,1.31,0,0,1-.17.28l.12-.15a1.42,1.42,0,0,1-.3.3l.16-.12a1.6,1.6,0,0,1-.4.23l.18-.07a1.37,1.37,0,0,1-.29.07l.19,0h-.05a.88.88,0,0,0-.53.23.71.71,0,0,0-.21.5.7.7,0,0,0,.2.51.74.74,0,0,0,.51.2Z"/><path class="cls-2" d="M266.25,154.42a2.25,2.25,0,0,0,.6-1.1,2.53,2.53,0,0,0,.06-.61,2.7,2.7,0,0,0-.05-.41,1.77,1.77,0,0,0-.15-.38.72.72,0,0,0-.46-.35.9.9,0,0,0-.58.09,1.94,1.94,0,0,0-1,1.32,2.32,2.32,0,0,0,0,.91,1.79,1.79,0,0,0,.42.82.71.71,0,0,0,.6.19.62.62,0,0,0,.27-.09.81.81,0,0,0,.28-.27,2.83,2.83,0,0,0,.56-1.84.75.75,0,0,0-.21-.51.72.72,0,0,0-.5-.2,1.48,1.48,0,0,0-1,.47,1.71,1.71,0,0,0-.46,1,1.54,1.54,0,0,0,.05.48c0,.1.08.2.13.3a.88.88,0,0,0,.51.39,1.17,1.17,0,0,0,1.19-.36.87.87,0,0,0,.1-1.23.72.72,0,0,0-.7-.19.79.79,0,0,0-.51.45,1.28,1.28,0,0,0-.06.34l0-.19a.17.17,0,0,1,0,.1l.08-.17,0,.06.12-.15-.09.1.15-.12a.45.45,0,0,1-.12.06l.18-.07-.1,0,.18,0h-.08l.18,0-.08,0,.16.07-.06,0,.26.26-.06-.12.07.17a.85.85,0,0,1,0-.17l0,.18a1.21,1.21,0,0,1,0-.19l0,.17a.68.68,0,0,1,.07-.23l-.08.17a1.22,1.22,0,0,1,.12-.19l-.12.14a1.37,1.37,0,0,1,.17-.17l-.15.12.15-.09-.18.08.17,0-.19,0H266l-.71-.71a2.27,2.27,0,0,1,0,.45l0-.18a2.94,2.94,0,0,1-.16.58l.07-.17a2.13,2.13,0,0,1-.27.46l1.14-.17-.05-.05.12.15a.89.89,0,0,1-.14-.25l.07.18a1.67,1.67,0,0,1-.08-.3l0,.18a1.58,1.58,0,0,1,0-.31l0,.18a1.91,1.91,0,0,1,.1-.34l-.07.17a.92.92,0,0,1,.16-.27l-.12.15a.85.85,0,0,1,.19-.19l-.17.13a.89.89,0,0,1,.23-.13l-.19.07.07,0-.93-.52a1.65,1.65,0,0,1,.07.32l0-.19a1.7,1.7,0,0,1,0,.39l0-.2a1.82,1.82,0,0,1-.11.4l.07-.18a1.92,1.92,0,0,1-.18.31l.13-.16-.13.14a.87.87,0,0,0-.24.55.76.76,0,0,0,.23.55.81.81,0,0,0,1.11,0Z"/><path class="cls-2" d="M319.88,114.84c.48.7.93,1.43,1.37,2.16a12.31,12.31,0,0,0,1.43,2.19.52.52,0,0,0,.86-.36,7.4,7.4,0,0,0-.87-2.6,21.94,21.94,0,0,0-1.29-2.26.88.88,0,0,0-1.17-.29.87.87,0,0,0-.33,1.16Z"/><path class="cls-2" d="M317.72,111.77a.93.93,0,0,0-.13.15.7.7,0,0,0-.09.32.76.76,0,0,0,.08.33.71.71,0,0,0,.45.31.86.86,0,0,0,.39,0A.82.82,0,0,0,319,112a1,1,0,0,0-.13-.47.91.91,0,0,0-.23-.28,1.21,1.21,0,0,0-.3-.2,2.18,2.18,0,0,0-.23-.09,1.07,1.07,0,0,0-.25,0h-.12a1,1,0,0,0-.25,0,1.08,1.08,0,0,0-.24.12,1,1,0,0,0-.3.29.62.62,0,0,0,0,.59,1.27,1.27,0,0,0,.53.47l.22.08a1.07,1.07,0,0,0,.25,0,1,1,0,0,0,.34,0l.14-.06a.36.36,0,0,0,.16-.14.64.64,0,0,0,.13-.33,1.67,1.67,0,0,0-.12-.76.67.67,0,0,0-.06-.12.76.76,0,0,0-.08-.11.63.63,0,0,0-.28-.23.52.52,0,0,0-.7.4.61.61,0,0,0,.06.35.25.25,0,0,1,0,.07l-.05-.13c0,.09.06.18.1.27l-.05-.13a2.13,2.13,0,0,1,.07.27l0-.14a.61.61,0,0,1,0,.19l0-.13s0,0,0,.08l.54-.41h-.13l.14,0-.17,0,.14,0a.38.38,0,0,1-.15-.09l.12.09a.75.75,0,0,1-.16-.15l.1.12-.06-.08-.1.7L318,112l-.13.1.08-.05-.16.06.11,0-.16,0h.13l-.16,0,.15,0-.14-.06.16.09-.13-.09a.49.49,0,0,1,.13.12l-.1-.13a.75.75,0,0,1,.07.12l-.06-.15,0,.12,0-.16v.1l0-.15a.29.29,0,0,1,0,.09l.06-.15,0,0,.1-.12h0l.13-.1,0,0,.16-.06h-.05l.16,0h-.06l.16,0h-.05l.15,0h0l.13.1h0l.1.13h0l.07.15h0l0,.16h0l0,.16h0l-.06.14h0l-.1.13h0a.81.81,0,0,0,.19-.44.6.6,0,0,0-.18-.44.61.61,0,0,0-.44-.17l-.16,0a.66.66,0,0,0-.29.17Z"/><path class="cls-2" d="M325,111.56c-1.24.4-1.27,1.83-.89,2.86.45,1.2,1.49,2.57,3,2a2.45,2.45,0,0,0,1.16-3.57c-.72-1.33-2.18-1.86-3.43-2.54a20.42,20.42,0,0,1-2.12-1.34c-.3-.21-.6-.43-.89-.66a3.83,3.83,0,0,0-1.19-.76c-.44-.13-1,.35-.84.82a3.54,3.54,0,0,0,1.16,1.36,17.2,17.2,0,0,0,1.39,1,27.84,27.84,0,0,0,2.92,1.63c.72.37,1.83,1,1.77,2a.83.83,0,0,1-.39.66c-.31.14-.6-.15-.77-.38a3.19,3.19,0,0,1-.58-1.2,1.45,1.45,0,0,1,0-.55.38.38,0,0,1,.06-.13s.08,0,0,0a.68.68,0,0,0,.47-.78.64.64,0,0,0-.78-.45Z"/><path class="cls-2" d="M330.46,112a3.64,3.64,0,0,0,1.1-1.21,2,2,0,0,0,.05-1.71,1.73,1.73,0,0,0-2.82-.18,2.86,2.86,0,0,0-.15,3.17,3.07,3.07,0,0,0,2.55,1.65,2.7,2.7,0,0,0,1.62-.48,2.17,2.17,0,0,0,.95-1.52.54.54,0,0,0-.41-.54.63.63,0,0,0-.65.28c-.06.09,0,0,0,0l-.07.08-.17.18-.09.08s-.11.08,0,0,0,0,0,0l-.11.08-.2.11-.1,0c.16,0,.05,0,0,0a.9.9,0,0,1-.22.06l-.11,0c-.17,0,0,0,0,0l-.23,0h-.14c-.11,0,.13,0,0,0l-.23,0-.12,0c-.07,0-.1,0,0,0l-.22-.1-.13-.08s-.12-.08,0,0l0,0-.09-.08-.2-.19a.86.86,0,0,1-.07-.1c.1.13,0,0,0,0a2.39,2.39,0,0,1-.13-.21l-.11-.21c-.06-.1,0,.11,0,0s0-.1-.05-.15a2,2,0,0,1-.07-.26s0-.08,0-.12,0,.09,0,0a2.25,2.25,0,0,1,0-.26.53.53,0,0,1,0-.13c0-.08,0,.07,0,0l.05-.15s.05-.14,0-.07,0,0,0-.05l.07-.11c.05-.09-.07.06,0,0a.27.27,0,0,0,.08-.07c.06-.07-.1,0,0,0s.18-.1.09-.06.13,0,.15,0-.09,0,0,0h.13q-.1,0,0,0s.14,0,.05,0,0,0,0,0l0,0a.09.09,0,0,1,.06.06c.07,0,0-.08,0,0s.05.11,0,0l0,.12c0,.15,0-.09,0,.07V110c0,.12,0-.06,0,.07l0,.12c0-.09,0,0,0,0a.75.75,0,0,0-.07.12l0,0a2.73,2.73,0,0,1-.23.25c-.17.16-.35.31-.53.45a.66.66,0,0,0,0,.94.71.71,0,0,0,1,0Z"/><path class="cls-2" d="M335.28,109.94a6.25,6.25,0,0,1-.65-1s-.1-.21-.06-.1l-.09-.28s0-.31,0-.14v-.24c0-.08,0-.08,0,0s0-.06,0-.09l.06-.2c0-.08,0-.07,0,0l.06-.1.06-.09c-.06.08-.07.09,0,0l.08-.07,0,0,.08,0-.05,0,.13,0c-.1,0-.1,0,0,0s.09,0,0,0l.13,0,.13,0c-.08,0-.08,0,0,0l.24.14c.14.08-.07-.07.07,0l.21.19a7,7,0,0,1,.66.78c.48.58,1.28,1.4,2.12,1.06a.66.66,0,0,0,.31-1.08,1.07,1.07,0,0,0-.19-.18l-.13-.09s-.11-.06,0,0-.13-.1-.1-.08l-.13-.09s-.11-.07,0,0-.07-.06-.07-.06a4.77,4.77,0,0,1-.62-.65,4.32,4.32,0,0,0-1.51-1.34,2,2,0,0,0-2.28.29,2.25,2.25,0,0,0-.58,2,4.45,4.45,0,0,0,1.22,2.12.65.65,0,0,0,.86,0,.63.63,0,0,0,.18-.83Z"/><path class="cls-2" d="M335.63,102.55a15.77,15.77,0,0,0,2,2.63,11.42,11.42,0,0,0,1.11,1.09,4.16,4.16,0,0,0,1.55.89.63.63,0,0,0,.7-.89,6.33,6.33,0,0,0-1.05-1.2c-.36-.36-.72-.7-1.06-1.07-.17-.19-.34-.38-.5-.58l-.24-.29c.06.06,0,.06,0,0L338,103a15.21,15.21,0,0,1-.86-1.29.86.86,0,0,0-1.5.86Z"/><path class="cls-2" d="M337.18,104.69a5.79,5.79,0,0,0,1.16-.66,3.88,3.88,0,0,0,1-1.08.63.63,0,0,0-.09-.78.67.67,0,0,0-.79-.09l-.49.29-.49.29-.49.28a4.49,4.49,0,0,1-.54.26l.22-.09-.1,0a1,1,0,0,0-.4.23l-.13.17a.78.78,0,0,0,0,.74.74.74,0,0,0,.45.45.71.71,0,0,0,.32.07,1.11,1.11,0,0,0,.44-.12Z"/><path class="cls-2" d="M341.72,103.49l.71.86a4.53,4.53,0,0,0,.95.8.64.64,0,0,0,.33.08.64.64,0,0,0,.4-.15.59.59,0,0,0,.21-.26.59.59,0,0,0,0-.41,3.55,3.55,0,0,0-.28-.63l-.14-.25a3.37,3.37,0,0,0-.29-.37l-.71-.89a.86.86,0,0,0-.59-.23.89.89,0,0,0-.88.85l0,.22a.81.81,0,0,0,.22.38Z"/><path class="cls-2" d="M339.09,100.05a1.51,1.51,0,0,0,.12.26,1.31,1.31,0,0,0,.17.24,1.14,1.14,0,0,0,.3.23,1.27,1.27,0,0,0,.74.17l.19,0a.6.6,0,0,0,.26-.14.32.32,0,0,0,.14-.14.47.47,0,0,0,.13-.25,1.76,1.76,0,0,0,.07-.33,1.31,1.31,0,0,0,0-.34.9.9,0,0,0,0-.16,1.83,1.83,0,0,0-.14-.32,2.16,2.16,0,0,0-.21-.29l-.12-.12-.11-.08-.11-.07-.24-.1a1,1,0,0,0-.25,0h-.09l-.19,0h-.07l0,0a.77.77,0,0,0-.19.08.83.83,0,0,0-.15.11l-.11.14a1.11,1.11,0,0,0-.07.16v0a.53.53,0,0,0,0,.22.23.23,0,0,0,0,.14l0,.08-.06-.15a1,1,0,0,0,.08.18.75.75,0,0,0,.25.25l0,0-.14-.11a1,1,0,0,0,.23.17l.11.07-.16-.11.27.2-.16-.12a.91.91,0,0,1,.17.17l-.12-.16a.86.86,0,0,1,.13.23l-.07-.19a1.46,1.46,0,0,1,.05.2l0-.19a1,1,0,0,1,0,.17l0-.18a.11.11,0,0,1,0,0l.54-.52h0l.19,0a.21.21,0,0,1-.11,0l.19,0a.4.4,0,0,1-.15,0l.18.07a.57.57,0,0,1-.13-.08l.15.11a.43.43,0,0,1-.12-.11l.12.15a.57.57,0,0,1-.08-.13l.07.18v0a.6.6,0,0,0-.14-.26.55.55,0,0,0-.21-.19.61.61,0,0,0-.27-.08.54.54,0,0,0-.28,0,.79.79,0,0,0-.47.35l-.07.17a.7.7,0,0,0,0,.38Z"/><path class="cls-2" d="M346.61,97.45a2.43,2.43,0,0,0-.94.61,3.16,3.16,0,0,0-.56.93,2.78,2.78,0,0,0,0,1.8,2.34,2.34,0,0,0,1.54,1.46,2.59,2.59,0,0,0,2-.24,2.12,2.12,0,0,0,.85-.83,1.73,1.73,0,0,0,.19-1.16.51.51,0,0,0-.44-.38.56.56,0,0,0-.54.27s-.13.17,0,0l-.14.18c-.07.1.1-.12,0,0a.3.3,0,0,1-.08.08l-.15.15c-.12.1,0,0,.06,0s-.09.06-.11.07-.36.24-.08.06l-.08.06-.21.11c-.07,0-.19.07.08,0l-.09,0-.23.07-.22,0c-.17,0,.21,0,.07,0h-.11s-.2,0-.23,0,.24,0,.08,0l-.1,0-.11,0c-.08,0-.17-.09.05,0l-.18-.09c-.07,0-.16-.15,0,0l-.08-.07a1.29,1.29,0,0,1-.16-.17l.13.17a1.31,1.31,0,0,1-.21-.36l.08.2a3,3,0,0,1-.1-.32s0-.22,0,0,0,0,0-.08,0-.21,0-.32c0,.28,0,.09,0,0s0-.11.05-.16.08-.21,0-.06,0,0,0-.07a1,1,0,0,1,.08-.14l.05-.07s-.14.17-.07.1a1.31,1.31,0,0,1,.11-.12c.07-.07.22-.15,0,0L347,99c.06,0,.28-.13,0,0a.9.9,0,0,0,.51-.39.81.81,0,0,0,.09-.61.78.78,0,0,0-.38-.49.79.79,0,0,0-.62-.07Z"/><path class="cls-2" d="M351.4,94.79a2.16,2.16,0,0,0-1.91,1.49,3.43,3.43,0,0,0,.28,2.51c.32.73.84,1.48,1.74,1.39a2,2,0,0,0,1.69-1.4,3.3,3.3,0,0,0-.71-2.65.75.75,0,0,0-1.29.74,2.16,2.16,0,0,0,2.11,1.06,3.16,3.16,0,0,0,2.39-1.46.6.6,0,0,0-.67-.87,4.73,4.73,0,0,0-1,.49,2.13,2.13,0,0,1-.75.33c-.06,0-.14,0,0,0h-.21c-.18,0,.1,0-.07,0l-.2,0c-.16,0,.07.06-.07,0s-.18-.13-.06,0l-.12-.11,0,0a.41.41,0,0,1-.07-.11l-1.29.74c.1.15.19.3.28.45a2.79,2.79,0,0,1,.17.37,2.33,2.33,0,0,1,.07.25,1.21,1.21,0,0,0,0,.14,1,1,0,0,1,0,.25c0-.11,0,0,0,.08s0,0,0,0,.09-.06,0,0-.19.14,0,0a.57.57,0,0,1-.13.08c-.16.1,0,0,0,0l-.09,0c.1,0,.12,0,.06,0h.06c-.07,0-.07,0,0,0s.06,0,0,0,.07.05,0,0-.1-.12,0,0l-.11-.19c0-.08-.07-.15-.1-.22s-.11-.25-.06-.15a2.66,2.66,0,0,1-.24-.94s0-.26,0-.14a1.46,1.46,0,0,1,.05-.2c0-.15-.06.06,0-.08l.11-.18c-.08.11,0,0,.06-.05s-.06,0,0,0l.09-.06-.05,0c.2,0-.07,0,.1,0a.85.85,0,0,0,.83-.81.79.79,0,0,0-.8-.79Z"/><path class="cls-2" d="M351.9,89.13l3.37,4.07,1.64,2c.55.66,1.12,1.63,2,1.73.34,0,.6-.31.63-.61A1.94,1.94,0,0,0,359,95c-.27-.34-.56-.68-.84-1l-1.69-2-3.37-4.07a.86.86,0,0,0-1.21,0,.85.85,0,0,0,0,1.19Z"/><path class="cls-2" d="M333.36,131.65a2,2,0,0,0,1.89,2,2,2,0,0,0,1.94-2c0-1.12-1-1.79-1.84-2.34a6.9,6.9,0,0,0-2.81-1.17c-1.09-.15-2.55,0-3.18,1a.6.6,0,0,0,.67.87c.39-.08.76-.24,1.15-.3a3.73,3.73,0,0,1,1,0,6.35,6.35,0,0,1,2.31,1,4,4,0,0,1,.86.66.45.45,0,0,1,.14.27c0-.16,0,.15,0,0,0,.09,0,.11,0,.06s0,0,0,0,0,0-.07.09l-.07.06c.07-.06.07-.06,0,0l.06,0c-.1,0-.11,0,0,0h-.09c.07,0,.06,0,0,0,.08.08-.1-.1,0,0s-.16-.17-.11-.11,0-.05,0-.06,0-.06,0,0v-.18a.81.81,0,0,0-.83-.82.87.87,0,0,0-.86.84Z"/><path class="cls-2" d="M338.28,129.1l.77,1c.13.15.28.28.42.42a6.75,6.75,0,0,0,.59.47l.16.06a.53.53,0,0,0,.25,0,.66.66,0,0,0,.39-.19.77.77,0,0,0,.17-.29A.65.65,0,0,0,341,130a3.4,3.4,0,0,0-.27-.54l-.15-.25a3.79,3.79,0,0,0-.3-.4l-.75-1a.87.87,0,0,0-1.21,0,.84.84,0,0,0-.26.59l0,.22a.83.83,0,0,0,.23.38Z"/><path class="cls-2" d="M336.14,126.32h.05a.7.7,0,0,0,.33-.2h0l-.31.18h0l-.18,0h0l-.33-.08h0l.17.07a.78.78,0,0,0,.54-.08l.15-.12a.77.77,0,0,0,.19-.31h0a.6.6,0,0,0,0-.35.47.47,0,0,0-.13-.25.44.44,0,0,0-.2-.18.69.69,0,0,0-.34-.09h0a.46.46,0,0,0-.28.06.61.61,0,0,0-.24.15l-.11.15a.61.61,0,0,0-.1.34s0,.17,0,.19h0v-.35h0l.07-.16v0l.25-.25h0l-.08.06a.74.74,0,0,0-.19.2l0,0-.07.15,0,.16,0,.17a.51.51,0,0,0,.12.23.34.34,0,0,0,.12.12.36.36,0,0,0,.15.08.42.42,0,0,0,.16,0,.53.53,0,0,0,.25,0Z"/><path class="cls-2" d="M342.64,124.38a1.52,1.52,0,0,0-1.35,0,1.8,1.8,0,0,0-.74.78,1.82,1.82,0,0,0,.42,2.23,3.78,3.78,0,0,0,2.12.77l.25,0s.31,0,.11,0l.51.08.24.07.12,0c.09,0,.08,0,0,0,.07,0,.15.08.22.11s.07,0,0,0l.1.08v-1.14a4.7,4.7,0,0,1-.49.51l-.12.1c-.09.08.17-.11,0,0l-.27.17-.3.17c-.08,0-.11.05,0,0a1.15,1.15,0,0,0-.42.23.69.69,0,0,0-.14,1c.49.46,1.31.13,1.8-.16a3.88,3.88,0,0,0,1.23-1.12.8.8,0,0,0-.12-1,3.53,3.53,0,0,0-1.82-.74l-.53-.06-.15,0-.12,0-.35-.06a1.36,1.36,0,0,1-.39-.12c.16.11,0,0,0,0a1,1,0,0,1-.17-.1c-.18-.11.09.09,0,0l-.12-.11c-.12-.13.08.14,0,0s0-.07,0-.1,0-.06,0,.08c0,0,0-.13,0-.14s0,.16,0,.09V126c0-.14-.06.19,0,0s0-.11.05-.16c0,.14-.07.13,0,0s0,0,0,0l.06-.07-.08.06,0,0c.08,0,0,0-.1,0h-.06c.08,0,.06,0-.09,0,.08,0,.06,0-.07,0a1,1,0,0,0,.64.07.9.9,0,0,0,.53-.41.82.82,0,0,0-.3-1.14Z"/><path class="cls-2" d="M343.25,121.62l2.27,2.17c.38.36.75.71,1.14,1.06s.94,1,1.55.92a.64.64,0,0,0,.62-.6c0-.61-.55-1.08-.94-1.48l-1.15-1.12-2.27-2.17a.89.89,0,0,0-1.22,0,.86.86,0,0,0,0,1.2Z"/><path class="cls-2" d="M346,124l2-1.31q.5-.32,1-.66a3.26,3.26,0,0,0,1-1,.59.59,0,0,0-.51-.88,3.19,3.19,0,0,0-1.29.47c-.34.19-.66.41-1,.62l-2,1.31a.88.88,0,0,0-.33,1.16A.87.87,0,0,0,346,124Z"/><path class="cls-2" d="M352.7,121.28c-.22-.07.14.08-.07,0l-.19-.1-.15-.09c-.08,0,.09.08,0,0l-.31-.3c-.11-.12,0,.06,0,0l-.1-.15c-.08-.12-.14-.25-.21-.38.06.11,0,0,0,0l-.06-.17c0-.07,0-.14,0-.21,0-.22,0,.15,0-.07a2.71,2.71,0,0,1,0-.4c0-.09,0,.12,0,0l.06-.21a1.15,1.15,0,0,1,.06-.17c0-.06,0-.05,0,0l.05-.09a3.79,3.79,0,0,1,.2-.34c.1-.15-.09.09,0-.06l.12-.13c.1-.09.19-.19.29-.27s.2-.15.05-.05l.15-.1.7-.4a.6.6,0,0,0-.13-1.1c-1.71-.3-3.11,1.32-3.29,2.9a3.56,3.56,0,0,0,2.43,3.63.89.89,0,0,0,1.06-.61.84.84,0,0,0-.59-1Z"/><path class="cls-2" d="M355.94,118.17l.36.41a3.69,3.69,0,0,0,.38.41,5.5,5.5,0,0,0,1,.73.55.55,0,0,0,.6,0,.57.57,0,0,0,.21-.57,6.5,6.5,0,0,0-.25-.61c-.08-.17-.18-.32-.27-.48s-.21-.29-.31-.44l-.35-.45a.84.84,0,0,0-.32-.3l-.2-.08a.82.82,0,0,0-.74.16.83.83,0,0,0-.1,1.27Z"/><path class="cls-2" d="M354.17,115.93h.15l.15,0,.22-.09.06,0a1.29,1.29,0,0,0,.44-.43,1.75,1.75,0,0,0,.13-.28.37.37,0,0,0,0-.14,1.44,1.44,0,0,0,0-.62v0a1.46,1.46,0,0,0-.07-.19l0,0-.16-.2-.09-.07a.72.72,0,0,0-.25-.12.83.83,0,0,0-.22,0,.66.66,0,0,0-.64.63v.16a.5.5,0,0,0,0,.13.11.11,0,0,0,0,0,1.29,1.29,0,0,1,0,.19l0-.18a.49.49,0,0,1,0,.17l0-.18a.64.64,0,0,1-.06.18l.07-.16a.64.64,0,0,1-.08.14l.11-.14-.1.11.14-.11-.1.05.17-.07-.12,0,.17,0h0a.43.43,0,0,0-.25.05.57.57,0,0,0-.23.15.7.7,0,0,0-.2.46.61.61,0,0,0,.2.46.6.6,0,0,0,.46.18Z"/><path class="cls-2" d="M356.36,112.12c.16.2.33.4.49.61l.4.51c.33.43.64.86,1,1.29.61.86,1.19,1.74,1.75,2.64l1.5-.86a7.22,7.22,0,0,0-.8-.94c-.13-.12-.26-.24-.38-.37l-.21-.22-.08-.1c-.09-.11.05.07,0,0l-.12-.19a1.38,1.38,0,0,1-.07-.14l0-.15a1,1,0,0,1-.06-.25c0,.13,0,0,0-.09s0,0,0-.07.09-.18,0-.08l.06-.09c.05-.08-.09.07,0,0s0,0,0,0l.11-.06c.08,0,0,0,0,0l.11,0,.12,0s-.09,0,0,0a1.22,1.22,0,0,1,.27,0l.13,0,.1,0,.05,0,.14.07.22.13c-.09-.07.05,0,.07.07l.15.15c.1.1,0,0,.06.08a1.59,1.59,0,0,1,.13.22c0,.07,0,0,0,0l0,.11a.8.8,0,0,1,.05.21c0,.08,0,0,0,0a.45.45,0,0,1,0,.11s0,.24,0,.14a1.83,1.83,0,0,1-.06.25s0,.07,0,.11l0,.06s0,0,0,0l-.13.23s-.08.1,0,0a.64.64,0,0,0-.05.07,1.54,1.54,0,0,1-.19.17l-.08.07-.06,0,0,0a1.57,1.57,0,0,0-.21.17,1,1,0,0,0-.21.41.62.62,0,0,0,.28.67c.54.32,1.16-.06,1.54-.47a3,3,0,0,0,.68-1.23,2.76,2.76,0,0,0-.67-2.64,2.7,2.7,0,0,0-2.69-.76,2.08,2.08,0,0,0-1.37,2.55,3.49,3.49,0,0,0,.79,1.48c.17.21.37.41.56.61l.27.29.11.13c.12.13,0,0,.08.1a.88.88,0,0,0,1.17.29.87.87,0,0,0,.33-1.15,50.29,50.29,0,0,0-3.88-5.41.86.86,0,0,0-1.21,0,.85.85,0,0,0,0,1.19Z"/><path class="cls-2" d="M362.77,112.58a5.63,5.63,0,0,0,1.59,1,2.4,2.4,0,0,0,1.63,0,2,2,0,0,0,1.26-1.45,2.74,2.74,0,0,0-.38-1.85c-.15-.26-.34-.49-.51-.73a2.54,2.54,0,0,0-.81-.85.75.75,0,0,0-1.07.44,1.23,1.23,0,0,0,0,.66,2.11,2.11,0,0,0,.26.52c.17.23.34.45.5.69l.2.35,0,0,0,.1a.75.75,0,0,1,.05.16.36.36,0,0,1,0,.11q0,.14,0-.06s0,.14,0,.16v.1c0-.12,0-.14,0-.06s-.05.24,0,.1,0-.07,0,0l-.06.09.05-.06-.06,0,.09-.07-.08.05-.08,0c.13-.06.17-.07.1,0l-.16,0-.1,0h-.08l-.17,0s-.25-.08-.12,0-.1-.05-.12-.06l-.18-.1-.35-.23,0,0-.1-.07-.18-.15a.94.94,0,0,0-.6-.24.91.91,0,0,0-.62.26.86.86,0,0,0,0,1.2Z"/><path class="cls-2" d="M366.42,106a32.21,32.21,0,0,0,2.33,2.88q.58.64,1.2,1.26a3.89,3.89,0,0,0,1.64,1.12c.42.1,1-.31.79-.76a4.34,4.34,0,0,0-1.15-1.51c-.41-.41-.81-.83-1.2-1.25s-.75-.85-1.11-1.29l-.29-.36-.05-.07-.12-.15-.54-.74a.88.88,0,0,0-1.17-.29.87.87,0,0,0-.33,1.16Z"/><path class="cls-2" d="M369.14,108.61c.42-.38.84-.74,1.24-1.13a7.8,7.8,0,0,0,.57-.58,3.38,3.38,0,0,0,.57-.79.56.56,0,0,0,0-.61.58.58,0,0,0-.59-.2,5.29,5.29,0,0,0-1.65,1c-.44.35-.87.73-1.3,1.1a.84.84,0,0,0,0,1.19.89.89,0,0,0,1.21,0Z"/><path class="cls-2" d="M373.51,106c.31.33.62.67.95,1l.24.22c.13.11.27.21.4.3a2.49,2.49,0,0,0,.69.35.56.56,0,0,0,.68-.67,3.58,3.58,0,0,0-.82-1.39c-.29-.35-.61-.68-.92-1a.86.86,0,0,0-.59-.23.88.88,0,0,0-.62.26.85.85,0,0,0,0,1.19Z"/><path class="cls-2" d="M371.13,102a.65.65,0,0,0-.13.16l0,.08a.56.56,0,0,0,0,.08.88.88,0,0,0,0,.16.66.66,0,0,0,.1.37.78.78,0,0,0,.29.28l.05,0,.16.07h0a.83.83,0,0,0,.27,0,.86.86,0,0,0,.21,0,1,1,0,0,0,.34-.19.81.81,0,0,0,.23-.4,1,1,0,0,0,0-.52,1.25,1.25,0,0,0-.1-.27.67.67,0,0,0-.16-.24,1.24,1.24,0,0,0-.23-.17.79.79,0,0,0-.4-.1l-.15,0a.65.65,0,0,0-.22.11.57.57,0,0,0-.11.11.42.42,0,0,0-.1.2,1.25,1.25,0,0,0,0,.19s0,.08,0,.12a.56.56,0,0,0,.07.26l0,0a.14.14,0,0,0,0,.06l-.07-.17c0,.07,0,.14.08.2l.13.17-.11-.15a.51.51,0,0,1,.09.16l-.06-.17,0,.12,0-.17v.09l0-.17a.14.14,0,0,1,0,.07l.07-.15,0,0,.1-.13,0,0,.14-.11-.05,0,.16-.07-.06,0,.16,0h-.09l.16,0-.06,0,.15.06-.07,0,.13.09,0,0,.09.12s0,0,0,0l.06.14a0,0,0,0,1,0,0l0,.15v0l0,.15a0,0,0,0,0,0,0l-.06.14,0,0-.1.13,0,0a.52.52,0,0,0,.12-.19.5.5,0,0,0,.05-.21.45.45,0,0,0,0-.23A.5.5,0,0,0,372,102a.57.57,0,0,0-.41-.16.64.64,0,0,0-.42.18Z"/><path class="cls-2" d="M377.25,101.75a2.86,2.86,0,0,0,.93,2.5,2.17,2.17,0,0,0,1.39.51,2.34,2.34,0,0,0,1.28-.41,1.92,1.92,0,0,0,.8-1.17,2.49,2.49,0,0,0-.44-1.75,3.1,3.1,0,0,0-2.32-1.81,1.85,1.85,0,0,0-1.6.82c-.33.5-.27,1.52.44,1.67a.57.57,0,0,0,.61-.26.83.83,0,0,0,.11-.37c0-.11,0,0,0,0v0l0,.06s0-.06,0-.06-.1.12,0,.07a1.29,1.29,0,0,0,.17-.16c.09-.1-.08.06-.08.06a.5.5,0,0,1,.08-.07l.17-.1s.16-.07,0,0,0,0,0,0l.08,0c-.15,0-.18,0-.09,0h0l.09,0h0c-.13,0,0,0,0,0l.09.05s.14.11,0,0,0,0,0,0l.11.1.17.18.07.08c.09.11,0,0,0,0a1.37,1.37,0,0,0,.15.21l.15.23a4.48,4.48,0,0,1,.28.47s0,.07,0,.1,0-.12,0,0,0,.1,0,.14,0-.12,0,0a.34.34,0,0,0,0,.1c0,.09.05-.2,0-.07a.24.24,0,0,1,0,.08c0,.13.09-.15,0-.07s-.06.11-.08.15c.06-.15.1-.12,0,0l-.09.08a.46.46,0,0,0-.07.07c.15-.15.12-.09.07-.06l-.18.1c-.11.06.07,0,.08,0a.56.56,0,0,0-.12,0l-.08,0c-.08,0-.15,0,0,0h-.29c.16,0,.13,0,.05,0l-.09,0c-.12,0,0,0,.06,0a1.19,1.19,0,0,0-.25-.13c-.09-.06,0,0,0,0s-.08-.08-.1-.09L379,103s0,0,0,0,0,0,0,0-.1-.16-.12-.2l-.06-.1,0-.07h0l0,0a.36.36,0,0,1,0-.09s0-.09,0-.14l-.06-.26c0-.06,0-.14,0,0,0,0,0-.1,0-.15v-.28a.69.69,0,0,0-.69-.7.75.75,0,0,0-.72.71Z"/><path class="cls-2" d="M383.57,100.49l-.41-.45c-.06-.07-.06-.08,0,0l-.09-.12-.16-.26a1.3,1.3,0,0,1-.14-.26c0-.08,0-.09,0,0s0-.09,0-.14a1.6,1.6,0,0,1,0-.21c0-.1,0-.1,0,0v-.25c0,.11,0,.11,0,0a2.17,2.17,0,0,0,.07-.24c-.06.19,0,0,0-.08l.07-.1c-.07.09-.08.1,0,0s.11-.12.13-.12-.11.09,0,0,.07,0-.05,0l.11,0c.09,0,.08,0,0,0h.13c-.1,0-.11,0,0,0l.12,0c-.1,0-.11,0,0,0s.26.17.1,0a2.05,2.05,0,0,1,.34.32c.26.27.47.59.73.86a3.26,3.26,0,0,0,1.16.78A1.45,1.45,0,0,0,387,100a.64.64,0,0,0-.45-1.1h-.1l-.1,0,.05,0a2.32,2.32,0,0,0-.37-.13s.11,0,0,0l-.13-.07-.1-.07c-.06,0-.12-.09-.18-.15a3.33,3.33,0,0,1-.36-.39,3.84,3.84,0,0,0-1.59-1.32,1.91,1.91,0,0,0-2.06.56,2.49,2.49,0,0,0-.55,2.11,4.47,4.47,0,0,0,1.38,2.14.79.79,0,0,0,1.1,0,.77.77,0,0,0,0-1.08Z"/><path class="cls-2" d="M387.18,93a2.47,2.47,0,0,0-1.25,2,2.35,2.35,0,0,0,1,2.16,3.92,3.92,0,0,0,1.27.52c.21.06.41.11.61.18-.18-.07.09.06.12.08s.24.14.16.08.11.11.13.12.06.07,0,0l.07.11c0-.1,0-.1,0,0s0,.09,0,0,0-.12,0,0,0,.08,0,0l-.06.1c.07-.09.07-.1,0,0,.22-.18-.05,0-.07,0s.14,0,0,0c.11,0,.13,0,0,0s-.25,0-.1,0l-.21,0a.68.68,0,0,0-.48.79,1,1,0,0,0,1,.68,1.49,1.49,0,0,0,1.06-.56,1.67,1.67,0,0,0-.23-2.31,4.93,4.93,0,0,0-2-.89s-.26-.11-.14,0L388,95.8c-.13-.06,0,0-.07,0s-.09-.1-.14-.14.06.06,0,.06l0-.07s-.11-.15-.09-.18,0,.17,0,.07a.19.19,0,0,0,0-.08s-.06-.24,0-.12,0,0,0,0v-.12a1.94,1.94,0,0,1,0-.24c0,.17,0,0,0,0s.08-.2,0,0a1.62,1.62,0,0,1,.1-.18c.09-.16-.08.06,0,0s.17-.17.17-.16-.16.08-.07,0a.54.54,0,0,0,.13-.07.85.85,0,0,0,.33-1.16.86.86,0,0,0-1.16-.29Z"/><path class="cls-2" d="M394.06,93.24l-1.9-2.33-.93-1.13c-.32-.4-.74-1-1.29-1.11a.72.72,0,0,0-.87.66c0,.58.51,1.15.85,1.56l1,1.2,1.93,2.37a.88.88,0,0,0,1.22,0,.86.86,0,0,0,0-1.19Z"/><path class="cls-2" d="M396.31,90.7c-1.16-1.55-2.38-3.06-3.68-4.5-.37-.42-.85-1-1.49-.88a.78.78,0,0,0-.58.73A1.52,1.52,0,0,0,391,87c.61.72,1.26,1.4,1.86,2.12.35.42.69.85,1,1.27l.92,1.2a.86.86,0,0,0,1.49-.87Z"/><path class="cls-2" d="M398.76,88.82,397,85.88l-.87-1.41c-.35-.57-.68-1.15-1.35-1.36a.6.6,0,0,0-.72.42,1.7,1.7,0,0,0,.1.92,6.72,6.72,0,0,0,.47.88l.88,1.42,1.8,2.93a.87.87,0,0,0,1.17.29.86.86,0,0,0,.33-1.15Z"/><path class="cls-2" d="M397.36,96.87a.75.75,0,0,0,0-.21,1.8,1.8,0,0,0-.08-.21,1.25,1.25,0,0,0-.16-.22,1.81,1.81,0,0,0-.21-.18l-.12-.06a2,2,0,0,0-.26-.09,1.27,1.27,0,0,0-.28,0,1.41,1.41,0,0,0-.27.05,1,1,0,0,0-.39.24.39.39,0,0,0-.13.2.48.48,0,0,0-.06.24.62.62,0,0,0,.18.44l0,0-.11-.13a.47.47,0,0,1,.06.09l-.06-.15a1.77,1.77,0,0,0,.06.17,1.49,1.49,0,0,0,.12.14l-.1-.13s0,0,0,.08a.73.73,0,0,0,.22.21h0l-.1-.07h0l-.08-.1h0l-.06-.23v.06l0-.11,0,.09,0-.1a.54.54,0,0,1-.05.11.49.49,0,0,0,0,.12v-.1s0,.08,0,.11l0,.1a.31.31,0,0,0,.06.13.38.38,0,0,0,.21.14.61.61,0,0,0,.62-.34l-.17.18h0l-.11.05a.67.67,0,0,0,.18-.07.69.69,0,0,0,.29-.38s0,0,0,0a.71.71,0,0,0,0-.41s-.05-.13-.08-.19a.86.86,0,0,0-.14-.18l-.14,1,.08,0-.16.07.19-.08-.16.07.1,0-.17,0h.12l-.16,0,.12,0-.15-.06a.24.24,0,0,1,.11.06l-.13-.1a.26.26,0,0,1,.09.09l-.1-.13.06.09L396.1,97a.26.26,0,0,1,0,.08.36.36,0,0,0,.11.22.4.4,0,0,0,.18.16l.15.06a.65.65,0,0,0,.24,0,.27.27,0,0,0,.15,0,.45.45,0,0,0,.22-.13l.1-.13a.68.68,0,0,0,.08-.31Z"/><path class="cls-2" d="M399.51,95.09l0-.14a.77.77,0,0,1,0-.15,2.77,2.77,0,0,0,0-.3l0-.15,0-.14c0-.07-.05-.13-.08-.19l0,0v0l-.12-.15-.15-.11-.17-.07-.18,0h-.06l-.21,0-.2.08,0,0-.17.14,0,0,0,0a1.09,1.09,0,0,0-.13.17.1.1,0,0,0,0,.05c0,.06,0,.13-.08.19v0s0,0,0,0,0,.16,0,.19a.63.63,0,0,0,.06.27.18.18,0,0,0,0,.09.81.81,0,0,0,.31.3.48.48,0,0,0,.23.07.49.49,0,0,0,.24,0l.16-.07A.69.69,0,0,0,399,95h0l-.1.13,0,0-.15.11h0l.16-.12a.7.7,0,0,0,.19-.32s0,0,0-.06l-.07.17a.16.16,0,0,1,0-.07L399,95s0,0,.06-.07l-.16.12.07,0-.18.08L399,95l-.18.07h0l-.69-.18a.71.71,0,0,1,.15.15l-.11-.14,0,0-.07-.16a1.05,1.05,0,0,1,0,.19l0-.17a1.08,1.08,0,0,1,0,.18l0-.16h0a.52.52,0,0,0,0,.25.4.4,0,0,0,.08.23.44.44,0,0,0,.17.19.41.41,0,0,0,.21.1l.17,0a.62.62,0,0,0,.32-.09l.14-.1a.66.66,0,0,0,.17-.29Z"/><path class="cls-2" d="M402.15,93.7a.94.94,0,0,0,.16-.23,1,1,0,0,0,.1-.26,2.48,2.48,0,0,0,0-.27,1.37,1.37,0,0,0-.05-.28,1.53,1.53,0,0,0-.11-.27,1.24,1.24,0,0,0-.17-.23l-.09-.09a1.88,1.88,0,0,0-.23-.16l-.21-.08-.07,0-.23,0a2,2,0,0,0-.24,0,1,1,0,0,0-.31.18.64.64,0,0,0-.17.3,1.55,1.55,0,0,0-.07.23,2.06,2.06,0,0,0,0,.26,1.49,1.49,0,0,0,0,.21.15.15,0,0,0,0,.07.72.72,0,0,0,.1.24.89.89,0,0,0,.29.29.86.86,0,0,0,.3.12l.23,0a1.13,1.13,0,0,0,.41-.11.7.7,0,0,0,.19-.15,1.12,1.12,0,0,0,.13-.16h0a1,1,0,0,0,.07-.18.76.76,0,0,0,0-.21,1.1,1.1,0,0,0,0-.18h0a.64.64,0,0,0-.08-.19.55.55,0,0,0-.14-.17,1,1,0,0,0-.16-.12l-.1,0-.14,0-.18,0h0l-.19,0-.18.07h0l-.16.12a.61.61,0,0,0-.12.16.62.62,0,0,0-.1.35l0,.16.06.16.1.14a.54.54,0,0,0,.22.13.42.42,0,0,0,.15,0,.32.32,0,0,0,.17,0,.33.33,0,0,0,.17,0,.64.64,0,0,0,.22-.14h0l-.14.1h0l-.16.07h0l-.17,0s0,0,0,0l-.17,0h0l-.16-.06.09,0a.5.5,0,0,0,.26.06h0l-.18,0h.05l-.17-.06,0,0-.14-.11,0,0-.11-.14s0,0,0,0l-.06-.16h0l0-.17v0l0-.17a0,0,0,0,0,0,0l.07-.17,0,0,.11-.14,0,0,.15-.11,0,0,.17-.07h0l.18,0h-.05l.17,0h-.06l.16.06-.06,0,.14.1-.06-.06.11.15,0-.06.07.17a.23.23,0,0,1,0-.11l0,.17a.75.75,0,0,1,0-.15l0,.17a1.05,1.05,0,0,1,.05-.19l-.49.47h0l-.17,0h.1l-.17,0,.11,0-.16-.06.11.06-.14-.1a.46.46,0,0,1,.12.12l-.1-.14a1.09,1.09,0,0,1,.08.15l-.06-.16a.53.53,0,0,1,0,.17l0-.17a.28.28,0,0,1,0,.13l0-.16,0,.1.06-.15a.3.3,0,0,1,0,.08.49.49,0,0,0-.08.23.39.39,0,0,0,0,.24l.06.15a.42.42,0,0,0,.17.18.32.32,0,0,0,.14.08.45.45,0,0,0,.23,0l.16,0a.64.64,0,0,0,.3-.17Z"/><path class="cls-2" d="M217,109.8l-2.12-1.66-1-.78a3.26,3.26,0,0,0-1.3-.71.42.42,0,0,0-.47.6,3.08,3.08,0,0,0,.88,1c.35.29.7.56,1,.84l2.1,1.63a.66.66,0,0,0,.9,0,.64.64,0,0,0,0-.89Z"/><path class="cls-2" d="M216.08,109.77a15.52,15.52,0,0,0-2.48,3.33c-.21.38-.54.89-.29,1.31a.61.61,0,0,0,.69.28,1.08,1.08,0,0,0,.61-.56c.34-.59.69-1.16,1.08-1.71l.16-.23.06-.08L216,112,216,112l.11-.14.17-.21c.25-.3.51-.58.78-.86a.71.71,0,0,0,0-1,.74.74,0,0,0-1,0Z"/><path class="cls-2" d="M216.33,36.21l-2.12-1.66-1.05-.79a3.25,3.25,0,0,0-1.29-.7.42.42,0,0,0-.47.6,2.85,2.85,0,0,0,.88,1c.34.29.7.57,1.05.85l2.09,1.63a.66.66,0,0,0,.9,0,.63.63,0,0,0,0-.89Z"/><path class="cls-2" d="M215.37,36.17a16,16,0,0,0-2.49,3.34c-.2.38-.53.88-.28,1.31a.6.6,0,0,0,.68.28,1.07,1.07,0,0,0,.62-.56A19.09,19.09,0,0,1,215,38.82c.05-.07.11-.14.16-.22l.06-.08.07-.09,0-.06a1.34,1.34,0,0,1,.11-.14l.17-.21q.38-.45.78-.87a.71.71,0,0,0,0-1,.75.75,0,0,0-1,0Z"/></svg>