<svg id="Layer_1" data-name="Layer 1" xmlns="http://www.w3.org/2000/svg" viewBox="0 0 173.62 68.68"><defs><style>.cls-1{fill:#486afb;}.cls-2{fill:#fd46fc;}</style></defs><path class="cls-1" d="M62.29,188.53a4.37,4.37,0,0,0-4.3,1.26,8.82,8.82,0,0,0-1.89,4.36c-.23,1.64.22,3.45,1.88,4.16,1.9.8,3.65-.34,4.83-1.8a7.48,7.48,0,0,0,1.54-2.66,4,4,0,0,0-.63-3.3.83.83,0,0,0-1.42,0A4.13,4.13,0,0,0,62,193.4a10,10,0,0,0,.71,3,3.16,3.16,0,0,0,2.59,2A3.87,3.87,0,0,0,67,198a10.63,10.63,0,0,0,1.47-1,.7.7,0,0,0-.17-1.26c-1-.25-1.66.49-2.54.7s-1.27-.42-1.56-1.1a9.62,9.62,0,0,1-.5-2.12,3.93,3.93,0,0,1,.09-2.07l-1.2.51a1.85,1.85,0,0,1,.41,2,5.23,5.23,0,0,1-1.07,1.68c-.71.86-1.9,2-3.13,1.51-2.18-.89-.77-4.39.11-5.75a2.75,2.75,0,0,1,3-1.15c.92.15,1.31-1.26.38-1.42Z" transform="translate(-47.01 -157.54)"/><path class="cls-1" d="M50,192.16c-.89,2.35-.5,5.38,1.78,6.8a2.2,2.2,0,0,0,2.5.07,3,3,0,0,0,1.18-1.87,10.8,10.8,0,0,0-.1-4.42,17.5,17.5,0,0,0-2.32-6,11.86,11.86,0,0,0-2.43-2.81c-.79-.67-2.15-1.73-3.22-1.07a.74.74,0,0,0,0,1.26c.3.19.63.3.94.48a7,7,0,0,1,.94.7,11.46,11.46,0,0,1,1.66,1.75,14.83,14.83,0,0,1,2.32,5,13,13,0,0,1,.5,3.13,5.78,5.78,0,0,1-.12,1.61,1.4,1.4,0,0,1-.24.56c.06-.09-.07.08-.1.11s-.11.06,0,0c-.23.07-.4-.07-.68-.29a2.75,2.75,0,0,1-.79-1,4.62,4.62,0,0,1,.06-3.54,1,1,0,0,0-.67-1.16,1,1,0,0,0-1.16.67Z" transform="translate(-47.01 -157.54)"/><path class="cls-1" d="M68.73,187.73c.41,2,.66,3.92,1,5.88.14,1,.31,1.92.53,2.87.11.47.19.94.3,1.4A2,2,0,0,0,71,199a.42.42,0,0,0,.58,0c.63-.54.49-1.8.4-2.54-.13-1-.34-2.07-.51-3.11-.34-2-.62-4.06-1.07-6.07-.24-1.09-1.9-.65-1.68.44Z" transform="translate(-47.01 -157.54)"/><path class="cls-1" d="M68.7,193.4a16.46,16.46,0,0,0,2.22-.06c.4,0,.81-.09,1.21-.17a8,8,0,0,0,1.08-.34.75.75,0,0,0,.54-.81.74.74,0,0,0-.72-.65,17,17,0,0,1-2.14.07l-2.18,0a1,1,0,0,0,0,2Z" transform="translate(-47.01 -157.54)"/><path class="cls-1" d="M80.93,192.22c-1.38-1-3-2.23-4.81-1.67-1.51.47-1.84,2-1.63,3.42a5.11,5.11,0,0,0,2,3.5,3.28,3.28,0,0,0,3.6-.15,5.33,5.33,0,0,0,2.23-3.92.93.93,0,0,0-.91-.92.94.94,0,0,0-.92.91c-.15,1.55-.36,3.44,1.28,4.32,1.42.76,3.12,0,4.21-1a.81.81,0,0,0-.78-1.34c-.48.16-1,.37-1.42.54a1.58,1.58,0,0,1-1.13.12c-.73-.4-.38-1.93-.33-2.62H80.47a2.82,2.82,0,0,1-1.06,2.17,2.25,2.25,0,0,1-.9.45,1.17,1.17,0,0,1-.82-.07,1.73,1.73,0,0,1-.73-.68c-.08-.13-.15-.26-.22-.4s-.1-.24,0-.09a5.25,5.25,0,0,1-.22-.67,3.13,3.13,0,0,1-.15-1.22c0-.11,0,0,0,0a.89.89,0,0,1,0-.14s.07-.24,0-.18.15-.23,0-.07l.09-.1c.13-.08-.11.08,0,0a1.15,1.15,0,0,1,.64-.11,2.36,2.36,0,0,1,.9.24,12.5,12.5,0,0,1,2,1.23.88.88,0,1,0,.87-1.52Z" transform="translate(-47.01 -157.54)"/><path class="cls-1" d="M155.69,192.4c.06,2.38.13,4.77.19,7.16,0,1.15.05,2.31.07,3.46a17.9,17.9,0,0,0,.28,3.66.77.77,0,0,0,1.49,0,15.47,15.47,0,0,0,.22-3.66c0-1.15,0-2.31-.07-3.46-.05-2.39-.13-4.78-.18-7.16a1,1,0,0,0-2,0Z" transform="translate(-47.01 -157.54)"/><path class="cls-1" d="M156.81,190.78a2.66,2.66,0,0,1,.23-.38s0,0,.09,0h.24a3.63,3.63,0,0,1,1.39.1,5.42,5.42,0,0,1,1.2.79,5.83,5.83,0,0,1,.92,1,3.41,3.41,0,0,1,.55,1.16,1.29,1.29,0,0,1,0,.19s0,.14,0,0v.19c0,.16,0-.08,0,.07s-.11.3,0,.13l-.1.2s-.16.24-.1.16-.1.11-.13.15l-.23.22c0,.05-.2.16-.06.06l-.25.17a5.48,5.48,0,0,1-.52.31l-.31.16-.12.05-.05,0c-.2.08-.41.14-.6.22a2.74,2.74,0,0,0-1.26.6.6.6,0,0,0,0,.82,1.65,1.65,0,0,0,1.46.32,5,5,0,0,0,1.68-.52,4.32,4.32,0,0,0,2.26-2.25,3.63,3.63,0,0,0-.68-3.31,7.13,7.13,0,0,0-3.1-2.46,4.93,4.93,0,0,0-2.19-.17,2,2,0,0,0-1.73,1.25.82.82,0,0,0,.3,1.09.8.8,0,0,0,1.09-.3Z" transform="translate(-47.01 -157.54)"/><path class="cls-1" d="M164.73,192.45a4.81,4.81,0,0,0-.2,2.16,3.71,3.71,0,0,0,.87,2,2.69,2.69,0,0,0,3.65.25,3.51,3.51,0,0,0,1-3,6.47,6.47,0,0,0-1.31-3,3.34,3.34,0,0,0-1.7-1.36,2.22,2.22,0,0,0-1.95.69.73.73,0,0,0,.33,1.2,1.93,1.93,0,0,0,.83,0l.23,0h0c.08,0,.08,0,0,0s-.07,0,0,0l.1,0c-.18,0-.08,0,0,0l.16.11c-.14-.1,0,0,0,.06a2.39,2.39,0,0,1,.22.23.52.52,0,0,1,.1.11s.1.12,0,0,.08.12.11.16a5.43,5.43,0,0,1,.35.57,5.93,5.93,0,0,1,.29.56c0,.07.11.27,0,.08l.12.32s.15.45.11.48,0-.25,0-.06c0,0,0,.07,0,.11v.31c0,.05,0,.28,0,.16s0,0,0,.06l0,.14a1.83,1.83,0,0,1-.08.25c0,.05-.07.15,0,0l-.08.16a1.48,1.48,0,0,1-.13.21c.12-.17,0,0-.07.07h0c.1-.09,0,0,0,0l-.09.06c-.16.08.15,0-.07,0h-.14c-.06,0-.29,0-.12,0,0,0-.34-.1-.16,0a2.49,2.49,0,0,1-.28-.15s.13.11,0,0a1.21,1.21,0,0,1-.16-.16c-.08-.08,0,0,0,0a2.39,2.39,0,0,1-.12-.22s-.1-.2-.06-.11-.05-.14-.06-.16-.07-.24-.1-.37l0-.18c0,.12,0-.07,0-.1s0-.28,0-.43c0,0,0-.16,0-.06a1.25,1.25,0,0,1,0-.19c0-.17.08-.33.13-.5a.89.89,0,0,0-.63-1.1.93.93,0,0,0-1.11.63Z" transform="translate(-47.01 -157.54)"/><path class="cls-1" d="M170.1,193.23c.32,2.44.57,4.87.78,7.33.1,1.2.16,2.4.23,3.6,0,.55.08,1.11.09,1.66a12.63,12.63,0,0,0,0,1.63.41.41,0,0,0,.69.19,5.57,5.57,0,0,0,.83-3.13c.09-1.32.11-2.63.07-3.94-.08-2.62-.47-5.25-.8-7.85a1,1,0,0,0-1.22-.71,1,1,0,0,0-.71,1.22Z" transform="translate(-47.01 -157.54)"/><path class="cls-1" d="M171.22,193.1a7.88,7.88,0,0,1,.37-.7l.18-.29.09-.14c.1-.14-.09.1,0-.06a2.39,2.39,0,0,1,.22-.23l.11-.1c.15-.14-.16.09,0,0l.27-.15s.14,0,0,0l.22-.07.17,0c.21-.05-.17,0,.06,0h.56s.33,0,.08,0l.37.08.32.1.14.05c-.2-.08,0,0,0,0l.32.17.11.08c.09.06.08,0,0,0l.11.09c.08.08.15.17.24.25-.13-.13-.06-.09,0,0s.07.11.11.17,0-.13,0,0a1,1,0,0,0,0,.17c.07.18,0-.11,0,0a1.77,1.77,0,0,0,0,.23c0,.18,0-.15,0,0a.61.61,0,0,0,0,.13s0,.08,0,.12.11-.2,0,0l-.13.23c-.09.16.15-.16,0,0l-.11.12a1.8,1.8,0,0,1-.2.19c-.15.14.2-.13,0,0l-.09.07c-.18.12-.37.23-.57.34a5.94,5.94,0,0,1-.57.27c-.2.1.2-.07,0,0l-.13.05-.18.07-.18.08a16.76,16.76,0,0,0-2.69,1.12.6.6,0,0,0,.45,1.1c.91-.21,1.84-.3,2.74-.53a5.4,5.4,0,0,0,2.85-1.56,2.62,2.62,0,0,0-.14-3.57,4.48,4.48,0,0,0-3.73-1.13c-1.47.21-2.28,1.4-2.89,2.63a.86.86,0,0,0,.32,1.14.84.84,0,0,0,1.14-.31Z" transform="translate(-47.01 -157.54)"/><path class="cls-1" d="M177.36,192.35a14.85,14.85,0,0,0,.7,1.82,3,3,0,0,0,1.64,1.5,2.86,2.86,0,0,0,2.31-.07,2.44,2.44,0,0,0,1.11-2.45l-.06-.54c0-.05,0-.17,0,0,0-.05,0-.11,0-.17a4.85,4.85,0,0,1,0-.66c0-.18,0-.37,0-.55a4.1,4.1,0,0,0-.06-.78.73.73,0,0,0-.61-.53.74.74,0,0,0-.72.36,3.16,3.16,0,0,0-.56,2.15c0,.23,0,.45.09.67a.41.41,0,0,0,0,.11s0-.19,0,0,0,.19,0,.28a.65.65,0,0,1,0,.14s0,.13,0,0,0,0,0,0,0,.06,0,.1,0-.05,0-.05-.06.12-.05.11a.35.35,0,0,0,0,.08c-.05.08.16-.16,0-.05l-.06.05c-.06.1.19-.1.09-.06a.75.75,0,0,0-.15.09s.21-.07.12-.05l-.09,0h-.08c-.16,0,.17,0,.07,0h-.37c-.22,0,.15,0,0,0l-.22-.05c-.06,0-.16-.07-.21-.07s.17.09.1,0l-.07,0a1.08,1.08,0,0,1-.18-.11s-.11-.07,0,0,0,0,0,0a2.83,2.83,0,0,1-.24-.25s.15.21.07.08l0-.06-.1-.17c-.07-.13-.14-.26-.2-.4l0-.07c-.05-.11.09.22,0,.06l-.08-.2-.3-.84a1,1,0,0,0-.44-.57.92.92,0,0,0-.69-.09.93.93,0,0,0-.66,1.13Z" transform="translate(-47.01 -157.54)"/><path class="cls-1" d="M183.29,185.5c.2,2.09.34,4.2.58,6.29s.43,4.06,1.7,5.66c.41.52,1.21,0,1.06-.61a37.33,37.33,0,0,1-.81-5.48c-.22-2-.35-3.9-.53-5.85a1,1,0,0,0-1-1,1,1,0,0,0-1,1Z" transform="translate(-47.01 -157.54)"/><path class="cls-1" d="M193.08,191a3.65,3.65,0,0,0-3.56-.23,4.8,4.8,0,0,0-2.22,3.7,2.18,2.18,0,0,0,1.91,2.34,4,4,0,0,0,2.44-1.19,13,13,0,0,0,1-.94c.14-.15.29-.3.44-.44l.18-.15c.08-.07-.21.14,0,0l-1.16-.15c-.06-.07,0,.07,0,.08a2.5,2.5,0,0,1,.11.39c.06.23.1.46.18.69a3.85,3.85,0,0,0,1.05,1.54,24.59,24.59,0,0,0,2.8,2.06c.57.4,1.22-.37.92-.91a13.79,13.79,0,0,0-2.36-2.53,2.21,2.21,0,0,1-.66-1.11,3.46,3.46,0,0,0-.72-1.58,1,1,0,0,0-1.15-.15,20.37,20.37,0,0,0-1.78,1.55l-.51.44c.2-.16-.08.05-.12.08l-.26.17-.25.14c-.24.13.08,0-.06,0s-.24.15,0,0c-.1.06-.19-.08-.09,0s.22.1.1,0,.22.11,0,0c.09.13.11.14,0,.05a.54.54,0,0,1-.07-.13c.11.22,0-.1-.05-.16a2.33,2.33,0,0,1,.62-1.65l.27-.3s.3-.26.23-.21a.79.79,0,0,1,.54-.23c-.16,0,.19,0,.22,0s.22,0,.26.06a5,5,0,0,1,.77.28,1,1,0,0,0,1.26-.34.93.93,0,0,0-.35-1.25Z" transform="translate(-47.01 -157.54)"/><path class="cls-1" d="M196,184.92c.15,2.45.14,4.91.44,7.34a19.37,19.37,0,0,0,.7,3.3,3.32,3.32,0,0,0,1.59,2.22.56.56,0,0,0,.76-.77,7.45,7.45,0,0,1-.66-2.41c-.18-1-.37-2-.48-3-.22-2.21-.22-4.44-.36-6.66-.08-1.27-2.08-1.29-2,0Z" transform="translate(-47.01 -157.54)"/><path class="cls-1" d="M195.53,190.49c1,.28,2.06.64,3.1.9a11.86,11.86,0,0,0,1.66.32,6.61,6.61,0,0,0,1.72-.05c.72-.12.66-1.23,0-1.39-1-.24-2-.49-3-.8s-2-.64-3-.91a1,1,0,0,0-.52,1.93Z" transform="translate(-47.01 -157.54)"/><path class="cls-1" d="M203.17,194.38c.1.41.16.84.29,1.24a3.27,3.27,0,0,0,.41.84,1.74,1.74,0,0,0,.51.5,1.72,1.72,0,0,0,.42.18.75.75,0,0,0,.83-.35.88.88,0,0,0,.1-.36.81.81,0,0,0-.22-.53l0,0,.12.16a1.06,1.06,0,0,1-.11-.21l.08.2-.18-.46.09.22a4.72,4.72,0,0,1-.26-1c-.05-.29-.07-.58-.13-.88a1,1,0,0,0-.47-.61,1,1,0,0,0-1.45,1.12Z" transform="translate(-47.01 -157.54)"/><path class="cls-1" d="M202.56,187.8c0,.25,0,.5,0,.76s0,.38.06.58a.89.89,0,0,0,.12.38.82.82,0,0,0,.25.27.51.51,0,0,0,.25.16.59.59,0,0,0,.29.07l.2,0a.82.82,0,0,0,.36-.21.76.76,0,0,0,.24-.26.85.85,0,0,0,.12-.37c0-.2.05-.39.06-.58s0-.51,0-.76a1,1,0,0,0-.3-.72,1,1,0,0,0-1.69.71Z" transform="translate(-47.01 -157.54)"/><path class="cls-1" d="M208.14,191.59a10.63,10.63,0,0,0-.1,3.28,3,3,0,0,0,2.32,2.51,2.67,2.67,0,0,0,2.32-.58,3.21,3.21,0,0,0,1-1.77,4.31,4.31,0,0,0-.91-3.88,3.91,3.91,0,0,0-2.22-1.05,5,5,0,0,0-1.69,0,3.72,3.72,0,0,0-.65.19l-.31.12c-.05,0-.11,0,0,0a1.19,1.19,0,0,0-.47.32.71.71,0,0,0-.11.84,1.2,1.2,0,0,0,1.38.47l.42-.08.34,0c-.08,0-.06,0,0,0h.19a3.85,3.85,0,0,1,.48,0c.29,0-.14,0,.15,0a2.3,2.3,0,0,1,.28.06l.35.11c-.22-.08,0,0,0,0a1,1,0,0,1,.17.1l.17.1c.18.12-.15-.14,0,0s.15.13.22.21,0,0,0,0,.06.1.08.12,0,.09.07.14a.47.47,0,0,1,0,.1c.05.1,0,.08,0-.06a2,2,0,0,0,.09.3c0,.06,0,.12,0,.19s.09.21,0,0a2.21,2.21,0,0,1,0,.77.82.82,0,0,1,0,.22c.08-.21,0,0,0,0s0,.22-.07.33l-.06.2s-.1.21,0,.07,0,0,0,.06l-.13.23c-.1.17.12-.11,0,0a.58.58,0,0,0-.1.12,1.74,1.74,0,0,0-.14.12c.05-.13.17-.1,0,0l-.14.07c0-.05.22-.07,0,0-.05,0-.24.1,0,0a.55.55,0,0,1-.22,0s-.28,0-.06,0l-.2,0-.12,0c-.16,0,0-.08,0,0a1,1,0,0,0-.25-.13c-.17-.11,0,0,0,0s-.13-.13-.15-.15-.07-.07-.07-.08.14.23,0,0-.1-.17-.14-.26,0-.17,0,.06l-.06-.15c0-.11-.06-.21-.09-.32l0-.17s-.05-.27,0-.11,0,0,0-.06a1.64,1.64,0,0,1,0-.23c0-.24,0-.48,0-.71,0-.47.08-.94.13-1.41a.91.91,0,0,0-1.78-.24Z" transform="translate(-47.01 -157.54)"/><path class="cls-1" d="M216.52,197.06c-.08-.45-.17-.9-.26-1.35,0-.24-.09-.48-.13-.73s0-.22,0-.33,0-.08,0,0l0-.29a7.12,7.12,0,0,1,0-1.46c0-.18,0-.05,0,0l0-.16c0-.11.05-.21.08-.32l0-.15s-.07.14,0,0a.8.8,0,0,1,.08-.16s.14-.22.07-.12l0-.06.11-.11c.06-.1-.14.06,0,0a.47.47,0,0,0,.12-.07c.11-.08-.16.08-.05,0l.1,0c-.19.05-.1,0,0,0h0c-.07,0-.06,0,0,0h0l.15.08s.14.11,0,0l.14.12.19.2.1.12c.09.09-.09-.14,0,0a6.16,6.16,0,0,1,.33.55l.14.3c-.09-.21.05.12.07.18.16.44.28.89.4,1.35a9.44,9.44,0,0,0,1.12,3,.69.69,0,0,0,1.26-.51l0-.19s0-.2,0-.07c0-.15,0-.3-.06-.44s-.12-.54-.16-.81c-.1-.52-.17-1.05-.29-1.56a7.33,7.33,0,0,0-1.36-3.1,3.19,3.19,0,0,0-1.52-1.07,2.07,2.07,0,0,0-1.91.46,4.13,4.13,0,0,0-1.11,3.32,29.74,29.74,0,0,0,.59,3.86.92.92,0,0,0,1.12.66.94.94,0,0,0,.66-1.12Z" transform="translate(-47.01 -157.54)"/><path class="cls-2" d="M151.56,181.42a67.77,67.77,0,0,0-11.25-7.79A51.62,51.62,0,0,0,127,169a44,44,0,0,0-7.34-.73,50.65,50.65,0,0,0-7.39.2,35.5,35.5,0,0,0-7,1.74c-2.18.74-4.35,1.55-6.45,2.5a32.25,32.25,0,0,0-12.15,9.49c-.46.59.27,1.37.84.83,1.64-1.53,3.17-3.18,4.89-4.63A28.15,28.15,0,0,1,98,174.79a51.86,51.86,0,0,1,6-2.49,57.73,57.73,0,0,1,6.73-2,31.45,31.45,0,0,1,7-.43,57.16,57.16,0,0,1,7.28.47,47.58,47.58,0,0,1,12.9,4c4.56,2.08,8.5,5.16,12.39,8.27.88.7,2.12-.55,1.24-1.26Z" transform="translate(-47.01 -157.54)"/><path class="cls-2" d="M86.91,203.61a19.55,19.55,0,0,0,3.63,4.84A13.33,13.33,0,0,0,93,210.32c1,.59,2,1,3,1.59a18.69,18.69,0,0,0,2.92,1.57,32,32,0,0,0,3.15,1,53.84,53.84,0,0,0,6.63,1.5,45.52,45.52,0,0,0,13.39.1,53.86,53.86,0,0,0,13-3.23,32.91,32.91,0,0,0,11.23-7.57c.68-.7-.32-1.59-1-1a50.89,50.89,0,0,1-9.57,6.2,46.11,46.11,0,0,1-12,3.44,46.24,46.24,0,0,1-12.76.5,49.63,49.63,0,0,1-6.29-1.13c-1-.24-2.07-.53-3.09-.8a14.76,14.76,0,0,1-3-1c-1.11-.58-2.17-1.19-3.31-1.7a15.5,15.5,0,0,1-2.93-1.62,16.09,16.09,0,0,1-4.37-5.06.56.56,0,0,0-1,.56Z" transform="translate(-47.01 -157.54)"/><path class="cls-2" d="M145.08,203.41a13,13,0,0,0-4.69.12.68.68,0,0,0,0,1.31,23.77,23.77,0,0,0,4.69.57,1,1,0,0,0,1-1,1,1,0,0,0-1-1Z" transform="translate(-47.01 -157.54)"/><path class="cls-2" d="M144.44,205.05a30.12,30.12,0,0,0-1.27,3c-.18.48-.34,1-.48,1.47-.06.24-.13.48-.19.72a6,6,0,0,0-.13,1,.78.78,0,0,0,.58.76.82.82,0,0,0,.89-.37,3.51,3.51,0,0,0,.44-.75c.1-.23.18-.46.27-.7.18-.48.32-1,.49-1.47a23.32,23.32,0,0,1,1.11-2.62,1,1,0,1,0-1.71-1Z" transform="translate(-47.01 -157.54)"/><path class="cls-2" d="M86.48,177.9a20.42,20.42,0,0,0-.39,2.07q-.09.57-.15,1.14c0,.17,0,.34,0,.51s0,.37,0,.55a.66.66,0,0,0,.49.64.65.65,0,0,0,.74-.31,4.88,4.88,0,0,0,.35-1.06q.1-.52.18-1.05c.11-.69.2-1.39.34-2.07a.81.81,0,0,0-.56-1,.82.82,0,0,0-1,.56Z" transform="translate(-47.01 -157.54)"/><path class="cls-2" d="M87.33,184.15c.53.1,1,.22,1.58.31l.77.14c.31.07.64.08,1,.13a.74.74,0,0,0,.72-.56.78.78,0,0,0-.35-.84,4.48,4.48,0,0,0-.84-.44c-.25-.1-.51-.2-.76-.28a12.22,12.22,0,0,0-1.56-.38,1,1,0,0,0-.76.1,1,1,0,0,0-.46.6,1,1,0,0,0,.7,1.22Z" transform="translate(-47.01 -157.54)"/><path class="cls-2" d="M106.89,158.91c-.37.2-.81.4-1,.83s.3,1,.67,1.36a4.93,4.93,0,0,1,.62.59,1.89,1.89,0,0,1,.2.27.13.13,0,0,1,0,.16.34.34,0,0,1-.14.09,1.83,1.83,0,0,1-.39.09,1,1,0,0,1-.38,0l-.22-.08a2.66,2.66,0,0,0-.28,0,.37.37,0,0,0-.34.23.39.39,0,0,0,.08.41,1.66,1.66,0,0,0,2,.08.91.91,0,0,0,.09-1.57,6.85,6.85,0,0,0-.72-.59,3.27,3.27,0,0,1-.35-.3.73.73,0,0,1-.24-.32c0-.16,0-.25.16-.34a4.08,4.08,0,0,1,.58-.32c.36-.19,0-.75-.32-.55Z" transform="translate(-47.01 -157.54)"/><path class="cls-2" d="M110.66,159.69a2.46,2.46,0,0,0-.81,0,1.52,1.52,0,0,0-.71.37,2.56,2.56,0,0,0-.46.57,2.14,2.14,0,0,0-.29.76,1.93,1.93,0,0,0,0,.83,1.1,1.1,0,0,0,.55.61,1.38,1.38,0,0,0,1.62-.21,1.8,1.8,0,0,0,.45-.78,2.08,2.08,0,0,0,.07-1V161a.48.48,0,0,0-.18-.51.44.44,0,0,0-.58.12,1.31,1.31,0,0,0-.31,1.13,1.58,1.58,0,0,0,.71.93,3.32,3.32,0,0,0,.51.23,2.52,2.52,0,0,0,.46.1.44.44,0,0,0,.51-.26.44.44,0,0,0-.18-.53c-.16-.1-.32-.2-.49-.29a3.4,3.4,0,0,1-.48-.29c.09.07,0,0,0,0a.94.94,0,0,1-.1-.1c.06.06,0-.05,0-.06s0,0,0-.07a.77.77,0,0,1,.08-.43l-.21.16-.19,0-.08-.15s0,0,0,0a.35.35,0,0,0,0,.14c0,.05,0,.11,0,.16a2.42,2.42,0,0,1-.1.36,1.33,1.33,0,0,1-.16.28l-.1.11,0,0h0l-.08,0-.17.05h-.23a.66.66,0,0,1-.28-.11l0,0h0l-.06-.05s0,0,0,0,0,0,0,0,0,0,0-.05a.91.91,0,0,1,0-.17,1.6,1.6,0,0,1,0-.38,1.73,1.73,0,0,1,.23-.66,1.24,1.24,0,0,1,.49-.5,1.33,1.33,0,0,1,.79-.07c.19,0,.24-.31,0-.34Z" transform="translate(-47.01 -157.54)"/><path class="cls-2" d="M112.33,162.05c0,.23.08.44.13.66a.33.33,0,0,0,.65-.08c0-.34-.06-.7-.07-1a1.7,1.7,0,0,1,.1-.81l0-.06h-.05s0,0,0,.06a.83.83,0,0,1,.17.27,1.66,1.66,0,0,0,.45.69.42.42,0,0,0,.49.06.79.79,0,0,0,.39-.5c0-.1.06-.2.1-.3a1.09,1.09,0,0,1,0-.17s.07-.17,0-.07c0-.08.12-.22.16-.27s0,0,0,0l0,0h0l-.07,0c-.07,0-.09-.05-.14-.06l0,0,.06.11a.64.64,0,0,0,0,.1s0,.18.06.26,0,0,0,.08,0,.11,0,.16,0,.23,0,.34,0,.42,0,.64,0,.3,0,.44a1.44,1.44,0,0,0,.2.39.51.51,0,0,0,.92-.12,1.83,1.83,0,0,0,0-.57,1.1,1.1,0,0,0,0-.18s0-.07,0-.11,0,.05,0-.12,0-.22,0-.34,0-.08,0,0a.22.22,0,0,1,0-.08c0-.07,0-.13,0-.2a3.15,3.15,0,0,0-.23-.85,1.15,1.15,0,0,0-.63-.63c-.43-.13-.73.21-.92.55-.07.13-.13.26-.19.4L114,161c0,.1,0,.12,0,.08l0,0c0-.07,0,0,0,0h.41s0,0,0-.05l-.07-.07,0,0,0-.08,0,0a2.44,2.44,0,0,0-.33-.39c-.25-.23-.63-.39-.91-.12a1.52,1.52,0,0,0-.3,1l0,.6a5,5,0,0,0,0,.67l.61-.16a2.22,2.22,0,0,1-.12-.58.33.33,0,0,0-.39-.22.32.32,0,0,0-.22.38Z" transform="translate(-47.01 -157.54)"/><path class="cls-2" d="M116.45,161.15a20.85,20.85,0,0,1,.07,3.16c0,.53-.1,1.05-.15,1.58a1.8,1.8,0,0,0,.26,1.36c.31.38.84,0,.88-.37a25.59,25.59,0,0,0,.09-2.79,17.35,17.35,0,0,0-.33-3c-.08-.46-.86-.37-.82.1Z" transform="translate(-47.01 -157.54)"/><path class="cls-2" d="M116.72,161.57a1,1,0,0,1,1-.6.8.8,0,0,1,.73.63,1.61,1.61,0,0,1-.41,1.14,1.48,1.48,0,0,1-.38.37,1.42,1.42,0,0,1-.54.17.19.19,0,0,0,0,.37,1.21,1.21,0,0,0,1.1-.37,2.82,2.82,0,0,0,.71-1.12,1.23,1.23,0,0,0-.26-1.26,1.39,1.39,0,0,0-1.15-.31,1.43,1.43,0,0,0-1.11.83c-.08.18.18.33.27.15Z" transform="translate(-47.01 -157.54)"/><path class="cls-2" d="M118.94,158.12c.1.94.25,1.88.26,2.83,0,.46,0,.91-.06,1.36,0,.24,0,.49,0,.73a1.83,1.83,0,0,0,.14.73c.16.38.65.19.77-.1a5.05,5.05,0,0,0,.18-1.35c0-.47.07-.95.07-1.42a23.57,23.57,0,0,0-.17-2.78.61.61,0,0,0-.58-.58.59.59,0,0,0-.58.58Z" transform="translate(-47.01 -157.54)"/><path class="cls-2" d="M121.41,161a7.07,7.07,0,0,0,0,.92c0,.16,0,.31,0,.46a1.62,1.62,0,0,0,0,.22,1,1,0,0,0,.12.37.38.38,0,0,0,.65,0,1,1,0,0,0,.12-.36,1.93,1.93,0,0,0,0-.24c0-.16,0-.31,0-.46a8.43,8.43,0,0,0-.11-1,.39.39,0,0,0-.19-.26.48.48,0,0,0-.26-.05.43.43,0,0,0-.37.41Z" transform="translate(-47.01 -157.54)"/><path class="cls-2" d="M121.41,158.41l0,.16a.83.83,0,0,0,0,.22.47.47,0,0,0,.12.32.46.46,0,0,0,.15.09l.11,0a.52.52,0,0,0,.21-.07.75.75,0,0,0,.22-.25.5.5,0,0,0,.08-.27.44.44,0,0,0-.12-.3l-.1-.08,0,0-.2-.08-.07,0h0l-.11,0h.08a.45.45,0,0,0-.2,0,.3.3,0,0,0-.22.29.25.25,0,0,0,0,.12l0,0,.06.08a.39.39,0,0,0,.1.08l.08,0,.16.06.08,0-.07,0,0,0-.07-.05s0,0,0,0l-.05-.06,0,0,0-.08a0,0,0,0,1,0,0v-.12a.24.24,0,0,1,0,.08l0-.08a.54.54,0,0,1-.07.13l0-.06a.08.08,0,0,1,0,0l.07,0h0l.07,0h.06l.06,0,0,0,0,0,0,0,0,.05a.08.08,0,0,1,0,0l0,.06a.83.83,0,0,1,0-.15v0c0-.07,0-.14,0-.22a.23.23,0,0,0-.07-.1.2.2,0,0,0-.11,0l-.09,0a.19.19,0,0,0-.09.11Z" transform="translate(-47.01 -157.54)"/><path class="cls-2" d="M123.59,162.75a2.26,2.26,0,0,1,.09-.86,1.08,1.08,0,0,1,.51-.56l.13,0h.25s0,0,0,0-.06-.05,0,0,0,0,0,0l0,.07.09.1,0,0s0-.06,0,0l0,.08,0,0s0-.08,0,0l0,.12s0,0,0,0a.59.59,0,0,0,0,.13l0,.12.06.27c0,.2.07.39.11.59a3,3,0,0,0,.22.63.39.39,0,0,0,.44.19.41.41,0,0,0,.29-.38v-.3a2.45,2.45,0,0,0,0-.38,6.21,6.21,0,0,0-.14-.62c0-.09-.07-.19-.11-.28a1.12,1.12,0,0,1,0-.13c0-.07,0,.06,0,0a1.54,1.54,0,0,0-.08-.19,1.15,1.15,0,0,0-.41-.44l0,0h0l-.13-.1a.64.64,0,0,0-.33-.07h-.11l-.16,0a1.33,1.33,0,0,0-.28.1,1.57,1.57,0,0,0-.68.8,2.85,2.85,0,0,0-.13,1.16c0,.23.36.23.35,0Z" transform="translate(-47.01 -157.54)"/><polygon class="cls-2" points="81.18 4.19 81.18 4.19 81.18 4.19 81.18 4.19"/><path class="cls-2" d="M128.69,161.18a1.17,1.17,0,0,0-1.48-.42,1.24,1.24,0,0,0-.57,1.48,1,1,0,0,0,1.27.69,1.32,1.32,0,0,0,1-1.11.26.26,0,0,0-.5-.13c-.2.54.14,1.16.27,1.69a9,9,0,0,1,.21,1.8,2,2,0,0,1-.21,1.29c-.3.37-.93.1-1.32.14a.38.38,0,0,0-.19.7,1.9,1.9,0,0,0,1.86.07,1.94,1.94,0,0,0,.69-1.64,9.6,9.6,0,0,0-.15-1.93,5.92,5.92,0,0,0-.28-1.1,8.89,8.89,0,0,1-.38-1l-.5.13c.06.28-.89.59-1,.17a.59.59,0,0,1,.17-.58c.26-.22.47,0,.66.2s.69-.14.43-.43Z" transform="translate(-47.01 -157.54)"/><path class="cls-2" d="M103.83,222.6c0,.43.09.87.17,1.3l.12.57a4,4,0,0,0,.26.65.5.5,0,0,0,.93-.24,5.53,5.53,0,0,0,0-.71c0-.18-.07-.37-.1-.55l-.18-1.16a.58.58,0,0,0-.28-.37.56.56,0,0,0-.36-.06.57.57,0,0,0-.52.57Z" transform="translate(-47.01 -157.54)"/><path class="cls-2" d="M104.15,220.2a.48.48,0,0,0-.06-.37.28.28,0,0,0-.1-.09l-.1,0h-.1a.24.24,0,0,0-.12.07l-.07.06-.07.08,0,.12a.54.54,0,0,0,0,.31.31.31,0,0,0,.16.24.36.36,0,0,0,.21,0,.3.3,0,0,0,.13,0,.46.46,0,0,0,.18-.1.39.39,0,0,0,.08-.1.48.48,0,0,0,.06-.18.64.64,0,0,0,0-.23.5.5,0,0,0-.31-.24,1.29,1.29,0,0,0-.39,0,.12.12,0,0,0-.11.1.11.11,0,0,0,.08.12l.08,0h0s0,0,0,0l0,0a.51.51,0,0,1,.16.09l0,0a.09.09,0,0,1,.06.06l0,0s0,0,0,0l0-.05s0,0,0,.06v-.06l0,.05,0-.06,0,0,0-.06a.35.35,0,0,0,0,.08l0-.06,0,0,0,0,0,0,.07,0-.07,0h0l.18.14h0l0,.07a.13.13,0,0,1,0-.06v.08a.06.06,0,0,1,0-.06v.07a.24.24,0,0,1,0-.08l0,.07a.84.84,0,0,0,.06-.14.24.24,0,0,0,0-.08l0,.07v0l-.37.1,0,0,0-.05,0,0,0,0s0,0,0,0l0-.06a.17.17,0,0,1,0,.05v0a.28.28,0,0,0,.07.17.3.3,0,0,0,.14.06.23.23,0,0,0,.25-.17Z" transform="translate(-47.01 -157.54)"/><path class="cls-2" d="M106.34,225.33a5.46,5.46,0,0,1-.25-1.92,1,1,0,0,1,.1-.39.21.21,0,0,1,.1-.11s0,0,0,0l0,0s0,0,0,0l.05,0h.12a.73.73,0,0,1,.27.11,1.85,1.85,0,0,1,.6.58,2.18,2.18,0,0,1,.35,1,5.3,5.3,0,0,0,.26,1.18.3.3,0,0,0,.33.22.29.29,0,0,0,.27-.29c0-.43,0-.84,0-1.27a2.52,2.52,0,0,0-.45-1.08,1.92,1.92,0,0,0-1.64-.95c-.89.1-.68,1.32-.6,1.92,0,.38.14.75.22,1.11a.15.15,0,0,0,.29-.07Z" transform="translate(-47.01 -157.54)"/><path class="cls-2" d="M111.54,220a1.16,1.16,0,0,0-.9-.29,1.38,1.38,0,0,0-.71.36,1.11,1.11,0,0,0-.3.71,3.73,3.73,0,0,0,0,1,5.57,5.57,0,0,0,1.48,3.54.38.38,0,0,0,.63-.36,6.84,6.84,0,0,0-.48-1.38,8.29,8.29,0,0,1-.41-1.28,4.24,4.24,0,0,1-.19-1.37,2,2,0,0,0,0-.22s0,0,0,0,.18-.12.36,0c.4.29.92-.39.53-.7Z" transform="translate(-47.01 -157.54)"/><path class="cls-2" d="M109.64,223.36l1.69-.08a8.48,8.48,0,0,0,.88-.06c.29,0,.71-.15.72-.51s-.49-.48-.79-.51a5.46,5.46,0,0,0-.81,0c-.56,0-1.12.05-1.68.06a.56.56,0,0,0-.56.55.56.56,0,0,0,.55.56Z" transform="translate(-47.01 -157.54)"/><path class="cls-2" d="M113.71,224.77c.66.1,1.51.21,2-.42a1,1,0,0,0,.06-1.06,1.33,1.33,0,0,0-.82-.67,1.46,1.46,0,0,0-1.86.71,1.31,1.31,0,0,0-.06,1,1.83,1.83,0,0,0,.55.77,4.13,4.13,0,0,0,.9.54,2.66,2.66,0,0,0,.53.21,2.7,2.7,0,0,0,.41.08.39.39,0,0,0,.46-.23.39.39,0,0,0-.17-.48l-.25-.15a1.55,1.55,0,0,0-.22-.12s-.12-.05,0,0l-.1-.05c-.22-.09-.44-.2-.65-.31a3,3,0,0,1-.3-.19c-.06,0,0-.06,0,0s0,0-.07-.06l-.12-.11s-.1-.08-.11-.12l0,.05,0,0a.43.43,0,0,1,0-.07l0-.07c0-.07,0,.1,0,0a.61.61,0,0,1,0-.18c0,.13,0,0,0-.09s0-.17,0-.07c0-.07,0-.14.05-.2s0,0,0,0a.75.75,0,0,0,.07-.12c0,.06,0,0,0,0l.07-.07c.07-.06,0,0,0,0l.09-.05.13-.06.19,0a1,1,0,0,1,.71.21.62.62,0,0,1,.2.64c-.19.57-1,.38-1.46.28a.32.32,0,0,0-.37.21.31.31,0,0,0,.21.37Z" transform="translate(-47.01 -157.54)"/><path class="cls-2" d="M117.23,225.68l.09.17a.25.25,0,0,0,.45-.06c.11-.38-.22-.65-.4-1a2.19,2.19,0,0,1-.3-1.2.57.57,0,0,1,0-.13c0,.06,0,0,0,0a.29.29,0,0,1,0-.1c0-.06,0,0,0,0s0,0,0,0a.18.18,0,0,1,.05-.07l0,0,0,0,0,0s0,0,0,0l.07,0,.07-.05s.1,0,0,0,0,0,0,0l.1,0,.08,0c-.11,0,0,0,0,0H118l.12,0h0l.12,0,.12,0h.1l.12,0a.31.31,0,0,0,.23-.56,2.19,2.19,0,0,0-1.94-.24c-.86.37-.59,1.52-.33,2.19a2.42,2.42,0,0,0,.4.72l.21.25.06.09c0,.07,0,0,0,0l0,.06v0l.46-.12-.1-.15a.24.24,0,0,0-.42.23Z" transform="translate(-47.01 -157.54)"/><path class="cls-2" d="M119.51,224.92a2.12,2.12,0,0,0,2.1-.55c.23-.32.5-.79.26-1.17a1.29,1.29,0,0,0-1-.54,1.88,1.88,0,0,0-1.88,1.19,1.3,1.3,0,0,0,0,1.09,1.93,1.93,0,0,0,.67.72,3.81,3.81,0,0,0,1,.45,1.74,1.74,0,0,0,.56.11h.37a.47.47,0,0,0,.12-.92l-.11,0-.06,0c.15.06.07,0,0,0a2.61,2.61,0,0,0-.42-.16,5.83,5.83,0,0,1-.71-.22s-.22-.11-.07,0l-.17-.07-.15-.08s-.16-.08-.16-.11.09.08,0,0l-.06,0-.06-.05c-.07-.08,0,0,0,0a1.48,1.48,0,0,1-.08-.13c0-.07,0,.11,0,0l0-.09c0-.08,0,.09,0,0a.21.21,0,0,0,0-.08s0-.11,0,0a.36.36,0,0,0,0-.1,1.25,1.25,0,0,1,.18-.41,1.29,1.29,0,0,1,.57-.51,1.25,1.25,0,0,1,.89-.07c.15,0,.33.14.37.31s-.14.43-.25.59a1.41,1.41,0,0,1-.87.59,3.69,3.69,0,0,1-1.1,0c-.18,0-.18.27,0,.29Z" transform="translate(-47.01 -157.54)"/><path class="cls-2" d="M122.34,225.45a.75.75,0,0,0,.44.6.35.35,0,0,0,.46-.13,2.77,2.77,0,0,0,.07-1.43,3,3,0,0,1,0-.84,1,1,0,0,1,.16-.39l0,0s.06-.06,0-.05l.07,0c-.06,0,.07,0,.08,0s.06,0,0,0h0s0,0,0,0,0,0,0,0l0,0,0,.07a2.29,2.29,0,0,0,.1.23c0-.07,0,0,0,0l.08.2c.1.27.19.54.3.81s.11.29.17.43a3.81,3.81,0,0,0,.23.45.36.36,0,0,0,.45.16.38.38,0,0,0,.22-.43,3.21,3.21,0,0,0-.07-.43,3.66,3.66,0,0,0-.13-.44,7,7,0,0,0-.34-.86c-.18-.43-.41-.94-.94-1a1,1,0,0,0-.93.73,3.33,3.33,0,0,0-.17,1c0,.21,0,.43,0,.64a1.67,1.67,0,0,1-.13.8l.46-.13-.09,0s0,0,0,0,0,0,0,0a.35.35,0,0,0-.38-.34.34.34,0,0,0-.29.42Z" transform="translate(-47.01 -157.54)"/><path class="cls-2" d="M128.21,222.35a2.19,2.19,0,0,0-1.4.21,1.63,1.63,0,0,0-.82,1.09,1.71,1.71,0,0,0,.25,1.28,2.63,2.63,0,0,0,.91.78c.16.09.33.16.51.24a2.09,2.09,0,0,0,.35.13l.26,0a.49.49,0,0,0,.54-.23.52.52,0,0,0-.08-.58,2.51,2.51,0,0,0-.48-.38l-.45-.26-.22-.13a.94.94,0,0,0-.12-.09c.07.06.09.07,0,0l0,0-.18-.18s0-.06-.07-.07.07.09,0,0l0-.06-.06-.11s0,0,0,.07a.25.25,0,0,0,0-.07.45.45,0,0,1,0-.16c0,.07,0,.09,0,.05v-.14c0-.06,0-.06,0,0s0-.1,0-.13,0,.06,0,0l.09-.13c-.07.1,0,0,0,0l.06-.07s0,0,0,0l.13-.09s.17-.07.06,0a1.67,1.67,0,0,1,.3-.08h.29a.47.47,0,0,0,.46-.41.46.46,0,0,0-.34-.51Z" transform="translate(-47.01 -157.54)"/><path class="cls-2" d="M130.1,224.53c.75.24,1.73.51,2.38-.1a1.21,1.21,0,0,0,.4-1.08,1.19,1.19,0,0,0-.65-.77,2,2,0,0,0-1.9.08,1.57,1.57,0,0,0-.67.87,1.83,1.83,0,0,0,.25,1.37,2.15,2.15,0,0,0,1.15.95,3.86,3.86,0,0,0,.58.17,3.19,3.19,0,0,0,.69,0,.47.47,0,0,0,.47-.41.49.49,0,0,0-.34-.53l-.39-.14a2.28,2.28,0,0,0-.45-.11l-.4-.14h0c-.06,0-.05,0,0,0s-.06,0-.07,0l-.21-.13c-.07,0,.08.08,0,0l-.09-.08a2.09,2.09,0,0,1-.14-.17l0,0-.06-.1a.54.54,0,0,1,0-.11c0-.05,0-.05,0,0l0-.09a.69.69,0,0,1,.1-.62l0-.06c0,.06,0,0,0,0l.12-.12a1.91,1.91,0,0,1,.31-.19,1.29,1.29,0,0,1,.65-.08,1,1,0,0,1,.67.36.64.64,0,0,1-.13.79c-.52.57-1.46.24-2.07,0-.31-.1-.45.4-.13.5Z" transform="translate(-47.01 -157.54)"/></svg>