<svg id="Layer_1" data-name="Layer 1" xmlns="http://www.w3.org/2000/svg" viewBox="0 0 125.58 120.35"><defs><style>.cls-1{opacity:0.25;}.cls-2{fill:#fd46fc;}.cls-3{fill:none;stroke:#486afb;stroke-miterlimit:10;}.cls-4{fill:#486afb;}</style></defs><g class="cls-1"><path class="cls-2" d="M159.71,156.68c.64,3.58.38,7.55.29,11.18-.21,8.09-2.68,16.37-7.86,22.67a27.3,27.3,0,0,1-3.24,2.92c-.73.63-1.38,1.28-2.08,1.9-7-5.2-11.76-13.29-11.31-22.25a47.84,47.84,0,0,1,1.59-8.48,53.42,53.42,0,0,1,2.38-7.85,47.19,47.19,0,0,1,3.74-6.69,34.32,34.32,0,0,1,3.59-5,19.08,19.08,0,0,1,4.85-4.25l.21.2c.63.58,1.23,1.21,1.83,1.83a10.55,10.55,0,0,1,1.46,2.51c.47.79,1.06,1.47,1.5,2.3a34.7,34.7,0,0,1,2,4.26A28.59,28.59,0,0,1,159.71,156.68Z" transform="translate(-88.14 -118.06)"/><path class="cls-3" d="M124.9,135.84a21.7,21.7,0,0,0-8,1.12,17.67,17.67,0,0,0-1.64.71c-1.7.84-3.23,2-4.87,3a19.13,19.13,0,0,0-5.19,4.45,35.09,35.09,0,0,0-3.59,5,47.12,47.12,0,0,0-3.73,6.69,53.45,53.45,0,0,0-2.39,7.85,48.76,48.76,0,0,0-1.59,8.48c-.48,9.84,5.3,18.64,13.45,23.7A33.43,33.43,0,0,0,120.3,201c5.45.69,11,1.47,16.36-.15a23.84,23.84,0,0,0,5.14-2.53c1.16-.65,2.37-1.09,3.51-1.8a12.56,12.56,0,0,0,1.51-1.16c.7-.62,1.35-1.27,2.08-1.9a27.3,27.3,0,0,0,3.24-2.92c5.18-6.3,7.65-14.58,7.86-22.67.09-3.63.35-7.6-.29-11.18a28.59,28.59,0,0,0-1-4.76,34.7,34.7,0,0,0-2-4.26c-.44-.83-1-1.51-1.5-2.3a10.55,10.55,0,0,0-1.46-2.51c-.6-.62-1.2-1.25-1.83-1.83l-.21-.2a31.86,31.86,0,0,0-3.15-2.92,24.77,24.77,0,0,0-7-3.08c-1.41-.46-2.88-.35-4.29-.72a14.51,14.51,0,0,0-4.22-.47c-1.54,0-3.2-.17-4.73,0-1.1.1-2.22.45-3.31.66s-2.3.35-3.45.52a10.11,10.11,0,0,0-4.59,2.17c-1.48,1.14-2.83,2.53-4.22,3.68" transform="translate(-88.14 -118.06)"/><path class="cls-3" d="M166.47,135.84a21.67,21.67,0,0,0-8,1.12,17.67,17.67,0,0,0-1.64.71c-1.7.84-3.24,2-4.88,3l-.33.2a19.08,19.08,0,0,0-4.85,4.25,34.32,34.32,0,0,0-3.59,5,47.19,47.19,0,0,0-3.74,6.69,53.42,53.42,0,0,0-2.38,7.85,47.84,47.84,0,0,0-1.59,8.48c-.45,9,4.3,17.05,11.31,22.25.69.51,1.4,1,2.13,1.45A33.49,33.49,0,0,0,161.86,201c5.46.69,11,1.47,16.36-.15a23.91,23.91,0,0,0,5.15-2.53c1.16-.65,2.37-1.09,3.5-1.8a31.8,31.8,0,0,0,3.6-3.06,27.2,27.2,0,0,0,3.23-2.92c5.18-6.3,7.66-14.58,7.86-22.67.1-3.63.36-7.6-.28-11.18a30.76,30.76,0,0,0-1-4.76,34.76,34.76,0,0,0-2.05-4.26c-.44-.83-1-1.51-1.49-2.3a10.89,10.89,0,0,0-1.46-2.51c-.6-.62-1.2-1.25-1.83-1.83a38.08,38.08,0,0,0-3.37-3.12,24.77,24.77,0,0,0-7-3.08c-1.4-.46-2.87-.35-4.28-.72a14.51,14.51,0,0,0-4.22-.47c-1.54,0-3.2-.17-4.74,0-1.09.1-2.22.45-3.3.66s-2.3.35-3.46.52a10.08,10.08,0,0,0-4.58,2.17c-1.49,1.14-2.83,2.53-4.23,3.68" transform="translate(-88.14 -118.06)"/></g><path class="cls-4" d="M89.81,136q2.19-4.2,4.43-8.38A92.93,92.93,0,0,1,99,119.41L97.28,119c0,1.69.11,3.39.18,5.07l.22,5.08a40.09,40.09,0,0,0,.29,4.38c.18,1.21.6,3,1.83,3.58a.8.8,0,0,0,1.17-.89,16.24,16.24,0,0,0-.73-1.59,7.29,7.29,0,0,1-.42-1.79c-.19-1.42-.18-2.87-.25-4.3l-.22-4.7c-.08-1.61-.09-3.23-.27-4.83-.09-.81-1.23-1.34-1.68-.45-1.43,2.82-3.12,5.5-4.67,8.25s-3,5.53-4.49,8.35c-.52,1,1,1.93,1.57.89Z" transform="translate(-88.14 -118.06)"/><path class="cls-4" d="M92.21,131.22c1,.05,2,.06,3,0l1.43-.07.76-.06c.27,0,.55,0,.73-.26a.41.41,0,0,0,0-.57c-.38-.33-1-.13-1.49-.09s-.95.06-1.42.07c-1,0-2,0-3,0-.65,0-.65,1,0,1Z" transform="translate(-88.14 -118.06)"/><path class="cls-4" d="M204.38,119.16c-.28,1.43-.66,2.83-1,4.25s-.61,2.84-.92,4.27-.59,2.76-.86,4.15c-.14.74-.26,1.48-.39,2.22a5.61,5.61,0,0,0-.11,2.12.69.69,0,0,0,1.26.17,5.44,5.44,0,0,0,.66-1.94c.16-.69.32-1.38.46-2.07.3-1.42.55-2.86.82-4.29s.54-2.78.76-4.18.42-2.9.7-4.33c.18-.9-1.2-1.27-1.38-.37Z" transform="translate(-88.14 -118.06)"/><path class="cls-4" d="M205.07,120.5a7.23,7.23,0,0,1,3.11.88c.62.34,1.77,1,1.51,1.85s-1.42,1.44-2.15,1.83a27.36,27.36,0,0,1-3.11,1.32.68.68,0,0,0,.34,1.31,9.15,9.15,0,0,1,2.81-.13,10.88,10.88,0,0,1,2.44.66c1.42.57,2.75,1.77,2,3.41a4.7,4.7,0,0,1-2.95,2.23,8.68,8.68,0,0,1-2.44.3,10.52,10.52,0,0,0-2.69,0,.67.67,0,0,0-.16,1.21,7.5,7.5,0,0,0,3.3.45,9.29,9.29,0,0,0,3-.45,5.42,5.42,0,0,0,3.63-3.72c.44-2-.87-3.64-2.67-4.38a11.53,11.53,0,0,0-2.9-.73,18.19,18.19,0,0,0-3.46-.22l.17,1.33a23.16,23.16,0,0,0,4.12-1.61c1.16-.63,2.39-1.54,2.45-3a3.56,3.56,0,0,0-2.06-3,8.74,8.74,0,0,0-4.2-1.15.77.77,0,0,0,0,1.54Z" transform="translate(-88.14 -118.06)"/><path class="cls-2" d="M129.06,238c1.14-2.59,2.28-5.18,3.4-7.77.54-1.26,1.07-2.53,1.65-3.78s1.28-2.6,1.82-3.94h-1.76c.33,2.49.73,5,1.12,7.45l.57,3.66a15,15,0,0,0,.8,3.7c.35.83,1.47.31,1.53-.4a14.72,14.72,0,0,0-.42-3.67l-.6-3.78c-.4-2.47-.79-4.95-1.24-7.42a.92.92,0,0,0-1.67-.22c-.58,1.23-1,2.53-1.54,3.79s-1.13,2.63-1.7,3.94c-1.12,2.55-2.22,5.11-3.32,7.68-.39.91,1,1.7,1.36.77Z" transform="translate(-88.14 -118.06)"/><path class="cls-2" d="M131.28,233.23a9.81,9.81,0,0,0,2.48-.07,4.22,4.22,0,0,0,1.1-.27,5.44,5.44,0,0,0,.66-.28,4.19,4.19,0,0,0,.59-.45.75.75,0,0,0-.53-1.27,4.89,4.89,0,0,0-.66.05c-.18,0-.36.08-.54.1-.36.06-.72.15-1.08.2-.09,0-.22,0-.06,0-.1,0-.21,0-.31,0s-.36,0-.54,0a10.14,10.14,0,0,1-1.1-.06,1,1,0,0,0-1,1,1,1,0,0,0,1,1Z" transform="translate(-88.14 -118.06)"/><path class="cls-2" d="M157.06,224.43c0,2.37,0,4.74-.13,7.11-.05,1.14-.12,2.28-.2,3.43-.08,1-.36,2.47.32,3.29a.51.51,0,0,0,.7,0c.78-.67.68-2.34.72-3.27,0-1.15.06-2.29.07-3.44,0-2.37,0-4.74-.17-7.11a.66.66,0,0,0-1.31,0Z" transform="translate(-88.14 -118.06)"/><path class="cls-2" d="M158,224.91c2.07.29,4.55.69,6.15,2.16,2,1.87-2.77,2.63-3.83,2.88s-.78,1.78.21,1.7a7.65,7.65,0,0,1,3.54.77,2.63,2.63,0,0,1,1.26.85c.26.46-.13.89-.45,1.19a7.94,7.94,0,0,1-2.65,1.69,32.18,32.18,0,0,1-3.19.77.73.73,0,0,0,0,1.4,7,7,0,0,0,4.28-.89,7.2,7.2,0,0,0,3.25-2.77c1.56-3.16-3.86-4.24-5.8-4.71l-.23,1.7a9.33,9.33,0,0,0,4.29-1.47c1.18-.74,1.9-2,1.16-3.34a5.56,5.56,0,0,0-3.44-2.24,20.6,20.6,0,0,0-4.43-.49c-.45,0-.57.73-.11.8Z" transform="translate(-88.14 -118.06)"/><path class="cls-4" d="M125.08,135.19c-3.9-.05-7.65.45-11.07,2.44-.89.52-1.74,1.09-2.61,1.64s-1.67,1-2.46,1.52a20.45,20.45,0,0,0-3.78,3.42,36.51,36.51,0,0,0-3.5,4.7c-1,1.68-2.14,3.37-3.1,5.11-2,3.66-3,7.73-3.93,11.75a46.58,46.58,0,0,0-1.23,6.31,23.28,23.28,0,0,0,.09,5.21,26.06,26.06,0,0,0,3.07,9.32,29.39,29.39,0,0,0,15.19,13.2,47.75,47.75,0,0,0,11.34,2.4,36.92,36.92,0,0,0,12.54-.14,18.9,18.9,0,0,0,5.22-2.09c.85-.49,1.69-1,2.58-1.43a20,20,0,0,0,2.75-1.45c1.57-1,2.85-2.48,4.31-3.68a20.8,20.8,0,0,0,3.86-4.09,38.54,38.54,0,0,0,6.74-20.86,57.48,57.48,0,0,0-.31-12.16,24.82,24.82,0,0,0-1.5-5.93,36.11,36.11,0,0,0-2.89-5.15c-.44-.67-.7-1.42-1.11-2.11a11.46,11.46,0,0,0-2-2.21,33.08,33.08,0,0,0-4.42-4,22.21,22.21,0,0,0-5.28-2.44,17.15,17.15,0,0,0-2.9-.83c-1-.17-2-.2-3-.43a26.56,26.56,0,0,0-5.7-.48c-1,0-2-.07-3.06,0a16.92,16.92,0,0,0-3,.55c-1.86.47-3.87.48-5.69,1.09a13,13,0,0,0-4.26,2.57c-1.22,1.05-2.25,2.3-3.48,3.32-.53.44.21,1.17.72.75q1.83-1.51,3.67-3a11.42,11.42,0,0,1,4-2.3,19.77,19.77,0,0,1,2.65-.43q1.49-.19,2.94-.51a13.59,13.59,0,0,1,2.77-.38c.94,0,1.89,0,2.84.08s1.89,0,2.84.1a23.06,23.06,0,0,1,2.58.51c1,.2,2,.22,2.94.4a17.73,17.73,0,0,1,2.66.81,18.53,18.53,0,0,1,5,2.4,17.47,17.47,0,0,1,2,1.83c.69.68,1.4,1.35,2.08,2a7.36,7.36,0,0,1,1.58,1.94,14.12,14.12,0,0,0,1.22,2.18,27.15,27.15,0,0,1,2.67,4.95,24.31,24.31,0,0,1,1.26,5.6,34,34,0,0,1,.34,5.79,69.33,69.33,0,0,1-.73,11,36.42,36.42,0,0,1-3.2,10,31.16,31.16,0,0,1-2.71,4.51,19.26,19.26,0,0,1-3.56,3.71,45.48,45.48,0,0,1-4.1,3.51,29.37,29.37,0,0,1-2.68,1.37c-.81.4-1.59.87-2.38,1.32a16.63,16.63,0,0,1-5,2,25,25,0,0,1-5.92.51,57.3,57.3,0,0,1-6-.47c-1.84-.22-3.68-.44-5.5-.82a29.46,29.46,0,0,1-9.85-3.74,30.36,30.36,0,0,1-7.08-6.2A24,24,0,0,1,94.93,172,44.76,44.76,0,0,1,96.12,166c.46-1.95.92-3.89,1.52-5.81a30.94,30.94,0,0,1,2.21-5.48c.92-1.68,2-3.31,3-4.93A26.27,26.27,0,0,1,109.7,142c.76-.53,1.59-1,2.38-1.48s1.59-1,2.4-1.53a17.09,17.09,0,0,1,5.18-2.07,26.67,26.67,0,0,1,5.35-.46c.81,0,.9-1.22.07-1.23Z" transform="translate(-88.14 -118.06)"/><path class="cls-4" d="M166.64,135.19c-3.9-.05-7.64.45-11.06,2.44-.89.52-1.74,1.09-2.61,1.64s-1.67,1-2.47,1.52a20.39,20.39,0,0,0-3.77,3.42,35.61,35.61,0,0,0-3.5,4.7c-1.06,1.68-2.15,3.37-3.1,5.11-2,3.66-3,7.73-3.94,11.75a46.58,46.58,0,0,0-1.23,6.31,23.89,23.89,0,0,0,.09,5.21,25.88,25.88,0,0,0,3.08,9.32,29.35,29.35,0,0,0,15.19,13.2,47.67,47.67,0,0,0,11.33,2.4,36.92,36.92,0,0,0,12.54-.14,18.77,18.77,0,0,0,5.22-2.09c.85-.49,1.7-1,2.59-1.43a20.5,20.5,0,0,0,2.74-1.45c1.57-1,2.85-2.48,4.31-3.68a20.85,20.85,0,0,0,3.87-4.09,38.62,38.62,0,0,0,6.73-20.86,57.48,57.48,0,0,0-.3-12.16,25.32,25.32,0,0,0-1.51-5.93,35.16,35.16,0,0,0-2.89-5.15c-.44-.67-.7-1.42-1.1-2.11a11.18,11.18,0,0,0-2-2.21,33.08,33.08,0,0,0-4.42-4,22,22,0,0,0-5.27-2.44,17.7,17.7,0,0,0-2.9-.83c-1-.17-2-.2-3-.43a26.52,26.52,0,0,0-5.69-.48c-1,0-2.05-.07-3.07,0a16.81,16.81,0,0,0-3,.55c-1.87.47-3.87.48-5.7,1.09a13,13,0,0,0-4.26,2.57c-1.21,1.05-2.25,2.3-3.48,3.32-.53.44.21,1.17.73.75,1.21-1,2.44-2,3.67-3a11.33,11.33,0,0,1,4-2.3,19.51,19.51,0,0,1,2.65-.43q1.47-.19,2.94-.51a13.59,13.59,0,0,1,2.76-.38c.95,0,1.9,0,2.84.08s1.9,0,2.84.1a22.2,22.2,0,0,1,2.58.51c1,.2,2,.22,3,.4a18,18,0,0,1,2.65.81,18.59,18.59,0,0,1,5,2.4,17.38,17.38,0,0,1,2,1.83c.69.68,1.4,1.35,2.09,2a7.32,7.32,0,0,1,1.57,1.94,16,16,0,0,0,1.22,2.18,26,26,0,0,1,2.67,4.95,24.86,24.86,0,0,1,1.27,5.6,34,34,0,0,1,.34,5.79,68.18,68.18,0,0,1-.74,11,36.74,36.74,0,0,1-3.19,10,32.08,32.08,0,0,1-2.71,4.51,19.31,19.31,0,0,1-3.57,3.71,45.36,45.36,0,0,1-4.09,3.51,29.37,29.37,0,0,1-2.68,1.37c-.82.4-1.59.87-2.38,1.32a16.84,16.84,0,0,1-5,2,25.12,25.12,0,0,1-5.93.51,57.3,57.3,0,0,1-6-.47c-1.84-.22-3.68-.44-5.49-.82a29.59,29.59,0,0,1-9.86-3.74,30.11,30.11,0,0,1-7.07-6.2A24,24,0,0,1,136.49,172a46.35,46.35,0,0,1,1.19-6.06c.47-1.95.93-3.89,1.53-5.81a30.2,30.2,0,0,1,2.21-5.48c.91-1.68,2-3.31,3-4.93a26.24,26.24,0,0,1,6.87-7.77c.77-.53,1.59-1,2.38-1.48s1.59-1,2.41-1.53a16.89,16.89,0,0,1,5.18-2.07,26.61,26.61,0,0,1,5.35-.46c.81,0,.89-1.22.06-1.23Z" transform="translate(-88.14 -118.06)"/><path class="cls-2" d="M143.61,236.44c-.16-1.49-.41-3.24.41-4.58a3.19,3.19,0,0,1,3.37-1.32,4,4,0,0,1,1.89.89,2.75,2.75,0,0,1,.87,1.69c.26,1.6-.5,3.42.32,4.9a.8.8,0,0,0,1.45-.19,12.78,12.78,0,0,0,.22-2.48,11.76,11.76,0,0,0,0-2.14,4.89,4.89,0,0,0-2.26-3.77,5.75,5.75,0,0,0-4.46-.76,4.6,4.6,0,0,0-3.17,2.82,10,10,0,0,0-.25,5.14c.13.91,1.7.72,1.6-.2Z" transform="translate(-88.14 -118.06)"/><path class="cls-2" d="M146.21,201.08c-.3,3.67-.58,7.3-.55,11q0,2.72.12,5.43a22.47,22.47,0,0,0,.58,5.49c.19.65,1.32.79,1.43,0a28.34,28.34,0,0,0,0-5.37c-.08-1.85-.12-3.7-.14-5.55,0-3.65-.13-7.33,0-11,0-.92-1.35-.91-1.42,0Z" transform="translate(-88.14 -118.06)"/><path class="cls-2" d="M145.2,201.07l-1,1-.49.46a2,2,0,0,0-.25.25,1.47,1.47,0,0,0-.38.66.94.94,0,0,0,.16.78.88.88,0,0,0,.71.36l.27,0a1.75,1.75,0,0,0,.28-.13l.14-.08a2.56,2.56,0,0,0,.44-.36l.53-.5,1-1a1,1,0,0,0,.29-.69,1,1,0,0,0-1.71-.71Z" transform="translate(-88.14 -118.06)"/><path class="cls-2" d="M146.71,202.6a16.36,16.36,0,0,0,1.11,1.24c.19.19.39.38.6.56a2.29,2.29,0,0,0,.59.43l.47.16a.83.83,0,0,0,.87-.3.82.82,0,0,0,.06-.91l-.18-.35a2.39,2.39,0,0,0-.44-.46l-.59-.56a16,16,0,0,1-1.09-1.23,1,1,0,0,0-.7-.29,1,1,0,0,0-.71.3,1,1,0,0,0-.29.69l0,.26a1,1,0,0,0,.27.46Z" transform="translate(-88.14 -118.06)"/></svg>