<svg id="Layer_1" data-name="Layer 1" xmlns="http://www.w3.org/2000/svg" viewBox="0 0 233.03 162.37"><defs><style>.cls-1{fill:#fd46fc;}.cls-2{fill:#486afb;}</style></defs><path class="cls-1" d="M43.43,165.17c.7-.7,1.39-1.39,2.07-2.11.36-.38.71-.76,1.06-1.15l.49-.57a2,2,0,0,0,.22-.29,1.76,1.76,0,0,0,.14-.23,1.24,1.24,0,0,0,0-.16q.06-.15,0-.06a.63.63,0,0,0-.46-.83.65.65,0,0,0-.77.57v0a.59.59,0,0,0,.7.64h0l-.37-1.2-.17.06a1.82,1.82,0,0,0-.23.15,3.07,3.07,0,0,0-.25.26l-.57.62-.24.27h0l-.06.06-.11.11-.51.55c-.67.71-1.35,1.39-2,2.08a.79.79,0,1,0,1,1.21Z" transform="translate(-32.07 -72.96)"/><path class="cls-1" d="M46.56,162.17a9.78,9.78,0,0,0,1.55,2.55,6,6,0,0,0,1.28,1c.58.34,1.39.73,2,.34a.82.82,0,0,0,.43-.62.75.75,0,0,0-.31-.67c-.06,0-.06,0,0,0l-.13-.11a1.11,1.11,0,0,0-.31-.15l-.29-.11-.18-.07s-.23-.06,0,0a2,2,0,0,1-.28-.16c-.19-.12-.38-.25-.56-.39l-.14-.11h0l-.22-.23A4.78,4.78,0,0,1,49,163a1,1,0,0,0-.08-.11c-.11-.17.11.18,0,0l-.16-.28c-.22-.38-.4-.78-.59-1.18A.89.89,0,0,0,47,161a.92.92,0,0,0-.46,1.19Z" transform="translate(-32.07 -72.96)"/><path class="cls-1" d="M47.79,160.41a10.88,10.88,0,0,0,0-2.21c0-.72-.06-1.44-.12-2.16s-.11-1.32-.2-2a2.58,2.58,0,0,0-.74-1.75c-.28-.25-.69,0-.81.26a1.42,1.42,0,0,0,0,.84,6.2,6.2,0,0,1,0,.86c0,.65,0,1.29.06,1.93s0,1.34,0,2a9.46,9.46,0,0,1,0,2.06.88.88,0,0,0,.8,1,.93.93,0,0,0,1-.82Z" transform="translate(-32.07 -72.96)"/><path class="cls-1" d="M42.41,156.27c.54.38,1,.83,1.56,1.26a9.37,9.37,0,0,0,.79.57c.19.11.39.21.6.31a1.36,1.36,0,0,0,.63.11.75.75,0,0,0,.7-.39.72.72,0,0,0-.08-.78,2,2,0,0,0-.45-.43l-.39-.28c-.27-.19-.53-.41-.79-.62-.51-.42-1-.86-1.54-1.24a.91.91,0,0,0-1,1.49Z" transform="translate(-32.07 -72.96)"/><path class="cls-1" d="M48.8,157.89c.56-.37,1.12-.73,1.67-1.11a8.15,8.15,0,0,0,.76-.55,3.26,3.26,0,0,0,.46-.45,1,1,0,0,0,.13-.16A1,1,0,0,0,52,155a.73.73,0,0,0-.67-.62,1,1,0,0,0-.67.2l-.21.14.19-.12c-.51.32-1,.69-1.5,1s-1,.63-1.44,1a.94.94,0,0,0-.32.61.89.89,0,0,0,.2.65.94.94,0,0,0,.61.32,1,1,0,0,0,.66-.22Z" transform="translate(-32.07 -72.96)"/><path class="cls-1" d="M45.13,148.27a4,4,0,0,0-.89,1.32,3.46,3.46,0,0,0-.11,1.69,2.62,2.62,0,0,0,2.28,2.21,3.44,3.44,0,0,0,2.78-1.12,3.51,3.51,0,0,0,.87-1.44,2,2,0,0,0-.35-1.76,3,3,0,0,0-1.73-.93,5.65,5.65,0,0,0-1-.17h-.57a2.56,2.56,0,0,0-.67.13.5.5,0,0,0,0,.92c.28.07.56.11.85.16s.44.11.65.16l.56.16.32.12.1,0,.11.06.13.09c.09.07,0,0,0,0l.13.15s0,.11,0,0a.54.54,0,0,0,0,.11c.08.14,0-.12,0,0s0,.07,0,.11,0-.1,0,0a.68.68,0,0,0,0,.14c0,.09.06-.15,0,0l-.11.26c.06-.14,0,0-.06.09a2.73,2.73,0,0,1-.21.3l-.08.09c.11-.13,0,0,0,0l-.19.18-.22.18-.09.06-.1.07.05,0a4.44,4.44,0,0,1-.49.24l-.11,0c-.18.07.15,0,0,0a2.3,2.3,0,0,1-.28.06l-.14,0s-.16,0,0,0l-.28,0h-.11c.12,0,0,0,0,0a1.73,1.73,0,0,1-.32-.11c.11,0-.09-.07-.12-.09l-.12-.09c.08.07,0,0,0,0a1.38,1.38,0,0,1-.32-.49,2.3,2.3,0,0,1-.1-1.26s0-.16.07-.24a1.56,1.56,0,0,1,.1-.22,4,4,0,0,1,.39-.51.53.53,0,0,0,.07-.72.51.51,0,0,0-.72,0Z" transform="translate(-32.07 -72.96)"/><path class="cls-1" d="M60.93,165.26l0,.19a.6.6,0,0,0,.84.43,10.87,10.87,0,0,0,1.94-1.65c.74-.66,1.45-1.34,2.17-2s1.37-1.22,2-1.87,1.42-1.33,1.46-2.24a.53.53,0,0,0-.87-.45c-.62.49-1.17,1.09-1.75,1.62s-1.32,1.21-2,1.84-1.31,1.29-2,1.95c-.32.33-.64.66-.94,1a8.18,8.18,0,0,1-.74.82l.93.2-.09-.16a.57.57,0,0,0-1.07.33Z" transform="translate(-32.07 -72.96)"/><path class="cls-1" d="M67.65,160.6c.38,1.05.72,2.11,1.13,3.14a7.79,7.79,0,0,0,1.7,2.95.69.69,0,0,0,1.15-.73c-.32-1-.83-2-1.23-3s-.74-2.06-1.1-3.09a.9.9,0,0,0-1.19-.43.93.93,0,0,0-.46,1.19Z" transform="translate(-32.07 -72.96)"/><path class="cls-1" d="M66.89,150.83c.08,1.4.15,2.79.26,4.19a14.17,14.17,0,0,0,.59,4,.55.55,0,0,0,1-.19c0-2.76-.2-5.5-.41-8.25a.74.74,0,0,0-.86-.6.78.78,0,0,0-.62.86Z" transform="translate(-32.07 -72.96)"/><path class="cls-1" d="M66.39,153.78s-.13,0,0,0l-.17,0-.38-.1-.69-.22-.32-.13-.15-.07-.12-.06-.09,0-.15-.08-.33-.2c-.89-.57-1.63-1.36-2.56-1.85a.71.71,0,0,0-.81,0,.68.68,0,0,0-.19.8,4.82,4.82,0,0,0,1.13,1.41A9.34,9.34,0,0,0,63,154.37a9.7,9.7,0,0,0,3.24,1.21.9.9,0,0,0,.17-1.8Z" transform="translate(-32.07 -72.96)"/><path class="cls-1" d="M68.47,155.58c1.12-.66,2.27-1.27,3.36-2a8.46,8.46,0,0,0,2.84-2.51.5.5,0,0,0-.62-.73c-1.07.54-2.06,1.25-3.1,1.84s-2.14,1.18-3.19,1.81a.89.89,0,0,0-.43,1.14.86.86,0,0,0,1.14.42Z" transform="translate(-32.07 -72.96)"/><path class="cls-1" d="M65.33,146.15a4.48,4.48,0,0,0-.58,2.64,1.77,1.77,0,0,0,1,1.22,2.54,2.54,0,0,0,1.61.07,5.41,5.41,0,0,0,1.5-.65,3.7,3.7,0,0,0,1.26-1.13,2.29,2.29,0,0,0,.4-1.7,2.23,2.23,0,0,0-1.16-1.44,4,4,0,0,0-2.32-.44,3.92,3.92,0,0,0-2.07,1,.52.52,0,0,0,.55.86l.75-.32.32-.13.09,0L67,146a1.71,1.71,0,0,1,.64,0l.2,0,.1,0a2.4,2.4,0,0,1,.38.12l.19.07c.19.08-.1-.06.08,0l.27.17s.16.16.05,0l.11.13,0,0,0,0s0,.13.08.15,0-.16,0,0l0,.14c0,.16,0-.15,0,0s0,.1,0,.14.05-.11,0,0,0,.08,0,.12a.78.78,0,0,1,0,.14c0,.08,0,.06,0,0a.41.41,0,0,0-.05.09,1.77,1.77,0,0,1-.16.22.69.69,0,0,1-.11.13l0,.05c-.06.06,0,0,0,0s-.16.16-.19.19l-.22.19a3.89,3.89,0,0,1-.47.34l.07,0-.1.05-.15.09-.32.16-.29.12s-.2.06,0,0l-.16,0-.26,0-.15,0h-.1l-.24,0c.13,0,0,0,0,0l-.14-.05c-.14-.06.06.05-.07,0l-.12-.09c-.12-.08,0,0,0,0l-.1-.12c-.08-.11,0,.07,0-.05a.61.61,0,0,1-.07-.17c0,.06,0-.09,0-.08a.59.59,0,0,1,0-.14,2.36,2.36,0,0,1,0-.59,6.16,6.16,0,0,1,.36-1.23.27.27,0,0,0-.51-.18Z" transform="translate(-32.07 -72.96)"/><path class="cls-1" d="M82.82,166.32c.92-1.62,1.75-3.29,2.75-4.86a27.41,27.41,0,0,1,1.59-2.24,7.18,7.18,0,0,0,1.47-2.38c.1-.39-.35-.78-.69-.47-2.78,2.53-4.33,6-6.13,9.26-.38.69.62,1.39,1,.69Z" transform="translate(-32.07 -72.96)"/><path class="cls-1" d="M87.09,157.9c.51,1.46,1,2.93,1.58,4.38a16,16,0,0,0,2.16,4.13c.5.63,1.38,0,1.14-.71-.52-1.44-1.2-2.81-1.77-4.22s-1.07-2.85-1.58-4.29a.82.82,0,0,0-1.1-.4.86.86,0,0,0-.43,1.11Z" transform="translate(-32.07 -72.96)"/><path class="cls-1" d="M87,149.83c.22,1.54.41,3.08.48,4.63,0,.76,0,1.52,0,2.28s-.11,1.5-.06,2.24a.63.63,0,0,0,1.13.24,4.85,4.85,0,0,0,.49-2.35c0-.8,0-1.61,0-2.4a42.36,42.36,0,0,0-.66-4.88.68.68,0,0,0-1.33.24Z" transform="translate(-32.07 -72.96)"/><path class="cls-1" d="M87.53,154.39A5.6,5.6,0,0,1,87,154c-.1-.09-.07,0,0,0l-.11-.11-.2-.21c-.3-.32-.6-.66-.89-1a11.49,11.49,0,0,0-.88-1c-.34-.31-.69-.6-1-.91s-.91.11-.8.52a4.47,4.47,0,0,0,.68,1.32L84,153l0,.09c0-.1,0,.08,0,.09.15.24.3.48.46.72a7,7,0,0,0,1.94,2,.92.92,0,0,0,1.25-.24.9.9,0,0,0-.22-1.25Z" transform="translate(-32.07 -72.96)"/><path class="cls-1" d="M88.67,155.7l1.82-1.62a10.9,10.9,0,0,0,1.74-1.85.62.62,0,0,0-.77-.92,7.92,7.92,0,0,0-2.12,1.41l-1.82,1.61a.89.89,0,1,0,1.15,1.37Z" transform="translate(-32.07 -72.96)"/><path class="cls-1" d="M84.79,145.93a5.46,5.46,0,0,0,0,2.38,2.15,2.15,0,0,0,2.5,1.11,3.77,3.77,0,0,0,2.69-2,2.2,2.2,0,0,0,.24-1.6A2,2,0,0,0,89,144.57a4.77,4.77,0,0,0-2.12-.24c-.32,0-.64.06-1,.11s-.62.13-.94.22a.6.6,0,0,0,0,1.19,7.68,7.68,0,0,0,1.59,0l.35,0h.23a6.28,6.28,0,0,1,.75,0s.23,0,.07,0l.12,0a2.42,2.42,0,0,1,.35.12s.16.09,0,0l.12.08.11.08c-.09-.09-.11-.1,0,0l0,.05c.07.08,0,.09,0,0a.39.39,0,0,0,.06.11s0-.19,0-.07,0,.1,0,.13,0-.15,0-.07,0,.09,0,.13.05-.12,0,0,0,.11,0,.17a.88.88,0,0,1-.11.24c.12-.14,0,0,0,0l-.06.11-.17.24a.76.76,0,0,1-.11.14c-.06.08-.09.13,0,0a2.18,2.18,0,0,1-.49.42s-.09.09,0,0l-.15.08-.33.15c-.12,0,0,0,0,0l-.18,0-.3.05h-.18l-.32,0c.18,0,0,0-.09,0s0,0,0,0l-.08-.05-.08-.06s.11.13,0,0l-.06-.07,0-.06c.05.08.06.11,0,.06a2,2,0,0,0-.1-.21s0-.13,0,0c0,0,0-.09,0-.14s0-.17,0-.25,0-.08,0-.11,0-.19,0-.11,0-.05,0-.06v-.16a2.44,2.44,0,0,1,0-.27c0-.18,0-.37,0-.55a.55.55,0,0,0-.49-.59.56.56,0,0,0-.59.5Z" transform="translate(-32.07 -72.96)"/><path class="cls-1" d="M106.23,156.22c-1,1.59-2,3.2-3,4.82-.48.77-.94,1.55-1.45,2.31s-1.35,2-.34,2.52a.72.72,0,0,0,.82-.05c.32-.26.36-.66.57-1s.46-.7.68-1c.45-.71.86-1.45,1.29-2.18.89-1.52,1.78-3,2.71-4.54.5-.82-.7-1.65-1.23-.83Z" transform="translate(-32.07 -72.96)"/><path class="cls-1" d="M105.92,157.49c.69,1.83,1.47,3.62,2.29,5.39.41.89.82,1.78,1.25,2.66a7.41,7.41,0,0,0,1.22,2,.5.5,0,0,0,.79,0c.48-.74.07-1.71-.24-2.43-.4-.91-.85-1.79-1.27-2.69-.87-1.86-1.71-3.74-2.43-5.66-.41-1.06-2-.3-1.61.75Z" transform="translate(-32.07 -72.96)"/><path class="cls-1" d="M105.3,144.13c.12,2.35.24,4.7.33,7.05s-.07,4.74.71,6.95a.7.7,0,0,0,1.31-.24c0-2.33-.22-4.68-.32-7s-.25-4.7-.39-7a.83.83,0,0,0-1-.67.86.86,0,0,0-.68,1Z" transform="translate(-32.07 -72.96)"/><path class="cls-1" d="M101.26,146.93a22.88,22.88,0,0,0,2.35,3.2c.4.44.82.85,1.24,1.28.19.19.39.38.56.58a4.94,4.94,0,0,0,.61.68.61.61,0,0,0,.94-.45,2.42,2.42,0,0,0-.76-1.73c-.41-.44-.87-.83-1.28-1.27a23.34,23.34,0,0,1-2.48-3,.69.69,0,0,0-.9-.13.71.71,0,0,0-.28.88Z" transform="translate(-32.07 -72.96)"/><path class="cls-1" d="M107.66,151.41c.88-.78,1.77-1.55,2.7-2.27a26.49,26.49,0,0,0,2.76-2.3.6.6,0,0,0,.13-.77.59.59,0,0,0-.74-.21,25.73,25.73,0,0,0-3.24,1.91c-1,.71-1.87,1.48-2.76,2.27a.89.89,0,1,0,1.15,1.37Z" transform="translate(-32.07 -72.96)"/><path class="cls-1" d="M103.48,140.32a4.18,4.18,0,0,0,.19,2.35,2.36,2.36,0,0,0,2.59,1.18,3.7,3.7,0,0,0,2.51-1.7,2.29,2.29,0,0,0,.36-1.94,1.91,1.91,0,0,0-1.22-1.15,4.69,4.69,0,0,0-2-.21,6.22,6.22,0,0,0-.93.21c-.41.12-.58.2-1,.36a.64.64,0,0,0,0,1.19,2.67,2.67,0,0,0,.89.09c.23,0,.46-.07.69-.11a5.16,5.16,0,0,1,.67-.1s.21,0,.07,0a.38.38,0,0,1,.15,0,2.6,2.6,0,0,1,.4,0l.16,0c-.13,0,0,0,0,0l.25.07.22.09c.1,0-.16-.12,0,0l0,0h0l0,0,.08.08c.09.1-.06,0,0,0s0,.12,0,.11,0,0,0,0,0-.09,0,0,0-.09,0,0l-.14.33c0,.11.06-.1,0,0l-.08.12a1.37,1.37,0,0,1-.13.2,1,1,0,0,1-.16.19c.15-.1,0-.05,0,0l-.11.11-.22.18-.1.07c-.06,0-.12.13,0,0a1.9,1.9,0,0,1-.52.24c.16-.07,0,0-.1,0l-.28,0c-.11,0,.17,0,0,0h-.12l-.13,0s-.21,0-.06,0l-.22-.07-.09,0c.15.07,0,0,0,0l-.09-.06s-.05-.08,0,0l0,0a.46.46,0,0,1-.07-.07.31.31,0,0,0-.07-.09c-.07-.07.08.15,0,0l-.06-.1-.09-.23c0-.09,0,.16,0,0s0-.08,0-.12,0-.17,0-.25,0-.18,0-.26a.57.57,0,0,0,0-.13c0,.09,0,0,0,0s0-.35,0-.53a.58.58,0,0,0-.53-.63.61.61,0,0,0-.65.54Z" transform="translate(-32.07 -72.96)"/><path class="cls-2" d="M64.78,180.8a4.66,4.66,0,0,0-2.21.44A1.57,1.57,0,0,0,62,183.6c.33.4.7.75,1,1.18a1.37,1.37,0,0,1,.32,1.21,1.4,1.4,0,0,1-.29.46.58.58,0,0,1-.41.18h-.08c-.09,0-.09-.05,0,0-.08-.06-.09-.07,0,0-.19-.15-.36-.32-.56-.45a.6.6,0,0,0-.91.58,1.58,1.58,0,0,0,2,1.52,2.57,2.57,0,0,0,1.88-2.18,3.26,3.26,0,0,0-1.31-2.62l-.45-.43c-.09-.09-.23-.2-.25-.3a.46.46,0,0,1,.07-.26c0,.09.09-.1.05-.06s0,0,0,0l.09-.08a.57.57,0,0,1,.15-.09l.21-.09a2.45,2.45,0,0,1,.43-.11,7.46,7.46,0,0,1,.95-.11c.62,0,.6-1.12,0-1.1Z" transform="translate(-32.07 -72.96)"/><path class="cls-2" d="M70,183.84c-.45-.89-1.41-1.88-2.49-1.33a3.67,3.67,0,0,0-1.6,2.7,2.59,2.59,0,0,0,1.44,2.94,2.69,2.69,0,0,0,3-1.63,2.9,2.9,0,0,0,.22-1.81,4.44,4.44,0,0,0-.16-.6l0-.1s0-.06,0,0,0,0,0-.11a.61.61,0,0,0-.26-.33.56.56,0,0,0-.86.55c.06.45.09.89.15,1.34a1.89,1.89,0,0,0,.5,1.26,1.57,1.57,0,0,0,1.06.38,2.75,2.75,0,0,0,1.1-.24.62.62,0,0,0,0-1.14,3,3,0,0,0-.43-.09,2.57,2.57,0,0,0-.48,0c.15,0-.07,0-.08,0h-.16c-.07,0,.09,0,0,0l0,0c-.09-.05,0,0,0,0a1.84,1.84,0,0,0-.06-.18c0-.15-.09-.31-.13-.47-.08-.35-.17-.69-.26-1l-.74.61a.28.28,0,0,1-.11-.08c-.05,0,0,0,0,0a.6.6,0,0,1,0,.11,1.87,1.87,0,0,1,0,.34c0-.2,0,.06,0,.11a1.42,1.42,0,0,1,0,.2,1.85,1.85,0,0,1-.2.47l-.16.23s-.08.1,0,.05-.06,0-.07.06a3.67,3.67,0,0,1-.43.37c-.11.08.09-.06,0,0l-.11.07-.26.12c-.08,0,0,0,0,0l-.15,0-.12,0c-.07,0-.15,0,0,0h-.14c.08,0,.1,0,0,0s-.08,0-.09,0,.08.06,0,0-.19-.16-.08-.05c-.07-.07-.12-.14-.18-.21.09.11,0-.06,0-.1s-.1-.23-.08-.17a2.27,2.27,0,0,1-.1-.58,3.34,3.34,0,0,1,.46-1.95c.23-.35.51-.49.89-.28a2.5,2.5,0,0,1,.9.9c.18.28.64,0,.49-.31Z" transform="translate(-32.07 -72.96)"/><path class="cls-2" d="M74,186.74a4.73,4.73,0,0,1,.21-2.42c.08-.18.26-.52.47-.57s.39.32.46.49a4.8,4.8,0,0,1,.19,1.77c0,.8.35,1.75,1.31,1.69a.77.77,0,0,0,.62-.86,13.07,13.07,0,0,1-.13-2.34,1.46,1.46,0,0,1,.21-.84s.3-.23.1-.14.19,0,.23,0c-.29.06.1.1.17.16a1,1,0,0,1,.19.41c.07.19.15.37.21.57.11.43.16.88.28,1.31a4.28,4.28,0,0,0,.49,1.17,3.45,3.45,0,0,0,.41.59,2.19,2.19,0,0,0,.69.44c.54.27,1.12-.44.87-.94a3.59,3.59,0,0,0-.44-.7,2.86,2.86,0,0,1-.3-.41,6.1,6.1,0,0,1-.48-1.42,5.73,5.73,0,0,0-.62-1.49,1.66,1.66,0,0,0-1.18-.82l.31.11a1.32,1.32,0,0,0-1.53.19,2.8,2.8,0,0,0-.68,1.18,6.78,6.78,0,0,0-.2,1.34c0,.25,0,.5,0,.75a2.91,2.91,0,0,1,0,.78l.58-.49h-.05l.38,0c.23.09.15.11.06,0,0,.08-.07-.16-.07-.17a3,3,0,0,1-.1-.5,7,7,0,0,0-.25-1.12c-.2-.65-.65-1.48-1.42-1.51s-1.13.61-1.36,1.15a6.92,6.92,0,0,0-.34,2.67.38.38,0,1,0,.76,0Z" transform="translate(-32.07 -72.96)"/><path class="cls-2" d="M81.63,184a23.73,23.73,0,0,1,.11,4.13c0,.68-.13,1.37-.18,2.06s-.23,1.33.23,1.75a.82.82,0,0,0,.87.24.8.8,0,0,0,.58-.7c0-.44,0-1,.06-1.59s.1-1.34.1-2a21.18,21.18,0,0,0-.32-4.13.74.74,0,0,0-1.45.25Z" transform="translate(-32.07 -72.96)"/><path class="cls-2" d="M82.54,184.43a1.94,1.94,0,0,1,1.43-.54l.42,0a1.35,1.35,0,0,1,.27.07l.15.06.06,0s-.07-.05,0,0l.26.18c-.1-.07,0,0,0,0l.09.13c-.07-.1,0,0,0,0a.64.64,0,0,1,0,.07c0,.11,0-.06,0,0a.86.86,0,0,0,0,.17c0-.12,0,0,0,.08a1.37,1.37,0,0,1,0,.19s0,.09,0,0,0,.05,0,.07a.7.7,0,0,1-.06.17l0,.07c0,.1,0,0,0,0a3.11,3.11,0,0,1-.2.3s-.05.06-.07.07l0,0-.13.12-.14.12-.07,0s-.14.08,0,0,0,0,0,0l-.12.07-.23.11-.24.1-.09,0c.11,0,0,0,0,0-.42.11-.88.19-1.07.62a.44.44,0,0,0,.16.52,2.18,2.18,0,0,0,1.21.14,2.89,2.89,0,0,0,1.11-.35,2.71,2.71,0,0,0,1.29-1.81,2,2,0,0,0-.63-1.9A2.5,2.5,0,0,0,84.3,183a3.42,3.42,0,0,0-2.25.83c-.37.34.12.93.49.59Z" transform="translate(-32.07 -72.96)"/><path class="cls-2" d="M87.41,180.32a21.34,21.34,0,0,1,.18,3.39c0,.57-.06,1.13-.09,1.69a2.78,2.78,0,0,0,.23,2,.7.7,0,0,0,1.11-.06,3.33,3.33,0,0,0,.28-1.91c0-.59,0-1.17,0-1.76a21.39,21.39,0,0,0-.36-3.57.7.7,0,0,0-1.37.25Z" transform="translate(-32.07 -72.96)"/><path class="cls-2" d="M92,185.34a14,14,0,0,0,2.32.45,2.93,2.93,0,0,0,2-.43,1.24,1.24,0,0,0,.49-1.62,2.1,2.1,0,0,0-1.35-.9,4,4,0,0,0-1.88-.14,3.16,3.16,0,0,0-1.82,1.05,2.89,2.89,0,0,0-.27,3.75,3.94,3.94,0,0,0,2.45,1c.43.05.86.05,1.29.07a6.57,6.57,0,0,0,.77,0c.23,0,.45-.09.67-.13a.71.71,0,0,0,0-1.41,7.19,7.19,0,0,0-.92-.1h-1a4.48,4.48,0,0,1-1.54-.24l-.4-.16c-.17-.08,0,0,0,0-.17-.11.06.09-.06-.06a.43.43,0,0,1-.09-.1s-.13-.21,0-.05a1.94,1.94,0,0,1-.13-.3c0,.15,0-.05,0-.08s0-.08,0-.13,0,.12,0-.08c0,0,0-.1,0-.14a2,2,0,0,1,0-.35c0,.09,0,0,0,0l.09-.27a2,2,0,0,1,.74-1,1.67,1.67,0,0,1,1.34-.31,3.48,3.48,0,0,1,1.06.35l.1.07.08.06s.06.08.06.07,0,0,0,0,0,.07,0,.05,0,0,0,.08c0-.06-.08.06-.08.06s0,0,0,0l-.23.1s-.1,0,0,0l-.26.05a4.72,4.72,0,0,1-.92,0,11.59,11.59,0,0,1-2-.3.57.57,0,0,0-.69.34.54.54,0,0,0,.32.69Z" transform="translate(-32.07 -72.96)"/><path class="cls-2" d="M152,74.55c0,1.12,0,2.25,0,3.37s.06,2.25,0,3.36-.48,2.25-.62,3.39a26.16,26.16,0,0,0-.11,3.31,51.41,51.41,0,0,1-.54,6.67,49.63,49.63,0,0,0-.44,6.68c0,4.52-.41,9-.15,13.54s.57,9.22.78,13.84.52,9.25.53,13.9-.07,9.34-.09,14c0,9.3-.05,18.61-.23,27.92,0,2.34-.12,4.68-.22,7s.18,4.52.24,6.79c.11,4.44-.35,8.95.18,13.37a18.3,18.3,0,0,0,.7,3.12c.24.77,1.4.32,1.31-.41a97.78,97.78,0,0,1-.41-13.26c0-2.24-.11-4.46-.25-6.7s.06-4.61.11-6.91c.2-9.25,0-18.52-.07-27.77s.24-18.51-.32-27.74c-.28-4.58-.35-9.17-.64-13.75-.15-2.31-.3-4.61-.29-6.92s.24-4.47.34-6.71,0-4.47.17-6.7.55-4.45.74-6.68-.1-4.44.13-6.65c.11-1.09.34-2.17.42-3.27s0-2.24,0-3.36,0-2.25,0-3.37c0-.77-1.19-.87-1.2-.1Z" transform="translate(-32.07 -72.96)"/><path class="cls-2" d="M153.52,216.75a42,42,0,0,0,5.26,0c1.75,0,3.5.14,5.24,0s3.6-.32,5.41-.4,3.53-.19,5.3-.38c3.56-.37,7.14-.05,10.71-.19s7.06-.22,10.6-.27,7.2-.11,10.79-.37,7.28-.42,10.93-.47c7.17-.11,14.34-.08,21.51,0,2,0,4,.13,6,.25s4,.12,6,.22c4,.2,8.1.83,12.11.45a.77.77,0,0,0,0-1.52c-7.2-.42-14.4-.8-21.61-1-3.49-.1-7,0-10.48,0s-7.26,0-10.89.07c-7.17.08-14.31.78-21.48.92-3.62.08-7.24.08-10.86.21-1.79.06-3.57.15-5.36.15s-3.56,0-5.33,0c-1.93.06-3.83.33-5.75.45s-4.07.14-6.1.35a57.18,57.18,0,0,1-5.86.16,57.19,57.19,0,0,1-6,0,.61.61,0,0,0-.11,1.22Z" transform="translate(-32.07 -72.96)"/><path class="cls-2" d="M260.66,73.6a38,38,0,0,0-.29,6.74,10.5,10.5,0,0,0,.19,1.37,4.28,4.28,0,0,1,0,1.71c-.2,1.12-.29,2.25-.39,3.38a138,138,0,0,0-.43,14.09c0,2.32,0,4.64-.05,7s.14,4.53.25,6.8.05,4.63.21,6.93.32,4.69.4,7c.14,4.64.07,9.29.08,13.93,0,2.34,0,4.67.05,7a49.05,49.05,0,0,1-.16,6.75c-.13,1.11-.32,2.2-.43,3.31a31.29,31.29,0,0,0-.09,3.49c0,2.3-.12,4.6-.23,6.89-.24,4.64-.14,9.29-.15,13.93,0,9.4.25,18.8.68,28.19.06,1.16.11,2.32.19,3.49.05.72,1.19.63,1.25-.06a123.21,123.21,0,0,0-.13-14c-.18-4.71-.25-9.42-.26-14.13s-.05-9.34,0-14c0-2.28.15-4.56.24-6.84s-.09-4.66.12-7,.58-4.42.6-6.67-.08-4.52-.08-6.78c0-4.69,0-9.39,0-14.08,0-2.29-.1-4.58-.23-6.86s-.37-4.68-.43-7-.21-4.55-.33-6.83,0-4.66,0-7c0-4.67-.08-9.37.17-14a55.51,55.51,0,0,1,.57-6.82,5.55,5.55,0,0,0,.13-1.46c0-.51-.18-1-.24-1.49a25.12,25.12,0,0,1,0-3.47c.05-1.14.15-2.28.31-3.41.13-.93-1.32-1-1.45-.11Z" transform="translate(-32.07 -72.96)"/><path class="cls-2" d="M153.53,75.12c14.49,0,29,.09,43.47.09s28.81.1,43.22.2c4.08,0,8.16,0,12.24,0s8.14.08,12.17-.27c.66,0,.6-1.08,0-1.13-3.63-.31-7.32-.25-11-.26H242.87c-7.21,0-14.42.08-21.62.12Q199.62,74,178,74c-8.13,0-16.25.06-24.37.06-.66,0-.78,1-.1,1Z" transform="translate(-32.07 -72.96)"/><path class="cls-2" d="M185.63,223.87a32.37,32.37,0,0,1,0,5.74c-.07.91-.09,1.82-.14,2.73s-.34,1.65.23,2.33a.84.84,0,0,0,1.17,0,.82.82,0,0,0,0-1.15l0,0a.7.7,0,0,0-.7-.18l0,0,1,.57a2.32,2.32,0,0,1,0-.83c.05-.43.06-.86.07-1.28,0-.86.09-1.7.15-2.55a32.82,32.82,0,0,0-.06-5.34.86.86,0,0,0-.84-.84.89.89,0,0,0-.88.85Z" transform="translate(-32.07 -72.96)"/><path class="cls-2" d="M186.07,224.19a3,3,0,0,1,.71-1.66,2.11,2.11,0,0,1,1.3-.37,5.28,5.28,0,0,1,.56,0l.3,0s-.1,0,0,0l.21,0,.29.07.14.05c-.12,0,0,0,0,0l.22.12c-.14-.09,0,0,0,0a1.14,1.14,0,0,1,.11.11c-.12-.14,0,.07.06.12-.11-.21,0,.23,0,0a2,2,0,0,1,0,.35c0-.15,0,.07,0,.08l-.06.21a.52.52,0,0,1-.06.16c0,.13.09-.15,0,.05a3.3,3.3,0,0,1-.18.32,3.37,3.37,0,0,1-.21.31c.08-.1,0,0,0,0s-.13.16-.2.23a24.5,24.5,0,0,1-2,1.73,3,3,0,0,1-.4.33s.17-.12,0,0l-.15.1a1.82,1.82,0,0,1-.23.15l-.12.07c-.12.08.17-.05,0,0l-.1,0c-.15.06.16,0,.05,0a.55.55,0,0,1,.25.07c-.05,0-.19-.12,0,0l-.05,0,0,0c-.12-.15-.14-.17-.06-.08a.57.57,0,0,0-1,0,1.63,1.63,0,0,0-.11.23c.07-.17,0,0,0,.12a.93.93,0,0,0,0,.57,1,1,0,0,0,.88.57,2.35,2.35,0,0,0,1.35-.53,16.57,16.57,0,0,0,2.32-1.94c.95-1,1.87-2.42,1.23-3.8-.5-1.08-1.93-1.21-3-1.08a4.09,4.09,0,0,0-2,.68,3.77,3.77,0,0,0-1.07,2.33.4.4,0,0,0,.78.19Z" transform="translate(-32.07 -72.96)"/><path class="cls-2" d="M192.86,222.93l-.32.3a1,1,0,0,0-.33.55,3,3,0,0,0-.14.95,2.79,2.79,0,0,0,.79,1.62,2.93,2.93,0,0,0,1.46.87,2.64,2.64,0,0,0,.93,0c.21,0-.15,0,0,0l.3,0a1.59,1.59,0,0,0,.57-.31,1.3,1.3,0,0,0,.28-.34c.08-.16-.13.13,0,0s.14-.17.2-.26a2.08,2.08,0,0,0,.37-.78,2.8,2.8,0,0,0-.09-1.62,3.53,3.53,0,0,0-2.05-2,3.1,3.1,0,0,0-1.67-.28,1.33,1.33,0,0,0-1.15,1.32.62.62,0,0,0,1.06.42s.11-.07,0,0l0,0a1.33,1.33,0,0,0,.19-.14c.09-.09,0,0-.06,0s.07,0,.09-.05-.2.08-.07,0l.1,0c.14-.06.13-.06,0,0l.07,0c.13,0-.2,0,0,0h.19c.12,0-.07,0-.08,0l.13,0a3.17,3.17,0,0,1,.41.12l.19.06c.15.06-.15-.06-.06,0l.1,0,.48.24.17.11c.15.1-.14-.11,0,0a.46.46,0,0,0,.07.07l.17.15.08.09,0,.06,0-.07s.09.14.12.18a.75.75,0,0,0,.1.2c-.06,0-.06-.17,0,0a.56.56,0,0,1,0,.12,2.21,2.21,0,0,0,.05.25c-.05-.15,0-.09,0,0v.14s0,.08,0,.12,0,0,0,0a1,1,0,0,1-.07.28c-.05.15,0,0,0,0s-.06.12-.07.15a.44.44,0,0,0-.08.11c-.06.1.13-.14,0,0a1,1,0,0,0-.16.21l-.08.18c0-.09,0-.12,0-.07s.15-.13,0,0,.17-.12.06,0,.06,0,.07,0-.06,0,.06,0h-.15a1.89,1.89,0,0,1-.23.05s.17,0,0,0h-.12s-.2,0-.08,0-.07,0-.07,0l-.12,0c-.17,0,.09,0,0,0l-.17-.08a1.53,1.53,0,0,0-.27-.17c.1,0,.08.07,0,0l-.13-.12a2.89,2.89,0,0,1-.24-.25s.09.12,0,0l-.09-.15-.06-.1a.47.47,0,0,1-.05-.1c0,.07,0,.09,0,0a1.63,1.63,0,0,1-.07-.3s0,.13,0,0c0,.06,0,.06,0,0l0-.11c0-.14.06-.29.08-.43l-.18.3.44-.4a.68.68,0,0,0,0-1,.71.71,0,0,0-1,0Z" transform="translate(-32.07 -72.96)"/><path class="cls-2" d="M198.13,225a40,40,0,0,1,.23,4.77c0,.77,0,1.53-.05,2.3a16,16,0,0,0,0,2.49.76.76,0,0,0,.56.72l0,0a.59.59,0,0,0,.57-1l0,0a.54.54,0,0,0-.74,0l0,0,.55.95,0,0a.83.83,0,0,0,.58-.74,54.15,54.15,0,0,0-.08-10,.79.79,0,0,0-1-.56.84.84,0,0,0-.6,1Z" transform="translate(-32.07 -72.96)"/><path class="cls-2" d="M199,224.12a2.48,2.48,0,0,1,.38-.74A1.53,1.53,0,0,1,200,223a2.49,2.49,0,0,1,.38-.08h.3c.11,0-.09,0,0,0l.08,0,.17,0c-.11,0,0,0,0,0l.09.06c-.05,0-.06-.06,0,0l.13.12s.06.09,0,0l0,.05.09.17c0,.07,0,0,0,0s0,.09,0,.14a3.45,3.45,0,0,1,.09.44,4.07,4.07,0,0,1,0,.48s0,.19,0,.17,0,.05,0,.05l0,.15a1.72,1.72,0,0,1-.07.21.49.49,0,0,1,0,.11c0,.11,0-.08,0,0a2.83,2.83,0,0,1-.54.79,3,3,0,0,1-.85.59c-.34.16-.67.27-.82.64s.21.51.47.46a7.68,7.68,0,0,0,.94-.18,4.07,4.07,0,0,0,1.33-.71,3.37,3.37,0,0,0,1.13-2.45,2.76,2.76,0,0,0-1-2.37,2.4,2.4,0,0,0-2.18-.17,3.16,3.16,0,0,0-1.79,2.12.56.56,0,0,0,.4.69.6.6,0,0,0,.72-.41Z" transform="translate(-32.07 -72.96)"/><path class="cls-2" d="M203.13,224a9.53,9.53,0,0,0,1.07,1.79,5.86,5.86,0,0,0,.59.63,1.65,1.65,0,0,0,1.12.57.86.86,0,0,0,.8-.6,1.65,1.65,0,0,0,.08-.59,1.35,1.35,0,0,0,0-.28c0-.12,0,0,0,0s0-.21,0-.26c0-.31,0-.62,0-.92,0-.1,0-.2,0-.3s0-.22,0-.35c0,0,0,.2,0,.09a.25.25,0,0,1,0-.08,1.93,1.93,0,0,1,0-.34s0,0,0-.07,0,.16,0,.07l0-.16c0-.18,0-.22,0-.11s0,0,0,0a.51.51,0,0,0-.22-.44.58.58,0,0,0-.49-.1,1.14,1.14,0,0,0-.78.81,2.84,2.84,0,0,0-.15.87,8.23,8.23,0,0,0,0,.86,4.91,4.91,0,0,0,.06.67l0,.11c0,.15,0,0,0,0s0,.08,0,.1,0-.17,0,0l.8-.6c-.11,0,.08,0,.09,0s.12.07.07,0l-.15-.08c-.08,0,.14.11,0,0l-.06,0-.13-.13c-.09-.09-.18-.17-.26-.26a1.29,1.29,0,0,1-.16-.17c0-.05-.17-.24,0-.05-.15-.24-.31-.46-.45-.7s-.28-.54-.42-.8a.76.76,0,0,0-1-.27.79.79,0,0,0-.3,1Z" transform="translate(-32.07 -72.96)"/><path class="cls-2" d="M207.43,220.79c.25,1.59.48,3.18.68,4.77.07.48.09.95.14,1.44s.24,1.24.86,1.36a.59.59,0,0,0,.71-.7c0,.15,0-.16,0-.23a2.93,2.93,0,0,1-.05-.29c0-.13,0-.4-.05-.58,0-.56-.1-1.11-.17-1.67-.21-1.5-.47-3-.76-4.46a.68.68,0,0,0-.83-.47.72.72,0,0,0-.51.83Z" transform="translate(-32.07 -72.96)"/><path class="cls-2" d="M214.34,222.65a7.46,7.46,0,0,0-1.14-.55,1.37,1.37,0,0,0-1.26.28,4.15,4.15,0,0,0-.41,4.37,1.62,1.62,0,0,0,1.24.67,1.83,1.83,0,0,0,1.24-.54,4.18,4.18,0,0,0,.81-1.19c.1-.19.19-.38.28-.58a2.88,2.88,0,0,0,.13-.31c0-.08,0,.07,0,.07s0-.06,0,0a.49.49,0,0,1-.31.21h-.37l-.56-.56c.08.31.1.64.16,1a2.32,2.32,0,0,0,.55,1.08,1.87,1.87,0,0,0,.89.49,2.46,2.46,0,0,0,1.08,0,.69.69,0,0,0,.33-1.15,2.7,2.7,0,0,0-.34-.25,2.35,2.35,0,0,0-.47-.15l-.14-.05-.07,0c.11,0,0,0-.07,0s-.06,0,0,0,0,0,0,0,0,.09,0,0-.09-.16,0-.05a2,2,0,0,1-.1-.37,5.82,5.82,0,0,0-.17-.83.84.84,0,0,0-.77-.59c-.59-.06-.9.49-1.06.95a1.45,1.45,0,0,1-.09.22c0-.07,0,0,0,0l-.06.15c-.09.17-.17.33-.27.49a2.46,2.46,0,0,1-.17.27c-.05.08-.06.09,0,0l-.1.11-.1.09h0l-.11.06c.1,0,.1-.05,0,0,.1,0,.11,0,0,0,.09,0,.1,0,0,0,.08,0,.08,0,0,0s0,0,0,0l-.1-.11c.07.09.07.09,0,0l-.06-.1c0,.08,0,.09,0,0a3.71,3.71,0,0,1-.1-.48c0,.16,0-.1,0-.13s0-.16,0-.23a3.75,3.75,0,0,1,.1-1.12,2.5,2.5,0,0,1,.09-.25c0,.13.05-.09.06-.12h0l.08-.09c-.07.05-.07.05,0,0s-.08,0,0,0c-.07,0-.06,0,0,0s0,0,.05,0l.23.07.56.29a.64.64,0,0,0,.83-.24.57.57,0,0,0-.21-.8Z" transform="translate(-32.07 -72.96)"/><path class="cls-2" d="M217.8,219.39c.19,1.33.29,2.68.48,4,.09.64.2,1.26.33,1.89a3.56,3.56,0,0,0,.7,1.78c.34.38,1,0,1-.42a7.49,7.49,0,0,0-.22-1.82c-.12-.63-.28-1.25-.38-1.88-.23-1.3-.37-2.61-.61-3.91a.66.66,0,0,0-.8-.46.69.69,0,0,0-.49.81Z" transform="translate(-32.07 -72.96)"/><path class="cls-2" d="M217,223.31c1,0,2,.06,3,0a16.85,16.85,0,0,0,3-.27.64.64,0,0,0,.47-.69.61.61,0,0,0-.61-.53c-1-.11-1.93-.1-2.9-.15s-1.94,0-2.9-.07a.88.88,0,0,0-.88.85.84.84,0,0,0,.84.83Z" transform="translate(-32.07 -72.96)"/><path class="cls-2" d="M223.89,224.9a8.62,8.62,0,0,0,.21,1c.05.16.1.32.16.48a2.77,2.77,0,0,0,.31.62.71.71,0,0,0,.78.31.75.75,0,0,0,.54-.67,5.32,5.32,0,0,0,0-.69c0-.16-.07-.33-.1-.49-.05-.34-.14-.68-.2-1a.81.81,0,0,0-.4-.51.89.89,0,0,0-.64-.08.9.9,0,0,0-.53.41.86.86,0,0,0-.09.63Z" transform="translate(-32.07 -72.96)"/><path class="cls-2" d="M225.07,221.86l0-.06-1.21,0a.52.52,0,0,0,.12.16l.14.11a.16.16,0,0,0,.09,0l.09,0h0l.18,0,.17,0,.18-.07a.61.61,0,0,0,.2-.19.38.38,0,0,0,.09-.15.49.49,0,0,0,.05-.16.54.54,0,0,0,0-.18.46.46,0,0,0-.08-.25l0,0a.68.68,0,0,0-.27-.26l-.16-.07h0a.73.73,0,0,0-.36,0,.84.84,0,0,0-.44.33.69.69,0,0,0-.09.34v.08l0,.17a.46.46,0,0,0,.12.23.34.34,0,0,0,.12.12.51.51,0,0,0,.23.12l.17,0,.18,0a.55.55,0,0,0,.24-.12.49.49,0,0,0,.18-.2Z" transform="translate(-32.07 -72.96)"/><path class="cls-2" d="M227.47,224.1a5.34,5.34,0,0,0,.16,1.69,2.82,2.82,0,0,0,3.48,1.73,2,2,0,0,0,1.44-2.34,3.5,3.5,0,0,0-1.83-2,6.21,6.21,0,0,0-1.13-.62,1.05,1.05,0,0,0-1.08.26,1.17,1.17,0,0,0-.28,1,.56.56,0,0,0,.54.41.78.78,0,0,0,.42-.11,1.35,1.35,0,0,0,.19-.16c.05,0,.12-.07,0,0,.14-.08-.27.06-.25.06-.16,0-.19,0-.09,0s-.19-.09-.09,0l.11.06c.23.14.45.31.68.45s.55.31.8.49-.12-.1,0,0l.09.08a1.29,1.29,0,0,1,.17.16s.18.2.09.08,0,0,0,0a.75.75,0,0,1,.07.12l0,.1c.06.09-.06-.21,0-.05a.29.29,0,0,1,0,.09v0c0,.09,0,.07,0-.07,0,0,0,.25,0,.09s0,0,0,0-.06.06,0-.05a1,1,0,0,0-.1.17s.14-.16.05-.08l-.07.07-.08.07c-.1.09.07,0,.07,0s-.14.09-.22.13l-.07,0c-.08,0-.17,0,0,0a1.15,1.15,0,0,1-.17.06l-.18,0c.2-.06.13,0,.05,0h-.11c-.2,0,.19,0,0,0l-.2-.06a.34.34,0,0,1-.12,0l0,0-.28-.14-.09-.06s-.2-.13-.1-.06l0,0-.11-.11-.07-.07c-.11-.11.1.15,0,0l-.06-.1s-.08-.22,0-.06c0-.12-.07-.24-.1-.36s0-.08,0-.12,0-.19,0-.06c0-.25,0-.51,0-.76a.71.71,0,0,0-.72-.71.77.77,0,0,0-.75.72Z" transform="translate(-32.07 -72.96)"/><path class="cls-2" d="M234.7,226.76a6.27,6.27,0,0,1,.27-2.07,2.72,2.72,0,0,1,.16-.38,2.3,2.3,0,0,1,.23-.4c-.08.12,0,0,.07-.07l.17-.16s.15-.12,0,0l.22-.14.18-.09c-.16.08,0,0,.08,0s.25,0,.08,0h.28c-.09,0,0,0,0,0s.18.06.07,0l.18.1-.05,0a.94.94,0,0,0,.1.1c.08.05-.05-.06,0-.06s0,.06.05.07l.09.17c.07.14,0-.12,0,0s.05.15.07.22.05.26.07.38l0,.21s0,.12,0,0,0,.06,0,.07c0,.43.08.87.11,1.3l.06.7a3.38,3.38,0,0,0,.16.78.68.68,0,0,0,.65.49.69.69,0,0,0,.66-.5,3.49,3.49,0,0,0,.11-.78c0-.24,0-.47,0-.7,0-.51-.07-1-.13-1.51a3.25,3.25,0,0,0-.76-2,2.2,2.2,0,0,0-2.42-.37,3.21,3.21,0,0,0-1.71,1.78,7.35,7.35,0,0,0-.47,2.94.68.68,0,0,0,.67.67.71.71,0,0,0,.7-.68Z" transform="translate(-32.07 -72.96)"/><path class="cls-2" d="M33.25,135.4a78.06,78.06,0,0,0-1.09,16.93c.3,5.67.73,11.33,1.38,17A81.68,81.68,0,0,0,35,178.9c.15.63,1.23.5,1.17-.16-.27-2.79-.74-5.56-1.07-8.34s-.6-5.67-.84-8.51-.44-5.57-.66-8.35a68.3,68.3,0,0,1-.27-8.34,84.88,84.88,0,0,1,1-9.55c.11-.66-.91-.91-1-.25Z" transform="translate(-32.07 -72.96)"/><path class="cls-2" d="M36.41,174.52c5.45.41,10.91.35,16.36.27s11-.29,16.56-.47q16.55-.54,33.09,0c6.22.2,12.43.86,18.65.77a.52.52,0,0,0,0-1c-5.53-.23-11-.79-16.55-1s-11.08-.29-16.62-.27c-11,0-22,.66-33,1a177.6,177.6,0,0,1-18.46-.08c-.56,0-.59.82,0,.86Z" transform="translate(-32.07 -72.96)"/><path class="cls-2" d="M118.34,134.2c-.69,10.27-.8,20.58-.62,30.87,0,2.94.12,5.87.33,8.8a.6.6,0,0,0,1.2,0c.1-5.16-.12-10.33-.19-15.5s-.07-10.25,0-15.38c.06-2.93.15-5.86.3-8.79,0-.68-1-.64-1.06,0Z" transform="translate(-32.07 -72.96)"/><path class="cls-2" d="M34.64,135.63c5.58-.41,11.17-.12,16.76-.06s11.27.13,16.9.16c11.28.06,22.56,0,33.83-.13,6.39,0,12.79,0,19.17-.25a.49.49,0,0,0,0-1c-5.63-.23-11.29-.11-16.92-.09s-11.28.09-16.92.15c-11.28.13-22.55.24-33.83.18-6.33,0-12.67-.48-19-.07-.7,0-.74,1.14,0,1.09Z" transform="translate(-32.07 -72.96)"/><path class="cls-2" d="M180.23,142.49a58.79,58.79,0,0,0-.38,9.09,48.2,48.2,0,0,0,1.15,9,.54.54,0,0,0,1.06-.15c-.18-3-.92-5.94-1.13-8.94a62.5,62.5,0,0,1,.2-9c0-.58-.85-.54-.9,0Z" transform="translate(-32.07 -72.96)"/><path class="cls-2" d="M181.85,160.3c3.86-.16,7.71-.22,11.57-.24h5.73c1.94,0,3.91.07,5.85-.09a.42.42,0,0,0,0-.83c-1.9-.16-3.82-.09-5.73-.08s-3.9,0-5.85.06c-3.86.07-7.72.18-11.57.36-.53,0-.56.84,0,.82Z" transform="translate(-32.07 -72.96)"/><path class="cls-2" d="M205.23,158.77a57.56,57.56,0,0,1-.87-9.08c-.08-2.8,0-5.83-1.05-8.47a.34.34,0,0,0-.65.17,27.74,27.74,0,0,1,.72,4.25c.11,1.51.13,3,.17,4.55a55,55,0,0,0,.9,8.79c.09.51.88.29.78-.21Z" transform="translate(-32.07 -72.96)"/><path class="cls-2" d="M181.3,143.25c1.94,0,3.85,0,5.79-.12s3.88-.25,5.83-.33,3.88-.2,5.82-.34a51,51,0,0,0,5.68-.4c.6-.11.42-.9-.11-1a27.51,27.51,0,0,0-5.79.34c-1.9.19-3.8.32-5.71.42-3.84.2-7.65.67-11.5.67a.36.36,0,0,0,0,.72Z" transform="translate(-32.07 -72.96)"/><path class="cls-2" d="M180.19,142.3c-.5,0-1,0-1.49,0s-.79-.11-1.19-.11a8.08,8.08,0,0,1-1.39.05,11,11,0,0,0-1.41-.12c-1,0-1.9-.18-2.84-.24s-2.12-.12-3.18-.17a107.7,107.7,0,0,1-12.29-1.24c-3.94-.67-7.91-1.11-11.82-1.91-.93-.19-1.82-.5-2.75-.64s-2-.22-2.94-.44c-2-.44-4-.87-5.93-1.33-2.19-.52-4.4-.85-6.59-1.35a34.4,34.4,0,0,0-6.45-1c-.63,0-1,1-.37,1.27a13,13,0,0,0,2.8.66c1,.16,1.9.37,2.85.57s2,.47,3,.63,2,.33,3.06.57c2,.46,3.94.88,5.92,1.3a23.33,23.33,0,0,0,2.87.52c1,.1,1.95.18,2.92.36,4,.73,8.07.83,12.08,1.4s8,.93,12,1.19c2.32.15,4.63.21,6.94.47.52.06,1,0,1.57.07a6.49,6.49,0,0,0,1.46,0,25,25,0,0,1,3.24,0c.37,0,.39-.57,0-.56Z" transform="translate(-32.07 -72.96)"/><path class="cls-2" d="M180.9,159.88a22.31,22.31,0,0,1-3.22.81c-1,.1-1.91.31-2.87.5-2,.4-3.9,1.11-5.85,1.64s-4.08.84-6.09,1.39c-1,.27-1.93.55-2.94.74-.46.08-.91.24-1.37.31s-.91.1-1.36.18q-3.15.51-6.32.91a20.69,20.69,0,0,0-2.83.5c-1,.27-2,.4-3,.61-1.94.4-3.85,1-5.76,1.49s-4.08,1-6.11,1.47c-1.14.28-2.29.44-3.43.69s-2.35.51-3.53.72-2.31.39-3.45.65a13.24,13.24,0,0,0-3.34.92.72.72,0,0,0,.54,1.32c1-.28,2-.36,3-.58s2-.44,3.09-.62c2.08-.36,4.1-1,6.17-1.32s4-1,6.08-1.38a25.9,25.9,0,0,0,2.86-.82c1-.3,2-.49,2.94-.78s1.9-.5,2.86-.74,1.9-.56,2.87-.75,2-.45,3-.64l3.09-.58c1-.19,1.92-.35,2.87-.54s1.9-.39,2.8-.66c2-.59,3.93-1.06,5.93-1.51,1.16-.27,2.3-.6,3.45-.92s2.16-.68,3.25-.87,2.28-.5,3.45-.65a24.75,24.75,0,0,0,3.39-.86.33.33,0,0,0-.16-.63Z" transform="translate(-32.07 -72.96)"/><path class="cls-1" d="M182.4,154.52c.21-.2.41-.41.61-.62s.22-.23.32-.35l.15-.17.06-.08,0-.07s0,0,0,0,0,0,0,0a.2.2,0,0,0-.14-.25.2.2,0,0,0-.23.17h0a.18.18,0,0,0,.21.2h0l-.11-.35s0,0-.05,0l-.07.05a.27.27,0,0,0-.07.08l-.17.18-.08.08h0l0,0c-.05.05-.1.11-.16.16-.19.21-.4.42-.6.62a.23.23,0,1,0,.3.36Z" transform="translate(-32.07 -72.96)"/><path class="cls-1" d="M183.33,153.63a3.08,3.08,0,0,0,.46.76,1.85,1.85,0,0,0,.39.3.58.58,0,0,0,.6.1.22.22,0,0,0,0-.38h0l0,0-.09,0-.09,0,0,0s-.07,0,0,0l-.08-.05-.17-.11,0,0c-.05,0,0,0,0,0l-.07-.06-.11-.15,0,0c0-.05,0,.06,0,0l-.05-.08c-.07-.12-.12-.24-.18-.36a.28.28,0,0,0-.35-.13.28.28,0,0,0-.14.36Z" transform="translate(-32.07 -72.96)"/><path class="cls-1" d="M183.7,153.11a3.64,3.64,0,0,0,0-.66c0-.22,0-.43,0-.65s0-.39-.06-.59a.73.73,0,0,0-.22-.52c-.08-.08-.2,0-.24.08a.42.42,0,0,0,0,.25,2.09,2.09,0,0,1,0,.25c0,.2,0,.39,0,.58s0,.4,0,.6a2.49,2.49,0,0,1,0,.61.27.27,0,0,0,.24.29.28.28,0,0,0,.29-.24Z" transform="translate(-32.07 -72.96)"/><path class="cls-1" d="M182.09,151.87c.17.11.31.25.47.37a1.24,1.24,0,0,0,.23.17l.18.1a.42.42,0,0,0,.19,0,.21.21,0,0,0,.21-.12.21.21,0,0,0,0-.23.58.58,0,0,0-.14-.13l-.12-.08-.23-.18a5.32,5.32,0,0,0-.46-.37.26.26,0,0,0-.37.07.27.27,0,0,0,.06.37Z" transform="translate(-32.07 -72.96)"/><path class="cls-1" d="M184,152.35l.5-.33.22-.16a.62.62,0,0,0,.14-.14l0,0a.29.29,0,0,0,0-.2.22.22,0,0,0-.2-.19.28.28,0,0,0-.2.06l-.07,0,.06,0c-.15.09-.3.2-.45.3l-.42.29a.25.25,0,0,0-.1.18.31.31,0,0,0,.06.19.27.27,0,0,0,.18.1.29.29,0,0,0,.2-.07Z" transform="translate(-32.07 -72.96)"/><path class="cls-1" d="M182.91,149.48a1.18,1.18,0,0,0-.27.4,1.06,1.06,0,0,0,0,.5.77.77,0,0,0,.68.66,1.05,1.05,0,0,0,.83-.33,1.27,1.27,0,0,0,.26-.43.62.62,0,0,0-.11-.53.92.92,0,0,0-.51-.28l-.3-.05h-.17l-.2,0a.15.15,0,0,0,0,.28l.25,0,.19,0,.17,0,.09,0h0l0,0,0,0s0,0,0,0l0,0s0,0,0,0,0,0,0,0,0,0,0,0v0s0,0,0,0v0s0,0,0,0l0,.08s0,0,0,0a.27.27,0,0,1-.07.08l0,0s0,0,0,0l-.06.06a.18.18,0,0,1-.07,0l0,0,0,0s0,0,0,0l-.14.07,0,0s.05,0,0,0l-.08,0h0s0,0,0,0h-.11l-.1,0,0,0,0,0s0,0,0,0a.33.33,0,0,1-.1-.14.79.79,0,0,1,0-.38l0-.07,0-.06a1,1,0,0,1,.12-.16.16.16,0,0,0,0-.21.15.15,0,0,0-.21,0Z" transform="translate(-32.07 -72.96)"/><path class="cls-1" d="M187.62,154.55v.06a.18.18,0,0,0,.25.13,3.07,3.07,0,0,0,.58-.5c.22-.19.43-.4.65-.6s.41-.36.6-.56.42-.39.43-.67a.16.16,0,0,0-.26-.13c-.18.15-.35.33-.52.48l-.58.55-.58.58-.28.3a2.8,2.8,0,0,1-.22.25l.27.06,0-.05a.16.16,0,0,0-.31.1Z" transform="translate(-32.07 -72.96)"/><path class="cls-1" d="M189.62,153.16c.11.31.22.63.34.94a2.48,2.48,0,0,0,.5.88.21.21,0,0,0,.35-.22c-.1-.31-.25-.6-.37-.9s-.22-.62-.33-.92a.25.25,0,0,0-.35-.13.27.27,0,0,0-.14.35Z" transform="translate(-32.07 -72.96)"/><path class="cls-1" d="M189.39,150.25c0,.41.05.83.08,1.25a4,4,0,0,0,.18,1.19c0,.15.3.1.31-.06,0-.82-.06-1.64-.13-2.46a.21.21,0,0,0-.25-.18.24.24,0,0,0-.19.26Z" transform="translate(-32.07 -72.96)"/><path class="cls-1" d="M189.24,151.13h0l0,0-.11,0-.21-.07-.09,0-.05,0s-.06,0,0,0,0,0,0,0l0,0-.1-.06c-.27-.17-.49-.41-.77-.55a.19.19,0,0,0-.24,0,.2.2,0,0,0,0,.24,1.65,1.65,0,0,0,.33.42,2.81,2.81,0,0,0,.44.33,2.61,2.61,0,0,0,1,.36.27.27,0,1,0,.05-.53Z" transform="translate(-32.07 -72.96)"/><path class="cls-1" d="M189.86,151.66c.34-.19.68-.37,1-.58a2.53,2.53,0,0,0,.84-.75.15.15,0,0,0-.18-.22c-.32.16-.61.37-.93.55l-.95.54a.26.26,0,0,0-.13.34.25.25,0,0,0,.34.12Z" transform="translate(-32.07 -72.96)"/><path class="cls-1" d="M188.93,148.85a1.38,1.38,0,0,0-.18.79.51.51,0,0,0,.32.36.69.69,0,0,0,.47,0,1.49,1.49,0,0,0,.45-.19,1.12,1.12,0,0,0,.38-.34.6.6,0,0,0-.23-.93,1.26,1.26,0,0,0-.69-.14,1.22,1.22,0,0,0-.62.31.15.15,0,0,0,.17.25l.22-.09.09,0h0l.08,0a.61.61,0,0,1,.19,0h.06s.07,0,0,0a.53.53,0,0,1,.12,0l.05,0c.06,0,0,0,0,0l.08.06s.05,0,0,0l0,0h0s0,0,0,0,0,0,0,0v0s0-.05,0,0v0s0,0,0,0l0,0v0s0,0,0,0v0l-.05.06,0,0v0s0,0,0,0l-.06.05-.07.06s-.13.11-.14.1h0l0,0,0,0-.1.05-.08,0h-.06l-.08,0h0s0,0,0,0h-.1s0,0,0,0h-.06l0,0h0l0,0s0,0,0,0l0-.05s0,0,0,0a.06.06,0,0,0,0,0,1.09,1.09,0,0,1,0-.18,2.47,2.47,0,0,1,.11-.36.08.08,0,0,0-.15-.06Z" transform="translate(-32.07 -72.96)"/><path class="cls-1" d="M194.14,154.87c.28-.49.52-1,.82-1.45a8.12,8.12,0,0,1,.48-.67,2.28,2.28,0,0,0,.44-.71.13.13,0,0,0-.21-.14,10.29,10.29,0,0,0-1.83,2.76c-.11.21.19.41.3.21Z" transform="translate(-32.07 -72.96)"/><path class="cls-1" d="M195.42,152.35c.15.44.3.88.47,1.31a4.64,4.64,0,0,0,.64,1.23c.15.19.41,0,.34-.21-.15-.43-.36-.84-.53-1.26s-.32-.85-.47-1.28a.25.25,0,1,0-.45.21Z" transform="translate(-32.07 -72.96)"/><path class="cls-1" d="M195.38,150c.06.46.12.92.14,1.38,0,.23,0,.45,0,.68a5,5,0,0,0,0,.67.18.18,0,0,0,.33.07,1.33,1.33,0,0,0,.15-.7c0-.24,0-.48,0-.72a11.76,11.76,0,0,0-.2-1.45c0-.26-.43-.18-.39.07Z" transform="translate(-32.07 -72.96)"/><path class="cls-1" d="M195.55,151.31l-.15-.11s0,0,0,0l0,0-.06-.06a3.73,3.73,0,0,1-.26-.3c-.09-.09-.17-.2-.27-.29l-.3-.27c-.1-.08-.28,0-.24.16a1.11,1.11,0,0,0,.2.39l.05.08s0,.06,0,0,0,0,0,0l.14.21a2.07,2.07,0,0,0,.58.6.27.27,0,0,0,.31-.44Z" transform="translate(-32.07 -72.96)"/><path class="cls-1" d="M195.89,151.7l.54-.48a3.85,3.85,0,0,0,.52-.55.19.19,0,0,0-.23-.28,2.66,2.66,0,0,0-.63.42l-.54.48a.27.27,0,0,0,0,.38.28.28,0,0,0,.38,0Z" transform="translate(-32.07 -72.96)"/><path class="cls-1" d="M194.73,148.79a1.5,1.5,0,0,0,0,.7.62.62,0,0,0,.74.34,1.13,1.13,0,0,0,.8-.61.56.56,0,0,0-.3-.84,1.5,1.5,0,0,0-.63-.07l-.29,0-.28.07a.18.18,0,0,0,0,.35,1.55,1.55,0,0,0,.48,0h.45l.1,0s0,0,0,0l0,0,0,0s0,0,0,0h0s0,0,0,0,0,0,0,0,0-.06,0,0v0s0,0,0,0v0s0,0,0,0a.43.43,0,0,0,0,.05.25.25,0,0,1,0,.07s0,0,0,0l0,0-.05.07,0,0s0,0,0,0a.58.58,0,0,1-.14.13s0,0,0,0l0,0-.1,0s0,0,0,0l-.06,0h-.14s0,0,0,0h-.09c.05,0,0,0,0,0s0,0,0,0l0,0h0s0,0,0,0l0,0v0l0-.06s0,0,0,0v-.05s0,0,0-.07v0s0-.06,0,0,0,0,0,0v-.05s0-.06,0-.08v-.17a.16.16,0,0,0-.14-.17.17.17,0,0,0-.18.15Z" transform="translate(-32.07 -72.96)"/><path class="cls-1" d="M201.12,151.85q-.47.72-.9,1.44l-.44.69c-.12.19-.4.59-.1.75a.21.21,0,0,0,.25,0c.09-.08.1-.2.17-.3a3.28,3.28,0,0,1,.2-.31l.38-.65c.27-.46.53-.91.81-1.36.15-.24-.21-.49-.37-.25Z" transform="translate(-32.07 -72.96)"/><path class="cls-1" d="M201,152.23c.21.55.44,1.08.69,1.61.12.27.24.53.37.79a2.09,2.09,0,0,0,.36.61.16.16,0,0,0,.24,0c.14-.22,0-.5-.08-.72s-.25-.54-.37-.8c-.26-.56-.51-1.12-.73-1.69-.12-.31-.6-.09-.48.22Z" transform="translate(-32.07 -72.96)"/><path class="cls-1" d="M200.85,148.25c0,.71.07,1.41.09,2.12a7.05,7.05,0,0,0,.22,2c.06.19.39.13.39-.07,0-.69-.07-1.38-.1-2.07s-.07-1.41-.11-2.12c0-.32-.51-.22-.49.09Z" transform="translate(-32.07 -72.96)"/><path class="cls-1" d="M199.64,149.08a7.37,7.37,0,0,0,.7,1l.37.38c.06.06.12.11.17.17a1.24,1.24,0,0,0,.18.21.18.18,0,0,0,.28-.14.69.69,0,0,0-.23-.51l-.38-.38a7.17,7.17,0,0,1-.74-.91.21.21,0,0,0-.27,0,.22.22,0,0,0-.08.26Z" transform="translate(-32.07 -72.96)"/><path class="cls-1" d="M201.55,150.42c.26-.23.53-.46.81-.68a7.58,7.58,0,0,0,.82-.68.18.18,0,0,0,0-.23.18.18,0,0,0-.22-.07,8.5,8.5,0,0,0-1,.57c-.29.22-.56.45-.82.68a.27.27,0,1,0,.34.41Z" transform="translate(-32.07 -72.96)"/><path class="cls-1" d="M200.3,147.11a1.32,1.32,0,0,0,.06.71.72.72,0,0,0,.77.35,1.13,1.13,0,0,0,.75-.51.67.67,0,0,0,.11-.58.58.58,0,0,0-.36-.34,1.46,1.46,0,0,0-.89,0l-.3.1a.2.2,0,0,0,0,.36,1.15,1.15,0,0,0,.26,0l.21,0,.2,0s.06,0,0,0h.21s0,0,0,0l.08,0,.06,0s-.05,0,0,0h0v0l0,0h0l0,0c0-.05,0,0,0,0s0,0,0,0,0,0,0,0a1,1,0,0,0,0,.1s0,0,0,0l0,0,0,.06a.15.15,0,0,1,0,.06s0,0,0,0l0,0a.18.18,0,0,1-.07.05l0,0h0a.69.69,0,0,1-.15.07h-.21l-.07,0h0c.05,0,0,0,0,0l0,0s0,0,0,0h0l0,0,0,0s0,0,0,0l0,0,0-.07s0,.05,0,0v0s0-.05,0-.07v-.12s0,0,0,0a.86.86,0,0,1,0-.16.18.18,0,0,0-.16-.19.19.19,0,0,0-.2.16Z" transform="translate(-32.07 -72.96)"/><path class="cls-1" d="M170.56,97l.61-.63c.11-.12.22-.23.32-.35l.15-.17.06-.08a.25.25,0,0,0,0-.07s0,0,0,0,0,0,0,0a.19.19,0,0,0-.14-.24.19.19,0,0,0-.23.16v0a.18.18,0,0,0,.21.19h0l-.11-.36-.05,0-.07,0-.07.08-.17.18-.08.08s0,0,0,0l0,0,0,0-.16.17c-.19.21-.4.41-.6.61a.24.24,0,0,0,0,.34.24.24,0,0,0,.33,0Z" transform="translate(-32.07 -72.96)"/><path class="cls-1" d="M171.49,96.07a2.91,2.91,0,0,0,.46.76,2.31,2.31,0,0,0,.39.31c.17.1.41.22.6.1a.26.26,0,0,0,.13-.19.22.22,0,0,0-.09-.2s0,0,0,0,0,0,0,0l-.09,0-.09,0,0,0s-.07,0,0,0-.06,0-.08,0l-.17-.12,0,0h0l-.07-.07-.11-.15,0,0s0,0,0,0a.35.35,0,0,1-.05-.08l-.18-.35a.26.26,0,0,0-.35-.13.27.27,0,0,0-.14.35Z" transform="translate(-32.07 -72.96)"/><path class="cls-1" d="M171.86,95.55a3.64,3.64,0,0,0,0-.66c0-.22,0-.43,0-.65s0-.39-.06-.59a.73.73,0,0,0-.22-.52c-.08-.07-.2,0-.24.08a.42.42,0,0,0,0,.25c0,.08,0,.17,0,.26s0,.38,0,.57,0,.4,0,.6a2.57,2.57,0,0,1,0,.62.26.26,0,0,0,.24.28.28.28,0,0,0,.29-.24Z" transform="translate(-32.07 -72.96)"/><path class="cls-1" d="M170.25,94.31c.17.12.31.25.47.38l.23.17.18.09a.32.32,0,0,0,.19,0,.22.22,0,0,0,.21-.11.23.23,0,0,0,0-.24.55.55,0,0,0-.14-.12l-.11-.09a2.15,2.15,0,0,1-.24-.18,5.32,5.32,0,0,0-.46-.37.27.27,0,0,0-.31.44Z" transform="translate(-32.07 -72.96)"/><path class="cls-1" d="M172.16,94.8l.5-.33.23-.17a.8.8,0,0,0,.13-.13l0,0a.28.28,0,0,0,0-.2.23.23,0,0,0-.2-.19.34.34,0,0,0-.2.06l-.06,0,.05,0-.44.3-.43.29a.27.27,0,0,0-.1.18.34.34,0,0,0,.06.2.26.26,0,0,0,.18.09.34.34,0,0,0,.2-.06Z" transform="translate(-32.07 -72.96)"/><path class="cls-1" d="M171.07,91.93a.9.9,0,0,0-.3.89.77.77,0,0,0,.68.66,1,1,0,0,0,.83-.33,1.1,1.1,0,0,0,.26-.43.6.6,0,0,0-.11-.52.87.87,0,0,0-.51-.28,1.57,1.57,0,0,0-.3,0,.48.48,0,0,0-.17,0,.42.42,0,0,0-.2,0,.14.14,0,0,0,0,.27l.25,0,.19,0,.17,0,.1,0h0l0,0,0,0h0l0,0s0,0,0,0,0,0,0,0,0,0,0,0v0s0,0,0,0v0s0,0,0,0,0,.06,0,.08,0,0,0,0l-.07.09,0,0h0l-.06.05-.07.06h0l0,0s0,0,0,0l-.14.08h0s.05,0,0,0l-.08,0h-.16l-.1,0s0,0,0,0l0,0h0a.36.36,0,0,1-.1-.15.79.79,0,0,1,0-.38l0-.07a.33.33,0,0,0,0-.06l.12-.15a.16.16,0,0,0,0-.22.15.15,0,0,0-.21,0Z" transform="translate(-32.07 -72.96)"/><path class="cls-1" d="M166.22,155.1v.06a.18.18,0,0,0,.25.13,3.86,3.86,0,0,0,.58-.49l.64-.61c.2-.18.41-.36.6-.55s.43-.4.44-.67a.16.16,0,0,0-.26-.14c-.19.15-.35.33-.52.49s-.4.36-.59.55l-.58.58c-.09.1-.19.19-.28.3a2.5,2.5,0,0,1-.22.24l.28.06,0-.05a.17.17,0,0,0-.32.1Z" transform="translate(-32.07 -72.96)"/><path class="cls-1" d="M168.23,153.71c.11.32.21.63.33.94a2.29,2.29,0,0,0,.51.88.21.21,0,0,0,.34-.22c-.09-.31-.25-.6-.36-.9s-.22-.61-.33-.92a.28.28,0,0,0-.36-.13.27.27,0,0,0-.13.35Z" transform="translate(-32.07 -72.96)"/><path class="cls-1" d="M168,150.8c0,.42,0,.83.08,1.25a4.33,4.33,0,0,0,.17,1.19.16.16,0,0,0,.31-.06c0-.82-.06-1.64-.12-2.46a.23.23,0,0,0-.26-.18.23.23,0,0,0-.18.26Z" transform="translate(-32.07 -72.96)"/><path class="cls-1" d="M167.85,151.68s0,0,0,0h-.05l-.12,0-.2-.07-.1,0,0,0s-.07,0,0,0l0,0,0,0-.1-.06c-.26-.17-.49-.41-.76-.55a.21.21,0,0,0-.24,0,.2.2,0,0,0-.06.24,1.37,1.37,0,0,0,.34.42,2.79,2.79,0,0,0,.43.34,3.07,3.07,0,0,0,1,.36.28.28,0,0,0,.29-.25.27.27,0,0,0-.24-.29Z" transform="translate(-32.07 -72.96)"/><path class="cls-1" d="M168.47,152.22c.33-.2.68-.38,1-.59a2.66,2.66,0,0,0,.85-.75.15.15,0,0,0-.19-.22c-.31.16-.61.38-.92.55s-.64.35-1,.54a.27.27,0,0,0-.13.34.26.26,0,0,0,.34.13Z" transform="translate(-32.07 -72.96)"/><path class="cls-1" d="M167.53,149.41a1.35,1.35,0,0,0-.17.78.55.55,0,0,0,.31.37.79.79,0,0,0,.48,0,1.51,1.51,0,0,0,.45-.2,1.17,1.17,0,0,0,.37-.33.67.67,0,0,0,.12-.51.64.64,0,0,0-.34-.43,1.19,1.19,0,0,0-.69-.13,1.13,1.13,0,0,0-.62.3.15.15,0,0,0,.16.26l.23-.1.09,0h0l.08,0h.28l.11,0,.06,0h0l.08.05s0,0,0,0l0,0v0h0s0,0,0,0,0,0,0,0v0c0,.05,0,0,0,0v0c0,.05,0,0,0,0s0,0,0,0,0,0,0,0h0l0,0a.43.43,0,0,0,0,.07l0,0h0s0,0,0,0l-.06.06-.06,0s-.13.11-.14.1h0l0,0,0,0-.1,0-.09,0s-.06,0,0,0l-.05,0h-.22s0,0,0,0l0,0h0l0,0h0l0,0s0,0,0,0,0,0,0-.05,0,0,0,0,0,0,0,0a.49.49,0,0,1,0-.17,2.24,2.24,0,0,1,.1-.37c0-.1-.11-.15-.15-.05Z" transform="translate(-32.07 -72.96)"/><path class="cls-1" d="M186,130.18c.27-.48.52-1,.82-1.45a7.37,7.37,0,0,1,.47-.67,2.17,2.17,0,0,0,.44-.71.13.13,0,0,0-.21-.14,10.3,10.3,0,0,0-1.82,2.77c-.12.2.18.41.3.2Z" transform="translate(-32.07 -72.96)"/><path class="cls-1" d="M187.23,127.67c.15.44.3.87.47,1.3a4.73,4.73,0,0,0,.65,1.24c.14.18.41,0,.33-.22-.15-.42-.35-.83-.52-1.25s-.32-.85-.47-1.28a.24.24,0,0,0-.33-.12.25.25,0,0,0-.13.33Z" transform="translate(-32.07 -72.96)"/><path class="cls-1" d="M187.19,125.26c.06.46.12.92.14,1.39,0,.22,0,.45,0,.67a5,5,0,0,0,0,.67.19.19,0,0,0,.34.07,1.38,1.38,0,0,0,.14-.7c0-.24,0-.48,0-.71a11.92,11.92,0,0,0-.2-1.46.2.2,0,0,0-.39.07Z" transform="translate(-32.07 -72.96)"/><path class="cls-1" d="M187.36,126.62l-.14-.1s0,0,0,0l0,0-.06-.06-.26-.3c-.09-.1-.17-.2-.26-.29l-.31-.27a.15.15,0,0,0-.24.15,1.25,1.25,0,0,0,.2.4l.06.08s0,0,0,0,0,0,0,0,.09.14.14.21a2.21,2.21,0,0,0,.57.61.28.28,0,0,0,.38-.08.27.27,0,0,0-.07-.37Z" transform="translate(-32.07 -72.96)"/><path class="cls-1" d="M187.7,127l.54-.48a3,3,0,0,0,.52-.55.19.19,0,0,0-.23-.28,2.66,2.66,0,0,0-.63.42l-.54.48a.27.27,0,1,0,.34.41Z" transform="translate(-32.07 -72.96)"/><path class="cls-1" d="M186.54,124.1a1.7,1.7,0,0,0,0,.71.64.64,0,0,0,.75.33,1.14,1.14,0,0,0,.8-.6.68.68,0,0,0,.07-.48.62.62,0,0,0-.37-.37,1.52,1.52,0,0,0-.64-.07l-.29,0-.28.06a.18.18,0,0,0,0,.36,2.46,2.46,0,0,0,.47,0h.4s.07,0,0,0h0l.11,0h0l0,0,0,0s0,0,0,0v0s0,0,0,0,0,0,0,0,0-.06,0,0a.06.06,0,0,0,0,0s0,0,0,0v0c0,.05,0,0,0,0a.17.17,0,0,0,0,0,.49.49,0,0,1,0,.07s0,0,0,0l0,0a.18.18,0,0,1-.05.07l0,.05h0a.93.93,0,0,1-.15.13s0,0,0,0l-.05,0-.1,0s0,0,0,0H187s0,0,0,0h0l0,0s0,0,0,0l0,0v0s0,0,0,0,0-.05,0-.07,0,0,0,0v0s0,0,0-.08v-.21a.86.86,0,0,1,0-.16.17.17,0,0,0-.33,0Z" transform="translate(-32.07 -72.96)"/><path class="cls-1" d="M230,130.41c-.31.47-.61,1-.91,1.44-.14.23-.28.46-.43.68s-.4.6-.1.76a.21.21,0,0,0,.24,0c.1-.07.11-.19.17-.3s.14-.2.2-.31.26-.43.39-.65c.26-.45.53-.9.8-1.35a.22.22,0,0,0-.36-.25Z" transform="translate(-32.07 -72.96)"/><path class="cls-1" d="M229.94,130.79c.2.54.44,1.08.68,1.61.12.26.24.53.37.79a2.39,2.39,0,0,0,.36.6.15.15,0,0,0,.24,0c.14-.22,0-.51-.07-.72s-.25-.54-.38-.81c-.26-.55-.51-1.11-.72-1.68-.12-.32-.6-.09-.48.22Z" transform="translate(-32.07 -72.96)"/><path class="cls-1" d="M229.75,126.8c0,.71.07,1.42.1,2.12a6.75,6.75,0,0,0,.21,2.06.21.21,0,0,0,.39-.07c0-.69-.06-1.39-.09-2.08s-.08-1.41-.12-2.11c0-.32-.51-.23-.49.08Z" transform="translate(-32.07 -72.96)"/><path class="cls-1" d="M228.55,127.64a6.46,6.46,0,0,0,.7,1,4.44,4.44,0,0,0,.37.38l.16.18a1.8,1.8,0,0,0,.19.2c.1.09.26,0,.28-.13a.78.78,0,0,0-.23-.52l-.38-.38a7.08,7.08,0,0,1-.74-.9.2.2,0,0,0-.27,0,.2.2,0,0,0-.08.26Z" transform="translate(-32.07 -72.96)"/><path class="cls-1" d="M230.45,129c.27-.24.53-.47.81-.68a7.68,7.68,0,0,0,.82-.69.17.17,0,0,0,0-.23.18.18,0,0,0-.22-.06,7.14,7.14,0,0,0-1,.57,10.7,10.7,0,0,0-.83.68.28.28,0,0,0,0,.38.27.27,0,0,0,.37,0Z" transform="translate(-32.07 -72.96)"/><path class="cls-1" d="M229.21,125.67a1.28,1.28,0,0,0,0,.7.71.71,0,0,0,.78.35,1.1,1.1,0,0,0,.75-.51.7.7,0,0,0,.1-.58.58.58,0,0,0-.36-.34,1.39,1.39,0,0,0-.61-.06l-.28.06-.3.11a.2.2,0,0,0,0,.36.84.84,0,0,0,.27,0,1.52,1.52,0,0,0,.21,0l.2,0h.23s0,0,0,0l.07,0,.07,0s0,0,0,0h0l0,0s0,0,0,0v0s0,0,0,0,0,0,0,0,0,0,0,0l0,.1s0,0,0,0l0,0a.21.21,0,0,1,0,.06.1.1,0,0,1,0,0s0,0,0,0l0,0-.06.06,0,0s0,0,0,0a.46.46,0,0,1-.16.07h-.11s.05,0,0,0h-.07s-.06,0,0,0l-.06,0,0,0s0,0,0,0l0,0s0,0,0,0h0l0,0,0,0s0,0,0,0l0,0s0,0,0-.06h0v0s0,0,0-.08a.17.17,0,0,1,0-.07v0h0v-.15a.18.18,0,0,0-.35,0Z" transform="translate(-32.07 -72.96)"/><path class="cls-1" d="M220.2,87.4c.21-.21.42-.41.62-.63l.32-.34a2.09,2.09,0,0,0,.14-.17l.07-.08s0-.05,0-.08a.06.06,0,0,0,0,0s0,0,0,0a.19.19,0,0,0-.13-.25A.21.21,0,0,0,221,86h0a.19.19,0,0,0,.21.2h0l-.1-.36-.05,0a.18.18,0,0,0-.07.05l-.08.07-.17.19-.07.08h0l0,0-.15.16c-.2.21-.4.42-.61.62a.23.23,0,1,0,.3.36Z" transform="translate(-32.07 -72.96)"/><path class="cls-1" d="M221.14,86.51a2.71,2.71,0,0,0,.46.76,1.57,1.57,0,0,0,.38.3c.17.1.42.22.61.1a.23.23,0,0,0,.13-.18.23.23,0,0,0-.1-.2h0l0,0-.1,0-.08,0-.06,0h0l-.09,0L222.1,87l0,0h0l-.06-.07-.12-.14,0,0s0,.06,0,0l0-.09a3.78,3.78,0,0,1-.17-.35.27.27,0,0,0-.36-.13.28.28,0,0,0-.13.36Z" transform="translate(-32.07 -72.96)"/><path class="cls-1" d="M221.5,86a2.91,2.91,0,0,0,0-.66l0-.64-.06-.59a.82.82,0,0,0-.22-.52.16.16,0,0,0-.25.08.49.49,0,0,0,0,.24,1.18,1.18,0,0,1,0,.26c0,.19,0,.39,0,.58s0,.4,0,.6a3.11,3.11,0,0,1,0,.61.28.28,0,0,0,.24.29.27.27,0,0,0,.29-.25Z" transform="translate(-32.07 -72.96)"/><path class="cls-1" d="M219.9,84.75c.16.11.31.25.46.37l.24.17.18.1a.58.58,0,0,0,.19,0,.22.22,0,0,0,.18-.35.8.8,0,0,0-.13-.13l-.12-.08a2.11,2.11,0,0,1-.23-.19l-.46-.37a.28.28,0,0,0-.38.08.27.27,0,0,0,.07.37Z" transform="translate(-32.07 -72.96)"/><path class="cls-1" d="M221.8,85.23l.5-.33a1.88,1.88,0,0,0,.23-.16,1.85,1.85,0,0,0,.14-.14l0,0a.27.27,0,0,0,0-.2.21.21,0,0,0-.2-.18.3.3,0,0,0-.2.06l-.06,0,.06,0-.45.31-.43.28a.28.28,0,0,0-.09.19.23.23,0,0,0,.06.19.29.29,0,0,0,.18.1.28.28,0,0,0,.19-.07Z" transform="translate(-32.07 -72.96)"/><path class="cls-1" d="M220.71,82.36a1.07,1.07,0,0,0-.26.4.94.94,0,0,0,0,.5.78.78,0,0,0,.68.66,1.13,1.13,0,0,0,1.09-.76.56.56,0,0,0-.11-.53.89.89,0,0,0-.51-.28l-.3,0h-.17l-.2,0a.15.15,0,0,0,0,.28l.25,0,.2,0,.17.05.09,0,0,0s0,0,0,0a.05.05,0,0,1,0,0s0,0,0,0l0,0h0l0,0s0,0,0,0v0h0s0,0,0,0,0,0,0,0l0,.08s0,0,0,0l-.06.08,0,0h0l-.06.06-.06,0,0,0,0,0h0l-.15.07h0s0,0,0,0l-.09,0H221l-.09,0,0,0,0,0h0a.42.42,0,0,1-.09-.14.6.6,0,0,1,0-.38.25.25,0,0,1,0-.07.11.11,0,0,1,0-.06.91.91,0,0,1,.11-.16.15.15,0,1,0-.19-.23Z" transform="translate(-32.07 -72.96)"/><path class="cls-1" d="M235.38,98.22v0a.17.17,0,0,0,.24.13,2.74,2.74,0,0,0,.58-.49l.65-.6c.2-.19.41-.37.6-.56a1.2,1.2,0,0,0,.44-.67.16.16,0,0,0-.26-.13c-.19.14-.35.32-.53.48l-.58.55c-.19.19-.39.38-.58.58l-.28.3c-.07.08-.14.17-.22.25l.27.06,0,0a.17.17,0,0,0-.32.1Z" transform="translate(-32.07 -72.96)"/><path class="cls-1" d="M237.38,96.83c.11.31.22.62.34.93a2.29,2.29,0,0,0,.51.88.21.21,0,0,0,.34-.22c-.1-.3-.25-.6-.37-.9s-.22-.61-.33-.92a.26.26,0,0,0-.35-.13.28.28,0,0,0-.14.36Z" transform="translate(-32.07 -72.96)"/><path class="cls-1" d="M237.16,93.91c0,.42,0,.84.07,1.25a4.34,4.34,0,0,0,.18,1.19.16.16,0,0,0,.31,0c0-.83-.06-1.64-.12-2.46a.23.23,0,0,0-.26-.18.22.22,0,0,0-.18.25Z" transform="translate(-32.07 -72.96)"/><path class="cls-1" d="M237,94.79h-.07l-.11,0-.21-.07-.09,0,0,0,0,0h0l0,0-.1-.06c-.27-.17-.49-.4-.76-.55a.23.23,0,0,0-.25,0,.22.22,0,0,0-.05.24,1.26,1.26,0,0,0,.34.42A2.79,2.79,0,0,0,236,95a3,3,0,0,0,1,.36.27.27,0,0,0,.29-.25.28.28,0,0,0-.24-.29Z" transform="translate(-32.07 -72.96)"/><path class="cls-1" d="M237.63,95.33c.33-.2.67-.38,1-.59a2.55,2.55,0,0,0,.85-.75c.07-.12,0-.29-.19-.21-.32.16-.61.37-.92.54l-1,.54a.27.27,0,0,0-.13.35.26.26,0,0,0,.34.12Z" transform="translate(-32.07 -72.96)"/><path class="cls-1" d="M236.69,92.52a1.35,1.35,0,0,0-.17.78.53.53,0,0,0,.31.37.79.79,0,0,0,.48,0,1.79,1.79,0,0,0,.45-.19,1.2,1.2,0,0,0,.37-.34.67.67,0,0,0,.12-.51.66.66,0,0,0-.35-.43,1.17,1.17,0,0,0-.69-.13,1.21,1.21,0,0,0-.61.3.15.15,0,0,0,.16.26l.22-.1.1,0h0l.07,0a.44.44,0,0,1,.2,0h.06s.06,0,0,0l.11,0,.06,0h0l.08,0h0a.08.08,0,0,1,0,0h0s0,0,0,0,0,0,0,0,0,0,0,0v0c0,.05,0,0,0,0v0s0,0,0,0a0,0,0,0,0,0,0s0,0,0,0,0,0,0,0l0,0-.05.07,0,0h0s0,0,0,0l-.06.06-.06,0-.14.11,0,0,0,0-.05,0-.09,0-.09,0s-.06,0,0,0h-.29l0,0s0,0,0,0l0,0s0,0,0,0l0,0s0,0,0,0,0,0,0,0,0,0,0,0v0a1.08,1.08,0,0,1,0-.18,2.26,2.26,0,0,1,.11-.37c0-.1-.11-.15-.15,0Z" transform="translate(-32.07 -72.96)"/><path class="cls-1" d="M216.63,104c.27-.49.52-1,.82-1.45a8.12,8.12,0,0,1,.48-.67,2.08,2.08,0,0,0,.43-.71c0-.12-.1-.23-.2-.14a10.29,10.29,0,0,0-1.83,2.76c-.11.21.18.41.3.21Z" transform="translate(-32.07 -72.96)"/><path class="cls-1" d="M217.91,101.46c.15.43.29.87.46,1.3A5.24,5.24,0,0,0,219,104c.15.18.41,0,.34-.22-.16-.43-.36-.83-.53-1.26s-.32-.85-.47-1.28a.25.25,0,0,0-.33-.12.26.26,0,0,0-.12.34Z" transform="translate(-32.07 -72.96)"/><path class="cls-1" d="M217.86,99.05a10.75,10.75,0,0,1,.14,1.38c0,.23,0,.46,0,.68s0,.45,0,.67a.19.19,0,0,0,.34.07,1.41,1.41,0,0,0,.15-.7c0-.24,0-.48,0-.72a11.76,11.76,0,0,0-.2-1.45.2.2,0,0,0-.4.07Z" transform="translate(-32.07 -72.96)"/><path class="cls-1" d="M218,100.41l-.15-.11s0,0,0,0l0,0a.17.17,0,0,1-.06-.06l-.27-.29a1.8,1.8,0,0,0-.26-.29,4,4,0,0,0-.31-.27c-.09-.09-.27,0-.24.15a1.33,1.33,0,0,0,.21.39.22.22,0,0,0,0,.08s0,.06,0,0,0,0,0,0l.14.21a2.07,2.07,0,0,0,.58.6.26.26,0,0,0,.37-.07.27.27,0,0,0-.06-.37Z" transform="translate(-32.07 -72.96)"/><path class="cls-1" d="M218.38,100.8l.54-.48a3.85,3.85,0,0,0,.52-.55.19.19,0,0,0-.23-.28,2.48,2.48,0,0,0-.63.42l-.55.48a.27.27,0,1,0,.35.41Z" transform="translate(-32.07 -72.96)"/><path class="cls-1" d="M217.22,97.89a1.55,1.55,0,0,0,0,.71.64.64,0,0,0,.75.33,1.13,1.13,0,0,0,.8-.61.56.56,0,0,0-.3-.84,1.5,1.5,0,0,0-.63-.07l-.29,0-.28.07a.18.18,0,0,0,0,.35,1.93,1.93,0,0,0,.48,0h.39s.07,0,0,0h0l.1,0s.05,0,0,0l0,0,0,0s0,0,0,0h0s0,0,0,0v0s0,0,0,0v0s0-.05,0,0v0s0,0,0,0,0,0,0,0,0,.06,0,.07,0,0,0,0l0,0-.05.07,0,0h0a.64.64,0,0,1-.15.13h0l0,0-.1,0s0,0,0,0l-.05,0h-.24c.05,0,0,0,0,0s0,0,0,0l0,0h0s0,0,0,0l0,0v0s0,0,0,0l0-.06s0,0,0,0v0s0,0,0-.07v0s0-.06,0,0v-.15a1,1,0,0,0,0-.17.17.17,0,0,0-.15-.17.16.16,0,0,0-.17.15Z" transform="translate(-32.07 -72.96)"/><path class="cls-1" d="M192.64,85.85c-.31.47-.61,1-.91,1.44-.14.23-.28.46-.43.68s-.41.59-.1.76a.21.21,0,0,0,.24,0c.1-.08.11-.2.17-.3l.2-.31c.14-.21.26-.43.39-.65.26-.45.53-.9.8-1.35.15-.25-.2-.5-.36-.25Z" transform="translate(-32.07 -72.96)"/><path class="cls-1" d="M192.54,86.23c.21.54.44,1.08.69,1.61l.37.79a2.58,2.58,0,0,0,.36.6.16.16,0,0,0,.24,0c.14-.22,0-.51-.07-.73s-.26-.53-.38-.8c-.26-.55-.51-1.11-.73-1.68-.12-.32-.59-.1-.48.22Z" transform="translate(-32.07 -72.96)"/><path class="cls-1" d="M192.36,82.24c0,.71.07,1.42.1,2.12a6.75,6.75,0,0,0,.21,2.06.21.21,0,0,0,.39-.07c0-.69-.06-1.39-.09-2.08l-.12-2.11c0-.33-.51-.23-.49.08Z" transform="translate(-32.07 -72.96)"/><path class="cls-1" d="M191.16,83.08a5.81,5.81,0,0,0,.7,1c.12.13.24.26.37.38l.16.18a1.71,1.71,0,0,0,.18.2.18.18,0,0,0,.28-.13.73.73,0,0,0-.22-.52l-.38-.38a6.53,6.53,0,0,1-.74-.91.2.2,0,0,0-.27,0,.2.2,0,0,0-.08.26Z" transform="translate(-32.07 -72.96)"/><path class="cls-1" d="M193.06,84.42c.27-.24.53-.47.81-.68a7.68,7.68,0,0,0,.82-.69.17.17,0,0,0-.18-.29,6.56,6.56,0,0,0-1,.57,10.7,10.7,0,0,0-.83.68.27.27,0,0,0,0,.38.27.27,0,0,0,.37,0Z" transform="translate(-32.07 -72.96)"/><path class="cls-1" d="M191.82,81.11a1.28,1.28,0,0,0,.05.7.71.71,0,0,0,.78.35,1.13,1.13,0,0,0,.75-.51.7.7,0,0,0,.1-.58.55.55,0,0,0-.36-.34,1.4,1.4,0,0,0-.61-.06l-.28.06-.3.11a.19.19,0,0,0,0,.35.63.63,0,0,0,.27,0l.2,0,.21,0h.23s0,0,0,0l.07,0,.07,0s-.05,0,0,0h0l0,0s0,0,0,0v0s0,0,0,0,0,0,0,0,0,0,0,0a.42.42,0,0,1,0,.1s0,0,0,0l0,0,0,.06,0,0h0l0,0-.06.06,0,0h0a.46.46,0,0,1-.16.07h-.11s0,0,0,0h-.07s-.06,0,0,0l-.06,0h0s0,0,0,0l0,0s0,0,0,0h0l0,0,0,0s0,0,0,0l0,0s0,0,0-.06,0,0,0,0v0a.22.22,0,0,1,0-.08.17.17,0,0,1,0-.07v0h0v-.15a.18.18,0,1,0-.35,0Z" transform="translate(-32.07 -72.96)"/><path class="cls-1" d="M208.43,208.08l.62-.63.31-.34.15-.17.07-.09a.43.43,0,0,0,0-.07s0,0,0-.05,0,0,0,0,0-.22-.14-.24a.19.19,0,0,0-.23.17h0a.18.18,0,0,0,.21.19h0l-.11-.36-.05,0-.07,0-.07.08a1.54,1.54,0,0,0-.17.19l-.07.07s0,0,0,0l0,0,0,0-.15.17-.61.62a.23.23,0,0,0,0,.33.24.24,0,0,0,.33,0Z" transform="translate(-32.07 -72.96)"/><path class="cls-1" d="M209.36,207.18a2.69,2.69,0,0,0,.47.76,1.91,1.91,0,0,0,.38.31c.17.1.41.22.6.1a.22.22,0,0,0,.13-.18.21.21,0,0,0-.09-.2h0s0,0,0,0a.25.25,0,0,0-.09,0l-.09,0,0,0s-.07,0,0,0l-.08-.05-.17-.12,0,0h0l-.06-.07a1.58,1.58,0,0,1-.12-.15l0,0s0,.05,0,0l-.05-.08-.18-.35a.26.26,0,0,0-.35-.13.27.27,0,0,0-.14.35Z" transform="translate(-32.07 -72.96)"/><path class="cls-1" d="M209.73,206.66a2.91,2.91,0,0,0,0-.66c0-.21,0-.43,0-.64s0-.4-.05-.59a.8.8,0,0,0-.23-.53c-.08-.07-.2,0-.24.08a.43.43,0,0,0,0,.25c0,.09,0,.17,0,.26s0,.38,0,.57,0,.4,0,.6a3.2,3.2,0,0,1,0,.62.27.27,0,0,0,.24.28.28.28,0,0,0,.29-.24Z" transform="translate(-32.07 -72.96)"/><path class="cls-1" d="M208.13,205.42c.16.12.31.25.46.38a2.07,2.07,0,0,0,.24.17l.18.09a.39.39,0,0,0,.18,0,.24.24,0,0,0,.21-.12.21.21,0,0,0,0-.23.44.44,0,0,0-.14-.13l-.11-.08-.24-.19c-.15-.12-.3-.26-.46-.37a.27.27,0,0,0-.37.07.26.26,0,0,0,.07.37Z" transform="translate(-32.07 -72.96)"/><path class="cls-1" d="M210,205.91l.5-.33.23-.17a.8.8,0,0,0,.13-.13l0-.05a.28.28,0,0,0,0-.2.21.21,0,0,0-.2-.18.29.29,0,0,0-.2.05l-.06,0,.06,0c-.16.1-.3.21-.45.31l-.43.28a.32.32,0,0,0-.1.18.34.34,0,0,0,.06.2.26.26,0,0,0,.19.09.33.33,0,0,0,.19-.06Z" transform="translate(-32.07 -72.96)"/><path class="cls-1" d="M208.94,203a1.19,1.19,0,0,0-.27.39,1.1,1.1,0,0,0,0,.51.77.77,0,0,0,.68.65,1.1,1.1,0,0,0,1.09-.76.61.61,0,0,0-.11-.52.87.87,0,0,0-.51-.28,1.57,1.57,0,0,0-.3-.05h-.17a.71.71,0,0,0-.2,0,.15.15,0,0,0,0,.27l.25.05.2,0,.16.05.1,0h0l0,0,0,0h0l0,.05s0,0,0,0l0,0s0,0,0,0v0s0,0,0,0v0s0,0,0,0l0,.08s0,0,0,0l-.06.09,0,0h0l-.06,0-.06.06,0,0,0,0h0l-.15.07h0c-.06,0,0,0,0,0l-.08,0h-.16s0,0,0,0l-.09,0s0,0,0,0l0,0h0a.49.49,0,0,1-.1-.15.76.76,0,0,1,0-.37.49.49,0,0,0,0-.07s0-.05,0-.07a.83.83,0,0,1,.11-.15.16.16,0,0,0,0-.22.15.15,0,0,0-.21,0Z" transform="translate(-32.07 -72.96)"/><path class="cls-1" d="M236.41,181v.05a.17.17,0,0,0,.25.13,3.35,3.35,0,0,0,.58-.49l.64-.6c.2-.19.41-.37.6-.56s.43-.4.44-.67a.16.16,0,0,0-.26-.13c-.18.14-.35.32-.52.48s-.4.36-.58.55-.4.38-.59.58l-.28.3a2.62,2.62,0,0,1-.22.25l.28.06,0,0a.17.17,0,0,0-.32.1Z" transform="translate(-32.07 -72.96)"/><path class="cls-1" d="M238.42,179.61c.11.31.21.63.33.93a2.29,2.29,0,0,0,.51.88.2.2,0,0,0,.34-.21c-.09-.31-.25-.61-.36-.91s-.22-.61-.33-.92a.27.27,0,0,0-.49.23Z" transform="translate(-32.07 -72.96)"/><path class="cls-1" d="M238.19,176.7c0,.41.05.83.08,1.24a4.28,4.28,0,0,0,.17,1.19.16.16,0,0,0,.31,0c0-.83-.06-1.64-.12-2.46a.22.22,0,0,0-.25-.18.23.23,0,0,0-.19.26Z" transform="translate(-32.07 -72.96)"/><path class="cls-1" d="M238,177.57H238l-.12,0-.2-.06-.09,0,0,0,0,0h0l-.05,0-.1-.06c-.26-.16-.48-.4-.76-.55a.2.2,0,0,0-.24,0,.19.19,0,0,0-.06.23,1.26,1.26,0,0,0,.34.42,2.46,2.46,0,0,0,.44.34,2.72,2.72,0,0,0,1,.36.26.26,0,0,0,.29-.25.27.27,0,0,0-.24-.29Z" transform="translate(-32.07 -72.96)"/><path class="cls-1" d="M238.66,178.11c.34-.19.68-.38,1-.59a2.43,2.43,0,0,0,.85-.74c.07-.12,0-.29-.18-.22-.32.16-.62.37-.93.55s-.64.35-1,.54a.26.26,0,0,0-.13.34.26.26,0,0,0,.34.12Z" transform="translate(-32.07 -72.96)"/><path class="cls-1" d="M237.73,175.3a1.3,1.3,0,0,0-.18.79.56.56,0,0,0,.31.36.72.72,0,0,0,.48,0,1.79,1.79,0,0,0,.45-.19,1.2,1.2,0,0,0,.37-.34.67.67,0,0,0,.12-.51.64.64,0,0,0-.34-.43,1.17,1.17,0,0,0-.69-.13,1.2,1.2,0,0,0-.62.3.15.15,0,0,0,.16.26l.23-.1.09,0h0l.08,0a.4.4,0,0,1,.19,0h.09l.11,0,.06,0h0l.08,0s0,.05,0,0l0,0h0s0,0,0,0,0,0,0,.05,0-.05,0,0v0s0,0,0,0v0s0,0,0,0a0,0,0,0,1,0,0s0,0,0,0,0,0,0,0v0l0,.07,0,0h0s0,0,0,0l-.07.06s-.13.11-.14.1h0l0,0-.1.05-.09,0s0,0,0,0h-.05l-.07,0h-.16a.05.05,0,0,1,0,0s0,0,0,0l0,0h0l0,0v0l0,0s0,0,0,0a.08.08,0,0,1,0,0,.55.55,0,0,1,0-.18,1.58,1.58,0,0,1,.11-.37.08.08,0,0,0-.15,0Z" transform="translate(-32.07 -72.96)"/><path class="cls-1" d="M202.69,100.62c.27-.48.52-1,.82-1.45a7.37,7.37,0,0,1,.47-.67,1.93,1.93,0,0,0,.44-.71c0-.11-.1-.23-.2-.14a10.26,10.26,0,0,0-1.83,2.77c-.12.2.18.41.3.2Z" transform="translate(-32.07 -72.96)"/><path class="cls-1" d="M204,98.11c.15.44.3.87.47,1.3a4.73,4.73,0,0,0,.65,1.24c.14.19.41,0,.34-.22-.16-.42-.36-.83-.53-1.25s-.32-.85-.47-1.28a.25.25,0,0,0-.33-.12.26.26,0,0,0-.13.33Z" transform="translate(-32.07 -72.96)"/><path class="cls-1" d="M203.92,95.7c.06.46.12.92.14,1.39,0,.22,0,.45,0,.68s0,.44,0,.66a.19.19,0,0,0,.34.07,1.49,1.49,0,0,0,.15-.7c0-.24,0-.48,0-.71a14.21,14.21,0,0,0-.19-1.46.2.2,0,0,0-.4.07Z" transform="translate(-32.07 -72.96)"/><path class="cls-1" d="M204.09,97.06A.71.71,0,0,1,204,97s0,0,0,0l0,0-.06-.06-.27-.3a2.35,2.35,0,0,0-.26-.29L203,96c-.09-.09-.27,0-.24.15a1.25,1.25,0,0,0,.2.4l.06.08v0s0,0,0,0l.14.21a2.08,2.08,0,0,0,.57.61.29.29,0,0,0,.38-.07.28.28,0,0,0-.07-.38Z" transform="translate(-32.07 -72.96)"/><path class="cls-1" d="M204.43,97.45,205,97a3,3,0,0,0,.52-.55.18.18,0,0,0-.23-.27,2.17,2.17,0,0,0-.63.42l-.54.47a.27.27,0,0,0,0,.38.26.26,0,0,0,.37,0Z" transform="translate(-32.07 -72.96)"/><path class="cls-1" d="M203.27,94.54a1.7,1.7,0,0,0,0,.71.64.64,0,0,0,.75.33,1.12,1.12,0,0,0,.8-.6.68.68,0,0,0,.07-.48.62.62,0,0,0-.37-.37,1.5,1.5,0,0,0-.63-.07l-.29,0c-.1,0-.19,0-.29.06a.18.18,0,0,0,0,.36,2.46,2.46,0,0,0,.47,0h.4s.07,0,0,0h0l.1,0h0l0,0,0,0h0v0s0,0,0,0,0,0,0,0,0-.06,0,0,0,0,0,0,0,0,0,0v0s0,0,0,0,0,0,0,0l0,.08s0,0,0,0v0l-.06.08,0,0s0,0,0,0a.93.93,0,0,1-.15.13s0,0,0,0l0,0-.09.05H204l-.09,0h-.18s0,0,0,0h0l0,0s0,0,0,0v0l0,0,0,0,0-.07s0,0,0,0v0a.22.22,0,0,1,0-.08v-.21s0-.11,0-.16a.17.17,0,0,0-.33,0Z" transform="translate(-32.07 -72.96)"/><path class="cls-1" d="M214,118.62c-.31.48-.61,1-.91,1.44-.14.23-.28.46-.43.69s-.4.59-.1.75a.21.21,0,0,0,.24,0c.1-.08.11-.2.17-.3l.21-.31c.13-.22.25-.44.38-.65.27-.46.53-.91.81-1.36.15-.24-.21-.49-.37-.25Z" transform="translate(-32.07 -72.96)"/><path class="cls-1" d="M213.87,119c.2.55.44,1.08.68,1.61.13.26.25.53.38.79a2.09,2.09,0,0,0,.36.61.15.15,0,0,0,.23,0c.15-.22,0-.51-.07-.72s-.25-.54-.38-.8c-.25-.56-.5-1.12-.72-1.69-.12-.32-.6-.09-.48.22Z" transform="translate(-32.07 -72.96)"/><path class="cls-1" d="M213.68,115c0,.7.08,1.41.1,2.12a7,7,0,0,0,.21,2c.07.19.4.13.39-.07,0-.69-.06-1.38-.09-2.07s-.07-1.41-.12-2.12c0-.32-.5-.22-.49.09Z" transform="translate(-32.07 -72.96)"/><path class="cls-1" d="M212.48,115.85a7.37,7.37,0,0,0,.7,1l.37.38.17.17a1.81,1.81,0,0,0,.18.21.18.18,0,0,0,.28-.14.68.68,0,0,0-.23-.51c-.12-.13-.25-.25-.38-.38a7.17,7.17,0,0,1-.74-.91.21.21,0,0,0-.27,0,.22.22,0,0,0-.08.26Z" transform="translate(-32.07 -72.96)"/><path class="cls-1" d="M214.39,117.19l.8-.68a6.83,6.83,0,0,0,.83-.68.17.17,0,0,0,0-.23.17.17,0,0,0-.22-.07,9.32,9.32,0,0,0-1,.57c-.29.22-.56.45-.82.68a.27.27,0,1,0,.34.41Z" transform="translate(-32.07 -72.96)"/><path class="cls-1" d="M213.14,113.88a1.28,1.28,0,0,0,.06.7.71.71,0,0,0,.77.36,1.13,1.13,0,0,0,.75-.51.71.71,0,0,0,.11-.58.57.57,0,0,0-.37-.34,1.22,1.22,0,0,0-.6-.06,1.27,1.27,0,0,0-.28.06l-.3.1a.2.2,0,0,0,0,.36,1.15,1.15,0,0,0,.26,0l.21,0,.2,0h.23s0,0,0,0l.08,0,.06,0s-.05,0,0,0h0s0,0,0,0h0s0,0,0,0,0,0,0,0v0c0-.05,0,0,0,0s0,0,0,0,0,0,0,0a.36.36,0,0,0,0,.09s0,0,0,0l0,0,0,.06s0,.05,0,.06,0,0,0,0l0,0-.07,0,0,0s0,0,0,0a.69.69,0,0,1-.15.07h-.21l-.07,0h0s0,0,0,0l0,0s0,0,0,0h0l0,0s0,0,0,0,0,0,0,0l0,0,0-.07s0,0,0,0v0a.17.17,0,0,0,0-.07.22.22,0,0,0,0-.08v0h0v-.16a.18.18,0,0,0-.15-.19.19.19,0,0,0-.2.16Z" transform="translate(-32.07 -72.96)"/><path class="cls-1" d="M217.23,149.45l.62-.63c.11-.11.21-.23.32-.35a1.15,1.15,0,0,0,.14-.17.27.27,0,0,0,.07-.08l0-.07a.09.09,0,0,0,0-.05s0,0,0,0a.17.17,0,0,0-.13-.24.18.18,0,0,0-.23.17h0a.18.18,0,0,0,.21.19h0l-.11-.36-.05,0-.07,0L218,148l-.17.18-.07.08h0v0l0,0-.15.17-.61.62a.23.23,0,0,0,.3.36Z" transform="translate(-32.07 -72.96)"/><path class="cls-1" d="M218.17,148.55a2.45,2.45,0,0,0,.46.76,1.91,1.91,0,0,0,.38.31c.17.1.42.22.61.1a.26.26,0,0,0,.13-.19.22.22,0,0,0-.1-.2s0,0,0,0,0,0,0,0l-.1,0-.08,0-.06,0h0l-.08-.05-.17-.12,0,0c-.05,0,0,0,0,0a.46.46,0,0,1-.07-.07l-.12-.15,0,0h0a.35.35,0,0,0,0-.08l-.17-.35a.27.27,0,0,0-.36-.13.27.27,0,0,0-.13.35Z" transform="translate(-32.07 -72.96)"/><path class="cls-1" d="M218.53,148a2.91,2.91,0,0,0,0-.66c0-.22,0-.43,0-.64l-.06-.6a.82.82,0,0,0-.22-.52.16.16,0,0,0-.24.08.42.42,0,0,0,0,.25,1.1,1.1,0,0,1,0,.26c0,.19,0,.38,0,.57s0,.4,0,.6a4.28,4.28,0,0,1,0,.62.25.25,0,0,0,.23.28.27.27,0,0,0,.29-.24Z" transform="translate(-32.07 -72.96)"/><path class="cls-1" d="M216.93,146.79c.16.12.31.25.46.38l.24.17.18.09a.41.41,0,0,0,.19,0,.26.26,0,0,0,.21-.12.21.21,0,0,0,0-.23.53.53,0,0,0-.13-.13l-.12-.09a2,2,0,0,1-.23-.18c-.16-.13-.3-.26-.46-.37a.28.28,0,0,0-.38.07.27.27,0,0,0,.07.37Z" transform="translate(-32.07 -72.96)"/><path class="cls-1" d="M218.84,147.28l.49-.33.23-.17a.86.86,0,0,0,.14-.13l0-.05a.35.35,0,0,0,.05-.2.24.24,0,0,0-.21-.19.39.39,0,0,0-.2.06l-.06,0,.06,0-.45.31-.43.28a.26.26,0,0,0-.09.18.26.26,0,0,0,.24.29.39.39,0,0,0,.2-.06Z" transform="translate(-32.07 -72.96)"/><path class="cls-1" d="M217.74,144.41a1,1,0,0,0-.26.39,1,1,0,0,0,0,.5.78.78,0,0,0,.68.66,1,1,0,0,0,.83-.33.91.91,0,0,0,.26-.43.57.57,0,0,0-.1-.52.89.89,0,0,0-.52-.28,1.57,1.57,0,0,0-.3-.05h-.17a.71.71,0,0,0-.2,0,.15.15,0,0,0,0,.27l.25.05.2,0,.17,0,.09,0h0l0,0,0,0s0,0,0,0l0,0s0,0,0,0,0,0,0,0,0,0,0,0v0s0,0,0,0v0s0,0,0,0l0,.08s0,0,0,0l-.06.09,0,0h0l0,0-.07.06,0,0h0l-.15.08h0s0,0,0,0l-.09,0h-.16l-.09,0s0,0,0,0l0,0s0,0,0,0a.46.46,0,0,1-.09-.15.58.58,0,0,1,0-.37.19.19,0,0,1,0-.07.24.24,0,0,1,0-.07.57.57,0,0,1,.12-.15.18.18,0,0,0,0-.22.17.17,0,0,0-.22,0Z" transform="translate(-32.07 -72.96)"/><path class="cls-1" d="M184.66,105v0a.17.17,0,0,0,.24.13,2.74,2.74,0,0,0,.58-.49l.65-.6c.2-.19.41-.37.6-.56s.42-.4.43-.67a.15.15,0,0,0-.25-.13c-.19.14-.35.32-.53.48l-.58.55c-.19.19-.39.38-.58.58l-.28.3a2.62,2.62,0,0,1-.22.25l.27.06,0,0a.17.17,0,0,0-.32.1Z" transform="translate(-32.07 -72.96)"/><path class="cls-1" d="M186.66,103.61c.11.31.22.62.34.93a2.29,2.29,0,0,0,.51.88.2.2,0,0,0,.34-.21c-.1-.31-.25-.61-.37-.91s-.22-.61-.33-.92a.26.26,0,0,0-.35-.13.28.28,0,0,0-.14.36Z" transform="translate(-32.07 -72.96)"/><path class="cls-1" d="M186.44,100.69c0,.42,0,.84.07,1.25a4.34,4.34,0,0,0,.18,1.19.16.16,0,0,0,.31,0c0-.83-.06-1.64-.12-2.46a.23.23,0,0,0-.26-.18.22.22,0,0,0-.18.25Z" transform="translate(-32.07 -72.96)"/><path class="cls-1" d="M186.29,101.57h-.07l-.11,0-.21-.07-.09,0,0,0,0,0h0l0,0-.1-.06c-.27-.17-.49-.4-.76-.55a.23.23,0,0,0-.25,0,.22.22,0,0,0-.05.24,1.26,1.26,0,0,0,.34.42,2.79,2.79,0,0,0,.43.34,3,3,0,0,0,1,.36.27.27,0,0,0,.29-.25.28.28,0,0,0-.24-.29Z" transform="translate(-32.07 -72.96)"/><path class="cls-1" d="M186.91,102.11c.33-.2.67-.38,1-.59a2.52,2.52,0,0,0,.85-.74c.07-.12,0-.29-.19-.22-.32.16-.61.37-.92.55s-.64.35-1,.54a.26.26,0,0,0-.13.34.26.26,0,0,0,.34.12Z" transform="translate(-32.07 -72.96)"/><path class="cls-1" d="M186,99.3a1.37,1.37,0,0,0-.17.79.53.53,0,0,0,.31.36.72.72,0,0,0,.48,0,1.79,1.79,0,0,0,.45-.19,1.2,1.2,0,0,0,.37-.34.67.67,0,0,0,.12-.51.66.66,0,0,0-.35-.43,1.17,1.17,0,0,0-.69-.13,1.21,1.21,0,0,0-.61.3.15.15,0,0,0,.16.26l.22-.1.1,0h0l.07,0a.44.44,0,0,1,.2,0h.06s.06,0,0,0l.11,0,.06,0h0l.08,0h0a.08.08,0,0,1,0,0h0s0,0,0,0,0,0,0,0,0,0,0,0v0s0,0,0,0v0s0,0,0,0a0,0,0,0,0,0,0l0,0s0,0,0,0l0,0a.18.18,0,0,1-.05.07l0,0h0s0,0,0,0l-.06.06-.06.06-.14.1h0l-.05,0-.09,0-.09,0s-.06,0,0,0h-.29l0,0s0,0,0,0l0,0s0,0,0,0l0,0s0,0,0,0,0,0,0-.05,0,0,0,0v0a1.08,1.08,0,0,1,0-.18,2.26,2.26,0,0,1,.11-.37c0-.1-.11-.14-.15,0Z" transform="translate(-32.07 -72.96)"/><path class="cls-1" d="M211.05,183.72c.28-.48.53-1,.82-1.45.15-.23.31-.45.48-.67a2.13,2.13,0,0,0,.44-.7c0-.12-.11-.24-.21-.15a10.5,10.5,0,0,0-1.83,2.77c-.11.2.19.41.3.2Z" transform="translate(-32.07 -72.96)"/><path class="cls-1" d="M212.33,181.21c.15.44.3.88.47,1.31a4.8,4.8,0,0,0,.64,1.23c.15.19.41,0,.34-.21-.15-.43-.36-.84-.53-1.26s-.32-.85-.47-1.28a.25.25,0,0,0-.33-.12.25.25,0,0,0-.12.33Z" transform="translate(-32.07 -72.96)"/><path class="cls-1" d="M212.29,178.8c.06.46.12.92.14,1.39,0,.22,0,.45,0,.68a4.85,4.85,0,0,0,0,.66.19.19,0,0,0,.34.07,1.38,1.38,0,0,0,.14-.7c0-.23,0-.47,0-.71a11.92,11.92,0,0,0-.2-1.46.2.2,0,0,0-.39.07Z" transform="translate(-32.07 -72.96)"/><path class="cls-1" d="M212.46,180.16l-.15-.1s0,0,0,0l0,0-.06-.06-.26-.3a3.71,3.71,0,0,0-.27-.29l-.3-.27a.15.15,0,0,0-.24.15,1.25,1.25,0,0,0,.2.4.22.22,0,0,1,.05.08l0,0,0,0c0,.07.09.14.13.22a2.07,2.07,0,0,0,.58.6.28.28,0,0,0,.37-.07.27.27,0,0,0-.06-.38Z" transform="translate(-32.07 -72.96)"/><path class="cls-1" d="M212.8,180.55l.54-.48a3,3,0,0,0,.52-.55.18.18,0,0,0-.23-.27,2.39,2.39,0,0,0-.63.42c-.18.15-.36.32-.54.48a.26.26,0,0,0,0,.37.27.27,0,0,0,.38,0Z" transform="translate(-32.07 -72.96)"/><path class="cls-1" d="M211.64,177.64a1.55,1.55,0,0,0,0,.71.64.64,0,0,0,.74.33,1.12,1.12,0,0,0,.8-.6.63.63,0,0,0,.07-.48.56.56,0,0,0-.37-.36,1.36,1.36,0,0,0-.63-.08l-.29,0-.28.06a.18.18,0,0,0,0,.36,2.57,2.57,0,0,0,.48,0h.39s.07,0,0,0h0l.1,0s0,0,0,0l0,0,0,0s0,0,0,0l0,0s0,0,0,0,0,0,0,0,0-.06,0,0a0,0,0,0,0,0,0s0,0,0,0v0c0,.05,0,0,0,0a.43.43,0,0,1,0,0,.3.3,0,0,1,0,.08h0l0,0a.35.35,0,0,1-.05.08l0,0h0a.41.41,0,0,1-.14.12h0l0,0-.1.05h0l-.08,0h-.18s0,0,0,0h0l0,0s0,0,0,0l0,0v0s0,0,0,0l0-.07s0,0,0,0v0s0-.05,0-.08v0s0,0,0,0,0,0,0,0v-.05s0,0,0-.08v-.16a.16.16,0,0,0-.14-.18.17.17,0,0,0-.18.15Z" transform="translate(-32.07 -72.96)"/><path class="cls-1" d="M198,113.25c-.31.48-.61,1-.91,1.44-.14.23-.28.46-.43.69s-.4.59-.1.75a.21.21,0,0,0,.24,0c.1-.08.11-.2.17-.3l.2-.31c.14-.22.26-.44.39-.65.26-.46.53-.91.8-1.36.15-.24-.2-.49-.36-.25Z" transform="translate(-32.07 -72.96)"/><path class="cls-1" d="M197.92,113.63c.2.55.44,1.08.68,1.61.12.27.25.53.37.79a2.37,2.37,0,0,0,.37.61.15.15,0,0,0,.23,0c.14-.22,0-.5-.07-.72s-.25-.54-.38-.8c-.26-.56-.51-1.12-.72-1.69-.12-.31-.6-.09-.48.22Z" transform="translate(-32.07 -72.96)"/><path class="cls-1" d="M197.73,109.65c0,.71.07,1.41.1,2.12a7,7,0,0,0,.21,2,.21.21,0,0,0,.39-.07c0-.69-.06-1.38-.09-2.07s-.08-1.41-.12-2.12c0-.32-.5-.22-.49.09Z" transform="translate(-32.07 -72.96)"/><path class="cls-1" d="M196.53,110.48a6.54,6.54,0,0,0,.7,1l.37.38.17.17a.91.91,0,0,0,.18.21c.1.08.26,0,.28-.14a.69.69,0,0,0-.23-.51l-.38-.38a7.17,7.17,0,0,1-.74-.91.21.21,0,0,0-.27,0,.2.2,0,0,0-.08.26Z" transform="translate(-32.07 -72.96)"/><path class="cls-1" d="M198.44,111.82c.26-.23.52-.46.8-.68a8.81,8.81,0,0,0,.83-.68.18.18,0,0,0,0-.23.17.17,0,0,0-.22-.07,8.37,8.37,0,0,0-1,.57c-.29.22-.56.45-.83.68a.28.28,0,0,0,0,.38.27.27,0,0,0,.38,0Z" transform="translate(-32.07 -72.96)"/><path class="cls-1" d="M197.19,108.51a1.32,1.32,0,0,0,.05.71.73.73,0,0,0,.78.35,1.13,1.13,0,0,0,.75-.51.7.7,0,0,0,.1-.58.55.55,0,0,0-.36-.34,1.25,1.25,0,0,0-.61-.06l-.28.06-.3.1a.2.2,0,0,0,0,.36,1.15,1.15,0,0,0,.26,0l.21,0,.2,0h.23s0,0,0,0l.07,0,.07,0s0,0,0,0h0s0,0,0,0l0,0s0,0,0,0,0,0,0,0v0s0,0,0,0,0,0,0,0,0,0,0,0l0,.1s0,0,0,0l0,0,0,.06s0,0,0,.06,0,0,0,0l0,0-.06.05,0,0h0a1,1,0,0,1-.15.07h-.2s-.06,0,0,0l-.06,0h0s0,0,0,0l0,0s0,0,0,0h0l0,0,0,0s0,0,0,0v0s0,0,0-.07,0,0,0,0v0s0,0,0-.07,0,0,0-.08v0h0v-.16a.18.18,0,0,0-.16-.19.18.18,0,0,0-.19.16Z" transform="translate(-32.07 -72.96)"/><path class="cls-1" d="M242.33,118.21c.21-.2.42-.41.62-.62l.31-.35a1.22,1.22,0,0,0,.15-.17l.07-.08a.21.21,0,0,0,.05-.12s0,0,0,0a.19.19,0,0,0-.14-.25.2.2,0,0,0-.23.17v0a.18.18,0,0,0,.21.19h0l-.11-.35s0,0-.05,0l-.07.05-.07.08-.17.18-.07.08h0l0,0,0,0-.15.16-.61.62a.25.25,0,0,0,0,.34.23.23,0,0,0,.33,0Z" transform="translate(-32.07 -72.96)"/><path class="cls-1" d="M243.27,117.32a2.58,2.58,0,0,0,.46.76,1.57,1.57,0,0,0,.38.3.59.59,0,0,0,.61.1.22.22,0,0,0,.12-.18.22.22,0,0,0-.09-.2h0l0,0a.25.25,0,0,0-.09,0l-.09,0-.05,0h0l-.09,0-.17-.12,0,0c-.05,0,0,0,0,0l-.06-.07-.12-.15,0,0s0,.06,0,0a.56.56,0,0,0,0-.08c-.06-.12-.12-.24-.17-.36a.29.29,0,0,0-.36-.13.27.27,0,0,0-.13.36Z" transform="translate(-32.07 -72.96)"/><path class="cls-1" d="M243.63,116.8a2.91,2.91,0,0,0,0-.66l0-.65-.06-.59a.78.78,0,0,0-.23-.52c-.08-.08-.2,0-.24.08a.52.52,0,0,0,0,.25,2.11,2.11,0,0,1,0,.26c0,.19,0,.38,0,.57s0,.4,0,.6a3.11,3.11,0,0,1,0,.61.28.28,0,0,0,.24.29.28.28,0,0,0,.29-.24Z" transform="translate(-32.07 -72.96)"/><path class="cls-1" d="M242,115.56c.16.12.31.25.46.38a2,2,0,0,0,.24.16,1,1,0,0,0,.18.1.31.31,0,0,0,.19,0,.21.21,0,0,0,.2-.11.23.23,0,0,0,0-.24.8.8,0,0,0-.13-.13l-.12-.08-.24-.18a5.19,5.19,0,0,0-.45-.37.27.27,0,0,0-.38.07.26.26,0,0,0,.07.37Z" transform="translate(-32.07 -72.96)"/><path class="cls-1" d="M243.93,116.05c.17-.12.34-.22.5-.34l.23-.16a.86.86,0,0,0,.13-.14s0,0,0,0a.28.28,0,0,0,0-.2.21.21,0,0,0-.2-.19.3.3,0,0,0-.2.06l-.06,0,.06,0c-.16.09-.3.2-.45.3l-.43.29a.29.29,0,0,0-.1.18.26.26,0,0,0,.07.19.22.22,0,0,0,.18.1.33.33,0,0,0,.19-.06Z" transform="translate(-32.07 -72.96)"/><path class="cls-1" d="M242.84,113.17a1.34,1.34,0,0,0-.27.4,1.06,1.06,0,0,0,0,.5.78.78,0,0,0,.68.66,1,1,0,0,0,.83-.33,1.13,1.13,0,0,0,.26-.43.56.56,0,0,0-.11-.53.85.85,0,0,0-.51-.27,1.59,1.59,0,0,0-.3-.06h-.17a.73.73,0,0,0-.2,0c-.12,0-.11.24,0,.27l.25,0,.2,0,.16,0,.1,0h0s0,0,0,0l0,0s0,0,0,0,0,0,0,0h0l0,0c0,.05,0,0,0,0v0h0a.06.06,0,0,0,0,0s0,0,0,0l0,.08s0,0,0,0l-.06.09,0,0s0,0,0,0l-.06.05-.06,0,0,0,0,0h0l-.15.07,0,0c-.06,0,0,0,0,0l-.09,0h0s-.05,0,0,0h-.12l-.09,0,0,0,0,0s0,0,0,0a.45.45,0,0,1-.1-.14.79.79,0,0,1,0-.38.24.24,0,0,0,0-.07.11.11,0,0,1,0-.06.91.91,0,0,1,.11-.16.14.14,0,0,0,0-.21.15.15,0,0,0-.21,0Z" transform="translate(-32.07 -72.96)"/><path class="cls-1" d="M163.43,133.91V134a.18.18,0,0,0,.25.13,3.41,3.41,0,0,0,.58-.5l.64-.6c.2-.19.41-.36.6-.56s.43-.39.44-.67a.16.16,0,0,0-.26-.13c-.18.15-.35.32-.52.48s-.4.36-.58.55l-.59.58-.28.3a1.79,1.79,0,0,1-.22.25l.28.06,0-.05a.17.17,0,0,0-.32.1Z" transform="translate(-32.07 -72.96)"/><path class="cls-1" d="M165.44,132.52c.11.31.21.63.33.94a2.36,2.36,0,0,0,.51.88.21.21,0,0,0,.34-.22c-.09-.31-.25-.6-.36-.91s-.22-.61-.33-.92a.27.27,0,0,0-.49.23Z" transform="translate(-32.07 -72.96)"/><path class="cls-1" d="M165.21,129.61c0,.41,0,.83.08,1.25a4.39,4.39,0,0,0,.17,1.19.17.17,0,0,0,.31-.06c0-.82-.06-1.64-.12-2.46a.22.22,0,0,0-.25-.18.23.23,0,0,0-.19.26Z" transform="translate(-32.07 -72.96)"/><path class="cls-1" d="M165.06,130.49s0,0,0,0l-.05,0-.12,0-.2-.07-.1,0,0,0,0,0h0l0,0-.1-.06a8.15,8.15,0,0,0-.76-.55.19.19,0,0,0-.24,0,.2.2,0,0,0-.06.24,1.5,1.5,0,0,0,.34.42,2.41,2.41,0,0,0,.44.33,2.54,2.54,0,0,0,1,.36.26.26,0,0,0,.29-.24.27.27,0,0,0-.24-.29Z" transform="translate(-32.07 -72.96)"/><path class="cls-1" d="M165.68,131c.34-.19.68-.37,1-.58a2.56,2.56,0,0,0,.85-.75c.07-.12,0-.29-.18-.22-.32.16-.62.37-.93.55s-.64.35-.95.54a.26.26,0,0,0-.13.34.25.25,0,0,0,.34.12Z" transform="translate(-32.07 -72.96)"/><path class="cls-1" d="M164.75,128.21a1.3,1.3,0,0,0-.18.79.51.51,0,0,0,.31.36.72.72,0,0,0,.48,0,1.49,1.49,0,0,0,.45-.19,1.09,1.09,0,0,0,.37-.34.61.61,0,0,0-.22-.93,1.26,1.26,0,0,0-.69-.14,1.22,1.22,0,0,0-.62.31.15.15,0,0,0,.16.25l.23-.09.09,0h0l.08,0a.59.59,0,0,1,.19,0h.09l.11,0,.06,0h0l.08.06s.05,0,0,0l0,0h0s0,0,0,0,0,0,0,.05,0-.05,0,0v0s0-.05,0,0v0s0,0,0,0v0a.08.08,0,0,1,0,0s0,0,0,0l0,0a.21.21,0,0,1,0,.06l0,0h0l-.05,0-.07.06s-.13.11-.14.1h0l0,0,0,0-.1.05-.09,0s-.05,0,0,0h-.05l-.07,0H165s0,0,0,0h-.06l0,0h0l0,0s0,0,0,0,0,0,0,0,0,0,0,0a.06.06,0,0,1,0,0,.55.55,0,0,1,0-.18,1.65,1.65,0,0,1,.11-.36.08.08,0,0,0-.15-.06Z" transform="translate(-32.07 -72.96)"/><path class="cls-1" d="M236.27,146.17c.27-.49.52-1,.82-1.46a7.85,7.85,0,0,1,.47-.66,2.11,2.11,0,0,0,.44-.71c0-.12-.1-.24-.2-.14A10.05,10.05,0,0,0,236,146c-.12.21.18.41.3.21Z" transform="translate(-32.07 -72.96)"/><path class="cls-1" d="M237.54,143.65c.15.44.3.88.47,1.31a4.83,4.83,0,0,0,.65,1.23c.15.19.41,0,.34-.21-.16-.43-.36-.84-.53-1.26s-.32-.85-.47-1.28a.25.25,0,0,0-.33-.12.26.26,0,0,0-.13.33Z" transform="translate(-32.07 -72.96)"/><path class="cls-1" d="M237.5,141.25c.06.46.12.92.14,1.38,0,.23,0,.45,0,.68s0,.44,0,.67.26.2.34.07a1.55,1.55,0,0,0,.15-.7c0-.24,0-.48,0-.72a11.74,11.74,0,0,0-.19-1.45.2.2,0,0,0-.4.07Z" transform="translate(-32.07 -72.96)"/><path class="cls-1" d="M237.67,142.61l-.14-.11s0,0,0,0l0,0-.06-.06-.27-.3a2.35,2.35,0,0,0-.26-.29l-.31-.27c-.09-.08-.27,0-.24.16a1.6,1.6,0,0,0,.2.39l.06.08s0,0,0,0,0,0,0,0a1.64,1.64,0,0,0,.14.22,2.07,2.07,0,0,0,.58.6.27.27,0,0,0,.37-.07.26.26,0,0,0-.07-.37Z" transform="translate(-32.07 -72.96)"/><path class="cls-1" d="M238,143c.18-.16.36-.33.54-.48a3.06,3.06,0,0,0,.52-.56.18.18,0,0,0-.23-.27,2.39,2.39,0,0,0-.63.42l-.54.48a.28.28,0,0,0,0,.38.27.27,0,0,0,.37,0Z" transform="translate(-32.07 -72.96)"/><path class="cls-1" d="M236.86,140.08a1.54,1.54,0,0,0,0,.71.65.65,0,0,0,.75.34,1.13,1.13,0,0,0,.8-.61.67.67,0,0,0,.07-.48.6.6,0,0,0-.37-.36,1.35,1.35,0,0,0-.63-.07,2.58,2.58,0,0,0-.29,0l-.28.06a.18.18,0,0,0,0,.36,2.46,2.46,0,0,0,.47,0h.11s0,0,0,0h0l.23,0s.07,0,0,0h0l.1,0h0l0,0,0,0h0v0s0,0,0,0v0s0-.06,0,0a.06.06,0,0,1,0,0s0-.05,0,0v0s0,0,0,0,0,0,0,.05l0,.07s0,0,0,0v0a.18.18,0,0,0-.05.07l0,0s0,0,0,0a.57.57,0,0,1-.15.12s0,0,0,0l-.05,0-.09,0h0l-.09,0h-.15c.05,0,0,0,0,0s0,0,0,0l0,0,0,0s0,0,0,0v0l0,0,0,0,0-.06s0,0,0,0v0a.17.17,0,0,1,0-.07v-.21c0-.06,0-.11,0-.17a.16.16,0,0,0-.15-.17.15.15,0,0,0-.17.14Z" transform="translate(-32.07 -72.96)"/><path class="cls-1" d="M189.07,184c-.31.47-.61.95-.91,1.44-.15.23-.28.46-.44.68s-.4.59-.1.75a.21.21,0,0,0,.25,0c.09-.08.11-.2.17-.3l.2-.31c.13-.21.26-.43.38-.65.27-.45.54-.91.81-1.35.15-.25-.21-.5-.36-.25Z" transform="translate(-32.07 -72.96)"/><path class="cls-1" d="M189,184.41c.21.54.44,1.08.69,1.6.12.27.24.53.37.8a2.28,2.28,0,0,0,.36.6.16.16,0,0,0,.24,0c.14-.22,0-.51-.07-.73s-.26-.53-.38-.8c-.26-.55-.51-1.11-.73-1.69-.12-.31-.59-.09-.48.23Z" transform="translate(-32.07 -72.96)"/><path class="cls-1" d="M188.79,180.42c0,.71.07,1.42.1,2.12a6.78,6.78,0,0,0,.21,2.06c.06.19.39.13.39-.07,0-.69-.06-1.39-.1-2.08s-.07-1.41-.11-2.12c0-.32-.51-.22-.49.09Z" transform="translate(-32.07 -72.96)"/><path class="cls-1" d="M187.59,181.26a6.39,6.39,0,0,0,.69,1l.38.38.16.18a1.71,1.71,0,0,0,.18.2.18.18,0,0,0,.28-.13.73.73,0,0,0-.22-.52l-.38-.38a6.53,6.53,0,0,1-.74-.91.2.2,0,0,0-.27,0,.2.2,0,0,0-.08.26Z" transform="translate(-32.07 -72.96)"/><path class="cls-1" d="M189.49,182.59c.26-.23.53-.46.81-.67a7.68,7.68,0,0,0,.82-.69.18.18,0,0,0,0-.23.17.17,0,0,0-.22-.06,7.25,7.25,0,0,0-1,.57c-.28.21-.55.44-.82.68a.26.26,0,1,0,.34.4Z" transform="translate(-32.07 -72.96)"/><path class="cls-1" d="M188.25,179.29a1.28,1.28,0,0,0,.05.7.71.71,0,0,0,.77.35,1.09,1.09,0,0,0,.75-.51.67.67,0,0,0,.11-.58.58.58,0,0,0-.36-.34,1.41,1.41,0,0,0-.61-.06l-.28.06-.3.11a.19.19,0,0,0,0,.35.61.61,0,0,0,.27,0l.2,0,.2,0h.24s0,0,0,0l.08,0,.06,0s0,0,0,0h0l0,0h0l0,0s0,0,0,0,0,0,0,0,0,0,0,0a.42.42,0,0,1,0,.1s0,0,0,0l0,0,0,.06,0,0s0,0,0,0l0,0-.06.06,0,0s0,0,0,0-.1.05-.15.07h-.19s-.07,0,0,0l-.07,0h0s0,0,0,0l0,0s0,0,0,0h0l0,0,0,0s0,0,0,0l0,0a.14.14,0,0,1,0-.07s0,.05,0,0v0a.22.22,0,0,1,0-.08.17.17,0,0,1,0-.07v0h0v-.16a.18.18,0,1,0-.35,0Z" transform="translate(-32.07 -72.96)"/><path class="cls-1" d="M193.81,175.1l.62-.63c.1-.11.21-.22.31-.34l.15-.17.06-.09.05-.07s0,0,0,0,0,0,0,0a.2.2,0,0,0-.14-.25.2.2,0,0,0-.23.17h0a.18.18,0,0,0,.21.19h0l-.11-.36-.05,0-.07,0-.07.07-.17.19-.07.08h0l0,0-.15.16-.61.62a.23.23,0,0,0,0,.33.24.24,0,0,0,.33,0Z" transform="translate(-32.07 -72.96)"/><path class="cls-1" d="M194.74,174.21a3.28,3.28,0,0,0,.46.76,1.85,1.85,0,0,0,.39.3c.17.1.41.22.6.1a.22.22,0,0,0,0-.38h0l0,0-.09-.05-.09,0,0,0s-.07,0,0,0l-.08-.05-.17-.11,0,0s0,.05,0,0l-.06-.07a.81.81,0,0,1-.12-.14l0,0s0,.06,0,0a.56.56,0,0,1-.05-.08l-.18-.35a.26.26,0,0,0-.35-.13.28.28,0,0,0-.14.36Z" transform="translate(-32.07 -72.96)"/><path class="cls-1" d="M195.11,173.68a2.91,2.91,0,0,0,0-.66c0-.21,0-.43,0-.64a5.9,5.9,0,0,0-.06-.59.73.73,0,0,0-.22-.52c-.08-.08-.2,0-.24.08a.39.39,0,0,0,0,.24c0,.09,0,.18,0,.26s0,.39,0,.58,0,.4,0,.6a3.11,3.11,0,0,1,0,.61.27.27,0,0,0,.24.29.28.28,0,0,0,.29-.25Z" transform="translate(-32.07 -72.96)"/><path class="cls-1" d="M193.5,172.45a5.9,5.9,0,0,1,.47.37,1.46,1.46,0,0,0,.24.17,1,1,0,0,0,.17.1l.19,0a.21.21,0,0,0,.21-.12.21.21,0,0,0,0-.23.58.58,0,0,0-.14-.13l-.11-.08-.24-.19-.46-.37a.27.27,0,0,0-.37.07.28.28,0,0,0,.06.38Z" transform="translate(-32.07 -72.96)"/><path class="cls-1" d="M195.41,172.93l.5-.33.23-.16a.86.86,0,0,0,.13-.14.1.1,0,0,0,0-.05.27.27,0,0,0,0-.2.21.21,0,0,0-.2-.18.28.28,0,0,0-.2.06l-.06,0,.06,0c-.16.1-.3.21-.45.31l-.43.28a.35.35,0,0,0-.1.19.33.33,0,0,0,.06.19.32.32,0,0,0,.18.1.29.29,0,0,0,.2-.07Z" transform="translate(-32.07 -72.96)"/><path class="cls-1" d="M194.32,170.06a1.23,1.23,0,0,0-.27.4,1,1,0,0,0,0,.5.78.78,0,0,0,.68.66,1,1,0,0,0,.83-.34,1.14,1.14,0,0,0,.26-.42.62.62,0,0,0-.11-.53.92.92,0,0,0-.51-.28l-.3-.05h-.17l-.2,0a.15.15,0,0,0,0,.28l.25,0,.2,0,.16.05.1,0,0,0,0,0,0,0s0,0,0,0l0,0s0,0,0,0,0,0,0,0,0,0,0,0v0s0,0,0,0v0s0,0,0,0a.3.3,0,0,1,0,.08s0,0,0,0a.27.27,0,0,1-.07.08l0,0h0l-.06.06-.06.05,0,0,0,0s0,0,0,0l-.14.07h0s.05,0,0,0l-.08,0h-.16l-.09,0,0,0,0,0s0,0,0,0a.45.45,0,0,1-.1-.14.8.8,0,0,1,0-.38.25.25,0,0,1,0-.07l0-.06.12-.16a.15.15,0,0,0-.19-.23Z" transform="translate(-32.07 -72.96)"/><path class="cls-1" d="M191.8,200V200a.18.18,0,0,0,.25.13,3.07,3.07,0,0,0,.58-.5l.65-.6c.19-.19.41-.36.6-.56s.42-.39.43-.67a.16.16,0,0,0-.26-.13c-.18.15-.35.32-.52.48l-.58.55-.58.58-.29.3a1.71,1.71,0,0,1-.22.25l.28.06,0,0a.16.16,0,0,0-.31.1Z" transform="translate(-32.07 -72.96)"/><path class="cls-1" d="M193.8,198.57c.11.31.21.63.33.94a2.67,2.67,0,0,0,.51.88.21.21,0,0,0,.35-.22c-.1-.31-.25-.6-.37-.91s-.22-.61-.33-.92a.27.27,0,0,0-.35-.13.29.29,0,0,0-.14.36Z" transform="translate(-32.07 -72.96)"/><path class="cls-1" d="M193.57,195.66c0,.41.05.83.08,1.24a3.94,3.94,0,0,0,.18,1.19.16.16,0,0,0,.3-.05,22.51,22.51,0,0,0-.12-2.46.22.22,0,0,0-.25-.18.24.24,0,0,0-.19.26Z" transform="translate(-32.07 -72.96)"/><path class="cls-1" d="M193.42,196.54h0l0,0a.35.35,0,0,1-.11,0l-.21-.06-.09,0,0,0,0,0h0l-.05,0-.1-.05c-.26-.17-.48-.41-.76-.56a.21.21,0,0,0-.24,0,.22.22,0,0,0-.06.24,2,2,0,0,0,.34.42,2.81,2.81,0,0,0,.44.33,2.61,2.61,0,0,0,1,.36.28.28,0,0,0,.3-.24.28.28,0,0,0-.25-.29Z" transform="translate(-32.07 -72.96)"/><path class="cls-1" d="M194,197.07c.34-.19.68-.38,1-.58a2.53,2.53,0,0,0,.84-.75.15.15,0,0,0-.18-.22c-.32.16-.62.37-.93.55s-.64.35-.95.54a.26.26,0,0,0-.13.34.25.25,0,0,0,.34.12Z" transform="translate(-32.07 -72.96)"/><path class="cls-1" d="M193.11,194.26a1.38,1.38,0,0,0-.18.79.52.52,0,0,0,.32.36.69.69,0,0,0,.47,0,1.49,1.49,0,0,0,.45-.19,1.12,1.12,0,0,0,.38-.34.74.74,0,0,0,.12-.5.66.66,0,0,0-.35-.43,1.18,1.18,0,0,0-.69-.14,1.22,1.22,0,0,0-.62.31.15.15,0,0,0,.16.25l.23-.09.09,0h0l.08,0a.41.41,0,0,1,.19,0h.06s.07,0,0,0l.12,0,.05,0c.06,0,0,0,0,0l.09,0s.05.05,0,0l0,0h0s0,0,0,0,0,0,0,0,0,0,0,0v.05h0v0s0,0,0,0a.06.06,0,0,1,0,0s0,0,0,0,0,0,0,0v0l0,.06,0,0h0l-.05.05-.07.06s-.13.11-.14.1h0l0,0,0,0-.1.05-.08,0h-.06l-.08,0h-.15s0,0,0,0h-.06l0,0s0,0,0,0l0,0v0l0-.05s0,0,0,0,0,0,0,0a1.09,1.09,0,0,1,0-.18,2.47,2.47,0,0,1,.11-.36.08.08,0,0,0-.15-.06Z" transform="translate(-32.07 -72.96)"/><path class="cls-1" d="M169,187.51c.27-.49.52-1,.82-1.45a5.35,5.35,0,0,1,.47-.67,2.28,2.28,0,0,0,.44-.71.13.13,0,0,0-.21-.14,10.25,10.25,0,0,0-1.82,2.76c-.12.21.18.41.3.21Z" transform="translate(-32.07 -72.96)"/><path class="cls-1" d="M170.29,185c.15.44.3.88.47,1.31a4.67,4.67,0,0,0,.65,1.23c.14.19.41,0,.33-.21-.15-.43-.35-.84-.52-1.26s-.32-.85-.47-1.28a.26.26,0,0,0-.33-.12.26.26,0,0,0-.13.33Z" transform="translate(-32.07 -72.96)"/><path class="cls-1" d="M170.25,182.59c.06.46.12.92.14,1.38,0,.23,0,.45,0,.68a5,5,0,0,0,0,.67.19.19,0,0,0,.34.07,1.42,1.42,0,0,0,.14-.7c0-.24,0-.48,0-.72a11.76,11.76,0,0,0-.2-1.45.2.2,0,0,0-.39.07Z" transform="translate(-32.07 -72.96)"/><path class="cls-1" d="M170.42,184l-.14-.11s0,0,0,0l0,0-.06-.06c-.09-.09-.17-.2-.26-.3s-.17-.2-.26-.29-.21-.17-.31-.27-.28,0-.24.16a1.2,1.2,0,0,0,.2.39l.06.08s0,.06,0,0,0,0,0,0a1.64,1.64,0,0,0,.14.22,2,2,0,0,0,.57.6.27.27,0,0,0,.38-.07.27.27,0,0,0-.07-.37Z" transform="translate(-32.07 -72.96)"/><path class="cls-1" d="M170.76,184.34l.54-.48a3.06,3.06,0,0,0,.52-.56.18.18,0,0,0-.23-.27,2.39,2.39,0,0,0-.63.42l-.54.48a.27.27,0,0,0,0,.38.28.28,0,0,0,.38,0Z" transform="translate(-32.07 -72.96)"/><path class="cls-1" d="M169.6,181.43a1.65,1.65,0,0,0,0,.7.65.65,0,0,0,.75.34,1.15,1.15,0,0,0,.8-.61.64.64,0,0,0,.07-.47.59.59,0,0,0-.37-.37,1.52,1.52,0,0,0-.64-.07l-.29,0-.28.07a.18.18,0,0,0,0,.35,1.85,1.85,0,0,0,.47,0h.17l.23,0h0l.11,0h0l0,0,0,0s0,0,0,0v0s0,0,0,0l0,0s0-.06,0,0a.06.06,0,0,0,0,0s0-.05,0,0v0s0,0,0,0a.08.08,0,0,0,0,.05l0,.07s0,0,0,0l0,0-.05.07,0,0s0,0,0,0a.93.93,0,0,1-.15.13h0l-.05,0-.1,0s0,0,0,0h0l-.09,0h-.15c.05,0,0,0,0,0s0,0,0,0l0,0h0s0,0,0,0l0,0v0s0,0,0,0,0,0,0-.06,0,0,0,0v0s0-.05,0-.07v-.07h0v-.13a1,1,0,0,1,0-.17.16.16,0,0,0-.15-.17.17.17,0,0,0-.18.15Z" transform="translate(-32.07 -72.96)"/><path class="cls-1" d="M247.07,201.87c-.31.48-.61,1-.91,1.44-.14.23-.28.47-.43.69s-.4.59-.1.75a.19.19,0,0,0,.24,0c.1-.08.11-.2.17-.3l.2-.31c.14-.22.26-.44.39-.65.26-.46.53-.91.8-1.36.15-.24-.2-.49-.36-.25Z" transform="translate(-32.07 -72.96)"/><path class="cls-1" d="M247,202.25c.2.55.44,1.08.68,1.61.12.27.25.53.37.79a2.37,2.37,0,0,0,.37.61.15.15,0,0,0,.23,0c.14-.22,0-.5-.07-.72s-.25-.53-.38-.8c-.26-.56-.51-1.12-.72-1.69-.12-.31-.6-.09-.48.22Z" transform="translate(-32.07 -72.96)"/><path class="cls-1" d="M246.79,198.27c0,.71.07,1.41.1,2.12a7,7,0,0,0,.21,2.05.21.21,0,0,0,.39-.07c0-.69-.06-1.38-.09-2.07s-.08-1.41-.12-2.12c0-.32-.5-.22-.49.09Z" transform="translate(-32.07 -72.96)"/><path class="cls-1" d="M245.59,199.1a6.54,6.54,0,0,0,.7,1l.37.38.17.17a.91.91,0,0,0,.18.21c.1.08.26,0,.28-.14a.69.69,0,0,0-.23-.51l-.38-.38a7.17,7.17,0,0,1-.74-.91.21.21,0,0,0-.27,0,.2.2,0,0,0-.08.26Z" transform="translate(-32.07 -72.96)"/><path class="cls-1" d="M247.5,200.44c.26-.23.52-.46.8-.68a8.81,8.81,0,0,0,.83-.68.18.18,0,0,0,0-.23.17.17,0,0,0-.22-.07,8.37,8.37,0,0,0-1,.57c-.29.22-.56.45-.83.68a.28.28,0,0,0,0,.38.27.27,0,0,0,.38,0Z" transform="translate(-32.07 -72.96)"/><path class="cls-1" d="M246.25,197.13a1.32,1.32,0,0,0,.05.71.72.72,0,0,0,.78.35,1.13,1.13,0,0,0,.75-.51.67.67,0,0,0,.1-.58.55.55,0,0,0-.36-.34,1.25,1.25,0,0,0-.61-.06l-.27.06a1.92,1.92,0,0,0-.31.11.19.19,0,0,0,0,.35,1.15,1.15,0,0,0,.26,0l.21,0,.2,0s.06,0,0,0h.22l.07,0,.07,0s0,0,0,0h0s0,0,0,0l0,0,0,0s0,0,0,0v0s0,0,0,0,0,0,0,0,0,0,0,0l0,.1s0,0,0,0l0,0,0,.06s0,0,0,.06,0,0,0,0l0,0-.06,0,0,0h0a1,1,0,0,1-.15.07h-.2s-.06,0,0,0l-.06,0h0s0,0,0,0l0,0s0,0,0,0h0l0,0s0,0,0,0,0,0,0,0v0l0-.07s0,0,0,0v0s0,0,0-.07,0-.05,0-.08v0h0v-.16a.18.18,0,0,0-.35,0Z" transform="translate(-32.07 -72.96)"/><path class="cls-1" d="M226.72,196.85c.2-.2.41-.41.61-.63l.32-.34.15-.17.06-.08,0-.07a.11.11,0,0,0,0-.05s0,0,0,0a.19.19,0,0,0-.13-.25.19.19,0,0,0-.23.17h0a.18.18,0,0,0,.2.2h0l-.11-.35s0,0,0,0l-.07,0-.08.07a1.54,1.54,0,0,1-.17.19l-.07.08h0l0,0c-.06,0-.11.11-.16.16-.2.21-.4.42-.61.62a.26.26,0,0,0,0,.34.25.25,0,0,0,.34,0Z" transform="translate(-32.07 -72.96)"/><path class="cls-1" d="M227.65,196a3.28,3.28,0,0,0,.46.76,1.57,1.57,0,0,0,.38.3c.18.1.42.22.61.1a.22.22,0,0,0,0-.38h0s0,0,0,0l-.09,0-.09,0,0,0s-.07,0,0,0l-.08-.05-.17-.11,0,0s0,.05,0,0l-.07-.06-.11-.15,0,0s0,.06,0,0l0-.09a3.84,3.84,0,0,1-.18-.35.29.29,0,0,0-.36-.13.28.28,0,0,0-.13.36Z" transform="translate(-32.07 -72.96)"/><path class="cls-1" d="M228,195.44a2.91,2.91,0,0,0,0-.66c0-.22,0-.43,0-.65s0-.39-.06-.59a.77.77,0,0,0-.22-.52c-.08-.08-.21,0-.24.08a.36.36,0,0,0,0,.25,2.09,2.09,0,0,1,0,.25c0,.2,0,.39,0,.58s0,.4,0,.6a3.11,3.11,0,0,1,0,.61.26.26,0,0,0,.24.29.27.27,0,0,0,.28-.24Z" transform="translate(-32.07 -72.96)"/><path class="cls-1" d="M226.41,194.2c.16.11.31.25.46.37a1.77,1.77,0,0,0,.24.17l.18.1a.4.4,0,0,0,.19,0,.22.22,0,0,0,.21-.12.2.2,0,0,0,0-.23.8.8,0,0,0-.13-.13l-.12-.08-.23-.18c-.15-.13-.3-.26-.46-.38a.28.28,0,0,0-.38.08.28.28,0,0,0,.07.37Z" transform="translate(-32.07 -72.96)"/><path class="cls-1" d="M228.32,194.68l.49-.33a1.88,1.88,0,0,0,.23-.16.93.93,0,0,0,.14-.14l0,0a.29.29,0,0,0,0-.2.22.22,0,0,0-.2-.19.28.28,0,0,0-.2.06l-.07,0,.06,0c-.15.09-.3.2-.45.3l-.43.29a.24.24,0,0,0-.09.18.23.23,0,0,0,.06.19.32.32,0,0,0,.18.1.31.31,0,0,0,.2-.07Z" transform="translate(-32.07 -72.96)"/><path class="cls-1" d="M227.22,191.81a1,1,0,0,0-.3.9.78.78,0,0,0,.68.66,1.1,1.1,0,0,0,1.09-.76.59.59,0,0,0-.1-.53.92.92,0,0,0-.52-.28l-.3-.05h-.17l-.2,0a.15.15,0,0,0,0,.28l.26,0,.19,0,.17.05.09,0h0l0,0,0,0s0,0,0,0,0,0,0,0,0,0,0,0,0,0,0,0,0,0,0,0v0s0,0,0,0v0s0,0,0,0l0,.08,0,0-.06.08,0,0s0,0,0,0l0,.06-.07.05,0,0,0,0s0,0,0,0l-.15.07,0,0c-.05,0,0,0,0,0l-.08,0h-.05a.21.21,0,0,1-.08,0h0l-.1,0,0,0,0,0h0a.42.42,0,0,1-.09-.14.68.68,0,0,1,0-.38.41.41,0,0,1,0-.07.33.33,0,0,1,0-.06,1,1,0,0,1,.12-.16.17.17,0,0,0,0-.21.16.16,0,0,0-.22,0Z" transform="translate(-32.07 -72.96)"/><path class="cls-1" d="M233.15,164v.05a.17.17,0,0,0,.24.13,2.74,2.74,0,0,0,.58-.49l.65-.6c.2-.19.41-.37.6-.56s.42-.4.43-.67a.16.16,0,0,0-.26-.13c-.18.14-.34.32-.52.48l-.58.55c-.19.19-.39.38-.58.58l-.28.3a2.62,2.62,0,0,1-.22.25l.27.06,0,0a.17.17,0,0,0-.32.1Z" transform="translate(-32.07 -72.96)"/><path class="cls-1" d="M235.15,162.64c.11.31.22.63.34.93a2.29,2.29,0,0,0,.51.88.2.2,0,0,0,.34-.21c-.1-.31-.25-.61-.37-.91s-.22-.61-.33-.92a.26.26,0,0,0-.35-.13.28.28,0,0,0-.14.36Z" transform="translate(-32.07 -72.96)"/><path class="cls-1" d="M234.93,159.73c0,.41,0,.83.07,1.24a4.28,4.28,0,0,0,.18,1.19c0,.15.3.1.31,0,0-.83-.06-1.64-.12-2.46a.23.23,0,0,0-.26-.18.22.22,0,0,0-.18.26Z" transform="translate(-32.07 -72.96)"/><path class="cls-1" d="M234.78,160.6h-.07l-.11,0-.21-.06-.09,0-.05,0s-.06,0,0,0h0l0,0-.1-.06c-.27-.17-.49-.4-.76-.55a.21.21,0,0,0-.25,0,.2.2,0,0,0,0,.23,1.37,1.37,0,0,0,.33.42,2.87,2.87,0,0,0,.44.34,3,3,0,0,0,1,.36.27.27,0,0,0,.29-.25.28.28,0,0,0-.24-.29Z" transform="translate(-32.07 -72.96)"/><path class="cls-1" d="M235.4,161.14c.33-.19.67-.38,1-.59a2.52,2.52,0,0,0,.85-.74c.07-.12-.05-.29-.19-.22-.32.16-.61.37-.92.55s-.64.35-.95.54a.26.26,0,0,0-.13.34.26.26,0,0,0,.34.12Z" transform="translate(-32.07 -72.96)"/><path class="cls-1" d="M234.46,158.33a1.29,1.29,0,0,0-.17.79.51.51,0,0,0,.31.36.72.72,0,0,0,.48,0,1.79,1.79,0,0,0,.45-.19,1.2,1.2,0,0,0,.37-.34.71.71,0,0,0,.12-.51.66.66,0,0,0-.35-.43,1.09,1.09,0,0,0-1.3.17.15.15,0,0,0,.16.26l.22-.1.1,0h0l.07,0a.44.44,0,0,1,.2,0h.08l.12,0,.05,0c.06,0,0,0,0,0l.08,0h0l0,0h0s0,0,0,.05,0-.05,0,0v0s0,0,0,0v0s0,0,0,0a0,0,0,0,0,0,0s0,0,0,0,0,0,0,0l0,0a.18.18,0,0,1-.05.07l0,0h0l-.06.06-.06.06s-.14.11-.15.1h0l0,0-.1.05-.08,0s-.06,0,0,0h-.05l-.08,0h-.16l0,0s0,0,0,0l0,0h0l0,0s0,0,0,0,0,0,0,0,0,0,0,0v0a.54.54,0,0,1,0-.18,2.26,2.26,0,0,1,.11-.37c0-.1-.11-.14-.15,0Z" transform="translate(-32.07 -72.96)"/><path class="cls-1" d="M168.67,202.69c.27-.49.52-1,.82-1.46a6.08,6.08,0,0,1,.47-.66,2.28,2.28,0,0,0,.44-.71.13.13,0,0,0-.21-.14,10.25,10.25,0,0,0-1.82,2.76c-.12.2.18.41.3.21Z" transform="translate(-32.07 -72.96)"/><path class="cls-1" d="M169.94,200.17c.15.44.3.88.47,1.31a4.83,4.83,0,0,0,.65,1.23c.14.19.41,0,.33-.21-.15-.43-.35-.84-.52-1.26s-.32-.85-.47-1.28a.25.25,0,0,0-.33-.12.26.26,0,0,0-.13.33Z" transform="translate(-32.07 -72.96)"/><path class="cls-1" d="M169.9,197.77c.06.45.12.92.14,1.38,0,.23,0,.45,0,.68a5,5,0,0,0,0,.67.19.19,0,0,0,.34.07,1.55,1.55,0,0,0,.15-.7c0-.24,0-.48,0-.72a14,14,0,0,0-.19-1.45.2.2,0,0,0-.4.07Z" transform="translate(-32.07 -72.96)"/><path class="cls-1" d="M170.07,199.13l-.14-.11h0s0,0,0,0l-.06-.06-.27-.3a3.58,3.58,0,0,0-.26-.29l-.31-.27c-.09-.08-.27,0-.24.16a1.31,1.31,0,0,0,.2.39l.06.08s0,.05,0,0,0,0,0,0a1.64,1.64,0,0,0,.14.22,2,2,0,0,0,.57.6.28.28,0,0,0,.38-.07.27.27,0,0,0-.07-.37Z" transform="translate(-32.07 -72.96)"/><path class="cls-1" d="M170.41,199.52,171,199a3.06,3.06,0,0,0,.52-.56.18.18,0,0,0-.23-.27,2.39,2.39,0,0,0-.63.42l-.54.48a.27.27,0,1,0,.34.41Z" transform="translate(-32.07 -72.96)"/><path class="cls-1" d="M169.25,196.6a1.69,1.69,0,0,0,0,.71.65.65,0,0,0,.75.34,1.13,1.13,0,0,0,.8-.61.67.67,0,0,0,.07-.48.6.6,0,0,0-.37-.36,1.38,1.38,0,0,0-.64-.07l-.28,0-.29.06a.18.18,0,0,0,0,.36,2.46,2.46,0,0,0,.47,0h.11s0,0,0,0H170l.23,0h.05l.11,0h0l0,0,0,0h0v0s0,0,0,0a.15.15,0,0,0,0,0s0-.06,0,0a.06.06,0,0,0,0,0s0,0,0,0v0s0,0,0,0,0,0,0,0l0,.07s0,0,0,0l0,0-.05.07,0,0s0,0,0,0a.57.57,0,0,1-.15.12s0,0,0,0l0,0-.1,0h0l-.09,0h-.18s0,0,0,0l0,0,0,0h0l0,0v0s0,0,0,0,0,0,0-.06,0,0,0,0v0s0-.05,0-.07v-.21a1,1,0,0,1,0-.17.16.16,0,0,0-.15-.17.17.17,0,0,0-.18.14Z" transform="translate(-32.07 -72.96)"/><path class="cls-1" d="M170.66,116c-.31.48-.61,1-.91,1.44-.14.23-.28.47-.43.69s-.4.59-.1.75a.19.19,0,0,0,.24,0c.1-.08.11-.2.17-.3l.21-.31c.13-.21.25-.43.38-.65.27-.45.53-.91.81-1.36.15-.24-.21-.49-.37-.25Z" transform="translate(-32.07 -72.96)"/><path class="cls-1" d="M170.57,116.36c.2.55.44,1.08.68,1.61l.37.79a2.37,2.37,0,0,0,.37.61.15.15,0,0,0,.23,0c.15-.22,0-.51-.07-.73s-.25-.53-.38-.8c-.26-.56-.5-1.12-.72-1.69-.12-.31-.6-.09-.48.22Z" transform="translate(-32.07 -72.96)"/><path class="cls-1" d="M170.38,112.38c0,.71.08,1.41.1,2.12a7.15,7.15,0,0,0,.21,2.06c.07.18.4.12.39-.07,0-.7-.06-1.39-.09-2.08s-.07-1.41-.12-2.12c0-.32-.5-.22-.49.09Z" transform="translate(-32.07 -72.96)"/><path class="cls-1" d="M169.18,113.21a6.75,6.75,0,0,0,.7,1l.37.38a1.45,1.45,0,0,1,.17.18,1.12,1.12,0,0,0,.18.2c.1.09.27,0,.28-.14a.69.69,0,0,0-.23-.51c-.12-.13-.26-.25-.38-.38a7.17,7.17,0,0,1-.74-.91.21.21,0,0,0-.27,0,.21.21,0,0,0-.08.26Z" transform="translate(-32.07 -72.96)"/><path class="cls-1" d="M171.09,114.55c.26-.23.52-.46.8-.67a8,8,0,0,0,.83-.69.18.18,0,0,0,0-.23.16.16,0,0,0-.22-.06,6.73,6.73,0,0,0-1,.57c-.29.21-.56.44-.83.67a.28.28,0,0,0,0,.38.27.27,0,0,0,.38,0Z" transform="translate(-32.07 -72.96)"/><path class="cls-1" d="M169.84,111.24a1.23,1.23,0,0,0,.06.71.7.7,0,0,0,.77.35,1.13,1.13,0,0,0,.75-.51.71.71,0,0,0,.11-.58.57.57,0,0,0-.37-.34,1.22,1.22,0,0,0-.6-.06,1.27,1.27,0,0,0-.28.06,1.92,1.92,0,0,0-.31.11.19.19,0,0,0,0,.35,1.15,1.15,0,0,0,.26,0l.21,0,.2,0s.06,0,0,0h.21s0,0,0,0l.08,0,.06,0s0,0,0,0h0l0,0s0,0,0,0v0h0s0,0,0,0,0,0,0,0a.3.3,0,0,0,0,.1s0,0,0,0l0,0a.21.21,0,0,0,0,.06s0,.05-.05.06,0,0,0,0l0,0-.07,0,0,0s0,0,0,0-.11,0-.15.07h-.12s.05,0,0,0h-.1l-.06,0h0c.05,0,0,0,0,0l0,0s0,0,0,0h0l0,0s0,0,0,0,0,0,0,0v0l0-.07s0,0,0,0v0s0,0,0-.08a.25.25,0,0,0,0-.08v0h0v-.16a.18.18,0,0,0-.16-.19.18.18,0,0,0-.19.16Z" transform="translate(-32.07 -72.96)"/></svg>