<svg id="Layer_1" data-name="Layer 1" xmlns="http://www.w3.org/2000/svg" viewBox="0 0 115.07 162.37"><defs><style>.cls-1{fill:#486afb;}.cls-2{fill:#fd46fc;}</style></defs><path class="cls-1" d="M2,1.59C2,2.71,2,3.84,2,5s.06,2.25,0,3.36-.49,2.25-.63,3.39A28.16,28.16,0,0,0,1.22,15a53.38,53.38,0,0,1-.54,6.67,51.34,51.34,0,0,0-.45,6.68c0,4.52-.4,9-.15,13.54s.58,9.22.79,13.84.52,9.25.53,13.9-.07,9.34-.09,14c0,9.3-.05,18.61-.23,27.92,0,2.34-.12,4.68-.22,7s.18,4.52.24,6.79c.11,4.44-.36,8.95.18,13.37a18.74,18.74,0,0,0,.7,3.12c.24.76,1.39.32,1.3-.41a97.83,97.83,0,0,1-.41-13.26c0-2.24-.11-4.46-.25-6.7s.06-4.61.11-6.91c.2-9.25,0-18.52-.07-27.77S2.9,68.32,2.34,59.1C2.06,54.52,2,49.93,1.7,45.34c-.15-2.3-.3-4.6-.29-6.91s.24-4.48.34-6.71,0-4.47.18-6.7.54-4.45.73-6.68-.1-4.44.13-6.65c.11-1.09.34-2.17.42-3.27s0-2.25,0-3.36,0-2.25,0-3.37C3.2.92,2,.82,2,1.59Z"/><path class="cls-1" d="M3.49,143.78a40.3,40.3,0,0,0,5.27,0c1.75,0,3.49.13,5.23,0s3.61-.33,5.42-.4,3.53-.2,5.29-.38c3.56-.37,7.14-.05,10.71-.19s7.07-.23,10.61-.27,7.19-.12,10.78-.37,7.28-.42,10.94-.47c7.16-.11,14.34-.09,21.5,0,2,0,4,.13,6,.24s4,.13,6,.23c4,.2,8.09.83,12.1.45a.76.76,0,0,0-.05-1.51c-7.19-.43-14.4-.81-21.61-1-3.49-.1-7,0-10.48,0s-7.26,0-10.88.07c-7.18.09-14.32.78-21.49.93-3.62.07-7.24.07-10.86.2-1.79.07-3.57.15-5.36.15s-3.55,0-5.33,0-3.83.34-5.75.45-4.07.15-6.09.36-3.89.14-5.86.15a57.2,57.2,0,0,1-6,0,.61.61,0,0,0-.12,1.21Z"/><path class="cls-1" d="M110.64.63a39.09,39.09,0,0,0-.3,6.75,9,9,0,0,0,.2,1.37,4.48,4.48,0,0,1,0,1.71c-.21,1.12-.29,2.25-.39,3.38a138,138,0,0,0-.43,14.09c0,2.32,0,4.64-.05,7s.14,4.54.24,6.81.06,4.63.22,6.93.32,4.69.39,7c.14,4.64.08,9.29.08,13.93,0,2.34,0,4.67.06,7a50.68,50.68,0,0,1-.16,6.75c-.13,1.11-.32,2.2-.43,3.31a33.9,33.9,0,0,0-.1,3.49c0,2.3-.11,4.6-.23,6.89-.24,4.64-.14,9.29-.14,13.92,0,9.4.25,18.8.68,28.19.05,1.17.11,2.33.19,3.5,0,.71,1.18.62,1.24-.06a123.21,123.21,0,0,0-.13-14c-.18-4.71-.25-9.42-.26-14.13s0-9.34,0-14c0-2.28.15-4.56.24-6.84s-.09-4.66.12-7,.58-4.42.61-6.67-.09-4.52-.09-6.78c0-4.69,0-9.39,0-14.08,0-2.29-.1-4.58-.23-6.86s-.37-4.69-.43-7-.2-4.54-.33-6.82,0-4.66,0-7c0-4.67-.08-9.36.17-14a55.52,55.52,0,0,1,.58-6.83A5.48,5.48,0,0,0,112,9.11c0-.5-.18-1-.24-1.48a25.12,25.12,0,0,1,0-3.47c0-1.14.15-2.28.31-3.41.13-.93-1.31-1-1.44-.12Z"/><path class="cls-1" d="M3.5,2.15c14.49,0,29,.09,43.48.1s28.81.1,43.21.2c4.09,0,8.17,0,12.25,0s8.14.07,12.16-.27c.66-.06.6-1.08,0-1.13-3.64-.31-7.33-.25-11-.26s-7.16,0-10.74,0C85.64.82,78.43.9,71.22.93Q49.59,1,28,1.07c-8.12,0-16.25.06-24.37.05-.66,0-.77,1-.1,1Z"/><path class="cls-1" d="M35.61,150.91a32.37,32.37,0,0,1,0,5.74c-.07.91-.09,1.82-.14,2.73s-.34,1.65.23,2.32a.83.83,0,0,0,1.18-1.17l0,0a.7.7,0,0,0-.7-.18l-.05,0,1,.57a2.32,2.32,0,0,1,0-.83c.05-.43.06-.86.07-1.29,0-.85.09-1.69.15-2.54a33,33,0,0,0-.06-5.35.86.86,0,0,0-.84-.83c-.41,0-.92.39-.87.85Z"/><path class="cls-1" d="M36,151.23a3.1,3.1,0,0,1,.71-1.67,2.22,2.22,0,0,1,1.31-.36,3.47,3.47,0,0,1,.56,0l.3,0s-.1,0,0,0l.21,0,.28.07.14.05c-.12-.05,0,0,0,0l.21.13,0,0,.11.12c-.13-.14,0,.06,0,.12-.1-.22,0,.23,0,0a2,2,0,0,1,0,.35c0-.15,0,.07,0,.08l-.06.21-.06.16c0,.13.09-.15,0,.05a3.3,3.3,0,0,1-.18.32,3.46,3.46,0,0,1-.22.31c.08-.1,0,0,0,0l-.21.23a21.45,21.45,0,0,1-2,1.73,2.44,2.44,0,0,1-.39.33c.19-.12,0,0-.1.07l-.23.14a.47.47,0,0,0-.12.07c-.12.08.16,0,0,0l-.09,0c-.15.06.16,0,0,0a.51.51,0,0,1,.25.06s-.19-.11,0,0l0,0,0,0c-.12-.15-.14-.17-.06-.08a.57.57,0,0,0-1,0,1.63,1.63,0,0,0-.11.23c.07-.17,0,.06,0,.12a.9.9,0,0,0,0,.56.94.94,0,0,0,.87.57,2.24,2.24,0,0,0,1.35-.52,16.1,16.1,0,0,0,2.33-1.94c.94-1,1.87-2.42,1.22-3.8-.5-1.08-1.93-1.21-3-1.08a4.13,4.13,0,0,0-2,.68A3.83,3.83,0,0,0,35.26,151c-.09.51.67.69.78.19Z"/><path class="cls-1" d="M42.84,150l-.33.3a1,1,0,0,0-.32.55,3,3,0,0,0-.14,1,2.82,2.82,0,0,0,.79,1.62,2.88,2.88,0,0,0,1.45.86,2.48,2.48,0,0,0,.94,0c.21,0-.16,0,0,0a1.65,1.65,0,0,0,.3,0,1.51,1.51,0,0,0,.57-.31,1.49,1.49,0,0,0,.28-.34c.09-.16-.13.13,0,0l.2-.25a2.22,2.22,0,0,0,.36-.78,2.8,2.8,0,0,0-.09-1.62,3.55,3.55,0,0,0-2-2,3.15,3.15,0,0,0-1.68-.28A1.34,1.34,0,0,0,42,150a.62.62,0,0,0,1.06.41s.12-.06,0,0l0,0,.18-.14c.09-.09,0,0-.06,0l.09,0c.08-.07-.2.08-.07,0l.1,0c.14-.06.13-.06,0,0l.08,0c.13-.05-.21,0,0,0h.1a.61.61,0,0,0,.13,0l.41.11.19.07,0,0,.1,0a4.16,4.16,0,0,1,.47.24l.18.11c.15.1-.14-.12,0,0l.08.06a1.21,1.21,0,0,1,.16.16l.09.09.05.06-.06-.07a1.88,1.88,0,0,0,.12.18,1.24,1.24,0,0,0,.1.2s0-.17,0,0l0,.12a2.21,2.21,0,0,0,.05.25c-.06-.14,0-.1,0,0s0,.1,0,.14a.49.49,0,0,0,0,.12c0,.15,0,0,0,0a.84.84,0,0,1-.08.27c0,.16,0,0,0,0s-.06.12-.08.15l-.07.11c-.06.1.13-.14,0,0a1.57,1.57,0,0,0-.17.21l-.08.18c0-.09.06-.12,0-.07s.14-.13,0,0l.07-.05c-.12.07,0,0,.07,0s-.06,0,0,0h-.15a1,1,0,0,1-.23.05s.18,0,0,0h-.19c.12,0-.07,0-.08,0a.45.45,0,0,1-.11,0c-.18,0,.08.05,0,0l-.16-.08a2.09,2.09,0,0,0-.28-.17c.1,0,.08.07,0,0l-.13-.11a2.85,2.85,0,0,1-.23-.26s.08.12,0,0a1.3,1.3,0,0,1-.1-.15l-.06-.1,0-.1c0,.07,0,.09,0,0a1.11,1.11,0,0,1-.08-.3s0,.14,0,0c0,.06,0,.06,0,0l0-.11c0-.15.06-.29.08-.44l-.17.3.43-.4a.67.67,0,0,0,0-1,.71.71,0,0,0-1,0Z"/><path class="cls-1" d="M48.1,152.05a40,40,0,0,1,.23,4.77c0,.77,0,1.53,0,2.3a16,16,0,0,0,0,2.49.77.77,0,0,0,.56.72l.05,0a.59.59,0,0,0,.57-1l0,0a.53.53,0,0,0-.73,0l0,0,.55.94h0a.85.85,0,0,0,.59-.74,43.47,43.47,0,0,0,.18-5,41.61,41.61,0,0,0-.27-5,.79.79,0,0,0-1-.56.85.85,0,0,0-.6,1Z"/><path class="cls-1" d="M49,151.16a2.36,2.36,0,0,1,.38-.74,1.34,1.34,0,0,1,.55-.43,2.28,2.28,0,0,1,.39-.09h.08a1.61,1.61,0,0,1,.22,0c.1,0-.09,0,0,0h.09l.16.05c-.11,0,0,0,0,0l.1.06s-.06-.06,0,0l.12.12s.07.08,0,0,0,0,0,.05l.09.17c0,.07,0,0,0,0l0,.14a3.22,3.22,0,0,1,.08.44,3.81,3.81,0,0,1,0,.48,1.24,1.24,0,0,1-.06.37l-.06.21s0,.07,0,.11,0-.08,0,0a2.8,2.8,0,0,1-.53.79,3,3,0,0,1-.86.59l-.22.09-.2.1a.86.86,0,0,0-.39.45c-.12.3.21.51.46.46a7.34,7.34,0,0,0,.94-.18,3.91,3.91,0,0,0,1.33-.72,3.38,3.38,0,0,0,1.14-2.44,2.79,2.79,0,0,0-1-2.37,2.43,2.43,0,0,0-2.18-.17,3.16,3.16,0,0,0-1.79,2.12.56.56,0,0,0,.39.69.61.61,0,0,0,.72-.41Z"/><path class="cls-1" d="M53.11,151.05a9.3,9.3,0,0,0,1.07,1.8c.18.22.38.43.58.63a1.72,1.72,0,0,0,1.13.57.85.85,0,0,0,.79-.6,1.48,1.48,0,0,0,.08-.59,1.35,1.35,0,0,0,0-.28c0-.12,0,0,0,0s0-.21,0-.26c0-.31,0-.62,0-.92,0-.1,0-.2,0-.31s0-.22,0-.34,0,.19,0,.09,0-.06,0-.08,0-.23,0-.34,0-.05,0-.07,0,.16,0,.07l0-.16c0-.18,0-.22,0-.11s0,0,0,0a.51.51,0,0,0-.22-.44.59.59,0,0,0-.48-.1,1.14,1.14,0,0,0-.78.81,2.55,2.55,0,0,0-.15.86q0,.43,0,.87a5.08,5.08,0,0,0,.07.67.43.43,0,0,0,0,.11c0,.15,0,0,0,0a.41.41,0,0,0,0,.11c0,.17,0-.17,0,0l.79-.6c-.1,0,.09,0,.1,0s.12.07.06,0l-.14-.08c-.08-.05.14.11,0,0a.18.18,0,0,1-.07,0l-.13-.13-.26-.26a1.29,1.29,0,0,1-.16-.17c0-.05-.17-.24,0-.05-.16-.24-.32-.46-.46-.7s-.28-.53-.42-.8a.75.75,0,0,0-1-.26.77.77,0,0,0-.3,1Z"/><path class="cls-1" d="M57.41,147.83c.25,1.58.48,3.17.68,4.77.06.48.09,1,.14,1.44s.24,1.23.85,1.36a.59.59,0,0,0,.71-.7c0,.14,0-.16,0-.23a2.93,2.93,0,0,1-.05-.29c0-.13,0-.4,0-.58,0-.56-.1-1.11-.17-1.67-.21-1.5-.47-3-.76-4.46a.68.68,0,0,0-.83-.47.7.7,0,0,0-.5.83Z"/><path class="cls-1" d="M64.31,149.69a6.65,6.65,0,0,0-1.14-.55,1.35,1.35,0,0,0-1.26.29,4.19,4.19,0,0,0-.41,4.36,1.63,1.63,0,0,0,1.24.66,1.82,1.82,0,0,0,1.24-.53,4.18,4.18,0,0,0,.81-1.19c.1-.19.19-.39.28-.58s.1-.21.14-.31,0,.07,0,.07,0-.06,0,0a.55.55,0,0,1-.3.21h-.37l-.56-.55c.08.31.1.64.16.95a2.22,2.22,0,0,0,.55,1.09,1.83,1.83,0,0,0,.89.49,2.46,2.46,0,0,0,1.08,0,.68.68,0,0,0,.32-1.14,2.7,2.7,0,0,0-.34-.25,2.47,2.47,0,0,0-.46-.15l-.15,0s-.19-.07-.07,0l-.06,0c-.07,0-.07-.05,0,0s0,0,0,0,0,.09,0,0-.09-.16,0,0a2,2,0,0,1-.1-.37,5.82,5.82,0,0,0-.17-.83.84.84,0,0,0-.77-.59c-.59-.06-.89.49-1,1l-.09.22c0-.07,0-.05,0,0a1,1,0,0,1-.07.15,4.59,4.59,0,0,1-.26.49,2.46,2.46,0,0,1-.17.27l0,0-.1.11-.1.09c.08,0,.08,0,0,0l-.12.06c.1,0,.11,0,0,0,.1,0,.11,0,0,0,.1,0,.1,0,0,0s.07,0,0,0,0,0,0,0l-.1-.1c.07.08.08.08,0,0l-.06-.1c0,.08,0,.09,0,0s-.08-.31-.1-.48c0,.16,0-.1,0-.13a1.93,1.93,0,0,1,0-.24,3.41,3.41,0,0,1,.09-1.11l.09-.25c-.05.12,0-.1.06-.12s.05-.07,0,0l.08-.08c-.07.05-.07.05,0,0s-.07,0,0,0h0s0,0,0,0l.23.08c.19.08.38.19.57.28a.62.62,0,0,0,.82-.23.57.57,0,0,0-.21-.8Z"/><path class="cls-1" d="M67.77,146.43c.2,1.33.3,2.67.48,4,.09.64.21,1.26.34,1.89a3.51,3.51,0,0,0,.69,1.77c.35.39,1,0,1-.41a8,8,0,0,0-.23-1.82c-.12-.63-.27-1.25-.38-1.88-.22-1.3-.37-2.61-.61-3.91a.65.65,0,0,0-.8-.45.69.69,0,0,0-.49.8Z"/><path class="cls-1" d="M67,150.35c1,0,2,.06,3,0a17.83,17.83,0,0,0,3-.28.63.63,0,0,0,.47-.68.61.61,0,0,0-.6-.53c-1-.11-1.94-.1-2.9-.15s-1.94-.05-2.91-.07a.89.89,0,0,0-.87.85.83.83,0,0,0,.84.83Z"/><path class="cls-1" d="M73.86,151.94a8.65,8.65,0,0,0,.22,1l.15.48a3,3,0,0,0,.32.61.69.69,0,0,0,.77.32.76.76,0,0,0,.54-.67,5.32,5.32,0,0,0,0-.69c0-.16-.07-.33-.09-.49-.06-.34-.15-.68-.21-1a.8.8,0,0,0-.39-.51.84.84,0,0,0-.64-.07.86.86,0,0,0-.53.4.92.92,0,0,0-.1.63Z"/><path class="cls-1" d="M75,148.9l0-.06-1.22,0A1,1,0,0,0,74,149l.14.11a.24.24,0,0,0,.09,0l.09,0h0l.17,0,.18,0,.17-.07a.49.49,0,0,0,.2-.18.38.38,0,0,0,.09-.15.48.48,0,0,0,0-.17.48.48,0,0,0,0-.17.46.46,0,0,0-.08-.25l0,0a.72.72,0,0,0-.26-.26l-.17-.06h0a.69.69,0,0,0-.35,0,.66.66,0,0,0-.25.13.61.61,0,0,0-.19.2.83.83,0,0,0-.1.34v.07l0,.18a.51.51,0,0,0,.12.23.37.37,0,0,0,.13.12.38.38,0,0,0,.23.11l.17,0,.17,0a.47.47,0,0,0,.24-.13.41.41,0,0,0,.18-.19Z"/><path class="cls-1" d="M77.45,151.14a5.34,5.34,0,0,0,.16,1.69,2.46,2.46,0,0,0,1,1.32,2.58,2.58,0,0,0,2.46.41,2,2,0,0,0,1.44-2.34,3.39,3.39,0,0,0-1.83-1.94,6.18,6.18,0,0,0-1.12-.63,1,1,0,0,0-1.08.26,1.12,1.12,0,0,0-.28,1,.57.57,0,0,0,.54.41.84.84,0,0,0,.41-.11,1,1,0,0,0,.19-.16c.05-.05.12-.07,0,0,.14-.08-.26.06-.25.06-.16,0-.18,0-.08,0s-.19-.09-.09,0l.11.06c.23.14.44.31.68.44s.54.32.8.5-.12-.1,0,0l.1.08.17.15s.17.21.09.09,0,0,0,0l.07.12s0,.07.05.1-.06-.21,0,0a.29.29,0,0,0,0,.09v0c0,.09,0,.07,0-.07,0,0,0,.25,0,.09s0,0,0,0-.07.07,0,0a1,1,0,0,0-.11.17s.14-.16.05-.08l-.07.08-.08.06c-.09.09.07-.05.08-.05s-.15.1-.22.13a.2.2,0,0,1-.08,0c-.07,0-.17,0,0,0l-.18.06-.18,0c.2-.07.14,0,0,0h-.11c-.19,0,.19,0,0,0l-.21-.06-.12,0s.15.07.05,0l-.29-.14-.09-.05s-.19-.14-.09-.06l-.05,0-.11-.1-.07-.08c-.11-.1.1.15,0,0l-.06-.1s-.08-.22,0-.06c0-.12-.08-.24-.11-.36a.5.5,0,0,0,0-.12s0-.19,0-.06c0-.26,0-.51,0-.76a.71.71,0,0,0-.72-.71.76.76,0,0,0-.74.72Z"/><path class="cls-1" d="M84.67,153.8a6.55,6.55,0,0,1,.27-2.07,2.75,2.75,0,0,1,.4-.78c-.09.12,0,0,.07-.07l.16-.16s.16-.12.05-.05l.22-.14.17-.08c-.15.07,0,0,.08,0s.25-.05.08,0h.22s.15,0,.06,0,0,0,0,0,.18.06.06,0l.19.1,0,0,.1.1c.08,0,0-.06,0-.06s0,.06.05.07l.09.17c.07.13,0-.13,0,0L87,151c0,.13.06.25.08.38l0,.2s0,.12,0,0,0,.06,0,.07c0,.43.09.87.12,1.3l.06.7a3.49,3.49,0,0,0,.16.78.68.68,0,0,0,.64.49.71.71,0,0,0,.66-.51,2.88,2.88,0,0,0,.11-.78c0-.23,0-.46,0-.69a15.12,15.12,0,0,0-.13-1.51,3.25,3.25,0,0,0-.76-2,2.2,2.2,0,0,0-2.41-.37,3.21,3.21,0,0,0-1.71,1.78,7.35,7.35,0,0,0-.47,2.94.67.67,0,0,0,.67.67.71.71,0,0,0,.69-.68Z"/><path class="cls-2" d="M29.89,90.37c.21-.2.42-.41.62-.62l.32-.35c.05-.05.09-.11.14-.17l.07-.08a.43.43,0,0,1,0-.07s0,0,0,0,0,0,0,0a.17.17,0,0,0-.13-.24.18.18,0,0,0-.23.16v0a.18.18,0,0,0,.21.19h0l-.1-.35-.05,0-.07,0a.6.6,0,0,0-.08.08l-.17.18-.07.08s0,0,0,0v0l0,0-.15.17-.61.61a.25.25,0,0,0,0,.34.23.23,0,0,0,.33,0Z"/><path class="cls-2" d="M30.83,89.48a2.58,2.58,0,0,0,.46.76,1.57,1.57,0,0,0,.38.3.6.6,0,0,0,.61.1.23.23,0,0,0,.13-.18.26.26,0,0,0-.1-.2s0,0,0,0,0,0,0,0l-.1,0-.08,0-.06,0s-.07,0,0,0-.06,0-.09,0L31.79,90l-.05,0h0l-.06-.07-.12-.15,0,0s0,0,0,0a.56.56,0,0,0-.05-.08c-.06-.12-.12-.24-.17-.36a.28.28,0,0,0-.36-.12.26.26,0,0,0-.13.35Z"/><path class="cls-2" d="M31.19,89a2.91,2.91,0,0,0,0-.66l0-.65-.06-.59a.82.82,0,0,0-.22-.52.16.16,0,0,0-.24.08.42.42,0,0,0,0,.25,1.1,1.1,0,0,1,0,.26c0,.19,0,.38,0,.57s0,.4,0,.6a4.28,4.28,0,0,1,0,.62.25.25,0,0,0,.23.28.27.27,0,0,0,.29-.24Z"/><path class="cls-2" d="M29.59,87.72c.16.12.31.25.46.38l.24.16.18.1a.4.4,0,0,0,.19,0,.21.21,0,0,0,.2-.11.23.23,0,0,0,0-.24.74.74,0,0,0-.13-.12l-.12-.09-.24-.18a5.19,5.19,0,0,0-.45-.37.28.28,0,0,0-.38.07.27.27,0,0,0,.07.37Z"/><path class="cls-2" d="M31.49,88.21c.17-.12.34-.22.5-.34a1.88,1.88,0,0,0,.23-.16,1.85,1.85,0,0,0,.14-.14l0,0a.28.28,0,0,0,0-.2.22.22,0,0,0-.2-.19.36.36,0,0,0-.2.06l-.06,0,.06,0c-.15.09-.3.2-.45.3l-.43.29a.24.24,0,0,0-.09.18.21.21,0,0,0,.06.19.22.22,0,0,0,.18.1.33.33,0,0,0,.19-.06Z"/><path class="cls-2" d="M30.4,85.34a1,1,0,0,0-.26.39,1,1,0,0,0,0,.5.78.78,0,0,0,.68.66,1,1,0,0,0,.83-.33,1.13,1.13,0,0,0,.26-.43.57.57,0,0,0-.11-.53.88.88,0,0,0-.51-.27,1,1,0,0,0-.3,0,.49.49,0,0,0-.17,0,.48.48,0,0,0-.2,0c-.12,0-.11.24,0,.27l.25,0,.2,0,.17,0,.09,0h0l0,0,0,0s0,0,0,0,0,0,0,0,0,0,0,0l0,0s0,0,0,0v0s0,0,0,0,0,0,0,0,0,0,0,0l0,.08,0,0-.06.09,0,0s0,0,0,0l-.05,0-.07,0,0,0,0,0h0l-.15.08h0c-.05,0,0,0,0,0l-.09,0h-.16l-.09,0s0,0,0,0l0,0s0,0,0,0a.49.49,0,0,1-.1-.15.79.79,0,0,1,0-.38.24.24,0,0,0,0-.07.11.11,0,0,1,0-.06.58.58,0,0,1,.11-.15.16.16,0,0,0,0-.22.15.15,0,0,0-.21,0Z"/><path class="cls-2" d="M33.87,77.87v0a.17.17,0,0,0,.25.13,3.35,3.35,0,0,0,.58-.49l.64-.6c.2-.19.41-.37.6-.56s.43-.4.44-.67a.16.16,0,0,0-.26-.13c-.19.15-.35.32-.52.48s-.4.36-.59.55-.39.39-.58.58l-.28.3a2.62,2.62,0,0,1-.22.25l.28.06,0,0a.17.17,0,0,0-.32.1Z"/><path class="cls-2" d="M35.88,76.48c.11.31.21.63.33.93a2.22,2.22,0,0,0,.51.88.2.2,0,0,0,.34-.21c-.09-.31-.25-.6-.37-.91s-.22-.61-.32-.92a.28.28,0,0,0-.36-.13.28.28,0,0,0-.13.36Z"/><path class="cls-2" d="M35.65,73.57c0,.41,0,.83.08,1.24A4.28,4.28,0,0,0,35.9,76a.16.16,0,0,0,.31,0c0-.83-.06-1.64-.12-2.46a.23.23,0,0,0-.26-.18.23.23,0,0,0-.18.26Z"/><path class="cls-2" d="M35.5,74.45s0,0,0,0h-.05l-.12,0-.2-.06-.1,0,0,0,0,0h0l0,0a.27.27,0,0,1-.1-.06c-.26-.16-.49-.4-.76-.55a.21.21,0,0,0-.24,0,.19.19,0,0,0-.06.23,1.26,1.26,0,0,0,.34.42,2.79,2.79,0,0,0,.43.34,2.85,2.85,0,0,0,1,.36.27.27,0,0,0,.29-.25.26.26,0,0,0-.24-.28Z"/><path class="cls-2" d="M36.12,75c.33-.19.67-.38,1-.59a2.52,2.52,0,0,0,.85-.74c.07-.12,0-.29-.19-.22-.31.16-.61.37-.92.55s-.64.35-1,.54a.26.26,0,0,0-.13.34.26.26,0,0,0,.34.12Z"/><path class="cls-2" d="M35.18,72.17A1.37,1.37,0,0,0,35,73a.56.56,0,0,0,.31.36.72.72,0,0,0,.48,0,1.79,1.79,0,0,0,.45-.19,1.09,1.09,0,0,0,.37-.34.67.67,0,0,0,.12-.51.62.62,0,0,0-.34-.42,1.21,1.21,0,0,0-.69-.14,1.29,1.29,0,0,0-.62.3.15.15,0,0,0,.16.26l.23-.1.09,0h0l.08,0a.4.4,0,0,1,.19,0h.06s.06,0,0,0l.11,0,.06,0h0l.08.05s.05,0,0,0l0,0h0s0,0,0,0,0,0,0,0,0,0,0,0v0s0,0,0,0v0s0,0,0,0,0,0,0,0,0,0,0,0h0l0,0a.43.43,0,0,1,0,.07l0,0h0l-.06,0-.06.06-.07,0-.07,0h0l0,0-.1.05-.09,0s-.06,0,0,0h0l-.07,0h-.05s0,0,0,0h-.1s0,0,0,0h-.06l0,0s0,0,0,0l0,0v0a.08.08,0,0,1,0,0s0,0,0,0v0a.55.55,0,0,1,0-.18,2.24,2.24,0,0,1,.1-.37c0-.09-.11-.14-.15,0Z"/><path class="cls-2" d="M45.4,85.39c.27-.49.52-1,.82-1.45a8.12,8.12,0,0,1,.48-.67,2.08,2.08,0,0,0,.43-.71.13.13,0,0,0-.2-.14,5.86,5.86,0,0,0-1,1.3c-.29.48-.54,1-.81,1.46-.11.21.18.41.3.21Z"/><path class="cls-2" d="M46.68,82.87c.15.44.3.88.47,1.31a4.64,4.64,0,0,0,.64,1.23c.15.19.41,0,.34-.21-.15-.43-.36-.83-.53-1.26s-.32-.85-.47-1.27a.24.24,0,0,0-.33-.12.24.24,0,0,0-.12.32Z"/><path class="cls-2" d="M46.64,80.47c.06.46.12.92.14,1.38,0,.23,0,.46,0,.68s0,.45,0,.67a.18.18,0,0,0,.33.07,1.43,1.43,0,0,0,.15-.7c0-.24,0-.48,0-.72A11.76,11.76,0,0,0,47,80.4a.2.2,0,0,0-.39.07Z"/><path class="cls-2" d="M46.81,81.83l-.15-.11s0,0,0,0l0,0-.06-.07a3.58,3.58,0,0,1-.26-.29,3.71,3.71,0,0,0-.27-.29,4,4,0,0,0-.31-.27c-.09-.09-.27,0-.23.15a1.11,1.11,0,0,0,.2.39l0,.08s0,.06,0,0,0,0,0,0l.14.21a2.07,2.07,0,0,0,.58.6.26.26,0,0,0,.37-.07.27.27,0,0,0-.06-.37Z"/><path class="cls-2" d="M47.15,82.22l.54-.48a3.85,3.85,0,0,0,.52-.55.19.19,0,0,0-.23-.28,2.66,2.66,0,0,0-.63.42l-.54.48a.27.27,0,0,0,0,.38.28.28,0,0,0,.38,0Z"/><path class="cls-2" d="M46,79.31a1.5,1.5,0,0,0,0,.7.64.64,0,0,0,.74.34,1.13,1.13,0,0,0,.8-.61.56.56,0,0,0-.3-.84,1.5,1.5,0,0,0-.63-.07l-.29,0-.28.07a.18.18,0,0,0,0,.35,1.93,1.93,0,0,0,.48,0h.17a.81.81,0,0,1,.22,0H47l.1,0s0,0,0,0l0,0,0,0s0,0,0,0h0s0,0,0,0l0,0s0-.06,0,0v0s0-.05,0,0v0s0,0,0,0a.07.07,0,0,0,0,0,.25.25,0,0,1,0,.07s0,0,0,0l0,0-.05.07,0,0s0,0,0,0a.86.86,0,0,1-.14.13s0,0,0,0l0,0-.1,0s0,0,0,0l0,0h-.24c.05,0,0,0,0,0s0,0,0,0l0,0h0s0,0,0,0l0,0h0s0,0,0,0l0-.06s0,0,0,0v0s0,0,0-.07v0s0-.06,0,0V79.5a1,1,0,0,0,0-.17.16.16,0,0,0-.14-.17.17.17,0,0,0-.18.15Z"/><path class="cls-2" d="M52.21,69.72c-.31.48-.61,1-.91,1.44l-.44.69c-.12.19-.4.59-.1.75a.23.23,0,0,0,.25,0c.09-.08.1-.2.17-.3a3.28,3.28,0,0,1,.2-.31l.38-.65c.27-.46.53-.91.81-1.36.15-.24-.21-.49-.36-.25Z"/><path class="cls-2" d="M52.11,70.1c.21.55.44,1.08.69,1.61.12.26.24.53.37.79a2.65,2.65,0,0,0,.36.61.16.16,0,0,0,.24,0,.81.81,0,0,0-.08-.72c-.11-.27-.25-.54-.37-.8-.26-.56-.51-1.12-.73-1.69-.12-.31-.59-.09-.48.22Z"/><path class="cls-2" d="M51.93,66.12c0,.7.07,1.41.1,2.12a6.72,6.72,0,0,0,.21,2.05c.06.19.39.13.39-.07,0-.69-.07-1.38-.1-2.07s-.07-1.41-.11-2.12c0-.32-.51-.22-.49.09Z"/><path class="cls-2" d="M50.72,67a7.37,7.37,0,0,0,.7,1c.12.13.25.25.38.38l.16.17a1.71,1.71,0,0,0,.18.2.18.18,0,0,0,.28-.13A.7.7,0,0,0,52.2,68l-.39-.38a8.16,8.16,0,0,1-.74-.91.2.2,0,0,0-.26,0,.21.21,0,0,0-.09.26Z"/><path class="cls-2" d="M52.63,68.29c.26-.23.53-.46.81-.68a7.58,7.58,0,0,0,.82-.68.19.19,0,0,0,0-.23.18.18,0,0,0-.22-.07,8.5,8.5,0,0,0-1,.57c-.28.22-.55.45-.82.68a.27.27,0,1,0,.34.41Z"/><path class="cls-2" d="M51.39,65a1.28,1.28,0,0,0,0,.7.73.73,0,0,0,.77.36,1.13,1.13,0,0,0,.75-.51.67.67,0,0,0,.11-.58.58.58,0,0,0-.36-.34,1.46,1.46,0,0,0-.89,0,2.22,2.22,0,0,0-.3.11.19.19,0,0,0,0,.35.8.8,0,0,0,.27,0,.69.69,0,0,0,.2,0l.2,0h.24l.08,0,.06,0s0,0,0,0h0s0,0,0,0h0l0,0s0,0,0,0l0,0s0,0,0,0,0,0,0,0,0,0,0,0l0,.1s0,0,0,0l0,0,0,.06a.15.15,0,0,1,0,.06h0l0,0a.18.18,0,0,1-.07,0l0,0h0a.52.52,0,0,1-.15.07H52s-.07,0,0,0l-.07,0h0s0,0,0,0l0,0s0,0,0,0,0,0,0,0l0,0s0,0,0,0l0,0,0-.07s0,0,0,0v0s0,0,0-.07v-.12s0,0,0,0a.86.86,0,0,1,0-.16.18.18,0,0,0-.16-.19.18.18,0,0,0-.19.16Z"/><path class="cls-2" d="M20.53,24c.21-.2.42-.41.62-.62l.32-.35c.05-.05.09-.11.14-.17l.07-.08,0-.07s0,0,0-.05,0,0,0,0a.17.17,0,0,0-.13-.24.18.18,0,0,0-.23.16v0a.18.18,0,0,0,.21.19h0l-.1-.35-.05,0-.07,0a.6.6,0,0,0-.08.08l-.17.18-.07.08h0v0l0,0-.15.17c-.2.21-.4.41-.61.61a.25.25,0,0,0,0,.34.23.23,0,0,0,.33,0Z"/><path class="cls-2" d="M21.47,23.11a2.58,2.58,0,0,0,.46.76,1.57,1.57,0,0,0,.38.3.6.6,0,0,0,.61.1.23.23,0,0,0,.13-.18.26.26,0,0,0-.1-.2s0,0,0,0,0,0,0,0l-.1,0-.08,0-.06,0s-.07,0,0,0-.06,0-.09,0l-.16-.12-.05,0h0l-.06-.07-.12-.15,0,0c0-.05,0,.05,0,0a.56.56,0,0,0-.05-.08c-.06-.12-.12-.24-.17-.36a.28.28,0,0,0-.36-.12.27.27,0,0,0-.13.35Z"/><path class="cls-2" d="M21.83,22.59a2.91,2.91,0,0,0,0-.66l0-.65-.06-.59a.82.82,0,0,0-.22-.52.16.16,0,0,0-.24.08.42.42,0,0,0,0,.25,1.1,1.1,0,0,1,0,.26c0,.19,0,.38,0,.57s0,.4,0,.6a4.28,4.28,0,0,1,0,.62.25.25,0,0,0,.23.28.27.27,0,0,0,.29-.24Z"/><path class="cls-2" d="M20.23,21.35c.16.12.31.25.46.38l.24.17.18.09a.31.31,0,0,0,.19,0,.2.2,0,0,0,.2-.11.23.23,0,0,0,0-.24.74.74,0,0,0-.13-.12l-.12-.09c-.08-.05-.16-.12-.24-.18a5.19,5.19,0,0,0-.45-.37.28.28,0,0,0-.38.07.27.27,0,0,0,.07.37Z"/><path class="cls-2" d="M22.13,21.84c.17-.12.34-.22.5-.34a1.88,1.88,0,0,0,.23-.16l.14-.13,0-.05a.28.28,0,0,0,0-.2.22.22,0,0,0-.2-.19.39.39,0,0,0-.2.06l-.06.05.06,0-.45.3-.43.29a.26.26,0,0,0-.09.18.26.26,0,0,0,.24.29.33.33,0,0,0,.19-.06Z"/><path class="cls-2" d="M21,19a1,1,0,0,0-.26.39,1,1,0,0,0,0,.5.78.78,0,0,0,.68.66,1,1,0,0,0,.83-.33,1.13,1.13,0,0,0,.26-.43.55.55,0,0,0-.11-.52.84.84,0,0,0-.51-.28,1.57,1.57,0,0,0-.3-.05.49.49,0,0,0-.17,0,.48.48,0,0,0-.2,0c-.12,0-.11.24,0,.27l.25.05.2,0,.17.05.09,0h0l0,0,0,0h0l0,0h0s0,0,0,0,0,0,0,0v0s0,0,0,0,0,0,0,0,0,0,0,0l0,.08s0,0,0,0l-.06.09,0,0h0l-.05.05-.07.05,0,0,0,0h0l-.15.08h0c-.05,0,0,0,0,0l-.09,0h-.16l-.09,0s0,0,0,0l0,0s0,0,0,0a.49.49,0,0,1-.1-.15.79.79,0,0,1,0-.38.24.24,0,0,0,0-.07.11.11,0,0,1,0-.06.58.58,0,0,1,.11-.15.16.16,0,0,0,0-.22A.15.15,0,0,0,21,19Z"/><path class="cls-2" d="M16.2,82.14v.06a.18.18,0,0,0,.25.13,3.07,3.07,0,0,0,.58-.5c.22-.19.43-.4.65-.6s.41-.36.6-.56.42-.39.43-.66a.16.16,0,0,0-.26-.14c-.18.15-.35.33-.52.49l-.58.55-.58.58a2.68,2.68,0,0,0-.28.3c-.08.08-.14.17-.22.24l.27.06,0,0a.16.16,0,0,0-.31.1Z"/><path class="cls-2" d="M18.2,80.75c.11.32.22.63.34.94a2.4,2.4,0,0,0,.5.88.21.21,0,0,0,.35-.22c-.1-.31-.25-.6-.37-.9s-.22-.62-.33-.92a.27.27,0,0,0-.35-.13.27.27,0,0,0-.14.35Z"/><path class="cls-2" d="M18,77.84c0,.42.05.83.08,1.25a4,4,0,0,0,.18,1.19c.05.15.3.1.3-.06,0-.82-.06-1.64-.12-2.46a.22.22,0,0,0-.25-.18.25.25,0,0,0-.19.26Z"/><path class="cls-2" d="M17.82,78.72s0,0,0,0h0l-.11,0-.21-.07-.09,0-.05,0s-.06,0,0,0,0,0,0,0l0,0-.1-.06a8.15,8.15,0,0,0-.76-.55.21.21,0,0,0-.24,0,.2.2,0,0,0-.05.24,1.5,1.5,0,0,0,.33.42,2.81,2.81,0,0,0,.44.33,2.61,2.61,0,0,0,1,.36.28.28,0,0,0,.3-.24.28.28,0,0,0-.25-.29Z"/><path class="cls-2" d="M18.44,79.26c.34-.2.68-.38,1-.59a2.53,2.53,0,0,0,.84-.75.15.15,0,0,0-.18-.22c-.32.16-.61.38-.93.55l-.95.54a.26.26,0,0,0,.21.47Z"/><path class="cls-2" d="M17.51,76.45a1.34,1.34,0,0,0-.18.78.54.54,0,0,0,.32.37.75.75,0,0,0,.47,0,1.49,1.49,0,0,0,.45-.19,1.21,1.21,0,0,0,.38-.33.72.72,0,0,0,.11-.51.64.64,0,0,0-.34-.43A1.17,1.17,0,0,0,18,76a1.13,1.13,0,0,0-.62.3.16.16,0,0,0,.16.26l.23-.1.09,0h0l.08,0h.25s.07,0,0,0l.12,0,.05,0h0l.08.06h0l0,0v0s0,0,0,0,0,0,0,0,0,0,0,0v0s0,0,0,0v0c0,.05,0,0,0,0s0,0,0,0,0,0,0,0,0,0,0,0v0l-.05.07,0,0v0s0,0,0,0-.05,0-.06.06l-.07,0-.07.06s-.06,0-.07,0h0l0,0,0,0-.1,0-.08,0s-.06,0,0,0l0,0h-.23s0,0,0,0l0,0h0l0,0s0,0,0,0,0,0,0,0,0,0,0,0l0,0s0,0,0,0,0,0,0,0a.91.91,0,0,1,0-.17,2.26,2.26,0,0,1,.11-.37.08.08,0,1,0-.15,0Z"/><path class="cls-2" d="M35.93,57.22c.27-.48.52-1,.82-1.45.15-.23.31-.45.47-.67a2.11,2.11,0,0,0,.44-.71c0-.11-.1-.23-.2-.14a5.52,5.52,0,0,0-1,1.3c-.29.48-.54,1-.81,1.47-.11.2.18.41.3.2Z"/><path class="cls-2" d="M37.21,54.71c.15.43.3.87.46,1.3a5.05,5.05,0,0,0,.65,1.24c.15.18.41,0,.34-.22-.16-.42-.36-.83-.53-1.25s-.32-.85-.47-1.28a.25.25,0,1,0-.45.21Z"/><path class="cls-2" d="M37.16,52.3a10.75,10.75,0,0,1,.14,1.38c0,.23,0,.46,0,.68s0,.45,0,.67a.18.18,0,0,0,.33.07,1.49,1.49,0,0,0,.15-.7c0-.24,0-.48,0-.72a10.28,10.28,0,0,0-.19-1.45.2.2,0,0,0-.4.07Z"/><path class="cls-2" d="M37.34,53.66c-.06,0-.1-.07-.15-.1s0,0,0,0l0,0-.06-.06-.27-.3a2.35,2.35,0,0,0-.26-.29c-.1-.1-.21-.18-.31-.27s-.27,0-.23.15a1.11,1.11,0,0,0,.2.39.41.41,0,0,0,.05.09s0,0,0,0,0,0,0,0l.14.21a2.07,2.07,0,0,0,.58.6A.26.26,0,0,0,37.4,54a.27.27,0,0,0-.06-.37Z"/><path class="cls-2" d="M37.68,54.05l.54-.48a4.51,4.51,0,0,0,.52-.55.19.19,0,0,0-.23-.28,2.48,2.48,0,0,0-.63.42l-.55.48a.28.28,0,0,0,0,.38.27.27,0,0,0,.38,0Z"/><path class="cls-2" d="M36.52,51.14a1.55,1.55,0,0,0,0,.71.64.64,0,0,0,.75.33,1.12,1.12,0,0,0,.8-.6.68.68,0,0,0,.07-.48.59.59,0,0,0-.37-.37,1.5,1.5,0,0,0-.63-.07l-.29,0a2.3,2.3,0,0,0-.28.06.18.18,0,0,0,0,.35,1.85,1.85,0,0,0,.47,0h.4s.07,0,0,0h0l.1,0s.05,0,0,0l0,0,0,0s0,0,0,0h0s0,0,0,0v0s0-.05,0,0v0s0,0,0,0v0s0,0,0,0l0,0s0,.06,0,.07,0,0,0,0l0,0-.05.07,0,0s0,0,0,0a.64.64,0,0,1-.15.13s0,0,0,0l0,0-.1,0h-.32s0,0,0,0h0l0,0h0l0,0,0,0,0,0,0-.07s0,0,0,0v0a.22.22,0,0,1,0-.08v-.21s0-.11,0-.17a.16.16,0,1,0-.32,0Z"/><path class="cls-2" d="M80,57.45c-.31.47-.61,1-.9,1.44-.15.23-.29.46-.44.68s-.4.59-.1.75a.19.19,0,0,0,.24,0c.1-.08.11-.2.17-.3l.21-.31c.13-.21.25-.43.38-.65.27-.45.53-.9.81-1.35a.22.22,0,0,0-.37-.25Z"/><path class="cls-2" d="M79.91,57.83c.21.54.44,1.08.69,1.6.12.27.24.53.37.8a2,2,0,0,0,.36.6.15.15,0,0,0,.23,0,.77.77,0,0,0-.07-.72c-.12-.28-.25-.54-.38-.81q-.39-.82-.72-1.68c-.12-.32-.6-.09-.48.22Z"/><path class="cls-2" d="M79.73,53.84c0,.71.07,1.42.09,2.12A7.12,7.12,0,0,0,80,58a.2.2,0,0,0,.38-.07c0-.69-.06-1.39-.09-2.08s-.07-1.41-.12-2.11c0-.32-.5-.23-.48.08Z"/><path class="cls-2" d="M78.52,54.68a7.27,7.27,0,0,0,.7,1l.37.38.17.18a1.71,1.71,0,0,0,.18.2.18.18,0,0,0,.28-.13.7.7,0,0,0-.23-.52c-.12-.13-.25-.25-.38-.38a7.08,7.08,0,0,1-.74-.9.2.2,0,0,0-.27,0,.22.22,0,0,0-.08.26Z"/><path class="cls-2" d="M80.43,56c.26-.24.53-.47.8-.68a6.9,6.9,0,0,0,.83-.69.17.17,0,0,0-.19-.29,7.82,7.82,0,0,0-1,.57,9,9,0,0,0-.82.68.26.26,0,0,0,0,.37.28.28,0,0,0,.38,0Z"/><path class="cls-2" d="M79.18,52.71a1.29,1.29,0,0,0,.06.7.71.71,0,0,0,.77.35,1.13,1.13,0,0,0,.75-.51.71.71,0,0,0,.11-.58.6.6,0,0,0-.37-.34,1.36,1.36,0,0,0-.6-.06,2.3,2.3,0,0,0-.28.06l-.3.11a.19.19,0,0,0,0,.35.58.58,0,0,0,.26,0l.21,0a.69.69,0,0,1,.2,0h.23s0,0,0,0l.08,0,.06,0h0l0,0s0,0,0,0l0,0s0,0,0,0,0,0,0,0,0,0,0,0l0,.1s0,0,0,0l0,0,0,.06,0,0h0l0,0-.07.06,0,0h0s-.11.05-.15.07h-.2s-.06,0,0,0l-.07,0,0,0s0,0,0,0l0,0s0,0,0,0h0l0,0s0,.05,0,0v0l0-.06s0,0,0,0v0s0-.05,0-.08a.17.17,0,0,0,0-.07v0h0v-.15a.17.17,0,0,0-.15-.19.19.19,0,0,0-.2.16Z"/><path class="cls-2" d="M70.18,14.44l.61-.63.32-.34.15-.17.06-.09a.16.16,0,0,0,0-.07s0,0,0,0,0,0,0,0a.2.2,0,0,0-.14-.25A.2.2,0,0,0,71,13h0a.18.18,0,0,0,.21.19h0l-.11-.36-.05,0-.07.05a.46.46,0,0,0-.07.07l-.17.19-.08.08h0l0,0s-.1.11-.16.16l-.6.62a.24.24,0,0,0,0,.33.25.25,0,0,0,.34,0Z"/><path class="cls-2" d="M71.11,13.55a3.28,3.28,0,0,0,.46.76,1.68,1.68,0,0,0,.39.3c.17.1.41.22.6.1a.24.24,0,0,0,.13-.18.22.22,0,0,0-.09-.2h0s0,0,0,0l-.09-.05-.09,0,0,0s-.07,0,0,0l-.08,0L72.07,14l0,0s0,.05,0,0L72,13.93a.76.76,0,0,1-.11-.14l0,0h0l0-.08a3.84,3.84,0,0,1-.18-.35.26.26,0,0,0-.35-.13.28.28,0,0,0-.14.36Z"/><path class="cls-2" d="M71.48,13a3.65,3.65,0,0,0,0-.66c0-.21,0-.43,0-.64s0-.39-.06-.59a.73.73,0,0,0-.22-.52c-.08-.08-.2,0-.24.08a.39.39,0,0,0,0,.24,2.35,2.35,0,0,1,0,.26c0,.19,0,.38,0,.58s0,.4,0,.6A2.49,2.49,0,0,1,71,13a.26.26,0,0,0,.24.28.27.27,0,0,0,.29-.24Z"/><path class="cls-2" d="M69.87,11.79c.17.11.31.25.47.37l.23.17.18.09a.41.41,0,0,0,.19,0,.22.22,0,0,0,.21-.12.2.2,0,0,0,0-.23A.8.8,0,0,0,71,12l-.12-.08-.23-.19-.46-.37a.27.27,0,0,0-.37.07.28.28,0,0,0,.06.38Z"/><path class="cls-2" d="M71.78,12.27l.5-.33.22-.16.14-.14,0-.05a.28.28,0,0,0,0-.2.22.22,0,0,0-.2-.18.28.28,0,0,0-.2.06l-.07,0,.06,0-.45.31-.42.28a.27.27,0,0,0-.1.19.33.33,0,0,0,.06.19.26.26,0,0,0,.18.09.28.28,0,0,0,.2-.06Z"/><path class="cls-2" d="M70.69,9.4a1.09,1.09,0,0,0-.27.4,1,1,0,0,0,0,.5.78.78,0,0,0,.68.66,1,1,0,0,0,.82-.34.91.91,0,0,0,.26-.43.57.57,0,0,0-.1-.52.92.92,0,0,0-.52-.28l-.29-.05h-.18l-.2,0a.16.16,0,0,0,0,.28l.26,0,.19.05.17.05.09,0h0l0,0,0,0s0,0,0,0l0,0s0,0,0,0v0s0,0,0,0v0c0,.05,0,0,0,0v0s0-.05,0,0l0,.08s0,0,0,0a.27.27,0,0,1-.07.08l0,0s0,0,0,0l-.06.06-.07.05,0,0,0,0s0,0,0,0l-.15.07h0c-.05,0,0,0,0,0l-.08,0H71l-.1,0,0,0,0,0s0,0,0,0a.33.33,0,0,1-.1-.14.7.7,0,0,1,0-.38.25.25,0,0,1,0-.07l0-.07a1.58,1.58,0,0,1,.12-.15.16.16,0,0,0,0-.21.15.15,0,0,0-.21,0Z"/><path class="cls-2" d="M85.35,25.26v0a.18.18,0,0,0,.25.13,3.86,3.86,0,0,0,.58-.49l.64-.61c.2-.18.41-.36.6-.55s.43-.4.44-.67a.16.16,0,0,0-.26-.13c-.18.14-.35.32-.52.48s-.4.36-.58.55-.4.38-.59.58l-.28.3a2.46,2.46,0,0,1-.22.25l.28.06,0-.05a.17.17,0,0,0-.32.1Z"/><path class="cls-2" d="M87.36,23.87c.11.31.21.62.33.93a2.42,2.42,0,0,0,.51.88.21.21,0,0,0,.34-.22c-.09-.31-.25-.6-.36-.9s-.22-.61-.33-.92a.28.28,0,0,0-.36-.13.29.29,0,0,0-.13.36Z"/><path class="cls-2" d="M87.13,21c0,.42.05.83.08,1.25a4.33,4.33,0,0,0,.17,1.19.16.16,0,0,0,.31-.06c0-.82-.06-1.63-.12-2.45a.22.22,0,0,0-.25-.18.23.23,0,0,0-.19.25Z"/><path class="cls-2" d="M87,21.83h-.06l-.12,0-.2-.07-.1,0,0,0,0,0h0l-.05,0-.1-.06c-.26-.17-.48-.4-.76-.55a.21.21,0,0,0-.24,0,.2.2,0,0,0-.06.24,1.26,1.26,0,0,0,.34.42A2.46,2.46,0,0,0,86,22a3,3,0,0,0,1,.36.28.28,0,0,0,.29-.25.27.27,0,0,0-.24-.29Z"/><path class="cls-2" d="M87.6,22.37c.34-.2.68-.38,1-.59a2.56,2.56,0,0,0,.85-.75c.07-.12,0-.29-.18-.21-.32.16-.62.37-.93.54l-1,.54a.27.27,0,0,0-.13.34.26.26,0,0,0,.34.13Z"/><path class="cls-2" d="M86.67,19.56a1.29,1.29,0,0,0-.18.78.55.55,0,0,0,.31.37.79.79,0,0,0,.48,0,1.51,1.51,0,0,0,.45-.2,1.06,1.06,0,0,0,.37-.33.67.67,0,0,0,.12-.51.64.64,0,0,0-.34-.43,1.17,1.17,0,0,0-.69-.13,1.2,1.2,0,0,0-.62.3.16.16,0,0,0,.16.26l.23-.1.09,0h0l.08,0h.28l.11,0,.06,0c.06,0,0,0,0,0l.09,0h0l0,0h0s0,0,0,0,0,0,0,.05,0-.05,0,0v0s0-.05,0,0v0c0,.05,0,0,0,0a0,0,0,0,1,0,0s0,0,0,0,0,0,0,0v0l-.05.07,0,0h0s0,0,0,0l0,.06-.07.05-.07.06-.07,0,0,0,0,0,0,0-.1.05-.08,0h-.29s0,0,0,0l0,0s0,0,0,0l0,0h0l0,0h0l0-.05s0,0,0,0a.09.09,0,0,1,0-.05.5.5,0,0,1,0-.17,1.58,1.58,0,0,1,.11-.37.08.08,0,1,0-.15-.05Z"/><path class="cls-2" d="M66.6,31c.28-.49.53-1,.82-1.45a6.72,6.72,0,0,1,.48-.67,2.28,2.28,0,0,0,.44-.71.13.13,0,0,0-.21-.14,5.86,5.86,0,0,0-1,1.3c-.28.48-.53,1-.8,1.46-.12.21.18.41.29.21Z"/><path class="cls-2" d="M67.88,28.49c.15.44.3.88.47,1.31A4.67,4.67,0,0,0,69,31c.14.19.4,0,.33-.21-.15-.43-.35-.84-.52-1.26s-.33-.85-.48-1.28a.25.25,0,0,0-.32-.12.26.26,0,0,0-.13.33Z"/><path class="cls-2" d="M67.84,26.09c.06.46.12.92.14,1.38,0,.23,0,.45,0,.68a5,5,0,0,0,0,.67c0,.16.26.2.34.07a1.42,1.42,0,0,0,.14-.7c0-.24,0-.48,0-.72a11.76,11.76,0,0,0-.2-1.45c0-.26-.43-.18-.39.07Z"/><path class="cls-2" d="M68,27.45l-.15-.11h0s0,0,0,0l-.06-.06c-.09-.09-.17-.2-.26-.3s-.17-.2-.26-.29-.21-.17-.31-.27-.28,0-.24.16a1.2,1.2,0,0,0,.2.39L67,27s0,.06,0,0,0,0,0,0a1.64,1.64,0,0,0,.14.22,2,2,0,0,0,.57.6.28.28,0,0,0,.38-.07.27.27,0,0,0-.07-.37Z"/><path class="cls-2" d="M68.35,27.84l.54-.48a3.45,3.45,0,0,0,.52-.56.18.18,0,0,0-.23-.27,2.66,2.66,0,0,0-.63.42l-.54.48a.27.27,0,0,0,0,.38.28.28,0,0,0,.38,0Z"/><path class="cls-2" d="M67.19,24.93a1.65,1.65,0,0,0,0,.7A.64.64,0,0,0,68,26a1.13,1.13,0,0,0,.8-.61.56.56,0,0,0-.3-.84,1.5,1.5,0,0,0-.63-.07l-.29,0-.28.07a.18.18,0,0,0,0,.35,1.93,1.93,0,0,0,.48,0h.17l.22,0s.07,0,0,0h0l.11,0h0l0,0,0,0s0,0,0,0v0s0,0,0,0l0,0s0-.06,0,0a.06.06,0,0,0,0,0s0-.05,0,0v0s0,0,0,0a.43.43,0,0,0,0,.05l0,.07s0,0,0,0l0,0,0,.07,0,0s0,0,0,0a.93.93,0,0,1-.15.13h0l0,0-.1,0s0,0,0,0l0,0h-.24s0,0,0,0,0,0,0,0l0,0h0s0,0,0,0l0,0v0s0,0,0,0l0-.06s0,0,0,0v0s0,0,0-.07v0s0-.06,0,0h0V25a.16.16,0,0,0-.14-.17.17.17,0,0,0-.18.15Z"/><path class="cls-2" d="M42.61,12.89c-.31.47-.61.95-.91,1.44-.14.23-.28.46-.43.68s-.4.59-.1.75a.19.19,0,0,0,.24,0c.1-.08.11-.2.17-.3l.21-.31c.13-.21.25-.43.38-.65.26-.45.53-.91.81-1.35a.22.22,0,0,0-.37-.25Z"/><path class="cls-2" d="M42.52,13.27c.21.54.44,1.07.68,1.6l.38.8a2,2,0,0,0,.36.6.15.15,0,0,0,.23,0,.79.79,0,0,0-.07-.73c-.12-.27-.25-.53-.38-.8-.26-.55-.51-1.11-.72-1.69-.12-.31-.6-.09-.48.23Z"/><path class="cls-2" d="M42.33,9.28c0,.71.08,1.42.1,2.12a7.48,7.48,0,0,0,.21,2.06c.07.19.4.13.39-.07,0-.69-.06-1.39-.09-2.08s-.07-1.41-.12-2.12c0-.31-.5-.22-.49.09Z"/><path class="cls-2" d="M41.13,10.12a7.27,7.27,0,0,0,.7,1l.37.38.17.18a1.71,1.71,0,0,0,.18.2.18.18,0,0,0,.28-.13.7.7,0,0,0-.23-.52l-.38-.38a6.53,6.53,0,0,1-.74-.91.2.2,0,0,0-.27,0,.22.22,0,0,0-.08.26Z"/><path class="cls-2" d="M43,11.45c.26-.23.52-.46.8-.67a8,8,0,0,0,.83-.69.18.18,0,0,0,0-.23.17.17,0,0,0-.22-.06,7.82,7.82,0,0,0-1,.57,9,9,0,0,0-.82.68.26.26,0,0,0,0,.37.27.27,0,0,0,.38,0Z"/><path class="cls-2" d="M41.79,8.15a1.29,1.29,0,0,0,.06.7.71.71,0,0,0,.77.35,1.13,1.13,0,0,0,.75-.51.67.67,0,0,0,.1-.58.53.53,0,0,0-.36-.34,1.36,1.36,0,0,0-.6-.06,2.3,2.3,0,0,0-.28.06l-.3.11a.19.19,0,0,0,0,.35.58.58,0,0,0,.26,0l.21,0a.64.64,0,0,1,.2,0h.24l.08,0,.06,0s-.05,0,0,0h0l0,0h0v0h0s0,0,0,0,0,0,0,0a.42.42,0,0,0,0,.1s0,0,0,0l0,0,0,.06s0,0,0,.05,0,0,0,0l0,0-.07.06,0,0h0s-.11.05-.15.07h-.12s0,0,0,0h-.08s-.06,0,0,0l-.06,0h0s0,0,0,0l0,0s0,0,0,0,0,0,0,0l0,0s0,0,0,0v0l0-.07s0,0,0,0v0s0,0,0-.08,0,0,0-.07v0h0V8.17A.16.16,0,0,0,42,8a.18.18,0,0,0-.19.16Z"/><path class="cls-2" d="M58.41,135.12l.61-.63.32-.35a1.15,1.15,0,0,0,.14-.17.27.27,0,0,0,.07-.08l0-.07a.09.09,0,0,0,0,0s0,0,0,0a.17.17,0,0,0-.13-.24.18.18,0,0,0-.23.17h0a.17.17,0,0,0,.2.19h0l-.11-.36-.05,0-.07,0-.08.08-.17.19-.07.07h0v0l0,0-.16.17-.61.62a.24.24,0,1,0,.31.36Z"/><path class="cls-2" d="M59.34,134.22a2.91,2.91,0,0,0,.46.76,1.91,1.91,0,0,0,.38.31.64.64,0,0,0,.61.1.26.26,0,0,0,.13-.19.22.22,0,0,0-.1-.19h0s0,0,0,0l-.1,0-.08,0-.06,0h0l-.08,0-.17-.12,0,0h0l-.07-.07-.12-.15,0,0h0a.35.35,0,0,0,0-.08c-.06-.12-.12-.23-.17-.35a.27.27,0,0,0-.36-.13.27.27,0,0,0-.13.35Z"/><path class="cls-2" d="M59.7,133.7a2.91,2.91,0,0,0,0-.66c0-.22,0-.43,0-.64l-.06-.59a.85.85,0,0,0-.22-.53.16.16,0,0,0-.24.08.36.36,0,0,0,0,.25,2.17,2.17,0,0,1,0,.26c0,.19,0,.38,0,.57s0,.4,0,.6a2.57,2.57,0,0,1,0,.62.25.25,0,0,0,.24.28.27.27,0,0,0,.28-.24Z"/><path class="cls-2" d="M58.1,132.46c.16.12.31.25.46.38l.24.17.18.09a.31.31,0,0,0,.19,0,.23.23,0,0,0,.21-.11.21.21,0,0,0,0-.23.53.53,0,0,0-.13-.13l-.12-.08-.23-.19c-.16-.12-.3-.26-.46-.37a.27.27,0,1,0-.31.44Z"/><path class="cls-2" d="M60,133c.16-.12.33-.22.49-.33l.23-.17a.86.86,0,0,0,.14-.13l0,0a.35.35,0,0,0,.05-.2.23.23,0,0,0-.21-.18.26.26,0,0,0-.19.05l-.07.05.06,0-.45.31-.43.28a.26.26,0,0,0-.09.18.24.24,0,0,0,.06.2.26.26,0,0,0,.18.09A.36.36,0,0,0,60,133Z"/><path class="cls-2" d="M58.91,130.08a1,1,0,0,0-.26.39,1.07,1.07,0,0,0,0,.5.78.78,0,0,0,.68.66,1,1,0,0,0,.83-.33.91.91,0,0,0,.26-.43.57.57,0,0,0-.1-.52.89.89,0,0,0-.52-.28,1.57,1.57,0,0,0-.3,0,1,1,0,0,0-.17,0,.71.71,0,0,0-.2,0,.15.15,0,0,0,0,.27l.26,0,.19.05.17,0,.09,0h0l0,0,0,0s0,0,0,0l0,.05s0,0,0,0,0,0,0,0,0,0,0,0v0s0,0,0,0,0,0,0,0,0,0,0,0l0,.07,0,0-.06.09,0,0s0,0,0,0a.12.12,0,0,1,0,.05l-.07.06,0,0,0,0h0l-.15.07h0c-.05,0,0,0,0,0l-.08,0h-.17s0,0,0,0l-.09,0s0,0,0,0l0,0s0,0,0,0A.46.46,0,0,1,59,131a.58.58,0,0,1,0-.37.31.31,0,0,1,0-.08l0-.06a.44.44,0,0,1,.12-.15.18.18,0,0,0,0-.22.17.17,0,0,0-.22,0Z"/><path class="cls-2" d="M86.39,108v0a.17.17,0,0,0,.24.13,3,3,0,0,0,.58-.49l.65-.61c.2-.18.41-.36.6-.55s.42-.4.43-.67a.16.16,0,0,0-.26-.13c-.18.14-.34.32-.52.48l-.58.55-.58.58-.28.3a2.62,2.62,0,0,1-.22.25l.27.06,0,0a.17.17,0,0,0-.32.1Z"/><path class="cls-2" d="M88.39,106.65c.11.31.22.62.34.93a2.29,2.29,0,0,0,.51.88.2.2,0,0,0,.34-.21c-.1-.31-.25-.61-.37-.91s-.22-.61-.33-.92a.27.27,0,0,0-.35-.13.28.28,0,0,0-.14.36Z"/><path class="cls-2" d="M88.17,103.73c0,.42,0,.84.07,1.25a4.34,4.34,0,0,0,.18,1.19c0,.15.3.1.31,0,0-.83-.06-1.64-.13-2.46a.21.21,0,0,0-.25-.18.22.22,0,0,0-.18.25Z"/><path class="cls-2" d="M88,104.61H88l-.11,0-.21-.06-.09,0-.05,0,0,0h0l0,0-.1-.06c-.27-.17-.49-.4-.77-.55a.2.2,0,0,0-.29.25,1.37,1.37,0,0,0,.33.42,2.87,2.87,0,0,0,.44.34,3,3,0,0,0,1,.36.28.28,0,0,0,.29-.25.28.28,0,0,0-.24-.29Z"/><path class="cls-2" d="M88.63,105.15c.34-.2.68-.38,1-.59a2.42,2.42,0,0,0,.84-.75.14.14,0,0,0-.18-.21c-.32.16-.61.37-.92.55s-.64.35-1,.54a.26.26,0,0,0-.12.34.25.25,0,0,0,.33.12Z"/><path class="cls-2" d="M87.7,102.34a1.28,1.28,0,0,0-.17.78.5.5,0,0,0,.31.37.76.76,0,0,0,.47,0,1.65,1.65,0,0,0,.45-.19,1.24,1.24,0,0,0,.38-.34.71.71,0,0,0,.12-.51.69.69,0,0,0-.35-.43,1.17,1.17,0,0,0-.69-.13,1.2,1.2,0,0,0-.62.3.16.16,0,0,0,.17.26l.22-.1.09,0s.07,0,0,0h.08a.44.44,0,0,1,.2,0h.08l.12,0,0,0c.06,0,0,0,0,0l.08.05h0s0,0,0,0h0s0,0,0,0,0,0,0,0,0,0,0,0v0s0,0,0,0v0c0,.05,0,0,0,0a0,0,0,0,0,0,0s0,0,0,.05,0,0,0,0l0,0a.18.18,0,0,1-.05.07l0,0h0l-.06.06-.07.06-.07,0s-.06,0-.07,0h0l0,0-.1,0-.08,0s-.06,0,0,0h0l-.08,0h-.14s0,0,0,0l0,0h0l0,0s0,0,0,0l0,0s0,0,0,0,0,0,0,0,0,0,0,0,0,0,0,0a1.09,1.09,0,0,1,0-.18,2.26,2.26,0,0,1,.11-.37.08.08,0,0,0-.15,0Z"/><path class="cls-2" d="M52.66,27.66c.27-.48.52-1,.82-1.45.15-.23.31-.45.48-.67a2,2,0,0,0,.43-.71.13.13,0,0,0-.2-.14,6.1,6.1,0,0,0-1,1.3c-.29.48-.54,1-.81,1.47-.11.2.18.41.3.2Z"/><path class="cls-2" d="M53.94,25.15c.15.44.3.87.47,1.3a4.7,4.7,0,0,0,.64,1.24c.15.18.41,0,.34-.22-.15-.42-.36-.83-.53-1.25s-.32-.85-.47-1.28a.25.25,0,0,0-.33-.12.25.25,0,0,0-.12.33Z"/><path class="cls-2" d="M53.9,22.74c.06.46.12.92.14,1.38,0,.23,0,.46,0,.68s0,.45,0,.67a.18.18,0,0,0,.33.07,1.38,1.38,0,0,0,.15-.7c0-.24,0-.48,0-.71a11.92,11.92,0,0,0-.2-1.46.2.2,0,0,0-.39.07Z"/><path class="cls-2" d="M54.07,24.1l-.15-.1s0,0,0,0l0,0-.06-.06-.26-.3a3.71,3.71,0,0,0-.27-.29L53,23.05c-.09-.09-.27,0-.23.15a1.25,1.25,0,0,0,.2.4.22.22,0,0,1,0,.08s0,.05,0,0,0,0,0,0l.14.21a2.24,2.24,0,0,0,.58.61.27.27,0,0,0,.37-.08.27.27,0,0,0-.06-.37Z"/><path class="cls-2" d="M54.41,24.49,55,24a3.85,3.85,0,0,0,.52-.55.18.18,0,0,0-.23-.27,2.35,2.35,0,0,0-.63.41l-.54.48a.27.27,0,1,0,.34.41Z"/><path class="cls-2" d="M53.25,21.58a1.55,1.55,0,0,0,0,.71.63.63,0,0,0,.74.33,1.12,1.12,0,0,0,.8-.6.63.63,0,0,0,.07-.48.59.59,0,0,0-.37-.37,1.5,1.5,0,0,0-.63-.07l-.29,0a2.3,2.3,0,0,0-.28.06.18.18,0,0,0,0,.36,2.57,2.57,0,0,0,.48,0h.39s.07,0,0,0h0l.1,0s0,0,0,0l0,0,0,0s0,0,0,0h0s0,0,0,0l0,0s0-.06,0,0v0s0,0,0,0v0c0,.05,0,0,0,0a.11.11,0,0,0,0,.05s0,.06,0,.07,0,0,0,0l0,0,0,.07,0,0s0,0,0,0a.86.86,0,0,1-.14.13s0,0,0,0l0,0-.1.05h-.05l-.09,0H53.7s0,0,0,0,0,0,0,0h0l0,0s0,0,0,0l0,0v0s0,0,0,0l0-.07s0,0,0,0v0s0,0,0-.08v0s0-.06,0,0v-.15a.86.86,0,0,0,0-.16.17.17,0,0,0-.14-.18.17.17,0,0,0-.18.15Z"/><path class="cls-2" d="M63.94,45.66c-.31.48-.61,1-.91,1.44-.14.23-.28.46-.43.69s-.41.59-.1.75a.21.21,0,0,0,.24,0c.09-.08.11-.2.17-.3s.13-.21.2-.32l.38-.64.81-1.36c.15-.24-.21-.49-.36-.25Z"/><path class="cls-2" d="M63.84,46c.21.55.44,1.08.69,1.61.12.26.24.53.37.79a2.88,2.88,0,0,0,.36.61.16.16,0,0,0,.24,0c.14-.22,0-.5-.07-.72s-.26-.54-.38-.8c-.26-.56-.51-1.12-.73-1.69-.12-.31-.59-.09-.48.22Z"/><path class="cls-2" d="M63.66,42.06c0,.7.07,1.41.1,2.12a6.72,6.72,0,0,0,.21,2,.21.21,0,0,0,.39-.07c0-.69-.06-1.38-.1-2.07s-.07-1.41-.11-2.12c0-.32-.51-.22-.49.09Z"/><path class="cls-2" d="M62.46,42.89a5.89,5.89,0,0,0,.7,1l.37.38.16.17a1.71,1.71,0,0,0,.18.2.18.18,0,0,0,.28-.13.7.7,0,0,0-.22-.51l-.38-.38a7,7,0,0,1-.74-.91.21.21,0,0,0-.27,0,.2.2,0,0,0-.08.26Z"/><path class="cls-2" d="M64.36,44.23c.26-.23.53-.46.81-.68a9,9,0,0,0,.82-.68.19.19,0,0,0,0-.23.18.18,0,0,0-.22-.07,8.5,8.5,0,0,0-1,.57c-.28.21-.55.45-.82.68a.27.27,0,1,0,.34.41Z"/><path class="cls-2" d="M63.12,40.92a1.28,1.28,0,0,0,.05.7.71.71,0,0,0,.77.35,1,1,0,0,0,.75-.5.67.67,0,0,0,.11-.58.58.58,0,0,0-.36-.34,1.26,1.26,0,0,0-.61-.06,1.4,1.4,0,0,0-.28.06l-.3.1a.2.2,0,0,0,0,.36.8.8,0,0,0,.27,0,1.38,1.38,0,0,0,.2,0l.2,0h.24l.08,0,.06,0s0,0,0,0h0s0,0,0,0,0,0,0,0v0s0,0,0,0,0,0,0,0,0,0,0,0a.36.36,0,0,1,0,.09s0,0,0,0l0,0,0,.06,0,.06s0,0,0,0l0,0-.06.05,0,0s0,0,0,0a.77.77,0,0,1-.16.07h-.21l-.07,0h0s0,0,0,0l0,0s0,0,0,0,0,0,0,0l0,0s0,0,0,0l0,0a.19.19,0,0,1,0-.07s0,0,0,0v0a.17.17,0,0,1,0-.07.22.22,0,0,1,0-.08v0h0V41a.18.18,0,0,0-.16-.19.18.18,0,0,0-.19.16Z"/><path class="cls-2" d="M67.21,76.48c.21-.2.41-.41.61-.62s.22-.23.32-.35l.15-.17.06-.08a.25.25,0,0,0,0-.07l0,0s0,0,0,0a.19.19,0,0,0-.14-.24A.19.19,0,0,0,68,75v0a.18.18,0,0,0,.21.19h0l-.11-.35-.05,0L68,75,68,75l-.17.18-.08.08s0,0,0,0l0,0,0,0-.16.17c-.19.21-.4.41-.6.61a.24.24,0,0,0,0,.34.23.23,0,0,0,.33,0Z"/><path class="cls-2" d="M68.14,75.59a3.08,3.08,0,0,0,.46.76,1.85,1.85,0,0,0,.39.3.6.6,0,0,0,.6.11.26.26,0,0,0,.13-.19.22.22,0,0,0-.09-.2s0,0,0,0l0,0-.09,0-.09,0,0,0s-.07,0,0,0-.06,0-.08,0l-.17-.12,0,0s0,0,0,0A.46.46,0,0,0,69,76l-.11-.15,0,0s0,0,0,0a.35.35,0,0,1,0-.08c-.07-.12-.12-.24-.18-.35a.26.26,0,0,0-.35-.13.27.27,0,0,0-.14.35Z"/><path class="cls-2" d="M68.51,75.07a3.64,3.64,0,0,0,0-.66c0-.22,0-.43,0-.65s0-.39-.06-.59a.73.73,0,0,0-.22-.52c-.08-.07-.2,0-.24.08a.42.42,0,0,0,0,.25c0,.08,0,.17,0,.26s0,.38,0,.57,0,.4,0,.6A3.22,3.22,0,0,1,68,75a.26.26,0,0,0,.24.28.28.28,0,0,0,.29-.24Z"/><path class="cls-2" d="M66.9,73.83c.17.12.31.25.47.38l.23.17.18.09a.32.32,0,0,0,.19,0,.22.22,0,0,0,.21-.11.23.23,0,0,0,0-.24A.55.55,0,0,0,68,74l-.12-.09c-.08,0-.15-.12-.23-.18a5.32,5.32,0,0,0-.46-.37.27.27,0,0,0-.31.44Z"/><path class="cls-2" d="M68.81,74.32c.16-.12.33-.22.5-.34l.22-.16a.86.86,0,0,0,.14-.13l0,0a.28.28,0,0,0,0-.2.23.23,0,0,0-.2-.19.34.34,0,0,0-.2.06l-.06,0,0,0-.44.31-.43.28a.27.27,0,0,0-.1.18.34.34,0,0,0,.06.2.26.26,0,0,0,.18.09.34.34,0,0,0,.2-.06Z"/><path class="cls-2" d="M67.72,71.45a.9.9,0,0,0-.3.89.77.77,0,0,0,.68.66,1.05,1.05,0,0,0,.83-.33,1.1,1.1,0,0,0,.25-.43.57.57,0,0,0-.1-.52.86.86,0,0,0-.52-.28,1.35,1.35,0,0,0-.29,0,.48.48,0,0,0-.17,0,.59.59,0,0,0-.2,0,.14.14,0,0,0,0,.27l.25,0,.19,0,.17,0,.09,0h0l0,0a.05.05,0,0,0,0,0s0,0,0,0l0,0s0,0,0,0v0s0,0,0,0v0s0,0,0,0v0s0,0,0,0a.2.2,0,0,1,0,.08s0,0,0,0l-.07.09,0,0s0,0,0,0l-.06,0-.07.06h0l0,0s0,0,0,0l-.14.08h0c-.05,0,0,0,0,0l-.08,0H68l-.1,0s0,0,0,0l0,0h0a.36.36,0,0,1-.1-.15.68.68,0,0,1,0-.38l0-.07a.33.33,0,0,1,0-.06.61.61,0,0,1,.12-.15.17.17,0,0,0,0-.22.15.15,0,0,0-.21,0Z"/><path class="cls-2" d="M34.63,32v.05a.18.18,0,0,0,.25.13,3.86,3.86,0,0,0,.58-.49l.64-.61c.2-.18.41-.36.6-.55s.43-.4.44-.67a.16.16,0,0,0-.26-.13c-.18.14-.35.32-.52.48s-.4.36-.58.55-.4.38-.59.58l-.28.3a2.46,2.46,0,0,1-.22.25L35,32l0,0a.17.17,0,0,0-.32.1Z"/><path class="cls-2" d="M36.64,30.65c.11.31.21.62.33.93a2.42,2.42,0,0,0,.51.88.2.2,0,0,0,.34-.21c-.09-.31-.25-.61-.36-.91s-.22-.61-.33-.92a.28.28,0,0,0-.36-.13.29.29,0,0,0-.13.36Z"/><path class="cls-2" d="M36.41,27.73c0,.42.05.84.08,1.25a4.33,4.33,0,0,0,.17,1.19.16.16,0,0,0,.31-.05c0-.83-.06-1.64-.12-2.46a.22.22,0,0,0-.25-.18.23.23,0,0,0-.19.25Z"/><path class="cls-2" d="M36.26,28.61H36.2l-.12,0-.2-.07-.1,0,0,0,0,0h0l0,0-.1-.06c-.26-.17-.48-.4-.76-.55a.21.21,0,0,0-.24,0,.2.2,0,0,0-.06.24,1.26,1.26,0,0,0,.34.42,2.46,2.46,0,0,0,.44.34,3,3,0,0,0,1,.36.27.27,0,0,0,0-.54Z"/><path class="cls-2" d="M36.88,29.15c.33-.2.68-.38,1-.59a2.56,2.56,0,0,0,.85-.75.14.14,0,0,0-.18-.21c-.32.16-.62.37-.93.55s-.64.35-.95.54a.25.25,0,1,0,.21.46Z"/><path class="cls-2" d="M36,26.34a1.29,1.29,0,0,0-.18.78.55.55,0,0,0,.31.37.79.79,0,0,0,.48,0,1.79,1.79,0,0,0,.45-.19,1.2,1.2,0,0,0,.37-.34.67.67,0,0,0,.12-.51.64.64,0,0,0-.34-.43,1.17,1.17,0,0,0-.69-.13,1.2,1.2,0,0,0-.62.3.15.15,0,0,0,.16.26l.23-.1.09,0s.06,0,0,0l.08,0a.6.6,0,0,1,.19,0h.09l.11,0,.06,0c.06,0,0,0,0,0l.09.05s0,.05,0,0l0,0h0s0,0,0,0,0,0,0,.05,0-.05,0,0v0c0,.05,0,0,0,0v0s0,0,0,0a0,0,0,0,1,0,0s0,0,0,.05,0,0,0,0v0l0,.07,0,0h0s0,0,0,0l-.05.06-.07.06-.07,0-.07.05h0l0,0-.1.05-.08,0s-.06,0,0,0h-.27s0,0,0,0l0,0s0,0,0,0l0,0h0l0,0s0,0,0,0L36,27s0,0,0,0a.09.09,0,0,1,0-.05.5.5,0,0,1,0-.17,1.58,1.58,0,0,1,.11-.37.08.08,0,1,0-.15-.05Z"/><path class="cls-2" d="M61,110.76c.27-.48.52-1,.82-1.45a7.37,7.37,0,0,1,.47-.67,2,2,0,0,0,.44-.71c0-.11-.1-.23-.2-.14a5.84,5.84,0,0,0-1,1.3c-.28.48-.53,1-.8,1.47-.12.2.18.41.3.2Z"/><path class="cls-2" d="M62.3,108.25c.15.44.3.87.47,1.3a4.73,4.73,0,0,0,.65,1.24c.14.18.41,0,.33-.22-.15-.42-.35-.83-.52-1.25s-.32-.85-.47-1.28a.25.25,0,0,0-.33-.12.26.26,0,0,0-.13.33Z"/><path class="cls-2" d="M62.26,105.84a12.83,12.83,0,0,1,.14,1.39c0,.22,0,.45,0,.68s0,.44,0,.66a.19.19,0,0,0,.34.07,1.49,1.49,0,0,0,.15-.7c0-.24,0-.48,0-.71a14.21,14.21,0,0,0-.19-1.46.2.2,0,0,0-.4.07Z"/><path class="cls-2" d="M62.43,107.2a.71.71,0,0,1-.14-.1s0,0,0,0l0,0L62.2,107l-.27-.3a3.58,3.58,0,0,0-.26-.29l-.31-.27c-.09-.09-.27,0-.24.15a1.87,1.87,0,0,0,.2.4l.06.08s0,0,0,0,0,0,0,0l.14.21a2.24,2.24,0,0,0,.58.61.27.27,0,0,0,.3-.45Z"/><path class="cls-2" d="M62.77,107.59l.54-.48a3.36,3.36,0,0,0,.52-.55.18.18,0,0,0-.23-.27,2.17,2.17,0,0,0-.63.42l-.54.48a.27.27,0,0,0,0,.37.26.26,0,0,0,.37,0Z"/><path class="cls-2" d="M61.62,104.68a1.55,1.55,0,0,0,0,.71.64.64,0,0,0,.75.33,1.12,1.12,0,0,0,.8-.6.68.68,0,0,0,.07-.48.58.58,0,0,0-.37-.36,1.36,1.36,0,0,0-.63-.08l-.29,0c-.1,0-.19,0-.29.06a.18.18,0,0,0,0,.36,2.46,2.46,0,0,0,.47,0h.4s.07,0,0,0h0l.1,0h0l0,0,0,0h0s0,0,0,0v0s0-.06,0,0v0s0,0,0,0v0c0,.05,0,0,0,0s0,0,0,0l0,.08s0,0,0,0v0a.35.35,0,0,0,0,.08.08.08,0,0,0,0,0s0,0,0,0a.57.57,0,0,1-.15.12s0,0,0,0l0,0-.09.05h0l-.09,0H62s0,0,0,0h0l0,0s0,0,0,0v0l0,0s0,0,0,0,0-.05,0-.07,0,0,0,0v0s0,0,0-.08v-.21a.86.86,0,0,1,0-.16.17.17,0,0,0-.15-.18.16.16,0,0,0-.17.15Z"/><path class="cls-2" d="M48,40.29l-.9,1.44-.44.69c-.12.18-.4.59-.1.75a.21.21,0,0,0,.24,0c.1-.08.11-.2.17-.3l.21-.32.38-.64c.27-.46.53-.91.81-1.36.15-.24-.21-.49-.37-.25Z"/><path class="cls-2" d="M47.89,40.67c.21.55.44,1.08.69,1.61.12.26.24.53.37.79a2.51,2.51,0,0,0,.36.61.16.16,0,0,0,.24,0,.81.81,0,0,0-.08-.72c-.12-.27-.25-.54-.38-.8-.25-.56-.5-1.12-.72-1.69-.12-.31-.6-.09-.48.22Z"/><path class="cls-2" d="M47.71,36.69c0,.7.07,1.41.1,2.12a6.72,6.72,0,0,0,.21,2,.2.2,0,0,0,.38-.07c0-.69-.06-1.38-.09-2.07s-.07-1.41-.12-2.12c0-.32-.5-.22-.48.09Z"/><path class="cls-2" d="M46.5,37.52a7.37,7.37,0,0,0,.7,1l.37.38a1.37,1.37,0,0,1,.17.17,1.71,1.71,0,0,0,.18.2.18.18,0,0,0,.28-.13.68.68,0,0,0-.23-.51c-.12-.13-.25-.25-.38-.38a7.17,7.17,0,0,1-.74-.91.21.21,0,0,0-.27,0,.22.22,0,0,0-.08.26Z"/><path class="cls-2" d="M48.41,38.86l.8-.68A6.83,6.83,0,0,0,50,37.5a.17.17,0,0,0,0-.23.16.16,0,0,0-.21-.07,8.5,8.5,0,0,0-1,.57c-.29.22-.56.45-.82.68a.27.27,0,0,0,0,.38.28.28,0,0,0,.38,0Z"/><path class="cls-2" d="M47.17,35.55a1.19,1.19,0,0,0,0,.7.73.73,0,0,0,.77.36,1.13,1.13,0,0,0,.75-.51.71.71,0,0,0,.11-.58.58.58,0,0,0-.36-.34,1.46,1.46,0,0,0-.89,0l-.3.1a.2.2,0,0,0,0,.36.76.76,0,0,0,.26,0l.21,0,.2,0h.24l.08,0,.06,0s0,0,0,0h0s0,0,0,0h0l0,0s0,0,0,0l0,0c0-.05,0,0,0,0s0,0,0,0,0,0,0,0l0,.09s0,0,0,0l0,0,0,.06a.15.15,0,0,1-.05.06c.05,0,0,0,0,0l0,0a.18.18,0,0,1-.07,0l0,0h0a.69.69,0,0,1-.15.07h-.21l-.07,0h0s0,0,0,0l0,0s0,0,0,0h0a0,0,0,0,0,0,0s0,0,0,0l0,0,0-.07s0,.05,0,0v0a.17.17,0,0,0,0-.07.22.22,0,0,0,0-.08v0h0v-.16a.17.17,0,1,0-.34,0Z"/><path class="cls-2" d="M92.31,45.25c.2-.2.41-.41.61-.63l.32-.34a1.15,1.15,0,0,0,.14-.17l.07-.08s0-.05,0-.08a.06.06,0,0,0,0,0s0,0,0,0a.19.19,0,0,0-.13-.25.19.19,0,0,0-.23.17h0a.18.18,0,0,0,.2.2h0l-.11-.35s0,0,0,0l-.07,0a.27.27,0,0,0-.07.08l-.18.18-.07.08h0v0l0,0c0,.06-.11.11-.16.16-.2.21-.4.42-.61.62a.24.24,0,1,0,.31.36Z"/><path class="cls-2" d="M93.24,44.36a3.28,3.28,0,0,0,.46.76,1.57,1.57,0,0,0,.38.3c.18.1.42.22.61.1a.22.22,0,0,0,0-.38h0s0,0,0,0l-.09,0-.09,0-.05,0s-.07,0,0,0l-.08,0-.17-.12,0,0s0,0,0,0l-.07-.07L94,44.6l0,0c0-.05,0,.06,0,0l0-.08c-.07-.12-.12-.24-.18-.36a.28.28,0,0,0-.35-.13.28.28,0,0,0-.14.36Z"/><path class="cls-2" d="M93.6,43.84a2.91,2.91,0,0,0,0-.66c0-.22,0-.43,0-.65l-.06-.59a.82.82,0,0,0-.22-.52c-.08-.07-.2,0-.24.08a.36.36,0,0,0,0,.25,2.09,2.09,0,0,1,0,.25c0,.2,0,.39,0,.58s0,.4,0,.6a2.49,2.49,0,0,1,0,.61.26.26,0,0,0,.24.29.27.27,0,0,0,.28-.24Z"/><path class="cls-2" d="M92,42.6c.16.11.31.25.47.37a1.24,1.24,0,0,0,.23.17l.18.1a.58.58,0,0,0,.19,0,.21.21,0,0,0,.18-.35l-.13-.13L93,42.71l-.23-.18a5.32,5.32,0,0,0-.46-.37.26.26,0,0,0-.37.07.27.27,0,0,0,.06.37Z"/><path class="cls-2" d="M93.91,43.08l.49-.33a1.88,1.88,0,0,0,.23-.16.93.93,0,0,0,.14-.14l0,0a.36.36,0,0,0,0-.2.23.23,0,0,0-.2-.19.28.28,0,0,0-.2.06l-.07,0,.06,0-.45.3-.42.29a.25.25,0,0,0-.1.18.27.27,0,0,0,.06.19.32.32,0,0,0,.18.1.29.29,0,0,0,.2-.07Z"/><path class="cls-2" d="M92.81,40.21a1.31,1.31,0,0,0-.26.4,1.07,1.07,0,0,0,0,.5.78.78,0,0,0,.68.66,1,1,0,0,0,.83-.34.93.93,0,0,0,.26-.42.59.59,0,0,0-.1-.53.85.85,0,0,0-.52-.27,1.45,1.45,0,0,0-.3-.06h-.17l-.2,0a.15.15,0,0,0,0,.28l.26,0,.19.05.17,0,.09,0,0,0,0,0,0,0s0,0,0,0l0,0s0,0,0,0v0s0,0,0,0v0s0,0,0,0v0s0,0,0,0l0,.08s0,0,0,0a.47.47,0,0,1-.06.09l0,0h0l0,0a.18.18,0,0,1-.07.05l0,0,0,0s0,0,0,0l-.15.07,0,0s0,0,0,0l-.08,0h0s0,0,0,0h-.11l-.1,0,0,0,0,0h0a.42.42,0,0,1-.09-.14.6.6,0,0,1,0-.38l0-.07,0-.06a.61.61,0,0,1,.12-.16.17.17,0,0,0,0-.21.16.16,0,0,0-.22,0Z"/><path class="cls-2" d="M13.41,61V61a.17.17,0,0,0,.24.12,3,3,0,0,0,.58-.49l.65-.6c.2-.19.41-.36.6-.56s.42-.4.43-.67a.16.16,0,0,0-.26-.13c-.18.15-.34.32-.52.48l-.58.55-.58.58-.28.3a2.62,2.62,0,0,1-.22.25l.27.06,0,0a.17.17,0,0,0-.31.1Z"/><path class="cls-2" d="M15.41,59.56c.11.31.22.63.34.94a2.36,2.36,0,0,0,.51.88.21.21,0,0,0,.34-.22c-.1-.31-.25-.6-.37-.91s-.22-.61-.33-.92a.26.26,0,0,0-.35-.12.27.27,0,0,0-.14.35Z"/><path class="cls-2" d="M15.19,56.65c0,.41,0,.83.07,1.24a4.28,4.28,0,0,0,.18,1.19.16.16,0,0,0,.31,0c0-.83-.06-1.64-.13-2.46a.21.21,0,0,0-.25-.18.23.23,0,0,0-.18.26Z"/><path class="cls-2" d="M15,57.53h0l0,0-.11,0-.21-.07-.09,0-.05,0,0,0h0l0,0-.1-.06c-.27-.17-.49-.41-.77-.56a.21.21,0,0,0-.24,0,.2.2,0,0,0-.05.23,1.54,1.54,0,0,0,.33.43,3.61,3.61,0,0,0,.44.33,2.8,2.8,0,0,0,1,.36.28.28,0,0,0,.3-.24.28.28,0,0,0-.24-.29Z"/><path class="cls-2" d="M15.65,58.06c.34-.19.68-.38,1-.59a2.39,2.39,0,0,0,.84-.74.15.15,0,0,0-.18-.22c-.32.16-.61.37-.92.55s-.64.35-1,.54a.26.26,0,0,0-.12.34.24.24,0,0,0,.33.12Z"/><path class="cls-2" d="M14.72,55.25a1.29,1.29,0,0,0-.17.79.49.49,0,0,0,.31.36.69.69,0,0,0,.47,0,1.49,1.49,0,0,0,.45-.19,1.12,1.12,0,0,0,.38-.34.69.69,0,0,0,.12-.5.66.66,0,0,0-.35-.43,1.26,1.26,0,0,0-.69-.14,1.22,1.22,0,0,0-.62.31.15.15,0,0,0,.17.25l.22-.09.09,0h0l.08,0a.44.44,0,0,1,.2,0h.08l.12,0,.05,0c.06,0,0,0,0,0l.08.05h0l0,0h0s0,0,0,0a.11.11,0,0,1,0,0s0,0,0,0v0s0,0,0,0v0s0,0,0,0a.06.06,0,0,0,0,0,.05.05,0,0,0,0,0h0l0,0-.05.06,0,0h0s0,0,0,0l-.06.05-.07.06-.07.06-.07,0h0l0,0-.05,0-.1,0-.08,0s-.06,0,0,0h-.05l-.08,0h0s0,0,0,0H15s0,0,0,0h-.06l0,0s0,0,0,0l0,0s0,0,0,0a.08.08,0,0,1,0-.05s0,0,0,0a.06.06,0,0,0,0,0,1.09,1.09,0,0,1,0-.18,3,3,0,0,1,.11-.37c0-.09-.11-.14-.15,0Z"/><path class="cls-2" d="M86.24,73.2c.28-.48.52-1,.82-1.45.15-.23.31-.45.48-.67a2,2,0,0,0,.43-.7c0-.12-.1-.24-.2-.14a5.64,5.64,0,0,0-1,1.3c-.29.48-.54,1-.81,1.46-.11.2.19.41.3.2Z"/><path class="cls-2" d="M87.52,70.69c.15.44.3.88.47,1.31a4.8,4.8,0,0,0,.64,1.23c.15.19.41,0,.34-.21-.15-.43-.36-.84-.53-1.26s-.32-.85-.47-1.28a.25.25,0,0,0-.33-.12.25.25,0,0,0-.12.33Z"/><path class="cls-2" d="M87.48,68.29c.06.45.12.92.14,1.38,0,.22,0,.45,0,.68a4.85,4.85,0,0,0,0,.66.19.19,0,0,0,.33.08,1.43,1.43,0,0,0,.15-.7c0-.24,0-.48,0-.72a11.76,11.76,0,0,0-.2-1.45.2.2,0,0,0-.39.07Z"/><path class="cls-2" d="M87.65,69.65l-.15-.11s0,0,0,0,0,0,0,0l-.06-.06-.26-.3a3.71,3.71,0,0,0-.27-.29l-.31-.27c-.09-.08-.27,0-.23.15a1.25,1.25,0,0,0,.2.4.35.35,0,0,1,0,.08s0,0,0,0,0,0,0,0l.13.22a2.07,2.07,0,0,0,.58.6.28.28,0,0,0,.37-.07.27.27,0,0,0-.06-.37Z"/><path class="cls-2" d="M88,70l.54-.48a3,3,0,0,0,.52-.55.19.19,0,0,0-.23-.27,2.39,2.39,0,0,0-.63.42l-.54.48a.26.26,0,0,0,0,.37A.27.27,0,0,0,88,70Z"/><path class="cls-2" d="M86.83,67.12a1.55,1.55,0,0,0,0,.71.63.63,0,0,0,.74.33,1.1,1.1,0,0,0,.8-.6.62.62,0,0,0,.07-.48.58.58,0,0,0-.37-.36,1.35,1.35,0,0,0-.63-.07,2.85,2.85,0,0,0-.29,0l-.28.06a.18.18,0,0,0,0,.36,2.57,2.57,0,0,0,.48,0h.17a.82.82,0,0,1,.22,0s.07,0,0,0h0l.1,0s0,0,0,0l0,0,0,0s0,0,0,0l0,0s0,0,0,0l0,0s0-.06,0,0a.06.06,0,0,0,0,0s0,0,0,0v0s0,0,0,0a.43.43,0,0,1,0,0,.2.2,0,0,1,0,.08h0l0,0a.35.35,0,0,1,0,.08l0,0h0a.41.41,0,0,1-.14.12h0l0,0-.1,0h0l-.09,0h-.15c.06,0,0,0,0,0s0,0,0,0l0,0,0,0s0,0,0,0l0,0v0l0-.06s0,0,0,0v0s0,0,0-.08v0s0,0,0,0v-.15a.86.86,0,0,0,0-.16A.15.15,0,0,0,87,67a.17.17,0,0,0-.18.14Z"/><path class="cls-2" d="M39,111.07c-.31.47-.61,1-.91,1.44-.14.23-.28.46-.43.68s-.4.59-.1.75a.19.19,0,0,0,.24,0c.1-.08.11-.2.17-.3l.2-.31c.14-.21.26-.43.39-.65.26-.45.53-.91.81-1.35.14-.25-.21-.5-.37-.25Z"/><path class="cls-2" d="M39,111.45c.2.54.44,1.07.68,1.6l.37.79a2.21,2.21,0,0,0,.37.61.15.15,0,0,0,.23,0,.79.79,0,0,0-.07-.73c-.12-.27-.25-.53-.38-.8-.26-.55-.51-1.11-.72-1.69-.12-.31-.6-.09-.48.23Z"/><path class="cls-2" d="M38.76,107.46c0,.71.08,1.41.1,2.12a7.15,7.15,0,0,0,.21,2.06.21.21,0,0,0,.39-.07c0-.69-.06-1.39-.09-2.08s-.08-1.41-.12-2.12c0-.32-.5-.22-.49.09Z"/><path class="cls-2" d="M37.56,108.3a7.27,7.27,0,0,0,.7,1l.37.38a1.45,1.45,0,0,1,.17.18,1.12,1.12,0,0,0,.18.2c.1.09.26,0,.28-.13a.7.7,0,0,0-.23-.52l-.38-.38a6.53,6.53,0,0,1-.74-.91.2.2,0,0,0-.27,0,.21.21,0,0,0-.08.26Z"/><path class="cls-2" d="M39.47,109.63c.26-.23.52-.46.8-.67a9.2,9.2,0,0,0,.83-.69.18.18,0,0,0,0-.23.17.17,0,0,0-.22-.06,7.14,7.14,0,0,0-1,.57,10.7,10.7,0,0,0-.83.68.27.27,0,0,0,0,.37.27.27,0,0,0,.38,0Z"/><path class="cls-2" d="M38.22,106.33a1.2,1.2,0,0,0,.06.7.7.7,0,0,0,.77.35,1.13,1.13,0,0,0,.75-.51.67.67,0,0,0,.1-.58.55.55,0,0,0-.36-.34,1.39,1.39,0,0,0-.61-.06l-.27.06-.31.11a.19.19,0,0,0,0,.35.77.77,0,0,0,.26,0l.21,0,.2,0s.06,0,0,0h.21s0,0,0,0l.07,0,.07,0s-.05,0,0,0h0l0,0s0,0,0,0v0h0s0,0,0,0,0,0,0,0a.42.42,0,0,0,0,.1s0,0,0,0l0,0,0,.06s0,0-.05,0h0l0,0-.07.06,0,0s0,0,0,0-.11.05-.15.07h-.12s0,0,0,0h-.1l-.06,0h0s0,0,0,0l0,0s0,0,0,0,0,0,0,0l0,0s0,0,0,0v0l0-.07s0,.05,0,0v0s0,0,0-.08,0,0,0-.07v0h0v-.16a.18.18,0,0,0-.16-.19.19.19,0,0,0-.19.17Z"/><path class="cls-2" d="M43.78,102.14l.62-.63.32-.34a2.09,2.09,0,0,0,.14-.17l.07-.09a.43.43,0,0,0,0-.07.07.07,0,0,0,0,0s0,0,0,0a.19.19,0,0,0-.13-.25.19.19,0,0,0-.23.17h0a.18.18,0,0,0,.21.19h0l-.11-.36,0,0a.18.18,0,0,0-.07,0l-.08.07-.17.19-.07.08h0l0,0-.15.16c-.2.21-.4.42-.61.62a.25.25,0,0,0,0,.33.24.24,0,0,0,.33,0Z"/><path class="cls-2" d="M44.72,101.25a3,3,0,0,0,.46.76,1.86,1.86,0,0,0,.38.3c.17.1.42.22.61.1a.24.24,0,0,0,.13-.18.23.23,0,0,0-.1-.2h0l0,0-.1,0-.08,0-.06,0h0l-.09-.05-.16-.11,0,0s0,0,0,0a.23.23,0,0,1-.07-.07l-.12-.14,0,0s0,.06,0,0a.56.56,0,0,1,0-.08,3.78,3.78,0,0,1-.17-.35.27.27,0,0,0-.36-.13.28.28,0,0,0-.13.36Z"/><path class="cls-2" d="M45.08,100.72a2.91,2.91,0,0,0,0-.66l0-.64L45,98.83a.82.82,0,0,0-.22-.52.15.15,0,0,0-.24.08.4.4,0,0,0,0,.24,1.18,1.18,0,0,1,0,.26c0,.19,0,.38,0,.58s0,.4,0,.6a3.11,3.11,0,0,1,0,.61.25.25,0,0,0,.23.28.26.26,0,0,0,.29-.24Z"/><path class="cls-2" d="M43.48,99.49c.16.11.31.25.46.37l.24.17.18.09a.41.41,0,0,0,.19,0,.21.21,0,0,0,.2-.12.2.2,0,0,0,0-.23.8.8,0,0,0-.13-.13l-.12-.08a2.11,2.11,0,0,1-.23-.19L43.79,99a.28.28,0,0,0-.38.07.29.29,0,0,0,.07.38Z"/><path class="cls-2" d="M45.39,100l.49-.33.23-.16.14-.14,0,0a.28.28,0,0,0,0-.2.21.21,0,0,0-.2-.18.31.31,0,0,0-.2.06l-.06,0,.06,0-.45.31-.43.28a.26.26,0,0,0-.09.19.23.23,0,0,0,.06.19.24.24,0,0,0,.18.09.31.31,0,0,0,.2-.06Z"/><path class="cls-2" d="M44.29,97.1a1.07,1.07,0,0,0-.26.4.94.94,0,0,0,0,.5.8.8,0,0,0,.68.66,1,1,0,0,0,.83-.34.91.91,0,0,0,.26-.43.55.55,0,0,0-.11-.52.89.89,0,0,0-.51-.28l-.3,0h-.17l-.2,0a.15.15,0,0,0,0,.28l.25,0,.2,0,.17,0,.09,0h0s0,0,0,0l0,0s0,0,0,0l0,0s0,0,0,0,0,0,0,0,0,0,0,0v0c0,.05,0,0,0,0s0,0,0,0,0,0,0,0l0,.08,0,0-.06.08,0,0s0,0,0,0l-.05.06-.07,0,0,0,0,0h0l-.15.07h0s0,0,0,0l-.09,0h-.16l-.09,0,0,0,0,0h0a.42.42,0,0,1-.09-.14.62.62,0,0,1,0-.38.25.25,0,0,1,0-.07.21.21,0,0,1,0-.07l.11-.15a.15.15,0,0,0-.19-.23Z"/><path class="cls-2" d="M41.77,127v0a.17.17,0,0,0,.24.13,2.74,2.74,0,0,0,.58-.49l.65-.6c.2-.19.41-.37.6-.56s.42-.4.43-.67a.15.15,0,0,0-.25-.13c-.19.15-.35.32-.53.48l-.58.55-.58.58-.28.3a2.62,2.62,0,0,1-.22.25l.27.06,0,0a.17.17,0,0,0-.32.1Z"/><path class="cls-2" d="M43.78,125.61c.11.31.21.63.33.93a2.22,2.22,0,0,0,.51.88.2.2,0,0,0,.34-.21c-.1-.31-.25-.6-.37-.91s-.22-.61-.33-.92a.26.26,0,0,0-.35-.13.27.27,0,0,0-.13.36Z"/><path class="cls-2" d="M43.55,122.7c0,.41,0,.83.07,1.24a4.28,4.28,0,0,0,.18,1.19.16.16,0,0,0,.31,0c0-.83-.06-1.64-.12-2.46a.22.22,0,1,0-.44.08Z"/><path class="cls-2" d="M43.4,123.58s0,0,0,0l-.06,0-.11,0-.21-.06-.09,0,0,0,0,0h0l0,0a.21.21,0,0,1-.1-.06c-.27-.16-.49-.4-.76-.55a.23.23,0,0,0-.25,0,.2.2,0,0,0,0,.23,1.41,1.41,0,0,0,.34.43,3.5,3.5,0,0,0,.43.33,2.77,2.77,0,0,0,1,.36.27.27,0,0,0,.29-.24.28.28,0,0,0-.24-.29Z"/><path class="cls-2" d="M44,124.11c.33-.19.67-.38,1-.59a2.52,2.52,0,0,0,.85-.74c.07-.12,0-.29-.19-.22-.32.16-.61.37-.92.55s-.64.35-.95.54a.26.26,0,0,0-.13.34.26.26,0,0,0,.34.12Z"/><path class="cls-2" d="M43.08,121.3a1.37,1.37,0,0,0-.17.79.51.51,0,0,0,.31.36.72.72,0,0,0,.48,0,1.49,1.49,0,0,0,.45-.19,1.09,1.09,0,0,0,.37-.34.7.7,0,0,0,.12-.51.64.64,0,0,0-.35-.42,1.18,1.18,0,0,0-.69-.14,1.23,1.23,0,0,0-.61.31.15.15,0,0,0,.16.25l.22-.09.1,0h0l.07,0a.45.45,0,0,1,.2,0h.06s.06,0,0,0l.11,0,.06,0h0l.08,0s0,0,0,0l0,0h0l0,0s0,0,0,0v0s0,0,0,0v0s0,0,0,0,0,0,0,0,0,0,0,0h0l0,0,0,.06,0,0h0s0,0,0,0l-.06,0-.06.06-.08.06-.06,0h0l0,0,0,0-.09,0-.09,0s-.06,0,0,0h0l-.08,0h-.14s0,0,0,0h-.06l0,0s0,0,0,0l0,0s0,0,0,0a.08.08,0,0,1,0-.05s0,0,0,0v0a1.08,1.08,0,0,1,0-.18,3,3,0,0,1,.11-.37c0-.09-.11-.14-.15,0Z"/><path class="cls-2" d="M19,114.55c.27-.49.52-1,.82-1.46.15-.23.31-.45.47-.66a2.11,2.11,0,0,0,.44-.71c0-.12-.1-.24-.2-.14a5.33,5.33,0,0,0-1,1.3c-.29.48-.54,1-.81,1.46-.11.2.18.41.3.21Z"/><path class="cls-2" d="M20.27,112c.15.44.3.88.46,1.31a5.17,5.17,0,0,0,.65,1.23c.15.19.41,0,.34-.21-.16-.43-.36-.84-.53-1.26s-.32-.85-.47-1.28a.26.26,0,0,0-.33-.12.25.25,0,0,0-.12.33Z"/><path class="cls-2" d="M20.22,109.63a10.75,10.75,0,0,1,.14,1.38c0,.23,0,.45,0,.68s0,.44,0,.67a.19.19,0,0,0,.33.07,1.55,1.55,0,0,0,.15-.7c0-.24,0-.48,0-.72a10.1,10.1,0,0,0-.19-1.45.2.2,0,0,0-.4.07Z"/><path class="cls-2" d="M20.39,111l-.14-.11s0,0,0,0l0,0-.06-.06c-.09-.09-.18-.2-.27-.3a2.35,2.35,0,0,0-.26-.29l-.31-.27c-.09-.08-.27,0-.24.16a1.64,1.64,0,0,0,.21.39.35.35,0,0,0,.05.08l0,0v0l.14.22a2.07,2.07,0,0,0,.58.6.27.27,0,0,0,.37-.07.26.26,0,0,0-.07-.37Z"/><path class="cls-2" d="M20.74,111.38c.18-.16.36-.33.54-.48a4,4,0,0,0,.52-.56.19.19,0,0,0-.23-.27,2.24,2.24,0,0,0-.63.42l-.55.48a.27.27,0,0,0,.35.41Z"/><path class="cls-2" d="M19.58,108.46a1.54,1.54,0,0,0,0,.71.63.63,0,0,0,.75.33,1.1,1.1,0,0,0,.8-.6.65.65,0,0,0,.07-.47.57.57,0,0,0-.37-.37,1.5,1.5,0,0,0-.63-.07,2.85,2.85,0,0,0-.29,0l-.28.07a.18.18,0,0,0,0,.35,2.46,2.46,0,0,0,.47,0h.18l.22,0h.06l.1,0s.05,0,0,0l0,0,0,0h0l0,0s0,0,0,0v0s0-.06,0,0v0s0,0,0,0v0s0,0,0,0,0,0,0,.05a.11.11,0,0,1,0,.07s0,0,0,0l0,0-.05.07,0,0s0,0,0,0a.64.64,0,0,1-.15.13s0,0,0,0l0,0-.1,0s0,0,0,0h-.05l-.09,0H20s0,0,0,0,0,0,0,0l0,0h0s0,0,0,0l0,0,0,0,0,0,0-.06s0,0,0,0v0a.17.17,0,0,1,0-.07v-.21c0-.06,0-.11,0-.17a.16.16,0,0,0-.15-.17.16.16,0,0,0-.17.14Z"/><path class="cls-2" d="M97,128.91l-.9,1.44-.44.69c-.12.19-.4.59-.1.75a.21.21,0,0,0,.24,0c.1-.08.11-.2.17-.3l.21-.31c.13-.22.25-.44.38-.65.27-.46.53-.91.81-1.36.15-.24-.21-.49-.37-.25Z"/><path class="cls-2" d="M97,129.29c.21.55.44,1.08.69,1.61.12.26.24.53.37.79a2.34,2.34,0,0,0,.36.61.16.16,0,0,0,.24,0,.81.81,0,0,0-.08-.72c-.12-.27-.25-.54-.38-.8-.25-.56-.5-1.12-.72-1.69-.12-.31-.6-.09-.48.22Z"/><path class="cls-2" d="M96.77,125.31c0,.7.07,1.41.1,2.12a6.72,6.72,0,0,0,.21,2c.06.19.39.13.39-.07,0-.69-.07-1.38-.1-2.07s-.07-1.41-.12-2.12c0-.32-.5-.22-.48.09Z"/><path class="cls-2" d="M95.56,126.14a7.37,7.37,0,0,0,.7,1l.37.38a1.37,1.37,0,0,1,.17.17,1.71,1.71,0,0,0,.18.2.18.18,0,0,0,.28-.13.68.68,0,0,0-.23-.51l-.38-.38a7.17,7.17,0,0,1-.74-.91.21.21,0,0,0-.27,0,.22.22,0,0,0-.08.26Z"/><path class="cls-2" d="M97.47,127.48l.8-.68a6.83,6.83,0,0,0,.83-.68.17.17,0,0,0,0-.23.16.16,0,0,0-.21-.07,8.5,8.5,0,0,0-1,.57c-.29.22-.56.45-.82.68a.27.27,0,0,0,0,.38.28.28,0,0,0,.38,0Z"/><path class="cls-2" d="M96.23,124.17a1.28,1.28,0,0,0,0,.7.73.73,0,0,0,.77.36,1.13,1.13,0,0,0,.75-.51.67.67,0,0,0,.11-.58.58.58,0,0,0-.36-.34,1.46,1.46,0,0,0-.89,0,2.22,2.22,0,0,0-.3.11.19.19,0,0,0,0,.35,1.08,1.08,0,0,0,.47,0l.2,0h.24l.08,0,.06,0s0,0,0,0h0s0,0,0,0h0l0,0s0,0,0,0l0,0s0,0,0,0,0,0,0,0,0,0,0,0a1,1,0,0,0,0,.1s0,0,0,0l0,0,0,.06a.15.15,0,0,1,0,.06h0l0,0a.18.18,0,0,1-.07,0l0,0h0a.69.69,0,0,1-.15.07h-.19s-.07,0,0,0l-.07,0h0s0,0,0,0l0,0s0,0,0,0,0,0,0,0a0,0,0,0,0,0,0s0,0,0,0l0,0,0-.07s0,0,0,0v0a.17.17,0,0,0,0-.07.22.22,0,0,0,0-.08v0h0v-.16a.17.17,0,0,0-.15-.19.18.18,0,0,0-.19.16Z"/><path class="cls-2" d="M76.69,123.89c.21-.21.41-.41.61-.63s.22-.22.32-.34l.15-.17.06-.09a.16.16,0,0,0,0-.07.08.08,0,0,0,0,0s0,0,0,0a.2.2,0,0,0-.14-.25.2.2,0,0,0-.23.17h0a.18.18,0,0,0,.21.19h0l-.11-.35s0,0,0,0l-.07,0-.07.07-.17.19-.07.08h0l0,0-.15.16-.61.62a.23.23,0,0,0,0,.33.24.24,0,0,0,.33,0Z"/><path class="cls-2" d="M77.62,123a3,3,0,0,0,.47.76,1.57,1.57,0,0,0,.38.3c.17.1.41.22.6.1a.22.22,0,0,0,0-.38h0l0,0-.09,0-.09,0,0,0s-.07,0,0,0l-.08-.05-.17-.11,0,0c-.05,0,0,0,0,0l-.07-.06-.11-.15,0,0s0,.06,0,0a.41.41,0,0,1,0-.09l-.18-.35a.28.28,0,0,0-.35-.13.28.28,0,0,0-.14.36Z"/><path class="cls-2" d="M78,122.47a3.64,3.64,0,0,0,0-.66c0-.21,0-.43,0-.64a5.9,5.9,0,0,0-.06-.59.73.73,0,0,0-.22-.52c-.08-.08-.2,0-.24.08a.39.39,0,0,0,0,.24c0,.09,0,.18,0,.26s0,.39,0,.58,0,.4,0,.6a3.11,3.11,0,0,1,0,.61.28.28,0,0,0,.24.29.29.29,0,0,0,.29-.25Z"/><path class="cls-2" d="M76.39,121.24c.16.11.31.25.46.37a1.46,1.46,0,0,0,.24.17,1,1,0,0,0,.17.1l.19,0a.21.21,0,0,0,.21-.12.21.21,0,0,0,0-.23.58.58,0,0,0-.14-.13l-.11-.08-.24-.18c-.15-.13-.3-.26-.46-.38a.27.27,0,0,0-.37.08.26.26,0,0,0,.07.37Z"/><path class="cls-2" d="M78.29,121.72l.5-.33.23-.16a.86.86,0,0,0,.13-.14l0,0a.27.27,0,0,0,0-.2.21.21,0,0,0-.2-.18.28.28,0,0,0-.2.06l-.06,0,.06,0c-.16.09-.3.2-.45.3l-.43.29a.29.29,0,0,0-.1.18.33.33,0,0,0,.06.19.32.32,0,0,0,.18.1.35.35,0,0,0,.2-.07Z"/><path class="cls-2" d="M77.2,118.85a1.23,1.23,0,0,0-.27.4,1.05,1.05,0,0,0,0,.5.78.78,0,0,0,.68.66,1,1,0,0,0,.83-.34,1.14,1.14,0,0,0,.26-.42.62.62,0,0,0-.11-.53.92.92,0,0,0-.51-.28l-.3,0h-.17l-.2,0a.15.15,0,0,0,0,.28l.25,0,.2,0,.16,0,.1,0,0,0,0,0,0,0s0,0,0,0l0,0s0,0,0,0,0,0,0,0,0,0,0,0v0s0,0,0,0v0s0,0,0,0l0,.08s0,0,0,0a.27.27,0,0,1-.07.08l0,0h0l-.06.06-.06,0,0,0,0,0s0,0,0,0l-.14.07,0,0s0,0,0,0l-.08,0h0s0,0,0,0,0,0-.08,0h0l-.09,0,0,0,0,0s0,0,0,0a.33.33,0,0,1-.1-.14.79.79,0,0,1,0-.38.25.25,0,0,1,0-.07.21.21,0,0,0,0-.07l.12-.15a.15.15,0,1,0-.19-.23Z"/><path class="cls-2" d="M83.12,91.07v.05a.18.18,0,0,0,.25.13,3.35,3.35,0,0,0,.58-.49l.64-.61c.2-.18.41-.36.6-.55s.43-.4.44-.67a.16.16,0,0,0-.26-.13c-.18.14-.35.32-.52.48s-.4.36-.58.55-.4.38-.59.58l-.28.3a2.62,2.62,0,0,1-.22.25l.28.06,0,0a.17.17,0,0,0-.32.1Z"/><path class="cls-2" d="M85.13,89.68c.11.31.21.62.33.93a2.29,2.29,0,0,0,.51.88.2.2,0,0,0,.34-.21c-.09-.31-.25-.61-.36-.91s-.22-.61-.33-.92a.28.28,0,0,0-.36-.13.29.29,0,0,0-.13.36Z"/><path class="cls-2" d="M84.9,86.76c0,.42,0,.84.08,1.25a4.33,4.33,0,0,0,.17,1.19.16.16,0,0,0,.31,0c0-.83-.06-1.64-.12-2.46a.22.22,0,0,0-.25-.18.22.22,0,0,0-.19.25Z"/><path class="cls-2" d="M84.75,87.64h-.06l-.12,0-.2-.06-.1,0,0,0,0,0h0l0,0-.1-.06c-.26-.17-.49-.4-.76-.55a.2.2,0,0,0-.24,0,.19.19,0,0,0-.06.23,1.26,1.26,0,0,0,.34.42,2.46,2.46,0,0,0,.44.34,2.93,2.93,0,0,0,1,.36.27.27,0,0,0,0-.54Z"/><path class="cls-2" d="M85.37,88.18c.33-.2.68-.38,1-.59a2.55,2.55,0,0,0,.85-.75.14.14,0,0,0-.18-.21c-.32.16-.62.37-.93.55s-.64.35-1,.54a.26.26,0,0,0-.13.34.26.26,0,0,0,.34.12Z"/><path class="cls-2" d="M84.43,85.37a1.35,1.35,0,0,0-.17.78.55.55,0,0,0,.31.37.79.79,0,0,0,.48,0,1.79,1.79,0,0,0,.45-.19,1.2,1.2,0,0,0,.37-.34A.67.67,0,0,0,86,85.5a.64.64,0,0,0-.34-.43,1.19,1.19,0,0,0-.69-.13,1.2,1.2,0,0,0-.62.3.15.15,0,0,0,.16.26l.23-.1.09,0s.06,0,0,0l.08,0a.6.6,0,0,1,.19,0h.09l.11,0,.06,0h0l.08,0s0,.05,0,0l0,0h0s0,0,0,0,0,0,0,0,0,0,0,0v0s0,0,0,0v0c0,.05,0,0,0,0a0,0,0,0,1,0,0s0,0,0,0,0,0,0,0v0l0,.07,0,0h0s0,0,0,0,0,0,0,.06l-.07.06-.07,0-.07,0h0l0,0-.1,0-.09,0s0,0,0,0h-.05l-.07,0h-.15s0,0,0,0a.05.05,0,0,1,0,0s0,0,0,0l0,0h0l0,0s0,0,0,0l0,0s0,0,0,0a.08.08,0,0,1,0,0,.55.55,0,0,1,0-.18,1.58,1.58,0,0,1,.11-.37.08.08,0,0,0-.16,0Z"/><path class="cls-2" d="M18.64,129.72c.27-.48.52-1,.82-1.45.15-.23.31-.45.48-.67a2,2,0,0,0,.43-.7c0-.12-.1-.24-.2-.14a5.38,5.38,0,0,0-1,1.3c-.29.48-.54,1-.81,1.46-.11.2.18.41.3.2Z"/><path class="cls-2" d="M19.92,127.21c.15.44.3.88.47,1.31a4.8,4.8,0,0,0,.64,1.23c.15.19.41,0,.34-.21-.16-.43-.36-.84-.53-1.26s-.32-.85-.47-1.28a.25.25,0,0,0-.33-.12.25.25,0,0,0-.12.33Z"/><path class="cls-2" d="M19.87,124.81a12.39,12.39,0,0,1,.15,1.38c0,.22,0,.45,0,.68s0,.44,0,.66a.18.18,0,0,0,.33.08,1.55,1.55,0,0,0,.15-.7c0-.24,0-.48,0-.72a10.1,10.1,0,0,0-.19-1.45.2.2,0,0,0-.4.07Z"/><path class="cls-2" d="M20.05,126.17l-.15-.11s0,0,0,0,0,0,0,0l-.06-.06-.27-.3a2.35,2.35,0,0,0-.26-.29l-.31-.27c-.09-.08-.27,0-.23.15a1.25,1.25,0,0,0,.2.4l0,.08s0,.05,0,0,0,0,0,0l.14.22a2.07,2.07,0,0,0,.58.6.28.28,0,0,0,.37-.07.27.27,0,0,0-.06-.37Z"/><path class="cls-2" d="M20.39,126.55l.54-.48a3,3,0,0,0,.52-.55.19.19,0,0,0-.23-.27,2.39,2.39,0,0,0-.63.42l-.55.48a.27.27,0,1,0,.35.4Z"/><path class="cls-2" d="M19.23,123.64a1.55,1.55,0,0,0,0,.71.63.63,0,0,0,.74.33,1.1,1.1,0,0,0,.8-.6.62.62,0,0,0,.07-.48.58.58,0,0,0-.37-.36,1.35,1.35,0,0,0-.63-.07,2.85,2.85,0,0,0-.29,0l-.28.06a.18.18,0,0,0,0,.36,2.57,2.57,0,0,0,.48,0h.1s0,0,0,0H20a.82.82,0,0,1,.22,0s.07,0,0,0h0l.1,0s.05,0,0,0l0,0,0,0h0l0,0s0,0,0,0l0,0s0-.06,0,0v0s0,0,0,0v0s0,0,0,0,0,0,0,0a.11.11,0,0,1,0,.08h0l0,0-.05.08,0,0h0a.53.53,0,0,1-.14.12s0,0,0,0l0,0-.1,0s0,0,0,0h0l-.09,0h-.18s0,0,0,0l0,0,0,0s0,0,0,0l0,0v0s0,0,0,0l0-.06s0,0,0,0v0a.19.19,0,0,1,0-.08v-.21s0-.11,0-.16a.16.16,0,0,0-.15-.17.16.16,0,0,0-.17.14Z"/><path class="cls-2" d="M20.64,43c-.31.48-.61,1-.91,1.44-.14.23-.28.47-.44.69s-.4.59-.1.75a.23.23,0,0,0,.25,0c.09-.08.1-.2.17-.3a3.28,3.28,0,0,1,.2-.31l.38-.65L21,43.27c.15-.24-.21-.49-.36-.25Z"/><path class="cls-2" d="M20.54,43.4c.21.55.44,1.08.69,1.61.12.27.24.53.37.79a2.65,2.65,0,0,0,.36.61.16.16,0,0,0,.24,0,.81.81,0,0,0-.08-.72c-.11-.27-.25-.53-.37-.8-.26-.56-.51-1.12-.73-1.69-.12-.31-.59-.09-.48.22Z"/><path class="cls-2" d="M20.36,39.42c0,.71.07,1.41.1,2.12a6.72,6.72,0,0,0,.21,2.05c.06.19.39.13.39-.07,0-.69-.07-1.38-.1-2.07s-.07-1.41-.11-2.12c0-.32-.51-.22-.49.09Z"/><path class="cls-2" d="M19.16,40.25a5.89,5.89,0,0,0,.7,1c.11.13.24.25.37.38l.16.17a1.81,1.81,0,0,0,.18.21.18.18,0,0,0,.28-.14.72.72,0,0,0-.22-.51l-.39-.38A8.16,8.16,0,0,1,19.5,40a.2.2,0,0,0-.26,0,.2.2,0,0,0-.08.26Z"/><path class="cls-2" d="M21.06,41.59c.26-.23.53-.46.81-.68a7.58,7.58,0,0,0,.82-.68.18.18,0,0,0,0-.23.16.16,0,0,0-.22-.06,6.32,6.32,0,0,0-1,.57c-.28.21-.55.44-.82.67a.28.28,0,0,0,0,.38.27.27,0,0,0,.38,0Z"/><path class="cls-2" d="M19.82,38.28a1.32,1.32,0,0,0,.05.71.72.72,0,0,0,.77.35,1.11,1.11,0,0,0,.75-.51.67.67,0,0,0,.11-.58.58.58,0,0,0-.36-.34,1.28,1.28,0,0,0-.61-.06,1.4,1.4,0,0,0-.28.06A2.22,2.22,0,0,0,20,38a.19.19,0,0,0,0,.35,1.18,1.18,0,0,0,.27,0l.2,0,.2,0h.24l.08,0,.06,0s0,0,0,0h0s0,0,0,0h0s0,0,0,0h0l0,0s0,0,0,0,0,0,0,0,0,0,0,0a.69.69,0,0,1,0,.1s0,0,0,0l0,0,0,.06,0,.06s0,0,0,0l0,0-.06.05,0,0s0,0,0,0a.52.52,0,0,1-.15.07h-.21l-.07,0h0c.05,0,0,0,0,0l0,0s0,0,0,0v0l0,0s0,0,0,0l0,0,0-.07s0,0,0,0v0s0,0,0-.07v-.11s0,0,0,0,0-.11,0-.16a.18.18,0,1,0-.35,0Z"/></svg>