<svg id="Layer_1" data-name="Layer 1" xmlns="http://www.w3.org/2000/svg" viewBox="0 0 250.93 96.82"><defs><style>.cls-1{fill:#486afb;}.cls-2{fill:#fd46fc;}</style></defs><path class="cls-1" d="M42.06,137.54c-.08,2.28-.22,4.57-.42,6.85-.1,1.14-.21,2.28-.34,3.41-.07.57-.13,1.14-.21,1.71l-.09.73c0,.17,0,.35-.07.52q-.15.48.21,0l.59.08-.08-.05a.76.76,0,0,0-1.1.85l0,.09a.81.81,0,0,0,.76.59c1.33.12,1.27-1.86,1.38-2.71q.26-2,.45-4,.39-4,.54-8.07a.82.82,0,0,0-1.64,0Z" transform="translate(-15.63 -94.37)"/><path class="cls-1" d="M42.87,138.24a4,4,0,0,1,4.38-.38,3.08,3.08,0,0,1,1.44,3.52,5.45,5.45,0,0,1-2.87,3.33,11.19,11.19,0,0,1-2.37.92,6.67,6.67,0,0,0-2.47.82.69.69,0,0,0,.31,1.14,5.08,5.08,0,0,0,2.38-.43,17,17,0,0,0,2.29-.84,7.78,7.78,0,0,0,3.47-3,5.42,5.42,0,0,0,.72-4.13A4.74,4.74,0,0,0,47.2,136a5.68,5.68,0,0,0-5.15.79c-.85.59,0,2,.82,1.41Z" transform="translate(-15.63 -94.37)"/><path class="cls-1" d="M56.26,136.49a15.45,15.45,0,0,0-2.56,8.8A13.83,13.83,0,0,0,56.59,154c.53.63,1.49-.18,1.11-.86a16.19,16.19,0,0,1-2.37-7.91,13.9,13.9,0,0,1,2.35-7.91c.58-.88-.84-1.68-1.42-.81Z" transform="translate(-15.63 -94.37)"/><path class="cls-2" d="M66.4,148.76a6.42,6.42,0,0,0,3.08.07A4.46,4.46,0,0,0,72,147.52a2.07,2.07,0,0,0,.23-2.54,2.52,2.52,0,0,0-2.3-.79,5.45,5.45,0,0,0-4,2.46c-.94,1.43-1.21,3.65.28,4.82,1.76,1.37,4.37.63,6-.67.49-.4,0-1.25-.62-1.07-1.34.42-2.53,1.39-4,.92-1.28-.4-1.33-1.82-.93-2.9a4.17,4.17,0,0,1,2.47-2.41,3,3,0,0,1,1.75-.13.83.83,0,0,1,.45,1.32,3.14,3.14,0,0,1-2,1.05,5.5,5.5,0,0,1-2.55-.07.65.65,0,0,0-.33,1.25Z" transform="translate(-15.63 -94.37)"/><path class="cls-2" d="M74.11,147.44a25.62,25.62,0,0,0,3.21,3.21c1.05.87,2.39,1.95,3.75,1,1.11-.76,1.45-2.22,1.71-3.45a13.94,13.94,0,0,0,.33-4.81.61.61,0,0,0-1.17,0c-.26,1.32-.33,2.65-.61,4a17.65,17.65,0,0,1-.49,1.9,2.39,2.39,0,0,1-.6,1,.45.45,0,0,1-.33.15,1.09,1.09,0,0,1-.54-.22A10.76,10.76,0,0,1,78,149.1a24.8,24.8,0,0,1-2.73-2.79.8.8,0,0,0-1.12,1.13Z" transform="translate(-15.63 -94.37)"/><path class="cls-2" d="M85.53,148.74a4.55,4.55,0,0,0,4.94.29,2.45,2.45,0,0,0,1.29-2.23,2.57,2.57,0,0,0-1.43-2,3.62,3.62,0,0,0-4.44,1.69,3.86,3.86,0,0,0,.18,4.34c1.23,1.53,3.69,1.52,5.38.91A.7.7,0,0,0,92,151a.68.68,0,0,0-.67-.61,9.63,9.63,0,0,0-1.08.09,7.18,7.18,0,0,1-1,.08,2.91,2.91,0,0,1-1.61-.34,1.44,1.44,0,0,1-.25-.18l-.15-.16s-.15-.19-.06-.06a3.21,3.21,0,0,1-.19-.31s-.09-.22,0-.07c0-.07,0-.14-.07-.2a1.6,1.6,0,0,1-.05-.21s0-.24,0-.1c0-.12,0-.24,0-.36s0-.25,0-.37c0,.12,0-.12,0-.11l.06-.26a2.64,2.64,0,0,1,.71-1.26,2.32,2.32,0,0,1,1.49-.7,1.34,1.34,0,0,1,.75.17,1.31,1.31,0,0,1,.45.51.85.85,0,0,1-.33,1.07,3.14,3.14,0,0,1-3.7-.08.71.71,0,1,0-.71,1.24Z" transform="translate(-15.63 -94.37)"/><path class="cls-2" d="M94.39,150.63A6.63,6.63,0,0,1,95,148a3,3,0,0,1,1.3-1.67,1.4,1.4,0,0,1,1.62.42,3.56,3.56,0,0,1,.86,2,9.45,9.45,0,0,0,.58,3.31.68.68,0,0,0,1.26-.33c0-.56-.14-1.1-.2-1.66s-.12-1.17-.22-1.75a4.63,4.63,0,0,0-1.36-2.62,2.64,2.64,0,0,0-2.64-.64A4.13,4.13,0,0,0,94.1,147a9.62,9.62,0,0,0-.69,1.62c-.21.61-.29,1.23-.44,1.85a.72.72,0,1,0,1.42.19Z" transform="translate(-15.63 -94.37)"/><path class="cls-2" d="M106.25,141.9c-.13,1.51-.24,3-.31,4.55a21.72,21.72,0,0,0,0,4.56.69.69,0,0,0,1.33,0,32.89,32.89,0,0,0,.27-4.55c.07-1.52.17-3,.3-4.55a.82.82,0,1,0-1.63,0Z" transform="translate(-15.63 -94.37)"/><path class="cls-2" d="M103.53,146.87a42.85,42.85,0,0,0,5.43-.19c.87-.09,1.74-.2,2.6-.34a8.45,8.45,0,0,0,2.68-.72.64.64,0,0,0-.31-1.19,12.53,12.53,0,0,0-2.58.3c-.86.14-1.72.25-2.59.34a43.29,43.29,0,0,1-5.22.17.82.82,0,0,0,0,1.63Z" transform="translate(-15.63 -94.37)"/><path class="cls-1" d="M119.48,138.76a25.23,25.23,0,0,1,2,4.25,8.4,8.4,0,0,1,.72,4.32c-.54,2.56-2.71,4.39-3.51,6.86a.7.7,0,0,0,1.28.52c1.25-2.44,3.43-4.63,3.8-7.44a10.16,10.16,0,0,0-.81-4.64,26.25,26.25,0,0,0-2.16-4.62.75.75,0,0,0-1.29.75Z" transform="translate(-15.63 -94.37)"/><path class="cls-1" d="M136.76,146.85a28.36,28.36,0,0,0,3.57-.06,10.76,10.76,0,0,0,3.56-.68c.54-.24.21-1-.27-1a9.68,9.68,0,0,0-1.7.07c-.57.05-1.14.09-1.71.11-1.15.05-2.3,0-3.44,0s-1,1.55,0,1.59Z" transform="translate(-15.63 -94.37)"/><path class="cls-1" d="M137.17,150.62a34.36,34.36,0,0,0,3.93.06,17.3,17.3,0,0,0,3.93-.46.66.66,0,0,0-.16-1.29c-1.28,0-2.56.16-3.84.18s-2.57,0-3.85-.13a.82.82,0,0,0,0,1.64Z" transform="translate(-15.63 -94.37)"/><path class="cls-2" d="M158.87,147l-.13,5.93c0,1-.05,2-.07,3a13.28,13.28,0,0,0,.15,2.89.6.6,0,0,0,1.15,0,12.75,12.75,0,0,0,.26-2.89c0-1,0-2,0-3l.08-5.93a.74.74,0,0,0-1.48,0Z" transform="translate(-15.63 -94.37)"/><path class="cls-2" d="M159.36,147.21a12.4,12.4,0,0,1,3.71-.87,13.67,13.67,0,0,1,1.92,0c.24,0,.49.1.72.11s.11,0,.08,0a.16.16,0,0,1-.06-.13,2.06,2.06,0,0,1-.13.21,6.41,6.41,0,0,1-1.31,1.06,12.9,12.9,0,0,1-1.53.88,30.24,30.24,0,0,1-3.32,1.14.64.64,0,0,0,.16,1.26,7.9,7.9,0,0,0,3.38-.85,12.54,12.54,0,0,0,2.91-1.81,3.4,3.4,0,0,0,1.14-1.33,1.31,1.31,0,0,0-.56-1.63,3.75,3.75,0,0,0-1.6-.31,12.83,12.83,0,0,0-1.86,0,13.64,13.64,0,0,0-4.12,1c-.65.27-.19,1.41.47,1.15Z" transform="translate(-15.63 -94.37)"/><path class="cls-2" d="M170.4,151.2a19.53,19.53,0,0,0-.51-2,1.87,1.87,0,0,1,.1-1.59,1.83,1.83,0,0,1,1.38-.55,9.51,9.51,0,0,0,2.5-.16.56.56,0,0,0-.14-1.1,18,18,0,0,0-2.75-.05,2.79,2.79,0,0,0-2,1.19c-.88,1.36.09,3,.19,4.41a.63.63,0,1,0,1.25-.15Z" transform="translate(-15.63 -94.37)"/><path class="cls-2" d="M176.78,147.36a2.3,2.3,0,0,0-.53,2.54,2.71,2.71,0,0,0,2.4,1.77,4,4,0,0,0,3-1.21,2.06,2.06,0,0,0,.64-1.85,2.17,2.17,0,0,0-1.3-1.33,7.37,7.37,0,0,0-2-.63,4.3,4.3,0,0,0-2.14,0,.6.6,0,0,0-.43.55.58.58,0,0,0,.42.55c.46.08,1,.1,1.39.16a6.6,6.6,0,0,1,1.38.33l.23.09.32.15a3,3,0,0,1,.58.32c-.11-.08,0,0,0,0s.09.13.05.05l0,0h0v0c0,.06,0,.05,0,0s0,.17,0,0a.5.5,0,0,1,0,.13c0,.14,0,.06,0,0a1.18,1.18,0,0,1-.11.19c-.1.2.05,0,0,.06l-.09.11a2.29,2.29,0,0,1-.23.21l-.1.09c.1-.08,0,0,0,0L180,150l-.27.14s-.17.07,0,0l-.13,0-.26.08-.13,0h-.09a2,2,0,0,1-.6,0l-.15,0-.13,0c-.12,0,0,0-.09,0l-.21-.12s-.12-.1,0,0l-.08-.07-.15-.15c-.08-.09,0,0,0,0l-.09-.13c0-.08-.09-.16-.13-.24s0,.08,0,0,0-.09,0-.13a1.38,1.38,0,0,1-.06-.26c0,.11,0,0,0,0a.66.66,0,0,1,0-.14.62.62,0,0,1,0-.13v-.05l0-.1s0-.16,0-.1,0,0,0-.05.05-.09.07-.14,0,.06,0,0l.12-.13a.57.57,0,1,0-.8-.8Z" transform="translate(-15.63 -94.37)"/><path class="cls-2" d="M183.73,142.2l.52,4.33c.09.7.17,1.41.26,2.12a5.83,5.83,0,0,0,.43,2.2.66.66,0,0,0,1.19-.15,5.79,5.79,0,0,0-.13-2.15c-.1-.74-.21-1.47-.31-2.2l-.6-4.32c-.11-.77-1.45-.61-1.36.17Z" transform="translate(-15.63 -94.37)"/><path class="cls-2" d="M186.46,146.83a6.14,6.14,0,0,1,3.31-.7c.3,0,.83.1,1,.41s-.23.83-.44,1.08a5,5,0,0,1-2.42,1.45,9,9,0,0,1-1.7.3l-.9.07a2.34,2.34,0,0,0-1.05.2.57.57,0,0,0,0,1,3.35,3.35,0,0,0,1.81.14,11.24,11.24,0,0,0,1.82-.26,6.47,6.47,0,0,0,2.77-1.41,3,3,0,0,0,1.21-2.73c-.27-.94-1.34-1.23-2.2-1.25A7.49,7.49,0,0,0,186,146c-.57.29-.07,1.14.49.85Z" transform="translate(-15.63 -94.37)"/><path class="cls-2" d="M196.25,148.14c.23-.07.46-.15.7-.21a.36.36,0,0,0,.25-.43,1.47,1.47,0,0,0-1.18-1.09,1.79,1.79,0,0,0-1.77.62c-1.05,1.25-.82,3.21-.11,4.56a.72.72,0,0,0,.79.33,6.52,6.52,0,0,0,3.14-2.68l-1.39-.18a5.51,5.51,0,0,0,4.1,3.93.63.63,0,0,0,.72-.36.63.63,0,0,0-.26-.76,6.14,6.14,0,0,1-3.09-3.2.78.78,0,0,0-.64-.55.76.76,0,0,0-.75.37,4.89,4.89,0,0,1-2.36,2.13l1,.26a3.31,3.31,0,0,1-.39-2.82,1.15,1.15,0,0,1,.73-.73.66.66,0,0,1,.81.35l.25-.43c-.22.09-.46.17-.69.25-.4.14-.24.77.17.64Z" transform="translate(-15.63 -94.37)"/><path class="cls-2" d="M202.28,142.41,203,147l.34,2.23c.1.67.08,1.87.77,2.21a.65.65,0,0,0,.74-.1c.56-.54.2-1.67.09-2.35l-.35-2.31-.72-4.72a.82.82,0,0,0-1-.58.83.83,0,0,0-.58,1Z" transform="translate(-15.63 -94.37)"/><path class="cls-2" d="M204.49,147.27a9.68,9.68,0,0,1,1-.14,4.53,4.53,0,0,1,.52,0h.46a4.05,4.05,0,0,1,.5.12l0,0,.07,0,.18.1s.11.08,0,0,0,0,0,0l.15.14.12.14c.07.06-.06-.11,0,0l.07.1a.51.51,0,0,1,.09.16l0,.07c.06.12,0,0,0,0a.76.76,0,0,1,.1.39s0-.17,0,0v.07s0,.07,0,.1,0-.08,0-.07a.67.67,0,0,1,0,.19c0,.11,0-.05,0,0s0,.08,0,.09l-.05.08s.12-.14,0,0l-.06.07s-.11.1,0,0,0,0,0,0l-.11.07-.25.12c-.08,0,0,0,0,0l-.12,0-.21.07-.57.19-1.25.37c-.2,0-.41.12-.62.19a1.22,1.22,0,0,0-.78.5.62.62,0,0,0,.22.82,1.19,1.19,0,0,0,.89.07c.24,0,.47-.09.71-.15.42-.11.83-.23,1.24-.36a3.55,3.55,0,0,0,2.19-1.34,2.23,2.23,0,0,0-.08-2.14,2.75,2.75,0,0,0-1.76-1.34,6.45,6.45,0,0,0-3,.15.62.62,0,0,0-.45.75.64.64,0,0,0,.76.44Z" transform="translate(-15.63 -94.37)"/><path class="cls-2" d="M210.74,148.24l.34,1a11.79,11.79,0,0,0,.48,1.16.7.7,0,0,0,.42.33.74.74,0,0,0,.44,0,.7.7,0,0,0,.41-.81,9.46,9.46,0,0,0-.21-1.06l-.29-1.05a.88.88,0,0,0-.39-.5.81.81,0,0,0-.61-.08.79.79,0,0,0-.5.39.81.81,0,0,0-.09.61Z" transform="translate(-15.63 -94.37)"/><path class="cls-2" d="M210.38,143.61l-.15.06h0l-.08.06a.19.19,0,0,0-.07.06l-.11.13,0,0a1.11,1.11,0,0,0-.07.16,1.13,1.13,0,0,0,0,.18,1,1,0,0,0,0,.23.72.72,0,0,0,.34.44.92.92,0,0,0,.65.07L211,145l0,0,.09-.07.09-.07a1.71,1.71,0,0,0,.11-.14l0,0a.86.86,0,0,0,.07-.21.83.83,0,0,0,0-.35v0a.87.87,0,0,0-.07-.17.76.76,0,0,0-.11-.14.08.08,0,0,0,0,0,.7.7,0,0,0-.19-.15l-.17-.07-.06,0-.18,0h-.06a1.13,1.13,0,0,0-.18,0l-.17.07a.57.57,0,0,0-.23.3.4.4,0,0,0,0,.19.32.32,0,0,0,.06.18.5.5,0,0,0,.3.23l.12,0a.43.43,0,0,0,.25-.07h0l-.12.05.08,0-.13,0h.1l-.13,0,.09,0-.11-.05.09.06-.1-.08.08.07-.08-.1,0,.07-.05-.12a.24.24,0,0,1,0,.08l0-.13a.08.08,0,0,1,0,.07l0-.12a.25.25,0,0,1,0,.07l.05-.12a.25.25,0,0,1,0,.07l.08-.11a.23.23,0,0,1-.07.07l.11-.08a.31.31,0,0,1-.1,0l.12,0a.2.2,0,0,1-.11,0h.16l-.08,0,.12.05-.07,0,.1.08,0,0,.08.11s0,0,0,0l0,.12,0-.05,0,.12v-.06l0,.12s0-.05,0-.07l0,.12a.1.1,0,0,1,0,0l-.08.1a.08.08,0,0,1,0,0l-.11.08.06,0-.13.05h0a.4.4,0,0,0,.18-.1.37.37,0,0,0,.13-.15.32.32,0,0,0,.06-.18.34.34,0,0,0,0-.2.52.52,0,0,0-.24-.32l-.12,0a.57.57,0,0,0-.26,0Z" transform="translate(-15.63 -94.37)"/><path class="cls-2" d="M214.51,143.24l1,4.56c.16.74.3,1.49.47,2.23a10.32,10.32,0,0,0,.67,2.26c.29.61,1.18.28,1.2-.31a10.23,10.23,0,0,0-.29-2.27c-.15-.78-.33-1.55-.49-2.32l-1-4.55c-.21-1-1.76-.6-1.55.4Z" transform="translate(-15.63 -94.37)"/><path class="cls-2" d="M220.1,148.86c.08.32.15.64.24,1,0,.15.09.31.14.46a1.65,1.65,0,0,0,.38.67.64.64,0,0,0,.49.16.55.55,0,0,0,.44-.29,1.32,1.32,0,0,0,.13-.47,2.09,2.09,0,0,0,0-.25c0-.22,0-.44-.08-.65s-.13-.66-.2-1a.79.79,0,0,0-1-.57.81.81,0,0,0-.57,1Z" transform="translate(-15.63 -94.37)"/><path class="cls-2" d="M219.41,144.55a.71.71,0,0,0,.29.28.83.83,0,0,0,.38.1,1.06,1.06,0,0,0,.62-.27.87.87,0,0,0,.28-.46.92.92,0,0,0,0-.37.72.72,0,0,0-.19-.34l-.1-.08a.37.37,0,0,0-.18,0,.45.45,0,0,0-.3,0,1,1,0,0,0-.46.79,1.1,1.1,0,0,0,.1.47.86.86,0,0,0,.34.34,1,1,0,0,0,.93,0,.88.88,0,0,0,.36-.33.85.85,0,0,0,0-.59,1.06,1.06,0,0,0-.27-.47.73.73,0,0,0-.69-.23.49.49,0,0,0-.23.83,2.53,2.53,0,0,0,.27.18l-.11-.09a.94.94,0,0,1,.1.1l-.08-.1.06.1-.05-.12,0,.1,0-.13a.2.2,0,0,1,0,.11l0-.12a.06.06,0,0,1,0,0l.05-.12,0,0,.08-.11-.07.07.11-.08-.09.05.13-.05-.13,0h.13a.2.2,0,0,1-.11,0l.12.05-.09-.05.11.08a.27.27,0,0,1-.08-.07l.09.11a.27.27,0,0,1-.06-.1l.05.12a.27.27,0,0,1,0-.12v.13a.49.49,0,0,1,0-.12l0,.13a.5.5,0,0,1,0-.13l-.05.12.06-.09-.08.1a.23.23,0,0,1,.07-.07l-.1.07h0l-.58-.08,0,0-.08-.1a.1.1,0,0,1,0,0l-.05-.12a.13.13,0,0,1,0,.06v-.19a.19.19,0,0,1,0,.07l0-.11a.56.56,0,0,1,0,.08l.08-.1a.52.52,0,0,1-.11.1l.11-.08a.57.57,0,0,1-.13.08l.13,0-.12,0,.13,0h-.09l.13,0-.07,0,.12.05,0,0,.11.08,0,0,.09.1,0,0a.47.47,0,0,0-.31-.24.48.48,0,0,0-.39,0,.49.49,0,0,0-.24.31.48.48,0,0,0,0,.39Z" transform="translate(-15.63 -94.37)"/><path class="cls-2" d="M225.35,142.19l.72,4.47.35,2.19a10.81,10.81,0,0,0,.47,2.26.68.68,0,0,0,1.33-.17,10.56,10.56,0,0,0-.28-2.3l-.39-2.27-.78-4.55a.72.72,0,0,0-.89-.52.75.75,0,0,0-.53.89Z" transform="translate(-15.63 -94.37)"/><path class="cls-2" d="M224,147.13c1.1,0,2.19-.06,3.29-.11a19.17,19.17,0,0,0,3.3-.27c.55-.11.6-1.06,0-1.14a20.31,20.31,0,0,0-3.31-.05l-3.28.12c-.93,0-.94,1.48,0,1.45Z" transform="translate(-15.63 -94.37)"/><path class="cls-2" d="M232,148.22a5.51,5.51,0,0,0,1.58,2.34,4,4,0,0,0,2.68,1.08.65.65,0,0,0,.61-.47.65.65,0,0,0-.3-.72l-.26-.14,0,0c-.2-.08-.23-.09-.09,0a.31.31,0,0,1-.12-.05l-.51-.26a5.55,5.55,0,0,1-.48-.29,1.3,1.3,0,0,0-.25-.18s.14.11,0,0l-.12-.1-.41-.38-.18-.22-.07-.07.08.09-.09-.13a4.66,4.66,0,0,1-.3-.47c-.05-.09-.09-.18-.13-.27l0-.05c0-.08,0-.06,0,.06,0,0,0-.1-.05-.14a.84.84,0,0,0-1-.59.82.82,0,0,0-.58,1Z" transform="translate(-15.63 -94.37)"/><path class="cls-2" d="M237,149.29a14.55,14.55,0,0,0-.16,9.93.7.7,0,0,0,1.35-.35,16.41,16.41,0,0,1,.39-9.16c.35-1-1.23-1.4-1.58-.42Z" transform="translate(-15.63 -94.37)"/><path class="cls-1" d="M75.09,178.39l.1,2.16.06,1.08c0,.17,0,.33,0,.5a3.93,3.93,0,0,0,.15.68.71.71,0,0,0,1.38,0,4,4,0,0,0,.1-.68,4.1,4.1,0,0,0,0-.5l0-1.08-.11-2.16a.82.82,0,0,0-1.63,0Z" transform="translate(-15.63 -94.37)"/><path class="cls-1" d="M74.3,175.37a1.51,1.51,0,0,0,.71.42l.27.05h.14a1.41,1.41,0,0,0,.41-.07.65.65,0,0,0,.36-.27l0-.13a.48.48,0,0,0,0-.29,2.47,2.47,0,0,0-.21-.65l.06.13a1.52,1.52,0,0,0-.37-.59,1,1,0,0,0-1.42,0,1.13,1.13,0,0,0-.31.54.86.86,0,0,0,0,.39.62.62,0,0,0,.1.22,1,1,0,0,0,.12.16c-.06-.06.09.08.14.1a.45.45,0,0,0,.23.08h.08a1.66,1.66,0,0,0,.22,0,.58.58,0,0,0,.4-.69v0l0,.15v0h0a.52.52,0,0,0-.05-.24l-.06-.13.06.16s0,0,0-.06l0,.17,0-.2,0,.16a.17.17,0,0,1,0-.07l0,.16,0-.1-.06.14a.75.75,0,0,1,.07-.12l-.09.13a.63.63,0,0,1,.11-.12l-.13.1.11-.06-.15.06.09,0-.15,0h.08l-.14,0,.09,0-.13,0a.6.6,0,0,1,.11.06l-.12-.08a.57.57,0,0,1,.14.13l-.09-.12a2,2,0,0,1,.11.2l0-.13a1.14,1.14,0,0,1,.07.32V175c0,.08,0,.15,0,.22l.43-.55h-.08l.15,0h-.25l.15,0-.19,0,.15,0-.29-.08.15.05a.94.94,0,0,1-.22-.12l.12.09-.11-.1a.63.63,0,0,0-.41-.17.62.62,0,0,0-.43.18.59.59,0,0,0,0,.84Z" transform="translate(-15.63 -94.37)"/><path class="cls-1" d="M79.4,183.11c-.08-.38-.23-.74-.34-1.11a5.67,5.67,0,0,1-.21-1.15c0-.5-.1-1.29.35-1.64s1,.1,1.3.36a3.51,3.51,0,0,1,.34.33l.09.11,0,0s0,0,0,0l.1.14a3.38,3.38,0,0,1,.24.41l.09.18s.06.15,0,.07,0,.06,0,.07a3.13,3.13,0,0,1,.16.52,2.56,2.56,0,0,1,0,.27l0,.13c0,.11,0-.1,0,0a5.07,5.07,0,0,1,0,.55c0,.11,0,.21,0,.32s0,.11,0,.16c0-.12,0,.09,0,.09a.64.64,0,0,0,.46.6.61.61,0,0,0,.7-.29,2.43,2.43,0,0,0,.22-.74,3.71,3.71,0,0,0,0-.58,4.73,4.73,0,0,0-1.7-3.3,2.31,2.31,0,0,0-2.56-.46,2.5,2.5,0,0,0-1,2.05,6.62,6.62,0,0,0,.09,1.6,3.62,3.62,0,0,0,.56,1.56.44.44,0,0,0,.8-.33Z" transform="translate(-15.63 -94.37)"/><path class="cls-1" d="M84.59,179.4l.33,4.8.17,2.36a7.19,7.19,0,0,0,.33,2.45l1.13-.87a3.38,3.38,0,0,0-.5-.5c-.34-.25-.73.11-.76.44a2.64,2.64,0,0,0,0,.56.72.72,0,0,0,1.41.19,6.88,6.88,0,0,0,0-2.35l-.16-2.36-.32-4.71c-.08-1-1.71-1.06-1.64,0Z" transform="translate(-15.63 -94.37)"/><path class="cls-1" d="M86,179.4a1.55,1.55,0,0,1,.43-.07c-.22,0,0,0,.07,0h.23a2.16,2.16,0,0,1,.44,0h.06l.21.05.09,0c.09,0,.07,0-.05,0s.16.08.18.1l.09.05c-.1-.08-.12-.09-.05,0a.67.67,0,0,0,.14.15c-.08-.11-.1-.12,0,0l.06.1c0,.09,0,.07,0,0l0,.1,0,.11c0-.12,0-.13,0-.05s0,.18,0,.23c0-.12,0-.13,0,0l0,.11a.57.57,0,0,1-.07.22c0-.1,0-.1,0,0l0,.11-.12.22-.14.22s-.17.27-.07.09a2.44,2.44,0,0,1-.33.39c-.11.12-.23.24-.35.35l-.1.08,0,0a.63.63,0,0,1-.21.12q.15-.06,0,0c-.08,0-.06,0,.05,0h-.06q.12.06,0,0c.07.06.08.06,0,0a.81.81,0,0,0-.31-.18.58.58,0,0,0-.54.15c-.41.33-.15,1,.18,1.26a1.33,1.33,0,0,0,1.51.13,3.6,3.6,0,0,0,.87-.74,6.93,6.93,0,0,0,.72-.92,2.89,2.89,0,0,0,.49-2.22,2.2,2.2,0,0,0-1.59-1.56,5,5,0,0,0-2.27,0,.82.82,0,0,0-.59,1,.85.85,0,0,0,1,.59Z" transform="translate(-15.63 -94.37)"/><path class="cls-1" d="M90.2,181a3.13,3.13,0,0,0,2.74,2.34,3,3,0,0,0,3-2,2.16,2.16,0,0,0-.17-2.21.75.75,0,0,0-1.24.34,5,5,0,0,0,0,.95c0,.09,0,.08,0,0,0,0,0,.07,0,.11s0,.11,0,.16,0,.17-.07.21,0-.12,0,0l0,0c0,.07-.07.14-.11.2l-.06.09c-.06.08,0,.06,0,0,0,.08-.21.23-.26.28l-.09.07c.11-.07.12-.08,0,0l-.14.09a.87.87,0,0,1-.19.1c.12,0,.13-.06,0,0l-.08,0-.19,0c-.08,0-.07,0,0,0h-.34c-.06,0-.31-.08-.38-.1s-.07,0,0,0l-.1,0a1,1,0,0,1-.17-.1s-.16-.07-.17-.1.11.08,0,0l-.09-.07-.11-.12-.08-.08c-.06-.07,0,0,0,.05s-.18-.29-.2-.33a.47.47,0,0,1,0-.1c0,.12.06.13,0,.05s0-.15,0-.22a.82.82,0,0,0-1.58.41Z" transform="translate(-15.63 -94.37)"/><path class="cls-1" d="M98.1,176.17l.29,3.78c0,.61.09,1.23.13,1.85a4.87,4.87,0,0,0,.38,2,.65.65,0,0,0,1.19-.16,4.52,4.52,0,0,0,.06-1.87c0-.62-.09-1.24-.14-1.86l-.27-3.7a.84.84,0,0,0-.82-.82.83.83,0,0,0-.82.81Z" transform="translate(-15.63 -94.37)"/><path class="cls-1" d="M96.49,178.39a16.79,16.79,0,0,0,3.17,0c.55,0,1.1-.12,1.64-.22a3.88,3.88,0,0,0,1.59-.56.67.67,0,0,0-.33-1.23,5.17,5.17,0,0,0-1.56.19c-.48.08-1,.16-1.45.2a17.37,17.37,0,0,1-3.06,0,.82.82,0,0,0-.82.81.84.84,0,0,0,.82.82Z" transform="translate(-15.63 -94.37)"/><path class="cls-1" d="M179.28,180a5.62,5.62,0,0,0,.23,3.32,2.68,2.68,0,0,0,3.13,1.41,2.65,2.65,0,0,0,1.83-3,3.64,3.64,0,0,0-2.27-2.47,3.72,3.72,0,0,0-1.76-.34,2.45,2.45,0,0,0-1,.28,1.52,1.52,0,0,0-.66.85.63.63,0,0,0,.29.72.65.65,0,0,0,.77-.11s.17-.11,0,0l.09-.06.22-.12c.13-.08,0,0,0,0s.1,0,.13,0l.12,0c.17,0-.14,0,0,0h.39c-.18,0,0,0,0,0a3.53,3.53,0,0,1,.56.14l.1,0c-.18-.07,0,0,0,0l.26.13.25.15.16.1.05,0a5,5,0,0,1,.41.39c.13.15-.08-.14,0,0l.07.11s.05.08.07.13.09.25,0,.06c0,.09.05.18.07.27s0,.18,0,0c0,0,0,.08,0,.12s0,.1,0,.16,0-.17,0,0l0,.13s-.09.23-.05.14l0,.08-.06.1s-.15.19,0,0l-.08.1-.12.11s-.1.14,0,0c-.05.08-.19.12-.27.17.17-.09,0,0,0,0l-.13,0s-.2,0-.09,0-.08,0-.09,0h-.12s-.24,0-.06,0l-.31-.08c.15,0,0,0,0,0l-.14-.08-.11-.07c.15.11,0,0,0,0l-.09-.08s-.13-.15,0,0l0-.05-.09-.15a.75.75,0,0,0-.06-.13c0-.05,0,0,0,.06s0-.07,0-.11a2.29,2.29,0,0,1-.08-.28l0-.14s0-.26,0-.07c0-.1,0-.2,0-.3a5.3,5.3,0,0,1,0-.69l0-.37s0-.08,0-.12,0-.08,0,0,0-.08,0-.12a.76.76,0,0,0-.53-.92.77.77,0,0,0-.93.53Z" transform="translate(-15.63 -94.37)"/><path class="cls-1" d="M184.77,181.52a3.08,3.08,0,0,0,2.41,2.51,2.58,2.58,0,0,0,1.84-.32,2.77,2.77,0,0,0,1.14-1.34,1.85,1.85,0,0,0-.25-2.05.62.62,0,0,0-1,.43v.1c0-.14,0-.11,0,.09a1.33,1.33,0,0,0,0,.2.77.77,0,0,0,0,.15.34.34,0,0,1,0,.1c0,.08,0,.06,0,0a1.93,1.93,0,0,1-.09.34l0,.09c0-.11,0-.12,0-.05l-.06.14a1.63,1.63,0,0,0-.11.17l0,0-.06.08-.11.11s-.14.1-.15.14l.05,0-.09.05a.57.57,0,0,1-.13.08l-.09,0,.06,0-.17,0-.07,0c-.09,0-.07,0,0,0s-.17,0-.22,0a.92.92,0,0,0-.16,0h0l-.1,0c-.06,0-.18,0-.21-.06l.08,0-.1,0-.19-.11s-.2-.15-.11-.07l-.09-.08-.15-.16-.08-.09.06.08a.88.88,0,0,1-.12-.19l-.11-.19c-.07-.15.05.15,0,0a2.09,2.09,0,0,1-.11-.43.78.78,0,0,0-.95-.56.82.82,0,0,0-.56,1Z" transform="translate(-15.63 -94.37)"/><path class="cls-1" d="M192.5,178.33c.1,1,.17,2,.2,3a17.17,17.17,0,0,0,.17,3,.68.68,0,0,0,1.3,0,10.33,10.33,0,0,0,.16-3c0-1-.1-2-.2-3a.84.84,0,0,0-.81-.82.81.81,0,0,0-.82.81Z" transform="translate(-15.63 -94.37)"/><path class="cls-1" d="M192.1,180.73a24.47,24.47,0,0,0,4-.83.55.55,0,0,0,.41-.61.57.57,0,0,0-.55-.49,26.23,26.23,0,0,0-4.23.41.79.79,0,0,0-.56,1,.8.8,0,0,0,.95.56Z" transform="translate(-15.63 -94.37)"/><path class="cls-1" d="M197.56,182.17a25.72,25.72,0,0,1,.38,4.2c0,.71,0,1.43-.07,2.14a9.63,9.63,0,0,0-.1,2.14l1.07-.82-.05,0,.32.55a5.32,5.32,0,0,1,.06-.56c0-.37-.4-.51-.68-.39a1.25,1.25,0,0,0-.61.79l.29-.38-.06,0a.73.73,0,1,0,1,1,6.7,6.7,0,0,0,.4-2.32c.05-.73.07-1.47.06-2.21a27.69,27.69,0,0,0-.43-4.54.82.82,0,0,0-1.58.41Z" transform="translate(-15.63 -94.37)"/><path class="cls-1" d="M199.19,181.86a4.49,4.49,0,0,1,1.05-.36.86.86,0,0,1,.24,0s.26,0,.12,0c0,0,.27.08.15,0l.18.1c.06,0,.07,0,0,0a.39.39,0,0,1,.1.08s.13.18.05.05l.06.11c0-.08,0-.09,0,0v.07h0v0c0,.07,0,.08,0,0l-.09.17c.07-.1-.08.08-.1.1a1.54,1.54,0,0,1-.19.17c-.13.12,0,0-.08.06l-.26.19L200,183a9.58,9.58,0,0,1-1,.55,7.68,7.68,0,0,1-1,.38,6.35,6.35,0,0,0-1.12.44.53.53,0,0,0,.13,1,4.28,4.28,0,0,0,2.25-.4,9.56,9.56,0,0,0,2-1.06,2.51,2.51,0,0,0,1.3-1.93,2,2,0,0,0-1.37-1.74,3.69,3.69,0,0,0-2.74.45.71.71,0,0,0-.26,1,.74.74,0,0,0,1,.26Z" transform="translate(-15.63 -94.37)"/><path class="cls-1" d="M203.81,182.55a.19.19,0,0,0,0-.37.19.19,0,0,0,0,.37Z" transform="translate(-15.63 -94.37)"/><path class="cls-1" d="M203.68,182.36a2.58,2.58,0,0,0,2.49,2,2.45,2.45,0,0,0,2.35-2,2.51,2.51,0,0,0,0-1,1.47,1.47,0,0,0-.24-.56,1,1,0,0,0-.3-.28,1.28,1.28,0,0,0-.43-.1.67.67,0,0,0-.65.49s.07-.18.05-.11a.76.76,0,0,0-.09.28,1.15,1.15,0,0,0,0,.18,3.11,3.11,0,0,0,.08.44s0,.08,0,.11,0-.22,0,0a1.13,1.13,0,0,1,0,.26c0,.17,0-.15,0,0l0,.11,0,.12a.14.14,0,0,0,0,.06c0,.1,0-.08,0-.09a.8.8,0,0,1-.13.24.47.47,0,0,1-.06.09s-.06.09,0,0,0,0,0,0l-.17.17c-.05.06.1-.09.1-.07l-.06,0-.11.07s-.11.07-.12.06.2-.06.11-.05l-.05,0-.14,0c-.16,0,.19,0,0,0h-.25c-.14,0,.18,0,0,0l-.16,0-.13,0c-.08,0,.12,0,.1,0l0,0a2.2,2.2,0,0,1-.26-.15l0,0c-.07,0,.14.12.08.06l-.12-.11-.11-.11c-.11-.13.09.14,0,0s-.15-.2-.15-.27.07.2.05.11l0-.08c0-.05,0-.11,0-.17a.8.8,0,0,0-1-.58.84.84,0,0,0-.59,1Z" transform="translate(-15.63 -94.37)"/><path class="cls-1" d="M210.31,177.52l.73,3a15.47,15.47,0,0,0,.93,3,.66.66,0,0,0,1.22-.32,15.32,15.32,0,0,0-.56-3.08l-.73-3a.84.84,0,0,0-1-.59.85.85,0,0,0-.59,1Z" transform="translate(-15.63 -94.37)"/><path class="cls-1" d="M209.05,179.77l3.4-.3,1.69-.15a6.35,6.35,0,0,0,1.74-.3.69.69,0,0,0,.5-.65.66.66,0,0,0-.49-.65,12.42,12.42,0,0,0-3.44.12l-3.39.3a.84.84,0,0,0-.82.81.82.82,0,0,0,.81.82Z" transform="translate(-15.63 -94.37)"/><path class="cls-1" d="M85,158.62l.51,5.55c.17,1.84.33,3.69.68,5.51.14.71,1.24.54,1.25-.16a52.32,52.32,0,0,0-.37-5.45l-.52-5.44c-.1-1-1.65-1-1.55,0Z" transform="translate(-15.63 -94.37)"/><path class="cls-1" d="M84.21,158.86q-.63.78-1.23,1.59a5.48,5.48,0,0,0-1,1.65.62.62,0,0,0,.9.69,5.14,5.14,0,0,0,1.36-1.35L85.37,160a.86.86,0,0,0,.23-.57.8.8,0,0,0-.24-.58.85.85,0,0,0-.57-.24.79.79,0,0,0-.58.25Z" transform="translate(-15.63 -94.37)"/><path class="cls-1" d="M86.4,160.33a9.9,9.9,0,0,1,.87.56c.12.09-.11-.08,0,0l.09.07.21.17.39.35a9.58,9.58,0,0,1,.69.73l.33.39a1.46,1.46,0,0,0,.16.19,1.92,1.92,0,0,0,.22.18.71.71,0,0,0,.82.11.71.71,0,0,0,.32-.77,1.89,1.89,0,0,0-.25-.63l-.41-.57a7.85,7.85,0,0,0-.73-.79,9.36,9.36,0,0,0-1.87-1.39.82.82,0,0,0-.81,1.42Z" transform="translate(-15.63 -94.37)"/><path class="cls-1" d="M194.38,161.33l.21,4.11a30,30,0,0,0,.37,4.13c.16.78,1.24.54,1.31-.17a30.14,30.14,0,0,0-.05-4l-.2-4c-.05-1-1.69-1.05-1.64,0Z" transform="translate(-15.63 -94.37)"/><path class="cls-1" d="M193.82,161.42a3.38,3.38,0,0,0-.47.22,3.15,3.15,0,0,0-.41.31,2.7,2.7,0,0,0-.53.64,2.48,2.48,0,0,0-.17.37,1.36,1.36,0,0,0-.14.56,1.16,1.16,0,0,0,.06.49.74.74,0,0,0,.36.47.51.51,0,0,0,.17.07.67.67,0,0,0,.48-.06l-.16.06a.73.73,0,0,0,.33-.19.67.67,0,0,0,.14-.19,1.83,1.83,0,0,0,.14-.32l-.07.19c0-.12.11-.24.15-.36s.05-.14.07-.2l-.08.19a2.38,2.38,0,0,1,.25-.44l-.12.17a2.38,2.38,0,0,1,.35-.36l-.17.13a1.84,1.84,0,0,1,.41-.24l-.2.08h0a.64.64,0,0,0,.29-.16.52.52,0,0,0,.21-.23.82.82,0,0,0-.3-1.11.82.82,0,0,0-.61-.09Z" transform="translate(-15.63 -94.37)"/><path class="cls-1" d="M196,163.12l1.23,1.13.61.55a4,4,0,0,0,.3.28,2.29,2.29,0,0,0,.5.3.73.73,0,0,0,.87-.12.76.76,0,0,0,.11-.86,2.91,2.91,0,0,0-.32-.46,4,4,0,0,0-.3-.28l-.62-.57L197.19,162a.82.82,0,1,0-1.15,1.16Z" transform="translate(-15.63 -94.37)"/><path class="cls-2" d="M165.21,96.39c-.77-.51-1.84-1.31-2.8-.81-1.31.68-1.36,2.68-1.34,4,0,1.76.22,3.53.43,5.28.17,1.44.72,3.47-.19,4.75-.26.38.24.74.58.58,1.27-.61,1.28-2.14,1.21-3.39-.09-1.55-.39-3.1-.54-4.65s-.52-3.36-.05-4.83c.13-.41.34-.83.81-.75a4.48,4.48,0,0,1,1.41.72c.54.34,1-.51.48-.85Z" transform="translate(-15.63 -94.37)"/><path class="cls-2" d="M160.13,107.08c2.4-.18,4.82,0,7.2-.43.72-.12.53-1.22-.16-1.24a68.69,68.69,0,0,0-7,0,.85.85,0,0,0-.82.81.83.83,0,0,0,.81.83Z" transform="translate(-15.63 -94.37)"/><path class="cls-2" d="M167.83,109.27a3.26,3.26,0,0,0,1.58,1.28,1.55,1.55,0,0,0,1.19.09,2.56,2.56,0,0,0,.76-.54,3.47,3.47,0,0,0,.78-1.72,4.27,4.27,0,0,0,0-2.27.58.58,0,0,0-1.12,0,5,5,0,0,0-.18,1.22l0,.3s0,.14,0,.07,0,.06,0,.07c0,.2-.1.39-.15.59a1.6,1.6,0,0,1-.05.21l0,.1c0,.12,0,0,0,0a1,1,0,0,0-.09.18.56.56,0,0,1-.05.08l0,.06s0,0,0,0,0,0,0,0l0,0-.06.07-.09.08,0,0c-.14.06-.26.17-.4.23l.57-.07a3.57,3.57,0,0,1-.47-.11l-.06,0c.11,0,0,0,0,0l-.21-.11-.08-.06c-.08,0-.05-.08,0,0a1.3,1.3,0,0,0-.18-.15l-.16-.18a.5.5,0,0,1-.07-.08l0,0-.05-.07a.77.77,0,0,0-1-.28.76.76,0,0,0-.28,1Z" transform="translate(-15.63 -94.37)"/><path class="cls-2" d="M172.8,109.55a4.65,4.65,0,0,1,.1-1l0-.12c0,.06,0,0,0-.05l.06-.1s.06-.06,0,0l.05-.06c0-.06,0,0,0,0s.11,0,0,0l.13,0s.08,0,0,0,.09,0,.09,0,0,0,.07,0,0,0,.05,0,.12.08,0,0l.12.11a1.42,1.42,0,0,1,.12.13c-.07-.08,0,0,0,0a2.54,2.54,0,0,1,.16.28l.16.29s.07.17,0,.09l.08.21c.09.27.16.55.24.82a5.89,5.89,0,0,0,.29.9c.14.35.37.88.79.94a.49.49,0,0,0,.55-.23,1.51,1.51,0,0,0-.1-1.1c-.11-.31-.19-.62-.29-.93a6.45,6.45,0,0,0-.82-1.74,1.75,1.75,0,0,0-1.54-.89,1.43,1.43,0,0,0-1.22,1,4.41,4.41,0,0,0-.11,1.45.37.37,0,0,0,.73,0Z" transform="translate(-15.63 -94.37)"/><path class="cls-2" d="M178.62,107.53a3,3,0,0,0-1.69,2.56,1.56,1.56,0,0,0,.4,1,2.09,2.09,0,0,0,.65.57,2.7,2.7,0,0,0,.72.26,4.67,4.67,0,0,0,1,.18,4.09,4.09,0,0,0,1-.07,2.5,2.5,0,0,0,.45-.12l.22-.06.2-.09,0,0a.65.65,0,0,0,.46-.69.64.64,0,0,0-.62-.55,5.57,5.57,0,0,0-1.08,0,4.34,4.34,0,0,1-.51,0l-.25,0c-.11,0,.13,0,0,0l-.16,0-.49-.13-.11,0s-.14,0,0,0-.06,0-.09,0,0-.09,0,0-.05,0-.07-.06-.09-.12-.13-.14.1.16,0,.06l-.07-.11a1.47,1.47,0,0,1-.1-.22l.11.42s0-.11,0-.16,0,.15,0,0a2,2,0,0,1,.07-.26s0-.1.05-.14-.08.15,0,0a1.71,1.71,0,0,1,.13-.23c.07-.12-.1.1,0,0l.08-.09.21-.21c.11-.1-.12.08,0,0l.11-.07a2.61,2.61,0,0,1,.28-.17.82.82,0,0,0,.3-1.11.83.83,0,0,0-1.11-.3Z" transform="translate(-15.63 -94.37)"/><path class="cls-2" d="M182.6,103.4c.12,1.36.24,2.72.41,4.08.07.55.18,1.1.26,1.66a1.94,1.94,0,0,0,.74,1.35c.49.36,1-.32.78-.79a2.87,2.87,0,0,1-.08-1c0-.56-.1-1.13-.15-1.69-.12-1.2-.22-2.41-.33-3.61a.84.84,0,0,0-.81-.82.82.82,0,0,0-.82.81Z" transform="translate(-15.63 -94.37)"/><path class="cls-2" d="M181.43,106.86a32,32,0,0,0,5.87-.68.6.6,0,0,0-.15-1.18,37.56,37.56,0,0,0-5.71.22.84.84,0,0,0-.82.81.83.83,0,0,0,.81.83Z" transform="translate(-15.63 -94.37)"/><path class="cls-2" d="M188.55,108.44c.09.55.22,1.09.33,1.63,0,.15.06.29.08.43a.88.88,0,0,0,0,.17q0-.17,0,0l0,.26a1.7,1.7,0,0,1,0,.22V111s0,.08,0,.11a4.48,4.48,0,0,0,.1.55.64.64,0,0,0,.55.48.62.62,0,0,0,.65-.32,2.07,2.07,0,0,0,.2-.64,3.4,3.4,0,0,0,0-.45,6.78,6.78,0,0,0-.11-1c-.09-.58-.24-1.14-.34-1.72a.82.82,0,0,0-1-.59.85.85,0,0,0-.59,1Z" transform="translate(-15.63 -94.37)"/><path class="cls-2" d="M188.46,103.81a.19.19,0,0,0,0-.37.19.19,0,0,0,0,.37Z" transform="translate(-15.63 -94.37)"/><path class="cls-2" d="M188,103.93a.81.81,0,0,0,0,.38.63.63,0,0,0,.17.31.66.66,0,0,0,.29.17.64.64,0,0,0,.49-.06.61.61,0,0,0,.23-.25,1.67,1.67,0,0,0,.08-.2.94.94,0,0,0,.06-.29,1.4,1.4,0,0,0-.05-.5l-.06-.15a.52.52,0,0,0-.16-.17.29.29,0,0,0-.14-.08.42.42,0,0,0-.22,0,.82.82,0,0,0-.43.12.72.72,0,0,0-.35.45,1,1,0,0,0,.12.75.4.4,0,0,0,.16.18.43.43,0,0,0,.21.11l.16,0a.55.55,0,0,0,.31-.08.8.8,0,0,0,.21-.15l.11-.15,0,0a1.43,1.43,0,0,0,.08-.22,1,1,0,0,0,0-.24,2,2,0,0,0,0-.25.36.36,0,0,1,0-.1,2.3,2.3,0,0,0-.12-.34l-.54.94h0l-.16,0h0l-.14-.06h0l-.13-.09h0l-.1-.13,0,0-.06-.15h0a.43.43,0,0,0,.12.22l.06.08-.1-.12,0,0a.63.63,0,0,0,.22.21.36.36,0,0,0,.2.06.41.41,0,0,0,.22,0,.57.57,0,0,0,.27-.16.75.75,0,0,0,.18-.31.78.78,0,0,0,0-.34.41.41,0,0,1,0-.08l0-.09a.76.76,0,0,0-.11-.14h0l-.07-.06-.07,0-.16-.07h0a.58.58,0,0,0-.19,0,.65.65,0,0,0-.31.08.73.73,0,0,0-.29.38.58.58,0,0,0,0,.32,3.18,3.18,0,0,1,.08.33l0-.16a.28.28,0,0,1,0,.13l0-.16s0,0,0,.06l.06-.14,0,.05.09-.13,0,0,.13-.1,0,0,.84.22,0,0,.07.15a.56.56,0,0,1,0-.12l0,.16v-.07l0,.15s0,0,0,0l-.06.15,0,0-.1.12A1.34,1.34,0,0,0,189,104l-.09.12,0,0-.13.1.07,0-.14.06h0l-.67-.28,0,.1-.06-.15a1.21,1.21,0,0,1,0,.18l0-.15a1.34,1.34,0,0,1,0,.2V104a.31.31,0,0,1,0,.13l0-.13v0l.33-.25h.16l.13,0h0l.11.08s0,0,0,0l.09.12,0,0,.06.13a.07.07,0,0,1,0,0v0a.38.38,0,0,0,0-.21.45.45,0,0,0-.11-.17l-.11-.09a.7.7,0,0,0-.19-.06.5.5,0,0,0-.34.07.49.49,0,0,0-.24.32Z" transform="translate(-15.63 -94.37)"/><path class="cls-2" d="M192.27,109.23a8.49,8.49,0,0,0,1.19,2.17,2.11,2.11,0,0,0,2.72.56,2.88,2.88,0,0,0,1.21-2.86,3.26,3.26,0,0,0-.76-1.53,3.2,3.2,0,0,0-1.43-.94,2.9,2.9,0,0,0-2,.07,1.47,1.47,0,0,0-.82.67,1.12,1.12,0,0,0,.21,1.33.66.66,0,0,0,1.1-.46c0-.19,0,.13,0,0,0,.09.08-.35,0-.18s-.09.21,0,.1l-.06.09a.23.23,0,0,1,.07-.07s-.17.1,0,0l.13-.07s-.19.06-.05,0l.2,0,.11,0s.24,0,0,0h.44c.12,0-.17,0,0,0l.33.08c.17,0-.09-.06,0,0a.45.45,0,0,0,.12.06l.24.15c.15.1-.12-.12,0,0l.09.07.23.24c.13.15-.09-.14,0,0l.07.09.15.28a.52.52,0,0,1,.06.13c-.05-.2,0,0,0,0a2.27,2.27,0,0,0,.06.25c0,.09,0-.19,0,0v.15s0,.21,0,.24,0-.14,0,0l0,.15a.89.89,0,0,1-.09.29c.09-.08,0-.09,0,0a1.17,1.17,0,0,1-.05.11s-.1.21-.14.22l.06-.07-.06.07-.07.07-.11.1s.15-.1,0,0l-.12.07c-.12.07,0,0,.05,0s-.2.09-.23.06H195c-.09,0,.17,0,0,0a.66.66,0,0,0-.15,0c-.08,0,.16.08,0,0l-.11-.06-.08,0c-.13-.09,0,0,0,0s-.32-.31-.36-.36,0,0,0,0-.1-.13-.12-.16l-.15-.24c-.1-.17-.19-.34-.28-.51s-.27-.61-.42-.9a.67.67,0,0,0-.92-.25.68.68,0,0,0-.25.92Z" transform="translate(-15.63 -94.37)"/><path class="cls-2" d="M198.4,110a5.42,5.42,0,0,1,0-1.51,1,1,0,0,1,.11-.29l0-.06h0l.07-.07c.06-.06-.09.05,0,0l.08,0s.06,0,.06,0h.12l.13,0a.64.64,0,0,1,.16.07,2.76,2.76,0,0,1,.67.51,3,3,0,0,1,.36.35,1.46,1.46,0,0,1,.16.19c.05.06,0,0,0,0a.76.76,0,0,0,.08.11,3.38,3.38,0,0,1,.24.41,2,2,0,0,1,.1.21.36.36,0,0,1,0,.09l0,0a7.9,7.9,0,0,1,.27,1c.08.34.12.69.23,1a1.4,1.4,0,0,0,1,1,.59.59,0,0,0,.56-1c-.09-.09,0,0,0,0l-.06-.1a.54.54,0,0,1,0-.11s0,.13,0,0-.1-.32-.13-.49c-.07-.35-.14-.69-.24-1a5.5,5.5,0,0,0-1.11-2.11,6.21,6.21,0,0,0-.91-.79,3.34,3.34,0,0,0-1-.54,1.56,1.56,0,0,0-1.94,1.07,6.16,6.16,0,0,0-.05,2.1c0,.63,1,.64,1,0Z" transform="translate(-15.63 -94.37)"/><path class="cls-2" d="M205.23,106.56c-.55.59-1.23,1.22-1.12,2.1s.93,1.33,1.58,1.8c.05,0,.23.17.07,0l.17.14c.13.11.25.23.37.35s0,0,0,0,.06.09.06.09a.64.64,0,0,0,.1.18c-.08,0-.05-.15,0-.06s0,.09,0,.09,0-.16,0-.06.06-.15,0,0,0,0,0,0-.05.09-.05.1a1.88,1.88,0,0,1-.12.18c.12-.17,0,0,0,0l-.08.07c-.14.13,0,0,0,0s-.32.19-.36.21,0,0,0,0l-.12,0-.23,0c-.14,0,.05,0,.05,0h-.4s.19,0,0,0a.53.53,0,0,1-.12,0l-.09,0c-.16,0,0,0,0,0a2.25,2.25,0,0,0-.22-.11l-.08,0c-.15-.08.11.11,0,0a4.4,4.4,0,0,1-.38-.37.66.66,0,0,0-.78-.1.69.69,0,0,0-.31.73,2,2,0,0,0,1.91,1.51,2.83,2.83,0,0,0,2.17-.81,2.17,2.17,0,0,0,.63-1.12,1.76,1.76,0,0,0-.28-1.26,3.6,3.6,0,0,0-.79-.86q-.26-.21-.51-.39l-.18-.14-.08,0c-.14-.11,0,0,0,0s-.25-.21-.27-.24l-.07-.07c.08.1,0-.08-.06-.08s.05.18,0,0,0,.15,0,0,0-.16,0,0v0q0-.12,0,.06s.09-.17.13-.22,0,0,0,0,.08-.1.11-.14.34-.35.5-.53a.82.82,0,0,0,0-1.15.84.84,0,0,0-1.16,0Z" transform="translate(-15.63 -94.37)"/><path class="cls-2" d="M213.81,98.8a74.5,74.5,0,0,1-2.76,10.61c-.57,1.68-1.2,3.34-1.87,5-.33.82-.67,1.63-1,2.45-.26.65-.84,1.61-.57,2.32a.65.65,0,0,0,1.17.15,47.3,47.3,0,0,0,2-4.61q1-2.46,1.87-5a74.22,74.22,0,0,0,2.71-10.5c.2-1-1.38-1.45-1.57-.42Z" transform="translate(-15.63 -94.37)"/><path class="cls-2" d="M215.08,109.71a2,2,0,0,1,.12,1.24l1.2-.16a3.8,3.8,0,0,1-.23-2.35,1.94,1.94,0,0,1,.31-.85s.17-.08,0,0,.19,0,.1,0h0s.1.07,0,0l.13.14c-.07-.08,0,0,0,0l.11.19a1.94,1.94,0,0,1,.13.3c0,.14.09.28.13.43.14.5.21,1,.38,1.51a.74.74,0,0,0,1.35.18c.53-1,.72-2.22,1.35-3.22l-.57.34c.44,0,.69.45.91.8a6.63,6.63,0,0,1,.72,1.63,12.68,12.68,0,0,0,.49,1.7,1.83,1.83,0,0,0,1.58,1,.64.64,0,0,0,.55-.95,1.6,1.6,0,0,0-.4-.42,1.69,1.69,0,0,1-.29-.17,1.53,1.53,0,0,1-.26-.71,12.16,12.16,0,0,0-.65-1.87,6,6,0,0,0-1.08-1.65,2.46,2.46,0,0,0-1.57-.69.66.66,0,0,0-.57.34c-.66,1-.91,2.13-1.49,3.14l1.36.18c-.35-1.23-.6-3.6-2.3-3.65-1.06,0-1.57.95-1.74,1.87a5.76,5.76,0,0,0,.33,3.43.66.66,0,0,0,1.2-.16,3.25,3.25,0,0,0-.16-1.9.65.65,0,0,0-.78-.45.63.63,0,0,0-.45.77Z" transform="translate(-15.63 -94.37)"/><path class="cls-2" d="M226.81,107a3,3,0,0,0-2.07-.5,2.35,2.35,0,0,0-1.44,2.27,3.51,3.51,0,0,0,.88,2.63,1.56,1.56,0,0,0,2.16-.06,5.78,5.78,0,0,0,1.27-1.74l-1.43-.18a3.61,3.61,0,0,0,1.48,2.12,3.54,3.54,0,0,0,2.47.44.64.64,0,0,0,.47-.7.65.65,0,0,0-.63-.56,3.69,3.69,0,0,1-1.5-.53l-.08-.06c.06,0,.07.06,0,0l-.17-.16-.14-.15c-.12-.12.05.1,0,0l-.22-.38,0-.09c0-.1-.08-.2-.11-.3a.78.78,0,0,0-1.42-.19,7.28,7.28,0,0,1-.4.72,1.63,1.63,0,0,0-.11.17h0l-.09.11a3,3,0,0,1-.3.32s-.19.13,0,0a1.4,1.4,0,0,0-.16.1s.15-.07,0,0c.19-.07,0,0,0,0q.18,0,.06,0c.1,0,.12,0,0,0l.07,0-.09-.09c-.06-.07-.06-.07,0,0l-.06-.11a1.51,1.51,0,0,1-.15-.28,2.59,2.59,0,0,1-.18-1,2.4,2.4,0,0,1,.09-.5.87.87,0,0,1,.1-.24s.14-.19,0-.09l.1-.1c-.08.06-.08.07,0,0s-.1,0,0,0c-.16,0,0,0,.08,0s0,0,0,0l.12,0,.19,0s.27.11.14,0l.42.2a.72.72,0,0,0,.71-1.25Z" transform="translate(-15.63 -94.37)"/><path class="cls-2" d="M232.46,107a3.15,3.15,0,0,0-1,3.55,2.73,2.73,0,0,0,1.26,1.46,2.58,2.58,0,0,0,2.12.13,6.14,6.14,0,0,0,1.93-1.24.67.67,0,0,0,.1-.8.65.65,0,0,0-.74-.31,6.65,6.65,0,0,0-1,.44l-.46.25-.14.06-.14,0a1.05,1.05,0,0,1-.24.06l-.13,0c-.09,0-.08,0,0,0s-.17,0-.18,0h-.13c.1,0,.1,0,0,0s-.3-.11-.13,0l-.18-.09s-.15-.08-.16-.11l0,0-.08-.07s-.13-.16-.15-.16.1.12,0,.05l0-.05a1.62,1.62,0,0,1-.1-.18c0-.09,0-.07,0,0a.42.42,0,0,1,0-.1,1.16,1.16,0,0,1-.09-.4c0,.21,0-.06,0-.11a1.93,1.93,0,0,1,0-.24.49.49,0,0,1,0-.12v.09A.64.64,0,0,1,233,109s.06-.3,0-.08a.84.84,0,0,1,.11-.21l.09-.15,0,0,.07-.09a4,4,0,0,1,.37-.35.81.81,0,0,0,0-1.16.84.84,0,0,0-1.15,0Z" transform="translate(-15.63 -94.37)"/><path class="cls-2" d="M236.21,103.83a27.53,27.53,0,0,0,1,4.59,5.08,5.08,0,0,0,.45,1.1,1,1,0,0,0,1.07.39,1.61,1.61,0,0,0,1-.65,6.56,6.56,0,0,0,.53-.93,4.77,4.77,0,0,1,.24-.44l.07-.11s-.08.1,0,0,.2-.2.12-.12.16,0,0,0c.17,0,0,0,0,0s.11,0,0,0,.19.07.08,0a1,1,0,0,1,.3.18,4.86,4.86,0,0,1,1,1.48,11.06,11.06,0,0,0,2.66,3.74.7.7,0,0,0,1-1,24.91,24.91,0,0,1-2.14-3.34c-.55-1-1.18-2.28-2.4-2.62a1.82,1.82,0,0,0-2.1,1c-.16.29-.29.6-.46.89a1.64,1.64,0,0,1-.14.22c.12-.15,0,0,0,0s.16-.08-.05,0c.12,0,.14,0,.05,0a.28.28,0,0,1,.18,0l.49.37a20.45,20.45,0,0,1-1.24-5.3.8.8,0,0,0-1-.57.82.82,0,0,0-.58,1Z" transform="translate(-15.63 -94.37)"/><path class="cls-2" d="M245.21,108.66c.15.47.3.94.49,1.4a7.18,7.18,0,0,0,.38.79,4.21,4.21,0,0,0,.55.71.67.67,0,0,0,.79.1.65.65,0,0,0,.31-.74c-.11-.3-.22-.6-.35-.9l.08.19c-.26-.64-.47-1.3-.67-2a.84.84,0,0,0-1-.59.83.83,0,0,0-.58,1Z" transform="translate(-15.63 -94.37)"/><path class="cls-2" d="M245.11,105h.38a.52.52,0,0,0,.27-.07.58.58,0,0,0,.19-.19l.06-.15,0,.13a1.09,1.09,0,0,0,.1-.25,1,1,0,0,0,0-.42,2.45,2.45,0,0,0-.08-.29l-1.07.62a1.24,1.24,0,0,0,.18.14l.07,0,.12.07.12.07a.71.71,0,0,0,.18.08h.07a.53.53,0,0,0,.25,0,.31.31,0,0,0,.18-.09.45.45,0,0,0,.2-.39s0,0,0-.07a1,1,0,0,0-.09-.33.43.43,0,0,1,0-.07.79.79,0,0,0-.14-.18.52.52,0,0,0-.1-.11.58.58,0,0,0-.12-.1l-.07-.06-.17-.07h0l-.16,0a.39.39,0,0,0-.24,0,.29.29,0,0,0-.15.09.42.42,0,0,0-.17.18l-.06.15,0,.17a.42.42,0,0,0,.05.24.44.44,0,0,0,.14.22l0,0-.1-.13a.72.72,0,0,1,.14.24l-.06-.15.09.22-.06-.14a.17.17,0,0,1,0,.1l0-.14v-.09l.37-.37L245,104a.32.32,0,0,0-.17.09.35.35,0,0,0-.13.14l-.05.12a.37.37,0,0,0,0,.18.28.28,0,0,0,0,.13.34.34,0,0,0,.1.16.51.51,0,0,0,.34.14Z" transform="translate(-15.63 -94.37)"/><path class="cls-2" d="M249.08,110.11a4,4,0,0,1,.44-1.27,3,3,0,0,1,.19-.3c-.06.08,0,0,.06-.06a.86.86,0,0,1,.13-.14s.16-.11,0,0l.11-.07.08,0s-.11,0,0,0,.19,0,.11,0h.1c.1,0-.07,0,0,0l.12,0c-.07,0,0,0,.05,0l.1,0s.17.12.11.07l.16.14a.75.75,0,0,1,.15.16.23.23,0,0,1,.07.07s.08.11,0,.05,0,0,0,.06l.05.07.11.19c.08.14.15.28.22.43s.11.26.17.38l.09.21,0,.09c0,.07,0-.06,0,0a9.27,9.27,0,0,0,.93,2,.52.52,0,0,0,.65.22.51.51,0,0,0,.31-.61c-.51-1.37-.71-2.87-1.71-4a2.28,2.28,0,0,0-1.91-.87,2,2,0,0,0-1.41,1.08,4.79,4.79,0,0,0-.56,1.93c0,.52.83.65.92.12Z" transform="translate(-15.63 -94.37)"/><path class="cls-2" d="M256.31,110.12a3.11,3.11,0,0,0,2.37-.65,1.44,1.44,0,0,0,.16-1.58,1.53,1.53,0,0,0-1.37-.68,2,2,0,0,0-2,2.11,2.73,2.73,0,0,0,2.31,2.3,10.31,10.31,0,0,0,3.75-.23c.61-.11.47-1.06-.13-1.06-.84,0-1.68.1-2.52.07a3.77,3.77,0,0,1-1.14-.18,1.68,1.68,0,0,1-.44-.2l-.14-.08c-.09-.07.11.1,0,0l-.24-.23c.07.08,0,0,0,0l-.08-.13s-.07-.15,0,0l0-.11,0-.11c-.05-.17,0,.06,0,0s0-.09,0-.14,0-.18,0-.07a1.6,1.6,0,0,1,0-.21c0-.11,0,0,0,0l.06-.12a1,1,0,0,1,.27-.26.92.92,0,0,1,.43-.15,1.22,1.22,0,0,1,.34,0l.09.05c-.08,0,0,.06,0,0s0,.1,0,0l0,.12a.32.32,0,0,1-.08.25c.1-.11-.15.11,0,0,0,0-.22.12-.11.07l-.23.07-.13,0h-.06c-.33,0-.67,0-1,0-.74,0-.74,1.17,0,1.14Z" transform="translate(-15.63 -94.37)"/><path class="cls-2" d="M264,107.17l-.3.43a.79.79,0,0,0,0,.8,9.39,9.39,0,0,0,1,1.12l.21.23c.06.07,0,0,0,0l.05.07.1.15c.05.08.08.18.14.26l0-.07s0,0,0,.08c0,.19,0-.11,0,0a.85.85,0,0,0,0,.16c0-.12,0-.15,0-.07a.24.24,0,0,0,0,.08c0,.13.08-.14,0,0s-.08.16-.09.16.07-.1,0,0l-.06.06c.1-.07.12-.09.05,0l-.07,0c-.12.07.17-.05,0,0l-.08,0H265c-.11,0-.24,0-.35,0l-.32,0a4.34,4.34,0,0,0-.72,0,.63.63,0,0,0-.61.46.64.64,0,0,0,.29.7,4.25,4.25,0,0,0,1.46.44,1.74,1.74,0,0,0,1.53-.75,1.79,1.79,0,0,0,.24-1.54,3.9,3.9,0,0,0-.72-1.27l-.43-.54-.11-.13.06.09-.06-.09-.16-.24v.8l.31-.42a.81.81,0,0,0,.08-.61.79.79,0,0,0-.39-.5.84.84,0,0,0-1.11.3Z" transform="translate(-15.63 -94.37)"/><path class="cls-2" d="M16.49,99.22c-.2,1.89-.39,3.78-.55,5.67-.08.91-.14,1.83-.21,2.74,0,.46,0,.92-.07,1.39a2.27,2.27,0,0,0,.11,1.21.52.52,0,0,0,.7.19c.71-.51.69-1.56.77-2.36.1-1,.2-2,.29-3,.19-2,.38-3.92.6-5.88a.82.82,0,0,0-1.64,0Z" transform="translate(-15.63 -94.37)"/><path class="cls-2" d="M17.94,97.61c.36-.6,1.28-2.07,2.16-1.69a2.48,2.48,0,0,1,1,1.2,4.93,4.93,0,0,1,.5,1.77,4,4,0,0,1-1.17,3.26,5.8,5.8,0,0,1-3.35,1.71c-.54,0-1,.9-.31,1.17,1.34.57,2.76-.18,3.85-1a6,6,0,0,0,2.39-3.3,6.25,6.25,0,0,0-.41-4c-.5-1.14-1.51-2.42-2.88-2.33s-2.4,1.4-3.05,2.51c-.47.8.77,1.51,1.26.72Z" transform="translate(-15.63 -94.37)"/><path class="cls-2" d="M20.19,109.53a12.51,12.51,0,0,1,0-1.5c.07-.54.28-.61.78-.81a.87.87,0,0,1,1.06.11,5.44,5.44,0,0,1,.91,1.4A7.13,7.13,0,0,0,24,110.47a2.06,2.06,0,0,0,1.76.61,2.69,2.69,0,0,0,1.76-.78,2.47,2.47,0,0,0,.6-1.91,2.9,2.9,0,0,0-1.36-2,4.38,4.38,0,0,0-1-.52,3.44,3.44,0,0,0-1.25-.35.74.74,0,0,0-.37,1.38,4.42,4.42,0,0,0,.91.36,4.27,4.27,0,0,1,.83.41,1.26,1.26,0,0,1,.71,1.08.86.86,0,0,1-.63.83,1.5,1.5,0,0,1-.66.1.78.78,0,0,1-.49-.34,11.31,11.31,0,0,1-.89-1.55A6.21,6.21,0,0,0,23,106.4a2.3,2.3,0,0,0-3.11,0c-1,.74-.71,2-.65,3.1a.47.47,0,0,0,.94,0Z" transform="translate(-15.63 -94.37)"/><path class="cls-2" d="M27.24,101.63c.08,1.09.15,2.17.21,3.26,0,.53.07,1.06.07,1.59a3.42,3.42,0,0,0,.35,1.51.76.76,0,0,0,1.31,0,9.68,9.68,0,0,1,.66-1.33,2,2,0,0,1,.72-.76,1.94,1.94,0,0,1,.72-.21,1.29,1.29,0,0,1,.36,0,.5.5,0,0,1,.28.11.31.31,0,0,1,.1.12,1.35,1.35,0,0,1,0,.53,2.43,2.43,0,0,1-.52,1.14,3.06,3.06,0,0,1-1,.85c-.3.15-.7,0-1.08.07a.59.59,0,0,0-.27,1,1.76,1.76,0,0,0,1.35.47,2.72,2.72,0,0,0,1.47-.76,4,4,0,0,0,1.44-2.79,1.88,1.88,0,0,0-1.28-2,3,3,0,0,0-2.22.28c-1,.52-1.43,1.63-2.07,2.49l1.38.19a5.36,5.36,0,0,1-.1-1.2c0-.52,0-1-.08-1.55-.06-1-.13-2-.2-3a.82.82,0,0,0-1.63,0Z" transform="translate(-15.63 -94.37)"/><path class="cls-2" d="M37.71,107.3a.19.19,0,0,0,0-.37.19.19,0,0,0,0,.37Z" transform="translate(-15.63 -94.37)"/><path class="cls-2" d="M37.24,105.53a5,5,0,0,0-.8-.41.92.92,0,0,0-.76-.06,1.25,1.25,0,0,0-.45.34,2.65,2.65,0,0,0-.58,1.53l0,.31c0,.05,0,.09,0,.14,0,.2,0-.14,0,0,0,.32-.1.64-.12,1a4.16,4.16,0,0,0,.25,1.75.84.84,0,0,0,1,.59,2.11,2.11,0,0,0,1-.71,2.51,2.51,0,0,0,.43-.94c.07-.25.1-.51.18-.76l0-.09c0-.11,0,0,0,0s0-.12.08-.16.1-.12,0,0,0,0,0,0a1.07,1.07,0,0,1,.16-.14l-.78.21c.08,0,.07,0,0,0a.31.31,0,0,1,.1,0l.1.06c-.08-.06-.1-.07-.05,0s.23.21.33.32.36.45.54.67a5.39,5.39,0,0,0,.7.65c.17.14.35.27.53.4s.08.06,0,0l.22.16.26.15c.57.37,1.18-.35.89-.9a7.24,7.24,0,0,0-1.35-1.47,13.32,13.32,0,0,0-1-1.12,1.92,1.92,0,0,0-.94-.5,1.2,1.2,0,0,0-1.07.69,4.27,4.27,0,0,0-.43,1.26c0,.11-.06.21-.1.32s.06-.11,0,0,0,.1-.07.14.09-.08,0,0l-.12.12c0,.06.07-.06.08-.06l-.09.06-.07,0c-.07.06.19-.07,0,0l1,.59a3.47,3.47,0,0,1-.16-.55l0-.15c0,.08,0,.08,0,0a1.69,1.69,0,0,1,0-.23,3.25,3.25,0,0,1,0-.54l0-.32c0-.09,0-.11,0,0s0-.07,0-.11.05-.37.07-.56a1.49,1.49,0,0,0,0-.21c0,.21,0,0,0-.06a1.55,1.55,0,0,1,0-.21.36.36,0,0,1,0-.11c0-.07,0-.08,0,0l.07-.1c-.07.09-.08.1,0,0s.06,0,0,0l-.62.08c.23.09-.13-.07.1,0l.17.09c.13.07.26.14.38.22a.82.82,0,0,0,1.11-.3.85.85,0,0,0-.3-1.12Z" transform="translate(-15.63 -94.37)"/><path class="cls-2" d="M40,102.5a21.05,21.05,0,0,1,.68,5.91.8.8,0,0,0,.71.8.82.82,0,0,0,.9-.59,6.22,6.22,0,0,1,.41-1.15q.15-.28.33-.57a3.5,3.5,0,0,1,.35-.46,2.89,2.89,0,0,1,1-.75,2.37,2.37,0,0,1,.47-.15c.16,0,.08,0,0,0H45s.15,0,0,0a.58.58,0,0,1,.18,0,.45.45,0,0,1,.24.15l.11.11s.08.1,0,0,0,.08.06.1.07.13.11.2h0l0,.1s.07.28,0,.18,0,.1,0,.14a.48.48,0,0,1,0,.12c0-.1,0-.11,0,0s-.08.14,0,0-.07.13-.11.19-.08,0,0,0l-.08.09-.16.15c.13-.14,0,0-.07,0l-.19.1a1.24,1.24,0,0,1-.2.1c.19-.09-.06,0-.13,0a5.09,5.09,0,0,1-.56.14h-.1c.19,0,0,0-.05,0l-.26,0a9,9,0,0,0-1.16,0c-.52.07-.58.76-.29,1.08.65.71,1.94.57,2.77.32a3,3,0,0,0,2.08-1.79,2.69,2.69,0,0,0-1.2-2.92,3,3,0,0,0-3.41.6,7.33,7.33,0,0,0-2.06,3.32l1.6.22a22.2,22.2,0,0,0-.73-6.33.82.82,0,1,0-1.58.41Z" transform="translate(-15.63 -94.37)"/><path class="cls-2" d="M48.08,107.33c0,.39.05.77.09,1.15,0,.23.07.47.11.7a1.47,1.47,0,0,0,.13.44c0,.08.07.17.11.25a.63.63,0,0,0,.25.26.71.71,0,0,0,.43.08.67.67,0,0,0,.58-.5,3.13,3.13,0,0,0,.06-.68c0-.19,0-.38,0-.57,0-.37-.07-.74-.09-1.12a.82.82,0,0,0-1.63,0Z" transform="translate(-15.63 -94.37)"/><path class="cls-2" d="M49.5,103.7l-.1-.2-.46,1.08a.66.66,0,0,0,.21-.08,1,1,0,0,0,.17-.13.67.67,0,0,0,.18-.33h0a1.1,1.1,0,0,0,0-.18.43.43,0,0,0-.05-.25.51.51,0,0,0-.15-.23h0l-.15-.12a.74.74,0,0,0-.36-.09h0a.86.86,0,0,0-.38.1.81.81,0,0,0-.27.28.5.5,0,0,0-.08.26.48.48,0,0,0,0,.29.69.69,0,0,0,.19.33l.16.16a.55.55,0,0,0,.23.14.58.58,0,0,0,.26.06l.18,0a.55.55,0,0,0,.25-.13.4.4,0,0,0,.13-.13.55.55,0,0,0,.12-.24l0-.18a.62.62,0,0,0-.1-.35Z" transform="translate(-15.63 -94.37)"/><path class="cls-2" d="M51,101.4c.33,1.7.49,3.42.72,5.13.1.76.22,1.51.37,2.25a2.54,2.54,0,0,0,1,1.68c.51.35,1-.32.77-.77a5.65,5.65,0,0,1-.22-1.59c-.1-.78-.24-1.54-.33-2.32-.21-1.6-.37-3.21-.68-4.79-.21-1-1.79-.61-1.58.41Z" transform="translate(-15.63 -94.37)"/><path class="cls-2" d="M55.43,108.4c.09.24.19.46.29.7l-.08-.2c.08.19.15.39.22.59s.06.2.08.3a.83.83,0,0,1,0,.15,1.39,1.39,0,0,0,.12.32l-.08-.19c0,.09.07.19.11.29a.71.71,0,0,0,.66.52.7.7,0,0,0,.66-.51c0-.15,0-.3.07-.45a1.63,1.63,0,0,0,0-.44,3.65,3.65,0,0,0-.14-.57c-.12-.38-.28-.75-.43-1.12a1,1,0,0,0-.21-.38l-.17-.12a.75.75,0,0,0-.71,0,.78.78,0,0,0-.45.44.6.6,0,0,0-.06.3.72.72,0,0,0,.11.41Z" transform="translate(-15.63 -94.37)"/><path class="cls-2" d="M54.83,104.2a2.23,2.23,0,0,1,.2.33,2.1,2.1,0,0,0,.22.3,2.2,2.2,0,0,0,.28.24l.18.07.19,0,.19,0a.59.59,0,0,0,.27-.14.35.35,0,0,0,.13-.14.34.34,0,0,0,.1-.16.41.41,0,0,0,0-.19.66.66,0,0,0,0-.28,1.1,1.1,0,0,0-.26-.44,1.16,1.16,0,0,0-.24-.2,1.18,1.18,0,0,0-.29-.16l-.5-.19-.15,0a.94.94,0,0,0-.5,0,.68.68,0,0,0-.32.18.65.65,0,0,0-.15.23.63.63,0,0,0-.06.27.64.64,0,0,0,.1.35.74.74,0,0,0,.15.19.85.85,0,0,0,.37.21l.14.05a3,3,0,0,1,.32.12l-.17-.08a2.85,2.85,0,0,1,.3.16l-.15-.11a.47.47,0,0,1,.1.1l-.12-.16a.25.25,0,0,1,0,.07l-.07-.18a0,0,0,0,0,0,0l1.25-.72a.57.57,0,0,1-.11-.11l.12.16a2.13,2.13,0,0,1-.16-.25c-.09-.13-.18-.26-.28-.38a.58.58,0,0,0-.25-.15.42.42,0,0,0-.27-.06l-.19,0a.51.51,0,0,0-.26.14.35.35,0,0,0-.14.13.53.53,0,0,0-.13.26l0,.18a.83.83,0,0,0,.1.38Z" transform="translate(-15.63 -94.37)"/><path class="cls-2" d="M59.7,102.29c.12,1.44.24,2.89.4,4.33,0,.36.09.73.14,1.09,0,.09,0,.18,0,.27,0-.09,0-.08,0,0s0,.3.05.45a1.91,1.91,0,0,0,.75,1.4c.53.35,1.11-.34.84-.85a3.34,3.34,0,0,1-.08-1c0-.59-.1-1.19-.16-1.79-.14-1.3-.25-2.61-.35-3.91a.84.84,0,0,0-.82-.82.82.82,0,0,0-.82.81Z" transform="translate(-15.63 -94.37)"/><path class="cls-2" d="M59.63,106.59c1.46-.37,2.87-.93,4.34-1.27a.63.63,0,0,0,.46-.69.64.64,0,0,0-.62-.56c-1.57-.19-3.1.57-4.59.94a.83.83,0,0,0-.59,1,.84.84,0,0,0,1,.58Z" transform="translate(-15.63 -94.37)"/><path class="cls-2" d="M64.39,108a2.16,2.16,0,0,0,1.67,1.53.75.75,0,0,0,.8-.34c.57-.93.6-2.16,1.3-3h-.73c.33.31.19.5.13.89s0,.9-.11,1.34c-.12.82-.41,1.6-.57,2.41a21.15,21.15,0,0,0-.59,5.31.6.6,0,0,0,1.19,0,35.06,35.06,0,0,1,.87-6,12.05,12.05,0,0,0,.37-2.74,3.36,3.36,0,0,0,0-1.14,1.61,1.61,0,0,0-.69-.85.51.51,0,0,0-.62.08c-.71.88-.94,2-1.69,2.88l.69-.18a.92.92,0,0,1-.56-.55.8.8,0,0,0-.94-.54.76.76,0,0,0-.54.93Z" transform="translate(-15.63 -94.37)"/><path class="cls-2" d="M79.64,110.2l.2.07a.69.69,0,0,0,.86-.66c0-.73-.19-1.45-.21-2.19a1.37,1.37,0,0,1,.79-1.53h-.6a1.24,1.24,0,0,1,.47,1.09,2.07,2.07,0,0,0,.61,1.61.7.7,0,0,0,1.09-.15c.21-.37.35-.79.53-1.18a11.26,11.26,0,0,1,.9-1.72,3.05,3.05,0,0,1,.5-.65l.15-.14c-.09.08,0,0,.06,0l.13-.08c.08,0-.11,0,0,0l.08,0c.12-.07-.05,0,0,0s-.11,0,0,0-.06-.06,0,0,0-.06.07.05a2,2,0,0,1,.43,1c.25,1.16.13,2.48.77,3.51a.6.6,0,0,0,1.1-.45,28.48,28.48,0,0,0-.55-3.45c-.22-.86-.75-1.88-1.76-1.94a2.15,2.15,0,0,0-1.65.91,9.85,9.85,0,0,0-1.24,1.9c-.28.53-.53,1.08-.79,1.62l1.08-.15c-.33-.3-.23-.61-.29-1a2.36,2.36,0,0,0-.52-1.2c-.27-.32-.72-.73-1.17-.56a2.25,2.25,0,0,0-.94.74c-.9,1.17-.37,2.69-.48,4l1-.59-.19-.09a.69.69,0,1,0-.52,1.27Z" transform="translate(-15.63 -94.37)"/><path class="cls-2" d="M88.86,108.41a4.87,4.87,0,0,0,3.61-.52,3.17,3.17,0,0,0,1.23-1.75,1.89,1.89,0,0,0-.39-1.89,1.61,1.61,0,0,0-1.89-.14A3.68,3.68,0,0,0,90,105.5a3.44,3.44,0,0,0-.06,4c1,1.23,2.93,1,4.19.37a.63.63,0,0,0-.31-1.16c-.27,0-.54,0-.8.09l-.31.06s-.23,0-.06,0l-.25,0a4,4,0,0,1-.69,0c.15,0,0,0,0,0l-.14,0-.17,0c-.08,0-.08,0,0,0l-.1-.06-.13-.07c-.1-.06.11.11,0,0l-.14-.13c-.14-.12.06.11,0-.05a1.43,1.43,0,0,1-.15-.27c.07.16,0,0,0,0a2.1,2.1,0,0,1-.06-.24c0-.19,0,.12,0-.07v-.13a1.34,1.34,0,0,1,0-.2s0-.21,0-.08a3.44,3.44,0,0,1,.2-.78c.07-.2,0,.1,0-.09l.09-.18a2.69,2.69,0,0,1,.16-.29c.06-.11.14-.22.21-.33-.07.09,0,0,0,0l.14-.16a1.54,1.54,0,0,1,.44-.38l.08,0,.16,0c-.13,0,0,0,0,0s-.11,0,0,0-.11,0,0,0-.08-.09,0,0,0-.12,0,0a.22.22,0,0,1,0,.08c-.07-.13,0,0,0,0s0,.18,0,0a1.08,1.08,0,0,1,0,.18v0a.3.3,0,0,1,0,.1,2,2,0,0,1-.28.66,1,1,0,0,1-.08.11c.08-.1,0,.06,0,.06a2.13,2.13,0,0,1-.3.3c.1-.08,0,0,0,0l-.2.12-.16.08-.1.05h0a3.9,3.9,0,0,1-.75.18h0l-.25,0h-.4l-.4,0-.18,0c-.08,0-.08,0,0,0H89.2a.66.66,0,0,0-.8.46.67.67,0,0,0,.46.8Z" transform="translate(-15.63 -94.37)"/><path class="cls-2" d="M97.59,107.19a1.43,1.43,0,0,0,1.31-.94,1.69,1.69,0,0,0-.6-1.63,1.75,1.75,0,0,0-1.78-.38,2.44,2.44,0,0,0-1.31,1.16,4.84,4.84,0,0,0-.45,2.4c0,1,.51,2,1.65,2.11a2.34,2.34,0,0,0,1.66-.7c.2-.17.38-.35.57-.53s.17-.17.26-.26l.12-.11.08-.07c-.1.07-.11.08,0,0l-1.11-.86a2.38,2.38,0,0,0,.81,2.21,4.69,4.69,0,0,0,2,1,.66.66,0,0,0,.49-1.2c-.22-.13-.43-.28-.65-.4l-.39-.23-.15-.11c.15.11,0,0-.07-.06a2.44,2.44,0,0,1-.29-.27s-.13-.19,0,0a1.63,1.63,0,0,1-.11-.17s-.1-.24,0,0a1.54,1.54,0,0,0,0-.17c-.05-.15,0,.11,0,0a2.26,2.26,0,0,0,0-.26.75.75,0,0,0-.47-.7.8.8,0,0,0-.83.17,7.36,7.36,0,0,0-.69.68c-.12.12-.24.25-.37.36s-.22.18-.09.09l-.23.15a.53.53,0,0,0-.1.06c-.08.06.11,0,0,0s-.24.06-.15,0-.07,0-.08,0-.1,0,0,0l-.11,0c.06,0,.09,0,0,0s.1.11,0,0,.06.13,0,0l-.09-.16c0-.08,0,.13,0,0l0-.12a1.17,1.17,0,0,1,0-.2s0-.24,0-.09c0-.17,0-.34,0-.51a3.4,3.4,0,0,1,0-.45s0-.07,0-.11,0,.13,0,0,0-.16,0-.23l.09-.37a1.42,1.42,0,0,0,0-.16c0-.13-.06.11,0,0a1.33,1.33,0,0,1,.69-.69h0c.12,0,0,0,.13,0a.57.57,0,0,1,.22,0,.81.81,0,0,1,.4.35.63.63,0,0,1,.09.24c0,.07,0,0,0,0a.27.27,0,0,1,0,.11.24.24,0,0,1-.11.09,1,1,0,0,1-.19,0,.53.53,0,0,0-.51.51.52.52,0,0,0,.51.51Z" transform="translate(-15.63 -94.37)"/><path class="cls-2" d="M104,103.39a2.22,2.22,0,0,0-1.83,1.63.74.74,0,0,0,.32.77c.39.28.82.51,1.22.78l.14.1.07,0,.23.21.13.14c-.07-.08,0,0,0,0a.83.83,0,0,1,.07.13c-.09-.17,0,0,0,0s0,0,0,0v.15c0-.13,0,.06,0,.08s0,.17,0,.13a2.09,2.09,0,0,1-.45.61,14.92,14.92,0,0,0-1.44,1.31.59.59,0,0,0,.72.92c1.26-.61,3-1.86,2.59-3.49-.29-1.23-1.66-1.71-2.57-2.39l.32.77a.76.76,0,0,1,.28-.47c.08-.07-.12.06.06,0l.12-.06a2.43,2.43,0,0,1,.39-.1.67.67,0,0,0,.48-.82.69.69,0,0,0-.82-.49Z" transform="translate(-15.63 -94.37)"/><path class="cls-2" d="M106.31,107.09a5.73,5.73,0,0,0,1.62,2,3.26,3.26,0,0,0,2.63.43,2.28,2.28,0,0,0,1.62-2.2,4.94,4.94,0,0,0-.34-1.78,2.74,2.74,0,0,0-.69-1.11,1.16,1.16,0,0,0-1.35-.23.59.59,0,0,0,0,1,.67.67,0,0,1,.12.06s.16.11,0,0,0,0,0,.06-.07-.13,0,0a3,3,0,0,1,.16.31,1.11,1.11,0,0,0,.07.16c-.12-.23,0,0,0,.06a6.69,6.69,0,0,1,.2.77l.06.36c0,.18,0-.2,0,0s0,.11,0,.16,0,.29,0,.34,0-.19,0,0l0,.11s0,.1,0,.1l0-.07a.43.43,0,0,1,0,.07.41.41,0,0,1,0,.09c0,.09,0,0,0,0s-.1.1-.13.14,0,0,.06,0-.06,0-.08,0l-.08,0c-.15.08,0,0,0,0s-.14,0-.19,0l-.1,0c-.16,0,.15,0,0,0h-.48c-.1,0,.14,0,0,0l-.13,0-.27-.07-.11,0,0,0-.24-.13-.09-.06c-.13-.08.09.08,0,0l-.2-.18-.16-.17a.27.27,0,0,0-.07-.08c-.11-.14.1.13,0,0-.22-.32-.42-.65-.61-1a.82.82,0,1,0-1.42.82Z" transform="translate(-15.63 -94.37)"/><path class="cls-2" d="M115,108.68c-.2-.32-.39-.65-.56-1l-.15-.3-.08-.18,0-.07c0-.12,0,0,0,0-.06-.24-.17-.46-.23-.69s-.05-.21-.07-.31a.28.28,0,0,0,0-.09s0,.21,0,.08a1,1,0,0,0,0-.17s0-.09,0-.14,0,.15,0,0a.57.57,0,0,0,0-.14s0-.1,0,0,0,0,0,0,.11-.15,0,0,0,0,0,0,0,0,0,0,.09,0,.09-.06-.15.09-.08,0l.08,0h-.1s.24,0,.11,0,.1,0,.13,0l.49.16c.79.28,1.55.62,2.35.88.6.2,1-.72.41-1-.73-.41-1.45-.84-2.21-1.2a3.75,3.75,0,0,0-1.12-.4,1.49,1.49,0,0,0-1.31.47c-.91,1-.4,2.47.08,3.53a11.59,11.59,0,0,0,.73,1.34.84.84,0,0,0,1.12.3.83.83,0,0,0,.29-1.12Z" transform="translate(-15.63 -94.37)"/><path class="cls-2" d="M118.19,108.35a3.33,3.33,0,0,0,1.85-.92,2.41,2.41,0,0,0,.52-1.19,1.74,1.74,0,0,0-.42-1.4.78.78,0,0,0-.78-.21,3.12,3.12,0,0,0-1.91,2.5,2.44,2.44,0,0,0,.19,1.64,3,3,0,0,0,1.43,1.22,3.1,3.1,0,0,0,2.16.19.69.69,0,0,0,.5-.65.68.68,0,0,0-.5-.65c-.28,0-.57-.1-.84-.17l-.39-.11-.21-.07c-.09,0-.07,0,0,0l-.1,0c-.07,0-.36-.15-.39-.23.09.07.11.08.06,0l-.06-.06-.16-.15-.07-.08,0,0-.1-.17c-.07-.11.06.22,0,0l0-.13c0-.07,0,0,0,.11,0,0,0-.06,0-.09v-.17c0-.06,0-.13,0-.18,0,.22,0,0,0,0a2,2,0,0,1,.09-.33.89.89,0,0,0,.07-.19c0,.11-.06.13,0,0a.36.36,0,0,1,0-.09,2.33,2.33,0,0,1,.2-.34c.07-.12,0-.05,0,0l.12-.14a.8.8,0,0,1,.13-.13c.16-.15-.13.07,0,0l.14-.08c.12-.08-.21.07,0,0L119,106c-.07-.09-.08-.1,0,0l0-.1,0,.11v-.09a.34.34,0,0,1,0,.17q0-.16,0,0v0s0,.15-.05.17.05-.12,0,0l0,0-.06.1.06-.08s-.11.11-.13.14,0,0,.07,0l-.06,0-.14.08s-.19.1-.07,0,0,0-.08,0l-.67.19a.81.81,0,0,0-.58,1,.83.83,0,0,0,1,.59Z" transform="translate(-15.63 -94.37)"/><path class="cls-2" d="M125.69,104a5.18,5.18,0,0,0-1.39,1.16,1.5,1.5,0,0,0,.5,2.06,6.06,6.06,0,0,0,.66.36l.15.08c.14.09-.06-.06,0,0l.06,0s-.1-.16,0,0,0-.15,0-.08,0-.15,0,0,0,.11,0,0a.33.33,0,0,1,.07-.13c0-.09,0,0,0,0s0,0,0,0l-.07,0s.19-.06.06,0l-.18,0-.79.2a2.71,2.71,0,0,0-2,1.19.58.58,0,0,0,.91.69s.1-.08,0,0l.08,0,.19-.11.1,0s-.1,0,0,0l.25-.07c.29-.06.59-.1.88-.14a6.19,6.19,0,0,0,.77-.19,1.6,1.6,0,0,0,.91-.59,1.22,1.22,0,0,0,.09-1.1,1.64,1.64,0,0,0-.62-.71l-.29-.19-.17-.11-.07,0c-.12-.08,0,0,0,0s-.11-.1-.12-.11,0,.11,0,0l0-.08s.07.17,0,.08a.31.31,0,0,1,0-.08c0,.11,0,.14,0,.08s0,0,0,0,0,0,0,0,0,0,0,0a.67.67,0,1,1,0,.08s0,0,0-.06,0,0,0,0,.11-.12.14-.14l.06-.06c.1-.09,0,0,0,0,.1,0,.25-.18.34-.24l.35-.23a.83.83,0,0,0,.3-1.11.82.82,0,0,0-1.12-.3Z" transform="translate(-15.63 -94.37)"/><path class="cls-2" d="M142.14,105.9a2.23,2.23,0,0,0-1.18-1.4,1.53,1.53,0,0,0-1.66.68,3.87,3.87,0,0,0-.3,3.8c.12.32.46.64.83.49a2.62,2.62,0,0,0,1.19-1l.08-.12c.09-.11-.07.1,0,0l.21-.24.1-.09s-.13.09,0,0,0,0,0,0l.09,0c-.09,0-.1,0,0,0l-.64-.49a4.39,4.39,0,0,0,.68,1.9,2.42,2.42,0,0,0,1.91.77.63.63,0,0,0,.31-1.17,5.21,5.21,0,0,0-.82-.33c-.15,0,.09.06,0,0l-.17-.09-.08,0c.07,0,.07,0,0,0l-.12-.12c.11.12,0,0,0,0s0-.1-.08-.16c.08.16,0,0,0-.07l-.06-.2c-.07-.25-.13-.51-.22-.75a.69.69,0,0,0-.81-.47l-.16,0-.14.06a2.26,2.26,0,0,0-.35.17,2.84,2.84,0,0,0-.54.5c-.13.16-.25.33-.38.48a2,2,0,0,1-.22.2c.08-.06.1-.07,0,0l0,0c-.05,0-.23.11,0,0l.83.49c-.09-.23-.16-.46-.23-.7a3.38,3.38,0,0,1-.08-.34l0-.18c0-.2,0,.12,0-.08a3.18,3.18,0,0,1,0-.69c0,.12,0-.07,0-.08a1.21,1.21,0,0,1,0-.18.58.58,0,0,1,.05-.14s0,0,0,0a.36.36,0,0,0,0-.09,2,2,0,0,1,.37-.54l.07-.06h0s.1,0,0,0,.13,0,0,0,.15,0,0,0,.14,0,0,0l.1.06s0,0,0,0l.06,0,.1.09a2.65,2.65,0,0,1,.33.54.48.48,0,0,0,.88-.36Z" transform="translate(-15.63 -94.37)"/><path class="cls-2" d="M146.73,105.23a7.54,7.54,0,0,0-1.24.24,1.71,1.71,0,0,0-1.3,1.46,2.54,2.54,0,0,0,1,1.87c.1.11.21.21.32.32l.15.16.06.07c.08.07-.09-.14,0,0l.12.21c-.07-.11,0-.06,0,0s0,.08,0,.12v-.07a1.48,1.48,0,0,0,0,.21c0-.19,0,0,0,.07s-.05.1,0,0,0,0,0,0,0,0,0,.08.08-.08,0,0a1.29,1.29,0,0,0-.16.17c-.06.06,0,0,0,0l-.1.06-.11.06h0a3.26,3.26,0,0,0-.61.25.67.67,0,0,0-.33.68.71.71,0,0,0,.5.58,1.89,1.89,0,0,0,2.09-.86,2.11,2.11,0,0,0,.18-2,5.63,5.63,0,0,0-1.3-1.58c-.11-.12.05.09,0,0a1.28,1.28,0,0,0-.11-.2c-.06-.06,0,0,0,.06a.26.26,0,0,1,0-.08c0-.07,0,0,0,.07s0-.16,0,0,.06-.16,0,0,0,0,0,0-.07.09-.07.09,0,0,0,0a.7.7,0,0,0,.16-.1l.07,0c.07,0-.2.07,0,0l.17,0,.38-.09.69-.1a.82.82,0,0,0,.59-1,.84.84,0,0,0-1-.59Z" transform="translate(-15.63 -94.37)"/></svg>