<svg id="Layer_1" data-name="Layer 1" xmlns="http://www.w3.org/2000/svg" viewBox="0 0 198.06 55.46"><defs><style>.cls-1{fill:#486afb;}.cls-2{fill:#fd46fc;}</style></defs><path class="cls-1" d="M1.54,1.81c-.09,2.28-.22,4.57-.42,6.85C1,9.8.9,10.94.77,12.07c-.06.57-.13,1.14-.2,1.71,0,.24-.07.48-.1.73s0,.35-.07.52q-.15.48.21,0l.59.08-.07-.05A.77.77,0,0,0,0,15.94L0,16a.83.83,0,0,0,.77.59c1.32.12,1.27-1.86,1.37-2.71.18-1.34.33-2.68.46-4,.26-2.69.43-5.38.53-8.08,0-1-1.6-1-1.63,0Z"/><path class="cls-1" d="M2.34,2.51a4,4,0,0,1,4.39-.38A3.11,3.11,0,0,1,8.17,5.65,5.5,5.5,0,0,1,5.29,9a11.19,11.19,0,0,1-2.37.92,6.57,6.57,0,0,0-2.46.82.69.69,0,0,0,.3,1.14,5.08,5.08,0,0,0,2.38-.43,17,17,0,0,0,2.29-.84,7.68,7.68,0,0,0,3.47-3,5.42,5.42,0,0,0,.72-4.13A4.74,4.74,0,0,0,6.67.31a5.66,5.66,0,0,0-5.14.79c-.86.59-.05,2,.81,1.41Z"/><path class="cls-1" d="M15.73.76a15.52,15.52,0,0,0-2.56,8.8,13.89,13.89,0,0,0,2.89,8.69c.53.63,1.49-.18,1.11-.86A16.19,16.19,0,0,1,14.8,9.48a14,14,0,0,1,2.35-7.92c.58-.87-.84-1.67-1.42-.8Z"/><path class="cls-2" d="M25.87,13A6.59,6.59,0,0,0,29,13.1a4.41,4.41,0,0,0,2.46-1.32,2.05,2.05,0,0,0,.23-2.53,2.52,2.52,0,0,0-2.3-.79,5.45,5.45,0,0,0-4,2.46c-.93,1.43-1.21,3.65.28,4.81,1.76,1.38,4.37.64,5.95-.66.49-.4,0-1.25-.62-1.07-1.33.42-2.53,1.39-4,.92-1.27-.4-1.33-1.82-.92-2.9a4.15,4.15,0,0,1,2.46-2.41,3,3,0,0,1,1.75-.13.83.83,0,0,1,.45,1.32,3.12,3.12,0,0,1-2,1,5.54,5.54,0,0,1-2.56-.07A.65.65,0,0,0,25.87,13Z"/><path class="cls-2" d="M33.59,11.71a24.34,24.34,0,0,0,3.21,3.21c1,.87,2.38,2,3.75,1,1.1-.76,1.45-2.22,1.7-3.45a13.94,13.94,0,0,0,.33-4.81.61.61,0,0,0-1.17,0c-.25,1.32-.33,2.65-.61,4a17.65,17.65,0,0,1-.49,1.9,2.27,2.27,0,0,1-.59,1,.47.47,0,0,1-.34.15,1.13,1.13,0,0,1-.54-.22,11.46,11.46,0,0,1-1.41-1.11,25.69,25.69,0,0,1-2.73-2.79.79.79,0,0,0-1.11,1.13Z"/><path class="cls-2" d="M45,13a4.55,4.55,0,0,0,4.94.29,2.45,2.45,0,0,0,1.29-2.23,2.55,2.55,0,0,0-1.42-2,3.63,3.63,0,0,0-4.45,1.69,3.86,3.86,0,0,0,.18,4.34c1.23,1.53,3.69,1.52,5.38.91a.7.7,0,0,0,.5-.75.68.68,0,0,0-.67-.61,9.83,9.83,0,0,0-1.08.09,7,7,0,0,1-1,.08,2.88,2.88,0,0,1-1.6-.34.94.94,0,0,1-.25-.18,1.21,1.21,0,0,1-.16-.16s-.15-.19-.06-.06a1.92,1.92,0,0,1-.18-.31s-.1-.22,0-.07c0-.07,0-.14-.07-.2a1.6,1.6,0,0,1-.05-.21s0-.24,0-.1a2.17,2.17,0,0,1,0-.36c0-.13,0-.25,0-.37,0,.12,0-.12,0-.11l.06-.26a2.74,2.74,0,0,1,.72-1.26,2.29,2.29,0,0,1,1.49-.7,1.33,1.33,0,0,1,.74.17,1.31,1.31,0,0,1,.45.51.84.84,0,0,1-.33,1.07,3.14,3.14,0,0,1-3.7-.08.71.71,0,0,0-1,.27A.73.73,0,0,0,45,13Z"/><path class="cls-2" d="M53.86,14.9a6.63,6.63,0,0,1,.58-2.66,3,3,0,0,1,1.3-1.67,1.42,1.42,0,0,1,1.63.42,3.48,3.48,0,0,1,.85,2c.17,1.1,0,2.31.58,3.31A.68.68,0,0,0,60.06,16c0-.56-.14-1.1-.2-1.66s-.11-1.17-.22-1.75a4.57,4.57,0,0,0-1.36-2.62,2.64,2.64,0,0,0-2.64-.64,4.11,4.11,0,0,0-2.06,2,9.66,9.66,0,0,0-.7,1.62c-.21.61-.29,1.23-.44,1.85a.72.72,0,1,0,1.42.19Z"/><path class="cls-2" d="M65.72,6.17c-.13,1.51-.23,3-.3,4.55a21.06,21.06,0,0,0,0,4.56.69.69,0,0,0,1.32,0,32.89,32.89,0,0,0,.27-4.55c.07-1.52.17-3,.3-4.55a.82.82,0,0,0-.81-.82.83.83,0,0,0-.82.81Z"/><path class="cls-2" d="M63,11.14A42.85,42.85,0,0,0,68.43,11c.87-.09,1.74-.2,2.6-.34a8.58,8.58,0,0,0,2.69-.72A.64.64,0,0,0,73.4,8.7a12.53,12.53,0,0,0-2.58.3c-.86.14-1.72.25-2.58.34A43.53,43.53,0,0,1,63,9.51a.82.82,0,0,0,0,1.63Z"/><path class="cls-1" d="M79,3a23.75,23.75,0,0,1,2,4.25,8.4,8.4,0,0,1,.72,4.32c-.53,2.56-2.71,4.39-3.51,6.86a.7.7,0,0,0,1.28.52c1.25-2.44,3.43-4.63,3.81-7.44A10.17,10.17,0,0,0,82.4,6.9a26.94,26.94,0,0,0-2.15-4.62A.75.75,0,0,0,79,3Z"/><path class="cls-1" d="M96.23,11.12a28.36,28.36,0,0,0,3.57-.06,10.71,10.71,0,0,0,3.56-.68c.54-.24.21-1-.27-1a9.72,9.72,0,0,0-1.7.07c-.57.05-1.14.09-1.71.11-1.15,0-2.3,0-3.44,0s-1,1.55,0,1.59Z"/><path class="cls-1" d="M96.65,14.89a34.15,34.15,0,0,0,3.92.06,17.3,17.3,0,0,0,3.93-.46.66.66,0,0,0-.16-1.29c-1.28,0-2.56.16-3.84.18s-2.57,0-3.84-.13a.82.82,0,1,0,0,1.64Z"/><path class="cls-2" d="M118.34,11.26l-.13,5.93c0,1,0,2-.07,3A12.69,12.69,0,0,0,118.3,23a.6.6,0,0,0,1.15,0,12.74,12.74,0,0,0,.25-2.89c0-1,0-2,0-3l.08-5.92a.74.74,0,0,0-1.48,0Z"/><path class="cls-2" d="M118.83,11.48a12.54,12.54,0,0,1,3.71-.87,13.82,13.82,0,0,1,1.93,0c.23,0,.49.1.72.11.08,0,.1,0,.07,0a.16.16,0,0,1-.06-.13,1.1,1.1,0,0,1-.13.21,6.63,6.63,0,0,1-1.3,1.06,12.27,12.27,0,0,1-1.54.88,29.53,29.53,0,0,1-3.32,1.14.64.64,0,0,0,.16,1.26,7.83,7.83,0,0,0,3.38-.85,12.33,12.33,0,0,0,2.91-1.81,3.43,3.43,0,0,0,1.15-1.33A1.33,1.33,0,0,0,126,9.58a3.81,3.81,0,0,0-1.6-.31,13,13,0,0,0-1.87,0,13.93,13.93,0,0,0-4.12,1c-.65.28-.19,1.42.47,1.16Z"/><path class="cls-2" d="M129.87,15.47a19.53,19.53,0,0,0-.51-2,1.9,1.9,0,0,1,.1-1.59,1.84,1.84,0,0,1,1.38-.55,9.49,9.49,0,0,0,2.5-.16.56.56,0,0,0-.13-1.1,18.17,18.17,0,0,0-2.76-.05,2.8,2.8,0,0,0-2,1.19c-.88,1.36.09,3,.2,4.41a.63.63,0,1,0,1.24-.15Z"/><path class="cls-2" d="M136.25,11.63a2.31,2.31,0,0,0-.53,2.53,2.73,2.73,0,0,0,2.41,1.78,4,4,0,0,0,3-1.21,2,2,0,0,0,.64-1.85,2.14,2.14,0,0,0-1.3-1.33,7.37,7.37,0,0,0-2-.63,4.31,4.31,0,0,0-2.14.05.61.61,0,0,0-.43.55.58.58,0,0,0,.42.55c.46.08,1,.1,1.39.16a6.6,6.6,0,0,1,1.38.33l.23.09.33.15a3.2,3.2,0,0,1,.57.32c-.1-.08,0,0,0,0s.1.13.05.05l0,0c0,.08,0,.08,0,0v0c0,.06,0,0,0,0s0,.17,0,0a.5.5,0,0,1,0,.13c0,.13,0,.06,0,0s-.07.13-.1.19,0,0,0,.06l-.09.11-.22.21-.11.09c.1-.08,0,0,0,0l-.28.19-.28.14s-.17.07,0,0l-.13,0-.26.08-.13,0h-.09a2,2,0,0,1-.59,0l-.16,0-.12,0c-.13,0,0,0-.09,0a1.55,1.55,0,0,1-.22-.12s-.12-.1,0,0l-.09-.07-.15-.15c-.08-.09,0,0,0,0A1.13,1.13,0,0,1,137,14c0-.08-.08-.16-.13-.24s0,.08,0,0,0-.09,0-.13l-.06-.26c0,.11,0,0,0,0s0-.09,0-.14,0-.08,0-.13a.17.17,0,0,1,0-.07c0,.05,0,.06,0,0a.3.3,0,0,1,0-.1.62.62,0,0,1,0-.1c0,.06,0,0,0,0a1,1,0,0,1,.08-.14c0-.07-.06.06,0,0a1.59,1.59,0,0,1,.13-.13.57.57,0,0,0,0-.8.58.58,0,0,0-.8,0Z"/><path class="cls-2" d="M143.2,6.47l.52,4.33c.09.7.17,1.41.26,2.12a6,6,0,0,0,.44,2.2A.65.65,0,0,0,145.6,15a5.79,5.79,0,0,0-.13-2.15c-.1-.74-.2-1.47-.31-2.2l-.6-4.32c-.1-.77-1.45-.61-1.36.17Z"/><path class="cls-2" d="M145.93,11.1a6.16,6.16,0,0,1,3.31-.7c.3,0,.83.1,1,.41s-.22.83-.44,1.08a5,5,0,0,1-2.42,1.45,8.77,8.77,0,0,1-1.7.3l-.89.07a2.36,2.36,0,0,0-1.06.2.57.57,0,0,0,0,1,3.35,3.35,0,0,0,1.81.14,11.12,11.12,0,0,0,1.81-.26,6.47,6.47,0,0,0,2.77-1.41,3,3,0,0,0,1.21-2.73c-.27-.94-1.34-1.23-2.2-1.25a7.52,7.52,0,0,0-3.69.87c-.56.29-.07,1.14.49.85Z"/><path class="cls-2" d="M155.72,12.41l.7-.21a.36.36,0,0,0,.25-.43,1.47,1.47,0,0,0-1.17-1.09,1.8,1.8,0,0,0-1.78.62c-1.05,1.25-.81,3.21-.11,4.56a.73.73,0,0,0,.8.33,6.5,6.5,0,0,0,3.13-2.68l-1.39-.18a5.52,5.52,0,0,0,4.11,3.93.63.63,0,0,0,.71-.36.6.6,0,0,0-.26-.76,6.22,6.22,0,0,1-3.09-3.2.78.78,0,0,0-.63-.55.76.76,0,0,0-.76.37,4.94,4.94,0,0,1-2.36,2.13l1,.26a3.28,3.28,0,0,1-.38-2.82,1.13,1.13,0,0,1,.73-.73.65.65,0,0,1,.8.35l.26-.43-.7.25c-.39.14-.24.77.17.64Z"/><path class="cls-2" d="M161.75,6.68l.7,4.63.34,2.23c.1.67.08,1.87.77,2.21a.65.65,0,0,0,.74-.1c.57-.54.2-1.67.1-2.35L164,11l-.71-4.72a.82.82,0,0,0-1.58.41Z"/><path class="cls-2" d="M164,11.54a9.68,9.68,0,0,1,1-.14,4.71,4.71,0,0,1,.53,0h.45a4.05,4.05,0,0,1,.5.12l0,0,.08,0,.17.1s.12.08,0,0,0,0,0,0l.15.14L167,12c.07.06-.06-.11,0,0a.61.61,0,0,0,.07.1l.09.16,0,.07c.06.12,0,0,0,0a.87.87,0,0,1,.1.39s0-.17,0,0v.07a.34.34,0,0,0,0,.1c0,.08,0-.08,0-.07s0,.16,0,.19,0-.05,0,0,0,.08,0,.09,0,.08-.05.08.13-.14,0,0l-.06.06s-.11.11,0,.05,0,0,0,0l-.1.07-.26.12c-.08,0,0,0,0,0l-.12,0-.21.07-.57.18c-.41.13-.83.26-1.24.37l-.62.2a1.24,1.24,0,0,0-.79.5.63.63,0,0,0,.23.82,1.16,1.16,0,0,0,.88.07c.24,0,.48-.09.71-.15.42-.11.84-.23,1.25-.36a3.53,3.53,0,0,0,2.18-1.34,2.23,2.23,0,0,0-.08-2.14,2.75,2.75,0,0,0-1.76-1.34,6.45,6.45,0,0,0-3,.15.61.61,0,0,0-.44.75.63.63,0,0,0,.75.44Z"/><path class="cls-2" d="M170.22,12.51l.33,1.05a11.79,11.79,0,0,0,.48,1.16.7.7,0,0,0,.42.33.74.74,0,0,0,.44,0,.69.69,0,0,0,.41-.81,9.46,9.46,0,0,0-.21-1.06l-.29-1.05a.88.88,0,0,0-.39-.5.81.81,0,0,0-1.11.31.76.76,0,0,0-.08.61Z"/><path class="cls-2" d="M169.85,7.88l-.15.06h0l-.07.06a.16.16,0,0,0-.08.06,1.13,1.13,0,0,0-.1.13s0,0,0,.05l-.07.16a1.1,1.1,0,0,0,0,.18.62.62,0,0,0,0,.23.7.7,0,0,0,.35.44.77.77,0,0,0,.42.1.91.91,0,0,0,.23,0l.16-.07,0,0,.09-.07.09-.08a.45.45,0,0,0,.1-.13l0,0a1.8,1.8,0,0,0,.08-.21.83.83,0,0,0,0-.35.06.06,0,0,0,0,0,.87.87,0,0,0-.07-.17.76.76,0,0,0-.11-.14l0,0a1,1,0,0,0-.2-.15l-.17-.07-.06,0-.17,0H170a1,1,0,0,0-.18,0l-.18.07a.35.35,0,0,0-.14.13.46.46,0,0,0-.09.17.31.31,0,0,0,0,.19.41.41,0,0,0,.05.18.5.5,0,0,0,.3.23l.13,0a.45.45,0,0,0,.25-.07h0l-.12,0,.08,0-.13,0h.1l-.13,0,.1,0L170,8.66a.33.33,0,0,1,.1.06l-.1-.08a.46.46,0,0,1,.07.07l-.08-.1a.25.25,0,0,1,0,.07L170,8.56a.24.24,0,0,1,0,.08V8.46a.25.25,0,0,1,0,.07l.05-.12a.25.25,0,0,1,0,.07l.08-.11-.06.07.1-.08a.31.31,0,0,1-.1.05l.13-.05a.23.23,0,0,1-.11,0h.15l-.07,0,.11.05-.07,0,.11.08a.08.08,0,0,1,0,0l.08.11,0,0,0,.12a.09.09,0,0,1,0,0v.18s0-.05,0-.07l0,.12,0,0-.08.1,0,0-.1.08a.09.09,0,0,1,.05,0l-.13.05h.05a.4.4,0,0,0,.18-.1.5.5,0,0,0,.14-.15.41.41,0,0,0,0-.19.31.31,0,0,0,0-.19.5.5,0,0,0-.25-.32l-.12,0a.57.57,0,0,0-.26,0Z"/><path class="cls-2" d="M174,7.51l1,4.56c.16.74.31,1.49.47,2.23a10.32,10.32,0,0,0,.67,2.26c.29.61,1.19.28,1.21-.31A10.87,10.87,0,0,0,177,14c-.15-.78-.33-1.55-.49-2.32l-1-4.55c-.21-1-1.76-.6-1.55.4Z"/><path class="cls-2" d="M179.57,13.13c.08.32.15.64.24,1,0,.15.1.31.15.46a1.45,1.45,0,0,0,.38.67.61.61,0,0,0,.48.16.55.55,0,0,0,.44-.29,1.14,1.14,0,0,0,.13-.47,2.09,2.09,0,0,0,0-.25c0-.22,0-.44-.08-.65s-.13-.66-.19-1a.79.79,0,0,0-.38-.49.76.76,0,0,0-.59-.08.81.81,0,0,0-.57,1Z"/><path class="cls-2" d="M178.88,8.82a.71.71,0,0,0,.29.28.73.73,0,0,0,.38.09,1,1,0,0,0,.62-.26.83.83,0,0,0,.29-.46.77.77,0,0,0,0-.37.72.72,0,0,0-.19-.34l-.1-.08a.34.34,0,0,0-.17,0,.48.48,0,0,0-.31,0,1,1,0,0,0-.46.79,1,1,0,0,0,.11.47.77.77,0,0,0,.33.34,1,1,0,0,0,.93,0A.88.88,0,0,0,181,9a.8.8,0,0,0,0-.59,1,1,0,0,0-.27-.47.72.72,0,0,0-.69-.23.51.51,0,0,0-.35.35.5.5,0,0,0,.13.48,2.4,2.4,0,0,0,.26.18L180,8.6a.94.94,0,0,1,.1.1L180,8.6a.27.27,0,0,1,.06.1L180,8.58a.19.19,0,0,1,0,.1v-.1l0-.12v0l.08-.11-.08.07.11-.08a.26.26,0,0,1-.09.05l.13-.05a.5.5,0,0,1-.13,0h.13a.23.23,0,0,1-.11,0l.12.05-.09-.05.11.08a.23.23,0,0,1-.07-.07l.08.11-.06-.1.05.12,0-.12,0,.13a.24.24,0,0,1,0-.12l0,.13a.5.5,0,0,1,0-.13l0,.12a.26.26,0,0,1,0-.09l-.08.1a.46.46,0,0,1,.07-.07l-.1.07h0l-.57-.08,0,0-.08-.1,0,0-.05-.12s0,0,0,.06l0-.12V8.3l0-.12,0,.07,0-.11a.22.22,0,0,1,0,.08l.08-.1-.1.1.1-.08-.12.08.12-.05-.11,0,.12,0h-.09l.13,0-.06,0,.12.05-.05,0,.1.08,0,0,.08.1,0,0a.51.51,0,0,0-.32-.24.49.49,0,0,0-.39,0,.53.53,0,0,0-.24.31.48.48,0,0,0,0,.39Z"/><path class="cls-2" d="M184.83,6.46l.71,4.47.35,2.19a10.81,10.81,0,0,0,.47,2.26.68.68,0,0,0,1.33-.17,10.56,10.56,0,0,0-.28-2.3L187,10.64l-.78-4.55a.73.73,0,0,0-1.42.37Z"/><path class="cls-2" d="M183.47,11.4c1.09,0,2.19-.06,3.28-.11a19.28,19.28,0,0,0,3.31-.27c.55-.11.59-1.06,0-1.14a20.19,20.19,0,0,0-3.3-.05l-3.28.12c-.93,0-.95,1.48,0,1.45Z"/><path class="cls-2" d="M191.45,12.49A5.51,5.51,0,0,0,193,14.83a4,4,0,0,0,2.68,1.08.64.64,0,0,0,.32-1.19l-.26-.14-.05,0-.09,0a.27.27,0,0,1-.11,0c-.18-.08-.35-.17-.52-.26a5.55,5.55,0,0,1-.48-.29.88.88,0,0,0-.25-.18s.14.11,0,0l-.12-.1a3.68,3.68,0,0,1-.4-.39,1.29,1.29,0,0,1-.19-.21l-.06-.07.07.09-.09-.13a4.66,4.66,0,0,1-.3-.47l-.13-.27,0-.05c0-.08,0-.06,0,.06a.34.34,0,0,0-.05-.14.84.84,0,0,0-1-.59.82.82,0,0,0-.58,1Z"/><path class="cls-2" d="M196.43,13.56a14.61,14.61,0,0,0-.16,9.93.7.7,0,0,0,1.35-.35A16.41,16.41,0,0,1,198,14c.36-1-1.22-1.41-1.58-.42Z"/><path class="cls-1" d="M34.56,42.66l.11,2.16,0,1.08c0,.17,0,.33,0,.5a3.93,3.93,0,0,0,.15.68.71.71,0,0,0,1.38,0,5.35,5.35,0,0,0,.11-.68c0-.17,0-.34,0-.5l-.05-1.08-.1-2.16a.83.83,0,0,0-.82-.82.82.82,0,0,0-.82.81Z"/><path class="cls-1" d="M33.77,39.64a1.57,1.57,0,0,0,.71.42l.27,0h.14a1.48,1.48,0,0,0,.42-.07.59.59,0,0,0,.35-.27l.05-.13a.48.48,0,0,0,0-.29,2.88,2.88,0,0,0-.2-.65l.05.13a1.41,1.41,0,0,0-.37-.59,1,1,0,0,0-1.42,0,1,1,0,0,0-.3.54.74.74,0,0,0,0,.39.85.85,0,0,0,.09.22l.12.16c0-.06.1.08.14.1a.49.49,0,0,0,.23.08h.09l.21,0a.57.57,0,0,0,.34-.27.56.56,0,0,0,.06-.42v0l0,.15v0h0a.42.42,0,0,0,0-.24l-.06-.13.07.16a.14.14,0,0,1,0-.06l0,.17c0-.07,0-.14,0-.2l0,.16s0,0,0-.08l0,.17a.3.3,0,0,1,0-.1l-.06.14.07-.12-.09.13a.63.63,0,0,1,.11-.12l-.12.1.1-.06-.14.06.08,0-.15,0a.11.11,0,0,1,.08,0l-.14,0,.09,0L34.42,39a.39.39,0,0,1,.11.06L34.42,39a.53.53,0,0,1,.13.13L34.46,39a2.12,2.12,0,0,1,.12.2l-.06-.13a1.67,1.67,0,0,1,.08.32l0-.15c0,.08,0,.15,0,.22l.42-.55H35l.15,0h-.25L35,39l-.2,0,.15,0a1.28,1.28,0,0,1-.28-.07l.14.05a.94.94,0,0,1-.22-.12l.12.09-.11-.1a.61.61,0,0,0-.41-.17.62.62,0,0,0-.43.18.63.63,0,0,0-.17.41.67.67,0,0,0,.18.43Z"/><path class="cls-1" d="M38.87,47.38c-.08-.38-.23-.74-.34-1.11a6.46,6.46,0,0,1-.21-1.15c0-.5-.1-1.29.36-1.64s1,.1,1.29.36a3.51,3.51,0,0,1,.34.33l.09.11,0,0c0-.05,0,0,0,0a.71.71,0,0,1,.1.14,3.38,3.38,0,0,1,.24.41l.09.18,0,.07c0-.07,0,.06,0,.07a4.44,4.44,0,0,1,.15.52l.06.26s0,.09,0,.14,0-.1,0,0a5.09,5.09,0,0,1,0,.55c0,.11,0,.21,0,.32a.88.88,0,0,1,0,.16c0-.12,0,.09,0,.09a.65.65,0,0,0,.45.6.61.61,0,0,0,.7-.29,2.43,2.43,0,0,0,.22-.74,3.71,3.71,0,0,0,0-.58A4.42,4.42,0,0,0,42.37,45,4.8,4.8,0,0,0,40.93,43a2.31,2.31,0,0,0-2.56-.46,2.5,2.5,0,0,0-.95,2,6.62,6.62,0,0,0,.09,1.6,3.76,3.76,0,0,0,.56,1.56.44.44,0,0,0,.8-.33Z"/><path class="cls-1" d="M44.07,43.67l.33,4.8.16,2.36a7,7,0,0,0,.34,2.45L46,52.41a3.38,3.38,0,0,0-.5-.5c-.34-.25-.73.11-.76.44a2.64,2.64,0,0,0,0,.56.72.72,0,0,0,1.41.19,6.87,6.87,0,0,0,0-2.35L46,48.39l-.32-4.71c-.07-1-1.71-1.06-1.63,0Z"/><path class="cls-1" d="M45.48,43.67a1.68,1.68,0,0,1,.44-.07c-.23,0,0,0,.07,0h.22a2.14,2.14,0,0,1,.44,0h.06l.21,0,.1,0c.08,0,.06,0-.05,0s.15.08.18.1l.08,0c-.1-.08-.12-.09,0,0s.11.14.14.15-.09-.12,0,0l.06.1c0,.09,0,.07,0,0a.42.42,0,0,1,0,.1s0,.07,0,.11c0-.12,0-.13,0,0a.59.59,0,0,1,0,.23c0-.12,0-.13,0,0a.43.43,0,0,1,0,.11.83.83,0,0,1-.08.22v0a.54.54,0,0,1-.05.11l-.12.22-.14.21s-.17.27-.06.1a3.17,3.17,0,0,1-.34.39c-.11.12-.23.24-.35.35l-.09.08c.09-.07.1-.07,0,0a.63.63,0,0,1-.21.12q.15-.06,0,0c-.08,0-.06,0,0,0a.17.17,0,0,1-.1,0c.1,0,.12,0,0,0q.13.06,0,0c.07.06.08.06,0,0A.78.78,0,0,0,45.7,46a.55.55,0,0,0-.53.15c-.41.33-.16,1,.18,1.26a1.31,1.31,0,0,0,1.5.13,3.63,3.63,0,0,0,.87-.74,7,7,0,0,0,.73-.92,2.88,2.88,0,0,0,.48-2.22,2.2,2.2,0,0,0-1.59-1.56,5,5,0,0,0-2.27,0,.82.82,0,0,0-.59,1,.85.85,0,0,0,1,.59Z"/><path class="cls-1" d="M49.67,45.26a3.14,3.14,0,0,0,2.74,2.34,3,3,0,0,0,3-2,2.18,2.18,0,0,0-.18-2.21.75.75,0,0,0-1.24.34,5,5,0,0,0,0,1c0,.09,0,.08,0,0a.43.43,0,0,1,0,.11.75.75,0,0,1,0,.16c0,.06,0,.17-.07.21s0-.12,0,0l0,0a1.28,1.28,0,0,1-.11.2l-.06.09c0,.08,0,.06,0,0,0,.08-.21.23-.27.28l-.08.07,0,0-.14.09a1.24,1.24,0,0,1-.2.1c.12,0,.13-.06.05,0l-.08,0-.19,0c-.09,0-.07,0,0,0h-.38c-.09,0-.08,0,0,0-.06,0-.31-.08-.38-.1s-.07,0,0,0l-.1,0-.17-.1s-.15-.07-.16-.1.1.08,0,0l-.08-.07-.12-.12a.6.6,0,0,1-.08-.08c-.06-.07,0,0,0,.05s-.18-.29-.2-.33l0-.1c0,.12.06.13,0,0l-.06-.22a.82.82,0,0,0-1.58.41Z"/><path class="cls-1" d="M57.58,40.44l.28,3.78c0,.61.09,1.23.14,1.85a4.86,4.86,0,0,0,.37,2,.66.66,0,0,0,1.2-.16,4.52,4.52,0,0,0,0-1.87c0-.62-.09-1.24-.13-1.86l-.28-3.7a.84.84,0,0,0-.81-.82.82.82,0,0,0-.82.81Z"/><path class="cls-1" d="M56,42.66a17.67,17.67,0,0,0,3.17,0c.55,0,1.1-.12,1.64-.22a3.83,3.83,0,0,0,1.59-.56A.67.67,0,0,0,62,40.64a5.17,5.17,0,0,0-1.56.19c-.48.08-1,.16-1.45.2A17.26,17.26,0,0,1,56,41a.82.82,0,0,0-.82.81.83.83,0,0,0,.81.82Z"/><path class="cls-1" d="M138.75,44.22a5.62,5.62,0,0,0,.24,3.32A2.69,2.69,0,0,0,142.12,49a2.64,2.64,0,0,0,1.82-3,3.64,3.64,0,0,0-2.27-2.47,3.56,3.56,0,0,0-1.76-.34,2.36,2.36,0,0,0-1,.28,1.5,1.5,0,0,0-.67.85.64.64,0,0,0,.3.72.65.65,0,0,0,.77-.11s.16-.11,0,0l.08-.06.22-.12c.13-.08,0,0,0,0a.5.5,0,0,1,.13,0l.13,0c.17,0-.15,0,0,0h.4c-.19,0,0,0,0,0a5.12,5.12,0,0,1,.56.15l.11,0c-.19-.07,0,0,0,0l.25.13.25.15.16.1.05,0a3.78,3.78,0,0,1,.41.39c.13.15-.08-.14,0,0l.07.11.08.13s.08.25,0,.06a2.68,2.68,0,0,1,.07.27s0,.17,0,0v.12a.92.92,0,0,1,0,.16c0,.11,0-.17,0,0l0,.13s-.09.23,0,.14,0,.07,0,.08l-.07.1s-.14.19,0,0l-.08.1-.11.11s-.1.14,0,0a.88.88,0,0,1-.28.17c.18-.09,0,0,0,0l-.12,0s-.21,0-.09,0-.09,0-.09,0h-.13s-.23,0-.06,0l-.31-.08c.15,0,0,0,0,0l-.14-.08-.11-.07c.16.11,0,0,0,0a.3.3,0,0,1-.08-.08s-.14-.15-.05,0,0,0,0,0a1.09,1.09,0,0,1-.08-.15s0-.09-.07-.13,0,0,0,.06a.76.76,0,0,0,0-.11c0-.09,0-.18-.08-.28l0-.14s0-.26,0-.07l0-.3c0-.23,0-.46,0-.69s0-.24,0-.37,0-.08,0-.12,0-.08,0,0a.5.5,0,0,1,0-.12.76.76,0,0,0-1.47-.39Z"/><path class="cls-1" d="M144.25,45.79a3.06,3.06,0,0,0,2.41,2.51,2.55,2.55,0,0,0,1.83-.32,2.79,2.79,0,0,0,1.15-1.34,1.87,1.87,0,0,0-.26-2,.62.62,0,0,0-1,.43s0,.07,0,.1c0-.14,0-.11,0,.09v.2a.77.77,0,0,1,0,.15v.1c0,.08,0,.06,0,0a2.05,2.05,0,0,1-.1.34l0,.09c0-.11,0-.12,0,0a.91.91,0,0,0-.07.14l-.11.17,0,0-.06.08a1.14,1.14,0,0,1-.11.11s-.14.1-.15.14l.05,0-.08.05-.13.08-.09,0,.05,0-.17,0-.07,0h.05s-.18,0-.23,0a.86.86,0,0,0-.16,0c.11,0,.12,0,0,0l-.11,0s-.17,0-.21-.06l.08,0-.1,0-.19-.11s-.19-.15-.1-.07l-.09-.08c-.06,0-.11-.11-.16-.16l-.07-.09.06.08A.64.64,0,0,1,146,46a1.74,1.74,0,0,1-.1-.19c-.08-.15,0,.15,0,0a3,3,0,0,1-.1-.43.78.78,0,0,0-.95-.56.8.8,0,0,0-.56.95Z"/><path class="cls-1" d="M152,42.6c.1,1,.17,2,.2,3a19.31,19.31,0,0,0,.17,3,.68.68,0,0,0,1.3,0,10.33,10.33,0,0,0,.17-3c0-1-.11-2-.21-3a.82.82,0,1,0-1.63,0Z"/><path class="cls-1" d="M151.58,45a23.43,23.43,0,0,0,4-.82.57.57,0,0,0,.41-.61.58.58,0,0,0-.55-.49,26.24,26.24,0,0,0-4.24.41.78.78,0,1,0,.4,1.51Z"/><path class="cls-1" d="M157,46.44a25.72,25.72,0,0,1,.38,4.2c0,.71,0,1.43-.06,2.14a9.64,9.64,0,0,0-.11,2.14l1.07-.82,0,0,.31.55c0-.19,0-.37.06-.56,0-.37-.39-.51-.67-.39a1.27,1.27,0,0,0-.62.79l.29-.38-.06,0a.73.73,0,1,0,1,1,6.47,6.47,0,0,0,.4-2.32c.05-.73.08-1.47.07-2.21a28.84,28.84,0,0,0-.44-4.54.82.82,0,0,0-1.58.41Z"/><path class="cls-1" d="M158.67,46.13a4.26,4.26,0,0,1,1-.36.9.9,0,0,1,.24,0s.26,0,.12,0c0,0,.27.08.15,0l.18.1c.07,0,.07,0,0,0a.39.39,0,0,1,.1.08s.13.18.05,0l.07.11c0-.08,0-.09,0,0l0,.07h0q0,.12,0,0c0,.07,0,.08,0,0l-.1.17c.07-.1-.07.08-.1.1a1.54,1.54,0,0,1-.19.17c-.13.12,0,0-.07.06l-.27.19c-.15.11-.31.21-.47.31a9.72,9.72,0,0,1-1,.55,8.18,8.18,0,0,1-1,.38,5.8,5.8,0,0,0-1.12.44.53.53,0,0,0,.12,1,4.33,4.33,0,0,0,2.26-.4,9.81,9.81,0,0,0,2-1.06,2.52,2.52,0,0,0,1.29-1.93,2,2,0,0,0-1.36-1.74,3.68,3.68,0,0,0-2.74.45.71.71,0,0,0-.26,1,.73.73,0,0,0,1,.26Z"/><path class="cls-1" d="M163.28,46.82a.19.19,0,0,0,0-.37.19.19,0,0,0,0,.37Z"/><path class="cls-1" d="M163.16,46.63a2.57,2.57,0,0,0,2.49,2,2.44,2.44,0,0,0,2.34-2,2.69,2.69,0,0,0,0-1,1.58,1.58,0,0,0-.25-.56.89.89,0,0,0-.3-.28,1.28,1.28,0,0,0-.43-.1.66.66,0,0,0-.64.49s.07-.18,0-.11a1,1,0,0,0-.09.28,1.09,1.09,0,0,0,0,.18,3.11,3.11,0,0,0,.08.44.52.52,0,0,1,0,.11c0,.13,0-.22,0,0a2.26,2.26,0,0,1,0,.26c0,.17,0-.15,0,0a.36.36,0,0,0,0,.11s0,.08,0,.12l0,.06c0,.1,0-.08,0-.09a1.08,1.08,0,0,1-.12.24l-.06.09s-.07.09,0,0,0,0,0,0l-.18.17c-.05.06.1-.09.1-.07l-.06,0a.41.41,0,0,1-.11.07l-.12.06s.2-.06.11-.05l-.05,0-.13,0c-.17,0,.18,0,0,0h-.25c-.13,0,.18,0,0,0l-.15,0-.13,0c-.09,0,.12,0,.1,0l-.06,0a2.07,2.07,0,0,1-.25-.15l-.05,0c-.08,0,.13.12.07.05l-.12-.1-.1-.11c-.12-.13.09.14,0,0s-.15-.2-.15-.27.07.2.05.11a.24.24,0,0,1,0-.08.85.85,0,0,1,0-.17.82.82,0,0,0-1-.58.83.83,0,0,0-.58,1Z"/><path class="cls-1" d="M169.79,41.79l.73,3a14.2,14.2,0,0,0,.93,3,.65.65,0,0,0,1.21-.32,14.65,14.65,0,0,0-.56-3.08l-.73-3a.82.82,0,1,0-1.58.41Z"/><path class="cls-1" d="M168.52,44l3.4-.3,1.7-.15a6.41,6.41,0,0,0,1.74-.3.71.71,0,0,0,.5-.65.68.68,0,0,0-.5-.65,12.35,12.35,0,0,0-3.43.12l-3.4.3a.84.84,0,0,0-.82.81.82.82,0,0,0,.81.82Z"/><path class="cls-1" d="M44.48,22.89,45,28.44a53.29,53.29,0,0,0,.68,5.5.63.63,0,0,0,1.24-.15c0-1.82-.19-3.64-.36-5.45L46,22.9c-.1-1-1.64-1-1.55,0Z"/><path class="cls-1" d="M43.68,23.13c-.41.52-.83,1.05-1.23,1.59a5.26,5.26,0,0,0-1,1.65.62.62,0,0,0,.9.69,5,5,0,0,0,1.35-1.35c.39-.48.76-1,1.13-1.44a.87.87,0,0,0,.24-.57.81.81,0,0,0-.25-.58.8.8,0,0,0-1.15,0Z"/><path class="cls-1" d="M45.88,24.6a9.74,9.74,0,0,1,.86.56c.12.09-.11-.08,0,0l.1.07.21.17.38.35a6.78,6.78,0,0,1,.69.73l.34.39a1.39,1.39,0,0,0,.15.19,2,2,0,0,0,.23.18.71.71,0,0,0,.82.11.74.74,0,0,0,.32-.77,2.15,2.15,0,0,0-.26-.63,6.75,6.75,0,0,0-.41-.57,7.85,7.85,0,0,0-.73-.79,9.09,9.09,0,0,0-1.87-1.39.81.81,0,0,0-.8,1.42Z"/><path class="cls-1" d="M153.86,25.6l.21,4.11a27.21,27.21,0,0,0,.37,4.13c.15.78,1.23.54,1.3-.17a28.55,28.55,0,0,0-.05-4l-.2-4c-.05-1-1.69-1.06-1.63,0Z"/><path class="cls-1" d="M153.29,25.69a4,4,0,0,0-.47.22,3.15,3.15,0,0,0-.41.31,2.66,2.66,0,0,0-.52.64,1.81,1.81,0,0,0-.18.37,1.36,1.36,0,0,0-.14.56,1.35,1.35,0,0,0,.06.49.74.74,0,0,0,.36.47.51.51,0,0,0,.17.07.67.67,0,0,0,.48-.06l-.16.06a.69.69,0,0,0,.33-.19.67.67,0,0,0,.14-.19,3.13,3.13,0,0,0,.15-.32l-.08.19.16-.36a1.18,1.18,0,0,1,.07-.2l-.08.19a1.92,1.92,0,0,1,.25-.44l-.13.17a2.38,2.38,0,0,1,.35-.36l-.17.13a2.1,2.1,0,0,1,.41-.24l-.2.08h0a.54.54,0,0,0,.29-.15.61.61,0,0,0,.22-.23.86.86,0,0,0,.08-.61.84.84,0,0,0-1-.59Z"/><path class="cls-1" d="M155.52,27.39l1.22,1.13.61.55.3.28a2.62,2.62,0,0,0,.51.3.71.71,0,0,0,.86-.12.73.73,0,0,0,.11-.86,2.91,2.91,0,0,0-.32-.46,4,4,0,0,0-.3-.28l-.62-.57-1.23-1.13a.81.81,0,0,0-1.14,1.16Z"/></svg>