<svg id="Layer_1" data-name="Layer 1" xmlns="http://www.w3.org/2000/svg" viewBox="0 0 167.11 127.14"><defs><style>.cls-1{fill:#486afb;}.cls-2{fill:#fd46fc;}</style></defs><path class="cls-1" d="M11.4,6.28c0,3.91,0,7.83,0,11.74s-.12,7.83-.09,11.75c.06,7.74-.08,15.49,0,23.24.2,15.57,0,31.15.05,46.72,0,4.34.09,8.67.1,13s-.12,8.83.06,13.24a.67.67,0,0,0,1.33,0c.13-3.91,0-7.83,0-11.75s0-7.83,0-11.74c0-7.75-.08-15.49-.11-23.24-.06-15.57-.19-31.15-.16-46.73,0-4.32-.08-8.66-.14-13s0-8.83-.08-13.24a.52.52,0,0,0-1,0Z"/><path class="cls-1" d="M10.43,6.32C9.84,6.85,9.27,7.4,8.73,8a11.86,11.86,0,0,0-.8.93A4,4,0,0,0,7.28,10a.49.49,0,0,0,.72.54A9.42,9.42,0,0,0,9.78,9c.54-.56,1.11-1.1,1.7-1.61a.74.74,0,0,0,0-1,.77.77,0,0,0-1.05,0Z"/><path class="cls-1" d="M12.15,8l1.27,1.41q.3.34.63.69l.34.32a2.52,2.52,0,0,0,.51.34.71.71,0,0,0,.82-.12.7.7,0,0,0,.12-.8,1.44,1.44,0,0,0-.21-.41c-.12-.17-.25-.33-.38-.5s-.42-.48-.63-.72l-1.27-1.4a.86.86,0,0,0-1.19,0,.84.84,0,0,0,0,1.17Z"/><path class="cls-1" d="M125.86,118.32c-3.92,0-7.83.05-11.75,0s-7.83-.11-11.74-.08c-7.74.06-15.49-.08-23.24,0-15.57.21-31.15,0-46.72.06-4.33,0-8.66.08-13,.1s-8.83-.12-13.24,0a.66.66,0,0,0,0,1.32c3.91.12,7.83,0,11.75,0l11.74,0c7.75,0,15.49-.08,23.24-.11,15.57-.06,31.15-.18,46.73-.15,4.33,0,8.66-.09,13-.15s8.83,0,13.25-.07a.52.52,0,0,0,0-1Z"/><path class="cls-1" d="M125.82,117.34c-.53-.59-1.08-1.16-1.65-1.7a5.91,5.91,0,0,0-2.07-1.44.51.51,0,0,0-.57.72,4.87,4.87,0,0,0,.79,1c.27.28.55.55.83.82.56.54,1.09,1.11,1.61,1.7a.75.75,0,0,0,1,0,.73.73,0,0,0,0-1Z"/><path class="cls-1" d="M124.14,119.09l-1.4,1.27c-.23.21-.47.41-.69.63l-.32.34a2.56,2.56,0,0,0-.35.51.66.66,0,0,0,.1.8.69.69,0,0,0,.81.09l.23-.09a2.82,2.82,0,0,0,.31-.21l.37-.29c.25-.2.48-.42.72-.63l1.41-1.27a.82.82,0,0,0,0-1.17.88.88,0,0,0-1.2,0Z"/><path class="cls-2" d="M40.54,35c0,7.41-.12,14.81-.16,22.21s0,14.8-.14,22.2c-.05,2.08,0,4.17-.11,6.24-.07,1-.07,2-.07,3a12.67,12.67,0,0,0,.2,3.14.6.6,0,0,0,1.15,0,11.17,11.17,0,0,0,.23-2.65c0-1,0-2,0-3-.06-1.83,0-3.66-.06-5.49,0-3.66-.13-7.32-.08-11,.12-7.39.19-14.8.14-22.2q0-6.24,0-12.48a.54.54,0,0,0-1.07,0Z"/><path class="cls-2" d="M41.13,91.56c9.88-.16,19.77-.32,29.65-.28,1.41,0,2.83,0,4.24,0l2,0A13.86,13.86,0,0,0,79.14,91c.46-.07.5-.88,0-.94a9.68,9.68,0,0,0-1.61-.18h-2c-1.24,0-2.49,0-3.73,0l-7.36.14-14.82.26c-2.83,0-5.65.06-8.48.08-.75,0-.8,1.19,0,1.17Z"/><path class="cls-2" d="M78.13,35c.08,3.65.14,7.3.16,11s.13,7.31.19,11,0,7.3,0,11,.06,7.3.08,10.95c0,2.08.07,4.15,0,6.23s-.07,4.15.08,6.22a.6.6,0,0,0,1.2,0c.08-1.82,0-3.65-.06-5.47s-.07-3.66-.1-5.48c-.06-3.65,0-7.31-.17-11s-.16-7.3-.25-10.95,0-7.31-.09-11c-.11-4.15-.13-8.3-.14-12.45a.49.49,0,0,0-1,0Z"/><path class="cls-2" d="M40.68,34.11c5,.18,10,0,15,.08s10,.1,15,.17c1.42,0,2.83.06,4.24.07a24.76,24.76,0,0,0,4.13,0,.48.48,0,0,0,0-.93,21.73,21.73,0,0,0-3.61-.19l-3.75,0c-2.49,0-5,0-7.48,0-5-.1-10-.06-15,0-2.82.06-5.66,0-8.48.21a.34.34,0,0,0,0,.68Z"/><path class="cls-2" d="M40.23,94.94c0,.4,0,.81,0,1.22v.61a5.2,5.2,0,0,0,.06.68.44.44,0,0,0,.44.33.48.48,0,0,0,.45-.34,15.22,15.22,0,0,0,.31-2.52.6.6,0,0,0-.6-.59.65.65,0,0,0-.62.61Z"/><path class="cls-2" d="M40.23,102c.05.28.1.57.16.84l.09.41c0,.14.1.28.15.41a.56.56,0,0,0,.23.31.59.59,0,0,0,.32,0,.53.53,0,0,0,.45-.49c0-.15,0-.29,0-.44l-.05-.43c0-.33-.08-.66-.13-1a.63.63,0,0,0-.29-.37.7.7,0,0,0-.47-.06.65.65,0,0,0-.46.76Z"/><path class="cls-2" d="M40.15,108.05c0,.34.05.69.1,1s.1.61.17.91a.41.41,0,0,0,.47.3.45.45,0,0,0,.38-.42c0-.3,0-.61,0-.92s0-.61,0-.91a.57.57,0,0,0-.16-.39.54.54,0,0,0-.38-.15.59.59,0,0,0-.4.17.51.51,0,0,0-.16.38Z"/><path class="cls-2" d="M40.43,113.79l0,.23v0a.41.41,0,0,1,0,.11c0,.15,0,.29,0,.44s0,.6,0,.9a.34.34,0,0,0,.31.34.36.36,0,0,0,.39-.26,4.64,4.64,0,0,0,.07-2,.41.41,0,0,0-.51-.29.44.44,0,0,0-.31.51Z"/><path class="cls-2" d="M78.23,94.09a15,15,0,0,0-.28,2.4.38.38,0,0,0,.34.38.42.42,0,0,0,.44-.29c.13-.36.23-.73.33-1.1s.17-.74.24-1.12a.53.53,0,0,0,0-.41.51.51,0,0,0-.33-.25.58.58,0,0,0-.69.39Z"/><path class="cls-2" d="M78,100.34a11.21,11.21,0,0,1,.21,1.27l0-.17a4.57,4.57,0,0,0,.16.82.52.52,0,0,0,.51.38.57.57,0,0,0,.52-.39,4.37,4.37,0,0,0,.08-2.3.72.72,0,0,0-.35-.45.78.78,0,0,0-.56-.07.77.77,0,0,0-.55.91Z"/><path class="cls-2" d="M78.07,106.89l0,.4c0,.13,0,.26,0,.39s0,.26,0,.39a3.87,3.87,0,0,0,0,.49l0,.12a.4.4,0,0,0,.13.13.48.48,0,0,0,.28.1.53.53,0,0,0,.47-.36,6.53,6.53,0,0,0,.2-.76c.06-.3.08-.61.11-.91a.58.58,0,0,0-.61-.6.64.64,0,0,0-.63.61Z"/><path class="cls-2" d="M78.34,112.84c0,.29,0,.58,0,.86a5,5,0,0,0,.15.94.41.41,0,0,0,.39.29.42.42,0,0,0,.4-.3,6.41,6.41,0,0,0,.19-1.8.56.56,0,0,0-.57-.56.6.6,0,0,0-.59.57Z"/><path class="cls-2" d="M15.52,34.55a5,5,0,0,0,1.64-.08,4.6,4.6,0,0,0,1.48-.57c.23-.14.17-.55-.13-.53a13.9,13.9,0,0,1-1.44.08l-.71,0-.38,0s-.19,0-.06,0l-.22,0a.65.65,0,0,0-.78.53.59.59,0,0,0,.6.68Z"/><path class="cls-2" d="M21.63,34.15a6.27,6.27,0,0,0,1.22.16,2.92,2.92,0,0,0,1.21-.13.45.45,0,0,0,.31-.39.4.4,0,0,0-.3-.39,11.11,11.11,0,0,0-1.16-.09s-.17,0-.05,0l-.21,0s-.16,0,0,0l-.14,0a4.86,4.86,0,0,1-.55-.1.55.55,0,0,0-.65.37.52.52,0,0,0,.36.63Z"/><path class="cls-2" d="M27.84,34.45A3.36,3.36,0,0,0,30.6,34a.32.32,0,0,0-.14-.54c-.21,0-.42,0-.63,0l-.3,0h0l-.2,0h-.09l-.12,0-.3-.06c-.19,0-.39-.09-.58-.15a.71.71,0,0,0-.85.49.67.67,0,0,0,.48.82Z"/><path class="cls-2" d="M33.94,34.48l.61-.11c-.11,0,0,0,.05,0l.24,0c-.11,0,0,0,0,0l.17,0c.41-.05.82-.08,1.23-.11a.43.43,0,0,0,.41-.36.38.38,0,0,0-.29-.43,7.65,7.65,0,0,0-2.74,0,.58.58,0,0,0-.41.68.56.56,0,0,0,.68.38Z"/><path class="cls-2" d="M15.21,91.2a3.35,3.35,0,0,0,1.92-.36.4.4,0,0,0,.19-.43.37.37,0,0,0-.37-.28,8.18,8.18,0,0,1-1.4,0h.14l-.32,0a.59.59,0,0,0-.71.48.53.53,0,0,0,.1.42.55.55,0,0,0,.45.21Z"/><path class="cls-2" d="M21,91.35a9.89,9.89,0,0,0,2.6-.19.37.37,0,0,0,0-.72A10.21,10.21,0,0,0,21,90.26a.57.57,0,0,0-.56.55.53.53,0,0,0,.54.54Z"/><path class="cls-2" d="M28.32,91.58a14.25,14.25,0,0,0,2.77-.22.41.41,0,0,0,0-.8,14.21,14.21,0,0,0-2.76-.22.65.65,0,0,0-.64.63.61.61,0,0,0,.61.61Z"/><path class="cls-2" d="M35.72,91.9l.69-.13a5.09,5.09,0,0,0,.67-.18.64.64,0,0,0,.48-.69.56.56,0,0,0-.17-.37.75.75,0,0,0-.45-.18c-.23,0-.46,0-.7,0l-.7,0a.9.9,0,0,0-.58.25.76.76,0,0,0-.23.65.71.71,0,0,0,.3.53.57.57,0,0,0,.27.13.75.75,0,0,0,.42,0Z"/><path class="cls-2" d="M41.4,123.33a2.55,2.55,0,0,0-2-.74,1.7,1.7,0,0,0-1.26,1.49,2.09,2.09,0,0,0,.21,1.84,1.53,1.53,0,0,0,2.09,0,2.18,2.18,0,0,0,.72-1.94.51.51,0,0,0-.46-.52.56.56,0,0,0-.61.39,2,2,0,0,0,1.1,2.51,2.51,2.51,0,0,0,1.36.05c.51-.1,1.24-.31,1.37-.89a.64.64,0,0,0-.29-.69,1,1,0,0,0-.74-.06l-.26.09-.2.07a3.47,3.47,0,0,1-.46.13c-.09,0-.09,0,0,0h-.32c.14,0,0,0-.07,0s-.08,0,0,0l-.11-.06c-.16-.08.07.06-.08-.06s-.06-.07,0,0a.75.75,0,0,1-.07-.12,1.51,1.51,0,0,1-.11-.81l-1.07.15a.57.57,0,0,1-.07.49l-.11.16h0l0,0a.86.86,0,0,1-.14.13c.09-.06-.07,0-.07,0l-.17.08-.1,0a.29.29,0,0,1-.16,0s-.1-.08,0,0-.05,0,0,0l0,0c0,.09,0-.07,0-.08s0-.15,0-.1a2.08,2.08,0,0,1,0-.62c.05-.19.1-.49.26-.59.38-.23.92.24,1.2.47a.58.58,0,0,0,.79,0,.53.53,0,0,0,0-.76Z"/><path class="cls-2" d="M77.92,121.89l.12,2.46c0,.45,0,.9.1,1.35s.2,1.18.83,1.18c1.1,0,.76-1.86.72-2.54l-.17-2.47a.79.79,0,0,0-.79-.78.82.82,0,0,0-.81.8Z"/><path class="cls-2" d="M79.52,124.36a2.6,2.6,0,0,1,2.73.14l.19.19a.76.76,0,0,1,.12.24.39.39,0,0,1-.11.39,2,2,0,0,1-.57.38,3.61,3.61,0,0,1-.68.28,4.13,4.13,0,0,1-.85.17,2.37,2.37,0,0,0-1,.16.39.39,0,0,0-.09.62,1.4,1.4,0,0,0,1.1.18,5.88,5.88,0,0,0,1-.21,4,4,0,0,0,1.77-1,1.38,1.38,0,0,0,0-1.84,2.51,2.51,0,0,0-1.74-.83,4,4,0,0,0-2.29.39.44.44,0,0,0-.17.59.46.46,0,0,0,.6.15Z"/><path class="cls-2" d="M3.56,88.76a2.6,2.6,0,0,0-.89,1.32,1.44,1.44,0,0,0,.42,1.74,1.69,1.69,0,0,0,.76.23,4.29,4.29,0,0,0,.88,0,3.22,3.22,0,0,0,.87-.19,4.52,4.52,0,0,0,.5-.23,2.06,2.06,0,0,0,.4-.33.59.59,0,0,0,.1-.69.6.6,0,0,0-.66-.26c-.1,0-.21,0-.31.06s-.21.06-.32.09a5.61,5.61,0,0,1-.59.13l-.15,0h0a.91.91,0,0,1-.33,0c-.11,0-.22,0-.32,0h0c-.08,0-.06,0,0,0a.31.31,0,0,1-.13,0s0,0,0,0,.05,0,0,0l.05,0s0,0,0,0c-.07-.11,0,.12,0,0s0-.06,0-.09v.07s0-.24,0-.29,0,0,0,0,0,0,0-.06a.94.94,0,0,1,0-.16.56.56,0,0,1,0-.12v0s.1-.19.13-.24l.07-.11c.08-.11-.06.07,0,0a2.39,2.39,0,0,1,.22-.23.56.56,0,0,0,0-.79.6.6,0,0,0-.81,0Z"/><path class="cls-2" d="M3.8,32.45a3.57,3.57,0,0,0-1.21-.54,2.14,2.14,0,0,0-1.37,0,1.75,1.75,0,0,0-.64,2.17,1.57,1.57,0,0,0,2,.92,1.64,1.64,0,0,0,.9-.89A2.4,2.4,0,0,0,3.53,33a5.79,5.79,0,0,0-.38-1.29c-.2-.56-.43-1.1-.63-1.65l-1,.4c.4,1,.39,2,.78,3a2.86,2.86,0,0,0,.83,1.2,2,2,0,0,0,1.33.57.4.4,0,0,0,.21-.74,2.7,2.7,0,0,1-.79-.66c-.11-.17-.2-.35-.3-.53s-.1-.18-.14-.27l-.06-.13s-.06-.13,0-.07c-.38-.95-.48-2-.92-2.89-.25-.52-1.15-.15-1,.39.25.72.49,1.45.75,2.16a2.35,2.35,0,0,1,.22,1.46.36.36,0,0,1-.32.29.73.73,0,0,1-.59-.14,1,1,0,0,1-.08-1.35c.2-.2.63-.11.88-.05a2.86,2.86,0,0,1,1,.46c.4.27.8-.38.39-.67Z"/><path class="cls-2" d="M41.45,41.87a50.67,50.67,0,0,0,6.67-3.63,29.33,29.33,0,0,1,7-3.21.32.32,0,0,0-.16-.61,21.41,21.41,0,0,0-7,2.94c-2.24,1.31-4.42,2.75-6.78,3.84-.38.17-.13.84.27.67Z"/><path class="cls-2" d="M44.75,46.51c5.45-3,11-5.81,16.57-8.68.35-.18.06-.67-.29-.5C55.41,40,50,43.05,44.52,46.11a.23.23,0,1,0,.23.4Z"/><path class="cls-2" d="M42.66,54.65C51.19,50.17,59.88,46,68.54,41.78c2.44-1.2,4.9-2.37,7.33-3.58.49-.24.08-.9-.4-.7-8.86,3.79-17.5,8.1-26,12.62-2.41,1.27-4.8,2.57-7.2,3.86-.45.24-.06.91.39.67Z"/><path class="cls-2" d="M41.16,63.87c.15.71,1,.55,1.53.34,1.36-.59,2.68-1.35,4-2l7.9-4c5.26-2.7,10.53-5.38,15.75-8.17,3-1.59,5.93-3.19,8.88-4.83a.26.26,0,0,0-.26-.45c-9.87,4.84-19.55,10-29.25,15.23l-4,2.12-2,1.07c-.27.14-2.06,1.35-2.25.68-.06-.23-.4-.13-.36.09Z"/><path class="cls-2" d="M42.32,73.25C51.45,68.41,60.7,63.8,69.8,58.92c2.57-1.38,5.15-2.75,7.69-4.16a.27.27,0,1,0-.27-.47C68,58.87,58.85,63.75,49.73,68.6,47.16,70,44.59,71.34,42,72.68c-.39.2-.06.77.32.57Z"/><path class="cls-2" d="M43.55,80C52.27,75.6,61,71.3,69.71,66.88c2.48-1.26,5-2.51,7.4-3.83.29-.16,0-.57-.25-.43C68,66.74,59.39,71.28,50.71,75.72L43.29,79.5c-.32.15,0,.6.26.45Z"/><path class="cls-2" d="M43.65,87.46c8.36-4,16.57-8.33,24.53-13.06,2.25-1.33,4.51-2.66,6.68-4.12a.31.31,0,0,0-.32-.54c-4,2.31-8,4.75-12,7s-8.12,4.47-12.25,6.57q-3.49,1.77-7,3.47c-.45.22-.07.87.38.65Z"/><path class="cls-2" d="M53.88,89q4.95-2.8,9.91-5.6c3.31-1.86,6.65-3.68,9.88-5.68a.31.31,0,0,0-.31-.53c-3.38,1.73-6.66,3.67-10,5.54l-9.92,5.61a.38.38,0,1,0,.39.66Z"/><path class="cls-2" d="M65.65,89.06c3.27-1.55,6.56-3.07,9.78-4.71.43-.22.07-.8-.35-.62-3.33,1.44-6.6,3-9.88,4.54-.54.26-.09,1,.45.79Z"/><path class="cls-1" d="M130,122.41a.13.13,0,1,0,0-.25c-.16,0-.17.25,0,.25Z"/><path class="cls-1" d="M129.53,121.61a3,3,0,0,0-2.44,0,1.57,1.57,0,0,0-.8,1.88,3,3,0,0,0,1.15,1.29l.31.25.13.14.06.07c0-.07,0,0,0,0s.07.11,0,0,0,0,0,.07,0,0,0,0,0,0,0,0,.09-.16.15-.14l-.1,0c-.16,0,.12,0-.05,0-.43,0-.86,0-1.29,0l-.71-.06a1.13,1.13,0,0,0-.81.09.51.51,0,0,0-.2.67c.21.41.86.48,1.26.55a9.92,9.92,0,0,0,1.33.1,1.94,1.94,0,0,0,1.13-.27,1.17,1.17,0,0,0,.47-1.26,2.83,2.83,0,0,0-1.15-1.43l-.3-.24a1.59,1.59,0,0,0-.13-.13l-.06-.07c0,.05.06.09,0,0l0-.07v0h0s0,0,0,0a.31.31,0,0,0,0-.08c0-.06,0,.1,0,0s0,0,0-.07,0,0,0,0,.07-.15,0-.06l.06-.09c0-.1,0,0,0,0l.08-.08s.09-.06,0,0a.47.47,0,0,1,.09-.06l.08,0,.06,0a.5.5,0,0,1,.13,0,3.11,3.11,0,0,1,1.22.19.59.59,0,0,0,.69-.4.54.54,0,0,0-.39-.67Z"/><path class="cls-1" d="M2,.79A16.55,16.55,0,0,1,2,2.65a4.31,4.31,0,0,0,.29,1.71A2.49,2.49,0,0,0,5.09,5.83a.54.54,0,0,0,.39-.49.51.51,0,0,0-.37-.48,7,7,0,0,1-1.17-.42,1.39,1.39,0,0,1-.59-.84,4.21,4.21,0,0,1-.08-1.33,10.06,10.06,0,0,0,0-1.82A.62.62,0,0,0,2.48,0,.66.66,0,0,0,2,.79Z"/><path class="cls-1" d="M.57,3.67c.79-.09,1.57-.2,2.36-.32.37-.05.75-.1,1.12-.17S5,3.12,5.19,2.73a.42.42,0,0,0-.06-.49c-.27-.32-.84-.17-1.2-.13s-.75.08-1.13.12c-.79.09-1.57.19-2.36.3A.61.61,0,0,0,0,3.17a.57.57,0,0,0,.57.5Z"/><path class="cls-1" d="M104.42,14.38c0,1.28,0,2.55,0,3.83a20.81,20.81,0,0,0,.21,3.79.42.42,0,0,0,.8,0,22,22,0,0,0,.21-3.8c0-1.28,0-2.55,0-3.83a.6.6,0,0,0-1.2,0Z"/><path class="cls-1" d="M106.28,15.73c0,2.31-.1,4.64.11,6.94a.56.56,0,0,0,1.12,0c.21-2.3.13-4.63.11-6.94a.67.67,0,0,0-1.34,0Z"/><path class="cls-1" d="M105.15,15.65a6.1,6.1,0,0,1,2.26-1.31,4.49,4.49,0,0,1,2.32-.26c1,.25-.45,1.54-.81,1.86a6.32,6.32,0,0,1-2.17,1.36c-.25.09-.51.43-.31.7a56,56,0,0,0,5.06,5.92c.38.36,1.12-.14.79-.61a53.74,53.74,0,0,0-5.09-5.89l-.11.74a9.34,9.34,0,0,0,2.8-1.93c.64-.67,1.7-1.91.68-2.73-.77-.62-2.13-.35-3-.11a7,7,0,0,0-3,1.7c-.39.37.19.92.59.56Z"/><path class="cls-1" d="M111.19,10.14a2.49,2.49,0,0,1,1.42.25l-.2-.49c-.25.77-.5,1.53-.76,2.29s-.61,1.54-.11,2.28a2.67,2.67,0,0,0,3.94.32.58.58,0,0,0,.06-.77.61.61,0,0,0-.77-.14l-.12,0-.14,0c-.13,0-.25.08-.39.1s0,0-.07,0h-.58c.07,0,0,0,0,0l-.21-.05a.9.9,0,0,1-.25-.08l-.16-.08s-.13-.09-.07,0l-.15-.14,0-.05s0,0,0,0,0,.1,0-.07a.36.36,0,0,1,0-.15,2.63,2.63,0,0,1,.06-.39c.07-.32.16-.64.23-1,.16-.64.31-1.29.47-1.93a.42.42,0,0,0-.2-.48,3.7,3.7,0,0,0-1.86-.28.44.44,0,0,0-.41.4.39.39,0,0,0,.4.39Z"/><path class="cls-2" d="M113.23,54.05a4.32,4.32,0,0,0-1.86.22c-.56.3-.47.91-.47,1.46q0,2.06-.12,4.11c0,1.35-.15,2.72-.14,4.08,0,1.18,1,1.59,2,1.3.39-.11.46-.74,0-.83-.24,0-.76-.08-.92-.29s0-.58,0-.76,0-.4,0-.6c0-1,0-2.07,0-3.11s0-2,0-3c0-.23,0-.46,0-.7s-.06-.64,0-.8q-.18.09.06,0a3.4,3.4,0,0,1,.46-.06c.26,0,.53,0,.8-.05.63,0,.67-1,0-1Z"/><path class="cls-2" d="M117.56,61.08a2,2,0,0,0-1.57-1,1.86,1.86,0,0,0-1.72.9,1.8,1.8,0,0,0,2,2.69,2,2,0,0,0,1-.78,1.55,1.55,0,0,0,.22-.51.29.29,0,0,0,0-.09,1.09,1.09,0,0,0,0-.24,2.28,2.28,0,0,0,0-.26l-1.14.16a2.27,2.27,0,0,0,.54,1.36,1.36,1.36,0,0,0,.71.37,1.24,1.24,0,0,0,.47,0,1.1,1.1,0,0,0,.44-.26.53.53,0,0,0-.24-.9l-.17,0-.1,0c-.07,0-.07,0,0,0s-.2-.14-.08,0l-.16-.14s0,0,0,0l-.07-.1a1.24,1.24,0,0,1-.1-.2l0-.11c0,.06,0,.06,0,0a2,2,0,0,1-.08-.22.57.57,0,0,0-.7-.4.6.6,0,0,0-.42.7c0-.11,0,.08,0,.11,0-.15-.07.15,0,0a.59.59,0,0,1-.1.17c.07-.11,0,0-.07.08l-.07.06c.06,0,.06-.05,0,0s-.23.11-.07,0l-.2.06c.16,0-.05,0-.09,0h-.1c.08,0,.09,0,0,0s-.22-.09-.09,0l-.13-.07c-.06,0-.06,0,0,0l-.08-.06-.14-.15c.1.11,0,0-.05-.07l0-.09c0,.07,0,.07,0,0s0-.23,0-.1a.67.67,0,0,1,0-.2c0,.12,0-.07,0-.1l0-.1c0,.06,0,.05,0,0a1.74,1.74,0,0,1,.11-.18l.07-.08,0,0a1,1,0,0,1,.17-.1l.11,0H116a.58.58,0,0,1,.19,0l.1,0s0,0,0,0a1,1,0,0,1,.44.46.49.49,0,0,0,.84-.49Z"/><path class="cls-2" d="M120.39,64.15a4.21,4.21,0,0,1,.09.49l0-.17c0,.12,0,.23,0,.35l0-.17c0,.16,0,.32,0,.47v.24a1.88,1.88,0,0,0,0,.33.41.41,0,0,0,.13.23.46.46,0,0,0,.29.13.54.54,0,0,0,.52-.25,2,2,0,0,0,.31-1,3.62,3.62,0,0,0-.09-1,.68.68,0,0,0-.83-.47.71.71,0,0,0-.5.83Z"/><path class="cls-2" d="M122.72,58.37c.15,1.5.22,3,.51,4.48a.65.65,0,0,0,.8.45.67.67,0,0,0,.48-.79,1.56,1.56,0,0,1-.08-.93.89.89,0,0,1,.33-.54c.37-.25.73.18.79.52a1,1,0,0,1-.52,1,1,1,0,0,1-.57.07c-.28-.05-.48-.26-.76-.29s-.49.1-.48.36c0,.72,1,1,1.67,1a2,2,0,0,0,1.66-1.21,1.91,1.91,0,0,0-.33-2,1.5,1.5,0,0,0-2-.22,3.08,3.08,0,0,0-1,2.31l.08-.29c0,.1-.08.19-.11.29l1.29.15a26.17,26.17,0,0,0-.31-4.51.75.75,0,0,0-.82-.54.77.77,0,0,0-.68.75Z"/><path class="cls-2" d="M126.48,55.71a4.32,4.32,0,0,1,1.53-.39c.28,0,.27,0,.26.29s0,.49-.05.73a16.49,16.49,0,0,0,.16,3.14,18,18,0,0,0,.72,3,3.74,3.74,0,0,0,.3.77l.07.17.11-.16-.28.06a3.42,3.42,0,0,0-1.62.41.51.51,0,0,0,.11.94,3.91,3.91,0,0,0,2-.37.94.94,0,0,0,.6-1.28,20.67,20.67,0,0,1-1.06-4.09,15.69,15.69,0,0,1-.09-2.17,5.12,5.12,0,0,0,0-1.79c-.45-1.27-2.43-.48-3.25-.09-.58.27-.09,1.09.48.83Z"/><path class="cls-2" d="M135.69,63.94a12.27,12.27,0,0,0,2-1.42q.42-.39.81-.81c.16-.17.31-.34.45-.52a1.76,1.76,0,0,0,.31-.57.49.49,0,0,0-.18-.52.54.54,0,0,0-.56,0,1.92,1.92,0,0,0-.5.4l-.4.39a9.9,9.9,0,0,1-.85.73c-.05,0,0,0,0,0l-.12.09-.21.15-.46.32c-.32.21-.66.4-1,.58a.71.71,0,0,0-.28,1,.72.72,0,0,0,1,.25Z"/><path class="cls-2" d="M135.18,61.59A19.07,19.07,0,0,1,137,63.23,11.84,11.84,0,0,0,138.86,65a.58.58,0,0,0,.83-.64,5.61,5.61,0,0,0-1.6-2.2A16.5,16.5,0,0,0,136,60.48a.71.71,0,0,0-.91.2.68.68,0,0,0,.05.91Z"/><path class="cls-2" d="M146.47,54.17c-1,.08-2.14.42-2.19,1.61a20.08,20.08,0,0,0,.23,2c.05.74,0,1.49,0,2.23s0,1.49,0,2.24a4.92,4.92,0,0,0,.18,2c.28.55.93.51,1.45.51a14.84,14.84,0,0,0,2.31-.12c.42-.06.45-.78,0-.84a15.07,15.07,0,0,0-1.64-.12h-.95a1.14,1.14,0,0,1-.32,0c.19.07.09,0,.08-.22-.06-1.15,0-2.3,0-3.45a19,19,0,0,0-.24-3.28c-.07-.43-.34-1.09,0-1.45a2.11,2.11,0,0,1,1.12-.37c.45-.07.38-.82-.08-.78Z"/><path class="cls-2" d="M152.8,60.19a2.29,2.29,0,0,0-2.4,1.45,2,2,0,0,0,.1,1.48,1.77,1.77,0,0,0,1.3.89,2.41,2.41,0,0,0,1,0,3.81,3.81,0,0,0,.87-.33.54.54,0,0,0,.26-.6.53.53,0,0,0-.51-.39c-.23,0-.47,0-.7.08s.13,0,0,0H152c.13,0,.1,0,0,0H152l-.14,0h0c.09,0,0,0,0,0l-.12-.07c-.1,0,.1.1,0,0l-.1-.1,0,0,0,.05s-.05-.07-.06-.1l-.06-.1h0c0,.1,0,0,0,0l0-.12s0-.1,0-.12v-.15a.17.17,0,0,0,0-.07c0-.06,0,0,0,0a.53.53,0,0,0,0-.12l0-.12c0-.08,0,0,0,0s0,0,0-.06.05-.08.07-.13l0,0a2.08,2.08,0,0,1,.21-.21s.06,0,0,0l0,0,.13-.08.14-.07h0l.07,0,.32-.08h.26a.38.38,0,0,0,.38-.37.37.37,0,0,0-.36-.37Z"/><path class="cls-2" d="M156.1,64.86a1,1,0,0,1,.1.21l0-.14a1.8,1.8,0,0,1,.1.4l0-.14,0,.21,0-.14a1.88,1.88,0,0,1,0,.41l0-.14,0,.26,0-.13c0,.18-.1.35-.13.52a.39.39,0,0,0,.14.43.41.41,0,0,0,.46,0,1.43,1.43,0,0,0,.63-1.16,1.89,1.89,0,0,0-.28-1.16.56.56,0,0,0-.75-.19.57.57,0,0,0-.21.74Z"/><path class="cls-2" d="M159.77,61.42a1.54,1.54,0,0,0,.07,2.27,1.56,1.56,0,0,0,2.2-.31c1.15-1.43,0-3.47-1-4.68a4.74,4.74,0,0,0-1-1,1.74,1.74,0,0,0-1.33-.41.43.43,0,0,0-.2.7,4.1,4.1,0,0,0,.92.58,4.65,4.65,0,0,1,.73.67,7.07,7.07,0,0,1,1.16,1.89c.23.55.4,1.43-.25,1.77a.5.5,0,0,1-.58-.8.52.52,0,0,0-.74-.72Z"/><path class="cls-2" d="M163.06,56.23a5.17,5.17,0,0,1,1.92.08c.65.15.84.47.94,1.11a17.22,17.22,0,0,1,.07,3.73,26.71,26.71,0,0,0-.09,3.58,2.44,2.44,0,0,0,.1.81c0,.2.05.13.11-.21l-.19,0a1.63,1.63,0,0,0-.38,0,4.53,4.53,0,0,0-1.79.35.51.51,0,0,0,.12.94,5.5,5.5,0,0,0,2.27-.2c.65-.1,1-.38,1-1.08a41.65,41.65,0,0,1-.05-4.74,20,20,0,0,0,0-2.32,5.26,5.26,0,0,0-.41-2c-.67-1.22-2.63-1.12-3.79-.93-.58.1-.36,1,.22.86Z"/><path class="cls-2" d="M106.77,58.27c-1.16-1.39-2.51-2.85-4.46-2.87-1.79,0-2.61,1.37-3.51,2.67a3.28,3.28,0,0,1-1.88,1.47,4.2,4.2,0,0,1-2.57-.26c-1.71-.7-2.71-2.38-4.6-2.73-2.07-.39-4.17.24-6.24,0-.48-.06-1,.67-.39.9,1.72.7,3.51.16,5.29.13a4.32,4.32,0,0,1,2.68.75,19.18,19.18,0,0,0,2.14,1.56,5.24,5.24,0,0,0,4.37.4c1.54-.63,2-2.12,3.09-3.2,1.89-1.84,4.16.47,5.4,1.89.39.46,1.07-.21.68-.68Z"/><path class="cls-2" d="M83.92,57a22.91,22.91,0,0,0,1.72-1.55.36.36,0,0,0,0-.47.35.35,0,0,0-.46-.08,21.19,21.19,0,0,0-2,1.46.47.47,0,0,0-.14.32.44.44,0,0,0,.14.33.49.49,0,0,0,.67,0Z"/><path class="cls-2" d="M83.47,57.67l.5.69.25.33q.15.2.33.39a.36.36,0,0,0,.46,0,.35.35,0,0,0,.09-.45c-.06-.12-.12-.25-.19-.36l-.23-.36-.46-.69a.43.43,0,0,0-.75.43Z"/></svg>