<svg id="Layer_1" data-name="Layer 1" xmlns="http://www.w3.org/2000/svg" viewBox="0 0 383.16 305.21"><defs><style>.cls-1{opacity:0.45;}.cls-2{fill:#486afb;}.cls-3,.cls-4{fill:none;stroke-miterlimit:10;}.cls-3{stroke:#486afb;}.cls-4{stroke:#fd46fc;}.cls-5{fill:#fd46fc;}</style></defs><g class="cls-1"><path class="cls-2" d="M344.26,275.71c2.49,5.28,1.74,12.16-2.45,16.21a17.72,17.72,0,0,1-6.63,3.78,12.63,12.63,0,0,1-3-2.25c-3.23-3.3-4.13-8.46-2.85-12.89a19.58,19.58,0,0,1,8.4-10.62c.4-.26.8-.5,1.21-.73A17.74,17.74,0,0,1,344.26,275.71Z" transform="translate(-10.75 -24.35)"/><path class="cls-3" d="M317.26,265.09c-.8.17-1.61.35-2.4.56a34.33,34.33,0,0,0-10.48,4.29A19.52,19.52,0,0,0,296,280.56c-1.29,4.43-.39,9.59,2.84,12.89a14.85,14.85,0,0,0,5.48,3.37c4.71,1.75,9.86,1.83,14.87,1.57a60.84,60.84,0,0,0,14.89-2.33l1.11-.36a17.72,17.72,0,0,0,6.63-3.78c4.19-4.05,4.94-10.93,2.45-16.21a17.74,17.74,0,0,0-5.35-6.5,22.06,22.06,0,0,0-8-3.86,32.93,32.93,0,0,0-16,.4l-1.29.34" transform="translate(-10.75 -24.35)"/><path class="cls-4" d="M350.57,265.09c-1.23.26-2.46.55-3.68.89a34,34,0,0,0-8,3.23c-.41.23-.81.47-1.21.73a19.58,19.58,0,0,0-8.4,10.62c-1.28,4.43-.38,9.59,2.85,12.89a12.63,12.63,0,0,0,3,2.25,16.92,16.92,0,0,0,2.45,1.12c4.7,1.75,9.86,1.83,14.87,1.57a60.84,60.84,0,0,0,14.89-2.33,19.06,19.06,0,0,0,7.74-4.14c4.19-4.05,4.93-10.93,2.45-16.21s-7.73-8.93-13.39-10.36-11.66-.83-17.27.74" transform="translate(-10.75 -24.35)"/></g><path class="cls-2" d="M45.29,263.45a38.13,38.13,0,0,0-14,5.42,19.84,19.84,0,0,0-7.85,10.45,14.77,14.77,0,0,0,1.84,12.32c2.83,4,7.83,5.81,12.53,6.47a61.67,61.67,0,0,0,15.71-.24c5-.6,10.38-1.66,14.72-4.38A14.15,14.15,0,0,0,74.65,283a16.2,16.2,0,0,0-3.3-11.86c-6-7.8-16.7-9.7-25.87-7.65a39.56,39.56,0,0,0-3.82,1.1.6.6,0,0,0,.31,1.16c4.79-1.05,9.84-1.69,14.72-.87a21.82,21.82,0,0,1,11,5.11,15.48,15.48,0,0,1,5.27,9.93,12.62,12.62,0,0,1-3.42,10.33c-3.32,3.25-8.3,4.46-12.74,5.27a72.64,72.64,0,0,1-14.65,1.13c-4.57-.12-9.67-.89-13.41-3.75a11.63,11.63,0,0,1-4.22-10.5c.83-9,9.77-14.5,17.68-16.69,1.15-.32,2.31-.59,3.47-.84.92-.19.55-1.59-.36-1.41Z" transform="translate(-10.75 -24.35)"/><g class="cls-1"><path class="cls-2" d="M78.79,264.16A37.55,37.55,0,0,0,65.91,269a19.57,19.57,0,0,0-8.39,10.63c-1.29,4.43-.39,9.59,2.84,12.88a14.87,14.87,0,0,0,5.48,3.38c4.71,1.75,9.86,1.83,14.87,1.57a61.32,61.32,0,0,0,14.89-2.33,19.06,19.06,0,0,0,7.74-4.14c4.19-4.06,4.94-10.93,2.45-16.21s-7.73-8.93-13.38-10.36-11.67-.84-17.28.74" transform="translate(-10.75 -24.35)"/><path class="cls-5" d="M78.6,263.46a37.89,37.89,0,0,0-14,5.41,19.84,19.84,0,0,0-7.85,10.45,14.74,14.74,0,0,0,1.84,12.31c2.83,4.05,7.82,5.81,12.53,6.47a61.21,61.21,0,0,0,15.71-.23c5-.61,10.38-1.66,14.71-4.39A14.14,14.14,0,0,0,108,283a16.21,16.21,0,0,0-3.31-11.86c-6-7.79-16.69-9.7-25.86-7.65a39.56,39.56,0,0,0-3.82,1.1.6.6,0,0,0,.3,1.16A38.88,38.88,0,0,1,90,264.87,21.85,21.85,0,0,1,101,270a15.48,15.48,0,0,1,5.27,9.93,12.62,12.62,0,0,1-3.42,10.33c-3.32,3.26-8.3,4.47-12.74,5.27a72.64,72.64,0,0,1-14.65,1.13c-4.58-.11-9.67-.89-13.41-3.75a11.63,11.63,0,0,1-4.23-10.5c.83-9,9.77-14.5,17.68-16.69q1.73-.48,3.48-.84c.91-.2.54-1.59-.37-1.4Z" transform="translate(-10.75 -24.35)"/></g><path class="cls-2" d="M12.07,249c.27,5.68.52,11.36.72,17s.25,11.35.29,17-.1,11.36-.23,17q-.09,4.23-.19,8.46a35.51,35.51,0,0,0-.06,3.86A2.68,2.68,0,0,0,14.28,315a4.58,4.58,0,0,0,1.69.1l2.25-.13c1.4-.07,2.84,0,4.24,0L31,315c5.69,0,11.39,0,17.09,0,11.35-.05,22.7,0,34.05.08,5.74,0,11.48,0,17.22-.06s11.32,0,17-.12c1.41,0,2.82-.06,4.24,0a.8.8,0,0,0,.69-1.18,8,8,0,0,1-.52-3.76c.06-1.36.14-2.71.2-4.07.13-2.9.26-5.81.34-8.72.18-5.82.26-11.63.35-17.45s.11-11.64.07-17.46c0-2.95,0-5.9-.09-8.85,0-1.42,0-2.85-.09-4.27a2.27,2.27,0,0,0-2.86-2.66l-2.23.23c-1.43.13-2.88.27-4.32.33-2.89.12-5.78.16-8.68.17-5.8,0-11.61-.05-17.42-.07-11.66-.06-23.31,0-35,0s-23.39,0-35.09.14l-4.24.06a.94.94,0,0,0,0,1.87L29,249c5.79-.06,11.58-.18,17.36-.26,11.49-.15,23-.16,34.47-.18s23,0,34.56-.49l2-.11,1-.06a3.52,3.52,0,0,1,1.12,0c.38.13.41.62.44,1,0,.67,0,1.35,0,2,0,2.87,0,5.73,0,8.6,0,5.74-.07,11.47-.14,17.21s-.23,11.55-.4,17.32q-.12,4.31-.26,8.6c-.08,2.78-.37,5.61-.18,8.39a8.77,8.77,0,0,0,.88,3.48l.69-1.18c-2.83.06-5.66,0-8.48-.06l-8.36,0q-8.35,0-16.72,0c-11.19,0-22.37.13-33.56.19s-22.37,0-33.56.05c-1.38,0-2.74-.05-4.12-.12-.36,0-.88.07-1.08-.3a2.66,2.66,0,0,1-.14-1.25c0-2.82.14-5.64.16-8.46.05-5.56,0-11.11-.07-16.67s-.15-11.11-.23-16.67-.18-11.2-.41-16.79c-.05-1.36-.11-2.73-.17-4.1,0-1.1-1.77-1.11-1.72,0Z" transform="translate(-10.75 -24.35)"/><path class="cls-2" d="M181.41,41.49a38.13,38.13,0,0,0-14,5.42,19.84,19.84,0,0,0-7.85,10.45,14.74,14.74,0,0,0,1.85,12.32c2.82,4,7.82,5.81,12.52,6.47a61.74,61.74,0,0,0,15.72-.24c5-.6,10.38-1.66,14.71-4.38A14.16,14.16,0,0,0,210.78,61a16.21,16.21,0,0,0-3.31-11.86c-6-7.8-16.7-9.7-25.86-7.65a39,39,0,0,0-3.83,1.1.6.6,0,0,0,.31,1.16c4.79-1.05,9.84-1.69,14.72-.87a21.82,21.82,0,0,1,11,5.11A15.48,15.48,0,0,1,209.06,58a12.64,12.64,0,0,1-3.41,10.33c-3.33,3.25-8.31,4.46-12.74,5.27a72.7,72.7,0,0,1-14.65,1.13c-4.58-.12-9.67-.89-13.41-3.75a11.64,11.64,0,0,1-4.23-10.5c.83-9,9.77-14.5,17.68-16.69,1.15-.32,2.31-.59,3.47-.84.92-.19.55-1.59-.36-1.41Z" transform="translate(-10.75 -24.35)"/><g class="cls-1"><path class="cls-2" d="M177.9,43.09a32.56,32.56,0,0,0-9.18,4,19.58,19.58,0,0,0-8.4,10.62c-1.28,4.43-.38,9.59,2.85,12.88a14.79,14.79,0,0,0,5.48,3.38c4.7,1.75,9.86,1.83,14.87,1.57a61.24,61.24,0,0,0,14.88-2.33A18.83,18.83,0,0,0,206.14,69c4.2-4,5-10.93,2.46-16.2s-7.73-8.93-13.39-10.36-11.66-.83-17.27.74Zm78.92-15.88Q257.21,57,256,86.8a10.27,10.27,0,0,0,.68,5.23l-105,.14a2.34,2.34,0,0,1-1.12-.18c-.77-.42-.84-1.45-.81-2.31q.83-31.33-.62-62.68v-.8q41.44-.46,82.9-.4c7.69,0,15.38,0,23-.69a2.14,2.14,0,0,1,1,.07C256.69,25.49,256.81,26.44,256.82,27.21Z" transform="translate(-10.75 -24.35)"/><path class="cls-3" d="M181.59,42.2c-1.24.25-2.47.55-3.69.89a32.56,32.56,0,0,0-9.18,4,19.58,19.58,0,0,0-8.4,10.62c-1.28,4.43-.38,9.59,2.85,12.88a14.79,14.79,0,0,0,5.48,3.38c4.7,1.75,9.86,1.83,14.87,1.57a61.24,61.24,0,0,0,14.88-2.33A18.83,18.83,0,0,0,206.14,69c4.2-4,5-10.93,2.46-16.2s-7.73-8.93-13.39-10.36-11.66-.83-17.27.74" transform="translate(-10.75 -24.35)"/><path class="cls-3" d="M149.05,27q1.44,31.32.62,62.68c0,.86,0,1.89.81,2.31a2.34,2.34,0,0,0,1.12.18l105-.14A10.27,10.27,0,0,1,256,86.8q1.23-29.77.85-59.59c0-.77-.13-1.72-.84-2a2.14,2.14,0,0,0-1-.07c-7.65.72-15.34.69-23,.69q-41.44-.06-82.9.4l-1.27,0" transform="translate(-10.75 -24.35)"/></g><path class="cls-2" d="M148.19,27c.27,5.68.52,11.36.72,17s.25,11.35.29,17-.1,11.36-.23,17q-.09,4.23-.19,8.46a35.51,35.51,0,0,0-.06,3.86A2.7,2.7,0,0,0,150.4,93a4.62,4.62,0,0,0,1.7.1l2.24-.13c1.41-.07,2.84,0,4.24,0l8.49,0c5.69,0,11.39,0,17.09,0,11.35,0,22.7,0,34.06.08,5.74,0,11.47,0,17.21-.06s11.32,0,17-.12c1.42,0,2.83-.06,4.24,0a.8.8,0,0,0,.69-1.18,8,8,0,0,1-.52-3.76c.06-1.36.14-2.71.2-4.07.13-2.9.26-5.81.35-8.72.17-5.82.26-11.63.34-17.45s.11-11.64.07-17.46c0-3,0-5.9-.09-8.85,0-1.42,0-2.85-.09-4.27a2.77,2.77,0,0,0-1.17-2.5,2.79,2.79,0,0,0-1.69-.16l-2.22.23c-1.44.13-2.89.27-4.33.33-2.89.12-5.78.16-8.67.17-5.81,0-11.62-.05-17.43-.07-11.66-.06-23.31,0-35,0s-23.39,0-35.08.14l-4.25.06a.94.94,0,0,0,0,1.87L165.13,27c5.78-.06,11.57-.18,17.36-.26,11.48-.15,23-.16,34.46-.18s23.05,0,34.56-.49l2-.11,1-.06a3.45,3.45,0,0,1,1.11,0c.38.13.41.62.44,1,.05.67,0,1.35,0,2,0,2.87,0,5.73,0,8.6q0,8.61-.14,17.21c-.07,5.77-.23,11.55-.4,17.32q-.12,4.31-.26,8.6c-.08,2.78-.36,5.61-.18,8.39a8.77,8.77,0,0,0,.88,3.48l.69-1.18c-2.82.06-5.65,0-8.48-.06l-8.36,0q-8.35,0-16.72,0c-11.18,0-22.37.13-33.56.19s-22.37,0-33.56,0c-1.37,0-2.74,0-4.11-.12-.37,0-.89.07-1.09-.3a2.66,2.66,0,0,1-.14-1.25c0-2.82.14-5.64.16-8.46.05-5.56,0-11.11-.07-16.67s-.15-11.11-.23-16.67-.18-11.19-.41-16.79c-.05-1.36-.11-2.73-.17-4.1,0-1.1-1.77-1.11-1.72,0Z" transform="translate(-10.75 -24.35)"/><path class="cls-5" d="M214.72,41.49a38.08,38.08,0,0,0-14,5.42,19.84,19.84,0,0,0-7.85,10.45,14.77,14.77,0,0,0,1.84,12.32c2.83,4,7.82,5.81,12.53,6.47A61.67,61.67,0,0,0,223,75.91c5-.6,10.38-1.66,14.72-4.38A14.15,14.15,0,0,0,244.09,61a16.2,16.2,0,0,0-3.3-11.86c-6-7.8-16.7-9.7-25.87-7.65a39.56,39.56,0,0,0-3.82,1.1.6.6,0,0,0,.3,1.16c4.79-1.05,9.85-1.69,14.72-.87a21.85,21.85,0,0,1,11,5.11A15.48,15.48,0,0,1,242.38,58,12.62,12.62,0,0,1,239,68.28c-3.32,3.25-8.3,4.46-12.74,5.27a72.64,72.64,0,0,1-14.65,1.13c-4.58-.12-9.67-.89-13.41-3.75a11.63,11.63,0,0,1-4.22-10.5c.83-9,9.76-14.5,17.67-16.69,1.15-.32,2.31-.59,3.48-.84.92-.19.55-1.59-.37-1.41Z" transform="translate(-10.75 -24.35)"/><path class="cls-5" d="M350.85,42.43a37.93,37.93,0,0,0-14,5.41A19.84,19.84,0,0,0,329,58.29a14.77,14.77,0,0,0,1.84,12.32c2.83,4,7.83,5.81,12.53,6.47a61.66,61.66,0,0,0,15.71-.24c5-.6,10.38-1.66,14.72-4.38A14.13,14.13,0,0,0,380.21,62a16.22,16.22,0,0,0-3.3-11.86c-6-7.79-16.7-9.7-25.87-7.65a39.56,39.56,0,0,0-3.82,1.1.61.61,0,0,0,.31,1.17,38.86,38.86,0,0,1,14.72-.87,21.65,21.65,0,0,1,11,5.11,15.43,15.43,0,0,1,5.27,9.92,12.62,12.62,0,0,1-3.42,10.33c-3.32,3.26-8.3,4.47-12.74,5.27a72.64,72.64,0,0,1-14.65,1.13c-4.57-.12-9.66-.89-13.41-3.75a11.63,11.63,0,0,1-4.22-10.49c.83-9,9.77-14.51,17.68-16.7,1.15-.32,2.31-.59,3.47-.84.92-.19.55-1.59-.36-1.4Z" transform="translate(-10.75 -24.35)"/><path class="cls-2" d="M284.31,27.92q.4,8.52.73,17c.2,5.68.24,11.36.28,17s-.1,11.36-.22,17c-.06,2.82-.13,5.64-.19,8.46a38.25,38.25,0,0,0-.07,3.86,2.72,2.72,0,0,0,1.68,2.57,4.62,4.62,0,0,0,1.7.09l2.24-.12c1.41-.08,2.84,0,4.25,0l8.48,0c5.7,0,11.39,0,17.09-.05,11.35,0,22.71,0,34.06.09,5.74,0,11.48,0,17.22-.06s11.31,0,17-.12c1.42,0,2.83-.06,4.24,0a.8.8,0,0,0,.69-1.18,7.88,7.88,0,0,1-.51-3.76c.05-1.36.14-2.71.2-4.07.12-2.9.25-5.81.34-8.72.17-5.81.26-11.63.34-17.45s.11-11.63.07-17.45c0-2.95,0-5.91-.09-8.86,0-1.42,0-2.85-.08-4.27a2.8,2.8,0,0,0-1.18-2.5,2.86,2.86,0,0,0-1.69-.16l-2.22.23c-1.44.13-2.89.28-4.33.33-2.89.12-5.78.16-8.67.17-5.81,0-11.62,0-17.43-.07-11.65,0-23.31,0-35,0s-23.4,0-35.09.14l-4.25.05a.94.94,0,0,0,0,1.88c5.79-.07,11.57-.11,17.36-.17s11.57-.18,17.36-.26c11.48-.14,23-.15,34.46-.18s23.05.05,34.56-.49l2-.1,1-.07a3.45,3.45,0,0,1,1.11,0c.38.13.41.62.44,1,.05.67,0,1.35,0,2,0,2.87,0,5.74,0,8.6q0,8.61-.13,17.21c-.08,5.78-.24,11.55-.41,17.33-.08,2.86-.17,5.73-.25,8.59s-.37,5.62-.19,8.39a8.74,8.74,0,0,0,.89,3.48l.68-1.18c-2.82.06-5.65-.05-8.48-.06l-8.36,0c-5.57,0-11.14,0-16.72,0-11.18,0-22.37.14-33.56.19s-22.37,0-33.56.06c-1.37,0-2.74-.06-4.11-.13-.37,0-.89.07-1.09-.3a2.76,2.76,0,0,1-.14-1.25c.05-2.82.14-5.64.17-8.46,0-5.56-.05-11.11-.08-16.67s-.14-11.11-.23-16.67-.18-11.19-.4-16.79l-.18-4.1c0-1.1-1.77-1.11-1.72,0Z" transform="translate(-10.75 -24.35)"/><path class="cls-5" d="M350.85,42.43a37.93,37.93,0,0,0-14,5.41A19.84,19.84,0,0,0,329,58.29a14.77,14.77,0,0,0,1.84,12.32c2.83,4,7.83,5.81,12.53,6.47a61.66,61.66,0,0,0,15.71-.24c5-.6,10.38-1.66,14.72-4.38A14.13,14.13,0,0,0,380.21,62a16.22,16.22,0,0,0-3.3-11.86c-6-7.79-16.7-9.7-25.87-7.65a39.56,39.56,0,0,0-3.82,1.1.61.61,0,0,0,.31,1.17,38.86,38.86,0,0,1,14.72-.87,21.65,21.65,0,0,1,11,5.11,15.43,15.43,0,0,1,5.27,9.92,12.62,12.62,0,0,1-3.42,10.33c-3.32,3.26-8.3,4.47-12.74,5.27a72.64,72.64,0,0,1-14.65,1.13c-4.57-.12-9.66-.89-13.41-3.75a11.63,11.63,0,0,1-4.22-10.49c.83-9,9.77-14.51,17.68-16.7,1.15-.32,2.31-.59,3.47-.84.92-.19.55-1.59-.36-1.4Z" transform="translate(-10.75 -24.35)"/><path class="cls-2" d="M45.29,41.49a38.13,38.13,0,0,0-14,5.42,19.84,19.84,0,0,0-7.85,10.45,14.77,14.77,0,0,0,1.84,12.32c2.83,4,7.83,5.81,12.53,6.47a61.67,61.67,0,0,0,15.71-.24c5-.6,10.38-1.66,14.72-4.38A14.15,14.15,0,0,0,74.65,61a16.2,16.2,0,0,0-3.3-11.86c-6-7.8-16.7-9.7-25.87-7.65a39.56,39.56,0,0,0-3.82,1.1A.6.6,0,0,0,42,43.78c4.79-1.05,9.84-1.69,14.72-.87a21.82,21.82,0,0,1,11,5.11A15.48,15.48,0,0,1,72.94,58a12.62,12.62,0,0,1-3.42,10.33c-3.32,3.25-8.3,4.46-12.74,5.27a72.64,72.64,0,0,1-14.65,1.13c-4.57-.12-9.67-.89-13.41-3.75a11.63,11.63,0,0,1-4.22-10.5c.83-9,9.77-14.5,17.68-16.69,1.15-.32,2.31-.59,3.47-.84.92-.19.55-1.59-.36-1.41Z" transform="translate(-10.75 -24.35)"/><path class="cls-5" d="M78.6,41.49a38.08,38.08,0,0,0-14,5.42,19.86,19.86,0,0,0-7.86,10.45,14.77,14.77,0,0,0,1.85,12.32c2.83,4,7.82,5.81,12.52,6.47a61.74,61.74,0,0,0,15.72-.24c5-.6,10.38-1.66,14.72-4.38A14.15,14.15,0,0,0,108,61a16.17,16.17,0,0,0-3.31-11.86c-6-7.8-16.69-9.7-25.86-7.65A38.76,38.76,0,0,0,75,42.62a.6.6,0,0,0,.3,1.16c4.79-1.05,9.84-1.69,14.72-.87A21.78,21.78,0,0,1,101,48,15.39,15.39,0,0,1,106.25,58a12.64,12.64,0,0,1-3.41,10.33c-3.32,3.25-8.3,4.46-12.74,5.27a72.64,72.64,0,0,1-14.65,1.13c-4.58-.12-9.67-.89-13.41-3.75a11.63,11.63,0,0,1-4.22-10.5c.83-9,9.76-14.5,17.67-16.69,1.15-.32,2.31-.59,3.48-.84.92-.19.55-1.59-.37-1.41Z" transform="translate(-10.75 -24.35)"/><path class="cls-2" d="M12.07,27c.27,5.68.52,11.36.72,17s.25,11.35.29,17-.1,11.36-.23,17q-.09,4.23-.19,8.46a35.51,35.51,0,0,0-.06,3.86A2.68,2.68,0,0,0,14.28,93a4.58,4.58,0,0,0,1.69.1L18.22,93c1.4-.07,2.84,0,4.24,0L31,93c5.69,0,11.39,0,17.09,0,11.35,0,22.7,0,34.05.08,5.74,0,11.48,0,17.22-.06s11.32,0,17-.12c1.41,0,2.82-.06,4.24,0a.8.8,0,0,0,.69-1.18,8,8,0,0,1-.52-3.76c.06-1.36.14-2.71.2-4.07.13-2.9.26-5.81.34-8.72.18-5.82.26-11.63.35-17.45s.11-11.64.07-17.46c0-3,0-5.9-.09-8.85,0-1.42,0-2.85-.09-4.27a2.77,2.77,0,0,0-1.17-2.5,2.79,2.79,0,0,0-1.69-.16l-2.23.23c-1.43.13-2.88.27-4.32.33-2.89.12-5.78.16-8.68.17-5.8,0-11.61-.05-17.42-.07-11.66-.06-23.31,0-35,0s-23.39,0-35.09.14l-4.24.06a.94.94,0,0,0,0,1.87L29,27c5.79-.06,11.58-.18,17.36-.26,11.49-.15,23-.16,34.47-.18s23,0,34.56-.49l2-.11,1-.06a3.52,3.52,0,0,1,1.12,0c.38.13.41.62.44,1,0,.67,0,1.35,0,2,0,2.87,0,5.73,0,8.6,0,5.74-.07,11.47-.14,17.21s-.23,11.55-.4,17.32q-.12,4.31-.26,8.6c-.08,2.78-.37,5.61-.18,8.39a8.77,8.77,0,0,0,.88,3.48l.69-1.18c-2.83.06-5.66,0-8.48-.06l-8.36,0q-8.35,0-16.72,0c-11.19,0-22.37.13-33.56.19s-22.37,0-33.56,0c-1.38,0-2.74,0-4.12-.12-.36,0-.88.07-1.08-.3a2.66,2.66,0,0,1-.14-1.25c0-2.82.14-5.64.16-8.46.05-5.56,0-11.11-.07-16.67s-.15-11.11-.23-16.67S14.19,36.7,14,31.1c-.05-1.36-.11-2.73-.17-4.1,0-1.1-1.77-1.11-1.72,0Z" transform="translate(-10.75 -24.35)"/><g class="cls-1"><path class="cls-2" d="M76.77,42.86a32.94,32.94,0,0,1,16-.41c5.66,1.44,10.9,5.09,13.39,10.37S107.89,65,103.7,69A19,19,0,0,1,96,73.17,61.32,61.32,0,0,1,81.07,75.5c-5,.26-10.17.18-14.87-1.57a19.38,19.38,0,0,1-2.45-1.12A17.72,17.72,0,0,0,70.38,69c4.19-4,4.94-10.93,2.45-16.21a17.85,17.85,0,0,0-5.35-6.51,35.73,35.73,0,0,1,9.26-3.56Z" transform="translate(-10.75 -24.35)"/><path class="cls-3" d="M63.75,72.81A17.72,17.72,0,0,0,70.38,69c4.19-4,4.94-10.93,2.45-16.21a17.85,17.85,0,0,0-5.35-6.51" transform="translate(-10.75 -24.35)"/><path class="cls-4" d="M63.75,72.81a19.38,19.38,0,0,0,2.45,1.12c4.7,1.75,9.86,1.83,14.87,1.57A61.32,61.32,0,0,0,96,73.17,19,19,0,0,0,103.7,69c4.19-4,4.94-10.93,2.45-16.21s-7.73-8.93-13.39-10.37a32.94,32.94,0,0,0-16,.41l-1.28.34" transform="translate(-10.75 -24.35)"/><path class="cls-4" d="M79.15,42.2c-.81.16-1.61.34-2.41.55a35.73,35.73,0,0,0-9.26,3.56" transform="translate(-10.75 -24.35)"/></g><path class="cls-2" d="M64,73.69a19.89,19.89,0,0,0,6.58-3.62,13.33,13.33,0,0,0,3.62-5.43,16.29,16.29,0,0,0-.74-12.75,18.54,18.54,0,0,0-5.27-6.27A1,1,0,1,0,66.79,47a16,16,0,0,1,6.45,10.43A12.75,12.75,0,0,1,70,68.15a16.53,16.53,0,0,1-6.49,3.78c-1.11.38-.65,2.15.45,1.76Z" transform="translate(-10.75 -24.35)"/><path class="cls-5" d="M63.32,73.56c6.11,3.4,13.57,3.22,20.34,2.69a60.06,60.06,0,0,0,10.49-1.62A24.61,24.61,0,0,0,103,70.75c4.55-3.45,6.23-9.62,5-15.08S102.57,45.58,97.5,43.16c-6.94-3.3-15-2.95-22.16-.54a.6.6,0,0,0,.3,1.16c6.23-1.37,12.94-2,19,.26,4.78,1.76,9.28,5.39,11.09,10.27,1.74,4.68,1.09,10.36-2.57,14a18.24,18.24,0,0,1-7.81,4.11,54.75,54.75,0,0,1-9.84,1.86,72,72,0,0,1-10.89.39,25.12,25.12,0,0,1-10.49-2.58.86.86,0,0,0-.85,1.5Z" transform="translate(-10.75 -24.35)"/><path class="cls-5" d="M79,41.49a41.07,41.07,0,0,0-11.9,4.1A.83.83,0,0,0,67.9,47,38.94,38.94,0,0,1,79.33,42.9c.91-.19.54-1.59-.37-1.41Z" transform="translate(-10.75 -24.35)"/><path class="cls-2" d="M316.27,154.58a37.91,37.91,0,0,0-14,5.42,19.86,19.86,0,0,0-7.86,10.45,14.81,14.81,0,0,0,1.85,12.32c2.83,4,7.82,5.81,12.53,6.47A61.67,61.67,0,0,0,324.5,189c5-.6,10.38-1.66,14.72-4.38a14.17,14.17,0,0,0,6.42-10.5,16.17,16.17,0,0,0-3.31-11.86c-6-7.8-16.69-9.7-25.86-7.65a36.9,36.9,0,0,0-3.82,1.1.6.6,0,0,0,.3,1.16c4.79-1.05,9.85-1.69,14.72-.87a21.78,21.78,0,0,1,11,5.11,15.45,15.45,0,0,1,5.28,9.93,12.66,12.66,0,0,1-3.42,10.33c-3.32,3.25-8.3,4.46-12.74,5.27a72.64,72.64,0,0,1-14.65,1.13c-4.58-.12-9.67-.89-13.41-3.75a11.63,11.63,0,0,1-4.22-10.5c.83-9,9.76-14.5,17.67-16.69,1.15-.32,2.31-.59,3.48-.84.92-.19.55-1.59-.37-1.41Z" transform="translate(-10.75 -24.35)"/><path class="cls-5" d="M349.59,154.58a38,38,0,0,0-14,5.42,19.84,19.84,0,0,0-7.85,10.45,14.77,14.77,0,0,0,1.85,12.32c2.83,4,7.82,5.81,12.52,6.47a61.74,61.74,0,0,0,15.72-.24c5-.6,10.38-1.66,14.71-4.38a14.18,14.18,0,0,0,6.43-10.5,16.17,16.17,0,0,0-3.31-11.86c-6-7.8-16.69-9.7-25.86-7.65a35.53,35.53,0,0,0-3.82,1.1.6.6,0,0,0,.3,1.16c4.79-1.05,9.84-1.69,14.72-.87a21.78,21.78,0,0,1,11,5.11,15.43,15.43,0,0,1,5.27,9.93,12.65,12.65,0,0,1-3.41,10.33c-3.33,3.25-8.31,4.46-12.74,5.27a72.64,72.64,0,0,1-14.65,1.13c-4.58-.12-9.67-.89-13.41-3.75a11.64,11.64,0,0,1-4.23-10.5c.83-9,9.77-14.5,17.68-16.69,1.15-.32,2.31-.59,3.48-.84.91-.19.54-1.59-.37-1.41Z" transform="translate(-10.75 -24.35)"/><path class="cls-2" d="M283.06,140.08c.26,5.68.52,11.36.72,17s.24,11.36.28,17-.1,11.36-.22,17c-.06,2.82-.13,5.64-.19,8.46a35.51,35.51,0,0,0-.06,3.86,2.68,2.68,0,0,0,1.67,2.56,4.85,4.85,0,0,0,1.7.1l2.25-.13c1.4-.07,2.83,0,4.24,0l8.48,0q8.55,0,17.09,0c11.36,0,22.71,0,34.06.08,5.74,0,11.48,0,17.22-.06s11.31,0,17-.12c1.41,0,2.82-.06,4.24,0a.79.79,0,0,0,.68-1.18,8,8,0,0,1-.51-3.76c.06-1.36.14-2.71.2-4.07.13-2.91.25-5.81.34-8.72.18-5.82.26-11.63.35-17.45s.1-11.64.07-17.46q0-4.43-.09-8.85c0-1.42,0-2.85-.09-4.27a2.77,2.77,0,0,0-1.17-2.5,2.8,2.8,0,0,0-1.69-.16l-2.23.22c-1.44.14-2.88.28-4.33.34-2.89.12-5.78.16-8.67.17-5.81,0-11.62-.05-17.43-.07-11.65-.06-23.31,0-35,0s-23.39,0-35.09.14l-4.24.06a.94.94,0,0,0,0,1.87l17.36-.16c5.79-.06,11.57-.18,17.36-.26,11.49-.15,23-.16,34.47-.18s23.05,0,34.56-.49l2-.11,1-.06a3.52,3.52,0,0,1,1.12,0c.37.13.41.62.43,1,.06.67,0,1.35,0,2,0,2.87,0,5.73,0,8.6,0,5.74-.06,11.47-.13,17.21s-.24,11.55-.4,17.32c-.09,2.87-.17,5.74-.26,8.6A83.91,83.91,0,0,0,390,202a8.77,8.77,0,0,0,.88,3.48l.69-1.19c-2.83.07-5.66,0-8.49-.05l-8.36,0q-8.35,0-16.71,0c-11.19,0-22.38.13-33.56.19s-22.38,0-33.56,0c-1.38,0-2.74,0-4.12-.12-.36,0-.89.07-1.09-.3a2.8,2.8,0,0,1-.14-1.25c.05-2.82.15-5.64.17-8.46,0-5.56,0-11.11-.07-16.67s-.15-11.11-.24-16.67-.18-11.2-.4-16.79c-.06-1.37-.11-2.73-.17-4.1,0-1.1-1.78-1.12-1.72,0Z" transform="translate(-10.75 -24.35)"/><g class="cls-1"><path class="cls-2" d="M347.76,156a32.94,32.94,0,0,1,16-.41c5.66,1.44,10.9,5.1,13.39,10.38s1.74,12.14-2.46,16.2a19,19,0,0,1-7.74,4.14,60.76,60.76,0,0,1-14.88,2.33c-5,.26-10.17.18-14.87-1.57a18.19,18.19,0,0,1-2.46-1.12h0a17.64,17.64,0,0,0,6.63-3.77c4.19-4.06,4.94-10.93,2.45-16.2a17.73,17.73,0,0,0-5.36-6.52,35.94,35.94,0,0,1,9.27-3.56Z" transform="translate(-10.75 -24.35)"/><path class="cls-3" d="M334.74,185.89a17.64,17.64,0,0,0,6.63-3.77c4.19-4.06,4.94-10.93,2.45-16.2a17.73,17.73,0,0,0-5.36-6.52" transform="translate(-10.75 -24.35)"/><path class="cls-4" d="M334.73,185.9a18.19,18.19,0,0,0,2.46,1.12c4.7,1.75,9.86,1.83,14.87,1.57a60.76,60.76,0,0,0,14.88-2.33,19,19,0,0,0,7.74-4.14c4.2-4.06,4.95-10.93,2.46-16.2s-7.73-8.94-13.39-10.38a32.94,32.94,0,0,0-16,.41l-1.29.34" transform="translate(-10.75 -24.35)"/><path class="cls-4" d="M350.13,155.29c-.8.16-1.6.35-2.4.55a35.94,35.94,0,0,0-9.27,3.56" transform="translate(-10.75 -24.35)"/></g><path class="cls-2" d="M335,186.78a19.89,19.89,0,0,0,6.58-3.62,13.33,13.33,0,0,0,3.62-5.43,16.29,16.29,0,0,0-.74-12.75,18.78,18.78,0,0,0-5.27-6.28,1,1,0,0,0-1.38,0,1,1,0,0,0,0,1.39,16,16,0,0,1,6.45,10.42A12.79,12.79,0,0,1,341,181.24a16.57,16.57,0,0,1-6.5,3.78c-1.1.38-.64,2.15.46,1.76Z" transform="translate(-10.75 -24.35)"/><path class="cls-5" d="M334.3,186.65c6.12,3.4,13.58,3.22,20.35,2.69a59.81,59.81,0,0,0,10.48-1.62,24.61,24.61,0,0,0,8.88-3.88c4.56-3.45,6.24-9.62,5.06-15.08s-5.51-10.09-10.58-12.51c-6.94-3.3-15-2.95-22.17-.54a.6.6,0,0,0,.31,1.16c6.23-1.37,12.93-2,19,.26,4.78,1.75,9.28,5.39,11.09,10.27,1.73,4.68,1.09,10.36-2.57,14a18.24,18.24,0,0,1-7.81,4.11,55.81,55.81,0,0,1-9.84,1.86,72,72,0,0,1-10.89.39,25.08,25.08,0,0,1-10.49-2.58.87.87,0,0,0-.86,1.5Z" transform="translate(-10.75 -24.35)"/><path class="cls-5" d="M350,154.58a41.07,41.07,0,0,0-11.9,4.1.83.83,0,0,0,.83,1.44A39.15,39.15,0,0,1,350.31,156c.92-.19.55-1.59-.36-1.41Z" transform="translate(-10.75 -24.35)"/><g class="cls-1"><path class="cls-2" d="M180.33,156.22a37.39,37.39,0,0,0-12.87,4.85,19.58,19.58,0,0,0-8.4,10.62c-1.28,4.43-.38,9.59,2.85,12.88a14.87,14.87,0,0,0,5.48,3.38c4.7,1.75,9.86,1.83,14.87,1.57a60.84,60.84,0,0,0,14.89-2.33,19.06,19.06,0,0,0,7.74-4.14c4.19-4.05,4.94-10.93,2.45-16.21s-7.73-8.93-13.38-10.36-11.67-.83-17.28.74" transform="translate(-10.75 -24.35)"/><path class="cls-2" d="M180.15,155.52a37.89,37.89,0,0,0-14,5.41,19.88,19.88,0,0,0-7.85,10.45,14.77,14.77,0,0,0,1.84,12.32c2.83,4,7.82,5.8,12.52,6.46a61.28,61.28,0,0,0,15.72-.23c5-.6,10.38-1.66,14.71-4.38a14.18,14.18,0,0,0,6.43-10.5,16.26,16.26,0,0,0-3.31-11.86c-6-7.79-16.69-9.69-25.86-7.64a36.2,36.2,0,0,0-3.82,1.1.59.59,0,0,0,.3,1.15c4.79-1.05,9.84-1.69,14.72-.87a21.78,21.78,0,0,1,11,5.11,15.45,15.45,0,0,1,5.28,9.93,12.65,12.65,0,0,1-3.42,10.34c-3.32,3.25-8.3,4.46-12.74,5.26A71.22,71.22,0,0,1,177,188.7c-4.58-.11-9.67-.89-13.41-3.75a11.61,11.61,0,0,1-4.23-10.49c.83-9,9.77-14.51,17.68-16.7,1.15-.32,2.31-.59,3.48-.84.91-.2.54-1.59-.37-1.4Z" transform="translate(-10.75 -24.35)"/></g><path class="cls-2" d="M146.93,141q.4,8.52.73,17c.2,5.68.24,11.36.28,17s-.1,11.36-.22,17c-.06,2.82-.13,5.64-.19,8.46a38.25,38.25,0,0,0-.07,3.86,2.72,2.72,0,0,0,1.68,2.57,4.62,4.62,0,0,0,1.7.09l2.25-.12c1.4-.08,2.83,0,4.24,0l8.48,0c5.7,0,11.39,0,17.09-.05,11.35,0,22.71,0,34.06.08,5.74,0,11.48,0,17.22-.05s11.31,0,17-.13c1.42,0,2.83-.05,4.25,0a.79.79,0,0,0,.68-1.18,8,8,0,0,1-.51-3.76c.05-1.36.14-2.71.2-4.07.12-2.9.25-5.81.34-8.72.17-5.82.26-11.63.34-17.45s.11-11.64.08-17.45q0-4.44-.09-8.86c0-1.42,0-2.85-.09-4.27a2.27,2.27,0,0,0-2.87-2.66l-2.22.23c-1.44.13-2.88.27-4.33.33-2.89.12-5.78.16-8.67.17-5.81,0-11.62-.05-17.43-.07-11.65-.05-23.31,0-35,0s-23.39,0-35.09.13l-4.25.06a.94.94,0,0,0,0,1.88c5.79-.07,11.57-.11,17.36-.17s11.57-.18,17.36-.26c11.49-.14,23-.16,34.46-.18s23.06,0,34.56-.49l2-.1,1-.07a3.5,3.5,0,0,1,1.12,0c.37.13.4.62.43,1,0,.67,0,1.35,0,2,0,2.87,0,5.74,0,8.6q0,8.61-.13,17.21c-.08,5.78-.24,11.55-.41,17.33-.08,2.86-.16,5.73-.25,8.59s-.37,5.62-.19,8.39a8.91,8.91,0,0,0,.89,3.48l.68-1.18c-2.82.06-5.65-.05-8.48-.06l-8.36,0c-5.57,0-11.14,0-16.71,0-11.19,0-22.38.13-33.56.19s-22.38,0-33.56,0c-1.38,0-2.75,0-4.12-.12-.37,0-.89.07-1.09-.3a2.76,2.76,0,0,1-.14-1.25c0-2.82.15-5.64.17-8.46,0-5.56,0-11.11-.07-16.67s-.15-11.11-.24-16.67-.18-11.19-.4-16.79l-.18-4.1c-.05-1.1-1.77-1.11-1.72,0Z" transform="translate(-10.75 -24.35)"/><path class="cls-2" d="M180.15,155.52a37.89,37.89,0,0,0-14,5.41,19.86,19.86,0,0,0-7.86,10.45,14.77,14.77,0,0,0,1.85,12.32c2.83,4,7.82,5.81,12.52,6.47a61.74,61.74,0,0,0,15.72-.24c5-.6,10.38-1.66,14.72-4.38a14.13,14.13,0,0,0,6.42-10.5,16.17,16.17,0,0,0-3.31-11.86c-6-7.79-16.69-9.7-25.86-7.65a38,38,0,0,0-3.82,1.1.6.6,0,0,0,.3,1.17,38.86,38.86,0,0,1,14.72-.87,21.68,21.68,0,0,1,11,5.1A15.43,15.43,0,0,1,207.8,172a12.64,12.64,0,0,1-3.41,10.33c-3.32,3.25-8.31,4.47-12.74,5.27A72.64,72.64,0,0,1,177,188.7c-4.58-.12-9.67-.89-13.41-3.75a11.59,11.59,0,0,1-4.22-10.49c.82-9,9.76-14.51,17.67-16.7,1.15-.32,2.31-.59,3.48-.84.92-.19.54-1.59-.37-1.4Z" transform="translate(-10.75 -24.35)"/><g class="cls-1"><path class="cls-2" d="M105.79,165.91c2.49,5.28,1.74,12.15-2.45,16.21a19.06,19.06,0,0,1-7.74,4.14,60.84,60.84,0,0,1-14.89,2.33c-5,.26-10.17.18-14.87-1.57a16.92,16.92,0,0,1-2.45-1.12A17.72,17.72,0,0,0,70,182.12c4.19-4.06,4.94-10.93,2.45-16.21a17.74,17.74,0,0,0-5.35-6.5,34,34,0,0,1,8-3.23l0,.11c5.61-1.57,11.62-2.17,17.28-.74S103.31,160.64,105.79,165.91Z" transform="translate(-10.75 -24.35)"/><path class="cls-2" d="M72.47,165.91c2.49,5.28,1.74,12.15-2.45,16.21a17.72,17.72,0,0,1-6.63,3.78,12.67,12.67,0,0,1-3-2.26c-3.23-3.29-4.13-8.45-2.85-12.88a19.58,19.58,0,0,1,8.4-10.62c.4-.26.8-.5,1.21-.73A17.74,17.74,0,0,1,72.47,165.91Z" transform="translate(-10.75 -24.35)"/><path class="cls-2" d="M59.09,155.55a22.06,22.06,0,0,1,8,3.86c-.41.23-.81.47-1.21.73a19.58,19.58,0,0,0-8.4,10.62c-1.28,4.43-.38,9.59,2.85,12.88a12.67,12.67,0,0,0,3,2.26q-.55.19-1.11.36a60.84,60.84,0,0,1-14.88,2.33c-5,.26-10.17.18-14.88-1.57A15,15,0,0,1,27,183.64c-3.23-3.29-4.13-8.45-2.84-12.88a19.52,19.52,0,0,1,8.39-10.62,33.2,33.2,0,0,1,9.19-4l0,.11C47.43,154.72,53.44,154.12,59.09,155.55Z" transform="translate(-10.75 -24.35)"/><path class="cls-3" d="M45.47,155.29c-1.24.25-2.47.54-3.69.89a33.2,33.2,0,0,0-9.19,4,19.52,19.52,0,0,0-8.39,10.62c-1.29,4.43-.39,9.59,2.84,12.88A15,15,0,0,0,32.52,187c4.71,1.75,9.86,1.83,14.88,1.57a60.84,60.84,0,0,0,14.88-2.33q.55-.16,1.11-.36A17.72,17.72,0,0,0,70,182.12c4.19-4.06,4.94-10.93,2.45-16.21a17.74,17.74,0,0,0-5.35-6.5,22.06,22.06,0,0,0-8-3.86c-5.65-1.43-11.66-.83-17.28.74" transform="translate(-10.75 -24.35)"/><path class="cls-4" d="M78.78,155.29c-1.23.25-2.46.54-3.68.89a34,34,0,0,0-8,3.23c-.41.23-.81.47-1.21.73a19.58,19.58,0,0,0-8.4,10.62c-1.28,4.43-.38,9.59,2.85,12.88a12.67,12.67,0,0,0,3,2.26A16.92,16.92,0,0,0,65.84,187c4.7,1.75,9.86,1.83,14.87,1.57a60.84,60.84,0,0,0,14.89-2.33,19.06,19.06,0,0,0,7.74-4.14c4.19-4.06,4.94-10.93,2.45-16.21S98.06,157,92.41,155.55s-11.67-.83-17.28.74" transform="translate(-10.75 -24.35)"/></g><path class="cls-2" d="M12.07,140.08c.27,5.68.52,11.36.72,17s.25,11.36.29,17-.1,11.36-.23,17q-.09,4.23-.19,8.46a35.51,35.51,0,0,0-.06,3.86,2.68,2.68,0,0,0,1.68,2.56,4.81,4.81,0,0,0,1.69.1l2.25-.13c1.4-.07,2.84,0,4.24,0l8.49,0q8.54,0,17.09,0c11.35,0,22.7,0,34.05.08,5.74,0,11.48,0,17.22-.06s11.32,0,17-.12c1.41,0,2.82-.06,4.24,0a.8.8,0,0,0,.69-1.18,8,8,0,0,1-.52-3.76c.06-1.36.14-2.71.2-4.07.13-2.91.26-5.81.34-8.72.18-5.82.26-11.63.35-17.45s.11-11.64.07-17.46c0-3,0-5.9-.09-8.85,0-1.42,0-2.85-.09-4.27a2.27,2.27,0,0,0-2.86-2.66l-2.23.22c-1.43.14-2.88.28-4.32.34-2.89.12-5.78.16-8.68.17-5.8,0-11.61-.05-17.42-.07-11.66-.06-23.31,0-35,0s-23.39,0-35.09.14l-4.24.06a.94.94,0,0,0,0,1.87L29,140.08c5.79-.06,11.58-.18,17.36-.26,11.49-.15,23-.16,34.47-.18s23,0,34.56-.49l2-.11,1-.06a3.52,3.52,0,0,1,1.12,0c.38.13.41.62.44,1,0,.67,0,1.35,0,2,0,2.87,0,5.73,0,8.6,0,5.74-.07,11.47-.14,17.21s-.23,11.55-.4,17.32q-.12,4.3-.26,8.6c-.08,2.78-.37,5.61-.18,8.39a8.77,8.77,0,0,0,.88,3.48l.69-1.19c-2.83.07-5.66,0-8.48-.05l-8.36,0q-8.35,0-16.72,0c-11.19,0-22.37.13-33.56.19s-22.37,0-33.56,0c-1.38,0-2.74,0-4.12-.12-.36,0-.88.07-1.08-.3a2.66,2.66,0,0,1-.14-1.25c0-2.82.14-5.64.16-8.46.05-5.56,0-11.11-.07-16.67s-.15-11.11-.23-16.67-.18-11.2-.41-16.79c-.05-1.37-.11-2.73-.17-4.1,0-1.1-1.77-1.12-1.72,0Z" transform="translate(-10.75 -24.35)"/><path class="cls-2" d="M45.62,154.58a37.91,37.91,0,0,0-14,5.42,19.86,19.86,0,0,0-7.86,10.45,14.77,14.77,0,0,0,1.85,12.32c2.83,4,7.82,5.81,12.52,6.47A61.74,61.74,0,0,0,53.85,189c5-.6,10.38-1.66,14.72-4.38A14.17,14.17,0,0,0,75,174.12a16.17,16.17,0,0,0-3.31-11.86c-6-7.8-16.69-9.7-25.86-7.65a36.2,36.2,0,0,0-3.82,1.1.6.6,0,0,0,.3,1.16c4.79-1.05,9.85-1.69,14.72-.87a21.78,21.78,0,0,1,11,5.11A15.45,15.45,0,0,1,73.28,171a12.69,12.69,0,0,1-3.42,10.33c-3.32,3.25-8.3,4.46-12.74,5.27a72.64,72.64,0,0,1-14.65,1.13c-4.58-.12-9.67-.89-13.41-3.75a11.63,11.63,0,0,1-4.22-10.5c.83-9,9.76-14.5,17.67-16.69,1.15-.32,2.31-.59,3.48-.84.92-.19.55-1.59-.37-1.41Z" transform="translate(-10.75 -24.35)"/><path class="cls-5" d="M78.94,154.58a38,38,0,0,0-14,5.42,19.84,19.84,0,0,0-7.85,10.45,14.77,14.77,0,0,0,1.85,12.32c2.82,4,7.82,5.81,12.52,6.47A61.74,61.74,0,0,0,87.17,189c5-.6,10.38-1.66,14.71-4.38a14.18,14.18,0,0,0,6.43-10.5A16.21,16.21,0,0,0,105,162.26c-6-7.8-16.69-9.7-25.86-7.65a35.53,35.53,0,0,0-3.82,1.1.6.6,0,0,0,.3,1.16c4.79-1.05,9.84-1.69,14.72-.87a21.82,21.82,0,0,1,11,5.11,15.43,15.43,0,0,1,5.27,9.93,12.65,12.65,0,0,1-3.41,10.33c-3.33,3.25-8.31,4.46-12.74,5.27a72.64,72.64,0,0,1-14.65,1.13c-4.58-.12-9.67-.89-13.41-3.75a11.64,11.64,0,0,1-4.23-10.5c.83-9,9.77-14.5,17.68-16.69,1.15-.32,2.31-.59,3.48-.84.91-.19.54-1.59-.37-1.41Z" transform="translate(-10.75 -24.35)"/><path class="cls-2" d="M182,263.45a38.08,38.08,0,0,0-14,5.42,19.86,19.86,0,0,0-7.86,10.45A14.77,14.77,0,0,0,162,291.64c2.83,4,7.82,5.81,12.52,6.47a61.74,61.74,0,0,0,15.72-.24c5-.6,10.38-1.66,14.72-4.38a14.15,14.15,0,0,0,6.42-10.5,16.17,16.17,0,0,0-3.31-11.86c-6-7.8-16.69-9.7-25.86-7.65a38,38,0,0,0-3.82,1.1.6.6,0,0,0,.3,1.16c4.79-1.05,9.84-1.69,14.72-.87a21.78,21.78,0,0,1,11,5.11,15.39,15.39,0,0,1,5.27,9.93,12.64,12.64,0,0,1-3.41,10.33c-3.32,3.25-8.31,4.46-12.74,5.27a72.64,72.64,0,0,1-14.65,1.13c-4.58-.12-9.67-.89-13.41-3.75a11.6,11.6,0,0,1-4.22-10.5c.82-9,9.76-14.5,17.67-16.69,1.15-.32,2.31-.59,3.48-.84.92-.19.54-1.59-.37-1.41Z" transform="translate(-10.75 -24.35)"/><path class="cls-5" d="M215.33,263.45a38.13,38.13,0,0,0-14,5.42,19.84,19.84,0,0,0-7.85,10.45,14.77,14.77,0,0,0,1.84,12.32c2.83,4,7.83,5.81,12.53,6.47a61.74,61.74,0,0,0,15.72-.24c5-.6,10.38-1.66,14.71-4.38A14.19,14.19,0,0,0,244.7,283a16.21,16.21,0,0,0-3.31-11.86c-6-7.8-16.7-9.7-25.87-7.65a39.56,39.56,0,0,0-3.82,1.1.6.6,0,0,0,.31,1.16c4.79-1.05,9.84-1.69,14.72-.87a21.82,21.82,0,0,1,11,5.11,15.48,15.48,0,0,1,5.27,9.93,12.64,12.64,0,0,1-3.41,10.33c-3.33,3.25-8.31,4.46-12.74,5.27a72.76,72.76,0,0,1-14.65,1.13c-4.58-.12-9.67-.89-13.42-3.75a11.65,11.65,0,0,1-4.22-10.5c.83-9,9.77-14.5,17.68-16.69,1.15-.32,2.31-.59,3.47-.84.92-.19.55-1.59-.36-1.41Z" transform="translate(-10.75 -24.35)"/><path class="cls-2" d="M148.79,249q.41,8.52.73,17c.2,5.68.24,11.35.28,17s-.1,11.36-.22,17c-.06,2.82-.13,5.64-.19,8.46a38.25,38.25,0,0,0-.07,3.86A2.7,2.7,0,0,0,151,315a4.62,4.62,0,0,0,1.7.1l2.25-.13c1.4-.07,2.83,0,4.24,0l8.48,0c5.7,0,11.39,0,17.09,0,11.35-.05,22.71,0,34.06.08,5.74,0,11.48,0,17.22-.06s11.31,0,17-.12c1.42,0,2.83-.06,4.25,0a.79.79,0,0,0,.68-1.18,8,8,0,0,1-.51-3.76c.05-1.36.14-2.71.2-4.07.13-2.9.25-5.81.34-8.72.17-5.82.26-11.63.34-17.45s.11-11.64.08-17.46q0-4.42-.09-8.85c0-1.42,0-2.85-.09-4.27a2.27,2.27,0,0,0-2.87-2.66l-2.22.23c-1.44.13-2.88.27-4.33.33-2.89.12-5.78.16-8.67.17-5.81,0-11.62-.05-17.43-.07-11.65-.06-23.31,0-35,0s-23.39,0-35.09.14l-4.25.06a.94.94,0,0,0,0,1.87l17.36-.16c5.79-.06,11.57-.18,17.36-.26,11.49-.15,23-.16,34.46-.18s23.06,0,34.56-.49l2-.11,1-.06a3.5,3.5,0,0,1,1.12,0c.37.13.4.62.43,1,.05.67,0,1.35,0,2,0,2.87,0,5.73,0,8.6q0,8.61-.13,17.21c-.08,5.77-.24,11.55-.41,17.32q-.12,4.31-.25,8.6c-.09,2.78-.37,5.61-.19,8.39a9,9,0,0,0,.89,3.48l.68-1.18c-2.82.06-5.65,0-8.48-.06l-8.36,0q-8.35,0-16.71,0c-11.19,0-22.38.13-33.56.19s-22.38,0-33.56.05c-1.38,0-2.75-.05-4.12-.12-.37,0-.89.07-1.09-.3a2.8,2.8,0,0,1-.14-1.25c.05-2.82.15-5.64.17-8.46,0-5.56,0-11.11-.07-16.67s-.15-11.11-.24-16.67-.18-11.2-.4-16.79l-.18-4.1c0-1.1-1.77-1.11-1.72,0Z" transform="translate(-10.75 -24.35)"/><g class="cls-1"><path class="cls-2" d="M213.5,264.82a32.93,32.93,0,0,1,16-.4c5.66,1.43,10.9,5.09,13.39,10.37s1.74,12.14-2.45,16.2a19,19,0,0,1-7.75,4.14,60.69,60.69,0,0,1-14.88,2.33c-5,.26-10.17.18-14.88-1.57a18,18,0,0,1-2.45-1.12h0a17.76,17.76,0,0,0,6.64-3.78c4.19-4.06,4.93-10.93,2.45-16.2a17.93,17.93,0,0,0-5.36-6.52,35.8,35.8,0,0,1,9.27-3.56Z" transform="translate(-10.75 -24.35)"/><path class="cls-3" d="M200.47,294.77a17.76,17.76,0,0,0,6.64-3.78c4.19-4.06,4.93-10.93,2.45-16.2a17.93,17.93,0,0,0-5.36-6.52" transform="translate(-10.75 -24.35)"/><path class="cls-4" d="M200.47,294.77a18,18,0,0,0,2.45,1.12c4.71,1.75,9.86,1.83,14.88,1.57a60.69,60.69,0,0,0,14.88-2.33,19,19,0,0,0,7.75-4.14c4.19-4.06,4.93-10.93,2.45-16.2s-7.73-8.94-13.39-10.37a32.93,32.93,0,0,0-16,.4l-1.29.34" transform="translate(-10.75 -24.35)"/><path class="cls-4" d="M215.87,264.16c-.8.16-1.6.35-2.4.55a35.8,35.8,0,0,0-9.27,3.56" transform="translate(-10.75 -24.35)"/></g><path class="cls-2" d="M200.7,295.65a19.89,19.89,0,0,0,6.58-3.62,13.41,13.41,0,0,0,3.61-5.43,16.25,16.25,0,0,0-.73-12.75,18.65,18.65,0,0,0-5.27-6.27,1,1,0,0,0-1.38,0,1,1,0,0,0,0,1.38A16,16,0,0,1,210,279.4a12.78,12.78,0,0,1-3.24,10.71,16.46,16.46,0,0,1-6.49,3.78c-1.1.38-.64,2.15.46,1.76Z" transform="translate(-10.75 -24.35)"/><path class="cls-5" d="M200,295.52c6.12,3.4,13.58,3.22,20.35,2.69a59.81,59.81,0,0,0,10.48-1.62,24.61,24.61,0,0,0,8.88-3.88c4.56-3.45,6.23-9.62,5.06-15.08-1.21-5.61-5.51-10.09-10.59-12.51-6.94-3.3-15-2.95-22.16-.54a.6.6,0,0,0,.31,1.16c6.22-1.37,12.93-2,19,.26,4.78,1.76,9.28,5.39,11.09,10.27,1.73,4.68,1.08,10.36-2.57,14a18.21,18.21,0,0,1-7.82,4.11,54.64,54.64,0,0,1-9.83,1.86,72,72,0,0,1-10.89.39A25,25,0,0,1,200.9,294a.87.87,0,0,0-.86,1.5Z" transform="translate(-10.75 -24.35)"/><path class="cls-5" d="M215.69,263.45a41,41,0,0,0-11.9,4.1.83.83,0,0,0,.83,1.44,39.15,39.15,0,0,1,11.43-4.13c.92-.19.55-1.59-.36-1.41Z" transform="translate(-10.75 -24.35)"/><path class="cls-2" d="M317.53,264.39a37.82,37.82,0,0,0-14,5.41,19.81,19.81,0,0,0-7.86,10.45,14.77,14.77,0,0,0,1.85,12.32c2.83,4,7.82,5.81,12.52,6.47a61.74,61.74,0,0,0,15.72-.24c5-.6,10.38-1.66,14.71-4.38a14.12,14.12,0,0,0,6.43-10.5,16.17,16.17,0,0,0-3.31-11.86c-6-7.79-16.69-9.7-25.86-7.65a38,38,0,0,0-3.82,1.1.6.6,0,0,0,.3,1.17,38.86,38.86,0,0,1,14.72-.87,21.61,21.61,0,0,1,11,5.11,15.39,15.39,0,0,1,5.27,9.92,12.64,12.64,0,0,1-3.41,10.33c-3.32,3.26-8.31,4.47-12.74,5.27a72.64,72.64,0,0,1-14.65,1.13c-4.58-.12-9.67-.89-13.41-3.75a11.58,11.58,0,0,1-4.22-10.49c.82-9,9.76-14.51,17.67-16.7,1.15-.32,2.31-.59,3.48-.84.91-.19.54-1.59-.37-1.4Z" transform="translate(-10.75 -24.35)"/><path class="cls-5" d="M350.85,264.39a37.93,37.93,0,0,0-14,5.41A19.84,19.84,0,0,0,329,280.25a14.77,14.77,0,0,0,1.84,12.32c2.83,4,7.83,5.81,12.53,6.47a61.66,61.66,0,0,0,15.71-.24c5-.6,10.38-1.66,14.72-4.38a14.13,14.13,0,0,0,6.42-10.5,16.2,16.2,0,0,0-3.3-11.86c-6-7.79-16.7-9.7-25.87-7.65a39.56,39.56,0,0,0-3.82,1.1.61.61,0,0,0,.31,1.17,38.86,38.86,0,0,1,14.72-.87,21.65,21.65,0,0,1,11,5.11,15.43,15.43,0,0,1,5.27,9.92,12.62,12.62,0,0,1-3.42,10.33c-3.32,3.26-8.3,4.47-12.74,5.27a72.64,72.64,0,0,1-14.65,1.13c-4.57-.12-9.66-.89-13.41-3.75a11.63,11.63,0,0,1-4.22-10.49c.83-9,9.77-14.51,17.68-16.7,1.15-.32,2.31-.59,3.47-.84.92-.19.55-1.59-.36-1.4Z" transform="translate(-10.75 -24.35)"/><path class="cls-2" d="M284.31,249.88q.4,8.52.73,17c.2,5.68.24,11.36.28,17s-.1,11.36-.22,17c-.06,2.82-.13,5.64-.19,8.46a38.25,38.25,0,0,0-.07,3.86,2.72,2.72,0,0,0,1.68,2.57,4.62,4.62,0,0,0,1.7.09l2.24-.12c1.41-.08,2.84,0,4.25,0l8.48,0c5.7,0,11.39,0,17.09-.05,11.35,0,22.71,0,34.06.09,5.74,0,11.48,0,17.22-.06s11.31,0,17-.12c1.42,0,2.83-.06,4.24,0a.8.8,0,0,0,.69-1.18,7.88,7.88,0,0,1-.51-3.76c.05-1.36.14-2.71.2-4.07.12-2.9.25-5.81.34-8.72.17-5.81.26-11.63.34-17.45s.11-11.63.07-17.45c0-2.95,0-5.91-.09-8.86,0-1.42,0-2.85-.08-4.27a2.8,2.8,0,0,0-1.18-2.5,2.86,2.86,0,0,0-1.69-.16l-2.22.23c-1.44.13-2.89.28-4.33.33-2.89.12-5.78.16-8.67.17-5.81,0-11.62,0-17.43-.07-11.65,0-23.31,0-35,0s-23.4,0-35.09.14l-4.25,0a.94.94,0,0,0,0,1.88c5.79-.07,11.57-.11,17.36-.17s11.57-.18,17.36-.26c11.48-.14,23-.15,34.46-.18s23.05.05,34.56-.49l2-.1,1-.07a3.45,3.45,0,0,1,1.11,0c.38.13.41.62.44,1,.05.67,0,1.35,0,2,0,2.87,0,5.74,0,8.6q0,8.61-.13,17.21c-.08,5.78-.24,11.55-.41,17.33-.08,2.86-.17,5.73-.25,8.59s-.37,5.62-.19,8.39a8.74,8.74,0,0,0,.89,3.48l.68-1.18c-2.82.06-5.65-.05-8.48-.06l-8.36,0c-5.57,0-11.14,0-16.72,0-11.18,0-22.37.13-33.56.19s-22.37,0-33.56.06c-1.37,0-2.74-.06-4.11-.13-.37,0-.89.07-1.09-.3a2.76,2.76,0,0,1-.14-1.25c.05-2.82.14-5.64.17-8.46,0-5.56-.05-11.11-.08-16.67s-.14-11.11-.23-16.67-.18-11.19-.4-16.79l-.18-4.1c0-1.1-1.77-1.11-1.72,0Z" transform="translate(-10.75 -24.35)"/><path class="cls-5" d="M78.6,263.45a38.08,38.08,0,0,0-14,5.42,19.86,19.86,0,0,0-7.86,10.45,14.77,14.77,0,0,0,1.85,12.32c2.83,4,7.82,5.81,12.52,6.47a61.74,61.74,0,0,0,15.72-.24c5-.6,10.38-1.66,14.72-4.38A14.15,14.15,0,0,0,108,283a16.17,16.17,0,0,0-3.31-11.86c-6-7.8-16.69-9.7-25.86-7.65a38.76,38.76,0,0,0-3.82,1.1.6.6,0,0,0,.3,1.16c4.79-1.05,9.84-1.69,14.72-.87A21.78,21.78,0,0,1,101,270a15.39,15.39,0,0,1,5.27,9.93,12.64,12.64,0,0,1-3.41,10.33c-3.32,3.25-8.3,4.46-12.74,5.27a72.64,72.64,0,0,1-14.65,1.13c-4.58-.12-9.67-.89-13.41-3.75a11.63,11.63,0,0,1-4.22-10.5c.83-9,9.76-14.5,17.67-16.69,1.15-.32,2.31-.59,3.48-.84.92-.19.55-1.59-.37-1.41Z" transform="translate(-10.75 -24.35)"/><path class="cls-2" d="M180.33,155.52a37.89,37.89,0,0,0-14,5.41,19.86,19.86,0,0,0-7.86,10.45,14.77,14.77,0,0,0,1.85,12.32c2.83,4,7.82,5.81,12.52,6.47a61.74,61.74,0,0,0,15.72-.24c5-.6,10.38-1.66,14.72-4.38a14.13,14.13,0,0,0,6.42-10.5,16.17,16.17,0,0,0-3.31-11.86c-6-7.79-16.69-9.7-25.86-7.65a38,38,0,0,0-3.82,1.1.6.6,0,0,0,.3,1.17,38.86,38.86,0,0,1,14.72-.87,21.68,21.68,0,0,1,11,5.1A15.43,15.43,0,0,1,208,172a12.64,12.64,0,0,1-3.41,10.33c-3.32,3.25-8.31,4.47-12.74,5.27a72.64,72.64,0,0,1-14.65,1.13c-4.58-.12-9.67-.89-13.41-3.75a11.59,11.59,0,0,1-4.22-10.49c.82-9,9.76-14.51,17.67-16.7,1.15-.32,2.31-.59,3.48-.84.92-.19.54-1.59-.37-1.4Z" transform="translate(-10.75 -24.35)"/><path class="cls-5" d="M213.65,155.52a37.93,37.93,0,0,0-14,5.41,19.84,19.84,0,0,0-7.85,10.45,14.77,14.77,0,0,0,1.84,12.32c2.83,4,7.83,5.81,12.53,6.47a61.66,61.66,0,0,0,15.71-.24c5-.6,10.39-1.66,14.72-4.38a14.17,14.17,0,0,0,6.43-10.5,16.26,16.26,0,0,0-3.31-11.86c-6-7.79-16.7-9.7-25.87-7.65a39.56,39.56,0,0,0-3.82,1.1.61.61,0,0,0,.31,1.17,38.86,38.86,0,0,1,14.72-.87,21.72,21.72,0,0,1,11,5.1A15.48,15.48,0,0,1,241.3,172a12.62,12.62,0,0,1-3.42,10.33c-3.32,3.25-8.3,4.47-12.73,5.27a72.76,72.76,0,0,1-14.65,1.13c-4.58-.12-9.67-.89-13.42-3.75a11.63,11.63,0,0,1-4.22-10.49c.83-9,9.77-14.51,17.68-16.7,1.15-.32,2.31-.59,3.47-.84.92-.19.55-1.59-.36-1.4Z" transform="translate(-10.75 -24.35)"/><path class="cls-2" d="M317.17,42.43a37.89,37.89,0,0,0-14,5.41,19.86,19.86,0,0,0-7.86,10.45,14.77,14.77,0,0,0,1.85,12.32c2.83,4,7.82,5.81,12.52,6.47a61.74,61.74,0,0,0,15.72-.24c5-.6,10.38-1.66,14.72-4.38A14.13,14.13,0,0,0,346.54,62a16.18,16.18,0,0,0-3.31-11.86c-6-7.79-16.69-9.7-25.86-7.65a38.76,38.76,0,0,0-3.82,1.1.6.6,0,0,0,.3,1.17,38.86,38.86,0,0,1,14.72-.87,21.61,21.61,0,0,1,11,5.11,15.34,15.34,0,0,1,5.27,9.92,12.64,12.64,0,0,1-3.41,10.33c-3.32,3.26-8.3,4.47-12.74,5.27A72.64,72.64,0,0,1,314,75.61c-4.58-.12-9.67-.89-13.41-3.75a11.6,11.6,0,0,1-4.22-10.49c.82-9,9.76-14.51,17.67-16.7,1.15-.32,2.31-.59,3.48-.84.92-.19.54-1.59-.37-1.4Z" transform="translate(-10.75 -24.35)"/><path class="cls-5" d="M350.49,42.43a37.93,37.93,0,0,0-14,5.41,19.84,19.84,0,0,0-7.85,10.45,14.74,14.74,0,0,0,1.85,12.32c2.82,4,7.82,5.81,12.52,6.47a61.74,61.74,0,0,0,15.72-.24c5-.6,10.38-1.66,14.71-4.38A14.15,14.15,0,0,0,379.86,62a16.22,16.22,0,0,0-3.31-11.86c-6-7.79-16.7-9.7-25.86-7.65a39,39,0,0,0-3.83,1.1.61.61,0,0,0,.31,1.17,38.86,38.86,0,0,1,14.72-.87,21.65,21.65,0,0,1,11,5.11,15.39,15.39,0,0,1,5.27,9.92,12.64,12.64,0,0,1-3.41,10.33c-3.33,3.26-8.31,4.47-12.74,5.27a72.7,72.7,0,0,1-14.65,1.13c-4.58-.12-9.67-.89-13.41-3.75a11.61,11.61,0,0,1-4.23-10.49c.83-9,9.77-14.51,17.68-16.7,1.15-.32,2.31-.59,3.47-.84.92-.19.55-1.59-.36-1.4Z" transform="translate(-10.75 -24.35)"/><path class="cls-2" d="M335.86,74.62A19.71,19.71,0,0,0,342.44,71a13.41,13.41,0,0,0,3.61-5.43,16.25,16.25,0,0,0-.73-12.75,18.65,18.65,0,0,0-5.27-6.27,1,1,0,0,0-1.38,0,1,1,0,0,0,0,1.38,16,16,0,0,1,6.45,10.43,12.83,12.83,0,0,1-3.23,10.72,16.55,16.55,0,0,1-6.5,3.77c-1.1.38-.64,2.15.46,1.76Z" transform="translate(-10.75 -24.35)"/><path class="cls-5" d="M335.2,74.49c6.12,3.41,13.58,3.22,20.35,2.69A60.74,60.74,0,0,0,366,75.57a24.81,24.81,0,0,0,8.88-3.89c4.56-3.45,6.23-9.62,5.06-15.08s-5.51-10.09-10.59-12.51c-6.94-3.3-15-3-22.16-.54a.61.61,0,0,0,.31,1.17c6.22-1.38,12.93-2,19,.26,4.78,1.75,9.28,5.38,11.09,10.26,1.73,4.69,1.08,10.37-2.57,14a18.33,18.33,0,0,1-7.81,4.1,54.92,54.92,0,0,1-9.84,1.86,72,72,0,0,1-10.89.39A24.9,24.9,0,0,1,336.06,73a.87.87,0,0,0-.86,1.5Z" transform="translate(-10.75 -24.35)"/><path class="cls-5" d="M350.85,42.43A40.94,40.94,0,0,0,339,46.52a.84.84,0,0,0,.83,1.45,38.88,38.88,0,0,1,11.43-4.14c.92-.19.55-1.59-.36-1.4Z" transform="translate(-10.75 -24.35)"/><path class="cls-5" d="M198.57,109a43.63,43.63,0,0,1,.7-5.22c.09-.47.18-.94.29-1.4.05-.18.09-.35.13-.52a3.57,3.57,0,0,1,.1-.35c-.26-.06-.32,0-.17.07a3.78,3.78,0,0,0,.2.48c0,.13.09.26.13.39.12.34.22.67.31,1,.37,1.33.64,2.67,1.09,4a10.78,10.78,0,0,0,.82,1.91c.32.57.81,1.4,1.5,1.54a.62.62,0,0,0,.77-.59,4.25,4.25,0,0,0-.8-1.64,10,10,0,0,1-.71-1.56c-.42-1.15-.71-2.35-1.11-3.52a17.6,17.6,0,0,0-.68-1.75c-.24-.51-.57-1.16-1.17-1.3s-1,.46-1.07,1c-.15.76-.31,1.52-.45,2.29a49.46,49.46,0,0,0-.64,5.16c0,.49.72.49.76,0Z" transform="translate(-10.75 -24.35)"/><path class="cls-5" d="M199.56,107.56c.39,0,.78.12,1.17.14.19,0,.39,0,.58,0s.3,0,.44,0a2,2,0,0,0,.4-.16.67.67,0,0,0,.13-1,1.4,1.4,0,0,0-.33-.26l-.23-.1a5,5,0,0,0-.74-.25c-.38-.11-.77-.16-1.16-.24a1.08,1.08,0,0,0-.75.1.94.94,0,0,0-.48.73,1,1,0,0,0,.19.74.8.8,0,0,0,.29.26,1.05,1.05,0,0,0,.49.13Z" transform="translate(-10.75 -24.35)"/><path class="cls-5" d="M204.88,99.21a3.83,3.83,0,0,0-1.67,2.6,2.18,2.18,0,0,0,.38,1.36,1.71,1.71,0,0,0,.72.61,1.74,1.74,0,0,0,1,.1,2.3,2.3,0,0,0,.9-.41,3,3,0,0,0,.44-.36,1.7,1.7,0,0,0,.32-.47.58.58,0,0,0,0-.64.58.58,0,0,0-.61-.22,3,3,0,0,0-.49.21l-.34.22-.18.09h0l-.1,0s-.14,0-.16,0,.12,0,0,0h-.17c-.08,0-.07,0,0,0s-.15,0-.18,0,.15.08,0,0l-.14-.08c.1.07.11.09,0,0l0,0,0-.06c-.05-.06,0,0,0,0a.41.41,0,0,0-.07-.11l0-.08c0-.07,0,0,0,0s-.07-.26-.08-.3,0,.13,0,0v-.15s0-.06,0-.09,0,.09,0,0l0-.14s.09-.22,0-.12l.07-.15c.07-.11.14-.22.22-.33l.08-.1.12-.13c.19-.21.4-.4.61-.59a.56.56,0,0,0,0-.79.55.55,0,0,0-.78,0Z" transform="translate(-10.75 -24.35)"/><path class="cls-5" d="M337.15,101.21c.13,1.41.2,2.81.23,4.22,0,.69,0,1.37,0,2s0,1.64.74,1.65.81-1.1.85-1.64.05-1.37.05-2c0-1.41-.07-2.82-.2-4.22a.85.85,0,0,0-1.69,0Z" transform="translate(-10.75 -24.35)"/><path class="cls-5" d="M338.57,101.51a3.68,3.68,0,0,1,1.95.1,1.29,1.29,0,0,1,.86,1.17c-.05,1.22-1.59,1.74-2.59,1.79-.54,0-.54.87,0,.84a4.15,4.15,0,0,1,2.13.43c.5.26.91.69.46,1.22-.89,1.06-2.35,1.09-3.6,1.29-.48.08-.38.74,0,.88a3.82,3.82,0,0,0,2.75-.33,3.51,3.51,0,0,0,2-1.81,1.76,1.76,0,0,0-1-2,4.23,4.23,0,0,0-2.81-.47l.21.81a6.06,6.06,0,0,0,2.4-.78,2.4,2.4,0,0,0,1-2,2.12,2.12,0,0,0-1.26-1.72,4.23,4.23,0,0,0-2.68-.15c-.5.1-.29.84.2.76Z" transform="translate(-10.75 -24.35)"/><path class="cls-5" d="M268.63,62.6a6.06,6.06,0,0,1,0-2.68c0-.08.05-.16.08-.24,0,.08.06-.12.07-.15l.12-.22a.36.36,0,0,0,.07-.1l.05-.07h0a3.32,3.32,0,0,1,.37-.38c-.11.09,0,0,.08-.05s.29-.14.15-.09l.23-.07c.05,0,.23,0,.09,0h.39c-.09,0-.07,0,0,0l.26.07.11,0s-.12-.06,0,0l.25.13.1.06.07,0,0,0,.12.11.17.18.17.18c-.12-.15.05.1.08.15l.12.21s.11.23.1.2.13.4.17.59l.06.33s0,.18,0,.06c0,.06,0,.13,0,.19s.05.37.05.42a1.13,1.13,0,0,0,0,.13c0,.07,0,.13,0,.2a11.12,11.12,0,0,0,.22,1.61.63.63,0,0,0,1.22,0,5.25,5.25,0,0,0-1.52-6,3.11,3.11,0,0,0-2.82-.51,3.48,3.48,0,0,0-2.06,2.19,7.39,7.39,0,0,0,.06,3.82.69.69,0,0,0,1.34-.35Z" transform="translate(-10.75 -24.35)"/><path class="cls-5" d="M128.46,171.51c1.29.11,2.58.18,3.87.23.63,0,1.26,0,1.9,0s1.56.06,2-.61a.66.66,0,0,0,0-.65c-.44-.65-1.26-.58-2-.59h-1.9c-1.29,0-2.58-.06-3.87-.13a.85.85,0,0,0,0,1.7Z" transform="translate(-10.75 -24.35)"/><path class="cls-5" d="M129.9,174.93c1.35.16,2.7.28,4,.38a11.89,11.89,0,0,0,4.08-.07.63.63,0,0,0,0-1.21,15.37,15.37,0,0,0-4.07-.39c-1.35-.06-2.7-.14-4.05-.25a.77.77,0,0,0-.78.77.78.78,0,0,0,.77.77Z" transform="translate(-10.75 -24.35)"/><path class="cls-5" d="M60.32,214.83a19.46,19.46,0,0,0,.64,2.84,4.26,4.26,0,0,0,1.82,2.27,2.84,2.84,0,0,0,2.82.05,3.58,3.58,0,0,0,1.56-2.36,6.11,6.11,0,0,0-.08-3.23c-.18-.54-.49-1.35-1.16-1.36a.71.71,0,0,0-.67.75,4.77,4.77,0,0,0,.06.73c0,.33.07.48.09.75s0,.51,0,.76,0,.51,0,.76,0,0,0,0l0,.18c0,.11,0,.21-.07.32a1.92,1.92,0,0,1-.09.32s0,.07,0,.11.06-.12,0,0-.09.17-.13.26l-.08.13h0a2.29,2.29,0,0,1-.21.23l0,0-.06,0c-.07,0-.27.12-.1.06l-.29.08c.19,0-.13,0-.18,0s0,0,0,0l-.18,0-.15,0c-.13,0,.17.09-.05,0l-.28-.16-.13-.09c.08.06,0,0,0,0l-.27-.25-.08-.09c-.17-.19,0,.08,0,0a2.14,2.14,0,0,1-.2-.32,2.66,2.66,0,0,1-.26-.58,7.94,7.94,0,0,1-.22-.8c-.12-.55-.22-1.12-.35-1.67a.82.82,0,0,0-1-.59.84.84,0,0,0-.59,1Z" transform="translate(-10.75 -24.35)"/><path class="cls-5" d="M129.58,59.35c1.28.11,2.57.18,3.86.23.63,0,1.27.05,1.9,0s1.56.06,2-.61a.64.64,0,0,0,0-.64c-.43-.66-1.26-.58-2-.59h-1.9c-1.29,0-2.58-.05-3.86-.12a.85.85,0,1,0,0,1.69Z" transform="translate(-10.75 -24.35)"/><path class="cls-5" d="M131,62.77c1.35.16,2.7.28,4.06.38a11.83,11.83,0,0,0,4.07-.07.62.62,0,0,0,0-1.2,15.34,15.34,0,0,0-4.06-.39c-1.36-.06-2.71-.15-4.06-.26a.78.78,0,0,0-.77.77.77.77,0,0,0,.76.77Z" transform="translate(-10.75 -24.35)"/><path class="cls-5" d="M128.46,279.45c1.29.1,2.58.18,3.87.22.63,0,1.26.05,1.9.05s1.56,0,2-.62a.64.64,0,0,0,0-.64c-.44-.65-1.26-.57-2-.58h-1.9c-1.29,0-2.58-.06-3.87-.13a.86.86,0,0,0-.85.84.88.88,0,0,0,.84.86Z" transform="translate(-10.75 -24.35)"/><path class="cls-5" d="M129.9,282.87c1.35.15,2.7.28,4,.38a11.82,11.82,0,0,0,4.07-.07.63.63,0,0,0,0-1.2,14.62,14.62,0,0,0-4.07-.39c-1.35-.06-2.7-.15-4.05-.26a.78.78,0,0,0-.78.76.79.79,0,0,0,.77.78Z" transform="translate(-10.75 -24.35)"/><path class="cls-5" d="M198.65,225.48a46,46,0,0,1,.69-5.22c.09-.47.19-.94.3-1.4.05-.18.09-.35.13-.52a3.57,3.57,0,0,1,.1-.35c-.26-.07-.31,0-.17.07s.15.33.2.48.09.26.13.39c.12.34.22.67.32,1,.36,1.33.64,2.67,1.08,4a12.48,12.48,0,0,0,.82,1.91c.32.57.82,1.4,1.5,1.53a.61.61,0,0,0,.76-.58,4.23,4.23,0,0,0-.79-1.64,10.53,10.53,0,0,1-.72-1.56c-.42-1.15-.7-2.35-1.1-3.52a16.29,16.29,0,0,0-.69-1.75c-.24-.51-.56-1.15-1.16-1.3s-1,.46-1.07,1c-.15.76-.31,1.52-.45,2.29a49.46,49.46,0,0,0-.64,5.16c0,.49.72.49.76,0Z" transform="translate(-10.75 -24.35)"/><path class="cls-5" d="M199.64,224.06c.39,0,.78.12,1.17.13a3.64,3.64,0,0,0,.57,0,2.22,2.22,0,0,0,.45,0,2.74,2.74,0,0,0,.4-.15.66.66,0,0,0,.13-1,1.4,1.4,0,0,0-.33-.27l-.23-.1a6.44,6.44,0,0,0-.74-.25,11.33,11.33,0,0,0-1.16-.23,1.08,1.08,0,0,0-.75.09,1,1,0,0,0-.48.73.91.91,0,0,0,.2.73.73.73,0,0,0,.28.27,1.19,1.19,0,0,0,.49.13Z" transform="translate(-10.75 -24.35)"/><path class="cls-5" d="M325,222.39a48.63,48.63,0,0,1,.7-5.23c.09-.47.19-.93.3-1.4,0-.17.09-.35.13-.52s.06-.23.1-.34c-.26-.07-.32-.05-.17.06a2.86,2.86,0,0,0,.2.48l.13.4c.12.33.22.67.32,1,.36,1.32.64,2.67,1.08,4a12.35,12.35,0,0,0,.82,1.91c.32.56.81,1.39,1.5,1.53a.61.61,0,0,0,.76-.58,4.23,4.23,0,0,0-.79-1.64,10,10,0,0,1-.72-1.56c-.42-1.16-.7-2.36-1.1-3.52a18.87,18.87,0,0,0-.69-1.76c-.24-.5-.57-1.15-1.16-1.29s-1,.46-1.07,1c-.15.76-.31,1.52-.45,2.28a47.21,47.21,0,0,0-.64,5.16c0,.49.72.49.75,0Z" transform="translate(-10.75 -24.35)"/><path class="cls-5" d="M326,221c.39,0,.78.12,1.17.14a3.62,3.62,0,0,0,.57,0c.15,0,.31,0,.45-.05a2,2,0,0,0,.4-.16.67.67,0,0,0,.13-1,1.46,1.46,0,0,0-.34-.26l-.23-.1a4.84,4.84,0,0,0-.73-.25c-.38-.11-.78-.16-1.16-.24a1.08,1.08,0,0,0-.75.1.94.94,0,0,0-.48.73,1,1,0,0,0,.19.73.8.8,0,0,0,.29.26.92.92,0,0,0,.49.13Z" transform="translate(-10.75 -24.35)"/><path class="cls-5" d="M331.29,212.62a3.78,3.78,0,0,0-1.66,2.6,2.13,2.13,0,0,0,.37,1.36,1.62,1.62,0,0,0,.72.6,1.83,1.83,0,0,0,1,.11,2.26,2.26,0,0,0,.89-.41,5.07,5.07,0,0,0,.45-.36,1.7,1.7,0,0,0,.32-.47.63.63,0,0,0-.05-.65.6.6,0,0,0-.61-.21,2.68,2.68,0,0,0-.49.21l-.35.22-.18.09c-.07,0-.07,0,0,0l-.1,0s-.14,0-.16,0,.12,0,0,0h-.16c-.08,0-.07,0,0,0s-.14,0-.18,0,.15.08,0,0l-.15-.08q.15.1.06,0l0,0-.06-.07c-.05,0,0,0,0,.06s-.06-.08-.08-.11l0-.08c0-.07,0-.05,0,.05a2,2,0,0,0-.09-.3c0-.12,0,.12,0,0s0-.1,0-.16a.28.28,0,0,0,0-.09q0,.13,0,0a.57.57,0,0,1,0-.14s.08-.23,0-.12a1,1,0,0,1,.07-.15,1.85,1.85,0,0,1,.21-.33c-.06.08.07-.09.09-.1a.69.69,0,0,1,.11-.13c.19-.21.4-.41.61-.6a.56.56,0,0,0,0-.78.57.57,0,0,0-.78,0Z" transform="translate(-10.75 -24.35)"/><path class="cls-5" d="M336.33,222.26a5.83,5.83,0,0,1,0-2.69c0-.07,0-.15.08-.23l.07-.15.12-.22a.61.61,0,0,1,.07-.1l0-.07h0a2.59,2.59,0,0,1,.37-.37c-.11.09,0,0,.08-.05s.29-.15.15-.09a.88.88,0,0,1,.23-.07s.23,0,.09,0H338c-.09,0-.06,0,0,0l.26.07.11,0h0l.24.13.1.07s.15.11.08.05,0,0,0,0l.12.11.18.17.16.19c-.12-.15.06.1.08.14a1.59,1.59,0,0,1,.13.22s.1.23.09.19a5.63,5.63,0,0,1,.17.59,2,2,0,0,1,.06.34s0,.18,0,.05c0,.07,0,.14,0,.2s.05.36.06.42,0,.11,0,.13,0,.13,0,.2a9,9,0,0,0,.22,1.61.63.63,0,0,0,.6.47.65.65,0,0,0,.61-.47,5.24,5.24,0,0,0-1.53-6,3.09,3.09,0,0,0-2.81-.51,3.44,3.44,0,0,0-2.05,2.19,7.25,7.25,0,0,0,.05,3.81.7.7,0,0,0,.84.5.71.71,0,0,0,.5-.84Z" transform="translate(-10.75 -24.35)"/><path class="cls-5" d="M345.4,215.33c.12,1.41.2,2.82.23,4.23,0,.68,0,1.36,0,2,0,.53,0,1.64.74,1.65s.8-1.1.84-1.64,0-1.36,0-2c0-1.41-.07-2.82-.19-4.23a.88.88,0,0,0-.84-.85.85.85,0,0,0-.85.84Z" transform="translate(-10.75 -24.35)"/><path class="cls-5" d="M346.82,215.64a3.59,3.59,0,0,1,1.95.09,1.31,1.31,0,0,1,.86,1.17c-.06,1.22-1.59,1.74-2.59,1.8-.54,0-.55.86,0,.83a4.13,4.13,0,0,1,2.13.43c.51.26.91.69.47,1.22-.89,1.06-2.35,1.11-3.6,1.29-.49.07-.39.75,0,.88a3.9,3.9,0,0,0,2.76-.33,3.55,3.55,0,0,0,2-1.8,1.78,1.78,0,0,0-1-2,4.2,4.2,0,0,0-2.8-.47l.21.81a6,6,0,0,0,2.39-.78,2.4,2.4,0,0,0,1-2A2.12,2.12,0,0,0,349.3,215a4.24,4.24,0,0,0-2.68-.15c-.51.1-.3.84.2.77Z" transform="translate(-10.75 -24.35)"/><path class="cls-5" d="M53.74,107.19a46,46,0,0,1,.69-5.22c.09-.47.19-.94.3-1.4.05-.18.09-.35.13-.52a3.57,3.57,0,0,1,.1-.35c-.26-.07-.31,0-.17.07s.15.33.2.48l.13.39c.12.34.22.67.32,1,.36,1.33.64,2.67,1.08,4a12.48,12.48,0,0,0,.82,1.91c.32.57.81,1.4,1.5,1.53a.61.61,0,0,0,.76-.58,4.23,4.23,0,0,0-.79-1.64,10.53,10.53,0,0,1-.72-1.56c-.42-1.15-.7-2.35-1.1-3.52A16.29,16.29,0,0,0,56.3,100c-.24-.51-.57-1.15-1.16-1.3s-1,.46-1.07,1c-.15.76-.31,1.52-.45,2.29a46.91,46.91,0,0,0-.64,5.16c0,.49.72.49.76,0Z" transform="translate(-10.75 -24.35)"/><path class="cls-5" d="M54.73,105.77c.39,0,.78.12,1.17.13a3.64,3.64,0,0,0,.57,0,3.26,3.26,0,0,0,.45,0,2.74,2.74,0,0,0,.4-.15.66.66,0,0,0,.13-1,1.4,1.4,0,0,0-.33-.27l-.23-.1a7.16,7.16,0,0,0-.74-.25c-.38-.11-.77-.16-1.16-.24a1.14,1.14,0,0,0-.75.1,1,1,0,0,0-.48.73.91.91,0,0,0,.2.73.73.73,0,0,0,.28.27,1.19,1.19,0,0,0,.49.13Z" transform="translate(-10.75 -24.35)"/><path class="cls-5" d="M60.05,97.42a3.81,3.81,0,0,0-1.66,2.6,2.17,2.17,0,0,0,.37,1.36,1.62,1.62,0,0,0,.72.6,1.66,1.66,0,0,0,1,.11,2.26,2.26,0,0,0,.89-.41,3.94,3.94,0,0,0,.45-.36,1.7,1.7,0,0,0,.32-.47.59.59,0,0,0,0-.64.56.56,0,0,0-.61-.21,3,3,0,0,0-.49.2c-.12.07-.22.16-.34.22l-.18.1h0l-.1,0a.47.47,0,0,1-.16,0c.11,0,.12,0,0,0h-.17c-.08,0-.07,0,0,0s-.14,0-.18,0,.16.08,0,0l-.14-.09,0,0,0,0-.06-.06c-.05-.06,0,0,0,0s-.06-.08-.07-.11a.56.56,0,0,1-.05-.08c0-.06,0,0,0,0a2,2,0,0,0-.09-.3c0-.12,0,.13,0,0a.75.75,0,0,1,0-.15v-.09c0,.08,0,.09,0,0a.57.57,0,0,0,0-.14s.08-.22,0-.12a1,1,0,0,1,.07-.15A3,3,0,0,1,60,99c-.06.08.07-.08.09-.1l.11-.13c.19-.21.4-.4.61-.6a.55.55,0,0,0,0-.78.57.57,0,0,0-.78,0Z" transform="translate(-10.75 -24.35)"/><path class="cls-5" d="M65.09,107.06a5.78,5.78,0,0,1,0-2.68,2.25,2.25,0,0,1,.08-.24l.07-.15.12-.22a.86.86,0,0,0,.07-.1l0-.07c0,.05,0,.05,0,0a2.65,2.65,0,0,1,.37-.38c-.11.09,0,0,.08,0s.29-.15.15-.09l.23-.07s.23,0,.09,0h.39c-.09,0-.06,0,0,0l.26.07.11,0s-.11,0,0,0l.24.13.11.06.07,0c-.08-.06,0,0,0,0l.12.11.18.18.16.18c-.12-.15.06.1.09.15l.12.21.09.2a4.48,4.48,0,0,1,.17.59c0,.11,0,.22.07.33s0,.18,0,.06a1.23,1.23,0,0,1,0,.19c0,.12.05.37.06.42s0,.12,0,.13,0,.13,0,.2a8.9,8.9,0,0,0,.22,1.61.63.63,0,0,0,.6.47.65.65,0,0,0,.61-.46,5.24,5.24,0,0,0-1.53-6,3.15,3.15,0,0,0-2.81-.51,3.46,3.46,0,0,0-2,2.19,7.29,7.29,0,0,0,.06,3.82.69.69,0,0,0,.84.49.71.71,0,0,0,.49-.84Z" transform="translate(-10.75 -24.35)"/><path class="cls-5" d="M74.16,100.14c.13,1.4.2,2.81.23,4.22,0,.68,0,1.36,0,2,0,.53,0,1.65.74,1.65s.8-1.1.84-1.64.06-1.36.06-2c0-1.41-.08-2.82-.2-4.22A.87.87,0,0,0,75,99.3a.85.85,0,0,0-.85.84Z" transform="translate(-10.75 -24.35)"/><path class="cls-5" d="M75.58,100.44a3.59,3.59,0,0,1,2,.1,1.28,1.28,0,0,1,.86,1.16c0,1.22-1.59,1.75-2.59,1.8-.54,0-.54.87,0,.84a4.1,4.1,0,0,1,2.13.42c.51.27.92.69.47,1.23-.89,1.05-2.35,1.1-3.6,1.29-.49.07-.39.74,0,.87a3.77,3.77,0,0,0,2.75-.33,3.49,3.49,0,0,0,1.95-1.8,1.77,1.77,0,0,0-1-2,4.32,4.32,0,0,0-2.8-.47l.21.81a6,6,0,0,0,2.4-.78,2.37,2.37,0,0,0,1-2,2.11,2.11,0,0,0-1.25-1.72,4.31,4.31,0,0,0-2.68-.14c-.51.09-.29.84.2.76Z" transform="translate(-10.75 -24.35)"/><path class="cls-5" d="M52.29,218.49a48.12,48.12,0,0,1,.7-5.22c.09-.47.19-.94.3-1.4,0-.18.09-.35.13-.53s.06-.23.1-.34c-.26-.07-.32,0-.17.07a3.15,3.15,0,0,0,.2.47c0,.14.09.27.13.4.12.33.22.67.31,1,.37,1.32.65,2.67,1.09,4a11.45,11.45,0,0,0,.82,1.91c.32.57.81,1.4,1.5,1.53a.61.61,0,0,0,.76-.58,4.23,4.23,0,0,0-.79-1.64,10,10,0,0,1-.72-1.56c-.42-1.15-.7-2.35-1.1-3.52a17.66,17.66,0,0,0-.69-1.75c-.24-.51-.57-1.15-1.16-1.3s-1,.46-1.07,1c-.15.76-.31,1.52-.45,2.29a46.91,46.91,0,0,0-.64,5.16c0,.49.72.48.75,0Z" transform="translate(-10.75 -24.35)"/><path class="cls-5" d="M53.29,217.06a11.32,11.32,0,0,0,1.17.14,3.62,3.62,0,0,0,.57,0,3.26,3.26,0,0,0,.45-.05,2.74,2.74,0,0,0,.4-.15.68.68,0,0,0,.13-1,1.7,1.7,0,0,0-.34-.26l-.23-.1a4.84,4.84,0,0,0-.73-.25c-.38-.11-.78-.16-1.16-.24a1.14,1.14,0,0,0-.75.1.94.94,0,0,0-.48.73,1,1,0,0,0,.19.73.8.8,0,0,0,.29.26.92.92,0,0,0,.49.13Z" transform="translate(-10.75 -24.35)"/><path class="cls-5" d="M70.48,212.37c.12,1.4.19,2.81.22,4.22,0,.68,0,1.36,0,2,0,.53,0,1.65.75,1.65s.79-1.1.84-1.64,0-1.36,0-2c0-1.41-.07-2.82-.2-4.22a.86.86,0,0,0-.84-.85.84.84,0,0,0-.84.84Z" transform="translate(-10.75 -24.35)"/><path class="cls-5" d="M71.9,212.67a3.55,3.55,0,0,1,1.94.1,1.26,1.26,0,0,1,.86,1.16c0,1.22-1.58,1.75-2.59,1.8-.53,0-.54.87,0,.84a4.14,4.14,0,0,1,2.13.42c.51.27.91.69.47,1.23-.89,1.05-2.35,1.1-3.6,1.29-.49.07-.39.74,0,.87a3.86,3.86,0,0,0,2.76-.33,3.47,3.47,0,0,0,1.94-1.8,1.76,1.76,0,0,0-1-2,4.26,4.26,0,0,0-2.8-.47l.21.81a5.91,5.91,0,0,0,2.39-.78,2.38,2.38,0,0,0,1-2,2.12,2.12,0,0,0-1.25-1.72,4.31,4.31,0,0,0-2.68-.14c-.51.09-.3.84.2.76Z" transform="translate(-10.75 -24.35)"/><path class="cls-5" d="M188.6,327.63a48.3,48.3,0,0,1,.7-5.23c.09-.47.19-.93.3-1.4,0-.17.08-.35.13-.52a2.19,2.19,0,0,1,.1-.34c-.26-.07-.32-.05-.17.06a4.78,4.78,0,0,0,.19.48c.05.13.09.27.14.4.11.33.22.67.31,1,.37,1.32.64,2.67,1.09,4a11.45,11.45,0,0,0,.82,1.91c.32.56.81,1.39,1.49,1.53a.62.62,0,0,0,.77-.58,4.25,4.25,0,0,0-.8-1.64,10,10,0,0,1-.71-1.56c-.42-1.16-.71-2.36-1.11-3.52a18.8,18.8,0,0,0-.68-1.76c-.24-.5-.57-1.15-1.16-1.29s-1,.46-1.07,1c-.15.76-.32,1.52-.45,2.28a49.82,49.82,0,0,0-.65,5.16c0,.49.72.49.76,0Z" transform="translate(-10.75 -24.35)"/><path class="cls-5" d="M189.59,326.2c.39.05.78.12,1.18.14a5.37,5.37,0,0,0,.57,0c.15,0,.31,0,.45-.05a2.14,2.14,0,0,0,.39-.16.66.66,0,0,0,.14-1,1.7,1.7,0,0,0-.34-.26l-.23-.11a6.39,6.39,0,0,0-.74-.24c-.37-.11-.77-.16-1.15-.24a1.12,1.12,0,0,0-.76.1,1,1,0,0,0-.28,1.46.73.73,0,0,0,.29.26.91.91,0,0,0,.48.13Z" transform="translate(-10.75 -24.35)"/><path class="cls-5" d="M194.91,317.86a3.85,3.85,0,0,0-1.66,2.6,2.2,2.2,0,0,0,.38,1.36,1.65,1.65,0,0,0,.71.6,1.87,1.87,0,0,0,1,.11,2.33,2.33,0,0,0,.89-.41,5.07,5.07,0,0,0,.45-.36,1.67,1.67,0,0,0,.31-.47.59.59,0,0,0,0-.65.58.58,0,0,0-.6-.21,2.78,2.78,0,0,0-.5.21l-.34.22-.18.09c-.08,0-.07,0,0,0l-.11,0s-.13,0-.16,0H195c-.09,0-.07,0,0,0s-.14,0-.18,0,.15.08,0,0a.64.64,0,0,0-.14-.08c.1.07.11.08.06,0l0,0,0-.07c-.05,0,0,0,0,.06a.41.41,0,0,0-.07-.11s0-.05,0-.08,0,0,0,.05a1.92,1.92,0,0,0-.08-.3c0-.12,0,.12,0,0v-.16s0-.06,0-.09,0,.09,0,0l0-.14s.09-.23,0-.12l.07-.15a2.7,2.7,0,0,1,.22-.33l.08-.1.12-.13c.19-.21.4-.41.61-.6a.55.55,0,0,0,0-.78.57.57,0,0,0-.78,0Z" transform="translate(-10.75 -24.35)"/><path class="cls-5" d="M200,327.5a6,6,0,0,1,0-2.69,2,2,0,0,1,.07-.23c0,.07.06-.13.08-.15a.94.94,0,0,1,.12-.22l.06-.1.05-.07h0a3.15,3.15,0,0,1,.36-.37c-.1.09.05,0,.09-.05s.29-.15.14-.09l.23-.08s.24,0,.1,0h.39c-.09,0-.07,0,0,0l.27.07.11,0s-.12-.05,0,0l.25.13.1.07.07.05,0,0,.12.11.17.17a1.46,1.46,0,0,1,.16.19c-.11-.15.06.1.09.14l.12.21s.11.23.1.2a5.63,5.63,0,0,1,.17.59l.06.34s0,.18,0,.05c0,.07,0,.14,0,.2s.05.36.05.42a1.13,1.13,0,0,0,0,.13c0,.06,0,.13,0,.2a11.31,11.31,0,0,0,.22,1.61.64.64,0,0,0,.61.47.65.65,0,0,0,.6-.47,5.24,5.24,0,0,0-1.52-6,3.09,3.09,0,0,0-2.81-.51,3.45,3.45,0,0,0-2.06,2.19,7.35,7.35,0,0,0,.06,3.81.69.69,0,1,0,1.33-.34Z" transform="translate(-10.75 -24.35)"/><path class="cls-5" d="M209,320.57c.12,1.41.19,2.82.22,4.23,0,.68,0,1.36,0,2s0,1.64.75,1.65.79-1.1.84-1.64,0-1.36,0-2c0-1.41-.07-2.82-.2-4.23a.87.87,0,0,0-.84-.85.85.85,0,0,0-.84.84Z" transform="translate(-10.75 -24.35)"/><path class="cls-5" d="M210.44,320.88a3.58,3.58,0,0,1,1.95.09,1.28,1.28,0,0,1,.86,1.17c-.05,1.22-1.58,1.74-2.59,1.8-.53,0-.54.86,0,.83a4.15,4.15,0,0,1,2.13.43c.51.26.91.69.46,1.22-.88,1.06-2.35,1.11-3.6,1.29-.48.07-.38.75,0,.88a3.88,3.88,0,0,0,2.75-.33,3.52,3.52,0,0,0,1.95-1.8,1.76,1.76,0,0,0-1-2,4.21,4.21,0,0,0-2.8-.47l.21.81a6.07,6.07,0,0,0,2.39-.78,2.4,2.4,0,0,0,1-2,2.12,2.12,0,0,0-1.25-1.72,4.24,4.24,0,0,0-2.68-.15c-.51.1-.3.84.19.77Z" transform="translate(-10.75 -24.35)"/><path class="cls-5" d="M267.29,282.06a18.24,18.24,0,0,0,.64,2.84,4.2,4.2,0,0,0,1.82,2.26,2.8,2.8,0,0,0,2.81.06,3.58,3.58,0,0,0,1.56-2.36,6.11,6.11,0,0,0-.08-3.23c-.18-.53-.49-1.35-1.16-1.36a.73.73,0,0,0-.67.75c0,.11,0,.23,0,.34s0,.21,0,.31,0,.15,0,.08a10.31,10.31,0,0,1,.11,1.51,6.47,6.47,0,0,1-.05.76c0,.11,0,0,0,0l0,.18a3,3,0,0,1-.07.32l-.09.32-.05.11c0,.14.07-.12,0,0s-.08.17-.13.25l-.08.13c0,.08,0,.07,0,0a1.61,1.61,0,0,1-.22.23s-.11.1,0,0,0,0-.06,0-.27.12-.09.06a1.67,1.67,0,0,1-.3.08c.19,0-.13,0-.18,0s0,0,0,0l-.19,0-.15-.05c-.13,0,.17.09-.05,0l-.28-.15-.13-.09c.07.05,0,0,0,0l-.27-.25-.08-.09c-.17-.18.05.08,0,0a3.45,3.45,0,0,1-.2-.32,3.17,3.17,0,0,1-.25-.58,7.27,7.27,0,0,1-.22-.8c-.13-.55-.22-1.12-.35-1.67a.81.81,0,0,0-1.57.41Z" transform="translate(-10.75 -24.35)"/><path class="cls-5" d="M327.1,327.53a48.12,48.12,0,0,1,.7-5.22c.09-.47.19-.94.3-1.4,0-.18.08-.35.13-.53s.06-.23.09-.34c-.25-.07-.31,0-.16.07a4.62,4.62,0,0,0,.19.47c0,.14.09.27.14.4.11.34.22.67.31,1,.37,1.32.64,2.67,1.09,4a11.45,11.45,0,0,0,.82,1.91c.32.57.81,1.4,1.49,1.53a.62.62,0,0,0,.77-.58,4.4,4.4,0,0,0-.8-1.64,10,10,0,0,1-.71-1.56c-.42-1.15-.71-2.35-1.11-3.52a17.6,17.6,0,0,0-.68-1.75c-.24-.51-.57-1.15-1.16-1.3s-1,.46-1.08,1c-.15.76-.31,1.52-.44,2.29a49.48,49.48,0,0,0-.65,5.16c0,.49.72.48.76,0Z" transform="translate(-10.75 -24.35)"/><path class="cls-5" d="M328.09,326.1a11.66,11.66,0,0,0,1.17.14,3.75,3.75,0,0,0,.58,0,3.44,3.44,0,0,0,.45-.05,3.12,3.12,0,0,0,.39-.15.67.67,0,0,0,.14-1.05,1.7,1.7,0,0,0-.34-.26l-.23-.1a5,5,0,0,0-.74-.25c-.37-.11-.77-.16-1.15-.24a1.18,1.18,0,0,0-.76.1,1,1,0,0,0-.48.73,1,1,0,0,0,.2.73.73.73,0,0,0,.29.26.91.91,0,0,0,.48.13Z" transform="translate(-10.75 -24.35)"/><path class="cls-5" d="M345.28,321.41c.13,1.4.2,2.81.23,4.22,0,.68,0,1.36,0,2,0,.53,0,1.65.74,1.66s.8-1.11.84-1.65.06-1.36.06-2c0-1.41-.08-2.82-.2-4.22a.85.85,0,0,0-1.69,0Z" transform="translate(-10.75 -24.35)"/><path class="cls-5" d="M346.7,321.71a3.58,3.58,0,0,1,1.95.1,1.28,1.28,0,0,1,.86,1.16c-.05,1.22-1.59,1.75-2.59,1.8-.54,0-.54.87,0,.84a4.14,4.14,0,0,1,2.13.42c.5.27.91.69.46,1.23-.88,1.05-2.35,1.1-3.6,1.29-.48.07-.39.74,0,.87a3.77,3.77,0,0,0,2.75-.33,3.45,3.45,0,0,0,1.95-1.8,1.76,1.76,0,0,0-1-2,4.35,4.35,0,0,0-2.81-.47l.21.81a5.76,5.76,0,0,0,2.4-.78,2.38,2.38,0,0,0,1-2,2.12,2.12,0,0,0-1.26-1.72,4.3,4.3,0,0,0-2.68-.14c-.5.09-.29.84.2.76Z" transform="translate(-10.75 -24.35)"/><path class="cls-5" d="M336.33,327.4a5.78,5.78,0,0,1,0-2.68,2.25,2.25,0,0,1,.08-.24l.07-.15.12-.22a.61.61,0,0,1,.07-.1l0-.07h0a2.59,2.59,0,0,1,.37-.37c-.11.09,0,0,.08-.05s.29-.15.15-.09l.23-.07s.23,0,.09,0H338c-.09,0-.06,0,0,0l.26.07.11,0s-.11-.05,0,0l.24.13.1.06s.15.11.08.05,0,0,0,0l.12.11.18.17c.05.07.11.13.16.19-.12-.15.06.1.08.15a1.48,1.48,0,0,1,.13.21l.09.2a4.48,4.48,0,0,1,.17.59,1.91,1.91,0,0,1,.06.33s0,.18,0,.06c0,.06,0,.13,0,.19s.05.37.06.42,0,.12,0,.13,0,.13,0,.2a8.9,8.9,0,0,0,.22,1.61.63.63,0,0,0,.6.47.65.65,0,0,0,.61-.46,5.25,5.25,0,0,0-1.53-6,3.12,3.12,0,0,0-2.81-.51,3.46,3.46,0,0,0-2.05,2.19,7.28,7.28,0,0,0,.05,3.82.69.69,0,0,0,1.34-.35Z" transform="translate(-10.75 -24.35)"/><path class="cls-5" d="M265.73,172.44a18.24,18.24,0,0,0,.64,2.84,4.2,4.2,0,0,0,1.82,2.26,2.81,2.81,0,0,0,2.82.06,3.6,3.6,0,0,0,1.55-2.36,6.11,6.11,0,0,0-.08-3.23c-.18-.53-.49-1.34-1.16-1.35a.73.73,0,0,0-.67.74c0,.12,0,.23,0,.34a1.55,1.55,0,0,0,0,.31v.08a10.41,10.41,0,0,1,.11,1.51,6.33,6.33,0,0,1-.05.76c0,.11,0,0,0,0l0,.18a3,3,0,0,1-.07.32l-.09.32a.76.76,0,0,0,0,.11c-.05.14.06-.12,0,0s-.08.17-.13.25a1,1,0,0,1-.08.14c0,.08,0,.06,0,0l-.21.23,0,0c.1-.08,0,0-.06,0s-.27.11-.09.06l-.3.07c.19,0-.13,0-.18,0h0l-.19,0-.15-.05c-.13,0,.17.09,0,0a1.51,1.51,0,0,1-.28-.15l-.14-.09c.08,0,0,0,0,0l-.27-.26-.08-.09c-.17-.18.05.08,0,0a2,2,0,0,1-.2-.31,2.73,2.73,0,0,1-.26-.59,7.27,7.27,0,0,1-.22-.8c-.12-.55-.22-1.11-.35-1.67a.81.81,0,0,0-1.57.41Z" transform="translate(-10.75 -24.35)"/><g class="cls-1"><path class="cls-2" d="M351,43.13A37.44,37.44,0,0,0,338.16,48a19.53,19.53,0,0,0-8.4,10.62c-1.29,4.43-.38,9.59,2.85,12.88a14.71,14.71,0,0,0,5.47,3.38c4.71,1.75,9.86,1.83,14.88,1.57a60.76,60.76,0,0,0,14.88-2.33A18.93,18.93,0,0,0,375.58,70c4.2-4,4.94-10.93,2.46-16.21s-7.74-8.93-13.39-10.36-11.66-.83-17.28.74" transform="translate(-10.75 -24.35)"/><path class="cls-5" d="M350.85,42.43a37.93,37.93,0,0,0-14,5.41A19.88,19.88,0,0,0,329,58.29a14.77,14.77,0,0,0,1.85,12.32c2.82,4,7.82,5.81,12.52,6.46a61.21,61.21,0,0,0,15.71-.23c5-.6,10.38-1.66,14.72-4.38A14.15,14.15,0,0,0,380.21,62,16.19,16.19,0,0,0,376.9,50.1c-6-7.79-16.69-9.69-25.86-7.64a36.9,36.9,0,0,0-3.82,1.1.6.6,0,0,0,.31,1.15c4.79-1.05,9.84-1.69,14.72-.87a21.82,21.82,0,0,1,11,5.11,15.43,15.43,0,0,1,5.27,9.93,12.68,12.68,0,0,1-3.41,10.34c-3.33,3.25-8.31,4.46-12.74,5.27a72.07,72.07,0,0,1-14.66,1.12c-4.57-.11-9.67-.89-13.41-3.75a11.6,11.6,0,0,1-4.22-10.49c.83-9,9.76-14.51,17.67-16.7,1.15-.32,2.32-.59,3.48-.84.91-.19.55-1.59-.36-1.4Z" transform="translate(-10.75 -24.35)"/></g><path class="cls-5" d="M60.91,320.48c.13,1.4.2,2.81.23,4.22,0,.68,0,1.36,0,2,0,.53,0,1.65.74,1.65s.8-1.1.84-1.64.06-1.36.06-2c0-1.41-.08-2.82-.2-4.23a.87.87,0,0,0-.84-.84.85.85,0,0,0-.85.84Z" transform="translate(-10.75 -24.35)"/><path class="cls-5" d="M62.33,320.78a3.59,3.59,0,0,1,2,.09,1.32,1.32,0,0,1,.86,1.17c0,1.22-1.59,1.75-2.59,1.8-.54,0-.54.87,0,.84a4.1,4.1,0,0,1,2.13.42c.51.27.92.69.47,1.23-.89,1.05-2.35,1.1-3.6,1.29-.49.07-.39.74,0,.87a3.82,3.82,0,0,0,2.75-.33,3.49,3.49,0,0,0,1.95-1.8,1.76,1.76,0,0,0-1-2,4.26,4.26,0,0,0-2.8-.47l.21.81a5.86,5.86,0,0,0,2.39-.78,2.35,2.35,0,0,0,1-2,2.11,2.11,0,0,0-1.25-1.72,4.31,4.31,0,0,0-2.68-.14c-.51.09-.29.83.2.76Z" transform="translate(-10.75 -24.35)"/></svg>