<svg id="Layer_1" data-name="Layer 1" xmlns="http://www.w3.org/2000/svg" viewBox="0 0 250.14 179.82"><defs><style>.cls-1{fill:#486afb;}.cls-2{fill:#fd46fc;}</style></defs><path class="cls-1" d="M8.75,51.73a4.75,4.75,0,0,0-4.13-2,4,4,0,0,0-3.85,3c-.32,2,1.67,3.28,3.17,4.18a28.63,28.63,0,0,1,2.58,1.62c.57.43,2,1.35.9,2a4.33,4.33,0,0,1-1.71.4,8.21,8.21,0,0,1-2,.07,3.45,3.45,0,0,1-2.59-1.48.55.55,0,0,0-1,.41c.57,2,2.87,2.65,4.74,2.51a7,7,0,0,0,3.28-.79,2.06,2.06,0,0,0,.92-2.3,5.37,5.37,0,0,0-2.18-2.2c-.83-.58-1.72-1.08-2.59-1.6a5.1,5.1,0,0,1-2.13-1.82A1.85,1.85,0,0,1,3,51.39a3.48,3.48,0,0,1,4.69,1c.42.64,1.49,0,1.06-.61Z"/><path class="cls-1" d="M63.68,89.5A15.39,15.39,0,0,0,65.1,76.83a20.42,20.42,0,0,0-8.28-11A36.67,36.67,0,0,0,42.6,60.63C37,59.65,31,59.08,25.28,60A30.3,30.3,0,0,0,.09,92.18c.4,5.19,2.32,9.95,4.58,14.58s4.76,9,6.05,13.9a23.19,23.19,0,0,1,.72,7.91,38,38,0,0,1-2,8.8c-1.88,5.57-4.4,11-5.24,16.83-.68,4.71-.17,9.92,2.58,13.94,3,4.41,8.11,6.09,13.22,6.67,6,.69,12-.33,17.78-1.84a90.68,90.68,0,0,0,15.53-5.41,37.83,37.83,0,0,0,12.59-9.08c7.37-8.46,9.82-20,8.95-30.94a69.12,69.12,0,0,0-3.66-17.1,64.46,64.46,0,0,0-3.32-7.86c-1.27-2.5-2.88-4.92-3.7-7.61-.7-2.28-.74-5,.85-6.88.56-.69-.41-1.63-1-.94a8.45,8.45,0,0,0-1.6,6.6c.37,2.66,1.71,5,2.92,7.4a74.55,74.55,0,0,1,5.91,15.52c2.74,10.72,3.19,22.58-1.56,32.82a32.11,32.11,0,0,1-9.2,11.8,48.13,48.13,0,0,1-13.43,7.08A96.68,96.68,0,0,1,31,173c-5.44,1-11.4,1.26-16.67-.69a13.23,13.23,0,0,1-6-4.2,15.48,15.48,0,0,1-2.77-6.19c-1.14-5.28.2-10.6,1.94-15.59,1.88-5.38,4.22-10.64,5-16.32a24.41,24.41,0,0,0-.19-8A35.26,35.26,0,0,0,10.14,115c-1.92-4.54-4.47-8.78-6.34-13.34A30.48,30.48,0,0,1,1.5,86.92a28.28,28.28,0,0,1,16-23,31.26,31.26,0,0,1,15.13-2.91,59,59,0,0,1,15.51,2.48,25.89,25.89,0,0,1,12.17,7.62,17.89,17.89,0,0,1,4.27,11.92A12.16,12.16,0,0,1,62.79,89c-.35.57.54,1,.89.49Z"/><path class="cls-1" d="M159.13,58.83c0,3.92,0,7.83,0,11.75s-.11,7.83-.08,11.74c.06,7.75-.08,15.49,0,23.24.21,15.57,0,31.15,0,46.73,0,4.33.09,8.66.1,13s-.11,8.84.06,13.24a.68.68,0,0,0,1.36,0c.13-3.91,0-7.83,0-11.74s0-7.83,0-11.75c0-7.74-.07-15.49-.1-23.24-.06-15.57-.19-31.15-.16-46.72,0-4.33-.08-8.67-.14-13s0-8.83-.08-13.25a.53.53,0,0,0-1.06,0Z"/><path class="cls-1" d="M158.16,58.87c-.59.53-1.16,1.08-1.7,1.65a12,12,0,0,0-.8.94,3.44,3.44,0,0,0-.65,1.13.49.49,0,0,0,.73.54,4.26,4.26,0,0,0,1-.79c.28-.27.55-.55.82-.83.55-.56,1.11-1.1,1.7-1.61a.74.74,0,0,0,0-1,.78.78,0,0,0-1.07,0Z"/><path class="cls-1" d="M159.88,60.55l1.27,1.4c.2.23.41.47.63.69l.34.32a2.52,2.52,0,0,0,.51.34.69.69,0,0,0,1-.94,1.87,1.87,0,0,0-.2-.4c-.13-.17-.25-.34-.38-.5s-.42-.49-.64-.72l-1.26-1.41a.87.87,0,0,0-1.21,0,.85.85,0,0,0,0,1.19Z"/><path class="cls-1" d="M155.71,176.16a9.76,9.76,0,0,0,1.53,2.13,5.37,5.37,0,0,0,2.2,1.51.6.6,0,0,0,.66-.28.59.59,0,0,0-.09-.69c-.11-.14,0,0,0,0l-.16-.21-.2-.2-.43-.42c-.27-.28-.55-.56-.8-.86l-.18-.22c-.1-.12.07.1,0,0l-.09-.12-.33-.47a11.71,11.71,0,0,1-.62-1,.86.86,0,0,0-1.49.86Z"/><path class="cls-1" d="M160.92,179.24c.59-.58,1.21-1.11,1.85-1.64a15.53,15.53,0,0,0,1.83-1.6.58.58,0,0,0,.1-.69.57.57,0,0,0-.64-.26,7.11,7.11,0,0,0-2.31,1.25,19,19,0,0,0-2,1.78.83.83,0,0,0,0,1.19.89.89,0,0,0,1.21,0Z"/><path class="cls-1" d="M156.14,46.26c-.08,1.45-.11,2.9-.07,4.36a12.49,12.49,0,0,0,.51,4.27c.16.39.84.26.91-.13a9.21,9.21,0,0,0,0-2.1c0-.71-.08-1.42-.1-2.14,0-1.42,0-2.85,0-4.28,0-.85-1.27-.81-1.32,0Z"/><path class="cls-1" d="M158,47.52a16,16,0,0,0,.93,6.8c.22.48.94.19,1-.26a29.52,29.52,0,0,0-.13-3.26c-.08-1.1-.11-2.2-.09-3.29s-1.65-1-1.67,0Z"/><path class="cls-1" d="M157.42,46.76a2.71,2.71,0,0,1,4.34-.06,2.26,2.26,0,0,1,.15,2.31,2.42,2.42,0,0,1-.94.91,7.18,7.18,0,0,1-1.3.65.59.59,0,0,0-.16,1.08,9.9,9.9,0,0,0,1.25.51,10,10,0,0,1,1.24.59,16.45,16.45,0,0,1,2.19,1.61c.43.35,1.22-.12.86-.65a7.33,7.33,0,0,0-2.3-2.1,5.72,5.72,0,0,0-2.93-1.07l.41,1a3,3,0,0,1,.87-.52,6.71,6.71,0,0,0,.81-.49A3,3,0,0,0,163,49.16a3.26,3.26,0,0,0-.37-3.18,3.51,3.51,0,0,0-2.91-1.44,3.92,3.92,0,0,0-3,1.68c-.31.43.41,1,.74.54Z"/><path class="cls-1" d="M244.13,58.83c0,3.92,0,7.83,0,11.75s-.11,7.83-.08,11.74c.06,7.75-.08,15.49,0,23.24.21,15.57,0,31.15,0,46.73,0,4.33.09,8.66.1,13s-.11,8.84.06,13.24a.68.68,0,0,0,1.36,0c.13-3.91,0-7.83,0-11.74s0-7.83,0-11.75c0-7.74-.07-15.49-.1-23.24-.06-15.57-.19-31.15-.16-46.72,0-4.33-.08-8.67-.14-13s0-8.83-.08-13.25a.53.53,0,0,0-1.06,0Z"/><path class="cls-1" d="M243.16,58.87c-.59.53-1.16,1.08-1.7,1.65a12,12,0,0,0-.8.94,3.44,3.44,0,0,0-.65,1.13.49.49,0,0,0,.73.54,4.26,4.26,0,0,0,1-.79c.28-.27.55-.55.82-.83.55-.56,1.11-1.1,1.7-1.61a.74.74,0,0,0,0-1,.78.78,0,0,0-1.07,0Z"/><path class="cls-1" d="M244.88,60.55l1.27,1.4c.2.23.41.47.63.69l.34.32a2.52,2.52,0,0,0,.51.34.69.69,0,0,0,1-.94,1.87,1.87,0,0,0-.2-.4c-.13-.17-.25-.34-.38-.5s-.42-.49-.64-.72l-1.26-1.41a.87.87,0,0,0-1.21,0,.85.85,0,0,0,0,1.19Z"/><path class="cls-1" d="M240.71,176.16a9.76,9.76,0,0,0,1.53,2.13,5.37,5.37,0,0,0,2.2,1.51.6.6,0,0,0,.66-.28.59.59,0,0,0-.09-.69c-.11-.14,0,0,0,0l-.16-.21-.2-.2-.43-.42c-.27-.28-.55-.56-.8-.86l-.18-.22c-.1-.12.07.1,0,0l-.09-.12-.33-.47a11.71,11.71,0,0,1-.62-1,.86.86,0,0,0-1.49.86Z"/><path class="cls-1" d="M245.92,179.24c.59-.58,1.21-1.11,1.85-1.64a15.53,15.53,0,0,0,1.83-1.6.58.58,0,0,0,.1-.69.57.57,0,0,0-.64-.26,7.11,7.11,0,0,0-2.31,1.25,19,19,0,0,0-2,1.78.83.83,0,0,0,0,1.19.89.89,0,0,0,1.21,0Z"/><path class="cls-1" d="M241.14,46.26c-.08,1.45-.11,2.9-.07,4.36a12.49,12.49,0,0,0,.51,4.27c.16.39.84.26.91-.13a9.21,9.21,0,0,0,0-2.1c0-.71-.08-1.42-.1-2.14,0-1.42,0-2.85,0-4.28,0-.85-1.27-.81-1.32,0Z"/><path class="cls-1" d="M243,47.52a16,16,0,0,0,.93,6.8c.22.48.94.19,1-.26a29.52,29.52,0,0,0-.13-3.26c-.08-1.1-.11-2.2-.09-3.29s-1.65-1-1.67,0Z"/><path class="cls-1" d="M242.42,46.76a2.71,2.71,0,0,1,4.34-.06,2.26,2.26,0,0,1,.15,2.31,2.42,2.42,0,0,1-.94.91,7.18,7.18,0,0,1-1.3.65.59.59,0,0,0-.16,1.08,9.9,9.9,0,0,0,1.25.51,10,10,0,0,1,1.24.59,16.45,16.45,0,0,1,2.19,1.61c.43.35,1.22-.12.86-.65a7.33,7.33,0,0,0-2.3-2.1,5.72,5.72,0,0,0-2.93-1.07l.41,1a3,3,0,0,1,.87-.52,6.71,6.71,0,0,0,.81-.49A3,3,0,0,0,248,49.16a3.26,3.26,0,0,0-.37-3.18,3.51,3.51,0,0,0-2.91-1.44,3.92,3.92,0,0,0-3,1.68c-.31.43.41,1,.74.54Z"/><path class="cls-2" d="M79.67,117.1c8.32-3,17.42-6.25,26.36-4.3,4.28.93,8.17,3,12.25,4.52A48.4,48.4,0,0,0,131,120.1a40.53,40.53,0,0,0,14.51-1.18.55.55,0,0,0-.26-1.06,62.41,62.41,0,0,1-13.09,1,48,48,0,0,1-12.78-2.39c-4.12-1.38-8-3.44-12.26-4.45a31.22,31.22,0,0,0-13,0,88.69,88.69,0,0,0-14.59,4.46c-.45.17-.28.88.18.71Z"/><path class="cls-2" d="M144.8,117.37c-.62-.51-1.22-1.05-1.86-1.54a4.15,4.15,0,0,0-.34-.24.8.8,0,0,0-.75,0,.61.61,0,0,0-.31.53.79.79,0,0,0,.29.61,9.62,9.62,0,0,0,.92.77l1.08.85a.68.68,0,0,0,.47.19.71.71,0,0,0,.49-.21.68.68,0,0,0,0-.95Z"/><path class="cls-2" d="M143,119.58a22.15,22.15,0,0,0-1.79,3.86.65.65,0,0,0,.3.72.68.68,0,0,0,.79-.12c.25-.31.48-.62.7-1s.34-.58.5-.87l1-1.83a.84.84,0,0,0-.3-1.15.9.9,0,0,0-1.18.34Z"/><path class="cls-2" d="M169.24,118.73a28,28,0,0,1,22.34-6c4.42.75,8.41,2.8,12.54,4.43a48,48,0,0,0,13,3.19,47,47,0,0,0,7.6.16,27.51,27.51,0,0,0,7.53-1.33c.49-.17.51-1-.11-1-2.28.29-4.53.75-6.83,1a45.71,45.71,0,0,1-6.92.16,44.93,44.93,0,0,1-13.59-2.91c-4.2-1.61-8.23-3.71-12.7-4.51a28.59,28.59,0,0,0-11.72.34,28.3,28.3,0,0,0-11.74,5.93c-.4.34.18.89.58.55Z"/><path class="cls-2" d="M231.23,117.17c-.33-.23-.65-.48-1-.69a8.94,8.94,0,0,0-1-.59.48.48,0,0,0-.61.13.47.47,0,0,0,0,.61,11.37,11.37,0,0,0,.83.87c.29.28.61.53.92.78a.8.8,0,0,0,.49.2.73.73,0,0,0,.56-.29.66.66,0,0,0,.15-.5.57.57,0,0,0-.08-.26.72.72,0,0,0-.26-.26Z"/><path class="cls-2" d="M230.24,119.5l-.09.22a.69.69,0,0,0-.05.13c0,.11.06-.14,0,0a4.54,4.54,0,0,1-.21.45,7.37,7.37,0,0,1-.48.87c-.34.55-.72,1.1-1,1.68a.62.62,0,0,0,.1.75.63.63,0,0,0,.75.08,5.13,5.13,0,0,0,1.64-1.7,12.3,12.3,0,0,0,1-2,.82.82,0,0,0-.59-1,.9.9,0,0,0-1.06.61Z"/><path class="cls-2" d="M113.88,94.85c-1.18,1.76-2.3,3.57-3.31,5.44-.5.92-1,1.85-1.43,2.79a13,13,0,0,0-1.25,2.87.34.34,0,0,0,.63.25,8.51,8.51,0,0,0,.76-1.43c.24-.48.48-1,.73-1.44q.69-1.35,1.44-2.67c1-1.82,2.12-3.6,3.29-5.34.36-.54-.51-1-.86-.47Z"/><path class="cls-2" d="M109.66,99.14c-.44-.65-.89-1.3-1.34-1.94a16.74,16.74,0,0,0-1.49-2,.56.56,0,0,0-.72,0,.54.54,0,0,0-.15.69,14.4,14.4,0,0,0,1.2,2c.42.65.86,1.29,1.29,1.93a.71.71,0,0,0,1,.24.69.69,0,0,0,.26-.94Z"/><path class="cls-2" d="M206.47,100.62a3.12,3.12,0,0,0-4.39,2.57.51.51,0,0,0,.38.5,4.58,4.58,0,0,0,3.39.17,2.16,2.16,0,0,0,1.3-2.2l-.74.2c.28.91.47,1.86.71,2.78s.47,1.86.69,2.79c0,.16.14.4.08.55s-.17.13-.32.15a12.35,12.35,0,0,1-1.36,0c-1,0-1.93-.19-2.9-.26-.55,0-.61.73-.14.9a9,9,0,0,0,3.31.4c.83,0,2.21,0,2.32-1.11a4.26,4.26,0,0,0-.29-1.45l-.45-1.64c-.3-1.11-.66-2.22-.91-3.34a.38.38,0,0,0-.75.1,1.36,1.36,0,0,1-1.17,1.29,4.72,4.72,0,0,1-2.48-.37l.38.5a2,2,0,0,1,2.81-1.66c.58.3,1.12-.6.53-.9Z"/><path class="cls-2" d="M59.86,55.76A127.66,127.66,0,0,1,86.51,34.11a100.8,100.8,0,0,1,32.12-12.65,142.26,142.26,0,0,1,20.26-2.37q8.76-.48,17.54-.19a159.13,159.13,0,0,1,34.95,4.86,119.71,119.71,0,0,1,32.1,13.58c1.24.75,2.46,1.53,3.68,2.33.44.29.85-.41.42-.72a107.07,107.07,0,0,0-31.73-15,154.37,154.37,0,0,0-35-5.89,180.38,180.38,0,0,0-37.52,1.51,101.61,101.61,0,0,0-33.65,11.5A121.74,121.74,0,0,0,62.09,52c-1,1-2,2-3,3.07a.51.51,0,0,0,.73.7Z"/><path class="cls-2" d="M227.53,38.21a8.15,8.15,0,0,0-.26-1.63c-.07-.24-.16-.48-.25-.72a3.43,3.43,0,0,0-.19-.44,1.1,1.1,0,0,0-.43-.4.55.55,0,0,0-.78.33,1,1,0,0,0-.05.41,2.21,2.21,0,0,0,.11.46,5.71,5.71,0,0,1,.19.71c0,.23.1.46.14.7a.88.88,0,0,1,0,.17s0,.07,0,.1,0-.11,0-.06l0,.38a.72.72,0,0,0,.72.72.76.76,0,0,0,.74-.73Z"/><path class="cls-2" d="M226.06,38.74a8.08,8.08,0,0,0-1.95.3,3.49,3.49,0,0,0-1.81,1,.64.64,0,0,0-.14.67.59.59,0,0,0,.57.38,3.83,3.83,0,0,0,1-.2q.4-.13.81-.24a5.84,5.84,0,0,1,.83-.18l.11,0c-.12,0-.14,0,0,0l.17,0a3.71,3.71,0,0,1,.47,0,.9.9,0,0,0,.88-.86.83.83,0,0,0-.85-.83Z"/><path class="cls-2" d="M131.64,5.81a1.71,1.71,0,0,0-2.38-.54,2.88,2.88,0,0,0-1,2.93c.15.92.8,2,1.86,1.85s2-1.41,2.38-2.36h-.76c.24.85.46,1.7.7,2.55.12.43.25.85.37,1.28a3.15,3.15,0,0,1,.21,1.21A1.58,1.58,0,0,1,131.71,14a9.29,9.29,0,0,1-2.47-.06.47.47,0,0,0-.14.91c1.55.54,3.91.32,4.6-1.43a4.21,4.21,0,0,0-.29-2.7c-.31-1.06-.65-2.12-.95-3.18a.4.4,0,0,0-.77,0c-.25.59-.87,1.53-1.58,1.62-.53.06-.8-.67-.87-1.08a2.19,2.19,0,0,1,.37-1.79.76.76,0,0,1,1.2,0c.29.53,1.1.06.83-.48Z"/><path class="cls-2" d="M138,1c-1,3.4-.77,7.57,1.32,10.54a.5.5,0,0,0,.86-.5,17.73,17.73,0,0,1-1.36-4.79,12.67,12.67,0,0,1,.41-4.94c.22-.8-1-1.08-1.23-.31Z"/><path class="cls-2" d="M147.84,2.21a30,30,0,0,1-1.25,4.28c-.25.7-.53,1.39-.83,2.08a11.33,11.33,0,0,0-.85,2,.33.33,0,0,0,.56.31,7,7,0,0,0,1.28-1.94c.35-.65.66-1.33.95-2a25.19,25.19,0,0,0,1.37-4.4.63.63,0,0,0-1.23-.31Z"/><path class="cls-2" d="M145.72,5.88c-.44-.56-.88-1.13-1.33-1.68S143.5,3.08,143,2.57c-.29-.29-.82.1-.6.46a20.17,20.17,0,0,0,1.27,1.76c.45.6.92,1.18,1.38,1.77a.48.48,0,0,0,.67,0,.47.47,0,0,0,0-.66Z"/><path class="cls-2" d="M150.72.88A9.18,9.18,0,0,1,153,6,10,10,0,0,1,153,8.74a19.52,19.52,0,0,1-.78,2.71c-.19.58.61.79.91.36a8.67,8.67,0,0,0,1-6.07A10.45,10.45,0,0,0,151.45.15c-.44-.47-1.17.25-.73.73Z"/></svg>