<svg id="Layer_1" data-name="Layer 1" xmlns="http://www.w3.org/2000/svg" viewBox="0 0 259.18 135.29"><defs><style>.cls-1{fill:#486afb;}.cls-2{fill:#231f20;}.cls-3{fill:#fd46fc;}</style></defs><path class="cls-1" d="M63.68,45A15.39,15.39,0,0,0,65.1,32.3a20.4,20.4,0,0,0-8.27-11A36.57,36.57,0,0,0,42.61,16.1c-5.66-1-11.63-1.56-17.32-.64A30.34,30.34,0,0,0,.09,47.65c.4,5.19,2.32,10,4.58,14.58s4.76,9,6.06,13.9A23.44,23.44,0,0,1,11.44,84a37.8,37.8,0,0,1-2,8.79c-1.88,5.58-4.4,11-5.24,16.84-.68,4.71-.17,9.92,2.58,13.94,3,4.41,8.12,6.09,13.22,6.68,6,.68,12-.34,17.78-1.85A91.61,91.61,0,0,0,53.29,123,37.86,37.86,0,0,0,65.87,114C73.25,105.5,75.7,94,74.82,83a68.48,68.48,0,0,0-3.66-17.1,62.3,62.3,0,0,0-3.32-7.86c-1.26-2.5-2.87-4.92-3.69-7.61-.7-2.28-.74-4.95.84-6.88.57-.69-.41-1.64-1-1a8.52,8.52,0,0,0-1.6,6.61c.37,2.66,1.71,5.05,2.92,7.4a74.55,74.55,0,0,1,5.91,15.52C74,82.86,74.44,94.72,69.69,105a32.27,32.27,0,0,1-9.2,11.8,48.48,48.48,0,0,1-13.42,7.08A96.79,96.79,0,0,1,31,128.42c-5.44,1-11.4,1.25-16.67-.69a13.2,13.2,0,0,1-5.94-4.2,15.35,15.35,0,0,1-2.77-6.19c-1.14-5.28.19-10.6,1.94-15.59,1.87-5.38,4.22-10.64,5-16.32a24.41,24.41,0,0,0-.18-8,34.43,34.43,0,0,0-2.22-6.94C8.22,66,5.68,61.7,3.8,57.15A30.6,30.6,0,0,1,1.51,42.39a28.19,28.19,0,0,1,16-22.95,31.11,31.11,0,0,1,15.12-2.92A59,59,0,0,1,48.17,19a25.89,25.89,0,0,1,12.17,7.62,17.88,17.88,0,0,1,4.27,11.91,12.17,12.17,0,0,1-1.82,5.95c-.35.57.54,1,.89.49Z"/><path class="cls-2" d="M52.4,112.27c6.31-.93,12.67-1.37,19-1.7s12.92-.47,19.37-.35c12.92.23,25.83.75,38.74,1.22s25.76.55,38.65-.19a188.35,188.35,0,0,0,19-2.11,98.81,98.81,0,0,0,18.18-4.5c10.49-3.8,20.39-9.78,27.71-18.31q1.4-1.65,2.62-3.43a1.76,1.76,0,0,0-.65-2.42,1.91,1.91,0,0,0-2.48.7,52.91,52.91,0,0,1-11,11.19,65,65,0,0,1-14.37,8C195.68,105,183.35,107,171.05,108a321.64,321.64,0,0,1-38.28.37c-12.74-.47-25.46-1.37-38.21-1.61-6.4-.12-12.82-.09-19.22.17s-12.64.89-18.94,1.73c-1.58.22-3.15.44-4.72.69a1.56,1.56,0,0,0-1.13,1.86,1.53,1.53,0,0,0,1.85,1Z"/><path class="cls-3" d="M52.16,111.3a239.35,239.35,0,0,1,38.68-2.24c12.92.17,25.82.83,38.73,1.32a386.23,386.23,0,0,0,38.65-.14c12.42-.78,25.09-2.44,36.84-6.69,10.29-3.72,20-9.61,27.12-18,.86-1,1.67-2.08,2.44-3.17.45-.65-.61-1.2-1.05-.58-6.51,9.06-15.83,15.55-26.11,19.68C195.89,106.09,183.4,108,171,109a332.56,332.56,0,0,1-38.28.4c-12.74-.45-25.47-1.25-38.21-1.49a258.66,258.66,0,0,0-38.16,1.75c-1.49.2-3,.41-4.46.64-.65.1-.41,1.07.24,1Z"/><path class="cls-2" d="M61.77,80.72c5.54-.93,11.11-1.61,16.66-2.49s11.09-1.7,16.64-2.48A301.79,301.79,0,0,1,128.22,73a191.47,191.47,0,0,1,33.14,2.25c11,1.61,22,3.76,33.12,4.88A108.56,108.56,0,0,0,226.82,79,24.41,24.41,0,0,0,230.67,78a1.65,1.65,0,0,0-.8-3.2c-2.68.44-5.31,1.13-8,1.53s-5.18.64-7.78.8a115,115,0,0,1-16.18-.21C187,76,176.14,74,165.3,72.18A224.8,224.8,0,0,0,132,68.88a246.29,246.29,0,0,0-33.57,2c-5.66.68-11.28,1.49-16.9,2.41s-11,2.13-16.51,3.13l-4.08.74a1.9,1.9,0,0,0-1.37,2.25,1.85,1.85,0,0,0,2.25,1.27Z"/><path class="cls-3" d="M61.48,79.55c11.09-1.92,22.22-3.73,33.37-5.24a289.53,289.53,0,0,1,33.4-2.71,198.29,198.29,0,0,1,33.45,2.45c10.93,1.65,21.8,3.78,32.81,4.88,10.66,1.06,21.49,1.12,32-1.07,1.31-.27,2.59-.59,3.87-1a.55.55,0,0,0-.27-1.07,94.75,94.75,0,0,1-16.06,2.47A116.51,116.51,0,0,1,197.89,78c-11.06-.87-22-2.92-32.92-4.7a216.71,216.71,0,0,0-33.05-3.12,256.3,256.3,0,0,0-33.57,2.17c-11.1,1.36-22.07,3.32-33.08,5.26l-4.09.72c-.79.14-.49,1.32.3,1.18Z"/><path class="cls-2" d="M54.51,42.64a138.52,138.52,0,0,1,34.42-7.46,181.72,181.72,0,0,1,35.44.73,207.67,207.67,0,0,1,35.33,7.28c11.74,3.46,23.27,7.64,34.63,12.19s22.74,9.72,34,14.73c1.39.62,2.81,1.19,4.21,1.79a1.77,1.77,0,0,0,2.29-.65,1.62,1.62,0,0,0-.59-2.23C223,63.63,211.57,58.66,200,54s-23.24-9.13-35.21-12.7a264.74,264.74,0,0,0-35.72-8.2A169.26,169.26,0,0,0,93,31.3,133.76,133.76,0,0,0,58,37.82c-1.43.49-2.86,1-4.28,1.56a1.8,1.8,0,0,0-1.26,2.08,1.69,1.69,0,0,0,2.08,1.18Z"/><path class="cls-3" d="M54.24,41.56A135.31,135.31,0,0,1,89,34a175.1,175.1,0,0,1,35.53.77A220.77,220.77,0,0,1,160,42.14c11.85,3.44,23.47,7.65,34.92,12.24S217.68,64,229,69.09c1.39.63,2.78,1.23,4.18,1.85.63.28,1.22-.66.57-1C222.38,64.76,211,59.69,199.43,55s-23.06-9.06-34.92-12.65a246.91,246.91,0,0,0-35.74-8.16A175.26,175.26,0,0,0,93,32.49,136.07,136.07,0,0,0,58.26,39c-1.44.48-2.87,1-4.29,1.51-.69.26-.44,1.35.27,1.1Z"/><path class="cls-1" d="M8.76,7.19a4.78,4.78,0,0,0-4.13-2,3.94,3.94,0,0,0-3.86,3c-.32,2,1.67,3.29,3.17,4.19a28.63,28.63,0,0,1,2.58,1.62c.57.43,1.94,1.35.9,2a4.5,4.5,0,0,1-1.7.4,8.84,8.84,0,0,1-2,.07,3.41,3.41,0,0,1-2.58-1.48.55.55,0,0,0-1,.41C.72,17.37,3,18,4.89,17.86a7.13,7.13,0,0,0,3.28-.8,2,2,0,0,0,.92-2.3c-.32-.95-1.39-1.65-2.17-2.2S5.19,11.48,4.32,11A5.19,5.19,0,0,1,2.19,9.13,1.83,1.83,0,0,1,3,6.86a3.48,3.48,0,0,1,4.68.95c.42.64,1.5,0,1.07-.62Z"/><path class="cls-1" d="M244.13,14.3c0,3.92,0,7.83,0,11.75s-.11,7.83-.08,11.74c.06,7.74-.08,15.49,0,23.24.21,15.57,0,31.15,0,46.73,0,4.33.09,8.66.1,13s-.11,8.83.06,13.24a.69.69,0,0,0,1.37,0c.13-3.91,0-7.83,0-11.74s0-7.83,0-11.75c0-7.74-.08-15.49-.11-23.24-.06-15.57-.18-31.15-.15-46.72,0-4.33-.09-8.67-.15-13s0-8.82-.07-13.24a.54.54,0,0,0-1.07,0Z"/><path class="cls-1" d="M243.16,14.34c-.59.52-1.16,1.07-1.7,1.65-.28.3-.55.61-.8.93a3.65,3.65,0,0,0-.65,1.13.5.5,0,0,0,.73.55,4.31,4.31,0,0,0,1-.79c.28-.27.55-.55.82-.83.54-.56,1.11-1.09,1.69-1.61a.74.74,0,0,0,0-1.06.79.79,0,0,0-1.07,0Z"/><path class="cls-1" d="M244.88,16l1.27,1.4c.2.23.41.47.63.69l.34.32a2.78,2.78,0,0,0,.52.35.72.72,0,0,0,.83-.13.92.92,0,0,0,.18-.3.73.73,0,0,0-.06-.52,1.77,1.77,0,0,0-.21-.41l-.38-.49c-.2-.25-.42-.49-.63-.73l-1.27-1.4A.86.86,0,0,0,244.88,16Z"/><path class="cls-1" d="M240.71,131.64a9.65,9.65,0,0,0,1.54,2.12,5.27,5.27,0,0,0,2.19,1.51.62.62,0,0,0,.67-.28.59.59,0,0,0-.09-.69c-.11-.15,0,0,0,0l-.15-.2-.21-.2-.42-.42c-.28-.28-.55-.56-.81-.86l-.18-.22c-.1-.12.08.1,0,0a.44.44,0,0,1-.08-.11c-.12-.15-.22-.31-.33-.47a9.69,9.69,0,0,1-.62-1,.87.87,0,0,0-1.5.87Z"/><path class="cls-1" d="M245.92,134.71c.59-.58,1.21-1.11,1.85-1.64a15.63,15.63,0,0,0,1.84-1.6.59.59,0,0,0,.1-.69.58.58,0,0,0-.65-.26,7.21,7.21,0,0,0-2.31,1.25,20.1,20.1,0,0,0-2,1.77.84.84,0,0,0,0,1.2.88.88,0,0,0,1.21,0Z"/><path class="cls-1" d="M241.14,1.72c-.08,1.46-.11,2.91-.07,4.37a12.49,12.49,0,0,0,.51,4.27c.16.39.84.26.92-.13a8.67,8.67,0,0,0,0-2.1c0-.71-.08-1.42-.1-2.14,0-1.42,0-2.85,0-4.28,0-.85-1.28-.81-1.33,0Z"/><path class="cls-1" d="M243,3a16,16,0,0,0,.93,6.8c.22.49,1,.19,1-.26a27.51,27.51,0,0,0-.13-3.27c-.07-1.09-.11-2.19-.09-3.28S243,1.94,243,3Z"/><path class="cls-1" d="M242.42,2.23a2.73,2.73,0,0,1,4.34-.06,2.24,2.24,0,0,1,.15,2.3,2.38,2.38,0,0,1-.94.92,7.13,7.13,0,0,1-1.3.64.6.6,0,0,0-.16,1.09,7.62,7.62,0,0,0,1.25.51,9.38,9.38,0,0,1,1.24.59,16.45,16.45,0,0,1,2.19,1.61c.43.36,1.22-.12.86-.66a7.16,7.16,0,0,0-2.29-2.09A5.69,5.69,0,0,0,244.83,6l.41,1a3.08,3.08,0,0,1,.86-.52,7.2,7.2,0,0,0,.81-.48A3.18,3.18,0,0,0,248,4.63a3.32,3.32,0,0,0-.37-3.18A3.55,3.55,0,0,0,244.71,0a3.93,3.93,0,0,0-3,1.69c-.32.43.4,1,.73.54Z"/><path class="cls-3" d="M245.54,72.61a2.12,2.12,0,0,0-2.12-1.13,1.79,1.79,0,0,0-1.56,1.78c.09,1.86,3,3,4.29,1.6s0-3.68-1.43-4.54c-1.86-1.12-3.71,1.54-3.3,3.22a2.39,2.39,0,0,0,2.23,1.66,4.65,4.65,0,0,0,1.61-.23,1.93,1.93,0,0,0,1.25-.86c.48-.88-.09-2-.55-2.76a2.75,2.75,0,0,0-2.28-1.51,1.91,1.91,0,0,0-1.35.51,3,3,0,0,0-.7,1.32,2.38,2.38,0,0,0,.55,2.78,3.7,3.7,0,0,0,2.39.58,3.14,3.14,0,0,0,2.43-1c1.15-1.44.3-4-1.34-4.68a2.47,2.47,0,0,0-2.66.52,4.62,4.62,0,0,0-1.39,2.46,2.4,2.4,0,0,0,1.32,2.43,3.86,3.86,0,0,0,3,.1,2.92,2.92,0,0,0,.83-4.78,3.19,3.19,0,0,0-4.63.16,2.74,2.74,0,0,0-.58,2.82,2.86,2.86,0,0,0,2.12,1.56c1.49.36,3.46.19,4.48-1.09a2.69,2.69,0,0,0,.57-2.33,3.14,3.14,0,0,0-1.47-2,3.52,3.52,0,0,0-4.59,1.5,2.43,2.43,0,0,0,.17,2.9,3,3,0,0,0,2.58.64,2.57,2.57,0,0,0,2.16-1.69A2.61,2.61,0,0,0,247,70.1c-1.34-1.57-3.73-1.1-5.2,0a2.74,2.74,0,0,0-1.35,2.51c.16,1.12,1.17,1.51,2.17,1.58a5.34,5.34,0,0,0,3-.53,3,3,0,0,0,1.52-2.24c.22-2-1.91-3.27-3.66-2.88a2.78,2.78,0,0,0-1.78,4c.94,1.74,3.42,1.51,4.83.53a1.92,1.92,0,0,0,.87-1.21,1.67,1.67,0,0,0-.43-1.36,2.4,2.4,0,0,0-2.9-.29,3.2,3.2,0,0,0-1.86,2,2.16,2.16,0,0,0,1.25,2.39,4,4,0,0,0,3,0,2.09,2.09,0,0,0,1.42-2.46,2.86,2.86,0,0,0-4.33-1.72,3,3,0,0,0-1.32,2.37,2.54,2.54,0,0,0,1.55,2.38,3.61,3.61,0,0,0,4.85-2,2.75,2.75,0,0,0-5.1-2,2.42,2.42,0,0,0,.45,2.75,2.5,2.5,0,0,0,2.5.45,3.29,3.29,0,0,0,1.88-2.06,3,3,0,0,0-.25-2.77,2.39,2.39,0,0,0-2.47-.73,4,4,0,0,0-2.37,1.44,2.13,2.13,0,0,0,.38,2.72A3.67,3.67,0,0,0,246.2,74a1.92,1.92,0,0,0,2-1.78,2.77,2.77,0,1,0-5.42.66,2.52,2.52,0,0,0,4.47,1,2.1,2.1,0,0,0-.14-2.49A4.37,4.37,0,0,0,244.92,70a.8.8,0,0,0-1,.55.76.76,0,0,0,.54.92,3.17,3.17,0,0,1,1.21.77.7.7,0,0,1,.21.42c0-.12,0,.18,0,.12a.91.91,0,0,1-.09.23.58.58,0,0,1-.45.25,1,1,0,0,1-.65-.17.67.67,0,0,1-.19-.16s-.15-.18-.09-.09,0-.06,0-.08l-.08-.14c-.05-.12,0,.1,0,0a2.74,2.74,0,0,1-.09-.39c0-.13,0,.1,0,0a.85.85,0,0,1,0-.16,1.36,1.36,0,0,1,0-.24,1.38,1.38,0,0,1,.22-.55.93.93,0,0,1,.71-.42,1.43,1.43,0,0,1,1.56,1.26.85.85,0,0,1-.06.31c.06-.16-.07.06-.08.06a.67.67,0,0,1-.49,0,2.37,2.37,0,0,1-1.32-.8,1,1,0,0,1-.22-.41.68.68,0,0,1,.32-.49,2.69,2.69,0,0,1,1.3-.58.74.74,0,0,1,.88.38,1.9,1.9,0,0,1-.12,1.44A1.59,1.59,0,0,1,246,73a.92.92,0,0,1-1-.26c-.59-.82.46-1.72,1.2-1.64a1.31,1.31,0,0,1,.88,2,2.1,2.1,0,0,1-2.71.53,1.11,1.11,0,0,1-.48-1,1.38,1.38,0,0,1,.68-1,1.16,1.16,0,0,1,1.1,0,1.26,1.26,0,0,1,.76,1,.36.36,0,0,1-.19.35,2,2,0,0,1-.72.23,2.3,2.3,0,0,1-1.53-.16.6.6,0,0,1-.13-.93,2.27,2.27,0,0,1,1.4-.85c.23,0,.77.1.67.37s-.38.29-.54.37a3.16,3.16,0,0,1-.79.25,1.64,1.64,0,0,1-1.31-.21,1.17,1.17,0,0,1-.41-.92,1.13,1.13,0,0,1,.91-1.22,1.56,1.56,0,0,1,.61,0,1.3,1.3,0,0,1,1.05,2,2.18,2.18,0,0,1-1.36.75,4.69,4.69,0,0,1-1.79,0c-.44-.1-.53-.45-.3-.84a3.07,3.07,0,0,1,1.32-1c.86-.43,2.2-.49,2.75.47a1.12,1.12,0,0,1-.05,1.16,1.57,1.57,0,0,1-1.22.4,1.46,1.46,0,0,1-.58-.11.59.59,0,0,1-.4-.38,1.46,1.46,0,0,1,.46-1.27,1.81,1.81,0,0,1,2.36-.4,1.45,1.45,0,0,1,.38,2,2.9,2.9,0,0,1-2.45.56c-.89-.15-2-.58-1.48-1.64a1.15,1.15,0,0,1,.39-.49s.12-.1,0,0l.15-.1.15-.08c.23-.12-.12,0,.13-.06a1.42,1.42,0,0,1,1.11,0,1.6,1.6,0,0,1,.8,2.13,1.44,1.44,0,0,1-1.25.5,1.47,1.47,0,0,1-1.32-.49c-.28-.41,0-.86.22-1.31a2.2,2.2,0,0,1,.89-1,.92.92,0,0,1,1,.35,2.22,2.22,0,0,1,.57,1.27.93.93,0,0,1-.46,1,3.42,3.42,0,0,1-1.49.18,2.55,2.55,0,0,1-.67-.12,1.05,1.05,0,0,1-.42-.27c-.24-.41.05-1.08.23-1.47a1.24,1.24,0,0,1,.17-.27c-.05.06,0,0,0,0s0,0,.05,0a.78.78,0,0,1,.49,0,2.47,2.47,0,0,1,1,1.28c.1.21.12.44.2.65s-.1,0,.05,0a1.69,1.69,0,0,1-.38.13,2.1,2.1,0,0,1-1.65,0c-.42-.27-.34-.74-.16-1.2a2,2,0,0,1,.31-.55l.19-.18a.69.69,0,0,1,.2-.11.7.7,0,0,1,.49.21,6.31,6.31,0,0,1,.71.66,1.55,1.55,0,0,1,.49,1.29c-.19,1-1.79.34-2.19-.2a.59.59,0,0,1,.3-.93,1.24,1.24,0,0,1,1.34.52c.29.37.92,0,.68-.39Z"/><path class="cls-3" d="M249.63,78.25a18.79,18.79,0,0,1,4.85.29,1.82,1.82,0,0,1,.78.27c.25.21,0,.41-.2.57a16.87,16.87,0,0,1-1.59,1.19,8.78,8.78,0,0,0-2.94,2.71,1.32,1.32,0,0,0,.47,1.84,6.54,6.54,0,0,0,2.1.47l2.76.45,1.29.21a3.17,3.17,0,0,0,1.5,0c.4-.13.74-.75.31-1.08a5.12,5.12,0,0,0-2.32-.63l-2.51-.36L252.92,84a5.52,5.52,0,0,0-1.06-.15c-.15,0-.1-.09-.09.07,0-.14.16-.32.24-.43a5.3,5.3,0,0,1,.65-.77c.92-1,2.05-1.66,3-2.57a1.44,1.44,0,0,0,.57-1.53,1.59,1.59,0,0,0-1.2-.83,17.48,17.48,0,0,0-5.4-.25c-.44,0-.48.74,0,.7Z"/><path class="cls-3" d="M250.46,81.8a36.29,36.29,0,0,0,4.17.54c.68.06,1.36.09,2,.11a5.12,5.12,0,0,0,2.17-.22l-.91-.89a.71.71,0,0,0-.15.33.54.54,0,0,0,.37.64,1,1,0,0,0,.52,0,.68.68,0,0,0,.51-.64.66.66,0,0,0-.49-.64,6,6,0,0,0-2-.13c-.65,0-1.31,0-2-.06-1.3-.08-2.59-.23-3.88-.42a.77.77,0,0,0-.89.52.7.7,0,0,0,.5.87Z"/><path class="cls-3" d="M31.83,33.9c-4.65.43-9.53,2.47-11.42,7.06a8.15,8.15,0,0,0,0,6.46,8.58,8.58,0,0,0,4.88,4.2,14.46,14.46,0,0,0,13.77-2.33,12.79,12.79,0,0,0,4.05-5.77c.75-2.2,1-4.89-.24-7-1.33-2.29-4.35-3.3-6.86-3.47a10.38,10.38,0,0,0-7.34,2.24c-.36.31.1.88.5.63A11.48,11.48,0,0,1,35,34.11a8.53,8.53,0,0,1,6,2c1.56,1.57,1.58,4,1.09,6.06a11.71,11.71,0,0,1-3,5.3,13,13,0,0,1-11.93,3.45,8.73,8.73,0,0,1-4.86-2.75,6.5,6.5,0,0,1-1.25-5.53c1.07-5,6.08-7.3,10.74-7.71.66-.06.7-1.09,0-1Z"/><path class="cls-3" d="M38,64A13.34,13.34,0,0,0,26.55,73.7,13.48,13.48,0,0,0,32,88.09c4.64,3.07,11.67,3.17,15.81-.87a14.85,14.85,0,0,0,3.89-8.32,14.5,14.5,0,0,0-1.32-8.77,12.51,12.51,0,0,0-6.56-5.93C41,63.15,37.25,63,35.08,65.28c-.4.43.12,1.2.64.83,4.27-3.09,10-.46,12.64,3.49,3,4.53,2.44,10.78-.46,15.23s-9.27,5.14-13.81,3a12.11,12.11,0,0,1-6.68-12.15A12.39,12.39,0,0,1,38,65c.61-.07.67-1.05,0-1Z"/><path class="cls-3" d="M33.77,102c-4.34-.89-8.5,2.11-10.57,5.75-1.14,2-1.79,4.27-.86,6.49a8.4,8.4,0,0,0,4.85,4.43,21.81,21.81,0,0,0,7.34,1.24,12.49,12.49,0,0,0,7.09-1.62,7.62,7.62,0,0,0,3.58-5.18,8.52,8.52,0,0,0-2-6.15,12.67,12.67,0,0,0-5.41-4.07,10.44,10.44,0,0,0-6.74-.62c-.62.18-.59,1.21.13,1.16a13.62,13.62,0,0,1,5.16.41,11,11,0,0,1,4.42,2.68A9.87,9.87,0,0,1,43.43,111,5.21,5.21,0,0,1,41.89,116a8.77,8.77,0,0,1-5.36,2.27A23.45,23.45,0,0,1,30,118a9.35,9.35,0,0,1-5.45-2.76,5.17,5.17,0,0,1-.91-5.47c1.49-3.82,5.51-7.62,9.89-6.76.66.13,1-.89.29-1Z"/><path class="cls-3" d="M22,42.33q2.77-1.86,5.61-3.63c1.89-1.18,3.83-2.29,5.68-3.53a.3.3,0,1,0-.3-.52c-2,1-3.84,2.27-5.71,3.48s-3.72,2.45-5.56,3.72c-.29.21,0,.68.28.48Z"/><path class="cls-3" d="M22.79,45.53c2.25-1.66,4.55-3.23,6.92-4.71,1.15-.71,2.31-1.41,3.49-2.07s2.55-1.33,3.74-2.13a.36.36,0,0,0-.36-.63,29.66,29.66,0,0,0-3.65,2c-1.19.73-2.37,1.48-3.54,2.24-2.33,1.52-4.63,3.12-6.87,4.78-.28.21,0,.68.27.47Z"/><path class="cls-3" d="M25.17,47.9q3.73-2.28,7.61-4.33C35.35,42.21,38,41,40.53,39.5c.24-.14.09-.58-.2-.47a61.56,61.56,0,0,0-7.79,3.9q-3.86,2.2-7.59,4.6a.22.22,0,1,0,.22.37Z"/><path class="cls-3" d="M30.05,49.1c1.63-1,3.26-1.9,4.92-2.8L37.43,45A26.75,26.75,0,0,0,40,43.6c.26-.18.12-.68-.22-.54a39.73,39.73,0,0,0-4.94,2.74q-2.48,1.46-4.94,3a.2.2,0,1,0,.2.35Z"/><path class="cls-3" d="M29.2,73.13c2.32-1.51,4.76-2.84,7.14-4.24s4.76-2.84,7.06-4.38a.28.28,0,1,0-.29-.49c-2.43,1.32-4.79,2.77-7.14,4.23s-4.66,3-7.07,4.36c-.35.19,0,.74.3.52Z"/><path class="cls-3" d="M29.81,76.91c5-3,10.18-5.72,15.24-8.64a.33.33,0,0,0-.33-.58c-5.25,2.54-10.28,5.59-15.26,8.62a.35.35,0,0,0,.35.6Z"/><path class="cls-3" d="M31.35,80.31c5.36-3.06,10.94-5.65,16.4-8.52.24-.13.09-.53-.17-.43a121.26,121.26,0,0,0-16.49,8.51.26.26,0,0,0,.26.44Z"/><path class="cls-3" d="M33.15,83.26c2.49-1.49,5-2.91,7.6-4.26s5.21-2.57,7.78-3.94c.4-.21.06-.74-.33-.58C45.52,75.61,43,77,40.41,78.41s-5.07,2.84-7.56,4.33a.3.3,0,0,0,.3.52Z"/><path class="cls-3" d="M35.36,86.56c2.69-1.14,5.24-2.56,7.82-3.92s5.21-2.53,7.89-3.68c.34-.15.1-.64-.24-.57a31.36,31.36,0,0,0-8,3.43c-2.6,1.41-5.16,2.88-7.87,4.07-.47.21-.08.87.39.67Z"/><path class="cls-3" d="M25.69,108.89c3.08-1.68,6.19-3.33,9.18-5.16a.33.33,0,1,0-.33-.57c-3.15,1.55-6.2,3.31-9.27,5a.41.41,0,0,0,.42.71Z"/><path class="cls-3" d="M25.27,113.61c2.08-1.23,4.16-2.43,6.26-3.62s4.26-2.28,6.25-3.63a.39.39,0,0,0-.39-.68A67.32,67.32,0,0,0,31,109.13q-3.13,1.8-6.24,3.64a.48.48,0,0,0,.48.84Z"/><path class="cls-3" d="M29.38,116.1c2-1.34,4.1-2.63,6.19-3.88s4.25-2.39,6.33-3.66a.37.37,0,1,0-.37-.63,91.58,91.58,0,0,0-12.61,7.39c-.49.33-.05,1.12.46.78Z"/><path class="cls-3" d="M34.86,117.19l4.1-2.36c1.37-.79,2.75-1.57,4-2.47a.37.37,0,0,0-.37-.65c-1.45.63-2.84,1.4-4.23,2.15l-4.16,2.26a.62.62,0,0,0,.62,1.07Z"/><path class="cls-3" d="M233.8,69.36c-.17-.43-.34-.86-.54-1.28-.09-.18-.18-.37-.28-.55s-.36-.53-.65-.56a.46.46,0,0,0-.49.2,1.15,1.15,0,0,0,.11,1l.29.69-.07-.15.27.65-.06-.16.18.47a.69.69,0,0,0,.29.38.67.67,0,0,0,.48,0,.68.68,0,0,0,.4-.3.64.64,0,0,0,.07-.47Z"/><path class="cls-3" d="M232,70.1l-.86.61-.52.4a1.56,1.56,0,0,0-.2.16l-.09.09a.72.72,0,0,0-.14.2,1,1,0,0,0,0,.24l0,.15a.38.38,0,0,0,.1.2.52.52,0,0,0,.3.2.8.8,0,0,0,.48-.06l.11-.06a1.64,1.64,0,0,0,.22-.14l.43-.31.95-.71a.66.66,0,0,0,.19-.44.58.58,0,0,0-.13-.38.62.62,0,0,0-.81-.15Z"/><path class="cls-3" d="M230,75.42l-.85-.55a2.91,2.91,0,0,0-1-.47.45.45,0,0,0-.42.15.39.39,0,0,0,0,.44,2.82,2.82,0,0,0,.89.79l.85.59a.58.58,0,0,0,.41,0,.57.57,0,0,0,.34-.27.53.53,0,0,0-.19-.73Z"/><path class="cls-3" d="M229.55,77l-.63,1.13c-.11.18-.22.37-.32.56a1.46,1.46,0,0,0-.23.73.38.38,0,0,0,.58.33,1.55,1.55,0,0,0,.53-.58c.11-.18.21-.37.32-.56l.65-1.11a.51.51,0,0,0-.19-.7.55.55,0,0,0-.71.2Z"/><path class="cls-3" d="M233.27,81.4l-1,.26-.49.13a1.85,1.85,0,0,0-.33.12.83.83,0,0,0-.3.26.38.38,0,0,0,.14.53.81.81,0,0,0,.38.07,1.35,1.35,0,0,0,.34-.06l.48-.13,1-.28a.48.48,0,0,0,.34-.57.47.47,0,0,0-.57-.33Z"/><path class="cls-3" d="M233.86,82.62c0,.52.08,1,.1,1.55,0,.26,0,.51.07.77a2.28,2.28,0,0,0,.19.85.37.37,0,0,0,.62,0,2.24,2.24,0,0,0,.22-.88,6.47,6.47,0,0,0,.05-.76c0-.56-.07-1.12-.14-1.67a.54.54,0,0,0-.61-.4.58.58,0,0,0-.5.55Z"/><path class="cls-3" d="M134.39,17.36c-2.1-.93-5.09.32-5.41,2.75a1.56,1.56,0,0,0,.68,1.61,2.28,2.28,0,0,0,1.81.07,6.8,6.8,0,0,0,3.36-2.47l-.77-.09c.28,1.1.5,2.21.67,3.33a15.23,15.23,0,0,1,.28,3.3c0,.47-.29.58-.74.57a9.63,9.63,0,0,1-1.51-.21c-1.07-.22-2-.66-3.08-.94-.38-.11-.75.43-.42.71a7.4,7.4,0,0,0,3.5,1.42c1,.16,2.51.4,3.05-.7a2.81,2.81,0,0,0,.13-1.52c-.06-.66-.13-1.32-.22-2a33.21,33.21,0,0,0-.84-4.2.42.42,0,0,0-.71-.18,6,6,0,0,1-2.38,1.85,2.5,2.5,0,0,1-1.34.28c-.53-.1-.55-.63-.42-1.06a3,3,0,0,1,3.9-1.76c.52.23,1-.54.46-.78Z"/><path class="cls-3" d="M141,14.33a8.66,8.66,0,0,0,1.41,8.52c.31.36,1-.13.69-.53a8.43,8.43,0,0,1-1.07-7.73c.24-.65-.79-.88-1-.26Z"/><path class="cls-3" d="M149.68,15.34a76.12,76.12,0,0,0-3.4,7.41c-.18.5.53.67.79.31a25.49,25.49,0,0,0,2.1-3.42c.6-1.2,1.18-2.4,1.75-3.61a.7.7,0,0,0-.25-1,.75.75,0,0,0-1,.27Z"/><path class="cls-3" d="M145.51,16.28a18,18,0,0,1,1.11,2c.16.33.3.67.45,1a3.33,3.33,0,0,0,.56,1,.44.44,0,0,0,.72-.31,2.53,2.53,0,0,0-.25-1.14,10.2,10.2,0,0,0-.48-1.12,18.46,18.46,0,0,0-1.12-2,.57.57,0,0,0-.77-.19.56.56,0,0,0-.22.76Z"/><path class="cls-3" d="M152.23,15.56a14.91,14.91,0,0,1,1.82,4.89,6,6,0,0,1-.12,2.12,21.25,21.25,0,0,1-.85,2.09c-.16.48.39.79.78.59a3.42,3.42,0,0,0,1.45-2.11,6.73,6.73,0,0,0,.2-2.68,15.57,15.57,0,0,0-2.15-5.55c-.39-.72-1.5-.07-1.13.65Z"/></svg>