<svg id="Layer_1" data-name="Layer 1" xmlns="http://www.w3.org/2000/svg" viewBox="0 0 250.14 135.29"><defs><style>.cls-1{fill:#486afb;}.cls-2{fill:#fd46fc;}</style></defs><path class="cls-1" d="M8.76,7.19a4.78,4.78,0,0,0-4.13-2,3.94,3.94,0,0,0-3.86,3c-.32,2,1.67,3.29,3.17,4.19a28.63,28.63,0,0,1,2.58,1.62c.57.43,1.94,1.35.9,2a4.5,4.5,0,0,1-1.7.4,8.84,8.84,0,0,1-2,.07,3.41,3.41,0,0,1-2.58-1.48.55.55,0,0,0-1,.41C.72,17.37,3,18,4.89,17.86a7.13,7.13,0,0,0,3.28-.8,2,2,0,0,0,.92-2.3c-.32-.95-1.39-1.65-2.17-2.2S5.19,11.48,4.32,11A5.19,5.19,0,0,1,2.19,9.13,1.83,1.83,0,0,1,3,6.86a3.48,3.48,0,0,1,4.68.95c.42.64,1.5,0,1.07-.62Z"/><path class="cls-1" d="M63.68,45A15.39,15.39,0,0,0,65.1,32.3a20.4,20.4,0,0,0-8.27-11A36.57,36.57,0,0,0,42.61,16.1c-5.66-1-11.63-1.56-17.32-.64A30.34,30.34,0,0,0,.09,47.65c.4,5.19,2.32,10,4.58,14.58s4.76,9,6.06,13.9A23.44,23.44,0,0,1,11.44,84a37.8,37.8,0,0,1-2,8.79c-1.88,5.58-4.4,11-5.24,16.84-.68,4.71-.17,9.92,2.58,13.94,3,4.41,8.12,6.09,13.22,6.68,6,.68,12-.34,17.78-1.85A91.61,91.61,0,0,0,53.29,123,37.86,37.86,0,0,0,65.87,114C73.25,105.5,75.7,94,74.82,83a68.48,68.48,0,0,0-3.66-17.1,62.3,62.3,0,0,0-3.32-7.86c-1.26-2.5-2.87-4.92-3.69-7.61-.7-2.28-.74-4.95.84-6.88.57-.69-.41-1.64-1-1a8.52,8.52,0,0,0-1.6,6.61c.37,2.66,1.71,5.05,2.92,7.4a74.55,74.55,0,0,1,5.91,15.52C74,82.86,74.44,94.72,69.69,105a32.27,32.27,0,0,1-9.2,11.8,48.48,48.48,0,0,1-13.42,7.08A96.79,96.79,0,0,1,31,128.42c-5.44,1-11.4,1.25-16.67-.69a13.2,13.2,0,0,1-5.94-4.2,15.35,15.35,0,0,1-2.77-6.19c-1.14-5.28.19-10.6,1.94-15.59,1.87-5.38,4.22-10.64,5-16.32a24.41,24.41,0,0,0-.18-8,34.43,34.43,0,0,0-2.22-6.94C8.22,66,5.68,61.7,3.8,57.15A30.6,30.6,0,0,1,1.51,42.39a28.19,28.19,0,0,1,16-22.95,31.11,31.11,0,0,1,15.12-2.92A59,59,0,0,1,48.17,19a25.89,25.89,0,0,1,12.17,7.62,17.88,17.88,0,0,1,4.27,11.91,12.17,12.17,0,0,1-1.82,5.95c-.35.57.54,1,.89.49Z"/><path class="cls-1" d="M244.13,14.3c0,3.92,0,7.83,0,11.75s-.11,7.83-.08,11.74c.06,7.74-.08,15.49,0,23.24.21,15.57,0,31.15,0,46.73,0,4.33.09,8.66.1,13s-.11,8.83.06,13.24a.69.69,0,0,0,1.37,0c.13-3.91,0-7.83,0-11.74s0-7.83,0-11.75c0-7.74-.08-15.49-.11-23.24-.06-15.57-.18-31.15-.15-46.72,0-4.33-.09-8.67-.15-13s0-8.82-.07-13.24a.54.54,0,0,0-1.07,0Z"/><path class="cls-1" d="M243.16,14.34c-.59.52-1.16,1.07-1.7,1.65-.28.3-.55.61-.8.93a3.65,3.65,0,0,0-.65,1.13.5.5,0,0,0,.73.55,4.31,4.31,0,0,0,1-.79c.28-.27.55-.55.82-.83.54-.56,1.11-1.09,1.69-1.61a.74.74,0,0,0,0-1.06.79.79,0,0,0-1.07,0Z"/><path class="cls-1" d="M244.88,16l1.27,1.4c.2.23.41.47.63.69l.34.32a2.78,2.78,0,0,0,.52.35.72.72,0,0,0,.83-.13.92.92,0,0,0,.18-.3.73.73,0,0,0-.06-.52,1.77,1.77,0,0,0-.21-.41l-.38-.49c-.2-.25-.42-.49-.63-.73l-1.27-1.4A.86.86,0,0,0,244.88,16Z"/><path class="cls-1" d="M240.71,131.64a9.65,9.65,0,0,0,1.54,2.12,5.27,5.27,0,0,0,2.19,1.51.62.62,0,0,0,.67-.28.59.59,0,0,0-.09-.69c-.11-.15,0,0,0,0l-.15-.2-.21-.2-.42-.42c-.28-.28-.55-.56-.81-.86l-.18-.22c-.1-.12.08.1,0,0a.44.44,0,0,1-.08-.11c-.12-.15-.22-.31-.33-.47a9.69,9.69,0,0,1-.62-1,.87.87,0,0,0-1.5.87Z"/><path class="cls-1" d="M245.92,134.71c.59-.58,1.21-1.11,1.85-1.64a15.63,15.63,0,0,0,1.84-1.6.59.59,0,0,0,.1-.69.58.58,0,0,0-.65-.26,7.21,7.21,0,0,0-2.31,1.25,20.1,20.1,0,0,0-2,1.77.84.84,0,0,0,0,1.2.88.88,0,0,0,1.21,0Z"/><path class="cls-1" d="M241.14,1.72c-.08,1.46-.11,2.91-.07,4.37a12.49,12.49,0,0,0,.51,4.27c.16.39.84.26.92-.13a8.67,8.67,0,0,0,0-2.1c0-.71-.08-1.42-.1-2.14,0-1.42,0-2.85,0-4.28,0-.85-1.28-.81-1.33,0Z"/><path class="cls-1" d="M243,3a16,16,0,0,0,.93,6.8c.22.49,1,.19,1-.26a27.51,27.51,0,0,0-.13-3.27c-.07-1.09-.11-2.19-.09-3.28S243,1.94,243,3Z"/><path class="cls-1" d="M242.42,2.23a2.73,2.73,0,0,1,4.34-.06,2.24,2.24,0,0,1,.15,2.3,2.38,2.38,0,0,1-.94.92,7.13,7.13,0,0,1-1.3.64.6.6,0,0,0-.16,1.09,7.62,7.62,0,0,0,1.25.51,9.38,9.38,0,0,1,1.24.59,16.45,16.45,0,0,1,2.19,1.61c.43.36,1.22-.12.86-.66a7.16,7.16,0,0,0-2.29-2.09A5.69,5.69,0,0,0,244.83,6l.41,1a3.08,3.08,0,0,1,.86-.52,7.2,7.2,0,0,0,.81-.48A3.18,3.18,0,0,0,248,4.63a3.32,3.32,0,0,0-.37-3.18A3.55,3.55,0,0,0,244.71,0a3.93,3.93,0,0,0-3,1.69c-.32.43.4,1,.73.54Z"/><path class="cls-2" d="M87,76.35A82.72,82.72,0,0,1,113,65.88a75.73,75.73,0,0,1,28-.79c9.8,1.59,19.15,5,28.46,8.39,9,3.25,18.19,6.47,27.75,7.76,8.95,1.21,18.32.9,26.72-2.68A27.43,27.43,0,0,0,226.9,77a.5.5,0,0,0-.5-.86,46.61,46.61,0,0,1-13.15,3.88,59.36,59.36,0,0,1-13.78.07c-9.54-1-18.7-3.89-27.72-7.05-9.34-3.26-18.66-6.77-28.41-8.6a77.19,77.19,0,0,0-27.78,0,83.12,83.12,0,0,0-26,9.32c-1,.57-2,1.17-3,1.78a.48.48,0,1,0,.48.83Z"/><path class="cls-2" d="M226.06,75.11c-.39-.15-.79-.33-1.19-.45l-.6-.17-.63-.15a.67.67,0,0,0-.75.38.61.61,0,0,0,.26.77,6.1,6.1,0,0,0,.54.34l.55.3c.36.21.77.36,1.15.54a.94.94,0,0,0,.64.07.84.84,0,0,0,.58-.5.79.79,0,0,0,0-.64.86.86,0,0,0-.56-.49Z"/><path class="cls-2" d="M225.2,77.49c-.23.69-.43,1.38-.59,2.08a8.55,8.55,0,0,0-.26,2.25.65.65,0,0,0,.56.63.68.68,0,0,0,.72-.48,18.25,18.25,0,0,0,.62-2c.19-.68.39-1.36.61-2a.83.83,0,0,0-.59-1,.92.92,0,0,0-1.07.61Z"/><path class="cls-2" d="M142.76,44a2.86,2.86,0,0,0-4.92,1.74c-.06,1.34,1.06,1.82,2.2,1.4a5.69,5.69,0,0,0,2.71-2.15l-.78-.19c.1,1.43.18,2.87.27,4.3a14.12,14.12,0,0,1-.1,4.45,3.37,3.37,0,0,1-2,2.45,2.05,2.05,0,0,1-2.37-1c-.28-.57-1.18-.16-1,.43a2.71,2.71,0,0,0,2.78,2,3.78,3.78,0,0,0,3.18-2.17,8.74,8.74,0,0,0,.61-4.72c-.15-1.91-.32-3.82-.46-5.73a.43.43,0,0,0-.79-.2,4,4,0,0,1-1.59,1.23,3.48,3.48,0,0,1-.84.29c-.47.08-.58-.13-.49-.56a1.62,1.62,0,0,1,2.81-.69c.52.55,1.38-.3.85-.86Z"/><path class="cls-2" d="M148.9,38.68A12.78,12.78,0,0,0,147.24,45,10.51,10.51,0,0,0,149,51.19a.64.64,0,0,0,1.11-.64,14.6,14.6,0,0,1-1.44-5.61A11.3,11.3,0,0,1,150,39.3a.64.64,0,0,0-1.12-.62Z"/><path class="cls-2" d="M159.25,40.87a38.54,38.54,0,0,0-2,3.46,16.3,16.3,0,0,0-1.52,3.75.57.57,0,0,0,1,.41c.72-1.1,1.3-2.28,1.93-3.43s1.3-2.28,2-3.39a.83.83,0,0,0-.3-1.13.89.89,0,0,0-1.16.33Z"/><path class="cls-2" d="M156.69,43.76c-.39-.47-.79-.94-1.19-1.4l-.61-.67c-.21-.23-.44-.43-.67-.64a.67.67,0,0,0-.86,0,.64.64,0,0,0-.18.83c.16.27.31.53.49.78s.42.59.65.87c.38.49.76,1,1.15,1.48a.81.81,0,0,0,.59.23.92.92,0,0,0,.63-.26.85.85,0,0,0,0-1.19Z"/><path class="cls-2" d="M163.6,39.22a12,12,0,0,1,.79,11.61.51.51,0,0,0,.89.49,12.13,12.13,0,0,0-.68-12.67c-.41-.59-1.4,0-1,.57Z"/></svg>