<svg id="Layer_1" data-name="Layer 1" xmlns="http://www.w3.org/2000/svg" viewBox="0 0 362.68 190.65"><defs><style>.cls-1{fill:#486afb;}.cls-2{fill:#231f20;}.cls-3{opacity:0.45;}.cls-4{fill:#fd46fc;}.cls-5{opacity:0.4;}</style></defs><path class="cls-1" d="M167.2,61.93a15.38,15.38,0,0,0,1.42-12.67,20.41,20.41,0,0,0-8.27-11,36.57,36.57,0,0,0-14.22-5.21c-5.66-1-11.63-1.56-17.32-.64a30.34,30.34,0,0,0-25.2,32.19c.4,5.19,2.32,9.95,4.58,14.58s4.77,9,6.06,13.9A23.19,23.19,0,0,1,115,101a37.39,37.39,0,0,1-2,8.79c-1.88,5.58-4.4,11-5.25,16.84-.68,4.71-.17,9.92,2.59,13.93,3,4.42,8.11,6.1,13.21,6.68,6,.69,12-.33,17.78-1.84A91.34,91.34,0,0,0,156.81,140a37.58,37.58,0,0,0,12.58-9.09c7.38-8.45,9.83-20,9-30.94a69,69,0,0,0-3.66-17.09A62.3,62.3,0,0,0,171.36,75c-1.26-2.5-2.87-4.92-3.7-7.61-.69-2.29-.73-4.95.85-6.88.57-.69-.4-1.63-1-1A8.51,8.51,0,0,0,166,66.19c.37,2.66,1.7,5,2.91,7.4a73.57,73.57,0,0,1,5.91,15.52c2.75,10.72,3.19,22.58-1.56,32.82a32.17,32.17,0,0,1-9.2,11.8,48.48,48.48,0,0,1-13.42,7.08,96.68,96.68,0,0,1-16.08,4.58c-5.45,1-11.4,1.26-16.68-.69a13.2,13.2,0,0,1-5.94-4.2,15.35,15.35,0,0,1-2.77-6.19c-1.15-5.28.19-10.6,1.94-15.6,1.87-5.37,4.22-10.64,5-16.32a24.35,24.35,0,0,0-.18-8,34.43,34.43,0,0,0-2.22-6.94c-1.92-4.54-4.46-8.79-6.34-13.34A30.6,30.6,0,0,1,105,59.36a28.68,28.68,0,0,1,5.26-14,29.08,29.08,0,0,1,10.77-8.94,31.37,31.37,0,0,1,15.12-2.92A59.06,59.06,0,0,1,151.69,36a25.89,25.89,0,0,1,12.17,7.62,17.83,17.83,0,0,1,4.27,11.91,12.26,12.26,0,0,1-1.81,6c-.35.56.53,1,.88.48Z"/><path class="cls-2" d="M134,19a10.37,10.37,0,0,0-2,5.45,10.24,10.24,0,0,0,1.65,5.37,34.22,34.22,0,0,1,2.47,4.58,16.81,16.81,0,0,1,1.14,5.14,23.91,23.91,0,0,1-.7,5.83,1,1,0,0,0,1.88.74A9,9,0,0,0,140,40.9a16.49,16.49,0,0,0-.75-5.44,24.75,24.75,0,0,0-2.2-5,14.15,14.15,0,0,1-2-4.7,7.21,7.21,0,0,1,1.8-5.3,1.57,1.57,0,0,0-.58-2.17A1.71,1.71,0,0,0,134,19Z"/><path class="cls-2" d="M108.73,97.81c2.77-1.12,5.87-2.48,8.93-2.1a29.36,29.36,0,0,1,4.18,1.22,8.55,8.55,0,0,0,4.65.14,1.17,1.17,0,0,0-.26-2.3,25.2,25.2,0,0,1-4.21-.88,24.71,24.71,0,0,0-4.6-.78c-3.27-.12-6.34,1-9.33,2.15a1.4,1.4,0,0,0-1,1.63,1.32,1.32,0,0,0,1.62.92Z"/><path class="cls-2" d="M132.77,139.73c-2.42,2.63-4.39,6-4.37,9.63,0,1.9.71,3.62,1,5.48s-.31,3.92,0,5.86a1.42,1.42,0,0,0,2.59.3,12.06,12.06,0,0,0,.85-5.68,15.71,15.71,0,0,0-.46-3,21.72,21.72,0,0,1-.55-2.43c-.31-2.9,1.21-5.87,3.08-8.1a1.54,1.54,0,0,0,0-2.14,1.57,1.57,0,0,0-2.18,0Z"/><g class="cls-3"><path class="cls-4" d="M256.5,51.45A154.58,154.58,0,0,0,257.86,67a.44.44,0,0,0,.14.33.47.47,0,0,0,.31.06l12.05-.59a1.49,1.49,0,0,1-.59-1.13l-2.49-14.16a113.6,113.6,0,0,0-11.95.63"/><path class="cls-1" d="M256,51.46q.42,7.51,1.39,15c0,.36,0,.86.32,1.12s.92.14,1.31.12q1.84-.11,3.69-.18c2.53-.11,5.1-.11,7.62-.37a.37.37,0,0,0,.19-.69c-.44-.26-.44-1.21-.5-1.65l-.3-2c-.19-1.26-.41-2.53-.64-3.79s-.45-2.52-.69-3.77-.44-2.62-.74-3.9a.4.4,0,0,0-.38-.29c-4,.2-8.08,0-12,.68a.36.36,0,0,0,.07.7c2-.06,4-.33,6-.43a59.7,59.7,0,0,1,6-.16l-.38-.29c.17,1.39.45,2.78.68,4.17s.46,2.77.7,4.16.49,2.67.76,4c.14.66.26,1.33.4,2a1.79,1.79,0,0,0,.66,1.13l.27-.63c-2.29,0-4.6.2-6.88.33l-3.44.17-1,0c-.13,0-.61.11-.74,0s-.23-1.13-.27-1.47a134.71,134.71,0,0,1-1.07-14c0-.61-1-.58-1,0Z"/></g><g class="cls-3"><path class="cls-4" d="M257.93,87.13c0,2.89,0,5.79.31,8.67.1,1.09.35,2.35,1.31,2.89a3.57,3.57,0,0,0,1.72.31l8.47.13a.23.23,0,0,0,.29-.29,58,58,0,0,0-1.29-11.9A87.09,87.09,0,0,1,257,87"/><path class="cls-1" d="M257.58,87.13c0,2.64,0,5.29.22,7.93.14,1.84.37,4,2.58,4.25a31.2,31.2,0,0,0,3.62.11l4,.08c.59,0,1.21.07,1.8,0a.65.65,0,0,0,.66-.57,7.11,7.11,0,0,0,0-1.66c0-.68,0-1.36-.09-2a55.45,55.45,0,0,0-1.18-8.41.41.41,0,0,0-.39-.3c-2,.11-3.92.2-5.89.24s-3.92-.16-5.88-.14c-.38,0-.52.62-.1.69a31.65,31.65,0,0,0,5.84.23c2,0,4-.12,6-.21l-.39-.3a60,60,0,0,1,1,6.65c.1,1.08.17,2.16.22,3.23a15.66,15.66,0,0,0,0,1.68s0,.41.09.2,0,0-.17-.06-.67,0-1,0c-2.28,0-4.57,0-6.85-.08-1,0-2,0-2.55-1a6.85,6.85,0,0,1-.56-2.83c-.2-2.56-.23-5.13-.26-7.69a.35.35,0,0,0-.7,0Z"/></g><g class="cls-3"><path class="cls-4" d="M258.85,118l.51,11.1a.54.54,0,0,0,.11.35.5.5,0,0,0,.32.08l9.42.21a.52.52,0,0,0,.37-.07.59.59,0,0,0,.16-.43,35.37,35.37,0,0,0-.54-9.63,3.14,3.14,0,0,1-.08-1.22,1,1,0,0,1,.77-.85l-10.82.74"/><path class="cls-1" d="M258.41,118c.12,2.46.25,4.91.35,7.36.05,1.24,0,2.51.16,3.74.09,1,1,.87,1.83.86,2.49,0,5,.12,7.49.17.86,0,1.79.18,1.95-.89a21,21,0,0,0,.15-3.54,35.53,35.53,0,0,0-.3-4c-.08-.67-.18-1.33-.31-2s-.43-1.55.26-1.8c.4-.14.41-.82-.09-.79-3.6.23-7.25.3-10.82.75-.49.07-.56.8,0,.8,3.6,0,7.23-.48,10.82-.74l-.09-.79a1.55,1.55,0,0,0-1.18,1.65,28,28,0,0,0,.5,3.39,34,34,0,0,1,.24,3.64c0,.59,0,1.18,0,1.77,0,.31,0,.62,0,.94s.05.71-.1.93l.26-.19a3.82,3.82,0,0,1-1.35,0l-1.33,0-2.65,0c-.85,0-1.7,0-2.54-.06l-1.33-.06c-.6,0-.48,0-.51-.63q-.25-5.25-.48-10.49c0-.57-.91-.55-.88,0Z"/></g><g class="cls-5"><path class="cls-4" d="M236.6,170.28l1.64,12a.53.53,0,0,0,.14.35.5.5,0,0,0,.43.05,23.26,23.26,0,0,1,6.56-.16,24,24,0,0,0,3.77.34,4.8,4.8,0,0,0,3.41-1.41,5.3,5.3,0,0,0,1.1-3.24c.18-3-.74-5.93-1.09-8.91-.05-.44.09-1.08.53-1l-17.6,1.31"/><path class="cls-1" d="M236.06,170.43c.39,3,.82,6,1.24,9.07l.32,2.2c.07.5,0,1.16.56,1.42s1,0,1.48-.06a19.61,19.61,0,0,1,2.54-.2,28.79,28.79,0,0,1,4.45.33,10.33,10.33,0,0,0,3.84,0,4.58,4.58,0,0,0,2.73-1.77,6.15,6.15,0,0,0,.94-3.18,21.15,21.15,0,0,0-.39-4.83c-.14-.78-.28-1.56-.43-2.34,0-.21-.46-2.33-.25-2.32v-.87c-2.93.14-5.87.4-8.8.6s-5.87.39-8.8.7c-.56.05-.62.91,0,.88,2.94-.13,5.87-.38,8.8-.61s5.88-.41,8.81-.7c.54-.06.59-.92,0-.87-1,.08-1,1.16-1,1.92.14,1.35.41,2.67.64,4a19.81,19.81,0,0,1,.37,4.21,4.8,4.8,0,0,1-1.15,3.33c-2,1.89-5.22.81-7.59.63a25.26,25.26,0,0,0-4.26.07l-1,.12a2.31,2.31,0,0,1-.51.07c.18,0,0,.18.09-.06a2.85,2.85,0,0,0-.13-1l-.16-1.23c-.43-3.27-.86-6.54-1.34-9.8-.1-.69-1.15-.38-1.07.29Z"/></g><path class="cls-2" d="M153.4,60c6.48.19,13,.57,19.45.61s12.9.07,19.35,0c12.89,0,25.79-.26,38.68-.39,3.62,0,7.24-.13,10.86-.24l5.49-.15c.92,0,1.83-.07,2.75-.13l1.24-.08a5.56,5.56,0,0,0,1.62-.39,1.4,1.4,0,0,0,0-2.7,16.67,16.67,0,0,0-5.09-.35l-4.74.07c-3.24,0-6.49.07-9.73.15-6.45.16-12.9.25-19.34.33q-19.35.26-38.69.3c-7.29,0-14.57.33-21.85.42a1.25,1.25,0,0,0,0,2.5Z"/><path class="cls-2" d="M163,96.93c6,.35,12,.61,18,.73s12,.13,18,.16c3,0,6-.12,8.93-.16s5.95-.12,8.93-.21c6-.18,12-.63,18-1,3.34-.23,6.69-.4,10-.63,1.65-.11,3.29-.22,4.94-.35a35.89,35.89,0,0,0,5.38-.62A1.7,1.7,0,0,0,256.34,93a1.62,1.62,0,0,0-1.61-1.42,33.09,33.09,0,0,0-4.45.23l-4.45.39q-4.46.36-8.92.68c-6,.42-12,.46-18,.7q-17.91.72-35.85.49-10-.14-20.09-.41a1.72,1.72,0,0,0-1.68,1.64A1.61,1.61,0,0,0,163,96.93Z"/><path class="cls-2" d="M155.31,130.45c3.4.18,6.8.41,10.21.58s6.66.2,10,.27c6.73.14,13.47.18,20.2.28s13.39,0,20.08-.06c6.38-.06,12.74-.14,19.09-.72,3.59-.32,7.18-.8,10.73-1.4,1.78-.3,3.55-.63,5.31-1a19.71,19.71,0,0,0,5.24-2c1.19-.63.8-2.83-.68-2.65a32.09,32.09,0,0,0-4.78.84c-1.55.42-3.11.81-4.68,1.12a86.08,86.08,0,0,1-9.19,1.29c-6.26.57-12.57.71-18.86.83-13.33.24-26.69,0-40-.22l-11.22-.17c-3.79-.07-7.57.1-11.36.13a1.43,1.43,0,0,0-.05,2.86Z"/><path class="cls-1" d="M99.59,36.6a4.77,4.77,0,0,0-4.13-2.05,4,4,0,0,0-3.85,3c-.32,2,1.67,3.28,3.17,4.18a26.65,26.65,0,0,1,2.58,1.63c.57.43,2,1.34.9,2a4.34,4.34,0,0,1-1.71.41,9.35,9.35,0,0,1-2,.07A3.39,3.39,0,0,1,92,44.33a.55.55,0,0,0-1,.42c.57,2,2.87,2.64,4.74,2.51a7,7,0,0,0,3.28-.8,2,2,0,0,0,.92-2.29A5.37,5.37,0,0,0,97.75,42c-.83-.59-1.72-1.08-2.59-1.6A5.13,5.13,0,0,1,93,38.54a1.83,1.83,0,0,1,.82-2.27,3.47,3.47,0,0,1,4.68.94c.42.64,1.49,0,1.06-.61Z"/><path class="cls-1" d="M262.65,31.27c0,3.91,0,7.83,0,11.74s-.12,7.83-.09,11.75c.06,7.74-.08,15.49,0,23.24.2,15.57,0,31.15.05,46.72,0,4.34.09,8.67.1,13s-.12,8.83.05,13.24a.68.68,0,0,0,1.36,0c.13-3.91,0-7.83,0-11.75s0-7.83,0-11.74c0-7.75-.08-15.49-.11-23.24-.06-15.57-.19-31.15-.15-46.72,0-4.33-.09-8.67-.15-13s0-8.83-.07-13.24a.54.54,0,0,0-1.07,0Z"/><path class="cls-1" d="M261.68,31.31c-.59.52-1.15,1.08-1.7,1.65-.28.3-.54.61-.8.93a3.87,3.87,0,0,0-.65,1.13.5.5,0,0,0,.73.55,4.6,4.6,0,0,0,1-.79c.28-.27.55-.55.82-.83.54-.56,1.11-1.1,1.69-1.61a.75.75,0,0,0,0-1.06.79.79,0,0,0-1.07,0Z"/><path class="cls-1" d="M263.4,33l1.27,1.41c.21.23.41.46.63.68l.34.32a2.26,2.26,0,0,0,.52.35.71.71,0,0,0,.83-.12.73.73,0,0,0,.12-.82,1.77,1.77,0,0,0-.21-.41l-.38-.49c-.2-.25-.42-.49-.63-.73l-1.27-1.4A.86.86,0,0,0,263.4,33Z"/><path class="cls-1" d="M259.23,148.6a9.2,9.2,0,0,0,1.54,2.12,5.26,5.26,0,0,0,2.2,1.52.61.61,0,0,0,.66-.28.59.59,0,0,0-.09-.69c-.11-.14,0,0,0,0s-.1-.14-.16-.2l-.2-.2-.42-.42c-.28-.28-.55-.56-.81-.86l-.18-.22c-.1-.12.07.1,0,0a.44.44,0,0,1-.08-.11,5,5,0,0,1-.33-.47,9.77,9.77,0,0,1-.63-1,.84.84,0,0,0-1.16-.29.86.86,0,0,0-.33,1.15Z"/><path class="cls-1" d="M264.44,151.68c.59-.58,1.21-1.12,1.85-1.64a14.84,14.84,0,0,0,1.84-1.61.58.58,0,0,0,.1-.68.58.58,0,0,0-.65-.26,7.06,7.06,0,0,0-2.3,1.25,20.22,20.22,0,0,0-2,1.77.85.85,0,0,0,0,1.19.88.88,0,0,0,1.21,0Z"/><path class="cls-1" d="M259.67,18.69c-.08,1.46-.11,2.91-.07,4.37a12.28,12.28,0,0,0,.51,4.27c.16.39.83.25.91-.13a8.68,8.68,0,0,0,0-2.1c0-.71-.08-1.42-.1-2.14,0-1.43,0-2.85,0-4.28,0-.85-1.27-.81-1.31,0Z"/><path class="cls-1" d="M261.47,20a16,16,0,0,0,.94,6.8c.21.48.93.19.95-.26a27.51,27.51,0,0,0-.13-3.27c-.08-1.09-.11-2.19-.09-3.29s-1.64-1-1.67,0Z"/><path class="cls-1" d="M260.94,19.2a2.72,2.72,0,0,1,4.34-.07,2.19,2.19,0,0,1-.79,3.23,6.28,6.28,0,0,1-1.3.64.6.6,0,0,0-.16,1.09,9.18,9.18,0,0,0,1.26.5c.42.18.83.37,1.23.59a15.89,15.89,0,0,1,2.19,1.62c.43.35,1.22-.12.86-.66a7.16,7.16,0,0,0-2.29-2.09A5.69,5.69,0,0,0,263.35,23l.41,1a2.68,2.68,0,0,1,.86-.52,6,6,0,0,0,.81-.49,3.18,3.18,0,0,0,1.08-1.38,3.3,3.3,0,0,0-.37-3.17A3.55,3.55,0,0,0,263.23,17a4,4,0,0,0-3,1.69c-.31.43.4.95.73.54Z"/><path class="cls-1" d="M347.65,31.27c0,3.91,0,7.83,0,11.74s-.12,7.83-.09,11.75c.06,7.74-.08,15.49,0,23.24.2,15.57,0,31.15.05,46.72,0,4.34.09,8.67.1,13s-.12,8.83.05,13.24a.68.68,0,0,0,1.36,0c.13-3.91,0-7.83,0-11.75s0-7.83,0-11.74c0-7.75-.08-15.49-.11-23.24-.06-15.57-.19-31.15-.15-46.72,0-4.33-.09-8.67-.15-13s0-8.83-.07-13.24a.54.54,0,0,0-1.07,0Z"/><path class="cls-1" d="M346.68,31.31c-.59.52-1.15,1.08-1.7,1.65-.28.3-.54.61-.8.93a3.87,3.87,0,0,0-.65,1.13.5.5,0,0,0,.73.55,4.6,4.6,0,0,0,1-.79c.28-.27.55-.55.82-.83.54-.56,1.11-1.1,1.69-1.61a.75.75,0,0,0,0-1.06.79.79,0,0,0-1.07,0Z"/><path class="cls-1" d="M348.4,33l1.27,1.41c.21.23.41.46.63.68l.34.32a2.26,2.26,0,0,0,.52.35.71.71,0,0,0,.83-.12.73.73,0,0,0,.12-.82,1.77,1.77,0,0,0-.21-.41l-.38-.49c-.2-.25-.42-.49-.63-.73l-1.27-1.4A.86.86,0,0,0,348.4,33Z"/><path class="cls-1" d="M344.23,148.6a9.2,9.2,0,0,0,1.54,2.12,5.26,5.26,0,0,0,2.2,1.52.61.61,0,0,0,.66-.28.59.59,0,0,0-.09-.69c-.11-.14,0,0,0,0s-.1-.14-.16-.2l-.2-.2-.42-.42c-.28-.28-.55-.56-.81-.86l-.18-.22c-.1-.12.07.1,0,0a.44.44,0,0,1-.08-.11,5,5,0,0,1-.33-.47,9.77,9.77,0,0,1-.63-1,.84.84,0,0,0-1.16-.29.86.86,0,0,0-.33,1.15Z"/><path class="cls-1" d="M349.44,151.68c.59-.58,1.21-1.12,1.85-1.64a14.84,14.84,0,0,0,1.84-1.61.58.58,0,0,0,.1-.68.58.58,0,0,0-.65-.26,7.06,7.06,0,0,0-2.3,1.25,20.22,20.22,0,0,0-2,1.77.85.85,0,0,0,0,1.19.88.88,0,0,0,1.21,0Z"/><path class="cls-1" d="M344.67,18.69c-.08,1.46-.11,2.91-.07,4.37a12.28,12.28,0,0,0,.51,4.27c.16.39.83.25.91-.13a8.68,8.68,0,0,0,0-2.1c0-.71-.08-1.42-.1-2.14,0-1.43,0-2.85,0-4.28,0-.85-1.27-.81-1.31,0Z"/><path class="cls-1" d="M346.47,20a16,16,0,0,0,.94,6.8c.21.48.93.19.95-.26a27.51,27.51,0,0,0-.13-3.27c-.08-1.09-.11-2.19-.09-3.29s-1.64-1-1.67,0Z"/><path class="cls-1" d="M345.94,19.2a2.72,2.72,0,0,1,4.34-.07,2.19,2.19,0,0,1-.79,3.23,6.28,6.28,0,0,1-1.3.64.6.6,0,0,0-.16,1.09,9.18,9.18,0,0,0,1.26.5c.42.18.83.37,1.23.59a15.89,15.89,0,0,1,2.19,1.62c.43.35,1.22-.12.86-.66a7.16,7.16,0,0,0-2.29-2.09A5.69,5.69,0,0,0,348.35,23l.41,1a2.68,2.68,0,0,1,.86-.52,6,6,0,0,0,.81-.49,3.18,3.18,0,0,0,1.08-1.38,3.3,3.3,0,0,0-.37-3.17A3.55,3.55,0,0,0,348.23,17a4,4,0,0,0-3,1.69c-.31.43.4.95.73.54Z"/><path class="cls-4" d="M349.06,89.58a2.12,2.12,0,0,0-2.12-1.13,1.78,1.78,0,0,0-1.55,1.78c.09,1.85,3,3,4.28,1.6s0-3.68-1.43-4.54c-1.86-1.11-3.71,1.54-3.29,3.22a2.37,2.37,0,0,0,2.23,1.65,4.34,4.34,0,0,0,1.6-.23,1.92,1.92,0,0,0,1.25-.85c.47-.88-.09-2-.55-2.76a2.75,2.75,0,0,0-2.28-1.51,1.91,1.91,0,0,0-1.35.51,3,3,0,0,0-.7,1.32,2.37,2.37,0,0,0,.56,2.78,3.68,3.68,0,0,0,2.38.58,3.18,3.18,0,0,0,2.43-1c1.15-1.44.3-4-1.34-4.67a2.45,2.45,0,0,0-2.66.51,4.69,4.69,0,0,0-1.39,2.45,2.39,2.39,0,0,0,1.32,2.43,3.93,3.93,0,0,0,3,.11c2-.77,2.18-3.32.82-4.78a3.18,3.18,0,0,0-4.62.16,2.74,2.74,0,0,0-.58,2.82,2.89,2.89,0,0,0,2.12,1.56c1.48.35,3.45.19,4.47-1.09a2.7,2.7,0,0,0,.57-2.33,3.14,3.14,0,0,0-1.47-2,3.52,3.52,0,0,0-4.59,1.5,2.43,2.43,0,0,0,.18,2.9,2.94,2.94,0,0,0,2.57.63,2.57,2.57,0,0,0,2.16-1.68,2.63,2.63,0,0,0-.56-2.52c-1.34-1.56-3.73-1.1-5.2,0A2.72,2.72,0,0,0,344,89.57c.15,1.12,1.16,1.51,2.16,1.57a5.17,5.17,0,0,0,3-.53,3,3,0,0,0,1.52-2.24c.21-2-1.91-3.26-3.65-2.86a2.75,2.75,0,0,0-1.78,4c.94,1.74,3.41,1.5,4.82.53a1.89,1.89,0,0,0,.86-1.21,1.63,1.63,0,0,0-.42-1.36,2.4,2.4,0,0,0-2.9-.29,3.2,3.2,0,0,0-1.85,2A2.14,2.14,0,0,0,347,91.55a4,4,0,0,0,3,0,2.09,2.09,0,0,0,1.42-2.46,2.85,2.85,0,0,0-4.32-1.71,3,3,0,0,0-1.33,2.36,2.53,2.53,0,0,0,1.55,2.37,3.61,3.61,0,0,0,4.85-2,2.76,2.76,0,0,0-3-3.6,2.79,2.79,0,0,0-2.12,1.56,2.4,2.4,0,0,0,.46,2.75,2.5,2.5,0,0,0,2.49.44,3.25,3.25,0,0,0,1.88-2.05,3,3,0,0,0-.25-2.77,2.39,2.39,0,0,0-2.47-.73,4.09,4.09,0,0,0-2.37,1.44,2.13,2.13,0,0,0,.38,2.71A3.63,3.63,0,0,0,349.73,91a1.91,1.91,0,0,0,1.94-1.77,2.77,2.77,0,1,0-5.42.66,2.52,2.52,0,0,0,4.47,1,2.1,2.1,0,0,0-.14-2.49A4.44,4.44,0,0,0,348.44,87a.79.79,0,0,0-.95.55.74.74,0,0,0,.53.91,3.32,3.32,0,0,1,1.21.78.75.75,0,0,1,.22.42c0-.12,0,.18,0,.12a.63.63,0,0,1-.1.23.55.55,0,0,1-.45.25,1,1,0,0,1-.65-.17.83.83,0,0,1-.19-.15s-.15-.19-.09-.1,0-.06,0-.08l-.08-.14c-.06-.12,0,.1,0,0a2.74,2.74,0,0,1-.09-.39c0-.13,0,.1,0,0a.81.81,0,0,1,0-.16c0-.06,0-.13,0-.19s0,.11,0,0a1.33,1.33,0,0,1,.22-.54.94.94,0,0,1,.71-.43,1.43,1.43,0,0,1,1.56,1.27,1,1,0,0,1-.05.3c.05-.15-.08.07-.08.07a.74.74,0,0,1-.5,0,2.44,2.44,0,0,1-1.32-.81,1,1,0,0,1-.22-.42c0-.19.15-.35.32-.48a2.7,2.7,0,0,1,1.3-.59.74.74,0,0,1,.88.38,1.92,1.92,0,0,1-.11,1.45,1.63,1.63,0,0,1-1,.92.9.9,0,0,1-.95-.26c-.59-.82.46-1.72,1.2-1.64a1.31,1.31,0,0,1,.88,2,2.1,2.1,0,0,1-2.71.53,1.09,1.09,0,0,1-.48-1,1.35,1.35,0,0,1,.68-1,1.16,1.16,0,0,1,1.1,0,1.28,1.28,0,0,1,.77,1.05.39.39,0,0,1-.2.35,2,2,0,0,1-.72.23,2.31,2.31,0,0,1-1.53-.16.6.6,0,0,1-.13-.93,2.33,2.33,0,0,1,1.4-.86c.23,0,.78.1.67.38s-.38.3-.53.37a3.37,3.37,0,0,1-.8.25,1.69,1.69,0,0,1-1.31-.2,1.21,1.21,0,0,1-.41-.93,1.23,1.23,0,0,1,.43-1,1.34,1.34,0,0,1,.48-.22,1.56,1.56,0,0,1,.61,0,1.32,1.32,0,0,1,1.06,2,2.23,2.23,0,0,1-1.37.75,4.5,4.5,0,0,1-1.79,0c-.44-.1-.53-.45-.3-.84a3,3,0,0,1,1.32-1c.86-.43,2.21-.49,2.75.48a1.12,1.12,0,0,1,0,1.16,1.59,1.59,0,0,1-1.23.4c-.42,0-.86-.13-1-.49a1.49,1.49,0,0,1,.45-1.27,1.85,1.85,0,0,1,2.38-.41,1.47,1.47,0,0,1,.38,2,2.92,2.92,0,0,1-2.46.56c-.89-.14-2-.58-1.48-1.65a1.19,1.19,0,0,1,.39-.48s.12-.1,0,0l.15-.1a1.77,1.77,0,0,1,.28-.14,1.4,1.4,0,0,1,1.12,0,1.59,1.59,0,0,1,.79,2.13,1.44,1.44,0,0,1-1.25.5,1.48,1.48,0,0,1-1.32-.49c-.28-.41,0-.86.22-1.31a2.29,2.29,0,0,1,.89-1,1,1,0,0,1,1,.35,2.15,2.15,0,0,1,.57,1.28.92.92,0,0,1-.46,1,3.28,3.28,0,0,1-1.49.18,2.55,2.55,0,0,1-.67-.12,1,1,0,0,1-.42-.27c-.24-.41.05-1.09.23-1.47a1.24,1.24,0,0,1,.17-.27c-.05.06,0,0,0,0s0,0,.05,0a.72.72,0,0,1,.49.06,2.38,2.38,0,0,1,1,1.27,5.46,5.46,0,0,1,.19.66c.05.14-.1.06.06,0a2,2,0,0,1-.39.13,2.1,2.1,0,0,1-1.65,0c-.42-.27-.34-.74-.17-1.2a2.14,2.14,0,0,1,.32-.55c0-.06.17-.17.19-.19a.51.51,0,0,1,.2-.1.66.66,0,0,1,.49.2,5,5,0,0,1,.71.66,1.58,1.58,0,0,1,.49,1.3c-.19,1-1.79.34-2.19-.2a.59.59,0,0,1,.3-.93,1.25,1.25,0,0,1,1.35.52c.28.37.91,0,.67-.39Z"/><path class="cls-4" d="M353.15,95.22a18.34,18.34,0,0,1,4.85.29,1.82,1.82,0,0,1,.78.27c.25.21,0,.41-.19.57a18.42,18.42,0,0,1-1.6,1.19,8.78,8.78,0,0,0-2.94,2.71,1.31,1.31,0,0,0,.48,1.84,6.42,6.42,0,0,0,2.09.47l2.76.45,1.29.2a3.31,3.31,0,0,0,1.5,0c.4-.13.74-.76.31-1.08a5.12,5.12,0,0,0-2.32-.63l-2.51-.36-1.21-.18a5.52,5.52,0,0,0-1.06-.15c-.14,0-.11-.09-.09.06,0-.12.16-.32.24-.42a5.38,5.38,0,0,1,.65-.78c.92-.94,2.05-1.65,3-2.57a1.41,1.41,0,0,0,.58-1.53,1.61,1.61,0,0,0-1.2-.82,17.46,17.46,0,0,0-5.4-.25c-.44,0-.48.73,0,.7Z"/><path class="cls-4" d="M354,98.76a36.6,36.6,0,0,0,4.17.55c.68,0,1.36.09,2,.11a5.12,5.12,0,0,0,2.17-.22l-.91-.89a.69.69,0,0,0-.14.33.52.52,0,0,0,.36.64,1.14,1.14,0,0,0,.52,0,.67.67,0,0,0,0-1.28,6.31,6.31,0,0,0-2-.13c-.65,0-1.31,0-2-.06-1.3-.08-2.6-.23-3.89-.42a.78.78,0,0,0-.89.52.69.69,0,0,0,.5.86Z"/><path class="cls-4" d="M263.87,58c.13-.85-.72-1.36-1.46-1.38a1.49,1.49,0,0,0-1.6,1.51,2.24,2.24,0,0,0,2.06,2,3.73,3.73,0,0,0,2.92-1.41,1.81,1.81,0,0,0,.49-.73,1.05,1.05,0,0,0-.25-1,3,3,0,0,0-1.28-.73,4.27,4.27,0,0,0-2.64-.2,2.39,2.39,0,0,0-1.74,2,2.56,2.56,0,0,0,1.16,2.3c1.84,1.21,4.2-1.12,3.3-3a2.36,2.36,0,0,0-2.3-1.3A2.08,2.08,0,0,0,260.67,58a2,2,0,0,0,1.61,2.18A2.79,2.79,0,0,0,265.11,59a2.48,2.48,0,0,0-2.89-3.65,2.51,2.51,0,0,0-1.55,2.25,2.08,2.08,0,0,0,1.52,2.07A2.34,2.34,0,0,0,264.6,59a2.1,2.1,0,0,0-.11-2.74,2,2,0,0,0-2.5-.48A2.3,2.3,0,0,0,261,58a1.92,1.92,0,0,0,1.82,1.67,2.48,2.48,0,0,0,2.25-1.28,2.08,2.08,0,0,0-.56-2.54A2.29,2.29,0,0,0,260.69,58a2.29,2.29,0,0,0,1.7,2,2.73,2.73,0,0,0,2.62-.82,2.48,2.48,0,0,0,.3-2.84,2.56,2.56,0,0,0-2.43-1.41,2.8,2.8,0,0,0-2.36,2,2.48,2.48,0,0,0,1.06,2.76,2.56,2.56,0,0,0,2.82.09,2,2,0,0,0,.38-3.11,2.49,2.49,0,0,0-2.56-.59,1.94,1.94,0,0,0-1.28,2.32A2.09,2.09,0,0,0,263,60a1.77,1.77,0,0,0,1.64-1.78,1.83,1.83,0,0,0-1.27-1.93.94.94,0,0,0-1,.3,4.62,4.62,0,0,0-.52.73,4.31,4.31,0,0,0-.37.8c-.1.27-.12.57-.19.83a.61.61,0,0,0,1.19.29,4.16,4.16,0,0,1,.46-.92c.09-.16.2-.31.3-.46s.1-.15.16-.22l.12-.14-.54.22c.11,0-.16,0,0,0l.08,0,0,0c-.06,0-.07,0,0,0l0,0c.08,0-.11-.11-.06,0l.13.13s-.1-.16,0-.06a.43.43,0,0,0,0,.07s.09.18,0,.07,0,.06,0,.09,0,.06,0,.09,0,0,0,0,0,.14,0,.17,0,.2,0,.09,0,.07,0,.1a.14.14,0,0,0,0,.06c0,.12.07-.12,0,0l-.07.12c0,.08.1-.09,0,0l-.05.06h0c.09-.09,0,0,0,0l-.08,0s.17-.05,0,0,.08,0-.08,0,.05,0-.06,0l-.09,0c-.12,0,0,0,0,0l-.09,0s-.13-.09-.06,0-.08-.08-.11-.1-.12-.16,0,0l-.12-.18,0-.09c-.06-.11,0,.06,0,0a1.21,1.21,0,0,0,0-.18.36.36,0,0,0,0-.1c0,.13,0,0,0,0s0-.25,0-.09l0-.1s.05-.16,0-.07.06-.08.07-.11,0,0,0,0l.07-.07.08-.07s-.12.07,0,0l.18-.1c-.15.08,0,0,.07,0s.24,0,.09,0h.29c.07,0,.1,0,0,0l.21,0s.22.1.09,0l.17.08.09.06c.06,0,.07.06,0,0l.15.14s.08.11,0,0l0,.07A1,1,0,0,1,264,58a.38.38,0,0,1,0,.15s0-.1,0,0l0,.1c0,.1,0-.08,0,0s-.08.14,0,.07,0,0,0,0l-.1.09c-.13.14.1,0-.06.06l-.21.11c-.1.06.1,0,0,0l-.11,0s-.22,0-.08,0H263c.09,0,0,0-.05,0l-.2-.05-.11,0c.12,0,0,0,0,0l-.24-.12-.09-.06c-.09-.06.07.06,0,0l-.16-.14-.16-.17s.07.11,0,0l-.07-.12s-.1-.19-.05-.07a1.87,1.87,0,0,1-.07-.22.5.5,0,0,0,0-.12s0,.11,0,0a2.26,2.26,0,0,1,0-.26c0,.11,0,0,0,0l0-.12s.09-.24,0-.14a1.59,1.59,0,0,1,.13-.22.56.56,0,0,1,.05-.08c0-.06-.05,0,0,0l.18-.18.1-.09s-.11.07,0,0a1.18,1.18,0,0,1,.19-.11l.06,0,.09,0s.26-.06.13,0a1.13,1.13,0,0,1,.26,0h.1s.27.08.15,0l.21.11.1.06s.09.06,0,0,0,0,.05.05l.08.08a1.07,1.07,0,0,1,.18.19c-.08-.1,0,.05.05.09a1,1,0,0,1,.11.21c.05.09,0-.1,0,0a.24.24,0,0,1,0,.08c0,.1.05.19.07.29,0-.12,0,0,0,.09s0,.08,0,.12,0,.14,0,.06,0,0,0,0a.53.53,0,0,1,0,.12l0,.11c0-.13,0,0,0,0a1.22,1.22,0,0,0-.12.19c0,.08.08-.07,0,0l-.05.06c0,.06-.11.11-.16.16s0,0,0,0l-.11.07-.2.11a.2.2,0,0,1-.08,0h0l-.22.06-.11,0H263c-.05,0-.25,0-.1,0l-.22,0-.1,0h0l-.19-.11c.13.08,0,0-.07-.07s-.14-.2-.06-.07l-.12-.18s-.08-.22,0-.08l-.06-.21s0-.19,0-.13,0,0,0-.05v-.14c0-.07,0-.14,0-.21,0,.12,0,0,0-.08a1.59,1.59,0,0,1,.07-.2c0-.09,0,.09,0,0l.06-.11s.15-.2.05-.09a1.59,1.59,0,0,1,.13-.13s.1-.09,0,0l0,0c.05,0,.25-.1.11-.07l.18-.05H263c-.12,0,0,0,0,0l.16,0,.13,0,.05,0,.1,0,.16.1c-.1-.06.07.06.11.09l.14.16c.05.06,0,0,0,0l.06.09s.11.22.06.09a1.55,1.55,0,0,1,.06.23c0,.09,0-.1,0,0a.28.28,0,0,1,0,.09s0,.23,0,.1l-.06.2c0-.13,0,.06-.06.1s-.12.16,0,.06l-.15.15a.27.27,0,0,1-.08.07h0l-.18.11c-.05,0-.22.09-.08,0l-.21.06-.1,0h-.19c-.12,0,0,0,0,0l-.1,0s-.21-.09-.09,0a.83.83,0,0,1-.16-.09c-.09,0,.07.07,0,0l-.09-.08-.06-.08s.07.12,0,0a1,1,0,0,0-.08-.14c-.05-.07,0,.1,0,0l0-.09a1.55,1.55,0,0,1,0-.21c0,.14,0,0,0-.08s0-.12,0-.17,0,.1,0,0a.29.29,0,0,1,0-.09l.06-.22c0-.1,0,.08,0,0a1,1,0,0,1,.1-.17c.08-.13-.05,0,0,0l.06-.06,0,0,.11-.07c.14-.07-.07,0,0,0s.21,0,.09,0H263c.11,0,0,0,0,0l.11,0h.08l.1.05s.19.13.1.06l.18.17s.08.11,0,.05,0,0,0,0l.12.2a1,1,0,0,1,0,.1h0a2.1,2.1,0,0,1,.06.24c0,.07,0,0,0,0v.11a.37.37,0,0,1,0,.11c0-.1,0,0,0,0s-.07.21,0,.11a1.18,1.18,0,0,1-.11.19c.07-.11,0,0-.07.07a.46.46,0,0,0-.07.07s.11-.07,0,0l-.16.1s-.12,0,0,0-.05,0-.06,0l-.21,0h-.28s-.13,0-.05,0h-.08l-.2-.05h0l-.07,0-.18-.11c-.08-.05.07.07,0,0l-.09-.08-.07-.08s.06.1,0,0l-.09-.17c-.05-.08,0,.09,0,0a.3.3,0,0,1,0-.1s0-.25,0-.14a1.2,1.2,0,0,1,0-.19v-.1c0-.1,0,.08,0,0s0-.13,0-.19l0-.11c.05-.16,0,0,0,0l.11-.2s.11-.16,0-.07l.15-.17.08-.07c.09-.08,0,0,0,0l.19-.11h0l.11,0s.23,0,.13,0h.28c.1,0-.07,0,0,0l.09,0,.15,0,.22.11.13.09.19.16.1.12a1.53,1.53,0,0,1,.14.21s0,.05,0,.08l0,0a1.08,1.08,0,0,1,0,.81.56.56,0,0,1,0,.12s0-.07,0,0a1.59,1.59,0,0,1-.13.22l0,0-.05.06-.21.2s-.1.07,0,0l-.11.07-.19.11-.07,0-.07,0A1.64,1.64,0,0,1,263,59h-.33l-.26-.07-.07,0-.11-.06-.14-.13c-.07-.06.05.08,0,0l-.06-.09s-.08-.18,0-.06a1.12,1.12,0,0,1-.06-.23s0-.13,0-.06,0,0,0-.06v-.18c0-.11,0,0,0,0s0-.07,0-.11l0-.1s.05-.16,0-.08,0,0,0-.05a.93.93,0,0,1,.05-.1s.12-.16,0-.07l.15-.15c-.09.08.08,0,.12-.07s0,0,0,0l.11,0,.12,0h.25l.11,0a1.23,1.23,0,0,1,.65.33s.15.17.09.09a1.32,1.32,0,0,1,.12.2s.05.1,0,0l0,.09,0,.11s0,.14,0,.06a1,1,0,0,1,0,.24s0,.1,0,0a.19.19,0,0,1,0,.08,1.55,1.55,0,0,1-.06.23c0,.09,0-.06,0,0a.54.54,0,0,1-.07.13.84.84,0,0,1-.21.29l-.09.08s-.1.09,0,.05l0,0-.15.09a1,1,0,0,1-1.19-.19l-.11-.12-.08-.12a1.14,1.14,0,0,1-.1-.19s-.05-.1,0,0a.93.93,0,0,1,0-.13,1.33,1.33,0,0,1-.05-.19.36.36,0,0,1,0-.11c0,.1,0,0,0,0a1.48,1.48,0,0,1,0-.21.41.41,0,0,0,0-.11c0,.08,0,0,0,0l.06-.18c0-.1,0,0,0,0l.05-.09s.13-.18.07-.11l.15-.17.09-.07c-.09.07,0,0,0,0a1.18,1.18,0,0,1,.19-.11l.1,0h0l.22-.07a1.61,1.61,0,0,1,.35-.06,3.85,3.85,0,0,1,.48,0h0l.12,0,.21,0,.51.14a3.82,3.82,0,0,1,.8.38l.12.09s0,0,0,0v0a.13.13,0,0,1,0-.13s-.23.26-.28.32a2.81,2.81,0,0,1-1.72,1,1.12,1.12,0,0,1-.8-.24,1.07,1.07,0,0,1-.43-.62.65.65,0,0,1,0-.33c0,.09,0,0,0,0s-.07.06,0,0l.07-.07c-.1.1,0,0,.06,0s.09,0,0,0l.08,0,.09,0c-.07,0,0,0,0,0h.19s-.1,0,0,0l.15,0c.11,0,0,0,.06,0l.12.07c-.11-.07,0,0,0,0s0,0,0,.05c-.07-.12,0,.07,0-.05a1,1,0,0,1,0,.17.5.5,0,0,0,.51.51.55.55,0,0,0,.54-.52Z"/><path class="cls-4" d="M262.42,91.75l1.35.43a.42.42,0,0,0,.51-.39,2.06,2.06,0,0,0-3.3-1.7,2.26,2.26,0,0,0-.72,2,2.2,2.2,0,0,0,1.66,1.73,3.24,3.24,0,0,0,2.78-.35,2.67,2.67,0,0,0,1-2,2.81,2.81,0,0,0-.68-2.06,2.53,2.53,0,0,0-2.06-.8,2.82,2.82,0,0,0-2.73,3.28,3.2,3.2,0,0,0,3.56,2.43A2.9,2.9,0,0,0,266,91.19a3.22,3.22,0,0,0-.78-1.92,2.57,2.57,0,0,0-2-.84,3.38,3.38,0,0,0-3.16,3.11,3,3,0,0,0,3.23,2.92,2.44,2.44,0,0,0,1.93-1.34,2.8,2.8,0,0,0,.16-2.14,2.1,2.1,0,0,0-1.83-1.43,2.58,2.58,0,0,0-2.06.91,2,2,0,0,0-.24,2.41,3.37,3.37,0,0,0,2.27,1.43,2.2,2.2,0,0,0,2.52-1,2.16,2.16,0,0,0-.23-2.43,2.21,2.21,0,0,0-2.33-.55,2.13,2.13,0,0,0-1.47,2.1,2.35,2.35,0,0,0,1.33,2,2.3,2.3,0,0,0,2.58-.64,2.08,2.08,0,0,0,.32-2.49,2.34,2.34,0,0,0-2.05-1,2,2,0,0,0-1.88,1.48,2.3,2.3,0,0,0,.71,2.2,1.94,1.94,0,0,0,2.54,0,2.06,2.06,0,0,0-1.45-3.69,2.1,2.1,0,0,0-1.94,1.62,2.28,2.28,0,0,0,.92,2.4.85.85,0,0,0,1-.15c.4-.38.79-.76,1.16-1.17a.78.78,0,0,0,0-1.09.83.83,0,0,0-1.11,0c-.43.36-.83.72-1.23,1.11l1-.15c.11.08,0,0,0,0l-.06-.07c-.06-.06,0,0,0,.06a.52.52,0,0,0-.1-.18c-.05-.07,0,0,0,.06a.56.56,0,0,0,0-.12l0-.17c0,.12,0,.06,0,0s0-.13,0-.19,0,.13,0,.06a.74.74,0,0,0,0-.14c0-.14-.07.09,0,0l.09-.15c-.07.11,0,0,0,0s.09,0,0,0,0,0,0,0l.08,0s-.17.05-.07,0l.2,0c-.13,0-.06,0,0,0h.09c.09,0-.12,0,0,0l.17,0,.09,0s-.12-.06,0,0l.18.1h0l0,0,.06.06s-.07-.12,0,0l.09.15c0,.06,0,0,0,0s0,.06,0,.09,0,.06,0,.09,0-.1,0,0v.13s0-.12,0-.05,0,.13,0,.18,0,0,0,0l0,.09s-.14.17,0,.06l-.12.14s-.12.07,0,0l-.08,0s-.18.07-.09.05-.2,0,0,0h-.18c.11,0,.09,0,0,0s.12.08,0,0-.14-.11,0,0l-.12-.11-.05-.06c-.08-.06.05.06,0,.06s-.08-.12-.09-.14-.12-.19-.06-.1,0-.07,0-.11l0-.16c0,.12,0,.09,0,0s0-.22,0-.12,0,0,0-.08-.06.07,0,0a.18.18,0,0,0,.05-.07c0-.08,0,.08-.05.06s.05,0,.06-.06,0,0,0,0h0l.07,0,.07,0s-.16,0-.07,0l.18,0s-.16,0-.07,0h.1a1,1,0,0,0,.17,0h0l.15,0c.08,0,0,0-.05,0l.1,0c.06,0,.11.07.17.09s0,0-.05,0l.06,0a1.36,1.36,0,0,0,.12.12c.06,0,0,0,0-.06l.06.09c0,.08.05.13,0,0,0,.06,0,.13,0,.19s0,0,0,0v.09a.34.34,0,0,0,0,.1c0-.07,0-.07,0,0s-.06.18,0,.06l-.09.17c0,.05-.12.14,0,.05l-.18.18c.1-.09,0,0-.05,0l-.17.09c.12-.07,0,0-.05,0s-.07,0-.09,0,.09,0,0,0a1.61,1.61,0,0,0-.22,0c.13,0,0,0-.06,0,.11,0,0,0,0,0l-.08-.05c-.08,0,.07.08,0,0l-.13-.12-.06-.07s.09.14,0,0a1.19,1.19,0,0,1-.09-.15.36.36,0,0,1,0-.09c0-.08,0,.12,0,0a1.21,1.21,0,0,0-.05-.18s0-.06,0-.09v.05a1.08,1.08,0,0,0,0-.18s0-.15,0,0,0,0,0-.05.07-.19,0-.1.05-.07.06-.09,0,0,0,0l.06-.07.06-.06c.1-.09,0,0,0,0s.14-.08.17-.1-.07,0-.06,0,.07,0,.08,0l.17,0,.09,0c-.06,0-.13,0,0,0h.18c-.12,0-.06,0,0,0s.22.07.13,0,.08,0,.11.07-.05-.07,0,0,.1.12,0,0l.09.15s0,.11,0,0a.45.45,0,0,1,0,.11c0,.07,0,.16,0,0a1.08,1.08,0,0,1,0,.18c0,.06,0,.16,0,0a.73.73,0,0,0-.05.2c0,.06,0,0,0,0s0,.07-.05.1l-.09.15c.06-.11,0,0,0,0l-.07,0c-.05.06.1,0,0,0s-.19.09-.09.06-.1,0-.09,0a1.29,1.29,0,0,1-.48,0l-.46-.13-.1,0s.09,0,0,0l-.26-.12-.18-.11-.09,0,0,0,0,0-.08-.07a1.29,1.29,0,0,1-.16-.17c.08.1,0-.07-.05-.1l-.05-.1s0,.1,0,0,0-.12,0-.17,0,0,0,0v-.11c0-.12,0,.08,0,0a1,1,0,0,0,0-.16c0,.14,0,0,0-.06s.12-.17,0-.06a1.81,1.81,0,0,1,.24-.24c.1-.1-.09,0,0,0L263,91c.12-.07-.09,0,0,0l.16-.05.17,0c-.14,0,0,0,.07,0h.09s-.13,0,0,0l.16,0c-.11,0,0,0,.05,0l.08,0c.08,0-.08-.06,0,0a.63.63,0,0,1,.12.11s.12.14.07.07,0,.09.06.11.09.19.06.11,0,.08,0,.1l0,.16s0,0,0,.08,0-.11,0,0a1.62,1.62,0,0,1,0,.22c0,.06,0,.11,0,.17s0,0,0,0,0,0,0,.08a.75.75,0,0,1,0,.16c0,.05-.08.2,0,.08a2.58,2.58,0,0,1-.18.32c0,.06,0,0,0,0l-.06.06-.13.14c-.09.09.08,0,0,0l-.15.09h0l-.09,0-.21.06c-.12,0,.05,0-.07,0h-.26l-.25,0-.18,0c-.11,0,0,0-.07,0a3.1,3.1,0,0,1-.36-.21c-.07,0,0,0,0,0l-.07-.06-.16-.15-.13-.14c.07.08,0-.06-.06-.09l-.1-.17a.3.3,0,0,1,0-.08l0,0-.05-.16a1.54,1.54,0,0,1,0-.16,1.38,1.38,0,0,1,.07-.63s.06-.17,0-.12,0,0,0,0l0-.09a2.46,2.46,0,0,1,.22-.34c-.07.09,0,0,0-.06l.16-.16.13-.13.08-.06c-.06.05,0,0,0,0l.32-.2.09,0,.06,0h0l.11,0,.18,0h.07a2.06,2.06,0,0,1,.43,0c-.11,0,0,0,.07,0l.18,0c-.08,0,0,0,.06,0a.7.7,0,0,1,.17.09s.14.1.08,0,.07.06.09.08a1.14,1.14,0,0,1,.11.11l.05.06c.07.07-.06-.09,0,0a2.33,2.33,0,0,1,.17.26c0,.05,0,.11.08.16s0-.08,0,.07a1.71,1.71,0,0,1,.09.3l0,.16c0,.14,0,0,0,.08s0,.23,0,.34,0,.18,0,.11,0,.09,0,.13a2,2,0,0,1-.09.33l0,.07,0,0-.09.17-.08.13s-.09.12,0,0l-.25.26c-.1.09.09-.06,0,0l-.14.08-.14.08c.12-.06,0,0-.08,0l-.21,0c.13,0,0,0-.05,0h-.26c-.1,0,.11,0,0,0a2.62,2.62,0,0,1-.38-.09c-.12,0,.07,0-.05,0l-.19-.09-.15-.1-.08,0s.09.07,0,0-.22-.18-.32-.28l-.12-.14-.05-.07,0,0a3.62,3.62,0,0,1-.2-.33s-.09-.2-.07-.13,0-.08,0-.11,0-.11,0-.17,0,0,0-.08,0,.07,0,0a1,1,0,0,1,0-.17s0-.21,0-.15,0-.09,0-.12.07-.21,0-.1a1.92,1.92,0,0,1,.18-.31c.07-.1-.05,0,0-.05s.11-.11.17-.17.14-.11,0,0l.15-.1.16-.09.08,0,.06,0h0l.12,0,.17,0,.18,0c-.11,0,.07,0,.1,0a1.4,1.4,0,0,1,.62.09,2,2,0,0,1,.27.15c.06,0,0,0,0,0l.07.06a1.21,1.21,0,0,1,.16.16c.05.05,0,0,0,0l.05.07.09.15s.07.14,0,.12,0,0,0,0l0,.11a1.71,1.71,0,0,1,.08.67,1,1,0,0,1,0,.26l-.06.2,0,.1a1.18,1.18,0,0,1-.39.52c.07-.06-.05,0-.07,0a1.51,1.51,0,0,1-.22.11,1.48,1.48,0,0,1-.41.12,2.65,2.65,0,0,1-1,0,1.71,1.71,0,0,1-.83-.38,1,1,0,0,1-.27-.5,1.31,1.31,0,0,1,.29-1.1,1,1,0,0,1,1.19-.15,1.23,1.23,0,0,1,.71,1.14l.51-.39L262.65,91c-.49-.17-.74.62-.23.79Z"/><path class="cls-4" d="M264.15,122.47a1.65,1.65,0,0,0-1.95-.31,1.62,1.62,0,0,0-.89,1.86,2,2,0,0,0,1.73,1.49,2.2,2.2,0,0,0,2-1.3,2.34,2.34,0,0,0-2.39-3.15,2.4,2.4,0,0,0-1.76,3.45c.84,1.84,3.36,1.34,4.75.53a3.43,3.43,0,0,0,1.63-1.9,2.38,2.38,0,0,0-.56-2.3,2.79,2.79,0,0,0-4.2.12c-1.06,1.3-1.19,3.53.28,4.6a1.92,1.92,0,0,0,2.68-.54,3.18,3.18,0,0,0-.45-4.23,2.85,2.85,0,0,0-2.29-.57,2.82,2.82,0,0,0-2.4,3.47c.51,1.64,2.48,2.76,4,1.73a2.82,2.82,0,0,0,.74-4.1,2.1,2.1,0,0,0-2.56-.5,2.86,2.86,0,0,0-1.42,2,3.28,3.28,0,0,0,3,3.74,2.88,2.88,0,0,0,2.79-3.31c-.29-1.61-2.2-2.11-3.53-1.48a2.06,2.06,0,0,0-1.18,1.82,2.34,2.34,0,0,0,1.56,2.15,2.29,2.29,0,0,0,2.74-3.1,2.22,2.22,0,0,0-2-1.22c-.89,0-2.28.59-2,1.68a2.46,2.46,0,0,0,1.92,1.73.67.67,0,0,0,.76-.38.62.62,0,0,0-.26-.79,1.36,1.36,0,0,1-.32-.2l-.14-.14-.08-.09h0a2.93,2.93,0,0,1-.21-.39c.06.12,0-.07,0-.1a1,1,0,0,1-.05-.24l-.23.79s.1-.09.14-.14-.1.06,0,0l.17-.1s-.17,0,0,0l.19,0h.18c-.14,0,0,0,.05,0l.13,0c.18,0-.11-.08,0,0l.11.06c-.16-.09,0,0,0,0l.09.09c-.13-.15,0,0,0,0s0,.13,0,0c0,0,.06.26,0,.16s0,.09,0,.09v.14c0-.18,0,0,0,.06s0,.08-.05.13c.06-.17,0,0,0,.05l-.07.12c-.1.16.11-.08,0,0s-.19.16,0,0a1.19,1.19,0,0,0-.15.09c-.05.06.15,0,0,0a.5.5,0,0,1-.13,0c.16,0-.09,0-.1,0s0,0,0,0c-.22-.06.1.08-.1,0l-.13-.08h0l-.09-.08A.86.86,0,0,1,264,124c.09.12,0,0,0,0s-.09-.19,0,0c0-.06,0-.12-.05-.18s0,.18,0-.06c0-.09,0-.09,0,0a.94.94,0,0,1,0-.16c0-.14-.09.09,0,0l.09-.14s-.13.12,0,0a.94.94,0,0,0,.1-.1c.06-.08-.18.1,0,0s.33-.14.09-.06l.33-.1c.06,0,.13,0,0,0h.29c.18,0-.11,0,0,0a1.4,1.4,0,0,0,.28.06c.1,0-.15-.08,0,0l.15.08c.15.06-.11-.11,0,0l.08.07c0,.05.12.18,0,0l.06.1s.09.2,0,.09,0,.1,0,.1,0,.21,0,.1,0,.14,0,.17a.57.57,0,0,1,0,.13c0-.16,0,.06,0,.08s0,.08,0,.13.07-.11,0,.07-.12.2-.19.3.09-.1,0,0-.09.1-.15.15-.2.15-.05,0l-.11.08-.19.1c.14-.07,0,0,0,0l-.2.06s-.15,0,0,0h-.23c-.14,0,0,0-.11,0a1.71,1.71,0,0,1-.6-.25l0,0a1.29,1.29,0,0,1-.17-.16.57.57,0,0,1-.11-.11l-.11-.12h0a1.71,1.71,0,0,1-.38-1.28c0,.12,0,0,0-.07a1.33,1.33,0,0,1,0-.19c.06-.22,0,.06,0-.06l.09-.18a.57.57,0,0,0,.08-.13c.12-.18-.09.08.07-.07l.1-.11c.07-.06.07-.06,0,0l.12-.08.13-.06c-.15.07,0,0,0,0s.19,0,0,0,.22,0,.12,0,.14,0,.12,0,.06,0,.08,0-.1-.11.07.05l.18.18c-.1-.12,0,0,0,.06l.06.12c-.08-.14,0,0,0,0s0,.1.05.15,0,.2,0,.09,0,.09,0,.09v.16c0,.19,0,0,0,.09a2.81,2.81,0,0,1-.1.31s-.06.13,0,0a1,1,0,0,1-.1.17.41.41,0,0,1-.07.11c-.1.18.07-.07,0,0a2.83,2.83,0,0,1-.24.25c-.15.13.14-.07,0,0l-.11.07s-.23.08,0,0l-.12,0s-.23,0-.07,0h-.15s-.22,0-.12,0-.16,0-.19,0-.06,0,0,0l-.2-.1-.13-.08c-.19-.11.08.09-.08-.06l-.27-.26s-.08-.12,0,0a1.64,1.64,0,0,1-.14-.22l-.09-.17c.06.12,0,0,0,0a2.33,2.33,0,0,1-.08-.36c0,.14,0-.1,0-.11a.66.66,0,0,1,0-.14c0,.12.11-.33.05-.18a1.78,1.78,0,0,1,.17-.3c.08-.12,0,0,0,0l.14-.15.1-.09c.15-.14-.12.06.06,0l.33-.19c.11,0-.17,0,0,0l.16,0,.17,0c.21,0-.08,0,.05,0h.31c.2,0-.11,0,.08,0l.2,0s.2.07.11,0l.1,0,.15.09c.1.07-.11-.11.05,0l.24.25c-.08-.1,0,0,0,0l.15.24.06.12c-.07-.14,0,.07,0,.08s.05.21.07.31,0,.18,0,.06c0,.06,0,.11,0,.17a2.55,2.55,0,0,1,0,.39c0-.14,0,.08,0,.09s0,.09,0,.13-.08.23,0,.09l-.06.13-.09.15s-.11.15,0,.05a1,1,0,0,1-.32.28l-.06,0c.09,0-.12,0-.12,0s0,0,0,0l-.1-.06,0,0a.91.91,0,0,1-.17-.17s.06.1,0,0a2.39,2.39,0,0,1-.13-.21,1.39,1.39,0,0,1-.09-.27c0-.07,0-.15-.05-.22s0-.14,0,0a2.24,2.24,0,0,1,0-.71,1.71,1.71,0,0,1,.22-.58l.07-.13s.15-.19.06-.08a1.92,1.92,0,0,1,.28-.29c.1-.09-.15.09,0,0l.12-.08.2-.1c-.11,0,0,0,0,0l.21,0c-.11,0,0,0,0,0h.22c.14,0-.05,0,.1,0a1.3,1.3,0,0,1,.56.2.62.62,0,0,1,.2.15l.1.09a.94.94,0,0,1,.1.1s0,0,0,0a1.43,1.43,0,0,1,.15.27c.05.1,0-.14,0,0s0,.11,0,.17,0-.15,0,.06v.14c0,.2,0-.06,0,.13,0,0-.07.2,0,.12a1.25,1.25,0,0,1-.39.53,1.33,1.33,0,0,1-.22.19,4.23,4.23,0,0,1-.42.25,2.8,2.8,0,0,1-.6.26,4.4,4.4,0,0,1-.85.21,2,2,0,0,1-.8-.07,1,1,0,0,1-.27-.14c.12.08,0,0,0,0s-.17-.19-.07,0a1.82,1.82,0,0,1-.15-.27c.06.12,0,0,0,0a1,1,0,0,1-.05-.18l0-.12c0-.18,0,.12,0-.07s0-.21,0-.32c0,.14,0-.06,0-.07l0-.12s.08-.2,0-.08l.06-.1s.12-.18,0-.07l.08-.09s.16-.14,0-.06a1,1,0,0,1,.17-.1c-.09.05,0,0,.07,0l.16,0c-.07,0,.23,0,.16,0a1.27,1.27,0,0,1,1.11,1.11,1,1,0,0,1-.71.9c-.72.23-1.5-.88-.76-1.32a.73.73,0,0,1,.92.11c.38.4,1-.21.63-.63Z"/><path class="cls-4" d="M135.35,50.87c-4.65.43-9.53,2.47-11.41,7.06a8.07,8.07,0,0,0,0,6.46,8.54,8.54,0,0,0,4.87,4.19,14.45,14.45,0,0,0,13.77-2.32,12.82,12.82,0,0,0,4.05-5.78c.75-2.19,1-4.88-.24-6.95-1.33-2.29-4.35-3.3-6.86-3.47a10.35,10.35,0,0,0-7.33,2.24c-.37.31.1.88.49.63a11.5,11.5,0,0,1,5.87-1.86,8.56,8.56,0,0,1,6,2c1.56,1.57,1.58,4,1.09,6.06a11.58,11.58,0,0,1-3,5.31,13,13,0,0,1-11.94,3.45,8.73,8.73,0,0,1-4.86-2.75,6.5,6.5,0,0,1-1.25-5.53c1.07-5,6.08-7.3,10.74-7.72.65-.06.7-1.08,0-1Z"/><path class="cls-4" d="M141.54,81a13.34,13.34,0,0,0-11.47,9.66,13.51,13.51,0,0,0,5.42,14.4c4.64,3.07,11.67,3.17,15.81-.88a14.82,14.82,0,0,0,3.89-8.31,14.5,14.5,0,0,0-1.32-8.77,12.51,12.51,0,0,0-6.56-5.93c-2.75-1-6.53-1.24-8.71,1.08-.4.43.13,1.19.64.82,4.27-3.08,10-.45,12.65,3.5,3,4.52,2.43,10.78-.47,15.23s-9.27,5.14-13.81,3a12.11,12.11,0,0,1-6.68-12.15A12.38,12.38,0,0,1,141.52,82c.61-.08.67-1,0-1Z"/><path class="cls-4" d="M137.29,118.92c-4.34-.89-8.49,2.11-10.57,5.75-1.14,2-1.78,4.27-.86,6.49a8.4,8.4,0,0,0,4.85,4.43,21.55,21.55,0,0,0,7.34,1.23,12.56,12.56,0,0,0,7.09-1.61,7.61,7.61,0,0,0,3.58-5.19,8.51,8.51,0,0,0-2-6.14,12.73,12.73,0,0,0-5.41-4.07,10.44,10.44,0,0,0-6.74-.62c-.62.18-.59,1.2.13,1.15a13.81,13.81,0,0,1,5.16.42,10.92,10.92,0,0,1,4.43,2.68A10,10,0,0,1,147,128a5.18,5.18,0,0,1-1.54,5.06,8.75,8.75,0,0,1-5.35,2.27,23.5,23.5,0,0,1-6.59-.35,9.35,9.35,0,0,1-5.45-2.76,5.17,5.17,0,0,1-.91-5.47c1.49-3.83,5.51-7.63,9.89-6.77.66.13,1-.87.29-1Z"/><path class="cls-4" d="M153.41,59.15c12.9.19,25.79.32,38.69.26s25.79-.22,38.68-.42c3.58-.05,7.16-.13,10.73-.21l5.49-.13a53.17,53.17,0,0,0,5.5-.28.47.47,0,0,0,0-.93c-3.21-.25-6.5,0-9.72.08l-9.74.18q-9.6.19-19.21.3-19.35.24-38.69.24c-7.24,0-14.48.08-21.72.07a.42.42,0,0,0,0,.84Z"/><path class="cls-4" d="M163,95.81c11.94.57,23.89.76,35.84.72s23.9-.54,35.83-1.27c3.3-.21,6.6-.41,9.9-.65s6.79-.41,10.14-.86c.68-.09.77-1.13,0-1.1-3,.13-5.93.46-8.9.7s-5.94.44-8.91.64c-6,.39-12,.6-18,.83q-17.91.68-35.85.43Q173,95.1,163,94.72a.55.55,0,0,0,0,1.09Z"/><path class="cls-4" d="M155.32,129.45q20.09.66,40.16.85c6.73.07,13.46,0,20.2,0,6.33-.07,12.67-.17,19-.7,3.53-.3,7.05-.73,10.54-1.34a54.15,54.15,0,0,0,10.35-2.62.47.47,0,0,0-.23-.92c-3,.76-6.06,1.58-9.14,2.17s-6.31,1-9.5,1.33c-6.27.59-12.57.74-18.86.84-13.34.19-26.69,0-40-.2q-11.22-.2-22.45-.33a.48.48,0,0,0,0,.95Z"/><path class="cls-4" d="M339.84,85.31q-13-5.91-26.35-11.15c-8.86-3.48-17.79-6.73-26.75-9.93-2.49-.89-5-1.7-7.54-2.5S274,60,271.37,59.37c-.45-.11-.82.59-.34.79,2.19.88,4.47,1.56,6.71,2.32s4.48,1.51,6.72,2.29c4.46,1.57,8.94,3.09,13.4,4.67,9,3.2,17.89,6.66,26.7,10.3,5,2.06,10,4.07,14.91,6.2.42.18.81-.44.37-.63Z"/><path class="cls-4" d="M337,89c-8.21-1.35-16.42-.51-24.62.47s-16.58,1.76-24.91,2q-3.52.12-7,.14a71.23,71.23,0,0,0-7.16.09c-.55,0-.83,1-.16,1.06a42.46,42.46,0,0,0,6.18.15c2.06,0,4.11,0,6.17-.12q6.29-.19,12.56-.66T310.39,91c4.09-.5,8.17-1,12.28-1.36a60.1,60.1,0,0,1,14.06.28c.57.09.85-.79.25-.88Z"/><path class="cls-4" d="M338.83,93.73c-4.35,2-8.73,3.93-13.05,6s-8.63,4.12-13,6.13q-13,6.08-26.33,11.59c-2.44,1-4.91,2-7.38,2.93s-5.06,1.87-7.54,2.93c-.47.2-.15,1,.33.81,4.59-1.41,9.06-3.34,13.5-5.15s8.77-3.61,13.12-5.51c8.77-3.82,17.46-7.82,26.11-11.89,4.9-2.3,9.72-4.78,14.58-7.2.44-.21.06-.84-.37-.63Z"/><path class="cls-4" d="M340.15,85a4.84,4.84,0,0,0-.58-1.16,4.7,4.7,0,0,0-.44-.54,2.09,2.09,0,0,0-.22-.2,1.59,1.59,0,0,0-.21-.15,1.09,1.09,0,0,0-.24-.07A.5.5,0,0,0,338,83a.49.49,0,0,0-.14.47,1.32,1.32,0,0,0,.24.54l.23.4a7.66,7.66,0,0,1,.43.86l-.07-.17c0,.08.06.17.1.26a.71.71,0,0,0,.33.43.72.72,0,0,0,.54.06.76.76,0,0,0,.45-.34.66.66,0,0,0,.07-.53Z"/><path class="cls-4" d="M338.71,84.79a4.5,4.5,0,0,0-1.2.25l-.61.28a3.59,3.59,0,0,0-.54.4.58.58,0,0,0,.56,1l.39-.09.39-.11a7.67,7.67,0,0,1,.81-.15l-.2,0,.37,0a.87.87,0,0,0,.57-.24.79.79,0,0,0,.23-.55.75.75,0,0,0-.22-.55.72.72,0,0,0-.55-.21Z"/><path class="cls-4" d="M337.07,88.15c-.22-.27-.43-.55-.66-.8s-.23-.26-.35-.38l-.18-.18a3.53,3.53,0,0,0-.32-.21.6.6,0,0,0-.63.06.57.57,0,0,0-.21.58,1.6,1.6,0,0,0,.12.37l.12.22.27.44c.18.3.39.57.59.85a.74.74,0,0,0,.29.29l.18.07a.81.81,0,0,0,.69-.15.75.75,0,0,0,.3-.51.51.51,0,0,0,0-.3.69.69,0,0,0-.2-.35Z"/><path class="cls-4" d="M335.7,89.47l-.27.22.19-.14-.73.55.18-.14a23.2,23.2,0,0,0-1.84,1.43.56.56,0,0,0-.1.68.6.6,0,0,0,.63.25,7.91,7.91,0,0,0,3.14-1.68.83.83,0,0,0,.26-.59.84.84,0,0,0-.25-.6.87.87,0,0,0-.59-.24,1.11,1.11,0,0,0-.62.26Z"/><path class="cls-4" d="M338.87,93c-.28-.14-.55-.28-.82-.4l-.54-.21a1,1,0,0,0-.62-.08.5.5,0,0,0-.36.58,1,1,0,0,0,.39.5l.46.34c.25.18.5.34.76.5a.7.7,0,0,0,.53.07.77.77,0,0,0,.45-.34.75.75,0,0,0,.08-.53.66.66,0,0,0-.33-.43Z"/><path class="cls-4" d="M338.2,94.47c-.15.37-.3.74-.43,1.12-.07.18-.14.36-.2.55a4.91,4.91,0,0,0-.16.58.52.52,0,0,0,.31.62.57.57,0,0,0,.68-.24c.1-.17.22-.34.31-.52l.27-.52c.19-.35.35-.71.52-1.07a.82.82,0,0,0,.08-.53.7.7,0,0,0-.95-.45.75.75,0,0,0-.43.46Z"/><path class="cls-4" d="M252.29,56.57a13.25,13.25,0,0,0-1.13-1l-.73-.55a2.9,2.9,0,0,0-.81-.44.8.8,0,0,0-.88.37,1,1,0,0,0-.11.38.78.78,0,0,0,.23.54,2.31,2.31,0,0,0,.53.4l.42.3-.17-.12a13,13,0,0,1,1.49,1.27.84.84,0,0,0,1.15,0,.8.8,0,0,0,0-1.13Z"/><path class="cls-4" d="M251,57.42a8.24,8.24,0,0,0-.82.64,6.16,6.16,0,0,0-.67.77,2.94,2.94,0,0,0-.66,1.76.5.5,0,0,0,.31.46.54.54,0,0,0,.56-.12,12.16,12.16,0,0,0,1-1,9.36,9.36,0,0,1,1.08-1l-.18.14.22-.16a1,1,0,0,0,.41-.52.78.78,0,0,0-.08-.63.85.85,0,0,0-1.16-.29Z"/><path class="cls-4" d="M254.34,91.63a11.24,11.24,0,0,0-1-.79c-.16-.11-.32-.2-.48-.29a1.88,1.88,0,0,0-.78-.2.55.55,0,0,0-.46.27.53.53,0,0,0,0,.52,1.82,1.82,0,0,0,.39.53l.4.37q.42.36.81.75a.84.84,0,0,0,.56.22.86.86,0,0,0,.84-.81.78.78,0,0,0-.24-.57Z"/><path class="cls-4" d="M253,93.68a10.3,10.3,0,0,1-.55.9c-.19.29-.38.58-.6.86l.13-.17c-.2.26-.38.54-.58.81a.68.68,0,0,0,.11.82.69.69,0,0,0,.82.09,5.48,5.48,0,0,0,.72-.55c.17-.18.34-.36.5-.55a7.69,7.69,0,0,0,.92-1.4.92.92,0,0,0,.1-.63.88.88,0,0,0-.4-.51.89.89,0,0,0-1.17.33Z"/><path class="cls-4" d="M255.09,123.33c-.47-.33-.94-.67-1.43-1a5.89,5.89,0,0,0-1.61-.84.59.59,0,0,0-.66.84,5.76,5.76,0,0,0,1.28,1.28c.45.36.91.71,1.38,1.06a1,1,0,0,0,.59.23.84.84,0,0,0,.68-.35.79.79,0,0,0,.18-.61.83.83,0,0,0-.41-.62Z"/><path class="cls-4" d="M254.06,125.44a20.81,20.81,0,0,0-1.16,2.6,8.82,8.82,0,0,0-.62,2.71.56.56,0,0,0,1,.27c.39-.77.69-1.68,1-2.41a20.92,20.92,0,0,1,1.2-2.36.82.82,0,0,0-.31-1.14.88.88,0,0,0-1.17.33Z"/><path class="cls-4" d="M125.5,59.3c1.86-1.24,3.72-2.45,5.61-3.63s3.83-2.29,5.68-3.53a.3.3,0,1,0-.3-.52c-2,1-3.84,2.27-5.71,3.48s-3.72,2.45-5.55,3.72c-.3.21,0,.68.27.48Z"/><path class="cls-4" d="M126.31,62.5c2.25-1.66,4.55-3.23,6.92-4.71,1.15-.72,2.31-1.41,3.49-2.08s2.56-1.32,3.74-2.12a.36.36,0,0,0-.36-.63,29.66,29.66,0,0,0-3.65,2c-1.19.73-2.37,1.48-3.54,2.24-2.33,1.52-4.62,3.12-6.87,4.78-.28.21,0,.68.27.47Z"/><path class="cls-4" d="M128.69,64.87c2.49-1.52,5-3,7.61-4.33s5.21-2.62,7.75-4.07c.25-.14.09-.58-.19-.47a59.75,59.75,0,0,0-7.8,3.9q-3.85,2.19-7.59,4.6a.22.22,0,0,0,.22.37Z"/><path class="cls-4" d="M133.57,66.07c1.63-1,3.27-1.9,4.92-2.8.82-.45,1.64-.88,2.46-1.32s1.73-.85,2.52-1.38c.26-.18.12-.68-.22-.54a41.77,41.77,0,0,0-4.94,2.73c-1.65,1-3.3,2-4.94,3a.2.2,0,0,0,.2.35Z"/><path class="cls-4" d="M132.72,90.1c2.32-1.51,4.76-2.84,7.14-4.25s4.76-2.83,7.06-4.37a.29.29,0,0,0-.29-.5c-2.43,1.33-4.79,2.77-7.14,4.23s-4.66,3-7.07,4.37c-.35.19,0,.74.3.52Z"/><path class="cls-4" d="M133.33,93.87c5-3,10.18-5.71,15.24-8.64a.33.33,0,0,0-.33-.57C143,87.2,138,90.25,133,93.27a.34.34,0,1,0,.34.6Z"/><path class="cls-4" d="M134.87,97.28c5.36-3.06,10.95-5.65,16.41-8.53.23-.12.08-.52-.18-.42a121.26,121.26,0,0,0-16.49,8.51.26.26,0,0,0,.26.44Z"/><path class="cls-4" d="M136.67,100.23c2.49-1.49,5-2.91,7.6-4.27s5.22-2.56,7.78-3.93c.4-.21.06-.74-.33-.58-2.68,1.13-5.24,2.54-7.79,3.93s-5.07,2.84-7.56,4.33a.3.3,0,0,0,.3.52Z"/><path class="cls-4" d="M138.88,103.53c2.69-1.14,5.24-2.56,7.82-3.92s5.21-2.53,7.89-3.68c.34-.15.1-.65-.23-.57a31.27,31.27,0,0,0-8,3.43c-2.6,1.41-5.16,2.88-7.87,4.07-.47.21-.08.87.39.67Z"/><path class="cls-4" d="M129.21,125.86c3.08-1.68,6.19-3.33,9.18-5.16a.33.33,0,0,0-.33-.58c-3.15,1.56-6.2,3.32-9.26,5a.41.41,0,0,0,.41.72Z"/><path class="cls-4" d="M128.79,130.57c2.08-1.22,4.16-2.43,6.26-3.62s4.27-2.27,6.25-3.62a.39.39,0,0,0-.39-.68,67.32,67.32,0,0,0-6.36,3.45q-3.13,1.8-6.24,3.64a.48.48,0,0,0,.48.83Z"/><path class="cls-4" d="M132.9,133.07c2-1.34,4.1-2.63,6.19-3.88s4.25-2.4,6.33-3.67a.36.36,0,0,0-.36-.63,91.47,91.47,0,0,0-12.61,7.4c-.5.33,0,1.11.45.78Z"/><path class="cls-4" d="M138.38,134.16l4.1-2.36c1.37-.79,2.75-1.57,4-2.47a.37.37,0,0,0-.37-.65c-1.45.63-2.83,1.4-4.22,2.15l-4.16,2.27a.61.61,0,0,0,.61,1.06Z"/><path class="cls-4" d="M207.14,43.93c-1.08,1.81-2.21,3.59-3.37,5.34-.57.87-1.15,1.73-1.73,2.59a21.54,21.54,0,0,0-1.72,2.69.49.49,0,0,0,.79.58,15.78,15.78,0,0,0,2-2.44c.64-.86,1.26-1.74,1.86-2.63,1.21-1.77,2.35-3.58,3.44-5.42.5-.84-.8-1.52-1.29-.71Z"/><path class="cls-4" d="M199.17,45.2c.6.8,1.17,1.62,1.72,2.46a27.38,27.38,0,0,0,1.73,2.52c.35.41,1.08,0,.93-.54a11.42,11.42,0,0,0-1.36-2.73,30,30,0,0,0-1.71-2.46.76.76,0,0,0-1-.26.74.74,0,0,0-.29,1Z"/><path class="cls-4" d="M308,56.09c-1.05-.46-2.3-.91-3.37-.25a1.79,1.79,0,0,0-.58,2.68c1.29,1.59,3.73.92,4.68-.64a.47.47,0,0,0-.53-.68c-1.29.25-.68,1.89-.4,2.67s.53,1.45.8,2.18a6.15,6.15,0,0,1,.46,1.78c0,1.48-1.54,1.5-2.65,1.48a16.12,16.12,0,0,1-4.34-.79.57.57,0,0,0-.44,1,9.33,9.33,0,0,0,4.4,1c1.24,0,2.84,0,3.68-1.13s.45-2.42,0-3.55c-.14-.36-1.54-3.75-1.31-3.82l-.53-.68a1.89,1.89,0,0,1-2.53.6c-.5-.32-.6-.81-.06-1.15s1.48,0,2.09.22,1.3-.7.6-1Z"/><path class="cls-4" d="M263.87,59.29a2.94,2.94,0,0,0-.54-1.77,1.25,1.25,0,0,0-1.71-.19,1.54,1.54,0,0,0-.42,1.85,1.93,1.93,0,0,0,1.83,1,2.73,2.73,0,0,0,2.54-3.1,2.62,2.62,0,0,0-1.25-1.87,1.73,1.73,0,0,0-2.25.34,3,3,0,0,0,.31,4.34,2.08,2.08,0,0,0,2.16.18,1.93,1.93,0,0,0,1.1-1.79,3.43,3.43,0,0,0-3.22-2.79,2,2,0,0,0-1.87,1,2.36,2.36,0,0,0-.05,2.18,3.47,3.47,0,0,0,1.64,1.57,4.21,4.21,0,0,0,2.05.51A2,2,0,0,0,266,59.56a2.42,2.42,0,0,0-.2-2.2,5.73,5.73,0,0,0-1.74-1.62,1.94,1.94,0,0,0-2.38-.12,3.38,3.38,0,0,0-.73,4,2.72,2.72,0,0,0,4.78.32,2.49,2.49,0,0,0,.06-2.18A3.49,3.49,0,0,0,264.15,56a5.16,5.16,0,0,0-2.33-.65A1.78,1.78,0,0,0,260,56.82a3.53,3.53,0,0,0,.34,2.21,3.08,3.08,0,0,0,3.55,1.7,2.85,2.85,0,0,0,2-3.34,4,4,0,0,0-3.42-2.9,2.27,2.27,0,0,0-2,1,2.77,2.77,0,0,0-.25,2.25,4,4,0,0,0,1.38,1.9.56.56,0,0,0,.71,0,.53.53,0,0,0,.15-.69,6.35,6.35,0,0,1-.89-1.46,2.14,2.14,0,0,1-.1-.35,1,1,0,0,1,0-.25c0-.07,0-.14,0-.21s0-.07,0,0a1.17,1.17,0,0,1,.05-.2s.1-.25.05-.16a.75.75,0,0,1,.07-.12s.13-.18,0-.08l.15-.14s.1-.07,0,0l.18-.09,0,0,.16,0c-.13,0,.11,0,.14,0h.14c-.14,0,.08,0,.09,0A2,2,0,0,1,263,56c-.12,0,.1.05.09.05l.19.1.13.07.15.1a3.38,3.38,0,0,1,1,1.18,1.44,1.44,0,0,1,.13,1.24c0-.1,0,.09,0,.08l-.06.11a.92.92,0,0,1-.18.23,1.54,1.54,0,0,1-.5.35,1.68,1.68,0,0,1-1.11.14,2.09,2.09,0,0,1-1.06-.72,2.41,2.41,0,0,1-.53-1.28,2,2,0,0,1,0-.54.63.63,0,0,1,.12-.28c.05-.08-.08.05.05-.06-.08.07.18-.09.07,0a1,1,0,0,1,.52,0,5.22,5.22,0,0,1,.88.25c.9.33,2,1,1.94,2a.73.73,0,0,1,0,.25s-.06.19,0,.08l-.07.15-.06.09c.06-.1,0,0-.05.05l-.12.12c-.11.11.08,0,0,0l-.27.16s-.14,0,0,0l-.16.06a1.2,1.2,0,0,1-.53.07,1.36,1.36,0,0,1-1-.39,2,2,0,0,1-.56-1.1,2.56,2.56,0,0,1,.1-1.25,2.37,2.37,0,0,1,.23-.45,1.07,1.07,0,0,1,.14-.16s.17-.13.08-.07l.11-.06c.07,0,.08,0,0,0s.09,0,0,0a.89.89,0,0,1,.61.19,8.19,8.19,0,0,1,.68.47,3,3,0,0,1,1,1.1,1,1,0,0,1-.16,1.12.93.93,0,0,1-.38.16,2.07,2.07,0,0,1-.66,0,3,3,0,0,1-2.24-1.64,1,1,0,0,1,.27-1.09c-.07.05.2-.11.1-.07l.18,0h0a1.38,1.38,0,0,1,.7.06,2.82,2.82,0,0,1,1.2.71c.31.29.65.75.52,1.16a.89.89,0,0,1-.8.55,1.22,1.22,0,0,1-1-.56,1.78,1.78,0,0,1-.2-1.4,2.92,2.92,0,0,1,.32-.75c.12-.18.22-.3.39-.33.41-.05.81.34,1,.68a1.59,1.59,0,0,1,.12,1.28,1.43,1.43,0,0,1-2,.82.5.5,0,0,1-.21-.71c.07-.12.13-.17.23-.17a.4.4,0,0,1,.32.2,2.09,2.09,0,0,1,.33,1.1c0,.51.83.5.81,0Z"/><path class="cls-4" d="M264.23,93.45a1.23,1.23,0,0,0,1.08-.73,1.92,1.92,0,0,0,0-1.54,3.26,3.26,0,0,0-1.85-2,2,2,0,0,0-2.33,1,2.28,2.28,0,0,0,.21,2.63,2.66,2.66,0,0,0,2.61.88,2.12,2.12,0,0,0,1.64-2.29A3.25,3.25,0,0,0,263.84,89a2.31,2.31,0,0,0-2.89.14,3.15,3.15,0,0,0-.58,2.78,3.76,3.76,0,0,0,1.5,2.21,2.89,2.89,0,0,0,2.94.3,2.86,2.86,0,0,0,1.46-2.28,3.49,3.49,0,0,0-3.82-3.52,2.56,2.56,0,0,0-2.15,1.73,3.48,3.48,0,0,0,.11,2.44c.75,1.82,3.24,2.93,4.81,1.4a2.32,2.32,0,0,0,.57-2.58,2.64,2.64,0,0,0-2.65-1.36,4.6,4.6,0,0,0-1.75.56c-.49.26-.32,1.15.28,1.09.42,0,.87-.12,1.26-.15a4.56,4.56,0,0,1,.64,0s.14,0,0,0l.1,0,.27.07c.08,0,0,0,0,0l.12,0a1.18,1.18,0,0,1,.19.11c.12.07,0,0,0,0l.08.06.09.1c.08.08-.05-.08,0,0a1.43,1.43,0,0,1,.12.21c-.06-.13,0,0,0,.09s0,0,0,0a.49.49,0,0,1,0,.12s0,.06,0,.09,0-.13,0,0a1.21,1.21,0,0,1-.05.18c0,.12,0,0,0,0a.56.56,0,0,0,0,.08l-.11.19c.06-.09-.07.07-.1.1l-.07.07-.05,0,0,0-.11.06s-.17.08-.06,0l-.24.07c.08,0-.12,0-.15,0h-.25c.07,0-.12,0-.14,0l-.24-.07-.14-.07a1.55,1.55,0,0,1-.22-.12,2,2,0,0,1-.36-.28,2.1,2.1,0,0,1-.5-.67l0-.09a1.18,1.18,0,0,1-.07-.2,2.42,2.42,0,0,1-.1-.45c0,.11,0,0,0-.07v-.22a1.48,1.48,0,0,1,0-.21s0-.06,0-.09,0,.08,0,0a1.94,1.94,0,0,1,.12-.39c-.05.11,0,0,0,0l.12-.19c-.07.1,0,0,.06-.06l.15-.14c-.1.09,0,0,.08,0a.58.58,0,0,1,.18-.08,1.69,1.69,0,0,1,.92,0,2.66,2.66,0,0,1,.86.39c.09.06-.06,0,0,0l.08.07.19.16.17.18.07.08c.07.09-.08-.13,0,.05a2,2,0,0,1,.35.79,1.39,1.39,0,0,1,0,.37c0,.1,0,0,0,.09a2,2,0,0,1-.06.26,1.18,1.18,0,0,1-.16.32.41.41,0,0,1-.05.09s-.09.12,0,.06,0,0,0,0l-.11.12-.1.09-.06,0-.09,0-.11.06s.09,0,0,0a1.17,1.17,0,0,1-.25.07,1.48,1.48,0,0,1-.85-.14,2.24,2.24,0,0,1-.4-.22c-.06,0,0,0,0,0l-.1-.08-.19-.18-.13-.14-.09-.1s.06.08,0,0-.18-.27-.26-.41a2,2,0,0,0-.1-.21c0-.07,0,0,0,0a.56.56,0,0,1,0-.12,3.6,3.6,0,0,1-.12-.44.51.51,0,0,0,0-.13s0,.09,0,0a1.77,1.77,0,0,1,0-.23,1.62,1.62,0,0,1,0-.22.31.31,0,0,1,0-.1c0,.09,0,0,0-.06a1.64,1.64,0,0,1,.13-.43c0,.06.06-.12.08-.14s0,0,0,0l.08-.09s.18-.11.07-.06l.19-.05h.16c.12,0-.06,0,.06,0l.14,0a2.32,2.32,0,0,1,.89.44,2.58,2.58,0,0,1,.59.6,1.23,1.23,0,0,1,.23.75,1.13,1.13,0,0,1-.08.38c0-.06-.06.09-.07.12l-.09.09a1.08,1.08,0,0,1-.79.18,1.61,1.61,0,0,1-.7-.25,1.17,1.17,0,0,1-.29-.23,1.06,1.06,0,0,1-.23-.32,1.17,1.17,0,0,1-.09-.31,1.45,1.45,0,0,1,0-.29,1.25,1.25,0,0,1,.33-.61.84.84,0,0,1,.57-.26,1.23,1.23,0,0,1,.77.27,2.37,2.37,0,0,1,1,1.73c0,.24-.13.56-.41.58-.46,0-.5.75,0,.73Z"/><path class="cls-4" d="M264.61,125.4c1-.82,1.92-2.26,1.07-3.53a1.67,1.67,0,0,0-1.79-.71,2.51,2.51,0,0,0-1.54,1.35,2.9,2.9,0,0,0-.26,2,1.65,1.65,0,0,0,1.63,1.24,2.66,2.66,0,0,0,2.19-3.26,3.28,3.28,0,0,0-3.23-2.6,2.61,2.61,0,0,0-2.2,3.23,3.19,3.19,0,0,0,2.9,2.48,2.56,2.56,0,0,0,2.79-2,1.69,1.69,0,0,0-1.12-2,3,3,0,0,0-2.17.2,2.43,2.43,0,0,0-1.36,1.65,2.14,2.14,0,0,0,.6,2,1.44,1.44,0,0,0,1,.39.64.64,0,0,0,.34-1.18c-.14-.1.08.09,0,0a.3.3,0,0,0-.08-.08s-.22-.25-.11-.09a2.07,2.07,0,0,1-.15-.25s-.07-.18,0-.06,0-.11,0-.14l0-.11c0,.18,0,0,0,0a.49.49,0,0,1,0-.12c0-.18-.06.13,0,0a.76.76,0,0,0,0-.11c0,.14,0,0,0,0l.09-.14c.09-.15-.07,0,.05-.06l.14-.13s.12-.07,0,0l.29-.17c.19-.1-.08,0,0,0l.16,0,.17,0,.1,0c-.07,0-.07,0,0,0a1.29,1.29,0,0,1,.34,0c-.13,0,.21.06.15,0s.11.06.1.06,0,0,0,0,0-.11,0,0,0-.07,0,.09a.9.9,0,0,1-.06.37.75.75,0,0,0-.07.12s-.11.12,0,0a1.67,1.67,0,0,1-.23.23c.13-.11,0,0-.1,0l-.12.06h0a2.1,2.1,0,0,1-.24.06s-.22,0,0,0h-.61l-.29-.06-.11,0-.11,0c.08,0,.08,0,0,0l-.23-.11-.12-.08s-.16-.11-.07,0l-.08-.07-.11-.1a1.44,1.44,0,0,1-.22-.26,1.72,1.72,0,0,1-.35-1.23c0-.12,0,.12,0-.08a1,1,0,0,1,.05-.16s.06-.15,0-.07l.07-.12a.62.62,0,0,1,.13-.2l.14-.15c.09-.09,0,0,.08-.06a1.18,1.18,0,0,1,1.16-.07,2.42,2.42,0,0,1,1,.8,1.69,1.69,0,0,1-.11,2.26,1,1,0,0,1-.47.23h-.17s-.11,0-.06,0-.17-.1-.09,0a1.36,1.36,0,0,1-.12-.12c.06.08,0,0,0,0s-.08-.18,0-.07l0-.11a1.2,1.2,0,0,1,0-.6c.06-.64.87-1.85,1.55-1.16a1.18,1.18,0,0,1,.22,1.11,2.85,2.85,0,0,1-1.05,1.3.46.46,0,0,0,0,.65.47.47,0,0,0,.65,0Z"/><path class="cls-1" d="M256,51.59q.42,7.52,1.39,15c0,.35,0,.85.32,1.11s.92.14,1.31.12q1.84-.1,3.69-.18c2.53-.11,5.1-.11,7.62-.37a.37.37,0,0,0,.19-.69c-.44-.26-.44-1.21-.5-1.65l-.3-2c-.19-1.27-.41-2.53-.64-3.8s-.45-2.52-.69-3.77-.44-2.62-.74-3.9a.4.4,0,0,0-.38-.29c-4,.2-8.08,0-12,.69a.35.35,0,0,0,.07.69c2,0,4-.32,6-.43s4-.25,6-.16l-.38-.29c.17,1.39.45,2.78.68,4.17s.46,2.77.7,4.16.49,2.68.76,4c.14.66.26,1.33.4,2a1.76,1.76,0,0,0,.66,1.13l.27-.63c-2.29,0-4.6.2-6.88.33-1.15.06-2.3.13-3.44.17l-1,0c-.13,0-.61.11-.74,0s-.23-1.13-.27-1.46A135.11,135.11,0,0,1,257,51.58c0-.61-1-.58-1,0Z"/><path class="cls-1" d="M257.58,87.26c0,2.65,0,5.29.22,7.93.14,1.84.37,4,2.58,4.25a31.2,31.2,0,0,0,3.62.11l4,.08c.59,0,1.21.07,1.8,0a.65.65,0,0,0,.66-.56,7.18,7.18,0,0,0,0-1.67c0-.68,0-1.36-.09-2A55.45,55.45,0,0,0,269.14,87a.41.41,0,0,0-.39-.3c-2,.11-3.92.2-5.89.24s-3.92-.15-5.88-.14c-.38,0-.52.62-.1.69a31.65,31.65,0,0,0,5.84.23c2,0,4-.12,6-.21l-.39-.3a60,60,0,0,1,1,6.65c.1,1.08.17,2.16.22,3.23a15.66,15.66,0,0,0,0,1.68s0,.41.09.2,0,0-.17-.06-.67,0-1,0c-2.28,0-4.57,0-6.85-.07-1,0-2,0-2.55-1a6.81,6.81,0,0,1-.56-2.83c-.2-2.56-.23-5.13-.26-7.69a.35.35,0,0,0-.7,0Z"/><path class="cls-1" d="M258.41,118.1c.12,2.46.25,4.91.35,7.36.05,1.24,0,2.51.16,3.74.09,1,1,.87,1.83.86,2.49,0,5,.12,7.49.17.86,0,1.79.18,1.95-.89a20.94,20.94,0,0,0,.15-3.54,35.53,35.53,0,0,0-.3-4c-.08-.67-.18-1.33-.31-2s-.43-1.55.26-1.79c.4-.15.41-.83-.09-.8-3.6.24-7.25.3-10.82.75-.49.07-.56.8,0,.8,3.6,0,7.23-.48,10.82-.74l-.09-.79a1.55,1.55,0,0,0-1.18,1.65,28,28,0,0,0,.5,3.39,34,34,0,0,1,.24,3.64c0,.59,0,1.18,0,1.77,0,.31,0,.63,0,.94s.05.71-.1.93l.26-.19a3.4,3.4,0,0,1-1.35,0l-1.33,0-2.65,0c-.85,0-1.7,0-2.54-.06l-1.33-.06c-.6,0-.48,0-.51-.63-.17-3.5-.33-7-.48-10.49,0-.57-.91-.55-.88,0Z"/><path class="cls-1" d="M236.06,170.42c.39,3,.82,6.05,1.24,9.07l.32,2.2c.07.5,0,1.16.56,1.43s1,0,1.48-.07a21.55,21.55,0,0,1,2.54-.2,28.79,28.79,0,0,1,4.45.33,10.55,10.55,0,0,0,3.84,0,4.64,4.64,0,0,0,2.73-1.78,6.15,6.15,0,0,0,.94-3.18,21.15,21.15,0,0,0-.39-4.83c-.14-.78-.28-1.56-.43-2.34,0-.2-.46-2.33-.25-2.32v-.87c-2.93.14-5.87.4-8.8.6s-5.87.39-8.8.7c-.56.06-.62.91,0,.88,2.94-.12,5.87-.37,8.8-.6s5.88-.42,8.81-.71c.54-.05.59-.91,0-.87-1,.08-1,1.16-1,1.92.14,1.35.41,2.67.64,4a19.86,19.86,0,0,1,.37,4.21,4.85,4.85,0,0,1-1.15,3.34c-2,1.89-5.22.8-7.59.63a24.25,24.25,0,0,0-4.26.07l-1,.11a2.31,2.31,0,0,1-.51.07c.18,0,0,.18.09,0a2.88,2.88,0,0,0-.13-1l-.16-1.22c-.43-3.27-.86-6.54-1.34-9.81-.1-.69-1.15-.38-1.07.29Z"/><path class="cls-1" d="M265.59,175.3h3.09a20,20,0,0,0,3.09-.14c.43-.07.46-.81,0-.88a19.79,19.79,0,0,0-3.08-.13h-3.09a.58.58,0,0,0,0,1.15Z"/><path class="cls-1" d="M266.87,178.26c1.23-.08,2.45-.11,3.68-.09a25,25,0,0,0,3.67.07.57.57,0,0,0,.52-.39.51.51,0,0,0-.24-.58,11.46,11.46,0,0,0-3.77-.57,35,35,0,0,0-3.83,0,.82.82,0,0,0-.79.77.76.76,0,0,0,.76.75Z"/><path class="cls-1" d="M288.3,175.59c-1.23-.71-2.63-1.36-4-.77a2.9,2.9,0,0,0-1.83,3A2.56,2.56,0,0,0,285,180a2.45,2.45,0,0,0,2.24-2.42l-1.06.29a22.67,22.67,0,0,1,2.31,8.91,5.06,5.06,0,0,1-.1,1.82c-.23.68-.67.61-1.3.42a26.06,26.06,0,0,1-4.14-1.86c-.56-.29-1.21.45-.72.92a10.5,10.5,0,0,0,4.78,2.47c1.78.39,2.79-.86,2.88-2.52a18.63,18.63,0,0,0-.74-5.35,27.77,27.77,0,0,0-2-5.38c-.25-.51-1.06-.24-1.06.29a1.13,1.13,0,0,1-1.41,1.1,1.47,1.47,0,0,1-.9-1.59,1.66,1.66,0,0,1,1.41-1.22,4.2,4.2,0,0,1,2.4.79c.71.39,1.38-.69.66-1.11Z"/><path class="cls-1" d="M289.81,171.85a8,8,0,0,0,3.1-.44.63.63,0,0,0,.45-.66.58.58,0,0,0-.58-.51c-.48,0-1,0-1.43,0-.24,0-.48,0-.71,0l-.34,0-.17,0h-.07a1,1,0,0,0-.65.09.85.85,0,0,0-.42.63.82.82,0,0,0,.82.94Z"/><path class="cls-1" d="M294.5,170a29.3,29.3,0,0,0,1.39,4.86c.24.56,1.19.25,1.16-.32a28.38,28.38,0,0,0-.89-5,.84.84,0,0,0-1-.59.89.89,0,0,0-.63,1Z"/><path class="cls-1" d="M302.68,172a11.65,11.65,0,0,0-1.83,6.24,6.51,6.51,0,0,0,2.51,5.2c.62.44,1.24-.5.79-1a7.11,7.11,0,0,1-1.8-4.44,10.33,10.33,0,0,1,1.57-5.3c.46-.81-.78-1.46-1.24-.68Z"/><path class="cls-1" d="M307.8,176.29a8,8,0,0,1,3,.28l-.47-.6a4.15,4.15,0,0,1-1.18,2.38,6,6,0,0,0-1.56,2.77c-.17,1.34,1,2,2.07,2.46a4.84,4.84,0,0,0,3.64.15.61.61,0,0,0-.13-1.12,27.3,27.3,0,0,1-3-.5,2.16,2.16,0,0,1-1.05-.57c-.23-.31,0-.76.18-1,.83-1.51,2.18-2.7,2.26-4.53a.61.61,0,0,0-.46-.6,8.43,8.43,0,0,0-3.27-.42.7.7,0,0,0-.7.68.66.66,0,0,0,.67.67Z"/><path class="cls-1" d="M306.88,179.73c1.34-.12,2.68-.15,4-.15.67,0,1.34,0,2,0a7.88,7.88,0,0,0,2,0,.54.54,0,0,0,.14-1,5.71,5.71,0,0,0-1.92-.48c-.7-.09-1.41-.16-2.12-.2a26.87,26.87,0,0,0-4.11.09.9.9,0,0,0-.87.85.82.82,0,0,0,.84.83Z"/><path class="cls-1" d="M315.48,174.17a9.42,9.42,0,0,1,3.1,5c.37,2.2-1.05,4-2,5.81a.62.62,0,0,0,1,.73,8.4,8.4,0,0,0,2.59-6.69,10.63,10.63,0,0,0-3.57-6c-.73-.69-1.88.43-1.14,1.14Z"/><path class="cls-1" d="M271.51,70.71a13.76,13.76,0,0,0,1.11,1.41c.18.2.36.39.55.58a3.55,3.55,0,0,0,.78.55.53.53,0,0,0,.71-.71,12.07,12.07,0,0,0-1.1-1.48l.11.14c-.31-.39-.61-.8-.89-1.22a.75.75,0,0,0-1-.25.74.74,0,0,0-.28,1Z"/><path class="cls-1" d="M274.76,70.74a25,25,0,0,0-1.6,3.19,11.2,11.2,0,0,0-1,3.39.56.56,0,0,0,1.05.26c.46-1,.73-2.17,1.14-3.24a22.57,22.57,0,0,1,1.46-3,.61.61,0,0,0-1.06-.59Z"/><path class="cls-1" d="M275.34,76.34c0,.38,0,.77.07,1.15,0,.19,0,.38,0,.57a3,3,0,0,0,.12.67.49.49,0,0,0,.56.36.53.53,0,0,0,.46-.5,3.94,3.94,0,0,0,.06-.58c0-.19,0-.37,0-.55l0-1.13a.62.62,0,0,0-.62-.62.66.66,0,0,0-.65.63Z"/><path class="cls-1" d="M272.41,103.07c.2.31.39.63.6.93l.3.44c.13.18.28.35.42.52a.54.54,0,0,0,.63.07.53.53,0,0,0,.25-.58,4.67,4.67,0,0,0-.24-.62l-.23-.49c-.16-.33-.33-.65-.5-1a.71.71,0,0,0-1.23.7Z"/><path class="cls-1" d="M274.5,102.71a17.6,17.6,0,0,0-1.4,5.31.6.6,0,0,0,.53.6.65.65,0,0,0,.69-.45c.56-1.7,1.06-3.41,1.76-5.06a.79.79,0,0,0-.57-1,.87.87,0,0,0-1,.58Z"/><path class="cls-1" d="M276.26,107.71a1.19,1.19,0,0,1,.15-.09c-.1,0,0,0,0,0h.09c-.1,0,0,0,.05,0h0s.1.11,0,0,.08.17.05.06,0,.15,0,0v.09c0-.06,0-.06,0,0l0,0a184635340726.23,184635340726.23,0,0,1-.1.16s0,0,0,0l-.09.11a1.44,1.44,0,0,0-.37.81.88.88,0,0,0,.31.8,2,2,0,0,0,.89.31c.32.06.63.1,1,.13l.4,0a2,2,0,0,0,.54-.06.55.55,0,0,0,.15-1,2,2,0,0,0-.54-.19l-.42-.07c-.32,0-.64-.08-1-.1h-.34c-.06,0-.07,0,0,0a.1.1,0,0,1,.07,0,.34.34,0,0,1,.06.12c0-.06,0-.05,0,0s0-.06,0,0l0-.09c0,.09,0,0,0,0s.14-.19.21-.29a1.22,1.22,0,0,0-.09-1.59,1.29,1.29,0,0,0-1.64-.1.55.55,0,0,0-.2.71.52.52,0,0,0,.71.17Z"/><path class="cls-1" d="M273.3,133.42a8.58,8.58,0,0,0,.65,1c.14.18.28.36.43.52a3.48,3.48,0,0,0,.44.42.41.41,0,0,0,.53,0,.39.39,0,0,0,.11-.51c-.18-.34-.41-.66-.61-1s-.42-.66-.6-1a.55.55,0,0,0-.95.54Z"/><path class="cls-1" d="M275.29,133.7a49.83,49.83,0,0,0-1.65,5.2c-.09.44.55.74.75.3a49.81,49.81,0,0,0,1.89-5.25c.21-.64-.78-.86-1-.25Z"/><path class="cls-1" d="M276.58,137.64a2.09,2.09,0,0,0,.65.13h.18s0,0,0,0,0,.05,0,0v-.22s-.09.08-.09.09l-.23.22-.51.43a.5.5,0,0,0,.35.85h.22c.08,0-.06,0,0,0l.09,0a.73.73,0,0,1,.25.15.59.59,0,0,1,.17.22.53.53,0,0,1,0,.3v0a.59.59,0,0,0,0,.08l-.05.06,0,0h0l-.1.06-.08,0s.07,0,0,0l-.13,0h0l-.09,0h0c.11,0-.12,0-.16,0s0,0,0,0H277a1.54,1.54,0,0,0-.3,0,.46.46,0,0,0-.21.76,1.15,1.15,0,0,0,1.41,0,1.64,1.64,0,0,0,.73-1.1,1.58,1.58,0,0,0-1.73-1.83l.48.84c.19-.23.37-.45.58-.66a1,1,0,0,0,.4-.75.88.88,0,0,0-.49-.69,1.27,1.27,0,0,0-.38-.11l-.24,0s-.15-.06-.08,0a.55.55,0,0,0-.73.21.51.51,0,0,0,.19.71Z"/><path class="cls-1" d="M89.36.33c-.89,1.42-.27,3,0,4.49a4,4,0,0,1,0,1.66,2.18,2.18,0,0,1-.83,1.23.42.42,0,0,0,.29.71c1.49-.05,1.9-1.88,1.82-3.06C90.64,4,89.7,2.27,90.57,1c.51-.75-.74-1.43-1.21-.67Z"/><path class="cls-1" d="M94,15.89c-1.14-.06-2.82-.14-3.26-1.44-.34-1,.74-1.94,1.12-2.76A2.39,2.39,0,0,0,91.49,9C90.93,8.34,90.07,7.83,89.8,7a.42.42,0,0,0-.81.11c-.14,1.1.87,1.82,1.54,2.52a1.47,1.47,0,0,1,.53,1.24,4.39,4.39,0,0,1-.78,1.46,2.66,2.66,0,0,0-.15,3.25c.92,1.19,2.45,1.34,3.85,1.4a.52.52,0,0,0,0-1Z"/><path class="cls-1" d="M103.91,6.86a5.62,5.62,0,0,0-2.63-.67,1.74,1.74,0,0,0-1.31.47,1.49,1.49,0,0,0-.39,1.12,2.42,2.42,0,0,0,1.52,1.87c.46.25,1.27.73.84,1.36s-1.7.41-2.45.37a.42.42,0,0,0-.12.82,3.21,3.21,0,0,0,2.61,0,1.85,1.85,0,0,0,1.07-1.91c-.16-.83-.88-1.29-1.5-1.75a3.68,3.68,0,0,1-.37-.32,1.5,1.5,0,0,1-.24-.33.62.62,0,0,1,0-.29c0-.07,0,0,0,0s0-.06,0-.09,0,0,0,0-.06,0,0,0,0,0,0,0l.11,0h.26a3.35,3.35,0,0,1,.63,0,4.43,4.43,0,0,1,1.33.44c.71.36,1.38-.72.65-1.11Z"/><path class="cls-1" d="M112.4,7.19a3,3,0,0,0-3.92,1.5,2.86,2.86,0,0,0,0,2.15,2.74,2.74,0,0,0,1.72,1.59,5.52,5.52,0,0,0,2.62.11.38.38,0,0,0,0-.76,10.38,10.38,0,0,1-1.85-.21,2.21,2.21,0,0,1-1.37-.83,1.84,1.84,0,0,1,.66-2.61A2.1,2.1,0,0,1,112,8.06c.49.19.88-.67.37-.87Z"/><path class="cls-1" d="M110.1,10.31a10.32,10.32,0,0,0,3.13-.31.38.38,0,0,0,.29-.42.36.36,0,0,0-.38-.33,15.24,15.24,0,0,1-3,0,.56.56,0,0,0-.55.53.53.53,0,0,0,.53.53Z"/><path class="cls-1" d="M121.26.63a4.17,4.17,0,0,0-3.39,1.64c-.9,1.36-.27,3,.64,4.13a24.09,24.09,0,0,1,1.7,2.08,6.83,6.83,0,0,1,.93,2.41,5.84,5.84,0,0,1,.11,1.32c0,.49-.1.87-.66.87a8.89,8.89,0,0,1-2.58-.65.4.4,0,0,0-.32.73c1,.66,3.36,1.63,4.18.27.73-1.21.12-3.18-.4-4.35A9.48,9.48,0,0,0,120.17,7a7.32,7.32,0,0,1-1.63-2.49c-.48-1.77,1.15-2.7,2.69-2.72.76,0,.8-1.2,0-1.17Z"/><path class="cls-1" d="M131.21,6.39s0,0,0,0a.78.78,0,0,0,0-.14.64.64,0,0,0,0-.2,1.54,1.54,0,0,0-.08-.19l-.1-.12,0,0a.69.69,0,0,0-.28-.15h-.18l-.15,0h0a.52.52,0,0,0-.13.06l-.11.08,0,0a1.13,1.13,0,0,0-.1.13l0,.05a.59.59,0,0,0,0,.08l0,.08s0,.05,0,.08a.41.41,0,0,0,0,.19h0a.69.69,0,0,1,0,.13v0l0,0a1,1,0,0,0,.08.11.43.43,0,0,0,.71-.2,0,0,0,0,0,0,0l0,.1,0,0-.08.09a.87.87,0,0,0,.09-.11l.06-.13-.05.11,0-.06-.08.1a.12.12,0,0,1,0,0l-.11.08,0,0,.13-.1-.1.08,0,0-.12,0h-.07l-.11,0,.07,0-.09-.07,0,0-.07-.09,0,.06,0-.1a.14.14,0,0,1,0,.07V6.19a.29.29,0,0,0,0,.16.28.28,0,0,0,0,.15.29.29,0,0,0,.11.11.27.27,0,0,0,.14.07.42.42,0,0,0,.31,0l.09-.07a.42.42,0,0,0,.11-.18Z"/><path class="cls-1" d="M130.87,11.63a.76.76,0,0,0,.34-.43.93.93,0,0,0,0-.44.81.81,0,0,0-.21-.41.46.46,0,0,0-.17-.14.22.22,0,0,0-.11-.05l-.11,0-.14,0a.54.54,0,0,0-.21.05.55.55,0,0,0-.27.23.88.88,0,0,0-.11.39.63.63,0,0,0,0,.27c0,.05,0,.09,0,.13l.06.13a1,1,0,0,0,.18.23,1.32,1.32,0,0,0,.22.18l.13.07a1.16,1.16,0,0,0,.55.12,1,1,0,0,0,.29,0,1.22,1.22,0,0,0,.28-.14.46.46,0,0,0,.18-.16.44.44,0,0,0,.1-.19.52.52,0,0,0-.05-.44,1.44,1.44,0,0,0-.47-.45l-.08,0-.11,0a.59.59,0,0,0-.23-.05h0a1.09,1.09,0,0,0-.31,0l-.14.06-.12.09a.58.58,0,0,0-.16.32.33.33,0,0,0,0,.14.25.25,0,0,0,0,.14.19.19,0,0,0,.07.12.46.46,0,0,0,.16.15l.11.06,0,0a1.19,1.19,0,0,0,.2.08l-.14-.06a1.35,1.35,0,0,1,.26.15l-.12-.09.1.08v-.82l0,0,.12-.1-.08,0,.15-.06-.12,0,.15,0h0a.42.42,0,0,1-.16,0l.14.06-.17-.09.12.08a.53.53,0,0,1-.13-.13l.09.12-.11-.13.1.12a.46.46,0,0,1-.08-.13l.06.14a.65.65,0,0,1,0-.13l0,.14c0-.07,0-.14,0-.21v.05l-.41.52h0l-.14,0h0l-.13-.05a.09.09,0,0,1,.06,0l-.1-.08.06.06-.08-.1a.47.47,0,0,1,.06.09l-.05-.12a.25.25,0,0,1,0,.07l0-.12a.17.17,0,0,1,0,.1l0-.12a.14.14,0,0,1,0,.06l.05-.11,0,.06.08-.09,0,0,.1-.07h0a.55.55,0,0,0-.23.29.43.43,0,0,0,0,.35.43.43,0,0,0,.28.21.46.46,0,0,0,.36,0Z"/><path class="cls-1" d="M146.92,3,144,8A44.42,44.42,0,0,0,141.37,13c-.17.42.49.77.76.42a43.48,43.48,0,0,0,3.09-4.83l2.93-5c.47-.8-.77-1.46-1.23-.68Z"/><path class="cls-1" d="M143.65,7.41l-1.84-1.95c-.3-.31-.59-.63-.9-.94L140.43,4a1.51,1.51,0,0,0-.68-.49.61.61,0,0,0-.73.72,1.66,1.66,0,0,0,.45.67c.14.18.3.35.46.52.29.33.6.66.91,1l1.83,2a.69.69,0,0,0,1-1Z"/><path class="cls-1" d="M150.33,4.1c-1.6,2.9-1.72,7,.51,9.63.3.36.79-.11.62-.47A11,11,0,0,1,150.34,9a8.14,8.14,0,0,1,1-4.26.61.61,0,0,0-1.06-.59Z"/><path class="cls-1" d="M155.18,7.8c-.61.11-1.37.44-1.46,1.14s.74,1.06,1.23,1.49.77,1,.35,1.52l-.07.07-.09.06c-.06,0-.07,0,0,0a.35.35,0,0,1-.26,0,.49.49,0,0,1-.42-.32c-.11-.41-.66-.28-.71.09A1.13,1.13,0,0,0,154.77,13a1.41,1.41,0,0,0,1.4-.86,1.93,1.93,0,0,0-.14-1.78,2.76,2.76,0,0,0-.62-.7c-.23-.18-.5-.3-.72-.49a.33.33,0,0,1-.12-.2s0,0,0-.05l.07-.08a2,2,0,0,1,.71-.27.43.43,0,0,0,.31-.51.42.42,0,0,0-.51-.29Z"/><path class="cls-1" d="M157.16,5.2c1.38,1.44,2.89,3,3,5.13a8,8,0,0,1-.55,3.2c-.39,1.05-1,2-1.33,3.11a.44.44,0,0,0,.74.41,10.94,10.94,0,0,0,1.69-3.25,9.17,9.17,0,0,0,.69-3.69c-.13-2.44-1.67-4.22-3.3-5.88-.6-.62-1.58.34-1,1Z"/><path class="cls-1" d="M165.44,9.45a11.45,11.45,0,0,1,1.85-.06c.61,0,1.22.14,1.83.11a.42.42,0,0,0,.22-.77,4.73,4.73,0,0,0-2-.49,10.16,10.16,0,0,0-1.91,0,.64.64,0,0,0-.63.61.61.61,0,0,0,.6.6Z"/><path class="cls-1" d="M166.56,11.86c.6.06,1.21.13,1.83.17a10.16,10.16,0,0,0,1.83,0,.39.39,0,0,0,.11-.76,10.63,10.63,0,0,0-1.77-.43c-.6-.11-1.21-.21-1.81-.3a.68.68,0,0,0-.83.55.64.64,0,0,0,.64.73Z"/><path class="cls-1" d="M173.91,9.25a9.79,9.79,0,0,0,1,1.29,7.77,7.77,0,0,0,1.26,1,.39.39,0,0,0,.49-.11.38.38,0,0,0,0-.48c-.33-.38-.67-.76-1-1.14l-.22-.29-.12-.14-.06-.07c0-.06.06.07,0,0s-.31-.41-.45-.62a.53.53,0,0,0-.92.54Z"/><path class="cls-1" d="M177.1,9a23.29,23.29,0,0,0-1.4,9.7.47.47,0,0,0,.93,0c.13-1.59.24-3.19.49-4.77a28.12,28.12,0,0,1,1.15-4.62c.26-.75-.93-1-1.17-.3Z"/><path class="cls-1" d="M179.32,14.08a24.22,24.22,0,0,0,1,3.76.4.4,0,0,0,.43.28.42.42,0,0,0,.36-.39,24.29,24.29,0,0,0-.56-4,.61.61,0,0,0-.76-.43.65.65,0,0,0-.47.76Z"/><path class="cls-1" d="M184.7,2.54a.62.62,0,0,1,.66.51,1.46,1.46,0,0,1-.13,1.08,4.11,4.11,0,0,0-.6,2.41c.29,1.8,2.07,2.72,3.62,3.26.42.15.67-.48.3-.69-1.31-.79-3.47-1.89-3-3.78A4.39,4.39,0,0,0,186,3a1.27,1.27,0,0,0-1.3-1.09c-.4.05-.42.68,0,.62Z"/><path class="cls-1" d="M185,17.27c1.11.3,2.81.4,3.71-.48a2.22,2.22,0,0,0,0-2.82c-.54-.81-1.78-1.57-1.71-2.66.08-1.25,1.47-1.94,2.34-2.61.37-.29,0-.93-.45-.78A4.77,4.77,0,0,0,186.12,10a2.71,2.71,0,0,0,.38,3.11c.62.75,1.73,1.37,1.75,2.46,0,1.25-2.21.88-2.93.67s-1,.86-.29,1Z"/><path class="cls-1" d="M.87,87.06c-.89,1.42-.27,3,.05,4.5a3.68,3.68,0,0,1,0,1.65,2.24,2.24,0,0,1-.82,1.24.41.41,0,0,0,.28.7c1.49,0,1.9-1.88,1.83-3.06-.09-1.38-1-3.09-.16-4.36.51-.75-.73-1.42-1.21-.67Z"/><path class="cls-1" d="M5.51,102.62c-1.14-.05-2.81-.14-3.26-1.44-.33-1,.74-1.94,1.12-2.76A2.39,2.39,0,0,0,3,95.75c-.56-.68-1.42-1.19-1.68-2.07a.42.42,0,0,0-.81.12c-.14,1.1.87,1.81,1.54,2.52a1.45,1.45,0,0,1,.52,1.24A4.17,4.17,0,0,1,1.79,99a2.68,2.68,0,0,0-.15,3.25c.93,1.19,2.45,1.34,3.85,1.41a.53.53,0,0,0,0-1Z"/><path class="cls-1" d="M15.42,93.59a5.71,5.71,0,0,0-2.63-.67,1.8,1.8,0,0,0-1.31.47,1.54,1.54,0,0,0-.39,1.12,2.42,2.42,0,0,0,1.52,1.87c.46.26,1.27.73.84,1.36s-1.7.41-2.45.37a.44.44,0,0,0-.42.37.41.41,0,0,0,.3.45,3.27,3.27,0,0,0,2.62,0A1.87,1.87,0,0,0,14.56,97c-.15-.83-.87-1.28-1.49-1.75a3.79,3.79,0,0,1-.38-.32,1.64,1.64,0,0,1-.23-.32.67.67,0,0,1-.05-.3c0-.07,0,0,0,0l0-.09c0-.08-.06,0,0,0s-.07,0,0,0,0,0,0,0l.12,0h.25a3.45,3.45,0,0,1,.64.05,4.46,4.46,0,0,1,1.32.44c.71.37,1.39-.72.65-1.11Z"/><path class="cls-1" d="M23.91,93.92A3,3,0,0,0,20,95.42a2.9,2.9,0,0,0,0,2.15,2.77,2.77,0,0,0,1.73,1.6,5.75,5.75,0,0,0,2.61.11c.48-.07.54-.74,0-.77a9.64,9.64,0,0,1-1.86-.21,2.24,2.24,0,0,1-1.37-.83,1.84,1.84,0,0,1,.66-2.61,2.14,2.14,0,0,1,1.77-.07c.49.19.88-.67.37-.87Z"/><path class="cls-1" d="M21.61,97a10.28,10.28,0,0,0,3.13-.3.39.39,0,0,0,.29-.43.36.36,0,0,0-.38-.33,15.24,15.24,0,0,1-3,0,.55.55,0,0,0-.54.54.52.52,0,0,0,.52.52Z"/><path class="cls-1" d="M32.77,87.36A4.16,4.16,0,0,0,29.39,89c-.91,1.36-.28,3,.64,4.13a26,26,0,0,1,1.69,2.08,6.8,6.8,0,0,1,.93,2.42,5.8,5.8,0,0,1,.11,1.31c0,.49-.09.87-.66.87a9,9,0,0,1-2.58-.65c-.45-.14-.68.49-.31.74,1,.66,3.35,1.62,4.17.27S33.5,97,33,95.81a9.76,9.76,0,0,0-1.29-2.06,7.07,7.07,0,0,1-1.63-2.5c-.48-1.77,1.14-2.7,2.69-2.72.75,0,.79-1.2,0-1.17Z"/><path class="cls-1" d="M42.72,93.12a.07.07,0,0,0,0-.05.59.59,0,0,0,0-.14.64.64,0,0,0,0-.2s0-.13-.08-.19l-.1-.12,0,0a.85.85,0,0,0-.28-.15h0l-.14,0h0l-.14,0h0a.75.75,0,0,0-.13.06l-.11.08,0,0-.11.13,0,0,0,.08a.2.2,0,0,0,0,.08.22.22,0,0,0,0,.08.41.41,0,0,0,0,.19h0a.5.5,0,0,0,0,.13v0l.09.1a.39.39,0,0,0,.4.1.45.45,0,0,0,.31-.3,0,0,0,0,1,0,0l0,.1,0,0-.08.09a.48.48,0,0,0,.09-.11.75.75,0,0,0,.06-.13l-.05.11,0-.06-.08.1s0,0,.05,0l-.1.08,0,0,.13-.1-.11.08.05,0-.12.05h.05l-.12,0h0l-.11,0,.07,0L42,93.08l0,0L41.92,93a.21.21,0,0,1,0,.06l-.05-.1a.19.19,0,0,1,0,.07v-.13a.26.26,0,0,0,0,.15.3.3,0,0,0,0,.15.29.29,0,0,0,.1.12.35.35,0,0,0,.14.06.37.37,0,0,0,.31,0l.09-.07a.42.42,0,0,0,.11-.18Z"/><path class="cls-1" d="M42.38,98.36a.7.7,0,0,0,.34-.43.93.93,0,0,0,0-.44.76.76,0,0,0-.38-.55l-.1,0-.12,0H42a.34.34,0,0,0-.2,0,.63.63,0,0,0-.28.23.92.92,0,0,0-.11.39.8.8,0,0,0,0,.27.5.5,0,0,0,.05.13.84.84,0,0,0,.06.14.87.87,0,0,0,.17.22,1.24,1.24,0,0,0,.22.18l.13.07a1.16,1.16,0,0,0,.55.12.92.92,0,0,0,.29,0,1.55,1.55,0,0,0,.29-.14.41.41,0,0,0,.17-.15.54.54,0,0,0,.05-.64,1.56,1.56,0,0,0-.47-.45l-.07,0-.12,0a.43.43,0,0,0-.23,0h0a1.17,1.17,0,0,0-.32,0l-.14,0-.12.1a.57.57,0,0,0-.15.31.17.17,0,0,0,0,.14.22.22,0,0,0,0,.14.33.33,0,0,0,.07.13.54.54,0,0,0,.16.14l.11.06.05,0a.77.77,0,0,0,.19.08l-.14-.06a1.35,1.35,0,0,1,.26.15l-.12-.09.1.08v-.81l0,0,.13-.1-.08,0,.14-.06-.11,0,.15,0h0a.47.47,0,0,1-.16,0l.14.06-.17-.09.12.08a.74.74,0,0,1-.13-.12l.09.11-.1-.13.09.12a.57.57,0,0,1-.08-.13l.06.14a.28.28,0,0,1,0-.13v.15c0-.07,0-.14,0-.22l0,.15a.14.14,0,0,1,0-.09l-.42.52h0l-.14,0h0l-.12,0s0,0,.06,0l-.11-.08.07.06-.08-.1a.31.31,0,0,1,.05.1l-.05-.12a.14.14,0,0,1,0,.06v-.14a.25.25,0,0,1,0,.07l.05-.11,0,.06.07-.1,0,0,.11-.08h0a.53.53,0,0,0-.22.29.47.47,0,0,0,0,.35.43.43,0,0,0,.28.21.45.45,0,0,0,.36,0Z"/><path class="cls-1" d="M58.44,89.69l-2.89,5a42.94,42.94,0,0,0-2.66,5.07c-.17.41.49.76.76.42a45.9,45.9,0,0,0,3.08-4.83l2.94-5c.47-.8-.78-1.46-1.23-.67Z"/><path class="cls-1" d="M55.16,94.15l-1.84-2c-.3-.32-.59-.64-.89-1-.16-.16-.32-.33-.49-.49a1.62,1.62,0,0,0-.67-.49.62.62,0,0,0-.74.72,1.76,1.76,0,0,0,.45.68l.46.51c.3.33.6.66.91,1l1.83,2a.7.7,0,0,0,1,0,.68.68,0,0,0,0-.95Z"/><path class="cls-1" d="M61.84,90.83c-1.6,2.91-1.71,7,.51,9.64.3.35.79-.11.62-.48a11,11,0,0,1-1.12-4.3,8.16,8.16,0,0,1,1-4.27.61.61,0,0,0-1.06-.59Z"/><path class="cls-1" d="M66.69,94.54c-.61.11-1.37.44-1.45,1.13s.73,1.06,1.22,1.5.77,1,.36,1.51l-.07.07-.1.06c-.06,0-.07,0,0,0a.37.37,0,0,1-.27,0,.49.49,0,0,1-.42-.32c-.11-.41-.66-.28-.71.1a1.15,1.15,0,0,0,1.06,1.19,1.43,1.43,0,0,0,1.4-.87,1.94,1.94,0,0,0-.13-1.78,3,3,0,0,0-.63-.7c-.22-.18-.5-.3-.71-.49a.24.24,0,0,1-.12-.19.11.11,0,0,1,0-.06.54.54,0,0,1,.08-.08,1.67,1.67,0,0,1,.7-.26.44.44,0,0,0,.31-.51.42.42,0,0,0-.51-.29Z"/><path class="cls-1" d="M68.67,91.93c1.38,1.44,2.89,3,3,5.13a8,8,0,0,1-.55,3.2c-.38,1-1,2-1.33,3.12a.44.44,0,0,0,.74.41,11,11,0,0,0,1.69-3.26,9,9,0,0,0,.69-3.69c-.12-2.44-1.67-4.22-3.29-5.88-.61-.62-1.59.34-1,1Z"/><path class="cls-1" d="M77,96.18a11.32,11.32,0,0,1,1.84-.06,16,16,0,0,0,1.83.11.42.42,0,0,0,.22-.77A4.72,4.72,0,0,0,78.9,95,11.19,11.19,0,0,0,77,95a.63.63,0,0,0-.62.61.59.59,0,0,0,.6.6Z"/><path class="cls-1" d="M78.07,98.59c.61.06,1.22.13,1.83.18a12.43,12.43,0,0,0,1.83,0,.39.39,0,0,0,.12-.77,11,11,0,0,0-1.78-.43c-.6-.11-1.2-.2-1.81-.3a.68.68,0,0,0-.83.55.64.64,0,0,0,.64.73Z"/><path class="cls-1" d="M85.42,96a10.86,10.86,0,0,0,1,1.29,7.77,7.77,0,0,0,1.26,1,.39.39,0,0,0,.49-.11.36.36,0,0,0,0-.48l-1-1.14L87,96.29l-.12-.14-.06-.08s.06.07,0,0-.3-.4-.44-.62a.56.56,0,0,0-.73-.18.54.54,0,0,0-.2.72Z"/><path class="cls-1" d="M88.61,95.73a23.38,23.38,0,0,0-1.4,9.69.47.47,0,0,0,.93,0c.14-1.59.24-3.19.49-4.77A29.47,29.47,0,0,1,89.79,96c.25-.75-.93-1-1.18-.29Z"/><path class="cls-1" d="M96.22,89.27c.34,0,.55.2.66.51a1.46,1.46,0,0,1-.14,1.08,4.19,4.19,0,0,0-.6,2.41c.3,1.81,2.07,2.73,3.63,3.27.41.14.66-.48.3-.7-1.32-.79-3.48-1.88-3-3.78a4.59,4.59,0,0,0,.44-2.32,1.31,1.31,0,0,0-1.31-1.09c-.4,0-.42.68,0,.62Z"/><path class="cls-1" d="M96.54,104c1.11.29,2.82.39,3.71-.48a2.24,2.24,0,0,0,0-2.83c-.55-.81-1.79-1.57-1.72-2.66.08-1.25,1.47-1.94,2.34-2.61.38-.29,0-.93-.45-.78a4.75,4.75,0,0,0-2.76,2.08A2.72,2.72,0,0,0,98,99.84c.62.75,1.73,1.38,1.75,2.46,0,1.26-2.21.89-2.92.67a.54.54,0,0,0-.3,1Z"/><path class="cls-1" d="M95.89,165.05c-.89,1.42-.27,3,0,4.49a3.72,3.72,0,0,1,0,1.66,2.22,2.22,0,0,1-.82,1.23.42.42,0,0,0,.29.71c1.48,0,1.89-1.88,1.82-3.06-.09-1.38-1-3.09-.16-4.36.51-.75-.73-1.42-1.2-.67Z"/><path class="cls-1" d="M100.52,180.61c-1.13-.06-2.81-.14-3.25-1.44-.34-1,.73-1.94,1.11-2.76a2.39,2.39,0,0,0-.37-2.67c-.55-.68-1.42-1.19-1.68-2.07a.42.42,0,0,0-.81.11c-.14,1.1.87,1.82,1.54,2.52a1.46,1.46,0,0,1,.52,1.24,4.36,4.36,0,0,1-.77,1.46,2.66,2.66,0,0,0-.15,3.25c.92,1.19,2.45,1.34,3.84,1.41a.53.53,0,0,0,0-1Z"/><path class="cls-1" d="M110.44,171.58a5.65,5.65,0,0,0-2.64-.67,1.76,1.76,0,0,0-1.31.47,1.48,1.48,0,0,0-.38,1.12,2.41,2.41,0,0,0,1.51,1.87c.47.26,1.27.73.85,1.36s-1.7.41-2.45.37a.44.44,0,0,0-.43.37.41.41,0,0,0,.3.45,3.23,3.23,0,0,0,2.62,0,1.84,1.84,0,0,0,1.06-1.91c-.15-.83-.87-1.29-1.49-1.75a2.83,2.83,0,0,1-.37-.32,1.5,1.5,0,0,1-.24-.33.6.6,0,0,1,0-.29h0a.29.29,0,0,1,0-.09c0-.08,0,.05,0,0s-.06,0,0,0,0,0,0,0,.08,0,.11,0h.25a3.39,3.39,0,0,1,.64.05,4.28,4.28,0,0,1,1.32.44c.72.36,1.39-.72.66-1.11Z"/><path class="cls-1" d="M118.93,171.91a3,3,0,0,0-3.92,1.5,2.9,2.9,0,0,0,0,2.15,2.83,2.83,0,0,0,1.73,1.6,5.62,5.62,0,0,0,2.61.1c.48-.06.54-.73,0-.76a10.6,10.6,0,0,1-1.86-.21,2.22,2.22,0,0,1-1.36-.83,1.82,1.82,0,0,1,.66-2.61,2.12,2.12,0,0,1,1.76-.07c.49.19.88-.67.38-.87Z"/><path class="cls-1" d="M116.63,175a10.57,10.57,0,0,0,3.12-.3.41.41,0,0,0,.3-.43.38.38,0,0,0-.38-.33,15.24,15.24,0,0,1-3,0,.55.55,0,0,0-.55.53.53.53,0,0,0,.53.53Z"/><path class="cls-1" d="M127.78,165.35A4.16,4.16,0,0,0,124.4,167c-.9,1.36-.28,3,.64,4.13a26.12,26.12,0,0,1,1.7,2.08,7,7,0,0,1,.93,2.41,5.84,5.84,0,0,1,.11,1.32c0,.49-.1.87-.67.87a9,9,0,0,1-2.58-.65c-.44-.14-.68.49-.31.73,1,.66,3.36,1.63,4.17.28s.12-3.19-.4-4.36a9.15,9.15,0,0,0-1.29-2.06,7.3,7.3,0,0,1-1.63-2.5c-.48-1.77,1.15-2.7,2.69-2.72.75,0,.79-1.2,0-1.17Z"/><path class="cls-1" d="M137.73,171.11s0,0,0-.05a.66.66,0,0,0,0-.14.44.44,0,0,0,0-.2,1,1,0,0,0-.08-.19l-.1-.12,0,0a.76.76,0,0,0-.28-.15h0l-.13,0h0l-.15,0h0a.75.75,0,0,0-.13.06l-.11.08,0,0-.11.13,0,.05,0,.08a.19.19,0,0,0,0,.08.19.19,0,0,0,0,.08.31.31,0,0,0,0,.19h0a.69.69,0,0,0,.05.13v0l.09.11a.4.4,0,0,0,.4.1.45.45,0,0,0,.31-.3s0,0,0,0l0,.1a.05.05,0,0,1,0,0l-.07.09.09-.11s0-.09,0-.13l0,.11,0-.06-.08.1.05,0-.1.08,0,0,.13-.1-.11.08.06,0-.12,0h-.08l-.1,0,.06,0-.09-.07,0,0-.06-.09,0,.06,0-.1a.15.15,0,0,1,0,.07V171l0-.1h0a.43.43,0,0,0,0,.16.44.44,0,0,0,0,.15.49.49,0,0,0,.25.18.42.42,0,0,0,.31,0l.09-.07a.4.4,0,0,0,.1-.18Z"/><path class="cls-1" d="M137.4,176.35a.81.81,0,0,0,.34-.43.93.93,0,0,0,0-.44.79.79,0,0,0-.2-.41.55.55,0,0,0-.17-.14l-.11-.05-.12,0-.13,0a.46.46,0,0,0-.21.05.51.51,0,0,0-.27.23.93.93,0,0,0-.12.39,1.24,1.24,0,0,0,0,.27.5.5,0,0,0,.05.13l.06.13a1.37,1.37,0,0,0,.17.23,1.3,1.3,0,0,0,.23.18l.13.07a1.12,1.12,0,0,0,.54.12,1,1,0,0,0,.3,0,1.47,1.47,0,0,0,.28-.14.44.44,0,0,0,.17-.16.45.45,0,0,0,.11-.19.56.56,0,0,0-.05-.44,1.67,1.67,0,0,0-.47-.45l-.08,0-.11,0a.47.47,0,0,0-.23,0h0a1.05,1.05,0,0,0-.31,0l-.14.06-.12.09a.58.58,0,0,0-.16.32.33.33,0,0,0,0,.14.32.32,0,0,0,0,.14.25.25,0,0,0,.08.12.46.46,0,0,0,.16.15l.1.06.05,0a1.19,1.19,0,0,0,.2.08l-.15-.06a1.43,1.43,0,0,1,.27.15l-.13-.09a.39.39,0,0,1,.1.08v-.82s0,0,0,.05l.13-.1-.08,0,.14-.07-.11,0,.15,0h0a.42.42,0,0,1-.15,0l.13.06-.16-.09.12.08a.57.57,0,0,1-.14-.13l.09.12-.1-.13.09.12a.83.83,0,0,1-.07-.13l0,.14a.61.61,0,0,1,0-.13v.15a1.5,1.5,0,0,0,0-.22l0,.15v-.1l-.42.52h0l-.14,0h0l-.12,0,.06,0-.1-.08.06.06-.08-.1a.41.41,0,0,1,0,.09l0-.11s0,0,0,.06v0l0-.12a.64.64,0,0,0,0,.07l0-.12a.09.09,0,0,1,0,.06l.07-.09,0,0,.1-.07h0a.58.58,0,0,0-.22.29.44.44,0,0,0,.33.56.46.46,0,0,0,.36-.05Z"/><path class="cls-1" d="M153.45,167.68l-2.89,5a42.8,42.8,0,0,0-2.66,5.06c-.17.42.49.77.76.42a43.4,43.4,0,0,0,3.08-4.83l2.94-5c.47-.8-.78-1.46-1.23-.67Z"/><path class="cls-1" d="M150.17,172.14l-1.84-2-.89-.94c-.16-.17-.32-.33-.49-.49a1.54,1.54,0,0,0-.67-.49.61.61,0,0,0-.73.72,1.63,1.63,0,0,0,.44.67c.15.18.31.35.46.52l.91,1,1.83,2a.7.7,0,0,0,1,0,.68.68,0,0,0,0-1Z"/><path class="cls-1" d="M156.85,168.82c-1.59,2.9-1.71,7,.51,9.63.3.36.8-.1.63-.47a11,11,0,0,1-1.13-4.3,8.35,8.35,0,0,1,1-4.27.61.61,0,0,0-1.06-.59Z"/><path class="cls-1" d="M161.7,172.52c-.61.12-1.37.45-1.45,1.14s.73,1.06,1.22,1.49.78,1,.36,1.52c0,0-.12.1-.07.07l-.1.06s-.07,0,0,0a.37.37,0,0,1-.27,0,.49.49,0,0,1-.42-.32c-.11-.41-.66-.28-.7.09a1.14,1.14,0,0,0,1.06,1.2,1.43,1.43,0,0,0,1.39-.87,1.93,1.93,0,0,0-.13-1.78,2.62,2.62,0,0,0-.63-.7c-.22-.18-.49-.3-.71-.49a.27.27,0,0,1-.12-.19.11.11,0,0,1,0-.06l.08-.08a1.83,1.83,0,0,1,.7-.27.41.41,0,1,0-.2-.8Z"/><path class="cls-1" d="M163.68,169.92c1.39,1.44,2.89,3,3,5.13a7.8,7.8,0,0,1-.55,3.2c-.38,1.05-1,2-1.33,3.11a.44.44,0,0,0,.74.41,11.08,11.08,0,0,0,1.7-3.25,9.34,9.34,0,0,0,.69-3.69c-.13-2.44-1.67-4.22-3.3-5.88-.6-.62-1.58.34-1,1Z"/><path class="cls-1" d="M172,174.17a11.41,11.41,0,0,1,1.85-.06,15.87,15.87,0,0,0,1.82.11.42.42,0,0,0,.22-.77,4.72,4.72,0,0,0-2-.49,11.19,11.19,0,0,0-1.92,0,.64.64,0,0,0-.62.61.6.6,0,0,0,.6.6Z"/><path class="cls-1" d="M173.08,176.58c.61.06,1.22.13,1.83.17a10.18,10.18,0,0,0,1.83,0,.39.39,0,0,0,.12-.76,10.87,10.87,0,0,0-1.77-.43c-.61-.11-1.21-.21-1.82-.3a.69.69,0,0,0-.83.55.64.64,0,0,0,.64.73Z"/><path class="cls-1" d="M180.43,174a10.76,10.76,0,0,0,1,1.29,7.36,7.36,0,0,0,1.26,1,.38.38,0,0,0,.48-.11.37.37,0,0,0,0-.48q-.51-.57-1-1.14l-.23-.29a.76.76,0,0,1-.11-.14l-.07-.07c0-.06.06.07,0,0s-.3-.41-.44-.62a.54.54,0,0,0-.93.54Z"/><path class="cls-1" d="M183.62,173.71a23.62,23.62,0,0,0-1.4,9.7.47.47,0,0,0,.94,0c.13-1.59.23-3.19.49-4.77A28.12,28.12,0,0,1,184.8,174c.25-.75-.93-1-1.18-.3Z"/><path class="cls-1" d="M191.23,167.26a.63.63,0,0,1,.66.51,1.46,1.46,0,0,1-.13,1.08,4,4,0,0,0-.6,2.41c.29,1.81,2.06,2.72,3.62,3.26.41.15.66-.47.3-.69-1.31-.79-3.47-1.88-3-3.78a4.48,4.48,0,0,0,.44-2.32,1.29,1.29,0,0,0-1.31-1.09c-.39.05-.42.68,0,.62Z"/><path class="cls-1" d="M191.56,182c1.1.29,2.81.39,3.71-.48a2.24,2.24,0,0,0,0-2.83c-.55-.81-1.78-1.57-1.72-2.66.08-1.25,1.47-1.94,2.34-2.61.38-.29,0-.93-.45-.78a4.78,4.78,0,0,0-2.76,2.08,2.71,2.71,0,0,0,.38,3.11c.62.75,1.73,1.38,1.75,2.46,0,1.26-2.22.89-2.93.67a.54.54,0,0,0-.29,1Z"/><path class="cls-1" d="M90.59,101.44a2.65,2.65,0,0,0,.62-.27l.25-.15.13-.06s0,0,0,0l.07,0,.12,0c-.08,0,0,0,0,0s.11,0,0,0l.08,0s.06.06,0,0,0,0,0,0-.06-.06,0,0,0,0,0,0,0,.08,0,0,0,.14,0,.06a1.31,1.31,0,0,1-.09.28s0,.08,0,0v0a.8.8,0,0,0-.08.16c-.11.19-.23.37-.35.55-.3.44-.73,1-.33,1.49a1.32,1.32,0,0,0,.82.39c.13,0,.26,0,.4.06a1.35,1.35,0,0,0,.29,0,1.57,1.57,0,0,0,.3,0,.5.5,0,0,0,.13-.91,2.28,2.28,0,0,0-.76-.3l-.33-.07c-.07,0-.09,0,0,0s-.08-.06,0,0a.15.15,0,0,1,.09.14.12.12,0,0,1,0,.1v0s0,.07,0,0l.08-.14.17-.28a5.3,5.3,0,0,0,.33-.57,1.68,1.68,0,0,0,.18-1.49,1.12,1.12,0,0,0-1.09-.51,2.09,2.09,0,0,0-.74.25l-.32.17-.07,0h0l-.18,0a.53.53,0,0,0-.38.62.52.52,0,0,0,.62.35Z"/><path class="cls-1" d="M185.36,180.36a2.46,2.46,0,0,1,.53-.15H186l.07,0h0c.05,0,.06,0,0,0l.07.08c0-.07.06,0,0,0s0,.07,0,0,0,.06,0,0,0,0,0,0,0-.06,0,0,0,0,0,0,.06,0,0,0l-.15.07c.11,0,0,0,0,0l-.17.06a1.28,1.28,0,0,0-.71.54.51.51,0,0,0,.19.69,6.67,6.67,0,0,1,.91.67,2,2,0,0,1,.35.3.41.41,0,0,1,.08.12c0-.05,0,.08,0,0s0,0,0,.07-.13.1,0,0a.75.75,0,0,1-.35.15,2.87,2.87,0,0,1-.87,0,.42.42,0,0,0-.3.71,1.61,1.61,0,0,0,2.49-.65,1.19,1.19,0,0,0-.45-1.22c-.38-.34-.8-.62-1.15-1v.72l.14-.14c.06-.06,0,0,0,0l.1-.05s-.07,0,0,0l.1,0,.29-.12a1,1,0,0,0,.64-.92,1.17,1.17,0,0,0-.65-1,2.12,2.12,0,0,0-1.49,0,.55.55,0,0,0-.38.64.51.51,0,0,0,.64.36Z"/><path class="cls-1" d="M134.72,19.59a9.53,9.53,0,0,0-1.91,4.93,9.15,9.15,0,0,0,1.42,4.94,43,43,0,0,1,2.54,4.79A17.68,17.68,0,0,1,138,39.61a15.14,15.14,0,0,1-.94,6c-.13.38.45.58.63.25,1.64-3,1.48-6.81.53-10A22.08,22.08,0,0,0,136.11,31a16.3,16.3,0,0,1-2.23-4.87,7.88,7.88,0,0,1,1.78-6.06c.41-.56-.54-1.07-.94-.51Z"/><path class="cls-1" d="M135.48,44.4c.42.69.84,1.38,1.31,2a.39.39,0,0,0,.67-.38c-.33-.74-.71-1.46-1.09-2.17a.51.51,0,0,0-.89.51Z"/><path class="cls-1" d="M137.88,46.59a33.86,33.86,0,0,0,2.73-2.18.38.38,0,0,0-.46-.59,27.17,27.17,0,0,0-2.77,1.9.5.5,0,1,0,.5.87Z"/><path class="cls-1" d="M108.27,97.08c2.92-1.16,6.06-2.44,9.27-2.09,2.91.31,5.51,1.94,8.51,1.45a.39.39,0,0,0-.08-.76c-3,.15-5.82-1.43-8.81-1.59-3.18-.16-6.2,1-9.1,2.15-.53.2-.33,1.06.21.84Z"/><path class="cls-1" d="M126.38,95.38c-.38-.36-.76-.73-1.18-1.06a7.51,7.51,0,0,0-1.42-.92.46.46,0,0,0-.54.09.43.43,0,0,0-.08.53,7.68,7.68,0,0,0,1.12,1.23c.39.35.84.65,1.26,1a.57.57,0,0,0,.41.16.62.62,0,0,0,.43-.18.57.57,0,0,0,0-.82Z"/><path class="cls-1" d="M133.25,140.56c-2.17,2.42-3.94,5.47-3.95,8.81,0,1.79.67,3.43.95,5.18.32,2-.09,3.93-.16,5.91a.47.47,0,0,0,.92.11,17.2,17.2,0,0,0,.46-5.35c-.14-1.76-.85-3.4-1-5.14-.28-3.29,1.42-6.41,3.5-8.82.43-.51-.28-1.2-.72-.7Z"/><path class="cls-1" d="M132.88,139.93l-1.2.45-.58.23a4.12,4.12,0,0,0-.67.32.49.49,0,0,0-.23.45.46.46,0,0,0,.33.38,3.5,3.5,0,0,0,1.33,0,7.4,7.4,0,0,0,1.39-.33.87.87,0,0,0,.49-.37.78.78,0,0,0,.08-.58.77.77,0,0,0-.94-.54Z"/><path class="cls-1" d="M133.21,141.2a4.1,4.1,0,0,0,.08,1.44,3.67,3.67,0,0,0,.27.72,1.53,1.53,0,0,0,.17.27,1.73,1.73,0,0,0,.17.21,1,1,0,0,0,.21.15.52.52,0,0,0,.51,0,.54.54,0,0,0,.26-.43c0-.06,0-.11,0-.16a1.23,1.23,0,0,1,0-.19q0,.13,0,0c0-.14,0-.27-.06-.41s-.08-.42-.1-.63l0,.18c0-.13,0-.26,0-.39l0,.18a6.29,6.29,0,0,1,0-1,.71.71,0,0,0-.72-.71.76.76,0,0,0-.74.72Z"/><path class="cls-1" d="M125.11,96q-.37.34-.75.72c-.11.12-.23.23-.34.36l-.18.2a1.73,1.73,0,0,0-.2.32.5.5,0,0,0,.08.6.53.53,0,0,0,.6.06.76.76,0,0,0,.22-.11l.21-.15c.18-.14.34-.28.5-.42s.51-.47.76-.71a.6.6,0,0,0,.19-.44A.57.57,0,0,0,126,96a.66.66,0,0,0-.91,0Z"/></svg>