<svg id="Layer_1" data-name="Layer 1" xmlns="http://www.w3.org/2000/svg" viewBox="0 0 174.63 131.11"><defs><style>.cls-1{opacity:0.25;}.cls-2{fill:#fd46fc;}.cls-3{fill:#486afb;}</style></defs><g class="cls-1"><path class="cls-2" d="M125,135.92a19.93,19.93,0,0,0-9.6,1.83c-1.7.84-3.23,2-4.87,2.95a18.94,18.94,0,0,0-5.19,4.44,35.76,35.76,0,0,0-3.59,5A46.58,46.58,0,0,0,98,156.85a53.7,53.7,0,0,0-2.39,7.84A48,48,0,0,0,94,173.17c-.49,9.85,5.3,18.65,13.45,23.7a33,33,0,0,0,12.91,4.19c5.45.7,11,1.47,16.36-.15a23.16,23.16,0,0,0,5.14-2.53c1.16-.65,2.37-1.08,3.51-1.79a31.64,31.64,0,0,0,3.59-3.07,25.58,25.58,0,0,0,3.23-2.92c5.18-6.29,7.66-14.58,7.87-22.67.09-3.62.35-7.59-.29-11.17a29.41,29.41,0,0,0-1-4.76,33.36,33.36,0,0,0-2.05-4.26c-.43-.84-1-1.52-1.49-2.3a11,11,0,0,0-1.46-2.52c-.6-.61-1.2-1.24-1.83-1.82a36.73,36.73,0,0,0-3.37-3.12,24.83,24.83,0,0,0-7-3.09c-1.4-.45-2.87-.34-4.28-.72a15.23,15.23,0,0,0-4.22-.47c-1.54,0-3.2-.16-4.74,0-1.09.11-2.22.46-3.3.67s-2.3.34-3.45.52c-3.64.56-6.14,3.64-8.82,5.85" transform="translate(-88.13 -118.05)"/><path class="cls-3" d="M125,135.29c-3.9,0-7.65.45-11.07,2.45-.89.52-1.74,1.09-2.61,1.64s-1.67,1-2.46,1.52a20.14,20.14,0,0,0-3.78,3.42,35.61,35.61,0,0,0-3.5,4.7c-1.06,1.68-2.15,3.37-3.1,5.11-2,3.66-3,7.73-3.94,11.75a46.88,46.88,0,0,0-1.23,6.31,23.88,23.88,0,0,0,.09,5.21,26.13,26.13,0,0,0,3.08,9.33,29.37,29.37,0,0,0,15.2,13.2A48.07,48.07,0,0,0,123,202.34c4.16.49,8.42.79,12.54-.15a18.77,18.77,0,0,0,5.22-2.09c.86-.49,1.7-1,2.59-1.43a22.49,22.49,0,0,0,2.75-1.44c1.57-1.06,2.85-2.49,4.31-3.69a20.8,20.8,0,0,0,3.86-4.09A38.58,38.58,0,0,0,161,168.58a57.37,57.37,0,0,0-.31-12.15,24.78,24.78,0,0,0-1.5-5.94,36.11,36.11,0,0,0-2.89-5.15c-.44-.67-.7-1.42-1.11-2.11a11.76,11.76,0,0,0-2-2.21,33,33,0,0,0-4.42-4,21.46,21.46,0,0,0-5.28-2.44,18.47,18.47,0,0,0-2.9-.84c-1-.16-2-.19-3.05-.42a26.52,26.52,0,0,0-5.69-.48,28.58,28.58,0,0,0-3.07,0,16.65,16.65,0,0,0-3,.55c-1.87.47-3.88.48-5.7,1.09A12.65,12.65,0,0,0,115.9,137c-1.22,1-2.25,2.3-3.49,3.32-.53.45.22,1.19.74.76,1.21-1,2.44-2,3.67-3a11.33,11.33,0,0,1,4-2.3,19.51,19.51,0,0,1,2.65-.43q1.47-.19,2.94-.51a14.32,14.32,0,0,1,2.76-.38c1,0,1.89.05,2.84.08s1.9,0,2.84.11a22.59,22.59,0,0,1,2.58.5c1,.21,2,.22,2.94.4a17.73,17.73,0,0,1,2.66.81,18.53,18.53,0,0,1,5,2.4,17.38,17.38,0,0,1,2,1.83c.69.68,1.41,1.35,2.09,2a7.56,7.56,0,0,1,1.58,1.94,14.6,14.6,0,0,0,1.22,2.18,26.82,26.82,0,0,1,2.67,4.95,25.31,25.31,0,0,1,1.26,5.59,34.1,34.1,0,0,1,.34,5.8,69.41,69.41,0,0,1-.73,11,36.69,36.69,0,0,1-3.2,10,31.81,31.81,0,0,1-2.71,4.52,19.5,19.5,0,0,1-3.56,3.7,45.48,45.48,0,0,1-4.1,3.51,29.28,29.28,0,0,1-2.68,1.36c-.81.41-1.59.88-2.38,1.33a16.63,16.63,0,0,1-5,2,25.53,25.53,0,0,1-5.92.51c-2,0-4-.24-6-.47-1.84-.23-3.68-.44-5.49-.82a29.46,29.46,0,0,1-9.85-3.74,30.16,30.16,0,0,1-7.08-6.2,24,24,0,0,1-5.71-17.58,46.21,46.21,0,0,1,1.19-6.05c.47-1.95.92-3.9,1.52-5.81a30.64,30.64,0,0,1,2.21-5.48c.92-1.68,2-3.31,3-4.93a26.27,26.27,0,0,1,6.88-7.77c.76-.53,1.59-1,2.37-1.47s1.59-1.05,2.41-1.54a16.62,16.62,0,0,1,5.18-2.06,25.91,25.91,0,0,1,5.35-.47.63.63,0,0,0,.06-1.25Z" transform="translate(-88.13 -118.05)"/></g><path class="cls-3" d="M89.82,136q2.19-4.22,4.43-8.38A91.52,91.52,0,0,1,99,119.42l-1.7-.46c0,1.69.11,3.39.18,5.07l.22,5.08a40.09,40.09,0,0,0,.29,4.38c.18,1.22.61,3,1.84,3.59a.82.82,0,0,0,1.18-.9,14.4,14.4,0,0,0-.74-1.59,8.47,8.47,0,0,1-.42-1.79c-.18-1.42-.18-2.87-.24-4.3l-.23-4.7c-.07-1.61-.08-3.23-.26-4.83-.09-.81-1.24-1.35-1.7-.45-1.43,2.81-3.11,5.5-4.67,8.24s-3,5.54-4.48,8.35c-.53,1,1,1.95,1.58.91Z" transform="translate(-88.13 -118.05)"/><path class="cls-3" d="M92.21,131.22c1,.05,2,.06,3,0l1.43-.07.76-.06c.27,0,.55,0,.73-.26a.41.41,0,0,0,0-.57c-.38-.33-1-.13-1.49-.09s-.95.06-1.42.07c-1,0-2,0-3,0-.65,0-.65,1,0,1Z" transform="translate(-88.13 -118.05)"/><g class="cls-1"><path class="cls-2" d="M215.57,135.92a19.93,19.93,0,0,0-9.6,1.83c-1.7.84-3.23,2-4.87,2.95a18.94,18.94,0,0,0-5.19,4.44,35.76,35.76,0,0,0-3.59,5,46.58,46.58,0,0,0-3.73,6.69,53.7,53.7,0,0,0-2.39,7.84,48.94,48.94,0,0,0-1.59,8.48c-.48,9.85,5.3,18.65,13.45,23.7A33.1,33.1,0,0,0,211,201.06c5.45.7,11,1.47,16.36-.15a23,23,0,0,0,5.14-2.53c1.16-.65,2.37-1.08,3.51-1.79a31.64,31.64,0,0,0,3.59-3.07,25.58,25.58,0,0,0,3.23-2.92c5.19-6.29,7.66-14.58,7.87-22.67.09-3.62.35-7.59-.29-11.17a28.38,28.38,0,0,0-1-4.76,34.7,34.7,0,0,0-2-4.26c-.44-.84-1-1.52-1.5-2.3a11,11,0,0,0-1.46-2.52c-.6-.61-1.2-1.24-1.83-1.82a36.73,36.73,0,0,0-3.37-3.12,24.83,24.83,0,0,0-7-3.09c-1.4-.45-2.87-.34-4.28-.72a15.23,15.23,0,0,0-4.22-.47c-1.54,0-3.2-.16-4.73,0-1.1.11-2.22.46-3.31.67s-2.3.34-3.45.52c-3.64.56-6.14,3.64-8.82,5.85" transform="translate(-88.13 -118.05)"/><path class="cls-3" d="M215.6,135.29c-3.9,0-7.65.45-11.07,2.45-.89.52-1.74,1.09-2.61,1.64s-1.66,1-2.46,1.52a20.45,20.45,0,0,0-3.78,3.42,35.61,35.61,0,0,0-3.5,4.7c-1.06,1.68-2.14,3.37-3.1,5.11-2,3.66-3,7.73-3.93,11.75a45.4,45.4,0,0,0-1.24,6.31,23.88,23.88,0,0,0,.09,5.21,26.32,26.32,0,0,0,3.08,9.33,29.37,29.37,0,0,0,15.2,13.2,48.18,48.18,0,0,0,11.33,2.41c4.16.49,8.42.79,12.55-.15a19,19,0,0,0,5.22-2.09c.85-.49,1.69-1,2.58-1.43a21.78,21.78,0,0,0,2.75-1.44c1.57-1.06,2.85-2.49,4.31-3.69a20.8,20.8,0,0,0,3.86-4.09,38.58,38.58,0,0,0,6.74-20.87,58,58,0,0,0-.3-12.15,25.28,25.28,0,0,0-1.51-5.94,35.16,35.16,0,0,0-2.89-5.15c-.44-.67-.7-1.42-1.11-2.11a11.76,11.76,0,0,0-2-2.21,32.42,32.42,0,0,0-4.42-4,21.46,21.46,0,0,0-5.28-2.44,18.16,18.16,0,0,0-2.9-.84c-1-.16-2-.19-3-.42a26.61,26.61,0,0,0-5.7-.48,28.58,28.58,0,0,0-3.07,0,16.81,16.81,0,0,0-3,.55c-1.87.47-3.88.48-5.7,1.09A12.65,12.65,0,0,0,206.5,137c-1.22,1-2.25,2.3-3.48,3.32-.54.45.21,1.19.73.76q1.83-1.51,3.67-3a11.33,11.33,0,0,1,4-2.3,19.51,19.51,0,0,1,2.65-.43c1-.13,2-.3,2.94-.51a14.32,14.32,0,0,1,2.76-.38c.95,0,1.89.05,2.84.08s1.9,0,2.84.11a22.18,22.18,0,0,1,2.58.5c1,.21,2,.22,2.94.4a17.73,17.73,0,0,1,2.66.81,18.39,18.39,0,0,1,5,2.4,16.6,16.6,0,0,1,2,1.83c.69.68,1.41,1.35,2.09,2a7.56,7.56,0,0,1,1.58,1.94,14.6,14.6,0,0,0,1.22,2.18,26.82,26.82,0,0,1,2.67,4.95,24.75,24.75,0,0,1,1.26,5.59,34.1,34.1,0,0,1,.34,5.8,69.41,69.41,0,0,1-.73,11,36.35,36.35,0,0,1-3.2,10,31.81,31.81,0,0,1-2.71,4.52,19.5,19.5,0,0,1-3.56,3.7,44.14,44.14,0,0,1-4.1,3.51,29.28,29.28,0,0,1-2.68,1.36c-.81.41-1.59.88-2.37,1.33a16.8,16.8,0,0,1-5,2,25.53,25.53,0,0,1-5.92.51c-2,0-4-.24-6-.47-1.84-.23-3.68-.44-5.49-.82a29.46,29.46,0,0,1-9.85-3.74,30.36,30.36,0,0,1-7.08-6.2,24,24,0,0,1-5.71-17.58,46.21,46.21,0,0,1,1.19-6.05c.47-1.95.92-3.9,1.52-5.81a30.64,30.64,0,0,1,2.21-5.48c.92-1.68,2-3.31,3-4.93a26.1,26.1,0,0,1,6.87-7.77c.76-.53,1.59-1,2.37-1.47s1.59-1.05,2.41-1.54a16.72,16.72,0,0,1,5.18-2.06,25.91,25.91,0,0,1,5.35-.47.63.63,0,0,0,.06-1.25Z" transform="translate(-88.13 -118.05)"/></g><path class="cls-3" d="M253.41,119.16c-.28,1.42-.66,2.83-1,4.24s-.62,2.85-.92,4.27-.59,2.77-.86,4.16c-.14.73-.26,1.47-.39,2.21a5.67,5.67,0,0,0-.11,2.13.7.7,0,0,0,1.27.17,5.48,5.48,0,0,0,.67-1.93c.15-.69.31-1.38.45-2.08.3-1.42.56-2.86.82-4.29s.54-2.78.77-4.18.41-2.89.7-4.33c.18-.91-1.22-1.28-1.4-.37Z" transform="translate(-88.13 -118.05)"/><path class="cls-3" d="M254.11,120.51a7.14,7.14,0,0,1,3.1.87c.62.34,1.77,1,1.51,1.85s-1.42,1.44-2.15,1.82a26.61,26.61,0,0,1-3.11,1.32.69.69,0,0,0,.35,1.33,9.15,9.15,0,0,1,2.81-.14,10.67,10.67,0,0,1,2.43.67c1.42.57,2.75,1.76,2,3.4a4.66,4.66,0,0,1-2.94,2.22,8.77,8.77,0,0,1-2.44.3,10.16,10.16,0,0,0-2.7,0,.67.67,0,0,0-.16,1.22,7.72,7.72,0,0,0,3.31.45,9,9,0,0,0,2.95-.46,5.38,5.38,0,0,0,3.64-3.72c.45-2-.87-3.65-2.67-4.38a11.53,11.53,0,0,0-2.9-.73,18.25,18.25,0,0,0-3.46-.23l.17,1.35a23.56,23.56,0,0,0,4.13-1.61c1.15-.63,2.39-1.55,2.45-3a3.61,3.61,0,0,0-2.07-3,8.74,8.74,0,0,0-4.2-1.15.78.78,0,0,0,0,1.56Z" transform="translate(-88.13 -118.05)"/><path class="cls-2" d="M153.82,248.74c1.14-2.58,2.28-5.17,3.4-7.77.54-1.26,1.07-2.53,1.65-3.77s1.28-2.61,1.81-3.95h-1.77c.33,2.48.73,5,1.12,7.45l.58,3.65a15,15,0,0,0,.79,3.71c.36.83,1.49.31,1.55-.41a15.2,15.2,0,0,0-.42-3.67l-.61-3.78c-.39-2.47-.78-4.95-1.23-7.42a.93.93,0,0,0-1.69-.22c-.58,1.23-1,2.53-1.54,3.79s-1.13,2.63-1.7,3.93c-1.12,2.56-2.22,5.12-3.32,7.68-.39.92,1,1.72,1.38.78Z" transform="translate(-88.13 -118.05)"/><path class="cls-2" d="M156,244a9.8,9.8,0,0,0,2.48-.07,5.06,5.06,0,0,0,1.1-.27c.22-.09.45-.17.66-.28a3.76,3.76,0,0,0,.6-.45.76.76,0,0,0-.54-1.29c-.22,0-.45,0-.67.05l-.53.11c-.36.06-.72.14-1.08.19-.1,0-.22.05-.06,0a1.63,1.63,0,0,1-.31,0l-.54,0A10.14,10.14,0,0,1,156,242a1,1,0,0,0-1,1,1,1,0,0,0,1,1Z" transform="translate(-88.13 -118.05)"/><path class="cls-2" d="M167.65,241a11.68,11.68,0,0,0,.86,3.28,7.82,7.82,0,0,0,1.84,2.76,3.19,3.19,0,0,0,3.15.57,4.19,4.19,0,0,0,2.36-2.26,5.6,5.6,0,0,0,.22-4.16c-.21-.57-1.11-.7-1.26,0a17.53,17.53,0,0,1-.66,3.52,2.15,2.15,0,0,1-2.07,1.42c-1-.08-1.63-1.25-2.07-2a10.24,10.24,0,0,1-1.2-3.26c-.12-.65-1.24-.52-1.17.15Z" transform="translate(-88.13 -118.05)"/><path class="cls-2" d="M181.8,235.18c0,2.37,0,4.74-.13,7.11,0,1.14-.12,2.28-.2,3.43-.07.95-.38,2.52.33,3.29a.51.51,0,0,0,.7,0c.8-.63.69-2.37.72-3.27.05-1.15.07-2.29.08-3.43,0-2.38,0-4.75-.18-7.12a.66.66,0,0,0-1.32,0Z" transform="translate(-88.13 -118.05)"/><path class="cls-2" d="M182.71,235.66c2.06.3,4.55.7,6.14,2.17,2,1.85-2.77,2.61-3.82,2.86s-.79,1.8.21,1.72a7.76,7.76,0,0,1,3.54.76A2.72,2.72,0,0,1,190,244c.25.45-.14.87-.45,1.18a8.12,8.12,0,0,1-2.65,1.68,32.18,32.18,0,0,1-3.19.77c-.67.19-.75,1.27,0,1.41a8.72,8.72,0,0,0,7.53-3.66c1.57-3.16-3.85-4.25-5.8-4.72l-.23,1.72a9.33,9.33,0,0,0,4.29-1.47c1.18-.74,1.91-2,1.16-3.35a5.46,5.46,0,0,0-3.44-2.24,20.6,20.6,0,0,0-4.43-.49c-.45,0-.57.73-.11.8Z" transform="translate(-88.13 -118.05)"/><path class="cls-2" d="M190.32,232.6q7.23-9.58,13.74-19.7c.62-1,1.24-1.94,1.85-2.91s1.47-1.93,1.5-3a.8.8,0,0,0-1.19-.69c-.84.45-1.3,1.54-1.79,2.32s-1.1,1.74-1.65,2.61q-1.6,2.5-3.25,5c-2.22,3.33-4.5,6.63-6.84,9.87q-2,2.81-4.1,5.56A1,1,0,0,0,189,233a1,1,0,0,0,1.36-.37Z" transform="translate(-88.13 -118.05)"/><path class="cls-2" d="M142.06,206.15c1.14,2.22,2.18,4.49,3.32,6.71s2.24,4.28,3.38,6.41,2.32,4.23,3.51,6.33c.59,1.05,1.19,2.1,1.79,3.15a15.87,15.87,0,0,0,2.18,3.14.73.73,0,0,0,1.21-.7,17.3,17.3,0,0,0-1.66-3.44l-1.8-3.14c-1.19-2.1-2.35-4.22-3.51-6.33s-2.3-4.25-3.42-6.39-2.38-4.38-3.46-6.63c-.49-1-2.07-.13-1.54.89Z" transform="translate(-88.13 -118.05)"/><path class="cls-2" d="M141.47,206.46l-.83,2.65-.41,1.3a2.35,2.35,0,0,0-.15,1.43.93.93,0,0,0,1.82-.23c0,.25,0,0,0,0l.11-.27c.07-.19.13-.39.19-.58l.39-1.25.79-2.5a1,1,0,0,0-.71-1.22,1,1,0,0,0-1.22.7Z" transform="translate(-88.13 -118.05)"/><path class="cls-2" d="M144,207.82a10.46,10.46,0,0,0,2.36.81,12,12,0,0,0,1.32.2,4.06,4.06,0,0,0,1.3-.15.83.83,0,0,0,.63-.8.86.86,0,0,0-.62-.81c-.41-.08-.8-.19-1.22-.23l-.31,0c-.2,0,.17,0-.05,0s-.36-.05-.53-.09c-.36-.08-.71-.17-1.05-.28l-.51-.19c-.2-.07.16.08-.05,0l-.28-.13a1,1,0,0,0-1.36.38,1,1,0,0,0,.37,1.35Z" transform="translate(-88.13 -118.05)"/><path class="cls-2" d="M205.44,206.25a10.47,10.47,0,0,0-2.55.37,12,12,0,0,0-1.31.47c-.55.23-1.15.56-1.13,1.25a.94.94,0,0,0,.94.87,2.28,2.28,0,0,0,.91-.27s.36-.17.1-.05l.28-.11.57-.19a9,9,0,0,1,1.17-.26l.11,0,.3,0,.6,0a1,1,0,1,0,0-2Z" transform="translate(-88.13 -118.05)"/><path class="cls-2" d="M205.75,209.17c.08.28.15.58.21.87s.06.32.08.48.07.26,0,0a1.75,1.75,0,0,1,0,.24c0,.3,0,.6,0,.9a2.52,2.52,0,0,0,.15,1.28.93.93,0,0,0,.7.46.91.91,0,0,0,.81-.27,1.25,1.25,0,0,0,.32-.73,1.48,1.48,0,0,1,0-.21c0-.16,0-.33,0-.49,0-.32,0-.64-.05-1a12.5,12.5,0,0,0-.38-2.1,1,1,0,0,0-1.21-.71,1,1,0,0,0-.72,1.22Z" transform="translate(-88.13 -118.05)"/><path class="cls-3" d="M125.08,135.18c-3.9-.05-7.65.45-11.07,2.44-.89.52-1.74,1.1-2.61,1.65s-1.67,1-2.46,1.51a20.49,20.49,0,0,0-3.78,3.42,35.06,35.06,0,0,0-3.5,4.71c-1.06,1.68-2.15,3.36-3.11,5.11-2,3.65-3,7.72-3.93,11.74a47,47,0,0,0-1.23,6.32,23.89,23.89,0,0,0,.09,5.21,26.17,26.17,0,0,0,3.07,9.33,29.54,29.54,0,0,0,15.2,13.2,48.24,48.24,0,0,0,11.34,2.4,36.67,36.67,0,0,0,12.54-.15,18.59,18.59,0,0,0,5.22-2.09c.85-.49,1.7-1,2.58-1.42a21.18,21.18,0,0,0,2.75-1.45c1.57-1.06,2.85-2.48,4.32-3.68a21.09,21.09,0,0,0,3.86-4.09,38.77,38.77,0,0,0,6.74-20.87,58.13,58.13,0,0,0-.31-12.16,24.7,24.7,0,0,0-1.5-5.93,35.32,35.32,0,0,0-2.9-5.16c-.44-.67-.69-1.42-1.1-2.1a11.53,11.53,0,0,0-2-2.22,33.08,33.08,0,0,0-4.42-4,22,22,0,0,0-5.28-2.44,18.13,18.13,0,0,0-2.9-.83c-1-.16-2-.2-3-.43a27.9,27.9,0,0,0-5.7-.48c-1,0-2-.07-3.06,0a17.88,17.88,0,0,0-3,.55c-1.87.47-3.87.48-5.7,1.09A13.09,13.09,0,0,0,116,136.9c-1.21,1-2.25,2.3-3.48,3.33-.54.45.22,1.18.74.75,1.21-1,2.44-2,3.67-3a11.69,11.69,0,0,1,4-2.3,21.79,21.79,0,0,1,2.65-.42c1-.14,2-.3,2.94-.52a13.57,13.57,0,0,1,2.77-.37c.94,0,1.89,0,2.84.08s1.89,0,2.84.1a23.06,23.06,0,0,1,2.58.51c1,.2,2,.22,2.94.39a18.84,18.84,0,0,1,2.65.81,19.21,19.21,0,0,1,5,2.4,18.33,18.33,0,0,1,2,1.83c.69.69,1.4,1.35,2.09,2a7.16,7.16,0,0,1,1.57,1.94,15.89,15.89,0,0,0,1.22,2.17,26,26,0,0,1,2.67,4.95,24.86,24.86,0,0,1,1.27,5.6,34,34,0,0,1,.33,5.79,67,67,0,0,1-.73,11,36.74,36.74,0,0,1-3.19,10,32.66,32.66,0,0,1-2.71,4.51,19.26,19.26,0,0,1-3.57,3.7,43.8,43.8,0,0,1-4.09,3.51,27,27,0,0,1-2.68,1.37c-.82.4-1.59.87-2.38,1.33a17.3,17.3,0,0,1-5,2,26.14,26.14,0,0,1-5.92.51c-2,0-4-.24-6-.48-1.84-.22-3.68-.44-5.5-.81a29.56,29.56,0,0,1-9.85-3.75,29.89,29.89,0,0,1-7.07-6.2A24,24,0,0,1,94.93,172,46.35,46.35,0,0,1,96.12,166c.47-1.95.93-3.89,1.53-5.81a30.2,30.2,0,0,1,2.21-5.48c.92-1.68,2-3.3,3-4.92A26.4,26.4,0,0,1,109.7,142c.77-.53,1.59-1,2.38-1.47s1.59-1,2.41-1.54a16.91,16.91,0,0,1,5.17-2.06,26.67,26.67,0,0,1,5.35-.46c.82,0,.91-1.24.07-1.25Z" transform="translate(-88.13 -118.05)"/><path class="cls-3" d="M215.68,135.18c-3.9-.05-7.65.45-11.07,2.44-.89.52-1.74,1.1-2.61,1.65s-1.67,1-2.46,1.51a20.49,20.49,0,0,0-3.78,3.42,35.06,35.06,0,0,0-3.5,4.71c-1.06,1.68-2.15,3.36-3.1,5.11-2,3.65-3,7.72-3.94,11.74a47,47,0,0,0-1.23,6.32,23.89,23.89,0,0,0,.09,5.21,26,26,0,0,0,3.08,9.33,29.48,29.48,0,0,0,15.19,13.2,48.24,48.24,0,0,0,11.34,2.4,36.67,36.67,0,0,0,12.54-.15,18.59,18.59,0,0,0,5.22-2.09c.86-.49,1.7-1,2.59-1.42a22.56,22.56,0,0,0,2.75-1.45c1.56-1.06,2.85-2.48,4.31-3.68a20.8,20.8,0,0,0,3.86-4.09,38.77,38.77,0,0,0,6.74-20.87,58.13,58.13,0,0,0-.31-12.16,24.7,24.7,0,0,0-1.5-5.93,35.32,35.32,0,0,0-2.9-5.16c-.44-.67-.69-1.42-1.1-2.1a11.82,11.82,0,0,0-2-2.22,33.79,33.79,0,0,0-4.43-4,22,22,0,0,0-5.27-2.44,18.74,18.74,0,0,0-2.9-.83c-1-.16-2.05-.2-3.05-.43a27.9,27.9,0,0,0-5.7-.48c-1,0-2-.07-3.06,0a17.88,17.88,0,0,0-3,.55c-1.86.47-3.87.48-5.69,1.09a13,13,0,0,0-4.27,2.57c-1.21,1-2.25,2.3-3.48,3.33-.54.45.22,1.18.74.75,1.21-1,2.44-2,3.67-3a11.64,11.64,0,0,1,4-2.3,21.33,21.33,0,0,1,2.64-.42c1-.14,2-.3,2.94-.52a13.57,13.57,0,0,1,2.77-.37c.94,0,1.89,0,2.84.08s1.89,0,2.84.1a23.06,23.06,0,0,1,2.58.51c1,.2,2,.22,2.94.39a18.45,18.45,0,0,1,2.65.81,19.21,19.21,0,0,1,5,2.4,18.33,18.33,0,0,1,2,1.83c.69.69,1.4,1.35,2.09,2a7.16,7.16,0,0,1,1.57,1.94,15.89,15.89,0,0,0,1.22,2.17,26,26,0,0,1,2.67,4.95,24.86,24.86,0,0,1,1.27,5.6,34,34,0,0,1,.33,5.79,67,67,0,0,1-.73,11,36.74,36.74,0,0,1-3.19,10,32.66,32.66,0,0,1-2.71,4.51,19.26,19.26,0,0,1-3.57,3.7,42.55,42.55,0,0,1-4.09,3.51,27,27,0,0,1-2.68,1.37c-.82.4-1.59.87-2.38,1.33a17.3,17.3,0,0,1-5,2,26.09,26.09,0,0,1-5.92.51c-2,0-4-.24-6-.48-1.84-.22-3.68-.44-5.49-.81a29.53,29.53,0,0,1-9.86-3.75,29.89,29.89,0,0,1-7.07-6.2A23.94,23.94,0,0,1,185.54,172a43.27,43.27,0,0,1,1.19-6.06c.46-1.95.92-3.89,1.52-5.81a30.2,30.2,0,0,1,2.21-5.48c.92-1.68,1.95-3.3,3-4.92A26.4,26.4,0,0,1,200.3,142c.77-.53,1.59-1,2.38-1.47s1.59-1,2.41-1.54a16.91,16.91,0,0,1,5.17-2.06,26.67,26.67,0,0,1,5.35-.46c.82,0,.91-1.24.07-1.25Z" transform="translate(-88.13 -118.05)"/></svg>