<?xml version="1.0" encoding="utf-8"?>
<!-- Generator: Adobe Illustrator 26.0.2, SVG Export Plug-In . SVG Version: 6.00 Build 0)  -->
<svg version="1.1" id="Layer_1" xmlns="http://www.w3.org/2000/svg" xmlns:xlink="http://www.w3.org/1999/xlink" x="0px" y="0px"
	 viewBox="0 0 110.1 77.2" style="enable-background:new 0 0 110.1 77.2;" xml:space="preserve">
<style type="text/css">
	.st0{fill:none;stroke:#000000;stroke-width:10;stroke-miterlimit:10;}
	.st1{fill:none;}
	.st2{enable-background:new    ;}
</style>
<rect x="5" y="5" class="st0" width="100.1" height="67.2"/>
<rect x="21.3" y="23.1" class="st1" width="67.6" height="31.1"/>
<g class="st2">
	<path d="M21.3,30.7h3.2l3.4,15.9l2.8-10.1h2.8l2.8,10.2l3.4-15.9h3.2l-4.6,19.7h-3.1l-3.1-10.8L29,50.5h-3.1L21.3,30.7z"/>
	<path d="M42.9,30.7h3.2l3.4,15.9l2.9-10.1h2.8L58,46.7l3.4-15.9h3.2L60,50.5h-3.1l-3.1-10.8l-3.1,10.8h-3.2L42.9,30.7z"/>
	<path d="M64.6,30.7h3.2l3.4,15.9L74,36.5h2.8l2.8,10.2L83,30.8h3.2l-4.6,19.7h-3.1l-3.1-10.8l-3.1,10.8h-3.1L64.6,30.7z"/>
</g>
</svg>
