<?xml version="1.0" encoding="utf-8"?>
<!-- Generator: Adobe Illustrator 26.0.2, SVG Export Plug-In . SVG Version: 6.00 Build 0)  -->
<svg version="1.1" id="Layer_1" xmlns="http://www.w3.org/2000/svg" xmlns:xlink="http://www.w3.org/1999/xlink" x="0px" y="0px"
	 viewBox="0 0 470.3 162.9" style="enable-background:new 0 0 470.3 162.9;" xml:space="preserve">
<style type="text/css">
	.st0{fill:#FFC300;}
	.st1{fill:#3399FF;}
</style>
<g>
	<g>
		<path class="st0" d="M368.5,42.1c-1.5-1.4-3.9-0.3-4.6,1.3c-0.8,1.7-0.5,3.7,1,4.8c0.8,0.6,1.7,0.9,2.7,0.9c1,0,1.9-0.4,2.7-1
			c1.5-1.2,2.2-3.6,1.3-5.3c-0.5-1-1.6-1.5-2.7-1.5c-0.5,0-1,0.1-1.5,0.3c-0.5,0.2-1.1,0.4-1.5,0.8c-0.3,0.4-0.1,1,0.4,1
			c0.7,0,1.4-0.4,2.1-0.5c0.5-0.1,1.1-0.1,1.5,0.2c0.5,0.4,0.6,1.2,0.5,1.8c-0.1,0.6-0.4,1.2-0.7,1.6c-0.5,0.5-0.9,0.8-1.5,0.9
			c-0.5,0.1-1.1,0-1.6-0.1c-0.3-0.1-0.5-0.3-0.7-0.4c-0.3-0.2-0.4-0.4-0.6-0.7c-0.2-0.4-0.3-1-0.2-1.5c0.1-0.6,0.4-1.1,0.9-1.5
			c-0.1,0.1,0.1-0.1,0.1-0.1c0.1,0,0.1-0.1,0.2-0.1c0.1,0,0.3-0.1,0.4-0.1c0.3,0,0.6,0,0.8,0.2C368.1,43.7,369.1,42.7,368.5,42.1
			L368.5,42.1z"/>
	</g>
</g>
<g>
	<g>
		<path class="st0" d="M375.3,43.2c-1.3,0.4-2.3,1.8-2.2,3.2c0.1,1.5,1.2,2.7,2.6,2.9c1.5,0.2,2.9-0.5,3.5-1.8
			c0.6-1.3,0.4-2.9-0.7-3.9c-0.6-0.6-1.4-0.9-2.2-1c-0.8-0.1-1.9,0.1-2.3,0.8c-0.2,0.4,0,0.9,0.5,0.9c0.3,0,0.6-0.1,0.9-0.2
			c0.1,0,0.2-0.1,0.3-0.1c0.1,0,0,0,0,0c0,0,0.1,0,0.1,0c0.1,0,0.1,0,0.2,0c0.1,0,0.1,0,0.2,0c0,0,0.2,0,0.1,0c0.1,0,0.3,0,0.4,0.1
			c0.1,0,0.1,0,0.2,0.1c0.1,0-0.1,0,0.1,0c0.1,0.1,0.2,0.1,0.4,0.2c0,0,0.1,0.1,0,0c0.1,0,0.1,0.1,0.2,0.1c0,0,0.1,0.1,0.1,0.1
			c0,0,0,0,0.1,0.1c0,0,0.1,0.1,0.1,0.1c0-0.1,0,0.1,0.1,0.1c0,0,0.1,0.1,0.1,0.1c0,0.1,0.1,0.1,0.1,0.2c0,0,0,0.1,0,0
			c0-0.1,0,0,0,0c0,0.1,0.1,0.2,0.1,0.4c0,0.1,0,0.1,0,0.2c0-0.1,0,0.1,0,0.1c0,0.1,0,0.2,0,0.3c0,0,0,0.1,0,0.1c0,0,0-0.1,0,0
			c0,0.1,0,0.1,0,0.2c0,0.1-0.1,0.2-0.1,0.4c0,0.1,0,0,0,0c0,0,0,0.1,0,0.1c0,0.1-0.1,0.1-0.1,0.2c0,0-0.1,0.2-0.1,0.1
			c0.1-0.1,0,0.1-0.1,0.1c0,0-0.1,0.1-0.1,0.1c0,0-0.2,0.2-0.1,0.1c0.1-0.1-0.1,0.1-0.1,0.1c0,0-0.1,0.1-0.1,0.1c0,0-0.1,0-0.1,0
			c-0.1,0,0.1,0,0.1,0c-0.1,0-0.1,0.1-0.2,0.1c-0.1,0-0.2,0.1-0.3,0.1c0,0,0.2,0,0,0c0,0-0.1,0-0.1,0c-0.1,0-0.1,0-0.2,0
			c-0.1,0-0.1,0-0.2,0c-0.1,0,0.1,0,0.1,0c0,0-0.1,0-0.1,0c-0.1,0-0.3,0-0.4-0.1c-0.1,0-0.1,0-0.2-0.1c-0.1,0,0.1,0,0.1,0
			c0,0-0.1,0-0.1,0c-0.1-0.1-0.2-0.1-0.3-0.2c0,0,0,0-0.1,0c-0.1-0.1,0,0,0,0c0,0-0.1-0.1-0.1-0.1c0,0-0.1-0.1-0.1-0.1
			c0,0,0-0.1-0.1-0.1c-0.1-0.1,0,0,0,0c-0.1,0-0.1-0.2-0.2-0.3c0,0-0.1-0.1,0-0.1c0,0,0.1,0.2,0,0.1c0-0.1,0-0.1-0.1-0.2
			c0-0.1,0-0.1,0-0.2c0,0,0-0.1,0,0c0,0.1,0,0,0,0c0-0.1,0-0.3,0-0.4c0,0,0-0.1,0,0c0,0.1,0,0,0,0c0-0.1,0-0.1,0.1-0.2
			c0-0.1,0-0.1,0.1-0.2c0,0,0-0.1,0,0c0,0.1,0,0,0-0.1c0.1-0.1,0.1-0.2,0.2-0.3c0.1-0.1,0,0,0,0c0,0,0-0.1,0.1-0.1
			c0,0,0.1-0.1,0.1-0.1c0,0,0.2-0.2,0.1-0.1c-0.1,0.1,0.1,0,0.1-0.1c0.1,0,0.1-0.1,0.2-0.1c0,0,0.1,0,0,0c-0.1,0,0.1,0,0.1,0
			c0.4-0.1,0.7-0.5,0.5-0.9C376.1,43.4,375.7,43.1,375.3,43.2L375.3,43.2z"/>
	</g>
</g>
<g>
	<g>
		<path class="st0" d="M386.2,43.2c-1.5-0.5-3.3,0.7-3.6,2.2c-0.3,1.6,0.7,3,2.2,3.4c1.5,0.4,3-0.3,3.7-1.6c0.7-1.4,0.5-3.1-0.6-4.2
			c-0.7-0.6-1.6-1-2.5-0.9c-0.5,0.1-1,0.2-1.4,0.5c-0.5,0.3-0.8,0.7-1,1.2c-0.1,0.3,0.1,0.6,0.3,0.8c0.3,0.1,0.6,0.1,0.8-0.1
			c0.1-0.1,0.1-0.1,0.2-0.1c-0.1,0.1,0.1,0,0.1,0c0.1-0.1,0.2-0.1,0.3-0.2c0.1,0,0.1-0.1,0.2-0.1c-0.2,0.1,0,0,0.1,0
			c0.1,0,0.3-0.1,0.4-0.1c-0.2,0,0,0,0.1,0c0.1,0,0.1,0,0.2,0c0.2,0,0,0,0,0c0.1,0,0.1,0,0.2,0c0.1,0,0.1,0,0.2,0.1
			c0.2,0.1-0.1-0.1,0.1,0c0.1,0.1,0.3,0.1,0.4,0.2c-0.1-0.1,0.1,0.1,0.1,0.1c0,0,0.1,0.1,0.1,0.1c0.1,0.1,0.1,0.1,0.2,0.2
			c0.2,0.2-0.1-0.1,0,0.1c0.1,0.1,0.1,0.2,0.2,0.3c0,0,0.1,0.2,0,0c0,0.1,0.1,0.2,0.1,0.2c0,0.1,0.1,0.4,0,0.2c0,0.1,0,0.3,0,0.4
			c0,0,0,0.1,0,0.1c0,0,0,0.2,0,0.1c0,0.1-0.1,0.3-0.1,0.4c0,0.1,0,0.1-0.1,0.2c0.1-0.2,0,0,0,0c0,0.1-0.1,0.2-0.2,0.3
			c0,0-0.2,0.2,0,0c0,0-0.1,0.1-0.1,0.1c0,0-0.1,0.1-0.1,0.1c0,0-0.2,0.1,0,0c-0.1,0.1-0.2,0.1-0.3,0.2c-0.1,0.1,0,0,0,0
			c-0.1,0-0.1,0-0.2,0.1c-0.1,0-0.1,0-0.2,0c0.2,0,0,0,0,0c-0.1,0-0.3,0-0.4,0c0.2,0-0.1,0-0.2,0c-0.1,0-0.1,0-0.2,0
			c0,0-0.2-0.1,0,0c-0.1,0-0.2-0.1-0.3-0.1c-0.1,0-0.1-0.1-0.2-0.1c-0.1-0.1-0.1,0,0,0c0,0-0.1-0.1-0.1-0.1
			c-0.1-0.1-0.1-0.1-0.2-0.2c-0.1-0.1,0.1,0.1,0,0c0-0.1-0.1-0.1-0.1-0.2c0-0.1-0.1-0.3-0.1-0.1c0-0.1,0-0.1-0.1-0.2
			c0,0,0-0.2,0-0.2c0,0.1,0-0.1,0-0.1c0,0,0-0.3,0-0.1c0-0.1,0-0.1,0.1-0.2c0,0,0.1-0.2,0-0.1c0.1-0.1,0.1-0.3,0.2-0.4
			c0,0-0.1,0.1,0,0c0.1-0.1,0.1-0.1,0.2-0.2c0,0,0.2-0.2,0,0c0.1,0,0.1-0.1,0.2-0.1c0.1,0,0.1-0.1,0.2-0.1c0.1,0,0.1,0,0,0
			c0,0,0.1,0,0.1,0c0.1,0,0.1,0,0.2,0c0.1,0,0,0,0,0c0,0,0.1,0,0.1,0c0.1,0,0.1,0,0.2,0c-0.1,0,0.1,0,0.1,0c0.4,0.1,0.8-0.2,0.9-0.5
			C386.8,43.7,386.5,43.3,386.2,43.2L386.2,43.2z"/>
	</g>
</g>
<g>
	<g>
		<path class="st0" d="M369.1,78.7c-0.7-0.4-1.6-0.2-2.2,0.2c-0.7,0.5-1,1.2-1.3,2c-0.3,1.2-0.6,2.8,0.2,3.9
			c0.5,0.6,1.3,0.9,2.1,0.7c0.8-0.2,1.5-0.8,1.9-1.6c0.4-0.7,0.7-1.6,0.8-2.3c0.1-0.8,0.1-1.6-0.5-2.2c-0.5-0.5-1.3-0.7-2-0.6
			c-0.7,0.1-1.4,0.6-1.5,1.4c0,0.5,0.5,0.6,0.8,0.3c-0.1,0.1,0.1-0.1,0.1-0.1c0.1,0,0.1-0.1,0.1-0.1c0.1-0.1,0,0,0,0
			c0,0,0.1,0,0.1-0.1c0,0,0.1-0.1,0,0c0,0,0.1,0,0.1,0c0,0,0.1,0,0.1,0c0,0,0.2,0,0.1,0c0.1,0,0.2,0,0.2,0c0,0,0.1,0,0.1,0
			c0.1,0-0.1,0,0,0c0.1,0,0.2,0,0.3,0.1c0.1,0-0.1-0.1,0,0c0.1,0,0.1,0.1,0.2,0.1c0.1,0.1,0,0,0,0c0,0,0.1,0.1,0.1,0.1
			c0,0,0.1,0.1,0,0c0,0,0,0.1,0.1,0.1c0.1,0.2,0.1,0.4,0.1,0.7c-0.1,0.6-0.3,1.2-0.6,1.7c-0.1,0.2-0.2,0.5-0.4,0.7
			c-0.2,0.2-0.3,0.3-0.5,0.4c-0.1,0.1-0.3,0.1-0.5,0.1c-0.1,0-0.2-0.1-0.3-0.2c0,0-0.1-0.1,0,0c0,0,0-0.1-0.1-0.1
			c0,0-0.1-0.3-0.1-0.2c0-0.1-0.1-0.2-0.1-0.3c0-0.1,0-0.1,0-0.2c0,0,0-0.2,0-0.1c0-0.2,0-0.4,0-0.6c0-0.1,0-0.2,0-0.4
			c0-0.1,0-0.2,0-0.2c0.1-0.6,0.2-1.3,0.6-1.8c0.2-0.3,0.7-0.6,1.1-0.4C369.2,80,369.8,79,369.1,78.7L369.1,78.7z"/>
	</g>
</g>
<g>
	<g>
		<path class="st0" d="M378.3,79.2c-1.4-0.2-2.9,1-3.1,2.4c-0.3,1.5,0.7,3,2.1,3.5c1.4,0.5,3-0.2,3.8-1.5c0.8-1.3,0.5-2.9-0.5-4.1
			c-0.5-0.6-1.3-1-2.1-1.1c-0.4,0-0.8,0-1.2,0.3c-0.4,0.3-0.6,0.7-0.5,1.2c0,0.3,0.5,0.5,0.8,0.3c0,0,0.1-0.1,0.1-0.1
			c0.1,0,0.1,0,0,0c0.1,0,0.2-0.1,0.3-0.1c0.1,0,0.2,0,0.3-0.1c-0.2,0-0.1,0,0,0c0,0,0.3,0,0.2,0c-0.1,0,0.1,0,0.1,0
			c0,0,0.1,0,0.1,0c0.2,0-0.1-0.1,0.1,0c0,0,0.1,0,0.1,0.1c0.1,0.1,0.2,0.1,0.3,0.2c-0.1-0.1,0,0,0,0c0.1,0.1,0.1,0.1,0.2,0.2
			c0,0,0.1,0.1,0.1,0.1c0,0,0.1,0.2,0.1,0.1c-0.1-0.1,0.1,0.1,0.1,0.1c0,0,0,0.1,0.1,0.1c0,0.1,0.1,0.1,0.1,0.2c0,0,0,0.1,0,0
			c0,0.1,0.1,0.3,0.1,0.4c0,0,0,0.1,0,0.1c0-0.1,0,0,0,0c0,0.1,0,0.2,0,0.3c0,0.2,0-0.1,0,0.1c0,0,0,0.1,0,0.1c0,0.1,0,0.1-0.1,0.2
			c0-0.1,0,0,0,0.1c-0.1,0.1-0.1,0.2-0.2,0.3c0,0-0.1,0.1,0,0c0,0-0.1,0.1-0.1,0.1c-0.1,0.1-0.2,0.1-0.2,0.2c-0.2,0.2,0.1-0.1,0,0
			c-0.1,0-0.1,0.1-0.2,0.1c-0.1,0-0.1,0.1-0.2,0.1c0,0-0.2,0.1,0,0c-0.1,0-0.2,0.1-0.3,0.1c0,0-0.2,0,0,0c-0.1,0-0.1,0-0.2,0
			c-0.1,0-0.1,0-0.2,0c-0.2,0,0.1,0-0.1,0c-0.1,0-0.2-0.1-0.3-0.1c0.1,0,0,0,0,0c-0.1,0-0.1-0.1-0.2-0.1c0,0-0.1,0-0.1-0.1
			c-0.2-0.1,0.1,0.1-0.1,0c-0.1-0.1-0.2-0.2-0.3-0.2c0,0-0.2-0.2-0.1,0c0,0-0.1-0.1-0.1-0.1c-0.1-0.1-0.1-0.2-0.2-0.3
			c-0.1-0.1,0,0,0,0c0-0.1,0-0.1-0.1-0.2c0,0,0-0.1,0-0.1c0-0.2,0,0.1,0-0.1c0-0.1,0-0.1,0-0.2c0-0.2,0,0.1,0-0.1c0-0.1,0-0.1,0-0.2
			c0,0,0.1-0.2,0-0.1c0.1-0.1,0.1-0.2,0.2-0.3c0.1-0.2-0.1,0.1,0.1-0.1c0-0.1,0.1-0.1,0.1-0.2c0,0,0.1-0.1,0.1-0.1
			c0.1-0.1,0.1-0.1,0,0c0,0,0.1,0,0.1-0.1c0,0,0.1-0.1,0.2-0.1c0,0,0.2-0.1,0.1,0c0.1,0,0.3-0.1,0.4-0.1c-0.1,0,0,0,0,0
			c0.1,0,0.2,0,0.3,0c0.4,0,0.7-0.4,0.8-0.7C379,79.5,378.6,79.3,378.3,79.2L378.3,79.2z"/>
	</g>
</g>
<g>
	<g>
		<path class="st0" d="M385.8,80.8c0.1,0.9,0.2,1.9,0.3,2.8c0,0.5,0.1,1,0.1,1.5c0.1,0.5,0.1,1.1,0.5,1.5c0.3,0.3,0.8,0.2,1-0.2
			c0.3-0.4,0.2-1,0.2-1.5c0-0.5-0.1-0.9-0.1-1.4c-0.1-0.9-0.2-1.8-0.2-2.8c0-0.4-0.3-0.9-0.8-0.8C386.3,80,385.8,80.3,385.8,80.8
			L385.8,80.8z"/>
	</g>
</g>
<g>
	<g>
		<path class="st0" d="M366.1,114.1c-0.9,1.1-1.9,2.5-1.4,4c0.2,0.6,0.6,1.2,1.2,1.5c0.7,0.4,1.6,0.2,2.2-0.2c1.3-0.9,1.9-2.4,1.7-4
			c-0.2-1.4-1.3-2.7-2.8-2.7c-0.8,0-1.5,0.5-1.8,1.2c-0.3,0.7-0.4,1.5,0.2,2c0.2,0.2,0.4,0.2,0.6,0.1c0.2-0.1,0.3-0.4,0.3-0.6
			c0,0,0-0.1,0-0.1c-0.1-0.2,0,0.1,0-0.1c0-0.2,0,0,0-0.1c0-0.1,0-0.1,0-0.2c0,0.1,0-0.1,0-0.1c0,0.1,0,0,0,0c0-0.1,0.1-0.1,0.1-0.2
			c-0.1,0.1,0.1-0.1,0.1-0.1c0.1-0.1,0,0,0,0c0,0,0.1-0.1,0.1-0.1c0,0,0.1-0.1,0,0c-0.2,0.1,0.4-0.1,0.1,0c0,0,0.1,0,0.1,0
			c0,0,0.2,0,0.1,0c-0.1,0,0.1,0,0.1,0c0,0-0.1,0,0,0c0.1,0,0.3,0.1,0.2,0c0.1,0,0.2,0.1,0.3,0.2c0.1,0.1-0.1-0.1,0,0
			c0,0,0.1,0.1,0.1,0.1c0,0,0.1,0.1,0.1,0.1c0.1,0.1-0.1-0.1,0,0c0.1,0.1,0.1,0.2,0.2,0.3c0,0,0.1,0.3,0.1,0.2
			c0,0.1,0.1,0.2,0.1,0.4c0,0.1,0,0.1,0,0.2c0-0.1,0,0,0,0c0,0.1,0,0.2,0,0.4c0,0.2,0,0.4-0.1,0.6c-0.1,0.4-0.3,0.7-0.6,1
			c0,0-0.1,0.1-0.1,0.1c-0.1,0.1,0.2-0.1-0.1,0c-0.1,0-0.1,0.1-0.2,0.1c0,0-0.1,0.1,0,0c-0.1,0-0.1,0-0.2,0c0.1,0,0,0-0.1,0
			c0,0-0.1,0-0.1,0c0.2,0,0,0-0.1,0c0.1,0-0.1-0.1-0.1-0.1c-0.1-0.1,0.1,0.1,0,0c0,0-0.1-0.1-0.1-0.1c0,0-0.1-0.1,0,0
			c0,0-0.1-0.1-0.1-0.1c0,0,0-0.1-0.1-0.1c0,0-0.1-0.2,0-0.1c0-0.1-0.1-0.2-0.1-0.3c0,0,0-0.1,0,0c0-0.1,0-0.1,0-0.2
			c0-0.2,0.1-0.5,0.2-0.8c0.2-0.5,0.6-1,0.9-1.5C367.7,114.3,366.6,113.5,366.1,114.1L366.1,114.1z"/>
	</g>
</g>
<g>
	<g>
		<path class="st0" d="M374,116c0.1,0.7,0.2,1.4,0.4,2c0.1,0.3,0.1,0.7,0.2,1c0.1,0.4,0.2,0.8,0.4,1.1c0.2,0.2,0.4,0.4,0.7,0.3
			c0.3,0,0.5-0.2,0.6-0.5c0.1-0.4,0.1-0.8,0-1.3c0-0.4-0.1-0.7-0.2-1c-0.1-0.7-0.2-1.4-0.4-2.1c-0.1-0.4-0.6-0.7-1-0.6
			C374.2,115.1,373.9,115.5,374,116L374,116z"/>
	</g>
</g>
<g>
	<g>
		<path class="st0" d="M385.3,114.6c-2.4,0.7-3,4.5-0.7,5.7c1.1,0.6,2.5,0.4,3.5-0.3c0.6-0.4,1-0.9,1.2-1.6c0.2-0.7,0.1-1.5-0.2-2.1
			c-0.3-0.7-0.9-1.3-1.5-1.7c-0.8-0.4-2-0.7-2.6,0.2c-0.2,0.3-0.1,0.7,0.2,0.9c0.1,0,0.1,0.1,0.2,0.1c0.1,0,0.2,0,0.3,0.1
			c0,0,0.1,0,0,0c-0.1,0,0,0,0,0c0.1,0,0.2,0,0.3,0c0.1,0,0.1,0,0.2,0c0.1,0-0.2,0,0,0c0,0,0.1,0,0.1,0c0.1,0,0.1,0,0.2,0
			c0.1,0,0.1,0,0.2,0.1c0,0,0.1,0,0.1,0c0,0-0.1-0.1,0,0c0.1,0.1,0.2,0.1,0.3,0.2c0,0,0,0,0.1,0c0.1,0-0.1,0-0.1,0
			c0.1,0,0.1,0.1,0.2,0.1c0.1,0.1,0.2,0.2,0.3,0.3c0.1,0.1-0.1-0.1,0,0c0,0.1,0.1,0.1,0.1,0.2c0,0,0.2,0.3,0.2,0.3c0,0-0.1-0.2,0,0
			c0,0,0,0.1,0,0.1c0,0.1,0,0.1,0.1,0.2c0,0.1,0,0.1,0,0.2c0,0.1,0-0.1,0-0.1c0,0,0,0.1,0,0.1c0,0.1,0,0.1,0,0.2c0,0,0,0.1,0,0.1
			c0,0.1,0,0,0,0c-0.1,0.1-0.1,0.2-0.1,0.3c0,0,0,0,0,0.1c0,0.1,0,0,0-0.1c0,0-0.1,0.1-0.1,0.1c0,0-0.1,0.1-0.1,0.1c0,0,0,0,0,0.1
			c0,0.1,0.1-0.1,0.1-0.1c-0.1,0.1-0.1,0.2-0.2,0.2c0,0-0.1,0.1-0.1,0.1c-0.1,0.1,0.1-0.1,0.1-0.1c0,0-0.1,0-0.1,0.1
			c-0.1,0.1-0.2,0.1-0.3,0.2c0,0-0.1,0-0.1,0.1c-0.1,0.1,0.2-0.1,0,0c-0.1,0-0.2,0.1-0.3,0.1c-0.1,0-0.1,0-0.2,0c0,0,0,0-0.1,0
			c-0.1,0,0.1,0,0.1,0c-0.1,0-0.2,0-0.3,0c-0.1,0-0.1,0-0.2,0c0,0-0.2,0-0.1,0c0.1,0,0,0-0.1,0c-0.1,0-0.1,0-0.2,0
			c0,0-0.1-0.1-0.1,0c0,0,0.1,0.1,0.1,0c0,0-0.1,0-0.1,0c-0.1,0-0.2-0.1-0.3-0.2c-0.1,0,0.1,0,0.1,0c0,0-0.1,0-0.1,0
			c0,0-0.1-0.1-0.1-0.1c0,0-0.1-0.1-0.1-0.1c-0.1-0.1,0,0,0,0c0,0,0-0.1-0.1-0.1c-0.1-0.1-0.1-0.2-0.2-0.3c0,0,0,0,0-0.1
			c-0.1-0.1,0,0,0,0.1c0,0,0-0.1-0.1-0.2c0-0.1-0.1-0.2-0.1-0.3c0,0,0-0.1,0-0.1c0,0,0,0.1,0,0.1c0-0.1,0-0.1,0-0.2
			c0-0.1,0-0.2,0-0.4c0,0,0,0,0-0.1c0-0.1,0,0.1,0,0c0-0.1,0-0.1,0-0.2c0-0.1,0.1-0.2,0.1-0.4c0-0.1,0,0.1,0,0.1c0,0,0-0.1,0-0.1
			c0-0.1,0.1-0.1,0.1-0.2c0-0.1,0.1-0.1,0.1-0.2c0,0,0,0,0-0.1c0-0.1-0.1,0.1,0,0c0.1-0.1,0.2-0.2,0.2-0.3c0,0,0,0,0.1-0.1
			c0.1-0.1,0,0,0,0c0,0,0.1-0.1,0.2-0.1c0,0,0.1-0.1,0.1-0.1c0,0,0.1-0.1,0,0c-0.1,0.1,0,0,0.1,0c0.3-0.1,0.6-0.4,0.5-0.8
			C386,114.8,385.7,114.5,385.3,114.6L385.3,114.6z"/>
	</g>
</g>
<g>
	<g>
		<path class="st0" d="M365.1,144.5c-0.4,1.5-0.7,3.2,0.4,4.5c1,1.2,2.8,0.9,3.8-0.2c1-1.1,1.3-2.6,1-4c-0.2-1.4-1.2-2.8-2.6-3.3
			c-0.8-0.2-1.7,0-2.3,0.6c-0.6,0.6-0.8,1.6-0.2,2.3c0.2,0.2,0.6,0.2,0.8,0.1c0.3-0.2,0.4-0.5,0.3-0.8c0,0.1,0-0.1,0-0.2
			c0-0.1,0,0,0,0c0,0,0-0.1,0-0.1c0-0.1,0.1-0.2,0.2-0.2c-0.1,0.1,0.1,0,0.1-0.1c0,0,0.1,0,0.1-0.1c-0.1,0.1,0.1,0,0,0
			c0.2,0,0.4,0,0.5,0.1c0.8,0.4,1.1,1.2,1.3,2c0.2,0.8,0,1.8-0.5,2.4c-0.2,0.3-0.5,0.5-0.8,0.6c-0.3,0.1-0.5,0-0.8-0.2
			c-0.8-0.8-0.5-2.1-0.2-3.1C366.6,143.9,365.3,143.6,365.1,144.5L365.1,144.5z"/>
	</g>
</g>
<g>
	<g>
		<path class="st0" d="M374.9,144.1c0.1,1,0.1,2,0.3,2.9c0.1,0.5,0.1,0.9,0.2,1.4c0.1,0.5,0.2,1.1,0.6,1.5c0.3,0.3,0.8,0.2,1-0.2
			c0.3-0.5,0.2-1.1,0.1-1.6c-0.1-0.4-0.1-0.9-0.2-1.3c-0.1-0.8-0.2-1.8-0.2-2.7c0-0.4-0.4-0.9-0.8-0.8
			C375.4,143.3,374.9,143.6,374.9,144.1L374.9,144.1z"/>
	</g>
</g>
<g>
	<g>
		<path class="st0" d="M383.8,145.1c0.1,0.9,0.2,1.9,0.4,2.8c0.1,0.5,0.1,0.9,0.2,1.4c0.1,0.5,0.2,1,0.4,1.4c0.3,0.5,1,0.4,1.2-0.2
			c0.2-0.5,0.1-1,0.1-1.5c0-0.5-0.1-1.1-0.2-1.6c-0.1-1-0.2-1.9-0.4-2.9c-0.1-0.4-0.6-0.7-1-0.6C384,144.2,383.8,144.6,383.8,145.1
			L383.8,145.1z"/>
	</g>
</g>
<g>
	<g>
		<path class="st0" d="M427.7,43.8c0,0.8,0.1,1.5,0.1,2.3c0,0.4,0,0.7,0.1,1.1c0,0.2,0,0.5,0.1,0.7c0,0.1,0,0.2,0.1,0.2
			c0.1,0.2,0.2,0.3,0.3,0.4c0.3,0.3,0.8,0.2,1-0.2c0.2-0.4,0.2-0.8,0.2-1.3c0-0.4,0-0.8-0.1-1.1c0-0.8-0.1-1.5-0.1-2.3
			c0-0.4-0.4-0.9-0.8-0.8C428.1,43,427.7,43.3,427.7,43.8L427.7,43.8z"/>
	</g>
</g>
<g>
	<g>
		<path class="st0" d="M436.8,44.3c-0.7,0.8-0.8,2-0.3,2.9c0.4,0.9,1.4,1.6,2.4,1.6c1.2-0.1,2.3-1,2.7-2.1c0.4-1.1,0-2.3-0.9-3
			c-0.4-0.4-1-0.7-1.6-0.8c-0.6-0.1-1.3-0.1-1.9,0.3c-0.5,0.3-0.6,0.9-0.2,1.3c0.3,0.3,0.6,0.6,1,0.6c0.3,0,0.6-0.2,0.6-0.5
			c0.1-0.3,0-0.5-0.1-0.7c-0.1-0.1-0.2-0.3-0.2-0.4c-0.2,0.4-0.4,0.8-0.5,1.2c0.2-0.1,0.3-0.1,0.5-0.2c0.1,0,0.1,0,0,0
			c0,0,0.1,0,0.1,0c0.1,0,0.2,0,0.3,0c0.1,0,0,0.1,0,0c0,0,0.1,0,0.1,0c0.1,0,0.2,0,0.2,0.1c0,0,0.1,0,0.1,0c0,0-0.1,0-0.1,0
			c0,0,0.1,0,0.1,0c0.1,0,0.2,0.1,0.3,0.1c0,0,0.1,0,0.1,0.1c0,0,0,0,0,0c0.1,0,0.1,0,0,0c0,0,0.2,0.1,0.2,0.2c0,0,0.1,0.1,0.1,0.1
			c0.1,0.1,0.1,0.1,0,0c0,0.1,0.1,0.2,0.2,0.2c0,0,0,0.1,0.1,0.1c0,0.1,0,0.1,0,0c0,0.1,0.1,0.2,0.1,0.2c0,0,0,0.1,0,0.2
			c0,0,0-0.2,0,0c0,0.1,0,0.2,0,0.3c0-0.2,0-0.1,0,0c0,0,0,0.1,0,0.1c0,0,0,0.2-0.1,0.2c0,0,0.1-0.2,0,0c0,0.1-0.1,0.2-0.1,0.3
			c0,0-0.1,0.1-0.1,0.1c-0.1,0.1,0.1-0.1,0,0c-0.1,0.1-0.1,0.1-0.2,0.2c0,0-0.1,0.1-0.1,0.1c0,0,0.2-0.1,0,0
			c-0.1,0.1-0.2,0.1-0.3,0.2c-0.1,0.1,0,0,0.1,0c0,0-0.2,0.1-0.2,0.1c0,0-0.1,0-0.1,0c-0.2,0,0.2,0,0,0c-0.1,0-0.2,0-0.3,0
			c-0.2,0,0,0,0,0c0,0-0.1,0-0.1,0c0,0-0.1,0-0.1,0c-0.1,0,0.2,0.1,0,0c-0.1,0-0.1-0.1-0.2-0.1c-0.1-0.1,0.1,0.1,0,0
			c0,0-0.1,0-0.1-0.1c-0.1-0.1-0.1-0.1-0.2-0.2c-0.1-0.1,0-0.1,0,0c0,0-0.1-0.1-0.1-0.1c-0.1-0.1-0.1-0.2-0.1-0.2c0,0-0.1-0.2,0,0
			c0,0.1,0-0.1,0-0.1c0-0.1-0.1-0.2-0.1-0.3c0,0,0-0.1,0-0.1c0,0.1,0,0.1,0,0.1c0,0,0-0.1,0-0.1c0-0.1,0-0.2,0-0.3c0-0.1,0,0,0,0.1
			c0,0,0-0.1,0-0.2c0,0,0-0.1,0-0.1c0-0.1-0.1,0.1,0,0c0,0,0-0.1,0.1-0.1c0,0,0.2-0.2,0,0c0.2-0.3,0.3-0.8,0-1.1
			C437.6,44.1,437.1,44,436.8,44.3L436.8,44.3z"/>
	</g>
</g>
<g>
	<g>
		<path class="st0" d="M447.9,42.4c-1.3,0.6-2.3,1.7-2.5,3.1c-0.1,0.7,0,1.4,0.4,2c0.4,0.5,0.9,0.9,1.5,1.1c1.2,0.4,2.6,0,3.4-1.1
			c0.8-1,0.8-2.4,0.3-3.5c-0.3-0.7-0.9-1.2-1.5-1.6c-0.3-0.2-0.6-0.3-1-0.4c-0.2-0.1-0.4-0.1-0.6-0.1c-0.3,0-0.5,0.1-0.8,0.3
			c-0.3,0.2-0.2,0.7,0,1c0.2,0.2,0.5,0.3,0.8,0.4c0.1,0,0.2,0.1,0.3,0.1c0.2,0.1-0.1-0.1,0.1,0c0.1,0,0.1,0.1,0.2,0.1
			c0.1,0,0.2,0.1,0.3,0.2c0,0,0.2,0.1,0,0c0,0,0.1,0.1,0.1,0.1c0.1,0.1,0.2,0.2,0.3,0.2c0,0,0.1,0.1,0.1,0.1c0.1,0.1-0.1-0.1,0,0
			c0.1,0.1,0.1,0.2,0.2,0.3c0,0,0,0.1,0.1,0.1c0.1,0.2,0-0.1,0,0c0,0.1,0.1,0.2,0.1,0.3c0,0.1,0,0.1,0,0.2c0,0.1,0,0,0,0
			c0,0,0,0.1,0,0.1c0,0.1,0,0.2,0,0.3c0,0.1,0,0.1,0,0.2c0,0,0-0.2,0,0c0,0.1,0,0.2-0.1,0.3c0,0,0,0.1,0,0.1c0.1-0.2,0,0,0,0
			c-0.1,0.1-0.1,0.2-0.2,0.3c0,0-0.1,0.1,0,0c0,0-0.1,0.1-0.1,0.1c0,0-0.2,0.2-0.2,0.2c0,0,0.2-0.1,0,0c-0.1,0-0.1,0.1-0.2,0.1
			c0,0,0,0,0,0c-0.1,0-0.1,0,0,0c0,0-0.1,0-0.1,0c-0.1,0-0.2,0-0.3,0.1c0.2,0-0.1,0-0.1,0c-0.1,0-0.1,0-0.2,0c-0.1,0-0.2,0,0,0
			c-0.1,0-0.2,0-0.3-0.1c0,0-0.1,0-0.1,0c0.2,0.1,0.1,0,0,0c-0.1,0-0.2-0.1-0.3-0.2c0.1,0.1,0.1,0.1,0,0c-0.1,0-0.1-0.1-0.2-0.1
			c0,0-0.1-0.1-0.1-0.1c0,0,0.1,0.1,0,0c0-0.1-0.1-0.1-0.1-0.2c0,0-0.1-0.2,0,0c0-0.1-0.1-0.2-0.1-0.3c0,0,0-0.2,0-0.1
			c0-0.1,0-0.2,0-0.2c0-0.1,0-0.1,0-0.2c0-0.2,0,0.1,0-0.1c0-0.1,0.1-0.3,0.1-0.4c0,0-0.1,0.1,0,0c0-0.1,0.1-0.1,0.1-0.2
			c0-0.1,0.1-0.1,0.1-0.2c0,0,0,0,0,0c0,0,0.1-0.1,0.1-0.1c0.1-0.1,0.2-0.2,0.3-0.3c0,0,0.1-0.1,0.1-0.1c0,0,0,0,0,0
			c0,0,0.1,0,0.1-0.1c0.2-0.2,0.5-0.3,0.8-0.4c0.4-0.2,0.5-0.7,0.3-1.1C448.7,42.3,448.3,42.2,447.9,42.4L447.9,42.4z"/>
	</g>
</g>
<g>
	<g>
		<path class="st0" d="M426.4,78.8c0.1,0.9,0.2,1.8,0.3,2.7c0,0.4,0.1,0.8,0.2,1.3c0.1,0.4,0.2,1.1,0.6,1.3c0.2,0.1,0.5,0.1,0.7-0.1
			c0.4-0.3,0.3-1,0.3-1.4c0-0.4,0-0.8-0.1-1.2c-0.1-0.9-0.2-1.7-0.3-2.5c0-0.4-0.3-0.9-0.8-0.8C426.8,78,426.3,78.4,426.4,78.8
			L426.4,78.8z"/>
	</g>
</g>
<g>
	<g>
		<path class="st0" d="M435.9,79.1c-0.8,0.8-1.4,2.1-1,3.3c0.4,1.2,1.6,2,2.9,1.8c1.2-0.2,2-1.3,2.1-2.5c0.1-1.2-0.7-2.3-1.6-3
			c-0.5-0.3-1.1-0.5-1.7-0.5c-0.4,0-0.7,0.2-1,0.5c-0.3,0.3-0.5,0.8-0.2,1.2c0.1,0.2,0.4,0.4,0.7,0.3c0.2-0.1,0.3-0.1,0.4-0.2
			c0,0,0.1-0.1,0.1-0.1c0,0.1-0.2,0.1-0.1,0c0.1-0.1-0.2,0.1-0.1,0c0.1,0,0.2,0-0.1,0c0.1,0,0.2,0,0.3,0c0,0,0,0,0.1,0
			c0.1,0,0,0-0.1,0c0,0,0.3,0,0.3,0c0,0-0.2,0-0.1,0c0,0,0.1,0,0.1,0c0,0,0.1,0,0.1,0c0.1,0,0,0,0,0c0.1,0,0.2,0.1,0.3,0.1
			c0.1,0,0.2,0.1,0.2,0.1c0.1,0.1-0.1-0.1,0,0c0,0,0.1,0.1,0.1,0.1c0.1,0.1,0.1,0.1,0.2,0.2c0,0,0.1,0.1,0.1,0.1
			c0.1,0.1-0.1-0.1,0,0c0.1,0.1,0.1,0.2,0.1,0.2c0,0.1,0.1,0.2,0.1,0.2c-0.1-0.1,0-0.1,0,0c0,0,0,0.1,0,0.1c0,0,0,0.1,0,0.1
			c0,0,0,0,0,0.1c0,0.1,0,0.1,0,0c0,0.1,0,0.2,0,0.2c0,0,0,0.2,0,0.1c0-0.1,0,0.1,0,0.1c0,0.1,0,0.2-0.1,0.2c-0.1,0.2,0.1-0.1,0,0
			c0,0.1-0.1,0.1-0.1,0.2c0,0-0.1,0.1-0.1,0.1c-0.1,0.1,0,0,0,0c0,0.1-0.2,0.2-0.2,0.2c0,0-0.1,0.1-0.1,0.1c0.1-0.1,0.1-0.1,0,0
			c0,0-0.1,0.1-0.1,0.1c0,0-0.2,0.1-0.1,0c0.1,0,0,0-0.1,0c0,0-0.1,0-0.1,0c-0.2,0,0,0,0,0c0,0-0.1,0-0.1,0c0,0-0.2,0,0,0
			c0,0-0.1,0-0.1,0c0,0-0.1,0-0.1,0c-0.2,0,0.1,0.1,0,0c-0.1,0-0.2-0.1-0.3-0.1c0.1,0.1,0.1,0,0,0c0,0-0.1-0.1-0.1-0.1
			c-0.1-0.1-0.1-0.1-0.2-0.2c0.1,0.1,0,0,0,0c0-0.1-0.1-0.1-0.1-0.2c0,0,0-0.1-0.1-0.1c0-0.1,0,0,0,0c0,0,0-0.1,0-0.1
			c0,0,0-0.1,0-0.1c0,0,0-0.2,0-0.1c0-0.1,0-0.2,0-0.3c0,0,0-0.1,0-0.1c0-0.2,0,0.1,0-0.1c0-0.1,0.1-0.3,0.1-0.4c0,0,0.1-0.1,0,0
			c0-0.1,0.1-0.1,0.1-0.2c0.1-0.1,0.1-0.2,0.2-0.3c0.1-0.2-0.1,0,0,0c0.1-0.1,0.1-0.1,0.2-0.2c0.3-0.3,0.3-0.7,0-1
			C436.6,78.8,436.2,78.8,435.9,79.1L435.9,79.1z"/>
	</g>
</g>
<g>
	<g>
		<path class="st0" d="M446.1,79.8c0.1,1.3,0.1,2.7,0.5,4c0.1,0.3,0.4,0.5,0.7,0.4c0.3,0,0.5-0.3,0.6-0.6c0.2-1.3,0.1-2.6,0-3.9
			c0-0.4-0.4-0.9-0.8-0.8C446.6,79,446.1,79.3,446.1,79.8L446.1,79.8z"/>
	</g>
</g>
<g>
	<g>
		<path class="st0" d="M426.6,113.8c0.2,0.8,0.3,1.7,0.4,2.4c0.1,0.8,0.1,1.7,0.3,2.5c0.2,0.6,0.9,0.5,1.1,0
			c0.3-0.8,0.3-1.8,0.2-2.7c-0.1-0.9-0.2-1.8-0.4-2.7c-0.1-0.4-0.6-0.7-1-0.6C426.8,112.9,426.5,113.3,426.6,113.8L426.6,113.8z"/>
	</g>
</g>
<g>
	<g>
		<path class="st0" d="M435,114.1c0.1,0.8,0.2,1.6,0.4,2.3c0.1,0.8,0.3,1.6,0.6,2.3c0.1,0.2,0.4,0.3,0.7,0.3
			c0.3-0.1,0.4-0.3,0.5-0.6c0.1-0.8,0-1.6-0.2-2.5c-0.1-0.8-0.2-1.6-0.4-2.3c-0.1-0.4-0.6-0.7-1-0.6
			C435.2,113.2,435,113.6,435,114.1L435,114.1z"/>
	</g>
</g>
<g>
	<g>
		<path class="st0" d="M447,113.9c-1.2,0.3-2.4,1.1-2.6,2.3c-0.2,1.3,0.6,2.7,2,2.7c1.3,0,2.4-1,2.8-2.2c0.3-1,0.2-2.2-0.4-3.1
			c-0.3-0.5-0.9-1.1-1.5-1.3c-0.6-0.2-1.4,0.1-1.4,0.9c0,0.6,0.5,1,1.1,0.9c0.6-0.2,0.7-0.9,0.2-1.3c0,0,0,0,0,0
			c0.1,0.1,0.2,0.2,0.3,0.3c0,0,0,0,0,0c0,0.1,0.1,0.2,0.1,0.4c0,0.2-0.1,0.3,0,0.2c-0.1,0.1-0.2,0.2-0.3,0.3
			c-0.5,0.3-0.6-0.1-0.4,0.1c0,0,0.1,0,0.1,0.1c0,0,0.1,0,0.1,0.1c0,0-0.1-0.1,0,0c0.1,0.1,0.2,0.2,0.3,0.3c-0.2-0.2,0,0,0,0.1
			c0,0.1,0.1,0.1,0.1,0.2c0,0.1,0.1,0.1,0.1,0.2c0.1,0.1,0-0.1,0,0c0,0,0,0.1,0.1,0.1c0.1,0.2,0.1,0.3,0.1,0.5c0,0.1,0-0.1,0,0.1
			c0,0.1,0,0.2,0,0.3c0,0.1,0,0.2,0,0.2c0,0,0,0.1,0,0.1c0,0,0-0.1,0-0.1c-0.1,0.2-0.1,0.3-0.1,0.5c0.1-0.2,0,0,0,0.1
			c0,0.1-0.1,0.1-0.1,0.2c0,0,0,0.1-0.1,0.1c-0.1,0.1,0.1-0.1,0,0c-0.1,0.1-0.1,0.2-0.2,0.2c0,0-0.1,0.1-0.1,0.1c0,0,0.1-0.1,0,0
			c-0.1,0-0.2,0.1-0.2,0.1c-0.1,0.1,0.1,0,0,0c0,0-0.1,0-0.1,0c0,0-0.1,0-0.1,0c0.2,0-0.1,0-0.1,0c0,0-0.1,0,0,0c0,0-0.1,0-0.1,0
			c0.1,0,0,0-0.1,0c-0.1,0,0.1,0.1,0,0c0,0-0.1-0.1-0.1-0.1c0,0,0,0-0.1-0.1c0.1,0.1,0,0,0,0c0,0-0.1-0.2-0.1-0.1c0,0.1,0-0.1,0-0.2
			c0,0,0-0.2,0-0.1c0-0.1,0-0.2,0-0.3c0,0.1,0-0.1,0-0.1c0-0.1,0-0.1,0,0c0-0.1,0.1-0.1,0.1-0.2c0.1-0.2,0.2-0.2,0.3-0.4
			c0.1-0.1,0.3-0.2,0.5-0.3c0.2-0.1,0.3-0.1,0.6-0.2c0.3-0.1,0.5-0.4,0.5-0.8C447.7,114,447.4,113.9,447,113.9L447,113.9z"/>
	</g>
</g>
<g>
	<g>
		<path class="st0" d="M427.2,143.9c0.3,0.9,0.5,1.8,0.6,2.7c0.1,0.4,0.1,0.8,0.1,1.2c0,0.5-0.1,1,0,1.5c0.1,0.3,0.4,0.6,0.8,0.6
			c0.4,0,0.7-0.3,0.8-0.6c0.2-0.5,0.1-1.1,0.1-1.5c0-0.5-0.1-1-0.1-1.5c-0.1-0.9-0.3-1.9-0.7-2.8c-0.1-0.4-0.6-0.7-1-0.6
			C427.4,143,427,143.4,427.2,143.9L427.2,143.9z"/>
	</g>
</g>
<g>
	<g>
		<path class="st0" d="M436.5,144.4c0,0.9,0.1,1.8,0.2,2.6c0.1,0.4,0.2,0.8,0.3,1.2c0.2,0.5,0.3,1,0.8,1.3c0.3,0.2,0.7,0,0.8-0.3
			c0.2-0.4,0-0.9,0-1.3c-0.1-0.4-0.1-0.8-0.2-1.1c0-0.2-0.1-0.4-0.1-0.6c0-0.1,0-0.1,0,0c0-0.1,0-0.1,0-0.2c0-0.1,0-0.2,0-0.3
			c0-0.4,0-0.8,0-1.2c0-0.4-0.4-0.9-0.8-0.8C436.9,143.5,436.5,143.9,436.5,144.4L436.5,144.4z"/>
	</g>
</g>
<g>
	<g>
		<path class="st0" d="M447.1,145.3c0.2,0.9,0.3,1.8,0.5,2.8c0.2,0.9,0.3,1.8,0.6,2.7c0.1,0.3,0.4,0.5,0.7,0.5
			c0.3-0.1,0.6-0.3,0.6-0.7c0-1-0.1-2-0.3-2.9c-0.2-0.9-0.3-1.9-0.5-2.8c-0.1-0.4-0.6-0.7-1-0.6C447.3,144.4,447,144.8,447.1,145.3
			L447.1,145.3z"/>
	</g>
</g>
<g>
	<g>
		<path class="st0" d="M346.5,30.8c0.1,17,0.1,34.1-0.2,51.1c-0.2,17-0.7,33.9-1.3,50.9c-0.2,4.7-0.4,9.5-0.6,14.2
			c-0.2,4.7-0.3,9.5,0.4,14.2c0,0.3,0.4,0.5,0.6,0.5c16-0.1,32.1,0.2,48.1,0.4c16,0.2,32,0.4,48,0.6c9,0.1,18,0.1,27,0.3
			c0.3,0,0.7-0.3,0.7-0.6c-0.1-8.6-0.5-17.1-0.7-25.7c-0.2-8.5-0.5-17-0.6-25.5C468,94,468.1,77,468.6,59.9
			c0.2-4.7,0.4-9.4,0.6-14.1c0.1-2.4,0.3-4.7,0.4-7.1c0.2-2.4,0.5-4.9,0.6-7.3c0-0.3-0.2-0.6-0.5-0.7c-16-3.8-32.4-5.6-48.9-6
			c-16.5-0.4-33,0.6-49.4,2.1c-9.3,0.8-18.6,1.9-27.9,2.9c-0.7,0.1-0.8,1.3,0,1.2c16.4-1.8,32.9-3.5,49.4-4.4
			c16.4-0.9,32.9-0.9,49.2,0.9c9.2,1,18.3,2.5,27.2,4.8c-0.2-0.2-0.4-0.5-0.5-0.7c-0.2,2.2-0.2,4.4-0.4,6.5
			c-0.1,2.1-0.3,4.2-0.4,6.3c-0.2,4.3-0.4,8.6-0.6,12.8c-0.3,8.5-0.5,17-0.6,25.4c-0.2,17.1,0,34.1,0.5,51.2
			c0.2,9.5,0.4,19.1,0.8,28.6c0.2-0.2,0.4-0.4,0.7-0.6c-8,0.1-16-0.1-24-0.2c-8-0.1-16.1-0.2-24.1-0.2c-16-0.2-32-0.3-48-0.5
			c-9-0.1-18-0.2-27-0.4c0.2,0.2,0.4,0.3,0.6,0.5c-0.5-4.2-0.5-8.5-0.4-12.8c0.2-4.2,0.4-8.4,0.5-12.6c0.3-8.4,0.6-16.9,0.8-25.3
			c0.4-17,0.7-33.9,0.7-50.9c0-9.5,0-19-0.1-28.5C348,29.8,346.5,29.9,346.5,30.8L346.5,30.8z"/>
	</g>
</g>
<g>
	<g>
		<path class="st1" d="M410.4,30.2c-0.8,16.2-1.3,32.4-1.7,48.7c-0.4,16.1-0.9,32.3-1.2,48.4c-0.2,9.1-0.5,18.1-0.4,27.2
			c0,0.8,1.1,0.7,1.2,0c0.4-8.1,0.5-16.3,0.7-24.5c0.1-8.1,0.3-16.1,0.5-24.2c0.4-16.1,0.8-32.3,1.3-48.4c0.3-9.1,0.5-18.1,0.6-27.2
			C411.4,29.5,410.4,29.5,410.4,30.2L410.4,30.2z"/>
	</g>
</g>
<g>
	<g>
		<path class="st1" d="M352,132.5c14.8,0.4,29.6,0.7,44.4,0.8c14.8,0,29.6-0.1,44.4-0.6c4.2-0.1,8.3-0.3,12.5-0.4
			c4.2-0.2,8.3-0.3,12.5-0.6c0.7-0.1,0.7-1.1,0-1.1c-7.4,0.1-14.8,0.6-22.2,0.8c-7.4,0.2-14.8,0.4-22.2,0.6
			c-14.8,0.3-29.6,0.4-44.4,0.2c-8.3-0.1-16.6-0.2-24.9-0.5C351.5,131.7,351.5,132.5,352,132.5L352,132.5z"/>
	</g>
</g>
<g>
	<g>
		<path class="st1" d="M352.6,99.5c14.5,0.4,29.1,0.7,43.6,0.9c14.6,0.2,29.2,0.3,43.8,0.3c8.2,0,16.4,0,24.6-0.4
			c0.7,0,0.8-1.1,0-1.1c-7.3-0.2-14.6,0-21.9,0c-7.2,0-14.5,0-21.7,0c-14.6,0-29.2-0.2-43.8-0.4c-8.2-0.1-16.4-0.3-24.6-0.5
			C351.8,98.2,351.8,99.5,352.6,99.5L352.6,99.5z"/>
	</g>
</g>
<g>
	<g>
		<path class="st1" d="M354.6,64.6c13.1-0.1,26.1-0.3,39.2-0.3c13.1-0.1,26.1-0.1,39.2-0.1c3.7,0,7.3,0,11,0c3.7,0,7.3,0,11-0.1
			c0.8,0,0.8-1.1,0-1.2c-6.6-0.3-13.2-0.1-19.7-0.1c-6.5,0-13,0-19.5,0.1c-13.1,0.1-26.1,0.2-39.2,0.4c-7.3,0.1-14.6,0.2-22,0.3
			C353.9,63.5,353.9,64.6,354.6,64.6L354.6,64.6z"/>
	</g>
</g>
<g>
	<g>
		<path class="st0" d="M464.3,143.9c0.2,0,0.2-0.3,0-0.3C464.2,143.6,464.2,143.9,464.3,143.9L464.3,143.9z"/>
	</g>
</g>
<g>
	<g>
		<path class="st0" d="M195.5,41.1c-1.5-1.4-3.9-0.3-4.6,1.3c-0.8,1.7-0.5,3.7,1,4.8c0.8,0.6,1.7,0.9,2.7,0.9c1,0,1.9-0.4,2.7-1
			c1.5-1.2,2.2-3.6,1.3-5.3c-0.5-1-1.6-1.5-2.7-1.5c-0.5,0-1,0.1-1.5,0.3c-0.5,0.2-1.1,0.4-1.5,0.8c-0.3,0.4-0.1,1,0.4,1
			c0.7,0,1.4-0.4,2.1-0.5c0.5-0.1,1.1-0.1,1.5,0.2c0.5,0.4,0.6,1.2,0.5,1.8c-0.1,0.6-0.4,1.2-0.7,1.6c-0.5,0.5-0.9,0.8-1.5,0.9
			c-0.5,0.1-1.1,0-1.6-0.1c-0.3-0.1-0.5-0.3-0.7-0.4c-0.3-0.2-0.4-0.4-0.6-0.7c-0.2-0.4-0.3-1-0.2-1.5c0.1-0.6,0.4-1.1,0.9-1.5
			c-0.1,0.1,0.1-0.1,0.1-0.1c0.1,0,0.1-0.1,0.2-0.1c0.1,0,0.3-0.1,0.4-0.1c0.3,0,0.6,0,0.8,0.2C195.1,42.7,196.1,41.7,195.5,41.1
			L195.5,41.1z"/>
	</g>
</g>
<g>
	<g>
		<path class="st0" d="M202.3,42.2c-1.3,0.4-2.3,1.8-2.2,3.2c0.1,1.5,1.2,2.7,2.6,2.9c1.5,0.2,2.9-0.5,3.5-1.8
			c0.6-1.3,0.4-2.9-0.7-3.9c-0.6-0.6-1.4-0.9-2.2-1c-0.8-0.1-1.9,0.1-2.3,0.8c-0.2,0.4,0,0.9,0.5,0.9c0.3,0,0.6-0.1,0.9-0.2
			c0.1,0,0.2-0.1,0.3-0.1c0.1,0,0,0,0,0c0,0,0.1,0,0.1,0c0.1,0,0.1,0,0.2,0c0.1,0,0.1,0,0.2,0c0,0,0.2,0,0.1,0c0.1,0,0.3,0,0.4,0.1
			c0.1,0,0.1,0,0.2,0.1c0.1,0-0.1,0,0.1,0c0.1,0.1,0.2,0.1,0.4,0.2c0,0,0.1,0.1,0,0c0.1,0,0.1,0.1,0.2,0.1c0,0,0.1,0.1,0.1,0.1
			c0,0,0,0,0.1,0.1c0,0,0.1,0.1,0.1,0.1c0-0.1,0,0.1,0.1,0.1c0,0,0.1,0.1,0.1,0.1c0,0.1,0.1,0.1,0.1,0.2c0,0,0,0.1,0,0
			c0-0.1,0,0,0,0c0,0.1,0.1,0.2,0.1,0.4c0,0.1,0,0.1,0,0.2c0-0.1,0,0.1,0,0.1c0,0.1,0,0.2,0,0.3c0,0,0,0.1,0,0.1c0,0,0-0.1,0,0
			c0,0.1,0,0.1,0,0.2c0,0.1-0.1,0.2-0.1,0.4c0,0.1,0,0,0,0c0,0,0,0.1,0,0.1c0,0.1-0.1,0.1-0.1,0.2c0,0-0.1,0.2-0.1,0.1
			c0.1-0.1,0,0.1-0.1,0.1c0,0-0.1,0.1-0.1,0.1c0,0-0.2,0.2-0.1,0.1c0.1-0.1-0.1,0.1-0.1,0.1c0,0-0.1,0.1-0.1,0.1c0,0-0.1,0-0.1,0
			c-0.1,0,0.1,0,0.1,0c-0.1,0-0.1,0.1-0.2,0.1c-0.1,0-0.2,0.1-0.3,0.1c0,0,0.2,0,0,0c0,0-0.1,0-0.1,0c-0.1,0-0.1,0-0.2,0
			c-0.1,0-0.1,0-0.2,0c-0.1,0,0.1,0,0.1,0c0,0-0.1,0-0.1,0c-0.1,0-0.3,0-0.4-0.1c-0.1,0-0.1,0-0.2-0.1c-0.1,0,0.1,0,0.1,0
			c0,0-0.1,0-0.1,0c-0.1-0.1-0.2-0.1-0.3-0.2c0,0,0,0-0.1,0c-0.1-0.1,0,0,0,0c0,0-0.1-0.1-0.1-0.1c0,0-0.1-0.1-0.1-0.1
			c0,0,0-0.1-0.1-0.1c-0.1-0.1,0,0,0,0c-0.1,0-0.1-0.2-0.2-0.3c0,0-0.1-0.1,0-0.1c0,0,0.1,0.2,0,0.1c0-0.1,0-0.1-0.1-0.2
			c0-0.1,0-0.1,0-0.2c0,0,0-0.1,0,0c0,0.1,0,0,0,0c0-0.1,0-0.3,0-0.4c0,0,0-0.1,0,0c0,0.1,0,0,0,0c0-0.1,0-0.1,0.1-0.2
			c0-0.1,0-0.1,0.1-0.2c0,0,0-0.1,0,0c0,0.1,0,0,0-0.1c0.1-0.1,0.1-0.2,0.2-0.3c0.1-0.1,0,0,0,0c0,0,0-0.1,0.1-0.1
			c0,0,0.1-0.1,0.1-0.1c0,0,0.2-0.2,0.1-0.1c-0.1,0.1,0.1,0,0.1-0.1c0.1,0,0.1-0.1,0.2-0.1c0,0,0.1,0,0,0c-0.1,0,0.1,0,0.1,0
			c0.4-0.1,0.7-0.5,0.5-0.9C203.1,42.4,202.7,42.1,202.3,42.2L202.3,42.2z"/>
	</g>
</g>
<g>
	<g>
		<path class="st0" d="M213.2,42.2c-1.5-0.5-3.3,0.7-3.6,2.2c-0.3,1.6,0.7,3,2.2,3.4c1.5,0.4,3-0.3,3.7-1.6c0.7-1.4,0.5-3.1-0.6-4.2
			c-0.7-0.6-1.6-1-2.5-0.9c-0.5,0.1-1,0.2-1.4,0.5c-0.5,0.3-0.8,0.7-1,1.2c-0.1,0.3,0.1,0.6,0.3,0.8c0.3,0.1,0.6,0.1,0.8-0.1
			c0.1-0.1,0.1-0.1,0.2-0.1c-0.1,0.1,0.1,0,0.1,0c0.1-0.1,0.2-0.1,0.3-0.2c0.1,0,0.1-0.1,0.2-0.1c-0.2,0.1,0,0,0.1,0
			c0.1,0,0.3-0.1,0.4-0.1c-0.2,0,0,0,0.1,0c0.1,0,0.1,0,0.2,0c0.2,0,0,0,0,0c0.1,0,0.1,0,0.2,0c0.1,0,0.1,0,0.2,0.1
			c0.2,0.1-0.1-0.1,0.1,0c0.1,0.1,0.3,0.1,0.4,0.2c-0.1-0.1,0.1,0.1,0.1,0.1c0,0,0.1,0.1,0.1,0.1c0.1,0.1,0.1,0.1,0.2,0.2
			c0.2,0.2-0.1-0.1,0,0.1c0.1,0.1,0.1,0.2,0.2,0.3c0,0,0.1,0.2,0,0c0,0.1,0.1,0.2,0.1,0.2c0,0.1,0.1,0.4,0,0.2c0,0.1,0,0.3,0,0.4
			c0,0,0,0.1,0,0.1c0,0,0,0.2,0,0.1c0,0.1-0.1,0.3-0.1,0.4c0,0.1,0,0.1-0.1,0.2c0.1-0.2,0,0,0,0c0,0.1-0.1,0.2-0.2,0.3
			c0,0-0.2,0.2,0,0c0,0-0.1,0.1-0.1,0.1c0,0-0.1,0.1-0.1,0.1c0,0-0.2,0.1,0,0c-0.1,0.1-0.2,0.1-0.3,0.2c-0.1,0.1,0,0,0,0
			c-0.1,0-0.1,0-0.2,0.1c-0.1,0-0.1,0-0.2,0c0.2,0,0,0,0,0c-0.1,0-0.3,0-0.4,0c0.2,0-0.1,0-0.2,0c-0.1,0-0.1,0-0.2,0
			c0,0-0.2-0.1,0,0c-0.1,0-0.2-0.1-0.3-0.1c-0.1,0-0.1-0.1-0.2-0.1c-0.1-0.1-0.1,0,0,0c0,0-0.1-0.1-0.1-0.1
			c-0.1-0.1-0.1-0.1-0.2-0.2c-0.1-0.1,0.1,0.1,0,0c0-0.1-0.1-0.1-0.1-0.2c0-0.1-0.1-0.3-0.1-0.1c0-0.1,0-0.1-0.1-0.2
			c0,0,0-0.2,0-0.2c0,0.1,0-0.1,0-0.1c0,0,0-0.3,0-0.1c0-0.1,0-0.1,0.1-0.2c0,0,0.1-0.2,0-0.1c0.1-0.1,0.1-0.3,0.2-0.4
			c0,0-0.1,0.1,0,0c0.1-0.1,0.1-0.1,0.2-0.2c0,0,0.2-0.2,0,0c0.1,0,0.1-0.1,0.2-0.1c0.1,0,0.1-0.1,0.2-0.1c0.1,0,0.1,0,0,0
			c0,0,0.1,0,0.1,0c0.1,0,0.1,0,0.2,0c0.1,0,0,0,0,0c0,0,0.1,0,0.1,0c0.1,0,0.1,0,0.2,0c-0.1,0,0.1,0,0.1,0c0.4,0.1,0.8-0.2,0.9-0.5
			C213.8,42.7,213.5,42.3,213.2,42.2L213.2,42.2z"/>
	</g>
</g>
<g>
	<g>
		<path class="st0" d="M196.1,77.7c-0.7-0.4-1.6-0.2-2.2,0.2c-0.7,0.5-1,1.2-1.3,2c-0.3,1.2-0.6,2.8,0.2,3.9
			c0.5,0.6,1.3,0.9,2.1,0.7c0.8-0.2,1.5-0.8,1.9-1.6c0.4-0.7,0.7-1.6,0.8-2.3c0.1-0.8,0.1-1.6-0.5-2.2c-0.5-0.5-1.3-0.7-2-0.6
			c-0.7,0.1-1.4,0.6-1.5,1.4c0,0.5,0.5,0.6,0.8,0.3c-0.1,0.1,0.1-0.1,0.1-0.1c0.1,0,0.1-0.1,0.1-0.1c0.1-0.1,0,0,0,0
			c0,0,0.1,0,0.1-0.1c0,0,0.1-0.1,0,0c0,0,0.1,0,0.1,0c0,0,0.1,0,0.1,0c0,0,0.2,0,0.1,0c0.1,0,0.2,0,0.2,0c0,0,0.1,0,0.1,0
			c0.1,0-0.1,0,0,0c0.1,0,0.2,0,0.3,0.1c0.1,0-0.1-0.1,0,0c0.1,0,0.1,0.1,0.2,0.1c0.1,0.1,0,0,0,0c0,0,0.1,0.1,0.1,0.1
			c0,0,0.1,0.1,0,0c0,0,0,0.1,0.1,0.1c0.1,0.2,0.1,0.4,0.1,0.7c-0.1,0.6-0.3,1.2-0.6,1.7c-0.1,0.2-0.2,0.5-0.4,0.7
			c-0.2,0.2-0.3,0.3-0.5,0.4c-0.1,0.1-0.3,0.1-0.5,0.1c-0.1,0-0.2-0.1-0.3-0.2c0,0-0.1-0.1,0,0c0,0,0-0.1-0.1-0.1
			c0,0-0.1-0.3-0.1-0.2c0-0.1-0.1-0.2-0.1-0.3c0-0.1,0-0.1,0-0.2c0,0,0-0.2,0-0.1c0-0.2,0-0.4,0-0.6c0-0.1,0-0.2,0-0.4
			c0-0.1,0-0.2,0-0.2c0.1-0.6,0.2-1.3,0.6-1.8c0.2-0.3,0.7-0.6,1.1-0.4C196.2,79,196.8,78,196.1,77.7L196.1,77.7z"/>
	</g>
</g>
<g>
	<g>
		<path class="st0" d="M205.3,78.2c-1.4-0.2-2.9,1-3.1,2.4c-0.3,1.5,0.7,3,2.1,3.5c1.4,0.5,3-0.2,3.8-1.5c0.8-1.3,0.5-2.9-0.5-4.1
			c-0.5-0.6-1.3-1-2.1-1.1c-0.4,0-0.8,0-1.2,0.3c-0.4,0.3-0.6,0.7-0.5,1.2c0,0.3,0.5,0.5,0.8,0.3c0,0,0.1-0.1,0.1-0.1
			c0.1,0,0.1,0,0,0c0.1,0,0.2-0.1,0.3-0.1c0.1,0,0.2,0,0.3-0.1c-0.2,0-0.1,0,0,0c0,0,0.3,0,0.2,0c-0.1,0,0.1,0,0.1,0
			c0,0,0.1,0,0.1,0c0.2,0-0.1-0.1,0.1,0c0,0,0.1,0,0.1,0.1c0.1,0.1,0.2,0.1,0.3,0.2c-0.1-0.1,0,0,0,0c0.1,0.1,0.1,0.1,0.2,0.2
			c0,0,0.1,0.1,0.1,0.1c0,0,0.1,0.2,0.1,0.1c-0.1-0.1,0.1,0.1,0.1,0.1c0,0,0,0.1,0.1,0.1c0,0.1,0.1,0.1,0.1,0.2c0,0,0,0.1,0,0
			c0,0.1,0.1,0.3,0.1,0.4c0,0,0,0.1,0,0.1c0-0.1,0,0,0,0c0,0.1,0,0.2,0,0.3c0,0.2,0-0.1,0,0.1c0,0,0,0.1,0,0.1c0,0.1,0,0.1-0.1,0.2
			c0-0.1,0,0,0,0.1c-0.1,0.1-0.1,0.2-0.2,0.3c0,0-0.1,0.1,0,0c0,0-0.1,0.1-0.1,0.1c-0.1,0.1-0.2,0.1-0.2,0.2c-0.2,0.2,0.1-0.1,0,0
			c-0.1,0-0.1,0.1-0.2,0.1c-0.1,0-0.1,0.1-0.2,0.1c0,0-0.2,0.1,0,0c-0.1,0-0.2,0.1-0.3,0.1c0,0-0.2,0,0,0c-0.1,0-0.1,0-0.2,0
			c-0.1,0-0.1,0-0.2,0c-0.2,0,0.1,0-0.1,0c-0.1,0-0.2-0.1-0.3-0.1c0.1,0,0,0,0,0c-0.1,0-0.1-0.1-0.2-0.1c0,0-0.1,0-0.1-0.1
			c-0.2-0.1,0.1,0.1-0.1,0c-0.1-0.1-0.2-0.2-0.3-0.2c0,0-0.2-0.2-0.1,0c0,0-0.1-0.1-0.1-0.1c-0.1-0.1-0.1-0.2-0.2-0.3
			c-0.1-0.1,0,0,0,0c0-0.1,0-0.1-0.1-0.2c0,0,0-0.1,0-0.1c0-0.2,0,0.1,0-0.1c0-0.1,0-0.1,0-0.2c0-0.2,0,0.1,0-0.1c0-0.1,0-0.1,0-0.2
			c0,0,0.1-0.2,0-0.1c0.1-0.1,0.1-0.2,0.2-0.3c0.1-0.2-0.1,0.1,0.1-0.1c0-0.1,0.1-0.1,0.1-0.2c0,0,0.1-0.1,0.1-0.1
			c0.1-0.1,0.1-0.1,0,0c0,0,0.1,0,0.1-0.1c0,0,0.1-0.1,0.2-0.1c0,0,0.2-0.1,0.1,0c0.1,0,0.3-0.1,0.4-0.1c-0.1,0,0,0,0,0
			c0.1,0,0.2,0,0.3,0c0.4,0,0.7-0.4,0.8-0.7C206,78.5,205.6,78.3,205.3,78.2L205.3,78.2z"/>
	</g>
</g>
<g>
	<g>
		<path class="st0" d="M212.8,79.8c0.1,0.9,0.2,1.9,0.3,2.8c0,0.5,0.1,1,0.1,1.5c0.1,0.5,0.1,1.1,0.5,1.5c0.3,0.3,0.8,0.2,1-0.2
			c0.3-0.4,0.2-1,0.2-1.5c0-0.5-0.1-0.9-0.1-1.4c-0.1-0.9-0.2-1.8-0.2-2.8c0-0.4-0.3-0.9-0.8-0.8C213.3,79,212.8,79.3,212.8,79.8
			L212.8,79.8z"/>
	</g>
</g>
<g>
	<g>
		<path class="st0" d="M193.1,113.1c-0.9,1.1-1.9,2.5-1.4,4c0.2,0.6,0.6,1.2,1.2,1.5c0.7,0.4,1.6,0.2,2.2-0.2c1.3-0.9,1.9-2.4,1.7-4
			c-0.2-1.4-1.3-2.7-2.8-2.7c-0.8,0-1.5,0.5-1.8,1.2c-0.3,0.7-0.4,1.5,0.2,2c0.2,0.2,0.4,0.2,0.6,0.1c0.2-0.1,0.3-0.4,0.3-0.6
			c0,0,0-0.1,0-0.1c-0.1-0.2,0,0.1,0-0.1c0-0.2,0,0,0-0.1c0-0.1,0-0.1,0-0.2c0,0.1,0-0.1,0-0.1c0,0.1,0,0,0,0c0-0.1,0.1-0.1,0.1-0.2
			c-0.1,0.1,0.1-0.1,0.1-0.1c0.1-0.1,0,0,0,0c0,0,0.1-0.1,0.1-0.1c0,0,0.1-0.1,0,0c-0.2,0.1,0.4-0.1,0.1,0c0,0,0.1,0,0.1,0
			c0,0,0.2,0,0.1,0c-0.1,0,0.1,0,0.1,0c0,0-0.1,0,0,0c0.1,0,0.3,0.1,0.2,0c0.1,0,0.2,0.1,0.3,0.2c0.1,0.1-0.1-0.1,0,0
			c0,0,0.1,0.1,0.1,0.1c0,0,0.1,0.1,0.1,0.1c0.1,0.1-0.1-0.1,0,0c0.1,0.1,0.1,0.2,0.2,0.3c0,0,0.1,0.3,0.1,0.2
			c0,0.1,0.1,0.2,0.1,0.4c0,0.1,0,0.1,0,0.2c0-0.1,0,0,0,0c0,0.1,0,0.2,0,0.4c0,0.2,0,0.4-0.1,0.6c-0.1,0.4-0.3,0.7-0.6,1
			c0,0-0.1,0.1-0.1,0.1c-0.1,0.1,0.2-0.1-0.1,0c-0.1,0-0.1,0.1-0.2,0.1c0,0-0.1,0.1,0,0c-0.1,0-0.1,0-0.2,0c0.1,0,0,0-0.1,0
			c0,0-0.1,0-0.1,0c0.2,0,0,0-0.1,0c0.1,0-0.1-0.1-0.1-0.1c-0.1-0.1,0.1,0.1,0,0c0,0-0.1-0.1-0.1-0.1c0,0-0.1-0.1,0,0
			c0,0-0.1-0.1-0.1-0.1c0,0,0-0.1-0.1-0.1c0,0-0.1-0.2,0-0.1c0-0.1-0.1-0.2-0.1-0.3c0,0,0-0.1,0,0c0-0.1,0-0.1,0-0.2
			c0-0.2,0.1-0.5,0.2-0.8c0.2-0.5,0.6-1,0.9-1.5C194.7,113.3,193.6,112.5,193.1,113.1L193.1,113.1z"/>
	</g>
</g>
<g>
	<g>
		<path class="st0" d="M201,115c0.1,0.7,0.2,1.4,0.4,2c0.1,0.3,0.1,0.7,0.2,1c0.1,0.4,0.2,0.8,0.4,1.1c0.2,0.2,0.4,0.4,0.7,0.3
			c0.3,0,0.5-0.2,0.6-0.5c0.1-0.4,0.1-0.8,0-1.3c0-0.4-0.1-0.7-0.2-1c-0.1-0.7-0.2-1.4-0.4-2.1c-0.1-0.4-0.6-0.7-1-0.6
			C201.2,114.1,200.9,114.5,201,115L201,115z"/>
	</g>
</g>
<g>
	<g>
		<path class="st0" d="M212.3,113.6c-2.4,0.7-3,4.5-0.7,5.7c1.1,0.6,2.5,0.4,3.5-0.3c0.6-0.4,1-0.9,1.2-1.6c0.2-0.7,0.1-1.5-0.2-2.1
			c-0.3-0.7-0.9-1.3-1.5-1.7c-0.8-0.4-2-0.7-2.6,0.2c-0.2,0.3-0.1,0.7,0.2,0.9c0.1,0,0.1,0.1,0.2,0.1c0.1,0,0.2,0,0.3,0.1
			c0,0,0.1,0,0,0c-0.1,0,0,0,0,0c0.1,0,0.2,0,0.3,0c0.1,0,0.1,0,0.2,0c0.1,0-0.2,0,0,0c0,0,0.1,0,0.1,0c0.1,0,0.1,0,0.2,0
			c0.1,0,0.1,0,0.2,0.1c0,0,0.1,0,0.1,0c0,0-0.1-0.1,0,0c0.1,0.1,0.2,0.1,0.3,0.2c0,0,0,0,0.1,0c0.1,0-0.1,0-0.1,0
			c0.1,0,0.1,0.1,0.2,0.1c0.1,0.1,0.2,0.2,0.3,0.3c0.1,0.1-0.1-0.1,0,0c0,0.1,0.1,0.1,0.1,0.2c0,0,0.2,0.3,0.2,0.3c0,0-0.1-0.2,0,0
			c0,0,0,0.1,0,0.1c0,0.1,0,0.1,0.1,0.2c0,0.1,0,0.1,0,0.2c0,0.1,0-0.1,0-0.1c0,0,0,0.1,0,0.1c0,0.1,0,0.1,0,0.2c0,0,0,0.1,0,0.1
			c0,0.1,0,0,0,0c-0.1,0.1-0.1,0.2-0.1,0.3c0,0,0,0,0,0.1c0,0.1,0,0,0-0.1c0,0-0.1,0.1-0.1,0.1c0,0-0.1,0.1-0.1,0.1c0,0,0,0,0,0.1
			c0,0.1,0.1-0.1,0.1-0.1c-0.1,0.1-0.1,0.2-0.2,0.2c0,0-0.1,0.1-0.1,0.1c-0.1,0.1,0.1-0.1,0.1-0.1c0,0-0.1,0-0.1,0.1
			c-0.1,0.1-0.2,0.1-0.3,0.2c0,0-0.1,0-0.1,0.1c-0.1,0.1,0.2-0.1,0,0c-0.1,0-0.2,0.1-0.3,0.1c-0.1,0-0.1,0-0.2,0c0,0,0,0-0.1,0
			c-0.1,0,0.1,0,0.1,0c-0.1,0-0.2,0-0.3,0c-0.1,0-0.1,0-0.2,0c0,0-0.2,0-0.1,0c0.1,0,0,0-0.1,0c-0.1,0-0.1,0-0.2,0
			c0,0-0.1-0.1-0.1,0c0,0,0.1,0.1,0.1,0c0,0-0.1,0-0.1,0c-0.1,0-0.2-0.1-0.3-0.2c-0.1,0,0.1,0,0.1,0c0,0-0.1,0-0.1,0
			c0,0-0.1-0.1-0.1-0.1c0,0-0.1-0.1-0.1-0.1c-0.1-0.1,0,0,0,0c0,0,0-0.1-0.1-0.1c-0.1-0.1-0.1-0.2-0.2-0.3c0,0,0,0,0-0.1
			c-0.1-0.1,0,0,0,0.1c0,0,0-0.1-0.1-0.2c0-0.1-0.1-0.2-0.1-0.3c0,0,0-0.1,0-0.1c0,0,0,0.1,0,0.1c0-0.1,0-0.1,0-0.2
			c0-0.1,0-0.2,0-0.4c0,0,0,0,0-0.1c0-0.1,0,0.1,0,0c0-0.1,0-0.1,0-0.2c0-0.1,0.1-0.2,0.1-0.4c0-0.1,0,0.1,0,0.1c0,0,0-0.1,0-0.1
			c0-0.1,0.1-0.1,0.1-0.2c0-0.1,0.1-0.1,0.1-0.2c0,0,0,0,0-0.1c0-0.1-0.1,0.1,0,0c0.1-0.1,0.2-0.2,0.2-0.3c0,0,0,0,0.1-0.1
			c0.1-0.1,0,0,0,0c0,0,0.1-0.1,0.2-0.1c0,0,0.1-0.1,0.1-0.1c0,0,0.1-0.1,0,0c-0.1,0.1,0,0,0.1,0c0.3-0.1,0.6-0.4,0.5-0.8
			C213,113.8,212.7,113.5,212.3,113.6L212.3,113.6z"/>
	</g>
</g>
<g>
	<g>
		<path class="st0" d="M192.1,143.5c-0.4,1.5-0.7,3.2,0.4,4.5c1,1.2,2.8,0.9,3.8-0.2c1-1.1,1.3-2.6,1-4c-0.2-1.4-1.2-2.8-2.6-3.3
			c-0.8-0.2-1.7,0-2.3,0.6c-0.6,0.6-0.8,1.6-0.2,2.3c0.2,0.2,0.6,0.2,0.8,0.1c0.3-0.2,0.4-0.5,0.3-0.8c0,0.1,0-0.1,0-0.2
			c0-0.1,0,0,0,0c0,0,0-0.1,0-0.1c0-0.1,0.1-0.2,0.2-0.2c-0.1,0.1,0.1,0,0.1-0.1c0,0,0.1,0,0.1-0.1c-0.1,0.1,0.1,0,0,0
			c0.2,0,0.4,0,0.5,0.1c0.8,0.4,1.1,1.2,1.3,2c0.2,0.8,0,1.8-0.5,2.4c-0.2,0.3-0.5,0.5-0.8,0.6c-0.3,0.1-0.5,0-0.8-0.2
			c-0.8-0.8-0.5-2.1-0.2-3.1C193.6,142.9,192.3,142.6,192.1,143.5L192.1,143.5z"/>
	</g>
</g>
<g>
	<g>
		<path class="st0" d="M201.9,143.1c0.1,1,0.1,2,0.3,2.9c0.1,0.5,0.1,0.9,0.2,1.4c0.1,0.5,0.2,1.1,0.6,1.5c0.3,0.3,0.8,0.2,1-0.2
			c0.3-0.5,0.2-1.1,0.1-1.6c-0.1-0.4-0.1-0.9-0.2-1.3c-0.1-0.8-0.2-1.8-0.2-2.7c0-0.4-0.4-0.9-0.8-0.8
			C202.4,142.3,201.9,142.6,201.9,143.1L201.9,143.1z"/>
	</g>
</g>
<g>
	<g>
		<path class="st0" d="M210.8,144.1c0.1,0.9,0.2,1.9,0.4,2.8c0.1,0.5,0.1,0.9,0.2,1.4c0.1,0.5,0.2,1,0.4,1.4c0.3,0.5,1,0.4,1.2-0.2
			c0.2-0.5,0.1-1,0.1-1.5c0-0.5-0.1-1.1-0.2-1.6c-0.1-1-0.2-1.9-0.4-2.9c-0.1-0.4-0.6-0.7-1-0.6C211,143.2,210.8,143.6,210.8,144.1
			L210.8,144.1z"/>
	</g>
</g>
<g>
	<g>
		<path class="st0" d="M254.7,42.8c0,0.8,0.1,1.5,0.1,2.3c0,0.4,0,0.7,0.1,1.1c0,0.2,0,0.5,0.1,0.7c0,0.1,0,0.2,0.1,0.2
			c0.1,0.2,0.2,0.3,0.3,0.4c0.3,0.3,0.8,0.2,1-0.2c0.2-0.4,0.2-0.8,0.2-1.3c0-0.4,0-0.8-0.1-1.1c0-0.8-0.1-1.5-0.1-2.3
			c0-0.4-0.4-0.9-0.8-0.8C255.1,42,254.7,42.3,254.7,42.8L254.7,42.8z"/>
	</g>
</g>
<g>
	<g>
		<path class="st0" d="M263.8,43.3c-0.7,0.8-0.8,2-0.3,2.9c0.4,0.9,1.4,1.6,2.4,1.6c1.2-0.1,2.3-1,2.7-2.1c0.4-1.1,0-2.3-0.9-3
			c-0.4-0.4-1-0.7-1.6-0.8c-0.6-0.1-1.3-0.1-1.9,0.3c-0.5,0.3-0.6,0.9-0.2,1.3c0.3,0.3,0.6,0.6,1,0.6c0.3,0,0.6-0.2,0.6-0.5
			c0.1-0.3,0-0.5-0.1-0.7c-0.1-0.1-0.2-0.3-0.2-0.4c-0.2,0.4-0.4,0.8-0.5,1.2c0.2-0.1,0.3-0.1,0.5-0.2c0.1,0,0.1,0,0,0
			c0,0,0.1,0,0.1,0c0.1,0,0.2,0,0.3,0c0.1,0,0,0.1,0,0c0,0,0.1,0,0.1,0c0.1,0,0.2,0,0.2,0.1c0,0,0.1,0,0.1,0c0,0-0.1,0-0.1,0
			c0,0,0.1,0,0.1,0c0.1,0,0.2,0.1,0.3,0.1c0,0,0.1,0,0.1,0.1c0,0,0,0,0,0c0.1,0,0.1,0,0,0c0,0,0.2,0.1,0.2,0.2c0,0,0.1,0.1,0.1,0.1
			c0.1,0.1,0.1,0.1,0,0c0,0.1,0.1,0.2,0.2,0.2c0,0,0,0.1,0.1,0.1c0,0.1,0,0.1,0,0c0,0.1,0.1,0.2,0.1,0.2c0,0,0,0.1,0,0.2
			c0,0,0-0.2,0,0c0,0.1,0,0.2,0,0.3c0-0.2,0-0.1,0,0c0,0,0,0.1,0,0.1c0,0,0,0.2-0.1,0.2c0,0,0.1-0.2,0,0c0,0.1-0.1,0.2-0.1,0.3
			c0,0-0.1,0.1-0.1,0.1c-0.1,0.1,0.1-0.1,0,0c-0.1,0.1-0.1,0.1-0.2,0.2c0,0-0.1,0.1-0.1,0.1c0,0,0.2-0.1,0,0
			c-0.1,0.1-0.2,0.1-0.3,0.2c-0.1,0.1,0,0,0.1,0c0,0-0.2,0.1-0.2,0.1c0,0-0.1,0-0.1,0c-0.2,0,0.2,0,0,0c-0.1,0-0.2,0-0.3,0
			c-0.2,0,0,0,0,0c0,0-0.1,0-0.1,0c0,0-0.1,0-0.1,0c-0.1,0,0.2,0.1,0,0c-0.1,0-0.1-0.1-0.2-0.1c-0.1-0.1,0.1,0.1,0,0
			c0,0-0.1,0-0.1-0.1c-0.1-0.1-0.1-0.1-0.2-0.2c-0.1-0.1,0-0.1,0,0c0,0-0.1-0.1-0.1-0.1c-0.1-0.1-0.1-0.2-0.1-0.2c0,0-0.1-0.2,0,0
			c0,0.1,0-0.1,0-0.1c0-0.1-0.1-0.2-0.1-0.3c0,0,0-0.1,0-0.1c0,0.1,0,0.1,0,0.1c0,0,0-0.1,0-0.1c0-0.1,0-0.2,0-0.3c0-0.1,0,0,0,0.1
			c0,0,0-0.1,0-0.2c0,0,0-0.1,0-0.1c0-0.1-0.1,0.1,0,0c0,0,0-0.1,0.1-0.1c0,0,0.2-0.2,0,0c0.2-0.3,0.3-0.8,0-1.1
			C264.6,43.1,264.1,43,263.8,43.3L263.8,43.3z"/>
	</g>
</g>
<g>
	<g>
		<path class="st0" d="M274.9,41.4c-1.3,0.6-2.3,1.7-2.5,3.1c-0.1,0.7,0,1.4,0.4,2c0.4,0.5,0.9,0.9,1.5,1.1c1.2,0.4,2.6,0,3.4-1.1
			c0.8-1,0.8-2.4,0.3-3.5c-0.3-0.7-0.9-1.2-1.5-1.6c-0.3-0.2-0.6-0.3-1-0.4c-0.2-0.1-0.4-0.1-0.6-0.1c-0.3,0-0.5,0.1-0.8,0.3
			c-0.3,0.2-0.2,0.7,0,1c0.2,0.2,0.5,0.3,0.8,0.4c0.1,0,0.2,0.1,0.3,0.1c0.2,0.1-0.1-0.1,0.1,0c0.1,0,0.1,0.1,0.2,0.1
			c0.1,0,0.2,0.1,0.3,0.2c0,0,0.2,0.1,0,0c0,0,0.1,0.1,0.1,0.1c0.1,0.1,0.2,0.2,0.3,0.2c0,0,0.1,0.1,0.1,0.1c0.1,0.1-0.1-0.1,0,0
			c0.1,0.1,0.1,0.2,0.2,0.3c0,0,0,0.1,0.1,0.1c0.1,0.2,0-0.1,0,0c0,0.1,0.1,0.2,0.1,0.3c0,0.1,0,0.1,0,0.2c0,0.1,0,0,0,0
			c0,0,0,0.1,0,0.1c0,0.1,0,0.2,0,0.3c0,0.1,0,0.1,0,0.2c0,0,0-0.2,0,0c0,0.1,0,0.2-0.1,0.3c0,0,0,0.1,0,0.1c0.1-0.2,0,0,0,0
			c-0.1,0.1-0.1,0.2-0.2,0.3c0,0-0.1,0.1,0,0c0,0-0.1,0.1-0.1,0.1c0,0-0.2,0.2-0.2,0.2c0,0,0.2-0.1,0,0c-0.1,0-0.1,0.1-0.2,0.1
			c0,0,0,0,0,0c-0.1,0-0.1,0,0,0c0,0-0.1,0-0.1,0c-0.1,0-0.2,0-0.3,0.1c0.2,0-0.1,0-0.1,0c-0.1,0-0.1,0-0.2,0c-0.1,0-0.2,0,0,0
			c-0.1,0-0.2,0-0.3-0.1c0,0-0.1,0-0.1,0c0.2,0.1,0.1,0,0,0c-0.1,0-0.2-0.1-0.3-0.2c0.1,0.1,0.1,0.1,0,0c-0.1,0-0.1-0.1-0.2-0.1
			c0,0-0.1-0.1-0.1-0.1c0,0,0.1,0.1,0,0c0-0.1-0.1-0.1-0.1-0.2c0,0-0.1-0.2,0,0c0-0.1-0.1-0.2-0.1-0.3c0,0,0-0.2,0-0.1
			c0-0.1,0-0.2,0-0.2c0-0.1,0-0.1,0-0.2c0-0.2,0,0.1,0-0.1c0-0.1,0.1-0.3,0.1-0.4c0,0-0.1,0.1,0,0c0-0.1,0.1-0.1,0.1-0.2
			c0-0.1,0.1-0.1,0.1-0.2c0,0,0,0,0,0c0,0,0.1-0.1,0.1-0.1c0.1-0.1,0.2-0.2,0.3-0.3c0,0,0.1-0.1,0.1-0.1c0,0,0,0,0,0
			c0,0,0.1,0,0.1-0.1c0.2-0.2,0.5-0.3,0.8-0.4c0.4-0.2,0.5-0.7,0.3-1.1C275.7,41.3,275.3,41.2,274.9,41.4L274.9,41.4z"/>
	</g>
</g>
<g>
	<g>
		<path class="st0" d="M253.4,77.8c0.1,0.9,0.2,1.8,0.3,2.7c0,0.4,0.1,0.8,0.2,1.3c0.1,0.4,0.2,1.1,0.6,1.3c0.2,0.1,0.5,0.1,0.7-0.1
			c0.4-0.3,0.3-1,0.3-1.4c0-0.4,0-0.8-0.1-1.2c-0.1-0.9-0.2-1.7-0.3-2.5c0-0.4-0.3-0.9-0.8-0.8C253.8,77,253.3,77.4,253.4,77.8
			L253.4,77.8z"/>
	</g>
</g>
<g>
	<g>
		<path class="st0" d="M262.9,78.1c-0.8,0.8-1.4,2.1-1,3.3c0.4,1.2,1.6,2,2.9,1.8c1.2-0.2,2-1.3,2.1-2.5c0.1-1.2-0.7-2.3-1.6-3
			c-0.5-0.3-1.1-0.5-1.7-0.5c-0.4,0-0.7,0.2-1,0.5c-0.3,0.3-0.5,0.8-0.2,1.2c0.1,0.2,0.4,0.4,0.7,0.3c0.2-0.1,0.3-0.1,0.4-0.2
			c0,0,0.1-0.1,0.1-0.1c0,0.1-0.2,0.1-0.1,0c0.1-0.1-0.2,0.1-0.1,0c0.1,0,0.2,0-0.1,0c0.1,0,0.2,0,0.3,0c0,0,0,0,0.1,0
			c0.1,0,0,0-0.1,0c0,0,0.3,0,0.3,0c0,0-0.2,0-0.1,0c0,0,0.1,0,0.1,0c0,0,0.1,0,0.1,0c0.1,0,0,0,0,0c0.1,0,0.2,0.1,0.3,0.1
			c0.1,0,0.2,0.1,0.2,0.1c0.1,0.1-0.1-0.1,0,0c0,0,0.1,0.1,0.1,0.1c0.1,0.1,0.1,0.1,0.2,0.2c0,0,0.1,0.1,0.1,0.1
			c0.1,0.1-0.1-0.1,0,0c0.1,0.1,0.1,0.2,0.1,0.2c0,0.1,0.1,0.2,0.1,0.2c-0.1-0.1,0-0.1,0,0c0,0,0,0.1,0,0.1c0,0,0,0.1,0,0.1
			c0,0,0,0,0,0.1c0,0.1,0,0.1,0,0c0,0.1,0,0.2,0,0.2c0,0,0,0.2,0,0.1c0-0.1,0,0.1,0,0.1c0,0.1,0,0.2-0.1,0.2c-0.1,0.2,0.1-0.1,0,0
			c0,0.1-0.1,0.1-0.1,0.2c0,0-0.1,0.1-0.1,0.1c-0.1,0.1,0,0,0,0c0,0.1-0.2,0.2-0.2,0.2c0,0-0.1,0.1-0.1,0.1c0.1-0.1,0.1-0.1,0,0
			c0,0-0.1,0.1-0.1,0.1c0,0-0.2,0.1-0.1,0c0.1,0,0,0-0.1,0c0,0-0.1,0-0.1,0c-0.2,0,0,0,0,0c0,0-0.1,0-0.1,0c0,0-0.2,0,0,0
			c0,0-0.1,0-0.1,0c0,0-0.1,0-0.1,0c-0.2,0,0.1,0.1,0,0c-0.1,0-0.2-0.1-0.3-0.1c0.1,0.1,0.1,0,0,0c0,0-0.1-0.1-0.1-0.1
			c-0.1-0.1-0.1-0.1-0.2-0.2c0.1,0.1,0,0,0,0c0-0.1-0.1-0.1-0.1-0.2c0,0,0-0.1-0.1-0.1c0-0.1,0,0,0,0c0,0,0-0.1,0-0.1
			c0,0,0-0.1,0-0.1c0,0,0-0.2,0-0.1c0-0.1,0-0.2,0-0.3c0,0,0-0.1,0-0.1c0-0.2,0,0.1,0-0.1c0-0.1,0.1-0.3,0.1-0.4c0,0,0.1-0.1,0,0
			c0-0.1,0.1-0.1,0.1-0.2c0.1-0.1,0.1-0.2,0.2-0.3c0.1-0.2-0.1,0,0,0c0.1-0.1,0.1-0.1,0.2-0.2c0.3-0.3,0.3-0.7,0-1
			C263.6,77.8,263.2,77.8,262.9,78.1L262.9,78.1z"/>
	</g>
</g>
<g>
	<g>
		<path class="st0" d="M273.1,78.8c0.1,1.3,0.1,2.7,0.5,4c0.1,0.3,0.4,0.5,0.7,0.4c0.3,0,0.5-0.3,0.6-0.6c0.2-1.3,0.1-2.6,0-3.9
			c0-0.4-0.4-0.9-0.8-0.8C273.6,78,273.1,78.3,273.1,78.8L273.1,78.8z"/>
	</g>
</g>
<g>
	<g>
		<path class="st0" d="M253.6,112.8c0.2,0.8,0.3,1.7,0.4,2.4c0.1,0.8,0.1,1.7,0.3,2.5c0.2,0.6,0.9,0.5,1.1,0
			c0.3-0.8,0.3-1.8,0.2-2.7c-0.1-0.9-0.2-1.8-0.4-2.7c-0.1-0.4-0.6-0.7-1-0.6C253.8,111.9,253.5,112.3,253.6,112.8L253.6,112.8z"/>
	</g>
</g>
<g>
	<g>
		<path class="st0" d="M262,113.1c0.1,0.8,0.2,1.6,0.4,2.3c0.1,0.8,0.3,1.6,0.6,2.3c0.1,0.2,0.4,0.3,0.7,0.3
			c0.3-0.1,0.4-0.3,0.5-0.6c0.1-0.8,0-1.6-0.2-2.5c-0.1-0.8-0.2-1.6-0.4-2.3c-0.1-0.4-0.6-0.7-1-0.6
			C262.2,112.2,262,112.6,262,113.1L262,113.1z"/>
	</g>
</g>
<g>
	<g>
		<path class="st0" d="M274,112.9c-1.2,0.3-2.4,1.1-2.6,2.3c-0.2,1.3,0.6,2.7,2,2.7c1.3,0,2.4-1,2.8-2.2c0.3-1,0.2-2.2-0.4-3.1
			c-0.3-0.5-0.9-1.1-1.5-1.3c-0.6-0.2-1.4,0.1-1.4,0.9c0,0.6,0.5,1,1.1,0.9c0.6-0.2,0.7-0.9,0.2-1.3c0,0,0,0,0,0
			c0.1,0.1,0.2,0.2,0.3,0.3c0,0,0,0,0,0c0,0.1,0.1,0.2,0.1,0.4c0,0.2-0.1,0.3,0,0.2c-0.1,0.1-0.2,0.2-0.3,0.3
			c-0.5,0.3-0.6-0.1-0.4,0.1c0,0,0.1,0,0.1,0.1c0,0,0.1,0,0.1,0.1c0,0-0.1-0.1,0,0c0.1,0.1,0.2,0.2,0.3,0.3c-0.2-0.2,0,0,0,0.1
			c0,0.1,0.1,0.1,0.1,0.2c0,0.1,0.1,0.1,0.1,0.2c0.1,0.1,0-0.1,0,0c0,0,0,0.1,0.1,0.1c0.1,0.2,0.1,0.3,0.1,0.5c0,0.1,0-0.1,0,0.1
			c0,0.1,0,0.2,0,0.3c0,0.1,0,0.2,0,0.2c0,0,0,0.1,0,0.1c0,0,0-0.1,0-0.1c-0.1,0.2-0.1,0.3-0.1,0.5c0.1-0.2,0,0,0,0.1
			c0,0.1-0.1,0.1-0.1,0.2c0,0,0,0.1-0.1,0.1c-0.1,0.1,0.1-0.1,0,0c-0.1,0.1-0.1,0.2-0.2,0.2c0,0-0.1,0.1-0.1,0.1c0,0,0.1-0.1,0,0
			c-0.1,0-0.2,0.1-0.2,0.1c-0.1,0.1,0.1,0,0,0c0,0-0.1,0-0.1,0c0,0-0.1,0-0.1,0c0.2,0-0.1,0-0.1,0c0,0-0.1,0,0,0c0,0-0.1,0-0.1,0
			c0.1,0,0,0-0.1,0c-0.1,0,0.1,0.1,0,0c0,0-0.1-0.1-0.1-0.1c0,0,0,0-0.1-0.1c0.1,0.1,0,0,0,0c0,0-0.1-0.2-0.1-0.1c0,0.1,0-0.1,0-0.2
			c0,0,0-0.2,0-0.1c0-0.1,0-0.2,0-0.3c0,0.1,0-0.1,0-0.1c0-0.1,0-0.1,0,0c0-0.1,0.1-0.1,0.1-0.2c0.1-0.2,0.2-0.2,0.3-0.4
			c0.1-0.1,0.3-0.2,0.5-0.3c0.2-0.1,0.3-0.1,0.6-0.2c0.3-0.1,0.5-0.4,0.5-0.8C274.7,113,274.4,112.9,274,112.9L274,112.9z"/>
	</g>
</g>
<g>
	<g>
		<path class="st0" d="M254.2,142.9c0.3,0.9,0.5,1.8,0.6,2.7c0.1,0.4,0.1,0.8,0.1,1.2c0,0.5-0.1,1,0,1.5c0.1,0.3,0.4,0.6,0.8,0.6
			c0.4,0,0.7-0.3,0.8-0.6c0.2-0.5,0.1-1.1,0.1-1.5c0-0.5-0.1-1-0.1-1.5c-0.1-0.9-0.3-1.9-0.7-2.8c-0.1-0.4-0.6-0.7-1-0.6
			C254.4,142,254,142.4,254.2,142.9L254.2,142.9z"/>
	</g>
</g>
<g>
	<g>
		<path class="st0" d="M263.5,143.4c0,0.9,0.1,1.8,0.2,2.6c0.1,0.4,0.2,0.8,0.3,1.2c0.2,0.5,0.3,1,0.8,1.3c0.3,0.2,0.7,0,0.8-0.3
			c0.2-0.4,0-0.9,0-1.3c-0.1-0.4-0.1-0.8-0.2-1.1c0-0.2-0.1-0.4-0.1-0.6c0-0.1,0-0.1,0,0c0-0.1,0-0.1,0-0.2c0-0.1,0-0.2,0-0.3
			c0-0.4,0-0.8,0-1.2c0-0.4-0.4-0.9-0.8-0.8C263.9,142.5,263.5,142.9,263.5,143.4L263.5,143.4z"/>
	</g>
</g>
<g>
	<g>
		<path class="st0" d="M274.1,144.3c0.2,0.9,0.3,1.8,0.5,2.8c0.2,0.9,0.3,1.8,0.6,2.7c0.1,0.3,0.4,0.5,0.7,0.5
			c0.3-0.1,0.6-0.3,0.6-0.7c0-1-0.1-2-0.3-2.9c-0.2-0.9-0.3-1.9-0.5-2.8c-0.1-0.4-0.6-0.7-1-0.6C274.3,143.4,274,143.8,274.1,144.3
			L274.1,144.3z"/>
	</g>
</g>
<g>
	<g>
		<path class="st0" d="M173.5,29.8c0.1,17,0.1,34.1-0.2,51.1c-0.2,17-0.7,33.9-1.3,50.9c-0.2,4.7-0.4,9.5-0.6,14.2
			c-0.2,4.7-0.3,9.5,0.4,14.2c0,0.3,0.4,0.5,0.6,0.5c16-0.1,32.1,0.2,48.1,0.4c16,0.2,32,0.4,48,0.6c9,0.1,18,0.1,27,0.3
			c0.3,0,0.7-0.3,0.7-0.6c-0.1-8.6-0.5-17.1-0.7-25.7c-0.2-8.5-0.5-17-0.6-25.5C295,93,295.1,76,295.6,58.9
			c0.2-4.7,0.4-9.4,0.6-14.1c0.1-2.4,0.3-4.7,0.4-7.1c0.2-2.4,0.5-4.9,0.6-7.3c0-0.3-0.2-0.6-0.5-0.7c-16-3.8-32.4-5.6-48.9-6
			c-16.5-0.4-33,0.6-49.4,2.1c-9.3,0.8-18.6,1.9-27.9,2.9c-0.7,0.1-0.8,1.3,0,1.2c16.4-1.8,32.9-3.5,49.4-4.4
			c16.4-0.9,32.9-0.9,49.2,0.9c9.2,1,18.3,2.5,27.2,4.8c-0.2-0.2-0.4-0.5-0.5-0.7c-0.2,2.2-0.2,4.4-0.4,6.5
			c-0.1,2.1-0.3,4.2-0.4,6.3c-0.2,4.3-0.4,8.6-0.6,12.8c-0.3,8.5-0.5,17-0.6,25.4c-0.2,17.1,0,34.1,0.5,51.2
			c0.2,9.5,0.4,19.1,0.8,28.6c0.2-0.2,0.4-0.4,0.7-0.6c-8,0.1-16-0.1-24-0.2c-8-0.1-16.1-0.2-24.1-0.2c-16-0.2-32-0.3-48-0.5
			c-9-0.1-18-0.2-27-0.4c0.2,0.2,0.4,0.3,0.6,0.5c-0.5-4.2-0.5-8.5-0.4-12.8c0.2-4.2,0.4-8.4,0.5-12.6c0.3-8.4,0.6-16.9,0.8-25.3
			c0.4-17,0.7-33.9,0.7-50.9c0-9.5,0-19-0.1-28.5C175,28.8,173.5,28.9,173.5,29.8L173.5,29.8z"/>
	</g>
</g>
<g>
	<g>
		<path class="st1" d="M237.4,29.2c-0.8,16.2-1.3,32.4-1.7,48.7c-0.4,16.1-0.9,32.3-1.2,48.4c-0.2,9.1-0.5,18.1-0.4,27.2
			c0,0.8,1.1,0.7,1.2,0c0.4-8.1,0.5-16.3,0.7-24.5c0.1-8.1,0.3-16.1,0.5-24.2c0.4-16.1,0.8-32.3,1.3-48.4c0.3-9.1,0.5-18.1,0.6-27.2
			C238.4,28.5,237.4,28.5,237.4,29.2L237.4,29.2z"/>
	</g>
</g>
<g>
	<g>
		<path class="st1" d="M179.6,98.5c14.5,0.4,29.1,0.7,43.6,0.9c14.6,0.2,29.2,0.3,43.8,0.3c8.2,0,16.4,0,24.6-0.4
			c0.7,0,0.8-1.1,0-1.1c-7.3-0.2-14.6,0-21.9,0c-7.2,0-14.5,0-21.7,0c-14.6,0-29.2-0.2-43.8-0.4c-8.2-0.1-16.4-0.3-24.6-0.5
			C178.8,97.2,178.8,98.5,179.6,98.5L179.6,98.5z"/>
	</g>
</g>
<g>
	<g>
		<path class="st0" d="M291.3,142.9c0.2,0,0.2-0.3,0-0.3C291.2,142.6,291.2,142.9,291.3,142.9L291.3,142.9z"/>
	</g>
</g>
<g>
	<g>
		<path class="st0" d="M25.5,41.1c-1.5-1.4-3.9-0.3-4.6,1.3c-0.8,1.7-0.5,3.7,1,4.8c0.8,0.6,1.7,0.9,2.7,0.9c1,0,1.9-0.4,2.7-1
			c1.5-1.2,2.2-3.6,1.3-5.3c-0.5-1-1.6-1.5-2.7-1.5c-0.5,0-1,0.1-1.5,0.3c-0.5,0.2-1.1,0.4-1.5,0.8c-0.3,0.4-0.1,1,0.4,1
			c0.7,0,1.4-0.4,2.1-0.5c0.5-0.1,1.1-0.1,1.5,0.2c0.5,0.4,0.6,1.2,0.5,1.8c-0.1,0.6-0.4,1.2-0.7,1.6c-0.5,0.5-0.9,0.8-1.5,0.9
			c-0.5,0.1-1.1,0-1.6-0.1c-0.3-0.1-0.5-0.3-0.7-0.4c-0.3-0.2-0.4-0.4-0.6-0.7c-0.2-0.4-0.3-1-0.2-1.5c0.1-0.6,0.4-1.1,0.9-1.5
			c-0.1,0.1,0.1-0.1,0.1-0.1c0.1,0,0.1-0.1,0.2-0.1c0.1,0,0.3-0.1,0.4-0.1c0.3,0,0.6,0,0.8,0.2C25.1,42.7,26.1,41.7,25.5,41.1
			L25.5,41.1z"/>
	</g>
</g>
<g>
	<g>
		<path class="st0" d="M32.3,42.2c-1.3,0.4-2.3,1.8-2.2,3.2c0.1,1.5,1.2,2.7,2.6,2.9c1.5,0.2,2.9-0.5,3.5-1.8
			c0.6-1.3,0.4-2.9-0.7-3.9c-0.6-0.6-1.4-0.9-2.2-1c-0.8-0.1-1.9,0.1-2.3,0.8c-0.2,0.4,0,0.9,0.5,0.9c0.3,0,0.6-0.1,0.9-0.2
			c0.1,0,0.2-0.1,0.3-0.1c0.1,0,0,0,0,0c0,0,0.1,0,0.1,0c0.1,0,0.1,0,0.2,0c0.1,0,0.1,0,0.2,0c0,0,0.2,0,0.1,0c0.1,0,0.3,0,0.4,0.1
			c0.1,0,0.1,0,0.2,0.1c0.1,0-0.1,0,0.1,0c0.1,0.1,0.2,0.1,0.4,0.2c0,0,0.1,0.1,0,0c0.1,0,0.1,0.1,0.2,0.1c0,0,0.1,0.1,0.1,0.1
			c0,0,0,0,0.1,0.1c0,0,0.1,0.1,0.1,0.1c0-0.1,0,0.1,0.1,0.1c0,0,0.1,0.1,0.1,0.1c0,0.1,0.1,0.1,0.1,0.2c0,0,0,0.1,0,0
			c0-0.1,0,0,0,0c0,0.1,0.1,0.2,0.1,0.4c0,0.1,0,0.1,0,0.2c0-0.1,0,0.1,0,0.1c0,0.1,0,0.2,0,0.3c0,0,0,0.1,0,0.1c0,0,0-0.1,0,0
			c0,0.1,0,0.1,0,0.2c0,0.1-0.1,0.2-0.1,0.4c0,0.1,0,0,0,0c0,0,0,0.1,0,0.1c0,0.1-0.1,0.1-0.1,0.2c0,0-0.1,0.2-0.1,0.1
			c0.1-0.1,0,0.1-0.1,0.1c0,0-0.1,0.1-0.1,0.1c0,0-0.2,0.2-0.1,0.1c0.1-0.1-0.1,0.1-0.1,0.1c0,0-0.1,0.1-0.1,0.1c0,0-0.1,0-0.1,0
			c-0.1,0,0.1,0,0.1,0c-0.1,0-0.1,0.1-0.2,0.1c-0.1,0-0.2,0.1-0.3,0.1c0,0,0.2,0,0,0c0,0-0.1,0-0.1,0c-0.1,0-0.1,0-0.2,0
			c-0.1,0-0.1,0-0.2,0c-0.1,0,0.1,0,0.1,0c0,0-0.1,0-0.1,0c-0.1,0-0.3,0-0.4-0.1c-0.1,0-0.1,0-0.2-0.1c-0.1,0,0.1,0,0.1,0
			c0,0-0.1,0-0.1,0c-0.1-0.1-0.2-0.1-0.3-0.2c0,0,0,0-0.1,0c-0.1-0.1,0,0,0,0c0,0-0.1-0.1-0.1-0.1c0,0-0.1-0.1-0.1-0.1
			c0,0,0-0.1-0.1-0.1c-0.1-0.1,0,0,0,0c-0.1,0-0.1-0.2-0.2-0.3c0,0-0.1-0.1,0-0.1c0,0,0.1,0.2,0,0.1c0-0.1,0-0.1-0.1-0.2
			c0-0.1,0-0.1,0-0.2c0,0,0-0.1,0,0c0,0.1,0,0,0,0c0-0.1,0-0.3,0-0.4c0,0,0-0.1,0,0c0,0.1,0,0,0,0c0-0.1,0-0.1,0.1-0.2
			c0-0.1,0-0.1,0.1-0.2c0,0,0-0.1,0,0c0,0.1,0,0,0-0.1c0.1-0.1,0.1-0.2,0.2-0.3c0.1-0.1,0,0,0,0c0,0,0-0.1,0.1-0.1
			c0,0,0.1-0.1,0.1-0.1c0,0,0.2-0.2,0.1-0.1c-0.1,0.1,0.1,0,0.1-0.1c0.1,0,0.1-0.1,0.2-0.1c0,0,0.1,0,0,0c-0.1,0,0.1,0,0.1,0
			c0.4-0.1,0.7-0.5,0.5-0.9C33.1,42.4,32.7,42.1,32.3,42.2L32.3,42.2z"/>
	</g>
</g>
<g>
	<g>
		<path class="st0" d="M43.2,42.2c-1.5-0.5-3.3,0.7-3.6,2.2c-0.3,1.6,0.7,3,2.2,3.4c1.5,0.4,3-0.3,3.7-1.6c0.7-1.4,0.5-3.1-0.6-4.2
			c-0.7-0.6-1.6-1-2.5-0.9c-0.5,0.1-1,0.2-1.4,0.5c-0.5,0.3-0.8,0.7-1,1.2c-0.1,0.3,0.1,0.6,0.3,0.8c0.3,0.1,0.6,0.1,0.8-0.1
			c0.1-0.1,0.1-0.1,0.2-0.1c-0.1,0.1,0.1,0,0.1,0c0.1-0.1,0.2-0.1,0.3-0.2c0.1,0,0.1-0.1,0.2-0.1c-0.2,0.1,0,0,0.1,0
			c0.1,0,0.3-0.1,0.4-0.1c-0.2,0,0,0,0.1,0c0.1,0,0.1,0,0.2,0c0.2,0,0,0,0,0c0.1,0,0.1,0,0.2,0c0.1,0,0.1,0,0.2,0.1
			c0.2,0.1-0.1-0.1,0.1,0c0.1,0.1,0.3,0.1,0.4,0.2c-0.1-0.1,0.1,0.1,0.1,0.1c0,0,0.1,0.1,0.1,0.1c0.1,0.1,0.1,0.1,0.2,0.2
			c0.2,0.2-0.1-0.1,0,0.1c0.1,0.1,0.1,0.2,0.2,0.3c0,0,0.1,0.2,0,0c0,0.1,0.1,0.2,0.1,0.2c0,0.1,0.1,0.4,0,0.2c0,0.1,0,0.3,0,0.4
			c0,0,0,0.1,0,0.1c0,0,0,0.2,0,0.1c0,0.1-0.1,0.3-0.1,0.4c0,0.1,0,0.1-0.1,0.2c0.1-0.2,0,0,0,0c0,0.1-0.1,0.2-0.2,0.3
			c0,0-0.2,0.2,0,0c0,0-0.1,0.1-0.1,0.1c0,0-0.1,0.1-0.1,0.1c0,0-0.2,0.1,0,0c-0.1,0.1-0.2,0.1-0.3,0.2c-0.1,0.1,0,0,0,0
			c-0.1,0-0.1,0-0.2,0.1c-0.1,0-0.1,0-0.2,0c0.2,0,0,0,0,0c-0.1,0-0.3,0-0.4,0c0.2,0-0.1,0-0.2,0c-0.1,0-0.1,0-0.2,0
			c0,0-0.2-0.1,0,0c-0.1,0-0.2-0.1-0.3-0.1c-0.1,0-0.1-0.1-0.2-0.1c-0.1-0.1-0.1,0,0,0c0,0-0.1-0.1-0.1-0.1
			c-0.1-0.1-0.1-0.1-0.2-0.2c-0.1-0.1,0.1,0.1,0,0c0-0.1-0.1-0.1-0.1-0.2c0-0.1-0.1-0.3-0.1-0.1c0-0.1,0-0.1-0.1-0.2
			c0,0,0-0.2,0-0.2c0,0.1,0-0.1,0-0.1c0,0,0-0.3,0-0.1c0-0.1,0-0.1,0.1-0.2c0,0,0.1-0.2,0-0.1c0.1-0.1,0.1-0.3,0.2-0.4
			c0,0-0.1,0.1,0,0c0.1-0.1,0.1-0.1,0.2-0.2c0,0,0.2-0.2,0,0c0.1,0,0.1-0.1,0.2-0.1c0.1,0,0.1-0.1,0.2-0.1c0.1,0,0.1,0,0,0
			c0,0,0.1,0,0.1,0c0.1,0,0.1,0,0.2,0c0.1,0,0,0,0,0c0,0,0.1,0,0.1,0c0.1,0,0.1,0,0.2,0c-0.1,0,0.1,0,0.1,0c0.4,0.1,0.8-0.2,0.9-0.5
			C43.8,42.7,43.5,42.3,43.2,42.2L43.2,42.2z"/>
	</g>
</g>
<g>
	<g>
		<path class="st0" d="M26.1,77.7c-0.7-0.4-1.6-0.2-2.2,0.2c-0.7,0.5-1,1.2-1.3,2c-0.3,1.2-0.6,2.8,0.2,3.9c0.5,0.6,1.3,0.9,2.1,0.7
			c0.8-0.2,1.5-0.8,1.9-1.6c0.4-0.7,0.7-1.6,0.8-2.3c0.1-0.8,0.1-1.6-0.5-2.2c-0.5-0.5-1.3-0.7-2-0.6c-0.7,0.1-1.4,0.6-1.5,1.4
			c0,0.5,0.5,0.6,0.8,0.3c-0.1,0.1,0.1-0.1,0.1-0.1c0.1,0,0.1-0.1,0.1-0.1c0.1-0.1,0,0,0,0c0,0,0.1,0,0.1-0.1c0,0,0.1-0.1,0,0
			c0,0,0.1,0,0.1,0c0,0,0.1,0,0.1,0c0,0,0.2,0,0.1,0c0.1,0,0.2,0,0.2,0c0,0,0.1,0,0.1,0c0.1,0-0.1,0,0,0c0.1,0,0.2,0,0.3,0.1
			c0.1,0-0.1-0.1,0,0c0.1,0,0.1,0.1,0.2,0.1c0.1,0.1,0,0,0,0c0,0,0.1,0.1,0.1,0.1c0,0,0.1,0.1,0,0c0,0,0,0.1,0.1,0.1
			c0.1,0.2,0.1,0.4,0.1,0.7c-0.1,0.6-0.3,1.2-0.6,1.7c-0.1,0.2-0.2,0.5-0.4,0.7c-0.2,0.2-0.3,0.3-0.5,0.4c-0.1,0.1-0.3,0.1-0.5,0.1
			c-0.1,0-0.2-0.1-0.3-0.2c0,0-0.1-0.1,0,0c0,0,0-0.1-0.1-0.1c0,0-0.1-0.3-0.1-0.2c0-0.1-0.1-0.2-0.1-0.3c0-0.1,0-0.1,0-0.2
			c0,0,0-0.2,0-0.1c0-0.2,0-0.4,0-0.6c0-0.1,0-0.2,0-0.4c0-0.1,0-0.2,0-0.2c0.1-0.6,0.2-1.3,0.6-1.8c0.2-0.3,0.7-0.6,1.1-0.4
			C26.2,79,26.8,78,26.1,77.7L26.1,77.7z"/>
	</g>
</g>
<g>
	<g>
		<path class="st0" d="M35.3,78.2c-1.4-0.2-2.9,1-3.1,2.4c-0.3,1.5,0.7,3,2.1,3.5c1.4,0.5,3-0.2,3.8-1.5c0.8-1.3,0.5-2.9-0.5-4.1
			c-0.5-0.6-1.3-1-2.1-1.1c-0.4,0-0.8,0-1.2,0.3c-0.4,0.3-0.6,0.7-0.5,1.2c0,0.3,0.5,0.5,0.8,0.3c0,0,0.1-0.1,0.1-0.1
			c0.1,0,0.1,0,0,0c0.1,0,0.2-0.1,0.3-0.1c0.1,0,0.2,0,0.3-0.1c-0.2,0-0.1,0,0,0c0,0,0.3,0,0.2,0c-0.1,0,0.1,0,0.1,0
			c0,0,0.1,0,0.1,0c0.2,0-0.1-0.1,0.1,0c0,0,0.1,0,0.1,0.1c0.1,0.1,0.2,0.1,0.3,0.2c-0.1-0.1,0,0,0,0c0.1,0.1,0.1,0.1,0.2,0.2
			c0,0,0.1,0.1,0.1,0.1c0,0,0.1,0.2,0.1,0.1c-0.1-0.1,0.1,0.1,0.1,0.1c0,0,0,0.1,0.1,0.1c0,0.1,0.1,0.1,0.1,0.2c0,0,0,0.1,0,0
			c0,0.1,0.1,0.3,0.1,0.4c0,0,0,0.1,0,0.1c0-0.1,0,0,0,0c0,0.1,0,0.2,0,0.3c0,0.2,0-0.1,0,0.1c0,0,0,0.1,0,0.1c0,0.1,0,0.1-0.1,0.2
			c0-0.1,0,0,0,0.1c-0.1,0.1-0.1,0.2-0.2,0.3c0,0-0.1,0.1,0,0c0,0-0.1,0.1-0.1,0.1c-0.1,0.1-0.2,0.1-0.2,0.2c-0.2,0.2,0.1-0.1,0,0
			c-0.1,0-0.1,0.1-0.2,0.1c-0.1,0-0.1,0.1-0.2,0.1c0,0-0.2,0.1,0,0c-0.1,0-0.2,0.1-0.3,0.1c0,0-0.2,0,0,0c-0.1,0-0.1,0-0.2,0
			c-0.1,0-0.1,0-0.2,0c-0.2,0,0.1,0-0.1,0c-0.1,0-0.2-0.1-0.3-0.1c0.1,0,0,0,0,0c-0.1,0-0.1-0.1-0.2-0.1c0,0-0.1,0-0.1-0.1
			c-0.2-0.1,0.1,0.1-0.1,0c-0.1-0.1-0.2-0.2-0.3-0.2c0,0-0.2-0.2-0.1,0c0,0-0.1-0.1-0.1-0.1c-0.1-0.1-0.1-0.2-0.2-0.3
			c-0.1-0.1,0,0,0,0c0-0.1,0-0.1-0.1-0.2c0,0,0-0.1,0-0.1c0-0.2,0,0.1,0-0.1c0-0.1,0-0.1,0-0.2c0-0.2,0,0.1,0-0.1c0-0.1,0-0.1,0-0.2
			c0,0,0.1-0.2,0-0.1c0.1-0.1,0.1-0.2,0.2-0.3c0.1-0.2-0.1,0.1,0.1-0.1c0-0.1,0.1-0.1,0.1-0.2c0,0,0.1-0.1,0.1-0.1
			c0.1-0.1,0.1-0.1,0,0c0,0,0.1,0,0.1-0.1c0,0,0.1-0.1,0.2-0.1c0,0,0.2-0.1,0.1,0c0.1,0,0.3-0.1,0.4-0.1c-0.1,0,0,0,0,0
			c0.1,0,0.2,0,0.3,0c0.4,0,0.7-0.4,0.8-0.7C36,78.5,35.6,78.3,35.3,78.2L35.3,78.2z"/>
	</g>
</g>
<g>
	<g>
		<path class="st0" d="M42.8,79.8c0.1,0.9,0.2,1.9,0.3,2.8c0,0.5,0.1,1,0.1,1.5c0.1,0.5,0.1,1.1,0.5,1.5c0.3,0.3,0.8,0.2,1-0.2
			c0.3-0.4,0.2-1,0.2-1.5c0-0.5-0.1-0.9-0.1-1.4c-0.1-0.9-0.2-1.8-0.2-2.8c0-0.4-0.3-0.9-0.8-0.8C43.3,79,42.8,79.3,42.8,79.8
			L42.8,79.8z"/>
	</g>
</g>
<g>
	<g>
		<path class="st0" d="M23.1,113.1c-0.9,1.1-1.9,2.5-1.4,4c0.2,0.6,0.6,1.2,1.2,1.5c0.7,0.4,1.6,0.2,2.2-0.2c1.3-0.9,1.9-2.4,1.7-4
			c-0.2-1.4-1.3-2.7-2.8-2.7c-0.8,0-1.5,0.5-1.8,1.2c-0.3,0.7-0.4,1.5,0.2,2c0.2,0.2,0.4,0.2,0.6,0.1c0.2-0.1,0.3-0.4,0.3-0.6
			c0,0,0-0.1,0-0.1c-0.1-0.2,0,0.1,0-0.1c0-0.2,0,0,0-0.1c0-0.1,0-0.1,0-0.2c0,0.1,0-0.1,0-0.1c0,0.1,0,0,0,0c0-0.1,0.1-0.1,0.1-0.2
			c-0.1,0.1,0.1-0.1,0.1-0.1c0.1-0.1,0,0,0,0c0,0,0.1-0.1,0.1-0.1c0,0,0.1-0.1,0,0c-0.2,0.1,0.4-0.1,0.1,0c0,0,0.1,0,0.1,0
			c0,0,0.2,0,0.1,0c-0.1,0,0.1,0,0.1,0c0,0-0.1,0,0,0c0.1,0,0.3,0.1,0.2,0c0.1,0,0.2,0.1,0.3,0.2c0.1,0.1-0.1-0.1,0,0
			c0,0,0.1,0.1,0.1,0.1c0,0,0.1,0.1,0.1,0.1c0.1,0.1-0.1-0.1,0,0c0.1,0.1,0.1,0.2,0.2,0.3c0,0,0.1,0.3,0.1,0.2
			c0,0.1,0.1,0.2,0.1,0.4c0,0.1,0,0.1,0,0.2c0-0.1,0,0,0,0c0,0.1,0,0.2,0,0.4c0,0.2,0,0.4-0.1,0.6c-0.1,0.4-0.3,0.7-0.6,1
			c0,0-0.1,0.1-0.1,0.1c-0.1,0.1,0.2-0.1-0.1,0c-0.1,0-0.1,0.1-0.2,0.1c0,0-0.1,0.1,0,0c-0.1,0-0.1,0-0.2,0c0.1,0,0,0-0.1,0
			c0,0-0.1,0-0.1,0c0.2,0,0,0-0.1,0c0.1,0-0.1-0.1-0.1-0.1c-0.1-0.1,0.1,0.1,0,0c0,0-0.1-0.1-0.1-0.1c0,0-0.1-0.1,0,0
			c0,0-0.1-0.1-0.1-0.1c0,0,0-0.1-0.1-0.1c0,0-0.1-0.2,0-0.1c0-0.1-0.1-0.2-0.1-0.3c0,0,0-0.1,0,0c0-0.1,0-0.1,0-0.2
			c0-0.2,0.1-0.5,0.2-0.8c0.2-0.5,0.6-1,0.9-1.5C24.7,113.3,23.6,112.5,23.1,113.1L23.1,113.1z"/>
	</g>
</g>
<g>
	<g>
		<path class="st0" d="M31,115c0.1,0.7,0.2,1.4,0.4,2c0.1,0.3,0.1,0.7,0.2,1c0.1,0.4,0.2,0.8,0.4,1.1c0.2,0.2,0.4,0.4,0.7,0.3
			c0.3,0,0.5-0.2,0.6-0.5c0.1-0.4,0.1-0.8,0-1.3c0-0.4-0.1-0.7-0.2-1c-0.1-0.7-0.2-1.4-0.4-2.1c-0.1-0.4-0.6-0.7-1-0.6
			C31.2,114.1,30.9,114.5,31,115L31,115z"/>
	</g>
</g>
<g>
	<g>
		<path class="st0" d="M42.3,113.6c-2.4,0.7-3,4.5-0.7,5.7c1.1,0.6,2.5,0.4,3.5-0.3c0.6-0.4,1-0.9,1.2-1.6c0.2-0.7,0.1-1.5-0.2-2.1
			c-0.3-0.7-0.9-1.3-1.5-1.7c-0.8-0.4-2-0.7-2.6,0.2c-0.2,0.3-0.1,0.7,0.2,0.9c0.1,0,0.1,0.1,0.2,0.1c0.1,0,0.2,0,0.3,0.1
			c0,0,0.1,0,0,0c-0.1,0,0,0,0,0c0.1,0,0.2,0,0.3,0c0.1,0,0.1,0,0.2,0c0.1,0-0.2,0,0,0c0,0,0.1,0,0.1,0c0.1,0,0.1,0,0.2,0
			c0.1,0,0.1,0,0.2,0.1c0,0,0.1,0,0.1,0c0,0-0.1-0.1,0,0c0.1,0.1,0.2,0.1,0.3,0.2c0,0,0,0,0.1,0c0.1,0-0.1,0-0.1,0
			c0.1,0,0.1,0.1,0.2,0.1c0.1,0.1,0.2,0.2,0.3,0.3c0.1,0.1-0.1-0.1,0,0c0,0.1,0.1,0.1,0.1,0.2c0,0,0.2,0.3,0.2,0.3c0,0-0.1-0.2,0,0
			c0,0,0,0.1,0,0.1c0,0.1,0,0.1,0.1,0.2c0,0.1,0,0.1,0,0.2c0,0.1,0-0.1,0-0.1c0,0,0,0.1,0,0.1c0,0.1,0,0.1,0,0.2c0,0,0,0.1,0,0.1
			c0,0.1,0,0,0,0c-0.1,0.1-0.1,0.2-0.1,0.3c0,0,0,0,0,0.1c0,0.1,0,0,0-0.1c0,0-0.1,0.1-0.1,0.1c0,0-0.1,0.1-0.1,0.1c0,0,0,0,0,0.1
			c0,0.1,0.1-0.1,0.1-0.1c-0.1,0.1-0.1,0.2-0.2,0.2c0,0-0.1,0.1-0.1,0.1c-0.1,0.1,0.1-0.1,0.1-0.1c0,0-0.1,0-0.1,0.1
			c-0.1,0.1-0.2,0.1-0.3,0.2c0,0-0.1,0-0.1,0.1c-0.1,0.1,0.2-0.1,0,0c-0.1,0-0.2,0.1-0.3,0.1c-0.1,0-0.1,0-0.2,0c0,0,0,0-0.1,0
			c-0.1,0,0.1,0,0.1,0c-0.1,0-0.2,0-0.3,0c-0.1,0-0.1,0-0.2,0c0,0-0.2,0-0.1,0c0.1,0,0,0-0.1,0c-0.1,0-0.1,0-0.2,0
			c0,0-0.1-0.1-0.1,0c0,0,0.1,0.1,0.1,0c0,0-0.1,0-0.1,0c-0.1,0-0.2-0.1-0.3-0.2c-0.1,0,0.1,0,0.1,0c0,0-0.1,0-0.1,0
			c0,0-0.1-0.1-0.1-0.1c0,0-0.1-0.1-0.1-0.1c-0.1-0.1,0,0,0,0c0,0,0-0.1-0.1-0.1c-0.1-0.1-0.1-0.2-0.2-0.3c0,0,0,0,0-0.1
			c-0.1-0.1,0,0,0,0.1c0,0,0-0.1-0.1-0.2c0-0.1-0.1-0.2-0.1-0.3c0,0,0-0.1,0-0.1c0,0,0,0.1,0,0.1c0-0.1,0-0.1,0-0.2
			c0-0.1,0-0.2,0-0.4c0,0,0,0,0-0.1c0-0.1,0,0.1,0,0c0-0.1,0-0.1,0-0.2c0-0.1,0.1-0.2,0.1-0.4c0-0.1,0,0.1,0,0.1c0,0,0-0.1,0-0.1
			c0-0.1,0.1-0.1,0.1-0.2c0-0.1,0.1-0.1,0.1-0.2c0,0,0,0,0-0.1c0-0.1-0.1,0.1,0,0c0.1-0.1,0.2-0.2,0.2-0.3c0,0,0,0,0.1-0.1
			c0.1-0.1,0,0,0,0c0,0,0.1-0.1,0.2-0.1c0,0,0.1-0.1,0.1-0.1c0,0,0.1-0.1,0,0c-0.1,0.1,0,0,0.1,0c0.3-0.1,0.6-0.4,0.5-0.8
			C43,113.8,42.7,113.5,42.3,113.6L42.3,113.6z"/>
	</g>
</g>
<g>
	<g>
		<path class="st0" d="M22.1,143.5c-0.4,1.5-0.7,3.2,0.4,4.5c1,1.2,2.8,0.9,3.8-0.2c1-1.1,1.3-2.6,1-4c-0.2-1.4-1.2-2.8-2.6-3.3
			c-0.8-0.2-1.7,0-2.3,0.6c-0.6,0.6-0.8,1.6-0.2,2.3c0.2,0.2,0.6,0.2,0.8,0.1c0.3-0.2,0.4-0.5,0.3-0.8c0,0.1,0-0.1,0-0.2
			c0-0.1,0,0,0,0c0,0,0-0.1,0-0.1c0-0.1,0.1-0.2,0.2-0.2c-0.1,0.1,0.1,0,0.1-0.1c0,0,0.1,0,0.1-0.1c-0.1,0.1,0.1,0,0,0
			c0.2,0,0.4,0,0.5,0.1c0.8,0.4,1.1,1.2,1.3,2c0.2,0.8,0,1.8-0.5,2.4c-0.2,0.3-0.5,0.5-0.8,0.6c-0.3,0.1-0.5,0-0.8-0.2
			c-0.8-0.8-0.5-2.1-0.2-3.1C23.6,142.9,22.3,142.6,22.1,143.5L22.1,143.5z"/>
	</g>
</g>
<g>
	<g>
		<path class="st0" d="M31.9,143.1c0.1,1,0.1,2,0.3,2.9c0.1,0.5,0.1,0.9,0.2,1.4c0.1,0.5,0.2,1.1,0.6,1.5c0.3,0.3,0.8,0.2,1-0.2
			c0.3-0.5,0.2-1.1,0.1-1.6c-0.1-0.4-0.1-0.9-0.2-1.3c-0.1-0.8-0.2-1.8-0.2-2.7c0-0.4-0.4-0.9-0.8-0.8
			C32.4,142.3,31.9,142.6,31.9,143.1L31.9,143.1z"/>
	</g>
</g>
<g>
	<g>
		<path class="st0" d="M40.8,144.1c0.1,0.9,0.2,1.9,0.4,2.8c0.1,0.5,0.1,0.9,0.2,1.4c0.1,0.5,0.2,1,0.4,1.4c0.3,0.5,1,0.4,1.2-0.2
			c0.2-0.5,0.1-1,0.1-1.5c0-0.5-0.1-1.1-0.2-1.6c-0.1-1-0.2-1.9-0.4-2.9c-0.1-0.4-0.6-0.7-1-0.6C41,143.2,40.8,143.6,40.8,144.1
			L40.8,144.1z"/>
	</g>
</g>
<g>
	<g>
		<path class="st0" d="M84.7,42.8c0,0.8,0.1,1.5,0.1,2.3c0,0.4,0,0.7,0.1,1.1c0,0.2,0,0.5,0.1,0.7c0,0.1,0,0.2,0.1,0.2
			c0.1,0.2,0.2,0.3,0.3,0.4c0.3,0.3,0.8,0.2,1-0.2c0.2-0.4,0.2-0.8,0.2-1.3c0-0.4,0-0.8-0.1-1.1c0-0.8-0.1-1.5-0.1-2.3
			c0-0.4-0.4-0.9-0.8-0.8C85.1,42,84.7,42.3,84.7,42.8L84.7,42.8z"/>
	</g>
</g>
<g>
	<g>
		<path class="st0" d="M93.8,43.3c-0.7,0.8-0.8,2-0.3,2.9c0.4,0.9,1.4,1.6,2.4,1.6c1.2-0.1,2.3-1,2.7-2.1c0.4-1.1,0-2.3-0.9-3
			c-0.4-0.4-1-0.7-1.6-0.8c-0.6-0.1-1.3-0.1-1.9,0.3c-0.5,0.3-0.6,0.9-0.2,1.3c0.3,0.3,0.6,0.6,1,0.6c0.3,0,0.6-0.2,0.6-0.5
			c0.1-0.3,0-0.5-0.1-0.7c-0.1-0.1-0.2-0.3-0.2-0.4c-0.2,0.4-0.4,0.8-0.5,1.2c0.2-0.1,0.3-0.1,0.5-0.2c0.1,0,0.1,0,0,0
			c0,0,0.1,0,0.1,0c0.1,0,0.2,0,0.3,0c0.1,0,0,0.1,0,0c0,0,0.1,0,0.1,0c0.1,0,0.2,0,0.2,0.1c0,0,0.1,0,0.1,0c0,0-0.1,0-0.1,0
			c0,0,0.1,0,0.1,0c0.1,0,0.2,0.1,0.3,0.1c0,0,0.1,0,0.1,0.1c0,0,0,0,0,0c0.1,0,0.1,0,0,0c0,0,0.2,0.1,0.2,0.2c0,0,0.1,0.1,0.1,0.1
			c0.1,0.1,0.1,0.1,0,0c0,0.1,0.1,0.2,0.2,0.2c0,0,0,0.1,0.1,0.1c0,0.1,0,0.1,0,0c0,0.1,0.1,0.2,0.1,0.2c0,0,0,0.1,0,0.2
			c0,0,0-0.2,0,0c0,0.1,0,0.2,0,0.3c0-0.2,0-0.1,0,0c0,0,0,0.1,0,0.1c0,0,0,0.2-0.1,0.2c0,0,0.1-0.2,0,0c0,0.1-0.1,0.2-0.1,0.3
			c0,0-0.1,0.1-0.1,0.1c-0.1,0.1,0.1-0.1,0,0c-0.1,0.1-0.1,0.1-0.2,0.2c0,0-0.1,0.1-0.1,0.1c0,0,0.2-0.1,0,0
			c-0.1,0.1-0.2,0.1-0.3,0.2c-0.1,0.1,0,0,0.1,0c0,0-0.2,0.1-0.2,0.1c0,0-0.1,0-0.1,0c-0.2,0,0.2,0,0,0c-0.1,0-0.2,0-0.3,0
			c-0.2,0,0,0,0,0c0,0-0.1,0-0.1,0c0,0-0.1,0-0.1,0c-0.1,0,0.2,0.1,0,0c-0.1,0-0.1-0.1-0.2-0.1c-0.1-0.1,0.1,0.1,0,0
			c0,0-0.1,0-0.1-0.1c-0.1-0.1-0.1-0.1-0.2-0.2c-0.1-0.1,0-0.1,0,0c0,0-0.1-0.1-0.1-0.1c-0.1-0.1-0.1-0.2-0.1-0.2c0,0-0.1-0.2,0,0
			c0,0.1,0-0.1,0-0.1c0-0.1-0.1-0.2-0.1-0.3c0,0,0-0.1,0-0.1c0,0.1,0,0.1,0,0.1c0,0,0-0.1,0-0.1c0-0.1,0-0.2,0-0.3c0-0.1,0,0,0,0.1
			c0,0,0-0.1,0-0.2c0,0,0-0.1,0-0.1c0-0.1-0.1,0.1,0,0c0,0,0-0.1,0.1-0.1c0,0,0.2-0.2,0,0c0.2-0.3,0.3-0.8,0-1.1
			C94.6,43.1,94.1,43,93.8,43.3L93.8,43.3z"/>
	</g>
</g>
<g>
	<g>
		<path class="st0" d="M104.9,41.4c-1.3,0.6-2.3,1.7-2.5,3.1c-0.1,0.7,0,1.4,0.4,2c0.4,0.5,0.9,0.9,1.5,1.1c1.2,0.4,2.6,0,3.4-1.1
			c0.8-1,0.8-2.4,0.3-3.5c-0.3-0.7-0.9-1.2-1.5-1.6c-0.3-0.2-0.6-0.3-1-0.4c-0.2-0.1-0.4-0.1-0.6-0.1c-0.3,0-0.5,0.1-0.8,0.3
			c-0.3,0.2-0.2,0.7,0,1c0.2,0.2,0.5,0.3,0.8,0.4c0.1,0,0.2,0.1,0.3,0.1c0.2,0.1-0.1-0.1,0.1,0c0.1,0,0.1,0.1,0.2,0.1
			c0.1,0,0.2,0.1,0.3,0.2c0,0,0.2,0.1,0,0c0,0,0.1,0.1,0.1,0.1c0.1,0.1,0.2,0.2,0.3,0.2c0,0,0.1,0.1,0.1,0.1c0.1,0.1-0.1-0.1,0,0
			c0.1,0.1,0.1,0.2,0.2,0.3c0,0,0,0.1,0.1,0.1c0.1,0.2,0-0.1,0,0c0,0.1,0.1,0.2,0.1,0.3c0,0.1,0,0.1,0,0.2c0,0.1,0,0,0,0
			c0,0,0,0.1,0,0.1c0,0.1,0,0.2,0,0.3c0,0.1,0,0.1,0,0.2c0,0,0-0.2,0,0c0,0.1,0,0.2-0.1,0.3c0,0,0,0.1,0,0.1c0.1-0.2,0,0,0,0
			c-0.1,0.1-0.1,0.2-0.2,0.3c0,0-0.1,0.1,0,0c0,0-0.1,0.1-0.1,0.1c0,0-0.2,0.2-0.2,0.2c0,0,0.2-0.1,0,0c-0.1,0-0.1,0.1-0.2,0.1
			c0,0,0,0,0,0c-0.1,0-0.1,0,0,0c0,0-0.1,0-0.1,0c-0.1,0-0.2,0-0.3,0.1c0.2,0-0.1,0-0.1,0c-0.1,0-0.1,0-0.2,0c-0.1,0-0.2,0,0,0
			c-0.1,0-0.2,0-0.3-0.1c0,0-0.1,0-0.1,0c0.2,0.1,0.1,0,0,0c-0.1,0-0.2-0.1-0.3-0.2c0.1,0.1,0.1,0.1,0,0c-0.1,0-0.1-0.1-0.2-0.1
			c0,0-0.1-0.1-0.1-0.1c0,0,0.1,0.1,0,0c0-0.1-0.1-0.1-0.1-0.2c0,0-0.1-0.2,0,0c0-0.1-0.1-0.2-0.1-0.3c0,0,0-0.2,0-0.1
			c0-0.1,0-0.2,0-0.2c0-0.1,0-0.1,0-0.2c0-0.2,0,0.1,0-0.1c0-0.1,0.1-0.3,0.1-0.4c0,0-0.1,0.1,0,0c0-0.1,0.1-0.1,0.1-0.2
			c0-0.1,0.1-0.1,0.1-0.2c0,0,0,0,0,0c0,0,0.1-0.1,0.1-0.1c0.1-0.1,0.2-0.2,0.3-0.3c0,0,0.1-0.1,0.1-0.1c0,0,0,0,0,0
			c0,0,0.1,0,0.1-0.1c0.2-0.2,0.5-0.3,0.8-0.4c0.4-0.2,0.5-0.7,0.3-1.1C105.7,41.3,105.3,41.2,104.9,41.4L104.9,41.4z"/>
	</g>
</g>
<g>
	<g>
		<path class="st0" d="M83.4,77.8c0.1,0.9,0.2,1.8,0.3,2.7c0,0.4,0.1,0.8,0.2,1.3c0.1,0.4,0.2,1.1,0.6,1.3c0.2,0.1,0.5,0.1,0.7-0.1
			c0.4-0.3,0.3-1,0.3-1.4c0-0.4,0-0.8-0.1-1.2c-0.1-0.9-0.2-1.7-0.3-2.5c0-0.4-0.3-0.9-0.8-0.8C83.8,77,83.3,77.4,83.4,77.8
			L83.4,77.8z"/>
	</g>
</g>
<g>
	<g>
		<path class="st0" d="M92.9,78.1c-0.8,0.8-1.4,2.1-1,3.3c0.4,1.2,1.6,2,2.9,1.8c1.2-0.2,2-1.3,2.1-2.5c0.1-1.2-0.7-2.3-1.6-3
			c-0.5-0.3-1.1-0.5-1.7-0.5c-0.4,0-0.7,0.2-1,0.5c-0.3,0.3-0.5,0.8-0.2,1.2c0.1,0.2,0.4,0.4,0.7,0.3c0.2-0.1,0.3-0.1,0.4-0.2
			c0,0,0.1-0.1,0.1-0.1c0,0.1-0.2,0.1-0.1,0c0.1-0.1-0.2,0.1-0.1,0c0.1,0,0.2,0-0.1,0c0.1,0,0.2,0,0.3,0c0,0,0,0,0.1,0
			c0.1,0,0,0-0.1,0c0,0,0.3,0,0.3,0c0,0-0.2,0-0.1,0c0,0,0.1,0,0.1,0c0,0,0.1,0,0.1,0c0.1,0,0,0,0,0c0.1,0,0.2,0.1,0.3,0.1
			c0.1,0,0.2,0.1,0.2,0.1c0.1,0.1-0.1-0.1,0,0c0,0,0.1,0.1,0.1,0.1c0.1,0.1,0.1,0.1,0.2,0.2c0,0,0.1,0.1,0.1,0.1
			c0.1,0.1-0.1-0.1,0,0c0.1,0.1,0.1,0.2,0.1,0.2c0,0.1,0.1,0.2,0.1,0.2c-0.1-0.1,0-0.1,0,0c0,0,0,0.1,0,0.1c0,0,0,0.1,0,0.1
			c0,0,0,0,0,0.1c0,0.1,0,0.1,0,0c0,0.1,0,0.2,0,0.2c0,0,0,0.2,0,0.1c0-0.1,0,0.1,0,0.1c0,0.1,0,0.2-0.1,0.2c-0.1,0.2,0.1-0.1,0,0
			c0,0.1-0.1,0.1-0.1,0.2c0,0-0.1,0.1-0.1,0.1c-0.1,0.1,0,0,0,0c0,0.1-0.2,0.2-0.2,0.2c0,0-0.1,0.1-0.1,0.1c0.1-0.1,0.1-0.1,0,0
			c0,0-0.1,0.1-0.1,0.1c0,0-0.2,0.1-0.1,0c0.1,0,0,0-0.1,0c0,0-0.1,0-0.1,0c-0.2,0,0,0,0,0c0,0-0.1,0-0.1,0c0,0-0.2,0,0,0
			c0,0-0.1,0-0.1,0c0,0-0.1,0-0.1,0c-0.2,0,0.1,0.1,0,0c-0.1,0-0.2-0.1-0.3-0.1c0.1,0.1,0.1,0,0,0c0,0-0.1-0.1-0.1-0.1
			c-0.1-0.1-0.1-0.1-0.2-0.2c0.1,0.1,0,0,0,0c0-0.1-0.1-0.1-0.1-0.2c0,0,0-0.1-0.1-0.1c0-0.1,0,0,0,0c0,0,0-0.1,0-0.1
			c0,0,0-0.1,0-0.1c0,0,0-0.2,0-0.1c0-0.1,0-0.2,0-0.3c0,0,0-0.1,0-0.1c0-0.2,0,0.1,0-0.1c0-0.1,0.1-0.3,0.1-0.4c0,0,0.1-0.1,0,0
			c0-0.1,0.1-0.1,0.1-0.2c0.1-0.1,0.1-0.2,0.2-0.3c0.1-0.2-0.1,0,0,0c0.1-0.1,0.1-0.1,0.2-0.2c0.3-0.3,0.3-0.7,0-1
			C93.6,77.8,93.2,77.8,92.9,78.1L92.9,78.1z"/>
	</g>
</g>
<g>
	<g>
		<path class="st0" d="M103.1,78.8c0.1,1.3,0.1,2.7,0.5,4c0.1,0.3,0.4,0.5,0.7,0.4c0.3,0,0.5-0.3,0.6-0.6c0.2-1.3,0.1-2.6,0-3.9
			c0-0.4-0.4-0.9-0.8-0.8C103.6,78,103.1,78.3,103.1,78.8L103.1,78.8z"/>
	</g>
</g>
<g>
	<g>
		<path class="st0" d="M83.6,112.8c0.2,0.8,0.3,1.7,0.4,2.4c0.1,0.8,0.1,1.7,0.3,2.5c0.2,0.6,0.9,0.5,1.1,0c0.3-0.8,0.3-1.8,0.2-2.7
			c-0.1-0.9-0.2-1.8-0.4-2.7c-0.1-0.4-0.6-0.7-1-0.6C83.8,111.9,83.5,112.3,83.6,112.8L83.6,112.8z"/>
	</g>
</g>
<g>
	<g>
		<path class="st0" d="M92,113.1c0.1,0.8,0.2,1.6,0.4,2.3c0.1,0.8,0.3,1.6,0.6,2.3c0.1,0.2,0.4,0.3,0.7,0.3c0.3-0.1,0.4-0.3,0.5-0.6
			c0.1-0.8,0-1.6-0.2-2.5c-0.1-0.8-0.2-1.6-0.4-2.3c-0.1-0.4-0.6-0.7-1-0.6C92.2,112.2,92,112.6,92,113.1L92,113.1z"/>
	</g>
</g>
<g>
	<g>
		<path class="st0" d="M104,112.9c-1.2,0.3-2.4,1.1-2.6,2.3c-0.2,1.3,0.6,2.7,2,2.7c1.3,0,2.4-1,2.8-2.2c0.3-1,0.2-2.2-0.4-3.1
			c-0.3-0.5-0.9-1.1-1.5-1.3c-0.6-0.2-1.4,0.1-1.4,0.9c0,0.6,0.5,1,1.1,0.9c0.6-0.2,0.7-0.9,0.2-1.3c0,0,0,0,0,0
			c0.1,0.1,0.2,0.2,0.3,0.3c0,0,0,0,0,0c0,0.1,0.1,0.2,0.1,0.4c0,0.2-0.1,0.3,0,0.2c-0.1,0.1-0.2,0.2-0.3,0.3
			c-0.5,0.3-0.6-0.1-0.4,0.1c0,0,0.1,0,0.1,0.1c0,0,0.1,0,0.1,0.1c0,0-0.1-0.1,0,0c0.1,0.1,0.2,0.2,0.3,0.3c-0.2-0.2,0,0,0,0.1
			c0,0.1,0.1,0.1,0.1,0.2c0,0.1,0.1,0.1,0.1,0.2c0.1,0.1,0-0.1,0,0c0,0,0,0.1,0.1,0.1c0.1,0.2,0.1,0.3,0.1,0.5c0,0.1,0-0.1,0,0.1
			c0,0.1,0,0.2,0,0.3c0,0.1,0,0.2,0,0.2c0,0,0,0.1,0,0.1c0,0,0-0.1,0-0.1c-0.1,0.2-0.1,0.3-0.1,0.5c0.1-0.2,0,0,0,0.1
			c0,0.1-0.1,0.1-0.1,0.2c0,0,0,0.1-0.1,0.1c-0.1,0.1,0.1-0.1,0,0c-0.1,0.1-0.1,0.2-0.2,0.2c0,0-0.1,0.1-0.1,0.1c0,0,0.1-0.1,0,0
			c-0.1,0-0.2,0.1-0.2,0.1c-0.1,0.1,0.1,0,0,0c0,0-0.1,0-0.1,0c0,0-0.1,0-0.1,0c0.2,0-0.1,0-0.1,0c0,0-0.1,0,0,0c0,0-0.1,0-0.1,0
			c0.1,0,0,0-0.1,0c-0.1,0,0.1,0.1,0,0c0,0-0.1-0.1-0.1-0.1c0,0,0,0-0.1-0.1c0.1,0.1,0,0,0,0c0,0-0.1-0.2-0.1-0.1c0,0.1,0-0.1,0-0.2
			c0,0,0-0.2,0-0.1c0-0.1,0-0.2,0-0.3c0,0.1,0-0.1,0-0.1c0-0.1,0-0.1,0,0c0-0.1,0.1-0.1,0.1-0.2c0.1-0.2,0.2-0.2,0.3-0.4
			c0.1-0.1,0.3-0.2,0.5-0.3c0.2-0.1,0.3-0.1,0.6-0.2c0.3-0.1,0.5-0.4,0.5-0.8C104.7,113,104.4,112.9,104,112.9L104,112.9z"/>
	</g>
</g>
<g>
	<g>
		<path class="st0" d="M84.2,142.9c0.3,0.9,0.5,1.8,0.6,2.7c0.1,0.4,0.1,0.8,0.1,1.2c0,0.5-0.1,1,0,1.5c0.1,0.3,0.4,0.6,0.8,0.6
			c0.4,0,0.7-0.3,0.8-0.6c0.2-0.5,0.1-1.1,0.1-1.5c0-0.5-0.1-1-0.1-1.5c-0.1-0.9-0.3-1.9-0.7-2.8c-0.1-0.4-0.6-0.7-1-0.6
			C84.4,142,84,142.4,84.2,142.9L84.2,142.9z"/>
	</g>
</g>
<g>
	<g>
		<path class="st0" d="M93.5,143.4c0,0.9,0.1,1.8,0.2,2.6c0.1,0.4,0.2,0.8,0.3,1.2c0.2,0.5,0.3,1,0.8,1.3c0.3,0.2,0.7,0,0.8-0.3
			c0.2-0.4,0-0.9,0-1.3c-0.1-0.4-0.1-0.8-0.2-1.1c0-0.2-0.1-0.4-0.1-0.6c0-0.1,0-0.1,0,0c0-0.1,0-0.1,0-0.2c0-0.1,0-0.2,0-0.3
			c0-0.4,0-0.8,0-1.2c0-0.4-0.4-0.9-0.8-0.8C93.9,142.5,93.5,142.9,93.5,143.4L93.5,143.4z"/>
	</g>
</g>
<g>
	<g>
		<path class="st0" d="M104.1,144.3c0.2,0.9,0.3,1.8,0.5,2.8c0.2,0.9,0.3,1.8,0.6,2.7c0.1,0.3,0.4,0.5,0.7,0.5
			c0.3-0.1,0.6-0.3,0.6-0.7c0-1-0.1-2-0.3-2.9c-0.2-0.9-0.3-1.9-0.5-2.8c-0.1-0.4-0.6-0.7-1-0.6C104.3,143.4,104,143.8,104.1,144.3
			L104.1,144.3z"/>
	</g>
</g>
<g>
	<g>
		<path class="st0" d="M3.5,29.8c0.1,17,0.1,34.1-0.2,51.1c-0.2,17-0.7,33.9-1.3,50.9c-0.2,4.7-0.4,9.5-0.6,14.2
			c-0.2,4.7-0.3,9.5,0.4,14.2c0,0.3,0.4,0.5,0.6,0.5c16-0.1,32.1,0.2,48.1,0.4c16,0.2,32,0.4,48,0.6c9,0.1,18,0.1,27,0.3
			c0.3,0,0.7-0.3,0.7-0.6c-0.1-8.6-0.5-17.1-0.7-25.7c-0.2-8.5-0.5-17-0.6-25.5C125,93,125.1,76,125.6,58.9
			c0.2-4.7,0.4-9.4,0.6-14.1c0.1-2.4,0.3-4.7,0.4-7.1c0.2-2.4,0.5-4.9,0.6-7.3c0-0.3-0.2-0.6-0.5-0.7c-16-3.8-32.4-5.6-48.9-6
			c-16.5-0.4-33,0.6-49.4,2.1c-9.3,0.8-18.6,1.9-27.9,2.9c-0.7,0.1-0.8,1.3,0,1.2c16.4-1.8,32.9-3.5,49.4-4.4
			c16.4-0.9,32.9-0.9,49.2,0.9c9.2,1,18.3,2.5,27.2,4.8c-0.2-0.2-0.4-0.5-0.5-0.7c-0.2,2.2-0.2,4.4-0.4,6.5
			c-0.1,2.1-0.3,4.2-0.4,6.3c-0.2,4.3-0.4,8.6-0.6,12.8c-0.3,8.5-0.5,17-0.6,25.4c-0.2,17.1,0,34.1,0.5,51.2
			c0.2,9.5,0.4,19.1,0.8,28.6c0.2-0.2,0.4-0.4,0.7-0.6c-8,0.1-16-0.1-24-0.2c-8-0.1-16.1-0.2-24.1-0.2c-16-0.2-32-0.3-48-0.5
			c-9-0.1-18-0.2-27-0.4c0.2,0.2,0.4,0.3,0.6,0.5c-0.5-4.2-0.5-8.5-0.4-12.8c0.2-4.2,0.4-8.4,0.5-12.6c0.3-8.4,0.6-16.9,0.8-25.3
			c0.4-17,0.7-33.9,0.7-50.9c0-9.5,0-19-0.1-28.5C5,28.8,3.5,28.9,3.5,29.8L3.5,29.8z"/>
	</g>
</g>
<g>
	<g>
		<path class="st1" d="M67.4,29.2c-0.8,16.2-1.3,32.4-1.7,48.7c-0.4,16.1-0.9,32.3-1.2,48.4c-0.2,9.1-0.5,18.1-0.4,27.2
			c0,0.8,1.1,0.7,1.2,0c0.4-8.1,0.5-16.3,0.7-24.5c0.1-8.1,0.3-16.1,0.5-24.2c0.4-16.1,0.8-32.3,1.3-48.4c0.3-9.1,0.5-18.1,0.6-27.2
			C68.4,28.5,67.4,28.5,67.4,29.2L67.4,29.2z"/>
	</g>
</g>
<g>
	<g>
		<path class="st0" d="M121.3,142.9c0.2,0,0.2-0.3,0-0.3C121.2,142.6,121.2,142.9,121.3,142.9L121.3,142.9z"/>
	</g>
</g>
<g>
	<g>
		<path class="st1" d="M62.4,1.7c0,1.7,0,3.4,0,5.1c0,1.7-0.1,3.5,0.3,5.1c0.1,0.6,1,0.6,1.2,0c0.4-1.7,0.3-3.4,0.3-5.1
			c0-1.7,0-3.4,0-5.1C64.1,0.6,62.4,0.7,62.4,1.7L62.4,1.7z"/>
	</g>
</g>
<g>
	<g>
		<path class="st1" d="M64.4,2.6C66,2.3,67.5,2.1,69,2c0.8-0.1,1.5-0.1,2.3-0.2c0.7-0.1,1.7,0,2.3-0.6c0.2-0.2,0.3-0.6,0-0.8
			C73-0.1,72,0,71.3,0.1c-0.8,0.1-1.6,0.1-2.4,0.2c-1.6,0.2-3.3,0.4-4.9,0.6c-0.4,0.1-0.7,0.6-0.6,1C63.5,2.5,64,2.6,64.4,2.6
			L64.4,2.6z"/>
	</g>
</g>
<g>
	<g>
		<path class="st1" d="M63.9,8.4c1.3-0.1,2.6-0.2,3.9-0.4c0.7-0.1,1.3-0.2,1.9-0.3c0.6-0.1,1.6-0.3,1.6-1.1c0-0.9-1.2-0.7-1.7-0.6
			c-0.6,0.1-1.3,0.2-1.9,0.3c-1.2,0.2-2.5,0.3-3.7,0.4c-0.5,0-0.9,0.4-0.9,0.8C63.1,8,63.4,8.5,63.9,8.4L63.9,8.4z"/>
	</g>
</g>
<g>
	<g>
		<path class="st1" d="M70,13.1c0,0.6,0,1.3,0,1.9c0,0.3,0,0.6,0,1c0,0.1,0,0.3,0,0.4c0,0.3,0.1,0.5,0.2,0.7c0.2,0.5,1,0.4,1.2,0
			c0.1-0.2,0.2-0.4,0.2-0.7c0-0.1,0-0.3,0-0.4c0-0.3,0-0.6,0-1c0-0.6,0-1.3,0-1.9c0-0.4-0.4-0.9-0.8-0.8C70.5,12.3,70,12.6,70,13.1
			L70,13.1z"/>
	</g>
</g>
<g>
	<g>
		<path class="st1" d="M234.6,4.3c0,1.2,0.1,2.4,0.1,3.5c0,1.2,0.1,2.4,0.2,3.6c0,0.4,0.5,0.6,0.8,0.5c0.4-0.1,0.6-0.3,0.7-0.7
			c-0.2,0.2-0.4,0.5-0.6,0.7c0.3-0.1,0.5-0.4,0.6-0.7c0.1-1.2,0-2.3,0-3.5c0-1.2-0.1-2.3-0.1-3.5C236.3,3.2,234.6,3.3,234.6,4.3
			L234.6,4.3z"/>
	</g>
</g>
<g>
	<g>
		<path class="st1" d="M237,4.8c1.1-0.1,2.2-0.2,3.4-0.3c1.1-0.1,2.3-0.2,3.4-0.6c0.7-0.2,0.6-1.1-0.1-1.2c-1.1-0.1-2.2,0-3.3,0.1
			c-1.1,0.1-2.2,0.2-3.3,0.3c-0.5,0-0.9,0.4-0.9,0.8C236.1,4.4,236.5,4.9,237,4.8L237,4.8z"/>
	</g>
</g>
<g>
	<g>
		<path class="st1" d="M236.7,8.7c0.9,0.1,1.7,0.1,2.6,0.1c0.9,0,1.8,0.1,2.6-0.1c0.4-0.1,0.6-0.8,0.1-1c-0.8-0.3-1.8-0.4-2.6-0.5
			c-0.9-0.1-1.8-0.2-2.7-0.2c-0.4,0-0.9,0.4-0.9,0.8C235.9,8.3,236.2,8.7,236.7,8.7L236.7,8.7z"/>
	</g>
</g>
<g>
	<g>
		<path class="st1" d="M241.5,12.7C241.6,12.7,241.6,12.7,241.5,12.7c0.1,0,0.1,0,0.2-0.1c0.1,0,0.1,0,0.2-0.1c0.2-0.1-0.1,0,0.1,0
			c0.1,0,0.2,0,0.3,0c0,0,0.3,0,0.1,0c0.1,0,0.1,0,0.2,0c0.1,0,0.1,0,0.2,0.1c-0.1-0.1,0.1,0.1,0.2,0.1c-0.1-0.4-0.2-0.7-0.3-1.1
			c-0.7,1.1-1.3,2.3-1.7,3.6c-0.1,0.4,0.1,0.9,0.6,1c0.7,0.1,1.4,0.2,2.1,0.3c0.8,0.1,1.5,0.2,2.3,0.1c0.5-0.1,0.7-0.9,0.2-1.2
			c-0.6-0.3-1.4-0.4-2.1-0.5c-0.7-0.1-1.4-0.2-2.1-0.3c0.2,0.3,0.4,0.7,0.6,1c0.4-1.2,0.8-2.1,1.5-3.2c0.2-0.4,0.1-0.9-0.3-1.1
			c-1-0.5-2.1-0.5-3.1,0c-0.4,0.2-0.5,0.7-0.3,1.1C240.7,12.9,241.1,12.9,241.5,12.7L241.5,12.7z"/>
	</g>
</g>
<g>
	<g>
		<path class="st1" d="M409.5,8.1c0.1,1.3,0.1,2.5,0.2,3.8c0,0.6,0,1.2,0,1.8c0,0.7,0,1.3,0.3,1.9c0.2,0.4,0.9,0.4,1.1,0
			c0.3-0.6,0.3-1.2,0.3-1.9c0-0.6,0-1.3,0-1.9c0-1.3-0.1-2.5-0.2-3.8c0-0.5-0.4-0.8-0.8-0.8C409.9,7.2,409.5,7.6,409.5,8.1
			L409.5,8.1z"/>
	</g>
</g>
<g>
	<g>
		<path class="st1" d="M411.7,8.3c0.9-0.1,1.8-0.2,2.7-0.2c0.9,0,1.9,0,2.8-0.2c0.6-0.1,0.6-1,0-1.2c-0.9-0.3-1.9-0.3-2.8-0.3
			c-0.9,0-1.8,0.1-2.7,0.2c-0.4,0.1-0.9,0.4-0.9,0.8C410.9,7.9,411.3,8.3,411.7,8.3L411.7,8.3z"/>
	</g>
</g>
<g>
	<g>
		<path class="st1" d="M411.4,12.8c1.8-0.1,3.8-0.1,5.5-0.7c0.7-0.2,0.6-1.1-0.1-1.2c-0.9-0.1-1.8,0-2.7,0.1
			c-0.9,0.1-1.8,0.1-2.7,0.2c-0.4,0-0.9,0.4-0.9,0.8C410.6,12.5,411,12.9,411.4,12.8L411.4,12.8z"/>
	</g>
</g>
<g>
	<g>
		<path class="st1" d="M415.5,16.9c0.2,0,0.3,0,0.5,0c0.1,0,0.2,0,0.2,0c-0.1,0,0.1,0,0.1,0c0.1,0,0.3,0.1,0.4,0.1
			c0.1,0,0.1,0,0.2,0.1c0,0,0,0,0,0c0,0,0.1,0,0.1,0.1c-0.1-0.3-0.2-0.7-0.3-1c-0.1,0.2-0.2,0.3-0.3,0.5c0,0.1,0,0.1,0,0
			c0,0-0.1,0.1-0.1,0.1c-0.1,0.1-0.1,0.1-0.2,0.2c-0.1,0.1-0.1,0.1-0.2,0.2c0,0-0.2,0.1-0.1,0.1c0.1-0.1,0,0-0.1,0
			c-0.2,0.1-0.4,0.2-0.5,0.3c-0.6,0.3-0.4,1.1,0.2,1.3c0,0,0.1,0,0.1,0c-0.1,0,0,0,0.1,0c0.1,0,0.2,0.1,0.2,0.1
			c0.1,0,0.2,0.1,0.3,0.2c0,0,0.1,0,0.1,0.1c0.2,0.1,0,0,0.1,0c0.1,0.1,0.3,0.3,0.4,0.4c0,0,0.1,0.1,0,0c0,0.1,0.1,0.2,0.1,0.1
			c0,0,0-0.1,0-0.1c0,0,0,0,0,0c0,0,0,0,0,0c0,0,0.1,0,0,0c0,0-0.1,0-0.1,0.1c0.1,0,0,0,0,0c0,0-0.1,0-0.1,0c-0.1,0-0.2,0.1-0.3,0.1
			c0.1,0,0,0,0,0c0,0-0.1,0-0.1,0c-0.2,0-0.4,0-0.7,0c0,0-0.1,0-0.1,0c0,0-0.1,0,0,0c-0.2,0-0.3,0-0.5,0c-0.3,0-0.5,0.2-0.6,0.4
			c-0.1,0.3,0.1,0.5,0.3,0.7c0.6,0.4,1.3,0.4,1.9,0.3c0.6-0.1,1.3-0.4,1.6-0.9c0.4-0.7-0.1-1.3-0.6-1.8c-0.4-0.4-0.9-0.7-1.4-1
			c-0.1,0.4-0.1,0.9-0.2,1.3c1-0.4,1.8-1.1,2.3-2c0.2-0.3,0.1-0.8-0.3-1c-0.7-0.3-1.5-0.5-2.3-0.4c-0.4,0-0.8,0.3-0.8,0.8
			C414.8,16.5,415.1,16.9,415.5,16.9L415.5,16.9z"/>
	</g>
</g>
<g>
	<g>
		<path class="st1" d="M154.6,2.6c-2.1-0.1-4.2,0.1-6.2,0.7c-1.9,0.5-4.1,1.3-5.4,2.8c-1.3,1.4-1.6,3.5-0.2,5
			c1.4,1.6,3.7,1.6,5.7,1.6c1.3,0,2.6,0.1,3.9,0.1c1.4,0,2.7,0.1,4.1,0c0.7-0.1,1.1-1.3,0.2-1.4c-1.3-0.2-2.6-0.2-3.9-0.2
			c-1.2,0-2.5-0.1-3.7-0.1c-1.6,0-4.9,0.2-5.4-2c-0.5-2.1,2.6-3.3,4.1-3.8c2.2-0.8,4.5-1.1,6.9-1C155.6,4.3,155.7,2.6,154.6,2.6
			L154.6,2.6z"/>
	</g>
</g>
<g>
	<g>
		<path class="st1" d="M329.6,3.6c-2.1-0.1-4.2,0.1-6.2,0.7c-1.9,0.5-4.1,1.3-5.4,2.8c-1.3,1.4-1.6,3.5-0.2,5
			c1.4,1.6,3.7,1.6,5.7,1.6c1.3,0,2.6,0.1,3.9,0.1c1.4,0,2.7,0.1,4.1,0c0.7-0.1,1.1-1.3,0.2-1.4c-1.3-0.2-2.6-0.2-3.9-0.2
			c-1.2,0-2.5-0.1-3.7-0.1c-1.6,0-4.9,0.2-5.4-2c-0.5-2.1,2.6-3.3,4.1-3.8c2.2-0.8,4.5-1.1,6.9-1C330.6,5.3,330.7,3.6,329.6,3.6
			L329.6,3.6z"/>
	</g>
</g>
</svg>
