<?xml version="1.0" encoding="utf-8"?>
<!-- Generator: Adobe Illustrator 26.0.2, SVG Export Plug-In . SVG Version: 6.00 Build 0)  -->
<svg version="1.1" id="Layer_1" xmlns="http://www.w3.org/2000/svg" xmlns:xlink="http://www.w3.org/1999/xlink" x="0px" y="0px"
	 viewBox="0 0 3260.2 702.8" style="enable-background:new 0 0 3260.2 702.8;" xml:space="preserve">
<style type="text/css">
	.st0{fill:none;stroke:#FFC300;stroke-width:6;stroke-miterlimit:10;}
	.st1{fill:none;}
	.st2{enable-background:new    ;}
	.st3{fill:none;stroke:#FFC300;stroke-width:9;stroke-miterlimit:10;}
</style>
<path class="st0" d="M277.1,495.1c38.3,50.6,85.6,99.4,141,145.7l147.8-151.1c41.4,60.8,106,117.5,189.3,166l181.7-157.5
	c37.9,57.8,97.2,112,173.9,158.9c44.7-53.9,97-106.2,156.4-156.4c32.3,57.8,79.8,113.4,140.6,164.9
	c48.1-57.1,107.1-111.9,175.9-163.3l110,165.3c52.4-55.9,111.4-110.1,176.8-162.6l97.8,167.2l178.3-183.3L2257.5,657
	c53.7-59.6,124.6-115.3,209.8-164.8c13.6,57.4,37.6,114.1,71.5,169.3c41-62,114.6-118.4,211.1-161.9
	c12.7,60.4,45.8,119.7,97.6,174.5l219.3-176.5"/>
<path class="st0" d="M321.9,486.6l88.5,95.4c51.3-43.3,104.9-83.8,160.5-121.3c57.3,47.7,114.7,95.3,172,143
	c47.2-54.1,113.4-103.9,194.7-146.5c46.8,51.4,101.3,101.1,162.8,148.4c39-56.8,100-109.6,178.5-154.8l113.4,159.3
	c45.1-53.6,107.7-103.4,184.6-146.8l122.3,147.1c44.3-53.9,105.6-104.2,180.8-148.5c31.6,52,68.9,103,111.8,153
	c26.9-61.1,86.7-118.4,171.2-164.1c23.6,54.6,60.6,107.7,109.8,157.8c32.5-61.4,112.5-116.1,219.2-149.8
	c-2.1,52.1,16.2,104.4,53.5,153c45-57.8,117.9-109.9,210.7-150.5c24.8,56.2,61.2,111.1,108.3,163.4
	c39.1-53.5,100.2-102.9,178.3-144.1"/>
<rect x="83.7" y="32.4" class="st1" width="3176.5" height="412.9"/>
<g class="st2">
	<path class="st3" d="M174.5,271V120.1h-48V98.5h75.8V271c0,19.7-4.5,34.8-13.5,45.5c-9,10.6-21.9,16-38.5,16h-38.4v-23.6h35.4
		c9.1,0,15.9-3.2,20.4-9.5C172.2,293.1,174.5,283.6,174.5,271z M174.5,32.5h27.9v35.3h-27.9V32.5z"/>
	<path class="st3" d="M363.5,94.4c23.5,0,41.5,7.6,54,22.9c12.5,15.2,18.7,37.3,18.7,66.1c0,29-6.2,51-18.6,66.2
		c-12.4,15.2-30.4,22.8-54,22.8c-23.5,0-41.5-7.6-53.9-22.8c-12.4-15.2-18.6-37.3-18.6-66.2c0-28.9,6.2-50.9,18.6-66.1
		C322.1,102,340,94.4,363.5,94.4z M363.5,118c-14.1,0-24.8,5.5-32.1,16.5c-7.3,11-10.9,27.3-10.9,48.9c0,21.5,3.6,37.8,10.9,48.8
		c7.3,11.1,18,16.6,32.1,16.6c14.2,0,25-5.5,32.2-16.6c7.3-11,10.9-27.3,10.9-48.8c0-21.6-3.6-37.9-10.9-48.9
		C388.5,123.5,377.8,118,363.5,118z"/>
	<path class="st3" d="M616,162.9v105h-28v-105c0-15.2-2.7-26.4-8-33.6c-5.3-7.2-13.7-10.7-25.1-10.7c-13,0-23,4.6-30,13.9
		c-7,9.2-10.5,22.5-10.5,39.7V268h-27.9V32.5h27.9v91.4c4.9-9.7,11.7-17,20.1-22c8.5-5,18.5-7.5,30.1-7.5c17.3,0,30.1,5.7,38.7,17
		C611.8,122.8,616,139.9,616,162.9z"/>
	<path class="st3" d="M802.7,162.9v105h-28v-105c0-15.2-2.7-26.4-8-33.6c-5.3-7.2-13.7-10.7-25.1-10.7c-13,0-23,4.6-30,13.9
		c-7,9.2-10.5,22.5-10.5,39.7V268h-27.9V98.5h27.9v25.4c4.9-9.7,11.7-17,20.1-22c8.5-5,18.5-7.5,30.1-7.5c17.3,0,30.1,5.7,38.7,17
		C798.4,122.8,802.7,139.9,802.7,162.9z"/>
	<path class="st3" d="M1119.2,115.7c3.4-7.3,7.8-12.6,13.1-16.1c5.3-3.5,11.7-5.2,19.1-5.2c13.6,0,23.2,5.3,28.8,15.8
		c5.6,10.5,8.4,30.4,8.4,59.6V268h-25.4v-97c0-23.9-1.3-38.8-4-44.6c-2.7-5.8-7.5-8.7-14.6-8.7c-8.1,0-13.6,3.1-16.6,9.3
		c-3,6.2-4.5,20.9-4.5,44v97h-25.4v-97c0-24.2-1.4-39.2-4.3-44.8c-2.9-5.7-8-8.5-15.5-8.5c-7.4,0-12.5,3.1-15.4,9.3
		c-2.9,6.2-4.3,20.9-4.3,44v97h-25.3V98.5h25.3V113c3.3-6.1,7.5-10.7,12.5-13.8c5-3.2,10.7-4.8,17-4.8c7.7,0,14.1,1.8,19.1,5.3
		C1112.4,103.2,1116.3,108.6,1119.2,115.7z"/>
	<path class="st3" d="M1333.4,213.5c-4.6,11.8-10.5,27.3-17.7,46.6c-10,26.6-16.7,42.9-20.1,48.7c-4.6,7.9-10.4,13.8-17.4,17.7
		s-15.1,5.9-24.4,5.9h-22.4v-23.3h16.5c8.2,0,14.6-2.4,19.2-7.1c4.6-4.7,10.5-17,17.7-36.8l-65.5-166.8h29.5l50.3,132.6l49.5-132.6
		h29.5L1333.4,213.5z"/>
	<path class="st3" d="M1558.4,176.3v13.6h-120.6v0.9c0,18.5,4.8,32.7,14.5,42.8c9.6,10.1,23.2,15.1,40.8,15.1
		c8.9,0,18.2-1.4,27.9-4.2c9.7-2.8,20-7.1,31-12.9v27.7c-10.6,4.3-20.8,7.6-30.7,9.8c-9.8,2.2-19.4,3.3-28.5,3.3
		c-26.3,0-46.9-7.9-61.8-23.7c-14.8-15.8-22.3-37.6-22.3-65.3c0-27,7.3-48.6,21.8-64.8c14.5-16.1,33.9-24.2,58.1-24.2
		c21.6,0,38.6,7.3,51.1,21.9C1552.2,131,1558.4,150.9,1558.4,176.3z M1530.6,168.1c-0.4-16.3-4.3-28.8-11.6-37.3
		c-7.3-8.5-17.8-12.8-31.6-12.8c-13.4,0-24.5,4.4-33.1,13.3c-8.7,8.9-13.8,21.2-15.4,36.9L1530.6,168.1z"/>
	<path class="st3" d="M1751.6,133.4c-6-4.6-12-8-18.2-10.1c-6.2-2.1-12.9-3.2-20.3-3.2c-17.4,0-30.6,5.4-39.8,16.3
		c-9.2,10.9-13.8,26.6-13.8,47.2V268h-28V98.5h28v33.1c4.6-12,11.8-21.2,21.4-27.6c9.6-6.4,21.1-9.6,34.3-9.6
		c6.9,0,13.3,0.9,19.2,2.6c6,1.7,11.7,4.4,17.1,8V133.4z"/>
	<path class="st3" d="M1910.7,104.4v27.2c-8-4.6-16-8.1-24.1-10.4c-8.1-2.3-16.3-3.5-24.7-3.5c-12.6,0-22,2-28.2,6.1
		c-6.2,4.1-9.3,10.3-9.3,18.7c0,7.6,2.3,13.2,7,17c4.6,3.7,16.2,7.4,34.7,10.9l11.2,2.1c13.8,2.6,24.3,7.9,31.4,15.7
		c7.1,7.9,10.7,18.1,10.7,30.7c0,16.8-6,29.8-17.9,39.3c-11.9,9.4-28.5,14.2-49.6,14.2c-8.4,0-17.2-0.9-26.3-2.6
		c-9.2-1.8-19.1-4.4-29.8-7.9V233c10.4,5.3,20.3,9.4,29.8,12c9.5,2.7,18.5,4,26.9,4c12.3,0,21.8-2.5,28.6-7.5c6.8-5,10.1-12,10.1-21
		c0-12.9-12.4-21.8-37.1-26.8l-1.2-0.3l-10.4-2.1c-16-3.1-27.8-8.4-35.1-15.8c-7.4-7.4-11-17.5-11-30.3c0-16.2,5.5-28.8,16.5-37.6
		c11-8.8,26.7-13.2,47.1-13.2c9.1,0,17.8,0.8,26.2,2.5C1894.4,98.5,1902.6,101,1910.7,104.4z"/>
	<path class="st3" d="M2026,222.1h38.1v31.3l-29.8,58H2011l15-58V222.1z"/>
	<path class="st3" d="M2380.1,246.6v85.8h-28v-234h28v21.6c4.6-8.4,10.8-14.8,18.5-19.1c7.7-4.4,16.6-6.6,26.7-6.6
		c20.5,0,36.6,7.9,48.2,23.8c11.7,15.8,17.5,37.8,17.5,65.8c0,27.5-5.9,49.2-17.6,64.9c-11.7,15.7-27.8,23.5-48.1,23.5
		c-10.3,0-19.3-2.2-27-6.6C2390.6,261.4,2384.5,255,2380.1,246.6z M2461.8,183.4c0-21.6-3.4-37.9-10.2-48.9
		c-6.8-11-16.9-16.5-30.3-16.5c-13.5,0-23.8,5.5-30.7,16.6c-7,11-10.4,27.3-10.4,48.8c0,21.4,3.5,37.6,10.4,48.7
		c7,11.1,17.2,16.7,30.7,16.7c13.4,0,23.5-5.5,30.3-16.5C2458.4,221.3,2461.8,205,2461.8,183.4z"/>
	<path class="st3" d="M2669,162.9v105h-28v-105c0-15.2-2.7-26.4-8-33.6c-5.3-7.2-13.7-10.7-25.1-10.7c-13,0-23,4.6-30,13.9
		c-7,9.2-10.5,22.5-10.5,39.7V268h-27.9V32.5h27.9v91.4c4.9-9.7,11.7-17,20.1-22c8.5-5,18.5-7.5,30.1-7.5c17.3,0,30.1,5.7,38.7,17
		C2664.8,122.8,2669,139.9,2669,162.9z"/>
	<path class="st3" d="M2770.6,221.8h38.1V268h-38.1V221.8z"/>
	<path class="st3" d="M3013.1,120.1V32.5h27.9V268h-27.9v-21.3c-4.6,8.4-10.8,14.8-18.5,19.1c-7.7,4.4-16.6,6.6-26.7,6.6
		c-20.5,0-36.6-7.9-48.4-23.8c-11.8-15.9-17.6-37.8-17.6-65.8c0-27.5,5.9-49.2,17.7-64.9c11.8-15.7,27.9-23.5,48.3-23.5
		c10.2,0,19.2,2.2,26.9,6.6C3002.5,105.3,3008.6,111.7,3013.1,120.1z M2931.2,183.4c0,21.6,3.4,37.9,10.3,48.9
		c6.9,11,17,16.5,30.4,16.5c13.4,0,23.6-5.5,30.7-16.7c7-11.1,10.5-27.3,10.5-48.7c0-21.5-3.5-37.8-10.5-48.8
		c-7-11.1-17.2-16.6-30.7-16.6c-13.4,0-23.6,5.5-30.4,16.5C2934.6,145.5,2931.2,161.8,2931.2,183.4z"/>
	<path class="st3" d="M3143.9,221.8h38.1V268h-38.1V221.8z"/>
</g>
</svg>
