<?xml version="1.0" encoding="utf-8"?>
<!-- Generator: Adobe Illustrator 26.0.2, SVG Export Plug-In . SVG Version: 6.00 Build 0)  -->
<svg version="1.1" id="Layer_1" xmlns="http://www.w3.org/2000/svg" xmlns:xlink="http://www.w3.org/1999/xlink" x="0px" y="0px"
	 viewBox="0 0 3260.2 702.8" style="enable-background:new 0 0 3260.2 702.8;" xml:space="preserve">
<style type="text/css">
	.st0{fill:none;stroke:#FFC300;stroke-width:6;stroke-miterlimit:10;}
	.st1{fill:none;}
	.st2{fill:#FFC300;}
	.st3{font-family:'DejaVuSansMono';}
	.st4{font-size:310px;}
</style>
<path class="st0" d="M277.1,495.1c38.3,50.6,85.6,99.4,141,145.7l147.8-151.1c41.4,60.8,106,117.5,189.3,166l181.7-157.5
	c37.9,57.8,97.2,112,173.9,158.9c44.7-53.9,97-106.2,156.4-156.4c32.3,57.8,79.8,113.4,140.6,164.9
	c48.1-57.1,107.1-111.9,175.9-163.3l110,165.3c52.4-55.9,111.4-110.1,176.8-162.6l97.8,167.2l178.3-183.3L2257.5,657
	c53.7-59.6,124.6-115.3,209.8-164.8c13.6,57.4,37.6,114.1,71.5,169.3c41-62,114.6-118.4,211.1-161.9
	c12.7,60.4,45.8,119.7,97.6,174.5l219.3-176.5"/>
<path class="st0" d="M321.9,486.6l88.5,95.4c51.3-43.3,104.9-83.8,160.5-121.3c57.3,47.7,114.7,95.3,172,143
	c47.2-54.1,113.4-103.9,194.7-146.5c46.8,51.4,101.3,101.1,162.8,148.4c39-56.8,100-109.6,178.5-154.8l113.4,159.3
	c45.1-53.6,107.7-103.4,184.6-146.8l122.3,147.1c44.3-53.9,105.6-104.2,180.8-148.5c31.6,52,68.9,103,111.8,153
	c26.9-61.1,86.7-118.4,171.2-164.1c23.6,54.6,60.6,107.7,109.8,157.8c32.5-61.4,112.5-116.1,219.2-149.8
	c-2.1,52.1,16.2,104.4,53.5,153c45-57.8,117.9-109.9,210.7-150.5c24.8,56.2,61.2,111.1,108.3,163.4
	c39.1-53.5,100.2-102.9,178.3-144.1"/>
<rect x="83.7" y="32.4" class="st1" width="3176.5" height="412.9"/>
<text transform="matrix(1 0 0 1 83.6721 267.9909)" class="st2 st3 st4">john myers, ph.d.</text>
</svg>
