<svg id="Layer_1" data-name="Layer 1" xmlns="http://www.w3.org/2000/svg" viewBox="0 0 218.52 94.39"><defs><style>.cls-1{fill:#ffc300;}.cls-2{fill:#a7c;}.cls-3{fill:#39f;}</style></defs><path class="cls-1" d="M110.44,76.09c12.79-.35,25.59-.53,38.38-.64s25.59-.07,38.39,0q5.35.06,10.71.17c3.65.07,7.32.27,11,.15a.49.49,0,0,0,0-1c-3.23-.23-6.49-.17-9.72-.21s-6.32,0-9.47-.08q-9.6-.1-19.2-.12-19.19,0-38.38.27c-7.23.11-14.45.31-21.68.48-.58,0-.61.92,0,.91Z" transform="translate(0)"/><path class="cls-2" d="M111.48,69.85c5,.46,9.16-3.09,11.84-6.92,3-4.32,4.93-9.52,9.05-13a10.6,10.6,0,0,1,6.54-2.72,11.17,11.17,0,0,1,6.79,2.47c4.26,3.27,6.36,8.3,9.36,12.6s8,8.69,13.67,7.33a.49.49,0,0,0-.24-1c-5.27,1-9.77-2.83-12.62-6.85-3-4.22-5.16-9.17-9.27-12.48a12.76,12.76,0,0,0-6.22-2.9,10.37,10.37,0,0,0-6.5,1.4c-4.5,2.56-6.91,7.25-9.43,11.55-2.73,4.64-6.9,10.08-13,9.55-.59-.05-.62.86,0,.92Z" transform="translate(0)"/><path class="cls-1" d="M124.65,69.82c5.79.73,9.87-5.16,12.13-9.65,2.85-5.64,4.5-12.13,8.62-17.05,1.66-2,3.91-3.88,6.61-4s5.16,1.5,7,3.38c4.43,4.59,6.29,11,9.09,16.6A24.88,24.88,0,0,0,174,67.27c2.24,1.87,5.08,3.15,8,2.23a.49.49,0,0,0-.24-1c-2.7.7-5.34-.49-7.36-2.25A24.18,24.18,0,0,1,169,58.91c-2.83-5.51-4.75-11.72-8.92-16.43a11.81,11.81,0,0,0-6.3-4.12,8.34,8.34,0,0,0-6.73,1.93c-4.82,3.76-6.94,10-9.27,15.39a35.91,35.91,0,0,1-5.2,9.24c-1.9,2.22-4.59,4.39-7.7,4-.58-.07-.86.81-.26.89Z" transform="translate(0)"/><path class="cls-3" d="M151.77,69.86a15.66,15.66,0,0,0,11.56-4.48c3.24-3.07,5.51-7,9.52-9.18a13.89,13.89,0,0,1,13-.14,18.82,18.82,0,0,1,5,3.78c1.62,1.64,3.05,3.47,4.72,5.07,3.5,3.33,8.51,5.66,13.42,4.79.54-.09.46-1-.11-1a15.81,15.81,0,0,1-12.41-4.25c-3.23-3-5.71-6.66-9.63-8.82a14.79,14.79,0,0,0-12.45-1.12,17.1,17.1,0,0,0-5.13,3.05,43.27,43.27,0,0,0-4.55,4.92,20,20,0,0,1-5.61,4.74,14,14,0,0,1-7.34,1.69.46.46,0,0,0,0,.92Z" transform="translate(0)"/><path class="cls-1" d="M8.25,75.39c9.71,0,19.41.16,29.12.26s19.41.25,29.11.37l8.25.12c2.74,0,5.51.18,8.25,0a.49.49,0,0,0,0-1c-2.41-.18-4.84-.13-7.25-.17L68.38,75q-7.24-.1-14.5-.19c-9.7-.1-19.41-.24-29.11-.34-5.5-.06-11-.07-16.5-.14a.55.55,0,0,0,0,1.1Z" transform="translate(0)"/><path class="cls-2" d="M64.76,75a1.22,1.22,0,0,0-.73-.48,1.47,1.47,0,0,0-.78.07,1.39,1.39,0,0,0-1,1.29,1.4,1.4,0,0,0,1.07,1.26A1.47,1.47,0,0,0,65,76.58a1.55,1.55,0,0,0,0-1.69,1.68,1.68,0,0,0-.65-.59,1.39,1.39,0,0,0-.53-.14.79.79,0,0,0-.57.28A1.48,1.48,0,0,0,63,76a1.19,1.19,0,0,0,1.47.77,1.52,1.52,0,0,0,1-1.7,1.38,1.38,0,0,0-1.46-1,1.46,1.46,0,0,0-.9.4,1.35,1.35,0,0,0-.37.83,1.56,1.56,0,0,0,.74,1.41A1.26,1.26,0,0,0,65,76.43a1.57,1.57,0,0,0,.37-.74,1.53,1.53,0,0,0-.09-.92,1.28,1.28,0,0,0-1.5-.68,1.58,1.58,0,0,0-1.18,1.16,1.53,1.53,0,0,0,.89,1.62,2.64,2.64,0,0,0,.95.26A.73.73,0,0,0,65,77l.13-.14a1.73,1.73,0,0,0,.29-.51A1.59,1.59,0,0,0,65,74.54a1.57,1.57,0,0,0-1-.34,1.57,1.57,0,0,0-1.49,1,.46.46,0,0,0,.27.54.5.5,0,0,0,.59-.21s0,0,0,0l0,0a.6.6,0,0,0,.08-.08s.11-.09,0,0l0,0,.1,0c.07,0-.07,0-.07,0h0l.2-.07s.15,0,0,0,0,0,0,0h.1c.11,0-.06,0-.06,0h0l.1,0h0l-.07,0,.2.11-.13-.1a1,1,0,0,1,.18.18l-.1-.13a1.17,1.17,0,0,1,.17.28l-.06-.14a1.87,1.87,0,0,1,.08.34l0-.15a.74.74,0,0,1,0,.21v0c0,.06,0-.13,0-.07l0,.11,0,.09s.07-.14,0-.07l0,0s-.09.13,0,0,0,0,0,0l.41-.18h-.18s-.12,0,0,0h-.06l-.16,0-.09,0,0,0,0,0-.15-.07-.07-.05,0,0s.11.09,0,0l-.12-.11-.06-.06.05,0s0,0,0,0a.21.21,0,0,1,0-.06s-.06-.12,0,0,0,0,0,0,0-.06,0-.09,0,.13,0,0v-.07s0-.1,0,0c0,0,0-.06,0-.08s0-.1,0,0,0,0,0,0l0-.06,0,0s-.09.1,0,0l.09-.1s.1-.08,0,0,0,0,0,0l.14-.07s-.08,0-.08,0l0,0,.07,0,.08,0h.08l.07,0h0l-.07,0s.07,0,.07,0,0,0,0,0l0,0,0,0c.05,0,0-.06,0-.06s0,0,0,0l0,.06s.05.11,0,0,0,0,0,0,0,.05,0,.07,0,0,0,.07,0-.14,0,0a.76.76,0,0,1,0,.15s0,.11,0,0,0,0,0,0a.74.74,0,0,1,0,.14s0,0,0,0,0-.08,0-.08,0,.05,0,.06a.83.83,0,0,0-.08.12s.09-.1.06-.07l0,0s0,0-.05.05l0,0s.09-.06.08,0l0,0-.11.07s.14-.06,0,0l-.08,0h.06a.21.21,0,0,0-.08,0s0,0,0,0h.08l-.08,0s-.06,0-.07,0l.08,0,0,0-.06,0,0,0c-.06,0,.05,0,.05,0l-.1-.09-.05,0,.05.06,0,0a.57.57,0,0,1-.08-.13l0-.06,0,.07s0,0,0,0l0-.14c0-.1,0,0,0,0v-.15c0-.1,0,0,0,0a1,1,0,0,1,0-.14c0-.08-.06.1,0,0l0-.06,0,0-.05.06.06-.06,0,0s-.1.07,0,0l.06,0h0s-.12,0-.07,0l.09,0h.07s-.07,0-.07,0H64s.13,0,0,0,0,0,0,0l.07,0h0c.06,0-.08,0-.07,0a.25.25,0,0,1,.09,0l.06,0,0,0s-.07,0-.06,0,.1.09.12.11-.08-.12,0,0l0,.06v0s0-.12,0-.07l0,.09v0s0-.13,0-.08v.08s0,.08,0,.09,0-.13,0-.08a.09.09,0,0,0,0,0l0,.08s0,0,0,0,0-.09,0-.07-.07.12-.09.15.09-.1,0,0l0,0-.07.06s.07-.06.07,0l0,0-.06,0-.05,0,.08,0-.07,0h0l.09,0s0,0,0,0,0,0-.06,0,0,0,0,0l-.06,0-.06,0s.13.11.06,0a.93.93,0,0,1-.1-.1s.1.13,0,0l0,0a.52.52,0,0,0-.06-.13s0,.14,0,0a.19.19,0,0,0,0-.07s0,0,0-.06v0c0-.08,0,.12,0,.06a.48.48,0,0,1,0-.12v-.07c0-.07,0,.13,0,0l0-.12c0-.08-.06.11,0,0a.43.43,0,0,1,0-.07c0-.09,0,0,0,0l0,0s.1-.08,0,0,0,0,0,0l-.4.06.14,0h0c-.09,0,0,0,0,0l.12.07c.07,0-.09-.08-.05,0l.05,0,.09.09c.06.07-.09-.12,0,0l0,.05a1.34,1.34,0,0,1,.12.24l0-.14a2.33,2.33,0,0,1,.07.25c0,.14,0-.14,0,0a.57.57,0,0,1,0,.13c0,.1,0-.14,0,0s0,0,0,.06-.09.17,0,0L64,76c0,.05-.08.08,0,0l0,0,0,0c-.06.06.07-.05.07-.05a.6.6,0,0,1-.11.06c-.11.06.16,0,0,0a.27.27,0,0,1-.12,0c-.09,0,.16,0,.06,0h-.16c-.05,0-.19,0,0,0l-.13,0-.1,0,0,0,0,0L63.42,76l0,0c.15.1.06,0,0,0l-.08-.07c-.06-.07.09.12,0,0l0,0c0-.05-.07-.18,0,0a.56.56,0,0,1,0-.12c0-.07,0,.06,0,.07s0-.06,0-.07,0,0,0-.06,0-.06,0,.07l0-.11c0-.05-.07.13,0,.06l0-.07,0,0c0-.07-.09.11,0,0l.08-.07s0,0,0,0-.05,0-.06,0,.09-.06.12-.07l0,0c-.15.08-.07,0,0,0a.28.28,0,0,1,.13,0h0c-.16,0-.08,0,0,0h.12c.09,0-.12,0,0,0h.05l.06,0c-.1,0-.1-.05,0,0l.05,0c.09,0,0,0,0,0s0,0,0,.05.09.11,0,0a.59.59,0,0,0,.31.23.5.5,0,0,0,.38-.06.51.51,0,0,0,.24-.3.5.5,0,0,0,0-.38Z" transform="translate(0)"/><path class="cls-1" d="M43.8,74.6A.89.89,0,0,0,43,75.67a1.51,1.51,0,0,0,.69,1,1.61,1.61,0,0,0,2.22-.33,1.63,1.63,0,0,0-.28-2.05,1.31,1.31,0,0,0-1.23-.25,1.62,1.62,0,0,0-.94.82,1.36,1.36,0,0,0-.13.79,1.3,1.3,0,0,0,.33.66,2.49,2.49,0,0,0,1.28.65.53.53,0,0,0,.5-.14,2.89,2.89,0,0,0,.75-1.31,1.27,1.27,0,0,0-.57-1.42,1.32,1.32,0,0,0-1.42.16,1.42,1.42,0,0,0-.54,1.41A2,2,0,0,0,44.73,77a.56.56,0,0,0,.65-.1,2.93,2.93,0,0,0,.6-1.11,3.22,3.22,0,0,0,.09-1.16.52.52,0,0,0-.37-.47,1.45,1.45,0,0,0-1.8.92A1.47,1.47,0,0,0,45,76.9a.79.79,0,0,0,.75-.25,1.26,1.26,0,0,0,.29-.42,1.52,1.52,0,0,0,.11-1,1.21,1.21,0,0,0-.64-.82,1.32,1.32,0,0,0-1.13,0,1.3,1.3,0,0,0-.68.77,1,1,0,0,0,.25,1,1.26,1.26,0,0,0,1.77-.37c.46-.7,0-1.55-.59-2a3.38,3.38,0,0,0-.47-.35,1,1,0,0,0-.91.14,2.22,2.22,0,0,0-.42.32,1.79,1.79,0,0,0-.22.25l-.07.09a.83.83,0,0,1-.08.12,1.45,1.45,0,0,0,.55,2.09,1.61,1.61,0,0,0,1.1.11,1.16,1.16,0,0,0,.85-.82.6.6,0,0,0-.21-.61.63.63,0,0,0-.65,0,4.8,4.8,0,0,0-.54.32.48.48,0,0,0,.36.89,4.52,4.52,0,0,0,.61-.15l-.65-.84a.41.41,0,0,0-.05.09c0,.09.11-.12,0,0l-.06.06c-.1.1.12-.06,0,0l-.07,0c-.08,0,.18,0,0,0h-.15s.17,0,0,0l-.1,0s-.11-.07,0,0l-.17-.08c.15.07.07,0,0,0s-.09-.11,0,0,0,0,0,0,0,.12,0,0l0-.1v0a.2.2,0,0,1,0-.07.41.41,0,0,1,0-.11c0-.06,0,0,0,0s0,0,0-.07l0-.1c0-.06,0,0,0,0l0-.06.06-.11c.08-.12-.08.08,0,0l.18-.18c-.13.13,0,0,0,0l.1-.05.06,0,0,0,.14,0-.46,0c.11.08-.08-.07,0,0l.08.06.15.11c.09.07,0,0,0,0s.12.09.15.11l.16.15.1.11c.09.1-.06-.09,0,0a.35.35,0,0,0,0,.08s0,.12.07.13-.05-.12,0,0l0,.11c0,.07,0-.14,0,0v0s0-.15,0-.07,0,0,0,0,.07-.13,0,0l0,0c0,.06,0,0,0,0a.12.12,0,0,0-.05,0s0,0,0,0,.11-.07,0,0a.47.47,0,0,0-.1,0c.07-.08.13,0,.07,0l0,0h-.06s.16,0,.05,0h0c-.12,0,.1.06,0,0s.1.1,0,0c.1.11.07.1.05.06s0,.14,0,0,0,0,0-.07,0,.12,0,0,0,.12,0,0,0,0,0,0l0-.06s.07,0,0,0l.06-.07,0,0c0,.07-.1.06,0,0a.54.54,0,0,0,.13-.07s-.13,0-.05,0l.05,0h.06c.1,0-.12,0,0,0a.09.09,0,0,0,.07,0c.06,0-.13,0,0,0l0,0c.08,0,0,0,0,0l.06,0c.06,0-.09-.09,0,0l0,0c.07.07-.06-.1,0,0l0,0s0,0,0,0l0-.06a.83.83,0,0,0,0,.15c0-.08,0-.1,0,0v.09c0,.07,0,.05,0,0s0,.06,0,.09,0,0,0,.06v0s0,0,0-.06a.64.64,0,0,0-.08.14c0,.07,0,0,0,0s0,0-.06.07l-.06.05c-.09.1.1-.06,0,0l.27-.08h0s0,0,0,0h0l-.07,0h0l-.07,0c-.08,0,0,0,0,0L45,75.72c-.06-.06,0,0,0,0s-.1-.12-.08-.15,0,.11,0,0,0-.06,0-.08,0,0,0,0,0-.06,0-.08v0s0-.06,0-.08v0h0l0,0,0-.07c0-.05-.08.08,0,0s.14-.11.07-.07,0,0,0,0l.07,0c.09-.05,0,0,0,0l.07,0,.08,0c.05,0-.1,0,0,0h.07a.94.94,0,0,1,.16,0l-.36-.47a1.85,1.85,0,0,1,0,.47s0,.13,0,0l0,.12a.86.86,0,0,1-.06.23l0,.1s-.07.14,0,0l-.11.21a1.28,1.28,0,0,1-.11.2l-.07.11s-.1.12,0,0l.64-.09L45.06,76,45,76s.1.09,0,0l-.09-.09s-.09-.1-.1-.1.06.08,0,0l0,0a.75.75,0,0,1-.07-.12l0-.05c0-.06,0,0,0,0a.65.65,0,0,0,0-.13s0-.13,0-.06,0,0,0,0v-.08a.43.43,0,0,1,0,0c0-.07,0,.07,0,0l0-.1c0-.09-.05.09,0,0l.06-.09,0,0s0,0,0,0a.6.6,0,0,0,.08-.08l-.05,0,0,0,.09,0c.07,0-.12,0,0,0l.1,0c.09,0-.11,0,0,0s.14,0,0,0,0,0,0,0,0,0,0,0l0,0s0,0,0,0-.08-.08,0,0a.38.38,0,0,0,.09.09s-.06-.09,0,0l0,.05s0-.1,0,0,0,0,0,0a.09.09,0,0,0,0,.05s0-.05,0-.05v.17s0-.11,0,0a.74.74,0,0,1,0,.14s-.06.11,0,.14,0-.09,0,0l0,.07a1,1,0,0,1-.08.14c0,.08-.09.17-.15.25s-.08.14,0,.08,0,0,0,0l-.06.07.5-.14-.43-.13c-.09,0,0,0,0,0l-.1,0c-.06,0-.19-.08-.22-.13l0,0,0,0-.05,0,0,0s0,0,0,0,0-.08-.06-.1,0,0,0,0a.64.64,0,0,1,0-.09c0-.06,0,0,0,0a.48.48,0,0,0,0-.12v.07s0,0,0-.06a.29.29,0,0,1,0-.09c0-.09-.05.08,0,0s0,0,0-.06.06-.07,0-.08l0,0,0,0,.07-.06,0,0,0,0,.15-.09c.1,0-.12,0,0,0l.09,0c.09,0-.09,0,0,0h.08c.1,0-.11,0,0,0l.07,0,0,0a.54.54,0,0,0,.13.07c.08,0-.09-.08,0,0l.06.06c.05.05,0,.07,0,0l0,.07s0,0,0,0,0-.08,0,0a1,1,0,0,1,0,.17c0,.06,0,.1,0,0s0,0,0,0v.18c0,.1,0-.12,0,0l0,.1a.25.25,0,0,1,0,.07c0,.1.06-.11,0,0a.25.25,0,0,0,0,.07c0,.06-.08.05,0,0a1,1,0,0,1-.1.11c-.05,0-.07,0,0,0l-.1.06c-.07,0-.08,0,0,0l-.06,0-.09,0h0s-.16,0-.19,0,.07,0,0,0a.45.45,0,0,0-.11,0l-.09,0h0l-.06,0s-.17-.09-.16-.1.08.07,0,0l-.09-.08,0,0s0,0,0,0a1318823862336.42,1318823862336.42,0,0,0-.1-.16s0,0,0,0a.14.14,0,0,0,0-.06c0-.11,0,0,0,0s0-.09,0-.1,0,.1,0,0,0,0,0,0l0,0,0,.06s0,0,0,0l-.05,0c-.08,0-.1,0,0,0a.53.53,0,0,0,.5-.49.48.48,0,0,0-.49-.48Z" transform="translate(0)"/><path class="cls-3" d="M25.08,75.49c.61.07.94-.72.67-1.19s-1.23-.4-1.58.1A2.29,2.29,0,0,0,23.94,76a1.65,1.65,0,0,0,.75,1.37c1.14.61,2.23-.63,2.43-1.65a2.62,2.62,0,0,0-.05-1.39,1.63,1.63,0,0,0-.84-1A1.86,1.86,0,0,0,24.08,76a1.57,1.57,0,0,0,1.12.69,1.87,1.87,0,0,0,1.32-.29,1.42,1.42,0,0,0,.65-1.28A1.63,1.63,0,0,0,25,73.66a1.87,1.87,0,0,0-.7,2.68A1.55,1.55,0,0,0,25.6,77a1.62,1.62,0,0,0,1.3-.71,1.42,1.42,0,0,0-1.4-2.1,1.19,1.19,0,0,0-1,1,1.62,1.62,0,0,0,.33,1.2,1.31,1.31,0,0,0,1.28.49,1.52,1.52,0,0,0,1.1-.85,1.72,1.72,0,0,0,0-1.5,1.88,1.88,0,0,0-1.12-.93,2.22,2.22,0,0,0-2.61,1,2.09,2.09,0,0,0-.23,1.51,1.79,1.79,0,0,0,.91,1.11,1.76,1.76,0,0,0,1.42.13,1.71,1.71,0,0,0,1.09-1.19,3.5,3.5,0,0,0,0-1.51,2.12,2.12,0,0,0-.21-.69.84.84,0,0,0-.84-.42,1.31,1.31,0,0,0-.79.54,2.67,2.67,0,0,0-.47.84,1.48,1.48,0,0,0,.39,1.57,1.35,1.35,0,0,0,.7.36,1,1,0,0,0,1.05-.38,1.25,1.25,0,0,0-.12-1.11,1.77,1.77,0,0,0-.61-.69.78.78,0,0,0-1.12.24.9.9,0,0,0,0,1,.55.55,0,0,0,.76.19.57.57,0,0,0,.22-.75s0,.25,0,.14a.35.35,0,0,1-.06.17s0,0,0,0h0s-.18.08-.09,0l-.46,0s.14.1,0,0l.11.1s.1.11,0,0l.05.07.06.11c.07.13,0-.11,0,0l0,.14c0,.12,0-.1,0,0l.32-.52,0,0c-.06,0,0,0,0,0l-.09,0c-.06,0,.15,0,0,0s.08,0,0,0l-.09,0,.06,0-.07,0-.07,0c.15.09,0,0,0,0s.05.09,0,0l-.06-.1s0,.11,0,0,0-.14,0,0v-.1s0-.17,0-.07a.36.36,0,0,1,0-.1s.07-.2,0-.12a1,1,0,0,1,.13-.23l.07-.11c.06-.08-.08.09,0,0l.18-.19,0,0c.08,0,.05,0-.09,0a.25.25,0,0,1-.17-.06c.1.07-.06-.06,0,0s.05.11,0,0l0,.12s.05.06,0,0a1.17,1.17,0,0,1,0,.22c0-.1,0,0,0,0a2.45,2.45,0,0,1,0,.27,3.53,3.53,0,0,1,0,.46s0,.17,0,0a.43.43,0,0,1,0,.11,1.82,1.82,0,0,0-.07.25c0,.08.05-.13,0,0l-.06.14c0-.06,0-.08,0,0s-.06.16-.12.2.09-.1,0,0l-.09.09,0,0s-.12.09-.13.08.14,0,0,0l-.11,0c-.11,0,0,0,0,0a.41.41,0,0,1-.11,0H25c-.13,0,.11,0,0,0l-.22-.07c.12.05-.06,0-.09,0l-.09,0c-.06,0,.09.08,0,0l-.14-.14c-.09-.09.05.09,0,0l-.06-.1s-.06-.14,0,0l0-.08s-.05-.24,0-.13a.81.81,0,0,1,0-.22s0-.16,0,0l0-.13s0-.09,0-.13,0,0,0,0a1.13,1.13,0,0,1,.12-.21s.07-.1,0,0l.09-.1.07-.06s.13-.12.08-.08.06,0,.06,0a.41.41,0,0,1,.11-.07l.08,0c.13-.07-.1,0,0,0l.21-.06.08,0c-.12,0,.06,0,.08,0h.22l.12,0,.1,0h0a1.51,1.51,0,0,1,.22.11s.11.08,0,0,0,0,0,0l.09.09s-.06-.09,0,0a1.62,1.62,0,0,1,.1.18c-.06-.12,0,0,0,0a.43.43,0,0,1,0,.11c0-.13,0,0,0,.09s0,.08,0,.12c0-.12,0-.06,0,0l-.06.21c0,.07.06-.11,0,0l-.05.1,0,0c0,.05,0,0,0,0a.37.37,0,0,1-.06.07.46.46,0,0,1-.07.07c-.09.09,0,0,0,0l-.06,0c-.11.07,0,0,0,0l-.06,0-.08,0q.12,0,0,0h-.07c-.1,0,.1,0,0,0l-.06,0c-.1,0,.08.07,0,0l-.06,0c-.09,0,.08.09,0,0l-.06,0,0,0s0,0,0,0-.07-.1-.09-.14,0,.09,0,0a.45.45,0,0,0,0-.16s0,.11,0,0a.28.28,0,0,0,0-.09c0-.11,0,.1,0,0s0,0,0-.06,0,.11,0,0l0,0c-.14,0,0,.12,0,0l0,0-.07,0s.08-.07.09-.06-.08,0,0,0h0c-.12,0,0,0,0,0s0,0,0,0l.11,0c.1,0,0,0,0,0s.06,0,.08.05-.07-.08,0,0l.06,0,.05.06s-.05-.06,0,0a.56.56,0,0,0,0,.08s0,.14,0,0,0,0,0,.07,0-.1,0,0v.08c0-.12,0,0,0,0s0,0,0,0a.54.54,0,0,1-.07.13s.08-.09,0,0l-.08.08c-.07.07,0,0,0,0l-.09.06a.3.3,0,0,0-.08,0c-.06,0,.13,0,0,0a.54.54,0,0,1-.22,0c.13,0,.05,0,0,0h-.09c-.13,0,.1,0,0,0h-.07s-.13-.06,0,0l-.07,0s-.12-.08,0,0a.39.39,0,0,1-.1-.08s-.1-.12,0,0l0-.07a1.51,1.51,0,0,1-.09-.18c0,.11,0,0,0,0s0-.06,0-.1,0-.12,0,0,0-.08,0-.12,0-.09,0-.13,0,.06,0,0a1.42,1.42,0,0,1,.07-.22c0,.09.05-.08.06-.11s.06-.08,0,0a1.85,1.85,0,0,1,.14-.14s.08-.06,0,0l.13-.08h0l.12,0c-.09,0-.05,0,0,0h.11c-.14,0,.18.07.06,0l.17.1c.1,0,0-.05,0,0a.46.46,0,0,0,.07.07.46.46,0,0,1,.07.07s.07.1,0,0a.86.86,0,0,1,.07.1s.06.13,0,0c0,.06,0,.12.05.19s0-.09,0,0a.11.11,0,0,0,0,.08c0,.12,0-.09,0,0a.19.19,0,0,1,0,.07c0,.13.06-.07,0,0l-.06.09c0,.11.09-.08,0,0l0,0a.46.46,0,0,0-.07.07c-.09.07.08,0,0,0l-.15.09c-.06,0,.13,0,0,0l-.12,0-.09,0c-.12,0,.12,0,0,0a1.08,1.08,0,0,1-.18,0h-.08c.14,0,0,0,0,0s-.25-.08-.12,0l-.16-.08-.06,0c.12.08,0,0,0,0L25,75.42c-.05,0,.06.09,0,0a.41.41,0,0,1-.05-.09s-.07-.15,0,0a1.21,1.21,0,0,1-.05-.18s0-.13,0-.05,0,0,0-.06a1.28,1.28,0,0,1,0-.19c0,.12,0,0,0,0l0-.11s.06-.14,0,0l0-.07.1-.17c.07-.1-.07.07,0,0l.06-.07.07-.07c.09-.08-.07,0,0,0l.1-.06c.11-.06-.09,0,0,0l.13,0c.14-.05,0,0,.05,0h.14c-.08,0,0,0,0,0l.07,0c-.13,0,0,0,0,0s0,0,0,0l.07.07s0,0,.05.05-.06-.11,0,0l.09.16c0,.09,0,0,0,0a1,1,0,0,0,0,.14,1.06,1.06,0,0,1,0,.19s0,.13,0,0v0a3.2,3.2,0,0,1,0,.44s0,.15,0,0c0,0,0,.06,0,.08a1.8,1.8,0,0,1-.05.19l-.06.19c.05-.13,0,0,0,0s-.05.08-.07.13a2.43,2.43,0,0,1-.14.2l0,0-.08.08s-.06.08-.09.08l.05,0a.1.1,0,0,1-.05,0l-.09.06-.08,0c.07,0,.09,0,0,0s-.07,0-.1,0,.05,0,0,0,.13,0,0,0,.06,0,0,0-.08-.06,0,0l-.09-.08c-.07-.06,0,0,0,0s-.05-.1-.08-.14,0-.09,0,0,0-.08,0-.13a1.6,1.6,0,0,1-.05-.21s0-.06,0-.09,0-.15,0,0a2.46,2.46,0,0,1,0-.28A1.07,1.07,0,0,1,25,75c0-.12,0,0,0-.07s0,0,0,0l0,0c-.05,0-.05,0,0,0s.05,0,0,0h0s-.09-.07,0,0a.22.22,0,0,1-.11-.14c0,.08,0,0,0,0v0s0,0,0,0,0,0,0,0,.08-.06.08-.07.19,0,.1,0a.49.49,0,0,0-.48.47.46.46,0,0,0,.46.45Z" transform="translate(0)"/><path class="cls-2" d="M64.74,72a28,28,0,0,1,15.2-16.26c8.3-3.67,17.81-3.34,26.23-.26a64.06,64.06,0,0,1,7.23,3.24c1.13.58,2.24,1.18,3.35,1.79s2.33,1.37,3.56,1.91a.43.43,0,0,0,.44-.74,53.82,53.82,0,0,0-6.34-3.55,70.21,70.21,0,0,0-6.48-3,40.42,40.42,0,0,0-13.59-2.9c-8.63-.24-17.16,2.46-23.48,8.48a26.94,26.94,0,0,0-7.08,11c-.2.61.75.82,1,.24Z" transform="translate(0)"/><path class="cls-1" d="M45.23,70.86A37.11,37.11,0,0,1,55.3,53.46,58.66,58.66,0,0,1,73.22,41.85,94.58,94.58,0,0,1,117,33.92a82.57,82.57,0,0,1,12.62,1.84,45.16,45.16,0,0,1,5.8,1.67,31,31,0,0,1,5.37,2.77c.36.23.82-.32.48-.62-2.67-2.32-6.32-3.47-9.7-4.32a81.31,81.31,0,0,0-11.17-1.95,90.44,90.44,0,0,0-23,.62,99.35,99.35,0,0,0-22.2,6.13A65.17,65.17,0,0,0,56.28,51.3,39.71,39.71,0,0,0,44.76,68c-.28.83-.51,1.68-.71,2.53a.61.61,0,0,0,1.18.3Z" transform="translate(0)"/><path class="cls-3" d="M27.82,69.68A69.88,69.88,0,0,1,48,44,98,98,0,0,1,79.25,27.58c12.34-4,25.32-6.1,38.2-7.42A110.31,110.31,0,0,1,138,19.48a93.72,93.72,0,0,1,19.52,4c5.77,1.77,11.53,4.21,16,8.31,4.09,3.73,7.17,9,7.48,14.6a17.7,17.7,0,0,1-.27,4.11.45.45,0,0,0,.88.22c1.2-5.46-.59-11.12-3.78-15.58-3.48-4.86-8.59-8.17-14-10.46a88.18,88.18,0,0,0-18.69-5.2,83.7,83.7,0,0,0-21-.9c-6.74.5-13.47,1.35-20.14,2.41a159.94,159.94,0,0,0-19.72,4.27c-11.8,3.44-23.22,8.29-33.24,15.48C42,47.21,34,55.58,28.79,65.46q-1,1.85-1.83,3.75c-.26.58.6,1.05.86.47Z" transform="translate(0)"/><path class="cls-2" d="M120.89,61.68c-.1-.47-.19-.94-.33-1.4-.07-.23-.14-.46-.23-.68a2,2,0,0,0-.4-.7.33.33,0,0,0-.55.24,2.29,2.29,0,0,0,.13.73c.06.22.13.45.2.66.15.45.3.9.44,1.35a.38.38,0,0,0,.74-.2Z" transform="translate(0)"/><path class="cls-2" d="M120,61.75c-.51.13-1,.25-1.55.35l-.75.14a2.15,2.15,0,0,0-.83.24.35.35,0,0,0,.08.64,1.92,1.92,0,0,0,.89,0l.78-.16c.53-.12,1-.26,1.57-.41a.41.41,0,0,0,.29-.48.4.4,0,0,0-.48-.27Z" transform="translate(0)"/><path class="cls-1" d="M141.17,39.38a8.5,8.5,0,0,0-.35-1.34,3.3,3.3,0,0,0-.75-1.31c-.25-.24-.74,0-.63.36a9.83,9.83,0,0,0,.58,1.28,5.25,5.25,0,0,1,.22.55c.07.22.14.43.19.65a.37.37,0,0,0,.46.26.39.39,0,0,0,.28-.45Z" transform="translate(0)"/><path class="cls-1" d="M140.36,39.31c-.5.12-1,.27-1.47.43a4.26,4.26,0,0,0-1.5.68.38.38,0,0,0,.26.64,2.51,2.51,0,0,0,.76-.2l.72-.26c.48-.16,1-.3,1.45-.43a.47.47,0,0,0,.33-.55.45.45,0,0,0-.55-.31Z" transform="translate(0)"/><path class="cls-3" d="M182,50.69a10.48,10.48,0,0,0,1-1,.27.27,0,0,0,0-.35.26.26,0,0,0-.34-.07,11.76,11.76,0,0,0-1.18.93.36.36,0,0,0,0,.51.37.37,0,0,0,.51,0Z" transform="translate(0)"/><path class="cls-3" d="M181.1,49.81a2.69,2.69,0,0,0-.62-.55,1.66,1.66,0,0,0-.32-.17,1.43,1.43,0,0,0-.27-.09h0a1,1,0,0,0-.24,0l-.07,0a.39.39,0,0,0-.29.28.38.38,0,0,0,.1.38.54.54,0,0,0,.16.14l.1.06.22.12a3.07,3.07,0,0,1,.43.26l-.09-.07a3.73,3.73,0,0,1,.3.26.45.45,0,0,0,.63,0,.47.47,0,0,0,.14-.31.49.49,0,0,0-.13-.31Z" transform="translate(0)"/><path class="cls-1" d="M41.5,90.86l2.69-2.15a22.39,22.39,0,0,0,2.64-2.21.45.45,0,0,0-.55-.7A23.09,23.09,0,0,0,43.53,88l-2.69,2.24a.46.46,0,0,0,0,.65.48.48,0,0,0,.67,0Z" transform="translate(0)"/><path class="cls-1" d="M42.29,87.15c.49.95,1,1.89,1.55,2.8a15.54,15.54,0,0,0,1.8,2.66c.33.37.89-.11.68-.52-.46-.94-1.1-1.79-1.63-2.69s-1-1.83-1.49-2.77c-.29-.59-1.21-.06-.91.52Z" transform="translate(0)"/><path class="cls-1" d="M53.91,89.46c12.3.49,24.59.23,36.89-.16s24.51-1,36.77-1.19c3.44,0,6.87-.08,10.31-.07s7,.18,10.44.08a.41.41,0,0,0,0-.82c-3.05-.26-6.13-.23-9.19-.23s-6.13,0-9.19,0c-6.17.09-12.34.27-18.51.47-12.26.4-24.51,1-36.77,1.13-6.92.08-13.84.11-20.75-.07a.41.41,0,0,0,0,.82Z" transform="translate(0)"/><path class="cls-1" d="M53,87.51A10.7,10.7,0,0,0,53,89.7a4.94,4.94,0,0,0,.69,2,.55.55,0,0,0,1-.41,4.5,4.5,0,0,0-.08-.51c-.05-.16-.09-.33-.14-.5s-.12-.62-.18-.94a8.42,8.42,0,0,1-.14-1.89.59.59,0,0,0-.59-.58.62.62,0,0,0-.61.59Z" transform="translate(0)"/><path class="cls-1" d="M148.63,87.88a.13.13,0,0,0,0-.25.13.13,0,0,0,0,.25Z" transform="translate(0)"/><path class="cls-1" d="M148.65,87l-1.13-.83a10.89,10.89,0,0,0-1.09-.66.46.46,0,0,0-.59.13.45.45,0,0,0,0,.6,9.24,9.24,0,0,0,.89.88l1,.8a.71.71,0,0,0,.45.17.66.66,0,0,0,.46-.19.64.64,0,0,0,.19-.45.59.59,0,0,0-.18-.45Z" transform="translate(0)"/><path class="cls-1" d="M147.06,87.64a6.5,6.5,0,0,0-.8,1.21,3.42,3.42,0,0,0-.42,1.46.56.56,0,0,0,.35.51.59.59,0,0,0,.62-.13c.12-.16.25-.31.35-.47l.26-.4A8.33,8.33,0,0,1,148,89l-.13.16c.12-.15.25-.3.38-.44a.87.87,0,0,0,.24-.57.77.77,0,0,0-.23-.57.82.82,0,0,0-.57-.22.83.83,0,0,0-.59.24Z" transform="translate(0)"/><path class="cls-1" d="M159.15,85.88a5.84,5.84,0,0,0,.34,5.87.39.39,0,0,0,.68-.39,6,6,0,0,1-.16-5,.5.5,0,0,0-.18-.67.51.51,0,0,0-.68.2Z" transform="translate(0)"/><path class="cls-1" d="M161,88.92c.22.35.45.7.7,1a6.8,6.8,0,0,0,.85,1,.33.33,0,0,0,.43,0,.32.32,0,0,0,.1-.42c-.23-.34-.48-.67-.72-1a11.56,11.56,0,0,1-.69-1,.39.39,0,0,0-.67.39Z" transform="translate(0)"/><path class="cls-1" d="M163.12,89a8,8,0,0,0-.52,5,.54.54,0,0,0,1.06-.15,20.26,20.26,0,0,1,.09-2.34,8.74,8.74,0,0,1,.58-2.19.61.61,0,0,0-.43-.76.67.67,0,0,0-.78.45Z" transform="translate(0)"/><path class="cls-1" d="M165.81,86.88l.13,2.87a15.88,15.88,0,0,0,.26,2.84c.1.44.7.29.74-.1a16.51,16.51,0,0,0-.05-2.81l-.18-2.81c0-.57-.93-.55-.9,0Z" transform="translate(0)"/><path class="cls-1" d="M169.57,90.87c.44-.49.89-1,1.33-1.44a10.38,10.38,0,0,0,1.23-1.57.31.31,0,0,0-.08-.39.33.33,0,0,0-.4,0,10.35,10.35,0,0,0-1.33,1.4c-.42.5-.81,1-1.22,1.51a.33.33,0,1,0,.47.46Z" transform="translate(0)"/><path class="cls-1" d="M169.46,88.91l.95,1.12c.16.19.32.37.47.56l.23.26a2.52,2.52,0,0,0,.3.27.47.47,0,0,0,.58,0,.44.44,0,0,0,.12-.56,3.11,3.11,0,0,0-.25-.38l-.24-.28-.49-.56-1-1.12a.47.47,0,0,0-.67,0,.48.48,0,0,0,0,.66Z" transform="translate(0)"/><path class="cls-1" d="M172.92,86.8a4.93,4.93,0,0,1,1,2.7,5.73,5.73,0,0,1-.72,2.83.46.46,0,0,0,.73.54,5.2,5.2,0,0,0,1.26-3.34,5.68,5.68,0,0,0-.94-3.47.74.74,0,0,0-1-.25.73.73,0,0,0-.28,1Z" transform="translate(0)"/><path class="cls-1" d="M81.16,0a11.79,11.79,0,0,0-1.51.64,4.24,4.24,0,0,0-1.21.84c-.73.84,0,1.78.59,2.44.37.4.77.77,1.14,1.17a3.25,3.25,0,0,1,.9,1.3.88.88,0,0,1-.67,1,4,4,0,0,1-1.78,0c-.45,0-.65.52-.2.69a2.76,2.76,0,0,0,3-.32c.79-.83.39-1.83-.25-2.6-.35-.42-.74-.8-1.13-1.19A5.27,5.27,0,0,1,79,2.62c-.28-.6.32-.9.77-1.16A9.07,9.07,0,0,1,81.35.74c.46-.15.28-.88-.19-.72Z" transform="translate(0)"/><path class="cls-1" d="M82.74,3.13,83,5.61a14.68,14.68,0,0,0,.36,2.48.41.41,0,0,0,.8-.11A15.36,15.36,0,0,0,84,5.55l-.27-2.42a.5.5,0,0,0-.48-.49c-.24,0-.54.23-.51.49Z" transform="translate(0)"/><path class="cls-1" d="M82.55,5.77l1.3-.16A6.67,6.67,0,0,0,85,5.37.44.44,0,0,0,85.34,5a.41.41,0,0,0-.3-.39,3.65,3.65,0,0,0-.66,0c-.2,0-.4,0-.6,0l-1.2.11a.57.57,0,0,0-.55.53.53.53,0,0,0,.52.53Z" transform="translate(0)"/><path class="cls-1" d="M86.24,5.68a1.7,1.7,0,0,0,.23,1.89A1.65,1.65,0,0,0,89.32,6.4,1.67,1.67,0,0,0,88.2,4.89,1.91,1.91,0,0,0,87,4.94a2.71,2.71,0,0,0-1.12.69.43.43,0,0,0-.07.49.4.4,0,0,0,.46.18,7.87,7.87,0,0,0,.83-.39h0l.09,0,.21-.07.16,0h.25l.17,0c-.09,0,0,0,0,0l.07,0,.06,0,0,0,0,0a1.14,1.14,0,0,0,.11.11s-.07-.1,0,0l0,.06.06.12c0,.1,0-.08,0,0l0,.1a.33.33,0,0,1,0,.15c0-.08,0-.07,0,0a.21.21,0,0,0,0,.08s0,.06,0,.09,0,0,0,0a.64.64,0,0,1,0,.17c0,.1,0-.07,0,0l0,.06,0,.07s.08-.09,0,0l-.1.1c-.07.07,0,0,0,0s-.08,0-.09.06L87.93,7c-.1.05.1,0,0,0l-.08,0-.13,0c-.09,0,0,0,0,0h-.19c-.11,0,0,0,0,0s-.12,0-.14,0-.09,0,0,0l0,0-.06,0,0,0s0,0,0,0a1.35,1.35,0,0,1-.12-.12l0,0c0,.06,0,.07,0,0l0,0a1.4,1.4,0,0,0-.09-.17c0-.06,0,.12,0,0l0-.09s0-.05,0-.07a.09.09,0,0,1,0,0s0,0,0,0,0-.14,0-.16,0-.06,0-.07,0,.08,0,0v0l0-.08c0-.12,0,.06,0,0a.5.5,0,0,0-.18-.67.52.52,0,0,0-.68.2Z" transform="translate(0)"/><path class="cls-1" d="M91.78,5.31a1.62,1.62,0,0,0-1.13,1.2.57.57,0,0,0,0,.34.55.55,0,0,0,.22.26,3.69,3.69,0,0,0,1,.5l.46.16.25.07c.11,0,.22,0,.33,0a.43.43,0,0,0,.41-.31.42.42,0,0,0-.19-.46L92.94,7l-.2-.09-.44-.23-.85-.48.27.47s0-.07,0-.1c0,.15,0,.06,0,0a.54.54,0,0,0,0-.1l0,0,0,0,0-.07c0-.08-.09.1,0,0L92,6.27l-.1.08L92,6.27s.12,0,0,0l.07,0a.51.51,0,0,0,.37-.6.49.49,0,0,0-.6-.34Z" transform="translate(0)"/><path class="cls-1" d="M93,4.05a10.94,10.94,0,0,0,.34,3,.5.5,0,0,0,.47.36,2.18,2.18,0,0,0,1-.32.76.76,0,0,1,.69-.05c.59.24.81,1,1.19,1.42s.88,0,.76-.44a2.76,2.76,0,0,0-1.54-1.78,1.79,1.79,0,0,0-1.14-.1c-.33.09-.63.33-1,.3l.47.35A12.25,12.25,0,0,1,94,4.05c0-.63-1-.6-1,0Z" transform="translate(0)"/><path class="cls-1" d="M100.34,6.43a1.14,1.14,0,0,0-1-.6,1.26,1.26,0,0,0-1.09.55,1.51,1.51,0,0,0-.23,1.22,1.08,1.08,0,0,0,1.16.84,1.46,1.46,0,0,0,.82-.36,3.07,3.07,0,0,0,.25-.26l.16-.21,0-.06,0-.06-.7-.28a1.94,1.94,0,0,0,.26,1.18,2.82,2.82,0,0,0,.38.46,1.71,1.71,0,0,0,.63.32.45.45,0,0,0,.51-.26.41.41,0,0,0-.18-.52s-.11-.07,0,0l-.09-.07a1.85,1.85,0,0,0-.14-.14A1.29,1.29,0,0,1,101,8l0,0s0-.06,0-.07l-.12-.18-.05-.11c0-.07,0,0,0,0l-.06-.21s0-.07,0-.11,0,0,0-.06A.42.42,0,0,0,99.88,7l0,0,0,.07-.09.1-.23.22-.09.06s-.13.07,0,0l-.15,0s-.13,0,0,0-.17,0-.08,0-.13,0,0,0l-.06,0h0s-.09-.1,0,0a.43.43,0,0,1-.09-.21.64.64,0,0,1,0-.07s0,0,0,0,0,0,0,0V7.08a.75.75,0,0,1,.12-.39.45.45,0,0,1,.26-.21.59.59,0,0,1,.39,0,.45.45,0,0,1,.27.22c.18.31.65,0,.49-.29Z" transform="translate(0)"/><path class="cls-1" d="M103.84,5.67a1.48,1.48,0,0,0-1.24.78.37.37,0,0,0,.22.54h0l.08,0c.09,0,0,0,0,0a.18.18,0,0,1,.07.05l.06.07s.05.06,0,0l.09.15s0,.1,0,0,0,.05,0,.05a1,1,0,0,1,0,.17c0-.05,0,0,0,0v.09s0,.11,0,.06,0,0,0,0a.25.25,0,0,1,0,.07c0,.1,0-.06,0,0l0,.06s-.08.1,0,0l-.13.13s0,0,0,0l-.08,0-.08,0-.05,0c.06,0,0,0,0,0l-.09,0-.18,0-.08,0s-.11,0-.05,0a.37.37,0,0,0-.34.26.33.33,0,0,0,.16.38A1.38,1.38,0,0,0,104,8a1.5,1.5,0,0,0-1-1.76l.22.54,0-.11c0-.06,0,0,0,0l.08-.09h0l0,0,.11-.06h0a.23.23,0,0,1,.11,0h.08a.4.4,0,0,0,.39-.38.37.37,0,0,0-.38-.37Z" transform="translate(0)"/><path class="cls-1" d="M105.27,4.85c.13.61.27,1.22.41,1.84a18.48,18.48,0,0,0,.47,1.81.44.44,0,0,0,.48.32.46.46,0,0,0,.39-.44,35.42,35.42,0,0,0-.7-3.81.53.53,0,0,0-.65-.37.55.55,0,0,0-.4.65Z" transform="translate(0)"/><path class="cls-1" d="M105.93,6.9a8.27,8.27,0,0,0,2.19-.54.38.38,0,0,0,.27-.43.36.36,0,0,0-.44-.25l-.52.09-.26,0h-.06l-.2,0-.12,0c.1,0,0,0,0,0l-.28,0-.52,0a.51.51,0,0,0-.5.49.47.47,0,0,0,.48.48Z" transform="translate(0)"/><path class="cls-1" d="M109,6.81A18.37,18.37,0,0,1,109.28,9a.33.33,0,0,0,.28.33.35.35,0,0,0,.38-.25,9.13,9.13,0,0,0,0-2.45.51.51,0,0,0-.15-.35.45.45,0,0,0-.41-.13.52.52,0,0,0-.44.62Z" transform="translate(0)"/><path class="cls-1" d="M109.18,4.4s0,0,0,.07a.13.13,0,0,1,0,.06s0,0,0,.06a.25.25,0,0,0,0,.07.21.21,0,0,0,.06.1h0v0l.16.12a.67.67,0,0,0,.12.06h.14a.16.16,0,0,0,.1,0l.07,0a.18.18,0,0,0,.07-.08.22.22,0,0,0,0-.13.2.2,0,0,0,0-.11.24.24,0,0,0-.06-.09l-.09-.09-.1-.1,0,.06,0,0a.2.2,0,0,0-.08-.08h0l-.05,0,.06,0,0,0,0,0a.1.1,0,0,1,0,0,.26.26,0,0,0-.14-.11h-.07a.1.1,0,0,0-.09,0,.05.05,0,0,0,0,0,.23.23,0,0,0-.07.07.2.2,0,0,0,0,.17Z" transform="translate(0)"/><path class="cls-1" d="M113.87,6.27a1.43,1.43,0,0,0-2,1.34,1.35,1.35,0,0,0,.18.62A1.7,1.7,0,0,0,113,9a2.05,2.05,0,0,0,.6.11,1.51,1.51,0,0,0,.71-.19.5.5,0,0,0,.24-.55.61.61,0,0,0-.13-.22.47.47,0,0,0-.35-.13h-.18s-.16,0-.05,0-.07,0,0,0h-.21c-.11,0,.13,0,0,0a.73.73,0,0,1-.2,0l-.09,0h0s.13,0,.07,0a.91.91,0,0,1-.17-.09l0,0c-.07,0,.05,0,.05,0s-.07-.06-.08-.07a1,1,0,0,1-.14-.15l.08.11L113,7.64a.21.21,0,0,1,0-.06s0-.09,0,0,0,0,0,0a.43.43,0,0,1,0,0s0,0,0,0v.08c0-.14,0-.17,0-.09v0s0-.09,0-.14,0,.11,0,0a.19.19,0,0,0,0-.07s0,0,0,0,0,.09,0,0a.54.54,0,0,1,.07-.13s.07-.06,0,0a.1.1,0,0,1,0-.05.38.38,0,0,1,.09-.09l0,0-.05,0,.06,0,.06,0h0s0,0,0,0l.12,0c.06,0,0,0,0,0h.12l.07,0s-.09,0,0,0a.41.41,0,0,0,.54-.15.38.38,0,0,0-.14-.52Z" transform="translate(0)"/><path class="cls-1" d="M79,11.22q20.8.43,41.61.31c3.9,0,7.8,0,11.71-.16a.23.23,0,0,0,0-.46c-7,0-14,.13-20.92.12s-13.79,0-20.68-.14c-3.9-.05-7.81-.09-11.71-.17a.25.25,0,0,0,0,.5Z" transform="translate(0)"/><path class="cls-1" d="M.29,77.81a21.17,21.17,0,0,0-.18,5.45c.05.43.68.27.71-.1.15-1.78.24-3.58.5-5.36.05-.27-.25-.5-.5-.5a.54.54,0,0,0-.53.51Z" transform="translate(0)"/><path class="cls-1" d="M2.33,78.53a13.15,13.15,0,0,0-.76,4.3.44.44,0,0,0,.39.43.46.46,0,0,0,.49-.33,30.44,30.44,0,0,1,1-4.12A.54.54,0,0,0,3,78.13a.59.59,0,0,0-.7.4Z" transform="translate(0)"/><path class="cls-1" d="M1.68,78.27a1.67,1.67,0,0,1,2.82-.11,1.47,1.47,0,0,1,.06,1.6,1.5,1.5,0,0,1-1.39.71c-.45-.07-.94.49-.51.87C4.31,82.79,6,84.21,7.81,85.5c.43.3,1-.39.58-.75-1.58-1.47-3.28-2.84-5-4.15L3,81.48A2.52,2.52,0,0,0,5.4,77.71a2.68,2.68,0,0,0-4.57.09c-.34.55.52,1,.85.47Z" transform="translate(0)"/><path class="cls-1" d="M210.29,79.62a21.63,21.63,0,0,0-.17,5.45c0,.43.68.28.71-.09.15-1.79.24-3.59.5-5.37,0-.27-.26-.5-.51-.5a.55.55,0,0,0-.53.51Z" transform="translate(0)"/><path class="cls-1" d="M212.34,80.35a12.84,12.84,0,0,0-.76,4.29.44.44,0,0,0,.38.43.46.46,0,0,0,.5-.33,29,29,0,0,1,1-4.12.55.55,0,0,0-.39-.68.59.59,0,0,0-.7.41Z" transform="translate(0)"/><path class="cls-1" d="M211.69,80.09a1.67,1.67,0,0,1,2.82-.12,1.47,1.47,0,0,1-1.33,2.31c-.46-.07-.94.49-.52.87,1.66,1.45,3.37,2.87,5.16,4.16.43.3,1-.39.58-.74a64.08,64.08,0,0,0-5-4.16l-.38.88a2.52,2.52,0,0,0,2.38-3.77,2.67,2.67,0,0,0-4.57.1c-.33.55.53,1,.86.47Z" transform="translate(0)"/><path class="cls-1" d="M138.19,3.05a10.22,10.22,0,0,0,.66,6.52c.24.5,1.09.14.92-.38a11,11,0,0,1-.43-5.85c.16-.76-1-1-1.15-.29Z" transform="translate(0)"/><path class="cls-1" d="M141.24,8.67a7.48,7.48,0,0,1,1.11-3.51l-.54-.07c.3.85.6,1.71.95,2.54.13.31.53.23.73.08a2.66,2.66,0,0,0,.73-1.87,2.37,2.37,0,0,1,.58-1.7l-.55-.07a3.38,3.38,0,0,1,.27,1c.07.4.13.81.2,1.21l.21,1.22a6,6,0,0,0,.3,1.2.43.43,0,0,0,.48.31.45.45,0,0,0,.39-.43A12.05,12.05,0,0,0,145.58,6a7.81,7.81,0,0,0-.72-2.27.35.35,0,0,0-.55-.06,3,3,0,0,0-.77,1.8,6.35,6.35,0,0,1-.21.94,1.46,1.46,0,0,1-.49.68l.73.08c-.38-.78-.8-1.53-1.22-2.29a.3.3,0,0,0-.51,0,14.79,14.79,0,0,0-.78,1.83,9.43,9.43,0,0,0-.38,2c0,.36.53.34.56,0Z" transform="translate(0)"/><path class="cls-1" d="M149.78,7a1.24,1.24,0,0,0-1.1-.84,1.46,1.46,0,0,0-1.35.64,1.83,1.83,0,0,0-.21,1.59.93.93,0,0,0,.88.69,1.7,1.7,0,0,0,.92-.29,1.94,1.94,0,0,0,.7-.75,2.38,2.38,0,0,0,.26-1,.42.42,0,0,0-.37-.43.45.45,0,0,0-.49.32,2.21,2.21,0,0,0,.13,1.64,1.15,1.15,0,0,0,1.53.47.48.48,0,0,0,.21-.59.46.46,0,0,0-.55-.27c.12,0-.08,0,.06,0h-.1l-.09,0c.09,0,0,0,0,0l-.1-.07c.06,0,0,0,0,0L150,8c-.08-.09,0,.08,0,0l-.06-.1s0,0,0,0l0,0s0-.09,0-.14,0-.14,0-.07a3.35,3.35,0,0,1,0-.55H149s0,.09,0,0,0,0,0,.06,0,.09,0,.14a1.17,1.17,0,0,1-.05.11l0,.08s-.05.09-.07.13l0,0h0l-.2.2-.07.06,0,0a.91.91,0,0,0-.13.08l-.11,0c-.08.05,0,0,0,0l-.08,0-.08,0H148c-.05,0,0,0,0,0s0,0,0,0,0,0,0,0L148,7.94c0-.05,0,0,0,0l0-.08,0-.11s0-.17,0-.08a1.31,1.31,0,0,1,0-.28c0-.07,0,0,0,0s0-.1,0-.15,0-.07,0,0l0,0,.06-.12a.64.64,0,0,1,.14-.15h0l0,0,.1-.06h.11s0,0,0,0a.72.72,0,0,1,.73.37.3.3,0,0,0,.35.2.3.3,0,0,0,.21-.36Z" transform="translate(0)"/><path class="cls-1" d="M152.44,8.64a2.91,2.91,0,0,1-.12-.39,1.18,1.18,0,0,1,0-.2.5.5,0,0,1,0-.12s0-.11,0,0a1.34,1.34,0,0,1,0-.4c0-.09,0,.09,0,0a.29.29,0,0,0,0-.09.32.32,0,0,0,0-.09s0,0,0,0l0,0,0-.07,0,0c0,.06-.06.07,0,0l0-.06.05,0,0,0,.08-.05.05,0h0s.2-.06.21,0h.78a.41.41,0,0,0,.38-.29.38.38,0,0,0-.17-.43,1.81,1.81,0,0,0-.54-.18,2.5,2.5,0,0,0-.67,0,1.41,1.41,0,0,0-1,.67,2.39,2.39,0,0,0,.07,2,.41.41,0,0,0,.51.29.43.43,0,0,0,.31-.51Z" transform="translate(0)"/><path class="cls-1" d="M154.36,5.61c0,.57,0,1.15.09,1.73a17.7,17.7,0,0,0,.24,1.78.47.47,0,0,0,.54.35.52.52,0,0,0,.44-.48c.06-.57.11-1.13.12-1.7s0-1.13,0-1.7a.7.7,0,0,0-.69-.69.73.73,0,0,0-.72.71Z" transform="translate(0)"/><path class="cls-1" d="M156.19,7.81l.48-.43.24-.21.13-.1.06,0,.19-.15h0l.06,0,.33-.25.13-.1c.05,0-.07,0,0,0l.15-.11a2.5,2.5,0,0,0,.22-.24.36.36,0,0,0,.06-.43.38.38,0,0,0-.41-.17,3.13,3.13,0,0,0-1.24.64,13.74,13.74,0,0,0-1.1.92.52.52,0,0,0,0,.72.53.53,0,0,0,.73,0Z" transform="translate(0)"/><path class="cls-1" d="M156.15,8.35a6.69,6.69,0,0,0,1.09.73,5.88,5.88,0,0,0,1.21.45.46.46,0,0,0,.53-.27.42.42,0,0,0-.18-.54c-.33-.21-.66-.42-1-.65l.12.08-.48-.35.12.09c-.18-.14-.36-.28-.53-.44a.65.65,0,0,0-1.08.46.58.58,0,0,0,.18.44Z" transform="translate(0)"/><path class="cls-1" d="M159.62,7.48a2.38,2.38,0,0,0,1,1.48,1.57,1.57,0,0,0,1.71-.18,1.45,1.45,0,0,0,.46-1.53,1.42,1.42,0,0,0-1.22-1,1.54,1.54,0,0,0-.87.18,1.19,1.19,0,0,0-.6.72.32.32,0,0,0,.19.39.35.35,0,0,0,.42-.15c.06-.08-.05,0,0,0a.08.08,0,0,0,0,0l.1-.09a.6.6,0,0,1,.08-.08l0,0,0,0,.07,0,0,0c.08,0-.06,0,0,0l.12,0h.08s0,0,0,0a.33.33,0,0,1,.14,0h.08s-.09,0,0,0l.14,0s0,0,0,0l.06,0,.06,0c.07,0-.05-.06,0,0a.94.94,0,0,1,.1.1l0,0s-.06-.08,0,0l.07.12a.08.08,0,0,1,0,0c0,.07,0-.09,0,0l0,.12s0,0,0,.07,0-.1,0,0v.13s0,.06,0,.07,0-.08,0,0v0a.78.78,0,0,0,0,.14s0-.1,0,0l0,.06,0,.06s.08-.08,0,0a1.14,1.14,0,0,1-.11.11s.11-.07,0,0l-.05,0-.12.06c.08-.06.08,0,0,0l-.08,0-.14,0c-.09,0,.1,0,0,0h-.19c-.07,0,.12,0,0,0h-.06l-.07,0c-.11,0,.08,0,0,0l-.12-.06c-.09-.06.06,0,0,0L161,8a1.31,1.31,0,0,1-.11-.12c.09.09,0,0,0,0a.22.22,0,0,0,0-.08c-.06-.11-.11-.22-.16-.33s0,.12,0,0l0-.1-.07-.18a.49.49,0,0,0-.59-.34.5.5,0,0,0-.36.59Z" transform="translate(0)"/><path class="cls-1" d="M163.48,7.82a3,3,0,0,0,1.27.9,1.4,1.4,0,0,0,1.4-.34,2.73,2.73,0,0,0,.57-1l.09-.24,0-.06s0,.06,0,0l0-.1a4.92,4.92,0,0,1,.24-.45.39.39,0,0,0-.05-.46.42.42,0,0,0-.47,0,1.64,1.64,0,0,0-.69.78c-.07.13-.13.27-.19.41s-.07.13-.11.2l-.06.1,0,0s0,0,0,0a1.79,1.79,0,0,0-.13.14c-.08.08.09,0,0,0l-.1,0s0,0,.06,0l-.09,0c-.1,0,.07,0,0,0s-.16,0,0,0l-.13,0s-.12,0,0,0l-.14-.08-.15-.09c-.09-.06.05,0,0,0s-.31-.29-.46-.44a.54.54,0,0,0-.77.76Z" transform="translate(0)"/><path class="cls-1" d="M171.41,5.17c.09,1.16.07,2.33.1,3.5a.4.4,0,0,0,.36.41.44.44,0,0,0,.48-.31,16.76,16.76,0,0,0,.11-3.61.51.51,0,0,0-.51-.52.55.55,0,0,0-.54.53Z" transform="translate(0)"/><path class="cls-1" d="M172.91,7.33l.33-.26.28-.21c.23-.17.46-.35.7-.51l1.4-1a.36.36,0,1,0-.36-.62,12.9,12.9,0,0,0-3,2,.46.46,0,0,0,0,.64.48.48,0,0,0,.64,0Z" transform="translate(0)"/><path class="cls-1" d="M172.46,8a4,4,0,0,0,1.11.88,4.61,4.61,0,0,0,.68.28,2.35,2.35,0,0,0,.75.11.43.43,0,0,0,.42-.37.41.41,0,0,0-.3-.45L175,8.43c-.06,0,.07,0,0,0l-.16-.06-.28-.09-.08,0h0l-.15-.07-.28-.14-.25-.16-.07,0h0s0,0,0,0l-.07-.06a3.73,3.73,0,0,1-.45-.44.51.51,0,0,0-.7,0,.5.5,0,0,0,0,.69Z" transform="translate(0)"/><path class="cls-1" d="M176.63,8.23a3.34,3.34,0,0,0,1.29.19,1.54,1.54,0,0,0,1-.51,1.1,1.1,0,0,0,.22-1,1.33,1.33,0,0,0-.65-.73,1.73,1.73,0,0,0-2,.56A1.86,1.86,0,0,0,176,7.76a1.53,1.53,0,0,0,.35,1,2,2,0,0,0,1.1.66,3.31,3.31,0,0,0,1.47,0,.41.41,0,0,0,.31-.38.4.4,0,0,0-.29-.38c-.17,0-.33-.05-.5-.06h-.13c-.09,0,.11,0-.05,0l-.32,0c.08,0,0,0-.05,0l-.12,0-.19,0-.12,0h0l-.18-.09-.06,0s-.11-.08-.05,0l0,0L177,8.16,176.91,8s-.06-.09,0,0a.36.36,0,0,1-.07-.1l0-.06c0,.06,0,0,0,0s0-.06,0-.1,0-.06,0,0a.78.78,0,0,1,.06-.37A1.23,1.23,0,0,1,178,6.59a.61.61,0,0,1,.45.29.49.49,0,0,1,.08.24.38.38,0,0,1-.08.24l0,0s-.09.08-.06.06-.06,0-.06,0l-.1,0s.07,0,0,0l-.11,0H178c.08,0,0,0,0,0a2.8,2.8,0,0,1-1.05-.23.49.49,0,0,0-.58.33.47.47,0,0,0,.32.56Z" transform="translate(0)"/><path class="cls-1" d="M180.9,8l0,0L181,8a.68.68,0,0,1-.12-.12l.08.11a.7.7,0,0,1-.09-.17l.05.13a.8.8,0,0,1-.05-.21v.14a1,1,0,0,1,0-.25l0,.13a.84.84,0,0,1,.08-.27l-.05.13a.72.72,0,0,1,.11-.19l-.09.1a1.29,1.29,0,0,1,.17-.16l-.11.09a1,1,0,0,1,.22-.13l-.12,0a1.64,1.64,0,0,1,.38-.1l-.13,0a1.41,1.41,0,0,1,.41,0l-.12,0,.2,0s.15,0,0,0l.19,0a.42.42,0,0,0,.49-.25.4.4,0,0,0-.16-.5,2.13,2.13,0,0,0-.41-.18,1.85,1.85,0,0,0-.46-.08,1.76,1.76,0,0,0-.9.21,1.44,1.44,0,0,0-.72,1.5,1,1,0,0,0,.15.41,1.18,1.18,0,0,0,.38.39.54.54,0,0,0,.39.05.56.56,0,0,0,.33-.25.53.53,0,0,0,0-.39A.56.56,0,0,0,180.9,8Z" transform="translate(0)"/><path class="cls-1" d="M184.35,8.48c0-.09,0-.17,0-.26s0-.08,0-.13V8a.56.56,0,0,0,0-.07s0-.15,0-.23a1.22,1.22,0,0,1,0-.27s0-.06,0,0v0l0-.12,0-.07s0,0,0,0a.47.47,0,0,1,0-.1c.05-.07,0,0,0,0l.07-.07,0,0,0,0s.07,0,.09-.06l.09,0,0,0,0,0,.09,0h.11c.07,0-.08,0,0,0h0c.07,0,0,0,0,0l.09,0s-.08-.07,0,0l0,0,0,0s0-.08,0,0l.06.1s0,0,0,0,0-.07,0,0v0a4.23,4.23,0,0,1,.13.51c0,.2.08.41.11.62a3.2,3.2,0,0,0,.07.33,1.93,1.93,0,0,0,.15.4.44.44,0,0,0,.47.22.47.47,0,0,0,.41-.35,1.29,1.29,0,0,0,0-.39,2.32,2.32,0,0,0-.06-.46c-.05-.22-.11-.43-.18-.64a1.92,1.92,0,0,0-.76-1.15,1.18,1.18,0,0,0-1.15.07,1.48,1.48,0,0,0-.69.91,3.35,3.35,0,0,0,0,1.51.36.36,0,0,0,.45.26.39.39,0,0,0,.27-.45Z" transform="translate(0)"/><path class="cls-1" d="M187.85,8.25c.63-.2,1.38-.19,1.78-.81A1,1,0,0,0,189.31,6a1.6,1.6,0,0,0-1,0,1.65,1.65,0,0,0-.83.56,1.45,1.45,0,0,0,.25,1.84,1.89,1.89,0,0,0,1.1.5,3.27,3.27,0,0,0,1.32-.08.42.42,0,0,0,.3-.38.4.4,0,0,0-.29-.37,9,9,0,0,0-.91-.08s-.15,0,0,0h-.08l-.2,0-.19-.05s-.14-.06,0,0l-.11,0a.64.64,0,0,1-.14-.08s.08.06,0,0l-.06,0-.13-.11-.05-.06c-.08-.09,0,.06,0,0l-.09-.14,0,0,0,0,0-.06,0-.15c0,.09,0,0,0,0a.49.49,0,0,1,0-.12s0,.07,0,0l0-.1s0,.06,0,0a.41.41,0,0,0,0-.09s0,.06,0,0l.07-.06,0,0h0l0,0a1.22,1.22,0,0,1,.55-.17.37.37,0,0,1,.26,0c-.06,0,0,0,0,0s0-.06,0,0,0,.08,0,0v.07c0-.07,0,0,0,0v.07c0,.08,0,0,0,0s0,0,0,.07a.14.14,0,0,0,0,.06c0,.05,0-.06,0,0l0,.06s-.07.09,0,0-.08.11-.12.11.08,0,0,0l-.08,0c-.05,0,.08,0,0,0l-.1,0a.9.9,0,0,1-.22.06l-.11,0h-.05l-.23,0a3.46,3.46,0,0,0-.53.09.46.46,0,0,0-.33.55.44.44,0,0,0,.55.31Z" transform="translate(0)"/><path class="cls-1" d="M191.31,5.6c0,.6,0,1.21.07,1.81a11.43,11.43,0,0,0,.25,1.85.46.46,0,0,0,.89-.12c0-.59-.07-1.18-.09-1.77s-.05-1.19-.05-1.78a.52.52,0,0,0-.52-.52.56.56,0,0,0-.55.53Z" transform="translate(0)"/><path class="cls-1" d="M194,4.21c1.44,2.78.19,5.71-.57,8.47-.13.47.6.77.8.31,1.29-2.86,2.23-6.38.76-9.35-.31-.64-1.31-.07-1,.57Z" transform="translate(0)"/><path class="cls-1" d="M155.93,85.8c-.58-.37-1.37-.62-1.91,0a3.46,3.46,0,0,0-.47,2.15c0,.78,0,1.57,0,2.35,0,.41,0,.82-.05,1.23,0,.18,0,.37-.05.55,0,0,0,.27,0,.15,0,0-.11.42-.06.22l.35-.35h0a.47.47,0,0,0-.33.55.59.59,0,0,0,.8.38,1.1,1.1,0,0,0,.54-.94,12.51,12.51,0,0,0,.11-2.37c0-.76-.08-1.53-.07-2.29,0-.18,0-.37,0-.55a.83.83,0,0,1,0-.38c0-.07,0-.06.13,0a1.22,1.22,0,0,1,.44.22c.54.33,1.05-.52.51-.87Z" transform="translate(0)"/><path class="cls-1" d="M152.64,90.22c.74,0,1.47,0,2.2,0l1.08,0c.37,0,.9.13,1.21-.09a.5.5,0,0,0,.12-.77,2,2,0,0,0-1.26-.22h-1.08c-.75,0-1.5,0-2.25,0a.54.54,0,0,0-.53.52.5.5,0,0,0,.51.51Z" transform="translate(0)"/><path class="cls-1" d="M122.24,2.44A2.54,2.54,0,0,0,120.06,2c-.65.35-.75,1.35-.76,2a11.93,11.93,0,0,0,.33,2.45,7.38,7.38,0,0,1,.16,1.24,8.69,8.69,0,0,0,0,1.25.32.32,0,0,0,.58.06,3.08,3.08,0,0,0,.13-2c-.09-.7-.23-1.38-.34-2.08a5.44,5.44,0,0,1,0-2,.67.67,0,0,1,.24-.43,1.11,1.11,0,0,1,.6,0,2.77,2.77,0,0,1,1,.4.25.25,0,0,0,.25-.43Z" transform="translate(0)"/><path class="cls-1" d="M119,6.69a13.17,13.17,0,0,1,1.66-.07c.27,0,.54,0,.81,0a2.76,2.76,0,0,0,.86,0,.35.35,0,0,0,.09-.64,2.07,2.07,0,0,0-.86-.22c-.28,0-.57-.08-.85-.1a11.92,11.92,0,0,0-1.69,0,.49.49,0,0,0-.48.47.45.45,0,0,0,.46.47Z" transform="translate(0)"/><path class="cls-1" d="M123.24,3.54q.09,1.35.12,2.7c0,.45,0,.9,0,1.35a4.41,4.41,0,0,0,.08,1.31.23.23,0,0,0,.44,0,3.8,3.8,0,0,0,.14-1.3c0-.45,0-.9,0-1.35,0-.9,0-1.8,0-2.7,0-.5-.8-.48-.77,0Z" transform="translate(0)"/><path class="cls-1" d="M125.25,7.52A1.48,1.48,0,0,0,125.62,9a.9.9,0,0,0,.77.2,1.22,1.22,0,0,0,.63-.41,1.49,1.49,0,0,0,.3-1.3,1.18,1.18,0,0,0-.85-.85,1.06,1.06,0,0,0-1.21.46.23.23,0,0,0,.06.3.26.26,0,0,0,.31,0l0,0h0l.06,0c.09-.07,0,0,0,0l.09,0,0,0h0l.1,0h.21a.73.73,0,0,1,.2,0l0,0,.09,0c-.06,0,0,0,0,0a.46.46,0,0,1,.07.07c0-.05,0,0,0,0l0,0s0,.08,0,0l.06.23c0-.07,0,0,0,0a.53.53,0,0,1,0,.13s0,.08,0,0,0,0,0,0a.36.36,0,0,1,0,.1,1,1,0,0,1,0,.1c0-.07,0,0,0,0l0,.06a.36.36,0,0,1-.07.1l0,0-.09.08c-.06.06.06,0,0,0l-.07.05,0,0c.07,0,0,0,0,0l-.05,0c.07,0,0,0,0,0s0,0,0,0h-.06l-.07,0,0,0c.06.06,0,0,0,0l0,0c0-.06,0,.06,0,0a.47.47,0,0,1-.07-.12s-.05-.06,0,0a.14.14,0,0,1,0-.09.19.19,0,0,1,0-.07s0-.12,0-.05a.86.86,0,0,1,0-.16,2.19,2.19,0,0,1,0-.36.32.32,0,0,0-.28-.32.35.35,0,0,0-.36.24Z" transform="translate(0)"/><path class="cls-1" d="M127.69,7.67c0,.53,0,1.42.63,1.6a.89.89,0,0,0,.81-.2,1.67,1.67,0,0,0,.41-.69l-.62.08a2,2,0,0,0,2.71.65c1.07-.58.74-2,0-2.71-.16-.16-.51,0-.42.24a4.28,4.28,0,0,1,.45,1.06.69.69,0,0,1-.38.76,1.85,1.85,0,0,1-1.05.22.84.84,0,0,1-.71-.47.34.34,0,0,0-.61-.07,2,2,0,0,1-.25.35l-.06,0c.09,0,0,.1,0,0s0-.21-.07-.3a3.14,3.14,0,0,1,0-.53c0-.54-.81-.51-.84,0Z" transform="translate(0)"/></svg>